<svg xmlns="http://www.w3.org/2000/svg" fill="none" viewBox="0 0 72 72" class="acv-icon"><path fill="#B1B7C2" d="M11 8a4 4 0 0 1 4-4h42a4 4 0 0 1 4 4v56a4 4 0 0 1-4 4H15a4 4 0 0 1-4-4V8Z"/><path fill="#8C93A1" d="M11 62v2a4 4 0 0 0 4 4h42a4 4 0 0 0 4-4v-2a4 4 0 0 1-4 4H15a4 4 0 0 1-4-4Z"/><path fill="#798190" d="M11 63v1a4 4 0 0 0 4 4h42a4 4 0 0 0 4-4v-1a4 4 0 0 1-4 4H15a4 4 0 0 1-4-4Z"/><g opacity=".6"><path fill="url(#a)" d="M19.5 66a.5.5 0 0 0 0 1h20a.5.5 0 0 0 0-1h-20Z"/><path fill="url(#b)" d="M44.5 66a.5.5 0 0 0 0 1h8a.5.5 0 0 0 0-1h-8Z"/></g><path fill="url(#c)" d="M12 53h-1v9a4 4 0 0 0 4 4h42a4 4 0 0 0 4-4v-9h-1v8.5a3.5 3.5 0 0 1-3.5 3.5h-41a3.5 3.5 0 0 1-3.5-3.5V53Z" opacity=".2"/><path fill="url(#d)" d="M12 8.5A3.5 3.5 0 0 1 15.5 5h41A3.5 3.5 0 0 1 60 8.5v53a3.5 3.5 0 0 1-3.5 3.5h-41a3.5 3.5 0 0 1-3.5-3.5v-53Z"/><path fill="#fff" d="M15.5 5A3.5 3.5 0 0 0 12 8.5v1A3.5 3.5 0 0 1 15.5 6h41A3.5 3.5 0 0 1 60 9.5v-1A3.5 3.5 0 0 0 56.5 5h-41Z" opacity=".6"/><path fill="url(#e)" d="M12 8.5A3.5 3.5 0 0 1 15.5 5h41A3.5 3.5 0 0 1 60 8.5v53a3.5 3.5 0 0 1-3.5 3.5h-41a3.5 3.5 0 0 1-3.5-3.5v-53Z" opacity=".5"/><path fill="#fff" d="M18.99 10.25a3 3 0 0 1-5.98 0 3 3 0 1 0 5.98 0Z" opacity=".8"/><path fill="#243143" d="M19 10a3 3 0 1 1-6 0 3 3 0 0 1 6 0Z" opacity=".3"/><path fill="#243143" d="M18.99 10.25a3 3 0 1 0-5.98 0 3 3 0 0 1 5.98 0Z" opacity=".3"/><path fill="#243143" d="M18 10.5a2 2 0 1 1-4 0 2 2 0 0 1 4 0Z" opacity=".4"/><path fill="#E0E4E8" d="M18 10a2 2 0 1 1-4 0 2 2 0 0 1 4 0Z"/><path fill="#243143" fill-opacity=".9" d="M17 10a1 1 0 1 1-2 0 1 1 0 0 1 2 0Z" opacity=".8"/><path fill="#fff" d="M58.99 10.25a3 3 0 0 1-5.98 0 3 3 0 1 0 5.98 0Z" opacity=".8"/><path fill="#243143" d="M59 10a3 3 0 1 1-6 0 3 3 0 0 1 6 0Z" opacity=".3"/><path fill="#243143" d="M58.99 10.25a3 3 0 1 0-5.98 0 3 3 0 0 1 5.98 0Z" opacity=".3"/><path fill="#243143" d="M58 10.5a2 2 0 1 1-4 0 2 2 0 0 1 4 0Z" opacity=".4"/><path fill="#E0E4E8" d="M58 10a2 2 0 1 1-4 0 2 2 0 0 1 4 0Z"/><path fill="#243143" fill-opacity=".9" d="M57 10a1 1 0 1 1-2 0 1 1 0 0 1 2 0Z" opacity=".8"/><path fill="#fff" d="M19 61a3 3 0 1 1-6 0 3 3 0 0 1 6 0Z" opacity=".8"/><path fill="#243143" d="M19 61a3 3 0 1 1-6 0 3 3 0 0 1 6 0Z" opacity=".6"/><path fill="#243143" d="M18.99 61.25a3 3 0 1 0-5.98 0 3 3 0 0 1 5.98 0Z" opacity=".3"/><path fill="#243143" d="M18 61.5a2 2 0 1 1-4 0 2 2 0 0 1 4 0Z" opacity=".2"/><path fill="#E0E4E8" d="M18 61a2 2 0 1 1-4 0 2 2 0 0 1 4 0Z" opacity=".7"/><path fill="#243143" fill-opacity=".9" d="M17 61a1 1 0 1 1-2 0 1 1 0 0 1 2 0Z" opacity=".8"/><path fill="#fff" d="M59 61a3 3 0 1 1-6 0 3 3 0 0 1 6 0Z" opacity=".8"/><path fill="#243143" d="M59 61a3 3 0 1 1-6 0 3 3 0 0 1 6 0Z" opacity=".6"/><path fill="#243143" d="M58.99 61.25a3 3 0 1 0-5.98 0 3 3 0 0 1 5.98 0Z" opacity=".3"/><path fill="#243143" d="M58 61.5a2 2 0 1 1-4 0 2 2 0 0 1 4 0Z" opacity=".2"/><path fill="#E0E4E8" d="M58 61a2 2 0 1 1-4 0 2 2 0 0 1 4 0Z" opacity=".7"/><path fill="#243143" fill-opacity=".9" d="M57 61a1 1 0 1 1-2 0 1 1 0 0 1 2 0Z" opacity=".8"/><path fill="#CED3D9" fill-rule="evenodd" d="M53 28c0 4.272-1.576 8.177-4.179 11.163l3.743 8.554a3.772 3.772 0 0 1-1.77 4.886 7.543 7.543 0 0 0-3.782 4.361l-.1.3A4 4 0 0 1 43.117 60h-12.48a4 4 0 0 1-3.676-2.424l-1.204-2.81a8 8 0 0 0-2.232-2.995l-3.086-2.572A4 4 0 0 1 19 46.127V28c0-9.389 7.611-17 17-17s17 7.611 17 17Zm-17 8a8 8 0 1 0 0-16 8 8 0 0 0 0 16Z" clip-rule="evenodd"/><circle cx="36" cy="28" r="8" fill="#A9AFB9"/><path fill="url(#f)" fill-rule="evenodd" d="m47.651 38.984.416-.478A15.934 15.934 0 0 0 52 28c0-8.837-7.163-16-16-16s-16 7.163-16 16v18.127a3 3 0 0 0 1.08 2.304l3.085 2.571-.64.769-3.086-2.572A4 4 0 0 1 19 46.127V28c0-9.389 7.611-17 17-17s17 7.611 17 17c0 4.272-1.576 8.177-4.179 11.163l3.743 8.554a3.772 3.772 0 0 1-1.77 4.886 7.543 7.543 0 0 0-3.782 4.361l-.1.3A4 4 0 0 1 43.117 60h-12.48a4 4 0 0 1-3.676-2.424l-1.204-2.81a8 8 0 0 0-2.232-2.995l.64-.769a9 9 0 0 1 2.51 3.37l1.205 2.81A3 3 0 0 0 30.638 59h12.479a3 3 0 0 0 2.846-2.051l.1-.3a8.544 8.544 0 0 1 4.285-4.94 2.772 2.772 0 0 0 1.3-3.591l-3.997-9.134Z" clip-rule="evenodd" opacity=".3"/><path fill="url(#g)" fill-rule="evenodd" d="m47.651 38.984.416-.478A15.934 15.934 0 0 0 52 28c0-8.837-7.163-16-16-16s-16 7.163-16 16v18.127a3 3 0 0 0 1.08 2.304l3.085 2.571-.64.769-3.086-2.572A4 4 0 0 1 19 46.127V28c0-9.389 7.611-17 17-17s17 7.611 17 17c0 4.272-1.576 8.177-4.179 11.163l3.743 8.554a3.772 3.772 0 0 1-1.77 4.886 7.543 7.543 0 0 0-3.782 4.361l-.1.3A4 4 0 0 1 43.117 60h-12.48a4 4 0 0 1-3.676-2.424l-1.204-2.81a8 8 0 0 0-2.232-2.995l.64-.769a9 9 0 0 1 2.51 3.37l1.205 2.81A3 3 0 0 0 30.638 59h12.479a3 3 0 0 0 2.846-2.051l.1-.3a8.544 8.544 0 0 1 4.285-4.94 2.772 2.772 0 0 0 1.3-3.591l-3.997-9.134Z" clip-rule="evenodd" opacity=".2"/><path fill="url(#h)" fill-rule="evenodd" d="m47.651 38.984.416-.478A15.934 15.934 0 0 0 52 28c0-8.837-7.163-16-16-16s-16 7.163-16 16v18.127a3 3 0 0 0 1.08 2.304l3.085 2.571-.64.769-3.086-2.572A4 4 0 0 1 19 46.127V28c0-9.389 7.611-17 17-17s17 7.611 17 17c0 4.272-1.576 8.177-4.179 11.163l3.743 8.554a3.772 3.772 0 0 1-1.77 4.886 7.543 7.543 0 0 0-3.782 4.361l-.1.3A4 4 0 0 1 43.117 60h-12.48a4 4 0 0 1-3.676-2.424l-1.204-2.81a8 8 0 0 0-2.232-2.995l.64-.769a9 9 0 0 1 2.51 3.37l1.205 2.81A3 3 0 0 0 30.638 59h12.479a3 3 0 0 0 2.846-2.051l.1-.3a8.544 8.544 0 0 1 4.285-4.94 2.772 2.772 0 0 0 1.3-3.591l-3.997-9.134Z" clip-rule="evenodd" opacity=".1" style="mix-blend-mode:multiply"/><path fill="url(#i)" fill-rule="evenodd" d="m47.651 38.984.416-.478A15.934 15.934 0 0 0 52 28c0-8.837-7.163-16-16-16s-16 7.163-16 16v18.127a3 3 0 0 0 1.08 2.304l3.085 2.571-.64.769-3.086-2.572A4 4 0 0 1 19 46.127V28c0-9.389 7.611-17 17-17s17 7.611 17 17c0 4.272-1.576 8.177-4.179 11.163l3.743 8.554a3.772 3.772 0 0 1-1.77 4.886 7.543 7.543 0 0 0-3.782 4.361l-.1.3A4 4 0 0 1 43.117 60h-12.48a4 4 0 0 1-3.676-2.424l-1.204-2.81a8 8 0 0 0-2.232-2.995l.64-.769a9 9 0 0 1 2.51 3.37l1.205 2.81A3 3 0 0 0 30.638 59h12.479a3 3 0 0 0 2.846-2.051l.1-.3a8.544 8.544 0 0 1 4.285-4.94 2.772 2.772 0 0 0 1.3-3.591l-3.997-9.134Z" clip-rule="evenodd" opacity=".7"/><g filter="url(#j)" opacity=".6"><path fill="#fff" d="M28.009 28.375a8 8 0 1 0 15.983 0 8 8 0 0 1-15.983 0Z"/></g><g filter="url(#k)" opacity=".3"><path fill="#243143" d="M43.392 24.936a8 8 0 0 0-14.284 7.129 8 8 0 1 1 14.284-7.129Z"/></g><path fill="#243143" d="M23.955 38.935c-.305-.384-.955-.175-.955.315v3.876a4 4 0 0 0 1.44 3.073l3.085 2.571c2.57 2.142 2.125 7.23 6.113 7.23h7.037a2.836 2.836 0 0 0 2.781-2.28c.35-1.748 1.013-2.455 2.558-3.227 1.664-.833 2.367-1.836 1.587-3.525l-1.852-5.011a.514.514 0 0 0-.77-.194C42.178 43.8 39.73 45 36 45c-5.224 0-9.089-2.356-12.045-6.064Z" opacity=".15"/><defs><linearGradient id="a" x1="54.5" x2="54.5" y1="66" y2="67" gradientUnits="userSpaceOnUse"><stop stop-color="#243143"/><stop offset="1" stop-color="#243143" stop-opacity=".5"/></linearGradient><linearGradient id="b" x1="54.5" x2="54.5" y1="66" y2="67" gradientUnits="userSpaceOnUse"><stop stop-color="#243143"/><stop offset="1" stop-color="#243143" stop-opacity=".5"/></linearGradient><linearGradient id="c" x1="36" x2="36" y1="55" y2="66" gradientUnits="userSpaceOnUse"><stop stop-color="#fff" stop-opacity="0"/><stop offset="1" stop-color="#fff"/></linearGradient><linearGradient id="d" x1="36" x2="36" y1="6.906" y2="66" gradientUnits="userSpaceOnUse"><stop stop-color="#D6D9DE"/><stop offset="1" stop-color="#949DA8"/></linearGradient><linearGradient id="e" x1="58" x2="13.5" y1="6" y2="45.5" gradientUnits="userSpaceOnUse"><stop stop-color="#fff"/><stop offset="1" stop-color="#949DA8" stop-opacity="0"/></linearGradient><linearGradient id="f" x1="36" x2="36" y1="11" y2="60" gradientUnits="userSpaceOnUse"><stop offset=".51" stop-color="#243143" stop-opacity="0"/><stop offset="1" stop-color="#243143"/></linearGradient><linearGradient id="g" x1="53" x2="19" y1="35" y2="35" gradientUnits="userSpaceOnUse"><stop stop-color="#243143"/><stop offset="1" stop-color="#fff"/></linearGradient><linearGradient id="h" x1="53" x2="19" y1="35" y2="35" gradientUnits="userSpaceOnUse"><stop stop-color="#243143"/><stop offset="1" stop-color="#fff"/></linearGradient><linearGradient id="i" x1="33.5" x2="19" y1="35" y2="35" gradientUnits="userSpaceOnUse"><stop stop-color="#fff" stop-opacity="0"/><stop offset="1" stop-color="#fff"/></linearGradient><filter id="j" width="16.6" height="8.975" x="27.7" y="28.075" color-interpolation-filters="sRGB" filterUnits="userSpaceOnUse"><feFlood flood-opacity="0" result="BackgroundImageFix"/><feBlend in="SourceGraphic" in2="BackgroundImageFix" result="shape"/><feGaussianBlur result="effect1_foregroundBlur_1292_8262" stdDeviation=".15"/></filter><filter id="k" width="16.392" height="13.065" x="27.5" y="19.5" color-interpolation-filters="sRGB" filterUnits="userSpaceOnUse"><feFlood flood-opacity="0" result="BackgroundImageFix"/><feBlend in="SourceGraphic" in2="BackgroundImageFix" result="shape"/><feGaussianBlur result="effect1_foregroundBlur_1292_8262" stdDeviation=".25"/></filter></defs></svg>