<svg xmlns="http://www.w3.org/2000/svg" fill="none" viewBox="0 0 16 16" class="acv-icon"><path fill="#2668C5" d="M4 6a1 1 0 1 1 0-2 1 1 0 0 1 0 2ZM8 5a1 1 0 1 0 2 0 1 1 0 0 0-2 0ZM11 5a1 1 0 1 0 2 0 1 1 0 0 0-2 0Z"/><path fill="#2668C5" fill-rule="evenodd" d="M1 1h14a1 1 0 0 1 1 1v8.189a2.067 2.067 0 0 0-.886-.189H14V9H2v4h6.542a1.787 1.787 0 0 0 .41 1.72l.224.28H1a1 1 0 0 1-1-1V2a1 1 0 0 1 1-1Zm1 6h12V3H2v4Z" clip-rule="evenodd"/><path fill="#2668C5" d="M3 11a1 1 0 1 0 2 0 1 1 0 0 0-2 0Z"/><path fill="#2668C5" fill-rule="evenodd" d="M11.746 11a.99.99 0 0 0-.746.323l-1.291 1.612a.79.79 0 0 0 0 1.13l1.29 1.612a.99.99 0 0 0 .747.323h3.368c.577 0 .886-.342.886-.833v-3.334c0-.49-.309-.833-.886-.833h-3.368Zm-.246 3a.5.5 0 1 0 0-1 .5.5 0 0 0 0 1Z" clip-rule="evenodd"/></svg>