<svg xmlns="http://www.w3.org/2000/svg" fill="none" viewBox="0 0 16 16" class="acv-icon"><g fill="#2668C5" fill-rule="evenodd" clip-path="url(#a)" clip-rule="evenodd"><path d="M11 6a3 3 0 1 1-6 0 3 3 0 0 1 6 0ZM9 6a1 1 0 1 1-2 0 1 1 0 0 1 2 0Z"/><path d="M16 8a7.985 7.985 0 0 1-3 6.245A7.978 7.978 0 0 1 8 16a8 8 0 1 1 8-8Zm-8 6a5.973 5.973 0 0 0 2.864-.726A2 2 0 0 0 9 12H7a2 2 0 0 0-1.864 1.274A5.973 5.973 0 0 0 8 14Zm1-4c1.483 0 2.777.807 3.468 2.005a6 6 0 1 0-8.935 0A3.998 3.998 0 0 1 7 10h2Z"/></g><defs><clipPath id="a"><path fill="#fff" d="M0 0h16v16H0z"/></clipPath></defs></svg>