<svg xmlns="http://www.w3.org/2000/svg" fill="none" viewBox="0 0 24 24" class="acv-icon"><path stroke="#141414" stroke-linecap="round" stroke-linejoin="round" stroke-width="1.5" d="M12.502 5.39c-.927.645-1.6 1.715-2.122 2.807a6.67 6.67 0 0 0-.654 2.88v.239c0 .332.053.651.152.95l-2.07 2.07a1.75 1.75 0 1 0-1.036 2.893 1.75 1.75 0 1 0 2.893-1.037l2.032-2.033c.375.14.784.209 1.21.188l.13-.006a6.943 6.943 0 0 0 2.665-.672c1.702-.815 3.353-1.988 3.517-3.868.137-1.567-.178-3.309-.945-4.075-.333-.333-.85-.581-1.457-.744a2.748 2.748 0 0 1-4.315.408Z"/></svg>