<svg xmlns="http://www.w3.org/2000/svg" fill="none" viewBox="0 0 32 32" class="acv-icon"><path fill="#2668C5" fill-rule="evenodd" d="M4 3a2 2 0 0 0-2 2v18a2 2 0 0 0 2 2h8l-.845 3.379a.5.5 0 0 0 .485.621h8.72a.5.5 0 0 0 .485-.621L20 25h8a2 2 0 0 0 2-2V5a2 2 0 0 0-2-2H4Zm5.912 13.91h1.285v-4.973H9.912v4.974Zm.13-6.736a.601.601 0 0 0-.183.464c0 .203.064.36.193.474.129.11.3.165.512.165a.739.739 0 0 0 .498-.165c.128-.114.193-.271.193-.474a.593.593 0 0 0-.189-.464c-.125-.116-.293-.174-.502-.174-.222 0-.396.058-.521.174ZM6 10.384v6.527h3.135v-1.063H7.314v-5.464H6Zm8.979 6.527v-2.965c0-.36-.047-.632-.14-.816a.473.473 0 0 0-.455-.277c-.277 0-.48.128-.608.384-.129.253-.193.681-.193 1.285v2.389h-1.285v-4.974h1.02l.154.639h.082c.116-.23.281-.408.497-.536.216-.13.469-.196.758-.196.49 0 .855.155 1.097.464.245.31.367.762.367 1.357v3.246h-1.294Zm5.08-.639.16.639h1.028v-4.974h-1.299v2.384c0 .605-.064 1.035-.193 1.29-.125.257-.327.384-.604.384a.473.473 0 0 1-.454-.276c-.093-.185-.14-.459-.14-.822v-2.96h-1.299v3.246c0 .604.124 1.058.372 1.362.248.303.613.455 1.096.455.284 0 .535-.064.754-.192.222-.13.393-.31.512-.536h.067Zm3.193-1.901-1.343-2.434h1.333l.715 1.518.662-1.518h1.323l-1.352 2.434L26 16.91h-1.343l-.763-1.59-.71 1.59h-1.338l1.406-2.54Z" clip-rule="evenodd"/></svg>