<svg xmlns="http://www.w3.org/2000/svg" fill="none" viewBox="0 0 32 32" class="acv-icon"><path fill="#2668C5" fill-rule="evenodd" d="M7 5h10v6a1 1 0 0 0 1 1h6v12h2V11a1 1 0 0 0-.293-.707l-7-7A1 1 0 0 0 18 3H6a1 1 0 0 0-1 1v25a1 1 0 0 0 1 1h15v-2H7V5Zm12 5V6.414L22.586 10H19Z" clip-rule="evenodd"/><path fill="#2668C5" fill-rule="evenodd" d="m20.056 22.581 5.581 4.64c.425.353.485.986.134 1.414a.994.994 0 0 1-1.405.135l-5.722-4.757a5.5 5.5 0 1 1 1.413-1.432ZM15.5 23a3.5 3.5 0 1 0 0-7 3.5 3.5 0 0 0 0 7Z" clip-rule="evenodd"/></svg>