<svg xmlns="http://www.w3.org/2000/svg" fill="none" viewBox="0 0 24 24" class="acv-icon"><path fill="#2668C5" fill-rule="evenodd" d="M19.295 2.293a.999.999 0 0 1 1.412 1.412l-2.36 2.36C18.766 6.962 19 7.957 19 9c0 2.408-1.062 4.423-3 5.595V16a2 2 0 0 1-2 2h-4a2 2 0 0 1-1.965-1.623l-2.33 2.33a.999.999 0 0 1-1.412-1.412L19.295 2.293ZM10 14.413l6.8-6.8c.13.441.2.907.2 1.387 0 1.887-.852 3.338-2.434 4.1A1 1 0 0 0 14 14v2h-4v-1.588Z" clip-rule="evenodd"/><path fill="#2668C5" d="M14 19a1 1 0 1 1 0 2h-4a1 1 0 1 1 0-2h4ZM14.75 4.838l1.434-1.434A6.942 6.942 0 0 0 12 2C8.152 2 5 5.172 5 9c0 1.624.483 3.068 1.391 4.196l1.427-1.427C7.28 11.022 7 10.083 7 9c0-2.726 2.26-5 5-5a4.94 4.94 0 0 1 2.75.838Z"/></svg>