<svg xmlns="http://www.w3.org/2000/svg" fill="none" viewBox="0 0 32 32" class="acv-icon"><path fill="#2668C5" fill-rule="evenodd" d="M6 2a4 4 0 0 0-4 4v20a4 4 0 0 0 4 4h20a4 4 0 0 0 4-4V6a4 4 0 0 0-4-4H6Zm5.61 17.1-3.94.38a7.71 7.71 0 0 0 2.44 5.13 8.74 8.74 0 0 0 5.84 1.75c1.487.04 2.968-.207 4.36-.73a5.75 5.75 0 0 0 2.7-2.24 6.25 6.25 0 0 0 .15-6.41 5.39 5.39 0 0 0-2.21-2 19.476 19.476 0 0 0-4.36-1.45 10.5 10.5 0 0 1-3.72-1.34 1.539 1.539 0 0 1-.6-1.22 1.451 1.451 0 0 1 .64-1.24A4.66 4.66 0 0 1 15.67 9a4 4 0 0 1 2.56.69 3.39 3.39 0 0 1 1.12 2.21l4-.17a5.86 5.86 0 0 0-2-4.42c-1.273-1.1-3.167-1.65-5.68-1.65a10.19 10.19 0 0 0-4 .69 5.53 5.53 0 0 0-2.5 2 5.27 5.27 0 0 0 1 6.89 11.119 11.119 0 0 0 4.57 2c1.69.42 2.77.71 3.24.88a3.241 3.241 0 0 1 1.45.87 1.8 1.8 0 0 1 .42 1.21 2.5 2.5 0 0 1-1 1.94 4.56 4.56 0 0 1-2.94.82 4.39 4.39 0 0 1-2.94-.93 4.839 4.839 0 0 1-1.36-2.93Z" clip-rule="evenodd"/></svg>