<svg xmlns="http://www.w3.org/2000/svg" fill="none" viewBox="0 0 16 16" class="acv-icon"><g fill="#2668C5" clip-path="url(#a)"><path d="M0 2a1 1 0 0 1 1-1h14a1 1 0 0 1 1 1v8.189a2.068 2.068 0 0 0-.885-.189H14V3H2v7h9.747c-.614 0-1.101.252-1.465.628l-.033.034L9.177 12H9v.22l-.047.06a1.786 1.786 0 0 0 0 2.44l.224.28H5a1 1 0 1 1 0-2h2v-1H1a1 1 0 0 1-1-1V2Z"/><path d="M4 4a1 1 0 0 0-1 1v3a1 1 0 0 0 2 0V5a1 1 0 0 0-1-1ZM6 5a1 1 0 0 1 2 0v3a1 1 0 0 1-2 0V5ZM12 6a1 1 0 1 0 0-2 1 1 0 0 0 0 2Z"/><path fill-rule="evenodd" d="M11 11.323a.99.99 0 0 1 .747-.323h3.368c.577 0 .885.342.885.833v3.334c0 .49-.308.833-.885.833h-3.368a.99.99 0 0 1-.747-.323l-1.29-1.612a.79.79 0 0 1 0-1.13L11 11.323Zm1 2.177a.5.5 0 1 1-1 0 .5.5 0 0 1 1 0Z" clip-rule="evenodd"/></g><defs><clipPath id="a"><path fill="#fff" d="M0 0h16v16H0z"/></clipPath></defs></svg>