<svg xmlns="http://www.w3.org/2000/svg" fill="none" viewBox="0 0 24 24" class="acv-icon"><path stroke="#141414" stroke-linecap="round" stroke-linejoin="round" stroke-width="1.5" d="M17.25 15.75v.5a3 3 0 0 1-3 3h-6.5a3 3 0 0 1-3-3v-8.5a3 3 0 0 1 3-3h2.5"/><path stroke="#141414" stroke-linecap="round" stroke-linejoin="round" stroke-width="1.5" d="m15.456 11.01 3.283-3.282a1.744 1.744 0 1 0-2.467-2.467L12.99 8.544a2.13 2.13 0 0 0-.56.99l-.679 2.716 2.717-.68a2.13 2.13 0 0 0 .989-.56ZM7.75 15.25h6.5M7.75 12.25h1.5M7.75 9.25h1.5"/></svg>