<svg xmlns="http://www.w3.org/2000/svg" fill="none" viewBox="0 0 24 24" class="acv-icon"><path stroke="#141414" stroke-linecap="round" stroke-linejoin="round" stroke-width="1.5" d="M17.25 4.75H6.75a2 2 0 0 0-2 2v10.5a2 2 0 0 0 2 2h10.5a2 2 0 0 0 2-2V6.75a2 2 0 0 0-2-2Z"/><path stroke="#141414" stroke-linecap="round" stroke-linejoin="round" d="M9.5 6a.5.5 0 1 1-1 0 .5.5 0 0 1 1 0ZM11.5 8a.5.5 0 1 1-1 0 .5.5 0 0 1 1 0ZM9.5 10a.5.5 0 1 1-1 0 .5.5 0 0 1 1 0ZM11.5 12a.5.5 0 1 1-1 0 .5.5 0 0 1 1 0Z"/></svg>