<svg xmlns="http://www.w3.org/2000/svg" fill="none" viewBox="0 0 24 24" class="acv-icon"><path fill="#2668C5" fill-rule="evenodd" d="M14.925 16.798c-.62.088-1.263.149-1.925.18v1.29c.304.175.557.428.732.732h.351a6.036 6.036 0 0 0 0 2h-.35a2 2 0 0 1-3.465 0H5a1 1 0 1 1 0-2h5.268a2.01 2.01 0 0 1 .732-.732v-1.29c-5.005-.23-9-2.18-9-4.978V7c0-2.983 4.538-5 10-5s10 2.017 10 5v5c0 .774-.306 1.483-.854 2.11a5.996 5.996 0 0 0-6.221 2.689ZM20 12v-1.916C18.165 11.288 15.246 12 12 12c-3.246 0-6.165-.712-8-1.916V12c0 1.435 3.52 3 8 3s8-1.565 8-3Zm-8-2c4.48 0 8-1.565 8-3s-3.52-3-8-3-8 1.565-8 3 3.52 3 8 3Z" clip-rule="evenodd"/></svg>