<svg width="16" height="16" fill="none" viewBox="0 0 16 16" xmlns="http://www.w3.org/2000/svg">
  <g clip-path="url(#prefix__a)">
    <circle cx="8" cy="8" r="8" fill="#EA3939"/>
    <circle cx="8" cy="8" r="7.5" stroke="#243143" stroke-opacity=".1"/>
    <path fill="#fff" d="M9.5 9.505c1.657 0 3-1.344 3-3.003a3.001 3.001 0 1 0-5.708 1.295l-2.5 2.501a1.001 1.001 0 0 0 1.415 1.416l.25-.25.69.69a.5.5 0 0 0 .707 0l.792-.794a.5.5 0 0 0 0-.708l-.689-.69.75-.75c.391.188.83.293 1.293.293Zm1.25-3.003a1.25 1.25 0 1 1-2.501.001 1.25 1.25 0 0 1 2.501 0Z" clip-rule="evenodd"/>
  </g>
  <defs>
    <clipPath id="prefix__a">
      <path fill="#fff" d="M0 0h16v16H0z"/>
    </clipPath>
  </defs>
</svg>
