<svg width="16" height="16" fill="none" viewBox="0 0 16 16" xmlns="http://www.w3.org/2000/svg">
  <g clip-path="url(#prefix__a)">
    <circle cx="8" cy="8" r="8" fill="#949AA3"/>
    <circle cx="8" cy="8" r="7.5" stroke="#243143" stroke-opacity=".1"/>
    <path fill="#fff" d="M5.5 4.5a1 1 0 0 0-1 1v5a1 1 0 1 0 2 0v-5a1 1 0 0 0-1-1Zm5 0a1 1 0 0 0-1 1v5a1 1 0 1 0 2 0v-5a1 1 0 0 0-1-1Z"/>
  </g>
  <defs>
    <clipPath id="prefix__a">
      <path fill="#fff" d="M0 0h16v16H0z"/>
    </clipPath>
  </defs>
</svg>
