<svg width="32" height="32" fill="none" viewBox="0 0 32 32" xmlns="http://www.w3.org/2000/svg">
  <g clip-path="url(#prefix__a)">
    <circle cx="16" cy="16" r="16" fill="#FFE8A3"/>
    <path fill="#8E5E2F" d="M23 14.302V10s-1.5-2-7-2-7 2-7 2v8c0 3.429 6 6 7 6s7.008-2.604 7-6v-3.698Zm-5.258-2.842-.445 3.705h1.327c.082 0 .162.03.227.085.166.139.198.4.073.583l-3.994 5a.36.36 0 0 1-.34.163c-.206-.025-.355-.231-.332-.46l.445-3.705h-1.327a.352.352 0 0 1-.227-.085.447.447 0 0 1-.072-.583l3.993-5a.36.36 0 0 1 .34-.163c.206.025.355.23.332.46Z" clip-rule="evenodd"/>
  </g>
  <defs>
    <clipPath id="prefix__a">
      <path fill="#fff" d="M0 0h32v32H0z"/>
    </clipPath>
  </defs>
</svg>
