<svg width="32" height="32" fill="none" viewBox="0 0 32 32" xmlns="http://www.w3.org/2000/svg">
  <path fill="#E9EAEC" d="M29 16c0 7.18-5.82 13-13 13S3 23.18 3 16 8.82 3 16 3s13 5.82 13 13Z"/>
  <path fill="#949AA3" d="M16 3c7.18 0 13 5.82 13 13s-5.82 13-13 13S3 23.18 3 16 8.82 3 16 3Zm0 2c6.075 0 11 4.925 11 11a10.96 10.96 0 0 1-2.547 7.04L8.961 7.546A10.955 10.955 0 0 1 16 5Zm7.04 19.453L7.546 8.961A10.955 10.955 0 0 0 5 16c0 6.075 4.925 11 11 11a10.96 10.96 0 0 0 7.04-2.547Z" clip-rule="evenodd"/>
</svg>
