<svg width="32" height="32" fill="none" viewBox="0 0 32 32" xmlns="http://www.w3.org/2000/svg">
  <rect width="24" height="24" x="4" y="4" fill="#408BEA" rx="2"/>
  <rect width="23" height="23" x="4.5" y="4.5" stroke="#243143" stroke-opacity=".1" rx="1.5"/>
  <path fill="currentColor" d="M4 6a2 2 0 0 1 2-2h20a2 2 0 0 1 2 2v4H4V6Z"/>
  <path stroke="#243143" stroke-opacity=".1" d="M4.5 6A1.5 1.5 0 0 1 6 4.5h20A1.5 1.5 0 0 1 27.5 6v3.5h-23V6Z"/>
  <path fill="#fff" d="M20.996 12.864a.963.963 0 0 1 .93 1.213L19.63 22.6a.963.963 0 1 1-1.86-.5l2.295-8.524a.963.963 0 0 1 .93-.712Zm-4.446 0a.963.963 0 0 1 .93 1.213L15.186 22.6a.963.963 0 0 1-1.86-.5l2.295-8.524a.963.963 0 0 1 .93-.712Zm-5.675 9.272c-.33 0-.612-.115-.848-.345a1.14 1.14 0 0 1-.345-.848c-.003-.324.112-.6.345-.83.236-.23.519-.346.848-.346.313 0 .588.115.827.345.241.23.363.507.366.831a1.148 1.148 0 0 1-.175.605c-.11.18-.255.323-.434.43a1.133 1.133 0 0 1-.584.158Zm0-4.397c-.33 0-.612-.115-.848-.346a1.14 1.14 0 0 1-.345-.848 1.11 1.11 0 0 1 .345-.83c.236-.23.519-.346.848-.346.313 0 .588.115.827.345.241.23.363.508.366.832a1.148 1.148 0 0 1-.175.605c-.11.179-.255.322-.434.43a1.133 1.133 0 0 1-.584.158Z"/>
</svg>
