<svg width="16" height="16" fill="none" viewBox="0 0 16 16" xmlns="http://www.w3.org/2000/svg">
  <path fill="#FFC107" d="M7.131.534a1.04 1.04 0 0 1 .365-.39c.48-.296 1.095-.122 1.373.39l6.995 12.858c.09.163.136.348.136.537C16 14.52 15.55 15 14.995 15H1.005a.958.958 0 0 1-.504-.145c-.48-.296-.644-.952-.365-1.463L7.13.534Z" clip-rule="evenodd"/>
  <path stroke="#243143" stroke-opacity=".1" d="M7.57.773A.54.54 0 0 1 7.76.57c.221-.137.52-.071.67.203l6.995 12.858a.625.625 0 0 1 .075.298c0 .346-.255.571-.505.571H1.005a.457.457 0 0 1-.241-.07c-.243-.15-.347-.508-.189-.8L7.57.774l-.423-.23.423.23Z"/>
  <path fill="#243143" fill-opacity=".9" d="M8 4.5a1 1 0 0 0-1 1V8a1 1 0 0 0 2 0V5.5a1 1 0 0 0-1-1Zm0 8a1 1 0 1 0 0-2 1 1 0 0 0 0 2Z"/>
</svg>
