<svg width="32" height="32" fill="none" viewBox="0 0 32 32" xmlns="http://www.w3.org/2000/svg">
  <rect width="26" height="26" x="3" y="3" fill="#3A76F1" rx="8"/>
  <rect width="25" height="25" x="3.5" y="3.5" stroke="#243143" stroke-opacity=".1" rx="7.5"/>
  <path fill="#fff" d="M8.5 11A1.5 1.5 0 0 0 7 12.5V18a3 3 0 0 0 3 3h7.5a1.5 1.5 0 0 0 1.5-1.5V14a3 3 0 0 0-3-3H8.5Zm12.485 2.775a1 1 0 0 0-.485.857V17.5a1 1 0 0 0 .485.858l3.258 2.188a.5.5 0 0 0 .757-.43v-8.233a.5.5 0 0 0-.757-.429l-3.258 2.32Z"/>
</svg>
