<svg xmlns="http://www.w3.org/2000/svg" fill="none" viewBox="0 0 24 24" class="acv-icon"><path fill="#2668C5" fill-rule="evenodd" d="M12 22c5.462 0 10-2.017 10-5V7c0-2.983-4.538-5-10-5S2 4.017 2 7v10c0 2.983 4.538 5 10 5Zm8-15c0 1.435-3.52 3-8 3S4 8.435 4 7s3.52-3 8-3 8 1.565 8 3Zm-8 5c-3.246 0-6.165-.712-8-1.916V12c0 1.435 3.52 3 8 3s8-1.565 8-3v-1.916C18.165 11.288 15.246 12 12 12Zm0 5c3.246 0 6.165-.712 8-1.916V17c0 1.435-3.52 3-8 3s-8-1.565-8-3v-1.916C5.835 16.288 8.754 17 12 17Z" clip-rule="evenodd"/></svg>