<svg xmlns="http://www.w3.org/2000/svg" fill="none" viewBox="0 0 16 16" class="acv-icon"><g clip-path="url(#a)"><path fill="#2668C5" fill-rule="evenodd" d="M16 3.5C16 1.567 12.418 0 8 0S0 1.567 0 3.5v9C0 14.433 3.582 16 8 16s8-1.567 8-3.5v-9ZM8 12c2.39 0 4.534-.524 6-1.354.036 1.18.036 1.789 0 1.826-.203.21-.638.449-1.145.67C11.633 13.678 9.89 14 8 14c-1.889 0-3.633-.323-4.855-.857-.507-.222-.942-.46-1.145-.67v-1.827C3.466 11.476 5.61 12 8 12Zm6-5.354C12.534 7.476 10.39 8 8 8s-4.534-.524-6-1.354v1.826c.203.21.638.449 1.145.67C4.367 9.678 6.11 10 8 10c1.889 0 3.633-.323 4.855-.857.507-.222.942-.46 1.145-.67.036-.038.036-.647 0-1.827ZM14 4c0 1.105-2.686 2-6 2s-6-.895-6-2 2.686-2 6-2 6 .895 6 2Z" clip-rule="evenodd"/></g><defs><clipPath id="a"><path fill="#fff" d="M0 0h16v16H0z"/></clipPath></defs></svg>