<svg xmlns="http://www.w3.org/2000/svg" fill="none" viewBox="0 0 32 32" class="acv-icon"><path fill="#2668C5" fill-rule="evenodd" d="M26.347 5.833c-1.01-.586-1.931-.782-2.621-.824a4.631 4.631 0 0 0-.833.022 3.371 3.371 0 0 0-.627.135l-.148.04-7.773 13.55-.39 6.53c-.058.988 1.028 1.618 1.848 1.074l5.424-3.605L29 9.205l-.039-.15a3.441 3.441 0 0 0-.197-.613 4.702 4.702 0 0 0-.398-.736c-.38-.58-1.01-1.287-2.02-1.873ZM17.05 18.04l4.246-7.401 3.407 2.058-4.245 7.4-3.408-2.057Zm-.783 1.859-.233 3.91 3.195-2.122-2.962-1.788Zm9.43-8.934-3.408-2.058L23.384 7c.066-.001.14 0 .223.005.418.025 1.035.146 1.746.56.712.413 1.124.89 1.355 1.242.045.07.084.134.116.192l-1.127 1.966Z" clip-rule="evenodd"/><path fill="#2668C5" d="m3 15.586 4.033 2.368c.513.301.65.985.295 1.464l-.487.652a3.012 3.012 0 0 0 .522 4.142L10.826 27l1.242-1.561-3.463-2.788a1.004 1.004 0 0 1-.175-1.381l.487-.653a3.01 3.01 0 0 0-.883-4.39L4.001 13.86 3 15.586Z"/></svg>