<svg xmlns="http://www.w3.org/2000/svg" fill="none" viewBox="0 0 24 24" class="acv-icon"><path stroke="#141414" stroke-linecap="round" stroke-linejoin="round" stroke-width="1.5" d="M6.75 9.75V14a5.25 5.25 0 0 0 8.65 4"/><path stroke="#141414" stroke-linecap="round" stroke-linejoin="round" stroke-width="1.5" d="M10 12.75V14a2 2 0 0 0 2 2h.25M10 10a2 2 0 0 1 2-2h.25M14 9.75v2.5M17.25 12.75V14c0 .521-.25 1.25-.25 1.25M12 4.75c2.9 0 5.25 2.6 5.25 5.5M12 4.75c2.9 0 5.25 2.35 5.25 5.25M12 4.75h-.25"/></svg>