<svg xmlns="http://www.w3.org/2000/svg" fill="none" viewBox="0 0 24 24"><path stroke="currentColor" stroke-linecap="round" stroke-linejoin="round" stroke-width="2" d="M7 20c1.105 0 2-.895 2-2s-.895-2-2-2-2 .895-2 2 .895 2 2 2M9 18h6M17 20c1.105 0 2-.895 2-2s-.895-2-2-2-2 .895-2 2 .895 2 2 2"/><path stroke="currentColor" stroke-linecap="round" stroke-linejoin="round" stroke-width="2" d="M19.5 18c.878 0 1.6399-.606 1.8373-1.4616l.7721-3.3456c.224-.971-.3008-1.9587-1.2309-2.3164l-3.2489-1.2496a4 4 0 0 1-2.278-2.2479l-.8487-2.1217A2 2 0 0 0 12.6459 4H6.4415a2 2 0 0 0-1.8973 1.3675L3 10m1.5 8H4c-1.1046 0-2-.8954-2-2v-4c0-1.1046.8954-2 2-2h14.6"/></svg>