<svg xmlns="http://www.w3.org/2000/svg" fill="none" viewBox="0 0 32 32" class="acv-icon"><path fill="#408BEA" d="M28.762 18.49c.156-.806.238-1.639.238-2.49 0-7.18-5.82-13-13-13S3 8.82 3 16s5.82 13 13 13c.851 0 1.684-.082 2.49-.238A8 8 0 0 1 28.762 18.49Z"/><path fill="#243143" fill-opacity=".1" d="M18.203 27.798c-.714.133-1.45.202-2.203.202-6.627 0-12-5.373-12-12S9.373 4 16 4s12 5.373 12 12c0 .753-.07 1.489-.202 2.203.33.076.651.172.964.287.156-.806.238-1.639.238-2.49 0-7.18-5.82-13-13-13S3 8.82 3 16s5.82 13 13 13c.851 0 1.684-.082 2.49-.238a7.934 7.934 0 0 1-.287-.964Z"/><path fill="#fff" d="M21.097 15.184c.1-.377.153-.774.153-1.184 0-2.485-1.959-4.5-4.375-4.5-1.912 0-3.538 1.262-4.133 3.02-1.45.174-2.575 1.442-2.575 2.98 0 .335.053.657.151.958A2.713 2.713 0 0 0 9 18.8c0 1.491 1.175 2.7 2.625 2.7h7.76a8.028 8.028 0 0 1 3.593-2.91A3.45 3.45 0 0 0 23 18.2a3.306 3.306 0 0 0-1.903-3.015Z"/></svg>