<svg xmlns="http://www.w3.org/2000/svg" fill="none" viewBox="0 0 16 16" class="acv-icon"><circle cx="8" cy="8" r="8" fill="#fff"/><path fill="#EA3939" d="M8 15A7 7 0 1 1 8 1a7 7 0 0 1 0 14Z"/><path fill="#fff" d="M11.8 7.365c0 .089-.004.177-.012.263A1.437 1.437 0 0 1 13 9.056c0 .798-.637 1.444-1.422 1.444H4.422A1.433 1.433 0 0 1 3 9.056c0-.709.503-1.298 1.167-1.42a1.758 1.758 0 0 1-.011-.204c0-.946.756-1.714 1.688-1.714.258 0 .501.058.72.163A2.812 2.812 0 0 1 8.977 4.5c1.558 0 2.822 1.283 2.822 2.865Z"/></svg>