<svg xmlns="http://www.w3.org/2000/svg" fill="none" viewBox="0 0 32 32" class="acv-icon"><path fill="#2668C5" d="M17 5.747a1 1 0 1 0-2 0v.075a2.999 2.999 0 0 0-1.1.552 2.388 2.388 0 0 0-.894 2.022v.002c.024.457.15.874.388 1.235.235.355.543.602.853.776.529.297 1.174.438 1.643.54l.112.024c.57.125.893.218 1.09.35.074.05.1.088.116.12.017.033.05.123.043.318v.003c-.004.089-.034.17-.184.267-.177.112-.478.204-.855.203-.82-.002-1.377-.387-1.509-.806a1 1 0 1 0-1.907.601c.352 1.118 1.261 1.747 2.204 2.026v.198a1 1 0 1 0 2 0v-.093a3.288 3.288 0 0 0 1.142-.443c.6-.383 1.072-1.016 1.107-1.87.02-.463-.054-.899-.248-1.29a2.298 2.298 0 0 0-.79-.891c-.56-.378-1.264-.533-1.754-.64l-.025-.006c-.586-.13-.951-.212-1.204-.354a.453.453 0 0 1-.165-.136c-.018-.026-.052-.089-.06-.236-.009-.182.05-.28.156-.367.138-.112.388-.214.719-.232.745-.041 1.17.311 1.245.608a1 1 0 1 0 1.938-.497c-.286-1.113-1.156-1.72-2.061-1.971v-.088Z"/><path fill="#2668C5" fill-rule="evenodd" d="M25 10c0 4.633-3.5 8.448-8 8.945v6.21l4.343-2.508a3.001 3.001 0 0 1 5.549-2.05 3 3 0 0 1-4.549 3.782L17 27.464V30a1 1 0 1 1-2 0v-2.762l-4.952-2.859a3.001 3.001 0 0 1-4.548-3.78 3 3 0 0 1 5.548 2.048L15 24.928v-5.983A9.001 9.001 0 0 1 16 1a9 9 0 0 1 9 9Zm-9 7a7 7 0 1 0 0-14 7 7 0 0 0 0 14Zm8.794 5.964a1 1 0 1 0-1-1.732 1 1 0 0 0 1 1.732ZM7.232 21.598a1 1 0 1 1 1.732 1 1 1 0 0 1-1.732-1Z" clip-rule="evenodd"/></svg>