<svg xmlns="http://www.w3.org/2000/svg" fill="none" viewBox="0 0 32 32" class="acv-icon"><g fill="#2668C5" fill-rule="evenodd" clip-path="url(#a)" clip-rule="evenodd"><path d="M20 12v3a2 2 0 0 1 2 2v6a2 2 0 0 1-2 2h-8a2 2 0 0 1-2-2v-6a2 2 0 0 1 2-2v-3a4 4 0 1 1 8 0Zm-3.293 9.837A1 1 0 0 0 17 21.13V19a1 1 0 0 0-2 0v2.13a1 1 0 0 0 1.707.707ZM14 15h4v-3a2 2 0 0 0-4 0v3Z"/><path d="M23.172 0a2 2 0 0 1 1.414.586l6.828 6.828A2 2 0 0 1 32 8.828V30a2 2 0 0 1-2 2H2a2 2 0 0 1-2-2V2a2 2 0 0 1 2-2h21.172ZM2 2v28h28V9h-7V2H2Z"/></g><defs><clipPath id="a"><path fill="#fff" d="M0 0h32v32H0z"/></clipPath></defs></svg>