<svg xmlns="http://www.w3.org/2000/svg" fill="none" class="acv-icon" viewBox="0 0 32 32"><path fill="currentColor" d="M24.978 11H27l-1.228-6.194A1 1 0 0 0 24.79 4H5.975a1 1 0 0 0-.981.807L2 20v8a1 1 0 0 0 1 1h13.87v-2H3.982v-6h12.876v-2H4.2L6.778 6h17.209l.991 5Z"/><path fill="currentColor" fill-rule="evenodd" d="M22 19v-3.5a2.5 2.5 0 0 1 5 0V19h3v2H19v-2h3Zm3 0v-3.5a.5.5 0 0 0-1 0V19h1Z" clip-rule="evenodd"/><path fill="currentColor" d="M21 22h-2v7h2v-7Zm-4 1H6v2h11v-2Zm5-1h2v7h-2v-7Zm5 0h-2v7h2v-7Zm1 0h2v7h-2v-7Z"/></svg>