<svg xmlns="http://www.w3.org/2000/svg" fill="none" viewBox="0 0 24 24" class="acv-icon"><path fill="#2668C5" d="M4 11a1 1 0 0 1 1-1h2a1 1 0 1 1 0 2H5a1 1 0 0 1-1-1ZM5 13a1 1 0 1 0 0 2h2a1 1 0 1 0 0-2H5ZM4 17a1 1 0 0 1 1-1h2a1 1 0 1 1 0 2H5a1 1 0 0 1-1-1ZM18 16h2v2h-4v-4h2v2Z"/><path fill="#2668C5" fill-rule="evenodd" d="M7 1H5v2H2a1 1 0 0 0-1 1v16a1 1 0 0 0 1 1h9.255A7 7 0 1 0 22 12.101V4a1 1 0 0 0-1-1h-3V1h-2v2H7V1Zm3 16c0 .695.101 1.366.29 2H3V9h17v1.674A7 7 0 0 0 10 17ZM20 7V5H3v2h17Zm-3 15a5 5 0 1 0 0-10 5 5 0 0 0 0 10Z" clip-rule="evenodd"/></svg>