<svg fill="none" viewBox="0 0 31 12" xmlns="http://www.w3.org/2000/svg">
  <path fill="#fff" d="M11.49 7.583c-.694 2.47-2.955 4.3-5.64 4.3-3.218 0-5.85-2.65-5.85-5.901C0 2.732 2.637.08 5.867.08a5.84 5.84 0 0 1 5.654 4.365h-2.6c-.534-1.259-1.715-2.078-3.054-2.078-1.875 0-3.363 1.58-3.363 3.593 0 2.014 1.488 3.632 3.347 3.632 1.329 0 2.457-.83 3.007-2.009h2.632ZM25.13.08c-3.23 0-5.867 2.646-5.867 5.902 0 3.256 2.631 5.902 5.866 5.902s5.85-2.646 5.85-5.902c0-3.256-2.636-5.902-5.85-5.902Zm-.017 9.512c-1.858 0-3.346-1.618-3.346-3.632 0-2.013 1.488-3.593 3.346-3.593 1.859 0 3.363 1.585 3.363 3.593 0 2.009-1.504 3.632-3.363 3.632Zm-12.12-.472h2.637l2.261-3.138-2.26-3.139h-2.638l2.33 3.139-2.33 3.138Z" clip-rule="evenodd"/>
</svg>
