<svg fill="none" viewBox="0 0 31 12" xmlns="http://www.w3.org/2000/svg">
  <path fill="#DB4F3D" d="M25.13.08c-3.23 0-5.867 2.646-5.867 5.902 0 3.256 2.631 5.902 5.866 5.902s5.85-2.646 5.85-5.902c0-3.256-2.636-5.902-5.85-5.902Zm-.017 9.512c-1.858 0-3.346-1.618-3.346-3.632 0-2.013 1.488-3.593 3.346-3.593 1.859 0 3.363 1.585 3.363 3.593 0 2.009-1.504 3.632-3.363 3.632Z"/>
  <path fill="#00204D" d="M12.993 9.12h2.637l2.261-3.138-2.26-3.139h-2.638l2.33 3.139-2.33 3.138Z"/>
  <path fill="#008CFF" d="M5.85 11.884c2.685 0 4.946-1.832 5.64-4.3H8.858C8.308 8.76 7.18 9.591 5.851 9.591c-1.859 0-3.347-1.618-3.347-3.632 0-2.013 1.488-3.593 3.363-3.593 1.34 0 2.52.82 3.055 2.078h2.6A5.842 5.842 0 0 0 5.866.08C2.637.08 0 2.731 0 5.982c0 3.25 2.632 5.902 5.85 5.902Z"/>
</svg>
