<svg fill="none" viewBox="0 0 135 12" xmlns="http://www.w3.org/2000/svg">
  <path fill="#DB4F3D" d="M25.13.124c-3.23 0-5.867 2.645-5.867 5.901 0 3.257 2.631 5.902 5.866 5.902s5.851-2.645 5.851-5.902c0-3.256-2.637-5.901-5.85-5.901Zm-.017 9.511c-1.858 0-3.346-1.617-3.346-3.631s1.488-3.594 3.346-3.594c1.859 0 3.363 1.586 3.363 3.594s-1.504 3.631-3.363 3.631Z"/>
  <path fill="#00204D" d="M54.219 8.098c0 2.5-1.912 3.743-4.85 3.743-2.939 0-4.797-1.242-5.073-3.647h2.748c.16.996 1.213 1.521 2.568 1.521 1.356 0 2.018-.493 2.018-1.178 0-.621-.562-1.114-1.403-1.259l-2.505-.439c-2.07-.359-3.119-1.505-3.119-3.202 0-2.175 1.695-3.562 4.49-3.562 2.584 0 4.655 1.178 4.978 3.647h-2.717c-.238-1.13-1.16-1.52-2.276-1.52-1.213 0-1.907.47-1.907 1.274 0 .487.26.862 1.457 1.06l2.33.391c1.921.327 3.26 1.077 3.26 3.17Zm46.345-.471c-.693 2.468-2.954 4.3-5.639 4.3-3.219 0-5.85-2.646-5.85-5.902 0-3.256 2.636-5.902 5.866-5.902 2.7 0 4.993 1.832 5.655 4.365h-2.6c-.534-1.258-1.715-2.078-3.055-2.078-1.874 0-3.362 1.58-3.362 3.594 0 2.013 1.488 3.63 3.346 3.63 1.33 0 2.457-.83 3.008-2.007h2.631Zm6.349 4.054h-2.663V2.657h-3.41V.24h9.483v2.416h-3.41v9.024Zm-24.462.198c3.039 0 5.009-1.992 5.009-4.51V.241h-2.584v6.732c0 1.896-1.133 2.614-2.346 2.614-1.212 0-2.377-.718-2.377-2.614V.241h-2.669v7.155c0 2.303 1.922 4.478 4.962 4.478l.005.005Zm-6.772-8.06c0 1.36-.472 3.058-2.685 3.647H73l3.166 4.215H73.11l-2.86-3.99h-1.81v3.99h-2.669V.24h6.253c2.441 0 3.654 1.553 3.654 3.578Zm-7.243 1.553h2.96c1.048 0 1.519-.595 1.519-1.425 0-.83-.503-1.37-1.472-1.37h-3.007v2.795ZM58.259 11.68h2.663V2.657h3.394V.24H54.85v2.416h3.41v9.024Zm-25.6 0h2.456V4.44l5.22 7.24h2.214V.242h-2.457v6.914L35.147.241h-2.489v11.44ZM15.63 9.163h-2.637l2.33-3.138-2.33-3.138h2.637l2.261 3.138-2.26 3.138Zm115.507-1.697c2.213-.59 2.684-2.287 2.684-3.647 0-2.025-1.212-3.578-3.653-3.578h-6.253v11.44h2.668V7.69h1.811l2.859 3.99h3.055l-3.166-4.215h-.005Zm-1.599-2.094h-2.96V2.576h3.007c.969 0 1.472.541 1.472 1.371s-.471 1.425-1.519 1.425Zm-18.956.653c0-3.256 2.637-5.902 5.867-5.902 3.214 0 5.851 2.646 5.851 5.902 0 3.256-2.616 5.902-5.851 5.902s-5.867-2.646-5.867-5.902Zm2.505-.021c0 2.013 1.487 3.63 3.346 3.63 1.858 0 3.362-1.622 3.362-3.63 0-2.009-1.504-3.594-3.362-3.594-1.859 0-3.346 1.58-3.346 3.594Z" clip-rule="evenodd"/>
  <path fill="#008CFF" d="M5.85 11.927c2.685 0 4.946-1.831 5.64-4.3H8.858c-.55 1.178-1.678 2.008-3.007 2.008-1.859 0-3.347-1.617-3.347-3.631S3.992 2.41 5.867 2.41c1.34 0 2.52.82 3.055 2.078h2.6A5.842 5.842 0 0 0 5.866.124C2.637.124 0 2.774 0 6.025s2.632 5.902 5.85 5.902Z"/>
</svg>
