<svg fill="none" viewBox="0 0 510 80" xmlns="http://www.w3.org/2000/svg">
  <path fill="#00204D" d="M155.713 22.81c0 7.12-5.467 10.64-13.917 10.64h-.02c-8.449 0-13.778-3.54-14.573-10.361h7.893c.457 2.824 3.479 4.315 7.376 4.315 3.897 0 5.806-1.392 5.806-3.34 0-1.77-1.631-3.163-4.036-3.58l-7.197-1.253c-5.945-1.034-8.967-4.276-8.967-9.109C128.078 3.939 132.949 0 140.981 0c7.416 0 13.361 3.341 14.295 10.361h-7.794c-.695-3.202-3.34-4.315-6.541-4.315-3.479 0-5.467 1.352-5.467 3.62 0 1.391.736 2.465 4.175 3.022l6.68 1.114c5.527.934 9.384 3.062 9.384 9.008Zm133.149-1.332c-2.008 7.02-8.49 12.21-16.204 12.21v.02c-9.225 0-16.8-7.517-16.8-16.764 0-9.248 7.575-16.765 16.86-16.765 7.754 0 14.335 5.19 16.243 12.39h-7.475c-1.531-3.58-4.911-5.907-8.768-5.907-5.388 0-9.663 4.515-9.663 10.222 0 5.708 4.255 10.302 9.603 10.302 3.798 0 7.058-2.367 8.629-5.708h7.575Zm18.232 11.515h-7.655V7.358h-9.782V.498h27.238v6.86h-9.801v25.635Zm-70.262.556c8.728 0 14.394-5.667 14.394-12.807V.497h-7.436v19.131c0 5.39-3.241 7.438-6.74 7.438s-6.819-2.048-6.819-7.438V.498h-7.655v20.344c0 6.542 5.527 12.727 14.256 12.727v-.02Zm-19.445-22.89c0 3.858-1.352 8.691-7.714 10.362h-.02l9.106 11.972h-8.768l-8.211-11.336h-5.209v11.336h-7.655V.497h17.973c7.019 0 10.498 4.395 10.498 10.162Zm-20.796 4.415h8.489c3.002 0 4.354-1.67 4.354-4.037 0-2.366-1.431-3.898-4.215-3.898h-8.628v7.935Zm-29.266 17.919h7.674V7.358h9.742V.498h-27.198v6.86h9.782v25.635Zm-73.523 0h7.058V12.429l14.991 20.564h6.362V.497h-7.058v19.629L100.96.497h-7.158v32.496Zm-48.929-7.16h-7.555l6.68-8.91-6.68-8.909h7.555l6.502 8.91-6.502 8.91Zm331.807-4.812c6.362-1.67 7.714-6.504 7.714-10.362 0-5.767-3.48-10.162-10.498-10.162h-17.973v32.496h7.655V21.657h5.189l8.211 11.336h8.768L376.64 21.02h.04Zm-4.593-5.947h-8.49V7.14h8.629c2.784 0 4.215 1.532 4.215 3.898 0 2.367-1.352 4.037-4.354 4.037Zm-54.456 1.85c0-9.248 7.575-16.765 16.859-16.765 9.226 0 16.801 7.517 16.801 16.765 0 9.247-7.516 16.765-16.801 16.765-9.284 0-16.859-7.518-16.859-16.765Zm7.217-.04c0 5.708 4.255 10.302 9.603 10.302s9.662-4.574 9.662-10.302c0-5.727-4.334-10.222-9.662-10.222-5.329 0-9.603 4.515-9.603 10.222ZM62.879 70.294c.618 6.612 5.85 9.704 13.319 9.704 6.802 0 11.797-3.14 11.797-9.038 0-3.377-1.38-5.232-3.378-6.517-2.093-1.38-5.042-1.997-9.085-2.663-4.662-.761-8.752-1.665-8.752-6.137 0-4.043 3.33-6.707 8.419-6.707 4.947 0 8.752 2.236 9.418 7.04h2.664c-.761-6.421-5.85-9.275-11.94-9.275-6.373 0-11.035 3.472-11.035 9.18 0 3.235 1.522 5.28 3.9 6.47 2.141 1.046 4.186 1.426 7.136 1.95l.474.08.014.002c2.323.392 4.392.74 6.171 1.63 1.998.904 3.425 2.236 3.425 5.233 0 4.376-3.9 6.516-9.133 6.516-5.898 0-10.132-2.236-10.798-7.468H62.88ZM3.552 79.522V47.176H18.25c7.183 0 9.656 4.52 9.656 9.038 0 4.281-2.283 8.372-8.562 9.276l9.609 14.032h-2.997l-9.276-13.7H6.025v13.7H3.552ZM6.025 63.54h10.703c6.469 0 8.514-3.616 8.514-7.23 0-3.52-1.998-6.85-7.468-6.85H6.025v14.08ZM36.44 79.522V47.176h21.738v2.284H38.914v12.557h13.08v2.284h-13.08v12.89h19.74v2.331H36.44Zm58.437 0V47.176h21.739v2.284H97.351v12.557h13.081v2.284H97.351v12.89h19.74v2.331H94.877Zm37.951-32.346-13.272 32.346h2.664l4.138-10.227h16.173l4.186 10.227h2.759L136.11 47.176h-3.282Zm8.8 19.883h-14.366l3.758-9.37.426-1.033.005-.014c1.016-2.462 2.193-5.315 2.899-7.515h.047c.904 2.52 2.093 5.422 3.473 8.752l3.758 9.18Zm12.987 12.463V47.176h14.699c7.182 0 9.656 4.52 9.656 9.038 0 4.281-2.283 8.372-8.562 9.276l9.608 14.032h-2.996l-9.276-13.7h-10.655v13.7h-2.474Zm2.474-15.982h10.703c6.469 0 8.514-3.616 8.514-7.23 0-3.52-1.998-6.85-7.468-6.85h-11.749v14.08Zm28.322-.238c0 9.656 6.231 16.696 15.649 16.696 7.421 0 12.939-4.519 14.651-11.844h-2.568c-1.618 6.326-6.137 9.608-11.987 9.608-7.849 0-13.034-6.04-13.034-14.555 0-8.277 5.233-14.27 12.653-14.27 6.089 0 10.608 3.377 12.177 9.323h2.664c-1.76-7.183-7.23-11.56-14.746-11.56-9.038 0-15.459 6.945-15.459 16.602Zm36.421 16.22V47.176h2.474v14.699h21.072V47.176h2.474v32.346h-2.474V64.158h-21.072v15.364h-2.474Zm45.942-32.346v32.346h2.473V65.87h11.797c6.992 0 10.132-4.423 10.132-9.466 0-4.851-2.902-9.228-9.371-9.228h-15.031Zm14.27 16.411h-11.797V49.46h12.082c4.757 0 7.231 2.949 7.231 7.04 0 4.043-2.426 7.087-7.516 7.087Zm16.667 15.935V47.176h2.521V77.24h18.456v2.283h-20.977Zm36.557-32.346-13.271 32.346h2.663l4.139-10.227h16.173l4.186 10.227h2.758L338.55 47.176h-3.282Zm8.8 19.883h-14.366l3.758-9.37.432-1.047v-.001c1.015-2.461 2.192-5.314 2.898-7.514h.048c.903 2.52 2.092 5.422 3.472 8.752l3.758 9.18Zm17.492 12.463V49.46h-11.654v-2.284h25.876v2.284h-11.654v30.062h-2.568Zm19.001-32.346v32.346h2.473V64.348h13.985v-2.283h-13.985V49.46h19.741v-2.284h-22.214Zm41.256 32.822c-9.513 0-16.268-7.04-16.268-16.791 0-9.562 6.755-16.506 16.268-16.506 9.466 0 16.126 6.944 16.126 16.506 0 9.75-6.707 16.79-16.126 16.79Zm-.047-2.236c7.944 0 13.557-6.088 13.557-14.555 0-8.325-5.613-14.27-13.557-14.27s-13.557 5.945-13.557 14.27c0 8.467 5.613 14.555 13.557 14.555Zm22.663-30.586v32.346h2.473v-13.7h10.655l9.276 13.7h2.997l-9.609-14.032c6.279-.904 8.562-4.995 8.562-9.276 0-4.519-2.473-9.038-9.656-9.038h-14.698Zm13.176 16.364h-10.703V49.46h11.749c5.471 0 7.469 3.33 7.469 6.85 0 3.614-2.046 7.23-8.515 7.23Zm19.712 15.982V47.13h3.901l8.229 19.645c1.124 2.752 2.028 4.896 2.825 6.788l.008.018.013.033c.476 1.13.915 2.17 1.34 3.198h.143c1.094-2.521 2.473-5.899 4.661-11.321L506.1 47.13h3.852L510 79.522h-2.473l-.048-18.837c0-2.901 0-6.802.095-11.083h-.095c-.783 2.067-1.648 4.174-2.758 6.879l-.001.001c-.576 1.404-1.219 2.97-1.95 4.774l-7.659 17.886h-2.996l-8.087-18.885c-1.189-2.758-3.139-7.515-4.328-10.655h-.096c.096 3.615.143 6.327.143 10.893v19.027h-2.426ZM72.171.16c-9.285 0-16.86 7.517-16.86 16.765 0 9.247 7.575 16.765 16.86 16.765 9.284 0 16.8-7.518 16.8-16.765 0-9.248-7.575-16.765-16.8-16.765Zm-.04 27.027c-5.348 0-9.603-4.594-9.603-10.302 0-5.707 4.275-10.222 9.603-10.222 5.328 0 9.662 4.495 9.662 10.222 0 5.728-4.314 10.302-9.662 10.302ZM16.8 33.688c7.713 0 14.195-5.19 16.203-12.21h-7.575c-1.57 3.34-4.831 5.707-8.629 5.707-5.348 0-9.603-4.594-9.603-10.301 0-5.708 4.275-10.222 9.663-10.222 3.857 0 7.237 2.327 8.768 5.906h7.475C31.194 5.37 24.613.178 16.86.178 7.575.179 0 7.697 0 16.944c0 9.248 7.575 16.765 16.8 16.765v-.02Z" clip-rule="evenodd"/>
</svg>
