<svg fill="none" viewBox="0 0 510 80" xmlns="http://www.w3.org/2000/svg">
  <path fill="#DB4F3D" d="M72.17.16c-9.284 0-16.86 7.516-16.86 16.764 0 9.247 7.576 16.765 16.86 16.765 9.285 0 16.8-7.518 16.8-16.765 0-9.248-7.574-16.765-16.8-16.765Zm-.04 27.026c-5.347 0-9.602-4.594-9.602-10.302 0-5.707 4.275-10.222 9.603-10.222 5.328 0 9.662 4.495 9.662 10.222 0 5.728-4.314 10.302-9.662 10.302Z"/>
  <path fill="#008CFF" d="M16.8 33.688c7.714 0 14.196-5.19 16.204-12.21h-7.575c-1.57 3.34-4.831 5.707-8.629 5.707-5.348 0-9.603-4.594-9.603-10.301 0-5.708 4.275-10.222 9.663-10.222 3.857 0 7.237 2.327 8.768 5.906h7.475C31.194 5.37 24.613.178 16.86.178 7.575.179 0 7.697 0 16.944c0 9.248 7.575 16.765 16.8 16.765"/>
  <path fill="#00204D" d="M141.796 33.45c8.45 0 13.917-3.52 13.917-10.64 0-5.946-3.857-8.074-9.384-9.008l-6.68-1.114c-3.439-.557-4.175-1.63-4.175-3.023 0-2.267 1.988-3.62 5.467-3.62 3.201 0 5.846 1.114 6.541 4.316h7.794C154.342 3.341 148.397 0 140.981 0c-8.032 0-12.903 3.938-12.903 10.123 0 4.832 3.022 8.074 8.967 9.108l7.197 1.253c2.405.417 4.036 1.81 4.036 3.58 0 1.948-1.909 3.34-5.806 3.34-3.897 0-6.919-1.491-7.376-4.315h-7.893c.795 6.821 6.124 10.36 14.573 10.36h.02Zm130.862.239c7.714 0 14.196-5.19 16.204-12.211h-7.575c-1.571 3.341-4.831 5.707-8.629 5.707-5.348 0-9.603-4.593-9.603-10.301 0-5.707 4.275-10.222 9.663-10.222 3.857 0 7.237 2.327 8.768 5.907h7.475c-1.908-7.2-8.489-12.39-16.243-12.39-9.285 0-16.86 7.517-16.86 16.765 0 9.247 7.575 16.765 16.8 16.765v-.02Zm26.781-.696h7.655V7.358h9.801V.498h-27.238v6.86h9.782v25.635Zm-48.213-12.25c0 7.139-5.666 12.806-14.394 12.806v.02c-8.729 0-14.256-6.185-14.256-12.727V.497h7.655v19.131c0 5.39 3.32 7.438 6.819 7.438s6.74-2.048 6.74-7.438V.498h7.436v20.244Zm-41.553.278c6.362-1.67 7.714-6.504 7.714-10.362 0-5.767-3.479-10.162-10.498-10.162h-17.973v32.496h7.655V21.657h5.209l8.211 11.336h8.768l-9.106-11.972h.02Zm-4.593-5.947h-8.489V7.14h8.628c2.784 0 4.215 1.532 4.215 3.898 0 2.367-1.352 4.037-4.354 4.037Zm-30.081 17.919h-7.674V7.358h-9.782V.498h27.198v6.86h-9.742v25.635Zm-74.139 0h-7.058V.497h7.158l14.195 19.629V.497h7.058v32.496h-6.362L100.86 12.429v20.564Zm-63.542-7.16h7.555l6.502-8.91-6.502-8.909h-7.555l6.68 8.91-6.68 8.91ZM384.394 10.66c0 3.857-1.352 8.69-7.714 10.36h-.04l9.106 11.973h-8.768l-8.211-11.336h-5.189v11.336h-7.655V.497h17.973c7.018 0 10.498 4.395 10.498 10.162Zm-20.797 4.414h8.49c3.002 0 4.354-1.67 4.354-4.037 0-2.366-1.431-3.898-4.215-3.898h-8.629v7.935ZM334.49.16c-9.284 0-16.859 7.517-16.859 16.765 0 9.247 7.575 16.765 16.859 16.765 9.285 0 16.801-7.518 16.801-16.765 0-9.248-7.575-16.765-16.801-16.765Zm-.039 27.027c-5.348 0-9.603-4.594-9.603-10.302 0-5.707 4.274-10.222 9.603-10.222 5.328 0 9.662 4.495 9.662 10.222 0 5.728-4.314 10.302-9.662 10.302ZM76.198 79.998c-7.468 0-12.7-3.092-13.319-9.704h2.616c.666 5.233 4.9 7.468 10.798 7.468 5.232 0 9.133-2.14 9.133-6.516 0-2.997-1.427-4.33-3.425-5.233-1.779-.89-3.848-1.238-6.17-1.63h-.001l-.488-.082c-2.95-.524-4.995-.904-7.135-1.95-2.379-1.19-3.901-3.235-3.901-6.47 0-5.708 4.662-9.18 11.036-9.18 6.088 0 11.178 2.854 11.94 9.275h-2.665c-.666-4.804-4.471-7.04-9.418-7.04-5.09 0-8.42 2.664-8.42 6.707 0 4.472 4.091 5.376 8.753 6.137 4.043.666 6.992 1.284 9.085 2.663 1.998 1.285 3.378 3.14 3.378 6.517 0 5.898-4.995 9.038-11.797 9.038ZM3.552 47.176v32.346h2.473v-13.7H16.68l9.276 13.7h2.997L19.344 65.49c6.279-.904 8.562-4.995 8.562-9.276 0-4.519-2.473-9.038-9.656-9.038H3.552ZM16.728 63.54H6.025V49.46h11.75c5.47 0 7.467 3.33 7.467 6.85 0 3.614-2.045 7.23-8.514 7.23ZM36.44 47.176v32.346h22.214v-2.33h-19.74V64.3h13.08v-2.284h-13.08V49.46h19.264v-2.284H36.44Zm58.437 0v32.346h22.214v-2.33h-19.74V64.3h13.081v-2.284H97.351V49.46h19.265v-2.284H94.877Zm24.679 32.346 13.272-32.346h3.282l13.366 32.346h-2.759l-4.186-10.227h-16.173l-4.138 10.227h-2.664Zm7.706-12.463h14.366l-3.758-9.18c-1.38-3.33-2.569-6.231-3.473-8.752h-.047c-.706 2.2-1.883 5.053-2.899 7.514l-.005.015-.426 1.033-3.758 9.37Zm27.353-19.883v32.346h2.474v-13.7h10.655l9.276 13.7h2.996l-9.608-14.032c6.279-.904 8.562-4.995 8.562-9.276 0-4.519-2.474-9.038-9.656-9.038h-14.699Zm13.177 16.364h-10.703V49.46h11.749c5.47 0 7.468 3.33 7.468 6.85 0 3.614-2.045 7.23-8.514 7.23Zm33.268 16.458c-9.418 0-15.649-7.04-15.649-16.696 0-9.657 6.421-16.601 15.459-16.601 7.516 0 12.986 4.376 14.746 11.559h-2.664c-1.569-5.946-6.088-9.324-12.177-9.324-7.42 0-12.653 5.994-12.653 14.27 0 8.515 5.185 14.556 13.034 14.556 5.85 0 10.369-3.282 11.987-9.608h2.568c-1.712 7.325-7.23 11.844-14.651 11.844Zm20.772-32.822v32.346h2.474V64.158h21.072v15.364h2.474V47.176h-2.474v14.699h-21.072V47.176h-2.474Zm45.942 32.346V47.176h15.031c6.469 0 9.371 4.377 9.371 9.228 0 5.043-3.14 9.466-10.132 9.466h-11.797v13.652h-2.473Zm2.473-15.935h11.797c5.09 0 7.516-3.044 7.516-7.087 0-4.091-2.474-7.04-7.231-7.04h-12.082v14.127Zm28.464-16.41v32.345h20.977V77.24h-18.456V47.176h-2.521Zm23.286 32.345 13.271-32.346h3.282l13.366 32.346h-2.758l-4.186-10.227h-16.173l-4.139 10.227h-2.663Zm7.705-12.463h14.366l-3.758-9.18c-1.38-3.33-2.569-6.231-3.472-8.752h-.048c-.706 2.2-1.883 5.053-2.898 7.514l-.432 1.048-3.758 9.37Zm31.858-17.6v30.063h2.568V49.46h11.654v-2.284h-25.876v2.284h11.654Zm19.001 30.063V47.176h22.214v2.284h-19.741v12.605h13.985v2.283h-13.985v15.174h-2.473Zm24.988-16.315c0 9.75 6.755 16.79 16.268 16.79 9.419 0 16.126-7.04 16.126-16.79 0-9.562-6.66-16.506-16.126-16.506-9.513 0-16.268 6.944-16.268 16.506Zm29.778 0c0 8.467-5.613 14.555-13.557 14.555s-13.557-6.088-13.557-14.555c0-8.325 5.613-14.27 13.557-14.27s13.557 5.945 13.557 14.27Zm9.106 16.315V47.176h14.698c7.183 0 9.656 4.52 9.656 9.038 0 4.281-2.283 8.372-8.562 9.276l9.609 14.032h-2.997l-9.276-13.7h-10.655v13.7h-2.473Zm2.473-15.982h10.703c6.469 0 8.515-3.616 8.515-7.23 0-3.52-1.998-6.85-7.469-6.85h-11.749v14.08Zm30.415-16.411v32.393h2.426V60.495c0-4.566-.047-7.278-.143-10.893h.096c1.189 3.14 3.139 7.897 4.328 10.655l8.087 18.885h2.996l7.659-17.886c.731-1.804 1.374-3.37 1.95-4.774l.001-.001c1.11-2.705 1.975-4.812 2.758-6.879h.095c-.095 4.281-.095 8.182-.095 11.084l.048 18.836H510l-.048-32.393H506.1l-7.659 18.36c-2.188 5.423-3.567 8.8-4.661 11.322h-.143c-.425-1.028-.864-2.068-1.34-3.198l-.013-.033-.008-.018c-.797-1.892-1.701-4.036-2.825-6.788l-8.229-19.645h-3.901Z" clip-rule="evenodd"/>
</svg>
