<svg fill="none" viewBox="0 0 20 12" xmlns="http://www.w3.org/2000/svg">
  <path fill="#D54F39" d="M10.367.369h9.152v2.176h-3.344v9.088h-2.448V2.545h-3.36V.369Z"/>
  <path fill="#37A5DA" d="M.48 8.4h2.464c.208.769.864 1.36 2.096 1.36 1.12 0 1.792-.56 1.792-1.375 0-.704-.48-1.088-1.328-1.216L3.696 6.88C1.68 6.577.608 5.505.608 3.745.608 1.617 2.4.177 4.8.177c2.384 0 4.064 1.232 4.368 3.328H6.736C6.48 2.657 5.792 2.257 4.8 2.257c-.96 0-1.712.496-1.712 1.312 0 .608.4.976 1.28 1.104l1.776.272C8 5.233 9.312 6.209 9.312 8.193c0 2.224-1.632 3.632-4.288 3.632-2.48 0-4.256-1.28-4.544-3.424Z"/>
</svg>
