<svg fill="none" viewBox="0 0 20 12" xmlns="http://www.w3.org/2000/svg">
  <path fill="#fff" d="M2.944 8.4H.48c.288 2.145 2.064 3.425 4.544 3.425 2.656 0 4.288-1.408 4.288-3.632 0-1.984-1.312-2.96-3.168-3.248l-1.776-.272c-.88-.128-1.28-.496-1.28-1.104 0-.816.752-1.312 1.712-1.312.992 0 1.68.4 1.936 1.248h2.432C8.864 1.409 7.184.177 4.8.177 2.4.177.608 1.617.608 3.745c0 1.76 1.072 2.832 3.088 3.136l1.808.288c.848.128 1.328.512 1.328 1.216 0 .816-.672 1.376-1.792 1.376-1.232 0-1.888-.592-2.096-1.36ZM19.519.37h-9.152v2.176h3.36v9.088h2.448V2.545h3.344V.369Z" clip-rule="evenodd"/>
</svg>
