<svg xmlns="http://www.w3.org/2000/svg" fill="none" viewBox="0 0 24 24" class="acv-icon"><path stroke="#141414" stroke-linecap="round" stroke-linejoin="round" stroke-width="1.5" d="M19.25 12.25S16.3 10.4 15.5 8c-.8-2.4-2.75-3.25-2.75-3.25V8m0 0v2.25m0-2.25S9.5 9 8 10c-1.077.718-2.282 1.208-2.877 1.992a1.877 1.877 0 0 0-.373 1.138v2.06c0 1.028.777 1.89 1.793 2.043 2.077.313 5.38.956 6.707 2.017"/><path stroke="#141414" stroke-linecap="round" stroke-linejoin="round" d="M10.5 12a.5.5 0 1 1-1 0 .5.5 0 0 1 1 0Z"/></svg>