<svg xmlns="http://www.w3.org/2000/svg" fill="none" viewBox="0 0 24 24" class="acv-icon"><path stroke="#141414" stroke-linecap="round" stroke-linejoin="round" d="M10.5 10a.5.5 0 1 1-1 0 .5.5 0 0 1 1 0ZM8.5 13a.5.5 0 1 1-1 0 .5.5 0 0 1 1 0ZM8.5 16a.5.5 0 1 1-1 0 .5.5 0 0 1 1 0ZM12.5 13a.5.5 0 1 1-1 0 .5.5 0 0 1 1 0ZM12.5 16a.5.5 0 1 1-1 0 .5.5 0 0 1 1 0Z"/><path stroke="#141414" stroke-linecap="round" stroke-linejoin="round" stroke-width="1.5" d="M15 18.25a2.75 2.75 0 0 0 2.75-2.75v-.75a1 1 0 0 1 1-1h.5m-9.25-9S4.97 7.251 4.757 17.421a.933.933 0 0 0 .612.905c.953.339 2.855.924 4.631.924 1.776 0 3.678-.585 4.631-.924a.933.933 0 0 0 .612-.905C15.031 7.251 10 4.75 10 4.75Z"/></svg>