<svg xmlns="http://www.w3.org/2000/svg" fill="none" viewBox="0 0 32 32" class="acv-icon"><path fill="#2668C5" fill-rule="evenodd" d="M13 23a1 1 0 0 0 .707-.293l1.466-1.466A9.973 9.973 0 0 0 19 22c5.523 0 10-4.477 10-10S24.523 2 19 2 9 6.477 9 12c0 1.33.26 2.626.759 3.827l-7.466 7.466A1 1 0 0 0 2 24v4a1 1 0 0 0 1 1h4a1 1 0 0 0 .707-.293l1-1A1 1 0 0 0 9 27v-1h1a1 1 0 0 0 .707-.293l1-1A1 1 0 0 0 12 24v-1h1Zm2.407-3.85a1 1 0 0 0-1.157.186L12.586 21H11a1 1 0 0 0-1 1v1.586L9.586 24H8a1 1 0 0 0-1 1v1.586L6.586 27H4v-2.586l7.664-7.664a1 1 0 0 0 .186-1.157A7.962 7.962 0 0 1 11 12a8 8 0 1 1 8 8 7.962 7.962 0 0 1-3.593-.85ZM16 11a4 4 0 1 0 8 0 4 4 0 0 0-8 0Zm6 0a2 2 0 1 1-4 0 2 2 0 0 1 4 0Z" clip-rule="evenodd"/></svg>