<svg xmlns="http://www.w3.org/2000/svg" fill="none" viewBox="0 0 24 24" class="acv-icon"><path stroke="#141414" stroke-linecap="round" stroke-linejoin="round" stroke-width="1.5" d="M8.76 11.75a3.23 3.23 0 0 1 .4-1.333A5.987 5.987 0 0 1 9 9c0-1.85.73-3.583 2.266-4.097.524-.175.984.295.984.847v3.01a3.23 3.23 0 0 1 1.333.4C14.023 9.054 14.5 9 15 9c1.85 0 3.583.73 4.097 2.266.175.524-.295.984-.847.984h-3.01a3.23 3.23 0 0 1-.4 1.333c.107.44.16.918.16 1.417 0 1.85-.73 3.583-2.266 4.097-.524.175-.984-.295-.984-.847v-3.01a3.23 3.23 0 0 1-1.333-.4C9.977 14.946 9.5 15 9 15c-1.85 0-3.583-.73-4.097-2.266-.175-.524.295-.984.847-.984h3.01Z"/><path stroke="#141414" stroke-linecap="round" stroke-linejoin="round" d="M12.5 12a.5.5 0 1 1-1 0 .5.5 0 0 1 1 0Z"/></svg>