<svg xmlns="http://www.w3.org/2000/svg" fill="none" viewBox="0 0 24 24" class="acv-icon"><path stroke="#141414" stroke-linecap="round" stroke-linejoin="round" stroke-width="1.5" d="M9.75 5.503c0-.416.366-.753.818-.753 2.034 0 3.682 1.518 3.682 3.39v.61a1 1 0 0 0 1 1h3.247c.416 0 .753.366.753.818 0 2.034-1.518 3.682-3.39 3.682h-.61a1 1 0 0 0-1 1v3.247c0 .416-.366.753-.818.753-2.034 0-3.682-1.518-3.682-3.39v-.61a1 1 0 0 0-1-1H5.503c-.416 0-.753-.366-.753-.818 0-2.034 1.518-3.682 3.39-3.682h.61a1 1 0 0 0 1-1V5.503Z"/><path stroke="#141414" stroke-linecap="round" stroke-linejoin="round" stroke-width="1.5" d="M13.25 12a1.25 1.25 0 1 1-2.5 0 1.25 1.25 0 0 1 2.5 0Z"/></svg>