<svg width="16" height="16" viewBox="0 0 16 16" xmlns="http://www.w3.org/2000/svg">
  <path fill-rule="evenodd" d="M1 1h14a1 1 0 0 1 1 1v7a4.978 4.978 0 0 0-3-1 4.978 4.978 0 0 0-3 1H2v4h6c0 .711.148 1.387.416 2H1a1 1 0 0 1-1-1V2a1 1 0 0 1 1-1Zm1 6h12V3H2v4Zm2-1a1 1 0 1 1 0-2 1 1 0 0 1 0 2Zm4-1a1 1 0 1 0 2 0 1 1 0 0 0-2 0Zm3 0a1 1 0 1 0 2 0 1 1 0 0 0-2 0Zm-7 7a1 1 0 1 1 0-2 1 1 0 0 1 0 2Zm12 1a3 3 0 1 1-6 0 3 3 0 0 1 6 0Zm-3.354-1.854-1 1a.5.5 0 0 0 .708.708l.146-.147V14.5a.5.5 0 0 0 1 0v-1.793l.146.147a.5.5 0 0 0 .708-.708l-1-1a.5.5 0 0 0-.708 0Z"/>
</svg>
