<svg width="16" height="16" viewBox="0 0 16 16" xmlns="http://www.w3.org/2000/svg">
  <path fill-rule="evenodd" d="M8.674 2.139C9.145 1.525 9.952 1.05 10.643 1c.116.84-.205 1.665-.628 2.249-.452.626-1.231 1.11-1.985 1.083-.138-.803.216-1.634.644-2.193Zm1.971 12.86c1.028-.008 1.86-1.124 2.449-2.018.42-.64.578-.965.906-1.69-2.382-.899-2.764-4.257-.408-5.545-.72-.894-1.728-1.413-2.682-1.413-.688 0-1.16.179-1.588.341-.357.135-.684.259-1.08.259-.43 0-.81-.136-1.209-.278-.438-.156-.898-.32-1.47-.32-1.07 0-2.21.65-2.93 1.757-1.02 1.562-.846 4.497.802 7 .59.893 1.376 1.9 2.404 1.908.427.004.71-.122 1.018-.258.352-.156.735-.326 1.397-.329.668-.005 1.044.167 1.392.326.3.136.577.263 1 .26Z"/>
</svg>
