<svg width="24" height="24" viewBox="0 0 24 24" xmlns="http://www.w3.org/2000/svg">
  <path d="M13.983 3.262c.881.238 1.695.63 2.408 1.146l-1.439 1.439A5.498 5.498 0 0 0 12 5c-2.938 0-5.3 2.25-5.3 5v2.501c0 1.251-.892 2.526-2.066 2.96l-.342.127c-.13.048-.292.282-.292.421v.79L2.238 18.56A2.481 2.481 0 0 1 2 17.5v-1.49c0-.975.682-1.958 1.597-2.296l.342-.127c.392-.145.761-.673.761-1.085V10c0-3.215 2.254-5.911 5.317-6.738a2 2 0 1 1 3.966 0Z"/>
  <path fill-rule="evenodd" d="M18.847 7.567 21.9 4.515A1 1 0 0 0 20.485 3.1L2.101 21.485A1 1 0 1 0 3.515 22.9l2.9-2.9H9a3 3 0 1 0 6 0h4.496A2.495 2.495 0 0 0 22 17.5v-1.49c0-.983-.68-1.958-1.597-2.298l-.342-.126c-.393-.146-.761-.673-.761-1.085V10c0-.856-.16-1.676-.453-2.433ZM17.23 9.185 8.414 18h11.082c.285 0 .504-.22.504-.5v-1.49c0-.145-.16-.373-.292-.422l-.342-.127c-1.177-.436-2.066-1.71-2.066-2.96V10c0-.278-.024-.55-.07-.815ZM12 21a1 1 0 0 1-1-1h2a1 1 0 0 1-1 1Z" clip-rule="evenodd"/>
</svg>
