<svg width="24" height="24" viewBox="0 0 24 24" xmlns="http://www.w3.org/2000/svg">
  <path d="M17.044 12 17 9h4v3h-3.956ZM18 11h2v-1h-2v1Zm-1.988-3v3H14.92v5c-.657.563-.998.83-1.878 1v2c.636.237 1.278.237 1.878-.077V21c-1.031.37-1.764.987-2.92.987-5.457 0-10-4.464-10-9.987C2 6.478 6.423 2 11.88 2c4.05 0 7.541 2.47 9.066 6h-4.934ZM12 14a2 2 0 1 0 0-4 2 2 0 0 0 0 4Zm-4.988-3A5.03 5.03 0 0 1 11 7.011L10.613 5A7.08 7.08 0 0 0 5 10.613L7.012 11ZM16 12h6v8.333c0 1.15-.838 1.667-1.873 1.667h-2.104C16.988 22 16 21.483 16 20.333V12Z"/>
</svg>
