<svg width="16" height="16" viewBox="0 0 16 16" xmlns="http://www.w3.org/2000/svg">
  <path fill-rule="evenodd" d="M6.705 6.71A.997.997 0 0 1 6 7H3a1 1 0 1 1 0-2h.586L.293 1.707A1 1 0 0 1 1.707.293L5 3.586V3a1 1 0 0 1 2 0v3a.997.997 0 0 1-.29.705l-.005.004Zm2.59 2.58A.997.997 0 0 1 10 9h3a1 1 0 1 1 0 2h-.586l3.293 3.293a1 1 0 0 1-1.414 1.414L11 12.414V13a1 1 0 1 1-2 0v-3a1 1 0 0 1 .29-.705l.005-.004Zm-.22-2.907c.05.117.121.227.216.322l.004.004c.18.18.43.291.705.291h3a1 1 0 1 0 0-2h-.586l3.293-3.293A1 1 0 0 0 14.293.293L11 3.586V3a1 1 0 1 0-2 0v3c0 .136.027.265.076.383ZM6.71 9.295A.997.997 0 0 1 7 10v3a1 1 0 1 1-2 0v-.586l-3.293 3.293a1 1 0 0 1-1.414-1.414L3.586 11H3a1 1 0 1 1 0-2h3a1 1 0 0 1 .705.29l.004.005Z"/>
</svg>
