<svg width="24" height="24" viewBox="0 0 24 24" xmlns="http://www.w3.org/2000/svg">
  <path d="M13 10.166c0-.43.141-.822.394-1.166 1.228.978 2.764 1.467 4.606 1.467s3.378-.49 4.606-1.467c.253.344.394.735.394 1.166C23 11.91 20.69 13 18 13s-5-1.09-5-2.834Zm0 4c0-.43.141-.822.394-1.166 1.228.978 2.764 1.467 4.606 1.467s3.378-.49 4.606-1.467c.253.344.394.735.394 1.166C23 15.91 20.69 17 18 17s-5-1.09-5-2.834Zm0 4c0-.43.141-.822.394-1.166 1.228.978 2.764 1.467 4.606 1.467s3.378-.49 4.606-1.467c.253.344.394.735.394 1.166C23 19.91 20.69 21 18 21s-5-1.09-5-2.834Zm-12 0c0-.43.141-.822.394-1.166 1.228.978 2.764 1.467 4.606 1.467s3.378-.49 4.606-1.467c.253.344.394.735.394 1.166C11 19.91 8.69 21 6 21s-5-1.09-5-2.834ZM18 9c-2.69 0-5-1.155-5-3s2.31-3 5-3 5 1.155 5 3-2.31 3-5 3ZM6 17c-2.69 0-5-1.155-5-3s2.31-3 5-3 5 1.155 5 3-2.31 3-5 3Z"/>
</svg>
