<svg width="32" height="32" viewBox="0 0 32 32" xmlns="http://www.w3.org/2000/svg">
  <path d="M4 20.366c.02 3.013 5.382 5.454 12 5.454 6.63 0 12-2.45 12-5.48v4.19c0 2.967-5.183 5.384-11.652 5.468L16 30c-6.63 0-12-2.45-12-5.47Zm24-5.706v4.18c0 3.02-5.37 5.47-12 5.47-6.514 0-11.811-2.384-11.995-5.313L4 18.84v-4.18c0 3.02 5.37 5.47 12 5.47s12-2.45 12-5.47ZM28 9v4.18c0 3.02-5.37 5.47-12 5.47-6.514 0-11.811-2.384-11.995-5.313L4 13.18V9c0 3 5.37 5.45 12 5.45S28 12 28 9ZM16 2c6.627 0 12 2.449 12 5.47s-5.373 5.47-12 5.47S4 10.491 4 7.47 9.373 2 16 2Z"/>
</svg>
