<svg width="16" height="16" viewBox="0 0 16 16" xmlns="http://www.w3.org/2000/svg">
  <path fill-rule="evenodd" d="M14 3.735c0 1.51-2.686 2.735-6 2.735S2 5.245 2 3.735C2 2.225 4.686 1 8 1s6 1.224 6 2.735Zm0 .765v2.08a1.419 1.419 0 0 1-.18.67 4.954 4.954 0 0 0-1.895-.68C13.195 6.065 14 5.33 14 4.5ZM8.74 7.2a5.545 5.545 0 0 0-1.965 2.055C4.05 9 2 7.9 2 6.555V4.46C2 5.975 4.685 7.2 8 7.2h.74ZM6.42 9.97A6.275 6.275 0 0 0 6 12c-2.325-.375-4-1.385-4.01-2.58V7.33c0 1.265 1.88 2.325 4.43 2.64ZM2 12.265V10.17c0 1.195 1.68 2.21 4.025 2.585a6.04 6.04 0 0 0 .58 2.17C3.965 14.635 2 13.555 2 12.265ZM9.64 8.93a1.725 1.725 0 0 1-.14-.68c.002-.133.018-.266.05-.395A4.26 4.26 0 0 0 7 11.75v.415A1.72 1.72 0 0 1 7.73 12c.089.003.177.012.265.025a2.464 2.464 0 0 1 0-.275A3.255 3.255 0 0 1 9.64 8.93Zm3.22 0c.092-.215.14-.446.14-.68a1.745 1.745 0 0 0-.055-.395 4.26 4.26 0 0 1 2.55 3.895v.415a1.716 1.716 0 0 0-.73-.165 2.378 2.378 0 0 0-.265.025 2.473 2.473 0 0 0 0-.275 3.255 3.255 0 0 0-1.64-2.82Zm.265 5.47a3.23 3.23 0 0 1-3.75 0 1.74 1.74 0 0 1-.625.78 4.22 4.22 0 0 0 5 0 1.74 1.74 0 0 1-.625-.78ZM12.5 8.25a1.25 1.25 0 1 1-2.5 0 1.25 1.25 0 0 1 2.5 0ZM9 13.75a1.25 1.25 0 1 1-2.5 0 1.25 1.25 0 0 1 2.5 0ZM14.75 15a1.25 1.25 0 1 0 0-2.5 1.25 1.25 0 0 0 0 2.5Zm-2.25-2.85a1.25 1.25 0 1 1-2.5 0 1.25 1.25 0 0 1 2.5 0Z"/>
</svg>
