<svg width="32" height="32" viewBox="0 0 32 32" xmlns="http://www.w3.org/2000/svg">
  <path fill-rule="evenodd" d="M4 5h4v4H4V5Zm0 9h4v4H4v-4Zm0 9h4v4H4v-4Zm6-17h18v2H10V6Zm4.582 11H10v-2h5.755a8 8 0 1 1 .954 11H10v-2h5.07A7.963 7.963 0 0 1 14 20c0-1.06.207-2.074.582-3ZM22 26a6 6 0 1 0 0-12 6 6 0 0 0 0 12Zm2.828-4.586a1 1 0 1 1-1.414 1.414L22 21.414l-1.414 1.414a1 1 0 0 1-1.414-1.414L20.586 20l-1.414-1.414a1 1 0 0 1 1.414-1.414L22 18.586l1.414-1.414a1 1 0 1 1 1.414 1.414L23.414 20l1.414 1.414Z"/>
</svg>
