<svg width="24" height="24" fill="none" viewBox="0 0 24 24" xmlns="http://www.w3.org/2000/svg">
  <path fill="#2668C5" fill-rule="evenodd" d="M2 6a3 3 0 0 1 3-3h14a3 3 0 0 1 3 3v10.5a.5.5 0 0 1-.5.5h-19a.5.5 0 0 1-.5-.5V6Zm3-1a1 1 0 0 0-1 1v9h15.9a.1.1 0 0 0 .1-.1V6a1 1 0 0 0-1-1H5Zm3.857 13.375c.377.188.755.375 1.143.375h4c.388 0 .766-.188 1.143-.375.378-.188.756-.375 1.144-.375H22.4a.6.6 0 0 1 .6.6 2.4 2.4 0 0 1-2.4 2.4H3.4A2.4 2.4 0 0 1 1 18.6a.6.6 0 0 1 .6-.6h6.113c.388 0 .766.188 1.144.375Z" clip-rule="evenodd"/>
</svg>
