<svg width="32" height="32" viewBox="0 0 32 32" xmlns="http://www.w3.org/2000/svg">
  <path fill-rule="evenodd" d="M28.207 5.207a1 1 0 1 0-1.414-1.414L24.415 6.17a5.002 5.002 0 0 0-6.294.637l-1.45 1.45-1.464-1.465a1 1 0 1 0-1.414 1.414l2.543 2.543-2.543 2.543a1 1 0 0 0 1.414 1.414l2.543-2.543 2.086 2.086-2.543 2.543a1 1 0 0 0 1.414 1.414l2.543-2.543 2.543 2.543a1 1 0 0 0 1.414-1.414l-1.464-1.465 1.45-1.45a5.002 5.002 0 0 0 .636-6.293l2.378-2.378Zm-4.429 7.257-1.45 1.45-4.242-4.242 1.45-1.45a3 3 0 1 1 4.242 4.242Zm-15.57 1.329a1 1 0 0 0-1.415 1.414l1.464 1.465-1.45 1.45a5.002 5.002 0 0 0-.636 6.293l-2.378 2.378a1 1 0 1 0 1.414 1.414l2.378-2.378a5.002 5.002 0 0 0 6.294-.637l1.45-1.45 1.464 1.465a1 1 0 0 0 1.414-1.414l-10-10Zm1.464 4.293 4.242 4.242-1.45 1.45a3 3 0 0 1-4.242-4.242l1.45-1.45Z"/>
</svg>
