<svg width="16" height="16" viewBox="0 0 16 16" xmlns="http://www.w3.org/2000/svg">
  <path fill-rule="evenodd" d="M4.464 4.464a5 5 0 1 0 7.071 7.072 5 5 0 0 0-7.07-7.072ZM3.05 12.95a7 7 0 1 1 9.9-9.9 7 7 0 0 1-9.9 9.9Z" clip-rule="evenodd"/>
  <path d="M1.636 3.05A1 1 0 1 1 3.05 1.636l2.83 2.828A1 1 0 0 1 4.464 5.88L1.636 3.05Zm8.485 8.486a1 1 0 0 1 1.415-1.415l2.828 2.829a1 1 0 0 1-1.414 1.414l-2.829-2.829ZM3.05 14.364a1 1 0 0 1-1.414-1.414l2.828-2.829a1 1 0 0 1 1.415 1.415L3.05 14.364Zm5.657-5.657a1 1 0 1 1-1.414-1.414 1 1 0 0 1 1.414 1.414Zm2.829-2.828a1 1 0 1 1-1.415-1.415l2.829-2.828a1 1 0 0 1 1.414 1.414l-2.829 2.83Z"/>
</svg>
