<svg width="24" height="24" viewBox="0 0 24 24" xmlns="http://www.w3.org/2000/svg">
  <path fill-rule="evenodd" d="M17.133 1.5h5.34A1.527 1.527 0 0 1 24 3.027v5.34c0 .405-.16.794-.447 1.08L10.947 22.053a1.528 1.528 0 0 1-1.08.447h-5.34A1.528 1.528 0 0 1 3 20.973V20h8a3 3 0 0 0 3-3V7a2.99 2.99 0 0 0-.879-2.121l2.932-2.932a1.527 1.527 0 0 1 1.08-.447Zm-5.966 2.505 1.426-1.427-.51-.567a1.745 1.745 0 0 0-1.234-.511H4.745A1.745 1.745 0 0 0 3 3.245V4h8c.056 0 .112.002.167.005Zm3.24 17.417.51.567c.328.327.772.511 1.234.511h6.104A1.745 1.745 0 0 0 24 20.755v-6.104c0-.462-.184-.906-.511-1.233l-.567-.511-8.515 8.515ZM11 6H1a1 1 0 0 0-1 1v10a1 1 0 0 0 1 1h10a1 1 0 0 0 1-1V7a1 1 0 0 0-1-1ZM8.09 9.374H5.106v1.746h2.803v1.119H5.105v1.813H8.25v1.114h-4.5V8.25h4.34v1.124Z"/>
</svg>
