<svg width="16" height="16" viewBox="0 0 16 16" xmlns="http://www.w3.org/2000/svg">
  <path fill-rule="evenodd" d="M11.422 1h3.56A1.018 1.018 0 0 1 16 2.018v3.56c0 .27-.107.53-.298.72l-8.404 8.404a1.019 1.019 0 0 1-.72.298h-3.56A1.017 1.017 0 0 1 2 13.982V13h6.167c.46 0 .833-.373.833-.833V3.833a.83.83 0 0 0-.244-.589l1.946-1.946a1.017 1.017 0 0 1 .72-.298ZM9.714 13.714l5-5 .988.988c.19.19.298.45.298.72v3.56A1.018 1.018 0 0 1 14.982 15h-3.56c-.27 0-.53-.107-.72-.298l-.988-.988ZM8.286 2.286 7.572 3H2v-.982A1.018 1.018 0 0 1 3.018 1h3.56c.27 0 .53.107.72.298l.988.988ZM7.333 4H.667A.667.667 0 0 0 0 4.667v6.666c0 .368.3.667.667.667h6.666A.667.667 0 0 0 8 11.333V4.667A.667.667 0 0 0 7.333 4ZM5.766 5.975h-2.59V7.49h2.43v.97h-2.43v1.573h2.728V11H2V5h3.766v.975Z"/>
</svg>
