<svg width="16" height="16" viewBox="0 0 16 16" xmlns="http://www.w3.org/2000/svg">
  <path fill-rule="evenodd" d="M1 5a1 1 0 0 1-1-1V1A.997.997 0 0 1 .286.3L.3.285A.997.997 0 0 1 1 0h3a1 1 0 1 1 0 2h-.586l3.293 3.293a1 1 0 0 1-1.414 1.414L2 3.414V4a1 1 0 0 1-1 1ZM.289 15.703A.997.997 0 0 1 0 15v-3a1 1 0 1 1 2 0v.586l3.293-3.293a1 1 0 0 1 1.414 1.414L3.414 14H4a1 1 0 1 1 0 2H1a.997.997 0 0 1-.703-.289l-.008-.008Zm15.094.221a.997.997 0 0 0 .322-.215l.004-.004A.997.997 0 0 0 16 15v-3a1 1 0 1 0-2 0v.586l-3.293-3.293a1 1 0 0 0-1.414 1.414L12.586 14H12a1 1 0 1 0 0 2h3a.997.997 0 0 0 .383-.076ZM15.709.295A.997.997 0 0 1 16 1v3a1 1 0 1 1-2 0v-.586l-3.293 3.293a1 1 0 0 1-1.414-1.414L12.586 2H12a1 1 0 1 1 0-2h3a1 1 0 0 1 .705.29l.004.005Z"/>
</svg>
