<svg width="16" height="16" viewBox="0 0 16 16" xmlns="http://www.w3.org/2000/svg">
  <path fill-rule="evenodd" d="M2.293.293a1 1 0 0 1 1.414 0l2 2a1 1 0 0 1-1.414 1.414L4 3.414v7.07l4-4V2a1 1 0 0 1 1-1h4.485l.186-.186a1.071 1.071 0 1 1 1.515 1.515L2.33 15.186a1.071 1.071 0 0 1-1.515-1.515L2 12.485v-9.07l-.293.292A1 1 0 0 1 .293 2.293l2-2ZM11.485 3H10v1.485L11.485 3Zm-6.07 11 2-2h5.17l-.292-.293a1 1 0 0 1 1.414-1.414l2 2a1 1 0 0 1 0 1.414l-2 2a1 1 0 0 1-1.414-1.414l.293-.293H5.414Zm6-6L15 4.414V7a1 1 0 0 1-1 1h-2.586Z"/>
</svg>
