<svg width="24" height="24" viewBox="0 0 24 24" xmlns="http://www.w3.org/2000/svg">
  <path d="M12 0c6.627 0 12 5.373 12 12s-5.373 12-12 12S0 18.627 0 12 5.373 0 12 0ZM3.879 15h.933V9.29H3.88V15Zm5.734-1.55a1.54 1.54 0 0 0-.136-.673 1.436 1.436 0 0 0-.43-.511c-.195-.151-.503-.314-.922-.489-.372-.153-.63-.277-.773-.37a.958.958 0 0 1-.309-.3.734.734 0 0 1-.094-.38c0-.217.078-.39.235-.522.156-.131.385-.197.687-.197.399 0 .852.107 1.36.32l.296-.762a4.006 4.006 0 0 0-1.632-.359c-.57 0-1.025.137-1.364.41-.338.274-.508.649-.508 1.125 0 .38.107.706.32.977.214.27.581.511 1.102.722.506.204.839.38 1 .528a.71.71 0 0 1 .242.543.688.688 0 0 1-.263.566c-.176.14-.449.211-.819.211a3.52 3.52 0 0 1-.818-.105 4.31 4.31 0 0 1-.83-.29v.883c.411.2.94.301 1.586.301.646 0 1.152-.144 1.52-.433.367-.29.55-.688.55-1.196Zm3.535-3.442c.237 0 .463.034.678.103.215.07.419.15.611.24l.336-.777a3.596 3.596 0 0 0-1.617-.367c-.554 0-1.038.119-1.449.355a2.328 2.328 0 0 0-.943 1.024c-.218.445-.326.965-.326 1.559 0 .942.223 1.667.671 2.173.448.507 1.09.76 1.926.76.568 0 1.076-.085 1.524-.254v-.8c-.245.075-.48.137-.707.185a3.39 3.39 0 0 1-.704.072c-.56 0-.987-.18-1.283-.539-.295-.36-.443-.89-.443-1.59 0-.669.154-1.194.46-1.574.308-.38.73-.57 1.266-.57Zm5.934 3.441a1.54 1.54 0 0 0-.137-.672 1.436 1.436 0 0 0-.43-.511c-.195-.151-.502-.314-.921-.489-.373-.153-.63-.277-.774-.37a.958.958 0 0 1-.308-.3.734.734 0 0 1-.094-.38c0-.217.078-.39.234-.522.157-.131.386-.197.688-.197.398 0 .851.107 1.36.32l.296-.762a4.006 4.006 0 0 0-1.633-.359c-.57 0-1.024.137-1.363.41-.339.274-.508.649-.508 1.125 0 .38.107.706.32.977.214.27.581.511 1.102.722.505.204.839.38 1 .528a.71.71 0 0 1 .242.543.688.688 0 0 1-.263.566c-.176.14-.449.211-.819.211a3.52 3.52 0 0 1-.818-.105 4.31 4.31 0 0 1-.83-.29v.883c.411.2.94.301 1.586.301.646 0 1.152-.144 1.52-.433.366-.29.55-.688.55-1.196ZM20.187 15h.934V9.29h-.933V15Z"/>
</svg>
