<svg width="16" height="16" viewBox="0 0 16 16" xmlns="http://www.w3.org/2000/svg">
  <path d="M8.021 0c.625 0 1.015.19 1.73.677l.193.13c.17.111.278.17.352.194.11.035.261.05.628.064.903.031 1.305.1 1.802.463.498.364.69.73.99 1.556.13.363.19.5.256.589.063.086.174.186.452.401.72.559 1.016.863 1.208 1.454.188.58.13.97-.115 1.828l-.045.16c-.066.238-.093.382-.093.484 0 .102.027.246.093.485l.045.159c.245.858.303 1.248.115 1.828-.191.59-.488.895-1.175 1.43-.31.24-.422.34-.484.424-.066.092-.126.228-.256.584-.302.833-.494 1.199-.992 1.561-.496.362-.897.43-1.78.462-.385.014-.538.03-.65.066a1.673 1.673 0 0 0-.351.195c-.05.032-.092.06-.193.13-.715.485-1.105.676-1.73.676-.624 0-1.013-.19-1.729-.676a9.043 9.043 0 0 0-.193-.13 1.664 1.664 0 0 0-.355-.196c-.109-.035-.261-.051-.626-.064-.902-.033-1.302-.101-1.798-.462-.5-.363-.693-.73-.993-1.556-.131-.363-.191-.5-.256-.59-.063-.085-.174-.184-.45-.398-.722-.56-1.019-.866-1.21-1.457-.188-.58-.13-.969.115-1.827l.046-.16C.637 8.247.664 8.103.664 8c0-.102-.027-.246-.092-.485l-.046-.16C.282 6.499.223 6.11.411 5.529c.191-.59.487-.895 1.176-1.429.31-.24.42-.34.482-.424.067-.091.127-.228.255-.583.303-.834.496-1.201.994-1.564s.9-.431 1.783-.462c.383-.014.535-.03.646-.065.073-.024.182-.083.352-.194l.193-.13C7.008.19 7.397 0 8.022 0Zm2.998 6.293a1 1 0 0 0-1.414 0L7.312 8.586 6.019 7.293a1 1 0 0 0-1.414 1.414l2 2a1 1 0 0 0 1.414 0l3-3a1 1 0 0 0 0-1.414Z"/>
</svg>
