<svg width="16" height="16" viewBox="0 0 16 16" xmlns="http://www.w3.org/2000/svg">
  <path fill-rule="evenodd" d="M4.688 10.502c-.227-.19-.356-.195-.424-.195a.785.785 0 0 0-.535.189c-.09-.436-.03-.583.233-1.22.255-.61.555-1.314 1.022-1.992.174-.254.353-.47.516-.668.365-.443.65-.788.619-1.228l-.024-.312c-.165-2.163-.25-3.267.792-3.788 1.038-.52 1.905-.212 2.248-.034l.021.01c.154.08.437.227.65.475.225.254.427.64.54 1.128.113.473.094.642.074.817-.02.187-.042.38.093.957.218.935.625 1.472 1.132 2.14.099.13.201.266.307.41.645.885 1.32 2.343 1.106 3.188a3.201 3.201 0 0 1-.12.353.368.368 0 0 0-.08-.007c-.06 0-.11.01-.136.015h-.002a.23.23 0 0 0-.102.03c-.012-.096-.178-.189-.306-.24a1.488 1.488 0 0 0-.279-.073s-.163-.024-.307-.03l-.014-.001a.518.518 0 0 0-.085.002c.06-.094.29-.51.255-1.333-.042-.978-1.139-1.542-1.164-1.5-.006.01.017.022.06.045.11.058.346.185.591.5.307.395.462.922.401 1.346a3.322 3.322 0 0 1-.124.592c-.043.132-.098.263-.128.335l-.009.02c-.1.013-.2.034-.255.07-.1.062-.178.162-.122.151a.238.238 0 0 0 .08-.049c.041-.03.09-.069.159-.09.12-.037.326-.035.406-.031.083.003.285.025.424.069.138.045.251.111.31.196a.28.28 0 0 0 .053.064c-.052.05-.102.126-.17.23l-.026.036a2.099 2.099 0 0 1-.068.099 1.85 1.85 0 0 1-.325.253.407.407 0 0 1-.265.072c-.03 0-.064 0-.1-.002-.17-.014-.218-.053-.281-.105l-.001-.001-.016-.013-.013-.011-.019-.015c-.062-.054-.062-.054-.058-.095l.007-.059c.022-.184.042-.36-.09-.486a.44.44 0 0 0-.234-.118 5.5 5.5 0 0 0 .037-.509c0-.57-.069-1.151-.205-1.579-.082-.262-.196-.473-.312-.69-.06-.112-.122-.226-.18-.35a6.303 6.303 0 0 1-.305-.78c-.086-.259-.156-.47-.324-.723a2.03 2.03 0 0 1-.231-.515 3.343 3.343 0 0 0-.034-.1c.098-.125.148-.294.163-.524.014-.201-.103-.327-.266-.414a.682.682 0 0 0 .114-.243 1.02 1.02 0 0 0-.12-.841c-.177-.307-.28-.356-.538-.375-.397-.034-.584.235-.671.426-.079.174-.079.182-.073.331l.004.11c0 .036.003.07.006.1a1.351 1.351 0 0 0-.384-.018 1.383 1.383 0 0 1-.095.008l-.036.003a.965.965 0 0 0-.087.008c.005-.046.007-.1.007-.163 0-.253-.075-.35-.192-.506l-.03-.04c-.128-.17-.332-.178-.46-.156-.073.012-.169.102-.235.237a.825.825 0 0 0-.079.326c-.008.324.02.446.096.665.02.054.044.102.073.145l-.023.017c-.18.143-.336.267-.327.533.005.211.132.378.285.521l-.003.017c-.026.187-.033.24-.033.511 0 .15-.048.208-.148.33-.05.063-.114.141-.192.256a2.58 2.58 0 0 0-.169.296c-.025.09-.04.16-.017.236.042.137.184.208.286.259.067.033.117.058.11.088-.01.043-.102.074-.215.11-.085.029-.182.061-.264.105a.827.827 0 0 0-.171.14l-.102.095a5.388 5.388 0 0 1-.226.426c-.135.24-.272.482-.322.698a8.091 8.091 0 0 1-.066.262 2.917 2.917 0 0 0-.13.962l.002.021c.005.14.009.228.02.29a1.457 1.457 0 0 1-.227-.289c-.09-.175-.136-.43-.107-.737.033-.353.103-.55.299-1.007.115-.267.214-.422.274-.515.05-.078.072-.113.053-.134-.034-.039-.232.317-.3.456-.18.372-.335.724-.386 1.169-.037.325.004.556.096.75.023.05.079.125.143.205Zm3.037-4.497h.065c.23 0 .499-.17.734-.32.145-.091.277-.175.379-.205.331-.102.448-.274.473-.66.019-.264-.3-.349-.62-.434l-.039-.01a.434.434 0 0 0 .262-.153.417.417 0 0 0 .077-.315c-.043-.235-.167-.42-.38-.42-.09 0-.198.015-.259.076a.476.476 0 0 0-.124.344c0 .098.007.224.035.317l-.021-.014a1.643 1.643 0 0 1-.086-.056c-.13-.094-.413-.143-.62-.118a2.223 2.223 0 0 1-.103.008c-.094.007-.17.012-.277.062-.03.016-.062.034-.095.054l-.017.01c.017-.076.022-.162.022-.247a.51.51 0 0 0-.094-.295.33.33 0 0 0-.243-.129.23.23 0 0 0-.208.112c-.062.086-.058.184-.055.261l.001.044c0 .131.093.288.124.323.027.027.047.05.064.071.032.04.055.066.096.076a1.012 1.012 0 0 0-.09.075l-.108.086c-.175.137-.29.227-.282.431.006.229.202.405.41.569.079.062.153.13.221.193.116.106.217.198.297.227.116.04.306.038.461.037Zm-1.143-.728c-.081-.063-.141-.117-.17-.206-.01-.032.038-.035.055-.03.022.014.061.047.107.084.066.056.145.122.199.154.026.022.09.06.156.083l.015.005c.103.035.21.072.308.072h.031c.09 0 .217 0 .318-.006a1.46 1.46 0 0 0 .396-.119c.261-.108.44-.204.702-.357l.062-.036c.22-.13.296-.174.37-.138.083.04-.152.17-.34.272-.06.033-.108.062-.154.089-.1.059-.19.112-.376.201-.277.13-.542.215-.754.215h-.036c-.09 0-.213 0-.343-.015 0 0-.156-.035-.22-.064a2.006 2.006 0 0 1-.326-.204Zm.36-1.6c-.034-.057-.115-.064-.13-.034-.014.029.01.056.044.097l.018.02c.018.021.028.047.037.068.014.034.024.06.053.048.018-.005.012-.141-.022-.2Zm.33.547c.113-.016.142.016.072.059a1.2 1.2 0 0 0-.103.07c-.035.034-.105-.013-.097-.037a.139.139 0 0 0 .004-.01c.01-.026.023-.062.124-.082Zm.76.122c.045-.021.011-.102-.035-.129-.042-.027-.246-.032-.23.007.023.043.067.06.11.076.02.008.038.015.055.025.052.027.08.032.1.02Zm.689-.729c.023-.022.07 0 .125.06.057.058.057.109.011.14-.029.025-.046-.01-.064-.044a.17.17 0 0 0-.024-.04l-.02-.018c-.04-.038-.067-.062-.028-.098Zm-1.805 9.95a1.1 1.1 0 0 1 .087.428 1.62 1.62 0 0 1-.02.35c.104-.027.2-.03.4-.037a19.339 19.339 0 0 0 .73-.036h.001c.682-.04.99-.058 1.622.084a1.762 1.762 0 0 1-.02-.34c.006-.231.047-.447.095-.692l.001-.007c.035-.183.074-.387.104-.628-.404.363-.95.73-1.646.854-.656.12-1.083.09-1.354.024Zm-1.734-2.613c.125.097.265.206.448.362.1.085.24.192.38.3.258.198.522.402.574.485.085.132.158.34.03.524-.052.073-.168.114-.285.137a6.068 6.068 0 0 1-.101-.148 68.91 68.91 0 0 1-.429-.663 49.995 49.995 0 0 0-.28-.436 7.173 7.173 0 0 0-.535-.718L5 10.81l.014.011c.054.044.11.087.168.132Zm-.924-.45c.292.009.803.714 1.06 1.105.127.192.206.316.3.463.098.153.21.33.41.635.13.2.256.35.365.48.216.258.369.44.374.78.007.41-.046.45-.203.565-.042.03-.091.066-.149.116a6.84 6.84 0 0 0-.092.08c-.21.187-.333.296-.73.268-.23-.019-.517-.124-.837-.242-.309-.112-.648-.237-.998-.306-1.33-.269-1.561-.326-1.707-.56-.078-.131-.053-.26-.014-.442l.011-.056c.027-.135.06-.3.06-.508.002-.222-.024-.404-.045-.555-.032-.23-.055-.388.043-.513.089-.114.32-.16.553-.208.197-.04.396-.08.513-.162.16-.111.289-.295.4-.452.065-.094.124-.178.179-.23.144-.141.275-.263.507-.258Zm9.04 1.46c.12.19.171.272.3.342 0 0 .408.228.402.43-.009.205-.132.318-.204.385l-.007.006-.014.013a6.053 6.053 0 0 0-.061.06 5.95 5.95 0 0 1-.876.738c-.55.364-.74.525-.919.7-.277.267-.54.358-.964.358-.422 0-.613-.085-.742-.199-.13-.11-.275-.389-.261-.804.006-.216.046-.422.091-.66.043-.22.09-.467.122-.775a9.13 9.13 0 0 0 .025-.873v-.05c0-.383.005-.71.09-.758.154-.095.188-.1.37-.1.18 0 .263.012.323.07.05.048.038.153.02.3l-.006.058c-.016.163.056.224.136.291l.023.02.028.023c.079.064.17.139.417.159.278.02.38-.025.51-.105a1.84 1.84 0 0 0 .383-.303c.025-.03.064-.09.105-.151.065-.099.133-.203.152-.203l.024-.003c.06-.01.208-.036.297.09.095.133.086.286.078.431-.007.124-.014.24.044.332l.114.178Z"/>
</svg>
