<svg width="24" height="24" viewBox="-2 -2 24 24" xmlns="http://www.w3.org/2000/svg">
  <path d="M.35 12.366 2.577 2.72C2.93 1.193 4.436 0 6.01 0h7.982c1.574 0 3.08 1.193 3.433 2.721l2.223 9.637c.227.503.353 1.062.353 1.652v1.98A4.006 4.006 0 0 1 16 20H4a4 4 0 0 1-4-4.01v-1.98c0-.586.125-1.143.35-1.644Zm16.735-2.217-1.61-6.978C15.332 2.551 14.635 2 13.99 2H6.01c-.643 0-1.34.552-1.484 1.171l-1.61 6.978A4.002 4.002 0 0 1 4 10h12.002c.376 0 .74.052 1.084.149ZM2 14.009v1.981A2 2 0 0 0 4 18h12c1.103 0 2-.9 2-2.01v-1.98A2 2 0 0 0 16 12H4c-1.103 0-2 .9-2 2.01ZM4 15a1 1 0 0 1 .99-1h4.02c.546 0 .99.444.99 1a1 1 0 0 1-.99 1H4.99A.993.993 0 0 1 4 15Zm11 1a1 1 0 1 1 0-2 1 1 0 0 1 0 2Z"/>
</svg>
