<svg width="24" height="24" viewBox="-2 -2 24 24" xmlns="http://www.w3.org/2000/svg">
  <path d="M10 14V7.498C10 6.671 10.672 6 11.497 6H14c0-1.46-.003-4-.006-4C13.993 2 2 2 2 1.996c0 0 0 7.264.002 12.004H10Zm0 2H2.003c.001 1.218.002 2 .004 2H10v-2Zm8.503 4H2.007A2 2 0 0 1 0 18.007V1.993A2 2 0 0 1 2.007 0h11.986C15.096 0 16 .894 16 1.99V6h2.503A1.5 1.5 0 0 1 20 7.498v11.004c0 .827-.672 1.498-1.497 1.498ZM6 4a1 1 0 0 1 1.01-1h1.98a1 1 0 1 1 0 2H7.01C6.451 5 6 4.556 6 4Zm6 4v10h6V8h-6Zm3 9a1 1 0 1 1 0-2 1 1 0 0 1 0 2Z"/>
</svg>
