<svg width="32" height="32" viewBox="0 0 32 32" xmlns="http://www.w3.org/2000/svg">
  <path d="M28 17a2 2 0 0 1 2 2v8a2 2 0 0 1-2 2H4a2 2 0 0 1-2-2v-8a2 2 0 0 1 2-2h24ZM6 19a1 1 0 0 0-.993.883L5 20v6a1 1 0 0 0 1.993.117L7 26v-6a1 1 0 0 0-1-1Zm4 0a1 1 0 0 0-.993.883L9 20v6a1 1 0 0 0 1.993.117L11 26v-6a1 1 0 0 0-1-1Zm4 0a1 1 0 0 0-.993.883L13 20v6a1 1 0 0 0 1.993.117L15 26v-6a1 1 0 0 0-1-1Zm9.5 2a2 2 0 1 0 0 4 2 2 0 0 0 0-4ZM28 3a2 2 0 0 1 2 2v8a2 2 0 0 1-2 2H4a2 2 0 0 1-2-2V5a2 2 0 0 1 2-2h24ZM6 5a1 1 0 0 0-.993.883L5 6v6a1 1 0 0 0 1.993.117L7 12V6a1 1 0 0 0-1-1Zm4 0a1 1 0 0 0-.993.883L9 6v6a1 1 0 0 0 1.993.117L11 12V6a1 1 0 0 0-1-1Zm4 0a1 1 0 0 0-.993.883L13 6v6a1 1 0 0 0 1.993.117L15 12V6a1 1 0 0 0-1-1Zm9.5 2a2 2 0 1 0 0 4 2 2 0 0 0 0-4Z"/>
</svg>
