<svg width="32" height="32" viewBox="0 0 32 32" xmlns="http://www.w3.org/2000/svg">
  <path d="M23.5 15a8.5 8.5 0 1 1 0 17 8.5 8.5 0 0 1 0-17Zm-8.247 2A10.455 10.455 0 0 0 13 23.5c0 2.017.569 3.901 1.555 5.501L4 29a2 2 0 0 1-2-2v-8a2 2 0 0 1 2-2h11.253Zm8.497 2.3c-.83 0-1.482.199-1.952.596-.471.398-.707.944-.707 1.638 0 .37.072.691.215.967.143.276.335.518.575.725.24.208.6.425 1.08.65.511.244.85.42 1.017.532.167.11.293.226.379.346.086.12.129.257.129.411 0 .276-.098.484-.293.623-.195.14-.475.21-.84.21a4.02 4.02 0 0 1-1.008-.145 8.256 8.256 0 0 1-1.087-.387L21 25.353V26.9c.645.315 1.386.473 2.224.473.91 0 1.619-.204 2.13-.613.51-.408.765-.966.765-1.675 0-.512-.136-.945-.409-1.297-.272-.353-.775-.705-1.509-1.056-.555-.265-.907-.448-1.055-.55a1.122 1.122 0 0 1-.325-.317.711.711 0 0 1-.102-.384c0-.237.084-.428.252-.575.168-.147.41-.22.725-.22.265 0 .535.034.809.102.228.056.507.15.836.278l.203.082.537-1.295a8.03 8.03 0 0 0-1.163-.408 4.61 4.61 0 0 0-1.168-.145ZM6 19a1 1 0 0 0-.993.883L5 20v6a1 1 0 0 0 1.993.117L7 26v-6a1 1 0 0 0-1-1Zm4 0a1 1 0 0 0-.993.883L9 20v6a1 1 0 0 0 1.993.117L11 26v-6a1 1 0 0 0-1-1ZM28 3a2 2 0 0 1 2 2v8a2 2 0 0 1-.86 1.644A10.437 10.437 0 0 0 23.5 13c-2.304 0-4.434.742-6.166 2H4a2 2 0 0 1-2-2V5a2 2 0 0 1 2-2h24ZM6 5a1 1 0 0 0-.993.883L5 6v6a1 1 0 0 0 1.993.117L7 12V6a1 1 0 0 0-1-1Zm4 0a1 1 0 0 0-.993.883L9 6v6a1 1 0 0 0 1.993.117L11 12V6a1 1 0 0 0-1-1Zm4 0a1 1 0 0 0-.993.883L13 6v6a1 1 0 0 0 1.993.117L15 12V6a1 1 0 0 0-1-1Zm9.5 2a2 2 0 1 0 0 4 2 2 0 0 0 0-4Z"/>
</svg>
