<svg width="32" height="32" viewBox="0 0 32 32" xmlns="http://www.w3.org/2000/svg">
  <path fill-rule="evenodd" d="M0 16c0 8.837 7.163 16 16 16s16-7.163 16-16S24.837 0 16 0 0 7.163 0 16Zm19.449-2.37h3.17c.766 0 1.094.975.482 1.438l-2.56 1.938a.8.8 0 0 0-.3.793l.708 3.576c.142.721-.682 1.237-1.268.793l-2.698-2.043a.8.8 0 0 0-.966 0l-2.698 2.043c-.586.444-1.41-.072-1.268-.793l.709-3.576a.8.8 0 0 0-.302-.793l-2.56-1.938c-.61-.463-.283-1.438.484-1.438h3.146a.8.8 0 0 0 .744-.506l1.464-3.695c.27-.68 1.235-.672 1.493.014l.865 2.307.623 1.405a.8.8 0 0 0 .732.475Z"/>
</svg>
