<svg width="24" height="24" viewBox="0 0 24 24" xmlns="http://www.w3.org/2000/svg">
  <path fill-rule="evenodd" d="M12 2C6.477 2 2 6.477 2 12s4.477 10 10 10 10-4.477 10-10c0-.584-.05-1.156-.146-1.713C21.742 9.64 22.21 9 22.868 9c.444 0 .835.3.919.736.14.733.213 1.49.213 2.264 0 6.627-5.373 12-12 12S0 18.627 0 12 5.373 0 12 0c2.4 0 4.637.705 6.512 1.919.503.325.542 1.027.12 1.45l-.018.017c-.352.352-.907.386-1.33.123A9.954 9.954 0 0 0 12 2Zm0 16a6 6 0 1 0 0-12 6 6 0 0 0 0 12Zm4-6a4 4 0 1 1-8 0 4 4 0 0 1 8 0Z"/>
</svg>
