<svg width="24" height="24" viewBox="0 0 24 24" xmlns="http://www.w3.org/2000/svg">
  <path d="m15.946 14.543.094.083L20 18.585l.001-3.14a1 1 0 0 1 1.993-.117l.007.116V21a1 1 0 0 1-.883.993L21 22h-5.556a1 1 0 0 1-.116-1.993l.116-.007 3.141-.001-3.959-3.959a1 1 0 0 1-.083-1.32l.083-.094a1 1 0 0 1 1.32-.083ZM21 2a1 1 0 0 1 .993.883L22 3v5.556a1 1 0 0 1-1.993.116L20 8.556l-.001-3.15-16.292 16.19a1 1 0 0 1-1.32.083l-.094-.083a1 1 0 0 1-.083-1.32l.083-.094L18.578 3.999 15.444 4a1 1 0 0 1-.993-.883L14.444 3a1 1 0 0 1 .884-.993L15.444 2H21ZM3.293 3.404a1 1 0 0 1 1.414 0l4.141 4.141A1 1 0 0 1 7.434 8.96L3.293 4.818a1 1 0 0 1 0-1.414Z"/>
</svg>
