<svg width="32" height="32" viewBox="0 0 32 32" xmlns="http://www.w3.org/2000/svg">
  <path d="M22.84 23.19c1.23.67.74 5.81.74 5.81H7.27s-.6-5.12.74-5.81l4.16-2.18c.76-.41 1.12-.86 1.12-1.27 0-.93-1.93-2.39-1.93-5.66 0-2.89 1.51-4.78 4.06-4.78 2.84 0 4.08 2.34 4.08 4.8 0 3.04-1.89 4.54-1.89 5.59 0 .45.33.93 1.07 1.31l4.16 2.19Zm7.4.62c1.24.6.73 3.12.73 3.12h-5.44c-.77 0 .64-2.48-1.13-4.41-1.12-1.18-3.75-2.46-3.75-6.18.02-2.58 1.26-4.13 3.41-4.13 2.39 0 3.39 1.95 3.39 4 0 2.54-1.58 3.78-1.58 4.66.042.544.38 1.02.88 1.24l3.49 1.7Zm-18.78-4.17L7.3 21.87c-1.39.72-1.73 2.9-1.68 5.13H0V14.75L6.41 3H23.6L30 14.75V22l-2.54-1.23.2-.35a8 8 0 0 0 1.29-4.22c0-2.61-1.26-4.53-3.26-5.2l-3.28-6H7.6L2.14 15H9l1.37 2c.282.79.648 1.547 1.09 2.26l.17.28-.17.1Z"/>
</svg>
