<svg width="16" height="16" viewBox="0 0 16 16" xmlns="http://www.w3.org/2000/svg">
  <path fill-rule="evenodd" d="M8 10c-2.667 0-4-2.5-4-5.625C4 1.959 4.667 0 8 0s4 1.959 4 4.375C12 7.5 10.667 10 8 10Zm0-2c1.188 0 2-1.237 2-3.625C10 2.427 9.685 2 8 2s-2 .427-2 2.375C6 6.763 6.812 8 8 8Zm-2.131 2.236a3 3 0 0 0-1.677-.065l-3.056.764A1.5 1.5 0 0 0 0 12.39v2.11A1.5 1.5 0 0 0 1.5 16h13a1.5 1.5 0 0 0 1.5-1.5v-2.11a1.5 1.5 0 0 0-1.136-1.455l-3.057-.764a3 3 0 0 0-1.676.065l-1.815.604a1 1 0 0 1-.632 0l-1.815-.604ZM14 14h-2v-1.72l2 .5V14Zm-4-1.613V14H6v-1.613l1.051.35a3 3 0 0 0 1.898 0l1.051-.35Zm-6-.106V14H2v-1.22l2-.5Z"/>
</svg>
