<svg width="32" height="32" viewBox="0 0 32 32" xmlns="http://www.w3.org/2000/svg">
  <path fill-rule="evenodd" d="M5 6v19.996h8.338c.423.73.935 1.402 1.522 2H4.2a1.2 1.2 0 0 1-1.2-1.2V5.2A1.2 1.2 0 0 1 4.2 4h16.6A1.2 1.2 0 0 1 22 5.2v5.798c-.685 0-1.354.069-2 .2V6H5Zm17 22.998a8 8 0 1 0 0-16 8 8 0 0 0 0 16Zm0-9.413 2.121-2.122 1.415 1.415-2.122 2.12 2.122 2.122-1.415 1.414L22 22.414l-2.121 2.12-1.415-1.414L20.587 21l-2.121-2.121 1.414-1.415L22 19.585ZM28 21a6 6 0 1 1-12 0 6 6 0 0 1 12 0ZM8 9a1 1 0 0 0 0 2h9.5a1 1 0 1 0 0-2H8Zm5.998 5.999a10.056 10.056 0 0 1 2-2H8a1 1 0 1 0 0 2h5.998Zm-1.166 2a9.92 9.92 0 0 0-.632 2H8a1 1 0 1 1 0-2h4.832ZM12 20.997c0 .685.07 1.353.2 2H8a1 1 0 1 1 0-2h4Z"/>
</svg>
