<svg width="16" height="16" viewBox="0 0 16 16" xmlns="http://www.w3.org/2000/svg">
  <path fill-rule="evenodd" d="M1.027 13.905a.88.88 0 0 0 1.068 1.068l3.522-.88a.88.88 0 0 0 .409-.232l8.2-8.198a2.644 2.644 0 0 0 .003-3.734l-.154-.155a2.636 2.636 0 0 0-3.736.003l-8.2 8.198a.88.88 0 0 0-.231.41l-.88 3.52Zm3.804-1.678-1.411.353.353-1.41L8.65 6.294l1.058 1.058-4.877 4.875Zm6.522-6.52L10.295 4.65l1.458-1.458a.636.636 0 0 1 .908-.004l.154.155a.643.643 0 0 1-.003.906l-1.46 1.459ZM9 13a1 1 0 1 0 0 2h5a1 1 0 1 0 0-2H9Z"/>
</svg>
