<svg width="16" height="16" viewBox="0 0 16 16" xmlns="http://www.w3.org/2000/svg">
  <path d="M10.667 11.847v1.32a.833.833 0 1 1-1.667 0V9.833c0-.46.373-.833.833-.833h3.334a.833.833 0 0 1 0 1.667h-1.322l1.772 1.768a.837.837 0 0 1 .002 1.181.83.83 0 0 1-1.177.002l-1.775-1.771Zm-7-.693 1.775-1.772a.83.83 0 0 1 1.177.003.837.837 0 0 1-.002 1.18l-1.772 1.769h1.322a.833.833 0 0 1 0 1.667H2.833A.833.833 0 0 1 2 13.167V9.833a.833.833 0 1 1 1.667 0v1.32Zm1.666-7v-1.32a.833.833 0 1 1 1.667 0v3.333c0 .46-.373.834-.833.834H2.833a.833.833 0 0 1 0-1.667h1.322L2.383 3.565a.837.837 0 0 1-.002-1.18.83.83 0 0 1 1.177-.003l1.775 1.772Zm7 .693-1.775 1.771a.83.83 0 0 1-1.177-.002.837.837 0 0 1 .002-1.18l1.772-1.77H9.833a.833.833 0 0 1 0-1.666h3.334c.46 0 .833.373.833.833v3.334a.833.833 0 1 1-1.667 0v-1.32Z"/>
</svg>
