<svg width="24" height="24" fill="none" viewBox="0 0 24 24" xmlns="http://www.w3.org/2000/svg">
  <g clip-path="url(#salesforce--24_svg__a)">
    <path fill="#2668C5" fill-rule="evenodd" d="M9.966 5.884a4.2 4.2 0 0 1 3.042-1.31c1.588 0 2.963.885 3.704 2.203a5.103 5.103 0 0 1 2.09-.447c2.858 0 5.177 2.344 5.177 5.236s-2.32 5.236-5.177 5.236c-.35 0-.69-.035-1.023-.102a3.787 3.787 0 0 1-3.298 1.946 3.757 3.757 0 0 1-1.658-.382c-.657 1.547-2.187 2.785-3.969 2.785-1.86 0-3.44-1.326-4.048-2.98-.27.057-.546.086-.823.086-2.214 0-4.004-1.822-4.004-4.06 0-1.503.806-2.812 2.002-3.52a4.664 4.664 0 0 1-.384-1.857c0-2.582 2.09-4.67 4.665-4.67a4.64 4.64 0 0 1 3.704 1.84" clip-rule="evenodd"/>
  </g>
  <defs>
    <clipPath id="salesforce--24_svg__a">
      <path fill="#fff" d="M0 0h24v24H0z"/>
    </clipPath>
  </defs>
</svg>
