<svg width="24" height="24" viewBox="0 0 24 24" xmlns="http://www.w3.org/2000/svg">
  <path fill-rule="evenodd" d="M2.45 6.892.465 8.156a1 1 0 0 0-.307 1.38l.007.013a1 1 0 0 0 1.373.295L2 9.549V22a1 1 0 0 0 1 1h18a1 1 0 0 0 1-1V9.549l.463.295a1 1 0 0 0 1.373-.295l.008-.012a1 1 0 0 0-.308-1.381L13.074 1.498a2 2 0 0 0-2.148 0L2.478 6.875a.998.998 0 0 0-.027.017ZM6 21H4V8.276l8-5.09 8 5.09V21h-2V10a1 1 0 0 0-1-1H7a1 1 0 0 0-1 1v11Zm2-10h8v4H8v-4Zm0 10v-4h8v4H8Zm3-8a1 1 0 1 1-2 0 1 1 0 0 1 2 0Zm3 0a1 1 0 1 1-2 0 1 1 0 0 1 2 0Zm-3 6a1 1 0 1 1-2 0 1 1 0 0 1 2 0Z"/>
</svg>
