<svg width="32" height="32" viewBox="0 0 32 32" xmlns="http://www.w3.org/2000/svg">
  <path d="M30 10v15a1 1 0 0 1-.883.993L29 26H17v2h13v2H2v-2h13v-2H3a1 1 0 0 1-.993-.883L2 25V10h28ZM7.314 13.89c-.846 0-1.508.202-1.988.607-.48.405-.719.96-.719 1.668 0 .375.073.703.219.984.146.28.34.527.585.738.21.182.508.37.897.564l.56.272.292.148.226.122.16.098c.17.113.299.23.386.352a.7.7 0 0 1 .131.419c0 .28-.1.492-.298.634-.198.142-.484.213-.856.213-.31 0-.651-.049-1.025-.147a8.407 8.407 0 0 1-1.107-.394l-.263-.115v1.575c.656.321 1.411.481 2.264.481.926 0 1.649-.207 2.168-.623.52-.416.78-.984.78-1.706 0-.522-.139-.962-.416-1.321-.246-.32-.678-.638-1.296-.955l-.737-.362-.254-.13a3.61 3.61 0 0 1-.324-.188 1.142 1.142 0 0 1-.331-.323.724.724 0 0 1-.104-.39.74.74 0 0 1 .257-.586c.171-.15.418-.224.738-.224.27 0 .545.034.823.104.233.057.517.152.851.283l.208.083.546-1.318a8.176 8.176 0 0 0-1.183-.415 4.694 4.694 0 0 0-1.19-.148Zm8.164.115h-4.583V22h1.668v-3.16h2.712v-1.385h-2.712v-2.061h2.915v-1.39Zm6.54 0H15.98v1.41h2.17V22h1.696v-6.584h2.171v-1.411Zm3.504 0h-2.554V22h1.695v-2.844h.727c.992 0 1.757-.228 2.295-.683.537-.456.806-1.114.806-1.975 0-.827-.252-1.45-.757-1.867-.46-.38-1.11-.587-1.954-.621l-.258-.005Zm-.859 1.389h.771c.463 0 .803.095 1.02.284.217.19.326.483.326.88 0 .394-.13.694-.389.9-.226.18-.553.282-.98.304l-.19.005h-.558v-2.373h.771-.77ZM3 2h9a1 1 0 0 1 .993.883L13 3v2h16a1 1 0 0 1 .993.883L30 6v2H2V3a1 1 0 0 1 .883-.993L3 2Z"/>
</svg>
