<svg width="24" height="24" fill="none" viewBox="0 0 24 24" xmlns="http://www.w3.org/2000/svg">
  <path fill="#2668C5" d="M7.267 4.1c0 1.162.938 2.1 2.1 2.1h2.1V4.1c0-1.161-.939-2.1-2.1-2.1-1.162 0-2.1.939-2.1 2.1Zm4.2 5.267c0-1.162-.939-2.1-2.1-2.1H4.1c-1.161 0-2.1.938-2.1 2.1 0 1.161.939 2.1 2.1 2.1h5.267c1.161 0 2.1-.939 2.1-2.1Zm-7.351 7.367c1.162 0 2.1-.94 2.1-2.1v-2.1h-2.1a2.1 2.1 0 1 0 0 4.2Zm5.251-4.201c-1.162 0-2.1.939-2.1 2.1v5.251A2.11 2.11 0 0 0 9.367 22c1.161 0 2.1-.954 2.1-2.116v-5.25c0-1.162-.939-2.1-2.1-2.1Zm8.417-3.166c0-1.162.938-2.1 2.1-2.1 1.161 0 2.1.938 2.1 2.1 0 1.161-.939 2.1-2.1 2.1h-2.1v-2.1Zm-1.051 0c0 1.161-.938 2.1-2.1 2.1-1.161 0-2.1-.939-2.1-2.1V4.1c0-1.161.939-2.1 2.1-2.1 1.162 0 2.1.939 2.1 2.1v5.267Zm0 10.517c0-1.162-.938-2.1-2.1-2.1h-2.1v2.1c0 1.162.939 2.116 2.1 2.116a2.11 2.11 0 0 0 2.1-2.116Zm-4.2-5.251c0 1.162.939 2.1 2.1 2.1H19.9c1.161 0 2.1-.938 2.1-2.1 0-1.161-.939-2.1-2.1-2.1h-5.267c-1.161 0-2.1.939-2.1 2.1Z"/>
</svg>
