<svg width="32" height="32" viewBox="0 0 32 32" xmlns="http://www.w3.org/2000/svg">
  <path d="M2 12.992a1.01 1.01 0 0 1-.127.008H1a1 1 0 0 1 0-2h.873c.043 0 .085.003.127.008V11h13a1 1 0 0 0 0-2H2V6a1 1 0 0 1 1-1h16a1 1 0 0 1 1 1v3.077l8.302-.071a1 1 0 0 1 .944.649l2.69 7.175a1 1 0 0 1 .064.351V24a1 1 0 0 1-1 1h-1a5 5 0 1 0-10 0h-6a5 5 0 1 0-10 0H3a1 1 0 0 1-1-1v-9h6a1 1 0 0 0 0-2H2v-.008ZM21 11v4.99l8.22.01-1.913-5H21ZM9 28a3 3 0 1 1 0-6 3 3 0 0 1 0 6Zm16 0a3 3 0 1 1 0-6 3 3 0 0 1 0 6Z"/>
</svg>
