<svg width="24" height="24" viewBox="0 0 24 24" xmlns="http://www.w3.org/2000/svg">
  <path fill-rule="evenodd" d="M11.172 3.278a2 2 0 0 1 1.656 0L23.414 8.09a1 1 0 0 1 0 1.82l-4.417 2.008c.002.027.003.054.003.082v5a1 1 0 0 1-.208.611c-3.402 4.52-10.19 4.519-13.589-.006A.996.996 0 0 1 5 17v-5c0-.028.001-.055.003-.082L3 11.008V15a1 1 0 1 1-2 0v-4.902L.586 9.91a1 1 0 0 1 0-1.82l10.586-4.812ZM7 16.654c2.59 3.128 7.41 3.128 10 0v-3.828l-4.172 1.896a2 2 0 0 1-1.656 0L7 12.826v3.828ZM3.417 9 12 12.902 20.583 9 12 5.098 3.417 9Z" clip-rule="evenodd"/>
</svg>
