<svg width="32" height="32" viewBox="0 0 32 32" xmlns="http://www.w3.org/2000/svg">
  <path fill-rule="evenodd" d="M15.059 4.369a2 2 0 0 1 1.882 0l14.53 7.749a1 1 0 0 1 0 1.764l-7.48 3.99A.887.887 0 0 1 24 18v6a.996.996 0 0 1-.257.669c-4.106 4.68-11.395 4.677-15.496-.01A.996.996 0 0 1 8 24v-6c0-.044.003-.087.008-.129L4 15.733V21a1 1 0 1 1-2 0v-6.333l-1.47-.785a1 1 0 0 1 0-1.764l14.529-7.75ZM10 23.612c3.262 3.42 8.738 3.419 12 0v-4.679l-5.059 2.698a2 2 0 0 1-1.882 0L10 18.933v4.68Zm6-3.745L3.741 13.329a.998.998 0 0 0-.597-.319L3.125 13 16 6.133 28.875 13 16 19.867Z" clip-rule="evenodd"/>
</svg>
