<svg width="24" height="24" viewBox="-2 -1 24 24" xmlns="http://www.w3.org/2000/svg">
  <path d="M9 8.17V3.619L3.982 6.127l3.993 2.66c.294-.27.642-.48 1.025-.616Zm2 0c.383.136.731.347 1.025.616l3.993-2.66L11 3.619v4.553Zm1.966 2.38a3.024 3.024 0 0 1 0 .9L17 14.137V7.863l-4.034 2.687Zm-.941 2.664c-.294.269-.642.48-1.025.615v4.553l5.018-2.509-3.993-2.66ZM9 13.829a2.999 2.999 0 0 1-1.025-.615l-3.993 2.66L9 18.381v-4.553ZM7.034 11.45a3.024 3.024 0 0 1 0-.9L3 7.863v6.274l4.034-2.687Zm.97 8.67-4.902-2.45A2 2 0 1 1 1 14.267V7.732a2 2 0 1 1 2.102-3.401l4.902-2.45a2 2 0 0 1 3.992 0l4.902 2.45A2 2 0 1 1 19 7.733v6.535a2 2 0 1 1-2.102 3.401l-4.902 2.45a2 2 0 0 1-3.992 0ZM10 12a1 1 0 1 0 0-2 1 1 0 0 0 0 2Z"/>
</svg>
