<svg width="16" height="16" viewBox="0 0 16 16" xmlns="http://www.w3.org/2000/svg">
  <path d="M1 6.732a2 2 0 1 1 2.168-3.356L6 1.983a2 2 0 0 1 4 0l2.832 1.393A2 2 0 1 1 15 6.732v2.536a2 2 0 1 1-2.168 3.356L10 14.017a2 2 0 0 1-4 0l-2.832-1.393A2 2 0 1 1 1 9.268V6.732Zm8 5.536.038.022 2.776-1.365-1.698-.799A2.996 2.996 0 0 1 9 10.829v1.439Zm-2.038.022L7 12.268v-1.439a3.001 3.001 0 0 1-1.116-.703l-1.698.8 2.776 1.364ZM7 3.732a1.999 1.999 0 0 1-.038-.022L4.186 5.075l1.698.799A2.996 2.996 0 0 1 7 5.171V3.732Zm2.038-.022A1.999 1.999 0 0 1 9 3.732v1.439c.424.15.804.392 1.116.703l1.698-.8L9.038 3.71Zm1.95 4.566L13 9.223V6.777l-2.013.947a3.038 3.038 0 0 1 0 .552Zm-5.975-.552L3 6.777v2.446l2.013-.947a3.038 3.038 0 0 1 0-.552ZM8 9a1 1 0 1 0 0-2 1 1 0 0 0 0 2Z"/>
</svg>
