<svg width="16" height="16" viewBox="0 0 16 16" xmlns="http://www.w3.org/2000/svg">
  <path d="M10.707 5.293a1 1 0 0 1 0 1.414L9.414 8l1.293 1.293a1 1 0 0 1-1.414 1.414L8 9.414l-1.293 1.293a1 1 0 0 1-1.414-1.414L6.586 8 5.293 6.707a1 1 0 0 1 1.414-1.414L8 6.586l1.293-1.293a1 1 0 0 1 1.414 0Z"/>
  <path fill-rule="evenodd" d="M8.341 15.94C12.781 14.319 15 12.515 15 10.527V2.732c0-.45-.296-.845-.725-.968l-6-1.725a.994.994 0 0 0-.55 0l-6 1.725A1.005 1.005 0 0 0 1 2.732v7.795c0 1.988 2.22 3.792 6.659 5.413.22.08.462.08.682 0ZM3 3.454 8 2l5 1.454v7.114c0 .825-1.527 2.106-5 3.432-3.473-1.326-5-2.607-5-3.432V3.454Z" clip-rule="evenodd"/>
</svg>
