<svg width="32" height="32" viewBox="0 0 32 32" xmlns="http://www.w3.org/2000/svg">
  <path d="M11 1 3 9v22h18l8-8V1H11ZM8.77 19H7.52L5 12h1.22l1.51 4.35c.08.207.163.473.25.8.09.33.15.57.17.73 0-.24.11-.52.2-.84.09-.32.16-.56.22-.71l1.5-4.33h1.23l-2.53 7ZM20 19h-1.22v-4.82c0-.56.017-.893.05-1L16.48 19h-1.12l-2.25-5.85c.06.867.09 1.68.09 2.44V19H12v-7h1.79l2.16 5.57L18.2 12H20v7Zm5.07-6.49c.479.344.76.9.75 1.49a1.92 1.92 0 0 1-1.4 1.86l2 3.1-1.31.04-1.73-2.8h-1.17V19H21v-7h2a3.44 3.44 0 0 1 2.07.51ZM23 13h-.78v2.29H23a1.91 1.91 0 0 0 1.2-.3 1.06 1.06 0 0 0 .37-.88.94.94 0 0 0-.37-.88A2.25 2.25 0 0 0 23 13Z"/>
</svg>
