<svg width="24" height="24" viewBox="0 0 24 24" xmlns="http://www.w3.org/2000/svg">
  <path fill-rule="evenodd" d="M20.22 3.834a1 1 0 0 1 .78.977l-.012 9.094c-.116 2.396-1.723 4.426-4.238 6.063C15.03 21.086 12.804 22 12 22c-.804 0-3.031-.914-4.75-2.032-2.518-1.637-4.127-3.666-4.25-6.11V4.81a1 1 0 0 1 .78-.976l8-1.81a1 1 0 0 1 .44 0l8 1.81ZM12 4.025 5 5.61l-.001 8.197c.082 1.619 1.306 3.163 3.34 4.486C9.764 19.216 11.673 20 12 20c.328 0 2.236-.783 3.659-1.708 2.032-1.323 3.253-2.866 3.33-4.436L19 5.608l-7-1.583Zm1 7.707A2 2 0 0 0 12 8a2 2 0 0 0-1 3.732V15a1 1 0 1 0 2 0v-3.268Z"/>
</svg>
