<svg width="16" height="16" viewBox="0 0 16 16" xmlns="http://www.w3.org/2000/svg">
  <path fill-rule="evenodd" d="M15 2v6.416A4.983 4.983 0 0 0 13 8a4.978 4.978 0 0 0-3 1H3v1h6c-.628.836-1 1.874-1 3 0 .711.148 1.387.416 2H6a1 1 0 1 1 0-2h1v-1H2a1 1 0 0 1-1-1V2a1 1 0 0 1 1-1h12a1 1 0 0 1 1 1ZM3 7h10V3H3v4Zm12.632 4.945a.435.435 0 0 1 .246.734l-1.146 1.18.265 1.635a.432.432 0 0 1-.637.451L13 15.19l-1.36.756a.433.433 0 0 1-.638-.451l.266-1.636-1.145-1.179a.438.438 0 0 1 .245-.735l1.562-.24.678-1.454a.433.433 0 0 1 .785 0l.677 1.456 1.562.239Z"/>
</svg>
