<svg xmlns="http://www.w3.org/2000/svg" fill="none" viewBox="0 0 32 32" class="acv-icon"><path fill="#2668C5" fill-rule="evenodd" d="M16 20a7 7 0 1 0 0-14 7 7 0 0 0 0 14Zm0-2a5 5 0 1 0 0-10 5 5 0 0 0 0 10Z" clip-rule="evenodd"/><path fill="#2668C5" fill-rule="evenodd" d="M16.978 1.249a2.048 2.048 0 0 0-1.956 0l-1.778.964c-.253.138-.532.22-.818.243l-2.013.157A2.062 2.062 0 0 0 8.768 3.68l-.979 1.78c-.139.254-.33.476-.558.65L5.62 7.342a2.088 2.088 0 0 0-.812 1.794l.132 2.032c.019.29-.022.58-.121.851l-.694 1.912a2.096 2.096 0 0 0 .278 1.953l1.2 1.637c.171.233.292.5.354.782L6.4 20.29a2.076 2.076 0 0 0 1.28 1.49l1.75.67-1.255 6.761c-.202 1.237 1.054 2.184 2.15 1.624l5.675-2.9 5.675 2.9c1.096.56 2.351-.387 2.15-1.624l-1.255-6.76 1.75-.67a2.076 2.076 0 0 0 1.28-1.491l.442-1.988c.062-.282.183-.549.354-.782l1.2-1.637a2.096 2.096 0 0 0 .278-1.953l-.694-1.912a2.098 2.098 0 0 1-.121-.85l.132-2.033a2.088 2.088 0 0 0-.813-1.794l-1.609-1.23a2.075 2.075 0 0 1-.558-.65l-.979-1.781a2.062 2.062 0 0 0-1.645-1.067l-2.013-.157a2.051 2.051 0 0 1-.818-.243l-1.778-.964Zm.8 2.797L16 3.081l-1.778.965a4.101 4.101 0 0 1-1.636.485l-2.013.157-.979 1.781c-.278.507-.658.95-1.116 1.3L6.868 9 7 11.031a4.195 4.195 0 0 1-.242 1.703l-.694 1.912 1.2 1.637c.341.466.583 1 .708 1.565l.441 1.987 1.888.723a4.123 4.123 0 0 1 1.434.93l1.437 1.43 1.975-.42a4.092 4.092 0 0 1 1.706 0l1.975.42 1.437-1.43a4.123 4.123 0 0 1 1.434-.93l1.888-.723.44-1.987a4.178 4.178 0 0 1 .71-1.565l1.2-1.637-.695-1.912A4.194 4.194 0 0 1 25 11.03L25.13 9l-1.608-1.23a4.152 4.152 0 0 1-1.117-1.3l-.979-1.78-2.013-.158a4.101 4.101 0 0 1-1.636-.485Zm3.027 19.829-.526.524c-.494.492-1.199.7-1.877.556l-1.976-.42a2.046 2.046 0 0 0-.852 0l-1.976.42a2.052 2.052 0 0 1-1.877-.556l-.526-.524-.886 4.682 5.02-2.566a1.47 1.47 0 0 1 1.342 0l5.02 2.566-.886-4.682Z" clip-rule="evenodd"/></svg>