<svg xmlns="http://www.w3.org/2000/svg" fill="none" viewBox="0 0 32 32" class="acv-icon"><path fill="#2668C5" fill-rule="evenodd" d="M3 5a2 2 0 0 1 2-2h22a2 2 0 0 1 2 2v8c0 .608-.271 1.152-.699 1.52A9.953 9.953 0 0 0 23 13c-2.252 0-4.33.744-6.001 2H5a2 2 0 0 1-2-2V5Zm3 1a1 1 0 0 1 2 0v6a1 1 0 1 1-2 0V6Zm5-1a1 1 0 0 0-1 1v6a1 1 0 1 0 2 0V6a1 1 0 0 0-1-1Zm3 1a1 1 0 1 1 2 0v6a1 1 0 1 1-2 0V6Zm12 3a2 2 0 1 1-4 0 2 2 0 0 1 4 0ZM15 17H5a2 2 0 0 0-2 2v8a2 2 0 0 0 2 2h10a9.956 9.956 0 0 1-2-6c0-2.251.744-4.329 2-6Zm-9 3a1 1 0 1 1 2 0v6a1 1 0 1 1-2 0v-6Zm5-1a1 1 0 0 0-1 1v6a1 1 0 1 0 2 0v-6a1 1 0 0 0-1-1Z" clip-rule="evenodd"/><path fill="#2668C5" fill-rule="evenodd" d="M31 23a8 8 0 1 1-16 0 8 8 0 0 1 16 0Zm-6.256 3.069c-.48.384-1.148.576-2.004.576-.789 0-1.486-.148-2.093-.445v-1.456c.499.223.92.38 1.266.47.346.091.662.137.948.137.344 0 .608-.066.791-.197.184-.132.276-.327.276-.587a.647.647 0 0 0-.122-.386c-.08-.113-.2-.222-.356-.326-.157-.105-.476-.272-.958-.501-.451-.212-.79-.416-1.016-.612a2.297 2.297 0 0 1-.54-.682 1.947 1.947 0 0 1-.203-.91c0-.654.222-1.168.665-1.542.443-.374 1.055-.56 1.837-.56.384 0 .751.045 1.1.136.349.09.713.219 1.094.384l-.505 1.218a7.412 7.412 0 0 0-.979-.339 3.15 3.15 0 0 0-.76-.096c-.297 0-.524.07-.683.207a.684.684 0 0 0-.237.541c0 .139.032.26.096.362.064.103.166.202.306.298.14.096.47.269.993.518.69.33 1.164.662 1.42.994.257.332.385.738.385 1.22 0 .668-.24 1.194-.72 1.578Z" clip-rule="evenodd"/></svg>