<svg xmlns="http://www.w3.org/2000/svg" fill="none" viewBox="0 0 16 16" class="acv-icon"><g clip-path="url(#a)"><path fill="#2668C5" fill-rule="evenodd" d="m8.447.106 4 2A1 1 0 0 1 13 3v3.705l2.496 1.427a1 1 0 0 1 .497.75L16 9v4a1 1 0 0 1-.553.894l-4 2a1 1 0 0 1-1.002-.062L8 14.202l-2.445 1.63a1 1 0 0 1-1.002.062l-4-2A1 1 0 0 1 0 13V9.004a1 1 0 0 1 .504-.868L3 6.707V3a1 1 0 0 1 .553-.894l4-2a1 1 0 0 1 .894 0ZM3 9.01l-1 .573v2.798l2.928 1.464 1.083-.722-2.458-1.23A1 1 0 0 1 3 11V9.011ZM13 11V9.009l1 .571v2.802l-2.928 1.464-1.084-.722 2.46-1.23A1 1 0 0 0 13 11ZM8 6.152 5 7.867v2.515l3 1.5 3-1.5V7.866L8 6.152ZM5 3.618l3-1.5 3 1.5v1.944l-2.504-1.43-.118-.058a1 1 0 0 0-.874.058L5 5.563V3.618Z" clip-rule="evenodd"/></g><defs><clipPath id="a"><path fill="#fff" d="M0 0h16v16H0z"/></clipPath></defs></svg>