<svg xmlns="http://www.w3.org/2000/svg" fill="none" viewBox="0 0 96 96" class="acv-icon"><path fill="#CED2D9" d="M15 19a3 3 0 0 0-3 3v49H5a1 1 0 0 0-1 1v3a2 2 0 0 0 2 2h84a2 2 0 0 0 2-2v-3a1 1 0 0 0-1-1h-7V22a3 3 0 0 0-3-3H15Z"/><path fill="#B4B8BF" d="M4 74v1a2 2 0 0 0 2 2h84a2 2 0 0 0 2-2v-1a2 2 0 0 1-2 2H6a2 2 0 0 1-2-2Z"/><path fill="url(#a)" d="M37 71h22v2H37v-2Z"/><path fill="url(#b)" d="M14 22h68v47H14V22Z"/><g fill="#FAFCFF" clip-path="url(#c)"><path d="M49.874 40.962c.538-.272 1.13-.571 1.998-.571 1.15 0 3.049 1.018 3.814 2.168-1.456.552-2.49 1.946-2.49 3.58 0 1.648 1.053 3.053 2.531 3.593a12.85 12.85 0 0 1-1.107 2.073c-.74 1.16-1.754 2.625-3.052 2.635-.532.004-.891-.158-1.277-.334-.45-.203-.935-.424-1.776-.418-.834.005-1.302.222-1.732.422-.376.174-.723.335-1.26.33-1.894 0-5.25-4.223-5.25-8.027 0-4.182 2.836-5.958 4.701-5.958.719 0 1.345.257 1.942.503.542.223 1.06.437 1.6.437.5 0 .91-.208 1.358-.434ZM51.077 38.933c-.976.965-2.25 1.39-3.335 1.218l-.001.002c-.173-1.072.257-2.332 1.233-3.296.976-.965 2.25-1.39 3.335-1.219h.001c.172 1.07-.257 2.33-1.233 3.295Z"/></g><path fill="url(#d)" d="M31.515 22H82v42.913H56.242L31.515 22Z" opacity=".15"/><path fill="url(#e)" d="M49.03 22H82v23.5H63.58L49.03 22Z" opacity=".25"/><path fill="url(#f)" fill-rule="evenodd" d="M81 23H15v45h66V23Zm-67-1v47h68V22H14Z" clip-rule="evenodd" opacity=".2"/><path fill="#434C59" fill-rule="evenodd" d="M12 22a3 3 0 0 1 3-3h66a3 3 0 0 1 3 3v49H12V22Zm70 0v47H14V22h28.625c.552 0 .98.474 1.245.959A2 2 0 0 0 45.625 24h4.75a2 2 0 0 0 1.755-1.041c.266-.485.693-.959 1.245-.959H82Z" clip-rule="evenodd"/><path fill="#6C7480" d="M15 19a3 3 0 0 0-3 3v1a3 3 0 0 1 3-3h66a3 3 0 0 1 3 3v-1a3 3 0 0 0-3-3H15Z"/><defs><linearGradient id="a" x1="48" x2="48" y1="71" y2="73" gradientUnits="userSpaceOnUse"><stop stop-color="#A1A8B2"/><stop offset="1" stop-color="#FAFCFF"/></linearGradient><linearGradient id="b" x1="15.03" x2="81.67" y1="67.978" y2="24.558" gradientUnits="userSpaceOnUse"><stop stop-color="#6C7480"/><stop offset="1" stop-color="#E6EBF2"/></linearGradient><linearGradient id="d" x1="43.879" x2="43.879" y1="22" y2="64.913" gradientUnits="userSpaceOnUse"><stop stop-color="#fff"/><stop offset="1" stop-color="#EBEBEB" stop-opacity="0"/></linearGradient><linearGradient id="e" x1="56.758" x2="56.758" y1="22" y2="45.5" gradientUnits="userSpaceOnUse"><stop stop-color="#fff"/><stop offset="1" stop-color="#fff" stop-opacity="0"/></linearGradient><linearGradient id="f" x1="48" x2="48" y1="22" y2="69" gradientUnits="userSpaceOnUse"><stop stop-color="#1D2026"/><stop offset="1" stop-color="#1D2026" stop-opacity="0"/></linearGradient><clipPath id="c"><path fill="#fff" d="M37.697 35.282h20.606v20.435H37.697z"/></clipPath></defs></svg>