<svg xmlns="http://www.w3.org/2000/svg" fill="none" viewBox="0 0 16 16" class="acv-icon"><path fill="#2668C5" d="M15.859 11.965c.2.29.16.664-.08.871-.28.207-.68.166-.879-.083l-1.398-1.867-1.358 1.825c-.2.29-.6.29-.879.083-.28-.207-.32-.58-.12-.87l1.598-2.158-1.598-2.157c-.2-.29-.12-.705.12-.913.28-.207.68-.124.879.125l1.358 1.867L14.9 6.904c.2-.29.56-.332.879-.125.28.208.28.623.08.913L14.3 9.808l1.558 2.157Zm-7.27-.25c-1.039 0-1.878-.829-1.878-1.907 0-1.037.839-1.909 1.878-1.909 1.038 0 1.877.872 1.877 1.909-.04 1.078-.879 1.908-1.877 1.908Zm-5.513 0c-1.039 0-1.878-.829-1.878-1.907 0-1.037.84-1.909 1.878-1.909 1.039 0 1.877.872 1.877 1.909 0 1.078-.838 1.908-1.877 1.908Zm5.513-5.06a3.077 3.077 0 0 0-2.717 1.66 3.093 3.093 0 0 0-2.756-1.66c-.72 0-1.358.249-1.878.622V4.622C1.238 4.29.986 4 .667 4 .307 4 0 4.29 0 4.622V9.85C.04 11.591 1.398 13 3.076 13c1.198 0 2.237-.745 2.756-1.74.52.995 1.558 1.7 2.717 1.7 1.717 0 3.116-1.41 3.116-3.194.04-1.7-1.359-3.111-3.076-3.111Z"/></svg>