<svg xmlns="http://www.w3.org/2000/svg" fill="none" viewBox="0 0 24 24" class="acv-icon"><path stroke="#141414" stroke-linecap="round" stroke-linejoin="round" stroke-width="1.5" d="M12 13.75v2.5m0 0c-2 0-3.25-1.5-3.25-1.5m3.25 1.5c2 0 3.25-1.5 3.25-1.5M5.652 9.262 4.75 4.75l4.174 1.67A7.69 7.69 0 0 1 12 5.786c1.1 0 2.142.227 3.076.634l4.174-1.67-.902 4.512a6.33 6.33 0 0 1 .902 3.256c0 3.718-3.246 6.732-7.25 6.732s-7.25-3.014-7.25-6.732c0-1.181.327-2.29.902-3.256Z"/><path stroke="#141414" stroke-linecap="round" stroke-linejoin="round" d="M10.5 11a.5.5 0 1 1-1 0 .5.5 0 0 1 1 0ZM14.5 11a.5.5 0 1 1-1 0 .5.5 0 0 1 1 0Z"/></svg>