<svg xmlns="http://www.w3.org/2000/svg" fill="none" viewBox="0 0 32 32" class="acv-icon"><path fill="#2668C5" fill-rule="evenodd" d="M0 25.76V6.24C0 5.206.748 4.327 1.761 4.17l13.846-2.146C16.865 1.83 18 2.81 18 4.093v23.814c0 1.282-1.135 2.263-2.393 2.068L1.761 27.83A2.088 2.088 0 0 1 0 25.76Zm4.5-12.573h3.115V21h2.77v-7.813H13.5V11h-9v2.188Z" clip-rule="evenodd"/><path fill="#2668C5" d="M20.5 5c-.17 0-.337.012-.5.035v6.93A3.5 3.5 0 1 0 20.5 5ZM20 26.973V13h3.5a1.5 1.5 0 0 1 1.5 1.5v8a4.5 4.5 0 0 1-5 4.473ZM30.5 9.5a2.5 2.5 0 1 1-5 0 2.5 2.5 0 0 1 5 0ZM28 25a3.987 3.987 0 0 1-1.564-.317c.36-.647.564-1.391.564-2.183v-8a1.5 1.5 0 0 0-1.5-1.5h5a1.5 1.5 0 0 1 1.5 1.5V21a4 4 0 0 1-4 4Z"/></svg>