<svg xmlns="http://www.w3.org/2000/svg" fill="none" viewBox="0 0 24 24" class="acv-icon"><path stroke="#141414" stroke-linecap="round" stroke-linejoin="round" stroke-width="1.5" d="M4.75 19.25h14.5M13.737 6.286l2.636-.956a1.872 1.872 0 0 1 2.397 1.114l.48 1.314-4.393 1.595-2.65 4.479a1.87 1.87 0 0 1-.971.805l-1.69.613 1.356-4.462-1.757.638A2.807 2.807 0 0 1 5.55 9.754l-.8-2.19 2.617 1.034 3.295-1.195m3.075-1.117-3.075 1.117m3.075-1.117-2.923-1.394a1.875 1.875 0 0 0-1.356-.03l-.634.23 1.838 2.31"/></svg>