<svg xmlns="http://www.w3.org/2000/svg" fill="none" viewBox="0 0 16 16" class="acv-icon"><path fill="#2668C5" d="M5.217 14c5.66 0 8.757-4.617 8.757-8.621 0-.131 0-.262-.01-.392A6.209 6.209 0 0 0 15.5 3.42a6.218 6.218 0 0 1-1.768.477 3.05 3.05 0 0 0 1.353-1.676 6.226 6.226 0 0 1-1.954.735 3.096 3.096 0 0 0-1.746-.915 3.122 3.122 0 0 0-1.951.319A3.053 3.053 0 0 0 8.082 3.78a2.99 2.99 0 0 0-.195 1.939 8.845 8.845 0 0 1-3.514-.92 8.713 8.713 0 0 1-2.829-2.246 2.992 2.992 0 0 0-.337 2.208 3.032 3.032 0 0 0 1.29 1.837 3.091 3.091 0 0 1-1.397-.38v.039c0 .7.246 1.377.696 1.919.45.54 1.077.912 1.773 1.05a3.12 3.12 0 0 1-1.39.053c.197.602.58 1.128 1.095 1.506a3.113 3.113 0 0 0 1.78.598A6.238 6.238 0 0 1 .5 12.64a8.813 8.813 0 0 0 4.717 1.359"/></svg>