<svg xmlns="http://www.w3.org/2000/svg" fill="none" viewBox="0 0 32 32" class="acv-icon"><path fill="currentColor" fill-rule="evenodd" d="M2.5 2a.5.5 0 0 0-.5.5v4a.5.5 0 0 0 .5.5h19a.5.5 0 0 0 .5-.5v-4a.5.5 0 0 0-.5-.5h-19ZM19 5.5c.5523 0 1-.4477 1-1s-.4477-1-1-1-1 .4477-1 1 .4477 1 1 1Z" clip-rule="evenodd"/><path fill="currentColor" d="M22 14.5V17h-2.1338A.9954.9954 0 0 0 20 16.5c0-.5523-.4477-1-1-1s-1 .4477-1 1c0 .1821.0487.3529.1338.5H13c-1.1046 0-2 .8954-2 2H2.5a.5.5 0 0 1-.5-.5v-4a.5.5 0 0 1 .5-.5h19a.5.5 0 0 1 .5.5ZM11 21H3c-.5523 0-1 .4477-1 1s.4477 1 1 1h8v-2Z"/><path fill="currentColor" fill-rule="evenodd" d="M2.5 8a.5.5 0 0 0-.5.5v4a.5.5 0 0 0 .5.5h19a.5.5 0 0 0 .5-.5v-4a.5.5 0 0 0-.5-.5h-19ZM19 11.5c.5523 0 1-.4477 1-1s-.4477-1-1-1-1 .4477-1 1 .4477 1 1 1ZM12 19c0-.5523.4477-1 1-1h16c.5523 0 1 .4477 1 1v10c0 .5523-.4477 1-1 1H13c-.5523 0-1-.4477-1-1V19Zm5 8c-1.6569 0-3-1.3431-3-3s1.3431-3 3-3 3 1.3431 3 3c0 .3506-.0602.6872-.1707 1h2.3414A2.9967 2.9967 0 0 1 22 24c0-1.6569 1.3431-3 3-3s3 1.3431 3 3-1.3431 3-3 3h-8Z" clip-rule="evenodd"/></svg>