<svg xmlns="http://www.w3.org/2000/svg" fill="none" viewBox="0 0 32 32" class="acv-icon"><path fill="currentColor" fill-rule="evenodd" d="M3 20V8c0-2.7614 2.2386-5 5-5h16c2.7614 0 5 2.2386 5 5v12c0 2.7614-2.2386 5-5 5h-7l-5.5143 4.7265c-.5838.5004-1.4857.0856-1.4857-.6833V25H8c-2.7614 0-5-2.2386-5-5ZM20.5 6a.8125.8125 0 0 1 .8052.7038c.0713.4978.1835.992.3213 1.4751.2439.8546.5992 1.6986 1.0476 2.147.4484.4484 1.2924.8037 2.147 1.0476.4832.1378.9773.25 1.4751.3213a.8125.8125 0 0 1-.0002 1.6104c-.4985.0697-.9912.1833-1.4749.3213-.8546.2439-1.6986.5992-2.147 1.0476-.4484.4484-.8037 1.2924-1.0476 2.147-.1378.4832-.25.9773-.3213 1.4751a.8125.8125 0 0 1-1.6104-.0002c-.0697-.4985-.1833-.9912-.3213-1.4749-.2439-.8546-.5992-1.6986-1.0476-2.147-.4484-.4484-1.2924-.8037-2.147-1.0476-.4832-.1378-.9773-.25-1.4751-.3213a.8125.8125 0 0 1 .0002-1.6104c.4978-.0714.9918-.1835 1.4749-.3213.8546-.2439 1.6986-.5992 2.147-1.0476.4484-.4484.8037-1.2924 1.0476-2.147.1378-.4832.25-.9773.3213-1.4751A.8125.8125 0 0 1 20.5 6ZM12 15a.5.5 0 0 1 .4955.4331c.0439.3063.1129.6104.1978.9078.15.5259.3687 1.0452.6446 1.3212.276.2759.7953.4946 1.3212.6446.2974.0849.6015.1539.9078.1978a.5.5 0 0 1-.0001.991c-.3068.0429-.61.1128-.9077.1978-.5259.15-1.0452.3687-1.3212.6446-.2759.276-.4946.7953-.6446 1.3212-.0849.2974-.1539.6015-.1978.9078a.5.5 0 0 1-.991-.0001c-.0429-.3068-.1128-.61-.1978-.9077-.15-.5259-.3687-1.0452-.6446-1.3212-.276-.2759-.7953-.4946-1.3212-.6446-.2974-.0849-.6015-.1539-.9078-.1978a.5.5 0 0 1 .0001-.991c.3063-.0439.6104-.1129.9077-.1978.5259-.15 1.0452-.3687 1.3212-.6446.2759-.276.4946-.7953.6446-1.3212.0849-.2974.1539-.6015.1978-.9078A.5.5 0 0 1 12 15ZM8.8716 8.3248a.375.375 0 0 0-.7432 0c-.033.2298-.0847.4578-.1483.6809-.1126.3944-.2766.7839-.4836.9909-.2069.2069-.5964.3709-.9908.4835-.223.0636-.451.1153-.6808.1483a.375.375 0 0 0 0 .7432c.2297.0329.4577.0847.6808.1483.3944.1126.7839.2766.9909.4835.2069.207.371.5965.4835.9909.0637.2233.116.4507.1483.6808a.3751.3751 0 0 0 .7432.0001c.033-.2298.0847-.4578.1483-.6809.1126-.3944.2766-.7839.4836-.9909.2069-.2069.5964-.3709.9908-.4835.2233-.0637.4507-.1161.6808-.1483a.375.375 0 0 0 .0001-.7432c-.2298-.0329-.4578-.0847-.6809-.1483-.3944-.1126-.7839-.2766-.9909-.4836-.2069-.2069-.371-.5964-.4834-.9908-.0637-.223-.1155-.4511-.1484-.6809Z" clip-rule="evenodd"/></svg>