<svg xmlns="http://www.w3.org/2000/svg" fill="none" viewBox="0 0 32 32" class="acv-icon"><path fill="currentColor" fill-rule="evenodd" d="M4 3c-1.1046 0-2 .8954-2 2v18c0 1.1046.8954 2 2 2h8l-.8447 3.3787c-.0789.3156.1598.6213.4851.6213h8.7192c.3253 0 .564-.3057.4851-.6213L20 25h8c1.1046 0 2-.8954 2-2V5c0-1.1046-.8954-2-2-2H4Zm5.9121 13.9107h1.2847v-4.9732H9.9121v4.9732Zm.1304-6.7366c-.1224.1131-.1835.2679-.1835.4643 0 .2024.0644.3601.1932.4732.1288.1101.2994.1652.5119.1652.2029 0 .3687-.0551.4975-.1652.1288-.1131.1932-.2708.1932-.4732 0-.1964-.0628-.3512-.1884-.4643-.1256-.1161-.293-.1741-.5023-.1741-.2222 0-.396.058-.5216.1741ZM6 10.3839v6.5268h3.1345v-1.0625H7.3137v-5.4643H6Zm8.9785 6.5268v-2.9643c0-.3601-.0467-.6324-.1401-.8169-.0933-.1846-.2447-.2768-.454-.2768-.2769 0-.4797.128-.6085.3839-.1288.253-.1932.6816-.1932 1.2857v2.3884H12.298v-4.9732h1.0191l.1545.6384h.0821c.1159-.2292.2818-.4077.4975-.5357.2157-.131.4685-.1964.7583-.1964.4894 0 .8548.1547 1.0963.4642.2447.3096.3671.7619.3671 1.3572v3.2455h-1.2944Zm5.0809-.6384.1594.6384h1.0287v-4.9732h-1.2992v2.3839c0 .6042-.0644 1.0343-.1932 1.2902-.1255.256-.3268.3839-.6037.3839-.2093 0-.3606-.0922-.454-.2767-.0934-.1846-.14-.4584-.14-.8215v-2.9598h-1.2992v3.2455c0 .6042.1239 1.0581.3718 1.3616.248.3036.6134.4554 1.0964.4554.2833 0 .5345-.064.7534-.192.2222-.1309.3929-.3095.512-.5357h.0676Zm3.1925-1.9018-1.3427-2.433h1.333l.7148 1.5179.6617-1.5179h1.3233l-1.3523 2.433L26 16.9107h-1.3427l-.7631-1.5893-.7099 1.5893h-1.3379l1.4055-2.5402Z" clip-rule="evenodd"/></svg>