<svg xmlns="http://www.w3.org/2000/svg" fill="none" viewBox="0 0 16 16" class="acv-icon"><path fill="#FFC107" fill-rule="evenodd" d="M7.1312.5338a1.0402 1.0402 0 0 1 .365-.389c.4799-.2968 1.0946-.1226 1.373.389l6.9952 12.858a1.126 1.126 0 0 1 .1356.5373C16 14.5205 15.5503 15 14.9955 15H1.0047a.9578.9578 0 0 1-.504-.1445c-.48-.2968-.6433-.9521-.365-1.4637L7.1312.5338Z" clip-rule="evenodd"/><path stroke="#243143" stroke-opacity=".1" d="M7.7588.5703c.222-.1372.5218-.0715.6709.2022l6.9951 12.8584a.6261.6261 0 0 1 .0752.2978c0 .3459-.2559.5713-.5049.5713H1.0049a.4582.4582 0 0 1-.2412-.0693c-.2426-.15-.3467-.5091-.1885-.7998L7.5703.7725a.5405.5405 0 0 1 .1885-.2022Z"/><path fill="#243143" fill-opacity=".9" d="M8 4.5c-.5523 0-1 .4477-1 1V8c0 .5523.4477 1 1 1s1-.4477 1-1V5.5c0-.5523-.4477-1-1-1ZM8 12.5c.5523 0 1-.4477 1-1s-.4477-1-1-1-1 .4477-1 1 .4477 1 1 1Z"/></svg>