<svg xmlns="http://www.w3.org/2000/svg" fill="none" viewBox="0 0 16 16" class="acv-icon"><path fill="currentColor" d="M10.8285 9.4142c.3906.3905.3906 1.0237 0 1.4142-.3905.3906-1.0236.3906-1.4142 0L8 9.4141l-1.4142 1.4143c-.3906.3906-1.0237.3906-1.4142 0-.3906-.3905-.3906-1.0237 0-1.4142L6.5858 8 5.1717 6.5858c-.3905-.3905-.3905-1.0237 0-1.4142.3905-.3906 1.0237-.3906 1.4142 0l1.4142 1.4141 1.4141-1.4141c.3905-.3906 1.0237-.3906 1.4142 0 .3905.3905.3905 1.0237 0 1.4142L9.4143 7.9999l1.4142 1.4143Z"/><path fill="currentColor" fill-rule="evenodd" d="M16 8c0 4.4183-3.5817 8-8 8s-8-3.5817-8-8 3.5817-8 8-8 8 3.5817 8 8Zm-2 0c0 3.3137-2.6863 6-6 6s-6-2.6863-6-6 2.6863-6 6-6 6 2.6863 6 6Z" clip-rule="evenodd"/></svg>