<svg xmlns="http://www.w3.org/2000/svg" fill="none" viewBox="0 0 32 32" class="acv-icon"><path fill="#408BEA" d="M25.521 20.209a.654.654 0 0 1 .958 0l.46.489a.655.655 0 0 0 .631.19l.645-.155a.667.667 0 0 1 .805.533l.131.668a.68.68 0 0 0 .43.511l.624.229c.355.13.535.535.398.896l-.24.635a.703.703 0 0 0 .093.67l.405.539a.7.7 0 0 1-.137.975l-.536.4a.695.695 0 0 0-.273.616l.058.679a.68.68 0 0 1-.627.744l-.661.039a.648.648 0 0 0-.185.038v2.584c0 .361-.357.608-.686.474L26 31.223l-1.814.74a.501.501 0 0 1-.686-.474v-2.584a.648.648 0 0 0-.185-.038l-.66-.039a.68.68 0 0 1-.628-.744l.058-.68a.695.695 0 0 0-.273-.615l-.537-.4a.7.7 0 0 1-.136-.975l.405-.54a.703.703 0 0 0 .094-.669l-.241-.635a.692.692 0 0 1 .398-.896l.623-.229a.68.68 0 0 0 .43-.51l.132-.669a.667.667 0 0 1 .805-.533l.645.155a.655.655 0 0 0 .63-.19l.461-.49Z"/><path stroke="#243143" stroke-opacity=".1" d="m24 28.555-.33-.12a1.158 1.158 0 0 0-.16-.045l-.166-.023-.66-.038a.177.177 0 0 1-.158-.16v-.043l.057-.679a1.2 1.2 0 0 0-.355-.959l-.118-.1-.536-.4a.2.2 0 0 1-.055-.239l.02-.035.405-.54c.216-.287.289-.656.206-1l-.044-.147-.242-.634a.198.198 0 0 1 .045-.213l.058-.036.623-.229c.341-.125.599-.4.71-.737l.04-.148.13-.668a.174.174 0 0 1 .137-.144l.061.002.645.154c.354.085.722-.003.998-.229l.113-.104.46-.49a.154.154 0 0 1 .177-.038l.054.039.461.489c.248.263.602.395.958.36l.154-.027.644-.154a.164.164 0 0 1 .187.102l.011.04.13.668c.07.353.293.656.609.822l.141.063.623.229a.19.19 0 0 1 .113.208l-.01.04-.241.635c-.128.336-.097.711.078 1.02l.083.128.405.539a.202.202 0 0 1-.009.25l-.026.024-.536.4c-.29.217-.46.552-.476.906l.003.153.058.679a.187.187 0 0 1-.098.186l-.06.017-.66.038c-.114.007-.224.03-.328.068l-.329.12v2.934l-.001.007v.002h-.001l-1.81-.738-.188-.077-.189.077-1.81.738v-.002L24 31.49v-2.934Z"/><path fill="#fff" d="M28.5 25a2.5 2.5 0 1 1-5 0 2.5 2.5 0 0 1 5 0Z"/></svg>