<svg xmlns="http://www.w3.org/2000/svg" fill="none" viewBox="0 0 24 24" class="acv-icon"><path fill="currentColor" fill-rule="evenodd" d="M11 18H3.5032C2.673 18 2 17.3361 2 16.5069V3.4931C2 2.6685 2.6654 2 3.5032 2h16.9935C21.327 2 22 2.6639 22 3.4931v10.2647A4.4784 4.4784 0 0 0 19.5 13a4.4815 4.4815 0 0 0-2.8287 1H4v2h11.2561a4.482 4.482 0 0 0-.25 1.2641 2.009 2.009 0 0 0-.7385.7359H13v2h1v2H8.997A.996.996 0 0 1 8 21c0-.5523.453-1 .997-1H11v-2Zm9-14H4v8h16V4Z" clip-rule="evenodd"/><path fill="currentColor" fill-rule="evenodd" d="M19.5 15c-1.3807 0-2.5 1.1193-2.5 2.5v1c-.5523 0-1 .4477-1 1v3c0 .5523.4477 1 1 1h5c.5523 0 1-.4477 1-1v-3c0-.5523-.4477-1-1-1v-1c0-1.3807-1.1193-2.5-2.5-2.5Zm0 1.5c.5523 0 1 .4477 1 1v1h-2v-1c0-.5523.4477-1 1-1Z" clip-rule="evenodd"/></svg>