<svg xmlns="http://www.w3.org/2000/svg" fill="none" viewBox="0 0 24 24" class="acv-icon"><path fill="currentColor" d="M9 10c-.5523 0-1 .4477-1 1v2H7c-.412 0-.6473.4704-.4.8l2 2.6667c.2.2666.6.2666.8 0L11.3998 13.8c.2472-.3296.0121-.8-.4-.8h-1v-2c0-.5523-.4477-1-1-1ZM14.9999 17c.5523 0 1-.4477 1-1v-2h1c.4121 0 .6473-.4704.4-.8l-2-2.6667c-.2-.2666-.6-.2666-.8 0l-2 2.6667c-.2472.3296-.012.8.4.8h1v2c0 .5523.4478 1 1 1Z"/><path fill="currentColor" fill-rule="evenodd" d="M22 7c0-.5523-.4477-1-1-1h-8.2792l-.7721-2.3162A1 1 0 0 0 11 3H3c-.5523 0-1 .4477-1 1v16c0 .5523.4477 1 1 1h18c.5523 0 1-.4477 1-1V7ZM4 19V5h6.2792l.7721 2.3162A1 1 0 0 0 12 8h8v11H4Z" clip-rule="evenodd"/></svg>