<svg xmlns="http://www.w3.org/2000/svg" fill="none" viewBox="0 0 24 24" class="acv-icon"><path fill="currentColor" fill-rule="evenodd" d="M1 19.7131V4.2869a1.5 1.5 0 0 1 1.272-1.4826l9.9999-1.5384C13.1806 1.126 14 1.829 14 2.7484v18.5032c0 .9193-.8194 1.6223-1.7281 1.4825l-10-1.5384A1.5 1.5 0 0 1 1 19.7131ZM4.5 9.75h2.0764V16h1.8472V9.75H10.5V8h-6v1.75Z" clip-rule="evenodd"/><path fill="currentColor" d="M18 6.5C18 5.1193 16.8807 4 15.5 4v5C16.8807 9 18 7.8807 18 6.5ZM15.5 20V10H18c.5523 0 1 .4477 1 1v6c0 1.6569-1.3431 3-3 3h-.5ZM23 7c0 1.1046-.8954 2-2 2s-2-.8954-2-2 .8954-2 2-2 2 .8954 2 2ZM21 19a2.9925 2.9925 0 0 1-1.0952-.2062A2.986 2.986 0 0 0 20.5 17v-6c0-.5523-.4477-1-1-1H23c.5523 0 1 .4477 1 1v5c0 1.6569-1.3431 3-3 3Z"/></svg>