<svg xmlns="http://www.w3.org/2000/svg" fill="none" viewBox="0 0 24 24" class="acv-icon"><path fill="currentColor" fill-rule="evenodd" d="M22 8h-3V3c0-.5523-.4477-1-1-1H2c-.5523 0-1 .4477-1 1v12c0 .5523.4477 1 1 1h3v5c0 .5523.4477 1 1 1h16c.5523 0 1-.4477 1-1V9c0-.5523-.4477-1-1-1ZM7 14v-4h14v4H7Zm10-6V4H3v4h14ZM3 14v-4h2v4H3Zm4 2v4h14v-4H7ZM4 6c0 .5523.4477 1 1 1s1-.4477 1-1-.4477-1-1-1-1 .4477-1 1Zm5 7c-.5523 0-1-.4477-1-1s.4477-1 1-1 1 .4477 1 1-.4477 1-1 1Zm0 6c-.5523 0-1-.4477-1-1s.4477-1 1-1 1 .4477 1 1-.4477 1-1 1Zm9-7c0 .5523.4477 1 1 1s1-.4477 1-1-.4477-1-1-1-1 .4477-1 1Zm1 7c-.5523 0-1-.4477-1-1s.4477-1 1-1 1 .4477 1 1-.4477 1-1 1Zm-4-7c0 .5523.4477 1 1 1s1-.4477 1-1-.4477-1-1-1-1 .4477-1 1Zm1 7c-.5523 0-1-.4477-1-1s.4477-1 1-1 1 .4477 1 1-.4477 1-1 1ZM15 7c-.5523 0-1-.4477-1-1s.4477-1 1-1 1 .4477 1 1-.4477 1-1 1Zm-4-1c0 .5523.4477 1 1 1s1-.4477 1-1-.4477-1-1-1-1 .4477-1 1Z" clip-rule="evenodd"/></svg>