<svg xmlns="http://www.w3.org/2000/svg" fill="none" viewBox="0 0 32 32" class="acv-icon"><path fill="currentColor" d="M13.0009 10v1.5841L9.7039 8.292a.9969.9969 0 0 0-1.4127.0029c-.3894.392-.388 1.0263.0028 1.4167L11.5873 13h-1.5864c-.5523 0-1 .4477-1 1s.4477 1 1 1h4c.5522 0 1-.4477 1-1v-4c0-.5523-.4478-1-1-1-.5523 0-1 .4477-1 1ZM18.7039 14.708l3.297-3.2921V13c0 .5523.4477 1 1 1 .5522 0 1-.4477 1-1V9c0-.5523-.4478-1-1-1h-4c-.5523 0-1 .4477-1 1s.4477 1 1 1h1.5864l-3.2933 3.2884c-.3909.3904-.3922 1.0247-.0028 1.4167a.9969.9969 0 0 0 1.4127.0029ZM19 20.4159V22c0 .5523-.4477 1-1 1s-1-.4477-1-1v-4c0-.5523.4477-1 1-1h4c.5523 0 1 .4477 1 1s-.4477 1-1 1h-1.5865l3.2934 3.2884c.3908.3904.3921 1.0247.0028 1.4167a.9969.9969 0 0 1-1.4127.0029L19 20.4159ZM13.297 17.292 10 20.5841V19c0-.5523-.4477-1-1-1s-1 .4477-1 1v4c0 .5523.4477 1 1 1h4c.5523 0 1-.4477 1-1s-.4477-1-1-1h-1.5865l3.2934-3.2884c.3908-.3904.3921-1.0247.0028-1.4167a.9969.9969 0 0 0-1.4127-.0029Z"/><path fill="currentColor" fill-rule="evenodd" d="M16 30C8.268 30 2 23.732 2 16S8.268 2 16 2s14 6.268 14 14-6.268 14-14 14Zm0-2c6.6274 0 12-5.3726 12-12S22.6274 4 16 4 4 9.3726 4 16s5.3726 12 12 12Z" clip-rule="evenodd"/></svg>