<svg xmlns="http://www.w3.org/2000/svg" fill="none" viewBox="0 0 24 24" class="acv-icon"><path fill="currentColor" d="M8 12c-.5523 0-1 .4477-1 1s.4477 1 1 1h1c.5523 0 1-.4477 1-1s-.4477-1-1-1H8ZM7 17c0-.5523.4477-1 1-1h3c.5523 0 1 .4477 1 1s-.4477 1-1 1H8c-.5523 0-1-.4477-1-1ZM14 17c0-.5523.4477-1 1-1h1c.5523 0 1 .4477 1 1s-.4477 1-1 1h-1c-.5523 0-1-.4477-1-1ZM12 13c0-.5523.4477-1 1-1h3c.5523 0 1 .4477 1 1s-.4477 1-1 1h-3c-.5523 0-1-.4477-1-1Z"/><path fill="currentColor" fill-rule="evenodd" d="M18 4h1.001C20.109 4 21 4.8948 21 6v15c0 1.0991-.8974 2-2.0009 2H5.0009C3.8932 23 3 22.1055 3 21V6c0-1.0987.896-2 1.999-2H6c0-.5523.4477-1 1-1h1V2c0-.5523.4477-1 1-1h6c.5523 0 1 .4477 1 1v1h1c.5523 0 1 .4477 1 1Zm0 2v1c0 .5523-.4477 1-1 1H7c-.5523 0-1-.4477-1-1V6H5v15h13.9991C18.9963 21 19 6 19 6h-1ZM8 6h8V5c-1.1053 0-2-.8923-2-2h-4c0 1.1053-.8923 2-2 2v1Z" clip-rule="evenodd"/></svg>