<svg xmlns="http://www.w3.org/2000/svg" fill="none" viewBox="0 0 16 16" class="acv-icon"><path fill="currentColor" fill-rule="evenodd" d="M5 1c-.5523 0-1 .4477-1 1v12.5a.5.5 0 0 0 .5.5H7v-1c0-.5523.4477-1 1-1s1 .4477 1 1v1h2.5a.5.5 0 0 0 .5-.5V2c0-.5523-.4477-1-1-1H5Zm2.25 10.5a.75.75 0 0 1 0-1.5h1.5a.75.75 0 0 1 0 1.5h-1.5ZM6.5 7.75a.75.75 0 0 0 .75.75h1.5a.75.75 0 0 0 0-1.5h-1.5a.75.75 0 0 0-.75.75Zm.75-2.25a.75.75 0 0 1 0-1.5h1.5a.75.75 0 0 1 0 1.5h-1.5Z" clip-rule="evenodd"/><path fill="currentColor" d="M3 5.336a.25.25 0 0 0-.3218-.2395l-.9655.2897A1 1 0 0 0 1 6.344V13.6a.4.4 0 0 0 .4.4H3V5.336ZM13 7h1c.5523 0 1 .4477 1 1v5.5a.5.5 0 0 1-.5.5H13V7Z"/></svg>