<svg xmlns="http://www.w3.org/2000/svg" fill="none" viewBox="0 0 16 16" class="acv-icon"><path fill="currentColor" fill-rule="evenodd" d="M3.6356.5c-1.0868 0-1.993.8113-2.0872 1.8683L.508 13.2773C.4015 14.4724 1.3745 15.5 2.6032 15.5h10.7936c1.2287 0 2.2017-1.0276 2.0952-2.2227l-1.0404-10.909C14.3575 1.3113 13.4512.5 12.3644.5H3.6356ZM2.1599 12.4005a1 1 0 0 1 .995-.9005h9.6901a1 1 0 0 1 .995.9005l.05.5c.0589.5887-.4034 1.0995-.995 1.0995h-2.0617l-.2193-.6581A.5001.5001 0 0 0 10.1396 13H5.8604a.5.5 0 0 0-.4744.3419L5.1667 14H3.105c-.5916 0-1.054-.5108-.995-1.0995l.05-.5Z" clip-rule="evenodd"/></svg>