<svg xmlns="http://www.w3.org/2000/svg" fill="none" viewBox="0 0 16 16" class="acv-icon"><path fill="currentColor" d="M8.098 3.9194c-.4011-.3804-.4011-.9972 0-1.3776 1.4645-1.389 3.839-1.389 5.3035 0 1.4645 1.3891 1.4645 3.6413 0 5.0305l-2.0977 1.9896c-1.0867 1.0307-2.6724 1.2952-4.0145.7995-.5285-.1953-.79-.76-.5842-1.2612.2058-.5013.8012-.7494 1.3297-.5542.6102.2255 1.3267.103 1.8166-.3616l2.0977-1.9897c.6624-.6283.6624-1.647 0-2.2753-.6624-.6283-1.7364-.6283-2.3988 0-.401.3804-1.0513.3804-1.4524 0Z"/><path fill="currentColor" d="M7.902 12.0806c.401.3804.401.9972 0 1.3775-1.4646 1.3892-3.839 1.3892-5.3036 0-1.4645-1.3891-1.4645-3.6413 0-5.0304L4.6962 6.438c1.0865-1.0306 2.6724-1.2952 4.0144-.7994.5285.1952.79.7599.5842 1.2612-.2058.5013-.8011.7494-1.3297.5541-.6102-.2254-1.3267-.103-1.8166.3617L4.0508 9.8053c-.6624.6283-.6624 1.647 0 2.2753.6624.6283 1.7364.6283 2.3988 0 .401-.3805 1.0513-.3805 1.4524 0Z"/></svg>