<svg xmlns="http://www.w3.org/2000/svg" fill="none" viewBox="0 0 24 24" class="acv-icon"><path fill="currentColor" fill-rule="evenodd" d="M19 3H5c-1.1046 0-2 .8954-2 2v14c0 1.1046.8954 2 2 2h14c1.1046 0 2-.8954 2-2V5c0-1.1046-.8954-2-2-2ZM5 19V7h14v12H5Zm9.2929-6.7071L13 13.5858V10c0-.5523-.4477-1-1-1s-1 .4477-1 1v3.5858l-1.2929-1.2929c-.3905-.3905-1.0237-.3905-1.4142 0-.3905.3905-.3905 1.0237 0 1.4142l3 3c.3905.3905 1.0237.3905 1.4142 0l3-3c.3905-.3905.3905-1.0237 0-1.4142-.3905-.3905-1.0237-.3905-1.4142 0Z" clip-rule="evenodd"/></svg>