<svg xmlns="http://www.w3.org/2000/svg" fill="none" viewBox="0 0 32 32" class="acv-icon"><path fill="currentColor" d="M4 5h4v4H4V5ZM4 14h4v4H4v-4ZM8 23H4v4h4v-4ZM10 6h18v2H10V6ZM13 15h-3v2h3v-2ZM10 24h4v2h-4v-2ZM18.0281 17H21v2h-6v-6h2v2.11c1.8833-1.8664 4.6848-2.5248 7.2161-1.703C26.7474 14.2289 28.597 16.3913 29 19h-2.0187c-.4068-1.914-1.9026-3.4172-3.8286-3.8475-1.9259-.4302-3.9281.2917-5.1246 1.8475ZM27 24.89V27h2v-6h-6v2h2.9719c-1.1965 1.5558-3.1987 2.2777-5.1246 1.8475-1.926-.4303-3.4218-1.9335-3.8286-3.8475H15c.403 2.6087 2.2526 4.7711 4.7839 5.593 2.5313.8218 5.3328.1634 7.2161-1.703Z"/></svg>