<svg xmlns="http://www.w3.org/2000/svg" fill="none" viewBox="0 0 24 24" class="acv-icon"><path fill="currentColor" d="M9.7734 15.4106c-1.2756-.7727-2.071-2.1809-2.071-3.6759v-7.114c0-.7452.1782-1.4584.5074-2.0893L4.0173 5.0688c-1.2801.7727-2.0756 2.1808-2.0756 3.6758v6.4694c0 .7269.192 1.4356.5303 2.0573.3155.5121.7635.9419 1.3167 1.2528 1.1567.6492 2.5192.6217 3.6484-.0686l3.6667-2.2403-1.3304-.8046ZM20.1563 12.96l-3.8587-2.3088v1.0469c0 1.4859-.7864 2.8941-2.0528 3.6667l-6.3276 3.8725c-.695.4252-1.4585.6492-2.2266.6675l4.0828 2.4734A4.2912 4.2912 0 0 0 12 23a4.2913 4.2913 0 0 0 2.2266-.6218l5.7606-3.4884a3.084 3.084 0 0 0 .3567-.2469c.0365-.0228.0731-.0503.1051-.0731.2972-.2423.5624-.5167.7818-.8184l.0275-.0411c.352-.5441.5486-1.1842.544-1.8563-.0046-1.1978-.6172-2.2814-1.6459-2.894Zm-.1737-7.8912L14.2265 1.585c-.192-.1189-.3932-.215-.5989-.2972a3.4446 3.4446 0 0 0-.6904-.2149c-.8412-.1737-1.7191-.0366-2.4963.407-1.143.6537-1.8242 1.8241-1.8242 3.1408v4.3891l1.2802-.7544a4.1188 4.1188 0 0 1 4.2016.0138l6.5287 3.9044c.5898.3566 1.0744.8275 1.4265 1.3807l.0045-4.8096c0-1.495-.7955-2.9032-2.0756-3.6759Z"/></svg>