<svg xmlns="http://www.w3.org/2000/svg" fill="none" viewBox="0 0 16 16" class="acv-icon"><path fill="currentColor" d="M2 5c0 .5523-.4477 1-1 1s-1-.4477-1-1V2C0 .8954.8954 0 2 0h12c1.1046 0 2 .8954 2 2v12c0 1.1046-.8954 2-2 2h-3c-.5523 0-1-.4477-1-1s.4477-1 1-1h3V3.4546L10.8045 6.65h1.631c.568 0 1.0285.4604 1.0285 1.0285 0 .568-.4605 1.0285-1.0285 1.0285h-4.114c-.5681 0-1.0286-.4605-1.0286-1.0285v-4.114c0-.5681.4605-1.0286 1.0285-1.0286S9.35 2.9965 9.35 3.5645v1.631L12.5456 2H2v3Z"/><path fill="currentColor" fill-rule="evenodd" d="M1 9c-.5523 0-1 .4477-1 1v5c0 .5523.4477 1 1 1h5c.5523 0 1-.4477 1-1v-5c0-.5523-.4477-1-1-1H1Zm1 2h3v3H2v-3Z" clip-rule="evenodd"/></svg>