<svg xmlns="http://www.w3.org/2000/svg" fill="none" viewBox="0 0 32 32" class="acv-icon"><circle cx="16" cy="6.5" r="4.5" fill="#6D81FF"/><circle cx="25.5" cy="7.5" r="3.5" fill="#485BD5"/><path fill="#485BD5" d="M31 14a1 1 0 0 0-1-1h-9a1 1 0 0 0-1 1v6.765C20 23.104 22.462 25 25.5 25s5.5-1.896 5.5-4.235V14Z"/><path fill="#6D81FF" d="M23.5 15a2 2 0 0 0-2-2h-11a2 2 0 0 0-2 2v9c0 3.314 3.358 6 7.5 6 4.142 0 7.5-2.686 7.5-6v-9Z"/><rect width="16" height="16" x="1" y="8" fill="#2D399A" rx="2"/><path stroke="#243143" stroke-opacity=".1" d="M16 2.5a4 4 0 0 1 .89 7.901l-.39.088V13.5H30a.5.5 0 0 1 .5.5v6.765c0 1.949-2.11 3.735-5 3.735-.675 0-1.317-.1-1.902-.281l-.559-.174-.084.58C22.57 27.289 19.684 29.5 16 29.5c-3.976 0-7-2.56-7-5.5v-.5H3A1.5 1.5 0 0 1 1.5 22V10A1.5 1.5 0 0 1 3 8.5h9.463l-.236-.667A4 4 0 0 1 16 2.5Zm9.5 2a3 3 0 1 1 0 6 3 3 0 0 1 0-6Z"/><path fill="#fff" d="M5 13.57V12h7v1.57H9.489V20H7.515v-6.43H5Z"/></svg>