<svg xmlns="http://www.w3.org/2000/svg" fill="none" viewBox="0 0 72 73" class="acv-icon"><path fill="url(#3651a)" d="M0 36.047C0 55.925 16.118 72.04 36 72.04s36-16.115 36-35.994C72 16.169 55.882.053 36 .053S0 16.168 0 36.047Z"/><path fill="#fff" d="M34.378 24.05 24 47.67h3.309l2.034-4.769h12.939l2.034 4.769h3.309L37.247 24.05h-2.869Zm1.369 4.032h.138l.156.432 2.942 6.878h-6.34l2.95-6.878.154-.432Zm-5.24 12.169.97-2.208h8.67l.97 2.208h-10.61Z"/><path fill="#408BEA" fill-rule="evenodd" d="M72 36.026C72 16.13 55.882 0 36 0S0 16.13 0 36.026c0 19.897 16.118 36.027 36 36.027s36-16.13 36-36.026ZM36 5.663c16.757 0 30.341 13.594 30.341 30.363 0 16.77-13.584 30.364-30.341 30.364S5.659 52.796 5.659 36.026C5.659 19.258 19.243 5.663 36 5.663Z" clip-rule="evenodd"/><defs><linearGradient id="3655a" x1="0" x2="86.7" y1="72.053" y2="40.864" gradientUnits="userSpaceOnUse"><stop stop-color="#011345"/><stop offset="1" stop-color="#3B65BF"/></linearGradient></defs></svg>