<svg xmlns="http://www.w3.org/2000/svg" fill="none" viewBox="0 0 32 32" class="acv-icon"><path fill="currentColor" d="M4 5h4v4H4V5ZM4 14h4v4H4v-4ZM4 23h4v4H4v-4ZM10 6h18v2H10V6ZM24.8285 21.4142c.3906.3905.3906 1.0237 0 1.4142-.3905.3905-1.0237.3905-1.4142 0L22 21.4141l-1.4142 1.4143c-.3906.3905-1.0237.3905-1.4142 0-.3906-.3905-.3906-1.0237 0-1.4142l1.4142-1.4143-1.4141-1.4141c-.3905-.3906-.3905-1.0237 0-1.4142.3905-.3906 1.0237-.3906 1.4142 0L22 18.5857l1.4142-1.4141c.3905-.3906 1.0237-.3906 1.4142 0 .3905.3905.3905 1.0236 0 1.4142l-1.4141 1.4141 1.4142 1.4143Z"/><path fill="currentColor" fill-rule="evenodd" d="M14.5815 17H10v-2h5.7546c1.4661-1.8289 3.719-3 6.2454-3 4.4183 0 8 3.5817 8 8s-3.5817 8-8 8c-2.0289 0-3.8814-.7553-5.2916-2H10v-2h5.0703C14.3896 22.8233 14 21.4571 14 20c0-1.0609.2065-2.0736.5815-3ZM22 26c3.3137 0 6-2.6863 6-6s-2.6863-6-6-6-6 2.6863-6 6 2.6863 6 6 6Z" clip-rule="evenodd"/></svg>