<svg xmlns="http://www.w3.org/2000/svg" fill="none" viewBox="0 0 32 32" class="acv-icon"><path fill="#7CB342" d="M10.2502 22.25c6.6274 0 12-5.3726 12-12 0-2.4-.7046-4.6354-1.9182-6.5107C25.3819 5.5235 29.0001 10.3392 29.0001 16c0 7.1797-5.8203 13-13 13-5.6609 0-10.4766-3.6182-12.2608-8.6682C5.6146 21.5454 7.85 22.25 10.2502 22.25Z"/><path fill="#29B6F6" fill-rule="evenodd" d="M16 24c4.4183 0 8-3.5817 8-8s-3.5817-8-8-8-8 3.5817-8 8 3.5817 8 8 8Zm0 5c7.1797 0 13-5.8203 13-13S23.1797 3 16 3 3 8.8203 3 16s5.8203 13 13 13Z" clip-rule="evenodd"/><path fill="#244B71" fill-rule="evenodd" d="M23.1877 7.9495c1.1324-.7899 2.6908-.5122 3.4807.6203C28.1379 10.6764 29 13.2413 29 16c0 7.1797-5.8203 13-13 13-2.7587 0-5.3236-.8621-7.4303-2.3316-1.1324-.7899-1.41-2.3482-.6202-3.4807.79-1.1324 2.3483-1.4101 3.4807-.6202C12.725 23.4707 14.2969 24 16 24c4.4183 0 8-3.5817 8-8 0-1.703-.5294-3.2749-1.4325-4.5698-.7899-1.1324-.5122-2.6908.6202-3.4807Z" clip-rule="evenodd"/><path fill="#243143" fill-opacity=".1" fill-rule="evenodd" d="M16 28c6.6274 0 12-5.3726 12-12S22.6274 4 16 4 4 9.3726 4 16s5.3726 12 12 12Zm0 1c7.1797 0 13-5.8203 13-13S23.1797 3 16 3 3 8.8203 3 16s5.8203 13 13 13Z" clip-rule="evenodd"/></svg>