<svg xmlns="http://www.w3.org/2000/svg" fill="none" viewBox="0 0 32 32" class="acv-icon"><path fill="#41A5EE" d="M9 4a1 1 0 0 1 1-1h20a1 1 0 0 1 1 1v5.5H9V4Z"/><path fill="#2B7CD3" d="M9 9.5h22V16H9V9.5Z"/><path fill="#185ABD" d="M9 16h22v6.5H9V16Z"/><path fill="#103F91" d="M9 22.5h22V28a1 1 0 0 1-1 1H10a1 1 0 0 1-1-1v-5.5Z"/><rect width="16" height="16" x="1" y="8" fill="#1C60C0" rx="2"/><path stroke="#243143" stroke-opacity=".1" d="M9 8.5h.5V4a.5.5 0 0 1 .5-.5h20a.5.5 0 0 1 .5.5v24a.5.5 0 0 1-.5.5H10a.5.5 0 0 1-.5-.5v-4.5H3A1.5 1.5 0 0 1 1.5 22V10A1.5 1.5 0 0 1 3 8.5h6Z"/><path fill="#fff" d="M5.762 20 3.5 12h2.076l1.173 5.242h.065L8.154 12h1.692l1.34 5.254h.065L12.428 12H14.5l-2.258 8H10.43l-1.4-4.852H8.97L7.569 20H5.762Z"/></svg>