<svg xmlns="http://www.w3.org/2000/svg" fill="none" viewBox="0 0 16 16" class="acv-icon"><path fill="#408BEA" d="M8.86.38a1.164 1.164 0 0 0-1.72 0l-.204.223c-.306.336-.78.463-1.213.325L5.435.837a1.164 1.164 0 0 0-1.49.86l-.065.295a1.164 1.164 0 0 1-.888.888l-.295.065a1.164 1.164 0 0 0-.86 1.49l.091.288c.138.433.011.907-.325 1.213l-.223.204a1.164 1.164 0 0 0 0 1.72l.223.204c.336.306.463.78.325 1.213l-.091.288c-.208.653.19 1.344.86 1.49l.295.065c.444.097.791.444.888.888l.065.295c.114.52.557.877 1.055.913v2.269c0 .346.326.594.647.492l2.206-.7a.487.487 0 0 1 .294 0l2.206.7a.503.503 0 0 0 .647-.492v-2.27a1.164 1.164 0 0 0 1.055-.912l.065-.295c.097-.444.444-.791.888-.888l.295-.065a1.164 1.164 0 0 0 .86-1.49l-.091-.288a1.164 1.164 0 0 1 .325-1.213l.223-.204a1.164 1.164 0 0 0 0-1.72l-.223-.204a1.164 1.164 0 0 1-.325-1.213l.091-.288a1.164 1.164 0 0 0-.86-1.49l-.295-.065a1.164 1.164 0 0 1-.888-.888l-.065-.295a1.164 1.164 0 0 0-1.49-.86l-.288.091A1.164 1.164 0 0 1 9.064.603L8.86.38Z"/><path stroke="#243143" stroke-linecap="square" stroke-opacity=".1" d="m5.5 12.75-.465-.033a.664.664 0 0 1-.601-.52l-.065-.296a1.665 1.665 0 0 0-1.27-1.27l-.295-.065a.663.663 0 0 1-.49-.85l.091-.287a1.664 1.664 0 0 0-.465-1.735l-.223-.204a.663.663 0 0 1 0-.98l.223-.204c.48-.438.662-1.116.465-1.735l-.092-.288a.663.663 0 0 1 .49-.85L3.1 3.37a1.665 1.665 0 0 0 1.27-1.27l.065-.295a.663.663 0 0 1 .85-.49l.287.091c.62.197 1.297.016 1.735-.465L7.51.717a.663.663 0 0 1 .98 0l.204.223c.438.48 1.116.662 1.735.465l.288-.092a.663.663 0 0 1 .85.49l.064.296a1.665 1.665 0 0 0 1.27 1.27l.295.065a.663.663 0 0 1 .49.85l-.091.287a1.664 1.664 0 0 0 .465 1.735l.223.204a.663.663 0 0 1 0 .98l-.223.204a1.664 1.664 0 0 0-.465 1.735l.091.288a.663.663 0 0 1-.49.85l-.295.064a1.665 1.665 0 0 0-1.27 1.27l-.065.295a.664.664 0 0 1-.601.52l-.465.034v2.734a.038.038 0 0 1-.002.012l-.002.001-2.198-.696a.985.985 0 0 0-.448-.034l-.148.034-2.2.696h0l-.001-.004a.04.04 0 0 1-.001-.009V12.75Z"/><circle cx="8" cy="7" r="3" fill="#fff"/></svg>