<svg xmlns="http://www.w3.org/2000/svg" fill="none" viewBox="0 0 32 32" class="acv-icon"><path fill="currentColor" d="M15 3c-1.1046 0-2 .8954-2 2v1h11c1.1046 0 2 .8954 2 2v11h1c1.1046 0 2-.8954 2-2V5c0-1.1046-.8954-2-2-2H15Z"/><path fill="currentColor" d="M10 8c-1.1046 0-2 .8954-2 2v1h11c1.1046 0 2 .8954 2 2v11h1c1.1046 0 2-.8954 2-2V10c0-1.1046-.8954-2-2-2H10Z"/><path fill="currentColor" d="M5 13c-1.1046 0-2 .8954-2 2v12c0 1.1046.8954 2 2 2h12c1.1046 0 2-.8954 2-2V15c0-1.1046-.8954-2-2-2H5Z"/></svg>