<svg xmlns="http://www.w3.org/2000/svg" fill="none" viewBox="0 0 24 24" class="acv-icon"><path fill="currentColor" d="M14 21.4a.4.4 0 0 0-.4-.4h-3.2a.4.4 0 0 0-.4.4c0 .8837.7163 1.6 1.6 1.6h.8c.8837 0 1.6-.7163 1.6-1.6Z"/><path fill="currentColor" fill-rule="evenodd" d="M13.8354 2.2042c3.6382.8236 6.3646 4.0427 6.3646 7.9069v2.5618c0 .2236.1281.4355.3428.5416.8884.4387 1.4572 1.3404 1.4572 2.3349v1.6728C22 18.768 20.7346 20 19.2 20H4.8C3.2654 20 2 18.768 2 17.2222v-1.6728c0-.9945.5688-1.8962 1.4572-2.3349.2147-.1061.3428-.318.3428-.5416v-2.5618c0-3.8643 2.7264-7.0834 6.3646-7.9069C10.4722 1.4956 11.1782 1 12 1c.8218 0 1.5278.4956 1.8354 1.2042ZM5.8 10.1111C5.8 6.7477 8.564 4 12 4c3.4359 0 6.2 2.7477 6.2 6.1111v2.5618c0 .9944.5688 1.8961 1.4572 2.3348.2148.1061.3428.318.3428.5417v1.6728c0 .4179-.3464.7778-.8.7778H4.8c-.4536 0-.8-.3599-.8-.7778v-1.6728c0-.2237.128-.4356.3428-.5417C5.2312 14.569 5.8 13.6673 5.8 12.6729v-2.5618Z" clip-rule="evenodd"/></svg>