<svg xmlns="http://www.w3.org/2000/svg" fill="none" viewBox="0 0 32 32" class="acv-icon"><path fill="currentColor" d="M8 11c0-.5523.4477-1 1-1h12c.5523 0 1 .4477 1 1s-.4477 1-1 1H9c-.5523 0-1-.4477-1-1ZM9 16c-.5523 0-1 .4477-1 1s.4477 1 1 1h8c.5523 0 1-.4477 1-1s-.4477-1-1-1H9Z"/><path fill="currentColor" fill-rule="evenodd" d="M27 25.0488h-9.8855l-5.7961 4.9811c-.6484.5572-1.6517.0965-1.6517-.7585v-4.2226H5c-1.1046 0-2-.8954-2-2V5c0-1.1046.8954-2 2-2h22c1.1046 0 2 .8954 2 2v18.0488c0 1.1046-.8954 2-2 2Zm-10.6268-2H27V5H5v18.0488h6.6667v4.0447l4.7065-4.0447Z" clip-rule="evenodd"/></svg>