<svg xmlns="http://www.w3.org/2000/svg" fill="none" viewBox="0 0 16 16" class="acv-icon"><path fill="currentColor" fill-rule="evenodd" d="M8.394.0809a1 1 0 0 0-.788 0l-7 3A1 1 0 0 0 0 4v8c0 .4.2384.7616.606.9191l7 3a.9992.9992 0 0 0 .788 0l.5212-.2233-.7562-1.525c-.4169-.8406.0286-1.8063.841-2.0891V7.6594l5-2.1429V11h.0248v1h.9917c.3454 0 .6701.089.9529.2455A.9965.9965 0 0 0 16 12V4a1 1 0 0 0-.6061-.9192l-7-3ZM2 11.3406v-5.824l5 2.1428v5.8241l-5-2.1429ZM8 5.912 3.5386 4 8 2.088 12.4614 4 8 5.912Z" clip-rule="evenodd"/><path fill="currentColor" d="M9.9644 13.3144a.5.5 0 1 0-.9285.3714l1 1.9999a.5.5 0 0 0 .9284 0l.8501-1.6251a.0963.0963 0 0 1 .1857.0357V15.5a.5.5 0 1 0 1 0v-1.1249c0-.2071.0429-.375.25-.375s.25.1679.25.375V15.5a.4999.4999 0 1 0 .9999 0v-1.1249c0-.2071.0429-.375.25-.375s.25.1679.25.375V15.5a.5.5 0 1 0 1 0v-1.1249c0-.7593-.4906-1.3749-1.25-1.3749-.3324 0-.5122.1179-.75.3143-.2377-.1964-.4175-.3143-.7499-.3143-.2905 0-.4349.09-.6569.2438a1.0917 1.0917 0 0 0-.6894-.2439c-.4483 0-.8514.2729-1.0179.6891l-.3858.9645-.5357-1.3393Z"/></svg>