<svg xmlns="http://www.w3.org/2000/svg" fill="none" viewBox="0 0 24 24" class="acv-icon"><path fill="currentColor" fill-rule="evenodd" d="M22.25 12c0 5.6609-4.5891 10.25-10.25 10.25-5.661 0-10.25-4.5891-10.25-10.25C1.75 6.339 6.339 1.75 12 1.75c5.6609 0 10.25 4.589 10.25 10.25ZM9.5 9.5064c0 .5517-.4477.9989-1 .9989s-1-.4472-1-.9989c0-5.724 9-5.9095 9-.4185 0 1.5604-.92 2.9744-2.3475 3.6082-.1174.0521-.2602.1034-.4129.1582-.6766.2429-1.5493.5563-1.2909 1.3307.1746.5233-.1085 1.089-.6325 1.2635-.5239.1744-1.0902-.1084-1.2649-.6318-.7476-2.2403 1.1075-3.1997 2.7889-3.9462A1.9506 1.9506 0 0 0 14.5 9.0879c0-2.9397-5-2.7377-5 .4185ZM12.5 18c0 .5523-.4477 1-1 1s-1-.4477-1-1 .4477-1 1-1 1 .4477 1 1Z" clip-rule="evenodd"/></svg>