<svg xmlns="http://www.w3.org/2000/svg" fill="none" viewBox="0 0 17 16" class="acv-icon"><path fill="currentColor" fill-rule="evenodd" d="M11.5323.2972c-.3906-.3906-1.0237-.3906-1.4142 0L1.2437 9.1715a1 1 0 0 0-.2672.4822L.0256 13.774a1 1 0 0 0 1.1993 1.1993l4.1202-.9508a1.0007 1.0007 0 0 0 .4822-.2673l8.8744-8.8743c.3905-.3906.3905-1.0237 0-1.4142L11.5323.2972ZM9.7039 3.5398l1.1213-1.1213 1.7552 1.7552L11.459 5.295 9.7039 3.5398ZM8.2896 4.954l-5.4289 5.4289-.5265 2.2817 2.2817-.5265 5.4289-5.429L8.2896 4.954Z" clip-rule="evenodd"/><path fill="currentColor" d="M8.0014 15c0-.5523.5116-1 1.1428-1h5.7143c.6312 0 1.1429.4477 1.1429 1s-.5117 1-1.1429 1H9.1442c-.6312 0-1.1428-.4477-1.1428-1Z"/></svg>