<svg xmlns="http://www.w3.org/2000/svg" fill="none" viewBox="0 0 32 32" class="acv-icon"><path fill="currentColor" d="M7.751 4.322C6.48 4.97 6.48 5.07 7.67 6.401c6.594 7.341 8.171 9.077 8.29 9.077.164.019 9.3-9.966 9.4-10.267.042-.082-.24-.364-.606-.624-.483-.365-1.007-.506-1.995-.547-1.855-.118-2.502.282-4.804 2.866-1.048 1.167-1.937 2.138-1.937 2.138-.018 0-.884-.948-1.915-2.097-1.03-1.148-2.218-2.3-2.62-2.524-.93-.524-2.825-.565-3.737-.1h.006ZM3.513 7.29C2.524 7.673 2 8.037 2 8.315c0 .14 1.554 1.96 3.432 4.038 1.896 2.078 3.427 3.814 3.427 3.85 0 .042-1.554 1.778-3.432 3.856-1.896 2.096-3.409 3.933-3.386 4.092.1.547 1.754 1.235 2.962 1.235 1.96-.023 2.402-.365 6.54-4.904 2.077-2.278 3.768-4.215 3.768-4.28 0-.077-1.672-1.972-3.727-4.233C8.899 9.043 7.587 7.73 6.963 7.448c-.948-.465-2.479-.542-3.45-.159Zm21.546.14c-.588.301-2.06 1.755-4.602 4.54-2.056 2.26-3.733 4.156-3.733 4.234 0 .082 1.696 2 3.774 4.28 4.133 4.538 4.58 4.88 6.535 4.902 1.212 0 2.866-.687 2.967-1.234.018-.182-1.495-1.996-3.39-4.074-1.874-2.074-3.428-3.832-3.428-3.873 0-.037 1.554-1.796 3.427-3.874C28.505 10.257 30.02 8.44 30 8.28c-.1-.524-1.594-1.13-2.884-1.212-.93-.041-1.413.041-2.055.365l-.001-.003Zm-13.78 14.565C8.776 24.761 6.72 27.1 6.68 27.2c-.04.083.242.365.607.625.483.365 1.007.506 1.995.547 1.837.118 2.52-.305 4.84-2.926 1.011-1.13 1.877-2.078 1.896-2.078.023 0 .889.948 1.919 2.096 2.36 2.625 2.984 3.009 4.82 2.908.99-.041 1.513-.182 1.996-.547.365-.26.648-.542.607-.625-.1-.3-9.242-10.29-9.402-10.267-.082 0-2.178 2.279-4.68 5.063Z"/></svg>
