<svg xmlns="http://www.w3.org/2000/svg" fill="none" viewBox="0 0 24 24" class="acv-icon"><path fill="currentColor" d="M9.8787 15.5355c-.3906.3906-1.0237.3906-1.4142 0-.3906-.3905-.3906-1.0237 0-1.4142L10.5858 12 8.4645 9.8787c-.3905-.3906-.3905-1.0237 0-1.4142.3905-.3906 1.0237-.3906 1.4142 0L12 10.5858l2.1213-2.1213c.3905-.3906 1.0237-.3906 1.4142 0 .3906.3905.3906 1.0236 0 1.4142L13.4142 12l2.1213 2.1213c.3906.3905.3906 1.0237 0 1.4142-.3905.3906-1.0237.3906-1.4142 0L12 13.4142l-2.1213 2.1213Z"/><path fill="currentColor" fill-rule="evenodd" d="M21 4.8107a1 1 0 0 0-.7794-.9765l-8-2.8096a.9998.9998 0 0 0-.4412 0l-8 2.8096A1 1 0 0 0 3 4.8095v10.0476c.1226 2.4454 1.7323 4.4743 4.2494 6.1111C8.969 22.0864 11.1964 23 12 23c.8038 0 3.0311-.9138 4.7495-2.032 2.516-1.6372 4.1228-3.6669 4.2384-6.0627L21 4.8107Zm-16.0001.798L12 3.0252l6.999 2.583-.0099 9.2476c-.0769 1.5706-1.2983 3.1134-3.3304 4.4358C14.2364 20.2172 12.3284 21 12 21c-.3283 0-2.2367-.7828-3.6603-1.7085-2.0342-1.3227-3.259-2.8665-3.341-4.485L5 5.6086Z" clip-rule="evenodd"/></svg>