<svg xmlns="http://www.w3.org/2000/svg" fill="none" viewBox="0 0 96 96" class="acv-icon"><path fill="#fff" d="M40 24c0-1.6569 1.3431-3 3-3h35c1.6569 0 3 1.3431 3 3s-1.3431 3-3 3H43c-1.6569 0-3-1.3431-3-3Z" opacity=".2"/><path fill="#363D48" d="M43 21c-1.6569 0-3 1.3431-3 3 0 .1704.0142.3374.0415.5.238-1.4189 1.472-2.5 2.9585-2.5h35c1.4865 0 2.7205 1.0812 2.9585 2.5A3.0177 3.0177 0 0 0 81 24c0-1.6569-1.3431-3-3-3H43Z" opacity=".8"/><path fill="url(#WebsiteEnabledIll96:a)" d="M15 31h66v43c0 .5523-.4477 1-1 1H16c-.5523 0-1-.4477-1-1V31Z"/><g fill="#fff" opacity=".4"><path d="M32 34H18v38h14V34ZM78 34H35v19h43V34ZM35 56h20v16H35V56ZM78 56H58v16h20V56Z"/></g><path fill="#303640" d="M21 24c0 1.6569-1.3431 3-3 3s-3-1.3431-3-3 1.3431-3 3-3 3 1.3431 3 3ZM29 24c0 1.6569-1.3431 3-3 3s-3-1.3431-3-3 1.3431-3 3-3 3 1.3431 3 3ZM34 27c1.6569 0 3-1.3431 3-3s-1.3431-3-3-3-3 1.3431-3 3 1.3431 3 3 3Z"/><g opacity=".2"><path fill="url(#WebsiteEnabledIll96:b)" d="M21 24.2093C21 25.7505 19.6569 27 18 27s-3-1.2495-3-2.7907c0-1.5413 1.3431-2.7907 3-2.7907s3 1.2494 3 2.7907Z"/><path fill="url(#WebsiteEnabledIll96:c)" d="M29 24.2093C29 25.7505 27.6569 27 26 27s-3-1.2495-3-2.7907c0-1.5413 1.3431-2.7907 3-2.7907s3 1.2494 3 2.7907Z"/><path fill="url(#WebsiteEnabledIll96:d)" d="M34 27c1.6569 0 3-1.2495 3-2.7907 0-1.5413-1.3431-2.7907-3-2.7907s-3 1.2494-3 2.7907C31 25.7505 32.3431 27 34 27Z"/></g><circle cx="18" cy="24" r="1.5" fill="#EA3939"/><circle cx="26" cy="24" r="1.5" fill="#FFC107"/><circle cx="34" cy="24" r="1.5" fill="#82E03D"/><path fill="#434C59" d="M12 21c0-1.6569 1.3431-3 3-3h66c1.6569 0 3 1.3431 3 3v54c0 1.6569-1.3431 3-3 3H15c-1.6569 0-3-1.3431-3-3V21Z"/><path fill="url(#WebsiteEnabledIll96:e)" d="M12 21c0-1.6569 1.3431-3 3-3h66c1.6569 0 3 1.3431 3 3v54c0 1.6569-1.3431 3-3 3H15c-1.6569 0-3-1.3431-3-3V21Z" opacity=".05"/><path fill="url(#WebsiteEnabledIll96:f)" fill-rule="evenodd" d="M81 19H15c-1.1046 0-2 .8954-2 2v54c0 1.1046.8954 2 2 2h66c1.1046 0 2-.8954 2-2V21c0-1.1046-.8954-2-2-2Zm-66-1c-1.6569 0-3 1.3431-3 3v54c0 1.6569 1.3431 3 3 3h66c1.6569 0 3-1.3431 3-3V21c0-1.6569-1.3431-3-3-3H15Z" clip-rule="evenodd" opacity=".3"/><defs><linearGradient id="WebsiteEnabledIll96:a" x1="48" x2="48" y1="30" y2="74" gradientUnits="userSpaceOnUse"><stop stop-color="#40A9FF"/><stop offset="1" stop-color="#A6D7FF"/></linearGradient><linearGradient id="WebsiteEnabledIll96:b" x1="34" x2="34" y1="21.4186" y2="27" gradientUnits="userSpaceOnUse"><stop stop-color="#204880"/><stop offset="1" stop-color="#fff"/></linearGradient><linearGradient id="WebsiteEnabledIll96:c" x1="34" x2="34" y1="21.4186" y2="27" gradientUnits="userSpaceOnUse"><stop stop-color="#204880"/><stop offset="1" stop-color="#fff"/></linearGradient><linearGradient id="WebsiteEnabledIll96:d" x1="34" x2="34" y1="21.4186" y2="27" gradientUnits="userSpaceOnUse"><stop stop-color="#204880"/><stop offset="1" stop-color="#fff"/></linearGradient><linearGradient id="WebsiteEnabledIll96:e" x1="48" x2="48" y1="18" y2="78" gradientUnits="userSpaceOnUse"><stop stop-color="#fff"/><stop offset="1" stop-color="#fff" stop-opacity="0"/></linearGradient><linearGradient id="WebsiteEnabledIll96:f" x1="48" x2="48" y1="39" y2="78" gradientUnits="userSpaceOnUse"><stop stop-color="#fff" stop-opacity="0"/><stop offset="1" stop-color="#fff"/></linearGradient></defs></svg>