<svg xmlns="http://www.w3.org/2000/svg" fill="none" viewBox="0 0 16 16" class="acv-icon"><path fill="currentColor" fill-rule="evenodd" d="M6.5983 1.0047c.4238.0404.7747.3356.874.7355l2.2843 9.1893L11.0769 7.87c.1553-.3598.5194-.5941.9231-.5941h3c.5523 0 1 .4322 1 .9655 0 .5332-.4477.9655-1 .9655h-2.3333l-2.2436 5.1989c-.1665.3858-.5712.6244-1.0026.5911-.4315-.0332-.7919-.3307-.8929-.7371L6.2002 4.8967 4.408 8.646c-.1635.342-.518.5609-.908.5609H1c-.5523 0-1-.4323-1-.9655 0-.5333.4477-.9655 1-.9655h1.8602l2.7318-5.715c.1785-.3734.5824-.5966 1.0063-.5562Z" clip-rule="evenodd"/></svg>