<svg xmlns="http://www.w3.org/2000/svg" fill="none" viewBox="0 0 16 16" class="acv-icon"><path fill="currentColor" fill-rule="evenodd" d="M2 0c-.5523 0-1 .4477-1 1v14c0 .5523.4477 1 1 1h12c.5523 0 1-.4477 1-1V1c0-.5523-.4477-1-1-1H2Zm5.4848 7.8857L6.4267 12H4.536L2.5326 4.1475h1.6382l1.0044 4.286c.1754.7914.3026 1.4771.3813 2.0572.0215-.2041.0708-.52.1478-.948.077-.4279.1494-.76.2175-.9963l1.144-4.399h1.5737l1.144 4.399c.0502.197.1129.4977.188.9023.0753.4047.1326.752.172 1.042.0358-.2793.0931-.6275.1718-1.0447.0788-.4171.1504-.7546.2149-1.0124l.999-4.2861h1.6382L11.1693 12h-1.896L8.21 7.875c-.0345-.1285-.0902-.3769-.1672-.7452l-.0343-.1652c-.0948-.4601-.1494-.769-.1638-.9265-.0215.1933-.0752.504-.1611.9319-.086.4279-.1522.7331-.1987.9157Z" clip-rule="evenodd"/></svg>