<svg xmlns="http://www.w3.org/2000/svg" fill="none" viewBox="0 0 24 24" class="acv-icon"><path fill="currentColor" d="M6.5215 13.3824c0 1.7358-1.4282 2.7505-3.2607 2.7505-.9837 0-2.156-.3872-2.7892-.9747C.1752 14.8778 0 14.5707 0 14.2236c.0135-.6142.512-1.0148 1.0375-1.0148.1752 0 .3638.0534.5255.1603.034.0224.0784.0586.1331.1031.27.2199.7915.6446 1.5647.6446.6198 0 .9162-.2137.9162-.6409 0-.4139-.283-.5475-.9028-.8145l-.9162-.4006C.9432 11.6466.1078 10.8455.1078 9.6038.1078 8.0282 1.4552 7 3.2203 7c1.563-.0133 2.3176.7611 2.5332 1.0148.2021.227.2695.4673.2695.681 0 .5874-.5255 1.028-1.0375 1.028-.1887 0-.3908-.0534-.5929-.2002a3.5893 3.5893 0 0 1-.1725-.127c-.2372-.1819-.4961-.3804-.9728-.3804-.4581 0-.795.1602-.795.5608 0 .3338.2156.494.768.721l1.024.4273c1.4823.6141 2.2772 1.3619 2.2772 2.657Z"/><path fill="currentColor" fill-rule="evenodd" d="M16.7645 11.5665c0 1.2746-.531 2.4205-1.3943 3.2408l.4008.5957c.3175.472.1888 1.1097-.2875 1.4243-.4763.3147-1.1198.1871-1.4373-.2849l-.472-.7015c-.0779.0423-.176.0829-.2995.1185-.4177.1201-.8624.1735-1.3205.1735-2.6948 0-4.7833-2.0028-4.7833-4.5664 0-2.5635 2.102-4.5663 4.7833-4.5663 2.6949 0 4.8103 2.0161 4.8103 4.5663Zm-3.0665.7553.3688.5481c.2102-.3691.3263-.8114.3263-1.3034 0-1.442-1.0106-2.4567-2.4389-2.4567-1.4282 0-2.4119 1.0014-2.4119 2.4567 0 1.4554.9702 2.4568 2.4119 2.4568.1307 0 .2577-.0083.3807-.0245l-.3617-.5376c-.3175-.472-.1888-1.1096.2875-1.4243.4763-.3146 1.1198-.1871 1.4373.2849Z" clip-rule="evenodd"/><path fill="currentColor" d="M19.0414 15.9727h3.9076c.6063 0 1.051-.4272 1.051-1.0281 0-.6008-.4447-1.0414-1.051-1.0414h-2.7623V8.1618c0-.6676-.485-1.1616-1.1587-1.1616-.6738 0-1.1588.5607-1.1588 1.1616v6.6493c0 .6676.4985 1.1616 1.1722 1.1616Z"/></svg>