<svg xmlns="http://www.w3.org/2000/svg" fill="none" viewBox="0 0 16 16" class="acv-icon"><path fill="currentColor" fill-rule="evenodd" d="M16 8c0 4.4183-3.5817 8-8 8s-8-3.5817-8-8 3.5817-8 8-8 8 3.5817 8 8Zm-2 0c0 3.3137-2.6863 6-6 6s-6-2.6863-6-6 2.6863-6 6-6 6 2.6863 6 6Z" clip-rule="evenodd"/><path fill="currentColor" d="M6.4958 8.5H7v2.4988c0 .2768.222.5012.4957.5012a.4941.4941 0 0 0 .4104-.2201l2.0085-2.9977c.1536-.2291.0943-.5407-.1324-.696a.492.492 0 0 0-.278-.0862H9V5.0012C9 4.7244 8.778 4.5 8.5043 4.5a.4943.4943 0 0 0-.4104.22L6.0854 7.7179c-.1536.2291-.0943.5407.1323.696a.492.492 0 0 0 .278.0862Z"/></svg>