<svg xmlns="http://www.w3.org/2000/svg" fill="none" viewBox="0 0 32 32" class="acv-icon"><path fill="currentColor" fill-rule="evenodd" d="M3 6c0-1.1046.8954-2 2-2h22c1.1046 0 2 .8954 2 2v16H3V6Zm8 2h4.2857v4.2857H11V8Zm0 5.7143h4.2857V18H11v-4.2857ZM16.7143 8H21v4.2857h-4.2857V8Zm0 5.7143H21V18h-4.2857v-4.2857Z" clip-rule="evenodd"/><path fill="currentColor" d="M11 24H0v2.5c0 .8284.6716 1.5 1.5 1.5h29c.8284 0 1.5-.6716 1.5-1.5V24H21c0 .8284-.6716 1.5-1.5 1.5h-7c-.8284 0-1.5-.6716-1.5-1.5Z"/></svg>