<svg xmlns="http://www.w3.org/2000/svg" fill="none" viewBox="0 0 32 32" class="acv-icon"><path fill="currentColor" fill-rule="evenodd" d="m28.4247 19.6652-3.6561-14.46C24.4305 3.9584 23.1843 3 21.904 3H10.096c-1.2786 0-2.5265.9588-2.8646 2.2051L3.5728 19.6754A4.9827 4.9827 0 0 0 3 22.0022v1.9956C3 26.771 5.2375 29 7.9977 29h16.0046C26.7608 29 29 26.7604 29 23.9978v-1.9956c0-.8455-.208-1.6404-.5753-2.337ZM6.2385 17.3189A4.9813 4.9813 0 0 1 7.9977 17h16.0046c.619 0 1.2117.1121 1.7587.3173L22.8343 5.742c-.0988-.3643-.5522-.713-.9303-.713H10.096c-.3768 0-.8317.3494-.9303.713L6.2385 17.3189ZM5 22.0022v1.9956C5 25.6625 6.3382 27 7.9977 27h16.0046C25.6565 27 27 25.6556 27 23.9978v-1.9956C27 20.3375 25.6618 19 24.0023 19H7.9977C6.3435 19 5 20.3444 5 22.0022ZM9 22c-.5523 0-1 .4477-1 1s.4477 1 1 1h7c.5523 0 1-.4477 1-1s-.4477-1-1-1H9Zm15 1c0 .5523-.4477 1-1 1s-1-.4477-1-1 .4477-1 1-1 1 .4477 1 1Z" clip-rule="evenodd"/></svg>