<svg xmlns="http://www.w3.org/2000/svg" fill="none" viewBox="0 0 32 32" class="acv-icon"><path fill="currentColor" d="M12 19c0 1.6569 1.3431 3 3 3h2c1.6569 0 3-1.3431 3-3h-2c0 .5523-.4477 1-1 1h-2c-.5523 0-1-.4477-1-1h-2Z"/><path fill="currentColor" fill-rule="evenodd" d="M7 5v4H6c-.5523 0-1 .4477-1 1v4H4c-.5523 0-1 .4477-1 1v12c0 .5523.4477 1 1 1h24c.5523 0 1-.4477 1-1V15c0-.5523-.4477-1-1-1h-1v-4c0-.5523-.4477-1-1-1h-1V5c0-.5523-.4477-1-1-1H8c-.5523 0-1 .4477-1 1Zm2 1v3h14V6H9Zm16 5v3H7v-3h18ZM5 16v10h22V16H5Z" clip-rule="evenodd"/></svg>