<svg xmlns="http://www.w3.org/2000/svg" fill="none" viewBox="0 0 16 16" class="acv-icon"><path fill="currentColor" d="M6.3417 4.1098c-.1887-.094-.4573-.1588-.7387-.0615-.5086.176-1.1243.6434-1.453 1.5323-.3717 1.005.0014 2.0484.5295 2.802.9971 1.4227 2.1733 2.4334 3.0815 3.0467.6818.4604 1.5892.7392 2.4756.4577.9586-.3045 1.4469-.9356 1.6758-1.4217.1402-.2977.0969-.6129-.0227-.8508a3.2296 3.2296 0 0 0-1.4477-1.4412l-.0216-.0108a.791.791 0 0 0-.9099.147l-.4087.4069a.5096.5096 0 0 1-.7184 0L7.2803 7.6183a.504.504 0 0 1 0-.7152l.4087-.4069a.782.782 0 0 0 .1477-.9056A3.3023 3.3023 0 0 0 6.3565 4.117l-.0148-.0073Z"/><path fill="currentColor" fill-rule="evenodd" d="M3 0C1.3432 0 0 1.3432 0 3v10c0 1.6569 1.3432 3 3 3h10c1.6569 0 3-1.3431 3-3V3c0-1.6568-1.3431-3-3-3H3ZM2 3c0-.5523.4477-1 1-1h10c.5523 0 1 .4477 1 1v10c0 .5523-.4477 1-1 1H3c-.5523 0-1-.4477-1-1V3Z" clip-rule="evenodd"/></svg>