<svg xmlns="http://www.w3.org/2000/svg" fill="none" viewBox="0 0 16 16" class="acv-icon"><path fill="currentColor" fill-rule="evenodd" d="M9.25 2.64a.8.8 0 0 1 1.312-.614l2.232 1.86a.8.8 0 0 1 0 1.228l-2.232 1.86a.8.8 0 0 1-1.312-.615V5.25h-6C2.56 5.25 2 5.81 2 6.5V8A.75.75 0 0 1 .5 8V6.5a2.75 2.75 0 0 1 2.75-2.75h6V2.64ZM14 10c0 .69-.56 1.25-1.25 1.25h-6v-1.11a.8.8 0 0 0-1.312-.614l-2.232 1.86a.8.8 0 0 0 0 1.229l2.232 1.86a.8.8 0 0 0 1.312-.615v-1.11h6A2.75 2.75 0 0 0 15.5 10V8.5a.75.75 0 0 0-1.5 0V10Z" clip-rule="evenodd"/></svg>