<svg xmlns="http://www.w3.org/2000/svg" fill="none" viewBox="0 0 16 16" class="acv-icon"><g fill="currentColor" clip-path="url(#MdrStd16:a)"><path d="M7 3c.5523 0 1 .4477 1 1v2.917c0 .3182-.1265.6236-.3516.8486L5.707 9.707c-.3905.3906-1.0235.3906-1.414 0-.3906-.3905-.3906-1.0235 0-1.414L6 6.586V4c0-.5523.4477-1 1-1Z"/><path fill-rule="evenodd" d="M7 0c3.866 0 7 3.134 7 7 0 1.5723-.5183 3.0238-1.3936 4.1924l3.1006 3.1006a.9996.9996 0 0 1 0 1.414.9996.9996 0 0 1-1.414 0l-3.1006-3.1006C10.0238 13.4817 8.5724 14 7 14c-3.866 0-7-3.134-7-7s3.134-7 7-7Zm0 2C4.2386 2 2 4.2386 2 7s2.2386 5 5 5 5-2.2386 5-5-2.2386-5-5-5Z" clip-rule="evenodd"/></g><defs><clipPath id="MdrStd16:a"><path fill="#fff" d="M0 0h16v16H0z"/></clipPath></defs></svg>