<svg xmlns="http://www.w3.org/2000/svg" fill="none" viewBox="0 0 24 24" class="acv-icon"><path fill="currentColor" d="M5 5c-.5523 0-1 .4477-1 1v6c0 .5523.4477 1 1 1s1-.4477 1-1V6c0-.5523-.4477-1-1-1ZM19 7c-.5523 0-1-.4477-1-1s.4477-1 1-1 1 .4477 1 1-.4477 1-1 1ZM7 6c0-.5523.4477-1 1-1s1 .4477 1 1v6c0 .5523-.4477 1-1 1s-1-.4477-1-1V6ZM11 5c-.5523 0-1 .4477-1 1v6c0 .5523.4477 1 1 1s1-.4477 1-1V6c0-.5523-.4477-1-1-1Z"/><path fill="currentColor" fill-rule="evenodd" d="M22 2H2c-.5523 0-1 .4477-1 1v12c0 .5523.4477 1 1 1h9v2.2676a2.0095 2.0095 0 0 0-.7324.7324H5c-.5523 0-1 .4477-1 1s.4477 1 1 1h5.2676c.3458.5978.9921 1 1.7324 1s1.3866-.4022 1.7324-1H19c.5523 0 1-.4477 1-1s-.4477-1-1-1h-5.2676A2.0095 2.0095 0 0 0 13 18.2676V16h9c.5523 0 1-.4477 1-1V3c0-.5523-.4477-1-1-1ZM3 4v10h18V4H3Z" clip-rule="evenodd"/></svg>