<svg xmlns="http://www.w3.org/2000/svg" fill="none" viewBox="0 0 32 32" class="acv-icon"><path fill="currentColor" d="M15 3c-1.1046 0-2 .8954-2 2v1h11c1.1046 0 2 .8954 2 2v10c.8533 0 1.6755.1336 2.4466.381A1.9928 1.9928 0 0 0 29 17V5c0-1.1046-.8954-2-2-2H15ZM19 22.124c-.6372 1.1482-1 2.4697-1 3.876 0 .8533.1336 1.6755.381 2.4466A1.9928 1.9928 0 0 1 17 29H5c-1.1046 0-2-.8954-2-2V15c0-1.1046.8954-2 2-2h12c1.1046 0 2 .8954 2 2v7.124Z"/><path fill="currentColor" d="M24 18.252a7.974 7.974 0 0 0-3 1.5026V13c0-1.1046-.8954-2-2-2H8v-1c0-1.1046.8954-2 2-2h12c1.1046 0 2 .8954 2 2v8.252Z"/></svg>