<svg xmlns="http://www.w3.org/2000/svg" fill="none" viewBox="0 0 32 32" class="acv-icon"><path fill="currentColor" fill-rule="evenodd" d="M26.8 5H5.2C3.985 5 3 5.985 3 7.2v17.6c0 1.215.985 2.2 2.2 2.2h21.6c1.215 0 2.2-.985 2.2-2.2V7.2c0-1.215-.985-2.2-2.2-2.2ZM5 7.2a.2.2 0 0 1 .2-.2h21.6a.2.2 0 0 1 .2.2V15h-5.7895c-.3322 0-.6427.165-.8287.4403l-2.6999 3.9974-1.8579-9.6271a1.0001 1.0001 0 0 0-1.8106-.3703L10.2582 15H5V7.2ZM5 17v7.8a.2.2 0 0 0 .2.2h21.6a.2.2 0 0 0 .2-.2V17h-5.2582l-3.7552 5.5598a1.0002 1.0002 0 0 1-1.8106-.3703l-1.8579-9.6271-2.6999 3.9974a1 1 0 0 1-.8287.4402H5Z" clip-rule="evenodd"/></svg>