<svg xmlns="http://www.w3.org/2000/svg" fill="none" viewBox="0 0 24 24" class="acv-icon"><path fill="currentColor" fill-rule="evenodd" d="m13.2913 11.2914.0022-.0023 2.9956-2.9955c.3914-.3914 1.026-.3914 1.4174 0 .3913.3913.3913 1.026 0 1.4173l-2.9956 2.9956-.0023.0022c.1868.3911.2914.829.2914 1.2913 0 1.6569-1.3431 3-3 3s-3-1.3431-3-3 1.3431-3 3-3c.4623 0 .9002.1046 1.2913.2914ZM12 15c.5523 0 1-.4477 1-1s-.4477-1-1-1-1 .4477-1 1 .4477 1 1 1Z" clip-rule="evenodd"/><path fill="currentColor" fill-rule="evenodd" d="M9.5804 21c-.3737.5153-.9537 1-1.5804 1H5.3333C2.9145 22 1 17.4146 1 12.6923 1 6.6503 5.7441 2 12 2s11 4.6503 11 10.6923C23 17.4146 21.0855 22 18.6667 22H16c-.6264 0-1.206-.4847-1.5798-1H9.5804ZM13 4.048c4.6485.452 8 4.04 8 8.6443 0 .1027-.0011.2053-.0034.3077H20c-.5523 0-1 .4477-1 1s.4477 1 1 1h.8201c-.4228 2.7694-1.4935 5-2.1534 5h-2.4536a1.763 1.763 0 0 1-.0861-.1008 3.5858 3.5858 0 0 1-.1036-.1403c-.0545-.0764-.0947-.1328-.079-.0876A.9999.9999 0 0 0 15 19H9a1 1 0 0 0-.9456.6748c.016-.0468-.0247.0104-.0796.0873a3.5139 3.5139 0 0 1-.1013.1375A1.7677 1.7677 0 0 1 7.7877 20H5.3333c-.66 0-1.7306-2.2306-2.1534-5H4c.5523 0 1-.4477 1-1s-.4477-1-1-1h-.9966A14.1345 14.1345 0 0 1 3 12.6923c0-1.8163.5215-3.4744 1.4384-4.8443l.86.86c.3893.3893 1.0204.3893 1.4097 0 .3892-.3892.3892-1.0203 0-1.4096l-.9668-.9667C7.1157 5.0731 8.9292 4.2494 11 4.0481V5c0 .5523.4477 1 1 1s1-.4477 1-1v-.952Z" clip-rule="evenodd"/></svg>