<svg xmlns="http://www.w3.org/2000/svg" fill="none" viewBox="0 0 16 16" class="acv-icon"><path fill="currentColor" fill-rule="evenodd" d="M8 0a8 8 0 1 1 0 16A8 8 0 0 1 8 0ZM4.515 10.727a.375.375 0 1 0 .53.53L6.373 9.93l-.531-.532-1.327 1.329Zm5.574-6.638A.751.751 0 0 0 9.027 5.15l.266.266-1.085 1.084a2.671 2.671 0 0 0-3.458.272.334.334 0 0 0 0 .472l3.776 3.776c.13.13.342.13.472 0a2.671 2.671 0 0 0 .273-3.458l1.083-1.084.266.265a.752.752 0 0 0 1.063-1.061l-1.594-1.594Z" clip-rule="evenodd"/></svg>