<svg xmlns="http://www.w3.org/2000/svg" fill="none" viewBox="0 0 24 24" class="acv-icon"><path fill="currentColor" d="M10.4102 2.967c0 .2729.2215.4928.494.506 5.2004.2497 9.3724 4.4217 9.6222 9.6221.0131.2726.2331.4941.5059.4941h1.4822c.2728 0 .495-.222.4845-.4946C22.7456 6.53 17.4693 1.2538 10.9048 1.0004c-.2727-.0106-.4946.2116-.4946.4845V2.967Z"/><path fill="currentColor" d="M10.4102 7.9076c0 .2728.2218.4916.4935.5172 2.4711.2332 4.4376 2.1998 4.6708 4.6709.0257.2716.2444.4935.5173.4935h1.4821c.2729 0 .4957-.2219.4784-.4942-.2443-3.8356-3.3124-6.9037-7.148-7.148-.2723-.0173-.4941.2056-.4941.4784v1.4822ZM3 15.8672c0 3.6421 2.1517 5.8672 5.5418 5.8672 2.1517 0 4.0724-1.0706 4.7441-2.603.1365-.3044.1995-.5563.1995-.7977 0-.7557-.5773-1.228-1.291-1.228-.6508 0-.9866.2624-1.396.9026C10.3261 18.806 9.5706 19 8.5 19c-1.5324 0-3-.9182-3-3.1328 0-2.1727 1.4884-3.1803 3.0418-3.1803.9761 0 1.7318.168 2.2881 1.1546.3149.5563.6822.7977 1.291.7977.7242 0 1.312-.4409 1.312-1.1966 0-.2204-.063-.4933-.1679-.7557C12.6562 11.0916 10.7774 10 8.5208 10 5.1412 10 3 12.2671 3 15.8672Z"/></svg>