<svg xmlns="http://www.w3.org/2000/svg" fill="none" viewBox="0 0 24 24" class="acv-icon"><path fill="currentColor" fill-rule="evenodd" d="M21.994 13.372c0-.707-.375-1.361-.984-1.72l-2.951-1.74V6.401c0-.707-.374-1.362-.982-1.721l-4.059-2.401A1.996 1.996 0 0 0 12 2c-.352 0-.703.093-1.017.278L6.916 4.68a1.9978 1.9978 0 0 0-.982 1.722v3.505l-2.949 1.739C2.375 12.005 2 12.66 2 13.368v5.2219c0 .708.374 1.363.983 1.722l4.069 2.403c.314.186.665.278 1.017.278.351 0 .702-.092 1.015-.277l2.917-1.718 2.915 1.723a2.0011 2.0011 0 0 0 2.035 0l4.066-2.401c.61-.361.983-1.016.983-1.725l-.006-5.2229Zm-6.06 7.6269-2.235-1.321 3.309-1.93a2 2 0 0 0 .992-1.728V12.2l1.994 1.175.006 5.2229-4.066 2.401ZM4 18.5899l4.069 2.403 2.233-1.315-3.309-1.93A1.9989 1.9989 0 0 1 6 16.0199V12.189l-2 1.179v5.2219Zm8.001-.237L8 16.0199V10.978l4.001-2.333L16 10.978v5.0419l-3.999 2.333ZM16.059 6.401 12 4 7.934 6.402v2.3l3.059-1.784c.312-.182.66-.273 1.008-.273s.696.091 1.008.273l3.05 1.779V6.401Z" clip-rule="evenodd"/></svg>