<svg xmlns="http://www.w3.org/2000/svg" fill="none" viewBox="0 0 16 16" class="acv-icon"><path fill="currentColor" d="M12.2647 9.5688a8.1994 8.1994 0 0 0 .8856-.4926l.3208.1496c.5005.2334 1.0955.0168 1.3289-.4837l.0119-.0254a.9996.9996 0 0 0-.0919-1.0032 5.0965 5.0965 0 0 0 .0452-.0543c.3534-.4294.2958-1.0674-.1286-1.425-.4244-.3575-1.0549-.2992-1.4083.1302-1.0553 1.2822-3.0209 2.1121-5.2316 2.1121-2.2012 0-4.175-.8229-5.233-2.089a.992.992 0 0 0-1.4092-.1196c-.4218.3607-.4747.999-.1182 1.4258l.0315.0374a.9995.9995 0 0 0-.0796.9856L1.2 8.742c.2334.5005.8284.717 1.329.4837l.3078-.1436c.283.1803.5818.345.8942.4933l-.0903.139c-.3008.4632-.1691 1.0825.294 1.3833l.0236.0153c.4632.3008 1.0825.1692 1.3833-.294l.369-.5683c.4142.0925.8405.1602 1.2754.2015V11c0 .5523.4477 1 1 1h.028c.5523 0 1-.4477 1-1v-.5484a10.26 10.26 0 0 0 1.274-.2029l.3704.5704c.3008.4632.9202.5948 1.3834.294l.0235-.0153c.4632-.3008.5948-.9201.294-1.3833l-.0946-.1457Z"/></svg>