<svg xmlns="http://www.w3.org/2000/svg" fill="none" viewBox="0 0 32 32" class="acv-icon"><path fill="#E9EAEC" d="M32 26c0 3.3137-2.6863 6-6 6s-6-2.6863-6-6 2.6863-6 6-6 6 2.6863 6 6Z"/><path fill="#243143" fill-opacity=".4" fill-rule="evenodd" d="M26 20c3.3137 0 6 2.6863 6 6s-2.6863 6-6 6-6-2.6863-6-6 2.6863-6 6-6Zm0 2c2.2091 0 4 1.7909 4 4a3.981 3.981 0 0 1-.5538 2.0319l-5.4781-5.4781A3.981 3.981 0 0 1 26 22Zm2.032 7.4462-5.4782-5.4782A3.9815 3.9815 0 0 0 22 26c0 2.2091 1.7909 4 4 4a3.9815 3.9815 0 0 0 2.032-.5538Z" clip-rule="evenodd"/></svg>