<svg xmlns="http://www.w3.org/2000/svg" fill="none" viewBox="0 0 32 32" class="acv-icon"><path fill="#FF810D" d="M29 16c0 7.1797-5.8203 13-13 13S3 23.1797 3 16 8.8203 3 16 3s13 5.8203 13 13Z"/><path stroke="#243143" stroke-opacity=".1" d="M16 3.5c6.9036 0 12.5 5.5964 12.5 12.5S22.9036 28.5 16 28.5 3.5 22.9036 3.5 16 9.0964 3.5 16 3.5Z"/><path fill="#fff" d="M16 9c-.8284 0-1.5.6716-1.5 1.5v6c0 .8284.6716 1.5 1.5 1.5s1.5-.6716 1.5-1.5v-6c0-.8284-.6716-1.5-1.5-1.5ZM16 23c.8284 0 1.5-.6716 1.5-1.5S16.8284 20 16 20s-1.5.6716-1.5 1.5.6716 1.5 1.5 1.5Z"/></svg>