<svg xmlns="http://www.w3.org/2000/svg" fill="none" viewBox="0 0 24 24" class="acv-icon"><path fill="currentColor" fill-rule="evenodd" d="M2 15V6c0-2.2091 1.7909-4 4-4h12c2.2091 0 4 1.7909 4 4v9c0 2.2091-1.7909 4-4 4h-5l-4.5238 3.7699C7.89 23.2584 7 22.8415 7 22.0785V19H6c-2.2091 0-4-1.7909-4-4ZM15 4a.625.625 0 0 1 .6194.5414c.0548.3829.1411.763.2472 1.1347.1876.6574.4609 1.3066.8058 1.6515.3449.345.9941.6182 1.6515.8058.3717.106.7518.1924 1.1347.2472a.625.625 0 0 1-.0002 1.2388c-.3834.0536-.7624.141-1.1345.2472-.6574.1876-1.3066.4609-1.6515.8058s-.6182.9941-.8058 1.6515c-.1061.3717-.1924.7518-.2472 1.1347a.625.625 0 0 1-1.2388-.0002c-.0536-.3834-.141-.7624-.2472-1.1345-.1876-.6574-.4609-1.3066-.8058-1.6515s-.9941-.6182-1.6515-.8058c-.3717-.106-.7518-.1924-1.1347-.2472a.625.625 0 0 1 .0002-1.2388c.3828-.0549.7629-.1411 1.1345-.2472.6574-.1875 1.3066-.4609 1.6515-.8058.3449-.345.6182-.9941.8058-1.6515.1061-.3717.1924-.7518.2472-1.1347A.625.625 0 0 1 15 4Zm-6.8474 6.8519a.4063.4063 0 0 0-.8052 0c-.0357.2489-.0917.496-.1607.7376-.1219.4273-.2996.8492-.5238 1.0734-.2242.2242-.6461.4019-1.0734.5238-.2416.069-.4886.125-.7375.1607a.4063.4063 0 0 0-.0001.8052c.2489.0357.496.0917.7376.1607.4273.1219.8492.2996 1.0734.5238.2242.2242.4019.6461.5238 1.0734.069.2419.1258.4883.1607.7375a.4064.4064 0 0 0 .8052.0001c.0357-.2489.0917-.496.1607-.7376.1219-.4273.2996-.8492.5238-1.0734.2242-.2242.6461-.4019 1.0734-.5238.2419-.069.4883-.1259.7375-.1607a.4063.4063 0 0 0 .0001-.8052c-.2489-.0356-.496-.0917-.7376-.1607-.4273-.1219-.8492-.2996-1.0734-.5238-.2242-.2242-.4019-.6461-.5238-1.0734-.069-.2416-.125-.4887-.1607-.7376Z" clip-rule="evenodd"/></svg>