<svg xmlns="http://www.w3.org/2000/svg" fill="none" viewBox="0 0 32 32" class="acv-icon"><path fill="currentColor" d="M7.4174 5.971A2 2 0 0 1 9.1324 5h13.7352a2 2 0 0 1 1.715.971l5.1324 8.554c.1865.3108.285.6665.285 1.029v6.9301l-2.449-1.193c.4569-.8054 1.1185-2.1151 1.1185-3.9405 0-1.2299-.2948-2.6071-1.1247-3.732-.4615-.6254-1.0557-1.1255-1.7615-1.4619l-2.8218-4.6736A1 1 0 0 0 22.1055 7H9.8222a1 1 0 0 0-.8597.4892l-4.238 7.1331c-.0991.1666.021.3777.2148.3777h4.951a9.3032 9.3032 0 0 0-.0083.3931c0 2.2878.8197 3.8561 1.3897 4.8209L7.879 21.9919c-.6273.3259-1.0006.8335-1.2164 1.2311-.2198.405-.3507.8308-.4347 1.1978-.168.7331-.2177 1.544-.2264 2.2268A18.4665 18.4665 0 0 0 6.0004 27H4c-1.1046 0-2-.8954-2-2v-9.446a2 2 0 0 1 .285-1.029l5.1324-8.554Z"/><path fill="currentColor" d="m18.6094 21.7529 3.8233 2.0127c1.1304.6157.6801 5.3397.6801 5.3397H8.1231s-.5515-4.7056.68-5.3397l3.8233-2.0035c.6985-.3769 1.0294-.7904 1.0294-1.1672 0-.2973-.2146-.6535-.4945-1.1181-.5248-.8713-1.2793-2.1237-1.2793-4.0837C11.882 12.737 13.2698 11 15.6133 11c2.6101 0 3.7497 2.1506 3.7497 4.4114 0 1.7597-.689 2.958-1.1992 3.8451-.2998.5213-.5378.9352-.5378 1.2924 0 .4136.3033.8547.9834 1.204Z"/><path fill="currentColor" d="m26.0261 22.773 3.2075 1.5624c1.1396.5514.6709 2.8674.6709 2.8674h-4.9996c-.2743 0-.2476-.3425-.2067-.8654.0645-.8258.1643-2.1015-.8318-3.1876-.2071-.2181-.4703-.44-.7588-.6832-1.1453-.9653-2.6876-2.2654-2.6876-4.9965.0183-2.3711 1.158-3.7957 3.1339-3.7957 2.1965 0 3.1156 1.7922 3.1156 3.6762 0 1.4695-.5754 2.4655-1.0018 3.2036-.251.4345-.4503.7795-.4503 1.0792a1.36 1.36 0 0 0 .8087 1.1396Z"/></svg>