<svg xmlns="http://www.w3.org/2000/svg" fill="none" viewBox="0 0 16 16" class="acv-icon"><path fill="currentColor" fill-rule="evenodd" d="M9 2v6.5858l1.2929-1.293c.3905-.3904 1.0237-.3904 1.4142 0 .3905.3906.3905 1.0238 0 1.4143l-3 3c-.3905.3905-1.0237.3905-1.4142 0l-3-3c-.3905-.3905-.3905-1.0237 0-1.4142.3905-.3905 1.0237-.3905 1.4142 0L7 8.5858V2c0-.5523.4477-1 1-1s1 .4477 1 1ZM3 12v1h10v-1c0-.5523.4477-1 1-1s1 .4477 1 1v2c0 .5523-.4477 1-1 1H2c-.5523 0-1-.4477-1-1v-2c0-.5523.4477-1 1-1s1 .4477 1 1Z" clip-rule="evenodd"/></svg>