<svg xmlns="http://www.w3.org/2000/svg" fill="none" viewBox="0 0 24 24" class="acv-icon"><path fill="currentColor" d="M14.2585 12.2826c.7684 0 1.3913-.6229 1.3913-1.3913S15.0269 9.5 14.2585 9.5s-1.3913.6229-1.3913 1.3913c0 .0203.0004.0405.0013.0605l-2.6605 1.5957a1.3848 1.3848 0 0 0-.8167-.2648C8.6229 12.2827 8 12.9056 8 13.674s.623 1.3913 1.3913 1.3913c.3544 0 .6778-.1325.9235-.3506l2.5547 1.4749c.0418.7308.6477 1.3105 1.389 1.3105.7684 0 1.3913-.6229 1.3913-1.3913s-.6229-1.3913-1.3913-1.3913c-.2815 0-.5435.0836-.7624.2273l-2.3338-1.3473 2.4538-1.4717c.1922.1002.4107.1568.6424.1568Z"/><path fill="currentColor" fill-rule="evenodd" d="M22 7c0-.5523-.4477-1-1-1h-8.2792l-.7721-2.3162A1 1 0 0 0 11 3H3c-.5523 0-1 .4477-1 1v16c0 .5523.4477 1 1 1h18c.5523 0 1-.4477 1-1V7ZM4 19V5h6.2792l.7721 2.3162A1 1 0 0 0 12 8h8v11H4Z" clip-rule="evenodd"/></svg>