<svg xmlns="http://www.w3.org/2000/svg" fill="none" viewBox="0 0 32 32" class="acv-icon"><path fill="currentColor" d="M8.5714 4C7.7035 4 7 4.6888 7 5.5385V6h19c.5523 0 1 .4477 1 1V20.923h.4286c.8678 0 1.5714-.6888 1.5714-1.5385V5.5385C29 4.6888 28.2964 4 27.4286 4H8.5714Z"/><path fill="currentColor" fill-rule="evenodd" d="M4.5714 8C3.7036 8 3 8.6888 3 9.5385v13.8461c0 .8497.7035 1.5385 1.5714 1.5385h6.2857l-.6636 2.599c-.062.2428.1255.4779.3811.4779h6.8508c.2556 0 .4431-.2351.3811-.4779l-.6636-2.599h6.2857c.8678 0 1.5714-.6888 1.5714-1.5385V9.5385C25 8.6888 24.2964 8 23.4286 8H4.5714Zm6.7694 12H9.9463v-3.2864H8.1057V20H6.711v-7.4956h1.3946v2.9788h1.8406v-2.9788h1.3945V20Zm3.8144-6.3831c-.3999 0-.716.2342-.9484.7024-.229.4683-.3435 1.1194-.3435 1.9534 0 1.7363.4528 2.6045 1.3586 2.6045.3965 0 .8118-.1265 1.2458-.3794v1.2407c-.3657.2427-.8339.364-1.4047.364-.8443 0-1.4937-.3349-1.9483-1.0048-.4512-.6734-.6767-1.6185-.6767-2.8352 0-1.2168.2324-2.1653.6972-2.8455.4683-.6802 1.1177-1.0203 1.9483-1.0203.2734 0 .5349.0376.7844.1128.2529.0752.5229.2068.8101.3948l-.4615 1.1331a3.8588 3.8588 0 0 0-.4922-.2872c-.1743-.0888-.364-.1333-.5691-.1333Zm5.9627.5743c0 .4716-.1162.8681-.3486 1.1894-.2325.3179-.5606.5383-.9844.6614v.041c.4717.0752.8357.2598 1.092.5537.2598.294.3897.6939.3897 1.1997 0 .6905-.2154 1.2407-.646 1.6509-.4273.4102-1.0134.6152-1.7586.6152-.6631 0-1.2202-.1179-1.6714-.3537v-1.251c.2256.1367.47.2444.7332.323s.5161.1179.7588.1179c.3965 0 .6955-.0906.8972-.2717.2017-.1846.3025-.4751.3025-.8716 0-.7485-.4597-1.1228-1.3792-1.1228h-.4255v-1.0408h.405c.4068 0 .7178-.0957.9331-.2871.2188-.1914.3282-.4768.3282-.8562 0-.2973-.0701-.5212-.2102-.6716-.1368-.1538-.3316-.2307-.5845-.2307-.3862 0-.7622.164-1.1279.4922l-.6307-.9229c.5059-.5058 1.1434-.7588 1.9124-.7588.6323 0 1.1262.1607 1.4817.482.3555.3178.5332.7553.5332 1.3125Z" clip-rule="evenodd"/></svg>