<svg xmlns="http://www.w3.org/2000/svg" fill="none" viewBox="0 0 24 24" class="acv-icon"><path fill="currentColor" d="M17 10c.5523 0 1 .4477 1 1s-.4477 1-1 1-1-.4477-1-1 .4477-1 1-1ZM17 17c.5523 0 1 .4477 1 1s-.4477 1-1 1-1-.4477-1-1 .4477-1 1-1Z"/><path fill="currentColor" fill-rule="evenodd" d="M3 5c0-1.2911.8997-2.0772 1.4306-2.4358.6006-.4057 1.3383-.6924 2.0702-.9015C7.9918 1.2367 9.9354 1 12 1c2.0645 0 4.0082.2367 5.4992.6627.7319.2091 1.4696.4958 2.0702.9015C20.1003 2.9228 21 3.7089 21 5v14c0 .8029-.4375 1.4481-.9653 1.916-.5289.469-1.2373.8456-2.0267 1.1416C16.4217 22.6525 14.2973 23 12 23s-4.4217-.3475-6.008-.9424c-.7894-.296-1.4978-.6726-2.0267-1.1416C3.4375 20.4481 3 19.8029 3 19V5Zm9 4c2.0645 0 4.0082-.2367 5.4992-.6627.5139-.1469 1.0306-.3319 1.5008-.5696V12c0 .0255-.0102.1696-.2921.4195-.2807.2488-.7439.5186-1.4022.7655C15.9966 13.6759 14.121 14 12 14s-3.9966-.3241-5.3057-.815c-.6583-.2469-1.1215-.5167-1.4022-.7655C5.0102 12.1696 5 12.0255 5 12V7.7678c.4702.2376.987.4226 1.5008.5695C7.9918 8.7633 9.9354 9 12 9ZM5 5c0-1.1046 3.134-2 7-2s7 .8954 7 2-3.134 2-7 2-7-.8954-7-2Zm0 9.6162V19c0 .0255.0102.1696.292.4195.2808.2488.744.5186 1.4023.7655C8.0034 20.6759 9.879 21 12 21s3.9966-.3241 5.3057-.815c.6583-.2469 1.1215-.5167 1.4022-.7655.2819-.2499.2921-.394.2921-.4195v-4.3838c-.3091.1636-.6426.3104-.992.4414C16.4217 15.6525 14.2973 16 12 16s-4.4217-.3475-6.008-.9424c-.3494-.131-.6829-.2778-.992-.4414Z" clip-rule="evenodd"/></svg>