<svg xmlns="http://www.w3.org/2000/svg" fill="none" viewBox="0 0 16 16" class="acv-icon"><path fill="currentColor" fill-rule="evenodd" d="M9.7143 5.7143C9.7143 4.7675 8.9468 4 8 4s-1.7143.7675-1.7143 1.7143v.8571h-.8571A.4286.4286 0 0 0 5 7v3.5714c0 .2367.1919.4286.4286.4286h5.1428A.4286.4286 0 0 0 11 10.5714V7a.4286.4286 0 0 0-.4286-.4286h-.8571v-.8571Zm-2.14 2.5214a.4286.4286 0 0 1 .8543.05v.8572l-.003.05a.4286.4286 0 0 1-.8542-.05v-.8572l.003-.05ZM8 4.8571a.8571.8571 0 0 0-.8571.8572v.8571H8.857v-.8571A.8571.8571 0 0 0 8 4.857Z" clip-rule="evenodd"/><path fill="currentColor" fill-rule="evenodd" d="M8.341 15.9397C12.7803 14.319 15 12.5148 15 10.527V2.7317c0-.4494-.296-.8443-.7253-.9677l-6-1.7253a.9939.9939 0 0 0-.5494 0l-6 1.7253C1.296 1.8874 1 2.2823 1 2.7317v7.7953c0 1.9878 2.2197 3.792 6.659 5.4127a.9943.9943 0 0 0 .682 0ZM3 3.4537 8 2l5 1.4537v7.1146c0 .8252-1.5267 2.1057-5 3.4317-3.4733-1.326-5-2.6065-5-3.4317V3.4537Z" clip-rule="evenodd"/></svg>