<svg xmlns="http://www.w3.org/2000/svg" fill="none" viewBox="0 0 24 24" class="acv-icon"><path fill="currentColor" fill-rule="evenodd" d="M1 5.077C1 3.9298 1.9234 3 3.0625 3h17.875C22.0766 3 23 3.9299 23 5.077V18.923C23 20.0701 22.0766 21 20.9375 21H3.0625C1.9235 21 1 20.0701 1 18.9231V5.0769Zm3.1699.8158a1.25 1.25 0 0 1 1.2916.0795L12 9.9797l6.5385-4.0074A1.25 1.25 0 0 1 20.5 7v10c0 .6904-.5596 1.25-1.25 1.25h-1A.25.25 0 0 1 18 18V9.3857l-5.2885 3.1421a1.2501 1.2501 0 0 1-1.423 0L6 9.3858V18a.25.25 0 0 1-.25.25h-1c-.6904 0-1.25-.5596-1.25-1.25V7c0-.465.258-.8914.6699-1.1072Z" clip-rule="evenodd"/></svg>