<svg xmlns="http://www.w3.org/2000/svg" fill="none" viewBox="0 0 24 24" class="acv-icon"><path fill="currentColor" d="m.9727 20.648 2.0599-6.1025 1.1914-3.5297L7.0377 2.68A.9998.9998 0 0 1 7.9852 2l.0754.0002a.9986.9986 0 0 1 .946.679l2.5101 7.4363-1.6304 4.83h3.3369l1.9282 5.7126a.9977.9977 0 0 1-.1349.9015.9994.9994 0 0 1-.7875.4159h-.2322a1.0046 1.0046 0 0 1-.6854-.27l-4.3399-4.05-1.2252 3.6296a.9999.9999 0 0 1-.9472.6801H1.9187a.9978.9978 0 0 1-.811-.416.998.998 0 0 1-.135-.9012Z"/><path fill="currentColor" d="m16.962 2.7136 2.8143 8.3374 1.2244 3.6273 2.0267 6.004a.999.999 0 0 1-.1349.9014.9983.9983 0 0 1-.8109.4163h-6.9892a.9992.9992 0 0 0 .8111-.4162.9992.9992 0 0 0 .1764-.4344.9993.9993 0 0 0-.0415-.4671L9.9731 2.7136a.9984.9984 0 0 0-.946-.679h6.9889a.9984.9984 0 0 1 .946.679Z"/></svg>