<svg xmlns="http://www.w3.org/2000/svg" fill="none" viewBox="0 0 72 72" class="acv-icon"><path fill="#BDC3CB" d="M15 4a4 4 0 0 0-4 4v56a4 4 0 0 0 4 4h42a4 4 0 0 0 4-4V8a4 4 0 0 0-4-4H15Z"/><path fill="#454E5C" d="M11 53h50v11a4 4 0 0 1-4 4H15a4 4 0 0 1-4-4V53Z"/><path fill="#243143" fill-opacity=".4" d="M11 63v1a4 4 0 0 0 4 4h42a4 4 0 0 0 4-4v-1a4 4 0 0 1-4 4H15a4 4 0 0 1-4-4Z"/><path fill="url(#a)" d="M12 53h-1v9a4 4 0 0 0 4 4h42a4 4 0 0 0 4-4v-9h-1v8.5a3.5 3.5 0 0 1-3.5 3.5h-41a3.5 3.5 0 0 1-3.5-3.5V53Z" opacity=".15"/><path fill="url(#b)" d="M15 4a4 4 0 0 0-4 4v45h50V8a4 4 0 0 0-4-4H15Z"/><path fill="url(#c)" fill-opacity=".3" fill-rule="evenodd" d="M57 5a3 3 0 0 1 3 3v56a3 3 0 0 1-3 3H15a3 3 0 0 1-3-3V8a3 3 0 0 1 3-3h42Zm0-1a4 4 0 0 1 4 4v56a4 4 0 0 1-4 4H15a4 4 0 0 1-4-4V8a4 4 0 0 1 4-4h42Z" clip-rule="evenodd"/><path fill="#fff" d="M15 5a3 3 0 0 0-3 3v1a3 3 0 0 1 3-3h42a3 3 0 0 1 3 3V8a3 3 0 0 0-3-3H15Z" opacity=".2"/><path fill="#fff" d="M11 52h50v1H11v-1Z" opacity=".05"/><path fill="#243143" d="M11 53h50v1H11v-1Z" opacity=".25"/><path fill="#fff" d="M24 42h3.692l1.776-4.377h13.1L44.308 42H48L37.917 18h-3.834L24 42Zm8.911-12.953.64-1.553c1.029-2.541 1.916-4.659 2.449-6.247.568 1.588 1.456 3.706 2.485 6.247l.64 1.553H32.91Zm-2.236 5.576 1.1-2.752h8.45l1.136 2.753H30.675Z"/><path fill="#fff" d="M18.99 10.25a3 3 0 0 1-5.98 0 3 3 0 1 0 5.98 0Z" opacity=".3"/><path fill="#0B4781" d="M19 10a3 3 0 1 1-6 0 3 3 0 0 1 6 0Z" opacity=".3"/><path fill="#243143" d="M18.99 10.25a3 3 0 1 0-5.98 0 3 3 0 0 1 5.98 0Z" opacity=".3"/><path fill="#243143" d="M18 10.5a2 2 0 1 1-4 0 2 2 0 0 1 4 0Z" opacity=".4"/><path fill="#E0E4E8" d="M18 10a2 2 0 1 1-4 0 2 2 0 0 1 4 0Z"/><path fill="#243143" fill-opacity=".9" d="M17 10a1 1 0 1 1-2 0 1 1 0 0 1 2 0Z" opacity=".8"/><path fill="#fff" d="M58.99 10.25a3 3 0 0 1-5.98 0 3 3 0 1 0 5.98 0Z" opacity=".3"/><path fill="#0B4781" d="M59 10a3 3 0 1 1-6 0 3 3 0 0 1 6 0Z" opacity=".3"/><path fill="#243143" d="M58.99 10.25a3 3 0 1 0-5.98 0 3 3 0 0 1 5.98 0Z" opacity=".3"/><path fill="#243143" d="M58 10.5a2 2 0 1 1-4 0 2 2 0 0 1 4 0Z" opacity=".4"/><path fill="#E0E4E8" d="M58 10a2 2 0 1 1-4 0 2 2 0 0 1 4 0Z"/><path fill="#243143" fill-opacity=".9" d="M57 10a1 1 0 1 1-2 0 1 1 0 0 1 2 0Z" opacity=".8"/><path fill="#fff" d="M18.99 61.25a3 3 0 0 1-5.98 0 3 3 0 1 0 5.98 0Z" opacity=".15"/><path fill="#243143" d="M19 61a3 3 0 1 1-6 0 3 3 0 0 1 6 0Z" opacity=".4"/><path fill="#243143" d="M18.99 61.25a3 3 0 1 0-5.98 0 3 3 0 0 1 5.98 0Z" opacity=".3"/><path fill="#243143" d="M18 61.5a2 2 0 1 1-4 0 2 2 0 0 1 4 0Z" opacity=".4"/><path fill="#E0E4E8" d="M18 61a2 2 0 1 1-4 0 2 2 0 0 1 4 0Z"/><path fill="#243143" fill-opacity=".9" d="M17 61a1 1 0 1 1-2 0 1 1 0 0 1 2 0Z" opacity=".8"/><path fill="#fff" d="M58.99 61.25a3 3 0 0 1-5.98 0 3 3 0 1 0 5.98 0Z" opacity=".15"/><path fill="#243143" d="M59 61a3 3 0 1 1-6 0 3 3 0 0 1 6 0Z" opacity=".4"/><path fill="#243143" d="M58.99 61.25a3 3 0 1 0-5.98 0 3 3 0 0 1 5.98 0Z" opacity=".3"/><path fill="#243143" d="M58 61.5a2 2 0 1 1-4 0 2 2 0 0 1 4 0Z" opacity=".4"/><path fill="#E0E4E8" d="M58 61a2 2 0 1 1-4 0 2 2 0 0 1 4 0Z"/><path fill="#243143" fill-opacity=".9" d="M57 61a1 1 0 1 1-2 0 1 1 0 0 1 2 0Z" opacity=".8"/><path fill="url(#d)" fill-rule="evenodd" d="M33.75 59.75h4.5a1.25 1.25 0 1 1 0 2.5h-4.5a1.25 1.25 0 1 1 0-2.5Zm0 .5a.75.75 0 0 0 0 1.5h4.5a.75.75 0 0 0 0-1.5h-4.5Z" clip-rule="evenodd"/><path fill="#9BC225" d="M33 61a.75.75 0 0 1 .75-.75h4.5a.75.75 0 0 1 0 1.5h-4.5A.75.75 0 0 1 33 61Z"/><path fill="url(#e)" d="M33 61a.75.75 0 0 1 .75-.75h4.5a.75.75 0 0 1 0 1.5h-4.5A.75.75 0 0 1 33 61Z" opacity=".4"/><path fill="#fff" fill-opacity=".2" d="M30 66.25h12V67a.5.5 0 0 1-.5.5h-11a.5.5 0 0 1-.5-.5v-.75Z" opacity=".6"/><path fill="#243143" d="M30 66.5a.5.5 0 0 1 .5-.5h11a.5.5 0 0 1 0 1h-11a.5.5 0 0 1-.5-.5Z"/><defs><linearGradient id="a" x1="38" x2="38" y1="55" y2="66" gradientUnits="userSpaceOnUse"><stop stop-color="#fff" stop-opacity="0"/><stop offset="1" stop-color="#fff"/></linearGradient><linearGradient id="b" x1="36" x2="36" y1="5.531" y2="51.469" gradientUnits="userSpaceOnUse"><stop stop-color="#0B84D1"/><stop offset="1" stop-color="#034E96"/></linearGradient><linearGradient id="c" x1="36" x2="36" y1="4" y2="68" gradientUnits="userSpaceOnUse"><stop stop-color="#0B4781"/><stop offset=".969" stop-color="#034E96" stop-opacity="0"/></linearGradient><linearGradient id="d" x1="35" x2="35" y1="59.75" y2="62.25" gradientUnits="userSpaceOnUse"><stop stop-color="#151920"/><stop offset="1" stop-color="#606978"/></linearGradient><linearGradient id="e" x1="36" x2="36" y1="60.5" y2="61.75" gradientUnits="userSpaceOnUse"><stop stop-color="#fff"/><stop offset="1" stop-color="#9BC225" stop-opacity="0"/></linearGradient></defs></svg>