<svg xmlns="http://www.w3.org/2000/svg" fill="none" viewBox="0 0 32 32" class="acv-icon"><path fill="currentColor" d="M15.4124 13.9769c0-.5641-.0762-.7498-.3698-.9009-.3464-.1782-.8636-.1409-1.1033.0797-.1907.1756-.2492.3731-.2501.845l-.0009.431h1.7241v-.4548Z"/><path fill="currentColor" fill-rule="evenodd" d="M2 5c0-1.1046.8954-2 2-2h24c1.1046 0 2 .8954 2 2v18c0 1.1046-.8954 2-2 2h-8l.8447 3.3787c.0789.3156-.1598.6213-.4851.6213h-8.7192c-.3253 0-.564-.3057-.4851-.6213L12 25H4c-1.1046 0-2-.8954-2-2V5Zm4.0118 9.2714c-.5438-2.5471-.998-4.6627-1.0092-4.7012-.019-.0655.0445-.0702.9446-.0702.573 0 .965.0152.965.0376 0 .0738 1.3673 7.7985 1.3832 7.8144.009.0089.0265-.0266.039-.0788.0207-.0855 1.3443-7.7258 1.3443-7.7592 0-.0077.415-.014.9222-.014.625 0 .9222.0137.9222.0427 0 .0334-1.6282 8.3309-1.8072 9.2093l-.0428.2105H8.355c-.7248 0-1.3262-.0135-1.3362-.03-.01-.0166-.4632-2.1141-1.007-4.6611Zm12.6884-3.1676V9.5h1.6039v1.6038h-1.6039Zm3.2077 7.8587V9.5h1.684v8.0191H27v1.4434h-5.0921Zm-9.3574-6.5221c.261-.3224.7879-.5984 1.3285-.696.1046-.0189.4608-.029.7916-.0224.5204.0104.6452.0263.9254.1175.7464.243 1.1697.6857 1.367 1.4295.0567.2136.0695.4486.0712 1.3031l.0021 1.0425-3.348.0209.0018.8516c.0018.8863.0284 1.0648.1848 1.2408.1318.1482.373.2305.6754.2305.346 0 .5661-.0914.7264-.3014.1036-.1358.1171-.1884.1296-.5056l.0141-.354h1.6454l-.0291.3487c-.0754.9054-.4139 1.4716-1.0724 1.7935-.4704.23-.7278.2807-1.414.2785-.6625-.0021-1.0214-.0719-1.4274-.2777-.2966-.1503-.6535-.5037-.7953-.7874-.2378-.4757-.2487-.6078-.2341-2.8205.0127-1.9242.0166-2.0122.0979-2.2274.1202-.3179.2043-.4736.3591-.6647Zm6.1497 6.5221v-7.137h1.6039v7.137h-1.6039Z" clip-rule="evenodd"/></svg>