<svg xmlns="http://www.w3.org/2000/svg" fill="none" viewBox="0 0 24 24" class="acv-icon"><path fill="currentColor" d="M15 3.997h4v10.086A6.0363 6.0363 0 0 1 20 14c.3407 0 .6748.0284 1 .083V2.997c0-.5522-.4477-1-1-1h-6c-.5523 0-1 .4478-1 1v18.0001c0 .5523.4477 1 1 1h.3404A5.9894 5.9894 0 0 1 14 20c0-1.2267.3682-2.3675 1-3.3178V3.9971ZM6.996 4.9941c.5524 0 1 .4478 1 1 0 .5523-.4476 1-1 1-.5522 0-1-.4477-1-1 0-.5522.4478-1 1-1Z"/><path fill="currentColor" fill-rule="evenodd" d="M11 2.997c0-.5522-.4477-1-1-1H4c-.5523 0-1 .4478-1 1v18.0001c0 .5523.4477 1 1 1h6c.5523 0 1-.4477 1-1v-18Zm-2 1H5v16.0001h4v-16Z" clip-rule="evenodd"/><path fill="currentColor" d="M16.0039 5.9941c0-.5522.4477-1 1-1s1 .4478 1 1c0 .5523-.4477 1-1 1s-1-.4477-1-1Z"/></svg>