<svg xmlns="http://www.w3.org/2000/svg" fill="none" viewBox="0 0 16 16" class="acv-icon"><path fill="currentColor" d="M1 6c.5523 0 1-.4477 1-1V2h12v12h-3c-.5523 0-1 .4477-1 1s.4477 1 1 1h3c1.1046 0 2-.8954 2-2V2c0-1.1046-.8954-2-2-2H2C.8954 0 0 .8954 0 2v3c0 .5523.4477 1 1 1Z"/><path fill="currentColor" fill-rule="evenodd" d="m10 7.4142-3 3V15c0 .5523-.4477 1-1 1H1c-.5523 0-1-.4477-1-1v-5c0-.5523.4477-1 1-1h4.5858l3-3H7c-.5523 0-1-.4477-1-1s.4477-1 1-1h4c.5523 0 1 .4477 1 1v4c0 .5523-.4477 1-1 1s-1-.4477-1-1V7.4142ZM2 11v3h3v-3H2Z" clip-rule="evenodd"/></svg>