<svg xmlns="http://www.w3.org/2000/svg" fill="none" viewBox="0 0 32 32" class="acv-icon"><path fill="currentColor" d="M19.4297 22.7822c.5511.0001 1.0576.3921 1.0576 1.21-.0001.7823-.5065 1.1825-1.0576 1.1826-.6314 0-1.041-.5433-1.041-1.1924.0002-.6665.4098-1.2002 1.041-1.2002Z"/><path fill="currentColor" fill-rule="evenodd" d="M24 16c4.4183 0 8 3.5817 8 8s-3.5817 8-8 8-8-3.5817-8-8 3.5817-8 8-8Zm-4.6768 6c-.9871 0-1.8231.7467-1.8232 1.9648 0 1.0316.6579 1.992 1.8135 1.9922.2667 0 .7388-.0624 1.1211-.5068v.3916h.8711v-3.7441h-.8711v.4355c-.3555-.4621-.8356-.5331-1.1114-.5332Zm4.7901 0c-.1957 0-.3653.0272-.5342.125-.1244.0711-.2666.1952-.3643.3105v-.3378h-.871v3.7441h.871v-1.9385c0-.2487.0003-.6045.2403-.8623.1688-.1778.3555-.205.542-.2051.0891 0 .2497.0084.4453.1329l.3555-.7911c-.24-.1421-.4714-.1777-.6846-.1777Zm5.124 0c-.3288 0-.8001.1067-1.1113.5508-.2134-.3644-.5786-.5508-.9698-.5508-.2843.0001-.6314.0889-.9248.4443v-.3466h-.871v3.7441h.871v-1.9297c.0001-.3201.0178-.6402.169-.8535.1158-.1602.3024-.2753.5156-.2754.3111 0 .4445.186.4981.3281.0357.0798.08.2492.08.667v2.0635h.8721v-1.9297c0-.3201.0178-.6402.169-.8535.1158-.1601.3023-.2754.5156-.2754.3109.0001.4446.1859.498.3281.0357.0798.0801.2492.0801.667v2.0635H30.5v-2.3125c0-.5422-.1242-.8178-.1953-.9424-.2134-.3736-.614-.5869-1.0674-.5869Z" clip-rule="evenodd"/><path fill="currentColor" fill-rule="evenodd" d="M28 3c1.1046 0 2 .8954 2 2v10.999c-1.6338-1.2271-3.6558-1.9635-5.8486-1.9961v-4.997h-2.8985l-1.2588 5.831a9.9655 9.9655 0 0 0-.8418.416l-1.3584-6.247h-2.8574V19h.4043C14.4895 20.4712 14 22.178 14 24s.4895 3.5288 1.3408 5h-3.7002c-.3252 0-.5641-.3056-.4853-.6211L12 25H4c-1.1046 0-2-.8954-2-2V5c0-1.1046.8954-2 2-2h24ZM9.3379 19h2.3652l2.3516-9.9941h-1.8731l-1.292 6.1045c-.1458.6653-.2666 1.4104-.3623 2.2353-.1139-.9707-.2301-1.7158-.3486-2.2353L8.8731 9.0059H7L9.3379 19Z" clip-rule="evenodd"/><path fill="currentColor" d="M17.8594 16.1094c-.4293.3345-.831.7026-1.2002 1.1015v-4.917c0-.5468-.0433-1.1484-.1299-1.8046h.0752l1.2549 5.6201ZM22.4834 10.5029a15.9651 15.9651 0 0 0-.0957 1.7227v1.9053a9.932 9.932 0 0 0-.8047.164l.8457-3.792h.0547ZM19.4297 22.7822c.5511.0001 1.0576.3921 1.0576 1.21-.0001.7823-.5065 1.1825-1.0576 1.1826-.6314 0-1.041-.5433-1.041-1.1924.0002-.6665.4098-1.2002 1.041-1.2002Z"/><path fill="currentColor" fill-rule="evenodd" d="M24 16c4.4183 0 8 3.5817 8 8s-3.5817 8-8 8-8-3.5817-8-8 3.5817-8 8-8Zm-4.6768 6c-.9871 0-1.8231.7467-1.8232 1.9648 0 1.0316.6579 1.992 1.8135 1.9922.2667 0 .7388-.0624 1.1211-.5068v.3916h.8711v-3.7441h-.8711v.4355c-.3555-.4621-.8356-.5331-1.1114-.5332Zm4.7901 0c-.1957 0-.3653.0272-.5342.125-.1244.0711-.2666.1952-.3643.3105v-.3378h-.871v3.7441h.871v-1.9385c0-.2487.0003-.6045.2403-.8623.1688-.1778.3555-.205.542-.2051.0891 0 .2497.0084.4453.1329l.3555-.7911c-.24-.1421-.4714-.1777-.6846-.1777Zm5.124 0c-.3288 0-.8001.1067-1.1113.5508-.2134-.3644-.5786-.5508-.9698-.5508-.2843.0001-.6314.0889-.9248.4443v-.3466h-.871v3.7441h.871v-1.9297c.0001-.3201.0178-.6402.169-.8535.1158-.1602.3024-.2753.5156-.2754.3111 0 .4445.186.4981.3281.0357.0798.08.2492.08.667v2.0635h.8721v-1.9297c0-.3201.0178-.6402.169-.8535.1158-.1601.3023-.2754.5156-.2754.3109.0001.4446.1859.498.3281.0357.0798.0801.2492.0801.667v2.0635H30.5v-2.3125c0-.5422-.1242-.8178-.1953-.9424-.2134-.3736-.614-.5869-1.0674-.5869Z" clip-rule="evenodd"/></svg>