<svg xmlns="http://www.w3.org/2000/svg" fill="none" viewBox="0 0 32 32" class="acv-icon"><path fill="currentColor" d="M19.7496 13.1573h-.2478v-1.5009h.2408c.2194 0 .3811.0566.4849.1699.1062.1109.1593.2985.1593.5629 0 .2548-.0495.4472-.1486.577-.0992.1274-.262.1911-.4886.1911ZM13.1227 13.2883h-.1841v-1.6319h.2336c.2219 0 .3859.0661.4921.1982.1062.1298.1593.3304.1593.6018 0 .295-.0578.5074-.1735.6372-.1156.1298-.2914.1947-.5274.1947ZM25.2237 18.22l-1.16.65a4.7796 4.7796 0 0 1 3.7452 4.5629 4.7801 4.7801 0 0 1-8.971 2.4006 4.7802 4.7802 0 0 1 .9657-5.8235l.8101.8799a3.6302 3.6302 0 0 0-1.16 2.64 3.5603 3.5603 0 0 0 4.1234 3.518 3.5604 3.5604 0 0 0 2.8786-2.6062 3.5596 3.5596 0 0 0-.0613-2.0243 3.5592 3.5592 0 0 0-3.0307-2.4274l.9 1.62-.72.4-1.62-2.89 2.9-1.62.4.72Z"/><path fill="currentColor" fill-rule="evenodd" d="M4 3c-1.1046 0-2 .8954-2 2v18c0 1.1046.8954 2 2 2h8l-.8447 3.3787c-.0789.3156.1598.6213.4851.6213h4.6513c1.6479 1.8412 4.0428 3 6.7083 3 4.9706 0 9-4.0294 9-9 0-2.1433-.7492-4.1116-2-5.6573V5c0-1.1046-.8954-2-2-2H4Zm13.7849 12.6641a9.0332 9.0332 0 0 0-.4422.3359H15.452v-5.1755h2.3329v.8319h-1.37v1.2319h1.2709v.8355h-1.2709v1.4337h1.37v.5066Zm1.7169-.959a8.972 8.972 0 0 0-.9629.4765v-4.3571h1.2603c.5334 0 .9263.1262 1.1788.3787.2549.2526.3824.6384.3824 1.1576 0 .6538-.2207 1.1104-.662 1.37l.2236.5103a8.8938 8.8938 0 0 0-.8704.253l-.2064-.5084h-.3434v.7194ZM23 14c-.351 0-.6973.0201-1.0378.0592v-.4169h1.7806v.3879A9.1277 9.1277 0 0 0 23 14Zm2.7297.4214a8.9384 8.9384 0 0 0-.9442-.2443l-.7843-3.3526h.97l.6761 3.1612a6.992 6.992 0 0 1 .0824.4357Zm.989.3804a8.9246 8.9246 0 0 0-.7987-.3175c.0292-.1748.061-.341.0955-.4986l.6691-3.1612h.9699l-.9358 3.9773ZM7.6533 16h-.9629v-2.2692H5.4196V16h-.963v-5.1755h.963v2.0567h1.2708v-2.0567h.963V16Zm2.163-3.1329.6903-2.0426h1.0089l-1.2284 3.101V16h-.9487v-2.0355l-1.2249-3.14h1.016l.6868 2.0426Zm4.9808-.4496c0 .5499-.1392.9723-.4177 1.2673-.2761.2927-.6762.439-1.2001.439h-.2407V16h-.9629v-5.1755h1.3134c1.0053 0 1.508.531 1.508 1.593ZM30 23c0 3.866-3.134 7-7 7s-7-3.134-7-7 3.134-7 7-7 7 3.134 7 7Z" clip-rule="evenodd"/></svg>