<svg xmlns="http://www.w3.org/2000/svg" fill="none" viewBox="0 0 16 16" class="acv-icon"><path fill="currentColor" fill-rule="evenodd" d="m8.0027 8.3585-3.7654 2.5161L1.3219 8.947c-.4292-.2838-.4292-.9334 0-1.2172l2.9154-1.9275-2.9154-1.9276c-.4292-.2838-.4292-.9334 0-1.2172l2.1642-1.431a1.352 1.352 0 0 1 1.5012.002L8.0005 3.231l3.0134-2.0028a1.3515 1.3515 0 0 1 1.5007-.0018l2.1636 1.4305c.4291.2837.4291.9331 0 1.2169l-2.9145 1.927 2.9145 1.927c.4291.2836.4291.933 0 1.2168l-2.9145 1.927-3.761-2.5132Zm-.0033-.0694-3.782-2.5005L8.0016 3.3l3.7819 2.487-3.784 2.502Z" clip-rule="evenodd"/><path fill="currentColor" d="m3.8 12.55 4.0975-2.8 4.3025 2.8L7.8975 15 3.8 12.55Z"/></svg>