<svg xmlns="http://www.w3.org/2000/svg" fill="none" viewBox="0 0 32 32" class="acv-icon"><path fill="currentColor" d="M13.1662 20.3407c-1.6235-.9834-2.636-2.7756-2.636-4.6783V6.6082c0-.9484.227-1.8562.6459-2.6592L5.8402 7.1785c-1.6292.9834-2.6417 2.7756-2.6417 4.6783v8.2337c0 .9252.2444 1.8271.675 2.6185.4015.6517.9717 1.1987 1.6758 1.5943 1.4722.8263 3.2062.7914 4.6434-.0872l4.6668-2.8513-1.6933-1.0241Zm13.2146-3.1189-4.9111-2.9385v1.3325c0 1.8911-1.0009 3.6833-2.6127 4.6667l-8.0533 4.9286c-.8844.5411-1.8562.8263-2.8338.8495l5.1963 3.148A5.4612 5.4612 0 0 0 16 30a5.461 5.461 0 0 0 2.8337-.7914l7.3318-4.4397a3.949 3.949 0 0 0 .4539-.3143c.0465-.0291.0931-.064.1338-.0931.3782-.3084.7157-.6575.995-1.0415l.0349-.0524c.4481-.6925.6983-1.5071.6925-2.3625-.0059-1.5245-.7856-2.9036-2.0948-3.6833Zm-.2211-10.0433-7.326-4.434c-.2444-.1513-.5004-.2735-.7622-.3782a4.3843 4.3843 0 0 0-.8787-.2735c-1.0706-.2211-2.1879-.0465-3.1771.5179-1.4547.832-2.3217 2.3217-2.3217 3.9975v5.5861l1.6293-.9601a5.242 5.242 0 0 1 5.3475.0175l8.3093 4.9693c.7507.4538 1.3675 1.0532 1.8155 1.7573l.0058-6.1215c0-1.9027-1.0125-3.695-2.6417-4.6783Z"/></svg>