<svg xmlns="http://www.w3.org/2000/svg" fill="none" viewBox="0 0 16 16" class="acv-icon"><path fill="currentColor" fill-rule="evenodd" d="M.0019 4.5505c.0082.0278.3385 1.5517.734 3.3863.3955 1.8347.725 3.3455.7324 3.3574.0073.0119.4446.0217.9718.0217h.9585l.0312-.1517c.1301-.6327 1.3143-6.6094 1.3143-6.6335 0-.0208-.2161-.0307-.6707-.0307-.3689 0-.6707.0045-.6707.01 0 .0241-.9627 5.5275-.9776 5.5891-.0092.0376-.022.0631-.0285.0567-.0115-.0115-1.006-5.5756-1.006-5.6287 0-.0161-.285-.0271-.7017-.0271-.6547 0-.7009.0034-.687.0505Zm9.962.5271v.5776H11.1301V4.5H9.9638v.5776Zm2.3327 2.8303v3.408H16v-1.0397h-2.4786V4.5h-1.2248v3.408ZM6.4575 6.1166c-.3932.0703-.7764.2692-.9662.5013-.1126.1377-.1738.2499-.2612.4789-.059.155-.062.2184-.0712 1.6044-.0106 1.5937-.0027 1.6889.1702 2.0316.1032.2043.3628.4589.5785.5672.2952.1481.5563.1984 1.0381.2.499.0015.6862-.035 1.0283-.2007.479-.2318.7251-.6397.78-1.2918l.0211-.2512H7.5785l-.0103.255c-.009.2285-.0189.2664-.0942.3642-.1166.1513-.2767.2171-.5283.2171-.22 0-.3954-.0593-.4912-.1661-.1138-.1267-.1331-.2553-.1345-.8937l-.0012-.6134 1.2174-.0075 1.2175-.0076-.0016-.7509c-.0012-.6155-.0105-.7847-.0517-.9386-.1435-.5357-.4514-.8546-.9943-1.0296-.2037-.0658-.2945-.0772-.673-.0847-.2405-.0047-.4996.0025-.5756.0161Zm3.5063 2.6289v2.5704h1.1664V6.1751H9.9638v2.5704Zm-2.66-1.6697c.2134.1088.2689.2426.2689.649v.3275h-1.254l.0007-.3104c.0007-.34.0433-.4822.182-.6087.1742-.1589.5504-.1858.8023-.0574Z" clip-rule="evenodd"/></svg>