<svg xmlns="http://www.w3.org/2000/svg" fill="none" viewBox="0 0 32 32" class="acv-icon"><circle cx="16" cy="16" r="16" fill="#CADEF9"/><circle cx="16.3188" cy="20" r="2" fill="#1F56A2"/><path fill="#1F56A2" d="M20.6232 16.4675c.2227-.3898.1476-.8881-.2166-1.1505-1.1501-.8288-2.562-1.317-4.0878-1.317-1.5258 0-2.9375.4881-4.0876 1.3168-.3643.2624-.4394.7608-.2166 1.1506.3194.559 1.0954.6443 1.6399.3008.7713-.4866 1.6849-.7682 2.6643-.7682.9794 0 1.8931.2816 2.6644.7683.5445.3436 1.3206.2582 1.64-.3008ZM22.5097 13.166c.2298-.4022.1475-.915-.2241-1.1917C20.62 10.734 18.5552 10 16.319 10c-2.2364 0-4.3012.7341-5.9668 1.9745-.3716.2767-.454.7894-.2241 1.1917.3155.5522 1.0682.6561 1.5881.2897C13.0179 12.5387 14.6055 12 16.319 12c1.7134 0 3.3009.5386 4.6026 1.4558.5199.3663 1.2725.2624 1.5881-.2898Z"/></svg>