<svg xmlns="http://www.w3.org/2000/svg" fill="none" viewBox="0 0 16 16" class="acv-icon"><path fill="currentColor" fill-rule="evenodd" d="M4 5V3c0-1.6568 1.3431-3 3-3h2c1.6569 0 3 1.3432 3 3v2h2.5c.5523 0 1 .4477 1 1v1.691c0 .1894-.1058.361-.2802.435C14.3672 8.487 12.109 9.5 8 9.5S1.6327 8.487.7802 8.126C.6058 8.052.5 7.8803.5 7.691V6c0-.5523.4477-1 1-1H4Zm2-2c0-.5523.4477-1 1-1h2c.5523 0 1 .4477 1 1v2H6V3Z" clip-rule="evenodd"/><path fill="currentColor" d="M1.3887 9.9504C1.0067 9.7961.5 10.088.5 10.5V15c0 .5523.4477 1 1 1h13c.5523 0 1-.4477 1-1v-4.5c0-.412-.5067-.7039-.8887-.5496-.858.3466-1.9277.7954-4.3644.9727-.1374.01-.2478.1282-.2475.2659.0004.1496.0006.311.0006.311 0 .5-.5 1-1.5 1h-1c-1 0-1.5-.5-1.5-1l.0005-.311c.0004-.1377-.11-.2559-.2474-.2659-2.4367-.1773-3.5065-.6261-4.3644-.9727Z"/></svg>