<svg xmlns="http://www.w3.org/2000/svg" fill="none" viewBox="0 0 16 16" class="acv-icon"><path fill="currentColor" d="M9 2c0-.5523-.4477-1-1-1s-1 .4477-1 1v4c0 .5523.4477 1 1 1s1-.4477 1-1V2Z"/><path fill="currentColor" d="M5.5126 2.4474c-.306-.4598-.9268-.5845-1.3865-.2785C2.189 3.458 1 5.6287 1 8c0 3.866 3.134 7 7 7s7-3.134 7-7c0-2.3692-1.187-4.5383-3.1211-5.8278-.4595-.3064-1.0804-.1822-1.3868.2773-.3063.4595-.1822 1.0804.2773 1.3868C12.1529 4.7587 13 6.3067 13 8c0 2.7614-2.2386 5-5 5s-5-2.2386-5-5c0-1.6948.8486-3.244 2.2341-4.166.4598-.306.5845-.9268.2785-1.3866Z"/></svg>