<svg xmlns="http://www.w3.org/2000/svg" fill="none" viewBox="0 0 24 24" class="acv-icon"><path fill="currentColor" d="M13 7.4142V10c0 .5523-.4477 1-1 1s-1-.4477-1-1V7.4142l-.2929.293c-.3905.3904-1.0237.3904-1.4142 0-.3905-.3906-.3905-1.0238 0-1.4143l2-2c.3905-.3905 1.0237-.3905 1.4142 0l2 2c.3905.3905.3905 1.0237 0 1.4142-.3905.3905-1.0237.3905-1.4142 0L13 7.4142ZM5 13h2.5858l-.293.2929c-.3904.3905-.3904 1.0237 0 1.4142.3906.3905 1.0238.3905 1.4143 0l2-2c.3905-.3905.3905-1.0237 0-1.4142l-2-2c-.3905-.3905-1.0237-.3905-1.4142 0-.3905.3905-.3905 1.0237 0 1.4142L7.5858 11H5c-.5523 0-1 .4477-1 1s.4477 1 1 1ZM11 14v2.5858l-.2929-.2929c-.3905-.3905-1.0237-.3905-1.4142 0-.3905.3905-.3905 1.0237 0 1.4142l2 2c.3905.3905 1.0237.3905 1.4142 0l2-2c.3905-.3905.3905-1.0237 0-1.4142-.3905-.3905-1.0237-.3905-1.4142 0L13 16.5858V14c0-.5523-.4477-1-1-1s-1 .4477-1 1ZM19 11h-2.5858l.2929-.2929c.3905-.3905.3905-1.0237 0-1.4142-.3905-.3905-1.0237-.3905-1.4142 0l-2 2c-.3905.3905-.3905 1.0237 0 1.4142l2 2c.3905.3905 1.0237.3905 1.4142 0 .3905-.3905.3905-1.0237 0-1.4142L16.4142 13H19c.5523 0 1-.4477 1-1s-.4477-1-1-1Z"/><path fill="currentColor" fill-rule="evenodd" d="M12 23C5.9249 23 1 18.0751 1 12S5.9249 1 12 1s11 4.9249 11 11-4.9249 11-11 11Zm0-2c4.9706 0 9-4.0294 9-9s-4.0294-9-9-9-9 4.0294-9 9 4.0294 9 9 9Z" clip-rule="evenodd"/></svg>