<svg xmlns="http://www.w3.org/2000/svg" fill="none" viewBox="0 0 24 24" class="acv-icon"><path fill="currentColor" d="M8 16.5c-.5523 0-1 .4477-1 1s.4477 1 1 1 1-.4477 1-1-.4477-1-1-1ZM12 17.5c0-.5523.4477-1 1-1h3c.5523 0 1 .4477 1 1s-.4477 1-1 1h-3c-.5523 0-1-.4477-1-1Z"/><path fill="currentColor" fill-rule="evenodd" d="M4 3c0-.5523.4477-1 1-1s1 .4477 1 1v10h2V6c0-.5523.4477-1 1-1s1 .4477 1 1v7h4V6c0-.5523.4477-1 1-1s1 .4477 1 1v7h2V3c0-.5523.4477-1 1-1s1 .4477 1 1v10.1707c1.1652.4118 2 1.5231 2 2.8293v3c0 1.6569-1.3431 3-3 3H5c-1.6568 0-3-1.3431-3-3v-3c0-1.3062.8348-2.4175 2-2.8293V3Zm0 13c0-.5523.4477-1 1-1h14c.5523 0 1 .4477 1 1v3c0 .5523-.4477 1-1 1H5c-.5523 0-1-.4477-1-1v-3Z" clip-rule="evenodd"/></svg>