<svg xmlns="http://www.w3.org/2000/svg" fill="none" viewBox="0 0 32 32" class="acv-icon"><path fill="currentColor" fill-rule="evenodd" d="M10 6c0-1.1046.8954-2 2-2h8c1.1046 0 2 .8954 2 2v20c0 .5523-.4477 1-1 1h-4v-2c0-.5523-.4477-1-1-1s-1 .4477-1 1v2h-4c-.5523 0-1-.4477-1-1V6Zm3 2c0 .5523.4477 1 1 1h4c.5523 0 1-.4477 1-1s-.4477-1-1-1h-4c-.5523 0-1 .4477-1 1Zm1 5c-.5523 0-1-.4477-1-1s.4477-1 1-1h4c.5523 0 1 .4477 1 1s-.4477 1-1 1h-4Zm-1 3c0 .5523.4477 1 1 1h4c.5523 0 1-.4477 1-1s-.4477-1-1-1h-4c-.5523 0-1 .4477-1 1Zm1 5c-.5523 0-1-.4477-1-1s.4477-1 1-1h4c.5523 0 1 .4477 1 1s-.4477 1-1 1h-4Z" clip-rule="evenodd"/><path fill="currentColor" d="M8 10.6508c0-.3285-.3114-.5678-.6288-.4831l-1.8865.5031A1.9999 1.9999 0 0 0 4 12.6032V25c0 .5523.4477 1 1 1h3V10.6508ZM24 13h2c1.1046 0 2 .8954 2 2v10c0 .5523-.4477 1-1 1h-3V13Z"/></svg>