<svg xmlns="http://www.w3.org/2000/svg" fill="none" viewBox="0 0 24 24" class="acv-icon"><path fill="currentColor" fill-rule="evenodd" d="m11.1724 1.6742-9 3.9762C1.4584 5.9658 1 6.6577 1 7.42v9.16c0 .7623.4584 1.4542 1.1724 1.7696l9 3.9762a2.0527 2.0527 0 0 0 1.6552 0l9-3.9762C22.5416 18.0342 23 17.3423 23 16.58V7.42c0-.7623-.4584-1.4542-1.1724-1.7696l-9-3.9762a2.0526 2.0526 0 0 0-1.6552 0Zm.4512 8.8657h-1.93c-.0399-.5057-.3482-.806-1.0012-.806-.624 0-.896.2509-.8997.5931-.0181.3726.2975.5894 1.0013.7452l.6094.1369c1.6398.3688 2.3145 1.2015 2.3218 2.3879-.0073 1.5361-1.1355 2.3878-3.0183 2.3878-1.9372 0-3.1996-.8745-3.2069-2.8289h1.9154c.0327.7148.4898 1.0951 1.2625 1.0951.6457 0 .9795-.27.9867-.654-.0072-.3537-.2902-.5704-1.1173-.7605l-.74-.1673c-1.317-.2966-2.1223-.9734-2.1187-2.1901C5.6778 8.9962 6.9256 8 8.6924 8c1.7993 0 2.9239 1.0114 2.9312 2.5399Zm6.8763 3.1179C18.5072 15.0304 17.2266 16 15.4091 16c-1.7594 0-3.011-1.0266-3.0182-2.4791h2.0315c.0072.4525.4208.7757 1.0012.7757.5587 0 .9505-.3384.9432-.8213.0073-.4715-.4498-.8061-1.1028-.8061h-.7546v-1.4601h.7546c.6022 0 1.023-.3346 1.0158-.8061.0072-.4524-.3483-.7756-.8562-.7756-.555 0-.9504.3346-.9577.8061H12.536C12.5432 9.0076 13.7404 8 15.4236 8c1.647 0 2.8079.9544 2.8006 2.2662.0073.8707-.6384 1.4676-1.5236 1.5665v.0608c1.1971.1369 1.8066.8099 1.7993 1.7643Z" clip-rule="evenodd"/></svg>