<svg xmlns="http://www.w3.org/2000/svg" fill="none" viewBox="0 0 16 16" class="acv-icon"><path fill="currentColor" fill-rule="evenodd" d="M4.533 1.431C5.712 1.16 7.29 1 9 1c1.71 0 3.289.159 4.468.431.581.134 1.12.308 1.54.537.208.114.434.266.618.474a1.418 1.418 0 0 1 .373.999 1.45 1.45 0 0 1-.114.62l-1.736 8.678c-.046.563-.4.962-.703 1.2-.335.265-.758.46-1.192.604-.88.293-2.03.457-3.254.457-1.224 0-2.375-.164-3.253-.457-.434-.145-.858-.34-1.193-.603a1.983 1.983 0 0 1-.54-.635 5.55 5.55 0 0 1-.562-.005c-.677-.04-1.393-.216-2.01-.63-.635-.429-1.107-1.074-1.32-1.928-.337-1.347.067-2.45.684-3.235a4.825 4.825 0 0 1 1.728-1.355l-.418-2.091A1.395 1.395 0 0 1 2 3.44v-.056c0-.41.183-.729.373-.943.184-.208.41-.36.619-.474.418-.229.958-.403 1.54-.537ZM2.946 8.215a2.673 2.673 0 0 0-.568.528c-.3.382-.479.862-.316 1.514.096.383.279.606.498.754.237.16.575.266 1.004.293l-.618-3.09Zm3.567 4.473c.23-.109.442-.229.634-.356a20.5 20.5 0 0 0 1.867-1.413 1.5 1.5 0 1 0-.961-1.815 18.46 18.46 0 0 1-2.016 1.564 3.23 3.23 0 0 1-.506.27L4.446 5.513l.069.018C5.701 5.827 7.286 6 9 6c1.714 0 3.3-.173 4.485-.47l.07-.017-1.376 6.877c-.095.067-.273.16-.558.255-.625.209-1.551.355-2.62.355-.996 0-1.868-.127-2.488-.312ZM4.67 3.5c.1-.03.21-.06.33-.09C5.986 3.162 7.4 3 9 3s3.014.163 4 .41c.12.03.23.06.33.09-.1.03-.21.06-.33.09-.986.247-2.4.41-4 .41s-3.014-.163-4-.41c-.12-.03-.23-.06-.33-.09Z" clip-rule="evenodd"/></svg>