<svg xmlns="http://www.w3.org/2000/svg" fill="none" viewBox="0 0 16 16" class="acv-icon"><path fill="currentColor" fill-rule="evenodd" d="M6 10c-2.3333 0-3.5-2.25-3.5-5.0625C2.5 2.7629 3.0833 1 6 1s3.5 1.7629 3.5 3.9375C9.5 7.75 8.3333 10 6 10Zm-.939-2.5525C5.3206 7.8545 5.5937 8 6 8c.4062 0 .6793-.1455.939-.5525.3125-.4895.561-1.3407.561-2.51 0-.9967-.1537-1.4402-.2821-1.6196l-.0026-.0037C7.1849 3.2694 7.0024 3 6 3s-1.185.2694-1.2153.3142l-.0026.0037c-.1284.1794-.2821.6229-.2821 1.6196 0 1.1693.2485 2.0205.561 2.51ZM12 12.4415V14c0 1.1046-.8954 2-2 2H2c-1.1046 0-2-.8954-2-2v-1.5585c0-.8608.5509-1.6251 1.3675-1.8974l1.0455-.3484a1.9991 1.9991 0 0 1 1.182-.0257l1.8556.5302a2 2 0 0 0 1.0988 0l1.8557-.5302a1.9991 1.9991 0 0 1 1.1819.0257l1.0455.3484A2.0002 2.0002 0 0 1 12 12.4415Zm-10 0V14h8v-1.5585l-1.0455-.3485-1.8556.5302a4 4 0 0 1-2.1978 0l-1.8556-.5302L2 12.4415ZM11 9.5c-.6031 0-1.1152-.1591-1.5364-.4414.367-.5869.6365-1.2827.8085-2.0534.037.076.0754.1412.1138.1958.0878.1248.169.1876.2363.2233.065.0343.1778.0757.3778.0757s.3128-.0414.3778-.0758c.0673-.0356.1485-.0984.2363-.2232.1925-.2737.3859-.8141.3859-1.6385 0-.335-.0259-.5715-.0643-.7354-.0288-.1226-.0576-.1745-.0661-.188-.0095-.0065-.0307-.0187-.0711-.0345C11.6914 4.563 11.4511 4.5 11 4.5c-.2112 0-.3762.0138-.5029.0328-.0152-.713-.0918-1.3845-.2752-1.981.235-.034.4936-.0518.7781-.0518 2.5 0 3 1.3711 3 3.0625C14 7.75 13 9.5 11 9.5Zm.8761-4.8554s-.0022-.0014-.005-.0044a.0256.0256 0 0 1 .005.0044Z" clip-rule="evenodd"/><path fill="currentColor" d="M14 16h-1.684A2.9879 2.9879 0 0 0 13 14.093V14h1v-1.6667l-.7372-.2457a1.0009 1.0009 0 0 0-.2734-.0504 2.9996 2.9996 0 0 0-.8054-1.8041l.2211-.0631a1.9991 1.9991 0 0 1 1.1819.0257l1.0455.3485A2 2 0 0 1 16 12.4415V14c0 1.1046-.8954 2-2 2Z"/></svg>