<svg xmlns="http://www.w3.org/2000/svg" fill="none" viewBox="0 0 24 24" class="acv-icon"><path fill="currentColor" d="M4 6c0 .5523.4477 1 1 1s1-.4477 1-1-.4477-1-1-1-1 .4477-1 1ZM16 7c-.5523 0-1-.4477-1-1s.4477-1 1-1 1 .4477 1 1-.4477 1-1 1ZM18 6c0 .5523.4477 1 1 1s1-.4477 1-1-.4477-1-1-1-1 .4477-1 1ZM4 12c0 .5523.4477 1 1 1s1-.4477 1-1-.4477-1-1-1-1 .4477-1 1ZM13 13c-.5523 0-1-.4477-1-1s.4477-1 1-1 1 .4477 1 1-.4477 1-1 1ZM16 13c-.5523 0-1-.4477-1-1s.4477-1 1-1 1 .4477 1 1-.4477 1-1 1ZM18 12c0 .5523.4477 1 1 1s1-.4477 1-1-.4477-1-1-1-1 .4477-1 1ZM18 18c0 .5523.4477 1 1 1s1-.4477 1-1-.4477-1-1-1-1 .4477-1 1ZM15 18c0 .5523.4477 1 1 1s1-.4477 1-1-.4477-1-1-1-1 .4477-1 1ZM5 19c-.5523 0-1-.4477-1-1s.4477-1 1-1 1 .4477 1 1-.4477 1-1 1Z"/><path fill="currentColor" fill-rule="evenodd" d="M1 2.9918C1 2.444 1.4553 2 1.9918 2h20.0164c.5478 0 .9918.4553.9918.9918v18.0164c0 .5478-.4553.9918-.9918.9918H1.9918C1.4441 22 1 21.5447 1 21.0082V2.9918ZM3 8h18V4H3v4Zm18 2v4H3v-4h18ZM3 16v4h18v-4H3Z" clip-rule="evenodd"/></svg>