<svg xmlns="http://www.w3.org/2000/svg" fill="none" viewBox="0 0 24 24" class="acv-icon"><path fill="currentColor" d="M1.929 8.628a1 1 0 1 0-1.857.743l2 5a1 1 0 0 0 1.857 0l1.7-4.25a.193.193 0 0 1 .371.071V14a1 1 0 1 0 2 0v-3.25a.75.75 0 0 1 1.5 0V14a1 1 0 1 0 2 0v-3.25a.75.75 0 0 1 1.5 0V14a1 1 0 1 0 2 0v-3.25a2.75 2.75 0 0 0-4.5-2.122A2.739 2.739 0 0 0 8.75 8c-.58 0-1.12.18-1.564.487a2.193 2.193 0 0 0-3.415.89l-.77 1.93-1.072-2.679ZM15.713 8.042a1 1 0 0 1 1.245.67l.677 2.258.936-2.342a1 1 0 0 1 1.857 0l.937 2.342.677-2.258a1 1 0 1 1 1.916.575l-1.5 5a1 1 0 0 1-1.887.084L19.5 11.692l-1.072 2.68a1 1 0 0 1-1.886-.085l-1.5-5a1 1 0 0 1 .67-1.245Z"/></svg>