<svg xmlns="http://www.w3.org/2000/svg" fill="none" viewBox="0 0 32 32" class="acv-icon"><path fill="currentColor" fill-rule="evenodd" d="M24 21h6v3c0 2.2091-1.7909 4-4 4H12c-2.2091 0-4-1.7909-4-4V11H2V8c0-2.2091 1.7909-4 4-4h14c2.2091 0 4 1.7909 4 4v13ZM9.4648 6A3.9816 3.9816 0 0 1 10 8v16c0 1.1046.8954 2 2 2h1c1.1045 0 2-.8954 2-2v-3h7V8c0-1.1046-.8955-2-2-2H9.4648ZM17 23h11v1c0 1.1046-.8955 2-2 2h-9.5352A3.9808 3.9808 0 0 0 17 24v-1ZM8 9V8c0-1.1046-.8954-2-2-2s-2 .8954-2 2v1h4Zm4 1h8v2h-8v-2Zm0 4h8v2h-8v-2Zm8 4h-8v2h8v-2Z" clip-rule="evenodd"/></svg>