<svg xmlns="http://www.w3.org/2000/svg" fill="none" viewBox="0 0 16 16" class="acv-icon"><path fill="currentColor" fill-rule="evenodd" d="M7.858.01A1 1 0 0 1 9 1v14a1 1 0 0 1-1.142.99l-7-1A1 1 0 0 1 0 14V2a1 1 0 0 1 .859-.99l7-1ZM4.505 5c1.405 0 2.23.662 2.368 1.732l-1.412.091c-.076-.374-.395-.68-.93-.68-.478 0-.855.226-.851.574-.004.28.188.466.706.583l1.006.212c1.08.23 1.604.734 1.608 1.574C6.996 10.232 5.964 11 4.523 11 3.05 11 2.145 10.315 2 9.203l1.517-.083c.094.472.46.718 1.01.718.54 0 .898-.246.905-.59-.007-.291-.228-.476-.713-.579l-.963-.2c-1.086-.227-1.611-.79-1.608-1.66-.003-1.12.934-1.81 2.357-1.81Z" clip-rule="evenodd"/><path fill="currentColor" d="M10 13.732c.409-.236.726-.613.886-1.065a4.757 4.757 0 0 0 3.435-2.693 2 2 0 0 0 0-3.948 4.757 4.757 0 0 0-3.435-2.694A2.006 2.006 0 0 0 10 2.268v3.464c.352-.203.636-.51.81-.88.858.22 1.58.782 2.01 1.532a1.997 1.997 0 0 0 0 3.231 3.257 3.257 0 0 1-2.01 1.533 2.008 2.008 0 0 0-.81-.88v3.464Z"/></svg>