<svg xmlns="http://www.w3.org/2000/svg" fill="none" viewBox="0 0 24 24" class="acv-icon"><path fill="currentColor" fill-rule="evenodd" d="m12.5145 1.1425 8.9999 5A1 1 0 0 1 21.9999 7v6h-2V8.795L13 12.4743v4.0429l-.5294.7148c-1.1119 1.3202-1.1119 3.2157 0 4.5359l.5844.7892-.5405.3003a1 1 0 0 1-1.029 0l-9-5A.9999.9999 0 0 1 2 17V7a1 1 0 0 1 .4855-.8575l9-5a1 1 0 0 1 1.029 0ZM4 8.795v7.616l7 3.8899v-7.8266L4 8.795Zm15.0047-1.7589L12 10.718 4.9942 7.0356 12 3.1446l7.0048 3.8915Z" clip-rule="evenodd"/><path fill="currentColor" fill-rule="evenodd" d="M16.1811 15.5823c.33-.3687.7233-.5823 1.2421-.5823h5.1039c.9594 0 1.4728.6164 1.4728 1.5v6c0 .8837-.5134 1.5-1.4728 1.5l-5.1039-.0001c-.5188 0-.9121-.2136-1.2421-.5823l-2.1478-2.9c-.5288-.591-.5288-1.4443 0-2.0353l2.1478-2.9Zm1.7374 3.9369c0 .5537-.4489 1.0027-1.0027 1.0027-.5538 0-1.0028-.449-1.0028-1.0027 0-.5538.449-1.0028 1.0028-1.0028.5538 0 1.0027.449 1.0027 1.0028Z" clip-rule="evenodd"/></svg>