<svg xmlns="http://www.w3.org/2000/svg" fill="none" viewBox="0 0 16 16" class="acv-icon"><path fill="currentColor" d="M4.5 3h-1a.5.5 0 0 0 0 1h1a.5.5 0 0 0 0-1Z"/><path fill="currentColor" fill-rule="evenodd" d="M12.9569 12.4372c.0833.1169.0422.2705-.0918.3432-.4275.2317-.7687.12-1.0294-.1887-.184.4274-.5214.4574-.8148.1227-.1932.2026-.377.3-.5849.2839-.1922-.0149-.352-.1231-.5024-.3419a2.666 2.666 0 0 1-.5121.313c-.1389.0653-.3122.0201-.3872-.101-.075-.1211-.023-.2723.1158-.3377.2044-.0962.3816-.2152.5317-.3578-.087-.207-.1755-.456-.27-.7507-.1747-.5452.0755-1.1103.5208-1.3317.5834-.29 1.0159.1463.9106.8925-.0704.4986-.2393.9225-.5059 1.2676a1.905 1.905 0 0 0 .0278.051c.0458.0811.0876.1404.1229.1779l.0086-.0072c.006-.0049.013-.0108.0209-.0176.0789-.0679.1764-.1822.288-.3409.1224-.1741.42-.1528.5082.0365.0144.031.0285.06.0422.0869l.0022-.0106c.0245-.1158.0487-.198.0793-.2599.0623-.1259.1672-.217.3514-.1979.1313.0136.1986.0702.2667.161.0217.0289.0766.119.1198.1898.0244.04.0451.0739.0537.0869.1309.1966.1939.2267.3344.1505.1341-.0726.3102-.0367.3935.0802Zm-2.6809-1.5151c.0324-.229.008-.3696-.0322-.4175l-.0025-.0031-.0017-.0014.0042.0045c.0003.0029-.0051.0074-.0283.0189-.213.1059-.3588.4353-.2533.7645.0388.1209.0764.2329.113.3361.0969-.2061.1638-.4398.2008-.702Z" clip-rule="evenodd"/><path fill="currentColor" d="M5 10.5a.5.5 0 0 0-.5-.5h-1a.5.5 0 0 0 0 1h1a.5.5 0 0 0 .5-.5ZM3.5 12h1a.5.5 0 0 1 0 1h-1a.5.5 0 0 1 0-1ZM3.5 8h1a.5.5 0 0 1 0 1h-1a.5.5 0 0 1 0-1Z"/><path fill="currentColor" fill-rule="evenodd" d="M1 0h14c.5523 0 1 .4477 1 1v14c0 .5523-.4477 1-1 1H1c-.5523 0-1-.4477-1-1V1c0-.5523.4477-1 1-1Zm1 2v3h12V2H2Zm6 12h6V7H8v7ZM6 7H2v7h4V7Z" clip-rule="evenodd"/></svg>