<svg xmlns="http://www.w3.org/2000/svg" fill="none" viewBox="0 0 32 32" class="acv-icon"><path fill="currentColor" d="M14 27H4V5h18v2c0 .5523.4477 1 1 1s1-.4477 1-1V4c0-.5523-.4477-1-1-1H3c-.5523 0-1 .4477-1 1v24c0 .5523.4477 1 1 1h11c.5 0 1-.5 1-1s-.5-1-1-1Z"/><path fill="currentColor" d="M7 22.5h5c.5523 0 1 .4477 1 1s-.4477 1-1 1H7c-.5523 0-1-.4477-1-1s.4477-1 1-1ZM7 18.5h8c.5523 0 1 .4477 1 1s-.4477 1-1 1H7c-.5523 0-1-.4477-1-1s.4477-1 1-1Z"/><path fill="currentColor" fill-rule="evenodd" d="M28.2075 10.7342c-.8717-.5166-1.6685-.6894-2.2645-.7261-.2965-.0183-.5413-.0029-.7197.0192a2.8456 2.8456 0 0 0-.2169.0349c-.1092.0221-.2168.053-.3242.0837a8.7633 8.7633 0 0 1-.1281.0361l-6.7157 11.9404-.3365 5.755c-.0508.8695.8873 1.4255 1.5955.9455l4.6869-3.1766 6.7156-11.9404c-.0115-.0438-.0225-.0878-.0336-.1319-.0277-.1108-.0555-.2221-.0914-.3301a3.0747 3.0747 0 0 0-.079-.2103c-.0706-.1696-.18-.395-.3436-.6494-.329-.5114-.8732-1.1334-1.7448-1.65Zm-8.0321 10.7571 3.6681-6.522 2.9441 1.8133-3.6682 6.5219-2.944-1.8132Zm-.6763 1.6382-.2016 3.4464 2.76-1.8706-2.5584-1.5758Zm8.1468-7.873-2.9441-1.8133.9455-1.681a2.5352 2.5352 0 0 1 .1928.0047c.3618.0223.8943.1288 1.5091.4932.6149.3643.971.7845 1.1707 1.095.039.0607.0722.1174.1003.1691l-.9743 1.7323Z" clip-rule="evenodd"/><path fill="currentColor" d="M14.5788 7.4518c0-.5257-.482-.9518-1.0765-.9518-.5946 0-1.0766.4261-1.0766.9518v.0711c-.4219.1024-.8317.2726-1.1844.5256-.6158.4417-1.0084 1.1075-.9618 1.925l.0001.0021c.0259.435.1614.8318.4176 1.1746.2531.3388.5853.5731.9185.7388.569.2831 1.2642.4167 1.7682.5136l.1209.0234c.6128.1193.962.2073 1.1737.3336.0789.0471.1082.0836.1248.1134.0181.0323.0546.1173.0456.303l-.0001.0029c-.0038.0845-.0354.1622-.198.2539-.1901.1073-.5136.194-.9195.1933-.8838-.0014-1.4826-.3683-1.6244-.7665-.1786-.5013-.7831-.7798-1.3502-.6218-.5671.1579-.882.6924-.7034 1.1938.379 1.0637 1.3581 1.6621 2.3724 1.9283v.1883c0 .5257.482.9518 1.0766.9518.5945 0 1.0765-.4261 1.0765-.9518v-.0891c.4331-.0744.8564-.2106 1.2303-.4216.6453-.3641 1.1532-.9669 1.1909-1.7801.0213-.4398-.058-.8549-.2664-1.2277-.2097-.3753-.5174-.6491-.8505-.8479-.602-.3593-1.3613-.5071-1.8882-.6096l-.0269-.0053c-.6313-.1229-1.0239-.2013-1.2965-.3369-.1111-.0553-.1562-.1-.1779-.1291-.0187-.0249-.0554-.0844-.0639-.2243-.0096-.1735.0529-.2672.1681-.3498.1487-.1067.4176-.2037.7735-.221.8022-.0387 1.2588.2966 1.3409.5793.148.5092.7347.8159 1.3105.6851.5759-.1308.9228-.6496.7748-1.1587-.3076-1.0589-1.244-1.6362-2.2187-1.8761v-.0836Z"/></svg>