<svg xmlns="http://www.w3.org/2000/svg" fill="none" viewBox="0 0 32 32" class="acv-icon"><circle cx="16" cy="16" r="13" fill="#2071C5"/><circle cx="16" cy="16" r="12.5" stroke="#243143" stroke-opacity=".1"/><path fill="#fff" d="M16 8.25c-4.2802 0-7.75 3.4698-7.75 7.75s3.4698 7.75 7.75 7.75 7.75-3.4698 7.75-7.75c0-.6904.5596-1.25 1.25-1.25s1.25.5596 1.25 1.25c0 5.6609-4.5891 10.25-10.25 10.25S5.75 21.6609 5.75 16 10.3391 5.75 16 5.75c.6904 0 1.25.5596 1.25 1.25S16.6904 8.25 16 8.25Z"/><path fill="#fff" d="M17.5 16c0 .8284-.6716 1.5-1.5 1.5s-1.5-.6716-1.5-1.5.6716-1.5 1.5-1.5 1.5.6716 1.5 1.5Z"/><path fill="#fff" d="M12.75 16c0-1.7949 1.4551-3.25 3.25-3.25.6904 0 1.25-.5596 1.25-1.25s-.5596-1.25-1.25-1.25c-3.1756 0-5.75 2.5744-5.75 5.75s2.5744 5.75 5.75 5.75 5.75-2.5744 5.75-5.75c0-.6904-.5596-1.25-1.25-1.25s-1.25.5596-1.25 1.25c0 1.7949-1.4551 3.25-3.25 3.25s-3.25-1.4551-3.25-3.25Z"/></svg>