<svg xmlns="http://www.w3.org/2000/svg" fill="none" viewBox="0 0 32 32" class="acv-icon"><path fill="currentColor" fill-rule="evenodd" d="M4.5 3.5C4.5 2.6716 5.1716 2 6 2h15.2929c.3978 0 .7793.158 1.0607.4393l4.7071 4.7072A1.5 1.5 0 0 1 27.5 8.207v5.5858c0 .3978-.158.7793-.4393 1.0607l-3 3c-.5858.5857-1.5356.5857-2.1214 0L19.5 15.4142l-2.4393 2.4394c-.5858.5857-1.5356.5857-2.1214 0L12.5 15.4142l-2.4393 2.4394c-.5858.5857-1.5356.5857-2.1214 0l-3-3A1.5003 1.5003 0 0 1 4.5 13.7929V3.5Zm2 .5v9.5858l2.5 2.5 2.4393-2.4394c.5858-.5857 1.5356-.5857 2.1214 0L16 16.0858l2.4393-2.4394c.5858-.5857 1.5356-.5857 2.1214 0L23 16.0858l2.5-2.5V9.5h-4c-.8284 0-1.5-.6716-1.5-1.5V4H6.5Zm15.5.9142V7.5h2.5858L22 4.9142Z" clip-rule="evenodd"/><path fill="currentColor" fill-rule="evenodd" d="M11.4393 18.6464c.5858-.5858 1.5356-.5858 2.1214 0L16 21.0858l2.4393-2.4394c.5858-.5858 1.5356-.5858 2.1214 0L23 21.0858l1.9393-1.9394c.945-.9449 2.5607-.2757 2.5607 1.0607V28.5c0 .8284-.6716 1.5-1.5 1.5H6c-.8284 0-1.5-.6716-1.5-1.5v-8.2929c0-1.3364 1.6157-2.0056 2.5607-1.0607L9 21.0858l2.4393-2.4394ZM12.5 20.4142l-2.4393 2.4393c-.5858.5858-1.5356.5858-2.1214 0L6.5 21.4142V28h19v-6.5858l-1.4393 1.4393c-.5858.5858-1.5356.5858-2.1214 0L19.5 20.4142l-2.4393 2.4393c-.5858.5858-1.5356.5858-2.1214 0L12.5 20.4142Z" clip-rule="evenodd"/></svg>