<svg xmlns="http://www.w3.org/2000/svg" fill="none" viewBox="0 0 24 24" class="acv-icon"><path fill="currentColor" d="M1 2c0-.5523.4477-1 1-1h6c.5523 0 1 .4477 1 1s-.4477 1-1 1H3v5c0 .5523-.4477 1-1 1s-1-.4477-1-1V2ZM1 16c0-.5523.4477-1 1-1s1 .4477 1 1v5h5c.5523 0 1 .4477 1 1s-.4477 1-1 1H2c-.5523 0-1-.4477-1-1v-6ZM21 16c0-.5523.4477-1 1-1s1 .4477 1 1v6c0 .5523-.4477 1-1 1h-6c-.5523 0-1-.4477-1-1s.4477-1 1-1h5v-5ZM22 1c.5523 0 1 .4477 1 1v6c0 .5523-.4477 1-1 1s-1-.4477-1-1V3h-5c-.5523 0-1-.4477-1-1s.4477-1 1-1h6ZM11 8c0-.5523.4477-1 1-1s1 .4477 1 1v3h3c.5523 0 1 .4477 1 1s-.4477 1-1 1h-3v3c0 .5523-.4477 1-1 1s-1-.4477-1-1v-3H8c-.5523 0-1-.4477-1-1s.4477-1 1-1h3V8Z"/></svg>