<svg xmlns="http://www.w3.org/2000/svg" fill="none" viewBox="0 0 32 32" class="acv-icon"><path fill="currentColor" fill-rule="evenodd" d="M28.207 5.2071c.3906-.3905.3906-1.0237 0-1.4142-.3905-.3905-1.0237-.3905-1.4142 0l-2.3783 2.3783c-1.9414-1.2862-4.5828-1.074-6.2933.6364l-1.4497 1.4497-1.4644-1.4644c-.3905-.3905-1.0237-.3905-1.4142 0-.3905.3905-.3905 1.0237 0 1.4142l2.5429 2.5429-2.5429 2.5429c-.3905.3905-.3905 1.0237 0 1.4142.3905.3905 1.0237.3905 1.4142 0l2.5429-2.5429 2.0858 2.0858-2.5429 2.5429c-.3905.3905-.3905 1.0237 0 1.4142.3905.3905 1.0237.3905 1.4142 0l2.5429-2.5429 2.5429 2.5429c.3905.3905 1.0237.3905 1.4142 0 .3905-.3905.3905-1.0237 0-1.4142l-1.4645-1.4645 1.4497-1.4497c1.7105-1.7105 1.9226-4.3519.6364-6.2933l2.3783-2.3783Zm-4.429 7.2574-1.4497 1.4497-4.2426-4.2427 1.4497-1.4497c1.1716-1.1715 3.0711-1.1715 4.2426 0 1.1716 1.1716 1.1716 3.0711 0 4.2427ZM8.2071 13.7929c-.3905-.3905-1.0237-.3905-1.4142 0-.3905.3905-.3905 1.0237 0 1.4142l1.4645 1.4645-1.4498 1.4497c-1.7104 1.7105-1.9226 4.3519-.6364 6.2933L3.793 26.7929c-.3905.3905-.3905 1.0237 0 1.4142.3905.3905 1.0237.3905 1.4142 0l2.3783-2.3783c1.9414 1.2862 4.5828 1.0741 6.2933-.6364l1.4497-1.4498 1.4645 1.4645c.3905.3905 1.0237.3905 1.4142 0 .3905-.3905.3905-1.0237 0-1.4142l-10-10Zm1.4646 4.2929 4.2426 4.2426-1.4497 1.4498c-1.1716 1.1715-3.071 1.1715-4.2427 0-1.1715-1.1716-1.1715-3.0711 0-4.2427l1.4498-1.4497Z" clip-rule="evenodd"/></svg>