<svg xmlns="http://www.w3.org/2000/svg" fill="none" viewBox="0 0 24 24" class="acv-icon"><path fill="currentColor" d="M11.5556 15.0111c1.08 0 1.9555-.8755 1.9555-1.9555 0-1.0801-.8755-1.9556-1.9555-1.9556-1.0801 0-1.9556.8755-1.9556 1.9556 0 1.08.8755 1.9555 1.9556 1.9555Z"/><path fill="currentColor" fill-rule="evenodd" d="M9.86 2c.7434 0 1.412.4526 1.6881 1.143l1.1324 2.831a.909.909 0 0 0 .8441.5714h6.6572c1.0042 0 1.8182.814 1.8182 1.8182v10.8182C22 20.186 21.186 21 20.1818 21H3.8182C2.814 21 2 20.186 2 19.1818V3.8182C2 2.814 2.814 2 3.8182 2h6.0417Zm1.6956 14.6111a3.539 3.539 0 0 0 1.8502-.5187l1.1618 1.1618a.839.839 0 0 0 1.1866 0 .839.839 0 0 0 0-1.1866l-1.1618-1.1618a3.539 3.539 0 0 0 .5187-1.8502c0-1.9637-1.5919-3.5556-3.5555-3.5556C9.5919 9.5 8 11.0919 8 13.0556c0 1.9636 1.5919 3.5555 3.5556 3.5555Z" clip-rule="evenodd"/></svg>