<svg xmlns="http://www.w3.org/2000/svg" fill="none" viewBox="0 0 24 24" class="acv-icon"><path fill="currentColor" d="M13 8.874C14.7252 8.43 16 6.8638 16 5c0-2.2091-1.7909-4-4-4-2.2091 0-4 1.7909-4 4 0 1.8638 1.2748 3.43 3 3.874v2.0707h-.7128c-2.7793 0-5.1692 1.6671-6.2243 4.0559A3.2855 3.2855 0 0 0 4 15c-1.6568 0-3 1.3431-3 3s1.3432 3 3 3c1.6569 0 3-1.3431 3-3 0-.9181-.4124-1.7399-1.0621-2.2902.766-1.6337 2.4256-2.7651 4.3493-2.7651H11v3.226C9.8348 16.5825 9 17.6938 9 19c0 1.6569 1.3431 3 3 3s3-1.3431 3-3c0-1.3062-.8348-2.4175-2-2.8293v-3.226h.6021c1.9508 0 3.6298 1.1635 4.3811 2.8344C17.3792 16.3279 17 17.1196 17 18c0 1.6569 1.3431 3 3 3s3-1.3431 3-3-1.3431-3-3-3c-.0576 0-.1149.0016-.1717.0048-1.0542-2.391-3.4453-4.0601-6.2262-4.0601H13V8.874Z"/></svg>