<svg xmlns="http://www.w3.org/2000/svg" fill="none" viewBox="0 0 24 24" class="acv-icon"><path fill="currentColor" d="M17 17c0-.5523.4477-1 1-1s1 .4477 1 1-.4477 1-1 1-1-.4477-1-1Z"/><path fill="currentColor" fill-rule="evenodd" d="M15.5 2h5C21.8807 2 23 3.1193 23 4.5v15c0 1.3807-1.1193 2.5-2.5 2.5h-5c-1.3807 0-2.5-1.1193-2.5-2.5V18h-2c0-.0001 0 0 0 0v1c0 .5523.4477 1 1 1s1 .4477 1 1-.4477 1-1 1H8c-.5523 0-1-.4477-1-1s.4477-1 1-1 1-.4477 1-1v-1H3.5C2.1193 18 1 16.8807 1 15.5v-9C1 5.1192 2.1193 4 3.5 4h9.55c.2317-1.1411 1.2405-2 2.45-2ZM15 4.5v15a.5.5 0 0 0 .5.5h5a.5.5 0 0 0 .5-.5v-15a.5.5 0 0 0-.5-.5h-5a.5.5 0 0 0-.5.5ZM13 16V6H3.5a.5.5 0 0 0-.5.5v9a.5.5 0 0 0 .5.5H13Z" clip-rule="evenodd"/></svg>