<svg xmlns="http://www.w3.org/2000/svg" fill="none" viewBox="0 0 32 32" class="acv-icon"><path fill="currentColor" fill-rule="evenodd" d="M4 3c-1.1046 0-2 .8954-2 2v18c0 1.1046.8954 2 2 2h8l-.8447 3.3787c-.0789.3156.1598.6213.4851.6213h8.7192c.3253 0 .564-.3057.4851-.6213L20 25h8c1.1046 0 2-.8954 2-2V5c0-1.1046-.8954-2-2-2H4Zm11.7998 5.8125c.842.1335 1.832-.1986 2.5898-.9538.7578-.7552 1.0911-1.7417.9571-2.5808l-.0009.001c-.842-.1336-1.8319.1986-2.5897.9538s-1.0912 1.7417-.9572 2.5807l.0009-.0009ZM19.0069 9c-.674 0-1.1339.234-1.5518.4467-.3478.177-.6664.3391-1.0549.3391-.419 0-.8209-.1669-1.242-.3417-.4632-.1924-.9495-.3944-1.5074-.3944C12.2021 9.0504 10 10.4403 10 13.7148c0 2.979 2.6063 6.2851 4.0775 6.2851.4164.0043.6859-.1218.9776-.2584.3342-.1564.6977-.3265 1.3451-.3299.6527-.005 1.0301.1678 1.3788.3273.2997.1372.5782.2646.9919.261 1.0077-.0078 1.7946-1.1547 2.3694-2.0633.3941-.6216.5664-.9525.8597-1.6223-1.1474-.4234-1.9653-1.5237-1.9653-2.8143 0-1.2787.8028-2.3706 1.9336-2.8023C21.3738 9.7973 19.8994 9 19.0069 9Z" clip-rule="evenodd"/></svg>