<svg xmlns="http://www.w3.org/2000/svg" fill="none" viewBox="0 0 24 24" class="acv-icon"><path fill="currentColor" d="M4 5c-.5523 0-1-.4477-1-1s.4477-1 1-1 1 .4477 1 1-.4477 1-1 1ZM14 4c0 .5523.4477 1 1 1s1-.4477 1-1-.4477-1-1-1-1 .4477-1 1ZM17 4c0 .5523.4477 1 1 1s1-.4477 1-1-.4477-1-1-1-1 .4477-1 1Z"/><path fill="currentColor" fill-rule="evenodd" d="M.9918 0C.4553 0 0 .444 0 .9918v18.0164C0 19.5447.444 20 .9918 20h9.2602A8.0156 8.0156 0 0 1 10 18H2v-4h9.0703a8.0344 8.0344 0 0 1 1.6381-2H2V8h18v2.252a7.9535 7.9535 0 0 1 2 .8183V.9918C22 .4553 21.556 0 21.0082 0H.9918ZM20 6H2V2h18v4Z" clip-rule="evenodd"/><path fill="currentColor" d="M14.4444 10.8316a7.9456 7.9456 0 0 1 1.5212-.5706A1.0027 1.0027 0 0 0 16 10c0-.5523-.4477-1-1-1s-1 .4477-1 1a.999.999 0 0 0 .4444.8316ZM18 10c.338 0 .6711.021.9981.0617A.9709.9709 0 0 0 19 10c0-.5523-.4477-1-1-1s-1 .4477-1 1c0 .0207.0006.0413.0019.0617A8.0783 8.0783 0 0 1 18 10ZM4 11c-.5523 0-1-.4477-1-1s.4477-1 1-1 1 .4477 1 1-.4477 1-1 1ZM12 11c-.5523 0-1-.4477-1-1s.4477-1 1-1 1 .4477 1 1-.4477 1-1 1ZM4 17c-.5523 0-1-.4477-1-1s.4477-1 1-1 1 .4477 1 1-.4477 1-1 1Z"/><path fill="currentColor" fill-rule="evenodd" d="M18 24c3.3137 0 6-2.6863 6-6s-2.6863-6-6-6-6 2.6863-6 6 2.6863 6 6 6Zm1-6.5858V21c0 .5523-.4477 1-1 1s-1-.4477-1-1v-3.5858l-1.2929 1.2929c-.3905.3905-1.0237.3905-1.4142 0-.3905-.3905-.3905-1.0237 0-1.4142l3-3c.3905-.3905 1.0237-.3905 1.4142 0l3 3c.3905.3905.3905 1.0237 0 1.4142-.3905.3905-1.0237.3905-1.4142 0L19 17.4142Z" clip-rule="evenodd"/></svg>