<svg xmlns="http://www.w3.org/2000/svg" fill="none" viewBox="0 0 32 32" class="acv-icon"><path fill="currentColor" fill-rule="evenodd" d="M5 9c0-2.2091 1.7909-4 4-4h14c2.2091 0 4 1.7909 4 4v14c0 2.2091-1.7909 4-4 4H9c-2.2091 0-4-1.7909-4-4V9Zm8.1402.2318c.4243.3535.4816.9841.128 1.4084L12.135 12H18c2.7614 0 5 2.2386 5 5s-2.2386 5-5 5h-6c-.5523 0-1-.4477-1-1s.4477-1 1-1h6c1.6569 0 3-1.3431 3-3s-1.3431-3-3-3h-5.865l1.1332 1.3598c.3536.4243.2963 1.0549-.128 1.4084-.4243.3536-1.0549.2963-1.4084-.128l-2.5-3a1 1 0 0 1 0-1.2804l2.5-3c.3535-.4243.9841-.4816 1.4084-.128Z" clip-rule="evenodd"/></svg>