<svg xmlns="http://www.w3.org/2000/svg" fill="none" viewBox="0 0 32 32" class="acv-icon"><path fill="currentColor" fill-rule="evenodd" d="M16 3c.5523 0 1 .4477 1 1v7c0 .5523.4477 1 1 1h7c.5523 0 1 .4477 1 1v15c0 .5523-.4477 1-1 1H7c-.5523 0-1-.4477-1-1V4c0-.5523.4477-1 1-1h9Zm-1.4722 21 1.0944-4.1915c.0482-.1861.1167-.4971.2056-.933.0889-.4359.1444-.7524.1666-.9494.0149.1605.0713.4752.1695.9439l.0354.1683c.0797.3753.1373.6284.1729.7592l1.1 4.2025h1.9611L21.5 16h-1.6944l-1.0334 4.3666c-.0666.2627-.1407.6065-.2222 1.0315-.0815.425-.1407.7797-.1778 1.0643-.0407-.2955-.1-.6494-.1778-1.0616-.0777-.4122-.1425-.7186-.1944-.9193L16.8167 16h-1.6278l-1.1833 4.4815c-.0704.2408-.1454.5791-.225 1.0151-.0797.4359-.1306.7578-.1528.9658-.0815-.591-.213-1.2896-.3945-2.0958L12.1944 16H10.5l2.0722 8h1.9556Z" clip-rule="evenodd"/><path fill="currentColor" d="M20 10c-.5523 0-1-.4477-1-1V4.2071c0-.4454.5386-.6685.8536-.3535l5.2928 5.2928c.315.315.0919.8536-.3535.8536H20Z"/></svg>