<svg xmlns="http://www.w3.org/2000/svg" fill="none" viewBox="0 0 32 32" class="acv-icon"><path fill="currentColor" fill-rule="evenodd" d="M26.3466 5.8331c-1.0088-.5862-1.9311-.7823-2.6209-.824-.3431-.0207-.6265-.0031-.8329.0219a3.371 3.371 0 0 0-.2512.0396c-.1262.0251-.2508.06-.3751.095-.0495.0139-.0989.0277-.1483.041l-7.7728 13.5496-.3895 6.5306c-.0589.9868 1.0269 1.6177 1.8466 1.073l5.4247-3.6048L29 9.2054a14.1437 14.1437 0 0 1-.0389-.1498c-.0321-.1257-.0643-.2518-.1058-.3745a3.441 3.441 0 0 0-.0915-.2386c-.0817-.1925-.2083-.4482-.3977-.737-.3808-.5803-1.0106-1.2862-2.0195-1.8724ZM17.0502 18.04l4.2455-7.401 3.4075 2.0577-4.2455 7.401-3.4075-2.0577Zm-.7828 1.859-.2332 3.9109 3.1944-2.1227-2.9612-1.7882Zm9.4293-8.9341-3.4075-2.0577 1.0943-1.9075c.0666-.001.1413.0004.2231.0053.4187.0253 1.0351.1462 1.7467.5597s1.1238.8903 1.355 1.2426c.0451.0688.0836.1332.1161.1918l-1.1277 1.9658Z" clip-rule="evenodd"/><path fill="currentColor" d="m3 15.5863 4.0334 2.3679c.513.3012.6505.9852.2941 1.4634l-.4864.6528c-.9657 1.2959-.7344 3.1294.5224 4.1414L10.8265 27l1.241-1.5613-3.463-2.7882c-.419-.3373-.496-.9485-.1741-1.3805l.4864-.6528c1.0691-1.4346.6566-3.4865-.8824-4.39l-4.0334-2.368L3 15.5863Z"/></svg>