<svg xmlns="http://www.w3.org/2000/svg" fill="none" viewBox="0 0 24 24" class="acv-icon"><path fill="currentColor" fill-rule="evenodd" d="M8.045 3h7.91a4 4 0 0 1 3.738 2.576l2.045 5.3681c.1732.4547.262.9373.262 1.424V17c0 2.2091-1.7909 4-4 4H6c-2.2091 0-4-1.7909-4-4v-4.6319c0-.4867.0888-.9693.262-1.424l2.045-5.368A4 4 0 0 1 8.045 3Zm7.91 2a2 2 0 0 1 1.869 1.288l2.045 5.3681c.0866.2273.131.4686.131.712V17c0 1.1046-.8954 2-2 2H6c-1.1046 0-2-.8954-2-2v-4.6319c0-.2434.0444-.4847.131-.712l2.045-5.368A2 2 0 0 1 8.045 5h7.91Z" clip-rule="evenodd"/><path fill="currentColor" d="M5 12c0-.5523.4477-1 1-1h12c.5523 0 1 .4477 1 1s-.4477 1-1 1H6c-.5523 0-1-.4477-1-1ZM5 15.5c0-.5523.4477-1 1-1s1 .4477 1 1v1c0 .5523-.4477 1-1 1s-1-.4477-1-1v-1ZM8 15.5c0-.5523.4477-1 1-1s1 .4477 1 1v1c0 .5523-.4477 1-1 1s-1-.4477-1-1v-1ZM11 15.5c0-.5523.4477-1 1-1s1 .4477 1 1v1c0 .5523-.4477 1-1 1s-1-.4477-1-1v-1ZM14 15.5c0-.5523.4477-1 1-1s1 .4477 1 1v1c0 .5523-.4477 1-1 1s-1-.4477-1-1v-1ZM17 15.5c0-.5523.4477-1 1-1s1 .4477 1 1v1c0 .5523-.4477 1-1 1s-1-.4477-1-1v-1Z"/></svg>