<svg xmlns="http://www.w3.org/2000/svg" fill="none" viewBox="0 0 24 24" class="acv-icon"><path fill="currentColor" fill-rule="evenodd" d="M10 3h4c1.6569 0 3 1.3431 3 3v1h2c1.6569 0 3 1.3431 3 3v8c0 1.6569-1.3431 3-3 3H5c-1.6568 0-3-1.3431-3-3v-8c0-1.6569 1.3432-3 3-3h2V6c0-1.6569 1.3431-3 3-3ZM5 9h14c.5523 0 1 .4477 1 1v3h-5c0-1.1046-.8954-2-2-2h-2c-1.1046 0-2 .8954-2 2H4v-3c0-.5523.4477-1 1-1Zm-1 9v-3h5c0 1.1046.8954 2 2 2h2c1.1046 0 2-.8954 2-2h5v3c0 .5523-.4477 1-1 1H5c-.5523 0-1-.4477-1-1Zm7-3v-2h2v2h-2Zm4-9v1H9V6c0-.5523.4477-1 1-1h4c.5523 0 1 .4477 1 1Z" clip-rule="evenodd"/></svg>