<svg xmlns="http://www.w3.org/2000/svg" fill="none" viewBox="0 0 16 16" class="acv-icon"><path fill="currentColor" d="m10.0066 1.7576.04.0711.0801.0356a1.221 1.221 0 0 1 .3686.3105c.1014.1273.1768.2737.2218.4309.1446.656.1566 1.335.035 1.9957.0055.1853-.0676.3896-.1401.592-.1262.3524-.2505.6993.0451.9315.225.0355.4849.0355.725.0355h.0005c.5804-.0305 1.1659-.0406 1.7513 0 .1344-.0006.2686.013.4003.0407h.035c.1309.0234.2586.0626.3803.1168.127.0466.2441.1173.3452.2082.343.2827.2992.6436.2557 1.0021-.0409.337-.0816.672.1997.9377.4653.4875.2101 1.1528-.1902 1.5793-.1359.2381-.0653.5248.0043.8078.0893.363.1771.7198-.1744.9595-.4731.168-.5308.5539-.5909.9556-.0289.1931-.0583.3898-.1346.5678-.4379.5432-1.1386.5662-1.796.5878-.1539.0051-.3054.0101-.4507.0216a28.082 28.082 0 0 1-3.1373-.1117c-.4796-.0635-.8914-.3117-1.3046-.5607-.3799-.229-.761-.4588-1.1972-.5463h-.2752V6.6327a4.8534 4.8534 0 0 0 2.0313-1.2069 4.9534 4.9534 0 0 0 1.236-2.033c.03-.1045.0575-.2176.0859-.3339.1192-.4884.252-1.0323.6197-1.225a.5753.5753 0 0 1 .1901-.0763.833.833 0 0 1 .2252 0h.1151ZM1.5004 6.1249h2.5018c.2763 0 .5004.2273.5004.5078v7.1095c0 .2804-.224.5078-.5004.5078H1.5004C1.224 14.25 1 14.0226 1 13.7422V6.6327c0-.2805.224-.5078.5004-.5078Z"/></svg>