<svg xmlns="http://www.w3.org/2000/svg" fill="none" viewBox="0 0 32 32" class="acv-icon"><path fill="currentColor" d="M15 8h6v2h-6V8Z"/><path fill="currentColor" fill-rule="evenodd" d="M25 9c0-1.1046.8954-2 2-2V3H5v12h22v-4c-1.1046 0-2-.8954-2-2ZM13 5h12v.5351C23.8044 6.2268 23 7.5194 23 9c0 1.4806.8044 2.7733 2 3.4649V13H13V5Zm-2 0H7v8h4V5Z" clip-rule="evenodd"/><path fill="currentColor" d="M15 22h6v2h-6v-2Z"/><path fill="currentColor" fill-rule="evenodd" d="M25 23c0-1.1046.8954-2 2-2v-4H5v12h22v-4c-1.1046 0-2-.8954-2-2Zm-12-4h12v.5351c-1.1956.6916-2 1.9843-2 3.4649 0 1.4806.8044 2.7733 2 3.4649V27H13v-8Zm-2 0H7v8h4v-8Z" clip-rule="evenodd"/></svg>