<svg xmlns="http://www.w3.org/2000/svg" fill="none" viewBox="0 0 32 32" class="acv-icon"><circle cx="16" cy="16" r="16" fill="#CADEF9"/><path fill="#1F56A2" fill-rule="evenodd" d="M10.3125 9C9.5876 9 9 9.5876 9 10.3125v8.75c0 .7249.5876 1.3125 1.3125 1.3125h1.3125v1.3125c0 .7249.5876 1.3125 1.3125 1.3125h6.125c.7249 0 1.3125-.5876 1.3125-1.3125V20.375h1.3125c.7249 0 1.3125-.5876 1.3125-1.3125v-8.75C23 9.5876 22.4124 9 21.6875 9h-11.375Zm.4375 9.625V10.75h.875v2.625a.875.875 0 0 0 1.75 0V10.75h1.75v2.625a.875.875 0 0 0 1.75 0V10.75h1.75v2.625a.875.875 0 0 0 1.75 0V10.75h.875v7.875h-1.3125c-.7249 0-1.3125.5876-1.3125 1.3125V21.25h-5.25v-1.3125c0-.7249-.5876-1.3125-1.3125-1.3125H10.75Z" clip-rule="evenodd"/></svg>