<svg xmlns="http://www.w3.org/2000/svg" fill="none" viewBox="0 0 32 32" class="acv-icon"><path fill="currentColor" d="M21.1856 15.2845h-.3094v-2.8379h.3927c.3729 0 .6486.115.8271.3448.1785.2257.2677.5745.2677 1.0465 0 .513-.0971.8823-.2915 1.1081-.1944.2257-.4899.3385-.8866.3385Z"/><path fill="currentColor" fill-rule="evenodd" d="M3 4c0-.5523.4477-1 1-1h7.7771c.893 0 1.6777.592 1.9231 1.4506L14.1429 6H27c1.1046 0 2 .8954 2 2v15c0 1.1046-.8954 2-2 2H17v2h11c.5523 0 1 .4477 1 1s-.4477 1-1 1H4c-.5523 0-1-.4477-1-1s.4477-1 1-1h11v-2H5c-1.1046 0-2-.8954-2-2V4Zm7.6065 16H9v-9h3.8973v1.4466h-2.2908v2.4994h2.1361v1.4466h-2.1361V20Zm6.0512 0h-1.6125v-7.5287h-1.666V11h4.9445v1.4713h-1.666V20Zm6.6402-4.026c.4681-.513.7021-1.2476.7021-2.2038C24 11.9234 23.1551 11 21.4653 11h-2.2075v9h1.6184v-3.2627h.4046c.8806 0 1.553-.2544 2.0171-.7633Z" clip-rule="evenodd"/></svg>