<svg xmlns="http://www.w3.org/2000/svg" fill="none" viewBox="0 0 16 16" class="acv-icon"><path fill="currentColor" d="M9.7929 8.9571c.3905.3905 1.0237.3905 1.4142 0 .3905-.3905.3905-1.0237 0-1.4142l-.7929-.7929.7929-.7929c.3905-.3905.3905-1.0237 0-1.4142-.3905-.3905-1.0237-.3905-1.4142 0l-1.5 1.5c-.3905.3905-.3905 1.0237 0 1.4142l1.5 1.5ZM6.2071 7.0429c-.3905-.3905-1.0237-.3905-1.4142 0-.3905.3905-.3905 1.0237 0 1.4142l.7929.7929-.793.7929c-.3904.3905-.3904 1.0237 0 1.4142.3906.3905 1.0238.3905 1.4143 0l1.5-1.5c.3905-.3905.3905-1.0237 0-1.4142l-1.5-1.5Z"/><path fill="currentColor" fill-rule="evenodd" d="M8 16c4.4183 0 8-3.5817 8-8s-3.5817-8-8-8-8 3.5817-8 8 3.5817 8 8 8Zm6-8c0 3.3137-2.6863 6-6 6s-6-2.6863-6-6 2.6863-6 6-6 6 2.6863 6 6Z" clip-rule="evenodd"/></svg>