<svg xmlns="http://www.w3.org/2000/svg" fill="none" viewBox="0 0 24 24" class="acv-icon"><path fill="currentColor" d="M15.7175 11.3457a.1375.1375 0 0 0-.0903.1291v4.3855a2.3245 2.3245 0 0 1-1.5061 2.1762l-1.5877.5977a.464.464 0 0 1-.4286-.0527.4642.4642 0 0 1-.2002-.3827v-5.2632a.1375.1375 0 0 0-.1847-.1291l-2.9247 1.0683a.9302.9302 0 0 0-.6087.8736v7.3206c0 .6463.6417 1.0955 1.2494.8736l9.3145-3.4036a2.324 2.324 0 0 0 1.5272-2.1836V8.4643c-.0004.4764-.2687.7056-.4202.9221-.2009.2872-.6596.6874-1.107.851l-3.0329 1.1083Zm.0944-.5222a.1375.1375 0 0 1-.1847-.1291V9.5462a2.3252 2.3252 0 0 0-1.5079-2.1771l-1.5841-.5959a.4653.4653 0 0 0-.5754.2198.4646.4646 0 0 0-.0534.2157v4.2076c0 .6425-.6371 1.0917-1.2421.8763l-6.0465-2.1597A.9305.9305 0 0 1 4 9.2566V1.9304c0-.6426.6371-1.0918 1.243-.8754l13.4918 4.818a2.327 2.327 0 0 1 .9782.6706c.5183.6005.5368 1.5135.1161 2.1859-.2543.4064-.6441.7833-1.2364 1.078l-2.7808 1.016Z"/></svg>