<svg xmlns="http://www.w3.org/2000/svg" fill="none" viewBox="0 0 24 24" class="acv-icon"><path fill="currentColor" d="M1.9287 8.6283c-.2051-.5127-.787-.7621-1.2998-.557-.5128.205-.7622.787-.5571 1.2998l2 4.9999a1 1 0 0 0 1.8569 0l1.7-4.2503a.1926.1926 0 0 1 .3714.0715v3.8075c0 .5523.4478 1 1 1 .5523 0 1-.4477 1-1v-3.2499a.75.75 0 0 1 1.5 0v3.2499c0 .5523.4477 1 1 1 .5522 0 .9999-.4477.9999-1v-3.2499a.75.75 0 0 1 1.5 0v3.2499c0 .5523.4477 1 1 1s1-.4477 1-1v-3.2499c0-1.5188-1.2312-2.75-2.75-2.75a2.7384 2.7384 0 0 0-1.7499.6286 2.7388 2.7388 0 0 0-1.75-.6286c-.581 0-1.1198.1802-1.5637.4876a2.1834 2.1834 0 0 0-1.3788-.4877A2.1925 2.1925 0 0 0 3.7718 9.378l-.7716 1.9291-1.0715-2.6788ZM15.7126 8.042c.529-.1587 1.0864.1415 1.2451.6705l.6772 2.2572.9365-2.3412a1 1 0 0 1 1.8569 0l.9365 2.3412.6772-2.2572c.1587-.529.7162-.8292 1.2451-.6705.529.1587.8292.7162.6705 1.2452l-1.5 4.9999a.9999.9999 0 0 1-1.8862.084l-1.0715-2.6787-1.0715 2.6787a1 1 0 0 1-1.8863-.084l-1.5-5c-.1587-.5289.1415-1.0864.6705-1.245Z"/></svg>