<svg xmlns="http://www.w3.org/2000/svg" fill="none" viewBox="0 0 24 24" class="acv-icon"><path fill="currentColor" d="M6.5 11c.8284 0 1.5-.6716 1.5-1.5S7.3284 8 6.5 8 5 8.6716 5 9.5 5.6716 11 6.5 11Z"/><path fill="currentColor" fill-rule="evenodd" d="M6 5h7c1.9503 0 3.5746 1.3958 3.9285 3.243l1.3159-1.3159C19.6303 5.5411 22 6.5227 22 8.4827v7.0343c0 1.96-2.3697 2.9416-3.7556 1.5557l-1.3159-1.3159C16.5748 17.6041 14.9504 19 13 19H6c-2.2091 0-4-1.7909-4-4V9c0-2.2091 1.7909-4 4-4Zm11 7.917v-1.8343a.2.2 0 0 1 .0586-.1414l2.6-2.6c.126-.126.3414-.0367.3414.1414v7.0343c0 .1782-.2154.2675-.3414.1415l-2.6-2.6A.2001.2001 0 0 1 17 12.917ZM15 9v6c0 1.1046-.8954 2-2 2H6c-1.1046 0-2-.8954-2-2V9c0-1.1046.8954-2 2-2h7c1.1046 0 2 .8954 2 2Z" clip-rule="evenodd"/></svg>