<svg xmlns="http://www.w3.org/2000/svg" fill="none" viewBox="0 0 16 16" class="acv-icon"><g clip-path="url(#a)"><path fill="currentColor" d="M10.522 7.524a.1.1 0 0 0-.066.094v3.19a1.691 1.691 0 0 1-1.095 1.582l-1.155.435a.338.338 0 0 1-.457-.317V8.68a.1.1 0 0 0-.135-.093l-2.127.776a.677.677 0 0 0-.442.636v5.324c0 .47.466.797.908.635l6.774-2.475a1.69 1.69 0 0 0 1.111-1.588V5.429c0 .346-.195.513-.305.67-.146.21-.48.5-.806.62l-2.205.805Zm.069-.38a.1.1 0 0 1-.135-.094v-.835A1.691 1.691 0 0 0 9.36 4.632L8.207 4.2a.339.339 0 0 0-.457.316v3.06a.677.677 0 0 1-.903.638l-4.398-1.57A.677.677 0 0 1 2 6.004V.677c0-.468.463-.794.904-.637l9.812 3.504c.276.098.52.266.712.488.377.436.39 1.1.084 1.59-.185.295-.468.57-.9.783l-2.021.74Z"/></g><defs><clipPath id="a"><path fill="#fff" d="M0 0h16v16H0z"/></clipPath></defs></svg>