<svg xmlns="http://www.w3.org/2000/svg" fill="none" viewBox="0 0 24 24" class="acv-icon"><path fill="currentColor" d="M12.2574 2.475c1.0967.582 1.9905 1.4928 2.5599 2.6085.4266.897.4908 1.928.1788 2.8725 0 0-.0606.1897-.0865.27-.0337-.0834-.0658-.148-.1046-.2262-.018-.0363-.0375-.0756-.0593-.121a2.6158 2.6158 0 0 0-1.034-.9233c-.2571-1.0793-1.1374-2.013-2.5622-2.7037-.0254-.0128-.054-.024-.0826-.0354a1.4481 1.4481 0 0 1-.0651-.0269 6.8017 6.8017 0 0 1 .7947-1.0702 6.064 6.064 0 0 0-1.1684-.3863c-.8623-.1346-1.653-.5656-2.2401-1.221a6.097 6.097 0 0 0-.5997 2.7067 6.9987 6.9987 0 0 1 2.7911.4688c.0284.0123.0583.0243.0884.0364.0436.0175.0877.0353.1287.0543.0517.0218.0997.0443.1477.0668.7883.341 1.4598.9112 1.9299 1.6387l.0111.0188a.6607.6607 0 0 1 .0236.0499c.0052.0119.0104.0237.0163.0356.0065.0156.0131.0305.0196.045a.8108.8108 0 0 1 .0299.0728 4.1852 4.1852 0 0 0-1.6471.0187c-.8611-.5845-1.9112-.809-2.9314-.627a4.7215 4.7215 0 0 0-.9166.1785 12.786 12.786 0 0 1-.1728-1.4865 10.388 10.388 0 0 0-3.8665 1.1542c.5232.356.917.8764 1.1212 1.4813.1662.4013.5606 1.0852.5606 1.0852a6.5879 6.5879 0 0 1 1.7726-1.3327 4.8104 4.8104 0 0 1 2.4735-.4718c.0753.003.1455.0098.2157.0173l.0664.006c.3406.039.6719.1374.9794.291-.6708.279-1.2323.775-1.5976 1.4108a4.2167 4.2167 0 0 0-1.6259.5263c-.5014.285-.941.67-1.2922 1.1319a.9056.9056 0 0 0-.0392.0613c-.0112.0186-.0225.0374-.0347.0549a10.4377 10.4377 0 0 1-.9261-.9134l-.0584.0907c-.2837.4408-.536.9018-.7548 1.3793a5.4133 5.4133 0 0 1-1.2711 1.8509c.7957.3667 1.6273.647 2.4809.8363l.1359.0262a6.6086 6.6086 0 0 1 .517-2.2057 3.796 3.796 0 0 1 1.0133-1.3973 4.397 4.397 0 0 1 .11-.0884 3.7805 3.7805 0 0 1 .229-.165l.0805-.0518a3.5048 3.5048 0 0 1 1.1271-.45 3.6667 3.6667 0 0 0 .1203 2.6073c.3584.8236 1.0066 1.4817 1.8177 1.8454-1.5783 1.0883-4.7195 1.5-9.1613-.8055.0938-.0682.4047-.2714.4047-.2714.7701-.4921 1.3653-1.221 1.6988-2.0805.244-.5272.527-1.0349.8464-1.5188a9.8427 9.8427 0 0 1-.5909-1.14 2.4701 2.4701 0 0 0-.5659-.9284 2.4223 2.4223 0 0 0-.9053-.5888l-.3737-.183.3138-.2753c1.3539-1.1857 3.8296-1.647 4.6878-1.7512.0128-1.284.3831-2.538 1.068-3.6173L8.3157 0l.24.4073c.11.1873.235.3652.3737.5317.2381.2955.5351.5365.8715.7073.413.1732.8417.3051 1.28.3937a4.4737 4.4737 0 0 1 1.1765.435ZM12.8453 22.1093c-1.1666-.4219-2.177-1.1983-2.8938-2.2238-.5472-.8276-.7537-1.8397-.5753-2.82 0 0 .034-.1957.0487-.279.0413.0754.082.1341.1301.2039.0243.035.0505.0729.0797.1171a2.599 2.599 0 0 0 1.1544.7635c.4018 1.0328 1.4025 1.833 2.9078 2.3153.0267.0085.0553.0152.084.022.0245.0058.0491.0116.0726.0185a6.8425 6.8425 0 0 1-.6397 1.1722 6.038 6.038 0 0 0 1.2098.2175c.8723.0112 1.7144.326 2.3856.8918a6.1082 6.1082 0 0 0 .2216-2.7653 6.9886 6.9886 0 0 1-2.831-.0697c-.0291-.0078-.0585-.0151-.0878-.0224-.0471-.0118-.0941-.0235-.1396-.0369a4.5477 4.5477 0 0 1-.1529-.0457c-.8275-.2263-1.5707-.696-2.136-1.35l-.0133-.0173c-.0128-.0145-.021-.0277-.0319-.0451-.0054-.0087-.0114-.0184-.0191-.0299a1.127 1.127 0 0 1-.0649-.1095 4.1891 4.1891 0 0 0 1.6248-.2512 3.9664 3.9664 0 0 0 2.9891.2062 4.74 4.74 0 0 0 .8863-.3067c.1532.4745.2784.9579.3752 1.4475a10.433 10.433 0 0 0 3.6707-1.6898c-.5673-.2782-1.0291-.7377-1.3147-1.308-.2193-.3735-.7038-.9952-.7038-.9952a6.6309 6.6309 0 0 1-1.571 1.5705 4.8257 4.8257 0 0 1-2.3849.816c-.0753.0075-.1462.0135-.2164.0135l-.0665.0037a2.9304 2.9304 0 0 1-1.0096-.15c.6246-.3718 1.1113-.9422 1.3848-1.623a4.2342 4.2342 0 0 0 1.5373-.7485 4.3084 4.3084 0 0 0 1.1253-1.3005.8048.8048 0 0 0 .0309-.067c.0086-.02.0171-.0401.0267-.059.3631.2353.7114.4933 1.0429.7725l.0451-.0975c.224-.4782.4138-.9722.5679-1.4782a5.4433 5.4433 0 0 1 1.0045-2.013 12.247 12.247 0 0 0-2.5717-.4778l-.1382-.0067a6.6174 6.6174 0 0 1-.2127 2.2575 3.8165 3.8165 0 0 1-.8124 1.5262 3.0852 3.0852 0 0 1-.0968.1028c-.0657.0682-.1299.1335-.2038.1957l-.0739.063a3.5218 3.5218 0 0 1-1.0546.606 3.6624 3.6624 0 0 0-.4768-2.5645c-.4679-.7647-1.1999-1.3246-2.0529-1.5702 1.4137-1.3005 4.4706-2.1533 9.1842-.4988-.0827.0803-.3633.3255-.3633.3255-.6947.5962-1.1838 1.4021-1.3959 2.3003a11.6928 11.6928 0 0 1-.6293 1.6237c.2685.3317.5152.681.7386 1.0455.1645.3286.3996.6154.6878.8395.2883.224.6224.3795.9777.455l.3951.1283-.2733.3172c-1.178 1.368-3.5658 2.175-4.4019 2.4a6.9004 6.9004 0 0 1-.5628 3.7335l-.1721.4388-.2954-.3668a3.9459 3.9459 0 0 0-.4432-.4732 2.6596 2.6596 0 0 0-.9601-.5775 6.7557 6.7557 0 0 0-1.3213-.2085 4.4587 4.4587 0 0 1-1.2246-.264Z"/></svg>