<svg xmlns="http://www.w3.org/2000/svg" fill="none" viewBox="0 0 24 24" class="acv-icon"><path fill="currentColor" d="M2 5.3V15c0 .5523.4477 1 1 1s1-.4477 1-1V5.3a.3.3 0 0 1 .3-.3h15.4a.3.3 0 0 1 .3.3V15c0 .5523.4477 1 1 1s1-.4477 1-1V5.3C22 4.0297 20.9703 3 19.7 3H4.3C3.0297 3 2 4.0297 2 5.3ZM0 19.5V18h8c0 .5523.4477 1 1 1h6c.5523 0 1-.4477 1-1h8v1.5c0 .8284-.6716 1.5-1.5 1.5h-21C.6716 21 0 20.3284 0 19.5Z"/><path fill="currentColor" d="M13.1668 7.4573c.2855-.3785.5021-.9126.4237-1.4573-.4662.0328-1.0107.34-1.3292.738-.2882.3623-.5273.9006-.4342 1.4213.5086.017 1.0344-.2963 1.3397-.702Z"/><path fill="currentColor" d="M15.92 12.622c-.2167.4647-.3204.6725-.5983 1.0832-.3888.5735-.9375 1.2891-1.6157 1.294-.2789.0021-.4622-.0791-.6594-.1666-.2297-.1019-.4784-.2121-.9192-.2089-.437.002-.6894.1108-.9217.2108-.2029.0874-.3904.1682-.672.1654-.6783-.0056-1.1978-.6507-1.587-1.2231-1.0871-1.6054-1.2016-3.4874-.5295-4.4887.4752-.71 1.228-1.127 1.9347-1.127.3771 0 .6807.1051.9699.2053.2629.091.5139.178.7973.178.2622 0 .4778-.0794.7132-.166.2827-.104.5939-.2184 1.0483-.2184.6296 0 1.2953.3324 1.7705.9059-1.5552.8262-1.3029 2.9795.2689 3.5561Z"/></svg>