<svg xmlns="http://www.w3.org/2000/svg" fill="none" viewBox="0 0 16 16" class="acv-icon"><g fill="currentColor" clip-path="url(#MdrAdv16:a)"><path fill-rule="evenodd" d="M12.6064 11.1922C13.4816 10.0236 14 8.5723 14 7c0-3.866-3.134-7-7-7S0 3.134 0 7s3.134 7 7 7c1.5723 0 3.0236-.5184 4.1922-1.3936l3.1007 3.1007c.3905.3905 1.0237.3905 1.4142 0 .3905-.3905.3905-1.0237 0-1.4142l-3.1007-3.1007ZM7 12c2.7614 0 5-2.2386 5-5S9.7614 2 7 2 2 4.2386 2 7s2.2386 5 5 5Z" clip-rule="evenodd"/><path d="m7.7855 6.5002.2784-2.2233c.014-.1372-.079-.2605-.208-.2754-.082-.0095-.1626.0274-.2124.0973l-2.4957 3c-.0784.11-.0582.2667.045.3502a.2257.2257 0 0 0 .142.0508h.8297L5.886 9.7231c-.014.1372.079.2605.208.2754.082.0095.1626-.0274.2124-.0973l2.4957-3c.0784-.11.0582-.2667-.045-.3502a.2257.2257 0 0 0-.142-.0508h-.8297Z"/></g><defs><clipPath id="MdrAdv16:a"><path fill="#fff" d="M0 0h16v16H0z"/></clipPath></defs></svg>