<svg xmlns="http://www.w3.org/2000/svg" fill="none" viewBox="0 0 32 32" class="acv-icon"><path fill="currentColor" fill-rule="evenodd" d="M27 16c0 6.0751-4.9249 11-11 11S5 22.0751 5 16 9.9249 5 16 5s11 4.9249 11 11Zm2 0c0 7.1797-5.8203 13-13 13S3 23.1797 3 16 8.8203 3 16 3s13 5.8203 13 13Zm-12-5c0-.5523-.4477-1-1-1s-1 .4477-1 1v7.9196l-3.3755-2.7004c-.4313-.345-1.0606-.2751-1.4056.1562-.345.4312-.275 1.0605.1562 1.4055l5 4a.9954.9954 0 0 0 .6241.2192.9956.9956 0 0 0 .6257-.2192l5-4c.4313-.345.5012-.9743.1562-1.4055-.345-.4313-.9743-.5012-1.4056-.1562L17 18.9196V11Z" clip-rule="evenodd"/></svg>