<svg xmlns="http://www.w3.org/2000/svg" fill="none" viewBox="0 0 32 32" class="acv-icon"><path fill="currentColor" d="M19 22.1712c-.5523 0-1 .4477-1 1V27H4V5h14v4.0177c0 .5523.4477 1 1 1s1-.4477 1-1V4c0-.5523-.4477-1-1-1H3c-.5523 0-1 .4477-1 1v24c0 .5523.4477 1 1 1h16c.5523 0 1-.4477 1-1v-4.8288c0-.5523-.4477-1-1-1Z"/><path fill="currentColor" d="M11 17h15.5858l-2.2929 2.2929c-.3905.3905-.3905 1.0237 0 1.4142.3905.3905 1.0237.3905 1.4142 0l4-4c.3905-.3905.3905-1.0237 0-1.4142l-4-4c-.3905-.3905-1.0237-.3905-1.4142 0-.3905.3905-.3905 1.0237 0 1.4142L26.5858 15H11c-.5523 0-1 .4477-1 1s.4477 1 1 1Z"/></svg>