<svg xmlns="http://www.w3.org/2000/svg" fill="none" viewBox="0 0 16 16" class="acv-icon"><path fill="currentColor" d="M8.7088 7.303 4.406 3H7c.5523 0 1-.4477 1-1s-.4477-1-1-1H2c-.5523 0-1 .4477-1 1v5c0 .5523.4477 1 1 1s1-.4477 1-1V4.4059l4.303 4.303c.3882.3882 1.0176.3882 1.4058 0 .3883-.3883.3883-1.0177 0-1.406Z"/><path fill="currentColor" d="M2.3019 10.1344c.478-.2766 1.0897-.1132 1.3663.3648a5.021 5.021 0 0 0 .7964 1.0362C5.4046 12.4754 6.664 13 8.0002 13c2.7614 0 5-2.2386 5-5 0-1.3362-.5246-2.5956-1.4645-3.5355a5.0282 5.0282 0 0 0-1.0364-.7965c-.478-.2766-.6413-.8883-.3647-1.3664.2766-.478.8884-.6413 1.3664-.3647a7.0267 7.0267 0 0 1 1.4489 1.1133C14.2639 4.3642 15.0002 6.132 15.0002 8c0 3.866-3.134 7-7 7-1.868 0-3.6357-.7363-4.9497-2.0503a7.0225 7.0225 0 0 1-1.1134-1.4489c-.2766-.4781-.1133-1.0898.3648-1.3664Z"/></svg>