<svg xmlns="http://www.w3.org/2000/svg" fill="none" viewBox="0 0 32 32" class="acv-icon"><path fill="currentColor" fill-rule="evenodd" d="M10 9c-.5523 0-1-.4477-1-1V4c0-.5523.4477-1 1-1h12c.5523 0 1 .4477 1 1v4c0 .5523-.4477 1-1 1h-2.7086c-1.0738.661-2.1748 1-3.2914 1-1.117 0-2.2185-.339-3.2932-1H10Zm11-4H11v2h1.9994c.1974 0 .3903.0584.5546.1679C14.3973 7.7299 15.2078 8 16 8c.7917 0 1.6014-.27 2.4437-.8319A1 1 0 0 1 18.9987 7H21V5Z" clip-rule="evenodd"/><path fill="currentColor" d="M23 14v-2H9v2h14ZM23 17v2H9v-2h14ZM23 24v-2H9v2h14Z"/><path fill="currentColor" d="M25 6h1v21H6V6h1V4H5c-.5523 0-1 .4477-1 1v23c0 .5523.4477 1 1 1h22c.5523 0 1-.4477 1-1V5c0-.5523-.4477-1-1-1h-2v2Z"/></svg>