<svg xmlns="http://www.w3.org/2000/svg" fill="none" viewBox="0 0 16 16" class="acv-icon"><path fill="currentColor" d="M3.2864 1.1843c-.7265.37-.7265.427-.047 1.1875C7.0072 6.567 7.9087 7.559 7.9762 7.559c.094.0105 5.3148-5.6953 5.3723-5.8668.0235-.047-.138-.2085-.3465-.357-.276-.2085-.5755-.289-1.1404-.3125-1.06-.0675-1.4295.1615-2.745 1.638-.599.6664-1.1069 1.2214-1.1069 1.2214-.0105 0-.505-.5415-1.094-1.198-.589-.6564-1.268-1.3149-1.4974-1.4424-.5315-.2995-1.6144-.323-2.1354-.0575h.0035ZM.8644 2.8798c-.565.219-.8644.427-.8644.586 0 .0804.888 1.1199 1.961 2.3074 1.0834 1.1874 1.9584 2.1794 1.9584 2.2004 0 .0235-.888 1.0154-1.961 2.2029C.875 11.3744.0105 12.4239.0235 12.5149c.0575.3125 1.0025.7055 1.6924.7055 1.12-.013 1.3725-.2085 3.7369-2.8019 1.1875-1.302 2.1534-2.409 2.1534-2.4454 0-.0445-.9554-1.1275-2.1299-2.4194-1.534-1.672-2.284-2.422-2.6404-2.5834-.5415-.2655-1.4164-.3095-1.9714-.0905Zm12.3121.0805c-.336.172-1.1769 1.0024-2.6299 2.5939-1.1745 1.2914-2.133 2.3749-2.133 2.4194 0 .047.969 1.143 2.1565 2.4454 2.3619 2.5939 2.6169 2.7889 3.7344 2.8019.6924 0 1.6379-.393 1.6954-.7055.0105-.104-.854-1.1405-1.9374-2.3279-1.0705-1.185-1.9585-2.19-1.9585-2.2134 0-.021.888-1.026 1.9585-2.2134 1.0834-1.185 1.9479-2.224 1.9374-2.315-.0575-.2994-.9115-.646-1.6484-.6924-.5315-.0235-.8075.0235-1.1745.2085l-.0005-.0015Zm-7.8747 8.3226c-1.4294 1.5805-2.6039 2.9164-2.6274 2.9739-.0235.047.138.2085.3465.357.276.2085.5755.289 1.1404.3125 1.0495.0675 1.44-.1745 2.7654-1.6719.578-.646 1.073-1.1875 1.0835-1.1875.013 0 .508.5415 1.0965 1.198 1.3489 1.4999 1.7054 1.7189 2.7549 1.6614.5649-.0235.8644-.104 1.1404-.3125.2085-.1485.37-.31.3465-.357-.0575-.172-5.2813-5.8797-5.3723-5.8667-.047 0-1.245 1.302-2.6744 2.8928Z"/></svg>