<svg xmlns="http://www.w3.org/2000/svg" fill="none" viewBox="0 0 16 16" class="acv-icon"><path fill="currentColor" fill-rule="evenodd" d="M7.1551.5502C7.314.2145 7.6423.0015 8 0c.3593.0015.6867.2145.8463.5502l1.7414 3.6893c.1385.2908.402.4921.7098.5391l3.8957.5914c.3549.055.6494.3143.761.6705.1105.3562.0178.7484-.2382 1.0092l-2.8197 2.8718c-.2213.227-.3239.5531-.2704.8726l.6656 4.055c.0597.3688-.0852.7433-.374.9629-.2931.2196-.6761.2497-.9937.075l-3.4838-1.9142c-.2761-.1519-.6023-.1505-.8785 0L4.077 15.887c-.3177.1747-.7022.1446-.9932-.075-.2888-.221-.4343-.5941-.3738-.9629l.6648-4.0558a1.011 1.011 0 0 0-.2706-.8718L.2845 7.0497c-.2571-.2608-.3492-.6522-.2382-1.0092.1112-.3562.4062-.6155.7612-.6705l3.8956-.5914c.3078-.047.5713-.2483.709-.539L7.1552.5501Z" clip-rule="evenodd"/></svg>