<svg xmlns="http://www.w3.org/2000/svg" fill="none" viewBox="0 0 16 16" class="acv-icon"><path fill="currentColor" fill-rule="evenodd" d="M8.939.9066C8.9005.3306 8.4545 0 8 0c-.4545 0-.9005.3307-.939.9066L6.9822 2.086c-1.2402.2119-2.3506.8045-3.2066 1.6532l-1.3092-.763c-.514-.2997-1.0621-.1286-1.3404.2542-.1351.186-.2097.4263-.1778.6791.0327.2596.1726.493.396.6663l1.1979.9284C2.194 6.2642 2 7.1094 2 8c0 .288.0203.5713.0595.8484l-1.4652.6381c-.5307.231-.6955.7634-.5361 1.1953.1586.4298.626.7291 1.179.5708l1.4716-.4211a6.0288 6.0288 0 0 0 1.849 2.0835l-.714 1.7461c-.1067.2612-.1052.5323.0015.7695.103.2291.2885.393.4932.4834.4155.1836.9794.0875 1.2784-.4274l.8892-1.6741A6.0107 6.0107 0 0 0 8 14a6.0107 6.0107 0 0 0 1.494-.1875l.8891 1.6741c.299.5149.8629.611 1.2784.4274.2047-.0904.3903-.2543.4932-.4834.1067-.2372.1082-.5083.0014-.7695l-.7139-1.7461a6.0277 6.0277 0 0 0 1.8492-2.0839l1.4715.4209c.5529.1582 1.0203-.1409 1.1789-.5707.1595-.432-.0054-.9642-.5361-1.1953l-1.4652-.6379A6.0515 6.0515 0 0 0 14 8c0-.8906-.194-1.7358-.5421-2.4958l1.1978-.9284c.2235-.1733.3634-.4067.3961-.6663.0319-.2528-.0427-.4931-.1779-.6791-.2782-.3828-.8263-.554-1.3403-.2543l-1.3092.7631c-.856-.8487-1.9664-1.4413-3.2066-1.6532L8.939.9066ZM6.843 4.1699a3.9868 3.9868 0 0 0-1.2453.6315l1.158.675L6.843 4.17Zm-2.6539 2.611A3.9978 3.9978 0 0 0 4 8v.0034l1.1309-.4924-.9418-.73Zm.5112 3.4808c.1846.2687.401.5137.644.7296l.4232-1.035-1.0672.3054Zm2.7859 1.7056A4.033 4.033 0 0 0 8 12c.174 0 .3456-.0111.5138-.0327L8 11l-.5138.9673Zm3.1695-.976a4.025 4.025 0 0 0 .6442-.73l-1.0676-.3054.4234 1.0354ZM12 8.0033V8c0-.425-.0663-.8347-.1891-1.219l-.9416.7299L12 8.0032Zm-1.5977-3.2019-1.158.675L9.157 4.17c.4545.137.8749.3529 1.2453.6315ZM9 8c0 .5523-.4477 1-1 1s-1-.4477-1-1 .4477-1 1-1 1 .4477 1 1Z" clip-rule="evenodd"/></svg>