<svg xmlns="http://www.w3.org/2000/svg" fill="none" viewBox="0 0 32 32" class="acv-icon"><path fill="currentColor" d="m20.0132.0153.0801.1422.1601.071c.2839.1554.5345.3665.7372.621a2.481 2.481 0 0 1 .4436.8618c.2893 1.312.3131 2.67.0701 3.9916.0109.3706-.1354.779-.2804 1.184-.2523.7047-.5008 1.3985.0902 1.8629.45.071.97.071 1.45.071h.0011c1.1609-.061 2.3317-.0812 3.5026 0a3.8185 3.8185 0 0 1 .8006.0813h.07c.2618.047.5171.1253.7606.2336.254.0934.4882.2347.6905.4165.686.5653.5984 1.2872.5113 2.0042-.0818.6741-.1632 1.3439.3993 1.8755.9307.975.4203 2.3055-.3802 3.1586-.2718.4761-.1307 1.0496.0085 1.6155.1786.726.3541 1.4395-.3488 1.9189-.9463.3361-1.0617 1.1078-1.1818 1.9113-.0578.3862-.1166.7796-.2693 1.1356-.8757 1.0864-2.2771 1.1324-3.5919 1.1757-.3078.0101-.6109.0201-.9013.0432a56.2128 56.2128 0 0 1-6.2746-.2234c-.9594-.127-1.7829-.6234-2.6092-1.1216-.7598-.458-1.5221-.9174-2.3945-1.0926h-.5504V9.7654c1.5284-.4552 2.9234-1.284 4.0627-2.4137 1.1393-1.1298 1.9881-2.526 2.4721-4.066.0596-.209.1148-.4353.1716-.6679.2384-.9767.5039-2.0646 1.2394-2.4501a1.1508 1.1508 0 0 1 .3803-.1524 1.6664 1.6664 0 0 1 .4503 0h.2302ZM3.0007 8.7497h5.0037c.5527 0 1.0007.4548 1.0007 1.0157v14.219c0 .5609-.448 1.0156-1.0007 1.0156H3.0007C2.448 25 2 24.5453 2 23.9844V9.7654c0-.561.448-1.0157 1.0007-1.0157Z"/></svg>