<svg xmlns="http://www.w3.org/2000/svg" fill="none" viewBox="0 0 16 16" class="acv-icon"><path fill="currentColor" fill-rule="evenodd" d="M7 16a1 1 0 0 1-.8944-.5528L3.882 11H1c-.5523 0-1-.4477-1-1V3c0-.5523.4477-1 1-1h11.1701c.9624 0 1.7884.6855 1.9657 1.6314l1.125 6C15.4916 10.8623 14.5473 12 13.2951 12h-3.1149c.0938 1.1834-.1696 2.124-.7211 2.8207C8.749 15.7175 7.7243 16 7 16ZM5.5 4h6.6701l1.125 6H9a1 1 0 0 0-.9701 1.2425c.3543 1.4174.0786 2.062-.139 2.3368a1.0709 1.0709 0 0 1-.3425.2815L5.5 9.7639V4Zm-2 5H2V4h1.5v5Z" clip-rule="evenodd"/></svg>