<svg xmlns="http://www.w3.org/2000/svg" fill="none" viewBox="0 0 16 16" class="acv-icon"><circle cx="8" cy="8" r="8" fill="#fff"/><path fill="#9BC225" d="M8 15c-3.866 0-7-3.134-7-7s3.134-7 7-7 7 3.134 7 7-3.134 7-7 7Z"/><path fill="#fff" fill-rule="evenodd" d="M5 5.9c0-.84 0-1.2601.1635-1.581a1.5 1.5 0 0 1 .6555-.6555C6.14 3.5 6.56 3.5 7.4 3.5h1.2c.84 0 1.2601 0 1.581.1635.2822.1438.5117.3733.6555.6555C11 4.64 11 5.06 11 5.9v4.2c0 .8401 0 1.2601-.1635 1.581a1.5002 1.5002 0 0 1-.6555.6555C9.8601 12.5 9.44 12.5 8.6 12.5H7.4c-.84 0-1.2601 0-1.581-.1635a1.5001 1.5001 0 0 1-.6555-.6555C5 11.3601 5 10.9401 5 10.1V5.9ZM7 11a.5.5 0 0 1 .5-.5h1a.5.5 0 0 1 0 1h-1A.5.5 0 0 1 7 11Z" clip-rule="evenodd"/></svg>