<svg xmlns="http://www.w3.org/2000/svg" fill="none" viewBox="0 0 24 24" class="acv-icon"><path fill="currentColor" fill-rule="evenodd" d="M2 5c0-1.1046.8954-2 2-2h16c1.1046 0 2 .8954 2 2v10c0 1.1046-.8954 2-2 2h-7v3h8c.5523 0 1 .4477 1 1s-.4477 1-1 1H3c-.5523 0-1-.4477-1-1s.4477-1 1-1h8v-3H4c-1.1046 0-2-.8954-2-2V5Zm5 8c-1.6569 0-3-1.3431-3-3s1.3431-3 3-3 3 1.3431 3 3c0 .3506-.0602.6872-.1707 1h4.3414A2.9967 2.9967 0 0 1 14 10c0-1.6569 1.3431-3 3-3s3 1.3431 3 3-1.3431 3-3 3H7Z" clip-rule="evenodd"/></svg>