<svg xmlns="http://www.w3.org/2000/svg" fill="none" viewBox="0 0 16 16" class="acv-icon"><path fill="currentColor" fill-rule="evenodd" d="m15.293 15.292-1.586-1.586-.023-.023C12.195 15.123 10.096 16 8 16c-4.411 0-8-3.589-8-8s3.589-8 8-8c3.57 0 6.651 2.297 7.669 5.715.157.529-.145 1.086-.674 1.244-.528.158-1.086-.144-1.244-.674C12.989 3.723 10.678 2 8 2 4.691 2 2 4.691 2 8s2.691 6 6 6c1.559 0 3.166-.651 4.285-1.716l-1.578-1.577c-.391-.391-.26-.707.293-.707h4.5c.276 0 .5.223.5.499v4.5c0 .553-.316.684-.707.293Z" clip-rule="evenodd"/></svg>