<svg xmlns="http://www.w3.org/2000/svg" fill="none" viewBox="0 0 32 32" class="acv-icon"><path fill="currentColor" d="M7.342 8.1935C7.7246 6.3342 9.3614 5 11.2597 5h9.4792c1.8982 0 3.535 1.334 3.9178 3.1933l1.5382 7.4702C25.2164 15.2367 24.1359 15 23 15c-2.5264 0-4.7793 1.1711-6.2454 3h-8.255c-1.259 0-2.4276.3879-3.3927 1.0507L7.342 8.1935Z"/><path fill="currentColor" fill-rule="evenodd" d="M15 23c0-1.0609.2065-2.0736.5815-3H8c-2.2091 0-4 1.7909-4 4 0 2.2091 1.7909 4 4 4h8.7546C15.6567 26.6304 15 24.8919 15 23Zm-8 1c0-.5523.4477-1 1-1h3c.5523 0 1 .4477 1 1s-.4477 1-1 1H8c-.5523 0-1-.4477-1-1ZM29 23c0 3.3137-2.6863 6-6 6s-6-2.6863-6-6 2.6863-6 6-6 6 2.6863 6 6Zm-6-4c-.5523 0-1 .4477-1 1v2h-2c-.5523 0-1 .4477-1 1s.4477 1 1 1h2v2c0 .5523.4477 1 1 1s1-.4477 1-1v-2h2c.5523 0 1-.4477 1-1s-.4477-1-1-1h-2v-2c0-.5523-.4477-1-1-1Z" clip-rule="evenodd"/></svg>