<svg xmlns="http://www.w3.org/2000/svg" fill="none" viewBox="0 0 16 16" class="acv-icon"><path fill="currentColor" d="M4 5.7324C4.5978 5.3866 5 4.7403 5 4c0-1.1046-.8955-2-2-2s-2 .8954-2 2c0 .7403.4022 1.3866 1 1.7324v4.7689C2 12.435 3.5677 14 5.5 14 7.433 14 9 12.433 9 10.5v-5c0-.8284.6716-1.5 1.5-1.5s1.5.6716 1.5 1.5v4.7676c-.5978.3458-1 .9921-1 1.7324 0 1.1046.8954 2 2 2s2-.8954 2-2c0-.7403-.4022-1.3866-1-1.7324V5.5C14 3.567 12.433 2 10.5 2S7 3.567 7 5.5v5c0 .8284-.6716 1.5-1.5 1.5-.8291 0-1.5-.671-1.5-1.4987V5.7324Z"/></svg>