<svg xmlns="http://www.w3.org/2000/svg" fill="none" viewBox="0 0 16 16" class="acv-icon"><path fill="currentColor" fill-rule="evenodd" d="M4.7498 4.987c.177-.5231-.1037-1.0907-.627-1.2677-.523-.1769-1.0906.1038-1.2676.627l-1.804 5.3333A1 1 0 0 0 .9986 10v4.0098a1.0001 1.0001 0 0 0 1 1l12.0069-.0001a1 1 0 0 0 .9999-1.0013l-.0052-4.0097a1.0008 1.0008 0 0 0-.0519-.3168l-1.7898-5.3334c-.1757-.5236-.7426-.8056-1.2662-.63-.5236.1758-.8056.7427-.6299 1.2663L12.6097 9h-1.5684c-.291 0-.5701.1153-.7762.3206l-.6785.6758-3.1728.0031-.6774-.6773A1.1 1.1 0 0 0 4.9586 9H3.3924l1.3574-4.013ZM2.9985 11v2.0098l10.0055-.0001L13.0014 11H11.413l-.6781.6754a1.1002 1.1002 0 0 1-.7751.3206l-3.9173.0039a1.1001 1.1001 0 0 1-.7789-.3221L4.5858 11H2.9985Z" clip-rule="evenodd"/><path fill="currentColor" d="M10.6689 2.9515c0 .5523-.4477 1-1 1a.9998.9998 0 0 1-.2907-.043l-1.629.9427 1.5153.8619a.9964.9964 0 0 1 .4045-.0852c.5522 0 .9999.4477.9999 1s-.4477 1-1 1c-.5075 0-.9268-.3782-.9913-.8681L6.8875 5.7416a.9954.9954 0 0 1-.554.1674c-.5523 0-1-.4477-1-1s.4477-1 1-1a.9957.9957 0 0 1 .4571.1104l1.8785-1.087c.0102-.5434.454-.981.9999-.981.5522 0 .9999.4478.9999 1Z"/></svg>