<svg xmlns="http://www.w3.org/2000/svg" fill="none" viewBox="0 0 32 32" class="acv-icon"><path fill="currentColor" fill-rule="evenodd" d="M20 12v3a2 2 0 0 1 2 2v6a2 2 0 0 1-2 2h-8a2 2 0 0 1-2-2v-6a2 2 0 0 1 2-2v-3a3.9998 3.9998 0 1 1 8 0Zm-3.2929 9.8372A1.0005 1.0005 0 0 0 17 21.13V19a1 1 0 0 0-2 0v2.13a1 1 0 0 0 1.7071.7072ZM14 15h4v-3a2 2 0 0 0-4 0v3Z" clip-rule="evenodd"/><path fill="currentColor" fill-rule="evenodd" d="M23.1716 0a2 2 0 0 1 1.4142.5858l6.8284 6.8284A2 2 0 0 1 32 8.8284V30c0 1.1046-.8954 2-2 2H2c-1.1046 0-2-.8954-2-2V2C0 .8954.8954 0 2 0h21.1716ZM2 2v28h28V9h-7V2H2Z" clip-rule="evenodd"/></svg>