<svg xmlns="http://www.w3.org/2000/svg" fill="none" viewBox="0 0 16 16" class="acv-icon"><path fill="currentColor" d="M9 11c0-.5523-.4477-1-1-1s-1 .4477-1 1 .4477 1 1 1 1-.4477 1-1Z"/><path fill="currentColor" fill-rule="evenodd" d="M4 10V8a1 1 0 0 1 .6838-.9487l3-1a1 1 0 0 1 .6324 0l3 1A1 1 0 0 1 12 8v4c0 1.8363-1.3179 3.1543-3.6817 3.948a1.0008 1.0008 0 0 1-.6366 0C5.3179 15.1543 4 13.8363 4 12c-2.2524 0-4-1.8806-4-4.1818C0 6.243.855 4.8275 2.1733 4.115 3.093 1.6705 5.3852 0 8 0c2.9436 0 5.4404 2.1097 6.0876 4.9866C15.2463 5.6249 16 6.8772 16 8.2727 16 10.323 14.3858 12 12.375 12h-.3732v-2h.3732C13.2637 10 14 9.235 14 8.2727c0-.7604-.4654-1.4181-1.1264-1.6446a1 1 0 0 1-.6667-.8108C11.9088 3.6323 10.1137 2 8 2 6.1333 2 4.4933 3.276 3.9424 5.1249a1 1 0 0 1-.5942.6457C2.5489 6.0831 2 6.8925 2 7.8182 2 9.0315 2.8697 10 4 10Zm6 2V8.7208L8 8.054l-2 .6667V12c0 .7652.5931 1.4099 2 1.939 1.4069-.5291 2-1.1738 2-1.939Z" clip-rule="evenodd"/></svg>