<svg xmlns="http://www.w3.org/2000/svg" fill="none" viewBox="0 0 16 16" class="acv-icon"><path fill="currentColor" d="M5 3c.5523 0 1-.4477 1-1s-.4477-1-1-1H2c-.5523 0-1 .4477-1 1v3c0 .5523.4477 1 1 1s1-.4477 1-1V3h2ZM11 3c-.5523 0-1-.4477-1-1s.4477-1 1-1h3c.5523 0 1 .4477 1 1v3c0 .5523-.4477 1-1 1s-1-.4477-1-1V3h-2ZM10 14c0-.5523.4477-1 1-1h2v-2c0-.5523.4477-1 1-1s1 .4477 1 1v3c0 .5523-.4477 1-1 1h-3c-.5523 0-1-.4477-1-1ZM5 13c.5523 0 1 .4477 1 1s-.4477 1-1 1H2c-.5523 0-1-.4477-1-1v-3c0-.5523.4477-1 1-1s1 .4477 1 1v2h2ZM9 6v1h1c.5523 0 1 .4477 1 1s-.4477 1-1 1H9v1c0 .5523-.4477 1-1 1s-1-.4477-1-1V9H6c-.5523 0-1-.4477-1-1s.4477-1 1-1h1V6c0-.5523.4477-1 1-1s1 .4477 1 1Z"/></svg>