<svg xmlns="http://www.w3.org/2000/svg" fill="none" viewBox="0 0 24 24" class="acv-icon"><path fill="currentColor" d="M2 15V5.3C2 4.0298 3.0297 3 4.3 3h15.4C20.9703 3 22 4.0297 22 5.3V15c0 .5523-.4477 1-1 1s-1-.4477-1-1V5.3a.3.3 0 0 0-.3-.3H4.3a.3.3 0 0 0-.3.3V15c0 .5523-.4477 1-1 1s-1-.4477-1-1ZM0 18v1.5c0 .8284.6716 1.5 1.5 1.5h21c.8284 0 1.5-.6716 1.5-1.5V18h-8c0 .5523-.4477 1-1 1H9c-.5523 0-1-.4477-1-1H0Z"/><path fill="currentColor" d="M11.4286 6.5H8v3.4286h3.4286V6.5ZM11.4286 11.0714H8V14.5h3.4286v-3.4286ZM16 6.5h-3.4286v3.4286H16V6.5ZM16 11.0714h-3.4286V14.5H16v-3.4286Z"/></svg>