<svg xmlns="http://www.w3.org/2000/svg" fill="none" viewBox="0 0 16 16" class="acv-icon"><path fill="currentColor" d="M6.3858 10.4726c-.9248-.5601-1.5016-1.581-1.5016-2.665V2.65c0-.5402.1293-1.0573.368-1.5148L2.2125 2.975C1.2845 3.535.7077 4.5559.7077 5.6399V10.33c0 .5271.1392 1.0408.3845 1.4916.2288.3713.5536.6828.9547.9082.8386.4707 1.8263.4508 2.645-.0497l2.6584-1.6242-.9645-.5834Zm7.5276-1.7766-2.7976-1.674v.7591c0 1.0773-.5701 2.0982-1.4883 2.6584L5.04 13.247c-.5038.3083-1.0574.4707-1.6142.484l2.96 1.7932A3.1117 3.1117 0 0 0 8 15.975c.5569 0 1.117-.1492 1.6142-.4508l4.1765-2.5291a2.2469 2.2469 0 0 0 .2586-.179c.0265-.0166.053-.0364.0762-.053.2155-.1757.4077-.3746.5668-.5933l.0199-.0299c.2552-.3944.3978-.8585.3944-1.3457-.0033-.8685-.4474-1.654-1.1932-2.0982Zm-.126-5.7211L9.6142.449C9.475.3629 9.3292.2933 9.18.2336A2.4969 2.4969 0 0 0 8.6795.078c-.6099-.126-1.2463-.0266-1.8098.295C6.041.8469 5.5471 1.6954 5.5471 2.65v3.1821l.9281-.5469a2.986 2.986 0 0 1 3.0462.01l4.7334 2.8307c.4276.2585.7789.6 1.0341 1.001l.0034-3.487c0-1.084-.5768-2.1048-1.5049-2.665Z"/></svg>