<svg xmlns="http://www.w3.org/2000/svg" fill="none" viewBox="0 0 24 24" class="acv-icon"><path fill="currentColor" fill-rule="evenodd" d="M19.8867 12.5004a.988.988 0 0 1 .3838.0762 5.9638 5.9638 0 0 1 1.2852.7334c.2395.1809.3817.454.3877.751a.9412.9412 0 0 1-.3506.7529c-.1905.1564-.2201.4322-.0655.6435.1728.2371.3209.4931.4424.7608.1014.2235.3718.348.5957.2636.5994-.2211 1.2253.1864 1.3028.7803.0321.2456.0488.494.0488.7383 0 .2443-.0169.4928-.0479.7383-.0633.4812-.4743.8425-.9589.8428a.9728.9728 0 0 1-.3389-.0606c-.2489-.0928-.5002.0373-.6016.2608a4.3173 4.3173 0 0 1-.4424.7617c-.1536.2101-.1249.4861.0655.6426.2287.1869.3564.4597.3506.7529-.006.2958-.1482.5701-.3877.751a5.9395 5.9395 0 0 1-1.2852.7334.9881.9881 0 0 1-.3828.0771c-.4755 0-.8766-.3341-.9541-.7949-.0405-.242-.2733-.4045-.5342-.3789a4.2605 4.2605 0 0 1-.8818 0c-.2598-.0245-.4927.1369-.5332.3789-.0775.4607-.4787.7949-.9541.7949a.9886.9886 0 0 1-.3838-.0771 5.9677 5.9677 0 0 1-1.2861-.7334c-.2395-.1809-.3808-.4553-.3868-.751a.9397.9397 0 0 1 .3506-.7529c.1902-.1565.22-.4324.0654-.6436a4.3422 4.3422 0 0 1-.4423-.7607c-.1014-.2235-.3718-.3479-.5957-.2637-.6005.2211-1.2262-.1856-1.3028-.7793A5.6755 5.6755 0 0 1 12 18.0004c0-.2456.0169-.4952.0479-.7383.0631-.4803.474-.8427.9589-.8428.1156 0 .2305.0215.3389.0606.2501.0926.5003-.0382.6016-.2617a4.3158 4.3158 0 0 1 .4423-.7617c.1535-.2101.1249-.4862-.0654-.6426-.2287-.187-.3565-.4609-.3506-.7529.006-.297.1473-.5701.3868-.751a5.9069 5.9069 0 0 1 1.2861-.7334.9875.9875 0 0 1 .3828-.0762c.4753.0001.8766.3333.9541.7939.0405.242.2744.4058.5342.379a4.2466 4.2466 0 0 1 .8818 0c.2609.0268.4917-.137.5322-.379.0775-.4607.4797-.7939.9551-.7939Zm-1.9287 3.666c-.9854.0002-1.7871.8233-1.7871 1.834.0002 1.0105.8019 1.8328 1.7871 1.833.9854 0 1.7879-.8224 1.7881-1.833 0-1.0108-.8026-1.834-1.7881-1.834Z" clip-rule="evenodd"/><path fill="currentColor" d="M10 18.0004c.0001 1.8883.6558 3.6229 1.75 4.9912a4.2872 4.2872 0 0 1-1.9766-.6133l-4.083-2.4736c.768-.0183 1.5317-.2419 2.2266-.667l2.084-1.2764c-.0001.0129-.001.0262-.001.0391ZM8.21 2.5316c-.3291.6308-.5078 1.344-.5079 2.089v7.1142c.0001 1.4949.7958 2.9031 2.0713 3.6758l.5508.333a7.951 7.951 0 0 0-.2402 1.0937l-2.6465 1.6182c-1.1292.6903-2.4918.7175-3.6484.0683-.5532-.3108-1.002-.74-1.3174-1.2519-.3383-.6217-.5302-1.3308-.5303-2.0576V8.7446c.0001-1.495.7962-2.9032 2.0762-3.6758L8.21 2.5316Z"/><path fill="currentColor" d="M10.4404 1.4799c.7773-.4435 1.6559-.581 2.4971-.4072.2331.0457.4665.1188.6904.2148.2057.0823.4067.179.5987.2979l5.7558 3.4834c1.28.7726 2.0761 2.1809 2.0762 3.6757l-.0029 2.3604c-1.1894-.7011-2.5752-1.1045-4.0557-1.1045-.3105 0-.6167.0183-.918.0527L14.0986 8.269a4.1197 4.1197 0 0 0-4.2021-.0137l-1.2793.7549V4.6205c.0001-1.3164.6806-2.4868 1.8232-3.1406Z"/></svg>