<svg xmlns="http://www.w3.org/2000/svg" fill="none" viewBox="0 0 16 16" class="acv-icon"><path fill="currentColor" d="M2.5177 2.9116C2.798 1.5094 4.0294.5 5.4594.5h5.0812c1.43 0 2.6613 1.0094 2.9417 2.4116l1.3015 6.5072A3.9838 3.9838 0 0 0 13 9H3c-.641 0-1.2467.1508-1.7837.4188l1.3014-6.5071Z"/><path fill="currentColor" fill-rule="evenodd" d="M3 10.5C1.6193 10.5.5 11.6193.5 13s1.1193 2.5 2.5 2.5h10c1.3807 0 2.5-1.1193 2.5-2.5s-1.1193-2.5-2.5-2.5H3Zm9.75 3.25a.75.75 0 1 0 0-1.5.75.75 0 0 0 0 1.5ZM2.5 13a.75.75 0 0 1 .75-.75h1.5a.75.75 0 0 1 0 1.5h-1.5A.75.75 0 0 1 2.5 13Z" clip-rule="evenodd"/></svg>