<svg xmlns="http://www.w3.org/2000/svg" fill="none" viewBox="0 0 24 24" class="acv-icon"><path fill="currentColor" d="M11.5 15c.5523 0 1 .4477 1 1s-.4477 1-1 1-1-.4477-1-1 .4477-1 1-1ZM11.5 6c.5523 0 1 .4477 1 1v6c0 .5523-.4477 1-1 1s-1-.4477-1-1V7c0-.5523.4477-1 1-1Z"/><path fill="currentColor" fill-rule="evenodd" d="M11.5 2c5.2467 0 9.5 4.2533 9.5 9.5 0 2.2631-.7932 4.3398-2.1143 5.9717l3.8213 3.8213c.3905.3905.3905 1.0235 0 1.414a.9996.9996 0 0 1-1.414 0l-3.8213-3.8213C15.8398 20.2068 13.7631 21 11.5 21 6.2533 21 2 16.7467 2 11.5S6.2533 2 11.5 2Zm0 2C7.3579 4 4 7.3579 4 11.5S7.3579 19 11.5 19s7.5-3.3579 7.5-7.5S15.6421 4 11.5 4Z" clip-rule="evenodd"/></svg>