<svg xmlns="http://www.w3.org/2000/svg" fill="none" viewBox="0 0 16 16" class="acv-icon"><path fill="#9BC225" d="M3.5 6.5c1.6569 0 3-1.3431 3-3 0-1.6568-1.3431-3-3-3-1.6568 0-3 1.3432-3 3 0 1.6569 1.3432 3 3 3Z"/><path stroke="#243143" stroke-opacity=".1" d="M3.5 1C4.8807 1 6 2.1193 6 3.5S4.8807 6 3.5 6 1 4.8807 1 3.5 2.1193 1 3.5 1Z"/><path fill="#FFC107" d="M12.5 6.5c1.6569 0 3-1.3431 3-3 0-1.6568-1.3431-3-3-3s-3 1.3432-3 3c0 1.6569 1.3431 3 3 3Z"/><path stroke="#243143" stroke-opacity=".1" d="M12.5 1C13.8807 1 15 2.1193 15 3.5S13.8807 6 12.5 6 10 4.8807 10 3.5 11.1193 1 12.5 1Z"/><path fill="#EA3939" d="M12.5 15.5c1.6569 0 3-1.3431 3-3s-1.3431-3-3-3-3 1.3431-3 3 1.3431 3 3 3Z"/><path stroke="#243143" stroke-opacity=".1" d="M12.5 10c1.3807 0 2.5 1.1193 2.5 2.5S13.8807 15 12.5 15 10 13.8807 10 12.5s1.1193-2.5 2.5-2.5Z"/><path fill="#408BEA" d="M3.5 15.5c1.6569 0 3-1.3431 3-3s-1.3431-3-3-3c-1.6568 0-3 1.3431-3 3s1.3432 3 3 3Z"/><path stroke="#243143" stroke-opacity=".1" d="M3.5 10C4.8807 10 6 11.1193 6 12.5S4.8807 15 3.5 15 1 13.8807 1 12.5 2.1193 10 3.5 10Z"/></svg>