<svg xmlns="http://www.w3.org/2000/svg" fill="none" viewBox="0 0 32 32" class="acv-icon"><path fill="currentColor" fill-rule="evenodd" d="M4 3c-1.1046 0-2 .8954-2 2v18c0 1.1046.8954 2 2 2h8l-.8447 3.3787c-.0789.3156.1598.6213.4851.6213h4.6513C14.8666 27.4077 14 25.3051 14 23a9.042 9.042 0 0 1 .171-1.7548l-4.9235-2.872A.4978.4978 0 0 1 9 17.9435v-6.1118c0-.3851.4209-.6246.755-.4297l5.2265 3.0488a.4977.4977 0 0 1 .2475.4296v3.5767a9.0345 9.0345 0 0 1 1.542-1.9532v-1.6235a.4977.4977 0 0 1 .2475-.4296l5.2265-3.0488c.3341-.1949.755.0446.755.4297V14c2.8273 0 5.35 1.3037 7 3.3427V5c0-1.1046-.8954-2-2-2H4Zm17.493 6.129c.3299.1926.3297.6667-.0002.8591l-5.2392 3.0562a.504.504 0 0 1-.5075 0l-5.2393-3.0562c-.3299-.1924-.33-.6665-.0002-.8591l5.2392-3.0603a.504.504 0 0 1 .508 0L21.493 9.129Z" clip-rule="evenodd"/><path fill="currentColor" d="M20.5 19.8616c0-.3839.4147-.6246.7481-.4341l5.4922 3.1384c.3359.1919.3359.6763 0 .8682l-5.4922 3.1384c-.3334.1905-.7481-.0502-.7481-.4341v-6.2768Z"/><path fill="currentColor" fill-rule="evenodd" d="M32 23c0 4.9706-4.0294 9-9 9s-9-4.0294-9-9 4.0294-9 9-9 9 4.0294 9 9Zm-2 0c0 3.866-3.134 7-7 7s-7-3.134-7-7 3.134-7 7-7 7 3.134 7 7Z" clip-rule="evenodd"/></svg>