<svg xmlns="http://www.w3.org/2000/svg" fill="none" viewBox="0 0 24 24" class="acv-icon"><path fill="currentColor" d="M3 20c.5523 0 1 .4477 1 1s-.4477 1-1 1-1-.4477-1-1 .4477-1 1-1Z"/><path fill="currentColor" fill-rule="evenodd" d="M22 5c0-1.6568-1.3431-3-3-3H5C3.3432 2 2 3.3431 2 5v6.0529c0 .5315.4599.9422.9905.9471H3c4.9706 0 9 4.0294 9 9 0 .5346.4125 1 .9471 1H19c1.6569 0 3-1.3431 3-3V5Zm-8.0448 15H19c.5523 0 1-.4477 1-1V5c0-.5523-.4477-1-1-1H5c-.5523 0-1 .4477-1 1v5.0448c5.2771.4756 9.4796 4.6781 9.9552 9.9552Z" clip-rule="evenodd"/><path fill="currentColor" d="M8.9969 21.1952c-.015.4669-.422.8048-.8892.8048h-.2231C7.3726 22 7 21.5119 7 21c0-2.2091-1.7909-4-4-4-.512 0-1-.3727-1-.8846v-.2231c0-.4672.3379-.8743.8048-.8892C2.8696 15.001 2.9347 15 3 15c3.3137 0 6 2.6863 6 6 0 .0653-.001.1304-.0031.1952Z"/></svg>