<svg xmlns="http://www.w3.org/2000/svg" fill="none" viewBox="0 0 24 24" class="acv-icon"><path fill="currentColor" fill-rule="evenodd" d="M7 10c0-2.7614 2.2386-5 5-5s5 2.2386 5 5-2.2386 5-5 5-5-2.2386-5-5Zm5 3c-1.6569 0-3-1.3431-3-3s1.3431-3 3-3 3 1.3431 3 3-1.3431 3-3 3Z" clip-rule="evenodd"/><path fill="currentColor" fill-rule="evenodd" d="M13.4205 1.264a2.9999 2.9999 0 0 0-2.8414 0l-1.0872.5845a2.9998 2.9998 0 0 1-.8106.2951l-1.2086.251A3 3 0 0 0 5.296 4.2211l-.457 1.1466a2.9998 2.9998 0 0 1-.4314.747l-.7644.9692a3 3 0 0 0-.4935 2.7983l.387 1.1722c.0905.2745.141.5606.1497.8495l.0374 1.2338a3 3 0 0 0 1.4207 2.4608l1.0498.6492c.2192.1356.4199.2987.5972.4854l-.6382 4.5949c-.1734 1.2483 1.1768 2.141 2.2575 1.4926L12 20.8693l3.5892 1.9513c1.0808.6484 2.4309-.2443 2.2575-1.4926l-.6382-4.5953a3.0019 3.0019 0 0 1 .5968-.485l1.0498-.6492a3 3 0 0 0 1.4207-2.4608l.0374-1.2338a2.9983 2.9983 0 0 1 .1498-.8495l.3869-1.1722a3.0002 3.0002 0 0 0-.4934-2.7983l-.7645-.9691a2.9993 2.9993 0 0 1-.4313-.7471l-.4571-1.1466a3 3 0 0 0-2.1767-1.8265l-1.2085-.251a2.9991 2.9991 0 0 1-.8107-.295l-1.0872-.5846Zm.14 2.346-1.0871-.5845a1 1 0 0 0-.9472 0l-1.0871.5846a4.9997 4.9997 0 0 1-1.3511.4917l-1.2086.251a1 1 0 0 0-.7255.6088l-.4571 1.1467a4.9997 4.9997 0 0 1-.719 1.2451l-.7644.9692a1 1 0 0 0-.1644.9327l.3869 1.1722a5 5 0 0 1 .2496 1.4159l.0374 1.2338a1 1 0 0 0 .4735.8203l1.0499.6492a5.0008 5.0008 0 0 1 1.1014.9242l.8216.9212a1 1 0 0 0 .8901.3239l1.2215-.1775a5.005 5.005 0 0 1 1.4378 0l1.2215.1775a1.0001 1.0001 0 0 0 .8901-.3239l.8216-.9212a5 5 0 0 1 1.1015-.9242l1.0498-.6492a1.0003 1.0003 0 0 0 .4736-.8203l.0373-1.2338a5.0012 5.0012 0 0 1 .2497-1.4159l.3869-1.1722a1.0002 1.0002 0 0 0-.1645-.9327l-.7645-.9692a5.0025 5.0025 0 0 1-.7189-1.2451l-.457-1.1467a1.0002 1.0002 0 0 0-.7256-.6088l-1.2086-.251a5.0012 5.0012 0 0 1-1.3511-.4917ZM8.2781 20.5679l.2995-2.1563a2.9994 2.9994 0 0 0 1.7693.2837l1.2216-.1775a3.0045 3.0045 0 0 1 .8627 0l1.2215.1775a2.9992 2.9992 0 0 0 1.7697-.2839l.2996 2.1565L12.7718 19a1.5 1.5 0 0 0-1.5435 0l-2.9502 1.5678Z" clip-rule="evenodd"/></svg>