<svg xmlns="http://www.w3.org/2000/svg" fill="none" viewBox="0 0 24 24" class="acv-icon"><path fill="currentColor" d="M12 1c3.7392 0 6.975 2.419 7.965 5.831C21.7969 7.7324 23 9.5665 23 11.625c0 2.2807-1.4944 4.2867-3.6676 5.0526-.5209.1836-1.092-.0898-1.2755-.6107-.1836-.5209.0898-1.092.6107-1.2755C20.0584 14.3012 21 13.0373 21 11.625c0-1.3903-.8935-2.6296-2.237-3.1379a.9999.9999 0 0 1-.623-.7218C17.5387 5.0141 14.9895 3 12 3 9.2901 3 6.9187 4.6576 6.0612 7.0629a1 1 0 0 1-.5778.5955C3.9895 8.2425 3 9.6312 3 11.1875c0 1.5213.9452 2.8843 2.389 3.4908.5092.2139.7486.8001.5347 1.3093-.214.5092-.8001.7485-1.3093.5346C2.442 15.6096 1 13.5301 1 11.1875c0-2.2448 1.324-4.2448 3.3385-5.2108C5.5942 2.9992 8.603 1 12 1Zm-1.7324 19A2.0095 2.0095 0 0 1 11 19.2676V17c0-.5523.4477-1 1-1s1 .4477 1 1v2.2676c.3036.1756.5568.4288.7324.7324H16c.5523 0 1 .4477 1 1s-.4477 1-1 1h-2.2676c-.3458.5978-.9921 1-1.7324 1s-1.3866-.4022-1.7324-1H8c-.5523 0-1-.4477-1-1s.4477-1 1-1h2.2676ZM17 10.5v2a.5.5 0 0 1-.5.5h-9a.5.5 0 0 1-.5-.5v-2a.5.5 0 0 1 .5-.5h9a.5.5 0 0 1 .5.5ZM15.5 12a.5.5 0 1 0-.0001-1.0001A.5.5 0 0 0 15.5 12Zm-2 0a.5.5 0 1 0-.0001-1.0001A.5.5 0 0 0 13.5 12Zm-5 0a.5.5 0 1 0 0-1 .5.5 0 0 0 0 1Zm8.5 2.5v2a.5.5 0 0 1-.5.5h-9a.5.5 0 0 1-.5-.5v-2a.5.5 0 0 1 .5-.5h9a.5.5 0 0 1 .5.5ZM15.5 16a.5.5 0 1 0-.0001-1.0001A.5.5 0 0 0 15.5 16Zm-2 0a.5.5 0 1 0-.0001-1.0001A.5.5 0 0 0 13.5 16Zm-2 0a.5.5 0 1 0-.0001-1.0001A.5.5 0 0 0 11.5 16Zm-3 0a.5.5 0 1 0 0-1 .5.5 0 0 0 0 1Z"/></svg>