<svg xmlns="http://www.w3.org/2000/svg" fill="none" viewBox="0 0 32 32" class="acv-icon"><path fill="currentColor" d="M16 27H5V5h18v3c0 .5523.4477 1 1 1s1-.4477 1-1V4c0-.5523-.4477-1-1-1H4c-.5523 0-1 .4477-1 1v24c0 .5523.4477 1 1 1h12c.5523 0 1-.4477 1-1s-.4477-1-1-1Z"/><path fill="currentColor" d="M8 8h3c.5523 0 1 .4477 1 1s-.4477 1-1 1H8c-.5523 0-1-.4477-1-1s.4477-1 1-1ZM24 20c-1.1046 0-2-.8954-2-2s.8954-2 2-2 2 .8954 2 2-.8954 2-2 2Z"/><path fill="currentColor" fill-rule="evenodd" d="M20 22.8617a1.8632 1.8632 0 0 0-1.2039-.9882l-.7435-.1946c-.7529-.1971-1.2034-.9673-1.0063-1.7201a1.4115 1.4115 0 0 1 .1469-.3547l.3881-.6634a1.8631 1.8631 0 0 0 0-1.8814l-.3881-.6634c-.393-.6717-.167-1.5349.5047-1.9279a1.4115 1.4115 0 0 1 .3547-.1469l.7435-.1946a1.8629 1.8629 0 0 0 1.3304-1.3304l.1946-.7435c.1971-.7529.9673-1.2034 1.7201-1.0063.1244.0326.2437.082.3547.1469l.6634.3881a1.8631 1.8631 0 0 0 1.8814 0l.6634-.3881c.6717-.393 1.5349-.167 1.9279.5047.0649.111.1143.2303.1469.3547l.1946.7435a1.8629 1.8629 0 0 0 1.3304 1.3304l.7435.1946c.7529.1971 1.2034.9673 1.0063 1.7201a1.4115 1.4115 0 0 1-.1469.3547l-.3881.6634a1.8631 1.8631 0 0 0 0 1.8814l.3881.6634c.393.6717.167 1.5349-.5047 1.9279a1.4115 1.4115 0 0 1-.3547.1469l-.7435.1946A1.8632 1.8632 0 0 0 28 22.8617V29c0 .824-.9408 1.2944-1.6.8L24 28.25l-2.4 1.55c-.6592.4944-1.6.024-1.6-.8v-6.1383Zm2 2.1025V27l1.4-.8a.9999.9999 0 0 1 1.2 0l1.4.8v-2.0361a1.4115 1.4115 0 0 1-.3959-.1571l-.6634-.3881a1.8631 1.8631 0 0 0-1.8814 0l-.6634.3881a1.4064 1.4064 0 0 1-.3959.1574ZM28.5 18c0 2.4853-2.0147 4.5-4.5 4.5s-4.5-2.0147-4.5-4.5 2.0147-4.5 4.5-4.5 4.5 2.0147 4.5 4.5Z" clip-rule="evenodd"/><path fill="currentColor" d="M10 22H8c-.5523 0-1 .4477-1 1s.4477 1 1 1h2c.5523 0 1-.4477 1-1s-.4477-1-1-1ZM8 13h6c.5523 0 1 .4477 1 1s-.4477 1-1 1H8c-.5523 0-1-.4477-1-1s.4477-1 1-1ZM14 17H8c-.5523 0-1 .4477-1 1s.4477 1 1 1h6c.5523 0 1-.4477 1-1s-.4477-1-1-1Z"/></svg>