<svg xmlns="http://www.w3.org/2000/svg" fill="none" viewBox="0 0 16 16" class="acv-icon"><path fill="currentColor" d="m10.0066 14.2424.04-.0711.0801-.0356a1.2198 1.2198 0 0 0 .3686-.3105 1.2385 1.2385 0 0 0 .2218-.4309 5.0379 5.0379 0 0 0 .035-1.9957c.0055-.1853-.0676-.3896-.1401-.592-.1262-.3524-.2505-.6993.0451-.9315.225-.0355.4849-.0355.725-.0355h.0005c.5804.0305 1.1659.0406 1.7513 0 .1344.0006.2686-.013.4003-.0407h.035a1.6526 1.6526 0 0 0 .3803-.1168 1.0671 1.0671 0 0 0 .3452-.2082c.343-.2827.2992-.6436.2557-1.0021-.0409-.337-.0816-.672.1997-.9377.4653-.4875.2101-1.1528-.1902-1.5793-.1359-.238-.0653-.5248.0043-.8078.0893-.363.1771-.7198-.1744-.9595-.4731-.168-.5308-.5539-.5909-.9556-.0289-.193-.0583-.3898-.1346-.5678-.4379-.5432-1.1386-.5662-1.796-.5878-.1539-.005-.3054-.01-.4507-.0216a28.1035 28.1035 0 0 0-3.1373.1117c-.4796.0635-.8914.3117-1.3046.5607-.3799.229-.761.4588-1.1972.5463h-.2752v6.0939a4.853 4.853 0 0 1 2.0313 1.2069 4.9527 4.9527 0 0 1 1.236 2.033 9.121 9.121 0 0 1 .0859.3339c.1192.4884.252 1.0323.6197 1.2251a.5761.5761 0 0 0 .1901.0762.8404.8404 0 0 0 .2252 0h.1151ZM1.5004 9.8751h2.5018c.2763 0 .5004-.2273.5004-.5078V2.2578c0-.2804-.224-.5078-.5004-.5078H1.5004C1.224 1.75 1 1.9774 1 2.2578v7.1095c0 .2805.224.5078.5004.5078Z"/></svg>