<svg xmlns="http://www.w3.org/2000/svg" fill="none" viewBox="0 0 24 24" class="acv-icon"><path fill="currentColor" d="M8.3287 8.2325c.3946-.347.9888-.3002 1.327.1047l2.1177 2.5345c.3021.3615.3021.8951 0 1.2566l-2.1176 2.5345c-.3383.4049-.9325.4518-1.3271.1047-.3947-.347-.4404-.9565-.1021-1.3614L9.8192 11.5 8.2266 9.5939c-.3383-.4049-.2926-1.0144.102-1.3614ZM11 17c0-.5523.4477-1 1-1h3c.5523 0 1 .4477 1 1s-.4477 1-1 1h-3c-.5523 0-1-.4477-1-1Z"/><path fill="currentColor" fill-rule="evenodd" d="M4 3.5C4 2.6716 4.6716 2 5.5 2h8.8787a1.5 1.5 0 0 1 1.0606.4393l4.1214 4.1214A1.5 1.5 0 0 1 20 7.6213V20.5c0 .8284-.6716 1.5-1.5 1.5h-13c-.8284 0-1.5-.6716-1.5-1.5v-17Zm14 6V20H6V4h6.5v4.5c0 .5523.4477 1 1 1H18Zm-.3284-2L14.5 4.3284V7.5h3.1716Z" clip-rule="evenodd"/></svg>