<svg xmlns="http://www.w3.org/2000/svg" fill="none" viewBox="0 0 96 96" class="acv-icon"><path fill="url(#LaptopLinuxEnabledIll96:a)" d="M15 23h66v46H15V23Z"/><path fill="#FAFCFF" d="M32.4125 51v-8.7273h2.1094v7.0142h3.6306V51h-5.74ZM39.2445 51v-6.5455h2.0838V51h-2.0838Zm1.044-7.3083c-.2926 0-.544-.0965-.7542-.2897-.2102-.196-.3154-.4318-.3154-.7074 0-.2727.1052-.5057.3154-.6989.2102-.196.4616-.294.7542-.294.2955 0 .5469.098.7543.294.2102.1932.3153.4262.3153.6989 0 .2756-.1051.5114-.3153.7074-.2074.1932-.4588.2897-.7543.2897ZM44.7385 47.267V51h-2.0838v-6.5455h1.9815v1.2017h.0724c.1449-.4005.3921-.7145.7415-.9417.3495-.2301.7656-.3452 1.2486-.3452.4602 0 .8594.1037 1.1974.3111.341.2045.6052.4915.7927.8608.1903.3665.284.7954.2812 1.2869V51h-2.0838v-3.7628c.0028-.3636-.0895-.6477-.277-.8523-.1846-.2045-.4418-.3068-.7713-.3068-.2187 0-.4119.0483-.5795.1449-.1648.0937-.2927.2287-.3836.4048-.088.1762-.1335.3892-.1363.6392ZM54.4831 48.1747v-3.7202h2.0796V51h-1.9858v-1.2188h-.0682c-.1449.4006-.392.7188-.7415.9546-.3466.2329-.7656.3494-1.2571.3494-.446 0-.838-.1023-1.1761-.3068-.3381-.2045-.6009-.4901-.7884-.8565-.1875-.3694-.2826-.8012-.2855-1.2955v-4.1719h2.0838v3.7628c.0029.3551.0966.635.2813.8395.1846.2046.4361.3068.7542.3068.2074 0 .3935-.0454.5583-.1363.1676-.0938.2997-.2287.3963-.4049.0994-.1789.1491-.3949.1491-.6477ZM59.6618 44.4545l1.0781 2.1563 1.1165-2.1563h2.1008l-1.8281 3.2728L64.0254 51h-2.0838l-1.2017-2.1733L59.568 51h-2.1136l1.9005-3.2727-1.8068-3.2728h2.1137Z"/><path fill="url(#LaptopLinuxEnabledIll96:b)" d="M32 23h49v42H56L32 23Z" opacity=".15"/><path fill="url(#LaptopLinuxEnabledIll96:c)" d="M49 23h32v23H63.1224L49 23Z" opacity=".25"/><path fill="url(#LaptopLinuxEnabledIll96:d)" fill-rule="evenodd" d="M80 24H16v44h64V24Zm-65-1v46h66V23H15Z" clip-rule="evenodd" opacity=".2"/><path fill="#434C59" d="M15 19c-1.6569 0-3 1.3431-3 3v49H5c-.5523 0-1 .4477-1 1v3c0 1.1046.8954 2 2 2h84c1.1046 0 2-.8954 2-2v-3c0-.5523-.4477-1-1-1h-7V22c0-1.6569-1.3431-3-3-3H15Z"/><path fill="#303640" d="M4 73v2c0 1.1046.8954 2 2 2h84c1.1046 0 2-.8954 2-2v-2c0 1.1046-.8954 2-2 2H6c-1.1046 0-2-.8954-2-2Z"/><path fill="#6C7480" d="M4 72c0-.5523.4477-1 1-1h86c.5523 0 1 .4477 1 1H4ZM15 19c-1.6569 0-3 1.3431-3 3v1c0-1.6569 1.3431-3 3-3h66c1.6569 0 3 1.3431 3 3v-1c0-1.6569-1.3431-3-3-3H15Z"/><path fill="#82E03D" d="M84 73.5a.5.5 0 0 1 .5-.5h3a.5.5 0 0 1 0 1h-3a.5.5 0 0 1-.5-.5Z"/><path fill="url(#LaptopLinuxEnabledIll96:e)" d="M37 71h22c0 1.1046-.8954 2-2 2H39c-1.1046 0-2-.8954-2-2Z"/><defs><linearGradient id="LaptopLinuxEnabledIll96:a" x1="16" x2="81" y1="68" y2="26" gradientUnits="userSpaceOnUse"><stop stop-color="#40A9FF"/><stop offset="1" stop-color="#A6D7FF"/></linearGradient><linearGradient id="LaptopLinuxEnabledIll96:b" x1="44" x2="44" y1="23" y2="65" gradientUnits="userSpaceOnUse"><stop stop-color="#fff"/><stop offset="1" stop-color="#EBEBEB" stop-opacity="0"/></linearGradient><linearGradient id="LaptopLinuxEnabledIll96:c" x1="56.5" x2="56.5" y1="23" y2="46" gradientUnits="userSpaceOnUse"><stop stop-color="#fff"/><stop offset="1" stop-color="#fff" stop-opacity="0"/></linearGradient><linearGradient id="LaptopLinuxEnabledIll96:d" x1="48" x2="48" y1="23" y2="69" gradientUnits="userSpaceOnUse"><stop stop-color="#1D2026"/><stop offset="1" stop-color="#1D2026" stop-opacity="0"/></linearGradient><linearGradient id="LaptopLinuxEnabledIll96:e" x1="46" x2="46" y1="71" y2="73" gradientUnits="userSpaceOnUse"><stop stop-color="#A1A8B2"/><stop offset=".0001" stop-color="#84817F"/><stop offset="1" stop-color="#92918F"/></linearGradient></defs></svg>