<svg xmlns="http://www.w3.org/2000/svg" fill="none" viewBox="0 0 16 16" class="acv-icon"><path fill="currentColor" d="M11.6851 7.2611c.3896-.3914.3882-1.0245-.0033-1.4142-.3914-.3896-1.0245-.3881-1.4142.0033L7.1567 8.9755l-1.4634-1.31c-.4115-.3683-1.0437-.3333-1.412.0782-.3684.4115-.3334 1.0437.0781 1.412l2.8766 2.5751 4.4491-4.4697Z"/><path fill="currentColor" fill-rule="evenodd" d="M8 0C3.5817 0 0 3.5817 0 8s3.5817 8 8 8 8-3.5817 8-8-3.5817-8-8-8ZM2 8c0-3.3137 2.6863-6 6-6s6 2.6863 6 6-2.6863 6-6 6-6-2.6863-6-6Z" clip-rule="evenodd"/></svg>