<svg xmlns="http://www.w3.org/2000/svg" fill="none" viewBox="0 0 24 24" class="acv-icon"><path fill="currentColor" d="M14.5478 5.9112c.804 0 1.4557-.6517 1.4557-1.4556 0-.8039-.6517-1.4556-1.4557-1.4556-.8039 0-1.4556.6517-1.4556 1.4556 0 .0212.0005.0424.0014.0633l-2.7835 1.6695a1.4492 1.4492 0 0 0-.8545-.277C8.6517 5.9113 8 6.563 8 7.367c0 .8039.6517 1.4556 1.4556 1.4556.3708 0 .7092-.1386.9662-.3668l2.6728 1.5431c.0438.7646.6777 1.3711 1.4532 1.3711.804 0 1.4557-.6517 1.4557-1.4556 0-.804-.6517-1.4557-1.4557-1.4557a1.449 1.449 0 0 0-.7977.2379l-2.4416-1.4097 2.5673-1.5397c.201.1048.4296.164.672.164ZM15 18c0-.5523-.4477-1-1-1h-4c-.5523 0-1 .4477-1 1s.4477 1 1 1h4c.5523 0 1-.4477 1-1Z"/><path fill="currentColor" fill-rule="evenodd" d="M18.8944 6.5527c-.247-.494-.8477-.6942-1.3417-.4472-.494.247-.6942.8477-.4472 1.3417L19.3819 12h-3.3202c-.4161 0-.7967.2349-.9833.6069l-.6959 1.3877-4.7648.0048-.6956-1.3913A1.1 1.1 0 0 0 7.9382 12H4.616l2.2777-4.5526c.247-.494.047-1.0947-.447-1.3418-.4939-.247-1.0946-.047-1.3417.447l-2.896 5.7887a1.9998 1.9998 0 0 0-.2114.8948v6.7786c0 1.1045.8954 2 2 2l16.0092-.0001c1.1053 0 2.0011-.8967 2-2.002l-.0066-6.7781a1.9992 1.9992 0 0 0-.2112-.8924l-2.8946-5.7894ZM3.9976 14v6.0147l16.0092-.0001L20.0009 14h-3.3837l-.6957 1.3871a1.0999 1.0999 0 0 1-.9821.6069l-5.8765.0059a1.0998 1.0998 0 0 1-.985-.608L7.3819 14H3.9977Z" clip-rule="evenodd"/></svg>