<svg xmlns="http://www.w3.org/2000/svg" fill="none" viewBox="0 0 32 32" class="acv-icon"><path fill="currentColor" d="M26 22v-2h-8v2h8Z"/><path fill="currentColor" fill-rule="evenodd" d="M26 14.0703V5H13V2H2v22h12.5815c1.1868 2.9318 4.0611 5 7.4185 5 4.4183 0 8-3.5817 8-8 0-2.9611-1.6088-5.5465-4-6.9297ZM24 11H4v11h10.0619A8.0689 8.0689 0 0 1 14 21c0-4.4183 3.5817-8 8-8 .6906 0 1.3608.0875 2 .252V11Zm0-2V7H11V4H4v5h20Zm-2 18c3.3137 0 6-2.6863 6-6s-2.6863-6-6-6-6 2.6863-6 6 2.6863 6 6 6Z" clip-rule="evenodd"/></svg>