<svg xmlns="http://www.w3.org/2000/svg" fill="none" viewBox="0 0 24 24" class="acv-icon"><path fill="currentColor" fill-rule="evenodd" d="M14.7816 2.3362 8.788 5H4c-1.1046 0-2 .8954-2 2v6c0 1.1046.8954 2 2 2v4c0 1.6569 1.3431 3 3 3s3-1.3431 3-3v-1c0-.5523-.4477-1-1-1s-1 .4477-1 1v1c0 .5523-.4477 1-1 1s-1-.4477-1-1v-4h2.7876l5.994 2.664C16.7654 18.5457 19 17.0935 19 14.9225V13c1.933 0 3.5-1.567 3.5-3.5S20.933 6 19 6v-.9224c0-2.171-2.2346-3.6232-4.2184-2.7414ZM17 5.0776c0-.7237-.7449-1.2077-1.4061-.9138L10 6.6499v6.7003l5.5939 2.4862c.6612.2939 1.4061-.1902 1.4061-.9139V5.0776ZM5 13h3V7H5c-.5523 0-1 .4477-1 1v4c0 .5523.4477 1 1 1Zm15.5-3.5c0 .8284-.6716 1.5-1.5 1.5V8c.8284 0 1.5.6716 1.5 1.5Z" clip-rule="evenodd"/></svg>