<svg xmlns="http://www.w3.org/2000/svg" fill="none" viewBox="0 0 32 32" class="acv-icon"><path fill="currentColor" d="M20.9132 15.1672a.175.175 0 0 0-.1149.1644v5.5816a2.9586 2.9586 0 0 1-1.9169 2.7697l-2.0207.7607a.5912.5912 0 0 1-.5456-.0671.5914.5914 0 0 1-.2547-.4871v-6.6986a.175.175 0 0 0-.2351-.1644l-3.7223 1.3597a1.1843 1.1843 0 0 0-.7747 1.1119v9.3171c0 .8226.8167 1.3942 1.5902 1.1119l11.8547-4.3319a2.9579 2.9579 0 0 0 1.9437-2.7791V11.5c-.0004.6064-.3419.898-.5347 1.1736-.2558.3655-.8395.8749-1.409 1.0831l-3.86 1.4105Zm.1201-.6645a.175.175 0 0 1-.235-.1644V12.877a2.96 2.96 0 0 0-1.9192-2.7709l-2.0161-.7583a.5923.5923 0 0 0-.7324.2796.5915.5915 0 0 0-.0679.2745v5.3551c0 .8179-.8109 1.3896-1.5809 1.1154l-7.6955-2.7487A1.1842 1.1842 0 0 1 6 12.5083V3.1842c0-.8179.8109-1.3896 1.582-1.1142l17.1714 6.132a2.9614 2.9614 0 0 1 1.245.8535c.6596.7642.6831 1.9262.1477 2.782-.3237.5173-.8198.9969-1.5736 1.372l-3.5392 1.2932Z"/></svg>