<svg xmlns="http://www.w3.org/2000/svg" fill="none" viewBox="0 0 96 96" class="acv-icon"><path fill="url(#LaptopMacbookDisabledIll96:a)" d="M14 22h68v47H14V22Z"/><path fill="#FAFCFF" d="M49.8738 40.9619c.5382-.2716 1.1306-.5706 1.9986-.5706 1.1494 0 3.0483 1.0183 3.8138 2.1682-1.4562.5515-2.4901 1.946-2.4901 3.5791 0 1.6484 1.0533 3.0536 2.531 3.5943-.3777.8555-.5996 1.2781-1.1071 2.0721-.7403 1.1604-1.7538 2.6252-3.0515 2.6351-.5329.0046-.8915-.1581-1.2775-.3333-.449-.2038-.9352-.4244-1.7757-.4181-.8338.0044-1.3019.2216-1.7324.4214-.3757.1744-.7227.3355-1.259.33-1.8948 0-5.2513-4.2225-5.2513-8.0271 0-4.1821 2.836-5.9573 4.7017-5.9582.7185 0 1.3449.258 1.9415.5037.5422.2233 1.0598.4364 1.5995.4364.5004 0 .9107-.207 1.3585-.433ZM51.0774 38.9337c-.976.9645-2.251 1.3887-3.3353 1.2182l-.0012.0012c-.1726-1.0717.2567-2.3316 1.2327-3.2961.9759-.9645 2.2509-1.3888 3.3353-1.2182l.0011-.0012c.1726 1.0716-.2567 2.3316-1.2326 3.2961Z"/><path fill="url(#LaptopMacbookDisabledIll96:b)" d="M31.5151 22H82v42.913H56.2424L31.5151 22Z" opacity=".15"/><path fill="url(#LaptopMacbookDisabledIll96:c)" d="M49.0303 22H82v23.5H63.5807L49.0303 22Z" opacity=".25"/><path fill="url(#LaptopMacbookDisabledIll96:d)" fill-rule="evenodd" d="M81 23H15v45h66V23Zm-67-1v47h68V22H14Z" clip-rule="evenodd" opacity=".2"/><path fill="#434C59" fill-rule="evenodd" d="M12 22c0-1.6569 1.3431-3 3-3h66c1.6569 0 3 1.3431 3 3v49H12V22Zm70 0v47H14V22h28.625c.5523 0 .9793.4745 1.2445.959.3396.6203.9984 1.041 1.7555 1.041h4.75c.7571 0 1.4159-.4207 1.7555-1.041.2652-.4845.6922-.959 1.2445-.959H82Z" clip-rule="evenodd"/><path fill="#6C7480" d="M15 19c-1.6569 0-3 1.3431-3 3v1c0-1.6569 1.3431-3 3-3h66c1.6569 0 3 1.3431 3 3v-1c0-1.6569-1.3431-3-3-3H15Z"/><path fill="#CED2D9" d="M15 19c-1.6569 0-3 1.3431-3 3v49H5c-.5523 0-1 .4477-1 1v3c0 1.1046.8954 2 2 2h84c1.1046 0 2-.8954 2-2v-3c0-.5523-.4477-1-1-1h-7V22c0-1.6569-1.3431-3-3-3H15Z"/><path fill="#B4B8BF" d="M4 74v1c0 1.1046.8954 2 2 2h84c1.1046 0 2-.8954 2-2v-1c0 1.1046-.8954 2-2 2H6c-1.1046 0-2-.8954-2-2Z"/><path fill="url(#LaptopMacbookDisabledIll96:e)" d="M37 71h22v2H37v-2Z"/><defs><linearGradient id="LaptopMacbookDisabledIll96:a" x1="15.0303" x2="81.6696" y1="67.9783" y2="24.5581" gradientUnits="userSpaceOnUse"><stop stop-color="#6C7480"/><stop offset="1" stop-color="#E6EBF2"/></linearGradient><linearGradient id="LaptopMacbookDisabledIll96:b" x1="43.8788" x2="43.8788" y1="22" y2="64.913" gradientUnits="userSpaceOnUse"><stop stop-color="#fff"/><stop offset="1" stop-color="#EBEBEB" stop-opacity="0"/></linearGradient><linearGradient id="LaptopMacbookDisabledIll96:c" x1="56.7575" x2="56.7575" y1="22" y2="45.5" gradientUnits="userSpaceOnUse"><stop stop-color="#fff"/><stop offset="1" stop-color="#fff" stop-opacity="0"/></linearGradient><linearGradient id="LaptopMacbookDisabledIll96:d" x1="48" x2="48" y1="22" y2="69" gradientUnits="userSpaceOnUse"><stop stop-color="#1D2026"/><stop offset="1" stop-color="#1D2026" stop-opacity="0"/></linearGradient><linearGradient id="LaptopMacbookDisabledIll96:e" x1="48" x2="48" y1="71" y2="73" gradientUnits="userSpaceOnUse"><stop stop-color="#A1A8B2"/><stop offset="1" stop-color="#FAFCFF"/></linearGradient></defs></svg>