<svg xmlns="http://www.w3.org/2000/svg" fill="none" viewBox="0 0 32 32" class="acv-icon"><path fill="currentColor" d="M16 3c.5523 0 1 .4477 1 1v15.5858l2.2929-2.2929c.3905-.3905 1.0237-.3905 1.4142 0 .3905.3905.3905 1.0237 0 1.4142l-4 4c-.3905.3905-1.0237.3905-1.4142 0l-4-4c-.3905-.3905-.3905-1.0237 0-1.4142.3905-.3905 1.0237-.3905 1.4142 0L15 19.5858V4c0-.5523.4477-1 1-1Z"/><path fill="currentColor" d="M12 6v2H5v3h7v2H5v14h22V13h-7.001c.0006-.6119.0005-.6428.0004-.7011-.0001-.037-.0003-.085-.0003-.2993v-1.0005L27 11V8h-7c-.0006-.5843-.0008-.6386-.0009-.693L19.999 7l.0001-.307c.0001-.0544.0003-.1087.0009-.693h7.5087C28.3323 6 29 6.7713 29 7.7068v19.5864C29 28.2358 28.3312 29 27.5087 29H4.4913C3.6677 29 3 28.2287 3 27.2932V7.7068C3 6.764 3.6688 6 4.4913 6H12Z"/></svg>