<svg xmlns="http://www.w3.org/2000/svg" fill="none" viewBox="0 0 16 16" class="acv-icon"><path fill="currentColor" d="M2.293.293a1 1 0 0 1 1.414 0l2 2a1 1 0 0 1-1.414 1.414L4 3.414V12h8.586l-.293-.293a1 1 0 0 1 1.414-1.414l2 2a1 1 0 0 1 0 1.414l-2 2a1 1 0 0 1-1.414-1.414l.293-.293H3a1 1 0 0 1-1-1V3.414l-.293.293A1 1 0 0 1 .293 2.293l2-2Z"/><path fill="currentColor" fill-rule="evenodd" d="M15 2a1 1 0 0 0-1-1H9a1 1 0 0 0-1 1v5a1 1 0 0 0 1 1h5a1 1 0 0 0 1-1V2Zm-5 1h3v3h-3V3Z" clip-rule="evenodd"/></svg>