<svg xmlns="http://www.w3.org/2000/svg" fill="none" viewBox="0 0 32 32" class="acv-icon"><path fill="currentColor" fill-rule="evenodd" d="M0 25.7606V6.2394c0-1.0329.748-1.9112 1.7611-2.0683l13.8462-2.1463C16.8654 1.8298 18 2.8106 18 4.093v23.8138c0 1.2826-1.1346 2.2633-2.3927 2.0683L1.7611 27.8289C.748 27.6719 0 26.7935 0 25.7606ZM5.5 21V11h7v2.1875H8.1369v1.7187h4.0027v2.1876H8.1369v1.7187h4.3441V21H5.5Z" clip-rule="evenodd"/><path fill="currentColor" d="M29.8047 10.7014A.6984.6984 0 0 0 30 10.2152V5.6875C30 5.3078 29.7015 5 29.3333 5h-4.3905a.6566.6566 0 0 0-.4714.2014L20 9.8125v11l9.8047-10.1111ZM26.0809 17.4584l-5.3333 5.5 3.7238 3.8402a.6563.6563 0 0 0 .4714.2014h4.3905c.3682 0 .6667-.3078.6667-.6875v-4.5277a.6988.6988 0 0 0-.1952-.4862l-3.7239-3.8402Z"/></svg>