<svg xmlns="http://www.w3.org/2000/svg" fill="none" viewBox="0 0 16 16" class="acv-icon"><path fill="currentColor" fill-rule="evenodd" d="M8 0C5.7909 0 4 1.7909 4 4v2H3c-.8284 0-1.5.6716-1.5 1.5v7c0 .8284.6716 1.5 1.5 1.5h10c.8284 0 1.5-.6716 1.5-1.5v-7c0-.8284-.6716-1.5-1.5-1.5h-1V4c0-2.2091-1.7909-4-4-4ZM6 4v2h4V4c0-1.1046-.8954-2-2-2s-2 .8954-2 2Zm3.5 6.5c0 .5552-.3017 1.04-.75 1.2993v.9507a.75.75 0 0 1-1.5 0v-.9507c-.4483-.2593-.75-.7441-.75-1.2993C6.5 9.6716 7.1716 9 8 9s1.5.6716 1.5 1.5Z" clip-rule="evenodd"/></svg>