<svg xmlns="http://www.w3.org/2000/svg" fill="none" viewBox="0 0 32 32" class="acv-icon"><path fill="currentColor" d="M16.9995 5.7468c0-.5523-.4477-1-1-1s-1 .4477-1 1v.0747c-.392.1076-.7726.2865-1.1002.5522-.572.464-.9368 1.1636-.8935 2.0224l.0001.0023c.0241.457.15.874.3879 1.2341.2351.3559.5437.6021.8533.7762.5285.2974 1.1743.4378 1.6424.5396l.1124.0246c.5692.1254.8936.2178 1.0903.3505.0733.0495.1005.0878.1159.1191.0168.0339.0507.1232.0424.3183l-.0002.0031c-.0035.0888-.0329.1704-.1838.2668-.1767.1127-.4772.2038-.8542.2031-.821-.0015-1.3772-.387-1.509-.8053-.1659-.5268-.7274-.8193-1.2542-.6534-.5268.1659-.8193.7275-.6534 1.2543.3521 1.1176 1.2616 1.7463 2.2038 2.026v.1978c0 .5523.4477 1 1 1s1-.4477 1-1v-.0936c.4023-.0782.7956-.2213 1.1429-.443.5994-.3825 1.0712-1.0158 1.1062-1.8702.0198-.4621-.0539-.8982-.2474-1.2898-.1948-.3944-.4806-.682-.7901-.8909-.5592-.3775-1.2645-.5328-1.7539-.6405l-.025-.0055c-.5865-.1292-.9512-.2115-1.2044-.354-.1032-.058-.1451-.1051-.1653-.1357-.0173-.0261-.0514-.0886-.0593-.2356-.0089-.1823.0491-.2807.1561-.3675.1382-.1121.388-.214.7186-.2321.7451-.0408 1.1693.3115 1.2456.6086.1374.5349.6824.8571 1.2174.7197.5349-.1374.8571-.6825.7197-1.2174-.2858-1.1125-1.1557-1.719-2.0611-1.971v-.0879Z"/><path fill="currentColor" fill-rule="evenodd" d="M25 10c0 4.6327-3.5003 8.4479-8.0005 8.9451v6.2094l4.3439-2.5079c-.226-1.215.319-2.4936 1.4502-3.1468 1.4349-.8284 3.2697-.3368 4.0981 1.0981.8284 1.4349.3368 3.2697-1.0981 4.0981-1.1312.6531-2.5109.4858-3.4502-.3174l-5.3439 3.0853V30c0 .5523-.4477 1-1 1s-1-.4477-1-1v-2.7625l-4.9511-2.8585c-.9393.8031-2.319.9705-3.4502.3174-1.435-.8285-1.9266-2.6632-1.0981-4.0981.8284-1.4349 2.6632-1.9265 4.098-1.0981 1.1313.6531 1.6762 1.9317 1.4503 3.1468l3.9511 2.2811V18.945C10.4998 18.4474 7 14.6324 7 10c0-4.9706 4.0294-9 9-9s9 4.0294 9 9Zm-9 7c3.866 0 7-3.134 7-7s-3.134-7-7-7-7 3.134-7 7 3.134 7 7 7Zm8.7936 5.9639c.4783-.2761.6422-.8877.3661-1.366-.2762-.4783-.8878-.6422-1.3661-.366-.4783.2761-.6421.8877-.366 1.366.2762.4783.8877.6422 1.366.366ZM7.2321 21.5983c.2762-.4783.8878-.6422 1.366-.366.4783.2761.6422.8877.366 1.366-.276.4783-.8877.6421-1.366.366-.4782-.2761-.6421-.8877-.366-1.366Z" clip-rule="evenodd"/></svg>