<svg xmlns="http://www.w3.org/2000/svg" fill="none" viewBox="0 0 16 16" class="acv-icon"><path fill="currentColor" fill-rule="evenodd" d="M14.9999 8.416V2c0-.5523-.4477-1-1-1h-12c-.5522 0-1 .4477-1 1v8.9999c0 .5523.4478 1 1 1h5v1H6c-.5522 0-1 .4477-1 1s.4478 1 1 1h2.416a4.9834 4.9834 0 0 1-.416-2c0-1.1256.372-2.1643.9997-3H3V9h6.9994A4.978 4.978 0 0 1 13 8c.7111 0 1.3875.1485 2 .416ZM2.9999 3h10v4h-10V3Z" clip-rule="evenodd"/><path fill="currentColor" d="M15.6322 11.9447a.4347.4347 0 0 1 .345.2925.4359.4359 0 0 1-.0998.4418l-1.1452 1.179.2647 1.6357a.4318.4318 0 0 1-.096.3525.4354.4354 0 0 1-.3307.1538.4446.4446 0 0 1-.21-.0548l-1.3605-.756-1.3598.756a.4331.4331 0 0 1-.6375-.4515l.2655-1.6357-1.1453-1.179a.438.438 0 0 1-.1005-.4418.4381.4381 0 0 1 .3458-.2933l1.5622-.2392.6773-1.4543a.433.433 0 0 1 .7853 0l.6772 1.455 1.5623.2393Z"/></svg>