<svg xmlns="http://www.w3.org/2000/svg" fill="none" viewBox="0 0 32 32" class="acv-icon"><path stroke="currentColor" stroke-width="2" d="M16 5c5.002 0 9 3.584 9 9 0 2.137-.546 3.673-1.533 5.107-.768 1.116-1.801 2.174-3.109 3.406L18.96 23.81c-.904.833-1.895 1.75-2.959 2.788-.416-.406-.82-.795-1.213-1.165l-1.746-1.622c-1.988-1.831-3.485-3.216-4.508-4.704C7.546 17.673 7 16.137 7 14c0-5.416 3.998-9 9-9Zm0 4c-.963 0-1.959.32-2.727 1.003C12.487 10.702 12 11.729 12 13s.487 2.298 1.273 2.997C14.041 16.68 15.037 17 16 17c2.017 0 4-1.752 4-4s-1.983-4-4-4Z"/></svg>