<svg xmlns="http://www.w3.org/2000/svg" fill="none" viewBox="0 0 16 16" class="acv-icon"><path fill="#408BEA" d="M8 0c4.4183 0 8 3.5817 8 8s-3.5817 8-8 8-8-3.5817-8-8 3.5817-8 8-8Z"/><path stroke="#243143" stroke-opacity=".1" d="M8 .5c4.1421 0 7.5 3.3579 7.5 7.5s-3.3579 7.5-7.5 7.5S.5 12.1421.5 8 3.8579.5 8 .5Z"/><path fill="#fff" d="M12.7071 8.7071c.3905-.3905.3905-1.0237 0-1.4142l-3-3c-.3905-.3905-1.0237-.3905-1.4142 0-.3905.3905-.3905 1.0237 0 1.4142L9.5858 7H4c-.5523 0-1 .4477-1 1s.4477 1 1 1h5.5858l-1.293 1.2929c-.3904.3905-.3904 1.0237 0 1.4142.3906.3905 1.0238.3905 1.4143 0l3-3Z"/></svg>