<svg xmlns="http://www.w3.org/2000/svg" fill="none" viewBox="0 0 32 32" class="acv-icon"><path fill="currentColor" d="M25.1857 18.1203s-.0243-.0757-.0484-.2018c-.3147-1.4631-.6051-4.7422 1.428-6.1296 2.0331-1.3873 4.0178.2271 4.3325 1.1099.4356 1.2359-.5568 1.8161-2.2994 2.2954-2.7593.7315-3.3643 2.5729-3.4127 2.9261Z"/><path fill="currentColor" d="M26.5241 20.391c-4.0904-2.0432-3.6306-5.4485-4.1388-7.1386-2.9045-10.4681-8.6892-11.25-9.3669-11.25-1.5975-.0505-4.4293.7062-4.6471 4.0358-.2905 4.7422 6.1719 4.4395 8.5681 6.3566 1.6459 1.3117 2.7592 4.2377-.2421 3.6071-3.6305-1.4126-7.8904-.9838-9.6573-.227-2.977 1.2864-4.042 2.9512-4.3324 3.3043-.2905.3532-3.9937 5.6503.5083 10.0141 3.5337 3.4306 8.3502 1.009 10.2382-1.7152 1.1375-1.6396 1.9362-3.2539 2.8318-4.6917 3.5338-4.4395 7.7452-1.5388 8.8586.5297 1.6942 3.153 2.9045 4.7421 4.4293 3.6827 1.549-1.0594 1.3554-4.3134-3.0497-6.5078Z"/></svg>