<svg xmlns="http://www.w3.org/2000/svg" fill="none" viewBox="0 0 24 24" class="acv-icon"><path fill="currentColor" d="M23.7884 17.5047c.2996.4195.2397.9587-.1198 1.2583-.4195.2996-1.0187.2397-1.3183-.1198l-2.0972-2.6964-2.0373 2.6365c-.2996.4194-.8988.4194-1.3182.1198-.4195-.2996-.4794-.8389-.1798-1.2583l2.3968-3.1159-2.3968-3.1158c-.2996-.4195-.1798-1.0187.1798-1.3183.4194-.2996 1.0186-.1797 1.3182.1798l2.0373 2.6964 2.0972-2.5766c.2996-.4194.8389-.4793 1.3183-.1797.4194.2996.4194.8988.1198 1.3182l-2.3369 3.056 2.3369 3.1158Zm-10.9055-.3595c-1.5579 0-2.8163-1.1984-2.8163-2.7563 0-1.4981 1.2584-2.7564 2.8163-2.7564s2.8162 1.2583 2.8162 2.7564c-.0599 1.5579-1.3182 2.7563-2.8162 2.7563Zm-8.269 0c-1.558 0-2.8163-1.1984-2.8163-2.7563 0-1.4981 1.2583-2.7564 2.8163-2.7564 1.5579 0 2.8162 1.2583 2.8162 2.7564 0 1.5579-1.2583 2.7563-2.8162 2.7563Zm8.269-7.3103c-1.7377 0-3.2956.9587-4.0746 2.3968-.779-1.4381-2.3369-2.3968-4.1345-2.3968-1.0786 0-2.0373.3595-2.8163.8988V6.8988C1.8575 6.4194 1.4794 6 1 6c-.5393 0-1 .4194-1 .8988v7.55C.06 16.9654 2.0972 19 4.6139 19c1.7976 0 3.3555-1.0758 4.1345-2.5139.779 1.4381 2.3369 2.4567 4.0746 2.4567 2.5765 0 4.6738-2.0373 4.6738-4.6139.0599-2.4567-2.0373-4.494-4.6139-4.494Z"/></svg>