<svg xmlns="http://www.w3.org/2000/svg" fill="none" viewBox="0 0 32 32" class="acv-icon"><path fill="#E9EAEC" d="M29 16c0 7.1797-5.8203 13-13 13S3 23.1797 3 16 8.8203 3 16 3s13 5.8203 13 13Z"/><path fill="#949AA3" fill-rule="evenodd" d="M16 3c7.1797 0 13 5.8203 13 13s-5.8203 13-13 13S3 23.1797 3 16 8.8203 3 16 3Zm0 2c6.0751 0 11 4.9249 11 11 0 2.6775-.9566 5.1316-2.5467 7.0391L8.9609 7.5467C10.8684 5.9567 13.3225 5 16 5Zm7.0391 19.4533L7.5467 8.9609C5.9567 10.8684 5 13.3225 5 16c0 6.0751 4.9249 11 11 11 2.6775 0 5.1316-.9566 7.0391-2.5467Z" clip-rule="evenodd"/></svg>