<svg xmlns="http://www.w3.org/2000/svg" fill="none" viewBox="0 0 24 24" class="acv-icon"><path fill="currentColor" fill-rule="evenodd" d="M14.1707 20H8c-.0565 0-.112-.0047-.1659-.0137C7.4261 21.1586 6.3113 22 5 22c-1.3062 0-2.4175-.8348-2.8293-2H1.999A.997.997 0 0 1 1 19c0-.5523.4427-1 .999-1h.1717c.4118-1.1652 1.523-2 2.8293-2 1.3113 0 2.4261.8414 2.8341 2.0137C7.8881 18.0047 7.9435 18 8 18h3V4H2c-.5523 0-1-.4477-1-1s.4477-1 1-1h10c.5523 0 1 .4477 1 1v3h7a1 1 0 0 1 .9487.6838l2 6A.9991.9991 0 0 1 23 13v5.0092C23 19.1048 22.1011 20 21 20h-1a1.0084 1.0084 0 0 1-.1659-.0137C19.4262 21.1586 18.3113 22 17 22c-1.3062 0-2.4175-.8348-2.8293-2Zm0-2c.4118-1.1652 1.5231-2 2.8293-2 1.3113 0 2.4262.8414 2.8341 2.0137.054-.009.1094-.0137.1659-.0137h.9993l.0006-4H13v4h1.1707Zm6.4419-6H13V8h6.2792l1.3334 4ZM6 19c0 .5523-.4477 1-1 1s-1-.4477-1-1 .4477-1 1-1 1 .4477 1 1Zm12 0c0 .5523-.4477 1-1 1s-1-.4477-1-1 .4477-1 1-1 1 .4477 1 1ZM0 7c0-.5523.453-1 .997-1h6.006A.996.996 0 0 1 8 7c0 .5523-.453 1-.997 1H.997A.996.996 0 0 1 0 7Zm0 3c0-.5523.453-1 .997-1h6.006A.996.996 0 0 1 8 10c0 .5523-.453 1-.997 1H.997A.996.996 0 0 1 0 10Zm.997 2C.453 12 0 12.4477 0 13c0 .5561.4464 1 .997 1h6.006c.544 0 .997-.4477.997-1a.996.996 0 0 0-.997-1H.997Z" clip-rule="evenodd"/></svg>