<svg xmlns="http://www.w3.org/2000/svg" fill="none" viewBox="0 0 32 32" class="acv-icon"><path fill="currentColor" d="M16 6c1.6569 0 3-1.3431 3-3 0-1.6568-1.3431-3-3-3s-3 1.3432-3 3c0 1.6569 1.3431 3 3 3ZM1.2636 19.8146A15.0813 15.0813 0 0 1 1 17C1 10.4681 5.175 4.9114 11.0021 2.8528A5.1444 5.1444 0 0 0 11 3c0 .6552.126 1.281.3551 1.8544C6.4694 6.724 3 11.4568 3 17c0 .7044.056 1.3956.1638 2.0696a4.9698 4.9698 0 0 0-1.9002.745ZM21 3a4.987 4.987 0 0 1-.3551 1.8544C25.5306 6.724 29 11.4568 29 17c0 .7044-.056 1.3956-.1638 2.0696a4.9703 4.9703 0 0 1 1.9002.745C30.9094 18.9029 31 17.962 31 17c0-6.5319-4.1751-12.0886-10.0021-14.1472.0014.0489.0021.098.0021.1472ZM25.7009 28.4412C23.0855 30.661 19.6991 32 16 32c-3.6991 0-7.0855-1.339-9.701-3.5588a5.0201 5.0201 0 0 0 1.5816-1.288C10.1053 28.9346 12.9282 30 16 30c3.0718 0 5.8947-1.0654 8.1194-2.8468a5.02 5.02 0 0 0 1.5815 1.288ZM23.1626 13.002c0 1.7007-3.1909 3.0792-7.127 3.0792-3.9361 0-7.127-1.3785-7.127-3.0792 0-1.7006 3.1909-3.0794 7.127-3.0794 3.9361 0 7.127 1.3788 7.127 3.0794Z"/><path fill="currentColor" d="M16.0356 17.2286c3.9402 0 7.127-1.439 7.127-3.2202v3.2605c0 1.7812-3.1868 3.2202-7.127 3.2202s-7.127-1.439-7.127-3.2202v-3.2605c0 1.7812 3.1868 3.2202 7.127 3.2202Z"/><path fill="currentColor" d="M8.9087 18.416c0 1.7712 3.1867 3.2102 7.1269 3.2102s7.127-1.439 7.127-3.2102v3.2605c0 1.7712-3.1868 3.1198-7.127 3.1198s-7.127-1.3486-7.127-3.1198V18.416ZM31 24c0 1.6569-1.3431 3-3 3s-3-1.3431-3-3 1.3431-3 3-3 3 1.3431 3 3ZM4 27c1.6569 0 3-1.3431 3-3s-1.3431-3-3-3c-1.6568 0-3 1.3431-3 3s1.3432 3 3 3Z"/></svg>