<svg xmlns="http://www.w3.org/2000/svg" fill="none" viewBox="0 0 32 32" class="acv-icon"><path fill="currentColor" d="M4.4797 9.538C3.5351 11.3166 3 13.3458 3 15.5c0 2.4018.6652 4.6482 1.8215 6.5651 1.4558-.7982 3.1494-1.4416 5.0091-1.8866-.3035-1.4839-.4662-3.0548-.4662-4.6785 0-1.3487.1123-2.6601.3243-3.9172-1.9508-.4803-3.715-1.1785-5.209-2.0448ZM13.3138 28c-2.9415-.5649-5.523-2.1424-7.3675-4.3555 1.2617-.6548 2.7378-1.1867 4.3645-1.561.6867 2.2782 1.7191 4.2945 3.003 5.9165ZM25.6285 23.5018C23.7769 25.7897 21.1483 27.4229 18.144 28c1.2994-1.6417 2.341-3.6877 3.0276-5.9989 1.6536.3505 3.1606.8625 4.4569 1.5007ZM27.068 9.7108c.8884 1.7368 1.3896 3.7044 1.3896 5.7892 0 2.3342-.6283 4.5216-1.725 6.4025-1.4871-.7762-3.2069-1.3947-5.0878-1.8126.292-1.459.4484-2.9988.4484-4.5899 0-1.3161-.107-2.598-.3092-3.827 1.9691-.4507 3.7581-1.1214 5.284-1.9622ZM18.1441 3c3.2486.624 6.0579 2.483 7.9205 5.0692-1.3373.7146-2.9254 1.289-4.6852 1.6801-.6747-2.6202-1.7971-4.9325-3.2353-6.7492ZM5.5071 7.9132C7.3694 5.4082 10.1308 3.6113 13.3138 3c-1.4225 1.797-2.5361 4.0778-3.2131 6.6623-1.735-.4171-3.2925-1.0145-4.5936-1.7491ZM15.7288 27.7829c1.5044-1.5026 2.7166-3.6189 3.4802-6.1127-1.0545-.1337-2.1529-.2036-3.2813-.2036-1.2654 0-2.493.0886-3.6632.2548.7645 2.4722 1.9703 4.5682 3.4643 6.0615ZM20.1043 15.5c0-1.1918-.0939-2.3509-.2712-3.4619-1.2521.1834-2.5599.2797-3.9054.2797-1.4852 0-2.9246-.1181-4.2936-.3403-.1835 1.1281-.2808 2.309-.2808 3.5225 0 1.4948.1474 2.9367.4215 4.2947 1.3269-.2066 2.7185-.317 4.1529-.317 1.2958 0 2.5568.0902 3.7666.2595.2667-1.3425.41-2.7642.41-4.2372ZM19.4265 10.0959c-.7393-2.8264-2.0414-5.2255-3.6977-6.8803-1.6456 1.644-2.9415 4.0228-3.6832 6.8259 1.2357.188 2.5375.2874 3.8821.2874 1.2063 0 2.3782-.0808 3.4988-.233Z"/></svg>