<svg xmlns="http://www.w3.org/2000/svg" fill="none" viewBox="0 0 24 24" class="acv-icon"><path fill="currentColor" d="M14 9.366c.6667-.3849.6667-1.3471 0-1.732l-2.25-1.299c-.6667-.385-1.5.0962-1.5.866v2.598c0 .7698.8333 1.251 1.5.8661L14 9.3661ZM6 13c0-.5523-.4477-1-1-1s-1 .4477-1 1 .4477 1 1 1 1-.4477 1-1ZM6 16c0-.5523-.4477-1-1-1s-1 .4477-1 1 .4477 1 1 1 1-.4477 1-1ZM19 12c.5523 0 1 .4477 1 1s-.4477 1-1 1-1-.4477-1-1 .4477-1 1-1ZM19 15c.5523 0 1 .4477 1 1s-.4477 1-1 1-1-.4477-1-1 .4477-1 1-1Z"/><path fill="currentColor" fill-rule="evenodd" d="M7 2C5.3431 2 4 3.3432 4 5v4.126C2.2748 9.57 1 11.1362 1 13v4c0 1.6569 1.3432 3 3 3v2c0 .5523.4477 1 1 1s1-.4477 1-1v-2c.8885 0 1.6868-.3863 2.2361-1h7.5278c.5493.6137 1.3476 1 2.2361 1v2c0 .5523.4477 1 1 1s1-.4477 1-1v-2c1.6569 0 3-1.3431 3-3v-4c0-1.8638-1.2748-3.43-3-3.874V5c0-1.6568-1.3431-3-3-3H7Zm8 11c0-1.8638 1.2748-3.43 3-3.874V5c0-.5523-.4477-1-1-1H7c-.5523 0-1 .4477-1 1v4.126C7.7252 9.57 9 11.1362 9 13h6Zm0 4H9v-2h6v2ZM5 11c1.1046 0 2 .8954 2 2v4c0 .5523-.4477 1-1 1H4c-.5523 0-1-.4477-1-1v-4c0-1.1046.8954-2 2-2Zm16 2c0-1.1046-.8954-2-2-2s-2 .8954-2 2v4c0 .5523.4477 1 1 1h2c.5523 0 1-.4477 1-1v-4Z" clip-rule="evenodd"/></svg>