<svg xmlns="http://www.w3.org/2000/svg" fill="none" viewBox="0 0 32 32" class="acv-icon"><path fill="currentColor" fill-rule="evenodd" d="M7 13V3h23v17h-5v10H2V13h5Zm16 2H4v13h19V15Zm-12-3.5c0 .5368.1208 1.0454.3368 1.5H9V5h19v13h-3v-4.0505c.6186-.6313 1-1.4958 1-2.4495C26 9.567 24.433 8 22.5 8S19 9.567 19 11.5c0 .5368.1208 1.0454.3368 1.5h-1.6736A3.4858 3.4858 0 0 0 18 11.5C18 9.567 16.433 8 14.5 8S11 9.567 11 11.5Zm3.5 1.5c.8284 0 1.5-.6716 1.5-1.5s-.6716-1.5-1.5-1.5-1.5.6716-1.5 1.5.6716 1.5 1.5 1.5Zm9.5-1.5c0 .8284-.6716 1.5-1.5 1.5s-1.5-.6716-1.5-1.5.6716-1.5 1.5-1.5 1.5.6716 1.5 1.5ZM14.3368 23A3.4858 3.4858 0 0 1 14 21.5c0-1.933 1.567-3.5 3.5-3.5s3.5 1.567 3.5 3.5-1.567 3.5-3.5 3.5h-8C7.567 25 6 23.433 6 21.5S7.567 18 9.5 18s3.5 1.567 3.5 3.5a3.4858 3.4858 0 0 1-.3368 1.5h1.6736ZM9.5 23c.8284 0 1.5-.6716 1.5-1.5S10.3284 20 9.5 20 8 20.6716 8 21.5 8.6716 23 9.5 23Zm9.5-1.5c0 .8284-.6716 1.5-1.5 1.5s-1.5-.6716-1.5-1.5.6716-1.5 1.5-1.5 1.5.6716 1.5 1.5Z" clip-rule="evenodd"/></svg>