<svg xmlns="http://www.w3.org/2000/svg" fill="none" viewBox="0 0 24 24" class="acv-icon"><path fill="currentColor" fill-rule="evenodd" d="m4.0431 4.8358.0004.0013.518 4.014c-1.146.54-2.5815 1.7131-3.288 3.8327-.6164 1.8492-.1587 3.623 1.054 4.8358.8916.8915 2.1382 1.4315 3.5497 1.5284l.2057.9741C6.623 21.7075 9.738 23 13.5 23s6.877-1.2925 7.4171-2.9779l2.0394-15.185A1.3371 1.3371 0 0 0 23 4.5C23 2.567 18.7467 1 13.5 1S4 2.567 4 4.5c0 .1133.0146.2253.0431.3358ZM20.75 4.5c-.2585-.1784-.6572-.3894-1.2239-.5982C18.0806 3.3693 15.9504 3 13.5 3c-2.4504 0-4.5806.3693-6.0261.9018-.5667.2088-.9654.4198-1.224.5982.2586.1784.6573.3894 1.224.5982C8.9194 5.6307 11.0496 6 13.5 6c2.4504 0 4.5806-.3693 6.0261-.9018.5667-.2088.9654-.4198 1.2239-.5982ZM7.8744 18.8984c1.4312-.307 2.8334-1.021 4-1.7691a20.1134 20.1134 0 0 0 1.712-1.2325c.1997.0669.4135.1032.6358.1032 1.1045 0 2-.8954 2-2s-.8955-2-2-2c-1.1046 0-2 .8954-2 2 0 .1354.0134.2676.0391.3955-.4329.3435-.9297.706-1.4664 1.0502-1.0254.6574-2.1332 1.2066-3.1776 1.4601L6.312 6.7885C8.0539 7.5305 10.628 8 13.5 8s5.4461-.4695 7.1881-1.2115l-1.5972 12.3788-.0784.2444c.0007-.0022-.0003-.0007-.0035.0043-.033.05-.2959.4487-1.3438.8736C16.6275 20.7104 15.1704 21 13.5 21c-1.6704 0-3.1275-.2896-4.1652-.7104-1.0479-.4249-1.3108-.8237-1.3438-.8736-.0032-.005-.0042-.0065-.0035-.0043l-.0784-.2444-.0347-.2689ZM5.614 17.0078c-.7958-.1284-1.4346-.4649-1.8721-.9024-.6622-.6622-.9545-1.6384-.571-2.7892.3864-1.159 1.0622-1.8881 1.6676-2.3185l.7755 6.0101Z" clip-rule="evenodd"/></svg>