<svg xmlns="http://www.w3.org/2000/svg" fill="none" viewBox="0 0 16 16" class="acv-icon"><path fill="currentColor" d="M1 1h14c.5523 0 1 .4477 1 1v6.3542C15.2671 7.5238 14.1947 7 13 7h1V3H2v4h11c-1.4806 0-2.7733.8044-3.4649 2H2v4h6v2H1c-.5523 0-1-.4477-1-1V2c0-.5523.4477-1 1-1Z"/><path fill="currentColor" d="M4 6c-.5523 0-1-.4477-1-1s.4477-1 1-1 1 .4477 1 1-.4477 1-1 1ZM9 6c-.5523 0-1-.4477-1-1s.4477-1 1-1 1 .4477 1 1-.4477 1-1 1ZM11 5c0 .5523.4477 1 1 1s1-.4477 1-1-.4477-1-1-1-1 .4477-1 1ZM4 12c-.5523 0-1-.4477-1-1s.4477-1 1-1 1 .4477 1 1-.4477 1-1 1Z"/><path fill="currentColor" fill-rule="evenodd" d="M11 11c0-1.1046.8954-2 2-2s2 .8954 2 2v1c.5523 0 1 .4477 1 1v2c0 .5523-.4477 1-1 1h-4c-.5523 0-1-.4477-1-1v-2c0-.5523.4477-1 1-1v-1Zm2.75 0a.75.75 0 0 0-1.5 0v1h1.5v-1Z" clip-rule="evenodd"/></svg>