<svg xmlns="http://www.w3.org/2000/svg" fill="none" viewBox="0 0 32 32" class="acv-icon"><path fill="currentColor" fill-rule="evenodd" d="M1 26.0432V5.9568c0-.964.7202-1.7839 1.6959-1.9305l13.3333-2.0032c1.2115-.182 2.3041.7334 2.3041 1.9305v24.0928c0 1.1971-1.0926 2.1125-2.3041 1.9305L2.6959 27.9736C1.7202 27.8271 1 27.0072 1 26.0432Zm10.0559-11.9381h2.4802c-.0093-1.994-1.4545-3.3135-3.7669-3.3135-2.2704 0-3.874 1.2996-3.8601 3.2342-.0047 1.5873 1.0303 2.4702 2.7226 2.8571l.951.2183c1.063.248 1.4266.5308 1.4359.9921-.0093.501-.4382.8532-1.268.8532-.993 0-1.5804-.4961-1.6224-1.4286H5.6667c.0093 2.5496 1.6317 3.6905 4.1212 3.6905 2.4196 0 3.8694-1.1111 3.8788-3.1151-.0094-1.5477-.8765-2.634-2.9837-3.1151l-.7832-.1786c-.9045-.2034-1.31-.4861-1.2868-.9722.0047-.4465.3544-.7739 1.1562-.7739.8392 0 1.2355.3919 1.2867 1.0516Z" clip-rule="evenodd"/><path fill="currentColor" d="M20.3333 20.1771c.6941.2962 1.2649.8165 1.6166 1.4672 1.6403-.4471 2.9972-1.5579 3.748-3.0172-.8274-.5924-1.3646-1.5485-1.3646-2.6271s.5372-2.0348 1.3646-2.6271c-.7508-1.4594-2.1077-2.5701-3.748-3.0172-.3517.6507-.9225 1.171-1.6166 1.4671V5.8541c.8303.3543 1.4842 1.0292 1.7976 1.8646 2.8389.5847 5.1655 2.5264 6.2351 5.0978C29.8712 13.1304 31 14.4364 31 16s-1.1288 2.8696-2.634 3.1835c-1.0696 2.5713-3.3962 4.5131-6.2351 5.0978-.3134.8354-.9673 1.5103-1.7976 1.8646v-5.9688Z"/></svg>