<svg xmlns="http://www.w3.org/2000/svg" fill="none" viewBox="0 0 32 32" class="acv-icon"><path fill="currentColor" d="M19 3c0 1.6569-1.3431 3-3 3s-3-1.3431-3-3c0-1.6568 1.3431-3 3-3s3 1.3432 3 3ZM1 17c0 .962.0906 1.9029.2636 2.8146a4.9698 4.9698 0 0 1 1.9002-.745A13.0946 13.0946 0 0 1 3 17c0-5.5432 3.4694-10.276 8.3551-12.1456A4.9869 4.9869 0 0 1 11 3c0-.0492.0007-.0983.0021-.1472C5.1751 4.9114 1 10.468 1 17ZM21 3a4.987 4.987 0 0 1-.3551 1.8544C25.5306 6.724 29 11.4568 29 17c0 .7044-.056 1.3956-.1638 2.0696a4.9703 4.9703 0 0 1 1.9002.745C30.9094 18.9029 31 17.962 31 17c0-6.5319-4.1751-12.0886-10.0021-14.1472.0014.0489.0021.098.0021.1472ZM16 32c3.6991 0 7.0855-1.339 9.7009-3.5588a5.02 5.02 0 0 1-1.5815-1.288C21.8947 28.9346 19.0718 30 16 30c-3.0718 0-5.8947-1.0654-8.1194-2.8468a5.0201 5.0201 0 0 1-1.5815 1.288C8.9145 30.661 12.3009 32 16 32ZM31 24c0 1.6569-1.3431 3-3 3s-3-1.3431-3-3 1.3431-3 3-3 3 1.3431 3 3ZM7 24c0 1.6569-1.3431 3-3 3-1.6568 0-3-1.3431-3-3s1.3432-3 3-3c1.6569 0 3 1.3431 3 3Z"/><path fill="currentColor" fill-rule="evenodd" d="M17 9.0002c0-.6086-.539-1.076-1.1414-.99l-7 1a1 1 0 0 0-.8586.99v12a1 1 0 0 0 .8586.9899l7 1c.6024.0861 1.1414-.3814 1.1414-.9899v-14ZM10.5 19h3.9892v-1.3125h-2.4824v-1.0313h2.2872v-1.3124h-2.2872v-1.0313H14.5V13h-4v6Z" clip-rule="evenodd"/><path fill="currentColor" d="M18 13v6l5.8536-5.8536A.5.5 0 0 0 24 12.7929V10.5a.5.5 0 0 0-.5-.5h-2.2929a.5.5 0 0 0-.3535.1464L18 13ZM21.7071 16.7071l-3 3 2.1464 2.1465a.5004.5004 0 0 0 .3536.1464H23.5a.5.5 0 0 0 .5-.5v-2.2929a.4997.4997 0 0 0-.1465-.3535l-2.1464-2.1465Z"/></svg>