<svg xmlns="http://www.w3.org/2000/svg" fill="none" viewBox="0 0 32 32" class="acv-icon"><path fill="currentColor" fill-rule="evenodd" d="M5 7v18c0 1.1046.8954 2 2 2h11.15a7.5333 7.5333 0 0 1-.15-1.5c0-3.2655 2.087-6.0436 5-7.0732v-5.5984a2 2 0 0 0-.5858-1.4142l-5.8284-5.8284A2 2 0 0 0 15.1716 5H7c-1.1046 0-2 .8954-2 2Zm15.1464 5.1465-4.2928-4.293c-.315-.315-.8536-.0918-.8536.3536V12.5a.5.5 0 0 0 .5.5h4.2929c.4454 0 .6685-.5386.3535-.8535Z" clip-rule="evenodd"/><path fill="currentColor" fill-rule="evenodd" d="M25.5 31c-3.0376 0-5.5-2.4624-5.5-5.5s2.4624-5.5 5.5-5.5 5.5 2.4624 5.5 5.5-2.4624 5.5-5.5 5.5Zm2.7071-7.2071c.3905.3905.3905 1.0237 0 1.4142l-2.5 2.5c-.3905.3905-1.0237.3905-1.4142 0l-1.5-1.5c-.3905-.3905-.3905-1.0237 0-1.4142.3905-.3905 1.0237-.3905 1.4142 0l.7929.7929 1.7929-1.7929c.3905-.3905 1.0237-.3905 1.4142 0Z" clip-rule="evenodd"/></svg>