<svg xmlns="http://www.w3.org/2000/svg" fill="none" viewBox="0 0 24 24" class="acv-icon"><path fill="currentColor" d="M3.5 12c0-4.6944 3.8056-8.5 8.5-8.5 1.6905 0 3.263.4925 4.5854 1.3415.4647.2984 1.0834.1635 1.3817-.3012.2984-.4648.1635-1.0834-.3012-1.3818C16.0308 2.1087 14.085 1.5 12 1.5 6.201 1.5 1.5 6.201 1.5 12S6.201 22.5 12 22.5 22.5 17.799 22.5 12c0-.5631-.0444-1.1164-.1301-1.6567-.0865-.5454-.5988-.9175-1.1443-.831-.5455.0866-.9175.5989-.831 1.1444.0693.4369.1054.8856.1054 1.3433 0 4.6944-3.8056 8.5-8.5 8.5S3.5 16.6944 3.5 12Z"/><path fill="currentColor" fill-rule="evenodd" d="M17.5 12c0 3.0376-2.4624 5.5-5.5 5.5S6.5 15.0376 6.5 12 8.9624 6.5 12 6.5s5.5 2.4624 5.5 5.5Zm-2 0c0 1.933-1.567 3.5-3.5 3.5S8.5 13.933 8.5 12s1.567-3.5 3.5-3.5 3.5 1.567 3.5 3.5Z" clip-rule="evenodd"/></svg>