<svg xmlns="http://www.w3.org/2000/svg" fill="none" viewBox="0 0 16 16" class="acv-icon"><path fill="currentColor" d="M6 0c-.5523 0-1 .4477-1 1s.4477 1 1 1h4c.5523 0 1-.4477 1-1s-.4477-1-1-1H6Z"/><path fill="currentColor" fill-rule="evenodd" d="M12.5041 16a1 1 0 0 0 .9959-.9095L14 5c.5523 0 1-.4477 1-1s-.4477-1-1-1H2c-.5523 0-1 .4477-1 1s.4477 1 1 1l.4566 10.0454a1 1 0 0 0 .999.9546h9.0485ZM6 6a.75.75 0 0 0-.75.75v5.5a.75.75 0 0 0 1.5 0v-5.5A.75.75 0 0 0 6 6Zm3.25.75a.75.75 0 0 1 1.5 0v5.5a.75.75 0 0 1-1.5 0v-5.5Z" clip-rule="evenodd"/></svg>