<svg xmlns="http://www.w3.org/2000/svg" fill="none" viewBox="0 0 16 16" class="acv-icon"><path fill="currentColor" d="M2.2929.2929c.3905-.3905 1.0237-.3905 1.4142 0l2 2c.3905.3905.3905 1.0237 0 1.4142-.3905.3905-1.0237.3905-1.4142 0L4 3.4142V12h8.5858l-.2929-.2929c-.3905-.3905-.3905-1.0237 0-1.4142.3905-.3905 1.0237-.3905 1.4142 0l2 2c.3905.3905.3905 1.0237 0 1.4142l-2 2c-.3905.3905-1.0237.3905-1.4142 0-.3905-.3905-.3905-1.0237 0-1.4142L12.5858 14H3c-.5523 0-1-.4477-1-1V3.4142l-.2929.293c-.3905.3904-1.0237.3904-1.4142 0-.3905-.3906-.3905-1.0238 0-1.4143l2-2Z"/><path fill="currentColor" fill-rule="evenodd" d="M15 2c0-.5523-.4477-1-1-1H9c-.5523 0-1 .4477-1 1v5c0 .5523.4477 1 1 1h5c.5523 0 1-.4477 1-1V2Zm-5 1h3v3h-3V3Z" clip-rule="evenodd"/></svg>