<svg xmlns="http://www.w3.org/2000/svg" fill="none" viewBox="0 0 16 16" class="acv-icon"><path fill="currentColor" d="M1.3677 15.7653a.8011.8011 0 1 1-1.133-1.133L3.367 11.5 4.5 12.633l-3.1323 3.1323ZM15.5307 3.8684c.6257.6258.6257 1.6404 0 2.2661-.6258.6258-1.6403.6258-2.2661 0l-.5665-.5665-2.3148 2.3148c1.6238 2.2281 1.4299 5.3683-.5809 7.3791a.7123.7123 0 0 1-1.0069 0L.7381 7.2045a.7122.7122 0 0 1 0-1.007c2.0108-2.0107 5.151-2.2046 7.3791-.5808l2.3148-2.3148-.5665-.5665c-.6258-.6258-.6258-1.6403 0-2.266.6257-.6258 1.6403-.6258 2.2661 0l3.3991 3.399Z"/></svg>