<svg xmlns="http://www.w3.org/2000/svg" fill="none" viewBox="0 0 16 16" class="acv-icon"><path fill="currentColor" d="M8.625 15.333c0 .3682-.2799.667-.625.667-.3452 0-.625-.2988-.625-.667v-3.6855h1.25v3.6855ZM3 3a.5.5 0 0 1 .707 0L13 12.293a.5.5 0 0 1-.7071.707L3 3.707A.5.5 0 0 1 3 3ZM8.9105 10.3256c.126.126.0367.3414-.1414.3414H3.5556C3.249 10.6669 3 10.4014 3 10.0742c0-1.4097.5768-2.6757 1.4925-3.5441.183-.1736.4685-.154.6469.0244l3.771 3.7711ZM9.875 0c.6902 0 1.2498.5968 1.25 1.333 0 .7364-.5597 1.334-1.25 1.334H9.25v2.7236C11.3747 5.7462 13 7.708 13 10.0742c-.0001.3272-.249.5927-.5557.5928h-.1552a.5001.5001 0 0 1-.3536-.1465l-5.039-5.039a.5.5 0 0 1-.1465-.3537V2.667h-.625c-.6904 0-1.25-.5976-1.25-1.334C4.875.5968 5.4347 0 6.125 0h3.75Z"/></svg>