<svg xmlns="http://www.w3.org/2000/svg" fill="none" viewBox="0 0 16 16" class="acv-icon"><path fill="currentColor" fill-rule="evenodd" d="M1.5 15C.6716 15 0 14.3284 0 13.5V9.0963a1.5 1.5 0 0 1 .1073-.557l1.8385-4.5964A1.5 1.5 0 0 1 3.3385 3H7V1.5C7 .6716 7.6716 0 8.5 0H15c.5523 0 1 .4477 1 1s-.4477 1-1 1H9v11h2.2676c.3458-.5978.9921-1 1.7324-1s1.3866.4022 1.7324 1H15c.5523 0 1 .4477 1 1s-.4477 1-1 1h-.2676c-.3458.5978-.9921 1-1.7324 1s-1.3866-.4022-1.7324-1H5.7324c-.3458.5978-.9921 1-1.7324 1s-1.3866-.4022-1.7324-1H1.5ZM7 13H5.7324c-.3458-.5978-.9921-1-1.7324-1s-1.3866.4022-1.7324 1H2v-3h5v3Zm0-5H2.477l1.2-3H7v3Z" clip-rule="evenodd"/><path fill="currentColor" d="M11 4c0-.5523.4477-1 1-1h3c.5523 0 1 .4477 1 1s-.4477 1-1 1h-3c-.5523 0-1-.4477-1-1ZM11 7c0-.5523.4477-1 1-1h3c.5523 0 1 .4477 1 1s-.4477 1-1 1h-3c-.5523 0-1-.4477-1-1ZM11 10c0-.5523.4477-1 1-1h3c.5523 0 1 .4477 1 1s-.4477 1-1 1h-3c-.5523 0-1-.4477-1-1Z"/></svg>