<svg xmlns="http://www.w3.org/2000/svg" fill="none" viewBox="0 0 24 24" class="acv-icon"><path fill="currentColor" fill-rule="evenodd" d="M4 2c-1.1046 0-2 .8954-2 2v5c0 1.1046.8954 2 2 2h16c1.1046 0 2-.8954 2-2V4c0-1.1046-.8954-2-2-2H4Zm1.0035 2c-.5522 0-1 .4477-1 1v3c0 .5523.4478 1 1 1 .5523 0 1-.4477 1-1V5c0-.5523-.4477-1-1-1ZM8 5c0-.5523.4477-1 1-1s1 .4477 1 1v3c0 .5523-.4477 1-1 1s-1-.4477-1-1V5Zm11 1.5c0 .8284-.6716 1.5-1.5 1.5S16 7.3284 16 6.5 16.6716 5 17.5 5s1.5.6716 1.5 1.5ZM4 13c-1.1046 0-2 .8954-2 2v5c0 1.1046.8954 2 2 2h16c1.1046 0 2-.8954 2-2v-5c0-1.1046-.8954-2-2-2H4Zm1.0035 2c-.5522 0-1 .4477-1 1v3c0 .5523.4478 1 1 1 .5523 0 1-.4477 1-1v-3c0-.5523-.4477-1-1-1ZM8 16c0-.5523.4477-1 1-1s1 .4477 1 1v3c0 .5523-.4477 1-1 1s-1-.4477-1-1v-3Zm11 1.5c0 .8284-.6716 1.5-1.5 1.5s-1.5-.6716-1.5-1.5.6716-1.5 1.5-1.5 1.5.6716 1.5 1.5Z" clip-rule="evenodd"/></svg>