<svg xmlns="http://www.w3.org/2000/svg" fill="none" viewBox="0 0 32 32" class="acv-icon"><path fill="currentColor" d="M4 2v2h24v24h2V2H4ZM8.63 23.0001h7.1201a2.4201 2.4201 0 1 0-3-2.3799c.0075.349.0966.6915.26 1h-2.01a2.2408 2.2408 0 0 0 .26-1 2.6405 2.6405 0 0 0-2.9806-2.8765 2.6399 2.6399 0 0 0-1.418.659 2.6396 2.6396 0 0 0 .2757 4.1328c.4393.302.9598.464 1.4929.4646Z"/><path fill="currentColor" fill-rule="evenodd" d="M26 30H2V6h24v24Zm-4-19H9a1.9998 1.9998 0 0 0-2 2h15v10a1.9999 1.9999 0 0 0 2-2v-8a2.0002 2.0002 0 0 0-2-2ZM4.4774 15.4773A1.63 1.63 0 0 0 4 16.6299v7.7402A1.63 1.63 0 0 0 5.63 26h12.74A1.6299 1.6299 0 0 0 20 24.3701v-7.7402A1.63 1.63 0 0 0 18.37 15H5.63c-.4323 0-.8469.1716-1.1526.4773Z" clip-rule="evenodd"/></svg>