<svg xmlns="http://www.w3.org/2000/svg" fill="none" viewBox="0 0 32 32" class="acv-icon"><path fill="#408BEA" d="M32 26c0 3.3137-2.6863 6-6 6s-6-2.6863-6-6 2.6863-6 6-6 6 2.6863 6 6Z"/><path stroke="#243143" stroke-opacity=".1" d="M26 20.5c3.0376 0 5.5 2.4624 5.5 5.5s-2.4624 5.5-5.5 5.5-5.5-2.4624-5.5-5.5 2.4624-5.5 5.5-5.5Z"/><path fill="#fff" d="M28.7071 27.7071c.3905-.3905.3905-1.0237 0-1.4142-.3905-.3905-1.0237-.3905-1.4142 0L27 26.5858V23c0-.5523-.4477-1-1-1s-1 .4477-1 1v3.5858l-.2929-.2929c-.3905-.3905-1.0237-.3905-1.4142 0-.3905.3905-.3905 1.0237 0 1.4142l2 2c.3905.3905 1.0237.3905 1.4142 0l2-2Z"/></svg>