<svg xmlns="http://www.w3.org/2000/svg" fill="none" viewBox="0 0 24 24" class="acv-icon"><path fill="currentColor" d="M13.2929 7.2929 12 8.5858l-1.2929-1.293c-.3905-.3904-1.0237-.3904-1.4142 0-.3905.3906-.3905 1.0238 0 1.4143L10.5858 10l-1.293 1.2929c-.3904.3905-.3904 1.0237 0 1.4142.3906.3905 1.0238.3905 1.4143 0L12 11.4142l1.2929 1.2929c.3905.3905 1.0237.3905 1.4142 0 .3905-.3905.3905-1.0237 0-1.4142L13.4142 10l1.2929-1.2929c.3905-.3905.3905-1.0237 0-1.4142-.3905-.3905-1.0237-.3905-1.4142 0Z"/><path fill="currentColor" fill-rule="evenodd" d="M11 18H3.5032C2.673 18 2 17.3361 2 16.5069V3.4931C2 2.6685 2.6654 2 3.5032 2h16.9935C21.327 2 22 2.6639 22 3.4931v13.0138C22 17.3315 21.3346 18 20.4967 18H13v2h2.003A.996.996 0 0 1 16 21c0 .5523-.453 1-.997 1H8.997A.996.996 0 0 1 8 21c0-.5523.453-1 .997-1H11v-2Zm9-2V4H4v12h16Z" clip-rule="evenodd"/></svg>