<svg xmlns="http://www.w3.org/2000/svg" fill="none" viewBox="0 0 24 24" class="acv-icon"><path fill="currentColor" fill-rule="evenodd" d="M4 4c0-1.1046.8954-2 2-2h12c1.1046 0 2 .8954 2 2v16c0 1.1046-.8954 2-2 2H6c-1.1046 0-2-.8954-2-2V4Zm10 13c0 1.1046-.8954 2-2 2s-2-.8954-2-2 .8954-2 2-2 2 .8954 2 2ZM8 9c-.5523 0-1 .4477-1 1s.4477 1 1 1h2c.5523 0 1-.4477 1-1s-.4477-1-1-1H8ZM7 6c0-.5523.4477-1 1-1h8c.5523 0 1 .4477 1 1s-.4477 1-1 1H8c-.5523 0-1-.4477-1-1Zm7 3c-.5523 0-1 .4477-1 1s.4477 1 1 1h2c.5523 0 1-.4477 1-1s-.4477-1-1-1h-2Z" clip-rule="evenodd"/></svg>