<svg xmlns="http://www.w3.org/2000/svg" fill="none" viewBox="0 0 32 32" class="acv-icon"><path fill="currentColor" d="M20.005 13.5413A4.0008 4.0008 0 0 1 22.0001 13a4 4 0 0 1 1 7.8601V21h-14v-.1399a3.9999 3.9999 0 0 1-2.9952-3.5854 4.0002 4.0002 0 0 1 2.447-3.9798A4.0002 4.0002 0 0 1 13.45 19h5.1a3.9998 3.9998 0 0 1 1.4549-5.4587Z"/><path fill="currentColor" fill-rule="evenodd" d="m21 4 2-2h8v28H1V2h8l2 2h10Zm6.4142 20.4143A2.0002 2.0002 0 0 0 28 23V11a2.0002 2.0002 0 0 0-2-2H6a2 2 0 0 0-2 2v12a1.9998 1.9998 0 0 0 2 2h20a1.9999 1.9999 0 0 0 1.4142-.5857Z" clip-rule="evenodd"/></svg>