<svg xmlns="http://www.w3.org/2000/svg" fill="none" viewBox="0 0 24 24" class="acv-icon"><path fill="currentColor" d="M10.6001 13.1a1.1 1.1 0 0 0-1.1-1.1 1.1007 1.1007 0 0 0-.8433.2846A1.0996 1.0996 0 0 0 8.3 13.1a1.1998 1.1998 0 0 0 1.2 1.2 1.101 1.101 0 0 0 .8154-.3567 1.0999 1.0999 0 0 0 .2846-.8433ZM14.3 15.8a4.1002 4.1002 0 0 1-2.3.6 4.1 4.1 0 0 1-2.3-.6.2.2 0 0 0-.4 0 .3.3 0 0 0 0 .4 4.0995 4.0995 0 0 0 2.7.8 4.0997 4.0997 0 0 0 2.7-.8.3.3 0 0 0 0-.4.1999.1999 0 1 0-.4 0ZM13.7221 12.3222A1.1 1.1 0 0 1 14.4999 12a1.1011 1.1011 0 0 1 .8433.2846 1.0989 1.0989 0 0 1 .3567.8154 1.1999 1.1999 0 0 1-1.2 1.2 1.0999 1.0999 0 0 1-1.1-1.2 1.1 1.1 0 0 1 .3222-.7778Z"/><path fill="currentColor" fill-rule="evenodd" d="M5.8887 2.8538a11 11 0 1 1 12.2226 18.2925A11 11 0 0 1 5.8887 2.8538ZM18.4 13.9v-.4a1.6997 1.6997 0 0 0 .9-1.5 1.6003 1.6003 0 0 0-1.6-1.6 2.1 2.1 0 0 0-1.1.4 8.1 8.1 0 0 0-4.3-1.3l.8-3.5 2.3.8a1.1998 1.1998 0 0 0 1.2 1 1.1 1.1 0 0 0 0-2.2.9.9 0 0 0-1 .6l-2.7-.6h-.3l-.9 3.9a7.3001 7.3001 0 0 0-4.3 1.3 2.1 2.1 0 0 0-1.1-.4A1.6002 1.6002 0 0 0 4.7 12a1.6998 1.6998 0 0 0 .9 1.5v.4c0 2.5 2.9 4.5 6.4 4.5 3.5 0 6.4-2 6.4-4.5Z" clip-rule="evenodd"/></svg>