<svg xmlns="http://www.w3.org/2000/svg" fill="none" viewBox="0 0 16 16" class="acv-icon"><path fill="currentColor" fill-rule="evenodd" d="M9 1A1 1 0 0 0 7.858.01l-7 1A1 1 0 0 0 0 2v12a1 1 0 0 0 .859.99l7 1a1 1 0 0 0 1.14-.99V1ZM2.5 11h3.989V9.687H4.007V8.656h2.287V7.344H4.007V6.312H6.5V5h-4v6Z" clip-rule="evenodd"/><path fill="currentColor" d="M10 5v6l5.853-5.854A.5.5 0 0 0 16 4.793V2.5a.5.5 0 0 0-.5-.5h-2.293a.5.5 0 0 0-.354.146L10 5ZM10.707 11.707l3-3 2.146 2.146a.5.5 0 0 1 .147.354V13.5a.5.5 0 0 1-.5.5h-2.293a.5.5 0 0 1-.354-.147l-2.146-2.146Z"/></svg>