<svg xmlns="http://www.w3.org/2000/svg" fill="none" viewBox="0 0 24 24" class="acv-icon"><path fill="currentColor" d="M10.8068 7.0272c0-.5673.4599-1.0272 1.0271-1.0272.5673 0 1.0272.4599 1.0272 1.0272v.0267c.4268.0583.8165.1638 1.1689.3167.5729.247 1.0185.5907 1.3368 1.0309.1042.1442.192.296.2632.4551.2481.555-.2692 1.0746-.8771 1.0746-.4462 0-.8137-.3175-1.1663-.622a8.519 8.519 0 0 0-.2599-.2186 1.3608 1.3608 0 0 0-.0706-.0525c-.3049-.2122-.7186-.3183-1.2413-.3183-.3551 0-.6549.0475-.8995.1425-.2446.0918-.4322.22-.5628.3848-.1273.1647-.191.3515-.191.5606-.0067.1741.0318.3262.1156.456.0871.1299.206.2423.3568.3373.1508.0918.325.1726.5226.2423.1977.0665.4088.1235.6332.171l.9247.209c.4489.095.861.2217 1.2362.3801.3752.1583.7002.3531.9749.5843.2748.2312.4875.5035.6383.8171.1541.3135.2328.673.2362 1.0784-.0034.5954-.1642 1.1116-.4825 1.5487-.3149.4338-.7705.7711-1.3669 1.0118-.3797.1521-.8095.2555-1.2895.3102v.0189c0 .5673-.4599 1.0272-1.0272 1.0272-.5672 0-1.0271-.4599-1.0271-1.0272v-.0685c-.3496-.0601-.6739-.1485-.973-.2653-.613-.2407-1.0921-.597-1.4372-1.0689a2.676 2.676 0 0 1-.3522-.6796c-.2006-.5707.3127-1.0829.9177-1.0829h.1196c.4975 0 .8692.4281 1.1793.8171.1776.2154.4138.3785.7086.4893.2981.1077.6348.1616 1.0101.1616.3685 0 .6884-.0507.9598-.1521.2747-.1013.4875-.2422.6382-.4228.1508-.1805.2262-.3879.2262-.6223 0-.2185-.0687-.4022-.2061-.551-.134-.1489-.3316-.2756-.593-.3801-.2579-.1045-.5745-.1995-.9498-.285l-1.1206-.2661c-.8677-.1995-1.5528-.5114-2.0554-.9358-.5025-.4244-.7521-.9961-.7487-1.715-.0034-.589.1624-1.1037.4975-1.544.3383-.4401.8023-.7838 1.392-1.0308.2481-.104.5104-.186.787-.2462v-.0972ZM3.7927 17.7779c-.5105.2947-.6637.9658-.2822 1.4152a10.9217 10.9217 0 0 0 2.5717 2.2148c.5421.3362 1.228.0188 1.3931-.5974.1235-.4607-.092-.9403-.4921-1.1999a8.9354 8.9354 0 0 1-1.8294-1.5756c-.3437-.3885-.9119-.5165-1.3611-.2571ZM3.294 14.7375c.1523.488-.0237 1.0326-.4665 1.2882-.5178.299-1.185.086-1.3748-.481C-.173 10.6876 1.7818 5.1972 6.3895 2.537c1.6251-.9383 3.39-1.4147 5.143-1.4701.6376-.0202 1.0729.5977.9078 1.214-.1234.4606-.5499.7682-1.0262.793-1.3737.0715-2.7516.4602-4.0246 1.1951-3.715 2.1448-5.3223 6.5382-4.0955 10.4685ZM19.8521 6.1966c-.4428.2556-1.0022.1359-1.3487-.24a8.9385 8.9385 0 0 0-1.7075-1.4407c-.4001-.2596-.6156-.7392-.4922-1.1998.1651-.6162.851-.9337 1.3932-.5975a10.922 10.922 0 0 1 2.4262 2.047c.3962.448.2469 1.132-.271 1.431Z"/><path fill="currentColor" d="M11.3387 21.8456c.1235-.4606.5499-.7682 1.0262-.793 1.3737-.0715 2.7516-.4602 4.0246-1.1951 3.7696-2.1764 5.3691-6.6678 4.0397-10.6414-.1646-.492.0085-1.0483.4578-1.3076.5105-.2948 1.1683-.0917 1.3667.4634 1.7544 4.9079-.19 10.519-4.8642 13.2176-1.6251.9383-3.3901 1.4147-5.143 1.4701-.6376.0202-1.0729-.5978-.9078-1.214Z"/></svg>