<svg xmlns="http://www.w3.org/2000/svg" fill="none" viewBox="0 0 32 32" class="acv-icon"><path fill="currentColor" d="M6 5h3c.5523 0 1 .4477 1 1v3h3V6c0-.5523.4477-1 1-1h4c.5523 0 1 .4477 1 1v3h3V6c0-.5523.4477-1 1-1h3c.5523 0 1 .4477 1 1v6c0 1.1046-.8954 2-2 2h-1.7338l.6222 4.2816c-1.4921.4073-2.8104 1.2356-3.8193 2.3495V19c0-2.2091-1.7909-4-4-4h-.1382c-2.2092 0-4 1.7909-4 4v8H8.0003c-.6095 0-1.0772-.5406-.9896-1.1438L8.7337 14H7c-1.1046 0-2-.8954-2-2V6c0-.5523.4477-1 1-1Z"/><path fill="currentColor" d="M18 19c0-1.1046-.8954-2-2-2s-2 .8954-2 2v8h4v-8Z"/></svg>