<svg xmlns="http://www.w3.org/2000/svg" fill="none" viewBox="0 0 16 16" class="acv-icon"><path fill="currentColor" fill-rule="evenodd" d="M0 7.5c0-.5523.4477-1 1-1h1c.5523 0 1 .4477 1 1V14c0 .5523-.4477 1-1 1H1c-.5523 0-1-.4477-1-1V7.5Z" clip-rule="evenodd"/><path fill="currentColor" d="M6.6056 1.5528A1 1 0 0 1 7.5 1c1.0622 0 1.886.796 2.1576 1.8825.1834.7336.1363 1.614-.1731 2.6175h3.7957c1.2621 0 2.2087 1.1547 1.9612 2.3922l-1.1 5.5A2 2 0 0 1 12.1802 15H5c-.5523 0-1-.4477-1-1V7a1 1 0 0 1 .1056-.4472l2.5-5Z"/></svg>