<svg xmlns="http://www.w3.org/2000/svg" fill="none" viewBox="0 0 32 32" class="acv-icon"><path fill="currentColor" fill-rule="evenodd" d="M32 16c0 8.8366-7.1634 16-16 16S0 24.8366 0 16 7.1634 0 16 0s16 7.1634 16 16ZM16.0002 30.8571c4.3225 0 8.2139-1.8459 10.9288-4.7924-1.1092-2.7039-3.1293-4.9054-5.6533-6.2013-1.3988 1.1753-3.2039 1.8819-5.1721 1.8819-1.9682 0-3.7728-.7054-5.1717-1.8807-2.5718 1.3206-4.6206 3.581-5.7154 6.3554 2.7076 2.8559 6.5376 4.6371 10.7837 4.6371Zm6.9635-17.1268c0 3.7775-3.0718 6.8397-6.8611 6.8397-3.7893 0-6.8612-3.0622-6.8612-6.8397 0-3.7774 3.0719-6.8397 6.8612-6.8397 3.7893 0 6.8611 3.0623 6.8611 6.8397Z" clip-rule="evenodd"/></svg>