<svg xmlns="http://www.w3.org/2000/svg" fill="none" viewBox="0 0 32 32" class="acv-icon"><path fill="#EA3939" d="M14.5605 3.5963c.795-.795 2.084-.795 2.879 0l10.9642 10.9642c.7951.795.7951 2.084 0 2.879L17.4395 28.4037c-.795.7951-2.084.7951-2.879 0L3.5963 17.4395c-.795-.795-.795-2.084 0-2.879L14.5605 3.5963Z"/><path stroke="#243143" stroke-opacity=".1" d="M14.9141 3.9502c.5997-.5998 1.5721-.5998 2.1718 0l10.9639 10.9639c.5998.5997.5998 1.5721 0 2.1718L17.0859 28.0498c-.5997.5998-1.5721.5998-2.1718 0L3.9502 17.0859c-.5998-.5997-.5998-1.5721 0-2.1718L14.9141 3.9502Z"/><path fill="#fff" d="M16 9c-.8284 0-1.5.6716-1.5 1.5v6c0 .8284.6716 1.5 1.5 1.5s1.5-.6716 1.5-1.5v-6c0-.8284-.6716-1.5-1.5-1.5ZM16 23c.8284 0 1.5-.6716 1.5-1.5S16.8284 20 16 20s-1.5.6716-1.5 1.5.6716 1.5 1.5 1.5Z"/></svg>