<svg xmlns="http://www.w3.org/2000/svg" fill="none" viewBox="0 0 32 32" class="acv-icon"><path fill="currentColor" d="M28.7681 5.378c-.2452-.031-.5124-.0447-.8049-.0447-.553 0-1.0582.0613-1.5302.1924-.4948.1374-.9205.3345-1.298.6023-.3724.2528-.6849.5843-.9213.9735-.2414.3971-.3614.8536-.3614 1.3618 0 .6335.2231 1.2315.6514 1.7603.4242.5354 1.1006.9334 2.0036 1.1968l1.6414.4716.2057.0656c.3895.1312.6483.2626.7714.3829.1299.1269.1892.2687.1892.4575 0 .2874-.1265.5-.3998.6637-.3141.1882-.8006.2898-1.4496.2898-.4253 0-.8424-.0391-1.2742-.1191a6.1096 6.1096 0 0 1-1.171-.3453l-.3119-.1149a1.0773 1.0773 0 0 0-.3191-.0489c-.4078 0-.6501.2967-.6501.7112v.5341l.012.1557a1.084 1.084 0 0 0 .0937.3036c.0892.1859.2735.3403.5214.4694.3184.17.777.3161 1.3967.4537.5911.1314 1.2076.1979 1.8269.1979.61 0 1.1785-.0775 1.726-.2352.5415-.1515.9983-.363 1.3812-.6488.3804-.2725.6927-.6243.9302-1.0397.2297-.4249.3448-.8968.3448-1.4052 0-.6378-.2032-1.2147-.6072-1.7092-.4055-.4965-1.0583-.8702-1.9445-1.1323l-1.6068-.4714-.2204-.0693c-.4208-.1403-.7212-.2894-.8757-.4252-.1417-.1247-.2079-.2703-.2079-.454 0-.2865.1025-.4642.3352-.5963.2771-.1572.7182-.2421 1.3106-.2421.7521 0 1.4242.1263 2.0187.3774l.1661.067c.159.0581.2971.0896.4165.0896.4106 0 .6499-.3075.6499-.7218v-.492l-.0071-.1337c-.0192-.1733-.0775-.3268-.1805-.454-.0935-.1309-.2476-.2486-.4599-.3608-.1332-.0741-.3153-.1464-.5427-.2165a6.7028 6.7028 0 0 0-.299-.0844l-.3729-.0905a24.5177 24.5177 0 0 0-.447-.0765l-.3295-.046Z"/><path fill="currentColor" fill-rule="evenodd" d="M7.869 6.304c-.7186-.6416-1.7943-.9497-3.2266-.9497-.6643 0-1.2817.0687-1.858.2103-.5742.13-1.0763.296-1.5001.4979-.2023.0936-.3552.2007-.4576.3335-.1195.1548-.1594.3479-.1594.6014v.513l.0081.1326c.0434.3412.2587.5787.6193.5787.0853 0 .1693-.0148.2814-.0445.1206-.0319.272-.0826.4428-.1517.3515-.13.7378-.2418 1.1604-.337a5.1443 5.1443 0 0 1 1.1351-.1265c.787 0 1.3073.1354 1.582.3818l.0815.0875.073.1039c.1602.2616.2487.6583.2487 1.1971l-.0013.2917-.3361-.0625a11.1886 11.1886 0 0 0-.5246-.0788c-.4602-.0576-.8648-.0868-1.2476-.0868-1.2449 0-2.2475.296-3.0137.9008C.3957 10.9127 0 11.7453 0 12.7561c0 .9399.324 1.7155.9637 2.2957.6306.5718 1.4819.8552 2.5251.8552l.3059-.008.3282-.0275c.9718-.1117 1.8262-.4863 2.554-1.1202l.0425-.0402.1152.1882.143.1983a3.623 3.623 0 0 0 .3183.3611c.206.1735.4023.2598.615.2598.1695 0 .3414-.0545.5003-.1528l.7123-.4396.1191-.0935c.182-.1598.2797-.3395.2797-.5489 0-.1566-.0495-.3141-.145-.4558l-.115-.2127a5.41 5.41 0 0 1-.2077-.4664l-.0333-.1175-.0271-.1397c-.0239-.1502-.0374-.3311-.0374-.5345l-.0228-.0229.0002-3.3694-.0074-.3062C8.873 7.7576 8.5222 6.8978 7.869 6.304ZM3.16 11.7546c.2934-.2223.7662-.3394 1.4485-.3394.3338 0 .6693.0198 1.0179.0602l.3309.0446.3644.063.0005.1261-.0066.2201c-.013.2144-.045.4118-.0933.5908-.0477.1768-.1455.3442-.2974.5112-.2562.2632-.5631.4556-.9008.5598-.3726.115-.7182.1711-1.049.1711-.4305 0-.7271-.0961-.9157-.278-.2029-.1807-.3004-.4405-.3004-.8326 0-.4091.1295-.6912.401-.8969Z" clip-rule="evenodd"/><path fill="currentColor" d="M11.0098 5.6056c.2591 0 .4604.0366.5933.1193l.0714.0553c.1455.101.2353.2415.3247.4732l.0541.1505 1.5089 5.5078 1.4026-5.5064c.0479-.1774.1049-.3212.1824-.4353l.0846-.1044.1008-.0854c.1354-.094.3148-.1494.5188-.1677l.1573-.007h.9049c.3008 0 .5249.051.6757.1746.149.1033.2566.2708.3253.4729l.0443.1576 1.4246 5.5978 1.5696-5.6214c.0524-.1616.1138-.2984.1922-.4116l.0843-.1053.0973-.0899c.1356-.0942.3088-.1494.5093-.1678l.1554-.0068h1.0518c.3925 0 .6727.2517.6727.6484l-.0017.0696c-.0027.0314-.0098.0705-.027.1658a1.5389 1.5389 0 0 1-.0536.2076l-.0395.1088-2.7243 8.0894c-.0916.2827-.2092.4849-.385.6067-.1345.0935-.3071.1492-.5027.1677l-.1508.007h-.9727c-.3011 0-.5251-.0508-.6992-.192-.1385-.1122-.2406-.2752-.3047-.47L16.4384 9.566l-1.3649 5.2899c-.046.1704-.101.3103-.1736.4242l-.0788.1053-.0924.0888c-.1386.1123-.3146.1677-.5301.1854l-.169.0065h-.9727c-.2878 0-.5038-.0519-.6536-.1747-.1385-.0962-.2392-.2435-.3238-.4444l-.0606-.1608-2.6583-8.0951c-.082-.2528-.1205-.4105-.1205-.5371 0-.3417.212-.5883.5352-.6388l.1262-.0096h1.1083ZM26.078 20.4818c-.806.1108-.945-.7491-.3764-1.2024 1.7872-1.3815 5.3852-1.4379 6.0856-.4958l.0655.1096c.5339 1.0807-.4375 4.6515-2.0419 6.1369-.5581.5233-1.3355.1274-1.0601-.6305.7649-2.0842 1.1749-3.6179.9501-3.9304-.207-.2929-1.6191-.2554-3.6228.0126Z"/><path fill="currentColor" d="M15.9599 26.6667c-5.9343 0-11.4558-2.3636-15.709-6.5921-.6358-.6322.0442-1.6224.844-1.0987 4.4603 2.849 9.8333 4.4492 15.2281 4.4492 3.8452 0 7.9393-.9038 11.6039-2.6094l.1157-.0506c.955-.3572 1.6701.8583.8054 1.5634-3.3443 2.7195-8.3214 4.3382-12.8881 4.3382Z"/></svg>