<svg xmlns="http://www.w3.org/2000/svg" fill="none" viewBox="0 0 24 24" class="acv-icon"><path fill="currentColor" d="M18.965 5.831C17.975 2.419 14.7392 0 11 0 7.603 0 4.5942 1.9992 3.3385 4.9767 1.324 5.9427 0 7.9427 0 10.1875c0 2.3426 1.4421 4.4221 3.6144 5.3347.5092.2139 1.0953-.0254 1.3093-.5346.2139-.5092-.0255-1.0954-.5347-1.3093C2.9452 13.0718 2 11.7088 2 10.1875c0-1.5563.9895-2.945 2.4834-3.5291a1 1 0 0 0 .5778-.5955C5.9187 3.6576 8.29 2 11 2c2.9895 0 5.5387 2.0141 6.14 4.7653a.9999.9999 0 0 0 .623.7218c1.2201.4617 2.0691 1.5262 2.2147 2.7592a7.9478 7.9478 0 0 1 2.0041.8135A5.181 5.181 0 0 0 22 10.625c0-2.0585-1.2031-3.8926-3.035-4.794Z"/><path fill="currentColor" fill-rule="evenodd" d="M10.0619 17A8.0689 8.0689 0 0 0 10 18c0 .6906.0875 1.3608.252 2H6.5a.5.5 0 0 1-.5-.5v-2a.5.5 0 0 1 .5-.5h3.5619ZM8 18.5a.5.5 0 1 1-1 0 .5.5 0 0 1 1 0ZM6.5 13h5.2546a8.0095 8.0095 0 0 0-.8223 1.2486.5.5 0 1 0-.3479.7443A7.9363 7.9363 0 0 0 10.252 16H6.5a.5.5 0 0 1-.5-.5v-2a.5.5 0 0 1 .5-.5ZM8 14.5a.5.5 0 1 1-1 0 .5.5 0 0 1 1 0ZM16 10.252V9.5a.5.5 0 0 0-.5-.5h-9a.5.5 0 0 0-.5.5v2a.5.5 0 0 0 .5.5h6.2084a8.0171 8.0171 0 0 1 1.5402-1.0677.5.5 0 1 1 .7443-.3479A7.9363 7.9363 0 0 1 16 10.252ZM12.5 11a.5.5 0 1 0-.0001-1.0001A.5.5 0 0 0 12.5 11ZM8 10.5a.5.5 0 1 1-1 0 .5.5 0 0 1 1 0ZM18 24c3.3137 0 6-2.6863 6-6s-2.6863-6-6-6-6 2.6863-6 6 2.6863 6 6 6Zm1-6.5858V21c0 .5523-.4477 1-1 1s-1-.4477-1-1v-3.5858l-1.2929 1.2929c-.3905.3905-1.0237.3905-1.4142 0-.3905-.3905-.3905-1.0237 0-1.4142l3-3c.3905-.3905 1.0237-.3905 1.4142 0l3 3c.3905.3905.3905 1.0237 0 1.4142-.3905.3905-1.0237.3905-1.4142 0L19 17.4142Z" clip-rule="evenodd"/></svg>