<svg xmlns="http://www.w3.org/2000/svg" fill="none" viewBox="0 0 16 16" class="acv-icon"><path fill="currentColor" fill-rule="evenodd" d="M9.25 2.6404c0-.6783.7911-1.0488 1.3121-.6146l2.2314 1.8595c.3838.3198.3838.9093 0 1.2292L10.5621 6.974c-.521.4342-1.3121.0636-1.3121-.6146V5.25h-6C2.5596 5.25 2 5.8096 2 6.5V8A.75.75 0 0 1 .5 8V6.5c0-1.5188 1.2312-2.75 2.75-2.75h6V2.6404ZM14 10c0 .6904-.5596 1.25-1.25 1.25h-6v-1.1094c0-.6782-.791-1.0488-1.3121-.6145l-2.2314 1.8594c-.3838.3199-.3838.9094 0 1.2292l2.2313 1.8595c.5211.4342 1.3122.0637 1.3122-.6146V12.75h6c1.5188 0 2.75-1.2312 2.75-2.75V8.5a.75.75 0 0 0-1.5 0V10Z" clip-rule="evenodd"/></svg>