<svg xmlns="http://www.w3.org/2000/svg" fill="none" viewBox="0 0 24 24" class="acv-icon"><path fill="currentColor" fill-rule="evenodd" d="M4 1C2.3432 1 1 2.3432 1 4v4c0 1.6569 1.3432 3 3 3h4c1.6569 0 3-1.3431 3-3V4c0-1.6568-1.3431-3-3-3H4ZM3 4c0-.5523.4477-1 1-1h4c.5523 0 1 .4477 1 1v4c0 .5523-.4477 1-1 1H4c-.5523 0-1-.4477-1-1V4ZM18 1c-2.7614 0-5 2.2386-5 5s2.2386 5 5 5 5-2.2386 5-5-2.2386-5-5-5Zm-3 5c0-1.6569 1.3431-3 3-3s3 1.3431 3 3-1.3431 3-3 3-3-1.3431-3-3ZM1 16c0-1.6569 1.3432-3 3-3h4c1.6569 0 3 1.3431 3 3v4c0 1.6569-1.3431 3-3 3H4c-1.6568 0-3-1.3431-3-3v-4Zm3-1c-.5523 0-1 .4477-1 1v4c0 .5523.4477 1 1 1h4c.5523 0 1-.4477 1-1v-4c0-.5523-.4477-1-1-1H4ZM16 13c-1.6569 0-3 1.3431-3 3v4c0 1.6569 1.3431 3 3 3h4c1.6569 0 3-1.3431 3-3v-4c0-1.6569-1.3431-3-3-3h-4Zm-1 3c0-.5523.4477-1 1-1h4c.5523 0 1 .4477 1 1v4c0 .5523-.4477 1-1 1h-4c-.5523 0-1-.4477-1-1v-4Z" clip-rule="evenodd"/></svg>