<svg xmlns="http://www.w3.org/2000/svg" fill="none" viewBox="0 0 32 32" class="acv-icon"><path fill="currentColor" d="m1.6638 27.2424 2.6779-7.9333 1.5488-4.5886L9.5485 3.884a1.3 1.3 0 0 1 .4734-.6403A1.3 1.3 0 0 1 10.7801 3l.098.0002a1.2975 1.2975 0 0 1 1.2298.8828l3.2632 9.6672-2.1196 6.2789h4.3379l2.5068 7.4264a1.298 1.298 0 0 1-.6372 1.5698 1.2983 1.2983 0 0 1-.562.1428h-.3018a1.3056 1.3056 0 0 1-.891-.3509l-5.6419-5.2651-1.5928 4.7186a1.2996 1.2996 0 0 1-1.2314.884H2.8936a1.2985 1.2985 0 0 1-1.0543-.5407 1.2975 1.2975 0 0 1-.1755-1.1716Z"/><path fill="currentColor" d="m22.45 3.9278 3.6585 10.8385 1.5917 4.7155 2.6347 7.8052a1.2976 1.2976 0 0 1-.6371 1.5697 1.2986 1.2986 0 0 1-.5924.1433h-9.086a1.298 1.298 0 0 0 1.2299-1.713l-7.885-23.3592a1.2975 1.2975 0 0 0-1.2298-.8828h9.0856a1.2979 1.2979 0 0 1 1.2299.8828Z"/></svg>