<svg xmlns="http://www.w3.org/2000/svg" fill="none" viewBox="0 0 32 32" class="acv-icon"><path fill="currentColor" fill-rule="evenodd" d="M15 11.9c-2.2822-.4633-4-2.481-4-4.9 0-2.7614 2.2386-5 5-5s5 2.2386 5 5c0 2.419-1.7178 4.4367-4 4.9V16h8.0088C26.6606 16 28 17.3457 28 18.9979v3.1281c1.7252.4441 3 2.0102 3 3.874 0 2.2091-1.7909 4-4 4-2.2091 0-4-1.7909-4-4 0-1.8638 1.2748-3.4299 3-3.874v-3.1281c0-.5497-.4461-.9979-.9912-.9979H17v4.0015c0 .0415-.0025.0824-.0074.1226C18.7216 22.5656 20 24.1335 20 26c0 2.2091-1.7909 4-4 4-2.2091 0-4-1.7909-4-4 0-1.8665 1.2785-3.4345 3.0075-3.8759A.9928.9928 0 0 1 15 22.0015V18H6.9912C6.4435 18 6 18.4453 6 18.9979v3.1281c1.7252.4441 3 2.0102 3 3.874 0 2.2091-1.7909 4-4 4-2.2091 0-4-1.7909-4-4 0-1.8638 1.2748-3.4299 3-3.874v-3.1281C4 17.3425 5.3371 16 6.9912 16H15v-4.1Zm1-1.9c1.6569 0 3-1.3431 3-3s-1.3431-3-3-3-3 1.3431-3 3 1.3431 3 3 3Zm13 16c0 1.1046-.8954 2-2 2s-2-.8954-2-2 .8954-2 2-2 2 .8954 2 2ZM5 28c1.1046 0 2-.8954 2-2s-.8954-2-2-2-2 .8954-2 2 .8954 2 2 2Zm13-2c0 1.1046-.8954 2-2 2s-2-.8954-2-2 .8954-2 2-2 2 .8954 2 2Z" clip-rule="evenodd"/></svg>