<svg xmlns="http://www.w3.org/2000/svg" fill="none" viewBox="0 0 24 24" class="acv-icon"><path fill="currentColor" fill-rule="evenodd" d="m14.9545 9.2491-.749 1.3814c1.2861.7449 2.1657 2.1314 2.2945 3.7695h-9c.1287-1.6381 1.0084-3.0246 2.2945-3.7695l-.749-1.3816a.1753.1753 0 0 1 0-.166c.0278-.0513.0792-.083.135-.0829a.1544.1544 0 0 1 .1349.083l.7583 1.3988c.58-.2816 1.2312-.4388 1.9262-.4388.695 0 1.3464.1569 1.9263.4388l.7584-1.3988A.1545.1545 0 0 1 14.8197 9a.1544.1544 0 0 1 .1349.0831.1753.1753 0 0 1-.0001.166Zm-5.0256 3.7853c-.207.0001-.3749-.1786-.375-.399 0-.2204.1678-.3992.3748-.3992.207 0 .3748.1786.3749.399-.0002.2204-.1679.3989-.3747.3992Zm4.1422 0c-.2069.0001-.3748-.1786-.3748-.399-.0001-.2204.1677-.3992.3747-.3992s.3748.1786.3749.399c-.0003.2203-.1679.3989-.3748.3992Z" clip-rule="evenodd"/><path fill="currentColor" d="M13 5c0-.5523-.4477-1-1-1s-1 .4477-1 1 .4477 1 1 1 1-.4477 1-1Z"/><path fill="currentColor" fill-rule="evenodd" d="M19 5v14c0 2.2091-1.7909 4-4 4H9c-2.2091 0-4-1.7909-4-4V5c0-2.2091 1.7909-4 4-4h6c2.2091 0 4 1.7909 4 4Zm-2 0c0-1.1046-.8954-2-2-2H9c-1.1046 0-2 .8954-2 2v14c0 1.1046.8954 2 2 2h6c1.1046 0 2-.8954 2-2V5Z" clip-rule="evenodd"/></svg>