<svg xmlns="http://www.w3.org/2000/svg" fill="none" viewBox="0 0 24 25" class="acv-icon"><path fill="currentColor" d="M5.593 14.682a8.514 8.514 0 0 0 4.518 2.232 7.937 7.937 0 0 1 .501-1.739c-3.316-.419-5.88-3.243-5.88-6.665 0-3.71 3.016-6.718 6.736-6.718 3.72 0 6.736 3.008 6.736 6.718 0 .602-.08 1.185-.228 1.74H18c.611 0 1.206.069 1.778.198A8.511 8.511 0 0 0 20 8.51C20 3.81 16.18 0 11.468 0 6.755 0 2.935 3.81 2.935 8.51c0 1.785.551 3.441 1.492 4.81L.543 16.844l-.078.081a.894.894 0 0 0 .019 1.185.9.9 0 0 0 1.269.059l3.84-3.488Z"/><path fill="currentColor" d="M12.75 4.75a.75.75 0 0 0-1.5 0v4.19l-2.28 2.28a.75.75 0 1 0 1.06 1.06l2.5-2.5a.75.75 0 0 0 .22-.53v-4.5Z"/><path fill="currentColor" fill-rule="evenodd" d="M18 24.25a6 6 0 1 0 0-12 6 6 0 0 0 0 12Zm1-6.586v3.586a1 1 0 1 1-2 0v-3.586l-1.293 1.293a1 1 0 0 1-1.414-1.414l3-3a1 1 0 0 1 1.414 0l3 3a1 1 0 0 1-1.414 1.414L19 17.664Z" clip-rule="evenodd"/></svg>