<svg xmlns="http://www.w3.org/2000/svg" fill="none" viewBox="0 0 32 32" class="acv-icon"><path fill="currentColor" fill-rule="evenodd" d="M15.5029 6.2572A2 2 0 0 0 13.6459 5H7c-1.1046 0-2 .8954-2 2v17c0 1.1046.8954 2 2 2h18c1.1046 0 2-.8954 2-2V12c0-1.1046-.8954-2-2-2h-7.323a.9998.9998 0 0 1-.9284-.6286l-1.2457-3.1142ZM12.2567 13.5c-.2725 0-.4934.2164-.4934.4833v4.3501h-1.769c-.4395 0-.6596.5207-.3488.8252l2.7557 2.6998c.1926.1888.505.1888.6976 0l2.7557-2.6998c.3108-.3045.0907-.8252-.3488-.8252h-1.769v-4.3501c0-.2669-.2209-.4833-.4934-.4833h-.9866Zm7.98 8.0167c0 .2669-.2209.4833-.4934.4833h-.9866c-.2725 0-.4934-.2164-.4934-.4833v-4.3501h-1.769c-.4395 0-.6596-.5207-.3488-.8252l2.7557-2.6998c.1926-.1888.505-.1888.6976 0l2.7557 2.6998c.3108.3045.0907.8252-.3488.8252h-1.769v4.3501Z" clip-rule="evenodd"/></svg>