<svg xmlns="http://www.w3.org/2000/svg" fill="none" viewBox="0 0 32 32" class="acv-icon"><path fill="currentColor" fill-rule="evenodd" d="M14.9091 2.2323 3.0454 7.5338C2.1043 7.9544 1.5 8.877 1.5 9.8934v12.2132c0 1.0164.6043 1.939 1.5454 2.3596l11.8637 5.3015a2.6779 2.6779 0 0 0 2.1818 0l11.8637-5.3015c.9411-.4206 1.5454-1.3432 1.5454-2.3596V9.8934c0-1.0164-.6043-1.939-1.5454-2.3596L17.0909 2.2323a2.6774 2.6774 0 0 0-2.1818 0Zm.5947 11.8209h-2.544c-.0526-.6742-.4591-1.0747-1.3198-1.0747-.8225 0-1.1812.3346-1.186.7908-.0239.4969.3922.7858 1.3199.9937l.8033.1825c2.1615.4918 3.051 1.602 3.0605 3.1838-.0095 2.0481-1.4967 3.1838-3.9786 3.1838-2.5536 0-4.2177-1.1661-4.2273-3.7719h2.525c.043.9531.6455 1.4601 1.664 1.4601.8512 0 1.2912-.36 1.3007-.872-.0095-.4715-.3825-.7605-1.4728-1.014l-.9755-.223c-1.7359-.3955-2.7975-1.2979-2.7927-2.9202-.0144-1.9772 1.6306-3.3054 3.9595-3.3054 2.3718 0 3.8543 1.3485 3.8638 3.3865Zm9.0643 4.1572c.0096 1.8302-1.6785 3.1229-4.0743 3.1229-2.3192 0-3.969-1.3688-3.9786-3.3054h2.6779c.0096.6033.5547 1.0342 1.3199 1.0342.7364 0 1.2529-.4512 1.2433-1.0951.0096-.6286-.593-1.0747-1.4537-1.0747h-.9947v-1.9468h.9947c.7938 0 1.3485-.4461 1.3389-1.0748.0096-.6033-.4591-1.0342-1.1285-1.0342-.7317 0-1.2529.4461-1.2625 1.0748h-2.544c.0096-1.9012 1.5876-3.2446 3.8065-3.2446 2.171 0 3.7012 1.2725 3.6917 3.0215.0095 1.161-.8417 1.9569-2.0085 2.0887v.0811c1.5781.1826 2.3815 1.0799 2.3719 2.3524Z" clip-rule="evenodd"/></svg>