<svg xmlns="http://www.w3.org/2000/svg" fill="none" viewBox="0 0 16 16" class="acv-icon"><path fill="currentColor" d="M4.4719 10.0561c-.1024-.1699-.1537-.3572-.1537-.5621 0-.1995.0513-.3828.1537-.55.1024-.1698.24-.3046.4125-.4043.1725-.1025.3639-.1537.5741-.1537.2454 0 .4732.0566.6834.1699a2.631 2.631 0 0 1 .5702.4124c.0809.0755.1644.1631.2507.2628.089.0998.1618.1874.2184.2629a5.9598 5.9598 0 0 1-.1941.2547c-.0755.0917-.1672.1874-.275.2871-.1833.1699-.3774.3074-.5823.4125-.2022.1024-.426.1536-.6713.1536-.2102 0-.4016-.0485-.5741-.1455a1.1522 1.1522 0 0 1-.4125-.4003ZM11.5241 8.944c.1024.1672.1536.3505.1536.55 0 .2049-.0512.3922-.1536.5621a1.153 1.153 0 0 1-.4125.4003c-.1698.097-.3585.1455-.5661.1455-.2507 0-.4785-.0525-.6834-.1577-.2049-.1051-.3963-.2412-.5742-.4084a4.0292 4.0292 0 0 1-.2628-.279 4.1625 4.1625 0 0 1-.2063-.2628c.0405-.0485.1038-.1254.1901-.2305.089-.1051.182-.2035.279-.2952a2.2356 2.2356 0 0 1 .3599-.2911c.132-.089.2723-.159.4205-.2103.151-.054.3101-.0809.4772-.0809.2076 0 .3963.0512.5661.1537.1725.0997.31.2345.4125.4043Z"/><path fill="currentColor" fill-rule="evenodd" d="M6.2792 1a1 1 0 0 1 .9487.6838L7.886 3.658A.5.5 0 0 0 8.3604 4H14c.5523 0 1 .4477 1 1v9c0 .5523-.4477 1-1 1H2c-.5523 0-1-.4477-1-1V2c0-.5523.4477-1 1-1h4.2792Zm.065 6.2174c-.267-.0944-.5621-.1415-.8857-.1415-.3396 0-.659.0633-.9583.19a2.507 2.507 0 0 0-.7845.5257 2.4362 2.4362 0 0 0-.5257.7683c-.1267.2911-.19.6025-.19.934 0 .4476.1105.8546.3316 1.2213.221.3639.5176.655.8896.8734.372.2157.7845.3235 1.2374.3235.3235 0 .6186-.0458.8855-.1375.2696-.0916.5109-.2076.7238-.3477.213-.1429.3977-.2871.554-.4327a4.7234 4.7234 0 0 0 .2022-.2062l.178-.2022c.0511.0647.1064.1294.1657.1941.0593.0647.1294.1361.2103.2143.1617.1509.349.2965.562.4367.213.1402.453.2561.7198.3478.267.0889.5621.1334.8856.1334.3397 0 .6578-.062.9543-.186s.5567-.2965.7804-.5176a2.3918 2.3918 0 0 0 .5297-.7723c.1267-.2939.1901-.608.1901-.9422 0-.4421-.1105-.8465-.3316-1.2131-.2183-.3666-.5135-.6591-.8855-.8775-.3721-.2184-.7845-.3275-1.2374-.3275-.4772 0-.899.0997-1.2657.2992-.364.1968-.6685.4138-.9139.651a3.567 3.567 0 0 0-.2021.2022 3.5512 3.5512 0 0 0-.1618.19 5.8095 5.8095 0 0 0-.1739-.19 2.7467 2.7467 0 0 0-.1981-.2022c-.1617-.1563-.3504-.3073-.5661-.4529-.213-.1455-.4529-.2641-.7198-.3558Z" clip-rule="evenodd"/></svg>