<svg xmlns="http://www.w3.org/2000/svg" fill="none" viewBox="0 0 32 32" class="acv-icon"><path fill="currentColor" d="M16.0305 13.7074h-.0584l-.0649.183-1.2492 2.9118h2.6838l-1.2449-2.9118-.0664-.183ZM14.1651 17.9244l-.4105.9347h4.4908l-.4106-.9347h-3.6697Z"/><path fill="currentColor" fill-rule="evenodd" d="M24.7375 15.4742A7.5117 7.5117 0 0 0 25 13.5C25 9.3579 21.6421 6 17.5 6c-3.2782 0-6.0652 2.1032-7.0851 5.0339C7.9292 11.3236 6 13.4365 6 16a4.994 4.994 0 0 0 .2602 1.5961C4.9095 18.3728 4 19.8302 4 21.5 4 23.9853 6.0147 26 8.5 26h14c3.0376 0 5.5-2.4624 5.5-5.5 0-2.2408-1.3401-4.1687-3.2625-5.0258ZM11 22l4.393-10h1.214L21 22h-1.4007l-.8609-2.0187h-5.4768L12.4007 22H11Z" clip-rule="evenodd"/></svg>