<svg xmlns="http://www.w3.org/2000/svg" fill="none" viewBox="0 0 24 24" class="acv-icon"><path fill="currentColor" fill-rule="evenodd" d="M18 24c3.3137 0 6-2.6863 6-6s-2.6863-6-6-6-6 2.6863-6 6 2.6863 6 6 6Zm1-8.5c0-.2761.2451-.5.5-.5h1.0385c.2549 0 .4615.2239.4615.5v5c0 .2761-.2066.5-.4615.5h-5.077c-.2549 0-.4615-.2239-.4615-.5v-5c0-.2761.2066-.5.4615-.5H16.5c.2549 0 .5.2239.5.5v2h2v-2Z" clip-rule="evenodd"/><path fill="currentColor" d="M4 2c-1.1046 0-2 .8954-2 2v16c0 1.1046.8954 2 2 2h7.0703C10.3896 20.8233 10 19.4571 10 18c0-4.4183 3.5817-8 8-8 1.4571 0 2.8233.3896 4 1.0703V4c0-1.1046-.8954-2-2-2H4Z"/><path fill="currentColor" fill-rule="evenodd" d="M18 24c3.3137 0 6-2.6863 6-6s-2.6863-6-6-6-6 2.6863-6 6 2.6863 6 6 6Zm1-8.5c0-.2761.2451-.5.5-.5h1.0385c.2549 0 .4615.2239.4615.5v5c0 .2761-.2066.5-.4615.5h-5.077c-.2549 0-.4615-.2239-.4615-.5v-5c0-.2761.2066-.5.4615-.5H16.5c.2549 0 .5.2239.5.5v2h2v-2Z" clip-rule="evenodd"/></svg>