<svg xmlns="http://www.w3.org/2000/svg" fill="none" viewBox="0 0 24 24" class="acv-icon"><path fill="currentColor" d="M17 1c.3754 0 .693.2776.7433.6496.0658.4596.1693.9157.2966 1.3617.2251.7889.5531 1.568.967 1.9818.4139.414 1.1929.742 1.9818.967.4465.1274.9015.2325 1.3617.2967a.75.75 0 0 1-.0003 1.4865c-.4601.0643-.9149.1692-1.3614.2966-.7889.225-1.5679.553-1.9818.967-.4139.4139-.7419 1.1929-.967 1.9818-.1273.446-.2308.9021-.2966 1.3617a.7501.7501 0 0 1-1.4866-.0003c-.0658-.4593-.1694-.9155-.2966-1.3614-.2251-.7889-.5531-1.568-.967-1.9818-.4139-.414-1.1929-.742-1.9818-.967-.446-.1273-.9021-.2308-1.3617-.2966a.75.75 0 0 1 .0003-1.4866c.4601-.0643.9149-.1692 1.3614-.2966.7889-.225 1.5679-.553 1.9818-.967.4139-.4139.7419-1.193.967-1.9818.1273-.446.2308-.9021.2966-1.3617A.7501.7501 0 0 1 17 1Z"/><path fill="currentColor" d="M6 2C3.7909 2 2 3.7909 2 6v9c0 2.2091 1.7909 4 4 4h1v2.9777c0 .8715 1.0296 1.3339 1.681.7549L12.8802 19H18c2.2091 0 4-1.7909 4-4v-4c0-.5523-.4477-1-1-1s-1 .4477-1 1v4c0 1.1046-.8954 2-2 2h-5.462a1.1 1.1 0 0 0-.7308.2779L9 19.7732V17H6c-1.1046 0-2-.8954-2-2V6c0-1.1046.8954-2 2-2h7c.5523 0 1-.4477 1-1s-.4477-1-1-1H6Z"/><path fill="currentColor" d="M9.4336 8.879a.4375.4375 0 0 0-.8672 0c-.0384.268-.0988.534-.173.7943-.1313.4601-.3226.9146-.564 1.156-.2415.2415-.696.4328-1.1561.5641-.2602.0742-.5262.1346-.7942.173a.4377.4377 0 0 0-.0002.8672c.2681.0384.5342.0988.7944.173.4601.1313.9146.3226 1.156.5641.2415.2414.4328.6959.5641 1.156.0743.2605.1355.5258.173.7942a.4375.4375 0 0 0 .8671.0001c.0385-.268.0989-.5341.1731-.7943.1313-.4601.3226-.9146.5641-1.156.2414-.2415.6959-.4328 1.156-.5641.2605-.0743.5258-.1355.7942-.173a.4375.4375 0 0 0 .0001-.8672c-.268-.0384-.5341-.0988-.7943-.173-.4601-.1313-.9146-.3226-1.156-.5641-.2415-.2414-.4328-.6959-.5641-1.156-.0742-.2602-.1346-.5263-.173-.7943Z"/></svg>