<svg xmlns="http://www.w3.org/2000/svg" fill="none" viewBox="0 0 32 32" class="acv-icon"><path fill="currentColor" d="M19.0199 22.2299c2.74 1.2 5.55 2.7001 5.55 5.6301 0 .83.01 1.18.01 1.18H.9199v-1.1402c-.01-2.78 3.85-4.7099 6.58-5.8999 2.73-1.19 3-1.9301 3-4.0801 0-.5891-.1725-.823-.3947-1.1241-.268-.3633-.6084-.8245-.8053-2.1259-.0471-.3852-.1901-.4691-.3548-.5657-.2542-.1492-.5602-.3288-.6452-1.6943 0-.89.4-1.1098.4-1.1098s-.2-1.3401-.29-2.3401a4.13 4.13 0 0 1 1.6-3.3899c.3727-.2753.6944-.5743 1.0094-.8671.9782-.9092 1.8922-1.7588 4.0706-1.653-1.31.71-1.02 1.41-.6 1.86a3.9999 3.9999 0 0 1 3 4c-.08 1.02-.28 2.35-.28 2.35s.4.2201.4 1.1101c-.0669 1.3754-.3634 1.5433-.6214 1.6894-.1659.094-.3159.179-.3786.5704-.1965 1.294-.5362 1.7563-.804 2.1209-.2228.3032-.396.5389-.396 1.1291 0 2.15.87 3.1501 3.61 4.3501Z"/><path fill="currentColor" d="M27.08 20.33c-1.48-.6-2.09-1.31-2.09-2.7 0-.3819.1137-.5344.2603-.7309.1758-.2357.3988-.5347.5297-1.3691.039-.246.136-.2999.2451-.3605.1703-.0946.37-.2057.4249-1.0895 0-.58-.26-.72-.26-.72s.13-.86.18-1.52a2.9999 2.9999 0 0 0-5.91 0c.06.66.19 1.52.19 1.52s-.26.14-.26.72c.0548.8767.2542.9898.4243 1.0864.1093.062.2066.1172.2457.3636.1312.8417.3549 1.1397.5309 1.3741.146.1944.2591.345.2591.7259 0 1.39-.58 1.9999-2.36 2.8099l-.24.13c2.14.93 5.51 2.5401 6.3 5.8201H29v-3a2.8603 2.8603 0 0 0-1.92-3.06Z"/></svg>