<svg xmlns="http://www.w3.org/2000/svg" fill="none" viewBox="0 0 16 16" class="acv-icon"><path fill="currentColor" fill-rule="evenodd" d="M11.9992 7.8209c0 .766-.236 1.4794-.6423 2.0774l.4735 1.3395c.1689.4778-.3217.9227-.7809.708l-1.3874-.6488c-.5063.2214-1.0693.3448-1.6625.3448C5.7906 11.6418 4 9.9311 4 7.8208 4 5.7108 5.7907 4 7.9996 4s3.9996 1.7107 3.9996 3.8209ZM6.5 6a.5.5 0 0 0 0 1h3a.5.5 0 0 0 0-1h-3Zm0 2a.5.5 0 0 0 0 1h2a.5.5 0 0 0 0-1h-2Z" clip-rule="evenodd"/><path fill="currentColor" fill-rule="evenodd" d="M3 0C1.3432 0 0 1.3432 0 3v10c0 1.6569 1.3432 3 3 3h10c1.6569 0 3-1.3431 3-3V3c0-1.6568-1.3431-3-3-3H3ZM2 3c0-.5523.4477-1 1-1h10c.5523 0 1 .4477 1 1v10c0 .5523-.4477 1-1 1H3c-.5523 0-1-.4477-1-1V3Z" clip-rule="evenodd"/></svg>