<svg xmlns="http://www.w3.org/2000/svg" fill="none" viewBox="0 0 24 24" class="acv-icon"><path fill="currentColor" d="M12 1.5c-1.0325 0-1.8822.7823-1.9887 1.7865C7.114 4.1435 5 6.825 5 10v3.1667c0 .7145-.5744 1.0461-1.1075 1.3539C3.4308 14.7872 3 15.0359 3 15.5v2c0 1 .5 1.5 1.5 1.5h15c1 0 1.5-.5 1.5-1.5v-2c0-.4641-.4308-.7128-.8925-.9794C19.5744 14.2128 19 13.8812 19 13.1667V10c0-3.1751-2.114-5.8565-5.0113-6.7135C13.8822 2.2823 13.0325 1.5 12 1.5ZM11.9999 22.5c-1.3062 0-2.4174-.8348-2.8293-2h5.6586c-.4118 1.1652-1.523 2-2.8293 2Z"/></svg>