<svg xmlns="http://www.w3.org/2000/svg" fill="none" viewBox="0 0 16 16" class="acv-icon"><path fill="currentColor" fill-rule="evenodd" d="m15.4932 7.4398.0237-.0835c.245-.8584.303-1.2484.1147-1.8288-.1913-.5903-.4875-.8947-1.2075-1.4533-.2777-.2155-.3893-.315-.4524-.4013-.0649-.0893-.1249-.2262-.2565-.5892-.2993-.8258-.4915-1.1922-.9894-1.5555-.4973-.3632-.8993-.4318-1.8017-.4635-.3666-.0128-.5189-.0284-.6282-.0639-.0737-.0239-.1821-.0824-.3521-.1944A14.6523 14.6523 0 0 1 9.751.6766C9.036.1906 8.646 0 8.0213 0c-.6242 0-1.0136.1904-1.7292.6765a14.6821 14.6821 0 0 1-.1935.1302c-.1698.1117-.2781.1702-.3516.194-.1105.036-.2627.0517-.6458.0651-.8838.0308-1.2855.0994-1.783.4621-.4984.363-.6913.7303-.9937 1.5641-.1287.3549-.1887.4917-.2552.5832-.0616.0846-.1732.184-.4825.424-.6884.534-.9846.8384-1.1758 1.4286-.1876.5807-.1295.9701.1155 1.828.0235.0824.0235.0825.045.1597.066.2389.0928.3827.0928.4845s-.0269.2456-.0927.4845C.55 8.5617.55 8.5618.5265 8.6442c-.245.8579-.3031 1.2473-.1157 1.8272.1913.5909.4882.8962 1.2108 1.4569.2752.2135.3867.313.4492.3985.065.0895.125.2262.2564.5887.2999.8266.4927 1.1934.9923 1.5565.4962.3609.897.4295 1.7989.4617.3641.0131.5167.029.6258.0647.0763.0247.1846.0832.3544.1949.0498.0327.0917.061.1935.1302.7156.4861 1.105.6765 1.7292.6765.6248 0 1.0146-.1907 1.7297-.6766.1014-.069.1432-.0972.1928-.1298.17-.112.2784-.1705.3518-.1943.1119-.0366.2647-.0525.6491-.0663.8833-.0315 1.2841-.1001 1.7805-.4618.4979-.3624.69-.7282.9923-1.561.1291-.3558.1892-.4927.2556-.5838.0623-.0852.1738-.1847.4836-.4253.6872-.5337.9838-.8389 1.175-1.4289.1882-.58.1302-.97-.1148-1.8285-.0233-.082-.0234-.0822-.0448-.159-.0659-.2391-.0928-.3829-.0928-.4847s.0269-.2456.0928-.4847l.0211-.0755ZM9.6046 6.293 7.3117 8.5859l-1.2929-1.293c-.3905-.3904-1.0237-.3904-1.4142 0-.3905.3906-.3905 1.0238 0 1.4143l2 2c.3905.3905 1.0237.3905 1.4142 0l3-3c.3906-.3905.3906-1.0237 0-1.4142-.3905-.3905-1.0237-.3905-1.4142 0Z" clip-rule="evenodd"/></svg>