<svg xmlns="http://www.w3.org/2000/svg" fill="none" viewBox="0 0 24 24" class="acv-icon"><path fill="currentColor" d="M12 11c-.5523 0-1 .4477-1 1s.4477 1 1 1h4c.5523 0 1-.4477 1-1s-.4477-1-1-1h-4Z"/><path fill="currentColor" fill-rule="evenodd" d="M19 2H5c-1.1046 0-2 .8954-2 2v16c0 1.1046.8954 2 2 2h14c1.1046 0 2-.8954 2-2V4c0-1.1046-.8954-2-2-2ZM5 20v-1.4814c.0002.0816.001.1292.001.1292l2.8422-1.3179A2 2 0 0 0 9.005 15.514V8.486A2 2 0 0 0 7.843 6.67L5 5.3546V4h14v16H5Zm.001-3.5445s-.0006.4182-.001.8892v-9.792L6.9988 8.5 7 15.5l-1.999.9555Z" clip-rule="evenodd"/></svg>