<svg xmlns="http://www.w3.org/2000/svg" fill="none" viewBox="0 0 32 32" class="acv-icon"><path fill="#408BEA" d="M29 16c0 7.1797-5.8203 13-13 13S3 23.1797 3 16 8.8203 3 16 3s13 5.8203 13 13Z"/><path stroke="#243143" stroke-opacity=".1" d="M16 3.5c6.9036 0 12.5 5.5964 12.5 12.5S22.9036 28.5 16 28.5 3.5 22.9036 3.5 16 9.0964 3.5 16 3.5Z"/><path fill="#fff" d="M16 8.5v-2c0-.412.4981-.6472.8471-.4l3.9411 3.0009c.2824.2.2824.6 0 .8L16.8471 12.9c-.349.2472-.8471.012-.8471-.4v-2c-3.0376 0-5.5 2.4624-5.5 5.5 0 .5523-.4477 1-1 1s-1-.4477-1-1c0-4.1421 3.3579-7.5 7.5-7.5ZM16 21.5v-2c0-.4119-.4981-.6471-.8471-.3999l-3.9411 3c-.2824.1999-.2824.5998 0 .7998l3.9411 3c.349.2472.8471.012.8471-.3999v-2c4.1421 0 7.5-3.3579 7.5-7.5 0-.5523-.4477-1-1-1s-1 .4477-1 1c0 3.0376-2.4624 5.5-5.5 5.5Z"/></svg>