<svg xmlns="http://www.w3.org/2000/svg" fill="none" viewBox="0 0 16 16" class="acv-icon"><path fill="currentColor" d="M4.25 7.5a.25.25 0 0 0-.25.25v.75h8v-.75a.25.25 0 0 0-.25-.25h-7.5ZM4.7188 5.5c-.1209 0-.2188.112-.2188.25v.75h7v-.75c0-.138-.0979-.25-.2188-.25H4.7187ZM5 3.75c0-.138.084-.25.1875-.25h5.625c.1036 0 .1875.112.1875.25v.75H5v-.75Z"/><path fill="currentColor" fill-rule="evenodd" d="M.1625 9.4474 2.25 2c.2503-.8512 1.1128-1.5 2-1.5h7.5c.8872 0 1.7497.6488 2 1.5l2.0875 7.4474A4 4 0 0 1 16 10.576V13.5c0 1.1046-.8954 2-2 2H2c-1.1046 0-2-.8954-2-2v-2.924a4 4 0 0 1 .1625-1.1286ZM12.25 3 14 9.5c.0577.3077 0 .5-.25.5h-1.941a.5.5 0 0 0-.4472.2764c-.0771.1541-.1726.4137-.2461.6261-.0714.2061-.264.3475-.4821.3475H5.3664c-.2181 0-.4107-.1414-.482-.3475-.0736-.2124-.1692-.472-.2462-.6261A.5.5 0 0 0 4.191 10H2.25C2 10 1.9423 9.8077 2 9.5L3.75 3c.0887-.473.5188-1 1-1h6.5c.4812 0 .9113.527 1 1Z" clip-rule="evenodd"/></svg>