<svg xmlns="http://www.w3.org/2000/svg" fill="none" viewBox="0 0 24 24" class="acv-icon"><path fill="currentColor" fill-rule="evenodd" d="M10 12c0 .3506-.0602.6872-.1707 1h4.3414A2.9967 2.9967 0 0 1 14 12c0-1.6569 1.3431-3 3-3s3 1.3431 3 3-1.3431 3-3 3H7c-1.6569 0-3-1.3431-3-3s1.3431-3 3-3 3 1.3431 3 3Zm-3-1c-.5523 0-1 .4477-1 1s.4477 1 1 1 1-.4477 1-1-.4477-1-1-1Zm11 1c0 .5523-.4477 1-1 1s-1-.4477-1-1 .4477-1 1-1 1 .4477 1 1Z" clip-rule="evenodd"/><path fill="currentColor" fill-rule="evenodd" d="M1 6c0-1.1046.8954-2 2-2h18c1.1046 0 2 .8954 2 2v12c0 1.1046-.8954 2-2 2H3c-1.1046 0-2-.8954-2-2V6Zm20 0H3v12h18V6Z" clip-rule="evenodd"/></svg>