<svg xmlns="http://www.w3.org/2000/svg" fill="none" viewBox="0 0 32 32" class="acv-icon"><path fill="currentColor" d="M21 4H10c-1.1046 0-2 .8954-2 2v2h7c1.1046 0 2 .8954 2 2v12c0 1.1046-.8954 2-2 2H8v2c0 1.1046.8954 2 2 2h11V4ZM23 28h2c1.1046 0 2-.8954 2-2v-2h-4v4ZM27 17v5h-4v-5h4ZM27 15v-5h-4v5h4ZM27 6v2h-4V4h2c1.1046 0 2 .8954 2 2Z"/><path fill="currentColor" fill-rule="evenodd" d="M3 11c0-.5523.4477-1 1-1h10c.5523 0 1 .4477 1 1v10c0 .5523-.4477 1-1 1H4c-.5523 0-1-.4477-1-1V11Zm2.9668 9v-7.874h1.5469l3.2226 5.2583V12.126h1.4771V20h-1.5952l-3.1743-5.1348V20H5.9668Z" clip-rule="evenodd"/></svg>