<svg xmlns="http://www.w3.org/2000/svg" fill="none" viewBox="0 0 24 24" class="acv-icon"><path fill="url(#SettingsNav24:a)" d="M9.772.6838A1 1 0 0 1 10.7209 0h2.5584a1 1 0 0 1 .9487.6838l.7408 2.2224c.1925.5773.8516.8503 1.3959.5782l2.3241-1.162a1 1 0 0 1 1.1543.1873l1.6473 1.6473a1 1 0 0 1 .1874 1.1543l-1.1621 2.324c-.2721.5444.0009 1.2035.5782 1.396l2.2224.7408a1 1 0 0 1 .6838.9487v2.5584a.9999.9999 0 0 1-.6838.9487l-2.2224.7408c-.5773.1925-.8503.8516-.5782 1.3959l1.1621 2.3241a1 1 0 0 1-.1874 1.1543l-1.6473 1.6473a1 1 0 0 1-1.1543.1874l-2.3241-1.1621c-.5443-.2721-1.2034.0009-1.3959.5782l-.7408 2.2224a.9999.9999 0 0 1-.9487.6838h-2.5584a1 1 0 0 1-.9487-.6838l-.7408-2.2224c-.1925-.5773-.8516-.8503-1.396-.5782l-2.324 1.1621a1 1 0 0 1-1.1543-.1874L2.5097 19.843a1 1 0 0 1-.1874-1.1543l1.162-2.3241c.2722-.5443-.0008-1.2034-.5781-1.3959l-2.2224-.7408A1 1 0 0 1 0 13.2792v-2.5584a1 1 0 0 1 .6838-.9487l2.2224-.7408c.5773-.1925.8503-.8516.5782-1.396l-1.162-2.324a1 1 0 0 1 .1873-1.1543L4.157 2.5097a1 1 0 0 1 1.1543-.1874l2.324 1.162c.5444.2722 1.2035-.0008 1.396-.5781L9.772.6838Z"/><path fill="#fff" d="M12 15c1.6569 0 3-1.3431 3-3s-1.3431-3-3-3-3 1.3431-3 3 1.3431 3 3 3Z"/><path fill="#fff" fill-rule="evenodd" d="M13.2792 0a1 1 0 0 1 .9487.6838l.7408 2.2224c.1925.5773.8516.8503 1.3959.5782l2.3241-1.162a1 1 0 0 1 1.1543.1873l1.6473 1.6473a1 1 0 0 1 .1874 1.1543l-1.1621 2.324c-.2721.5444.0009 1.2035.5782 1.396l2.2224.7408a1 1 0 0 1 .6838.9487v2.5584a.9999.9999 0 0 1-.6838.9487l-2.2224.7408c-.5773.1925-.8503.8516-.5782 1.3959l1.1621 2.3241a1 1 0 0 1-.1874 1.1543l-1.6473 1.6473a1 1 0 0 1-1.1543.1874l-2.3241-1.1621c-.5443-.2721-1.2034.0009-1.3959.5782l-.7408 2.2224a.9999.9999 0 0 1-.9487.6838h-2.5584a1 1 0 0 1-.9487-.6838l-.7408-2.2224c-.1925-.5773-.8516-.8503-1.396-.5782l-2.324 1.1621a1 1 0 0 1-1.1543-.1874L2.5097 19.843a1 1 0 0 1-.1874-1.1543l1.162-2.3241c.2722-.5443-.0008-1.2034-.5781-1.3959l-2.2224-.7408A1 1 0 0 1 0 13.2792v-2.5584a1 1 0 0 1 .6838-.9487l2.2224-.7408c.5773-.1925.8503-.8516.5782-1.396l-1.162-2.324a1 1 0 0 1 .1873-1.1543L4.157 2.5097a1 1 0 0 1 1.1543-.1874l2.324 1.162c.5444.2722 1.2035-.0008 1.396-.5781L9.772.6838A1 1 0 0 1 10.7208 0h2.5584Zm5.262 4.6321a.6163.6163 0 0 1 .8267.8267l-.9526 1.9052a1 1 0 0 0-.0295.83l.8071 1.9484a1 1 0 0 0 .6076.566l1.6697.5565a.7749.7749 0 0 1 0 1.4702l-1.6697.5565a1 1 0 0 0-.6076.566l-.8071 1.9485a1 1 0 0 0 .0295.8299l.9526 1.9052a.6163.6163 0 0 1-.8267.8267l-1.9052-.9526a1 1 0 0 0-.8299-.0295l-1.9485.8071a1 1 0 0 0-.566.6076l-.5565 1.6697a.7749.7749 0 0 1-1.4702 0l-.5565-1.6697a1 1 0 0 0-.566-.6076l-1.9485-.8071a1 1 0 0 0-.8299.0295l-1.9052.9526a.6162.6162 0 0 1-.8267-.8267l.9526-1.9052a1 1 0 0 0 .0295-.8299l-.807-1.9485a1.0002 1.0002 0 0 0-.6077-.566l-1.6697-.5565a.775.775 0 0 1 0-1.4702l1.6697-.5565a1.0002 1.0002 0 0 0 .6076-.566l.807-1.9485a1 1 0 0 0-.0294-.8299l-.9526-1.9052a.6161.6161 0 0 1 .8267-.8267l1.9052.9526a1 1 0 0 0 .83.0295l1.9484-.807a1.0002 1.0002 0 0 0 .566-.6077l.5565-1.6697a.775.775 0 0 1 1.4702 0l.5565 1.6697c.0917.275.2982.4967.566.6076l1.9485.807a1 1 0 0 0 .8299-.0294l1.9052-.9526Z" clip-rule="evenodd"/><defs><linearGradient id="SettingsNav24:a" x1="12" x2="12" y1="0" y2="24" gradientUnits="userSpaceOnUse"><stop stop-color="#fff" stop-opacity=".4"/><stop offset="1" stop-color="#fff" stop-opacity="0"/></linearGradient></defs></svg>