<svg xmlns="http://www.w3.org/2000/svg" fill="none" viewBox="0 0 32 32" class="acv-icon"><path fill="#408BEA" d="M28.762 18.49c.156-.806.238-1.639.238-2.49 0-7.18-5.82-13-13-13S3 8.82 3 16s5.82 13 13 13c.851 0 1.684-.082 2.49-.238A8 8 0 0 1 28.762 18.49Z"/><path fill="#243143" fill-opacity=".1" d="M18.203 27.798c-.714.133-1.45.202-2.203.202-6.627 0-12-5.373-12-12S9.373 4 16 4s12 5.373 12 12c0 .753-.07 1.489-.202 2.203.33.076.651.172.964.287.156-.806.238-1.639.238-2.49 0-7.18-5.82-13-13-13S3 8.82 3 16s5.82 13 13 13c.851 0 1.684-.082 2.49-.238a7.934 7.934 0 0 1-.287-.964Z"/><path fill="#fff" d="M17 9.5a1 1 0 1 0-2 0v6.293c0 .398.158.78.44 1.06l4.24 4.241a8.05 8.05 0 0 1 1.414-1.414L17 15.586V9.5Z"/></svg>