<svg xmlns="http://www.w3.org/2000/svg" fill="none" viewBox="0 0 16 16" class="acv-icon"><path fill="currentColor" fill-rule="evenodd" d="M6.2792 1a1 1 0 0 1 .9487.6838L7.886 3.658A.5.5 0 0 0 8.3604 4H14c.5523 0 1 .4477 1 1v9c0 .5523-.4477 1-1 1H2c-.5523 0-1-.4477-1-1V2c0-.5523.4477-1 1-1h4.2792Zm1.4143 5.136L4.185 8.9427c-.3622.2898-.1573.8739.3066.8739h.564v2.699c0 .1355.1098.2454.2453.2454H6.577a.2454.2454 0 0 0 .2454-.2454v-1.9629a.2454.2454 0 0 1 .2453-.2454h1.8648a.2454.2454 0 0 1 .2453.2454v1.9629c0 .1355.1099.2454.2454.2454h1.2759a.2454.2454 0 0 0 .2454-.2454v-2.699h.5639c.4639 0 .6688-.5841.3066-.874L8.3065 6.136a.4907.4907 0 0 0-.613 0Z" clip-rule="evenodd"/></svg>