<svg xmlns="http://www.w3.org/2000/svg" fill="none" viewBox="0 0 32 32" class="acv-icon"><path fill="currentColor" d="M8 9c.5523 0 1-.4477 1-1s-.4477-1-1-1-1 .4477-1 1 .4477 1 1 1ZM11 9c.5523 0 1-.4477 1-1s-.4477-1-1-1-1 .4477-1 1 .4477 1 1 1ZM14 9c.5523 0 1-.4477 1-1s-.4477-1-1-1-1 .4477-1 1 .4477 1 1 1Z"/><path fill="currentColor" fill-rule="evenodd" d="M3 4.987C3.007 3.8886 3.8997 3 5 3h22c1.1046 0 2 .8954 2 2v9.5815a7.9463 7.9463 0 0 0-2-.5196V13H5v14h10.0319a3.0076 3.0076 0 0 0-.0319.4367V29H5c-1.1046 0-2-.8954-2-2V4.987ZM5 11h22V5H5v6Z" clip-rule="evenodd"/><path fill="currentColor" d="M26.5 23c.8284 0 1.5-.6716 1.5-1.5s-.6716-1.5-1.5-1.5-1.5.6716-1.5 1.5.6716 1.5 1.5 1.5Z"/><path fill="currentColor" fill-rule="evenodd" d="M23.9986 29.9986c.5528.0008 1.0014-.4472 1.0014-1V28h1c3.3137 0 6-2.6863 6-6s-2.6863-6-6-6-6 2.6863-6 6c0 .4899.0587 1.029.1695 1.5485l-2.911 3.2172a1 1 0 0 0-.2585.671v3.5628c0 .5525.448 1.0003 1.0005 1l4.0293-.0018c.5521-.0003.9995-.4479.9995-1v-1.0005l.9693.0014ZM24.0293 26c-.5523 0-1 .4477-1 1v.9972h-1c-.5523 0-1 .4477-1 1V30H19v-2.1781l2.9956-3.3107a1 1 0 0 0 .2365-.8795l-.1066-.5002C22.0437 22.7477 22 22.348 22 22c0-2.2091 1.7909-4 4-4 2.2091 0 4 1.7909 4 4 0 2.2091-1.7909 4-4 4h-1.9707Z" clip-rule="evenodd"/></svg>