<svg xmlns="http://www.w3.org/2000/svg" fill="none" viewBox="0 0 24 24" class="acv-icon"><path fill="currentColor" d="M11.8666 9.075c.5613.089 1.2213-.1325 1.7265-.636.5052-.5034.7268-1.1604.6374-1.7198-.5613-.089-1.2212.1324-1.7265.6359-.5052.5034-.7268 1.1605-.6374 1.7199ZM14.0046 9.2c-.4493 0-.756.156-1.0345.2978-.2319.118-.4443.226-.7033.226-.2793 0-.5473-.1112-.828-.2278-.3088-.1283-.633-.2629-1.0049-.2629C9.4681 9.2336 8 10.1602 8 12.3432c0 1.9859 1.7375 4.19 2.7183 4.19.2777.0029.4573-.0812.6518-.1722.2228-.1043.4651-.2177.8967-.22.4351-.0033.6868.1119.9192.2182.1998.0915.3855.1764.6613.174.6718-.0052 1.1964-.7698 1.5796-1.3755.2627-.4144.3775-.635.5731-1.0816-.7649-.2822-1.3102-1.0157-1.3102-1.8761 0-.8525.5352-1.5804 1.289-1.8683-.3963-.6002-1.3792-1.1318-1.9742-1.1318Z"/><path fill="currentColor" fill-rule="evenodd" d="M2 6c0-2.2091 1.7909-4 4-4h12c2.2091 0 4 1.7909 4 4v12c0 2.2091-1.7909 4-4 4H6c-2.2091 0-4-1.7909-4-4V6Zm4-2h12c1.1046 0 2 .8954 2 2v12c0 1.1046-.8954 2-2 2H6c-1.1046 0-2-.8954-2-2V6c0-1.1046.8954-2 2-2Z" clip-rule="evenodd"/></svg>