<svg xmlns="http://www.w3.org/2000/svg" fill="none" viewBox="0 0 16 16" class="acv-icon"><path fill="currentColor" d="M15.9863 8.5c.0151.2758-.2102.5-.4863.5h-1c-.2761 0-.4981-.2246-.5176-.5-.2447-3.4675-3.0149-6.2377-6.4823-6.4824C7.2246 1.9982 7 1.7762 7 1.5v-1c0-.2761.2242-.5014.5-.4863C12.0725.264 15.736 3.9275 15.9863 8.5Z"/><path fill="currentColor" d="M12.4776 8.5004C12.5024 8.7754 12.2761 9 12 9h-1c-.2761 0-.4962-.2251-.5352-.4985-.2188-1.534-1.4322-2.7475-2.9663-2.9663C7.2251 5.4962 7 5.2762 7 5V4c0-.2761.2246-.5024.4996-.4776 2.6389.2376 4.7404 2.3391 4.978 4.978ZM2 4c.5523 0 1 .4477 1 1v5.75c0 .9665.7835 1.75 1.75 1.75s1.75-.7835 1.75-1.75v-.25C6.5 9.6716 5.8284 9 5 9c-.5523 0-1-.4477-1-1s.4477-1 1-1c1.933 0 3.5 1.567 3.5 3.5v.25c0 2.0711-1.679 3.75-3.75 3.75C2.679 14.5 1 12.8211 1 10.75V5c0-.5523.4477-1 1-1Z"/></svg>