<svg xmlns="http://www.w3.org/2000/svg" fill="none" viewBox="0 0 32 32" class="acv-icon"><circle cx="16" cy="16" r="13" fill="#EA3939"/><circle cx="16" cy="16" r="12.5" stroke="#243143" stroke-opacity=".1"/><path fill="#fff" fill-rule="evenodd" d="M17.5 18c2.4853 0 4.5-2.0147 4.5-4.5S19.9853 9 17.5 9 13 11.0147 13 13.5c0 .7883.2027 1.5292.5588 2.1735l-3.9427 3.9426c-.4881.4882-.4881 1.2796 0 1.7678.4882.4881 1.2796.4881 1.7678 0l.5-.5 1.0125 1.0125a.5.5 0 0 0 .7072 0l1.2928-1.2928a.5.5 0 0 0 0-.7072l-1.0125-1.0125 1.4426-1.4427A4.4794 4.4794 0 0 0 17.5 18Zm0-2.5c1.1046 0 2-.8954 2-2s-.8954-2-2-2-2 .8954-2 2 .8954 2 2 2Z" clip-rule="evenodd"/></svg>