<svg xmlns="http://www.w3.org/2000/svg" fill="none" viewBox="0 0 24 24" class="acv-icon"><path fill="currentColor" d="M11.9998 10c.5523 0 1 .4477 1 1v2c0 .5523-.4477 1-1 1-.5522 0-1-.4477-1-1v-2c0-.5523.4478-1 1-1ZM7.9998 15c.5523 0 1 .4477 1 1v1c0 .5523-.4477 1-1 1-.5522 0-1-.4477-1-1v-1c0-.5523.4478-1 1-1ZM15.9998 15c.5523 0 1 .4477 1 1v1c0 .5523-.4477 1-1 1-.5522 0-1-.4477-1-1v-1c0-.5523.4478-1 1-1ZM15.9998 11c.5523 0 1 .4477 1 1v1c0 .5523-.4477 1-1 1-.5522 0-1-.4477-1-1v-1c0-.5523.4478-1 1-1ZM7.9998 11c.5523 0 1 .4477 1 1v1c0 .5523-.4477 1-1 1-.5522 0-1-.4477-1-1v-1c0-.5523.4478-1 1-1Z"/><path fill="currentColor" fill-rule="evenodd" d="M20.9998 19v-6.4793l.4266.2985c.4524.3167 1.076.2067 1.3927-.2457.3167-.4525.2067-1.076-.2458-1.3927l-3.5734-2.5014V6c0-.5523-.4477-1-1-1s-1 .4477-1 1v1.2794l-4.4266-3.0986a1 1 0 0 0-1.1469 0l-10 7c-.4525.3167-.5625.9402-.2458 1.3927.3167.4524.9402.5624 1.3927.2457l.4265-.2985V19h-1c-.5522 0-1 .4477-1 1s.4478 1 1 1h20c.5523 0 1-.4477 1-1s-.4477-1-1-1h-1Zm-9-12.7793 7 4.9V19h-5.9999v-3c0-.5523-.4477-1-1-1s-1 .4477-1 1v3h-6v-7.8793l6.9999-4.9Z" clip-rule="evenodd"/></svg>