<svg xmlns="http://www.w3.org/2000/svg" fill="none" viewBox="0 0 24 24" class="acv-icon"><path fill="currentColor" fill-rule="evenodd" d="M6.5 6h11C18.8807 6 20 7.1193 20 8.5V15c0 4.4183-3.5817 8-8 8s-8-3.5817-8-8V8.5C4 7.1193 5.1193 6 6.5 6Zm0 2a.5.5 0 0 0-.5.5V15c0 3.3137 2.6863 6 6 6s6-2.6863 6-6V8.5a.5.5 0 0 0-.5-.5h-11Z" clip-rule="evenodd"/><path fill="currentColor" fill-rule="evenodd" d="M12 19c-2.2091 0-4-1.7909-4-4 0-2.2091 1.7909-4 4-4 2.2091 0 4 1.7909 4 4 0 2.2091-1.7909 4-4 4Zm0-6c-1.1046 0-2 .8954-2 2s.8954 2 2 2 2-.8954 2-2-.8954-2-2-2Z" clip-rule="evenodd"/><path fill="currentColor" d="M11 15c0-.5523.4477-1 1-1s1 .4477 1 1-.4477 1-1 1-1-.4477-1-1ZM3 1c-.5523 0-1 .4477-1 1s.4477 1 1 1h6c0 1.1046.8954 2 2 2h2c1.1046 0 2-.8954 2-2h6c.5523 0 1-.4477 1-1s-.4477-1-1-1H3Z"/></svg>