<svg xmlns="http://www.w3.org/2000/svg" fill="none" viewBox="0 0 16 16" class="acv-icon"><path fill="currentColor" fill-rule="evenodd" d="M7.8584.0102c.6024-.086 1.1414.3814 1.1414.99v13.9996c0 .6086-.539 1.076-1.1414.99l-6.9998-1A1 1 0 0 1 0 13.9999V2.0001a1 1 0 0 1 .8586-.9899l6.9998-1ZM4.5054 5c1.4047 0 2.2301.662 2.3677 1.7326l-1.412.0908c-.076-.3745-.3946-.681-.9304-.681-.478 0-.8545.227-.8509.575-.0036.28.1883.4654.706.5827l1.0065.2118c1.079.2308 1.604.7339 1.6075 1.5737-.0036 1.1463-1.0354 1.9142-2.4764 1.9142-1.4735 0-2.3786-.6847-2.5234-1.7969l1.517-.0832c.094.4729.4597.7188 1.01.7188.5395 0 .898-.246.9052-.5902-.0073-.2913-.2281-.4767-.7133-.5788l-.963-.2005c-1.0862-.227-1.6111-.7906-1.6075-1.6607-.0036-1.1198.934-1.8083 2.357-1.8083Z" clip-rule="evenodd"/><path fill="currentColor" d="M9.9998 13.7321a2.006 2.006 0 0 0 .8858-1.0649c1.5322-.289 2.8044-1.3137 3.4356-2.6931.9517-.1539 1.6784-.9792 1.6784-1.9743 0-.995-.7267-1.8204-1.6784-1.9742-.6312-1.3794-1.9034-2.4042-3.4356-2.6932a2.0064 2.0064 0 0 0-.8858-1.0649v3.4648a2.0083 2.0083 0 0 0 .81-.8807c.8585.2203 1.5799.7824 2.0106 1.5328-.4975.3638-.8207.9518-.8207 1.6154s.3232 1.2516.8207 1.6155c-.4307.7503-1.1521 1.3124-2.0106 1.5327a2.0081 2.0081 0 0 0-.81-.8807v3.4648Z"/></svg>