<svg xmlns="http://www.w3.org/2000/svg" fill="none" viewBox="0 0 32 32" class="acv-icon"><path fill="currentColor" d="M11.2598 5C9.3615 5 7.7247 6.3342 7.3419 8.1935L5.107 19.0507C6.072 18.3879 7.2405 18 8.4997 18h15c.3966 0 .7842.0385 1.1593.1119a8.1015 8.1015 0 0 1 2.0231-.0832l-2.0253-9.8354C24.274 6.334 22.6372 5 20.739 5h-9.4792Z"/><path fill="currentColor" fill-rule="evenodd" d="M20.7084 20C19.0475 21.4659 18 23.6106 18 26c0 .6906.0875 1.3608.252 2H8c-2.2091 0-4-1.7909-4-4 0-2.2091 1.7909-4 4-4h12.7084ZM8 23c-.5523 0-1 .4477-1 1s.4477 1 1 1h3c.5523 0 1-.4477 1-1s-.4477-1-1-1H8Z" clip-rule="evenodd"/></svg>