<svg xmlns="http://www.w3.org/2000/svg" fill="none" viewBox="0 0 32 32" class="acv-icon"><path fill="currentColor" fill-rule="evenodd" d="M1.873 13c.043 0 .085-.003.127-.008V13h6a1 1 0 0 1 0 2H2v9a1 1 0 0 0 1 1h1a5 5 0 1 1 10 0h6a5 5 0 1 1 10 0h1a1 1 0 0 0 1-1V17.18a1 1 0 0 0-.064-.351l-2.69-7.175a1 1 0 0 0-.945-.65L20 9.078V6a1 1 0 0 0-1-1H3a1 1 0 0 0-1 1v3h13a1 1 0 0 1 0 2H2v.008A1.004 1.004 0 0 0 1.873 11H1a1 1 0 1 0 0 2h.873ZM21 15.99V11h6.306l1.914 5-8.22-.01ZM9 28a3 3 0 1 1 0-6 3 3 0 0 1 0 6Zm13-3a3 3 0 1 0 6 0 3 3 0 0 0-6 0Z" clip-rule="evenodd"/></svg>