<svg xmlns="http://www.w3.org/2000/svg" fill="none" viewBox="0 0 32 32" class="acv-icon"><path fill="currentColor" fill-rule="evenodd" d="M5 2c-1.1046 0-2 .8954-2 2v14c0 1.1046.8954 2 2 2h22c1.1046 0 2-.8954 2-2V4c0-1.1046-.8954-2-2-2H5Zm1 9c0 2.2091 1.7909 4 4 4h12c2.2091 0 4-1.7909 4-4 0-2.2091-1.7909-4-4-4-2.2091 0-4 1.7909-4 4 0 .7286.1948 1.4117.5351 2h-5.0702A3.9818 3.9818 0 0 0 14 11c0-2.2091-1.7909-4-4-4-2.2091 0-4 1.7909-4 4Z" clip-rule="evenodd"/><path fill="currentColor" d="M7.7 26.0601a10.9084 10.9084 0 0 0-.33 1.6899c-.12-.73-.24-1.2799-.34-1.6499l-1.12-4H4.82l-1.09 4c0 .1217-.0407.2655-.0884.4339-.0307.1083-.0642.2267-.0916.3559-.07.33-.12.6201-.15.8801-.07-.48-.17-.9999-.32-1.6799l-1-4H1l.88 3.3899.87 3.4099h1.19l1.11-4c0-.0938.0343-.2115.0769-.3574.03-.103.0641-.2201.0931-.3526.07-.32.12-.57.15-.77 0 .0956.0324.2454.0774.4531.0162.0748.034.1571.0526.2471.0441.2142.0882.3888.1248.5336.0215.085.0404.1598.0552.2264l1.14 4.0598H8l1.75-6.8h-1.1l-.95 3.9302Z"/><path fill="currentColor" fill-rule="evenodd" d="M12.2669 22.196a2.9993 2.9993 0 0 1 1.2631-.1961 2.9307 2.9307 0 0 1 2.31.9299 4.4708 4.4708 0 0 1 0 5.1602 3.41 3.41 0 0 1-4.65 0 3.7998 3.7998 0 0 1-.81-2.6001 3.7098 3.7098 0 0 1 .82-2.5901 2.9989 2.9989 0 0 1 1.0669-.7038Zm2.056 5.7138a1.9998 1.9998 0 0 0 .6771-.5 3.11 3.11 0 0 0 .45-1.8999 3.0802 3.0802 0 0 0-.49-1.8999 1.7384 1.7384 0 0 0-1.47-.6501 1.76 1.76 0 0 0-1.48.6501 2.9993 2.9993 0 0 0-.51 1.8999 3.099 3.099 0 0 0 .5 1.8999 1.9998 1.9998 0 0 0 2.3229.5ZM22.5401 24.0901a1.7705 1.7705 0 0 0-.63-1.49 3.0008 3.0008 0 0 0-1.92-.49h-1.89V28.91h1.1v-2.72h1.08l1.6 2.72h1.25l-1.9-3a1.8702 1.8702 0 0 0 .9581-.6917 1.8707 1.8707 0 0 0 .3519-1.1282Zm-2.54 1.18h-.8v-2.22h.72a1.9993 1.9993 0 0 1 1.12.25.919.919 0 0 1 .37.8298 1.0802 1.0802 0 0 1-.34.8501 1.7403 1.7403 0 0 1-1.07.2901Z" clip-rule="evenodd"/><path fill="currentColor" d="m27.5301 27.52 1.92-5.4099 1.55.0198v6.8h-.98V23.24l-2 5.6699h-1l-2-5.6799c.08.84.08 1.6301.08 2.37v3.3099h-1v-6.7998h1.57l1.86 5.4099Z"/></svg>