<svg xmlns="http://www.w3.org/2000/svg" fill="none" viewBox="0 0 32 32" class="acv-icon"><path fill="currentColor" d="M9 2h2v6H9V2ZM21 2h2v6h-2V2ZM10 14H7v2h3v-2ZM10 18H7v2h3v-2ZM10 22H7v2h3v-2ZM12 22h3v2h-3v-2ZM17 22h3v2h-3v-2ZM22 22h3v2h-3v-2ZM15 18h-3v2h3v-2ZM20 18h-3v2h3v-2ZM25 18h-3v2h3v-2ZM12 14h3v2h-3v-2ZM17 14h3v2h-3v-2ZM22 14h3v2h-3v-2Z"/><path fill="currentColor" fill-rule="evenodd" d="M24 5h2a3 3 0 0 1 3 3v17a3 3 0 0 1-3 3H6a3 3 0 0 1-3-3V8a3 3 0 0 1 3-3h2v4h4V5h8v4h4V5Zm2.7071 20.7071A1.0001 1.0001 0 0 0 27 25V12H5v13a1 1 0 0 0 1 1h20c.2652 0 .5196-.1054.7071-.2929Z" clip-rule="evenodd"/></svg>