<svg xmlns="http://www.w3.org/2000/svg" fill="none" viewBox="0 0 24 24" class="acv-icon"><path fill="currentColor" fill-rule="evenodd" d="M11.9999 7c-1.6569 0-3-1.3432-3-3 0-1.6569 1.3431-3 3-3 1.6568 0 2.9999 1.3431 2.9999 3 0 1.6568-1.3431 3-2.9999 3Zm-.0001-1.7c.718 0 1.3-.582 1.3-1.3 0-.718-.582-1.3-1.3-1.3-.7179 0-1.3.582-1.3 1.3 0 .718.5821 1.3 1.3 1.3ZM2 6C2 7.6567 3.343 9 5 9c1.6568 0 3-1.3432 3-3C8 4.343 6.6567 3 5 3 3.343 3 2 4.343 2 6Zm4.2999 0c0 .718-.582 1.3-1.3 1.3-.718 0-1.3-.582-1.3-1.3 0-.718.582-1.3 1.3-1.3.718 0 1.3.582 1.3 1.3ZM15.9998 6c0 1.6568 1.3432 3 3 3s3-1.3432 3-3c0-1.6569-1.3432-3-3-3s-3 1.3431-3 3Zm4.2999 0c0 .718-.582 1.3-1.2999 1.3-.718 0-1.3-.582-1.3-1.3 0-.718.582-1.3 1.3-1.3.7179 0 1.2999.582 1.2999 1.3ZM11.9988 22.9998c1.6346.0015 2.6173-.2021 2.6173-1.3112l.4794-4.8706a4.577 4.577 0 0 0 .136-.0803c.566-.3484.9487-.7512.9833-1.3347l.7494-4.4775c.2654-1.5856-.9843-2.9256-2.7181-2.9256H9.7536C8.016 8 6.7708 9.344 7.0354 10.9255l.7495 4.4776c.0346.5812.4158.9814.9815 1.3312.0461.0285.092.0557.1371.0814l.4842 4.9571c-.0041 1.0218.9759 1.2254 2.6111 1.227Zm1.7494-7.64c-.3496.1301-.5901.425-.6241.7652l-.4837 4.8425c-.185.0207-.4077.0325-.6395.0323-.2338-.0002-.4588-.0126-.6454-.0341l-.4798-4.8407c-.0338-.3385-.2721-.6322-.6192-.7633-.0782-.0296-.2248-.096-.3609-.1783a1.3586 1.3586 0 0 1-.1068-.0711l-.7472-4.3652c-.0747-.4361.22-.7472.712-.7472h4.4925c.4915 0 .787.3098.7121.7472l-.7477 4.3682a1.3114 1.3114 0 0 1-.1046.0692c-.1349.0812-.2805.1466-.3577.1753Z" clip-rule="evenodd"/><path fill="currentColor" d="M21.1895 16.6552a1.2859 1.2859 0 0 0 .1054-.0773l.6891-3.792c.0855-.4708-.1781-.786-.6591-.786h-1.2156c-.5523 0-1-.4477-1-1s.4477-1 1-1h1.2156c1.7278 0 2.9356 1.4443 2.6268 3.1436l-.6849 3.7692c-.0398.6144-.4161 1.0398-.9704 1.4082a4.1514 4.1514 0 0 1-.1307.0834l-.3546 3.1955c0 1.134-.9415 1.4003-2.254 1.3993-1.3129-.001-2.2526-.2666-2.2506-1.335l-.3047-3.8295c-.0347-.5512.3839-1.0262.9351-1.061.5512-.0348 1.0262.3839 1.061.9351l.268 3.2773c.0906.0083.1901.013.2926.0131a3.215 3.215 0 0 0 .3006-.0135l.3601-3.2975a1 1 0 0 1 .6163-.8414c.0764-.0314.2205-.1028.354-.1915ZM3.1645 16.8467c-.0764-.0314-.2205-.1028-.354-.1915a1.2859 1.2859 0 0 1-.1054-.0773l-.689-3.792c-.0856-.4708.178-.786.659-.786h1.2156c.5523 0 1-.4477 1-1s-.4477-1-1-1H2.675c-1.7277 0-2.9355 1.4443-2.6267 3.1436l.685 3.7692c.0397.6144.416 1.0398.9702 1.4082.044.0292.0877.057.1307.0834l.3547 3.1955c0 1.134.9415 1.4003 2.254 1.3993 1.313-.001 2.2526-.2666 2.2506-1.335l.3046-3.8295c.0348-.5512-.3838-1.0262-.935-1.061-.5512-.0348-1.0262.3839-1.061.9351l-.268 3.2773a3.276 3.276 0 0 1-.2927.0131 3.2149 3.2149 0 0 1-.3005-.0135l-.36-3.2975a1 1 0 0 0-.6164-.8414Z"/></svg>