<svg xmlns="http://www.w3.org/2000/svg" fill="none" viewBox="0 0 32 32" class="acv-icon"><path fill="currentColor" fill-rule="evenodd" d="M14.592 3.5836c.2647-.5594.8119-.9144 1.408-.917.5987.0027 1.1445.3577 1.4104.917l2.9023 6.149c.2308.4846.67.8201 1.183.8985l6.493.9856c.5913.0917 1.0822.5238 1.2683 1.1175.184.5937.0296 1.2473-.3971 1.682l-4.6994 4.7863c-.3689.3783-.5399.9218-.4507 1.4543l1.1092 6.7583c.0995.6147-.1419 1.2389-.6232 1.6049-.4885.366-1.1269.4162-1.6563.125l-5.8062-3.1904c-.4603-.253-1.0039-.2507-1.4642 0L9.4617 29.145c-.5294.2912-1.1703.241-1.6553-.125-.4814-.3683-.7237-.9902-.623-1.6049l1.108-6.7596c.0902-.5312-.0819-1.0747-.451-1.453L3.141 14.4162c-.4287-.4347-.582-1.087-.397-1.682.1852-.5937.6769-1.0258 1.2685-1.1175l6.4927-.9856c.513-.0784.9522-.4139 1.1818-.8985l2.905-6.149Z" clip-rule="evenodd"/></svg>