<svg xmlns="http://www.w3.org/2000/svg" fill="none" viewBox="0 0 16 16" class="acv-icon"><path fill="currentColor" d="M9 12.0319c0-.5522.4477-1 1-1s1 .4478 1 1V14c0 .5523-.4477 1-1 1H1c-.5523 0-1-.4477-1-1V2c0-.5523.4477-1 1-1h9c.5523 0 1 .4477 1 1v2.0278c0 .5523-.4477 1-1 1s-1-.4477-1-1V3H2v10h7v-.9681Z"/><path fill="currentColor" d="M11.7929 4.7929c.3905-.3905 1.0237-.3905 1.4142 0l2.5 2.5c.3905.3905.3905 1.0237 0 1.4142l-2.5 2.5c-.3905.3905-1.0237.3905-1.4142 0-.3905-.3905-.3905-1.0237 0-1.4142L12.5858 9H5c-.5523 0-1-.4477-1-1s.4477-1 1-1h7.5858l-.7929-.7929c-.3905-.3905-.3905-1.0237 0-1.4142Z"/></svg>