<svg xmlns="http://www.w3.org/2000/svg" fill="none" viewBox="0 0 16 16" class="acv-icon"><path fill="#0D6DC0" d="M12.899 8.597s-.013-.04-.026-.107c-.168-.78-.322-2.53.762-3.27 1.084-.74 2.143.122 2.31.593.233.659-.296.968-1.226 1.224-1.471.39-1.794 1.372-1.82 1.56Z"/><path fill="#0D6DC0" d="M13.613 9.809C11.43 8.719 11.677 6.903 11.406 6c-1.55-5.583-4.635-6-4.996-6-.852-.027-2.362.377-2.479 2.153-.155 2.529 3.292 2.367 4.57 3.39.878.7 1.472 2.26-.13 1.924-1.935-.754-4.207-.525-5.15-.121-1.587.686-2.155 1.574-2.31 1.762-.155.188-2.13 3.013.27 5.34 1.885 1.83 4.454.539 5.461-.914.607-.874 1.033-1.736 1.51-2.502 1.885-2.368 4.131-.82 4.725.282.904 1.682 1.55 2.53 2.362 1.964.826-.565.723-2.3-1.626-3.47Z"/></svg>