<svg xmlns="http://www.w3.org/2000/svg" fill="none" viewBox="0 0 16 16" class="acv-icon"><path fill="currentColor" d="M8 1c-.5523 0-1 .4477-1 1v4h-.7929a.5.5 0 0 0-.3535.8536l1.7928 1.7928a.5.5 0 0 0 .7072 0l1.7928-1.7928A.5.5 0 0 0 9.7929 6H9V2c0-.5523-.4477-1-1-1Z"/><path fill="currentColor" fill-rule="evenodd" d="M3.3218 9h1.6368a1.1 1.1 0 0 1 .7778.3222L6.4142 10h3.1876l.6778-.6778A1.1 1.1 0 0 1 11.0574 9h1.6208l-1.413-4h-.2022c-.5523 0-1-.4477-1-1s.4477-1 1-1h.9588a1 1 0 0 1 .9623.728l1.9782 6c.025.0885.0377.18.0377.272v4c0 .5523-.4477 1-1 1H2c-.5523 0-1-.4477-1-1v-4c0-.092.0127-.1835.0377-.272l1.9781-6A1 1 0 0 1 3.9783 3h1.0071c.5523 0 1 .4477 1 1s-.4477 1-1 1h-.2506l-1.413 4ZM3 11v2h10v-2h-1.5698l-.6778.6778A1.1 1.1 0 0 1 9.9746 12H6.0414a1.1 1.1 0 0 1-.7778-.3222L4.5858 11H3Z" clip-rule="evenodd"/></svg>