<svg xmlns="http://www.w3.org/2000/svg" fill="none" viewBox="0 0 16 16" class="acv-icon"><path fill="currentColor" fill-rule="evenodd" d="M7.8584.0102c.6024-.086 1.1414.3814 1.1414.99v13.9996c0 .6086-.539 1.076-1.1414.99l-6.9998-1A1 1 0 0 1 0 13.9999V2.0001a1 1 0 0 1 .8586-.9899l6.9998-1ZM3.7303 6.3124H1.9998V4.9999h5v1.3125H5.2694v4.6873H3.7302V6.3123Z" clip-rule="evenodd"/><path fill="currentColor" d="M9.9998 13.9806c1.0481-.0816 2.4999-.469 2.4999-1.9809V7.9998c0-.5523-.4477-1-1-1h-1.5v6.9808ZM9.9998 5.9368c.8626-.222 1.4999-1.005 1.4999-1.9369 0-.9319-.6373-1.715-1.5-1.937v3.874ZM13.4997 5.9999c.8284 0 1.4999-.6716 1.4999-1.5s-.6715-1.5-1.4999-1.5-1.5.6716-1.5 1.5.6716 1.5 1.5 1.5ZM13.2252 12.9848c.0901.0098.1817.0149.2745.0149 1.3807 0 2.4999-1.1193 2.4999-2.5V7.4998a.5.5 0 0 0-.5-.5h-2.9999c.5523 0 1 .4477 1 1v3.9999c0 .4032-.1032.7263-.2745.9851Z"/></svg>