<svg xmlns="http://www.w3.org/2000/svg" fill="none" viewBox="0 0 24 24" class="acv-icon"><path fill="currentColor" fill-rule="evenodd" d="M4.7273 2C3.221 2 2 3.221 2 4.7273v3.6363C2 9.87 3.221 11.091 4.7273 11.091h3.6363c1.5063 0 2.7273-1.221 2.7273-2.7273V4.7273C11.0909 3.221 9.8699 2 8.3636 2H4.7273Zm-.9091 2.7273c0-.5021.407-.9091.909-.9091h3.6364c.5021 0 .9091.407.9091.909v3.6364c0 .5021-.407.9091-.909.9091H4.7272a.9091.9091 0 0 1-.9091-.909V4.7272ZM2 15.6364c0-1.5063 1.221-2.7273 2.7273-2.7273h3.6363c1.5063 0 2.7273 1.221 2.7273 2.7273v3.6363C11.0909 20.779 9.8699 22 8.3636 22H4.7273C3.221 22 2 20.779 2 19.2727v-3.6363Zm2.7273-.9091a.909.909 0 0 0-.9091.9091v3.6363a.909.909 0 0 0 .909.9091h3.6364a.909.909 0 0 0 .9091-.9091v-3.6363a.909.909 0 0 0-.909-.9091H4.7272ZM15.6364 12.9091c-1.5063 0-2.7273 1.221-2.7273 2.7273v3.6363c0 1.5063 1.221 2.7273 2.7273 2.7273h3.6363C20.779 22 22 20.779 22 19.2727v-3.6363c0-1.5063-1.221-2.7273-2.7273-2.7273h-3.6363Zm-.9091 2.7273a.909.909 0 0 1 .9091-.9091h3.6363a.909.909 0 0 1 .9091.9091v3.6363a.909.909 0 0 1-.9091.9091h-3.6363a.909.909 0 0 1-.9091-.9091v-3.6363ZM15.6364 2c-1.5063 0-2.7273 1.221-2.7273 2.7273v3.6363c0 1.5063 1.221 2.7273 2.7273 2.7273h3.6363C20.779 11.0909 22 9.8699 22 8.3636V4.7273C22 3.221 20.779 2 19.2727 2h-3.6363Zm-.9091 2.7273c0-.5021.407-.9091.9091-.9091h3.6363a.909.909 0 0 1 .9091.909v3.6364a.909.909 0 0 1-.9091.9091h-3.6363a.909.909 0 0 1-.9091-.909V4.7272Z" clip-rule="evenodd"/></svg>