<svg xmlns="http://www.w3.org/2000/svg" fill="none" viewBox="0 0 24 24" class="acv-icon"><path fill="currentColor" d="M9 12c0 .5523-.4477 1-1 1s-1-.4477-1-1 .4477-1 1-1 1 .4477 1 1ZM12 12c0 .5523-.4477 1-1 1s-1-.4477-1-1 .4477-1 1-1 1 .4477 1 1ZM9 6c0 .5523-.4477 1-1 1s-1-.4477-1-1 .4477-1 1-1 1 .4477 1 1ZM12 6c0 .5523-.4477 1-1 1s-1-.4477-1-1 .4477-1 1-1 1 .4477 1 1ZM9 18c0 .5523-.4477 1-1 1s-1-.4477-1-1 .4477-1 1-1 1 .4477 1 1ZM12 18c0 .5523-.4477 1-1 1s-1-.4477-1-1 .4477-1 1-1 1 .4477 1 1Z"/><path fill="currentColor" fill-rule="evenodd" d="M1 6c0-1.1046.8954-2 2-2h1c0-1.1046.8954-2 2-2h12c1.1046 0 2 .8954 2 2h1c1.1046 0 2 .8954 2 2v12c0 1.1046-.8954 2-2 2h-1c0 1.1046-.8954 2-2 2H6c-1.1046 0-2-.8954-2-2H3c-1.1046 0-2-.8954-2-2V6Zm2 0h1v12H3V6Zm18 0h-1v12h1V6ZM6 10v4h12v-4H6Zm0-6h12v4H6V4Zm0 12h12v4H6v-4Z" clip-rule="evenodd"/></svg>