<svg xmlns="http://www.w3.org/2000/svg" fill="none" viewBox="0 0 16 16" class="acv-icon"><path fill="currentColor" d="M10.5286 7.385c1.1285.364 2.0708.9685 2.696 1.7363.3487.4283.9786.4928 1.4068.144.4283-.3487.4928-.9786.1441-1.4068C13.3232 6.0749 10.7975 5 8 5 5.2403 5 2.6975 6.0447 1.237 7.7683c-.357.4214-.3048 1.0524.1166 1.4095.4213.357 1.0523.3048 1.4094-.1165.6284-.7417 1.5819-1.3297 2.7138-1.6848A2.986 2.986 0 0 0 5 9c0 1.6569 1.3432 3 3 3 1.6569 0 3-1.3431 3-3a2.986 2.986 0 0 0-.4714-1.615Z"/></svg>