<svg xmlns="http://www.w3.org/2000/svg" fill="none" viewBox="0 0 16 16" class="acv-icon"><path fill="currentColor" fill-rule="evenodd" d="M9 0H2C.897 0 0 .897 0 2v7c0 1.103.897 2 2 2h1v2c0 1.103.897 2 2 2h3.416A4.9834 4.9834 0 0 1 8 13H5v-2h3.416a5.0174 5.0174 0 0 1 1.5835-2H5V5h8.001l-.0004 3c.7109 0 1.3871.1485 1.9994.416V5c0-1.103-.897-2-2-2h-2V2c0-1.103-.897-2-2-2ZM3 5H2V2h7v1H5c-1.103 0-2 .897-2 2Zm0 4H2V7h1v2Z" clip-rule="evenodd"/><path fill="currentColor" d="M8.5 7c0 .552.448 1 1 1s1-.448 1-1-.448-1-1-1-1 .448-1 1ZM6.5 8c-.552 0-1-.448-1-1s.448-1 1-1 1 .448 1 1-.448 1-1 1Z"/><path fill="currentColor" fill-rule="evenodd" d="M16 13c0 1.6569-1.3431 3-3 3s-3-1.3431-3-3 1.3431-3 3-3 3 1.3431 3 3Zm-3.3536-1.8536-1 1a.5002.5002 0 0 0 0 .7072.5002.5002 0 0 0 .7072 0l.1464-.1465V14.5a.5.5 0 0 0 1 0v-1.7929l.1464.1465a.5002.5002 0 0 0 .7072 0 .5002.5002 0 0 0 0-.7072l-.9998-.9997a.5005.5005 0 0 0-.7074-.0003Z" clip-rule="evenodd"/></svg>