<svg xmlns="http://www.w3.org/2000/svg" fill="none" viewBox="0 0 32 32" class="acv-icon"><path fill="currentColor" fill-rule="evenodd" d="M1.0035 9.0957c.0154.0526.6347 2.9374 1.3763 6.4107.7416 3.4733 1.3596 6.3335 1.3732 6.356.0137.0226.8337.041 1.8221.041h1.7972l.0585-.287c.244-1.1978 2.4644-12.5126 2.4644-12.5582C9.8952 9.0188 9.4899 9 8.6376 9c-.6916 0-1.2575.0086-1.2575.019 0 .0456-1.805 10.4642-1.8331 10.5808-.0172.0712-.0411.1196-.0533.1074-.0217-.0216-1.8862-10.5553-1.8862-10.656C3.6075 9.0208 3.0729 9 2.2916 9c-1.2274 0-1.314.0064-1.288.0957Zm18.6786.9978v1.0935h2.1871V9h-2.1871v1.0935Zm4.3741 5.3582v6.4517H31v-1.9683h-4.6474V9h-2.2964v6.4517Zm-10.9484-3.3912c-.7372.1331-1.4557.5095-1.8117.9491-.211.2606-.3257.4729-.4896.9064-.1109.2934-.1162.4136-.1335 3.0374-.02 3.0173-.005 3.1975.3191 3.8461.1934.3869.6802.8688 1.0846 1.0738.5536.2806 1.043.3757 1.9465.3786.9357.003 1.2866-.0661 1.9281-.3797.8979-.439 1.3596-1.2111 1.4624-2.4457l.0397-.4755h-2.2438l-.0191.4827c-.0171.4325-.0355.5043-.1768.6894-.2186.2864-.5188.411-.9905.411-.4124 0-.7413-.1122-.921-.3143-.2134-.2399-.2496-.4833-.2521-1.692l-.0024-1.1612 2.2827-.0143 2.2827-.0143-.0029-1.4215c-.0022-1.1653-.0197-1.4857-.097-1.777-.269-1.0142-.8463-1.6179-1.8642-1.9492-.382-.1245-.5522-.1461-1.2618-.1602-.451-.0091-.9368.0047-1.0794.0304Zm6.5743 4.9768v4.8661h2.1871v-9.7322h-2.1871v4.8661Zm-4.9876-3.1609c.4003.206.5042.4593.5042 1.2285v.6202h-2.351l.0012-.5878c.0013-.6435.0811-.9128.3411-1.1522.3268-.3008 1.0321-.3518 1.5045-.1087Z" clip-rule="evenodd"/></svg>