<svg xmlns="http://www.w3.org/2000/svg" fill="none" viewBox="0 0 16 16" class="acv-icon"><circle cx="8" cy="8" r="8" fill="#fff"/><path fill="#408BEA" d="M8 15c-3.866 0-7-3.134-7-7s3.134-7 7-7 7 3.134 7 7-3.134 7-7 7Z"/><path fill="#fff" d="M11.8 7.3647c0 .089-.004.1769-.0118.2638C12.4739 7.7317 13 8.3317 13 9.0564c0 .7973-.6368 1.4436-1.4222 1.4436H4.4222C3.6368 10.5 3 9.8537 3 9.0564c0-.709.5035-1.2986 1.1673-1.4205a1.7581 1.7581 0 0 1-.0117-.2036c0-.9467.7561-1.7142 1.6888-1.7142.2571 0 .5008.0583.7189.1625C7.058 5.053 7.9543 4.5 8.9778 4.5 10.5364 4.5 11.8 5.7825 11.8 7.3647Z"/></svg>