<svg xmlns="http://www.w3.org/2000/svg" fill="none" viewBox="0 0 24 24" class="acv-icon"><path fill="currentColor" d="M21.119 11.117a1 1 0 0 0 .435-1.03 9.968 9.968 0 0 0-4.816-6.748C11.955.58 5.839 2.218 3.078 7a9.958 9.958 0 0 0-1.334 5.386 9.993 9.993 0 0 0 4.994 8.274 9.965 9.965 0 0 0 7.256 1.082 9.985 9.985 0 0 0 5.818-3.84l.008-.012.136-.19 1.552.889c.479.276.75.068.607-.466l-.939-4.09c-.071-.267-.204-.462-.47-.39l-3.931 1.387c-.534.143-.58.482-.1.759l1.516.892c-.073.12-.152.238-.235.354a8.003 8.003 0 0 1-10.218 1.893A8 8 0 1 1 19.59 10.47v.002a1 1 0 0 0 1.529.646Z"/><path fill="currentColor" d="M9.513 15.174a3.882 3.882 0 0 0 1.222.54c.102.025.201.063.294.11.367.186.64.532.64.948 0 .52-.425.951-.94.866a5.74 5.74 0 0 1-2.265-.895 5.769 5.769 0 1 1 8.896-5.736c.085.515-.345.94-.866.94-.416 0-.761-.273-.948-.64a1.39 1.39 0 0 1-.11-.295 3.869 3.869 0 0 0-.54-1.222 3.881 3.881 0 1 0-5.383 5.384Z"/></svg>