<svg xmlns="http://www.w3.org/2000/svg" fill="none" viewBox="0 0 16 16" class="acv-icon"><path fill="currentColor" fill-rule="evenodd" d="M14.5 15h-.7676c-.3458.5978-.9921 1-1.7324 1s-1.3866-.4022-1.7324-1H4.7324c-.3458.5978-.9921 1-1.7324 1s-1.3866-.4022-1.7324-1H1c-.5523 0-1-.4477-1-1s.4477-1 1-1h.2676c.3458-.5978.9921-1 1.7324-1s1.3866.4022 1.7324 1H7V2H1c-.5523 0-1-.4477-1-1s.4477-1 1-1h6.5C8.3284 0 9 .6716 9 1.5V3h3.6615a1.5 1.5 0 0 1 1.3927.943l1.8385 4.5962c.0709.1772.1073.3663.1073.557V13.5c0 .8284-.6716 1.5-1.5 1.5Zm-.5-2h-.2676c-.3458-.5978-.9921-1-1.7324-1s-1.3866.4022-1.7324 1H9v-3h5v3Zm-.477-5-1.2-3H9v3h4.523Z" clip-rule="evenodd"/><path fill="currentColor" d="M1 3h3c.5523 0 1 .4477 1 1s-.4477 1-1 1H1c-.5523 0-1-.4477-1-1s.4477-1 1-1ZM1 6h3c.5523 0 1 .4477 1 1s-.4477 1-1 1H1c-.5523 0-1-.4477-1-1s.4477-1 1-1ZM1 9h3c.5523 0 1 .4477 1 1s-.4477 1-1 1H1c-.5523 0-1-.4477-1-1s.4477-1 1-1Z"/></svg>