<svg xmlns="http://www.w3.org/2000/svg" fill="none" viewBox="0 0 32 32" class="acv-icon"><circle cx="16" cy="16" r="13" fill="#408BEA"/><circle cx="16" cy="16" r="12.5" stroke="#243143" stroke-opacity=".1"/><path fill="#fff" fill-rule="evenodd" d="M10.5 14H12v-2.5a4 4 0 0 1 8 0V14h1.5a1 1 0 0 1 1 1v7a1 1 0 0 1-1 1h-11a1 1 0 0 1-1-1v-7a1 1 0 0 1 1-1Zm7.5-2.5V14h-4v-2.5a2 2 0 1 1 4 0ZM16 17c-.69 0-1.25.56-1.25 1.25v1.5a1.25 1.25 0 1 0 2.5 0v-1.5c0-.69-.56-1.25-1.25-1.25Z" clip-rule="evenodd"/></svg>