<svg xmlns="http://www.w3.org/2000/svg" fill="none" viewBox="0 0 32 32" class="acv-icon"><path fill="currentColor" fill-rule="evenodd" d="M2 5c0-1.1046.8954-2 2-2h24c1.1046 0 2 .8954 2 2v12.3427c1.2508 1.5457 2 3.514 2 5.6573 0 4.9706-4.0294 9-9 9-2.6655 0-5.0604-1.1588-6.7083-3h-4.6513c-.3253 0-.564-.3057-.4851-.6213L12 25H4c-1.1046 0-2-.8954-2-2V5Zm13.5508 12.9477a9.0522 9.0522 0 0 1 1.0674-1.2938c-.5-.4769-.75-1.4331-.75-2.8686 0-1.0326.1417-1.8387.4253-2.4185.2877-.5797.6792-.8696 1.1743-.8696.2539 0 .4887.055.7046.165a4.781 4.781 0 0 1 .6093.3555l.5713-1.4028c-.3554-.2328-.6898-.3957-1.0029-.4888-.3089-.0931-.6327-.1396-.9712-.1396-1.0283 0-1.8324.421-2.4121 1.2631-.5755.8422-.8633 2.0165-.8633 3.523s.2793 2.6766.8379 3.5102c.1788.2635.3819.4851.6094.6649Zm5.5351-3.7437A9.0354 9.0354 0 0 1 23 14c.4883 0 .9676.0389 1.4349.1138-.3078-.2934-.7196-.4812-1.2352-.5634v-.0508c.5247-.1523.931-.4253 1.2188-.8188.2877-.3978.4316-.8887.4316-1.4727 0-.6897-.2201-1.2314-.6602-1.625-.4401-.3978-1.0516-.5967-1.8344-.5967-.9522 0-1.7414.3132-2.3677.9395l.7808 1.1426c.4528-.4063.9182-.6094 1.3964-.6094.3132 0 .5544.0952.7237.2857.1735.1861.2602.4633.2602.8315 0 .4697-.1354.8231-.4062 1.0601-.2666.2369-.6517.3554-1.1553.3554h-.5015v1.2122ZM30 23c0 3.866-3.134 7-7 7s-7-3.134-7-7 3.134-7 7-7 7 3.134 7 7Zm-17.2549-4.6h-1.7265v-4.0688H8.7398V18.4H7.0132V9.1198h1.7266v3.6879h2.2788v-3.688h1.7265V18.4Z" clip-rule="evenodd"/><path fill="currentColor" d="M21.2481 19.4275c-.3334-.1905-.7481.0502-.7481.4341v6.2768c0 .3839.4147.6246.7481.4341l5.4922-3.1384c.3359-.1919.3359-.6763 0-.8682l-5.4922-3.1384Z"/></svg>