<svg xmlns="http://www.w3.org/2000/svg" fill="none" viewBox="0 0 96 96" class="acv-icon"><path fill="url(#DesktopLinuxDisabledIll96:a)" fill-opacity=".2" d="M15 62h66v2H15v-2Z"/><path fill="#fff" fill-opacity=".1" d="M15 62h66v1H15v-1Z"/><path fill="url(#DesktopLinuxDisabledIll96:b)" d="M15 21h66v42H15V21Z"/><path stroke="url(#DesktopLinuxDisabledIll96:c)" stroke-opacity=".2" d="M80.5 21.5v41h-65v-41h65Z"/><path fill="#FAFCFF" d="M32.4125 47v-8.7273h2.1094v7.0142h3.6306V47h-5.74ZM39.2445 47v-6.5455h2.0838V47h-2.0838Zm1.044-7.3083c-.2926 0-.544-.0965-.7542-.2897-.2102-.196-.3154-.4318-.3154-.7074 0-.2727.1052-.5057.3154-.6989.2102-.196.4616-.294.7542-.294.2955 0 .5469.098.7543.294.2102.1932.3153.4262.3153.6989 0 .2756-.1051.5114-.3153.7074-.2074.1932-.4588.2897-.7543.2897ZM44.7385 43.267V47h-2.0838v-6.5455h1.9815v1.2017h.0724c.1449-.4005.3921-.7145.7415-.9417.3495-.2301.7656-.3452 1.2486-.3452.4602 0 .8594.1037 1.1974.3111.341.2045.6052.4915.7927.8608.1903.3665.284.7954.2812 1.2869V47h-2.0838v-3.7628c.0028-.3636-.0895-.6477-.277-.8523-.1846-.2045-.4418-.3068-.7713-.3068-.2187 0-.4119.0483-.5795.1449-.1648.0937-.2927.2287-.3836.4048-.088.1762-.1335.3892-.1363.6392ZM54.4831 44.1747v-3.7202h2.0796V47h-1.9858v-1.2188h-.0682c-.1449.4006-.392.7188-.7415.9546-.3466.2329-.7656.3494-1.2571.3494-.446 0-.838-.1023-1.1761-.3068-.3381-.2045-.6009-.4901-.7884-.8565-.1875-.3694-.2826-.8012-.2855-1.2955v-4.1719h2.0838v3.7628c.0029.3551.0966.635.2813.8395.1846.2046.4361.3068.7542.3068.2074 0 .3935-.0454.5583-.1363.1676-.0938.2997-.2287.3963-.4049.0994-.1789.1491-.3949.1491-.6477ZM59.6618 40.4545l1.0781 2.1563 1.1165-2.1563h2.1008l-1.8281 3.2728L64.0254 47h-2.0838l-1.2017-2.1733L59.568 47h-2.1136l1.9005-3.2727-1.8068-3.2728h2.1137Z"/><path fill="url(#DesktopLinuxDisabledIll96:d)" d="M32 21h49v42H56L32 21Z" opacity=".15"/><path fill="url(#DesktopLinuxDisabledIll96:e)" d="M49 21h32v23H63.1224L49 21Z" opacity=".25"/><path fill="#434C59" fill-rule="evenodd" d="M12 20.25c0-1.2426 1.0074-2.25 2.25-2.25h67.5c1.2426 0 2.25 1.0074 2.25 2.25v47.5c0 1.2426-1.0074 2.25-2.25 2.25H57v4h6c.5523 0 1 .4477 1 1v2c0 .5523-.4477 1-1 1H33c-.5523 0-1-.4477-1-1v-2c0-.5523.4477-1 1-1h6v-4H14.25C13.0074 70 12 68.9926 12 67.75v-47.5ZM42 70h12v1c0 .5523-.4477 1-1 1H43c-.5523 0-1-.4477-1-1v-1Z" clip-rule="evenodd"/><path fill="#A1A8B2" d="M14.25 18C13.0074 18 12 19.0074 12 20.25v1c0-1.2426 1.0074-2.25 2.25-2.25h67.5c1.2426 0 2.25 1.0074 2.25 2.25v-1c0-1.2426-1.0074-2.25-2.25-2.25h-67.5Z" opacity=".2"/><path fill="#EA3939" d="M77 67.5a.5.5 0 0 1 .5-.5h3a.5.5 0 0 1 0 1h-3a.5.5 0 0 1-.5-.5Z"/><path fill="#303640" d="M15.5 67a.5.5 0 0 0 0 1h3a.5.5 0 0 0 0-1h-3ZM59 67.5a.5.5 0 0 1 .5-.5h3a.5.5 0 0 1 0 1h-3a.5.5 0 0 1-.5-.5ZM65.5 67a.5.5 0 0 0 0 1h3a.5.5 0 0 0 0-1h-3ZM71.5 67a.5.5 0 0 0 0 1h3a.5.5 0 0 0 0-1h-3Z"/><path fill="#303640" d="M12 66.75v1c0 1.2426 1.0074 2.25 2.25 2.25h67.5c1.2426 0 2.25-1.0074 2.25-2.25v-1c0 1.2426-1.0074 2.25-2.25 2.25h-67.5C13.0074 69 12 67.9926 12 66.75ZM32 76v1c0 .5523.4477 1 1 1h30c.5523 0 1-.4477 1-1v-1c0 .5523-.4477 1-1 1H33c-.5523 0-1-.4477-1-1Z"/><path fill="#6C7480" d="M33 74c-.5523 0-1 .4477-1 1v1c0-.5523.4477-1 1-1h30c.5523 0 1 .4477 1 1v-1c0-.5523-.4477-1-1-1H33Z"/><defs><linearGradient id="DesktopLinuxDisabledIll96:a" x1="48" x2="48" y1="62" y2="64" gradientUnits="userSpaceOnUse"><stop stop-color="#fff"/><stop offset="1" stop-color="#fff" stop-opacity="0"/></linearGradient><linearGradient id="DesktopLinuxDisabledIll96:b" x1="16" x2="81" y1="63" y2="21" gradientUnits="userSpaceOnUse"><stop stop-color="#6C7480"/><stop offset="1" stop-color="#E6EBF2"/></linearGradient><linearGradient id="DesktopLinuxDisabledIll96:c" x1="48" x2="48" y1="21" y2="63" gradientUnits="userSpaceOnUse"><stop/><stop offset="1" stop-color="#fff" stop-opacity="0"/></linearGradient><linearGradient id="DesktopLinuxDisabledIll96:d" x1="44" x2="44" y1="21" y2="63" gradientUnits="userSpaceOnUse"><stop stop-color="#fff"/><stop offset="1" stop-color="#EBEBEB" stop-opacity="0"/></linearGradient><linearGradient id="DesktopLinuxDisabledIll96:e" x1="56.5" x2="56.5" y1="21" y2="44" gradientUnits="userSpaceOnUse"><stop stop-color="#fff"/><stop offset="1" stop-color="#fff" stop-opacity="0"/></linearGradient></defs></svg>