<svg xmlns="http://www.w3.org/2000/svg" fill="none" viewBox="0 0 24 24" class="acv-icon"><path fill="currentColor" d="M8 6.4h7.84c.1049.517.16 1.052.16 1.6a7.9986 7.9986 0 0 1-.351 2.351c-2.5276.776-4.522 2.7704-5.298 5.298A7.9986 7.9986 0 0 1 8 16c-4.4183 0-8-3.5817-8-8s3.5817-8 8-8c2.1115 0 4.032.818 5.4617 2.1545l-2.2918 2.241C10.3244 3.6513 9.2149 3.2 8 3.2 5.349 3.2 3.2 5.349 3.2 8s2.149 4.8 4.8 4.8c2.09 0 3.8679-1.3357 4.5269-3.2H8V6.4Z"/><path fill="currentColor" fill-rule="evenodd" d="M24 18c0 3.3137-2.6863 6-6 6s-6-2.6863-6-6 2.6863-6 6-6 6 2.6863 6 6Zm-5 3v-3.5858l1.2929 1.2929c.3905.3905 1.0237.3905 1.4142 0 .3905-.3905.3905-1.0237 0-1.4142l-3-3c-.3905-.3905-1.0237-.3905-1.4142 0l-3 3c-.3905.3905-.3905 1.0237 0 1.4142.3905.3905 1.0237.3905 1.4142 0L17 17.4142V21c0 .5523.4477 1 1 1s1-.4477 1-1Z" clip-rule="evenodd"/></svg>