<svg xmlns="http://www.w3.org/2000/svg" fill="none" viewBox="0 0 32 32" class="acv-icon"><path fill="currentColor" fill-rule="evenodd" d="M18 3H7.5C6.6716 3 6 3.6716 6 4.5v23c0 .8284.6716 1.5 1.5 1.5h17c.8284 0 1.5-.6716 1.5-1.5V11h-6c-1.1046 0-2-.8954-2-2V3Zm-7.6508 8.2408c.4194-.3595 1.0507-.3109 1.4101.1084l3 3.5a1 1 0 0 1 0 1.3016l-3 3.5c-.3594.4193-.9907.4679-1.4101.1085-.4193-.3594-.4679-.9907-.1084-1.4101L12.6829 15.5l-2.4421-2.8492c-.3595-.4193-.3109-1.0506.1084-1.41ZM15 21c-.5523 0-1 .4477-1 1s.4477 1 1 1h5c.5523 0 1-.4477 1-1s-.4477-1-1-1h-5Z" clip-rule="evenodd"/><path fill="currentColor" d="M21 9c-.5523 0-1-.4477-1-1V3.6035c0-.2227.2693-.3342.4268-.1767l5.1464 5.1464c.1575.1575.046.4268-.1768.4268H21Z"/></svg>