<svg xmlns="http://www.w3.org/2000/svg" fill="none" viewBox="0 0 16 16" class="acv-icon"><path fill="currentColor" d="M11.5 6C9.567 6 8 4.8807 8 3.5S9.567 1 11.5 1 15 2.1193 15 3.5 13.433 6 11.5 6Z"/><path fill="currentColor" d="M8.2912 5.5C8.8313 6.383 10.0648 7 11.5 7s2.6687-.617 3.2088-1.5c.1873.3062.2912.6444.2912 1C15 7.8807 13.433 9 11.5 9S8 7.8807 8 6.5c0-.3556.104-.6938.2912-1Z"/><path fill="currentColor" d="M8.2912 8.5c.5401.883 1.7736 1.5 3.2088 1.5s2.6687-.617 3.2088-1.5c.1873.3062.2912.6445.2912 1 0 1.3807-1.567 2.5-3.5 2.5S8 10.8807 8 9.5c0-.3555.104-.6938.2912-1Z"/><path fill="currentColor" d="M8.2912 11.5c.5401.883 1.7736 1.5 3.2088 1.5s2.6687-.617 3.2088-1.5c.1873.3062.2912.6444.2912 1 0 1.3807-1.567 2.5-3.5 2.5S8 13.8807 8 12.5c0-.3556.104-.6938.2912-1ZM3.5 12C1.567 12 0 10.8807 0 9.5S1.567 7 3.5 7 7 8.1193 7 9.5 5.433 12 3.5 12Z"/><path fill="currentColor" d="M.2912 11.5C.8313 12.383 2.0648 13 3.5 13s2.6687-.617 3.2088-1.5c.1873.3062.2912.6444.2912 1C7 13.8807 5.433 15 3.5 15S0 13.8807 0 12.5c0-.3556.104-.6938.2912-1Z"/></svg>