<svg xmlns="http://www.w3.org/2000/svg" fill="none" viewBox="0 0 32 32" class="acv-icon"><path fill="currentColor" d="M7.342 8.1935C7.7246 6.3342 9.3614 5 11.2597 5h9.4792c1.8982 0 3.535 1.334 3.9178 3.1933l2.2357 10.8574C25.9275 18.3879 24.7589 18 23.4997 18h-15c-1.2592 0-2.4278.3879-3.3928 1.0507L7.342 8.1935Z"/><path fill="currentColor" fill-rule="evenodd" d="M4 24c0-2.2091 1.7909-4 4-4h16c2.2091 0 4 1.7909 4 4 0 2.2091-1.7909 4-4 4H8c-2.2091 0-4-1.7909-4-4Zm3 0c0-.5523.4477-1 1-1h3c.5523 0 1 .4477 1 1s-.4477 1-1 1H8c-.5523 0-1-.4477-1-1Zm17 1c.5523 0 1-.4477 1-1s-.4477-1-1-1-1 .4477-1 1 .4477 1 1 1Z" clip-rule="evenodd"/></svg>