<svg xmlns="http://www.w3.org/2000/svg" fill="none" viewBox="0 0 24 24" class="acv-icon"><path fill="currentColor" fill-rule="evenodd" d="M13 10c0 .3506.0602.6872.1707 1h-2.3414A2.9967 2.9967 0 0 0 11 10c0-1.6569-1.3431-3-3-3s-3 1.3431-3 3 1.3431 3 3 3h8c1.6569 0 3-1.3431 3-3s-1.3431-3-3-3-3 1.3431-3 3Zm4 0c0 .5523-.4477 1-1 1s-1-.4477-1-1 .4477-1 1-1 1 .4477 1 1Zm-9 1c.5523 0 1-.4477 1-1s-.4477-1-1-1-1 .4477-1 1 .4477 1 1 1Z" clip-rule="evenodd"/><path fill="currentColor" fill-rule="evenodd" d="M11 17H4c-1.1046 0-2-.8954-2-2V5c0-1.1046.8954-2 2-2h16c1.1046 0 2 .8954 2 2v10c0 1.1046-.8954 2-2 2h-7v1.2676c.3036.1756.5568.4288.7324.7324H19c.5523 0 1 .4477 1 1s-.4477 1-1 1h-5.2676c-.3458.5978-.9921 1-1.7324 1s-1.3866-.4022-1.7324-1H5c-.5523 0-1-.4477-1-1s.4477-1 1-1h5.2676A2.0095 2.0095 0 0 1 11 18.2676V17ZM4 5v10h16V5H4Z" clip-rule="evenodd"/></svg>