<svg xmlns="http://www.w3.org/2000/svg" fill="none" viewBox="0 0 32 32" class="acv-icon"><path fill="currentColor" d="M23.7928 15.282h-.32v-2.8371h.4062c.3856 0 .6708.1149.8554.3446.1847.2257.277.5744.277 1.0463 0 .5128-.1006.8821-.3016 1.1078-.201.2256-.5067.3384-.917.3384Z"/><path fill="currentColor" fill-rule="evenodd" d="M3 4c0-.5523.4477-1 1-1h7.7771c.893 0 1.6777.592 1.9231 1.4506L14.1429 6H27c1.1046 0 2 .8954 2 2v15c0 1.1046-.8954 2-2 2H17v2h11c.5523 0 1 .4477 1 1s-.4477 1-1 1H4c-.5523 0-1-.4477-1-1s.4477-1 1-1h11v-2H5c-1.1046 0-2-.8954-2-2V4Zm6.4408 15.4486c.4268-.4473.6401-1.0914.6401-1.9325 0-.5252-.117-.9929-.3508-1.4032-.2298-.4103-.638-.8124-1.2247-1.2063-.435-.2872-.7406-.5436-.917-.7693-.1723-.2256-.2585-.4902-.2585-.7939 0-.3077.0718-.5498.2154-.7262.1477-.1805.357-.2708.6278-.2708.2461 0 .4759.0452.6892.1354.2175.0903.4247.1929.6216.3077l.5539-1.3416c-.636-.3857-1.2985-.5785-1.9878-.5785-.7221 0-1.2986.2256-1.7294.677-.4267.4513-.64 1.0626-.64 1.834 0 .402.0533.7549.16 1.0585.1107.3036.2646.5785.4615.8247.201.2421.4944.4964.8801.7631.4431.3037.761.5806.954.8309.1928.2462.2892.519.2892.8185 0 .3036-.082.5436-.2462.7201-.16.1764-.4.2646-.72.2646-.5621 0-1.1796-.2195-1.8525-.6585v1.6555c.5498.3077 1.2165.4616 2.0002.4616.8 0 1.4114-.2236 1.834-.6708Zm1.7479.5477h1.6617v-3.6065h2.2094v-1.4462h-2.2094v-2.4987h2.3694v-1.4463h-4.0311v8.9977Zm7.9207 0h-1.6679v-7.5268h-1.7232v-1.4709h5.1143v1.4709h-1.7232v7.5268Zm6.8682-4.025c.4842-.5128.7262-1.2472.7262-2.2032 0-1.8463-.8739-2.7695-2.6217-2.7695h-2.2833v8.9977h1.674v-3.2618h.4185c.9108 0 1.6063-.2544 2.0863-.7632Z" clip-rule="evenodd"/></svg>