<svg xmlns="http://www.w3.org/2000/svg" fill="none" viewBox="0 0 32 32" class="acv-icon"><path fill="currentColor" fill-rule="evenodd" d="M7 13c0-4.9706 4.0294-9 9-9s9 4.0294 9 9c0 3.4661-1.9777 6.5648-5 8.0645V25h-8v-3.9355C8.9777 19.5648 7 16.4661 7 13Zm11 6.7445.6248-.253C21.2474 18.4299 23 15.8778 23 13c0-3.866-3.134-7-7-7s-7 3.134-7 7c0 2.8778 1.7526 5.4299 4.3752 6.4915l.6248.253V23h4v-3.2555Z" clip-rule="evenodd"/><path fill="currentColor" d="M2.5096 6.366 6.011 8.3875a10.9884 10.9884 0 0 1 1.0015-1.7312L3.5096 4.634l-1 1.732ZM5.0448 14H1v-2h4.0448A11.1406 11.1406 0 0 0 5 13c0 .3371.0152.6706.0448 1ZM12 29v-2h8v2h-8ZM24.9876 6.6563l3.5028-2.0223 1 1.732-3.5013 2.0215a10.9906 10.9906 0 0 0-1.0015-1.7312ZM31 12h-4.0448a11.1704 11.1704 0 0 1 0 2H31v-2ZM25.9891 17.6125l3.5013 2.0215-1 1.732-3.5028-2.0223a10.9887 10.9887 0 0 0 1.0015-1.7312ZM3.5096 21.366l3.5028-2.0223a10.9864 10.9864 0 0 1-1.0015-1.7312L2.5096 19.634l1 1.732Z"/></svg>