<svg xmlns="http://www.w3.org/2000/svg" fill="none" viewBox="0 0 16 16" class="acv-icon"><g fill="currentColor" clip-path="url(#a)"><path fill-rule="evenodd" d="M16 13a3 3 0 1 1-6 0 3 3 0 0 1 6 0Zm-3.354-1.854-1 1a.5.5 0 0 0 .708.708l.146-.147V14.5a.5.5 0 0 0 1 0v-1.793l.146.147a.5.5 0 0 0 .708-.708l-1-1a.5.5 0 0 0-.708 0Z" clip-rule="evenodd"/><path d="M8.001 13.11a6.529 6.529 0 0 1-3.494-1.291L1.6 14.725A.938.938 0 0 1 .275 13.4l2.907-2.907a6.562 6.562 0 1 1 11.58-2.173A4.989 4.989 0 0 0 12.9 8a4.688 4.688 0 1 0-4.585 3.247 4.99 4.99 0 0 0-.314 1.863Z"/><path fill-rule="evenodd" d="M8.822 3.5a.678.678 0 0 0-.677.678v2.43L6.649 8.104a.678.678 0 0 0 .958.958l1.695-1.694a.678.678 0 0 0 .198-.48v-2.71a.678.678 0 0 0-.678-.678Z" clip-rule="evenodd"/></g><defs><clipPath id="a"><path fill="#fff" d="M0 0h16v16H0z"/></clipPath></defs></svg>