<svg xmlns="http://www.w3.org/2000/svg" fill="none" viewBox="0 0 24 24" class="acv-icon"><path fill="currentColor" d="M6.2927 11.4046a.8467.8467 0 0 0 1.2095-.0821 5.9076 5.9076 0 0 1 8.9956 0 .8467.8467 0 0 0 1.2095.0821c.3562-.3173.3923-.8685.0806-1.2312a7.602 7.602 0 0 0-11.5758 0c-.3117.3627-.2756.9139.0806 1.2312Z"/><path fill="currentColor" d="M15.4142 13.7175c-.3939.2673-.926.1589-1.1886-.242-1.0588-1.6166-3.3924-1.6166-4.4512 0-.2626.4009-.7948.5093-1.1886.242-.394-.2673-.5003-.809-.2378-1.21 1.7374-2.6526 5.5667-2.6526 7.304 0 .2625.401.1561.9427-.2378 1.21Z"/><path fill="currentColor" d="M12 16.7308c.8115 0 1.4694-.6697 1.4694-1.4957 0-.8261-.6579-1.4957-1.4694-1.4957s-1.4694.6696-1.4694 1.4957c0 .826.6579 1.4957 1.4694 1.4957Z"/><path fill="currentColor" fill-rule="evenodd" d="M5 4C2.7909 4 1 5.7909 1 8v8c0 2.2091 1.7909 4 4 4h14c2.2091 0 4-1.7909 4-4V8c0-2.2091-1.7909-4-4-4H5Zm14 2H5c-1.1046 0-2 .8954-2 2v8c0 1.1046.8954 2 2 2h14c1.1046 0 2-.8954 2-2V8c0-1.1046-.8954-2-2-2Z" clip-rule="evenodd"/></svg>