<svg xmlns="http://www.w3.org/2000/svg" fill="none" viewBox="0 0 24 24" class="acv-icon"><path fill="currentColor" fill-rule="evenodd" d="M20.2206 3.8342A1 1 0 0 1 21 4.8107l-.0121 10.0946c-.1156 2.3958-1.7224 4.4255-4.2384 6.0627C15.0311 22.0862 12.8038 23 12 23c-.8036 0-3.031-.9136-4.7506-2.0318C4.7324 19.3314 3.1226 17.3025 3 14.8571V4.8095a1 1 0 0 1 .7794-.9753l8-2.8096a.9998.9998 0 0 1 .4412 0l8 2.8096ZM12 3.0252 4.9999 5.6087l-.0012 9.1979c.082 1.6185 1.3068 3.1623 3.341 4.485C9.7633 20.2172 11.6717 21 12 21c.3284 0 2.2364-.7828 3.6587-1.7083 2.0321-1.3224 3.2535-2.8652 3.3304-4.4358l.0099-9.2475L12 3.0253Z" clip-rule="evenodd"/><path fill="currentColor" fill-rule="evenodd" d="M12 5.5c1.6569 0 3 1.3431 3 3v1h1.25a.75.75 0 0 1 .75.75v5.5006a.75.75 0 0 1-.75.75h-8.5a.75.75 0 0 1-.75-.75V10.25a.75.75 0 0 1 .75-.75H9v-1c0-1.6569 1.3431-3 3-3Zm0 5.7506a.7503.7503 0 0 0-.745.6626l-.005.0874v1.5a.75.75 0 0 0 1.4949.0875l.0051-.0875v-1.5a.75.75 0 0 0-.75-.75ZM10.5 8.5c0-.8284.6716-1.5 1.5-1.5s1.5.6716 1.5 1.5v1h-3v-1Z" clip-rule="evenodd"/></svg>