<svg xmlns="http://www.w3.org/2000/svg" fill="none" viewBox="0 0 24 24" class="acv-icon"><path fill="currentColor" d="M22 11.0703v-3.572C22 6.6753 21.3297 6 20.5029 6H18V1.9908C18 .8937 17.0965 0 15.9932 0H4.0069C2.9009 0 2 .8893 2 1.9934v18.0132C2 21.1104 2.9015 22 4.0069 22h7.0634a7.9535 7.9535 0 0 1-.8183-2H4.007s-.0027-.7819-.0036-2H10c0-.6906.0875-1.3608.252-2H4.0022C4 11.2595 4 1.9955 4 1.9955 4 1.9997 15.9932 2 15.9932 2c.0025 0 .0049 2.5408.0061 4h-2.5022C12.6717 6 12 6.6708 12 7.4982v5.2102a8.0344 8.0344 0 0 1 2-1.6381V8h6v2.252a7.9535 7.9535 0 0 1 2 .8183Z"/><path fill="currentColor" d="M8 4c0-.5523.4434-1 1.0094-1h1.9812C11.5481 3 12 3.4439 12 4c0 .5523-.4434 1-1.0094 1H9.0094C8.4519 5 8 4.5561 8 4Z"/><path fill="currentColor" fill-rule="evenodd" d="M24 18c0 3.3137-2.6863 6-6 6s-6-2.6863-6-6 2.6863-6 6-6 6 2.6863 6 6Zm-5 3v-3.5858l1.2929 1.2929c.3905.3905 1.0237.3905 1.4142 0 .3905-.3905.3905-1.0237 0-1.4142l-3-3c-.3905-.3905-1.0237-.3905-1.4142 0l-3 3c-.3905.3905-.3905 1.0237 0 1.4142.3905.3905 1.0237.3905 1.4142 0L17 17.4142V21c0 .5523.4477 1 1 1s1-.4477 1-1Z" clip-rule="evenodd"/></svg>