<svg xmlns="http://www.w3.org/2000/svg" fill="none" viewBox="0 0 72 72" class="acv-icon"><path fill="url(#AszIll72:a)" d="M62.4191 7.6612 36 2 9.581 7.6612A2 2 0 0 0 8 9.6168v34.6184c0 7.7847 4.517 14.862 11.5778 18.1402L36 70l16.4222-7.6246C59.483 59.0972 64 52.0199 64 44.2352V9.6168a2 2 0 0 0-1.5809-1.9556Z"/><path fill="url(#AszIll72:b)" d="M62.4191 7.6612 36 2v68l16.4222-7.6246C59.483 59.0972 64 52.0199 64 44.2352V9.6168a2 2 0 0 0-1.5809-1.9556Z" opacity=".8"/><path fill="url(#AszIll72:c)" d="M62.4191 7.6612 36 2v68l16.4222-7.6246C59.483 59.0972 64 52.0199 64 44.2352V9.6168a2 2 0 0 0-1.5809-1.9556Z" opacity=".3"/><path stroke="url(#AszIll72:d)" stroke-width="2" d="M62.21 8.6387c.4609.0989.79.507.79.9785v34.6182c-.0001 7.3953-4.2914 14.1191-10.999 17.2334L36 68.8965l-16.001-7.4277C13.2914 58.3545 9 51.6307 9 44.2354V9.6172c0-.4714.3292-.8796.79-.9785L36 3.0225l26.21 5.6162Z" opacity=".4"/><path stroke="url(#AszIll72:e)" d="M62.3145 8.1504A1.5002 1.5002 0 0 1 63.5 9.6172v34.6182c-.0001 7.5899-4.404 14.4902-11.2881 17.6865L36 69.4482l-16.2119-7.5263C12.904 58.7256 8.5001 51.8253 8.5 44.2354V9.6172c0-.7073.494-1.3185 1.1855-1.4668L36 2.5107l26.3145 5.6397Z"/><path fill="#87D4FC" d="M39 37.1973c1.7935-1.0374 3-2.9764 3-5.1973 0-3.3137-2.6863-6-6-6s-6 2.6863-6 6c0 2.2209 1.2065 4.1599 3 5.1973V43c0 1.6569 1.3431 3 3 3s3-1.3431 3-3v-5.8027Z"/><path fill="#1F4A85" d="M38 36.584c1.7659-.7716 3-2.5337 3-4.584 0-2.7614-2.2386-5-5-5s-5 2.2386-5 5c0 2.0503 1.2341 3.8124 3 4.584V43c0 1.1046.8954 2 2 2s2-.8954 2-2v-6.416Z"/><path stroke="url(#AszIll72:f)" stroke-width="3" d="m35.5 35.6025-.8994-.3935C33.3614 34.6675 32.5 33.4328 32.5 32c0-1.933 1.567-3.5 3.5-3.5s3.5 1.567 3.5 3.5c0 1.4328-.8614 2.6675-2.1006 3.209l-.8994.3935V43a.5.5 0 0 1-1 0v-7.3975Z" opacity=".3"/><path stroke="url(#AszIll72:g)" stroke-width="2" d="m35 35.9297-.5996-.2617C32.9856 35.0498 32 33.6387 32 32c0-2.2091 1.7909-4 4-4 2.2091 0 4 1.7909 4 4 0 1.6387-.9856 3.0498-2.4004 3.668L37 35.9297V43c0 .5523-.4477 1-1 1s-1-.4477-1-1v-7.0703Z" opacity=".2"/><path stroke="url(#AszIll72:h)" d="m34.5 36.2568-.2998-.1308C32.6098 35.4311 31.5 33.8445 31.5 32c0-2.4853 2.0147-4.5 4.5-4.5s4.5 2.0147 4.5 4.5c0 1.8445-1.1098 3.4311-2.7002 4.126l-.2998.1308V43c0 .8284-.6716 1.5-1.5 1.5s-1.5-.6716-1.5-1.5v-6.7432Z" opacity=".2"/><defs><linearGradient id="AszIll72:a" x1="36" x2="36" y1="5" y2="68" gradientUnits="userSpaceOnUse"><stop stop-color="#5EB6FE"/><stop offset="1" stop-color="#73D1FD"/></linearGradient><linearGradient id="AszIll72:b" x1="36" x2="63" y1="37" y2="37" gradientUnits="userSpaceOnUse"><stop stop-color="#97DAFB"/><stop offset="1" stop-color="#73D1FD"/></linearGradient><linearGradient id="AszIll72:c" x1="48" x2="48" y1="4" y2="36.5" gradientUnits="userSpaceOnUse"><stop stop-color="#fff"/><stop offset="1" stop-color="#fff" stop-opacity="0"/></linearGradient><linearGradient id="AszIll72:d" x1="36" x2="36" y1="5" y2="68" gradientUnits="userSpaceOnUse"><stop stop-color="#fff" stop-opacity="0"/><stop offset="1" stop-color="#fff"/></linearGradient><linearGradient id="AszIll72:e" x1="36" x2="36" y1="5" y2="68" gradientUnits="userSpaceOnUse"><stop stop-color="#44B3FE" stop-opacity=".3"/><stop offset="1" stop-color="#6CC8FE"/></linearGradient><linearGradient id="AszIll72:f" x1="31" x2="36" y1="33" y2="33" gradientUnits="userSpaceOnUse"><stop/><stop offset="1" stop-opacity="0"/></linearGradient><linearGradient id="AszIll72:g" x1="31" x2="36" y1="33" y2="33" gradientUnits="userSpaceOnUse"><stop/><stop offset="1" stop-opacity="0"/></linearGradient><linearGradient id="AszIll72:h" x1="31" x2="36" y1="33" y2="33" gradientUnits="userSpaceOnUse"><stop/><stop offset="1" stop-opacity="0"/></linearGradient></defs></svg>