<svg xmlns="http://www.w3.org/2000/svg" fill="none" viewBox="0 0 16 16" class="acv-icon"><g clip-path="url(#a)"><circle cx="8" cy="8" r="8" fill="#408BEA"/><circle cx="8" cy="8" r="7.5" stroke="#243143" stroke-opacity=".1"/><path fill="#fff" d="M8 3V2a.5.5 0 0 1 .8-.4l2.667 2a.5.5 0 0 1 0 .8L8.8 6.4A.5.5 0 0 1 8 6V5a3 3 0 0 0-3 3 1 1 0 0 1-2 0 5 5 0 0 1 5-5ZM8 13v1a.5.5 0 0 1-.8.4l-2.667-2a.5.5 0 0 1 0-.8l2.667-2a.5.5 0 0 1 .8.4v1a3 3 0 0 0 3-3 1 1 0 1 1 2 0 5 5 0 0 1-5 5Z"/></g><defs><clipPath id="a"><path fill="#fff" d="M0 0h16v16H0z"/></clipPath></defs></svg>