<svg xmlns="http://www.w3.org/2000/svg" fill="none" viewBox="0 0 16 16" class="acv-icon"><path fill="#EA3939" d="M7.114.367c.49-.49 1.283-.49 1.772 0l6.747 6.747c.49.49.49 1.283 0 1.772l-6.747 6.747c-.49.49-1.283.49-1.772 0L.367 8.886a1.253 1.253 0 0 1 0-1.772L7.114.367Z"/><path stroke="#243143" stroke-opacity=".1" d="M7.468.72a.753.753 0 0 1 1.064 0l6.747 6.748a.753.753 0 0 1 0 1.064L8.532 15.28a.753.753 0 0 1-1.064 0L.72 8.532a.753.753 0 0 1 0-1.064L7.468.72Z"/><path fill="#fff" d="M8 4a1 1 0 0 0-1 1v2.5a1 1 0 0 0 2 0V5a1 1 0 0 0-1-1ZM8 12a1 1 0 1 0 0-2 1 1 0 0 0 0 2Z"/></svg>