<svg xmlns="http://www.w3.org/2000/svg" fill="none" viewBox="0 0 32 32" class="acv-icon"><circle cx="16" cy="16" r="13" fill="#408BEA"/><circle cx="16" cy="16" r="12.5" stroke="#243143" stroke-opacity=".1"/><path fill="#fff" fill-rule="evenodd" d="M21.25 14c0 .41-.0533.8071-.1531 1.1845C22.2183 15.6988 23 16.8555 23 18.2c0 1.8225-1.4364 3.3-3.2083 3.3H11.625C10.1753 21.5 9 20.2912 9 18.8c0-1.0019.5305-1.8763 1.3184-2.3423a3.0755 3.0755 0 0 1-.1517-.9577c0-1.5381 1.1253-2.8058 2.5753-2.9797.595-1.7584 2.2207-3.0203 4.133-3.0203 2.4162 0 4.375 2.0147 4.375 4.5Z" clip-rule="evenodd"/></svg>