<svg xmlns="http://www.w3.org/2000/svg" fill="none" viewBox="0 0 16 16" class="acv-icon"><path fill="currentColor" fill-rule="evenodd" d="M12 15H4c-1.6568 0-3-1.3431-3-3V4c0-1.6568 1.3432-3 3-3h8c1.6569 0 3 1.3432 3 3v8c0 1.6569-1.3431 3-3 3Zm-5-2V7.8685l-1.4453.9636c-.4595.3063-1.0804.1821-1.3868-.2774-.3063-.4595-.1821-1.0804.2774-1.3868l3-2a1 1 0 0 1 1.1094 0l3 2c.4595.3064.5837.9273.2774 1.3868-.3064.4595-.9273.5837-1.3868.2774L9 7.8685V13h3c.5523 0 1-.4477 1-1V4c0-.5523-.4477-1-1-1H4c-.5523 0-1 .4477-1 1v8c0 .5523.4477 1 1 1h3Z" clip-rule="evenodd"/></svg>