<svg xmlns="http://www.w3.org/2000/svg" fill="none" viewBox="0 0 32 32" class="acv-icon"><path fill="#408BEA" d="M28.7619 18.4896A13.0734 13.0734 0 0 0 29 16c0-7.1797-5.8203-13-13-13S3 8.8203 3 16s5.8203 13 13 13c.8514 0 1.6838-.0819 2.4896-.2381C18.1729 27.901 18 26.9707 18 26c0-4.4183 3.5817-8 8-8 .9707 0 1.901.1729 2.7619.4896Z"/><path fill="#243143" fill-opacity=".1" d="M18.2029 27.7982A12.067 12.067 0 0 1 16 28C9.3726 28 4 22.6274 4 16S9.3726 4 16 4s12 5.3726 12 12a12.067 12.067 0 0 1-.2018 2.2029c.3295.0757.6512.1717.9637.2867A13.0734 13.0734 0 0 0 29 16c0-7.1797-5.8203-13-13-13S3 8.8203 3 16s5.8203 13 13 13c.8514 0 1.6838-.0819 2.4896-.2381a7.9336 7.9336 0 0 1-.2867-.9637Z"/><path fill="#fff" d="M21.0969 15.1845A4.6281 4.6281 0 0 0 21.25 14c0-2.4853-1.9588-4.5-4.375-4.5-1.9123 0-3.538 1.2619-4.133 3.0203-1.45.1739-2.5753 1.4416-2.5753 2.9797 0 .3349.0533.6569.1517.9577C9.5305 16.9237 9 17.7981 9 18.8c0 1.4912 1.1753 2.7 2.625 2.7h7.7597c.8799-1.2911 2.128-2.3112 3.5931-2.9094A3.4492 3.4492 0 0 0 23 18.2c0-1.3445-.7817-2.5012-1.9031-3.0155Z"/></svg>