<svg xmlns="http://www.w3.org/2000/svg" fill="none" viewBox="0 0 24 24" class="acv-icon"><path fill="currentColor" fill-rule="evenodd" d="M22 12c0 2.7989-3.9952 4.7473-9 4.9772v1.2904c.3036.1756.5568.4288.7324.7324H19c.5523 0 1 .4477 1 1s-.4477 1-1 1h-5.2676c-.3458.5978-.9921 1-1.7324 1s-1.3866-.4022-1.7324-1H5c-.5523 0-1-.4477-1-1s.4477-1 1-1h5.2676A2.0095 2.0095 0 0 1 11 18.2676v-1.2904C5.9952 16.7473 2 14.7989 2 12V7c0-2.983 4.5381-5 10-5 5.4618 0 10 2.017 10 5v5Zm-2 0v-1.9162C18.1652 11.2878 15.2457 12 12 12c-3.2457 0-6.1652-.7122-8-1.9162V12c0 1.4352 3.5207 3 8 3s8-1.5648 8-3Zm0-5c0 1.4352-3.5207 3-8 3S4 8.4352 4 7s3.5207-3 8-3 8 1.5648 8 3Z" clip-rule="evenodd"/></svg>