<svg xmlns="http://www.w3.org/2000/svg" fill="none" viewBox="0 0 32 32" class="acv-icon"><path fill="#9BC225" d="M32 26c0 3.3137-2.6863 6-6 6s-6-2.6863-6-6 2.6863-6 6-6 6 2.6863 6 6Z"/><path stroke="#243143" stroke-opacity=".1" d="M26 20.5c3.0376 0 5.5 2.4624 5.5 5.5s-2.4624 5.5-5.5 5.5-5.5-2.4624-5.5-5.5 2.4624-5.5 5.5-5.5Z"/><path fill="#fff" d="m25.4089 22.7285 3.4772 2.5204c.4852.3909.4852 1.1113 0 1.5022l-3.4772 2.5204c-.6588.5307-1.6589.0779-1.6589-.7511v-5.0408c0-.829 1.0002-1.2818 1.6589-.7511Z"/></svg>