<svg xmlns="http://www.w3.org/2000/svg" fill="none" viewBox="0 0 32 32" class="acv-icon"><path fill="currentColor" d="M10.9001 11.2c.4418-.3314 1.0686-.2418 1.4.2l3 4a1.0002 1.0002 0 0 1 0 1.2l-3 4c-.3314.4418-.9582.5314-1.4.2-.4419-.3314-.5314-.9582-.2-1.4l2.55-3.4-2.55-3.4c-.3314-.4418-.2419-1.0686.2-1.4ZM15 23c-.5523 0-1 .4477-1 1s.4477 1 1 1h5c.5523 0 1-.4477 1-1s-.4477-1-1-1h-5Z"/><path fill="currentColor" fill-rule="evenodd" d="M5 4c0-.5523.4477-1 1-1h12.0858a1 1 0 0 1 .7071.2929l6.9142 6.9142c.1875.1875.2929.4419.2929.7071V29c0 .5523-.4477 1-1 1H6c-.5523 0-1-.4477-1-1V4Zm19 8v16H7V5h10v6c0 .5523.4477 1 1 1h6Zm-1.3284-2L19 6.3284V10h3.6716Z" clip-rule="evenodd"/></svg>