<svg xmlns="http://www.w3.org/2000/svg" fill="none" viewBox="0 0 32 32" class="acv-icon"><path fill="currentColor" fill-rule="evenodd" d="M4 3c-1.1046 0-2 .8954-2 2v18c0 1.1046.8954 2 2 2h8l-.8447 3.3787c-.0789.3156.1598.6213.4851.6213h4.6513C14.8666 27.4077 14 25.3051 14 23c0-1.2403.2509-2.4219.7047-3.497-1.1511 1.2758-1.5549 1.4868-2.5434 1.4232-.5649-.0235-.8644-.104-1.1404-.3125-.2085-.1485-.37-.31-.3465-.357.0235-.0575 1.198-1.3934 2.6274-2.9739 1.4294-1.5909 2.6274-2.8929 2.6744-2.8929.0309-.0044.6554.6527 1.4685 1.5288a9.008 9.008 0 0 1 .4017-.298c-.8335-.9246-1.4327-1.6103-1.4327-1.6473 0-.0444.9585-1.1279 2.1329-2.4194 1.453-1.5914 2.2939-2.4219 2.6299-2.5939l.0005.0015c.367-.185.643-.232 1.1745-.2085.7369.0465 1.5909.393 1.6484.6925.0105.091-.854 1.13-1.9374 2.3149-1.0705 1.1875-1.9585 2.1925-1.9585 2.2134 0 .0088.124.1546.3352.3957A9 9 0 0 1 23 14c2.8273 0 5.35 1.3037 7 3.3427V5c0-1.1046-.8954-2-2-2H4Zm7.2864 4.1842c-.7265.37-.7265.427-.047 1.1875 3.7678 4.1953 4.6693 5.1873 4.7368 5.1873.094.0105 5.3148-5.6953 5.3723-5.8668.0235-.047-.138-.2085-.3465-.357-.276-.2085-.5755-.289-1.1404-.3125-1.06-.0675-1.4295.1615-2.7449 1.638-.599.6664-1.107 1.2214-1.107 1.2214-.0105 0-.505-.5415-1.094-1.198-.5889-.6564-1.2679-1.3149-1.4974-1.4424-.5315-.2995-1.6144-.323-2.1354-.0575h.0035Zm-2.422 1.6954c-.565.219-.8644.427-.8644.586 0 .0805.888 1.12 1.961 2.3074 1.0834 1.1875 1.9584 2.1795 1.9584 2.2004 0 .0235-.888 1.0155-1.961 2.203-1.0834 1.1979-1.9479 2.2474-1.9349 2.3384.0575.3125 1.0025.7055 1.6924.7055 1.12-.013 1.3725-.2085 3.7369-2.8019 1.1875-1.302 2.1534-2.409 2.1534-2.4455 0-.0444-.9554-1.1274-2.1299-2.4194-1.5339-1.6719-2.2839-2.4219-2.6404-2.5834-.5415-.2654-1.4165-.3095-1.9714-.0905Z" clip-rule="evenodd"/><path fill="currentColor" d="M20.5 19.8616c0-.3839.4147-.6246.7481-.4341l5.4922 3.1384c.3359.1919.3359.6763 0 .8682l-5.4922 3.1384c-.3334.1905-.7481-.0502-.7481-.4341v-6.2768Z"/><path fill="currentColor" fill-rule="evenodd" d="M32 23c0 4.9706-4.0294 9-9 9s-9-4.0294-9-9 4.0294-9 9-9 9 4.0294 9 9Zm-2 0c0 3.866-3.134 7-7 7s-7-3.134-7-7 3.134-7 7-7 7 3.134 7 7Z" clip-rule="evenodd"/></svg>