<svg xmlns="http://www.w3.org/2000/svg" fill="none" viewBox="0 0 24 24" class="acv-icon"><path fill="currentColor" d="M7.7663 14.146c-.123-.2038-.1844-.4286-.1844-.6745 0-.2394.0614-.4594.1844-.6599a1.3688 1.3688 0 0 1 .495-.4853c.207-.1229.4366-.1844.689-.1844.2943 0 .5677.068.82.2038.2523.1359.4804.3009.6842.495.0971.0906.1973.1957.3009.3154.1067.1197.1941.2248.262.3154a7.0992 7.0992 0 0 1-.2329.3057c-.0906.11-.2006.2248-.33.3445-.22.2038-.4529.3688-.6987.495-.2427.1229-.5112.1844-.8055.1844-.2524 0-.482-.0583-.689-.1747-.2071-.1197-.3721-.2798-.495-.4804ZM16.2289 12.8116c.1229.2005.1844.4205.1844.6599 0 .2459-.0615.4707-.1844.6745-.123.2006-.2879.3607-.495.4804-.2038.1164-.4302.1747-.6793.1747-.3009 0-.5742-.0631-.8201-.1893-.2458-.1261-.4755-.2895-.689-.4901a4.8242 4.8242 0 0 1-.3154-.3348 4.9745 4.9745 0 0 1-.2475-.3154c.0485-.0582.1246-.1504.2281-.2766a4.3583 4.3583 0 0 1 .3348-.3542 2.679 2.679 0 0 1 .4319-.3494 2.1697 2.1697 0 0 1 .5046-.2523 1.6897 1.6897 0 0 1 .5726-.0971c.2491 0 .4755.0615.6793.1844.2071.1197.372.2815.495.4853Z"/><path fill="currentColor" fill-rule="evenodd" d="M9.86 2c.7434 0 1.412.4526 1.6881 1.143l1.1324 2.831a.909.909 0 0 0 .8441.5714h6.6572c1.0042 0 1.8182.814 1.8182 1.8182v10.8182C22 20.186 21.186 21 20.1818 21H3.8182C2.814 21 2 20.186 2 19.1818V3.8182C2 2.814 2.814 2 3.8182 2h6.0417Zm.1529 8.7396c-.3202-.1132-.6744-.1698-1.0626-.1698-.4076 0-.791.076-1.15.228a3.0092 3.0092 0 0 0-.9414.6308 2.924 2.924 0 0 0-.6308.922C6.076 12.7 6 13.0736 6 13.4715c0 .537.1326 1.0255.3979 1.4654.2653.4367.6211.7861 1.0675 1.0481.4465.2588.9414.3882 1.4849.3882.3882 0 .7424-.055 1.0626-.1649.3235-.11.6131-.2491.8686-.4173.2556-.1715.4772-.3446.6648-.5193a5.602 5.602 0 0 0 .2426-.2474l.2135-.2426c.0615.0776.1278.1552.199.2329.0711.0776.1553.1633.2523.2571.1941.1812.4189.3559.6745.5241.2555.1682.5435.3073.8637.4173.3203.1068.6745.1601 1.0627.1601.4076 0 .7893-.0744 1.1452-.2232.3558-.1488.668-.3558.9365-.6211a2.8694 2.8694 0 0 0 .6356-.9268c.1521-.3526.2281-.7295.2281-1.1306 0-.5305-.1326-1.0158-.3979-1.4557-.262-.44-.6163-.791-1.0627-1.053-.4464-.262-.9413-.393-1.4848-.393-.5726 0-1.0789.1197-1.5188.359-.4367.2362-.8023.4966-1.0967.7813a4.2878 4.2878 0 0 0-.2426.2426 4.2651 4.2651 0 0 0-.1941.2281 6.9417 6.9417 0 0 0-.2086-.2281 3.3146 3.3146 0 0 0-.2378-.2426c-.1941-.1876-.4205-.3688-.6793-.5435-.2556-.1747-.5435-.317-.8638-.427Z" clip-rule="evenodd"/></svg>