<svg xmlns="http://www.w3.org/2000/svg" fill="none" viewBox="0 0 16 16" class="acv-icon"><path fill="currentColor" d="M5 6c0 .5523-.4477 1-1 1s-1-.4477-1-1 .4477-1 1-1 1 .4477 1 1ZM8 6c0 .5523-.4477 1-1 1s-1-.4477-1-1 .4477-1 1-1 1 .4477 1 1ZM13 6c0 .5523-.4477 1-1 1s-1-.4477-1-1 .4477-1 1-1 1 .4477 1 1Z"/><path fill="currentColor" fill-rule="evenodd" d="M2 2C.8954 2 0 2.8954 0 4v4c0 1.1046.8954 2 2 2h5v1.2676A2.0096 2.0096 0 0 0 6.2676 12H3c-.5523 0-1 .4477-1 1s.4477 1 1 1h3.2676c.3458.5978.9921 1 1.7324 1s1.3866-.4022 1.7324-1H13c.5523 0 1-.4477 1-1s-.4477-1-1-1H9.7324A2.0096 2.0096 0 0 0 9 11.2676V10h5c1.1046 0 2-.8954 2-2V4c0-1.1046-.8954-2-2-2H2Zm0 2h12v4H2V4Z" clip-rule="evenodd"/></svg>