<svg xmlns="http://www.w3.org/2000/svg" fill="none" viewBox="0 0 24 24" class="acv-icon"><path fill="currentColor" d="M21.1186 11.1171a1.0004 1.0004 0 0 0 .435-1.0294 10.0976 10.0976 0 0 0-.2608-1.0393c-.5428-1.7603-1.5592-3.338-2.9503-4.559a10.0417 10.0417 0 0 0-1.6045-1.1497C11.9551.5783 5.8392 2.217 3.0777 7 2.258 8.4199 1.826 9.9573 1.749 11.4896a9.988 9.988 0 0 0-.0048.8961c.1312 3.3153 1.9082 6.493 4.9939 8.2745 2.2849 1.3192 4.874 1.6342 7.2563 1.0819 1.995-.4625 3.845-1.5332 5.2497-3.1317a9.9674 9.9674 0 0 0 .5677-.7086l.0085-.0117a9.7628 9.7628 0 0 0 .1354-.1909l1.5525.8897c.4788.2764.7502.0681.607-.466l-.9388-4.09c-.0714-.2666-.2042-.4619-.4708-.3905l-3.9307 1.3874c-.5341.1431-.5789.4822-.1.7587l1.5164.8922a5.7612 5.7612 0 0 1-.2349.3543 7.9551 7.9551 0 0 1-.4793.5412c-2.4923 2.5689-6.4982 3.2231-9.739 1.352C3.9117 16.719 2.6007 11.8263 4.8098 8c2.2091-3.8264 7.1019-5.1374 10.9282-2.9282.2539.1465.4976.3055.7306.476A7.9619 7.9619 0 0 1 19.2904 9.36c.1255.3599.2259.7303.2999 1.109l.0003.0018c.1059.5421.6311.8957 1.1731.7899a.993.993 0 0 0 .3549-.1437Z"/><path fill="currentColor" d="M9.5125 15.1741a3.8823 3.8823 0 0 0 1.2221.54c.1023.0254.2014.0624.2945.1097.3671.1865.6398.5322.6398.948 0 .5211-.4252.9514-.9393.8665a5.7402 5.7402 0 0 1-.8162-.1966 5.7682 5.7682 0 0 1-3.9022-6.6203 5.7686 5.7686 0 0 1 11.3493.186c.0849.5142-.3454.9394-.8666.9394-.4157 0-.7614-.2728-.948-.6399a1.3904 1.3904 0 0 1-.1096-.2944 3.8822 3.8822 0 0 0-2.282-2.6517 3.8815 3.8815 0 0 0-3.6418 6.8133Z"/></svg>