<svg xmlns="http://www.w3.org/2000/svg" fill="none" viewBox="0 0 16 16" class="acv-icon"><path fill="currentColor" fill-rule="evenodd" d="M15.1143 10.9999c.5765 0 .8855.3423.8857.833v3.334c-.0001.4908-.3091.833-.8857.833h-3.3682c-.3116-.0001-.5478-.1186-.7461-.3233l-1.291-1.6113c-.318-.3283-.318-.8025 0-1.1308L11 11.3231c.1982-.2046.4345-.3231.7461-.3232h3.3682Zm-3.6143 2a.5001.5001 0 0 0 0 1 .5.5 0 0 0 0-1Z" clip-rule="evenodd"/><path fill="currentColor" d="M13.9131 8.6835c.5127.3054.8831.7723 1.0654 1.3164h-3.2314c-.6134 0-1.1008.2522-1.4649.6279l-.0332.0332-.0293.0371-1.29 1.6114c-.6088.6922-.6085 1.6875 0 2.3798l-.001.001.666.8311A3.1106 3.1106 0 0 1 8 15.9628a3.1122 3.1122 0 0 1-1.6143-.4512l-2.96-1.793c.557-.0132 1.1105-.1761 1.6143-.4843l4.588-2.8077c.9178-.5602 1.4882-1.581 1.4882-2.6582v-.7588l2.7969 1.6739Z"/><path fill="currentColor" d="M5.252 1.123c-.2386.4573-.3682.9744-.3682 1.5146v5.1572c0 1.0838.5773 2.1048 1.502 2.665l.9648.584-2.6582 1.6241c-.8187.5005-1.807.5204-2.6455.0498-.401-.2254-.7264-.537-.9551-.9082-.2453-.4508-.3838-.9652-.3838-1.4922V5.6278c0-1.0838.5768-2.1049 1.5049-2.665l3.039-1.8399Z"/><path fill="currentColor" d="M6.8701.3602C7.4335.039 8.07-.0606 8.6797.0653a2.497 2.497 0 0 1 .5.1563c.1491.0596.2954.1287.4346.2148l4.1728 2.5264c.9281.5601 1.5049 1.5812 1.5049 2.665l-.0029 3.4863c-.2553-.401-.6067-.7424-1.0342-1.001l-4.7334-2.83a2.9864 2.9864 0 0 0-3.046-.0107l-.9286.5468V2.6376c0-.9546.4946-1.8034 1.3232-2.2774Z"/></svg>