<svg xmlns="http://www.w3.org/2000/svg" fill="none" viewBox="0 0 16 16" class="acv-icon"><path fill="currentColor" fill-rule="evenodd" d="M15 8.416V2c0-.5523-.4477-1-1-1H2c-.5523 0-1 .4477-1 1v9c0 .5523.4477 1 1 1h5v1H6c-.5523 0-1 .4477-1 1s.4477 1 1 1h2.416A4.9834 4.9834 0 0 1 8 13a4.978 4.978 0 0 1 .9996-3H3V9h6.9995A4.978 4.978 0 0 1 13 8c.7111 0 1.3875.1485 2 .416ZM3 3h10v4H3V3Z" clip-rule="evenodd"/><path fill="currentColor" fill-rule="evenodd" d="M16 13c0 1.6569-1.3431 3-3 3s-3-1.3431-3-3 1.3431-3 3-3 3 1.3431 3 3Zm-3.3536-1.8536-1 1a.5002.5002 0 0 0 0 .7072.5002.5002 0 0 0 .7072 0l.1464-.1465V14.5a.5.5 0 0 0 1 0v-1.7929l.1464.1465a.5002.5002 0 0 0 .7072 0 .5002.5002 0 0 0 0-.7072l-.9998-.9997a.5005.5005 0 0 0-.7074-.0003Z" clip-rule="evenodd"/></svg>