<svg xmlns="http://www.w3.org/2000/svg" fill="none" viewBox="0 0 24 24" class="acv-icon"><path fill="currentColor" fill-rule="evenodd" d="M22 4.7778c0-.5216-.4477-.9445-1-.9445h-8.2792l-.7721-2.1875C11.8126 1.26 11.4304 1 11 1H3c-.5523 0-1 .4228-1 .9444v15.1112C2 17.5772 2.4477 18 3 18h8v2.2676a2.0095 2.0095 0 0 0-.7324.7324H3c-.5523 0-1 .4477-1 1s.4477 1 1 1h7.2676c.3458.5978.9921 1 1.7324 1s1.3866-.4022 1.7324-1H21c.5523 0 1-.4477 1-1s-.4477-1-1-1h-7.2676A2.0095 2.0095 0 0 0 13 20.2676V18h8c.5523 0 1-.4228 1-.9444V4.7778ZM4 3h6.2792l.7721 2.3162A1 1 0 0 0 12 6h8v10H4V3Z" clip-rule="evenodd"/></svg>