<svg xmlns="http://www.w3.org/2000/svg" fill="none" viewBox="0 0 960 1472" class="acv-icon"><path stroke="currentColor" stroke-opacity=".1" d="M.5.5h959v1471H.5z"/><path fill="currentColor" fill-opacity=".1" d="M0 64h960v1H0zM0 128h960v1H0zM0 192h960v1H0zM0 256h960v1H0zM0 320h960v1H0zM0 384h960v1H0zM0 448h960v1H0zM0 512h960v1H0zM0 576h960v1H0zM0 640h960v1H0zM0 704h960v1H0zM0 768h960v1H0zM0 832h960v1H0zM0 896h960v1H0zM0 960h960v1H0zM0 1024h960v1H0zM0 1088h960v1H0zM0 1152h960v1H0zM0 1216h960v1H0zM0 1280h960v1H0zM0 1344h960v1H0zM0 1408h960v1H0z"/><g fill="currentColor" fill-opacity=".1" clip-path="url(#Grid:a)"><path d="M64 0h1v1477h-1zM128 0h1v1477h-1zM192 0h1v1477h-1zM256 0h1v1477h-1zM320 0h1v1477h-1zM384 0h1v1477h-1zM448 0h1v1477h-1zM512 0h1v1477h-1zM576 0h1v1477h-1zM640 0h1v1477h-1zM704 0h1v1477h-1zM768 0h1v1477h-1zM832 0h1v1477h-1zM896 0h1v1477h-1z"/></g><path stroke="currentColor" stroke-opacity=".1" d="M.5.5h959v1471H.5z"/><defs><clipPath id="Grid:a"><path fill="#fff" d="M0 0h960v1472H0z"/></clipPath></defs></svg>