<svg xmlns="http://www.w3.org/2000/svg" fill="none" viewBox="0 0 24 24" class="acv-icon"><path fill="currentColor" fill-rule="evenodd" d="M17.9997 12.0002c3.3136 0 5.9999 2.6862 5.9999 5.9999C23.9993 21.3135 21.3132 24 17.9997 24c-3.3135 0-5.9997-2.6865-5.9999-5.9999 0-3.3137 2.6862-5.9999 5.9999-5.9999Zm.707 2.2919c-.3905-.3901-1.0236-.3901-1.414 0l-3 3c-.3905.3905-.3905 1.0245 0 1.415.3905.3902 1.0236.3902 1.4141 0l1.2929-1.2929V21c.0002.5521.4478 1 1 1 .5521 0 .9997-.4479 1-1v-3.5858l1.2929 1.2929c.3905.3902 1.0236.3902 1.414 0 .3906-.3905.3906-1.0245 0-1.415l-2.9999-3Z" clip-rule="evenodd"/><path fill="currentColor" d="M9.9998 18.0001c.0001 1.8882.6558 3.6228 1.75 4.9911a4.287 4.287 0 0 1-1.9765-.6133l-4.083-2.4736c.768-.0182 1.5317-.2419 2.2266-.6669l2.0839-1.2764c-.0001.0129-.001.0262-.001.0391ZM8.2098 2.5316c-.329.6308-.5077 1.3438-.5078 2.0888v7.1142c0 1.4949.7958 2.9031 2.0713 3.6757l.5507.333a7.951 7.951 0 0 0-.2402 1.0937l-2.6464 1.6182c-1.1292.6902-2.4918.7174-3.6484.0683-.5531-.3108-1.002-.74-1.3174-1.2519-.3382-.6217-.5302-1.3308-.5302-2.0576V8.7444c0-1.4949.7961-2.9031 2.0761-3.6757l4.1923-2.537Z"/><path fill="currentColor" d="M10.4402 1.4799c.7773-.4435 1.6558-.581 2.4971-.4072.2331.0457.4664.1188.6904.2148.2056.0823.4067.179.5986.2978l5.7558 3.4834c1.2799.7726 2.076 2.1808 2.0761 3.6757l-.0029 2.3603c-1.1894-.7011-2.5751-1.1045-4.0556-1.1045-.3105 0-.6167.0183-.918.0528l-2.9833-1.7842a4.1197 4.1197 0 0 0-4.202-.0137l-1.2794.755V4.6203c.0002-1.3163.6806-2.4868 1.8232-3.1405Z"/></svg>