<svg xmlns="http://www.w3.org/2000/svg" fill="none" viewBox="0 0 16 16" class="acv-icon"><path fill="currentColor" fill-rule="evenodd" d="M2.2929.2929c.3905-.3905 1.0237-.3905 1.4142 0l2 2c.3905.3905.3905 1.0237 0 1.4142-.3905.3905-1.0237.3905-1.4142 0L4 3.4142v7.0706l4-4V2c0-.5523.4477-1 1-1h4.4848l.1862-.1862c.4184-.4184 1.0968-.4184 1.5152 0 .4184.4184.4184 1.0968 0 1.5152L2.329 15.1862c-.4184.4184-1.0968.4184-1.5152 0-.4184-.4184-.4184-1.0968 0-1.5152L2 12.4848V3.4142l-.2929.293c-.3905.3904-1.0237.3904-1.4142 0-.3905-.3906-.3905-1.0238 0-1.4143l2-2ZM11.4848 3H10v1.4848L11.4848 3Z" clip-rule="evenodd"/><path fill="currentColor" d="m5.4142 14 2-2h5.1716l-.2929-.2929c-.3905-.3905-.3905-1.0237 0-1.4142.3905-.3905 1.0237-.3905 1.4142 0l2 2c.3905.3905.3905 1.0237 0 1.4142l-2 2c-.3905.3905-1.0237.3905-1.4142 0-.3905-.3905-.3905-1.0237 0-1.4142L12.5858 14H5.4142ZM11.4142 8 15 4.4142V7c0 .5523-.4477 1-1 1h-2.5858Z"/></svg>