<svg xmlns="http://www.w3.org/2000/svg" fill="none" viewBox="0 0 32 32" class="acv-icon"><path fill="currentColor" d="M23 1h4v15.5446c-.9329-.352-1.944-.5446-3-.5446-.3383 0-.672.0198-1 .0582V1Z"/><path fill="currentColor" fill-rule="evenodd" d="M17.5 24.5c0 .8859.1772 1.7304.4982 2.5.9795 2.349 3.2978 4 6.0018 4 3.5899 0 6.5-2.9101 6.5-6.5S27.5899 18 24 18s-6.5 2.9101-6.5 6.5Zm7.5833-.6346V27.75c0 .5983-.485 1.0833-1.0833 1.0833-.5983 0-1.0833-.485-1.0833-1.0833v-3.8846L21.516 25.266c-.423.4231-1.109.4231-1.532 0-.4231-.423-.4231-1.109 0-1.532l3.25-3.25c.423-.4231 1.109-.4231 1.532 0l3.25 3.25c.4231.423.4231 1.109 0 1.532-.423.4231-1.109.4231-1.532 0l-1.4007-1.4006Z" clip-rule="evenodd"/><path fill="currentColor" d="M16 21.6209c.7166-1.9909 2.1552-3.6371 4-4.6228V7h-4v14.6209ZM2 18h4v9H2v-9ZM9 13h4v14H9V13Z"/></svg>