<svg xmlns="http://www.w3.org/2000/svg" fill="none" viewBox="0 0 16 16" class="acv-icon"><path fill="currentColor" d="M10.7433 1.6496a.7501.7501 0 0 0-1.4865 0c-.0659.4596-.1694.9157-.2967 1.3617-.225.7889-.553 1.568-.967 1.9818-.4139.414-1.193.742-1.9818.967-.4465.1274-.9013.2323-1.3614.2966a.75.75 0 0 0-.0002 1.4865c.4595.0659.9156.1694 1.3616.2967.7889.225 1.568.553 1.9818.967.414.4139.742 1.1929.967 1.9818.1272.4459.2308.9021.2966 1.3614a.7501.7501 0 0 0 1.4866.0003c.0658-.4596.1693-.9157.2966-1.3617.2251-.7889.5531-1.568.967-1.9818.4139-.414 1.1929-.742 1.9818-.967.4465-.1274.9013-.2323 1.3614-.2966a.75.75 0 0 0 .0003-1.4865c-.4602-.0642-.9152-.1693-1.3617-.2967-.7889-.225-1.5679-.553-1.9818-.967-.4139-.4139-.7419-1.193-.967-1.9818-.1273-.446-.2308-.9021-.2966-1.3617ZM3.5 8.5c.219 0 .4043.162.4336.379.0384.268.0988.534.173.7943.1313.4601.3226.9146.564 1.156.2415.2415.696.4328 1.1561.5641.2602.0742.5263.1346.7944.173a.4375.4375 0 0 1-.0002.8672c-.2684.0375-.5337.0987-.7942.173-.4601.1313-.9146.3226-1.156.5641-.2415.2414-.4328.6959-.5641 1.156-.0742.2602-.1346.5263-.173.7943a.4375.4375 0 0 1-.8672-.0001c-.0375-.2684-.0987-.5337-.173-.7942-.1313-.4601-.3227-.9146-.564-1.156-.2415-.2415-.696-.4328-1.1561-.5641-.2602-.0742-.5263-.1346-.7943-.173a.4375.4375 0 0 1 0-.8672c.2681-.0384.5341-.0988.7943-.173.4601-.1313.9146-.3226 1.156-.5641.2414-.2414.4328-.6959.5641-1.156.0742-.2602.1346-.5263.173-.7943A.4375.4375 0 0 1 3.5 8.5Z"/></svg>