<svg xmlns="http://www.w3.org/2000/svg" fill="none" viewBox="0 0 32 32" class="acv-icon"><path fill="currentColor" fill-rule="evenodd" d="M10 10.4115c0 .6084-.2853 1.1753-.723 1.5979-1.427 1.3778-2.6174 3.45-3.1082 5.4978-.1812.7564 2.6833.91 2.8312-.0072.4105-2.5466 1.8216-4.9144 3.5588-6.0812.1272-.0855.2959-.0641.4043.0443l1.3298 1.3298c.3905.3905 1.0237.3905 1.4142 0l1.695-1.695c.097-.097.244-.1256.3672-.0651C19.852 12.056 21.5487 14.6089 22 17.5c.1231.7887 3.9973.7425 3.7912-.0443-.3787-1.4458-1.154-2.9132-1.797-4.17C22.9961 11.3349 22 9.388 22 6.75 22 3.2982 19.3137.5 16 .5s-6 2.7982-6 6.25v3.6615Zm4.5836-2.8505c.1206-.0106.2288-.0836.2698-.1975C14.9474 7.102 15 6.8092 15 6.5c0-1.1046-.6716-2-1.5-2s-1.5.8954-1.5 2c0 .4742.1238.9098.3305 1.2526.0711.1178.2159.1614.3489.126a7.7745 7.7745 0 0 1 .0984-.0256A.9994.9994 0 0 1 12.3 7c0-.5523.4477-1 1-1s1 .4477 1 1a.9957.9957 0 0 1-.2101.6133c.1605-.0199.3253-.0374.4937-.0523Zm4.2047-.036c-.0576.1285-.1998.1905-.3387.167a12.1766 12.1766 0 0 0-.3767-.0574A.9959.9959 0 0 0 18.3 7c0-.5523-.4477-1-1-1s-1 .4477-1 1c0 .1845.0499.3573.1371.5057l-.0202-.0006c-.1312-.0032-.2514-.0808-.2922-.2056C16.0445 7.0547 16 6.7843 16 6.5c0-1.1046.6716-2 1.5-2s1.5.8954 1.5 2c0 .3746-.0773.7252-.2117 1.025Z" clip-rule="evenodd"/><path fill="currentColor" d="M12.4996 29.9265c-.125-.0399-.2067-.1589-.2027-.2902l.0736-2.4241c.0068-.2236.2484-.3627.4539-.2743 1.6739.72 4.5642.4846 6.0717-.5263.2086-.1399.5065-.0026.5127.2485l.0742 2.9762c.0033.1307-.0783.2489-.2028.2886-1.8673.5961-4.9132.5975-6.7806.0016ZM10 29.0676v-7.5579c0-.5576-.4221-1.0097-.9428-1.0097-.3335 0-.567.1889-.781.4182-.5208.5577-1.365.5577-1.8857 0-.2141-.2293-.4475-.4182-.781-.4182-.819 0-.9428.7957-.9428 1.4279 0 .7886-.597 1.428-1.3334 1.428-.6588 0-1.3333.1976-1.3333 1.0097 0 .2677.0993.5246.2761.7139l4.6667 4.9978c.408.437.9555.4287 1.5014.4204.0742-.0011.1487-.0022.2225-.0022.7363 0 1.3333-.6393 1.3333-1.4279ZM22 21.5101v7.5613c0 .789.597 1.4286 1.3333 1.4286.0739 0 .1481.0011.2224.0022.5459.0083 1.0934.0166 1.5015-.4206l4.6667-5c.1768-.1895.2761-.4464.2761-.7143 0-.5579-.4221-1.0102-.9428-1.0102-.889 0-1.7239-.3903-1.7239-1.4285 0-.6325-.1239-1.4286-.9428-1.4286-.3335 0-.5669.189-.781.4184-.5207.5579-1.3649.5579-1.8856 0-.2142-.2294-.4476-.4184-.7811-.4184-.5207 0-.9428.4523-.9428 1.0101Z"/></svg>