<svg xmlns="http://www.w3.org/2000/svg" fill="none" viewBox="0 0 16 16" class="acv-icon"><path fill="currentColor" d="M0 2c0-.5523.4477-1 1-1h13.9997c.5523 0 1 .4477 1 1v8.1884c-.2782-.1316-.5833-.1886-.885-.1886h-1.1149V3H2v7h9.7467c-.6136 0-1.1009.2518-1.465.6278l-.0326.0337-1.0726 1.3384h-.1767v.2204l-.047.0588c-.643.7026-.643 1.739 0 2.4416l.2237.2791H4.9999c-.5523 0-1-.4477-1-.9999 0-.5523.4477-1 1-1h2v-1h-6c-.5522 0-.9999-.4477-.9999-1V2Z"/><path fill="currentColor" d="M4 4c-.5523 0-1 .4476-1 1v2.9999c0 .5522.4477 1 1 1 .5522 0 1-.4478 1-1v-3c0-.5523-.4478-1-1-1ZM5.9999 5c0-.5524.4477-1 1-1s1 .4476 1 1v2.9999c0 .5522-.4477 1-1 1s-1-.4478-1-1v-3ZM11.9998 5.9999c.5523 0 1-.4477 1-1s-.4477-1-1-1-1 .4477-1 1 .4477 1 1 1Z"/><path fill="currentColor" fill-rule="evenodd" d="M11.0001 11.3233c.1983-.2048.4347-.3235.7466-.3235h3.368c.5767 0 .8853.3424.8853.8333v3.3333c0 .4909-.3086.8333-.8853.8333h-3.368c-.3119 0-.5483-.1186-.7466-.3235L9.709 14.0651c-.318-.3283-.318-.8024 0-1.1307L11 11.3233Zm.9997 2.1765a.5.5 0 1 1-1 0 .5.5 0 0 1 1 0Z" clip-rule="evenodd"/></svg>