<svg xmlns="http://www.w3.org/2000/svg" fill="none" viewBox="0 0 16 16" class="acv-icon"><path fill="currentColor" d="M6 2c0-1.1046.8954-2 2-2s2 .8954 2 2v2.5h3.5c.8284 0 1.5.6716 1.5 1.5v.5c0 .5523-.4477 1-1 1H2c-.5523 0-1-.4477-1-1V6c0-.8284.6716-1.5 1.5-1.5H6V2ZM3 9c-.5523 0-.9969.4475-.977.9994l.0058.1578c.0736 2.0044.1544 4.2054-1.5673 5.4966C.3137 15.7647.3921 16 .577 16h2.5947c1.943 0 2.456-2.0107 2.8284-3.5.5941 1.0397.4798 2.3569-.2996 3.2661-.0787.0919-.0134.2339.1076.2339h5.9394c.1661 0 .3299-.0387.4785-.1129A3.2095 3.2095 0 0 0 14 13.0165V10c0-.5523-.4477-1-1-1H3Z"/></svg>