<svg xmlns="http://www.w3.org/2000/svg" fill="none" viewBox="0 0 32 32" class="acv-icon"><path fill="currentColor" fill-rule="evenodd" d="M7 5c-1.1046 0-2 .8954-2 2v6c0 1.1046.8954 2 2 2h18c1.1046 0 2-.8954 2-2V7c0-1.1046-.8954-2-2-2H7Zm17 5c0 .5523-.4477 1-1 1s-1-.4477-1-1 .4477-1 1-1 1 .4477 1 1ZM8 8c0-.5523.4477-1 1-1s1 .4477 1 1v4c0 .5523-.4477 1-1 1s-1-.4477-1-1V8Zm5-1c-.5523 0-1 .4477-1 1v4c0 .5523.4477 1 1 1s1-.4477 1-1V8c0-.5523-.4477-1-1-1ZM7 17c-1.1046 0-2 .8954-2 2v6c0 1.1046.8954 2 2 2h18c1.1046 0 2-.8954 2-2v-6c0-1.1046-.8954-2-2-2H7Zm16 6c.5523 0 1-.4477 1-1s-.4477-1-1-1-1 .4477-1 1 .4477 1 1 1ZM8 20c0-.5523.4477-1 1-1s1 .4477 1 1v4c0 .5523-.4477 1-1 1s-1-.4477-1-1v-4Zm5-1c-.5523 0-1 .4477-1 1v4c0 .5523.4477 1 1 1s1-.4477 1-1v-4c0-.5523-.4477-1-1-1Z" clip-rule="evenodd"/></svg>