<svg xmlns="http://www.w3.org/2000/svg" fill="none" viewBox="0 0 16 16" class="acv-icon"><path fill="currentColor" fill-rule="evenodd" d="M5 5.2058c0 .3042-.1426.5876-.3615.7989-.7135.6889-1.3087 1.725-1.554 2.749-.0907.3781 1.3416.455 1.4155-.0037.201-1.247.8818-2.408 1.7256-3.0036.0939-.0663.2208-.05.3021.0313l.6187.6187a.5.5 0 0 0 .7072 0l.8072-.8072c.0728-.0728.1831-.0946.2745-.0472C9.9534 6.0696 10.778 7.328 11 8.75c.0616.3943 1.9987.3712 1.8956-.0221-.1894-.723-.577-1.4566-.8985-2.085C11.4981 5.6674 11 4.694 11 3.375 11 1.6491 9.6569.25 8 .25S5 1.6491 5 3.375v1.8308ZM7.243 3.785c.0904-.0086.1722-.0631.1993-.1498A1.29 1.29 0 0 0 7.5 3.25c0-.5523-.3358-1-.75-1s-.75.4477-.75 1c0 .2172.052.4182.1401.5821.0471.0876.1524.1188.2488.0944a.5.5 0 1 1 .656-.1198 7.02 7.02 0 0 1 .198-.0217Zm2.1738-.0767c-.0382.0985-.1456.1448-.25.1282a6.1678 6.1678 0 0 0-.1304-.0192.5.5 0 1 0-.818-.0645c-.0716-.0018-.1374-.0442-.1592-.1126A1.289 1.289 0 0 1 8 3.25c0-.5523.3358-1 .75-1s.75.4477.75 1c0 .1652-.03.321-.0832.4583Z" clip-rule="evenodd"/><path fill="currentColor" d="M6.2498 14.9633a.147.147 0 0 1-.1014-.1451l.0368-1.2121c.0034-.1118.1242-.1814.227-.1372.837.36 2.2821.2424 3.0358-.2631.1044-.07.2533-.0013.2564.1242l.0371 1.4882a.147.147 0 0 1-.1014.1443c-.9336.298-2.4566.2987-3.3903.0008ZM5 14.5338v-3.779c0-.2788-.211-.5048-.4714-.5048-.1668 0-.2835.0944-.3905.2091-.2604.2788-.6825.2788-.9428 0-.1071-.1147-.2238-.2091-.3906-.2091-.4094 0-.4714.3979-.4714.714 0 .3943-.2984.7139-.6666.7139-.3295 0-.6667.0988-.6667.5049 0 .1339.0497.2623.138.357l2.3334 2.4988c.204.2185.4777.2144.7507.2103a6.8959 6.8959 0 0 1 .1112-.0011c.3682 0 .6667-.3197.6667-.714ZM11 10.7551v3.7806c0 .3945.2985.7143.6667.7143.0369 0 .074.0006.1111.0011.273.0042.5468.0083.7508-.2103l2.3333-2.5c.0884-.0947.1381-.2232.1381-.3572 0-.2789-.2111-.505-.4714-.505-.4445 0-.8619-.1952-.8619-.7143 0-.3163-.062-.7143-.4714-.7143-.1668 0-.2835.0945-.3906.2092-.2603.279-.6824.279-.9428 0-.107-.1147-.2237-.2092-.3905-.2092-.2603 0-.4714.2261-.4714.5051Z"/></svg>