<svg xmlns="http://www.w3.org/2000/svg" fill="none" viewBox="0 0 32 32" class="acv-icon"><path fill="currentColor" fill-rule="evenodd" d="M3 3c-.5523 0-1 .4477-1 1v16c0 .5523.4477 1 1 1h5v-2c-.5523 0-1-.4477-1-1s.4477-1 1-1V9c0-.5523.4477-1 1-1h5V4c0-.5523-.4477-1-1-1H3Zm1 3.5a.5.5 0 0 1 .5-.5h7a.5.5 0 0 1 0 1h-7a.5.5 0 0 1-.5-.5ZM29 21h-5v-2c.5523 0 1-.4477 1-1s-.4477-1-1-1V9c0-.5523-.4477-1-1-1h-5V4c0-.5523.4477-1 1-1h10c.5523 0 1 .4477 1 1v16c0 .5523-.4477 1-1 1ZM20 6.5a.5.5 0 0 1 .5-.5h7a.5.5 0 0 1 0 1h-7a.5.5 0 0 1-.5-.5Z" clip-rule="evenodd"/><path fill="currentColor" fill-rule="evenodd" d="M10 11c0-.5523.4477-1 1-1h10c.5523 0 1 .4477 1 1v17c0 .5523-.4477 1-1 1H11c-.5523 0-1-.4477-1-1V11Zm7 15c0 .5523-.4477 1-1 1s-1-.4477-1-1 .4477-1 1-1 1 .4477 1 1Zm-4.5-12a.5.5 0 0 0 0 1h7a.5.5 0 0 0 0-1h-7Zm-.5 2.5a.5.5 0 0 1 .5-.5h7a.5.5 0 0 1 0 1h-7a.5.5 0 0 1-.5-.5Z" clip-rule="evenodd"/></svg>