<svg xmlns="http://www.w3.org/2000/svg" fill="none" viewBox="0 0 32 32" class="acv-icon"><path fill="currentColor" d="M28 15h-2v11H6V6h13V4H4v24h24V15ZM27.3867 5.6521c.7811.781.7811 2.0474 0 2.8285L26.8673 9 23 5.1327l.5194-.5194c.7811-.781 2.0474-.781 2.8285 0l1.0388 1.0388Z"/><path fill="currentColor" fill-rule="evenodd" d="m26 10-4-4-11 11 4 4 11-11Zm-11.0001 8.1716L13.8284 17l8.1715-8.1716L23.1715 10l-8.1716 8.1716Z" clip-rule="evenodd"/><path fill="currentColor" d="M10 22h4l-4-4v4Z"/></svg>