<svg xmlns="http://www.w3.org/2000/svg" fill="none" viewBox="0 0 32 32" class="acv-icon"><path fill="currentColor" fill-rule="evenodd" d="M28 8v9.2275l4 .8889V26c0 1.3205-.7721 2.115-1.9919 2.8012-.4603.2589-.9454.4358-1.6119.6788-.2109.0769-.44.1604-.6922.2553L27 30l-.704-.2647c-.252-.0948-.4814-.1784-.6922-.2553-.6665-.243-1.1516-.4199-1.6119-.6788-.8762-.4929-1.5214-1.0417-1.8154-1.8012H4V5h11v3h13ZM6 14h20v3.2275l-4 .8889V25H6V14Zm20-4v2H6V7h7v3h13Zm1 18c1.4069-.5291 3-1.2348 3-2v-6.2792L27 19l-3 .7208V26c0 .7652 1.5931 1.4709 3 2Zm1-3v-3h-2v3h2Z" clip-rule="evenodd"/></svg>