<svg xmlns="http://www.w3.org/2000/svg" fill="none" viewBox="0 0 32 32" class="acv-icon"><path fill="#9BC225" d="M23 26a2 2 0 1 0 0-4 2 2 0 0 0 0 4Z"/><path stroke="#243143" stroke-opacity=".1" d="M23 22.5a1.5 1.5 0 1 1 0 3 1.5 1.5 0 0 1 0-3Z"/><path fill="#FFC107" d="M29 26a2 2 0 1 0 0-4 2 2 0 0 0 0 4Z"/><path stroke="#243143" stroke-opacity=".1" d="M29 22.5a1.5 1.5 0 1 1 0 3 1.5 1.5 0 0 1 0-3Z"/><path fill="#EA3939" d="M29 32a2 2 0 1 0 0-4 2 2 0 0 0 0 4Z"/><path stroke="#243143" stroke-opacity=".1" d="M29 28.5a1.5 1.5 0 1 1 0 3 1.5 1.5 0 0 1 0-3Z"/><path fill="#408BEA" d="M23 32a2 2 0 1 0 0-4 2 2 0 0 0 0 4Z"/><path stroke="#243143" stroke-opacity=".1" d="M23 28.5a1.5 1.5 0 1 1 0 3 1.5 1.5 0 0 1 0-3Z"/></svg>