<svg xmlns="http://www.w3.org/2000/svg" fill="none" viewBox="0 0 24 24" class="acv-icon"><path fill="currentColor" fill-rule="evenodd" d="M2 9c0-.5523.4477-1 1-1h6c.5523 0 1 .4477 1 1v6c0 .5523-.4477 1-1 1H3c-.5523 0-1-.4477-1-1V9Zm6 1H4v4h4v-4Z" clip-rule="evenodd"/><path fill="currentColor" fill-rule="evenodd" d="M15 3c0-.5523.4477-1 1-1h6c.5523 0 1 .4477 1 1v6c0 .5523-.4477 1-1 1h-6c-.5523 0-1-.4477-1-1V7h-1v10h1v-2c0-.5523.4477-1 1-1h6c.5523 0 1 .4477 1 1v6c0 .5523-.4477 1-1 1h-6c-.5523 0-1-.4477-1-1v-2h-1c-1.1046 0-2-.8954-2-2v-4H9v-2h3V7c0-1.1046.8954-2 2-2h1V3Zm6 1h-4v4h4V4Zm0 12h-4v4h4v-4Z" clip-rule="evenodd"/></svg>