<svg xmlns="http://www.w3.org/2000/svg" fill="none" viewBox="0 0 32 32" class="acv-icon"><path fill="currentColor" d="M20 5.0066v-2a1.8693 1.8693 0 0 0-2-2h-4a1.8497 1.8497 0 0 0-1.8943 1.2085A1.8509 1.8509 0 0 0 12 3.0066v2H8v4h16v-4h-4Z"/><path fill="currentColor" d="M26 5.0066v24H6v-24a2.3 2.3 0 0 0-2 2v22a2 2 0 0 0 2 2h20a2.0004 2.0004 0 0 0 2-2v-22a2.2198 2.2198 0 0 0-2-2Z"/><path fill="currentColor" d="m22.7071 14.7071-1.4142-1.4142L14 20.5858l-3.2929-3.2929-1.4142 1.4142L14 23.4142l8.7071-8.7071Z"/></svg>