<svg xmlns="http://www.w3.org/2000/svg" fill="none" viewBox="0 0 32 32" class="acv-icon"><path fill="currentColor" fill-rule="evenodd" d="M28.2071 5.2071c.3905-.3905.3905-1.0237 0-1.4142-.3906-.3905-1.0237-.3905-1.4143 0l-4.4997 4.4998c-1.9414-1.2862-4.5828-1.0741-6.2932.6363l-1.3283 1.3283-1.4645-1.4644c-.3905-.3905-1.0237-.3905-1.4142 0-.3905.3905-.3905 1.0237 0 1.4142l10 10c.3905.3905 1.0237.3905 1.4142 0 .3905-.3905.3905-1.0237 0-1.4142l-1.4645-1.4645 1.3283-1.3283c1.7105-1.7105 1.9226-4.3519.6364-6.2932l4.4998-4.4998Zm-7.8787 10.7071-4.2427-4.2427 1.3283-1.3282c1.1716-1.1716 3.0711-1.1716 4.2427 0 1.1715 1.1715 1.1715 3.071 0 4.2426l-1.3283 1.3283ZM10.2071 11.7929c-.3905-.3905-1.0237-.3905-1.4142 0-.3905.3905-.3905 1.0237 0 1.4142l1.4645 1.4645-1.3286 1.3285c-1.7104 1.7105-1.9225 4.3519-.6364 6.2932L3.793 26.7929c-.3905.3905-.3905 1.0237 0 1.4142.3905.3905 1.0237.3905 1.4142 0l4.4996-4.4995c1.9413 1.2862 4.5827 1.074 6.2932-.6364l1.3285-1.3285 1.4645 1.4644c.3905.3905 1.0237.3905 1.4142 0 .3905-.3905.3905-1.0237 0-1.4142l-10-10Zm1.4645 4.2929 4.2426 4.2426-1.3285 1.3286c-1.1716 1.1715-3.0711 1.1715-4.2427 0-1.1715-1.1716-1.1715-3.0711 0-4.2427l1.3286-1.3285Z" clip-rule="evenodd"/></svg>