<svg xmlns="http://www.w3.org/2000/svg" fill="none" viewBox="0 0 24 24" class="acv-icon"><path fill="currentColor" d="M13.2981 12.288 12 13.5861l-1.2981-1.2981c-.3893-.3894-1.0206-.3894-1.4099 0-.3893.3893-.3893 1.0205 0 1.4099l1.2981 1.2981-1.2981 1.2981c-.3893.3893-.3893 1.0205 0 1.4099.3893.3893 1.0206.3893 1.4099 0L12 16.4059l1.2981 1.2981c.3893.3893 1.0206.3893 1.4099 0 .3893-.3894.3893-1.0206 0-1.4099l-1.2981-1.2981 1.2981-1.2981c.3893-.3894.3893-1.0206 0-1.4099-.3893-.3894-1.0206-.3894-1.4099 0ZM5 6c0 .5523.4477 1 1 1s1-.4477 1-1-.4477-1-1-1-1 .4477-1 1ZM8 6c0 .5523.4477 1 1 1s1-.4477 1-1-.4477-1-1-1-1 .4477-1 1ZM12 7c-.5523 0-1-.4477-1-1s.4477-1 1-1 1 .4477 1 1-.4477 1-1 1Z"/><path fill="currentColor" fill-rule="evenodd" d="M2.9918 2C2.4553 2 2 2.444 2 2.9918v18.0164c0 .5365.444.9918.9918.9918h18.0164c.5365 0 .9918-.444.9918-.9918V2.9918C22 2.4553 21.556 2 21.0082 2H2.9918ZM4 19.9975V10h16v10l-16-.0025ZM20 4H4v4h16V4Z" clip-rule="evenodd"/></svg>