<svg xmlns="http://www.w3.org/2000/svg" fill="none" viewBox="0 0 24 24" class="acv-icon"><path fill="currentColor" d="M2 4c0-.5523.4477-1 1-1s1 .4477 1 1-.4477 1-1 1-1-.4477-1-1ZM3 11c-.5523 0-1 .4477-1 1s.4477 1 1 1 1-.4477 1-1-.4477-1-1-1ZM3 19c-.5523 0-1 .4477-1 1s.4477 1 1 1 1-.4477 1-1-.4477-1-1-1ZM6 4c0-.5523.4477-1 1-1h14c.5523 0 1 .4477 1 1s-.4477 1-1 1H7c-.5523 0-1-.4477-1-1ZM6 12c0-.5523.4477-1 1-1h14c.5523 0 1 .4477 1 1s-.4477 1-1 1H7c-.5523 0-1-.4477-1-1ZM7 19c-.5523 0-1 .4477-1 1s.4477 1 1 1h14c.5523 0 1-.4477 1-1s-.4477-1-1-1H7Z"/></svg>