<svg xmlns="http://www.w3.org/2000/svg" fill="none" viewBox="0 0 16 16" class="acv-icon"><path fill="currentColor" fill-rule="evenodd" d="M8 0c4.4183 0 8 3.5817 8 8s-3.5817 8-8 8-8-3.5817-8-8 3.5817-8 8-8Zm0 14a.0488.0488 0 0 0 .0109-.0013.2105.2105 0 0 0 .0377-.0122c.0395-.0162.1135-.0548.2167-.1421.2156-.1824.4957-.5248.7743-1.082.2329-.4657.4387-1.0301.5995-1.6726A14.807 14.807 0 0 0 8 11c-.5671 0-1.1155.0314-1.6391.0898.1608.6425.3666 1.2069.5995 1.6726.2786.5572.5587.8996.7743 1.082.1032.0873.1772.1259.2167.1421a.2105.2105 0 0 0 .0377.0122A.0488.0488 0 0 0 8 14ZM6.044 9.1131A13.9868 13.9868 0 0 1 6 8c0-.3825.0152-.7542.044-1.1131A16.77 16.77 0 0 0 8 6.9999c.6686 0 1.3236-.0386 1.956-.113C9.9849 7.2457 10 7.6175 10 8c0 .3825-.0152.7543-.044 1.1131A16.7706 16.7706 0 0 0 8 9a16.77 16.77 0 0 0-1.956.1131Zm5.5628 2.35c-.1479.6152-.3341 1.1867-.5522 1.7022a6.0289 6.0289 0 0 0 1.5816-1.3564 9.7447 9.7447 0 0 0-1.0294-.3458Zm2.0304-1.4035c-.5247-.2275-1.0967-.422-1.7055-.58C11.9766 9 12 8.5056 12 8c0-.5055-.0234-1-.0683-1.4796.6088-.158 1.1808-.3525 1.7054-.58A5.9874 5.9874 0 0 1 14 8a5.9893 5.9893 0 0 1-.3628 2.0596Zm-9.569-.58c-.6087.158-1.1808.3525-1.7054.58A5.9881 5.9881 0 0 1 2 8c0-.7236.1281-1.4173.3628-2.0596.5246.2275 1.0967.422 1.7055.58C4.0234 7 4 7.4944 4 8c0 .5055.0234 1 .0683 1.4796Zm-.7044 2.3293a9.749 9.749 0 0 1 1.0294-.3458c.148.6152.334 1.1867.5522 1.7022a6.029 6.029 0 0 1-1.5816-1.3564ZM8 4.9999c.567 0 1.1155-.0313 1.639-.0897-.1607-.6425-.3666-1.2069-.5994-1.6726-.2786-.5572-.5587-.8996-.7743-1.082-.1032-.0873-.1772-.126-.2167-.142a.2146.2146 0 0 0-.0377-.0123.0516.0516 0 0 0-.0218 0 .2146.2146 0 0 0-.0377.0122c-.0395.0162-.1135.0548-.2167.1421-.2156.1824-.4957.5248-.7743 1.082-.2329.4657-.4387 1.03-.5995 1.6726C6.8845 4.9686 7.433 5 8 5Zm3.6068-.463a9.7448 9.7448 0 0 0 1.0294-.3458 6.0297 6.0297 0 0 0-1.5816-1.3564c.2181.5155.4043 1.087.5522 1.7022ZM4.9454 2.8346c-.2182.5156-.4043 1.0871-.5522 1.7023a9.7489 9.7489 0 0 1-1.0294-.3458 6.0297 6.0297 0 0 1 1.5816-1.3564Z" clip-rule="evenodd"/></svg>