<svg xmlns="http://www.w3.org/2000/svg" fill="none" viewBox="0 0 16 16" class="acv-icon"><path fill="currentColor" d="M3 4h3.5858l-.293.2929c-.3904.3905-.3904 1.0237 0 1.4142.3906.3905 1.0238.3905 1.4143 0l2-2c.3905-.3905.3905-1.0237 0-1.4142l-2-2c-.3905-.3905-1.0237-.3905-1.4142 0-.3905.3905-.3905 1.0237 0 1.4142L6.5858 2H3C1.3432 2 0 3.3432 0 5v6c0 1.6569 1.3432 3 3 3 .5523 0 1-.4477 1-1s-.4477-1-1-1-1-.4477-1-1V5c0-.5523.4477-1 1-1ZM13 12H9.4142l.293-.2929c.3904-.3905.3904-1.0237 0-1.4142-.3906-.3905-1.0238-.3905-1.4143 0l-2 2c-.3905.3905-.3905 1.0237 0 1.4142l2 2c.3905.3905 1.0237.3905 1.4142 0 .3905-.3905.3905-1.0237 0-1.4142L9.4142 14H13c1.6569 0 3-1.3431 3-3V5c0-1.6568-1.3431-3-3-3-.5523 0-1 .4477-1 1s.4477 1 1 1 1 .4477 1 1v6c0 .5523-.4477 1-1 1Z"/></svg>