<svg xmlns="http://www.w3.org/2000/svg" fill="none" viewBox="0 0 32 32" class="acv-icon"><path stroke="currentColor" stroke-width="2" d="M16 5c5.002 0 9 3.584 9 9 0 2.137-.547 3.672-1.534 5.107-1.023 1.488-2.52 2.873-4.507 4.704l-.005.004c-.902.831-1.893 1.744-2.954 2.78-1.061-1.036-2.052-1.949-2.954-2.78l-.005-.004c-1.988-1.831-3.484-3.216-4.507-4.704C7.546 17.673 7 16.137 7 14c0-5.416 3.998-9 9-9Zm0 12c2.017 0 4-1.752 4-4s-1.983-4-4-4c-.963 0-1.959.32-2.727 1.003C12.487 10.702 12 11.729 12 13s.487 2.298 1.273 2.997C14.041 16.68 15.037 17 16 17Z"/></svg>