<svg xmlns="http://www.w3.org/2000/svg" fill="none" viewBox="0 0 24 24" class="acv-icon"><path fill="currentColor" d="M18 9c-2.6906 0-5-1.1547-5-3s2.3094-3 5-3 5 1.1547 5 3-2.3094 3-5 3ZM13 10.1663C13 11.9093 15.3094 13 18 13s5-1.0907 5-2.8337c0-.4308-.1411-.8218-.3942-1.1663 0 0-1.8422 1.4667-4.6058 1.4667C15.2364 10.4667 13.3942 9 13.3942 9c-.2531.3445-.3942.7355-.3942 1.1663ZM13 14.1663C13 15.9093 15.3094 17 18 17s5-1.0907 5-2.8337c0-.4308-.1411-.8218-.3942-1.1663 0 0-1.8422 1.4667-4.6058 1.4667-2.7636 0-4.6058-1.4667-4.6058-1.4667-.2531.3445-.3942.7355-.3942 1.1663ZM13 18.1663C13 19.9093 15.3094 21 18 21s5-1.0907 5-2.8337c0-.4308-.1411-.8218-.3942-1.1663 0 0-1.8422 1.4667-4.6058 1.4667-2.7636 0-4.6058-1.4667-4.6058-1.4667-.2531.3445-.3942.7355-.3942 1.1663ZM6 17c-2.6906 0-5-1.1547-5-3s2.3094-3 5-3 5 1.1547 5 3-2.3094 3-5 3ZM1 18.1663C1 19.9093 3.3094 21 6 21s5-1.0907 5-2.8337c0-.4308-.1411-.8218-.3942-1.1663 0 0-1.8422 1.4667-4.6058 1.4667C3.2364 18.4667 1.3941 17 1.3941 17c-.253.3445-.3941.7355-.3941 1.1663Z"/></svg>