<svg xmlns="http://www.w3.org/2000/svg" fill="none" viewBox="0 0 32 32" class="acv-icon"><path fill="currentColor" fill-rule="evenodd" d="M25 13c0-1.3356-.2909-2.6032-.8128-3.743L29 4.4443 27.5558 3 5 25.5558 6.4442 27 12 21.4442V25h8v-3.9355c2.9634-1.4727 5-4.5308 5-8.0645Zm-11.2544 6.6986L14 19.825V23h4v-3.175l1.1099-.5515C21.4741 18.0986 23 15.6866 23 13a6.9914 6.9914 0 0 0-.3535-2.2023l-8.9009 8.9009Z" clip-rule="evenodd"/><path fill="currentColor" d="M20 29v-2h-8v2h8ZM20.4002 7.5556l1.4203-1.4204C20.2513 4.8034 18.2195 4 16 4c-4.9706 0-9 4.0294-9 9 0 2.2195.8034 4.2513 2.1352 5.8205l1.4197-1.4196A6.9882 6.9882 0 0 1 9 13c0-3.866 3.134-7 7-7 1.667 0 3.198.5827 4.4002 1.5556Z"/></svg>