<svg xmlns="http://www.w3.org/2000/svg" fill="none" viewBox="0 0 24 24" class="acv-icon"><path fill="currentColor" d="M4 6c0 .5523.4477 1 1 1s1-.4477 1-1-.4477-1-1-1-1 .4477-1 1ZM19 7c-.5523 0-1-.4477-1-1s.4477-1 1-1 1 .4477 1 1-.4477 1-1 1ZM16 7c-.5523 0-1-.4477-1-1s.4477-1 1-1 1 .4477 1 1-.4477 1-1 1ZM4 12c0 .5523.4477 1 1 1s1-.4477 1-1-.4477-1-1-1-1 .4477-1 1ZM18 12c0 .5523.4477 1 1 1s1-.4477 1-1-.4477-1-1-1-1 .4477-1 1ZM15 12c0 .5523.4477 1 1 1s1-.4477 1-1-.4477-1-1-1-1 .4477-1 1Z"/><path fill="currentColor" fill-rule="evenodd" d="M2 2h20c.5523 0 1 .4477 1 1v12c0 .5523-.4477 1-1 1h-9v2.2676c.3036.1756.5568.4288.7324.7324H19c.5523 0 1 .4477 1 1s-.4477 1-1 1h-5.2676c-.3458.5978-.9921 1-1.7324 1s-1.3866-.4022-1.7324-1H5c-.5523 0-1-.4477-1-1s.4477-1 1-1h5.2676A2.0095 2.0095 0 0 1 11 18.2676V16H2c-.5523 0-1-.4477-1-1V3c0-.5523.4477-1 1-1Zm1 2v4h18V4H3Zm0 10v-4h18v4H3Z" clip-rule="evenodd"/></svg>