<svg xmlns="http://www.w3.org/2000/svg" fill="none" viewBox="0 0 16 16" class="acv-icon"><path fill="currentColor" d="M9 6v2.5853l.2929-.293c.3905-.3904 1.0237-.3904 1.4142 0 .3905.3906.3905 1.0237 0 1.4142l-2 1.9998c-.3905.3905-1.0237.3905-1.4142 0l-2-1.9998c-.3905-.3905-.3905-1.0236 0-1.4141.3905-.3905 1.0237-.3905 1.4142 0L7 8.5852V6C7 5.4477 7.4477 5 8 5s1 .4477 1 1Z"/><path fill="currentColor" fill-rule="evenodd" d="M1 0h14c.5523 0 1 .4477 1 1v14c0 .5523-.4477 1-1 1H1c-.5523 0-1-.4477-1-1V1c0-.5523.4477-1 1-1Zm1 3v11h12V3H2Z" clip-rule="evenodd"/></svg>