<svg xmlns="http://www.w3.org/2000/svg" fill="none" viewBox="0 0 32 32" class="acv-icon"><path fill="#407009" d="M16 3c7.1797 0 13 5.8203 13 13s-5.8203 13-13 13S3 23.1797 3 16 8.8203 3 16 3Z"/><path stroke="#243143" stroke-opacity=".1" d="M16 3.5c6.9036 0 12.5 5.5964 12.5 12.5S22.9036 28.5 16 28.5 3.5 22.9036 3.5 16 9.0964 3.5 16 3.5Z"/><path fill="#fff" d="m17 12.4142 1.2929 1.2929c.3905.3905 1.0237.3905 1.4142 0 .3905-.3905.3905-1.0237 0-1.4142l-3-3c-.3905-.3905-1.0237-.3905-1.4142 0l-3 3c-.3905.3905-.3905 1.0237 0 1.4142.3905.3905 1.0237.3905 1.4142 0L15 12.4142V22c0 .5523.4477 1 1 1s1-.4477 1-1v-9.5858Z"/></svg>