<svg xmlns="http://www.w3.org/2000/svg" fill="none" viewBox="0 0 24 24" class="acv-icon"><path fill="currentColor" fill-rule="evenodd" d="M22 21c.5525.0013 1 .4447 1 1 0 .5523-.4395 1-1.0025 1H2.0025C1.4488 23 1 22.5561 1 22c0-.5515.4382-.9987 1-1V8.8504c0-.5488.451-1.0695.9908-1.1604L6 7.1837v-4.185C6 2.4473 6.4558 2 7.0025 2h9.995C17.5512 2 18 2.4386 18 2.9987V10h3.0092c.5472 0 .9908.4475.9908.9985V21Zm-6 0V4H8v17h3v-.9906C11 19.4519 11.4439 19 12 19c.5523 0 1 .4434 1 1.0094v.9812C13 20.9938 16 21 16 21ZM6 21H4V9.5483l2-.3365V21Zm12-9v9h2v-9h-2Zm-6.9906-6C10.4434 6 10 6.4477 10 7c0 .5561.4519 1 1.0094 1h1.9812C13.5566 8 14 7.5523 14 7c0-.5561-.4519-1-1.0094-1h-1.9812ZM10 10c0-.5523.4434-1 1.0094-1h1.9812C13.5481 9 14 9.4439 14 10c0 .5523-.4434 1-1.0094 1h-1.9812C10.4519 11 10 10.5561 10 10Zm1.0094 2C10.4434 12 10 12.4477 10 13c0 .5561.4519 1 1.0094 1h1.9812C13.5566 14 14 13.5523 14 13c0-.5561-.4519-1-1.0094-1h-1.9812Zm0 3C10.4434 15 10 15.4477 10 16c0 .5561.4519 1 1.0094 1h1.9812C13.5566 17 14 16.5523 14 16c0-.5561-.4519-1-1.0094-1h-1.9812Z" clip-rule="evenodd"/></svg>