<svg xmlns="http://www.w3.org/2000/svg" fill="none" viewBox="0 0 32 32" class="acv-icon"><path fill="#EA3939" d="M32 26c0 3.3137-2.6863 6-6 6s-6-2.6863-6-6 2.6863-6 6-6 6 2.6863 6 6Z"/><path stroke="#243143" stroke-opacity=".1" d="M26 20.5c3.0376 0 5.5 2.4624 5.5 5.5s-2.4624 5.5-5.5 5.5-5.5-2.4624-5.5-5.5 2.4624-5.5 5.5-5.5Z"/><path fill="#fff" d="M23 27c.5523 0 1-.4477 1-1s-.4477-1-1-1-1 .4477-1 1 .4477 1 1 1ZM27 26c0 .5523-.4477 1-1 1s-1-.4477-1-1 .4477-1 1-1 1 .4477 1 1ZM30 26c0 .5523-.4477 1-1 1s-1-.4477-1-1 .4477-1 1-1 1 .4477 1 1Z"/></svg>