<svg xmlns="http://www.w3.org/2000/svg" fill="none" viewBox="0 0 16 16" class="acv-icon"><path fill="currentColor" d="m12.6061 6.0863-.0955.542c-.0959.5438-.6143.907-1.158.8111-.5437-.096-.9067-.6146-.8109-1.1585l.5208-2.9544c.0958-.5439.6143-.907 1.158-.8111l2.9533.5209c.5437.096.9067.6146.8108 1.1585-.0958.5438-.6143.907-1.158.8111l-.5631-.0993c.4756.9562.7312 2.0095.7312 3.0934 0 3.866-3.1328 7-6.9974 7C4.1328 15 1 11.866 1 8s3.1328-7 6.9973-7c.5521 0 .9997.4477.9997 1s-.4476 1-.9997 1c-2.7603 0-4.998 2.2386-4.998 5s2.2377 5 4.998 5c2.7604 0 4.9981-2.2386 4.9981-5 0-.6622-.1347-1.3098-.3893-1.9137Z"/></svg>