<svg xmlns="http://www.w3.org/2000/svg" fill="none" viewBox="0 0 24 24" class="acv-icon"><path fill="currentColor" d="M7 11c0-2.2091 1.7909-4 4-4 .5523 0 1-.4477 1-1s-.4477-1-1-1c-3.3137 0-6 2.6863-6 6 0 .5523.4477 1 1 1s1-.4477 1-1ZM11 13c1.1046 0 2-.8954 2-2s-.8954-2-2-2-2 .8954-2 2 .8954 2 2 2Z"/><path fill="currentColor" fill-rule="evenodd" d="M19.0007 5H21c.5523 0 1 .4477 1 1v3c.5523 0 1 .4477 1 1v10c0 1.6569-1.3431 3-3 3h-3c-1.4769 0-2.7045-1.0672-2.9538-2.4724A9.9945 9.9945 0 0 1 11 21C5.4771 21 1 16.5228 1 11 1 5.4771 5.4771 1 11 1c3.2716 0 6.1763 1.5711 8.0007 4ZM11 19c1.0609 0 2.0736-.2065 3-.5815V10c0-.5523.4477-1 1-1V6c0-.5523.4477-1 1-1h.2916C14.8814 3.7553 13.0289 3 11 3c-4.4183 0-8 3.5817-8 8s3.5817 8 8 8Zm6-12h3v2h-3V7Zm-1 13c0 .5523.4477 1 1 1h3c.5523 0 1-.4477 1-1v-9h-5v9Z" clip-rule="evenodd"/></svg>