<svg xmlns="http://www.w3.org/2000/svg" fill="none" viewBox="0 0 24 24" class="acv-icon"><path fill="currentColor" fill-rule="evenodd" d="M16 6.0065c3.8763.1019 7 1.3894 7 3.4935v10c0 2.1939-3.3959 3.5-7.5 3.5S8 21.6939 8 19.5v-1.5065c-3.8763-.1019-7-1.3894-7-3.4935v-10C1 2.3061 4.396 1 8.5 1 12.6041 1 16 2.3061 16 4.5v1.5065Zm5 5.969C19.6241 12.6382 17.6602 13 15.5 13s-4.1241-.3618-5.5-1.0245V14.5c0 .5675 2.4244 1.5 5.5 1.5s5.5-.9325 5.5-1.5v-2.5245Zm0 5V19.5c0 .5675-2.4244 1.5-5.5 1.5s-5.5-.9325-5.5-1.5v-2.5245C11.3759 17.6382 13.3398 18 15.5 18s4.1241-.3618 5.5-1.0245Zm-13-.9837v-2.9983c-1.962-.0516-3.731-.4069-5-1.018V14.5c0 .5364 2.1657 1.3988 5 1.4918ZM8 9.5v1.4918c-2.8343-.093-5-.9554-5-1.4918V6.9755C4.3759 7.6382 6.3398 8 8.5 8c.04 0 .08-.0001.1199-.0004C8.2216 8.4372 8 8.9396 8 9.5ZM8.5 6c3.0756 0 5.5-.9325 5.5-1.5S11.5756 3 8.5 3 3 3.9325 3 4.5 5.4244 6 8.5 6ZM21 9.5c0 .5675-2.4244 1.5-5.5 1.5S10 10.0675 10 9.5 12.4244 8 15.5 8s5.5.9325 5.5 1.5Z" clip-rule="evenodd"/></svg>