<svg xmlns="http://www.w3.org/2000/svg" fill="none" viewBox="0 0 16 16" class="acv-icon"><path fill="#EA3939" d="M7.1142.367c.4892-.4893 1.2824-.4893 1.7716 0l6.7473 6.7472c.4892.4892.4892 1.2824 0 1.7716l-6.7473 6.7473c-.4892.4892-1.2824.4892-1.7716 0L.3669 8.8858c-.4892-.4892-.4892-1.2824 0-1.7716L7.1142.3669Z"/><path stroke="#243143" stroke-opacity=".1" d="M7.4678.7207a.7526.7526 0 0 1 1.0644 0l6.7471 6.747a.7526.7526 0 0 1 0 1.0645l-6.747 6.7471a.7526.7526 0 0 1-1.0645 0L.7207 8.5323a.7526.7526 0 0 1 0-1.0645L7.4677.7207Z"/><path fill="#fff" d="M8 4c-.5523 0-1 .4477-1 1v2.5c0 .5523.4477 1 1 1s1-.4477 1-1V5c0-.5523-.4477-1-1-1ZM8 12c.5523 0 1-.4477 1-1s-.4477-1-1-1-1 .4477-1 1 .4477 1 1 1Z"/></svg>