<svg xmlns="http://www.w3.org/2000/svg" fill="none" viewBox="0 0 32 32" class="acv-icon"><path fill="currentColor" fill-rule="evenodd" d="M29 16c0 7.1797-5.8203 13-13 13S3 23.1797 3 16 8.8203 3 16 3s13 5.8203 13 13Zm-10 0c0 1.6569-1.3431 3-3 3s-3-1.3431-3-3 1.3431-3 3-3 3 1.3431 3 3Zm-5.636-7.5558c.5215-.1819.7967-.752.6148-1.2736-.1819-.5214-.7521-.7967-1.2736-.6148-2.8602.9978-5.1268 3.2561-6.1358 6.111-.184.5207.0889 1.092.6096 1.2761.5207.184 1.092-.0889 1.276-.6096.8069-2.2827 2.6222-4.0913 4.909-4.889Zm12.0668 10.8891c.1841-.5207-.0888-1.0921-.6096-1.2761-.5207-.1841-1.092.0889-1.276.6096-.8032 2.2724-2.6059 4.0751-4.8783 4.8783-.5207.184-.7937.7553-.6096 1.2761.184.5207.7553.7936 1.2761.6096 2.8421-1.0046 5.0929-3.2554 6.0974-6.0975Z" clip-rule="evenodd"/></svg>