<svg xmlns="http://www.w3.org/2000/svg" fill="none" viewBox="0 0 24 25" class="acv-icon"><path fill="currentColor" d="M5.5927 14.682c1.2197 1.1556 2.7816 1.9551 4.5184 2.2319a7.9367 7.9367 0 0 1 .501-1.7384c-3.3162-.4193-5.8803-3.2435-5.8803-6.665 0-3.7107 3.0158-6.7188 6.7359-6.7188 3.7202 0 6.736 3.008 6.736 6.7188a6.711 6.711 0 0 1-.2279 1.7395H18c.611 0 1.2061.0685 1.7778.1983A8.5114 8.5114 0 0 0 20 8.5105C20 3.8103 16.18 0 11.4677 0 6.7555 0 2.9355 3.8103 2.9355 8.5105c0 1.7844.5506 3.4405 1.4915 4.8086l-3.8835 3.526-.0786.0809a.8943.8943 0 0 0 .0191 1.1847c.334.3658.902.3924 1.2688.0593l3.8399-3.488Z"/><path fill="currentColor" d="M12.75 4.75a.75.75 0 0 0-1.5 0v4.1893l-2.2803 2.2804a.75.75 0 1 0 1.0606 1.0606l2.5-2.5A.7498.7498 0 0 0 12.75 9.25v-4.5Z"/><path fill="currentColor" fill-rule="evenodd" d="M18 24.25c3.3137 0 6-2.6863 6-6s-2.6863-6-6-6-6 2.6863-6 6 2.6863 6 6 6Zm1-6.5858V21.25c0 .5523-.4477 1-1 1s-1-.4477-1-1v-3.5858l-1.2929 1.2929c-.3905.3905-1.0237.3905-1.4142 0-.3905-.3905-.3905-1.0237 0-1.4142l3-3c.3905-.3905 1.0237-.3905 1.4142 0l3 3c.3905.3905.3905 1.0237 0 1.4142-.3905.3905-1.0237.3905-1.4142 0L19 17.6642Z" clip-rule="evenodd"/></svg>