<svg xmlns="http://www.w3.org/2000/svg" fill="none" viewBox="0 0 24 24" class="acv-icon"><path fill="currentColor" d="M12 14c1.1046 0 2-.8954 2-2s-.8954-2-2-2-2 .8954-2 2 .8954 2 2 2Z"/><path fill="currentColor" fill-rule="evenodd" d="M22 12c0 2.4013-.8464 4.6049-2.2571 6.3287l1.9642 1.9642c.3905.3905.3905 1.0237 0 1.4142-.3905.3905-1.0237.3905-1.4142 0l-1.9642-1.9642C16.6049 21.1536 14.4013 22 12 22c-2.4013 0-4.6049-.8464-6.3287-2.2571L3.707 21.7071c-.3905.3905-1.0237.3905-1.4142 0-.3905-.3905-.3905-1.0237 0-1.4142l1.9641-1.9642C2.8464 16.6049 2 14.4013 2 12c0-2.4013.8464-4.6049 2.257-6.3287L2.293 3.707c-.3905-.3905-.3905-1.0237 0-1.4142.3905-.3905 1.0237-.3905 1.4142 0L5.6713 4.257C7.395 2.8464 9.5987 2 12 2c2.4013 0 4.6049.8464 6.3287 2.257l1.9642-1.9641c.3905-.3905 1.0237-.3905 1.4142 0 .3905.3905.3905 1.0237 0 1.4142l-1.9642 1.9642C21.1536 7.395 22 9.5987 22 12Zm-2 0c0 1.8487-.6271 3.551-1.6801 4.9056l-2.1128-2.1127c-.3905-.3905-1.0237-.3905-1.4142 0-.3905.3905-.3905 1.0237 0 1.4142l2.1127 2.1128C15.551 19.3729 13.8487 20 12 20c-1.8487 0-3.551-.6271-4.9056-1.6801l2.1127-2.1128c.3905-.3905.3905-1.0237 0-1.4142-.3905-.3905-1.0237-.3905-1.4142 0L5.68 16.9056C4.6271 15.551 4 13.8487 4 12c0-1.8487.627-3.551 1.6801-4.9056L7.793 9.207c.3905.3905 1.0237.3905 1.4142 0 .3905-.3905.3905-1.0237 0-1.4142L7.0944 5.68C8.449 4.6271 10.1513 4 12 4c1.8487 0 3.551.627 4.9056 1.6801L14.7929 7.793c-.3905.3905-.3905 1.0237 0 1.4142.3905.3905 1.0237.3905 1.4142 0l2.1128-2.1127C19.3729 8.449 20 10.1513 20 12Z" clip-rule="evenodd"/></svg>