<svg xmlns="http://www.w3.org/2000/svg" fill="none" viewBox="0 0 24 24" class="acv-icon"><path fill="currentColor" d="M8.9899 11.9999c0 1.3992-.5201 2.1596-1.49 2.1596s-1.49-.7604-1.49-2.1596c0-1.3993.5202-2.1597 1.49-2.1597.9699 0 1.49.7604 1.49 2.1597Z"/><path fill="currentColor" fill-rule="evenodd" d="M1 19.7129V4.2869a1.5 1.5 0 0 1 1.2719-1.4826l9.9999-1.5385c.9086-.1397 1.7281.5633 1.7281 1.4826v18.503c0 .9193-.8195 1.6223-1.7281 1.4825l-10-1.5384A1.5 1.5 0 0 1 1 19.7129Zm9.9999-7.713c0-2.6008-1.5462-4-3.5-4C5.5321 8 4 9.3991 4 12c0 2.5855 1.5322 3.9999 3.5 3.9999 1.9538 0 3.5-1.3992 3.5-3.9999Z" clip-rule="evenodd"/><path fill="currentColor" d="m21.9998 8.915-6.5 2.7885v2.164l6.5-2.6577v6.79h-6.5v2h7.5c.5522 0 1-.4477 1-1V8.5205a1.0326 1.0326 0 0 0 0-.043V5c0-.5523-.4478-1-1-1h-7.5v2h6.5v2.915Z"/></svg>