<svg xmlns="http://www.w3.org/2000/svg" fill="none" viewBox="0 0 24 24" class="acv-icon"><path fill="currentColor" fill-rule="evenodd" d="M5.5 2C4.6716 2 4 2.6716 4 3.5v17c0 .8284.6716 1.5 1.5 1.5h13c.8284 0 1.5-.6716 1.5-1.5V9h-5c-1.1046 0-2-.8954-2-2V2H5.5Zm1.8287 6.2325c.3946-.347.9888-.3002 1.327.1047l2.1177 2.5345c.3021.3615.3021.8951 0 1.2566l-2.1176 2.5345c-.3383.4049-.9325.4518-1.3271.1047-.3947-.347-.4404-.9565-.1021-1.3614L8.8192 11.5 7.2266 9.5939c-.3383-.4049-.2926-1.0144.102-1.3614ZM11 16c-.5523 0-1 .4477-1 1s.4477 1 1 1h4c.5523 0 1-.4477 1-1s-.4477-1-1-1h-4Z" clip-rule="evenodd"/><path fill="currentColor" d="M16 7c-.5523 0-1-.4477-1-1V2.6035c0-.2227.2693-.3342.4268-.1767l4.1464 4.1464c.1575.1575.046.4268-.1768.4268H16Z"/></svg>