<svg xmlns="http://www.w3.org/2000/svg" fill="none" viewBox="0 0 16 16" class="acv-icon"><path fill="currentColor" fill-rule="evenodd" d="M8.8293 3H14c.5523 0 1 .4477 1 1s-.4477 1-1 1H8.8293C8.4175 6.1652 7.3063 7 6 7c-1.3062 0-2.4175-.8348-2.8293-2H2c-.5523 0-1-.4477-1-1s.4477-1 1-1h1.1707C3.5825 1.8348 4.6937 1 6 1c1.3062 0 2.4175.8348 2.8293 2ZM6 5c.5523 0 1-.4477 1-1s-.4477-1-1-1-1 .4477-1 1 .4477 1 1 1ZM12.8293 11H14c.5523 0 1 .4477 1 1s-.4477 1-1 1h-1.1707c-.4118 1.1652-1.5231 2-2.8293 2s-2.4175-.8348-2.8293-2H2c-.5523 0-1-.4477-1-1s.4477-1 1-1h5.1707C7.5825 9.8348 8.6937 9 10 9c1.3062 0 2.4175.8348 2.8293 2ZM10 13c.5523 0 1-.4477 1-1s-.4477-1-1-1-1 .4477-1 1 .4477 1 1 1Z" clip-rule="evenodd"/></svg>