<svg xmlns="http://www.w3.org/2000/svg" fill="none" viewBox="0 0 16 16" class="acv-icon"><path fill="currentColor" d="M3 3H2v11h3v2H1l-.1025-.0049a1.0009 1.0009 0 0 1-.8926-.8926L0 15V2c0-.5523.4477-1 1-1h2v2ZM12 11c.5523 0 1 .4477 1 1s-.4477 1-1 1h-2c-.5523 0-1-.4477-1-1s.4477-1 1-1h2ZM12 8c.5523 0 1 .4477 1 1s-.4477 1-1 1h-2c-.5523 0-1-.4477-1-1s.4477-1 1-1h2Z"/><path fill="currentColor" fill-rule="evenodd" d="M15 5c.5523 0 1 .4477 1 1v9c0 .5523-.4477 1-1 1H7c-.5523 0-1-.4477-1-1V6c0-.5523.4477-1 1-1h8Zm-7 9h6V7H8v7Z" clip-rule="evenodd"/><path fill="currentColor" d="M8 0c.5523 0 1 .4477 1 1h1v2c0 .5523-.4477 1-1 1H5c-.5523 0-1-.4477-1-1V1h1c0-.5523.4477-1 1-1h2ZM13 1c.5523 0 1 .4477 1 1v2h-2V3h-1V1h2Z"/></svg>