<svg xmlns="http://www.w3.org/2000/svg" fill="none" viewBox="0 0 32 32" class="acv-icon"><path fill="currentColor" d="M8 9c.5523 0 1-.4477 1-1s-.4477-1-1-1-1 .4477-1 1 .4477 1 1 1ZM12 8c0 .5523-.4477 1-1 1s-1-.4477-1-1 .4477-1 1-1 1 .4477 1 1ZM15 8c0 .5523-.4477 1-1 1s-1-.4477-1-1 .4477-1 1-1 1 .4477 1 1Z"/><path fill="currentColor" fill-rule="evenodd" d="M5 3c-1.1046 0-2 .8954-2 2v22c0 1.1046.8954 2 2 2h9.554a10.4511 10.4511 0 0 1-.9565-2H5V13h22v.5975a10.4511 10.4511 0 0 1 2 .9565V5c0-1.1046-.8954-2-2-2H5Zm22 8H5V5h22v6Z" clip-rule="evenodd"/><path fill="currentColor" d="M27.2071 24.7071c-.3905.3905-1.0237.3905-1.4142 0l-2-2c-.3905-.3905-.3905-1.0237 0-1.4142l2-2c.3905-.3905 1.0237-.3905 1.4142 0 .3905.3905.3905 1.0237 0 1.4142L25.9142 22l1.2929 1.2929c.3905.3905.3905 1.0237 0 1.4142ZM21.2071 22.2929c-.3905-.3905-1.0237-.3905-1.4142 0-.3905.3905-.3905 1.0237 0 1.4142L21.0858 25l-1.2929 1.2929c-.3905.3905-.3905 1.0237 0 1.4142.3905.3905 1.0237.3905 1.4142 0l2-2c.3905-.3905.3905-1.0237 0-1.4142l-2-2Z"/><path fill="currentColor" fill-rule="evenodd" d="M23.5 32c4.6944 0 8.5-3.8056 8.5-8.5S28.1944 15 23.5 15 15 18.8056 15 23.5s3.8056 8.5 8.5 8.5Zm0-2c3.5899 0 6.5-2.9101 6.5-6.5S27.0899 17 23.5 17 17 19.9101 17 23.5s2.9101 6.5 6.5 6.5Z" clip-rule="evenodd"/></svg>