<svg xmlns="http://www.w3.org/2000/svg" fill="none" viewBox="0 0 24 24" class="acv-icon"><path fill="currentColor" fill-rule="evenodd" d="m15.2828 9.2768-.8322 1.5349C15.8795 11.6393 16.8569 13.1799 17 15H7c.143-1.8201 1.1204-3.3607 2.5494-4.1883l-.8323-1.5352a.1948.1948 0 0 1 0-.1843c.031-.057.0882-.0922.15-.0922.0619 0 .119.0352.15.0922l.8426 1.5543c.6444-.313 1.368-.4876 2.1402-.4876s1.496.1744 2.1404.4876l.8426-1.5543c.031-.057.0882-.0921.1501-.0921.0618 0 .119.0352.1499.0923a.195.195 0 0 1-.0001.1844Zm-5.584 4.2059c-.23 0-.4166-.1985-.4166-.4434s.1864-.4435.4164-.4435c.23-.0001.4164.1984.4165.4433-.0002.2448-.1865.4433-.4164.4436Zm4.6025 0c-.23 0-.4165-.1985-.4165-.4434-.0001-.2449.1863-.4435.4163-.4435.23-.0001.4165.1984.4165.4433-.0002.2448-.1865.4432-.4163.4436Z" clip-rule="evenodd"/><path fill="currentColor" d="M13 5c0-.5523-.4477-1-1-1s-1 .4477-1 1 .4477 1 1 1 1-.4477 1-1Z"/><path fill="currentColor" fill-rule="evenodd" d="M21 19V5c0-2.2091-1.7909-4-4-4H7C4.7909 1 3 2.7909 3 5v14c0 2.2091 1.7909 4 4 4h10c2.2091 0 4-1.7909 4-4ZM17 3c1.1046 0 2 .8954 2 2v14c0 1.1046-.8954 2-2 2H7c-1.1046 0-2-.8954-2-2V5c0-1.1046.8954-2 2-2h10Z" clip-rule="evenodd"/></svg>