<svg xmlns="http://www.w3.org/2000/svg" fill="none" viewBox="0 0 32 32" class="acv-icon"><path fill="#9BC225" d="M26 32c-3.3137 0-6-2.6863-6-6s2.6863-6 6-6 6 2.6863 6 6-2.6863 6-6 6Z"/><path stroke="#243143" stroke-opacity=".1" d="M26 20.5c3.0376 0 5.5 2.4624 5.5 5.5s-2.4624 5.5-5.5 5.5-5.5-2.4624-5.5-5.5 2.4624-5.5 5.5-5.5Z"/><path fill="#fff" fill-rule="evenodd" d="M29.2071 23.7929c.3905.3905.3905 1.0237 0 1.4142l-3.5 3.5c-.3905.3905-1.0237.3905-1.4142 0l-1.5-1.5c-.3905-.3905-.3905-1.0237 0-1.4142.3905-.3905 1.0237-.3905 1.4142 0l.7929.7929 2.7929-2.7929c.3905-.3905 1.0237-.3905 1.4142 0Z" clip-rule="evenodd"/></svg>