<svg xmlns="http://www.w3.org/2000/svg" fill="none" viewBox="0 0 24 24" class="acv-icon"><path fill="currentColor" fill-rule="evenodd" d="M2 4c0-1.1046.8954-2 2-2h4c1.1046 0 2 .8954 2 2v1h4V4c0-1.1046.8954-2 2-2h4c1.1046 0 2 .8954 2 2v16c0 1.1046-.8954 2-2 2h-4c-1.1046 0-2-.8954-2-2v-1h-4v1c0 1.1046-.8954 2-2 2H4c-1.1046 0-2-.8954-2-2v-4c0-1.1046.8954-2 2-2h4c1.1046 0 2 .8954 2 2v1h4V7h-4v1c0 1.1046-.8954 2-2 2H4c-1.1046 0-2-.8954-2-2V4Zm6 0H4v4h4V4Zm0 12H4v4h4v-4ZM20 4h-4v16h4V4Z" clip-rule="evenodd"/></svg>