<svg xmlns="http://www.w3.org/2000/svg" fill="none" viewBox="0 0 16 16" class="acv-icon"><g fill="currentColor" fill-rule="evenodd" clip-path="url(#a)" clip-rule="evenodd"><path d="M0 1a1 1 0 0 1 1-1h14a1 1 0 0 1 1 1v8a5.002 5.002 0 0 0-7.679 2.233 1 1 0 0 1-.283-.46L6.722 6.166a.2.2 0 0 0-.355-.061L5.314 7.579A1 1 0 0 1 4.5 8H2.2a.2.2 0 0 0-.2.2v3.596c0 .11.09.2.2.2h5.901a5.023 5.023 0 0 0-.002 2H1a1 1 0 0 1-1-1V1Zm2.2 4.998a.2.2 0 0 1-.2-.2V2.2c0-.11.09-.2.2-.2h11.6c.11 0 .2.09.2.2v3.598a.2.2 0 0 1-.2.2h-2.3a1 1 0 0 0-.814.419L9.633 7.892a.2.2 0 0 1-.355-.062L7.962 3.223a1 1 0 0 0-1.776-.306l-2.2 3.081H2.2Z"/><path d="M13 16a3 3 0 1 0 0-6 3 3 0 0 0 0 6Zm-1.354-3.854 1-1a.5.5 0 0 1 .708 0l1 1a.5.5 0 0 1-.708.708l-.146-.147V14.5a.5.5 0 0 1-1 0v-1.793l-.146.147a.5.5 0 0 1-.708-.708Z"/></g><defs><clipPath id="a"><path fill="#fff" d="M0 0h16v16H0z"/></clipPath></defs></svg>