<svg xmlns="http://www.w3.org/2000/svg" fill="none" viewBox="0 0 24 24" class="acv-icon"><path fill="currentColor" fill-rule="evenodd" d="M12 7.1395c-2.6844 0-4.8605 2.1761-4.8605 4.8605S9.3156 16.8605 12 16.8605 16.8605 14.6844 16.8605 12 14.6844 7.1395 12 7.1395ZM9.186 12c0-1.5541 1.2599-2.814 2.814-2.814S14.814 10.446 14.814 12 13.5541 14.814 12 14.814 9.186 13.5541 9.186 12Z" clip-rule="evenodd"/><path fill="currentColor" fill-rule="evenodd" d="M10.4651 1c-.4695 0-.8788.3196-.9927.775l-.519 2.0761a8.6417 8.6417 0 0 0-.5007.2054L6.428 2.7067a1.0233 1.0233 0 0 0-1.2912.1279L2.8346 5.1369a1.0233 1.0233 0 0 0-.1279 1.2912l1.3498 2.0246a8.6417 8.6417 0 0 0-.2054.5007l-2.076.519A1.0233 1.0233 0 0 0 1 10.4651v3.0698c0 .4695.3196.8788.775.9927l2.0761.519c.0633.1691.1318.3361.2054.5007l-1.3498 2.0246a1.0233 1.0233 0 0 0 .1279 1.2912l2.3023 2.3023c.345.3449.8853.3984 1.2912.1279l2.0246-1.3498c.1646.0736.3316.1421.5007.2054l.519 2.076c.1139.4555.5232.7751.9927.7751h3.0698c.4695 0 .8788-.3196.9927-.7751l.519-2.076a8.6902 8.6902 0 0 0 .5007-.2054l2.0246 1.3498c.4059.2705.9463.217 1.2912-.1279l2.3023-2.3023a1.0234 1.0234 0 0 0 .1279-1.2912l-1.3498-2.0246a8.6902 8.6902 0 0 0 .2054-.5007l2.076-.519A1.0233 1.0233 0 0 0 23 13.5349v-3.0698c0-.4695-.3196-.8788-.7751-.9927l-2.076-.519a8.6993 8.6993 0 0 0-.2054-.5007l1.3498-2.0246a1.0234 1.0234 0 0 0-.1279-1.2912l-2.3023-2.3023a1.0233 1.0233 0 0 0-1.2912-.1279l-2.0246 1.3498a8.6328 8.6328 0 0 0-.5007-.2054l-.519-2.076A1.0233 1.0233 0 0 0 13.5349 1h-3.0698Zm.3379 3.8907.461-1.8442h1.4719l.4611 1.8442c.0877.351.3544.6296.7012.7327a6.6037 6.6037 0 0 1 1.2828.5338 1.0233 1.0233 0 0 0 1.2138-.1746l.0943-.0944 1.5201-1.0133 1.1159 1.116-1.0133 1.52-.0944.0943a1.0233 1.0233 0 0 0-.1746 1.2138c.2223.4073.4013.837.5338 1.2828.1031.3468.3817.6135.7327.7012l1.8442.461v1.472l-1.8442.461a1.0233 1.0233 0 0 0-.7327.7012 6.6023 6.6023 0 0 1-.5338 1.2828 1.0234 1.0234 0 0 0 .1746 1.2138l.0944.0943 1.0133 1.5201-1.1159 1.1159-1.5201-1.0133-.0943-.0944a1.0234 1.0234 0 0 0-1.2138-.1746 6.6023 6.6023 0 0 1-1.2828.5338 1.0233 1.0233 0 0 0-.7012.7327l-.461 1.8442h-1.472l-.461-1.8442a1.0233 1.0233 0 0 0-.7012-.7327 6.6028 6.6028 0 0 1-1.2828-.5338 1.0233 1.0233 0 0 0-1.2138.1746l-.0943.0944-1.52 1.0133-1.116-1.1159 1.0133-1.5201.0943-.0943a1.0233 1.0233 0 0 0 .1747-1.2138 6.6037 6.6037 0 0 1-.5338-1.2828 1.0232 1.0232 0 0 0-.7327-.7012l-1.8442-.4611V11.264l1.8442-.461a1.0232 1.0232 0 0 0 .7327-.7012 6.6042 6.6042 0 0 1 .5338-1.2828 1.0232 1.0232 0 0 0-.1746-1.2138l-.0944-.0943-1.0133-1.52 1.116-1.116 1.52 1.0133.0943.0943c.321.321.8153.3922 1.2138.1747a6.6042 6.6042 0 0 1 1.2828-.5338 1.0232 1.0232 0 0 0 .7012-.7327Z" clip-rule="evenodd"/></svg>