<svg xmlns="http://www.w3.org/2000/svg" fill="none" viewBox="0 0 24 24" class="acv-icon"><path fill="currentColor" fill-rule="evenodd" d="M4 2h16c.5523 0 1 .4477 1 1v18c0 .5523-.4477 1-1 1H4c-.5523 0-1-.4477-1-1V3c0-.5523.4477-1 1-1Zm1 2v16h14V4H5Zm3 2h4c.5523 0 1 .4477 1 1s-.4477 1-1 1H8c-.5523 0-1-.4477-1-1s.4477-1 1-1Zm8 3c.5523 0 1 .4477 1 1s-.4477 1-1 1H8c-.5523 0-1-.4477-1-1s.4477-1 1-1h8Zm1 4c0-.5523-.4477-1-1-1H8c-.5523 0-1 .4477-1 1s.4477 1 1 1h8c.5523 0 1-.4477 1-1Zm-6 2H8c-.5523 0-1 .4477-1 1s.4477 1 1 1h3c.5523 0 1-.4477 1-1s-.4477-1-1-1Z" clip-rule="evenodd"/></svg>