<svg xmlns="http://www.w3.org/2000/svg" fill="none" viewBox="0 0 32 32" class="acv-icon"><path fill="currentColor" d="M8.5715 4C7.7036 4 7 4.6888 7 5.5385V6H26c.5523 0 1 .4477 1 1V20.923h.4286c.8679 0 1.5715-.6888 1.5715-1.5385V5.5385c0-.8497-.7036-1.5385-1.5715-1.5385H8.5715ZM13.3198 15.8831h.3589c.3281 0 .5639-.0923.7075-.2769.1436-.188.2153-.4666.2153-.8357 0-.3828-.0769-.6545-.2307-.8152-.1504-.164-.3845-.2461-.7024-.2461h-.3486v2.1739Z"/><path fill="currentColor" fill-rule="evenodd" d="M4.5714 8C3.7036 8 3 8.6888 3 9.5385v13.8461c0 .8497.7035 1.5385 1.5714 1.5385h6.2857l-.6636 2.599c-.062.2428.1255.4779.3811.4779h6.8508c.2556 0 .4431-.2351.3811-.4779l-.6636-2.599h6.2857c.8678 0 1.5714-.6888 1.5714-1.5385V9.5385C25 8.6888 24.2964 8 23.4286 8H4.5714Zm8.7484 9.0828V20h-1.3945v-7.4956h1.8252c.7724 0 1.3415.1829 1.7072.5486.3692.3657.5537.9245.5537 1.6765 0 .9468-.3195 1.6081-.9587 1.9841L16.4934 20h-1.492l-1.1843-2.9172h-.4973Z" clip-rule="evenodd"/></svg>