<svg xmlns="http://www.w3.org/2000/svg" fill="none" viewBox="0 0 16 16" class="acv-icon"><g clip-path="url(#Ionos16:a)"><path fill="currentColor" fill-rule="evenodd" d="M16 0v15.999H0V0h16ZM6.3379 2.4102c-.3155-.3778-.7992-.4971-1.205-.2999-.494.242-.6797.8582-.4259 1.3946l.0078.0205L9.5 13.3369c.2522.5174.797.7628 1.2744.5908l.0938-.04c.5015-.245.684-.8684.414-1.4209C11.2249 12.3444 6.5 2.6611 6.5 2.6611a1.216 1.216 0 0 0-.087-.1504l-.0263-.039a.5726.5726 0 0 0-.0488-.0615Z" clip-rule="evenodd"/></g><defs><clipPath id="Ionos16:a"><path fill="#fff" d="M0 0h16v16H0z"/></clipPath></defs></svg>