<svg xmlns="http://www.w3.org/2000/svg" fill="none" viewBox="0 0 24 24" class="acv-icon"><path fill="currentColor" fill-rule="evenodd" d="m13 12.5897 3.4107 2.3613A3.9844 3.9844 0 0 1 19 14c2.2091 0 4 1.7909 4 4 0 2.2091-1.7909 4-4 4-2.2091 0-4-1.7909-4-4 0-.4723.0819-.9255.2322-1.3461L12 14.3333l-3.2322 2.3206C8.9181 17.0745 9 17.5277 9 18c0 2.2091-1.7909 4-4 4-2.2091 0-4-1.7909-4-4 0-2.2091 1.7909-4 4-4 .9875 0 1.8915.3579 2.5893.951L11 12.5897V9.874C9.2748 9.43 8 7.8638 8 6c0-2.2091 1.7909-4 4-4 2.2091 0 4 1.7909 4 4 0 1.8638-1.2748 3.43-3 3.874v2.7157ZM14 6c0 1.1046-.8954 2-2 2s-2-.8954-2-2 .8954-2 2-2 2 .8954 2 2Zm5 14c1.1046 0 2-.8954 2-2s-.8954-2-2-2-2 .8954-2 2 .8954 2 2 2ZM7 18c0 1.1046-.8954 2-2 2s-2-.8954-2-2 .8954-2 2-2 2 .8954 2 2Z" clip-rule="evenodd"/></svg>