<svg xmlns="http://www.w3.org/2000/svg" fill="none" viewBox="0 0 32 32" class="acv-icon"><path fill="currentColor" d="M13.6459 4a2 2 0 0 1 1.857 1.2572l1.2457 3.1142A.9998.9998 0 0 0 17.677 9H25c1.1046 0 2 .8954 2 2v2H5V6c0-1.1046.8954-2 2-2h6.6459ZM27 15H5v5.5c0 .8284.6716 1.5 1.5 1.5H15v2h-1c-.5523 0-1 .4477-1 1H7c-.5523 0-1 .4477-1 1s.4477 1 1 1h6c0 .5523.4477 1 1 1h4a.9995.9995 0 0 0 .2444-.0301A8.0139 8.0139 0 0 1 18 26c0-.6798.0848-1.3398.2444-1.9699A.9995.9995 0 0 0 18 24h-1v-2h2.0703c1.3832-2.3912 3.9686-4 6.9297-4 .3387 0 .6724.021 1 .0619V15Z"/></svg>