<svg xmlns="http://www.w3.org/2000/svg" fill="none" viewBox="0 0 32 32" class="acv-icon"><circle cx="16" cy="16" r="16" fill="#FFC5C5"/><path fill="#C62020" fill-rule="evenodd" d="M23 14.3023A5035.4658 5035.4658 0 0 1 23 10s-1.5-2-6.9997-2S9 10 9 10v8c0 3.4286 6.0006 6 7.0003 6C17 24 23.0077 21.3964 23 18c.0007-.6406.0003-2.1352 0-3.6977Zm-5.2577-2.8428-.4454 3.7054h1.3274a.352.352 0 0 1 .2271.0847c.1653.1391.1976.4004.0721.5836l-3.9931 5c-.0797.1165-.2087.1781-.3399.1623-.2062-.0249-.3552-.2305-.3328-.4592l.4454-3.7053h-1.3274a.3522.3522 0 0 1-.2271-.0848c-.1653-.1391-.1976-.4003-.0721-.5836l3.9931-5c.0797-.1165.2087-.178.3399-.1622.2062.0249.3552.2304.3328.4591Z" clip-rule="evenodd"/></svg>