<svg xmlns="http://www.w3.org/2000/svg" fill="none" viewBox="0 0 32 32" class="acv-icon"><path fill="currentColor" fill-rule="evenodd" d="M25.1466 16.7144c-.1915-.2859-.3817-.5698-.4668-.9163-.1085-.4695.0728-.9391.2324-1.3526.0346-.0898.0682-.1769.0977-.2608.165-.4706.297-.9412.429-1.4117.363-1.4454.5611-2.9243.5611-4.437C25.6039-.1342 16.033.0002 16.033.0002S6.462-.1007 6 8.3697c0 1.5126.198 2.9915.561 4.4369.132.4706.264.9075.429 1.4117.0338.1031.0731.209.113.3169.1556.4196.3221.8687.2171 1.2965-.0825.3362-.2723.6135-.462.8908-.1898.2773-.3796.5546-.462.8907-.2311.7395-.132 1.5798.264 2.2521.66.9411 1.6831 1.5461 2.8052 1.5798 0 0 1.4852.2016 2.0462 1.5125l-.363.4706s-.099.0672.066.2689c.198.1681.396.3361.5941.4706.066.2353.066.437.066.6722.066.3026.231.5378.495.6723.132.0672.264.0672.3961.0336.0712 0 .1232.0489.1767.0992.0457.043.0925.087.1533.1025.165 0 .33 0 .495-.0336.1314.0191.1987.0491.2627.0776.0486.0216.0952.0423.1664.0568.231.0673.429 0 .594-.168.112-.1426.129-.1038.1693-.0118.0548.1249.1526.3479.5898.3479.297.0336.5611-.1345.6271-.4034.099.2689.363.4034.627.3698.4398 0 .5362-.2144.5908-.3359.0396-.0882.0573-.1275.1683-.0003.165.1345.396.2017.5941.1681.0933-.0158.1426-.0391.1928-.0628.0565-.0267.114-.0539.2362-.0716.165.0336.33.0336.4951.0336.0608-.0155.1076-.0595.1533-.1025.0535-.0503.1055-.0992.1767-.0992.132.0336.264 0 .396-.0336.2641-.1345.4621-.3698.4951-.6723 0-.2088.026-.3911.0549-.594l.0111-.0782c.231-.1345.429-.3025.594-.4706.1321-.1681.066-.2689.066-.2689l-.363-.4706c.5611-1.3109 2.0462-1.5126 2.0462-1.5126 1.1221-.0672 2.1782-.6386 2.8053-1.5798.396-.6722.495-1.5125.264-2.252-.096-.3258-.2772-.5963-.4573-.8652Zm-7.8595 3.5878c.066.3025.165.5714.363.8067h.099c.1651.3698.0991.8067-.165 1.1092a9.8147 9.8147 0 0 0-.2091.244c-.1906.2279-.3089.3692-.4839.3947-.1458.0212-.3179-.4527-.4581-.8392-.0821-.226-.1533-.4221-.202-.4717-.066-.0672-.198-.0672-.264 0-.0701.0571-.164.3082-.264.5756-.1355.3623-.2822.7546-.3961.7353-.1607-.0273-.2997-.1874-.5227-.4444a18.1345 18.1345 0 0 0-.1704-.1943c-.264-.3025-.33-.7394-.165-1.1092.198-.2353.297-.5042.3631-.8067.099-.5378.165-1.1428.165-1.1428 0-.4706.264-.8739.66-1.0756.099-.0672.1981-.0336.2971 0 .066.0672.165.0672.231 0a.4501.4501 0 0 1 .297 0c.3961.2353.6601.6386.6601 1.0756 0 0 .066.605.165 1.1428Zm-3.6634-6.7561c.8251.9075 1.0231 2.252.4951 3.3612-.132.2689-.33.4706-.5611.7059-1.0231.8739-3.3003 1.1428-4.3564.2017-.858-.8067-.528-2.5882 0-3.4621.4089-.6767.9167-.7891 1.5541-.9303.1858-.0411.3825-.0847.5911-.1453.0936-.0273.1839-.0549.2712-.0816.775-.2369 1.3239-.4047 2.006.3505Zm4.8845 4.0335c-.231-.2017-.429-.4034-.561-.6723-.5281-1.1092-.3301-2.4537.495-3.3949.6624-.7333 1.2243-.5707 1.9488-.361.1058.0306.215.0622.3284.0921.185.0489.3614.0847.5299.1189.6432.1305 1.1707.2376 1.6153.9568.5611.9075.8911 2.689 0 3.4621-1.0561.9747-3.3333.6722-4.3564-.2017Z" clip-rule="evenodd"/><path fill="currentColor" d="M22.8723 22.1541c.2735-.0725.5539-.147.6451.1318.063.1711-.021.383-.1074.6011-.0494.1247-.0996.2514-.1236.3737-.132.7394-.2311 1.4789-.2311 2.2184 0 0 .033 1.4117-1.3861 2.8571-1.7492 1.8151-3.0363 2.8907-3.0363 2.8907S17.9068 32 16.0586 32s-2.5742-.7731-2.5742-.7731-1.2872-1.1092-3.0363-2.8907c-1.3862-1.4117-1.3862-2.8571-1.3862-2.8571 0-.7395-.066-1.479-.231-2.2184-.0206-.0735-.0637-.1632-.1102-.2602-.1026-.2138-.222-.4624-.1538-.6474.097-.2967.4085-.2114.6978-.1322.104.0284.205.0561.2923.065.462.0336.627.1681.66.6386.01.1222.02.2843.0309.4614.0252.4077.0551.8943.1012 1.152.198.9412.627 1.9496 1.4851 2.4874-.033-.1681-.033-.3698 0-.5378v-.0336c.033-.1345.132-.2017.231-.2017.165-.0336.4621-.0336.5281.1344.033.0505.033.1177.033.1807s0 .1219.033.1555c.0518.0527.1036-.0187.1394-.0682.0099-.0135.0185-.0254.0256-.0327.099-.0672.231-.0672.33-.0336.066.0336.1321.0672.1651.1345-.0226.0459-.0143.1076-.0068.1634.0034.0259.0068.0506.0068.0719.066.1344.099-.0673.099-.1009.033-.1008.165-.168.264-.1344.132.0336.231.1008.231.2353.033.1008.099.0336.165-.0336.033-.0673.132-.1345.1981-.1345.132-.0336.297.0336.363.1681.033.1008.066.1008.165.0672.0356-.0121.0413-.0458.0479-.0841.0116-.0684.0258-.1512.2161-.1512.2641 0 .2787.1345.2885.2241.0049.0448.0086.0784.0416.0784.066-.0672.132-.1344.132-.2353.099-.1008.198-.1344.33-.1008h.033c.066 0 .132.1008.099.1681-.033.1008 0 .2352.033.3361.033-.1009.066-.2353.033-.3361v-.0337c0-.1008.066-.168.132-.168.1321-.0336.2311 0 .3301.1008 0 .1009.066.2017.132.2353.033 0 .0367-.0336.0416-.0784.0097-.0897.0244-.2241.2884-.2241.1796 0 .1903.0737.1998.1394.0063.043.012.0826.0643.0959.132.0336.132.0336.165-.0672.066-.1345.231-.2017.363-.1681.0127.0065.0267.0129.0411.0196.0606.0282.1303.0606.1569.1148.01.0102.0192.0203.0279.0299.0489.0538.0811.0894.1371.0038.0331-.1345.0991-.2017.1981-.2353.099-.0337.231 0 .297.0672 0 .0336.033.2017.099.1008.033-.0672.033-.1344.033-.2017.033-.0672.099-.1008.165-.1344.099-.0336.231-.0336.3301.0336.0114 0 .0268.0202.0448.0438.0339.0444.077.101.1202.057.0376-.0383.0323-.1093.027-.182-.0041-.0549-.0082-.1107.006-.1541.066-.168.363-.168.528-.1344.132 0 .2311.1008.2641.2016v.0337c.033.168.033.3697 0 .5378.858-.5042 1.2871-1.5126 1.4851-2.4874.0444-.2489.0739-.7263.0985-1.1246.012-.1933.0227-.368.0335-.4888.033-.4706.165-.605.6601-.6386.1019 0 .2228-.0321.345-.0646Z"/></svg>