<svg xmlns="http://www.w3.org/2000/svg" fill="none" viewBox="0 0 24 24" class="acv-icon"><path fill="currentColor" fill-rule="evenodd" d="M13.0595 2.0018A.9998.9998 0 0 0 12 3v8c0 .5523.4477 1 1 1h8a1 1 0 0 0 .9982-1.0595c-.1604-2.6917-.9472-4.8813-2.5023-6.4364-1.5551-1.5551-3.7447-2.3419-6.4364-2.5023ZM14 10V4.103c1.8241.258 3.1518.8854 4.0817 1.8153.9299.9299 1.5572 2.2576 1.8154 4.0817H14Z" clip-rule="evenodd"/><path fill="currentColor" d="M8.332 4.8883c.4906-.2536.6827-.857.4291-1.3475-.2536-.4906-.857-.6827-1.3475-.4291C4.2 4.7729 2 8.1287 2 12c0 5.5228 4.4771 10 10 10 3.8713 0 7.2271-2.2001 8.8883-5.4136.2536-.4906.0615-1.0939-.4291-1.3475-.4906-.2536-1.0939-.0615-1.3475.4291C17.7804 18.2432 15.0945 20 12 20c-4.4183 0-8-3.5817-8-8 0-3.0945 1.7568-5.7804 4.332-7.1117Z"/></svg>