<svg xmlns="http://www.w3.org/2000/svg" fill="none" viewBox="0 0 24 24" class="acv-icon"><path fill="currentColor" fill-rule="evenodd" d="M21 10c-1.3045 0-2.4169.8326-2.83 1.9955h-3.3354l-1.6732-8.827c-.0362-.191-.0819-.3532-.1465-.4963-.1778-.3935-.4564-.689-1.0373-.6715-.5677.017-.8246.3152-.9854.7089-.0593.145-.0996.3095-.1299.5032L8.695 17.0717 6.2365 8.8183c-.4123-1.384-1.9766-1.4674-2.5365-.125l-1.377 3.3022H1c-.5523 0-1 .4748-1 1.0045s.4477 1 1 1h1.4953c.6842 0 1.366-.5279 1.6178-1.1317l.729-1.7482 2.9214 9.8076c.4464 1.4985 2.131 1.406 2.3742-.1495l1.9569-12.5134.8304 4.3807c.1362.7186.8032 1.3545 1.5727 1.3545h3.644c.3865 1.21 1.5201 2 2.8583 2 1.6569 0 3-1.3431 3-3s-1.3431-3-3-3Zm1 3c0 .5523-.4477 1-1 1s-1-.4477-1-1 .4477-1 1-1 1 .4477 1 1Z" clip-rule="evenodd"/></svg>