<svg xmlns="http://www.w3.org/2000/svg" fill="none" viewBox="0 0 24 24" class="acv-icon"><path fill="currentColor" fill-rule="evenodd" d="M11.9999 22c5.4619 0 10-2.017 10-5V7c0-2.983-4.5381-5-10-5-5.4618 0-10 2.017-10 5v10c0 2.983 4.5382 5 10 5Zm8-15c0 1.4352-3.5207 3-8 3-4.4792 0-8-1.5648-8-3s3.5208-3 8-3c4.4793 0 8 1.5648 8 3Zm-8 5c-3.2457 0-6.1652-.7123-8-1.9162V12c0 1.4352 3.5208 3 8 3 4.4793 0 8-1.5648 8-3v-1.9162c-1.8348 1.204-4.7543 1.9162-8 1.9162Zm0 5c3.2457 0 6.1652-.7122 8-1.9162V17c0 1.4352-3.5207 3-8 3-4.4792 0-8-1.5648-8-3v-1.9162C5.8347 16.2877 8.7542 17 11.9999 17Z" clip-rule="evenodd"/></svg>