<svg xmlns="http://www.w3.org/2000/svg" fill="none" viewBox="0 0 16 16" class="acv-icon"><path fill="currentColor" fill-rule="evenodd" d="M4.5714 11H7v1.2676A2.0096 2.0096 0 0 0 6.2676 13H4c-.5523 0-1 .4477-1 1s.4477 1 1 1h2.2676c.3458.5978.9921 1 1.7324 1s1.3866-.4022 1.7324-1H12c.5523 0 1-.4477 1-1s-.4477-1-1-1H9.7324A2.0096 2.0096 0 0 0 9 12.2676V11h2.4286C13.3862 11 15 9.4938 15 7.6c0-1.3026-.772-2.4507-1.9306-3.021C12.4147 2.4798 10.3633 1 8 1 5.6367 1 3.5853 2.4798 2.9306 4.579 1.772 5.1493 1 6.2974 1 7.6 1 9.4938 2.6138 11 4.5714 11ZM4.76 5.4982C5.022 4.0772 6.3786 3 8 3c1.6214 0 2.9781 1.0772 3.24 2.4982.0679.3679.3354.6672.6934.7757C12.5742 6.468 13 7.0062 13 7.6c0 .7572-.6887 1.4-1.5714 1.4H4.5714C3.6887 9 3 8.3572 3 7.6c0-.5938.4258-1.132 1.0666-1.3261a1 1 0 0 0 .6934-.7757Z" clip-rule="evenodd"/></svg>