<svg xmlns="http://www.w3.org/2000/svg" fill="none" viewBox="0 0 32 32" class="acv-icon"><path fill="currentColor" fill-rule="evenodd" d="M29 11c0-3.3137-2.6863-6-6-6H9c-3.3137 0-6 2.6863-6 6v12h26V11Zm-23.9951.2882C5.1155 8.9012 7.0857 7 9.5 7c2.4853 0 4.5 2.0147 4.5 4.5V21H5v-9.5l.0049-.2118ZM25 11h-7c-.5523 0-1 .4477-1 1 0 .5128.386.9355.8834.9933L18 13h6v2c0 .5128.386.9355.8834.9933L25 16c.5128 0 .9355-.386.9933-.8834L26 15v-3c0-.5128-.386-.9355-.8834-.9933L25 11Zm-7 18v-4h-4v4h4Z" clip-rule="evenodd"/></svg>