<svg xmlns="http://www.w3.org/2000/svg" fill="none" viewBox="0 0 32 32" class="acv-icon"><path fill="#9BC225" fill-rule="evenodd" d="m25.7911 21.9449.1596 1.0902c.1964 1.3419-.7321 2.589-2.074 2.7854a2.4533 2.4533 0 0 1-.669.0059l-1.0928-.1406a3.6525 3.6525 0 0 0-3.3953 1.4412l-.658.8838c-.81 1.0878-2.3484 1.313-3.4361.503a2.4562 2.4562 0 0 1-.4772-.4689l-.6733-.8721a3.6521 3.6521 0 0 0-3.4199-1.3817l-1.0902.1596c-1.342.1964-2.589-.7321-2.7854-2.074a2.4556 2.4556 0 0 1-.0059-.669l.1406-1.0928a3.6524 3.6524 0 0 0-1.4412-3.3953l-.8838-.658c-1.0878-.81-1.313-2.3484-.503-3.4361a2.4582 2.4582 0 0 1 .4689-.4772l.8721-.6733a3.6523 3.6523 0 0 0 1.3817-3.4199l-.1596-1.0902c-.1964-1.342.7321-2.589 2.074-2.7854a2.4552 2.4552 0 0 1 .669-.0059l1.0928.1406a3.6524 3.6524 0 0 0 3.3953-1.4412l.658-.8838c.81-1.0878 2.3484-1.313 3.4361-.503.1797.1338.3402.2915.4772.4689l.6733.8721a3.6523 3.6523 0 0 0 3.4199 1.3817l1.0902-.1596c1.3419-.1964 2.589.7321 2.7854 2.074.0325.2217.0345.4468.0059.669l-.1406 1.0928a3.6525 3.6525 0 0 0 1.4412 3.3953l.8838.658c1.0878.81 1.313 2.3484.503 3.4361a2.4562 2.4562 0 0 1-.4689.4772l-.8721.6733a3.6521 3.6521 0 0 0-1.3817 3.4199Z" clip-rule="evenodd"/><path stroke="#243143" stroke-opacity=".1" d="M14.3398 4.288c.6451-.8662 1.8701-1.0453 2.7364-.4003.1429.1065.2709.232.3799.373l.6728.8721a4.1535 4.1535 0 0 0 3.8887 1.5713l1.0898-.1602c1.0686-.1564 2.0621.583 2.2188 1.6514.0258.1766.0266.3563.0039.5332l-.1406 1.0928a4.153 4.153 0 0 0 1.6386 3.8603l.8838.6582c.8663.6451 1.0454 1.8701.4004 2.7364a1.9625 1.9625 0 0 1-.373.3799l-.8721.6728a4.1536 4.1536 0 0 0-1.5713 3.8887l.1602 1.0898c.1564 1.0686-.583 2.0621-1.6514 2.2188a1.9631 1.9631 0 0 1-.5332.0039l-1.0928-.1406a4.153 4.153 0 0 0-3.8603 1.6386l-.6582.8838c-.6451.8663-1.8701 1.0454-2.7364.4004a1.9625 1.9625 0 0 1-.3799-.373l-.6728-.8721a4.1536 4.1536 0 0 0-3.8887-1.5713l-1.0898.1602c-1.0686.1564-2.0621-.583-2.2188-1.6514a1.9587 1.9587 0 0 1-.0039-.5332l.1406-1.0928a4.1529 4.1529 0 0 0-1.6386-3.8603l-.8838-.6582c-.8663-.6451-1.0454-1.8701-.4004-2.7364a1.9599 1.9599 0 0 1 .373-.3799l.8721-.6728a4.1535 4.1535 0 0 0 1.5713-3.8887l-.1602-1.0898c-.1564-1.0686.583-2.0621 1.6514-2.2188a1.9588 1.9588 0 0 1 .5332-.0039l1.0928.1406a4.1529 4.1529 0 0 0 3.8603-1.6386l.6582-.8838Z"/><path fill="#fff" fill-rule="evenodd" d="M12.5 15c1.3807 0 2.5-1.1193 2.5-2.5S13.8807 10 12.5 10 10 11.1193 10 12.5s1.1193 2.5 2.5 2.5Zm0-1.5c.5523 0 1-.4477 1-1s-.4477-1-1-1-1 .4477-1 1 .4477 1 1 1Z" clip-rule="evenodd"/><path fill="#fff" d="M20.7071 11.2929c.3905.3905.3905 1.0237 0 1.4142l-8 8c-.3905.3905-1.0237.3905-1.4142 0-.3905-.3905-.3905-1.0237 0-1.4142l8-8c.3905-.3905 1.0237-.3905 1.4142 0Z"/><path fill="#fff" fill-rule="evenodd" d="M22 19.5c0 1.3807-1.1193 2.5-2.5 2.5S17 20.8807 17 19.5s1.1193-2.5 2.5-2.5 2.5 1.1193 2.5 2.5Zm-1.5 0c0 .5523-.4477 1-1 1s-1-.4477-1-1 .4477-1 1-1 1 .4477 1 1Z" clip-rule="evenodd"/></svg>