<svg xmlns="http://www.w3.org/2000/svg" fill="none" viewBox="0 0 32 32" class="acv-icon"><path fill="currentColor" d="M25.1058 14.6308c.3481-.0884.7029-.1208 1.0965-.1224.4489.0038.9245.059 1.38.2335.276.1059.5287.2502.727.4743.4416.4986.3941 1.2332-.1064 1.6778-.2707.2405-.594.3769-.9395.467-.3147.082-.6356.1178-.9605.1264-.4447.0118-.8833-.0264-1.3121-.1488-.3254-.0929-.6284-.2314-.8781-.4664-.5312-.5003-.507-1.3127.0521-1.7889.2738-.2333.597-.3651.941-.4525Z"/><path fill="currentColor" fill-rule="evenodd" d="M6 0C2.6863 0 0 2.6863 0 6v20c0 3.3137 2.6863 6 6 6h20c3.3137 0 6-2.6863 6-6V6c0-3.3137-2.6863-6-6-6H6Zm19.864 17.996.0898.0071h.4336l.0849-.0075c.0594-.0052.1188-.0105.1783-.0147.3965-.0281.7854-.096 1.1624-.2237.4099-.1387.7863-.3352 1.0844-.6569.3587-.387.4934-.8451.4141-1.3645-.0607-.3979-.2654-.7162-.5661-.9758-.3578-.309-.7817-.4871-1.2345-.6029-.5534-.1416-1.1166-.1766-1.6854-.1475-.367.0188-.7288.0705-1.0829.1703-.4505.1268-.8668.3185-1.2143.641-.5078.4712-.6637 1.1987-.3869 1.822.1604.3612.4306.6239.7639.8254.5395.3263 1.1371.4578 1.757.5113.0672.0058.1344.0111.2017.0164Zm-21.7068-.0746H2.6697v-.0736c0-.292.0002-.584.0004-.876.0007-.8371.0013-1.6742-.0033-2.5113-.0012-.2157.1699-.3771.3773-.3919.0986-.007.1898.0148.2774.0617.3803.2039.7608.4075 1.1413.6111l.003.0016c.611.3271 1.2222.6541 1.8327.9821.0751.0404.1381.0397.213-.0004.995-.5345 1.9909-1.0672 2.987-1.5995.2114-.113.473-.0583.5873.1264.0297.0479.0511.11.0512.1656.0026 1.0264.0023 2.0529.0021 3.0794l-.0001.3854c0 .0072-.0008.0144-.0017.0229l-.0014.0148H8.6505v-.0661c0-.1418-.0003-.2836-.0006-.4254-.0008-.3794-.0017-.7587.0033-1.1379.002-.1396-.1377-.1944-.2338-.1438-.1994.1052-.4003.2077-.601.3103-.089.0454-.178.0908-.2667.1364-.0966.0496-.193.0996-.2895.1496l-.0013.0007a45.4475 45.4475 0 0 1-.6318.3232c-.1881.0937-.3785.0836-.5644-.0162-.3819-.205-.764-.4097-1.146-.6144l-.4963-.2659-.0144-.0079a.3085.3085 0 0 0-.0399-.0199c-.1074-.0414-.2107.028-.2108.1426-.0002.3702-.0002.7404-.0001 1.1107v.5257Zm9.8283.0007h1.4998v-.0744c0-.1506.0002-.3012.0005-.4519a90.6846 90.6846 0 0 0-.0028-1.1779c-.0016-.1588.1328-.2091.248-.1552.828.3867 1.6566.772 2.4852 1.1574.4701.2186.9402.4372 1.4102.6561.0919.0428.1866.0606.2859.0468.1905-.0263.3483-.172.3478-.3855-.0023-.8385-.002-1.677-.0017-2.5155l.0002-.9501H18.745v1.7272c0 .0811-.0249.1313-.0919.1448-.0471.0093-.1055.0063-.1484-.0136-.8979-.4167-1.7948-.8354-2.6917-1.2541l-.5647-.2636a87.7206 87.7206 0 0 0-.2199-.1023l-.0009-.0004a51.8024 51.8024 0 0 1-.4273-.1998c-.26-.1234-.6235.0233-.6192.3909.0091.8027.0074 1.6055.0058 2.4083-.0006.3133-.0013.6267-.0013.9401v.0727Zm-2.6659.0101v-3.8598h1.4923v.6859c-.0001 1.0354-.0001 2.0706.001 3.106 0 .0514-.0109.0695-.0664.0693a190.9479 190.9479 0 0 0-1.0433-.0014l-.3235.0001-.0601-.0001Zm10.7793-.0026a.7119.7119 0 0 1 .0163-.0014l.0001-3.8577h-.677a.7542.7542 0 0 1-.0014.0162.3543.3543 0 0 0-.0021.0336l-.0001.8087c0 .9833 0 1.9667-.0008 2.95-.0001.0413.0119.0542.0535.0537.1333-.0013.2666-.0012.4-.001h.1778c.0111-.0001.0221-.0011.0337-.0021Z" clip-rule="evenodd"/></svg>