<svg xmlns="http://www.w3.org/2000/svg" fill="none" viewBox="0 0 16 16" class="acv-icon"><path fill="currentColor" d="M9.006 4.5657a2.6158 2.6158 0 0 0-1.5903-.04l.002-.001a2.377 2.377 0 0 0-1.191.8039A2.4342 2.4342 0 0 0 5.7055 6.68c-.033.4942.0846.9866.3367 1.4107.2522.424.6268.759 1.073.9596-1.0514.725-3.1492 1-6.1152-.538l.27-.182c.5162-.3266.9154-.8127 1.1391-1.3868a8.0017 8.0017 0 0 1 .5646-1.014 6.27 6.27 0 0 1-.3941-.76 1.648 1.648 0 0 0-.3789-.6208 1.6174 1.6174 0 0 0-.6065-.393l-.2493-.12.2099-.182a6.6473 6.6473 0 0 1 3.1266-1.169A4.587 4.587 0 0 1 5.3957.271L5.5494 0l.1626.271c.074.125.1574.244.2493.356.1587.198.3572.3592.5823.473.274.1156.559.2028.8504.26.275.0578.5404.155.7883.2889.7336.3874 1.3307.9964 1.7086 1.7429a2.5892 2.5892 0 0 1 .1183 1.9159s-.0395.125-.0572.178a2.8763 2.8763 0 0 0-.0616-.1316 5.53 5.53 0 0 1-.0478-.0994 1.9215 1.9215 0 0 0-.8365-.689ZM7.3457 11.9492a2.6394 2.6394 0 0 0 1.5766-.1779l.005.001a2.3928 2.3928 0 0 0 1.069-.9628 2.4444 2.4444 0 0 0 .3331-1.4105 2.4367 2.4367 0 0 0-.523-1.3498 2.3787 2.3787 0 0 0-1.1905-.8027c.9469-.867 2.9876-1.4229 6.129-.307-.0572.054-.2454.218-.2454.218a2.9056 2.9056 0 0 0-.94 1.528 7.481 7.481 0 0 1-.4247 1.0799c.1799.2215.3445.4554.4927.6999a1.642 1.642 0 0 0 .4576.5607c.1918.15.4142.2547.6509.3063l.2631.089-.1843.209c-.8332.7727-1.8458 1.3187-2.9433 1.5869a4.5885 4.5885 0 0 1-.3853 2.4898L11.368 16l-.1971-.245a2.8235 2.8235 0 0 0-.2956-.316 1.7578 1.7578 0 0 0-.6395-.3869 4.5396 4.5396 0 0 0-.881-.142 2.8476 2.8476 0 0 1-.8148-.178c-.777-.286-1.4485-.8076-1.9234-1.4939a2.5748 2.5748 0 0 1-.3666-1.8799s.0266-.134.0355-.187c.0248.045.0496.0806.0778.1211.0188.027.0392.0562.062.0919.2481.2728.5672.4687.9204.5649Z"/></svg>