<svg xmlns="http://www.w3.org/2000/svg" fill="none" viewBox="0 0 32 32" class="acv-icon"><path fill="currentColor" d="M4 3h3.98c.5523 0 1 .4477 1 1v4c0 .5523-.4477 1-1 1H4c-.5523 0-1-.4477-1-1V4c0-.5523.4477-1 1-1ZM29 3H12v2h17V3ZM27 7H12v2h15V7ZM29 13H12v2h17v-2ZM12 17h15v2H12v-2ZM7.98 13H4c-.5523 0-1 .4477-1 1v4c0 .5523.4477 1 1 1h3.98c.5523 0 1-.4477 1-1v-4c0-.5523-.4477-1-1-1ZM12 23h17v2H12v-2ZM27 27H12v2h15v-2ZM4 23h3.98c.5523 0 1 .4477 1 1v4c0 .5523-.4477 1-1 1H4c-.5523 0-1-.4477-1-1v-4c0-.5523.4477-1 1-1Z"/></svg>