<svg xmlns="http://www.w3.org/2000/svg" fill="none" viewBox="0 0 24 24" class="acv-icon"><path fill="currentColor" fill-rule="evenodd" d="M7 10a5 5 0 1 1 10 0 5 5 0 0 1-10 0Zm5 3a3 3 0 1 1 0-6 3 3 0 0 1 0 6Z" clip-rule="evenodd"/><path fill="currentColor" fill-rule="evenodd" d="M13.42 1.264a3 3 0 0 0-2.84 0l-1.088.585a3 3 0 0 1-.81.295l-1.21.25a3 3 0 0 0-2.176 1.827l-.457 1.147a3 3 0 0 1-.431.747l-.765.969a3 3 0 0 0-.493 2.798l.387 1.172a3 3 0 0 1 .15.85l.037 1.234a3 3 0 0 0 1.42 2.46l1.05.65a3 3 0 0 1 .598.485l-.639 4.595c-.173 1.248 1.177 2.141 2.258 1.493L12 20.869l3.59 1.952c1.08.648 2.43-.245 2.257-1.493l-.639-4.595c.178-.187.378-.35.597-.485l1.05-.65a3 3 0 0 0 1.42-2.46l.038-1.234c.009-.289.06-.575.15-.85l.387-1.172a3 3 0 0 0-.494-2.798l-.764-.97a3 3 0 0 1-.431-.746l-.457-1.147a3 3 0 0 0-2.177-1.826l-1.209-.251a3 3 0 0 1-.81-.295l-1.087-.585Zm.14 2.346-1.087-.584a1 1 0 0 0-.947 0l-1.087.584a5 5 0 0 1-1.351.492l-1.209.25a1 1 0 0 0-.725.61l-.457 1.146a5 5 0 0 1-.72 1.245l-.764.97a1 1 0 0 0-.164.932l.387 1.172a5 5 0 0 1 .25 1.416l.037 1.234a1 1 0 0 0 .473.82l1.05.65a5 5 0 0 1 1.102.924l.821.921a1 1 0 0 0 .89.324l1.222-.178c.477-.069.96-.069 1.438 0l1.221.178a1 1 0 0 0 .89-.324l.822-.921a5 5 0 0 1 1.101-.924l1.05-.65a1 1 0 0 0 .474-.82l.037-1.234c.015-.481.099-.958.25-1.415l.387-1.173a1 1 0 0 0-.165-.932l-.764-.97a5.002 5.002 0 0 1-.72-1.245l-.456-1.146a1 1 0 0 0-.726-.61l-1.208-.25a5.001 5.001 0 0 1-1.352-.492ZM8.278 20.568l.3-2.157a3 3 0 0 0 1.769.284l1.222-.177c.285-.042.576-.042.862 0l1.222.177a3 3 0 0 0 1.77-.284l.299 2.157L12.772 19a1.5 1.5 0 0 0-1.544 0l-2.95 1.568Z" clip-rule="evenodd"/></svg>