<svg xmlns="http://www.w3.org/2000/svg" fill="none" viewBox="0 0 16 16" class="acv-icon"><path fill="currentColor" d="M5 5.5a.5.5 0 0 1 .5-.5h2a.5.5 0 0 1 0 1h-2a.5.5 0 0 1-.5-.5ZM9 5.5a.5.5 0 0 1 .5-.5h1a.5.5 0 0 1 0 1h-1a.5.5 0 0 1-.5-.5ZM9 7.5a.5.5 0 0 1 .5-.5h1a.5.5 0 0 1 0 1h-1a.5.5 0 0 1-.5-.5ZM5 7.5a.5.5 0 0 1 .5-.5h1a.5.5 0 0 1 0 1h-1a.5.5 0 0 1-.5-.5ZM8 9.5a.5.5 0 0 1 .5-.5h2a.5.5 0 0 1 0 1h-2a.5.5 0 0 1-.5-.5Z"/><path fill="currentColor" fill-rule="evenodd" d="M3.4472 14.8944C2.7823 15.2269 2 14.7434 2 14V2c0-.5523.4477-1 1-1h10c.5523 0 1 .4477 1 1v12c0 .7434-.7823 1.2269-1.4472.8944l-1.3553-.6776-.4904.4903a1 1 0 0 1-1.1543.1873L8 14.118l-1.5528.7764a1 1 0 0 1-1.1543-.1873l-.4904-.4903-1.3553.6776ZM4 3v9.382l.5528-.2764a1 1 0 0 1 1.1543.1873l.4904.4903 1.3553-.6776a.9998.9998 0 0 1 .8944 0l1.3553.6776.4904-.4903a.9999.9999 0 0 1 1.1543-.1873L12 12.382V3H4Z" clip-rule="evenodd"/></svg>