<svg xmlns="http://www.w3.org/2000/svg" fill="none" viewBox="0 0 32 32" class="acv-icon"><path fill="currentColor" d="M19.66 18.9107h-7.3138l.5824-1.2812h6.149l.5824 1.2812ZM18.1678 15.6295a9875.1498 9875.1498 0 0 0-2.1672-4.7585l-2.1629 4.7585h4.3301Z"/><path fill="currentColor" fill-rule="evenodd" d="M3 2c-.5523 0-1 .4477-1 1v26c0 .5523.4477 1 1 1h26c.5523 0 1-.4477 1-1V3c0-.5523-.4477-1-1-1H3Zm18.9495 21.9576h2.1952c-2.3763-5.2582-4.7703-10.5083-7.1643-15.7584l-.0715-.1567-1.8201.0013-7.2336 15.9138h2.1969l1.385-3.0469h9.1312c.4788 1.0548.9461 2.0856 1.3812 3.0469Z" clip-rule="evenodd"/></svg>