<svg xmlns="http://www.w3.org/2000/svg" fill="none" viewBox="0 0 24 24" class="acv-icon"><path fill="currentColor" fill-rule="evenodd" d="M16 11c-1.6569 0-3-1.3431-3-3s1.3431-3 3-3 3 1.3431 3 3-1.3431 3-3 3Zm0-2c.5523 0 1-.4477 1-1s-.4477-1-1-1-1 .4477-1 1 .4477 1 1 1Z" clip-rule="evenodd"/><path fill="currentColor" fill-rule="evenodd" d="M15.5 16H12l-1 1.0049V19c0 .5523-.4477 1-1 1H8v2c0 .5523-.4477 1-1 1H2c-.5523 0-1-.4477-1-1v-3.5858a1 1 0 0 1 .2928-.7071l7.0282-7.0294C8.2503 10.4443 8 9.0009 8 8.5 8 4.3579 11.3579 1 15.5 1S23 4.3579 23 8.5 19.6421 16 15.5 16ZM3 18.8283V21h3v-2c0-.5523.4477-1 1-1h2v-1.4079a1 1 0 0 1 .2912-.7054l1.5843-1.5921A1 1 0 0 1 11.5844 14H15.5c3.0376 0 5.5-2.4624 5.5-5.5S18.5376 3 15.5 3 10 5.4624 10 8.5c0 .2261.1961 1.469.2351 1.5978l.1737.5734a1 1 0 0 1-.2498.997L3 18.8283Z" clip-rule="evenodd"/></svg>