<svg xmlns="http://www.w3.org/2000/svg" fill="none" viewBox="0 0 32 32" class="acv-icon"><path fill="currentColor" fill-rule="evenodd" d="M20 13a4 4 0 1 1-8 0 4 4 0 0 1 8 0Zm-2 0a2 2 0 1 1-4 0 2 2 0 0 1 4 0Z" clip-rule="evenodd"/><path fill="currentColor" fill-rule="evenodd" d="M26 14c0 4.685-2.438 6.93-6.363 10.546C18.535 25.561 17.315 26.685 16 28c-1.315-1.315-2.534-2.438-3.636-3.453C8.439 20.93 6 18.685 6 14 6 8 10.477 4 16 4s10 4 10 10Zm-7.663 9.024-.065.06c-.701.646-1.463 1.348-2.272 2.12-.81-.772-1.57-1.474-2.273-2.12l-.035-.033c-1.999-1.841-3.392-3.141-4.334-4.51C8.483 17.27 8 15.93 8 14c0-4.833 3.518-8 8-8s8 3.167 8 8c0 1.931-.483 3.27-1.358 4.54-.937 1.363-2.322 2.657-4.305 4.484Z" clip-rule="evenodd"/></svg>