<svg xmlns="http://www.w3.org/2000/svg" fill="none" viewBox="0 0 32 32" class="acv-icon"><path fill="#9BC225" d="M29 16c0 7.1797-5.8203 13-13 13S3 23.1797 3 16 8.8203 3 16 3s13 5.8203 13 13Z"/><path stroke="#243143" stroke-opacity=".1" d="M16 3.5c6.9036 0 12.5 5.5964 12.5 12.5S22.9036 28.5 16 28.5 3.5 22.9036 3.5 16 9.0964 3.5 16 3.5Z"/><path fill="#fff" d="M13 20.7277v-9.4554c0-.6158.6757-.9831 1.1802-.6415l6.9818 4.7277c.4507.3051.4507.9779 0 1.283l-6.9818 4.7277c-.5045.3416-1.1802-.0257-1.1802-.6415Z"/></svg>