<svg xmlns="http://www.w3.org/2000/svg" fill="none" viewBox="0 0 16 16" class="acv-icon"><path fill="currentColor" d="M8.625 15.333c0 .368-.28.667-.625.667s-.625-.299-.625-.667v-3.685h1.25v3.685ZM3 3a.5.5 0 0 1 .707 0L13 12.293a.5.5 0 0 1-.707.707L3 3.707A.5.5 0 0 1 3 3ZM8.91 10.326a.2.2 0 0 1-.14.341H3.555c-.307 0-.556-.266-.556-.593 0-1.41.577-2.675 1.492-3.544a.463.463 0 0 1 .647.024l3.771 3.772ZM9.875 0c.69 0 1.25.597 1.25 1.333s-.56 1.334-1.25 1.334H9.25v2.724c2.125.355 3.75 2.317 3.75 4.683 0 .327-.249.593-.556.593h-.155a.5.5 0 0 1-.354-.146L6.896 5.48a.5.5 0 0 1-.146-.353V2.667h-.625c-.69 0-1.25-.598-1.25-1.334C4.875.597 5.435 0 6.125 0h3.75Z"/></svg>