<svg xmlns="http://www.w3.org/2000/svg" fill="none" viewBox="0 0 16 16" class="acv-icon"><path fill="currentColor" d="M10.743 1.65a.75.75 0 0 0-1.486 0c-.066.46-.17.915-.297 1.361-.225.79-.553 1.568-.967 1.982-.414.414-1.193.742-1.982.967-.446.128-.901.232-1.361.297a.75.75 0 0 0 0 1.486c.46.066.915.17 1.361.297.79.225 1.568.553 1.982.967.414.414.742 1.193.967 1.982.127.446.23.902.297 1.361a.75.75 0 0 0 1.486 0c.066-.46.17-.915.297-1.361.225-.79.553-1.568.967-1.982.414-.414 1.193-.742 1.982-.967.446-.128.901-.232 1.361-.297a.75.75 0 0 0 0-1.486c-.46-.064-.915-.17-1.361-.297-.79-.225-1.568-.553-1.982-.967-.414-.414-.742-1.193-.967-1.982-.127-.446-.23-.902-.297-1.361ZM3.5 8.5c.219 0 .404.162.434.379.038.268.098.534.173.794.13.46.322.915.564 1.156.241.242.696.433 1.156.564.26.075.526.135.794.173a.438.438 0 0 1 0 .868 5.856 5.856 0 0 0-.794.173c-.46.13-.915.322-1.156.564-.242.241-.433.696-.564 1.156-.075.26-.135.526-.173.794a.437.437 0 0 1-.868 0 5.861 5.861 0 0 0-.173-.794c-.13-.46-.322-.915-.564-1.156-.241-.242-.696-.433-1.156-.564a6.017 6.017 0 0 0-.794-.173.438.438 0 0 1 0-.868c.268-.038.534-.098.794-.173.46-.13.915-.322 1.156-.564.242-.241.433-.696.564-1.156.075-.26.135-.526.173-.794A.438.438 0 0 1 3.5 8.5Z"/></svg>