<svg xmlns="http://www.w3.org/2000/svg" fill="none" viewBox="0 0 24 24" class="acv-icon"><path fill="currentColor" fill-rule="evenodd" d="M13.1827 2.6922a2 2 0 0 0-2.3654 0l-10.354 7.593c-.7794.5715-.3751 1.8064.5914 1.8064H3V20c0 .5522.4477 1 1 1h7v-4c0-.5523.4477-1 1-1s1 .4477 1 1v4h7c.5523 0 1-.4478 1-1v-7.9084h1.9454c.9664 0 1.3707-1.2349.5913-1.8064L19 6.9582V4c0-.5523-.4477-1-1-1s-1 .4477-1 1v1.4916l-3.8173-2.7994ZM6 10c0-.5523.4477-1 1-1s1 .4477 1 1v2c0 .5523-.4477 1-1 1s-1-.4477-1-1v-2Zm6-3c-.5523 0-1 .4477-1 1v3c0 .5523.4477 1 1 1s1-.4477 1-1V8c0-.5523-.4477-1-1-1Zm-6 9c0-.5523.4477-1 1-1s1 .4477 1 1v2c0 .5523-.4477 1-1 1s-1-.4477-1-1v-2Zm11-1c-.5523 0-1 .4477-1 1v2c0 .5523.4477 1 1 1s1-.4477 1-1v-2c0-.5523-.4477-1-1-1Zm-1-5c0-.5523.4477-1 1-1s1 .4477 1 1v2c0 .5523-.4477 1-1 1s-1-.4477-1-1v-2Z" clip-rule="evenodd"/></svg>