<svg xmlns="http://www.w3.org/2000/svg" fill="none" viewBox="0 0 16 16" class="acv-icon"><path fill="currentColor" fill-rule="evenodd" d="M16 5c0 .5523-.4477 1-1 1s-1-.4477-1-1V3.3701l-2 1.875V13h.0273v2H0V9.2324A1.9999 1.9999 0 0 1 .4951 7.916l1.42-1.624c.8496-.971 2.3828-.8946 3.1328.1553l1.1015 1.542L12.5381 2H11c-.5523 0-1-.4477-1-1s.4477-1 1-1h5v5ZM2 9.2324V13h3V9.625a1.9973 1.9973 0 0 1-.4775-.4736l-1.1016-1.542L2 9.2324Zm5.5176.2158A1.9981 1.9981 0 0 1 7 9.7988V13h3V7.1201L7.5176 9.4482Z" clip-rule="evenodd"/></svg>