<svg xmlns="http://www.w3.org/2000/svg" fill="none" viewBox="0 0 16 16" class="acv-icon"><path fill="currentColor" d="M5.67 8c0 1.05-.408 1.62-1.17 1.62S3.33 9.05 3.33 8c0-1.05.408-1.62 1.17-1.62S5.67 6.95 5.67 8Z"/><path fill="currentColor" fill-rule="evenodd" d="M0 2a1 1 0 0 1 .859-.99l7-1a1 1 0 0 1 1.14.99v14a1 1 0 0 1-1.14.99l-7-1A1 1 0 0 1 0 14V2Zm7.25 6c0-1.95-1.215-3-2.75-3-1.546 0-2.75 1.05-2.75 3 0 1.939 1.204 3 2.75 3 1.535 0 2.75-1.05 2.75-3Z" clip-rule="evenodd"/><path fill="currentColor" d="M10 14h5a1 1 0 0 0 1-1V3a1 1 0 0 0-1-1h-5v2h4v1.434l-4 2.4V10a1 1 0 0 0 .514-.143L14 7.767V12h-4v2Z"/></svg>