<svg xmlns="http://www.w3.org/2000/svg" fill="none" viewBox="0 0 16 16" class="acv-icon"><path fill="currentColor" d="M6.4958 8H7v2.4988c0 .2768.222.5012.4957.5012a.4941.4941 0 0 0 .4104-.2201l2.0085-2.9977c.1536-.2291.0943-.5407-.1324-.696A.492.492 0 0 0 9.5042 7H9V4.5012C9 4.2244 8.778 4 8.5043 4a.4943.4943 0 0 0-.4104.22L6.0854 7.2179c-.1536.2291-.0943.5407.1323.696A.492.492 0 0 0 6.4957 8Z"/><path fill="currentColor" fill-rule="evenodd" d="M15 10.527c0 1.9878-2.2197 3.792-6.659 5.4127a.9943.9943 0 0 1-.682 0C3.2196 14.319 1 12.5148 1 10.527V2.7317c0-.4494.296-.8443.7253-.9677l6-1.7253a.9939.9939 0 0 1 .5494 0l6 1.7253c.4293.1234.7253.5183.7253.9677v7.7953ZM8 2 3 3.4537v7.1146C3 11.3935 4.5267 12.674 8 14c3.4733-1.326 5-2.6065 5-3.4317V3.4537L8 2Z" clip-rule="evenodd"/></svg>