<svg xmlns="http://www.w3.org/2000/svg" fill="none" viewBox="0 0 16 16" class="acv-icon"><path fill="currentColor" d="m13.1678 8.0395 1.7221 1.7226c2.25 2.2501.5591 6.1884-2.5631 6.1884a3.616 3.616 0 0 1-2.5632-1.062l-1.7218-1.722C2.8814 14.4616-1.6319 8.6003.5731 3.8333c.308-.666.9972-.8204 1.595-.57.2847.1193.5676.3288.8982.6371.8232.7678 1.517 1.6672 2.2153 2.5468.173.2204.4608.3164.6923.2553.343-.1045.6225-.331.7189-.691a.699.699 0 0 0-.2438-.7309C5.258 4.3465 4.4137 3.614 3.9017 3.0651c-.3084-.3306-.518-.6136-.6372-.8984-.2505-.5978-.0957-1.287.5703-1.595 4.7611-2.201 10.6374 2.3074 9.333 7.4678Zm-7.459-5.993c1.3023 1.2302 3.4893 2.343 2.9158 4.4828-.277 1.0338-1.0882 1.7842-2.0939 2.0936-2.1577.5782-3.2615-1.582-4.4839-2.9154-.6736 3.3185 2.7582 6.417 5.9934 5.3917l.5794-.1836 2.5582 2.5587a1.6163 1.6163 0 0 0 1.149.4762c.4292 0 .8393-.1664 1.149-.4763.6347-.6344.6347-1.663-.0002-2.298l-2.5578-2.5583.1829-.579c1.0234-3.2392-1.9623-6.7393-5.3919-5.9924Z"/></svg>