<svg xmlns="http://www.w3.org/2000/svg" fill="none" viewBox="0 0 16 16" class="acv-icon"><path fill="currentColor" fill-rule="evenodd" d="M15 10V2c0-.5523-.4477-1-1-1H2c-.5523 0-1 .4477-1 1v9c0 .5523.4477 1 1 1h5v1H6c-.5523 0-1 .4477-1 1s.4477 1 1 1h3.1762l-.2237-.2792c-.643-.7026-.643-1.739 0-2.4416l1.2963-1.6176.0326-.0337c.3641-.376.8514-.6279 1.465-.6279H3V9h10v1h2Zm-2-3H3V3h10v4Z" clip-rule="evenodd"/><path fill="currentColor" fill-rule="evenodd" d="M11.7464 11c-.3118 0-.5483.1187-.7466.3235l-1.2911 1.6111c-.318.3284-.318.8024 0 1.1308l1.2911 1.6111c.1983.2048.4348.3235.7466.3235h3.368c.5768 0 .8854-.3424.8854-.8333v-3.3334c0-.4909-.3086-.8333-.8854-.8333h-3.368ZM11.5 14a.5.5 0 1 0 0-1 .5.5 0 0 0 0 1Z" clip-rule="evenodd"/></svg>