<svg xmlns="http://www.w3.org/2000/svg" fill="none" viewBox="0 0 16 16" class="acv-icon"><path fill="currentColor" d="M8 5v1h1c.5523 0 1 .4477 1 1s-.4477 1-1 1H8v1c0 .5523-.4477 1-1 1s-1-.4477-1-1V8H5c-.5523 0-1-.4477-1-1s.4477-1 1-1h1V5c0-.5523.4477-1 1-1s1 .4477 1 1Z"/><path fill="currentColor" fill-rule="evenodd" d="M12.6064 11.1922C13.4816 10.0236 14 8.5723 14 7c0-3.866-3.134-7-7-7S0 3.134 0 7s3.134 7 7 7c1.5723 0 3.0236-.5184 4.1922-1.3936l3.1007 3.1007c.3905.3905 1.0237.3905 1.4142 0 .3905-.3905.3905-1.0237 0-1.4142l-3.1007-3.1007ZM7 12c2.7614 0 5-2.2386 5-5S9.7614 2 7 2 2 4.2386 2 7s2.2386 5 5 5Z" clip-rule="evenodd"/></svg>