<svg xmlns="http://www.w3.org/2000/svg" fill="none" viewBox="0 0 24 24" class="acv-icon"><path fill="currentColor" fill-rule="evenodd" d="M2 4c0-1.1046.8954-2 2-2h16c1.1046 0 2 .8954 2 2v5c0 .6159-.2784 1.1668-.7162 1.5336C20.4231 10.1894 19.4837 10 18.5 10c-1.3637 0-2.6423.3639-3.7442 1H4c-1.1046 0-2-.8954-2-2V4Zm2.0035 1c0-.5523.4478-1 1-1 .5523 0 1 .4477 1 1v3c0 .5523-.4477 1-1 1-.5522 0-1-.4477-1-1V5ZM9 4c-.5523 0-1 .4477-1 1v3c0 .5523.4477 1 1 1s1-.4477 1-1V5c0-.5523-.4477-1-1-1Zm8.5 4c.8284 0 1.5-.6716 1.5-1.5S18.3284 5 17.5 5 16 5.6716 16 6.5 16.6716 8 17.5 8ZM11 17.5c0-1.6884.5579-3.2465 1.4995-4.5H4c-1.1046 0-2 .8954-2 2v5c0 1.1046.8954 2 2 2h8.4995C11.5579 20.7465 11 19.1884 11 17.5ZM4.0035 16c0-.5523.4478-1 1-1 .5523 0 1 .4477 1 1v3c0 .5523-.4477 1-1 1-.5522 0-1-.4477-1-1v-3ZM9 15c-.5523 0-1 .4477-1 1v3c0 .5523.4477 1 1 1s1-.4477 1-1v-3c0-.5523-.4477-1-1-1ZM18.5 23c3.0376 0 5.5-2.4624 5.5-5.5S21.5376 12 18.5 12 13 14.4624 13 17.5s2.4624 5.5 5.5 5.5Zm-.1789-2.9941c.5885 0 1.0479-.1321 1.378-.3962.3302-.2641.4953-.6256.4953-1.0843 0-.3314-.0881-.6111-.2642-.8394-.1761-.2282-.5016-.4558-.9766-.6829-.3591-.1714-.5867-.2902-.6829-.3562-.0961-.066-.1662-.1344-.2102-.2051-.0441-.0706-.0661-.1534-.0661-.2484 0-.153.0545-.2769.1634-.3719.1089-.095.2653-.1425.4692-.1425.1714 0 .3458.022.523.066.1772.044.4014.1217.6725.2329l.3475-.8376c-.2618-.1135-.5126-.2016-.7524-.2641-.2398-.0626-.4918-.0939-.7559-.0939-.5375 0-.9586.1286-1.2633.3858-.3047.2572-.457.6105-.457 1.06 0 .2387.0463.4472.139.6256.0927.1784.2166.3348.3719.4692.1552.1343.3881.2745.6985.4205.3313.1575.5509.2722.6586.3441.1077.0718.1894.1465.245.2241.0556.0776.0834.1663.0834.2659 0 .1784-.0631.3128-.1894.4031-.1262.0904-.3075.1356-.5439.1356-.1969 0-.4141-.0313-.6516-.0939-.2375-.0625-.5277-.1703-.8706-.3232V19.7c.417.2039.8967.3059 1.4388.3059Z" clip-rule="evenodd"/></svg>