<svg xmlns="http://www.w3.org/2000/svg" fill="none" viewBox="0 0 32 32" class="acv-icon"><path fill="currentColor" fill-rule="evenodd" d="M16 22c-3.3137 0-6-2.6863-6-6s2.6863-6 6-6 6 2.6863 6 6-2.6863 6-6 6Zm0-2c2.2091 0 4-1.7909 4-4 0-2.2091-1.7909-4-4-4-2.2091 0-4 1.7909-4 4 0 2.2091 1.7909 4 4 4Z" clip-rule="evenodd"/><path fill="currentColor" fill-rule="evenodd" d="M27.8321 8.5547a1 1 0 0 0-.125-1.2618l-3-3a1 1 0 0 0-1.2618-.125l-2.7927 1.8618a10.9363 10.9363 0 0 0-.9633-.3955l-.7192-2.8767A.9998.9998 0 0 0 18 2h-4a.9998.9998 0 0 0-.9701.7575l-.7192 2.8767a10.9363 10.9363 0 0 0-.9633.3956L8.5547 4.168a1 1 0 0 0-1.2618.1249l-3 3a1 1 0 0 0-.125 1.2618l1.8618 2.7927c-.1469.3144-.2789.6358-.3955.9633l-2.8767.7192A.9998.9998 0 0 0 2 14v4c0 .4589.3123.8589.7575.9701l2.8767.7192c.1166.3275.2486.6489.3956.9633L4.168 23.4453a1 1 0 0 0 .1249 1.2618l3 3a1 1 0 0 0 1.2618.125l2.7927-1.8619c.3144.147.6358.279.9633.3955l.7192 2.8768A.9998.9998 0 0 0 14 30h4a.9998.9998 0 0 0 .9701-.7575l.7192-2.8768c.3275-.1165.6489-.2485.9633-.3955l2.7927 1.8619a1 1 0 0 0 1.2618-.125l3-3a1 1 0 0 0 .125-1.2618l-1.8619-2.7927c.147-.3144.279-.6358.3955-.9633l2.8768-.7192A.9998.9998 0 0 0 30 18v-4a.9998.9998 0 0 0-.7575-.9701l-2.8768-.7192a10.8967 10.8967 0 0 0-.3955-.9633l1.8619-2.7927ZM28 17.2192l-2.6555.6639a1 1 0 0 0-.716.6853 8.9382 8.9382 0 0 1-.7226 1.7363 1 1 0 0 0 .1707 1.1861l.1463.1463 1.4903 2.2355-1.8406 1.8406-2.2355-1.4903-.1463-.1463a1 1 0 0 0-1.1861-.1707 8.9382 8.9382 0 0 1-1.7363.7226 1 1 0 0 0-.6853.716L17.2192 28h-2.4384l-.6639-2.6555a1 1 0 0 0-.6853-.716 8.9382 8.9382 0 0 1-1.7363-.7226 1 1 0 0 0-1.1861.1707l-.1463.1463-2.2355 1.4903-1.8406-1.8406 1.4903-2.2355.1463-.1463a.9999.9999 0 0 0 .1706-1.1861 8.941 8.941 0 0 1-.7225-1.7363 1 1 0 0 0-.716-.6853L4 17.2192v-2.4384l2.6555-.6639a1 1 0 0 0 .716-.6853 8.941 8.941 0 0 1 .7225-1.7363.9999.9999 0 0 0-.1706-1.1861l-.1463-.1463-1.4903-2.2355 1.8406-1.8406 2.2355 1.4903.1463.1463a.9999.9999 0 0 0 1.1861.1706 8.941 8.941 0 0 1 1.7363-.7225 1 1 0 0 0 .6853-.716L14.7808 4h2.4384l.6639 2.6555a1 1 0 0 0 .6853.716 8.941 8.941 0 0 1 1.7363.7225.9999.9999 0 0 0 1.1861-.1706l.1463-.1463 2.2355-1.4903 1.8406 1.8406-1.4903 2.2355-.1463.1463a1 1 0 0 0-.1707 1.1861 8.9382 8.9382 0 0 1 .7226 1.7363 1 1 0 0 0 .716.6853L28 14.7808v2.4384Z" clip-rule="evenodd"/></svg>