<svg xmlns="http://www.w3.org/2000/svg" fill="none" viewBox="0 0 16 16" class="acv-icon"><path fill="currentColor" fill-rule="evenodd" d="M2.2857 0A2.2856 2.2856 0 0 0 0 2.2857v11.4286A2.2858 2.2858 0 0 0 2.2857 16h11.4286A2.2853 2.2853 0 0 0 16 13.7143V2.2857A2.2858 2.2858 0 0 0 13.7143 0H2.2857Zm3.2057 9.7715-2.2514.217A4.4054 4.4054 0 0 0 4.6343 12.92a4.9942 4.9942 0 0 0 3.3371 1 6.5767 6.5767 0 0 0 2.4915-.4171 3.2854 3.2854 0 0 0 1.5428-1.2799 3.5714 3.5714 0 0 0 .0857-3.663 3.0796 3.0796 0 0 0-1.2628-1.1428 11.1323 11.1323 0 0 0-2.4915-.8286 5.9997 5.9997 0 0 1-2.1257-.7657.8797.8797 0 0 1-.3428-.697.8287.8287 0 0 1 .3657-.7087A2.6629 2.6629 0 0 1 7.8114 4a2.2857 2.2857 0 0 1 1.4629.3943c.365.325.5936.7762.64 1.2628L12.2 5.56a3.3475 3.3475 0 0 0-1.1429-2.5257c-.7276-.6286-1.8095-.9428-3.2457-.9428a5.8228 5.8228 0 0 0-2.2857.3943 3.16 3.16 0 0 0-1.4286 1.1428 3.0116 3.0116 0 0 0 .5715 3.9373A6.3544 6.3544 0 0 0 7.28 8.7087c.9657.24 1.5829.4056 1.8514.5028.3154.0895.6013.261.8286.4972.1621.1933.2475.4393.24.6914a1.428 1.428 0 0 1-.5714 1.1085 2.6054 2.6054 0 0 1-1.68.4685 2.508 2.508 0 0 1-1.68-.5315 2.7652 2.7652 0 0 1-.7772-1.6741Z" clip-rule="evenodd"/></svg>