<svg xmlns="http://www.w3.org/2000/svg" fill="none" viewBox="0 0 24 24" class="acv-icon"><path fill="currentColor" fill-rule="evenodd" d="M2 2.9918C2 2.444 2.4553 2 2.9918 2h18.0164c.5478 0 .9918.4553.9918.9918v18.0164c0 .5478-.4553.9918-.9918.9918H2.9918C2.444 22 2 21.5447 2 21.0082V2.9918ZM20 10h-9V20h9V10Zm0-6v4H4V4h16ZM4 10v10h5V10H4Zm2-3c-.5523 0-1-.4477-1-1s.4477-1 1-1 1 .4477 1 1-.4477 1-1 1Zm3 0c-.5523 0-1-.4477-1-1s.4477-1 1-1 1 .4477 1 1-.4477 1-1 1Zm2-1c0 .5523.4477 1 1 1s1-.4477 1-1-.4477-1-1-1-1 .4477-1 1Zm-6 6c0-.5523.4427-1 .999-1h1.002A.997.997 0 0 1 8 12c0 .5523-.4427 1-.999 1H5.999A.997.997 0 0 1 5 12Zm8.0029-1C12.4379 11 12 11.4477 12 12c0 .5561.449 1 1.0029 1h4.9942C18.5621 13 19 12.5523 19 12c0-.5561-.449-1-1.0029-1h-4.9942ZM12 15c0-.5523.4434-1 1.0094-1h1.9812C15.5481 14 16 14.4439 16 15c0 .5523-.4434 1-1.0094 1h-1.9812C12.4519 16 12 15.5561 12 15Zm.9908 2C12.451 17 12 17.4477 12 18c0 .5561.4436 1 .9908 1h4.0184c.5398 0 .9908-.4477.9908-1 0-.5561-.4436-1-.9908-1h-4.0184ZM5 15c0-.5523.4427-1 .999-1h1.002A.997.997 0 0 1 8 15c0 .5523-.4427 1-.999 1H5.999A.997.997 0 0 1 5 15Zm.999 2A.9965.9965 0 0 0 5 18c0 .5561.4473 1 .999 1h1.002A.9965.9965 0 0 0 8 18a.997.997 0 0 0-.999-1H5.999Z" clip-rule="evenodd"/></svg>