<svg xmlns="http://www.w3.org/2000/svg" fill="none" viewBox="0 0 32 32" class="acv-icon"><path fill="#9BC225" d="M29 16c0 7.1797-5.8203 13-13 13S3 23.1797 3 16 8.8203 3 16 3s13 5.8203 13 13Z"/><path stroke="#243143" stroke-opacity=".1" d="M16 3.5c6.9036 0 12.5 5.5964 12.5 12.5S22.9036 28.5 16 28.5 3.5 22.9036 3.5 16 9.0964 3.5 16 3.5Z"/><path fill="#fff" d="M11.7071 16.2929c-.3905-.3905-1.0237-.3905-1.4142 0-.3905.3905-.3905 1.0237 0 1.4142l3 3c.3905.3905 1.0237.3905 1.4142 0l8-8c.3905-.3905.3905-1.0237 0-1.4142-.3905-.3905-1.0237-.3905-1.4142 0L14 18.5858l-2.2929-2.2929Z"/></svg>