<svg xmlns="http://www.w3.org/2000/svg" fill="none" viewBox="0 0 16 16" class="acv-icon"><path fill="currentColor" d="M10.5218 7.5241a.1.1 0 0 0-.0656.094v3.1894a1.6912 1.6912 0 0 1-1.0954 1.5827l-1.1547.4347a.338.338 0 0 1-.4573-.3167V8.6805a.1.1 0 0 0-.1343-.094l-2.1271.777a.6767.6767 0 0 0-.4427.6353v5.3241c0 .47.4667.7967.9087.6354l6.7741-2.4754a1.6896 1.6896 0 0 0 1.1107-1.588V5.4286c-.0002.3465-.1953.5131-.3055.6706-.1462.2089-.4797.5-.8052.619l-2.2057.806Zm.0687-.3797a.1.1 0 0 1-.1343-.094v-.835a1.6911 1.6911 0 0 0-1.0967-1.5833l-1.152-.4334a.3387.3387 0 0 0-.4574.3167v3.06c0 .4674-.4633.794-.9033.6374L2.4493 6.6421A.6768.6768 0 0 1 2 6.0048V.6767c0-.4674.4633-.794.904-.6367l9.8122 3.504c.2753.0984.5204.2664.7114.4877.377.4367.3904 1.1007.0844 1.5897-.1849.2956-.4684.5697-.8991.784l-2.0224.739Z"/></svg>