<svg xmlns="http://www.w3.org/2000/svg" fill="none" viewBox="0 0 24 24" class="acv-icon"><path fill="currentColor" fill-rule="evenodd" d="M2.0004 2c-.5522 0-1 .4477-1 1 0 .5128.3861.9354.8834.9932l.1166.0067h2.261l.765 3.2266 2.0952 8.9997a1 1 0 0 0 .859.7666l.1149.0066H18.932a1 1 0 0 0 .9178-.6029l.0408-.1123 2.0675-6.9593c.1637-.551-.1695-1.1174-.7125-1.2541l-.1113-.0215L6.8347 6.1038l-.8167-3.341a1 1 0 0 0-.8575-.7563L5.0466 2H2.0005Zm5.3027 6.1857 12.4065 1.688-1.5239 5.1258H8.8901L7.303 8.1857ZM7.5 17.9998c-1.3806 0-2.4999 1.1192-2.4999 2.4999 0 1.3806 1.1193 2.4999 2.5 2.4999 1.3806 0 2.4998-1.1193 2.4998-2.4999 0-1.3807-1.1192-2.4999-2.4999-2.4999Zm0 1.9999a.5.5 0 1 1 0 1 .5.5 0 0 1 0-1ZM17.4996 17.9998c-1.3806 0-2.4999 1.1192-2.4999 2.4999 0 1.3806 1.1193 2.4999 2.4999 2.4999 1.3807 0 2.4999-1.1193 2.4999-2.4999 0-1.3807-1.1192-2.4999-2.4999-2.4999Zm0 1.9999a.5.5 0 1 1 0 1 .5.5 0 0 1 0-1Z" clip-rule="evenodd"/></svg>