<svg xmlns="http://www.w3.org/2000/svg" fill="none" viewBox="0 0 16 16" class="acv-icon"><path fill="currentColor" fill-rule="evenodd" d="M8 3.5C8 4.8807 9.567 6 11.5 6S15 4.8807 15 3.5 13.433 1 11.5 1 8 2.1193 8 3.5Zm5 0c0 .2761-.6716.5-1.5.5S10 3.7761 10 3.5s.6716-.5 1.5-.5 1.5.2239 1.5.5Z" clip-rule="evenodd"/><path fill="currentColor" d="M11.5 7c-1.4352 0-2.6687-.617-3.2088-1.5C8.104 5.8062 8 6.1444 8 6.5 8 7.8807 9.567 9 11.5 9S15 7.8807 15 6.5c0-.3556-.1039-.6938-.2912-1C14.1687 6.383 12.9352 7 11.5 7Z"/><path fill="currentColor" d="M8.2912 8.5c.5401.883 1.7736 1.5 3.2088 1.5s2.6687-.617 3.2088-1.5c.1873.3062.2912.6445.2912 1 0 1.3807-1.567 2.5-3.5 2.5S8 10.8807 8 9.5c0-.3555.104-.6938.2912-1Z"/><path fill="currentColor" d="M11.5 13c-1.4352 0-2.6687-.617-3.2088-1.5-.1873.3062-.2912.6444-.2912 1 0 1.3807 1.567 2.5 3.5 2.5s3.5-1.1193 3.5-2.5c0-.3556-.1039-.6938-.2912-1-.5401.883-1.7736 1.5-3.2088 1.5Z"/><path fill="currentColor" fill-rule="evenodd" d="M0 9.5C0 10.8807 1.567 12 3.5 12S7 10.8807 7 9.5 5.433 7 3.5 7 0 8.1193 0 9.5Zm5 0c0 .2761-.6716.5-1.5.5S2 9.7761 2 9.5 2.6716 9 3.5 9s1.5.2239 1.5.5Z" clip-rule="evenodd"/><path fill="currentColor" d="M3.5 13c-1.4352 0-2.6687-.617-3.2088-1.5-.1873.3062-.2912.6444-.2912 1C0 13.8807 1.567 15 3.5 15S7 13.8807 7 12.5c0-.3556-.104-.6938-.2912-1C6.1687 12.383 4.9352 13 3.5 13Z"/></svg>