<svg xmlns="http://www.w3.org/2000/svg" fill="none" viewBox="0 0 24 24" class="acv-icon"><path fill="currentColor" d="M8.1288 4.0442c.2703.4816.8799.653 1.3615.3827l2.5102-1.4087 2.5115 1.41c.4816.2703 1.0912.099 1.3614-.3827.2703-.4816.099-1.0911-.3827-1.3614l-2.5383-1.4245c-.5747-.349-1.3302-.349-1.9338.0169l-.0013.0007c-1.5196.8521-1.5198.8523-2.5058 1.4056-.4816.2702-.653.8798-.3827 1.3614ZM5.0276 6.9314l1.4347.7475c.4897.2552.68.859.4248 1.3489-.2552.4898-.8592.68-1.349.4248L4 8.6512v1.8513c0 .5523-.4477 1-1 1s-1-.4477-1-1V7.4571c0-.6683.3479-1.2889.9476-1.6517l2.5661-1.44c.4816-.2703 1.0912-.099 1.3614.3827.2703.4816.099 1.0912-.3826 1.3614-.6578.3692-.8541.4794-1.465.8219ZM11.0001 20.3998c-.6625-.3863-1.1645-.6752-1.5108-.8695-.4816-.2703-1.0912-.099-1.3614.3826-.2703.4817-.099 1.0912.3827 1.3615.4964.2786 1.3375.7661 2.5198 1.4606.5918.3587 1.3473.3587 1.9509-.0071a1280.1761 1280.1761 0 0 1 2.5071-1.4098c.4819-.2698.6539-.8791.3841-1.361-.2697-.4819-.8791-.6539-1.361-.3842-.3465.194-.8503.4771-1.5114.8493V18.498c0-.5522-.4477-1-1-1-.5522 0-1 .4478-1 1v1.9018ZM4 16.4514v-2.9455c0-.5523-.4477-1-1-1s-1 .4477-1 1v3.0417c0 .6682.3479 1.2888.9186 1.6347l2.5956 1.4572c.4817.2703 1.0912.099 1.3615-.3827.2703-.4816.099-1.0911-.3827-1.3614l-2.4354-1.3667L4 16.4514ZM17.5106 17.9001c-.4817.2703-.653.8798-.3827 1.3614.2702.4817.8798.653 1.3614.3827.569-.3192 1.4241-.8014 2.5657-1.4465.5971-.3613.9449-.9819.9449-1.6501v-3.0458c0-.5523-.4477-1-1-1-.5522 0-1 .4477-1 1v2.9954a1246.474 1246.474 0 0 1-2.4893 1.4029ZM18.462 9.4523 20 8.6511V10.5c0 .5522.4477 1 1 1 .5522 0 1-.4478 1-1V7.4568a1.911 1.911 0 0 0-.9187-1.6347l-.0459-.0257c-1.2054-.6749-2.0445-1.1447-2.5461-1.4261-.4816-.2703-1.0911-.099-1.3614.3827-.2703.4816-.0989 1.0912.3827 1.3614.3359.1886.8226.4611 1.4599.8178l-1.4326.7465c-.4898.2551-.68.859-.4248 1.3489.2552.4898.8591.68 1.3489.4247ZM12.0001 10.5742l2.5389-1.3274c.4894-.2559 1.0936-.0665 1.3495.4229s.0666 1.0936-.4228 1.3495L13 12.3083v2.1944c0 .5523-.4477 1-1 1s-1-.4477-1-1v-2.1945l-2.4654-1.289c-.4895-.2559-.6788-.8601-.4229-1.3495.2559-.4894.86-.6788 1.3495-.4229l2.5389 1.3274Z"/></svg>