<svg xmlns="http://www.w3.org/2000/svg" fill="none" viewBox="0 0 24 24" class="acv-icon"><path fill="url(#DiskNav24:a)" d="M3.4028 5.2845C3.7486 3.3825 5.4052 2 7.3383 2h9.3234c1.9331 0 3.5897 1.3825 3.9355 3.2845l2.3383 12.8606c.0429.2361.0645.4756.0645.7156V19c0 2.2091-1.7909 4-4 4H5c-2.2091 0-4-1.7909-4-4v-.1393a4 4 0 0 1 .0645-.7156L3.4028 5.2845Z"/><path fill="#fff" d="M19 20c.5523 0 1-.4477 1-1s-.4477-1-1-1-1 .4477-1 1 .4477 1 1 1ZM11 19c0-.5523.4477-1 1-1h3c.5523 0 1 .4477 1 1s-.4477 1-1 1h-3c-.5523 0-1-.4477-1-1Z"/><path fill="#fff" fill-rule="evenodd" d="M7.3383 1C4.922 1 2.8513 2.7281 2.419 5.1056L.0807 17.9663A4.9992 4.9992 0 0 0 0 18.8607V19c0 2.7614 2.2386 5 5 5h14c2.7614 0 5-2.2386 5-5v-.1393c0-.3-.027-.5993-.0807-.8944L21.581 5.1056C21.1488 2.728 19.0781 1 16.6617 1H7.3383Zm13.9254 13.5406-1.6504-9.0773C19.3539 4.037 18.1116 3 16.6617 3H7.3383C5.8884 3 4.646 4.0369 4.3867 5.4633l-1.6504 9.0773A4.979 4.979 0 0 1 5 14h14a4.979 4.979 0 0 1 2.2637.5406ZM2 19c0 1.6569 1.3432 3 3 3h14c1.6569 0 3-1.3431 3-3s-1.3431-3-3-3H5c-1.6568 0-3 1.3431-3 3Z" clip-rule="evenodd"/><defs><linearGradient id="DiskNav24:a" x1="12" x2="12" y1="2" y2="23" gradientUnits="userSpaceOnUse"><stop stop-color="#fff" stop-opacity=".4"/><stop offset="1" stop-color="#fff" stop-opacity="0"/></linearGradient></defs></svg>