<svg xmlns="http://www.w3.org/2000/svg" fill="none" viewBox="0 0 24 24" class="acv-icon"><path fill="currentColor" fill-rule="evenodd" d="m4.5765 4.7214-2.2256 9.6442A4.0017 4.0017 0 0 0 2 16.0098v1.9804C2 20.2122 3.7905 22 5.9992 22h1.2509l-.6327-.8543C6.3239 20.8046 6.135 20.41 6.0508 20h-.0516C4.8932 20 4 19.1057 4 17.9902v-1.9804C4 14.8995 4.8974 14 5.9992 14h15.5655l-2.1412-9.2786C19.0709 3.1932 17.565 2 15.9915 2h-7.983c-1.572 0-3.0792 1.1926-3.432 2.7214Zm12.8982.4497 1.6102 6.9775A4.0015 4.0015 0 0 0 18.0008 12H5.9992c-.3757 0-.7394.052-1.0843.1493l1.6104-6.9782C6.6682 4.5519 7.3656 4 8.0085 4h7.983c.6438 0 1.3404.552 1.4832 1.171Z" clip-rule="evenodd"/><path fill="currentColor" d="M6.9908 16h1l-1.3734 1.8544a2.5765 2.5765 0 0 0-.0446.0531C6.2345 17.7493 6 17.4043 6 17c0-.5523.451-1 .9908-1ZM17.8984 19.4946c0 .5583.106.9787.3179 1.2613.2119.2825.5286.4238.9502.4238.8453 0 1.268-.5617 1.268-1.6851 0-1.1256-.4204-1.6884-1.2612-1.6884-.4215 0-.7394.1424-.9536.4272-.2142.2826-.3213.703-.3213 1.2612Z"/><path fill="currentColor" fill-rule="evenodd" d="M9.5444 15.5823c.33-.3687.7233-.5823 1.2421-.5823h11.7407C23.4866 15 24 15.6163 24 16.5v6c0 .8837-.5134 1.5-1.4728 1.5H10.7865c-.5188 0-.912-.2136-1.242-.5823l-2.1478-2.9c-.529-.591-.529-1.4443 0-2.0353l2.1477-2.9001Zm12.001 3.9123c0 .8272-.2051 1.4629-.6153 1.9073-.4101.4443-.998.6665-1.7636.6665-.7657 0-1.3535-.2222-1.7637-.6665-.4102-.4444-.6152-1.0824-.6152-1.9141 0-.8317.205-1.4663.6152-1.9038.4124-.4398 1.0026-.6597 1.7705-.6597s1.3547.221 1.7603.6631c.4078.4421.6118 1.0778.6118 1.9072Zm-5.5102 2.1841c.3258-.2598.4888-.6152.4888-1.0664 0-.3258-.0866-.6004-.2598-.8237-.1732-.2256-.4933-.4501-.9604-.6734-.3532-.1686-.5777-.2848-.6734-.3486-.0934-.0661-.1618-.1333-.2051-.2017-.0433-.0706-.0649-.1526-.0649-.2461 0-.1503.0535-.2723.1606-.3657.1071-.0934.2609-.1401.4615-.1401.1686 0 .3395.0216.5127.0649.1754.0433.3964.1197.663.229l.3418-.8237c-.2574-.1117-.5047-.1982-.7417-.2598-.2347-.0615-.4819-.0922-.7417-.0922-.5286 0-.9433.1264-1.2441.3793-.2985.253-.4477.6005-.4477 1.0425 0 .2347.0455.4398.1367.6153.0911.1754.213.3292.3657.4614.1527.1321.3817.27.687.4136.3258.1549.5412.2677.646.3383.1071.0707.188.1447.2427.2222.0547.0752.082.1618.082.2598 0 .1754-.0627.3076-.188.3965-.123.0888-.3008.1333-.5332.1333-.1937 0-.4079-.0308-.6426-.0923-.2324-.0615-.5172-.1675-.8545-.3179v.9844c.4102.2005.8819.3008 1.4151.3008.5788 0 1.0299-.1299 1.3535-.3897Zm-4.3583-4.6758V22h1.0596v-4.9971h-1.0596Z" clip-rule="evenodd"/></svg>