<svg xmlns="http://www.w3.org/2000/svg" fill="none" viewBox="0 0 16 16" class="acv-icon"><path fill="#9BC225" d="M3.5 6.5a3 3 0 1 0 0-6 3 3 0 0 0 0 6Z"/><path stroke="#243143" stroke-opacity=".1" d="M3.5 1a2.5 2.5 0 1 1 0 5 2.5 2.5 0 0 1 0-5Z"/><path fill="#FFC107" d="M12.5 6.5a3 3 0 1 0 0-6 3 3 0 0 0 0 6Z"/><path stroke="#243143" stroke-opacity=".1" d="M12.5 1a2.5 2.5 0 1 1 0 5 2.5 2.5 0 0 1 0-5Z"/><path fill="#EA3939" d="M12.5 15.5a3 3 0 1 0 0-6 3 3 0 0 0 0 6Z"/><path stroke="#243143" stroke-opacity=".1" d="M12.5 10a2.5 2.5 0 1 1 0 5 2.5 2.5 0 0 1 0-5Z"/><path fill="#408BEA" d="M3.5 15.5a3 3 0 1 0 0-6 3 3 0 0 0 0 6Z"/><path stroke="#243143" stroke-opacity=".1" d="M3.5 10a2.5 2.5 0 1 1 0 5 2.5 2.5 0 0 1 0-5Z"/></svg>