<svg xmlns="http://www.w3.org/2000/svg" fill="none" viewBox="0 0 24 24" class="acv-icon"><path fill="currentColor" fill-rule="evenodd" d="M22 12c0 5.5228-4.4772 10-10 10-5.5229 0-10-4.4772-10-10C2 6.4771 6.4771 2 12 2c5.5228 0 10 4.4771 10 10Zm-2 0c0 4.4183-3.5817 8-8 8s-8-3.5817-8-8 3.5817-8 8-8 8 3.5817 8 8Z" clip-rule="evenodd"/><path fill="currentColor" d="M13.3636 6.5252v4.9293h1.6347a.5666.5666 0 0 1 .2347.0508c.2729.1245.389.4377.2594.6997l-3.2695 5.4951c-.0906.1832-.2829.2999-.4941.2999-.3021 0-.547-.2351-.547-.5252v-4.9293H9.5471a.5665.5665 0 0 1-.2346-.0508c-.273-.1245-.389-.4377-.2595-.6997l3.2695-5.4951c.0906-.1832.283-.2999.4941-.2999.3021 0 .547.2351.547.5252Z"/></svg>