<svg xmlns="http://www.w3.org/2000/svg" fill="none" viewBox="0 0 32 32" class="acv-icon"><path fill="currentColor" fill-rule="evenodd" d="M16 3c.5523 0 1 .4477 1 1v7c0 .5523.4477 1 1 1h7c.5523 0 1 .4477 1 1v15c0 .5523-.4477 1-1 1H7c-.5523 0-1-.4477-1-1V4c0-.5523.4477-1 1-1h9Zm-3.5 13v8h1.6552v-5.2169L17.7124 24H19.5v-8h-1.6552v5.3424L14.2334 16H12.5Z" clip-rule="evenodd"/><path fill="currentColor" d="M20 10c-.5523 0-1-.4477-1-1V4.2071c0-.4454.5386-.6685.8536-.3535l5.2928 5.2928c.315.315.0919.8536-.3535.8536H20Z"/></svg>