<svg xmlns="http://www.w3.org/2000/svg" fill="none" viewBox="0 0 16 16" class="acv-icon"><path fill="currentColor" fill-rule="evenodd" d="M3 1c-.5523 0-1 .4477-1 1v12c0 .5523.4477 1 1 1h10c.5523 0 1-.4477 1-1V2c0-.5523-.4477-1-1-1H3Zm.5 2.5A.5.5 0 0 1 4 3h8a.5.5 0 0 1 .5.5v2a.5.5 0 0 1-.5.5H4a.5.5 0 0 1-.5-.5v-2ZM4 8.75a.75.75 0 1 1 1.5 0 .75.75 0 0 1-1.5 0ZM4.75 11a.75.75 0 1 0 0 1.5.75.75 0 0 0 0-1.5Zm2.5-2.25a.75.75 0 1 1 1.5 0 .75.75 0 0 1-1.5 0Zm4-.75a.75.75 0 1 0 0 1.5.75.75 0 0 0 0-1.5Zm-4 3.75A.75.75 0 0 1 8 11h3.25a.75.75 0 0 1 0 1.5H8a.75.75 0 0 1-.75-.75Z" clip-rule="evenodd"/></svg>