<svg xmlns="http://www.w3.org/2000/svg" fill="none" viewBox="0 0 16 16" class="acv-icon"><circle cx="8" cy="8" r="8" fill="#408BEA"/><circle cx="8" cy="8" r="7.5" stroke="#243143" stroke-opacity=".1"/><path fill="#fff" d="M8 3V2c0-.412.4704-.6472.8-.4l2.6667 2c.2666.2.2666.6 0 .8L8.8 6.4c-.3296.2472-.8.012-.8-.4V5C6.3431 5 5 6.3431 5 8c0 .5523-.4477 1-1 1s-1-.4477-1-1c0-2.7614 2.2386-5 5-5ZM8 13v1c0 .412-.4704.6472-.8.4l-2.6667-2c-.2666-.2-.2666-.6 0-.8L7.2 9.6c.3296-.2472.8-.012.8.4v1c1.6569 0 3-1.3431 3-3 0-.5523.4477-1 1-1s1 .4477 1 1c0 2.7614-2.2386 5-5 5Z"/></svg>