<svg xmlns="http://www.w3.org/2000/svg" fill="none" viewBox="0 0 32 32" class="acv-icon"><path fill="currentColor" fill-rule="evenodd" d="M25.0182 15.668v11.355c0 .399-.114.79-.393 1.065-.855.845-3.453 2.579-8.625 2.579-5.172 0-7.729-1.712-8.584-2.557-.279-.276-.393-.667-.393-1.066V15.772l-3.755-2.309v6.465c0 .553-.449 1.002-1.002 1.002-.554 0-1.002-.449-1.002-1.002l.004-8.817c0-.363.097-.726.292-1.046.16-.262.386-.495.677-.674l12.605-7.749a2.0901 2.0901 0 0 1 2.185 0l12.605 7.749c1.292.795 1.292 2.646 0 3.44l-4.614 2.837Zm-15.995 1.334v9.868c.696.588 2.808 1.797 6.977 1.797 4.169 0 6.322-1.231 7.018-1.818v-9.952l-5.991 3.684c-.668.411-1.517.411-2.185 0l-5.819-3.579Zm6.866 1.875c.012.007.027.012.046.012.018 0 .033-.005.045-.012l12.605-7.75a.0775.0775 0 0 0 .016-.011v-.009a.1216.1216 0 0 0-.016-.012l-12.605-7.75a.0882.0882 0 0 0-.045-.012c-.019 0-.034.005-.046.012l-12.621 7.766 12.621 7.766Z" clip-rule="evenodd"/></svg>