<svg xmlns="http://www.w3.org/2000/svg" fill="none" viewBox="0 0 32 32" class="acv-icon"><path fill="currentColor" fill-rule="evenodd" d="M27.0503 5.5547c-2.2497-.2699-8.4825-1.3214-10.2989-2.9126L15.9862 2l-.7284.642C13.4414 4.224 7.2086 5.2756 4.922 5.5548A1.048 1.048 0 0 0 4 6.595v13.6621c.0608 2.5321 1.4709 4.834 3.688 6.0206L15.9862 30l8.2243-3.6756.1014-.0559C26.5291 25.0819 27.9392 22.78 28 20.2479V6.6225a1.0752 1.0752 0 0 0-.9497-1.0678ZM18 14c0 .7403-.4022 1.3866-1 1.7324V20c0 .5523-.4477 1-1 1s-1-.4477-1-1v-4.2676c-.5978-.3458-1-.9921-1-1.7324 0-1.1046.8954-2 2-2s2 .8954 2 2Z" clip-rule="evenodd"/></svg>