<svg xmlns="http://www.w3.org/2000/svg" fill="none" viewBox="0 0 32 32" class="acv-icon"><path fill="currentColor" fill-rule="evenodd" d="M26.1633 6.4685c.5438.311.8363.8954.8357 1.5218-.0025 2.4834-.0089 8.9193-.0111 10.915C27 24 18 28 16 28S5 24 5 18.8571V8.1294c0-.702.3665-1.3487.9962-1.659C7.7442 5.6093 11.5991 4 16 4c5.1554 0 8.6564 1.6067 10.1633 2.4685Zm-7.8402 4.0835L17.7292 15h1.7699a.5015.5015 0 0 1 .3028.1017.4995.4995 0 0 1 .0962.7006l-5.3242 6.0021a.5014.5014 0 0 1-.4532.1947.5002.5002 0 0 1-.4438-.5511L14.2708 17h-1.7699a.5015.5015 0 0 1-.3028-.1017.4995.4995 0 0 1-.0962-.7006l5.3242-6.0021a.5013.5013 0 0 1 .4532-.1947.5002.5002 0 0 1 .4438.5511Z" clip-rule="evenodd"/></svg>