<svg xmlns="http://www.w3.org/2000/svg" fill="none" viewBox="0 0 32 32" class="acv-icon"><path fill="currentColor" d="M13 2c.5523 0 1 .4477 1 1s-.4477 1-1 1H6c-1.1046 0-2 .8954-2 2v6H2V6c0-2.2091 1.7909-4 4-4h7ZM28 12h2V6c0-2.2091-1.7909-4-4-4h-7c-.5523 0-1 .4477-1 1s.4477 1 1 1h7c1.1046 0 2 .8954 2 2v6ZM18 29c0-.5523.4477-1 1-1h7c1.1046 0 2-.8954 2-2v-6h2v6c0 2.2091-1.7909 4-4 4h-7c-.5523 0-1-.4477-1-1ZM4 20H2v6c0 2.2091 1.7909 4 4 4h7c.5523 0 1-.4477 1-1s-.4477-1-1-1H6c-1.1046 0-2-.8954-2-2v-6ZM2 15c-.5523 0-1 .4477-1 1s.4477 1 1 1h28c.5523 0 1-.4477 1-1s-.4477-1-1-1H2Z"/></svg>