<svg xmlns="http://www.w3.org/2000/svg" fill="none" viewBox="0 0 16 16" class="acv-icon"><path fill="currentColor" d="M3 0C1.3432 0 0 1.3432 0 3v7c0 1.6569 1.3432 3 3 3h1v1.9783c0 .8629 1.0122 1.3284 1.6673.7668L8.8699 13H13c1.6569 0 3-1.3431 3-3V8c0-.5523-.4477-1-1-1s-1 .4477-1 1v2c0 .5523-.4477 1-1 1H8.537a1.1 1.1 0 0 0-.7159.2648L6 12.8258V11H3c-.5523 0-1-.4477-1-1V3c0-.5523.4477-1 1-1h5c.5523 0 1-.4477 1-1s-.4477-1-1-1H3Z"/><path fill="currentColor" d="M12.0574.4872a.5624.5624 0 0 0-1.1148 0c-.0494.3447-.1271.6868-.2225 1.0213-.1688.5916-.4148 1.176-.7253 1.4863-.3104.3104-.8947.5565-1.4863.7253-.3349.0955-.676.1742-1.0211.2224a.5625.5625 0 0 0-.0002 1.1149c.3447.0494.6868.127 1.0213.2225.5916.1688 1.176.4149 1.4863.7253.3105.3104.5565.8947.7253 1.4863.0954.3344.1731.6766.2224 1.0211a.5624.5624 0 0 0 1.1149.0002c.0494-.3447.1271-.6868.2225-1.0213.1688-.5916.4148-1.176.7253-1.4863.3104-.3105.8947-.5565 1.4863-.7253.3349-.0955.676-.1742 1.0211-.2224a.5625.5625 0 0 0 .0002-1.1149c-.3452-.0482-.6864-.127-1.0213-.2225-.5916-.1688-1.1759-.4148-1.4863-.7253-.3105-.3104-.5565-.8947-.7253-1.4863-.0954-.3345-.1731-.6766-.2225-1.0213ZM5.8097 5.2707a.3125.3125 0 0 0-.6194 0 4.2932 4.2932 0 0 1-.1236.5674c-.0938.3286-.2305.6532-.403.8257-.1724.1724-.497.3091-.8257.403-.186.053-.3755.0967-.5672.1235a.3126.3126 0 0 0-.0001.6194c.1914.0274.3815.0706.5673.1236.3287.0938.6533.2305.8258.4029.1724.1725.3091.497.403.8257a4.296 4.296 0 0 1 .1235.5673.3126.3126 0 0 0 .6194.0001 4.2916 4.2916 0 0 1 .1236-.5674c.0938-.3286.2305-.6532.403-.8257.1724-.1724.497-.3091.8257-.403.186-.053.3755-.0967.5672-.1235a.3126.3126 0 0 0 .0001-.6194c-.1917-.0267-.3813-.0705-.5674-.1236-.3286-.0938-.6532-.2305-.8257-.403-.1724-.1724-.3091-.497-.403-.8257a4.2916 4.2916 0 0 1-.1235-.5673Z"/></svg>