<svg xmlns="http://www.w3.org/2000/svg" fill="none" viewBox="0 0 32 32" class="acv-icon"><path fill="currentColor" fill-rule="evenodd" d="M26.8 5H5.2A2.2 2.2 0 0 0 3 7.2v17.6A2.2 2.2 0 0 0 5.2 27h21.6a2.2 2.2 0 0 0 2.2-2.2V7.2A2.2 2.2 0 0 0 26.8 5ZM5 7.2c0-.11.09-.2.2-.2h21.6c.11 0 .2.09.2.2V15h-5.79a1 1 0 0 0-.828.44l-2.7 3.998-1.858-9.627a1 1 0 0 0-1.81-.37L10.257 15H5V7.2ZM5 17v7.8c0 .11.09.2.2.2h21.6a.2.2 0 0 0 .2-.2V17h-5.258l-3.755 5.56a1 1 0 0 1-1.811-.37l-1.858-9.628-2.7 3.998a1 1 0 0 1-.829.44H5Z" clip-rule="evenodd"/></svg>