<svg xmlns="http://www.w3.org/2000/svg" fill="none" viewBox="0 0 16 16" class="acv-icon"><path fill="currentColor" d="M5.3333 4.1536V2.8334a.8334.8334 0 1 1 1.6667 0v3.3338a.8334.8334 0 0 1-.8333.8334H2.8333A.8334.8334 0 0 1 2 6.1672a.8334.8334 0 0 1 .8333-.8335h1.322l-1.772-1.7683c-.3257-.3254-.3268-.854-.0024-1.1807a.8307.8307 0 0 1 1.1773-.0024l1.7751 1.7713ZM5.4418 9.3823l-1.7751 1.7713V9.8334a.8334.8334 0 1 0-1.6667 0v3.3338c0 .4603.3731.8334.8333.8334h3.3334A.8334.8334 0 0 0 7 13.1672a.8334.8334 0 0 0-.8333-.8335h-1.322l1.772-1.7683c.3257-.3254.3268-.854.0024-1.1807a.8307.8307 0 0 0-1.1773-.0024ZM10.6667 13.1672V11.847l1.7751 1.7713a.8307.8307 0 0 0 1.1773-.0023c.3244-.3268.3233-.8554-.0024-1.1808l-1.7721-1.7683h1.3221A.8334.8334 0 0 0 14 9.8334.8334.8334 0 0 0 13.1667 9H9.8333A.8334.8334 0 0 0 9 9.8334v3.3338a.8334.8334 0 1 0 1.6667 0ZM10.5582 6.6183l1.7751-1.7713v1.3202a.8334.8334 0 1 0 1.6667 0V2.8334A.8334.8334 0 0 0 13.1667 2H9.8333A.8334.8334 0 0 0 9 2.8334c0 .4603.3731.8335.8333.8335h1.3221L9.3833 5.4352c-.3257.3254-.3268.854-.0024 1.1808a.8307.8307 0 0 0 1.1773.0023Z"/></svg>