<svg xmlns="http://www.w3.org/2000/svg" fill="none" viewBox="0 0 16 16" class="acv-icon"><circle cx="8" cy="8" r="8" fill="#fff"/><path fill="#408BEA" d="M8 15c-3.866 0-7-3.134-7-7s3.134-7 7-7 7 3.134 7 7-3.134 7-7 7Z"/><path fill="#fff" d="M10.9891 6.75c0 1.6569-1.3432 3-3 3-1.6569 0-3-1.3431-3-3s1.3431-3 3-3c1.6568 0 3 1.3431 3 3ZM12.6405 13.6144c-1.2727.9896-2.8721 1.5788-4.6091 1.5788-1.7655 0-3.3887-.6087-4.6714-1.6277.6358-1.3674 2.0217-2.3155 3.629-2.3155h2c1.6265 0 3.0263.9707 3.6515 2.3644Z"/></svg>