<svg xmlns="http://www.w3.org/2000/svg" fill="none" viewBox="0 0 24 24" class="acv-icon"><path fill="currentColor" d="M4.3251 12.4029c-.1632-.3394-.2448-.833-.2448-1.4806 0-.6503.0816-1.1438.2448-1.4806.1632-.3394.4055-.509.7267-.509.6321 0 .9482.6632.9482 1.9896s-.3186 1.9896-.956 1.9896c-.316 0-.5557-.1697-.7189-.509ZM15.5169 10.6502h-.272V9.0026h.2642c.2409 0 .4184.0621.5324.1865.1166.1218.1749.3277.1749.6179 0 .2798-.0544.4909-.1632.6334-.1089.1399-.2876.2098-.5363.2098Z"/><path fill="currentColor" fill-rule="evenodd" d="M3 2c-1.1046 0-2 .8954-2 2v13c0 1.1046.8954 2 2 2h5.8l-.6323 2.3712c-.0847.3174.1546.6288.4831.6288h6.6984c.3285 0 .5678-.3114.4831-.6288L15.2 19H21c1.1046 0 2-.8954 2-2V4c0-1.1046-.8954-2-2-2H3Zm4.0842 8.9223c0 .9404-.1762 1.6632-.5285 2.1684-.3523.5052-.8562.7577-1.5117.7577-.658 0-1.1632-.2512-1.5155-.7538C3.1762 12.5894 3 11.8627 3 10.9145c0-.9404.1762-1.6606.5285-2.1606C3.8808 8.2513 4.3886 8 5.0518 8c.6555 0 1.158.2526 1.5078.7578.3497.5026.5246 1.224.5246 2.1645Zm3.1516-2.833h1.0647l-1.3368 5.6814H8.6192l-1.329-5.6813h1.0647l.7423 3.4702c.0673.2953.1334.7189.1981 1.2707.0545-.4689.1231-.8925.206-1.2707l.7345-3.4702Zm1.7564 5.6814V8.0894h.9948v5.6813h-.9948Zm3.2527-2.2111v2.2111h-1.057V8.0894h1.3834c.5855 0 1.0168.1386 1.294.4158.2798.2772.4197.7007.4197 1.2707 0 .7176-.2422 1.2189-.7267 1.5039l1.092 2.4909h-1.1308l-.8977-2.2111h-.3769Zm4.6669 2.2111h-1.0531V9.0181h-1.0881v-.9287h3.2293v.9287h-1.0881v4.7526Z" clip-rule="evenodd"/></svg>