<svg xmlns="http://www.w3.org/2000/svg" fill="none" viewBox="0 0 32 32" class="acv-icon"><path fill="currentColor" fill-rule="evenodd" d="M16 4c-3.3137 0-6 2.6863-6 6v3H8.5c-1.1046 0-2 .8954-2 2v10c0 1.1046.8954 2 2 2h15c1.1046 0 2-.8954 2-2V15c0-1.1046-.8954-2-2-2H22v-3c0-3.3137-2.6863-6-6-6Zm3 9v-3c0-1.6569-1.3431-3-3-3s-3 1.3431-3 3v3h6Zm-1 6c0 .7403-.4022 1.3866-1 1.7324V22c0 .5523-.4477 1-1 1s-1-.4477-1-1v-1.2676c-.5978-.3458-1-.9921-1-1.7324 0-1.1046.8954-2 2-2s2 .8954 2 2Z" clip-rule="evenodd"/></svg>