<svg xmlns="http://www.w3.org/2000/svg" fill="none" viewBox="0 0 16 16" class="acv-icon"><path fill="currentColor" d="M7 14c.5523 0 1 .4477 1 1s-.4477 1-1 1H1c-.5523 0-1-.4477-1-1V1c0-.5523.4477-1 1-1h12c.5523 0 1 .4477 1 1v4c0 .5523-.4477 1-1 1s-1-.4477-1-1V2H2v12h5Z"/><path fill="currentColor" fill-rule="evenodd" d="m10.4511 12.4959.3187.082a.7952.7952 0 0 1 .5159.416v2.5843c0 .347.4032.545.6857.3368l.6963-.6194a.5.5 0 0 1 .6646 0l.6963.6194c.2825.2082.6857.0102.6857-.3368v-2.5843a.7952.7952 0 0 1 .5159-.416l.3187-.082a.6114.6114 0 0 0 .152-.0618c.2879-.1655.3847-.5289.2163-.8117l-.1663-.2793a.7723.7723 0 0 1 0-.7921l.1663-.2793a.589.589 0 0 0 .063-.1493c.0844-.317-.1087-.6412-.4313-.7242l-.3187-.082c-.2791-.0717-.497-.2858-.5701-.56l-.0834-.313a.5901.5901 0 0 0-.063-.1494c-.1684-.2828-.5383-.378-.8262-.2125l-.2843.1634a.811.811 0 0 1-.8064 0l-.2843-.1634a.6092.6092 0 0 0-.152-.0618c-.3226-.083-.6527.1067-.7372.4237l-.0834.313c-.0731.2742-.291.4883-.5701.56l-.3187.082a.61.61 0 0 0-.152.0619c-.2879.1654-.3847.5288-.2163.8116l.1663.2793a.7723.7723 0 0 1 0 .7921l-.1663.2793a.5906.5906 0 0 0-.063.1493c-.0844.317.1087.6413.4313.7242ZM14 11c0 .5523-.4477 1-1 1s-1-.4477-1-1 .4477-1 1-1 1 .4477 1 1Z" clip-rule="evenodd"/><path fill="currentColor" d="M4 4h2c.5523 0 1 .4477 1 1s-.4477 1-1 1H4c-.5523 0-1-.4477-1-1s.4477-1 1-1ZM8 7c.5523 0 1 .4477 1 1s-.4477 1-1 1H4c-.5523 0-1-.4477-1-1s.4477-1 1-1h4ZM4 10h2c.5523 0 1 .4477 1 1s-.4477 1-1 1H4c-.5523 0-1-.4477-1-1s.4477-1 1-1Z"/></svg>