<svg xmlns="http://www.w3.org/2000/svg" fill="none" viewBox="0 0 16 16" class="acv-icon"><path fill="currentColor" d="M5 1c0-.5523.4477-1 1-1h4c.5523 0 1 .4477 1 1s-.4477 1-1 1H6c-.5523 0-1-.4477-1-1ZM6.5 6.5c.5523 0 1 .4477 1 1v4c0 .5523-.4477 1-1 1s-1-.4477-1-1v-4c0-.5523.4477-1 1-1ZM10.5 7.5c0-.5523-.4477-1-1-1s-1 .4477-1 1v4c0 .5523.4477 1 1 1s1-.4477 1-1v-4Z"/><path fill="currentColor" fill-rule="evenodd" d="M1 4c0-.5523.4477-1 1-1h12c.5523 0 1 .4477 1 1s-.4477 1-1 1h-.0444l-.4566 10.0454A1 1 0 0 1 12.5 16h-9a1 1 0 0 1-.999-.9546L2.0444 5H2c-.5523 0-1-.4477-1-1Zm3.0465 1 .409 9h7.0889l.4091-9h-7.907Z" clip-rule="evenodd"/></svg>