<svg xmlns="http://www.w3.org/2000/svg" fill="none" viewBox="0 0 16 16" class="acv-icon"><path fill="currentColor" fill-rule="evenodd" d="M10.637 5.363a.9.9 0 0 1 0 1.273l-4 4a.9.9 0 1 1-1.272-1.273l4-4a.9.9 0 0 1 1.272 0Z" clip-rule="evenodd"/><path fill="currentColor" d="M9.876 11a1.125 1.125 0 1 0 0-2.25 1.125 1.125 0 0 0 0 2.25Z"/><path fill="currentColor" fill-rule="evenodd" d="M9.876 10.307a.433.433 0 1 0 0-.865.433.433 0 0 0 0 .865ZM11 9.874a1.125 1.125 0 1 1-2.25 0 1.125 1.125 0 0 1 2.25 0Z" clip-rule="evenodd"/><path fill="currentColor" d="M6.126 7.25a1.125 1.125 0 1 0 0-2.25 1.125 1.125 0 0 0 0 2.25Z"/><path fill="currentColor" fill-rule="evenodd" d="M6.126 6.557a.433.433 0 1 0 0-.865.433.433 0 0 0 0 .865Zm1.125-.432a1.125 1.125 0 1 1-2.25 0 1.125 1.125 0 0 1 2.25 0Z" clip-rule="evenodd"/><path fill="currentColor" fill-rule="evenodd" d="m14.415 4.536-.053-.669a2.425 2.425 0 0 0-2.225-2.225l-.67-.055a2.426 2.426 0 0 1-1.38-.57L9.575.58a2.426 2.426 0 0 0-3.147 0l-.511.434c-.39.332-.873.531-1.381.572l-.67.052a2.425 2.425 0 0 0-2.225 2.226l-.054.669c-.04.508-.24.992-.571 1.38l-.436.512a2.426 2.426 0 0 0 0 3.147l.434.512c.331.389.531.872.571 1.38l.053.67a2.425 2.425 0 0 0 2.225 2.225l.67.054c.508.04.991.24 1.38.572l.514.434c.905.773 2.239.773 3.146 0l.512-.434c.39-.332.873-.531 1.38-.572l.67-.052a2.425 2.425 0 0 0 2.225-2.225l.055-.67c.04-.508.24-.991.57-1.38l.436-.512a2.426 2.426 0 0 0 0-3.147l-.435-.512a2.417 2.417 0 0 1-.571-1.379Zm-.949 2.68-.002-.004a4.417 4.417 0 0 1-1.043-2.518l-.052-.668a.425.425 0 0 0-.39-.39h-.004l-.665-.055h-.003A4.427 4.427 0 0 1 8.79 2.539l-.512-.437a.426.426 0 0 0-.553 0l-.002.002-.51.433-.001.001A4.426 4.426 0 0 1 4.694 3.58l-.669.053a.426.426 0 0 0-.39.39v.003l-.054.666v.002A4.427 4.427 0 0 1 2.538 7.21l-.438.513a.426.426 0 0 0 .001.553l.002.002.433.51c.604.71.968 1.591 1.042 2.518l.052.669a.426.426 0 0 0 .39.39h.004l.666.055h.002a4.427 4.427 0 0 1 2.517 1.042l.509.43.005.006a.426.426 0 0 0 .553-.002l.002-.001.51-.433a4.429 4.429 0 0 1 2.519-1.042l.668-.053a.426.426 0 0 0 .39-.39l.001-.003.054-.666v-.002a4.426 4.426 0 0 1 1.042-2.517l.436-.513a.426.426 0 0 0-.001-.553l-.002-.001-.43-.507Z" clip-rule="evenodd"/></svg>