<svg xmlns="http://www.w3.org/2000/svg" fill="none" viewBox="0 0 16 16" class="acv-icon"><path fill="currentColor" d="M4 10V8c0-.5523.4477-1 1-1s1 .4477 1 1v2c0 .5523-.4477 1-1 1s-1-.4477-1-1ZM7 8c0-.5523.4477-1 1-1s1 .4477 1 1v2c0 .5523-.4477 1-1 1s-1-.4477-1-1V8ZM10 8c0-.5523.4477-1 1-1s1 .4477 1 1v2c0 .5523-.4477 1-1 1s-1-.4477-1-1V8Z"/><path fill="currentColor" fill-rule="evenodd" d="M10.5858 4 11 3.5858A2 2 0 0 1 12.4142 3H13c1.1046 0 2 .8954 2 2v7c0 1.1046-.8954 2-2 2H3c-1.1046 0-2-.8954-2-2V5c0-1.1046.8954-2 2-2h.5858A2 2 0 0 1 5 3.5858L5.4142 4h5.1716ZM3 11c0 .5523.4477 1 1 1h8c.5523 0 1-.4477 1-1V5.4142a.4142.4142 0 0 0-.7071-.2929l-.5858.5858A1 1 0 0 1 11 6H5a1 1 0 0 1-.7071-.2929l-.5858-.5858A.4142.4142 0 0 0 3 5.4143V11Z" clip-rule="evenodd"/></svg>