<svg xmlns="http://www.w3.org/2000/svg" fill="none" viewBox="0 0 96 96" class="acv-icon"><path fill="url(#MobileDefaultEnabledIll96:a)" d="M32 21c0-3.3137 2.6863-6 6-6h20c3.3137 0 6 2.6863 6 6v54c0 3.3137-2.6863 6-6 6H38c-3.3137 0-6-2.6863-6-6V21Z"/><path fill="url(#MobileDefaultEnabledIll96:b)" d="M38 15h20c3.3137 0 6 2.6863 6 6v43L38 15Z" opacity=".15"/><path fill="url(#MobileDefaultEnabledIll96:c)" d="M47.8667 15H58c3.3137 0 6 2.6863 6 6v23L47.8667 15Z" opacity=".25"/><rect width="8" height="2" x="44" y="17" fill="#434C59" rx="1"/><path fill="#434C59" d="M29 20c0-4.4183 3.5817-8 8-8h22c4.4183 0 8 3.5817 8 8v56c0 4.4183-3.5817 8-8 8H37c-4.4183 0-8-3.5817-8-8V20Z"/><path fill="#6C7480" fill-rule="evenodd" d="M59 13H37c-3.866 0-7 3.134-7 7v56c0 3.866 3.134 7 7 7h22c3.866 0 7-3.134 7-7V20c0-3.866-3.134-7-7-7Zm-22-1c-4.4183 0-8 3.5817-8 8v56c0 4.4183 3.5817 8 8 8h22c4.4183 0 8-3.5817 8-8V20c0-4.4183-3.5817-8-8-8H37Z" clip-rule="evenodd"/><defs><linearGradient id="MobileDefaultEnabledIll96:a" x1="31" x2="65" y1="36.1" y2="34.9667" gradientUnits="userSpaceOnUse"><stop stop-color="#40A9FF"/><stop offset="1" stop-color="#A6D7FF"/></linearGradient><linearGradient id="MobileDefaultEnabledIll96:b" x1="51.3333" x2="51.3333" y1="15" y2="62.8605" gradientUnits="userSpaceOnUse"><stop stop-color="#FAFCFF"/><stop offset="1" stop-color="#FAFCFF" stop-opacity="0"/></linearGradient><linearGradient id="MobileDefaultEnabledIll96:c" x1="56.3667" x2="56.3667" y1="15" y2="40.875" gradientUnits="userSpaceOnUse"><stop stop-color="#FAFCFF"/><stop offset="1" stop-color="#FAFCFF" stop-opacity="0"/></linearGradient></defs></svg>