<svg xmlns="http://www.w3.org/2000/svg" fill="none" viewBox="0 0 24 24" class="acv-icon"><path fill="currentColor" d="M19.9687 10.2441c-.1552-1.8665-.88-3.5712-2.0001-4.94l1.7678-1.7677a.9.9 0 0 0-1.2728-1.2728l-1.7677 1.7677C15.1444 2.7617 13.1611 2 11 2s-4.1444.7617-5.6959 2.0313L3.5364 2.2636a.9.9 0 0 0-1.2728 1.2728l1.7677 1.7677C2.7617 6.8556 2 8.839 2 11s.7617 4.1444 2.0313 5.6959l-1.7677 1.7677a.9.9 0 0 0 1.2728 1.2728l1.7677-1.7678c1.3688 1.1201 3.0735 1.8449 4.94 2.0001a8.003 8.003 0 0 1-.243-1.8374 7.1666 7.1666 0 0 1-3.4162-1.4434l1.9015-1.9015a.9.9 0 0 0-1.2728-1.2728l-1.9015 1.9015C4.3644 14.1959 3.8 12.6638 3.8 11c0-1.6638.5644-3.1959 1.5121-4.415l1.9015 1.9014a.9.9 0 0 0 1.2728-1.2728L6.5849 5.3121C7.8041 4.3644 9.3362 3.8 11 3.8c1.6638 0 3.1959.5644 4.4151 1.5121l-1.9015 1.9015a.9.9 0 0 0 1.2728 1.2728l1.9015-1.9015a7.1666 7.1666 0 0 1 1.4434 3.4162 8.003 8.003 0 0 1 1.8374.243Z"/><path fill="currentColor" d="M12.8 11c0 .9941-.8059 1.8-1.8 1.8-.9941 0-1.8-.8059-1.8-1.8 0-.9941.8059-1.8 1.8-1.8.9941 0 1.8.8059 1.8 1.8Z"/><path fill="currentColor" fill-rule="evenodd" d="M18 24c3.3137 0 6-2.6863 6-6s-2.6863-6-6-6-6 2.6863-6 6 2.6863 6 6 6Zm1-6.5858V21c0 .5523-.4477 1-1 1s-1-.4477-1-1v-3.5858l-1.2929 1.2929c-.3905.3905-1.0237.3905-1.4142 0-.3905-.3905-.3905-1.0237 0-1.4142l3-3c.3905-.3905 1.0237-.3905 1.4142 0l3 3c.3905.3905.3905 1.0237 0 1.4142-.3905.3905-1.0237.3905-1.4142 0L19 17.4142Z" clip-rule="evenodd"/></svg>