<svg xmlns="http://www.w3.org/2000/svg" fill="none" viewBox="0 0 32 32" class="acv-icon"><path fill="currentColor" fill-rule="evenodd" d="M12.0015 5c0 2.2091 1.7908 4 4 4 2.2091 0 4-1.7909 4-4 0-2.2091-1.7909-4-4-4-2.2092 0-4 1.7909-4 4Zm6 0c0 1.1046-.8955 2-2 2-1.1046 0-2-.8954-2-2s.8954-2 2-2c1.1045 0 2 .8954 2 2ZM3.0015 7.5c0 1.933 1.567 3.5 3.5 3.5s3.5-1.567 3.5-3.5-1.567-3.5-3.5-3.5-3.5 1.567-3.5 3.5Zm5.3 0c0 .9941-.806 1.8-1.8 1.8-.9942 0-1.8-.8059-1.8-1.8 0-.9941.8058-1.8 1.8-1.8.994 0 1.8.8059 1.8 1.8ZM25.5015 11c-1.933 0-3.5-1.567-3.5-3.5s1.567-3.5 3.5-3.5 3.5 1.567 3.5 3.5-1.567 3.5-3.5 3.5Zm-.0001-1.7c.9941 0 1.8-.8059 1.8-1.8 0-.9941-.8059-1.8-1.8-1.8-.9941 0-1.8.8059-1.8 1.8 0 .9941.8059 1.8 1.8 1.8ZM10.5017 19.1231l-.4811-4.3944C9.7919 12.6395 11.5952 11 13.8924 11h4.2182c2.3015 0 4.1007 1.6374 3.8718 3.7287l-.4811 4.3944c-.1127 1.0296-.7075 1.9548-1.5975 2.5996l-.7098 8.0158c-.1134 1.1301-1.0208 1.263-3.1935 1.2615-2.1743-.0015-3.0785-.1344-3.1927-1.2732l-.7088-8.0052c-.8897-.6448-1.4847-1.5694-1.5973-2.5985Zm7.4531 1.9347a1.0002 1.0002 0 0 1 .5098-.7856c.61-.3395.9924-.8539 1.0485-1.3667l.4811-4.3945c.0881-.8041-.6887-1.511-1.8836-1.511h-4.2183c-1.1909 0-1.9714.7096-1.8836 1.511l.4811 4.3945c.056.5119.4385 1.026 1.0487 1.3659.2894.1612.4802.4554.5095.7854l.6972 7.8757c.3382.0428.7878.0672 1.2567.0675.4691.0003.9181-.0234 1.2556-.0659l.6973-7.8763Z" clip-rule="evenodd"/><path fill="currentColor" d="M3.8247 29.8067c.1939 1.5836 5.2193 1.5874 5.4118.0166l.758-7.187c.0579-.5493-.343-1.0413-.8952-1.0989-.5523-.0576-1.047.341-1.1048.8903l-.6895 6.539c-.2234.0216-.4931.0335-.773.0333-.28-.0002-.5502-.0126-.7742-.0345l-.6893-6.5386a1.0003 1.0003 0 0 0-.5808-.8046c-.5951-.2716-.9441-.6558-.9871-.9776l-.4804-4.5908C2.9534 15.5511 3.6935 15 4.9136 15H7.144c.5553 0 1.0055-.4477 1.0055-1s-.4502-1-1.0055-1H4.9136c-2.287 0-4.145 1.3835-3.8902 3.2893l.4804 4.5908c.1254.9404.7322 1.7348 1.6201 2.2808l.7008 6.6458ZM30.4916 20.9082l.487-4.6471C31.2301 14.3818 29.3769 13 27.0863 13h-2.2297c-.5551 0-1.0051.4477-1.0051 1s.45 1 1.0051 1h2.2297c1.2238 0 1.9599.5488 1.8961 1.0257l-.4869 4.6472c-.0397.2944-.3884.6788-.9833.95a1.0006 1.0006 0 0 0-.5809.8048l-.6892 6.539c-.2233.0216-.493.0335-.7727.0333-.2799-.0002-.55-.0126-.774-.0345l-.689-6.5386c-.0579-.5493-.5524-.9479-1.1045-.8903-.5521.0576-.9528.5496-.8949 1.0989l.7559 7.1712c.1939 1.5836 5.2177 1.5874 5.4101.0166l.7022-6.6613c.8878-.5455 1.4939-1.3367 1.6164-2.2538Z"/></svg>