<svg xmlns="http://www.w3.org/2000/svg" fill="none" viewBox="0 0 16 16" class="acv-icon"><path fill="currentColor" d="M10 11.0319c-.5523 0-1 .4478-1 1V13H2V3h7v1.0278c0 .5523.4477 1 1 1s1-.4477 1-1V2c0-.5523-.4477-1-1-1H1c-.5523 0-1 .4477-1 1v12c0 .5523.4477 1 1 1h9c.5523 0 1-.4477 1-1v-1.9681c0-.5522-.4477-1-1-1Z"/><path fill="currentColor" d="M6.7929 11.2071c.3905.3905 1.0237.3905 1.4142 0 .3905-.3905.3905-1.0237 0-1.4142L7.4142 9H15c.5523 0 1-.4477 1-1s-.4477-1-1-1H7.4142l.793-.7929c.3904-.3905.3904-1.0237 0-1.4142-.3906-.3905-1.0238-.3905-1.4143 0l-2.5 2.5c-.3905.3905-.3905 1.0237 0 1.4142l2.5 2.5Z"/></svg>