<svg xmlns="http://www.w3.org/2000/svg" fill="none" viewBox="0 0 32 32" class="acv-icon"><path fill="currentColor" d="M24.9782 11H27l-1.2281-6.1945A1 1 0 0 0 24.791 4H5.9747a1 1 0 0 0-.9812.8067L2 20v8c0 .5523.4477 1 1 1h13.8693v-2H3.9826v-6h12.876v-2H4.2005L6.7778 6h17.2091l.9913 5Z"/><path fill="currentColor" fill-rule="evenodd" d="M22 19v-3.5c0-1.3807 1.1193-2.5 2.5-2.5s2.5 1.1193 2.5 2.5V19h3v2H19v-2h3Zm3 0v-3.5a.5.5 0 0 0-1 0V19h1Z" clip-rule="evenodd"/><path fill="currentColor" d="M21 22h-2v7h2v-7ZM17 23H6v2h11v-2ZM22 22h2v7h-2v-7ZM27 22h-2v7h2v-7ZM28 22h2v7h-2v-7Z"/></svg>