<svg xmlns="http://www.w3.org/2000/svg" fill="none" viewBox="0 0 96 96" class="acv-icon"><path fill="url(#DesktopVmEnabledIll96:a)" fill-opacity=".2" d="M15 63h66v2H15v-2Z"/><path fill="#fff" fill-opacity=".1" d="M15 63h66v1H15v-1Z"/><path fill="url(#DesktopVmEnabledIll96:b)" d="M15 21h66v42H15V21Z"/><path stroke="url(#DesktopVmEnabledIll96:c)" stroke-opacity=".2" d="M80.5 21.5v41h-65v-41h65Z"/><path fill="#FAFCFF" d="m40.476 38.2727 1.9517 6.3921h.0725l1.9517-6.3921h2.3608L43.8681 47h-2.8083l-2.9446-8.7273h2.3608ZM47.7523 38.2727h2.6122l2.2159 5.4034h.1023l2.2159-5.4034h2.6122V47h-2.0539v-5.3608h-.0725l-2.0966 5.3054h-1.3125l-2.0966-5.3352h-.0724V47h-2.054v-8.7273Z"/><path fill="url(#DesktopVmEnabledIll96:d)" d="M32 21h49v42H56L32 21Z" opacity=".15"/><path fill="url(#DesktopVmEnabledIll96:e)" d="M49 21h32v23H63.1224L49 21Z" opacity=".25"/><path fill="#434C59" fill-rule="evenodd" d="M12 20.25c0-1.2426 1.0074-2.25 2.25-2.25h67.5c1.2426 0 2.25 1.0074 2.25 2.25v47.5c0 1.2426-1.0074 2.25-2.25 2.25H57v4h6c.5523 0 1 .4477 1 1v2c0 .5523-.4477 1-1 1H33c-.5523 0-1-.4477-1-1v-2c0-.5523.4477-1 1-1h6v-4H14.25C13.0074 70 12 68.9926 12 67.75v-47.5ZM42 70h12v1c0 .5523-.4477 1-1 1H43c-.5523 0-1-.4477-1-1v-1Z" clip-rule="evenodd"/><path fill="#A1A8B2" d="M14.25 18C13.0074 18 12 19.0074 12 20.25v1c0-1.2426 1.0074-2.25 2.25-2.25h67.5c1.2426 0 2.25 1.0074 2.25 2.25v-1c0-1.2426-1.0074-2.25-2.25-2.25h-67.5Z" opacity=".2"/><path fill="#82E03D" d="M77 67.5a.5.5 0 0 1 .5-.5h3a.5.5 0 0 1 0 1h-3a.5.5 0 0 1-.5-.5Z"/><path fill="#303640" d="M15.5 67a.5.5 0 0 0 0 1h3a.5.5 0 0 0 0-1h-3ZM59 67.5a.5.5 0 0 1 .5-.5h3a.5.5 0 0 1 0 1h-3a.5.5 0 0 1-.5-.5ZM65.5 67a.5.5 0 0 0 0 1h3a.5.5 0 0 0 0-1h-3ZM71.5 67a.5.5 0 0 0 0 1h3a.5.5 0 0 0 0-1h-3Z"/><path fill="#303640" d="M12 66.75v1c0 1.2426 1.0074 2.25 2.25 2.25h67.5c1.2426 0 2.25-1.0074 2.25-2.25v-1c0 1.2426-1.0074 2.25-2.25 2.25h-67.5C13.0074 69 12 67.9926 12 66.75ZM32 76v1c0 .5523.4477 1 1 1h30c.5523 0 1-.4477 1-1v-1c0 .5523-.4477 1-1 1H33c-.5523 0-1-.4477-1-1Z"/><path fill="#6C7480" d="M33 74c-.5523 0-1 .4477-1 1v1c0-.5523.4477-1 1-1h30c.5523 0 1 .4477 1 1v-1c0-.5523-.4477-1-1-1H33Z"/><defs><linearGradient id="DesktopVmEnabledIll96:a" x1="48" x2="48" y1="63" y2="65" gradientUnits="userSpaceOnUse"><stop stop-color="#fff"/><stop offset="1" stop-color="#fff" stop-opacity="0"/></linearGradient><linearGradient id="DesktopVmEnabledIll96:b" x1="16" x2="81" y1="63" y2="21" gradientUnits="userSpaceOnUse"><stop stop-color="#40A9FF"/><stop offset="1" stop-color="#A6D2FF"/><stop offset="1" stop-color="#A6D7FF"/></linearGradient><linearGradient id="DesktopVmEnabledIll96:c" x1="48" x2="48" y1="21" y2="63" gradientUnits="userSpaceOnUse"><stop/><stop offset="1" stop-color="#fff" stop-opacity="0"/></linearGradient><linearGradient id="DesktopVmEnabledIll96:d" x1="44" x2="44" y1="21" y2="63" gradientUnits="userSpaceOnUse"><stop stop-color="#fff"/><stop offset="1" stop-color="#EBEBEB" stop-opacity="0"/></linearGradient><linearGradient id="DesktopVmEnabledIll96:e" x1="56.5" x2="56.5" y1="21" y2="44" gradientUnits="userSpaceOnUse"><stop stop-color="#fff"/><stop offset="1" stop-color="#fff" stop-opacity="0"/></linearGradient></defs></svg>