<svg xmlns="http://www.w3.org/2000/svg" fill="none" viewBox="0 0 16 16" class="acv-icon"><circle cx="8" cy="8" r="8" fill="#EA3939"/><circle cx="8" cy="8" r="7.5" stroke="#243143" stroke-opacity=".1"/><path fill="#fff" fill-rule="evenodd" d="M9.5 9.5048c1.6569 0 3-1.3442 3-3.0024 0-1.6582-1.3431-3.0024-3-3.0024s-3 1.3442-3 3.0024c0 .4636.105.9025.2924 1.2945l-2.4995 2.5015c-.3905.3908-.3905 1.0245 0 1.4153a.9993.9993 0 0 0 1.4142 0l.25-.2502.6894.6899a.4996.4996 0 0 0 .707 0l.793-.7935a.5007.5007 0 0 0 0-.7077l-.6894-.6899.7495-.75A2.9862 2.9862 0 0 0 9.5 9.5047Zm1.25-3.0024c0 .691-.5596 1.251-1.25 1.251s-1.25-.56-1.25-1.251c0-.6909.5596-1.251 1.25-1.251s1.25.5601 1.25 1.251Z" clip-rule="evenodd"/></svg>