<svg xmlns="http://www.w3.org/2000/svg" fill="none" viewBox="0 0 24 24" class="acv-icon"><path fill="currentColor" fill-rule="evenodd" d="M4 4c0-1.1046.8954-2 2-2h12c1.1046 0 2 .8954 2 2v6.252A8.0156 8.0156 0 0 0 18 10a8.08 8.08 0 0 0-1.0019.0621A.9812.9812 0 0 0 17 10c0-.5523-.4477-1-1-1h-2c-.5523 0-1 .4477-1 1s.4477 1 1 1h.124C11.6646 12.3647 10 14.988 10 18c0 1.4571.3896 2.8233 1.0703 4H6c-1.1046 0-2-.8954-2-2V4Zm4 5c-.5523 0-1 .4477-1 1s.4477 1 1 1h2c.5523 0 1-.4477 1-1s-.4477-1-1-1H8ZM7 6c0-.5523.4477-1 1-1h8c.5523 0 1 .4477 1 1s-.4477 1-1 1H8c-.5523 0-1-.4477-1-1Z" clip-rule="evenodd"/><path fill="currentColor" fill-rule="evenodd" d="M24 18c0 3.3137-2.6863 6-6 6s-6-2.6863-6-6 2.6863-6 6-6 6 2.6863 6 6Zm-5-2.5c0-.2761.2451-.5.5-.5h1.0385c.2549 0 .4615.2239.4615.5v5c0 .2761-.2066.5-.4615.5h-5.077c-.2549 0-.4615-.2239-.4615-.5v-5c0-.2761.2066-.5.4615-.5H16.5c.2549 0 .5.2239.5.5v2h2v-2Z" clip-rule="evenodd"/></svg>