<svg xmlns="http://www.w3.org/2000/svg" fill="none" viewBox="0 0 16 16" class="acv-icon"><circle cx="8" cy="8" r="8" fill="#fff"/><path fill="#9BC225" d="M8 15c-3.866 0-7-3.134-7-7s3.134-7 7-7 7 3.134 7 7-3.134 7-7 7Z"/><path fill="#fff" d="M7.523 3.5455c.1496-.4607.8013-.4607.951 0l.7593 2.3369a.5.5 0 0 0 .4755.3455h2.4571c.4844 0 .6857.6198.2939.9045l-1.9879 1.4442a.5.5 0 0 0-.1816.559l.7593 2.337c.1497.4606-.3776.8437-.7694.559l-1.9879-1.4443a.5.5 0 0 0-.5877 0l-1.988 1.4443c-.3918.2847-.919-.0984-.7693-.559l.7593-2.337a.5.5 0 0 0-.1817-.559L3.5371 7.1324c-.392-.2847-.1905-.9045.2938-.9045h2.4572a.5.5 0 0 0 .4755-.3455l.7593-2.337Z"/></svg>