<svg xmlns="http://www.w3.org/2000/svg" fill="none" viewBox="0 0 16 16" class="acv-icon"><path fill="currentColor" fill-rule="evenodd" d="m13.9979 6.0553 1.5832 1.1309c.4494.321.5535.9455.2325 1.395A.9987.9987 0 0 1 14.9999 9v3.9999c.5523 0 1 .4477 1 .9999 0 .5523-.4477 1-1 1H1.0001c-.5523 0-1-.4477-1-1 0-.5522.4477-.9999 1-.9999v-4a.9987.9987 0 0 1-.8138-.4188c-.321-.4494-.2169-1.074.2325-1.395l7-4.9999a1 1 0 0 1 1.1624 0L12 4.6282v-.6189c0-.5574.4439-1.0093 1-1.0093.5523 0 1 .4433 1 1.0093v1.9813c0 .0217-.0007.0433-.002.0647ZM8.9999 13h4V7.8002L8 4.229 3 7.8002V13h4v-2.0002a.9974.9974 0 0 1 1-.9998c.5523 0 1 .4437 1 .9998v2.0002Zm0-6C9 6.4476 8.5524 6 8 6s-1 .4477-1 1v1c0 .5523.4477 1 1 1s1-.4477 1-1V7ZM5 8c.5523 0 1 .4477 1 1v1c0 .5523-.4477 1-1 1-.5522 0-1-.4477-1-1v-1c0-.5523.4478-1 1-1Zm7 1c0-.5523-.4478-1-1-1-.5523 0-1 .4477-1 1v1c0 .5523.4477 1 1 1 .5522 0 1-.4477 1-1v-1Z" clip-rule="evenodd"/></svg>