<svg xmlns="http://www.w3.org/2000/svg" fill="none" viewBox="0 0 32 32" class="acv-icon"><path fill="currentColor" d="M14.8417 19.7647h.6059c.5664 0 .9901-.103 1.2713-.3092.2812-.2061.4218-.5061.4218-.9001 0-.3976-.1178-.6913-.3535-.881-.2356-.1897-.6049-.2845-1.1079-.2845h-.8376v2.3748Z"/><path fill="currentColor" fill-rule="evenodd" d="M16 3c.5523 0 1 .4477 1 1v7c0 .5523.4477 1 1 1h7c.5523 0 1 .4477 1 1v15c0 .5523-.4477 1-1 1H7c-.5523 0-1-.4477-1-1V4c0-.5523.4477-1 1-1h9Zm-1.1584 21v-2.8454h.7901c1.0772 0 1.9079-.228 2.4921-.684.5841-.456.8762-1.1145.8762-1.9754 0-.8281-.2743-1.451-.8228-1.8687-.5485-.4177-1.3495-.6265-2.4029-.6265H13v8h1.8416Z" clip-rule="evenodd"/><path fill="currentColor" d="M20 10c-.5523 0-1-.4477-1-1V4.2071c0-.4454.5386-.6685.8536-.3535l5.2928 5.2928c.315.315.0919.8536-.3535.8536H20Z"/></svg>