<svg xmlns="http://www.w3.org/2000/svg" fill="none" viewBox="0 0 24 24" class="acv-icon"><path fill="currentColor" d="M10.9999 12.8147c0 .5523-.4477 1-1 1s-1-.4477-1-1 .4477-1 1-1 1 .4477 1 1ZM13.9999 12.8147c0 .5523-.4477 1-1 1s-1-.4477-1-1 .4477-1 1-1 1 .4477 1 1ZM10.9999 18.8147c0 .5523-.4477 1-1 1s-1-.4477-1-1 .4477-1 1-1 1 .4477 1 1Z"/><path fill="currentColor" fill-rule="evenodd" d="M2.4505 6.7063.4635 7.9708c-.466.2966-.6036.9148-.3071 1.3808l.0078.012c.2994.4563.9108.5887 1.3727.2948L2 9.3636v12.4511c0 .5523.4478 1 1 1h18c.5523 0 1-.4477 1-1V9.3637l.4632.2947c.4619.2939 1.0733.1615 1.3727-.2948l.0078-.012c.2965-.466.1584-1.0846-.3076-1.381l-10.4623-6.658a2 2 0 0 0-2.1475 0l-8.449 5.3766a1.023 1.023 0 0 0-.0268.0171ZM6 20.8147H4V8.0909L12 3l8 5.091v12.7237h-2.0001v-11c0-.5523-.4477-1-1-1h-10c-.5523 0-1 .4477-1 1v11Zm2-10h8v4h-8v-4Zm0 10v-4h8v4h-8Z" clip-rule="evenodd"/></svg>