<svg xmlns="http://www.w3.org/2000/svg" fill="none" viewBox="0 0 16 16" class="acv-icon"><path fill="currentColor" d="M7.0498 7.8428h.5479c.512 0 .8951-.1012 1.1494-.3035.2542-.2023.3813-.4968.3813-.8835 0-.3903-.1065-.6786-.3196-.8648-.213-.1862-.547-.2793-1.0017-.2793h-.7573v2.331Z"/><path fill="currentColor" fill-rule="evenodd" d="M1 1c0-.5523.4477-1 1-1h12c.5523 0 1 .4477 1 1v14c0 .5523-.4477 1-1 1H2c-.5523 0-1-.4477-1-1V1Zm6.0497 11V9.207h.7144c.974 0 1.725-.2238 2.2531-.6714.5282-.4475.7923-1.0939.7923-1.939 0-.8127-.248-1.4242-.7439-1.8341-.496-.41-1.2202-.615-2.1726-.615H5.3847V12h1.665Z" clip-rule="evenodd"/></svg>