<svg xmlns="http://www.w3.org/2000/svg" fill="none" viewBox="0 0 32 32" class="acv-icon"><path fill="#FFC107" fill-rule="evenodd" d="M25.348 20.66a.792.792 0 0 1 .274-.3c.36-.226.821-.093 1.03.3l5.246 9.857a.878.878 0 0 1 .102.412c0 .453-.337.821-.753.821H20.753a.707.707 0 0 1-.378-.11c-.36-.228-.482-.73-.273-1.123l5.246-9.858Z" clip-rule="evenodd"/><path stroke="#243143" stroke-opacity=".1" d="M26.055 20.758a.265.265 0 0 1 .156.137l5.246 9.857a.377.377 0 0 1 .043.177c0 .218-.153.32-.253.321H20.754a.207.207 0 0 1-.111-.033c-.124-.078-.194-.288-.1-.465l5.247-9.857a.295.295 0 0 1 .1-.112.198.198 0 0 1 .165-.025Z"/><path fill="#243143" fill-opacity=".9" d="M26 23.25a1 1 0 0 0-1 1v2a1 1 0 1 0 2 0v-2a1 1 0 0 0-1-1ZM26 30.25a1 1 0 1 0 0-2 1 1 0 0 0 0 2Z"/></svg>