<svg xmlns="http://www.w3.org/2000/svg" fill="none" viewBox="0 0 16 16" class="acv-icon"><path fill="currentColor" d="M5.4237 2.5h2.1695l3.5254 9.35h.2712l3.5255-9.35H16l-.4068.275L11.3898 13.5h-1.0847L6.2373 3.05l-.8136-.55Z"/><path fill="currentColor" fill-rule="evenodd" d="M3.7966 13.5c2.0968 0 3.7966-1.7237 3.7966-3.85S5.8934 5.8 3.7966 5.8 0 7.5237 0 9.65s1.6998 3.85 3.7966 3.85Zm2.4407-3.85c0 1.8225-1.0927 3.3-2.4407 3.3S1.356 11.4725 1.356 9.65c0-1.8225 1.0928-3.3 2.4407-3.3 1.348 0 2.4407 1.4775 2.4407 3.3Z" clip-rule="evenodd"/></svg>