<svg xmlns="http://www.w3.org/2000/svg" fill="none" viewBox="0 0 32 32" class="acv-icon"><path fill="currentColor" d="M22.3448 7.0057s0-.722.556-1.278c.89-.889 2.39-.833 3.279.056.945.945 1 2.389.111 3.279-.612.611-1.278.556-1.278.556-.501 0-1.056.111-1.222.277-.167.223-.056.611.333 1.001l4.168 4.168c.334.333.722.889.722 1 0 .111-.333.5-.722.89l-3.89 3.889c-.334.334-.89.779-1.001.723-.111-.056-.333-.222-.5-.389-.167-.167-.389-.444-.444-.555v-.112c.166-.722-.056-1.501-.556-2.001-.89-.888-2.335-.833-3.279.112-.945.945-1 2.389-.112 3.279.556.5 1.279.723 2.001.556h.112c.166.111.388.277.555.444.167.167.445.556.389.667 0 .111-.333.5-.723.889l-3.889 3.89c-.334.334-.89.778-1.001.723-.111 0-.5-.334-.889-.723l-4.168-4.168c-.389-.389-.834-.555-1-.334-.167.223-.278.779-.278 1.279 0 0 0 .722-.556 1.278-.89.889-2.334.834-3.279-.112-.945-.944-1.001-2.389-.111-3.278.611-.611 1.278-.555 1.278-.555.5.055 1.112-.112 1.278-.279.167-.166.056-.611-.333-1l-4.168-4.168c-.334-.334-.779-.889-.723-1.001 0-.11.334-.5.723-.888l4.168-4.168c.389-.39.555-.834.333-1.001-.222-.166-.778-.278-1.278-.278 0 0-.722 0-1.278-.555-.89-.89-.834-2.335.111-3.28.945-.944 2.389-1 3.223-.167.612.612.556 1.279.556 1.279-.056.5.111 1.111.278 1.278.166.167.611.056 1-.333l4.168-4.169c.334-.333.89-.777 1.001-.722.111 0 .5.333.889.722l4.168 4.169c.389.333.834.5 1 .333.167-.167.278-.723.278-1.223Z"/></svg>