<svg xmlns="http://www.w3.org/2000/svg" fill="none" viewBox="0 0 16 16" class="acv-icon"><path fill="currentColor" fill-rule="evenodd" d="M15 6.3023A5035.4095 5035.4095 0 0 1 15 2s-1.5-2-6.9997-2S1 2 1 2v8c0 3.4286 6.0006 6 7.0003 6C9 16 15.0077 13.3964 15 10c.0007-.6406.0003-2.1352 0-3.6977ZM9.7423 3.4595 9.2969 7.165h1.3274c.082 0 .1618.0297.2271.0847.1653.1391.1976.4004.0721.5836l-3.993 5c-.0798.1165-.2088.1781-.34.1623-.2062-.0249-.3552-.2305-.3328-.4592l.4454-3.7053H5.3757a.3523.3523 0 0 1-.2271-.0848c-.1653-.139-.1976-.4003-.0721-.5836l3.993-5c.0798-.1165.2088-.178.34-.1622.2062.0249.3552.2304.3328.4591Z" clip-rule="evenodd"/></svg>