<svg xmlns="http://www.w3.org/2000/svg" fill="none" viewBox="0 0 16 16" class="acv-icon"><path fill="currentColor" d="M2.518 2.912A3 3 0 0 1 5.459.5h5.082a3 3 0 0 1 2.941 2.412l1.302 6.507A3.984 3.984 0 0 0 13 9H3c-.641 0-1.247.15-1.784.419l1.302-6.507Z"/><path fill="currentColor" fill-rule="evenodd" d="M3 10.5a2.5 2.5 0 0 0 0 5h10a2.5 2.5 0 0 0 0-5H3Zm9.75 3.25a.75.75 0 1 0 0-1.5.75.75 0 0 0 0 1.5ZM2.5 13a.75.75 0 0 1 .75-.75h1.5a.75.75 0 0 1 0 1.5h-1.5A.75.75 0 0 1 2.5 13Z" clip-rule="evenodd"/></svg>