<svg xmlns="http://www.w3.org/2000/svg" fill="none" viewBox="0 0 16 16" class="acv-icon"><path fill="currentColor" fill-rule="evenodd" d="M8.341 15.9397C12.7803 14.319 15 12.5148 15 10.527V2.7317c0-.4494-.296-.8443-.7253-.9677l-6-1.7253a.9939.9939 0 0 0-.5494 0l-6 1.7253C1.296 1.8874 1 2.2823 1 2.7317v7.7953c0 1.9878 2.2197 3.792 6.659 5.4127a.9943.9943 0 0 0 .682 0ZM9.7929 5.7929 7.5 8.0858l-1.2929-1.293c-.3905-.3904-1.0237-.3904-1.4142 0-.3905.3906-.3905 1.0238 0 1.4143l2 2c.3905.3905 1.0237.3905 1.4142 0l3-3c.3905-.3905.3905-1.0237 0-1.4142-.3905-.3905-1.0237-.3905-1.4142 0Z" clip-rule="evenodd"/></svg>