<svg xmlns="http://www.w3.org/2000/svg" fill="none" viewBox="0 0 16 16" class="acv-icon"><path fill="currentColor" d="M12.6651 2.7533c-.8053-.7174-1.7683-1.2325-2.814-1.5118C9.5523.513 8.8361 0 8 0 6.8954 0 6 .8954 6 2s.8954 2 2 2c.6353 0 1.2014-.2962 1.5678-.7581.6555.2094 1.2568.5503 1.767 1.0048.4124.3673 1.0445.3308 1.4119-.0816.3673-.4123.3308-1.0444-.0816-1.4118ZM2.7533 3.3348c-.7174.8053-1.2325 1.7684-1.5118 2.814C.513 6.4478 0 7.164 0 8c0 1.1046.8954 2 2 2s2-.8954 2-2c0-.6353-.2962-1.2014-.758-1.5678.2093-.6555.5502-1.2568 1.0047-1.767.3674-.4124.3308-1.0445-.0815-1.4119-.4124-.3674-1.0445-.3308-1.4119.0815ZM13.2467 12.6652c.7174-.8053 1.2325-1.7684 1.5118-2.814C15.487 9.5522 16 8.836 16 8c0-1.1046-.8954-2-2-2s-2 .8954-2 2c0 .6353.2962 1.2014.7581 1.5678-.2094.6555-.5503 1.2568-1.0048 1.767-.3674.4124-.3309 1.0445.0815 1.4119.4124.3673 1.0445.3308 1.4119-.0815ZM6.1489 14.7585c-1.0457-.2793-2.0088-.7944-2.814-1.5118-.4125-.3674-.449-.9995-.0816-1.4119.3674-.4124.9995-.4489 1.4119-.0815.5102.4545 1.1114.7954 1.767 1.0048C6.7986 12.2962 7.3647 12 8 12c1.1046 0 2 .8954 2 2s-.8954 2-2 2c-.836 0-1.5523-.513-1.8511-1.2415Z"/></svg>