<svg xmlns="http://www.w3.org/2000/svg" fill="none" viewBox="0 0 24 24" class="acv-icon"><path fill="currentColor" fill-rule="evenodd" d="M11 18H3.5032C2.673 18 2 17.3361 2 16.5069V3.4931C2 2.6685 2.6654 2 3.5032 2h16.9935c.8302 0 1.5032.6639 1.5032 1.493V13h-4.5767c-1.0388 0-1.8681.4106-2.4909 1H4v2h9.383l-.9124 1.232c-1.1119 1.3202-1.1119 3.2157 0 4.5359l.1718.232H8.997a.996.996 0 0 1-.997-1c0-.5522.453-1 .997-1H11V18Zm8.9999-14v8h-16V4h16Z" clip-rule="evenodd"/><path fill="currentColor" fill-rule="evenodd" d="M16.1811 15.5823c.33-.3687.7233-.5823 1.2421-.5823h5.1039c.9594 0 1.4728.6164 1.4728 1.5v6c0 .8837-.5134 1.5-1.4728 1.5l-5.1039-.0001c-.5188 0-.9121-.2136-1.2421-.5823l-2.1478-2.9c-.5288-.591-.5288-1.4443 0-2.0353l2.1478-2.9Zm1.7374 3.9369c0 .5537-.4489 1.0027-1.0027 1.0027-.5538 0-1.0028-.449-1.0028-1.0027 0-.5538.449-1.0028 1.0028-1.0028.5538 0 1.0027.449 1.0027 1.0028Z" clip-rule="evenodd"/></svg>