<svg xmlns="http://www.w3.org/2000/svg" fill="none" viewBox="0 0 32 32" class="acv-icon"><path fill="#CADEF9" d="M8 8a8 8 0 1 1 16 0v16a8 8 0 1 1-16 0V8Z"/><path fill="currentColor" fill-rule="evenodd" d="M22 24V8a6 6 0 0 0-12 0v16a6 6 0 0 0 12 0ZM16 0a8 8 0 0 0-8 8v16a8 8 0 1 0 16 0V8a8 8 0 0 0-8-8Z" clip-rule="evenodd"/><rect width="8" height="2" x="12" y="15" fill="currentColor" rx="1"/><path fill="currentColor" fill-opacity=".3" d="M14 11a1 1 0 1 0 0 2h4a1 1 0 1 0 0-2h-4ZM14 19a1 1 0 1 0 0 2h4a1 1 0 1 0 0-2h-4Z"/><path fill="currentColor" fill-opacity=".1" d="M16 7a1 1 0 1 0 0 2 1 1 0 0 0 0-2ZM16 23a1 1 0 1 0 0 2 1 1 0 0 0 0-2Z"/></svg>