<svg xmlns="http://www.w3.org/2000/svg" fill="none" viewBox="0 0 32 32" class="acv-icon"><path fill="currentColor" d="M3.3828 26.0791c-.6924.3588-1.5536.191-2.0564-.3918-.6344-.7349-.4611-1.8365.3656-2.3643 4.1363-2.6417 6.2782-5.5217 6.2782-8.6402 0-1.5982-.1034-1.6983-3.3124-2.3972C1.8631 11.5864 0 9.2889 0 6.4924 0 2.7968 3.1052 0 7.0385 0c4.6581 0 7.867 3.6959 7.867 9.0894 0 6.9099-4.3696 13.2817-11.5227 16.9897ZM32 9.0894c0 6.9099-4.3696 13.2817-11.5228 16.9897-.6923.3588-1.5535.191-2.0563-.3918-.6344-.7349-.4612-1.8365.3656-2.3643 4.1362-2.6417 6.2781-5.5217 6.2781-8.6402 0-1.5982-.1034-1.6983-3.3123-2.3972-2.7948-.6992-4.6578-2.9967-4.6578-5.7932C17.0945 2.7968 20.1997 0 24.1329 0 28.7911 0 32 3.6959 32 9.0894Z"/></svg>