<svg xmlns="http://www.w3.org/2000/svg" fill="none" viewBox="0 0 24 24" class="acv-icon"><path fill="currentColor" fill-rule="evenodd" d="M12 1c4.1162 0 7.5049 3.1088 7.9492 7.1065A4.3111 4.3111 0 0 0 19 8c-.3631 0-.7182.0472-1.0635.1348C17.517 5.231 15.0198 3 12 3 8.6863 3 6 5.6863 6 9v.2695c.5973.346 1 .9906 1 1.7305v8l.0107.2041C7.113 20.2128 7.9643 21 9 21h.3848c.2746-.3061.6716-.5 1.1152-.5.8284 0 1.5.6716 1.5 1.5s-.6716 1.5-1.5 1.5c-.4436 0-.8406-.1939-1.1152-.5H9c-2.14 0-3.8879-1.6806-3.9951-3.7939L5 19c-2.2091 0-4-1.7909-4-4v-2c0-1.8638 1.2748-3.43 3-3.874V9c0-4.4183 3.5817-8 8-8ZM5 11c-1.1046 0-2 .8954-2 2v2c0 1.1046.8954 2 2 2v-6Z" clip-rule="evenodd"/><path fill="currentColor" fill-rule="evenodd" d="M19 9.25c1.5188 0 2.75 1.2312 2.75 2.75v2H22c.5523 0 1 .4477 1 1v5c0 .5523-.4477 1-1 1h-6c-.5523 0-1-.4477-1-1v-5c0-.5523.4477-1 1-1h.25v-2c0-1.5188 1.2312-2.75 2.75-2.75ZM17 16v3h4v-3h-4Zm2-5.25c-.6904 0-1.25.5596-1.25 1.25v2h2.5v-2c0-.6904-.5596-1.25-1.25-1.25Z" clip-rule="evenodd"/></svg>