<svg xmlns="http://www.w3.org/2000/svg" fill="none" viewBox="0 0 32 32" class="acv-icon"><path fill="currentColor" d="M13.6787 15.8831h-.3589v-2.1739h.3486c.3179 0 .552.0821.7024.2461.1538.1607.2307.4324.2307.8152 0 .3691-.0717.6477-.2153.8357-.1436.1846-.3794.2769-.7075.2769ZM21.2481 19.4275c-.3334-.1905-.7481.0502-.7481.4341v6.2768c0 .3839.4147.6246.7481.4341l5.4922-3.1384c.3359-.1919.3359-.6763 0-.8682l-5.4922-3.1384Z"/><path fill="currentColor" fill-rule="evenodd" d="M8.5715 4C7.7036 4 7 4.6888 7 5.5385V6H26c.5523 0 1 .4477 1 1v7.9355a8.9405 8.9405 0 0 0-2-.7125V9.5385C25 8.6888 24.2964 8 23.4286 8H4.5714C3.7036 8 3 8.6888 3 9.5385v13.8461c0 .8497.7035 1.5385 1.5714 1.5385h6.2857l-.6636 2.599c-.062.2428.1255.4779.3811.4779h4.9409c1.6146 2.412 4.3641 4 7.4845 4 4.9706 0 9-4.0294 9-9 0-2.6655-1.1587-5.0603-2.9999-6.7083V5.5385c0-.8497-.7036-1.5385-1.5715-1.5385H8.5715Zm6.182 15.3894a8.9857 8.9857 0 0 1 .8234-1.4799l-.5242-1.1959c.6392-.376.9587-1.0373.9587-1.9841 0-.752-.1845-1.3108-.5537-1.6765-.3657-.3657-.9348-.5486-1.7072-.5486h-1.8252V20h1.3945v-2.9172h.4973l.9364 2.3066ZM23 30c3.866 0 7-3.134 7-7s-3.134-7-7-7-7 3.134-7 7 3.134 7 7 7Z" clip-rule="evenodd"/></svg>