<svg xmlns="http://www.w3.org/2000/svg" fill="none" viewBox="0 0 24 24" class="acv-icon"><path fill="currentColor" fill-rule="evenodd" d="M3 3h2c.5523 0 1-.4477 1-1s-.4477-1-1-1H2c-.5523 0-1 .4477-1 1v3c0 .5523.4477 1 1 1s1-.4477 1-1V3Zm15-1c0 .5523.4477 1 1 1h2v2c0 .5523.4477 1 1 1s1-.4477 1-1V2c0-.5523-.4477-1-1-1h-3c-.5523 0-1 .4477-1 1Zm1 19h2v-2c0-.5523.4477-1 1-1s1 .4477 1 1v3c0 .5523-.4477 1-1 1h-3c-.5523 0-1-.4477-1-1s.4477-1 1-1ZM6 22c0-.5523-.4477-1-1-1H3v-2c0-.5523-.4477-1-1-1s-1 .4477-1 1v3c0 .5523.4477 1 1 1h3c.5523 0 1-.4477 1-1Zm12.7029-8.3032C18.8933 14.0909 19 14.533 19 15v1c0 1.6569-1.3431 3-3 3H8c-1.6569 0-3-1.3431-3-3v-1c0-.467.1067-.9091.297-1.3032l.0073-.0219 2.518-7.325A2 2 0 0 1 9.7137 5h4.5726a2 2 0 0 1 1.8914 1.3498l2.518 7.3251.0072.0219ZM16.005 12l-1.7187-5H9.7136L7.995 12h8.0101ZM7 15c0-.5523.4477-1 1-1h8c.5523 0 1 .4477 1 1v1c0 .5523-.4477 1-1 1H8c-.5523 0-1-.4477-1-1v-1Zm1.5 0h3a.5.5 0 0 1 0 1h-3a.5.5 0 0 1 0-1Zm6.5.5a.5.5 0 1 0 1.0001-.0001A.5.5 0 0 0 15 15.5Z" clip-rule="evenodd"/></svg>