<svg xmlns="http://www.w3.org/2000/svg" fill="none" viewBox="0 0 16 16" class="acv-icon"><path fill="currentColor" d="M.5 2c0-1.1046.8954-2 2-2H4v7H2.5c-1.1046 0-2-.8954-2-2V2Z"/><path fill="currentColor" fill-rule="evenodd" d="M5 7h9.5c.5523 0 1-.4477 1-1V5c-.8284 0-1.5-.6716-1.5-1.5S14.6716 2 15.5 2V1c0-.5523-.4477-1-1-1H5v7Zm2-3.5a.5.5 0 0 1 .5-.5h4a.5.5 0 0 1 0 1h-4a.5.5 0 0 1-.5-.5Z" clip-rule="evenodd"/><path fill="currentColor" d="M.5 11c0-1.1046.8954-2 2-2H4v7H2.5c-1.1046 0-2-.8954-2-2v-3Z"/><path fill="currentColor" fill-rule="evenodd" d="M5 16h9.5c.5523 0 1-.4477 1-1v-1c-.8284 0-1.5-.6716-1.5-1.5s.6716-1.5 1.5-1.5v-1c0-.5523-.4477-1-1-1H5v7Zm2-3.5a.5.5 0 0 1 .5-.5h4a.5.5 0 0 1 0 1h-4a.5.5 0 0 1-.5-.5Z" clip-rule="evenodd"/></svg>