<svg xmlns="http://www.w3.org/2000/svg" fill="none" viewBox="0 0 32 32" class="acv-icon"><path fill="currentColor" fill-rule="evenodd" d="M24 5.8669c0-1.5968-1.779-2.5497-3.1082-1.6649L12.1815 10H3c-1.1046 0-2 .8954-2 1.9999v6c0 1.1046.8954 2 2 2h1.67l1.1942 6.3686a2 2 0 0 0 1.9657 1.6314h1.9652c1.2522 0 2.1965-1.1377 1.9657-2.3685l-1.0559-5.6315h2.9789l7.208 4.798C22.221 25.6827 24 24.7298 24 23.133v-6.1331c.264 0 .52-.26.708-.73.188-.47.292-1.11.292-1.77 0-.66-.104-1.3-.292-1.77s-.444-.73-.708-.73v-6.133ZM14 17.8078v-6.6157l8-5.3252V23.133l-8-5.3252ZM3 11.9999h9v6h-1.2951c-1.2523 0-2.1965 1.1378-1.9657 2.3686l1.0559 5.6314H7.8299l-1.194-6.3685A2 2 0 0 0 4.67 17.9999H3v-6Z" clip-rule="evenodd"/><path fill="currentColor" d="M27.3843 7.0767c-.5099-.2122-1.0953.0291-1.3075.539-.2122.5099.0291 1.0952.5389 1.3075 1.0953.4558 2.0577 1.3406 2.6771 2.5694l.0009.0017c.9415 1.859.9417 4.1503.0008 6.0096-.6307 1.2329-1.5956 2.1185-2.6813 2.5739-.5093.2136-.749.7996-.5354 1.3089s.7997.749 1.309.5354c1.5517-.6508 2.8591-1.8852 3.6894-3.5096l.0017-.0033c1.2293-2.4274 1.2295-5.3902.0004-7.8177-.8213-1.6289-2.1313-2.8644-3.694-3.5148Z"/></svg>