<svg xmlns="http://www.w3.org/2000/svg" fill="none" viewBox="0 0 24 24" class="acv-icon"><path fill="currentColor" fill-rule="evenodd" d="M1.552 7.168A1.502 1.502 0 0 0 1 8.333v6.234a1.1 1.1 0 0 0 2.2 0v-4.038l2.2 1.353v8.389c0 .299.086.592.295.799C6.335 21.703 8.12 23 12 23c3.879 0 5.664-1.297 6.305-1.93.21-.207.295-.5.295-.8v-8.388l3.673-2.259c.97-.595.97-1.984 0-2.58L12.82 1.231a1.568 1.568 0 0 0-1.64 0L1.727 7.043c-.063.039-.121.08-.175.125ZM12 13.592 3.447 8.333 12 3.075l8.553 5.258L12 13.592Zm-4.6-.48 3.78 2.323a1.568 1.568 0 0 0 1.64 0l3.78-2.324v6.785C16.029 20.306 14.675 21 12 21s-4.029-.694-4.6-1.104V13.11Z" clip-rule="evenodd"/></svg>