<svg xmlns="http://www.w3.org/2000/svg" fill="none" viewBox="0 0 32 32" class="acv-icon"><path fill="currentColor" d="M13 6c0-1.6569 1.3431-3 3-3 1.6568 0 3 1.3431 3 3v5h5c1.1045 0 2 .8954 2 2v1c0 .5523-.4478 1-1 1H7c-.5523 0-1-.4477-1-1v-1c0-1.1046.8954-2 2-2h5V6ZM7 18v4c0 2.7719-.9604 4.5833-1.5502 5.4344-.1522.2197.007.5656.2744.5656H9c.933 0 3.607-2.6116 3.9611-5.3981.0281-.2209.2222-.269.2843-.0551.1265.4352.2546 1.1881.2546 2.4532 0 1.3591-.2956 2.1271-.5653 2.545-.0858.133.0422.455.2005.455H22c1.5 0 3-1 3-6v-4.0018c0-.5523-.4478-.9982-1-.9982H8c-.5523 0-1 .4477-1 1Z"/></svg>