<svg xmlns="http://www.w3.org/2000/svg" fill="none" viewBox="0 0 24 24" class="acv-icon"><path fill="currentColor" fill-rule="evenodd" d="M13 6c0 1.8453 2.3094 3 5 3s5-1.1547 5-3-2.3094-3-5-3-5 1.1547-5 3Zm8 0c0 .5523-1.3431 1-3 1s-3-.4477-3-1 1.3431-1 3-1 3 .4477 3 1Z" clip-rule="evenodd"/><path fill="currentColor" d="M18 13c-2.6906 0-5-1.0907-5-2.8337 0-.4308.1411-.8218.3942-1.1663 0 0 1.8422 1.4667 4.6058 1.4667C20.7636 10.4667 22.6058 9 22.6058 9c.2531.3445.3942.7355.3942 1.1663C23 11.9093 20.6906 13 18 13ZM13 14.1663C13 15.9093 15.3094 17 18 17s5-1.0907 5-2.8337c0-.4308-.1411-.8218-.3942-1.1663 0 0-1.8422 1.4667-4.6058 1.4667-2.7636 0-4.6058-1.4667-4.6058-1.4667-.2531.3445-.3942.7355-.3942 1.1663ZM18 21c-2.6906 0-5-1.0907-5-2.8337 0-.4308.1411-.8218.3942-1.1663 0 0 1.8422 1.4667 4.6058 1.4667 2.7636 0 4.6058-1.4667 4.6058-1.4667.2531.3445.3942.7355.3942 1.1663C23 19.9093 20.6906 21 18 21Z"/><path fill="currentColor" fill-rule="evenodd" d="M1 14c0 1.8453 2.3094 3 5 3s5-1.1547 5-3-2.3094-3-5-3-5 1.1547-5 3Zm8 0c0 .5523-1.3431 1-3 1s-3-.4477-3-1 1.3431-1 3-1 3 .4477 3 1Z" clip-rule="evenodd"/><path fill="currentColor" d="M6 21c-2.6906 0-5-1.0907-5-2.8337 0-.4308.141-.8218.3942-1.1663 0 0 1.8422 1.4667 4.6058 1.4667 2.7636 0 4.6058-1.4667 4.6058-1.4667.2531.3445.3942.7355.3942 1.1663C11 19.9093 8.6906 21 6 21Z"/></svg>