<svg xmlns="http://www.w3.org/2000/svg" fill="none" viewBox="0 0 16 16" class="acv-icon"><path fill="currentColor" d="M8.0208 4c-1.1079 0-2.006-.8954-2.006-2s.8981-2 2.006-2c1.1078 0 2.0059.8954 2.0059 2s-.898 2-2.006 2ZM12.5341 5c-.8309 0-1.5044-.6716-1.5044-1.5S11.7032 2 12.5341 2s1.5045.6716 1.5045 1.5S13.365 5 12.5341 5ZM2.003 3.5c0 .8284.6735 1.5 1.5044 1.5S5.012 4.3284 5.012 3.5 4.3383 2 3.5074 2 2.003 2.6716 2.003 3.5ZM8 13c0-1.9804 1.1513-3.6918 2.8211-4.5015l.1593-1.8717a1.4915 1.4915 0 0 0 .0054-.1268c0-.8284-.6736-1.5-1.5045-1.5h-2.921c-.0425 0-.085.0018-.1273.0054-.8279.07-1.442.796-1.3718 1.6214l.267 3.1368a.9992.9992 0 0 0 .384.7051L6.398 11l.4293 4.5469A.501.501 0 0 0 7.3266 16H8.715a.4998.4998 0 0 0 .2397-.0608A4.9773 4.9773 0 0 1 8 13ZM14.9218 8.3827A4.9845 4.9845 0 0 0 13 8c-.0606 0-.1209.001-.181.0032L12.9825 6h.5131C14.3264 6 15 6.6716 15 7.5c0 .048-.0023.0959-.0069.1436l-.0713.739ZM3.494 16h1.4763l-.4444-4.9091-.8367-.6761a.999.999 0 0 1-.3682-.6958L3.0175 6h-.513C1.6734 6 1 6.6716 1 7.5c0 .048.0023.0959.007.1436l.298 3.0915a.9993.9993 0 0 0 .4312.729L2.52 12l.4769 3.5661a.501.501 0 0 0 .497.4339Z"/><path fill="currentColor" fill-rule="evenodd" d="M16 13c0 1.6569-1.3431 3-3 3s-3-1.3431-3-3 1.3431-3 3-3 3 1.3431 3 3Zm-3.3536-1.8536-1 1a.5002.5002 0 0 0 0 .7072.5002.5002 0 0 0 .7072 0l.1464-.1465V14.5a.5.5 0 0 0 1 0v-1.7929l.1464.1465a.5002.5002 0 0 0 .7072 0 .5002.5002 0 0 0 0-.7072l-.9998-.9997a.5005.5005 0 0 0-.7074-.0003Z" clip-rule="evenodd"/></svg>