<svg xmlns="http://www.w3.org/2000/svg" fill="none" viewBox="0 0 32 32" class="acv-icon"><path fill="currentColor" d="M8 15h4v2H8v-2ZM12 19H8v2h4v-2ZM12 23H8v2h4v-2ZM23 18v3h2v2h-4v-5h2Z"/><path fill="currentColor" fill-rule="evenodd" d="M18.124 29H4V5h5V3h2v2h10V3h2v2h5v11.7084c1.2447 1.4102 2 3.2627 2 5.2916 0 4.4183-3.5817 8-8 8-1.4063 0-2.7278-.3628-3.876-1ZM6 27V12h20v3.0703C24.8233 14.3896 23.4571 14 22 14c-4.4183 0-8 3.5817-8 8 0 1.8919.6567 3.6304 1.7546 5H6Zm20-17H6V7h3v2h2V7h10v2h2V7h3v3Zm-4 18c3.3137 0 6-2.6863 6-6s-2.6863-6-6-6-6 2.6863-6 6 2.6863 6 6 6Z" clip-rule="evenodd"/></svg>