<svg xmlns="http://www.w3.org/2000/svg" fill="none" viewBox="0 0 32 32" class="acv-icon"><path fill="currentColor" d="M15.5029 5.2572A2 2 0 0 0 13.6459 4H7c-1.1046 0-2 .8954-2 2v7h22v-2c0-1.1046-.8954-2-2-2h-7.323a.9998.9998 0 0 1-.9284-.6286l-1.2457-3.1142ZM5 15h22v5.5c0 .8284-.6716 1.5-1.5 1.5H17v2h1c.5523 0 1 .4477 1 1h6c.5523 0 1 .4477 1 1s-.4477 1-1 1h-6c0 .5523-.4477 1-1 1h-4c-.5523 0-1-.4477-1-1H7c-.5523 0-1-.4477-1-1s.4477-1 1-1h6c0-.5523.4477-1 1-1h1v-2H6.5c-.8284 0-1.5-.6716-1.5-1.5V15Z"/></svg>