<svg xmlns="http://www.w3.org/2000/svg" fill="none" viewBox="0 0 24 24" class="acv-icon"><path fill="currentColor" fill-rule="evenodd" d="M19 2h-8C9.3431 2 8 3.3432 8 5v3H5c-1.6568 0-3 1.3431-3 3v8c0 1.6569 1.3432 3 3 3h8c1.6569 0 3-1.3431 3-3v-3h3c1.6569 0 3-1.3431 3-3V5c0-1.6568-1.3431-3-3-3Zm-3 12h3c.5523 0 1-.4477 1-1V5c0-.5523-.4477-1-1-1h-8c-.5523 0-1 .4477-1 1v3h3c1.6569 0 3 1.3431 3 3v3Zm-6-4h3c.5523 0 1 .4477 1 1v3h-3c-.5523 0-1-.4477-1-1v-3Zm-2 0v3c0 1.6569 1.3431 3 3 3h3v3c0 .5523-.4477 1-1 1H5c-.5523 0-1-.4477-1-1v-8c0-.5523.4477-1 1-1h3Z" clip-rule="evenodd"/></svg>