<svg xmlns="http://www.w3.org/2000/svg" fill="none" viewBox="0 0 32 32" class="acv-icon"><path fill="currentColor" d="M8 9c.5523 0 1-.4477 1-1s-.4477-1-1-1-1 .4477-1 1 .4477 1 1 1ZM12 8c0 .5523-.4477 1-1 1s-1-.4477-1-1 .4477-1 1-1 1 .4477 1 1ZM14 9c.5523 0 1-.4477 1-1s-.4477-1-1-1-1 .4477-1 1 .4477 1 1 1ZM16 15c-.5523 0-1 .4477-1 1s.4477 1 1 1h8c.5523 0 1-.4477 1-1s-.4477-1-1-1h-8ZM15 20c0-.5523.4477-1 1-1h4c.5523 0 1 .4477 1 1s-.4477 1-1 1h-4c-.5523 0-1-.4477-1-1ZM16 23c-.5523 0-1 .4477-1 1s.4477 1 1 1h6c.5523 0 1-.4477 1-1s-.4477-1-1-1h-6ZM6 16c0-.5523.4477-1 1-1h3c.5523 0 1 .4477 1 1s-.4477 1-1 1H7c-.5523 0-1-.4477-1-1ZM7 19c-.5523 0-1 .4477-1 1s.4477 1 1 1h3c.5523 0 1-.4477 1-1s-.4477-1-1-1H7ZM6 24c0-.5523.4477-1 1-1h3c.5523 0 1 .4477 1 1s-.4477 1-1 1H7c-.5523 0-1-.4477-1-1Z"/><path fill="currentColor" fill-rule="evenodd" d="M3 27c0 1.1046.8954 2 2 2h22c1.1046 0 2-.8954 2-2V5c0-1.1046-.8954-2-2-2H5c-1.1046 0-2 .8954-2 2v22ZM5 5h22v6H5V5Zm9 8h13v14H14V13Zm-2 0H5v14h7V13Z" clip-rule="evenodd"/></svg>