<svg xmlns="http://www.w3.org/2000/svg" fill="none" viewBox="0 0 16 16" class="acv-icon"><path fill="currentColor" fill-rule="evenodd" d="m14.362 3.867.053.669c.04.508.24.992.57 1.379l.436.512a2.426 2.426 0 0 1 0 3.146l-.435.512c-.331.39-.531.873-.571 1.38l-.055.67a2.425 2.425 0 0 1-2.225 2.225l-.67.053c-.507.04-.99.24-1.38.571l-.512.435a2.426 2.426 0 0 1-3.146 0l-.514-.435a2.426 2.426 0 0 0-1.38-.571l-.67-.054a2.425 2.425 0 0 1-2.225-2.226l-.053-.669a2.427 2.427 0 0 0-.57-1.38L.58 9.571a2.426 2.426 0 0 1 0-3.147l.436-.512c.331-.389.53-.872.571-1.38l.054-.67a2.425 2.425 0 0 1 2.226-2.225l.669-.053c.508-.04.992-.24 1.38-.57L6.429.58a2.426 2.426 0 0 1 3.147 0l.512.436c.389.331.872.53 1.38.571l.67.054a2.425 2.425 0 0 1 2.225 2.226ZM6.5 5.25a1.25 1.25 0 1 1-2.5 0 1.25 1.25 0 0 1 2.5 0Zm5.5 5.5a1.25 1.25 0 1 1-2.5 0 1.25 1.25 0 0 1 2.5 0Zm-.685-6.067a.8.8 0 0 1 0 1.132l-5.5 5.5a.8.8 0 0 1-1.13-1.132l5.499-5.5a.8.8 0 0 1 1.131 0Z" clip-rule="evenodd"/></svg>