<svg xmlns="http://www.w3.org/2000/svg" fill="none" viewBox="0 0 32 32" class="acv-icon"><path fill="currentColor" fill-rule="evenodd" d="M5 4c0-1.1046.8954-2 2-2h18c1.1046 0 2 .8954 2 2v24c0 1.1046-.8954 2-2 2H7c-1.1046 0-2-.8954-2-2V4Zm13 18c0 1.1046-.8954 2-2 2s-2-.8954-2-2 .8954-2 2-2 2 .8954 2 2ZM9 12c-.5523 0-1 .4477-1 1s.4477 1 1 1h5c.5523 0 1-.4477 1-1s-.4477-1-1-1H9ZM8 8c0-.5523.4477-1 1-1h14c.5523 0 1 .4477 1 1s-.4477 1-1 1H9c-.5523 0-1-.4477-1-1Zm10 4c-.5523 0-1 .4477-1 1s.4477 1 1 1h5c.5523 0 1-.4477 1-1s-.4477-1-1-1h-5Z" clip-rule="evenodd"/></svg>