<svg xmlns="http://www.w3.org/2000/svg" fill="none" viewBox="0 0 16 16" class="acv-icon"><path fill="currentColor" fill-rule="evenodd" d="M7 6.8293C5.8348 6.4175 5 5.3063 5 4c0-1.6568 1.3431-3 3-3s3 1.3432 3 3c0 1.3062-.8348 2.4175-2 2.8293v1.6666l2.0786 1.2A2.9877 2.9877 0 0 1 13 9c1.6569 0 3 1.3431 3 3s-1.3431 3-3 3-3-1.3431-3-3c0-.2.0196-.3954.0569-.5845L7.903 10.172l-1.9813 1.144c.0512.2197.0783.4487.0783.684 0 1.6569-1.3431 3-3 3-1.6568 0-3-1.3431-3-3s1.3432-3 3-3a2.987 2.987 0 0 1 1.8405.6308L7 8.384V6.8293Zm5.0582 4.8338A.9975.9975 0 0 0 12 12c0 .5523.4477 1 1 1s1-.4477 1-1-.4477-1-1-1a.9982.9982 0 0 0-.7634.354l-.1784.3091ZM8 5c.5523 0 1-.4477 1-1s-.4477-1-1-1-1 .4477-1 1 .4477 1 1 1Zm-5 8c.5523 0 1-.4477 1-1s-.4477-1-1-1-1 .4477-1 1 .4477 1 1 1Z" clip-rule="evenodd"/></svg>