<svg xmlns="http://www.w3.org/2000/svg" fill="none" viewBox="0 0 16 16" class="acv-icon"><path fill="currentColor" d="M12.899 8.5975s-.0129-.0404-.0258-.1076c-.1678-.7804-.3227-2.5292.7616-3.2692 1.0843-.7399 2.1429.1212 2.3107.592.2323.6592-.2969.9686-1.2264 1.2242-1.4716.3902-1.7943 1.3722-1.8201 1.5606Z"/><path fill="currentColor" d="M13.6128 9.8085c-2.1815-1.0897-1.9363-2.9059-2.2073-3.8072-1.549-5.583-4.6343-6-4.9957-6-.852-.027-2.3623.3766-2.4785 2.1524C3.7764 4.683 7.223 4.5214 8.501 5.544c.8778.6996 1.4716 2.26-.129 1.9238-1.9364-.7534-4.2083-.5247-5.1506-.121-1.5878.686-2.1558 1.5739-2.3107 1.7622-.1549.1884-2.13 3.0135.271 5.3409 1.8848 1.8296 4.4536.5381 5.4605-.9148.6067-.8745 1.0326-1.7355 1.5103-2.5023 1.8847-2.3677 4.1308-.8206 4.7246.2825.9036 1.6817 1.549 2.5292 2.3622 1.9642.8262-.5651.7229-2.3005-1.6265-3.4709Z"/></svg>