<svg xmlns="http://www.w3.org/2000/svg" fill="none" viewBox="0 0 24 24" class="acv-icon"><path fill="currentColor" d="M20.6674 13c.5675 0 .9294-.6059.6603-1.1056l-5.1154-9.5A.75.75 0 0 0 15.552 2H9.3913c-.5674 0-.9294.6059-.6603 1.1056l5.1154 9.5a.75.75 0 0 0 .6603.3944h6.1607ZM7.1878 4.458c-.2932-.5444-1.0823-.5201-1.3414.0413l-4.674 10.127a.75.75 0 0 0 .0501.7199l3.177 4.942c.3176.494 1.054.4479 1.3074-.0818l4.5226-9.4501a.7502.7502 0 0 0-.0162-.6794L7.1878 4.458ZM8.2562 22c-.552 0-.9148-.5759-.6765-1.0738l2.6321-5.5A.75.75 0 0 1 10.8883 15h10.7379c.5934 0 .9518.6564.6309 1.1556l-3.5357 5.5a.7502.7502 0 0 1-.6309.3444H8.2562Z"/></svg>