<svg xmlns="http://www.w3.org/2000/svg" fill="none" viewBox="0 0 32 32" class="acv-icon"><path fill="#408BEA" d="M32 26c0 3.3137-2.6863 6-6 6s-6-2.6863-6-6 2.6863-6 6-6 6 2.6863 6 6Z"/><path stroke="#243143" stroke-opacity=".1" d="M26 20.5c3.0376 0 5.5 2.4624 5.5 5.5s-2.4624 5.5-5.5 5.5-5.5-2.4624-5.5-5.5 2.4624-5.5 5.5-5.5Z"/><path fill="#fff" fill-rule="evenodd" d="M23.5 24c0-1.3807 1.1193-2.5 2.5-2.5s2.5 1.1193 2.5 2.5v1.5c.5523 0 1 .1977 1 .75V29c0 .5523-.4477 1-1 1h-5c-.5523 0-1-.4477-1-1v-2.75c0-.5523.4477-.75 1-.75V24Zm3.5 0v1.5h-2V24c0-.5523.4477-1 1-1s1 .4477 1 1Zm-1 2.5c-.5523 0-1 .4477-1 1v.5c0 .5523.4477 1 1 1s1-.4477 1-1v-.5c0-.5523-.4477-1-1-1Z" clip-rule="evenodd"/></svg>