<svg xmlns="http://www.w3.org/2000/svg" fill="none" viewBox="0 0 16 16" class="acv-icon"><path fill="currentColor" d="M15.293 15.292c.391.391.707.26.707-.293v-4.5c0-.276-.224-.499-.5-.499H11c-.553 0-.684.316-.293.707l1.578 1.577C11.166 13.349 9.559 14 8 14c-3.309 0-6-2.691-6-6s2.691-6 6-6c2.678 0 4.989 1.723 5.751 4.285.158.53.716.832 1.244.674.529-.158.831-.715.674-1.244C14.651 2.297 11.57 0 8 0 3.589 0 0 3.589 0 8s3.589 8 8 8c2.096 0 4.195-.877 5.684-2.317l1.609 1.609Z"/><path fill="currentColor" d="M7.4248 10.8685a.4412.4412 0 0 1-.628 0l-2.667-2.541c-.173-.176-.173-.459 0-.633l.629-.632a.4412.4412 0 0 1 .628 0l1.724 1.592 3.502-3.524a.4429.4429 0 0 1 .6279 0l.6291.633c.173.174.173.457 0 .632l-4.445 4.473Z"/></svg>