<svg xmlns="http://www.w3.org/2000/svg" fill="none" viewBox="0 0 24 24" class="acv-icon"><path fill="currentColor" fill-rule="evenodd" d="M14.9249 16.7979A20.178 20.178 0 0 1 13 16.9772v1.2904c.3036.1756.5568.4288.7324.7324h.3506A6.0363 6.0363 0 0 0 14 20c0 .3407.0284.6748.083 1h-.3506c-.3458.5978-.9921 1-1.7324 1s-1.3866-.4022-1.7324-1H5c-.5523 0-1-.4477-1-1s.4477-1 1-1h5.2676A2.0095 2.0095 0 0 1 11 18.2676v-1.2904C5.9952 16.7473 2 14.7989 2 12V7c0-2.983 4.5381-5 10-5 5.4618 0 10 2.017 10 5v5c0 .7743-.3058 1.4835-.8541 2.1093A6.0331 6.0331 0 0 0 20 14c-2.1364 0-4.012 1.1166-5.0751 2.7979ZM20 12v-1.9162C18.1652 11.2878 15.2457 12 12 12c-3.2457 0-6.1652-.7122-8-1.9162V12c0 1.4352 3.5207 3 8 3s8-1.5648 8-3Zm-8-2c4.4793 0 8-1.5648 8-3s-3.5207-3-8-3-8 1.5648-8 3 3.5207 3 8 3Z" clip-rule="evenodd"/></svg>