<svg xmlns="http://www.w3.org/2000/svg" fill="none" viewBox="0 0 32 32" class="acv-icon"><path fill="currentColor" d="m11.54 10.0193 4.46-1.91 4.46 1.91L16 11.9292l-4.46-1.9099ZM17 19.4993l5-2.1399v-5.8201l-5 2.1399v5.8201ZM15 19.4993l-5-2.1399v-5.8201l5 2.1399v5.8201Z"/><path fill="currentColor" fill-rule="evenodd" d="M4 3c-1.1046 0-2 .8954-2 2v18c0 1.1046.8954 2 2 2h8l-.8447 3.3787c-.0789.3156.1598.6213.4851.6213h8.7192c.3253 0 .564-.3057.4851-.6213L20 25h8c1.1046 0 2-.8954 2-2V5c0-1.1046-.8954-2-2-2H4Zm19.8334 15.551A.9998.9998 0 0 0 24 17.9993v-8a1 1 0 0 0-.61-.92l-7-3A1.0001 1.0001 0 0 0 16 6c-.134 0-.2666.027-.39.0793l-7 3a.9998.9998 0 0 0-.61.92v8a.9997.9997 0 0 0 .61.9199l7 3c.1234.0522.256.0793.39.0793s.2666-.0271.39-.0793l7-3a1 1 0 0 0 .4434-.3682Z" clip-rule="evenodd"/></svg>