<svg xmlns="http://www.w3.org/2000/svg" fill="none" viewBox="0 0 24 24" class="acv-icon"><path fill="currentColor" fill-rule="evenodd" d="M13.7324 20A2.0095 2.0095 0 0 0 13 19.2676V18h4.4545C20.5088 18 23 15.6023 23 12.625c0-2.0585-1.2031-3.8926-3.035-4.794C18.975 4.419 15.7392 2 12 2 8.603 2 5.5942 3.9992 4.3385 6.9767 2.324 7.9427 1 9.9427 1 12.1875c0 3.0178 2.3796 5.518 5.4514 5.8081L7 18h4v1.2676a2.0095 2.0095 0 0 0-.7324.7324H5c-.5523 0-1 .4477-1 1s.4477 1 1 1h5.2676c.3458.5978.9921 1 1.7324 1s1.3866-.4022 1.7324-1H19c.5523 0 1-.4477 1-1s-.4477-1-1-1h-5.2676Zm3.2699-4H6.5454C4.576 15.8096 3 14.1537 3 12.1875c0-1.5563.9895-2.945 2.4834-3.5291a1 1 0 0 0 .5778-.5955C6.9187 5.6576 9.29 4 12 4c2.9895 0 5.5387 2.0141 6.14 4.7653a.9999.9999 0 0 0 .623.7218C20.1065 9.9955 21 11.2347 21 12.625 21 14.4802 19.421 16 17.4545 16h-.4522Z" clip-rule="evenodd"/></svg>