<svg xmlns="http://www.w3.org/2000/svg" fill="none" viewBox="0 0 16 16" class="acv-icon"><path fill="currentColor" d="M4.5 9c.552 0 1-.448 1-1s-.448-1-1-1-1 .448-1 1 .448 1 1 1ZM7.5 9c.552 0 1-.448 1-1s-.448-1-1-1-1 .448-1 1 .448 1 1 1Z"/><path fill="currentColor" fill-rule="evenodd" d="M14 0H6C4.897 0 4 .897 4 2v2H2C.897 4 0 4.897 0 6v8c0 1.103.897 2 2 2h8c1.103 0 2-.897 2-2v-2h2c1.103 0 2-.897 2-2V2c0-1.103-.897-2-2-2Zm0 6h-2c0-1.103-.897-2-2-2H6V2h8v4Zm0 4h-2V8h2v2ZM2 10v2h8v2H2l-.001-8H10v4H2Z" clip-rule="evenodd"/></svg>