<svg xmlns="http://www.w3.org/2000/svg" fill="none" viewBox="0 0 24 24" class="acv-icon"><path fill="currentColor" fill-rule="evenodd" d="M1 4c0-1.1046.8954-2 2-2h18c1.1046 0 2 .8954 2 2v13c0 1.1046-.8954 2-2 2h-5.8l.6323 2.3712c.0847.3174-.1546.6288-.4831.6288H8.6508c-.3285 0-.5678-.3114-.4831-.6288L8.8 19H3c-1.1046 0-2-.8954-2-2V4Zm12.5931 2.7397c-.5052.5035-1.1652.725-1.7265.6359-.0894-.5594.1322-1.2165.6374-1.7199.5053-.5035 1.1658-.7255 1.7272-.6365.0893.5594-.1329 1.217-.6381 1.7205Zm-.623 1.0587c.2785-.1418.5852-.2978 1.0345-.2978.595 0 1.5779.5315 1.9742 1.1318-.7538.2878-1.289 1.0157-1.289 1.8682 0 .8604.5453 1.5939 1.3102 1.8762-.1956.4465-.3104.6671-.5731 1.0815-.3832.6058-.9078 1.3704-1.5796 1.3755-.2758.0024-.4615-.0825-.6613-.1739-.2324-.1064-.4841-.2216-.9192-.2183-.4316.0023-.6739.1157-.8967.22-.1945.091-.3741.1751-.6518.1722-.9808 0-2.7183-2.204-2.7183-4.19 0-2.183 1.468-3.1096 2.4339-3.11.3719 0 .6961.1346 1.0049.2628.2807.1166.5487.2279.828.2279.259 0 .4714-.1081.7033-.2261Z" clip-rule="evenodd"/></svg>