<svg xmlns="http://www.w3.org/2000/svg" fill="none" viewBox="0 0 16 16" class="acv-icon"><path fill="currentColor" fill-rule="evenodd" d="M8 11.5c1.933 0 3.5-1.567 3.5-3.5S9.933 4.5 8 4.5 4.5 6.067 4.5 8s1.567 3.5 3.5 3.5ZM8 10c1.1046 0 2-.8954 2-2s-.8954-2-2-2-2 .8954-2 2 .8954 2 2 2Z" clip-rule="evenodd"/><path fill="currentColor" d="M11.75 5a.75.75 0 1 0 0-1.5.75.75 0 0 0 0 1.5Z"/><path fill="currentColor" fill-rule="evenodd" d="M1.6741 2.7777C1 3.7867 1 5.1911 1 8c0 2.8089 0 4.2134.6741 5.2223a4.0018 4.0018 0 0 0 1.1036 1.1036C3.7867 15 5.1911 15 8 15c2.8089 0 4.2134 0 5.2223-.6741a4.0034 4.0034 0 0 0 1.1036-1.1036C15 12.2134 15 10.8089 15 8c0-2.809 0-4.2134-.6741-5.2223a4.0018 4.0018 0 0 0-1.1036-1.1036C12.2134 1 10.8089 1 8 1c-2.809 0-4.2134 0-5.2223.6741a4.0002 4.0002 0 0 0-1.1036 1.1036Zm3.1916 10.6457C5.6005 13.4982 6.5643 13.5 8 13.5s2.3995-.0018 3.1343-.0766c.7098-.0722 1.0377-.1998 1.2546-.3447a2.4998 2.4998 0 0 0 .6898-.6898c.1449-.2169.2725-.5448.3447-1.2546.0748-.7348.0766-1.6986.0766-3.1343s-.0018-2.3995-.0766-3.1343c-.0722-.7098-.1998-1.0377-.3447-1.2546a2.4999 2.4999 0 0 0-.6898-.6898c-.2169-.1449-.5448-.2725-1.2546-.3447C10.3995 2.5018 9.4357 2.5 8 2.5s-2.3995.0018-3.1343.0766c-.7098.0722-1.0377.1998-1.2546.3447a2.5 2.5 0 0 0-.6898.6898c-.1449.2169-.2725.5448-.3447 1.2546C2.5018 5.6005 2.5 6.5643 2.5 8s.0018 2.3995.0766 3.1343c.0722.7098.1998 1.0377.3447 1.2546.1824.273.4168.5074.6898.6898.2169.1449.5448.2725 1.2546.3447Z" clip-rule="evenodd"/></svg>