<svg xmlns="http://www.w3.org/2000/svg" fill="none" viewBox="0 0 32 32" class="acv-icon"><path fill="currentColor" fill-rule="evenodd" d="M5 4c-1.1046 0-2 .8954-2 2v16h26V6c0-1.1046-.8954-2-2-2H5Zm13.4539 2c.1046.7263-.1842 1.4384-.5649 1.943-.4069.541-1.1081.9587-1.7862.9361-.1241-.6942.1946-1.412.5789-1.895.4246-.5307 1.1507-.9404 1.7722-.9841Zm2.3083 10.2736c.3706-.5476.5088-.8246.7978-1.4442-2.0957-.7689-2.4322-3.6399-.3586-4.7416-.6336-.7646-1.5211-1.2078-2.3606-1.2078-.6059 0-1.0208.1526-1.3978.2913-.3138.1154-.6013.2211-.9509.2211-.3778 0-.7124-.1159-1.063-.2372-.3856-.1336-.7904-.2738-1.2933-.2738-.9422 0-1.9459.556-2.5795 1.5027-.8962 1.3351-.7435 3.8444.7061 5.9849.5188.7633 1.2115 1.6234 2.1158 1.6309.3756.0037.6256-.104.8961-.2205.3097-.1334.6463-.2784 1.2289-.2812.5877-.0042.9193.1428 1.2256.2786.263.1166.5073.225.8792.2222.9043-.0066 1.6358-.9608 2.1542-1.7254Z" clip-rule="evenodd"/><path fill="currentColor" d="M0 24h11c0 .8284.6716 1.5 1.5 1.5h7c.8284 0 1.5-.6716 1.5-1.5h11v2.5c0 .8284-.6716 1.5-1.5 1.5h-29C.6716 28 0 27.3284 0 26.5V24Z"/></svg>