<svg xmlns="http://www.w3.org/2000/svg" fill="none" viewBox="0 0 16 16" class="acv-icon"><path fill="currentColor" d="M15 8.416A4.9834 4.9834 0 0 0 13 8V3.4537L8 2 3 3.4537v7.1146C3 11.3935 4.5267 12.674 8 14l.093-.0356a4.972 4.972 0 0 0 .7355 1.7932c-.1594.0609-.322.1216-.4875.1821a.9943.9943 0 0 1-.682 0C3.2196 14.319 1 12.5148 1 10.527V2.7317c0-.4494.296-.8443.7253-.9677l6-1.7253a.9939.9939 0 0 1 .5494 0l6 1.7253c.4293.1234.7253.5183.7253.9677V8.416Z"/><path fill="currentColor" d="m7.5 8.0858 2.2929-2.293c.3905-.3904 1.0237-.3904 1.4142 0 .3905.3906.3905 1.0238 0 1.4143l-3 3c-.3905.3905-1.0237.3905-1.4142 0l-2-2c-.3905-.3905-.3905-1.0237 0-1.4142.3905-.3905 1.0237-.3905 1.4142 0L7.5 8.0858Z"/><path fill="currentColor" fill-rule="evenodd" d="M16 13c0 1.6569-1.3431 3-3 3s-3-1.3431-3-3 1.3431-3 3-3 3 1.3431 3 3Zm-3.3536-1.8536-1 1a.5002.5002 0 0 0 0 .7072.5002.5002 0 0 0 .7072 0l.1464-.1465V14.5a.5.5 0 0 0 1 0v-1.7929l.1464.1465a.5002.5002 0 0 0 .7072 0 .5002.5002 0 0 0 0-.7072l-.9998-.9997a.5005.5005 0 0 0-.7074-.0003Z" clip-rule="evenodd"/></svg>