<svg xmlns="http://www.w3.org/2000/svg" fill="none" viewBox="0 0 32 32" class="acv-icon"><path fill="currentColor" fill-rule="evenodd" d="M5 4h9c.5523 0 1 .4477 1 1v9c0 .5523-.4477 1-1 1H5c-.5523 0-1-.4477-1-1V5c0-.5523.4477-1 1-1Zm1 2v7h7V6H6ZM18 4h9c.5523 0 1 .4477 1 1v9c0 .5523-.4477 1-1 1h-9c-.5523 0-1-.4477-1-1V5c0-.5523.4477-1 1-1Zm1 2v7h7V6h-7ZM14 17H5c-.5523 0-1 .4477-1 1v9c0 .5523.4477 1 1 1h9c.5523 0 1-.4477 1-1v-9c0-.5523-.4477-1-1-1Zm-8 9v-7h7v7H6ZM18 17h9c.5523 0 1 .4477 1 1v9c0 .5523-.4477 1-1 1h-9c-.5523 0-1-.4477-1-1v-9c0-.5523.4477-1 1-1Zm1 2v7h7v-7h-7Z" clip-rule="evenodd"/></svg>