<svg xmlns="http://www.w3.org/2000/svg" fill="none" viewBox="0 0 24 24" class="acv-icon"><path fill="url(#MailNav24:a)" d="M2 5.8823C2 4.8428 2.814 4 3.8182 4h16.3636C21.186 4 22 4.8428 22 5.8823v12.2353C22 19.1572 21.186 20 20.1818 20H3.8182C2.814 20 2 19.1572 2 18.1176V5.8823Z"/><path fill="#fff" fill-rule="evenodd" d="M2.0002 5.5c0-.8284.6716-1.5 1.5-1.5h17c.8285 0 1.5.6716 1.5 1.5v3.4772a.8245.8245 0 0 1 0 .0445V18.5c0 .8284-.6715 1.5-1.5 1.5h-17c-.8284 0-1.5-.6716-1.5-1.5V9.0217a1.003 1.003 0 0 1 0-.0445V5.5Zm2 5.0388V18h16v-7.4612l-7.1877 3.1945a2.0002 2.0002 0 0 1-1.6245 0l-7.1878-3.1945Zm16-2.1887-8 3.5556-8-3.5556V6h16v2.3501Z" clip-rule="evenodd"/><defs><linearGradient id="MailNav24:a" x1="12" x2="12" y1="4" y2="18.1176" gradientUnits="userSpaceOnUse"><stop stop-color="#fff" stop-opacity=".4"/><stop offset="1" stop-color="#fff" stop-opacity="0"/></linearGradient></defs></svg>