<svg xmlns="http://www.w3.org/2000/svg" fill="none" viewBox="0 0 16 16" class="acv-icon"><path fill="currentColor" d="M8 2C5.7909 2 4 3.7909 4 6v.1387c.5886.2572 1 .8445 1 1.528v4.6666C5 13.2538 4.2538 14 3.3333 14 1.4923 14 0 12.5076 0 10.6667V9.3333c0-1.3668.8227-2.5416 2-3.056V6c0-3.3137 2.6863-6 6-6s6 2.6863 6 6v.2774c1.1773.5143 2 1.689 2 3.056v1.3333c0 1.7596-1.3635 3.2009-3.0917 3.3247A2.707 2.707 0 0 1 10.2929 16H9c-.5523 0-1-.4477-1-1s.4477-1 1-1h1.2929A.7072.7072 0 0 0 11 13.2929V7.6667c0-.6835.4114-1.2708 1-1.528V6c0-2.2091-1.7909-4-4-4Z"/></svg>