<svg xmlns="http://www.w3.org/2000/svg" fill="none" viewBox="0 0 24 24" class="acv-icon"><path fill="currentColor" d="M16.8727 5.0725s0-.5538.4275-.9803c.6842-.6819 1.8375-.639 2.521.043.7265.7248.7688 1.8324.0853 2.515-.4705.4688-.9826.4266-.9826.4266-.3851 0-.8118.0851-.9395.2124-.1284.171-.043.4687.2561.7678l3.2044 3.1971c.2568.2554.5551.6819.5551.767 0 .0851-.256.3835-.5551.6827l-2.9907 2.983c-.2568.2562-.6843.5975-.7696.5545-.0853-.0429-.256-.1702-.3844-.2983-.1284-.1281-.2991-.3406-.3414-.4257v-.086c.1277-.5538-.043-1.1513-.4274-1.5348-.6843-.6811-1.7952-.6389-2.521.0859-.7265.7249-.7688 1.8325-.0861 2.5151.4275.3836.9833.5546 1.5384.4265h.0861c.1276.0851.2983.2125.4267.3406.1284.1281.3421.4264.2991.5116 0 .0851-.256.3835-.5559.6819l-2.9899 2.9838c-.2568.2562-.6843.5967-.7696.5545-.0854 0-.3844-.2562-.6835-.5545l-3.2045-3.1971c-.299-.2983-.6411-.4257-.7688-.2561-.1284.171-.2137.5975-.2137.981 0 0 0 .5538-.4275.9803-.6842.6819-1.7944.6397-2.521-.0859-.7265-.7241-.7695-1.8325-.0853-2.5144.4698-.4686.9826-.4257.9826-.4257.3844.0422.8549-.0859.9825-.214.1284-.1273.043-.4687-.256-.767l-3.2045-3.1971c-.2567-.2561-.5989-.6819-.5558-.7678 0-.0843.2568-.3835.5559-.6811L5.764 8.1c.299-.2992.4267-.6397.256-.7678-.1706-.1273-.5981-.2133-.9825-.2133 0 0-.5551 0-.9826-.4257-.6842-.6826-.6412-1.791.0854-2.5158.7265-.7241 1.8367-.767 2.4779-.1281.4705.4694.4274.981.4274.981-.043.3835.0854.8522.2138.9803.1276.128.4697.043.7688-.2554l3.2044-3.1978c.2568-.2554.6843-.596.7696-.5538.0854 0 .3844.2554.6835.5538l3.2045 3.1978c.299.2554.6412.3835.7688.2554.1284-.1281.2137-.5546.2137-.9381Z"/></svg>