<svg xmlns="http://www.w3.org/2000/svg" fill="none" viewBox="0 0 32 32" class="acv-icon"><circle cx="16" cy="16" r="16" fill="#CADEF9"/><path fill="#1F56A2" fill-rule="evenodd" d="M14.0002 10.5025c0-1.198 1.3352-1.9126 2.332-1.248l4.5404 3.0268c.9344.623.8781 2.014-.1036 2.5594l-2.2097 1.2276 2.2097 1.2276c.9817.5453 1.038 1.9364.1036 2.5593l-4.5404 3.0269c-.9968.6645-2.332-.0501-2.332-1.2481v-3.0329l-1.5144.8413c-.4828.2682-1.0916.0943-1.3598-.3885s-.0942-1.0916.3885-1.3598l2.4857-1.3809v-.4899l-2.4857-1.3809c-.4827-.2682-.6567-.877-.3885-1.3598.2682-.4828.877-.6567 1.3598-.3885l1.5144.8413v-3.0329Zm2.5 4.4218-.5-.2778v-3.2097l3.0807 2.0538-2.5807 1.4337Zm0 2.2879-.5.2778v3.2097l3.0807-2.0538-2.5807-1.4337Z" clip-rule="evenodd"/></svg>