<svg xmlns="http://www.w3.org/2000/svg" fill="none" viewBox="0 0 16 16" class="acv-icon"><path fill="currentColor" d="M7.6667 10.5333c.7548 0 1.3666-.6118 1.3666-1.3666S8.4215 7.8 7.6667 7.8 6.3 8.4119 6.3 9.1667s.6119 1.3666 1.3667 1.3666Z"/><path fill="currentColor" fill-rule="evenodd" d="M6.2792 1a1 1 0 0 1 .9487.6838L7.886 3.658A.5.5 0 0 0 8.3604 4H14c.5523 0 1 .4477 1 1v9c0 .5523-.4477 1-1 1H2c-.5523 0-1-.4477-1-1V2c0-.5523.4477-1 1-1h4.2792Zm1.3875 10.8333c.5083 0 .9834-.1422 1.3876-.389l.8714.8714a.6294.6294 0 0 0 .89-.89l-.8714-.8714a2.654 2.654 0 0 0 .389-1.3876c0-1.4728-1.1939-2.6667-2.6666-2.6667C6.1939 6.5 5 7.694 5 9.1667c0 1.4727 1.194 2.6666 2.6667 2.6666Z" clip-rule="evenodd"/></svg>