<svg xmlns="http://www.w3.org/2000/svg" fill="none" viewBox="0 0 16 16" class="acv-icon"><path fill="currentColor" d="M.2929 8.2929c.3905-.3905 1.0237-.3905 1.4142 0L5 11.5858l9.2929-9.293c.3905-.3904 1.0237-.3904 1.4142 0 .3905.3906.3905 1.0238 0 1.4143l-10 10c-.3905.3905-1.0237.3905-1.4142 0l-4-4c-.3905-.3905-.3905-1.0237 0-1.4142ZM10.5003 13.8133c-.4015.3985-1.0536.3837-1.4366-.0325a.9976.9976 0 0 1 .0308-1.3831l5.1983-5.1657c.3905-.3905 1.0237-.3905 1.4142 0 .3906.3905.3906 1.0237 0 1.4142l-5.2067 5.1671Z"/></svg>