<svg xmlns="http://www.w3.org/2000/svg" fill="none" viewBox="0 0 72 72" class="acv-icon"><path fill="#F5CB63" d="M5 14v18h62V20c0-2.2091-1.7909-4-4-4H35.8735a4 4 0 0 1-3.0729-1.4393l-2.6012-3.1214A4 4 0 0 0 27.1265 10H9c-2.2091 0-4 1.7909-4 4Z"/><path fill="url(#FolderIll72:a)" d="M5 14v18h62V20c0-2.2091-1.7909-4-4-4H35.8735a4 4 0 0 1-3.0729-1.4393l-2.6012-3.1214A4 4 0 0 0 27.1265 10H9c-2.2091 0-4 1.7909-4 4Z" opacity=".1"/><path fill="#fff" d="M5 15v-1c0-2.2091 1.7909-4 4-4h18.1265a4 4 0 0 1 3.0729 1.4393l2.6012 3.1214A4 4 0 0 0 35.8735 16H63c2.2091 0 4 1.7909 4 4v1c0-2.2091-1.7909-4-4-4H35.8735a4 4 0 0 1-3.0729-1.4393l-2.6012-3.1214A4 4 0 0 0 27.1265 11H9c-2.2091 0-4 1.7909-4 4Z" opacity=".3"/><path fill="#D6A948" d="M67 23.9771c-.6098-.604-1.4488-.9771-2.375-.9771H7.375c-.9261 0-1.7652.373-2.375.9771v2C5.6098 25.373 6.4489 25 7.375 25h57.25c.9262 0 1.7652.3731 2.375.9771v-2Z"/><path fill="#CE983A" d="M67 24.9771c-.6098-.604-1.4488-.9771-2.375-.9771H7.375c-.9261 0-1.7652.373-2.375.9771v1C5.6098 25.373 6.4489 25 7.375 25h57.25c.9262 0 1.7652.3731 2.375.9771v-1ZM4 28.375V28h.0206A3.4113 3.4113 0 0 0 4 28.375Z"/><path fill="#D6A948" d="M62.32 18H9.68C8.7522 18 8 18.7603 8 19.6981v26.6038C8 47.2397 8.7522 48 9.68 48h52.64c.9278 0 1.68-.7603 1.68-1.6981V19.6981C64 18.7603 63.2478 18 62.32 18Z"/><path fill="#CE983A" d="M62.32 19H9.68C8.7522 19 8 19.7603 8 20.6981v26.6038C8 48.2397 8.7522 49 9.68 49h52.64c.9278 0 1.68-.7603 1.68-1.6981V20.6981C64 19.7603 63.2478 19 62.32 19Z"/><path fill="#fff" d="M62.32 20H9.68C8.7522 20 8 20.7603 8 21.6981v26.6038C8 49.2397 8.7522 50 9.68 50h52.64c.9278 0 1.68-.7603 1.68-1.6981V21.6981C64 20.7603 63.2478 20 62.32 20Z"/><path fill="#000" d="M64 24H8v1h56v-1Z" opacity=".1"/><path fill="#000" d="M64 23H8v2h56v-2Z" opacity=".1"/><path fill="#F5CB63" d="M64.625 25H7.375C5.511 25 4 26.511 4 28.375v30.25C4 60.489 5.511 62 7.375 62h57.25C66.489 62 68 60.489 68 58.625v-30.25C68 26.511 66.489 25 64.625 25Z"/><path fill="#F9E08B" d="M7.375 25h57.25C66.489 25 68 26.511 68 28.375v1C68 27.511 66.489 26 64.625 26H7.375C5.511 26 4 27.511 4 29.375v-1C4 26.511 5.511 25 7.375 25Z"/><path fill="#DCB759" d="M4 57.625v1C4 60.489 5.511 62 7.375 62h57.25C66.489 62 68 60.489 68 58.625v-1C68 59.489 66.489 61 64.625 61H7.375C5.511 61 4 59.489 4 57.625Z"/><defs><linearGradient id="FolderIll72:a" x1="36" x2="36" y1="18.6842" y2="10" gradientUnits="userSpaceOnUse"><stop/><stop offset="1" stop-opacity=".4"/></linearGradient></defs></svg>