<svg xmlns="http://www.w3.org/2000/svg" fill="none" viewBox="0 0 32 32" class="acv-icon"><path fill="currentColor" fill-rule="evenodd" d="M12.63 18.64h.89l2 3.39h1.9l-2.17-3.65a2.6503 2.6503 0 0 0 1.17-1 2.74 2.74 0 0 0 .44-1.55 3.1295 3.1295 0 0 0-.21-1.17 2.5811 2.5811 0 0 0-.6-.9 2.6303 2.6303 0 0 0-.92-.57A3.3397 3.3397 0 0 0 14 13h-3v9h1.63v-3.36Zm-.0001-4.12h1.37a1.3298 1.3298 0 0 1 .9.33c.2701.2595.4096.6265.38 1a1.1801 1.1801 0 0 1-.37.95 1.3502 1.3502 0 0 1-.91.32h-1.37v-2.6Z" clip-rule="evenodd"/><path fill="currentColor" fill-rule="evenodd" d="M8 4v5H3v17h6.4l-.7874 3h10.7748L18.6 26H25v-5h4V4H8Zm2 2v3h15v10h2V6H10ZM5 24V11h18v13h-7l.6126 3h-5.2252L12 24H5Z" clip-rule="evenodd"/></svg>