<svg xmlns="http://www.w3.org/2000/svg" fill="none" viewBox="0 0 32 32" class="acv-icon"><path fill="currentColor" d="m16.4763 2.1207 12 6.5c.6983.3783.6983 1.3804 0 1.7586l-12 6.5a1.0003 1.0003 0 0 1-.9526 0l-12-6.5c-.6983-.3782-.6983-1.3803 0-1.7586l12-6.5a1 1 0 0 1 .9526 0ZM16 4.1373 6.0996 9.5 16 14.8627 25.9004 9.5 16 4.1373ZM29 9.5V23a1 1 0 0 1-.5237.8793l-12 6.5C15.81 30.7402 15 30.2578 15 29.5V16a1 1 0 0 1 .5237-.8793l12-6.5C28.19 8.2598 29 8.7422 29 9.5Zm-2 1.6789-10 5.4167v11.2255l10-5.4167V11.1789ZM4.4763 8.6207l12 6.5A1 1 0 0 1 17 16v13.5c0 .7578-.81 1.2402-1.4763.8793l-12-6.5A1 1 0 0 1 3 23V9.5c0-.7578.81-1.2402 1.4763-.8793ZM5 11.179v11.2255l10 5.4167V16.5956L5 11.1789Z"/></svg>