<svg xmlns="http://www.w3.org/2000/svg" fill="none" viewBox="0 0 16 16" class="acv-icon"><path fill="currentColor" fill-rule="evenodd" d="M0 2c0-.5523.4477-1 1-1h14c.5523 0 1 .4477 1 1v11.9951c0 .5523-.4477 1-1 1H1c-.5523 0-1-.4477-1-1V2Zm2.2 4.998a.2.2 0 0 1-.2-.2V3.2a.2.2 0 0 1 .2-.2h11.6a.2.2 0 0 1 .2.2v3.598a.2.2 0 0 1-.2.2h-2.3c-.323 0-.626.156-.8137.4188L9.6329 8.8916c-.0974.1363-.309.0997-.3551-.0613l-1.3163-4.607a1 1 0 0 0-1.7752-.3065l-2.201 3.0813H2.2Zm0 2a.2.2 0 0 0-.2.2v3.5971a.2.2 0 0 0 .2.2h11.6a.2.2 0 0 0 .2-.2v-3.597a.2.2 0 0 0-.2-.2h-1.7854l-2.2009 3.0812a1 1 0 0 1-1.7752-.3065l-1.3163-4.607c-.046-.161-.2577-.1975-.355-.0613L5.3136 8.5793a1 1 0 0 1-.8137.4188H2.2Z" clip-rule="evenodd"/></svg>