<svg xmlns="http://www.w3.org/2000/svg" fill="none" viewBox="0 0 32 32" class="acv-icon"><path fill="currentColor" fill-rule="evenodd" d="M9.5988 5C8.005 5 6.6757 6.1898 6.5376 7.7401l-1.526 16C4.8557 25.4929 6.2827 27 8.0848 27h15.8306c1.8021 0 3.2291-1.5071 3.073-3.2599l-1.5259-16C25.3243 6.1898 23.995 5 22.4012 5H9.5988ZM8.5 21c-.8113 0-1.3994.7094-1.45 1.5l-.05 1c-.0553.8635.5138 1.5 1.4 1.5h3l.3486-.8714a1 1 0 0 1 .9284-.6286h6.646a1 1 0 0 1 .9284.6286L20.6 25h3c.8862 0 1.4553-.6365 1.4-1.5 0 0 .0006-.2094-.05-1-.0506-.7906-.6387-1.5-1.45-1.5h-15Z" clip-rule="evenodd"/></svg>