<svg xmlns="http://www.w3.org/2000/svg" fill="none" viewBox="0 0 24 24" class="acv-icon"><path fill="currentColor" d="M20.9338 13.2959c.109-.5414.6363-.8922 1.1777-.7832.5413.1091.8922.6364.7832 1.1777-.3822 1.8988-1.7627 3.4322-3.5693 4.0342-.5238.1744-1.0901-.109-1.2647-.6328-.1746-.524.1089-1.0901.6328-1.2647 1.1343-.3779 2.0011-1.3433 2.2403-2.5312Zm-19.0293-.749a.9992.9992 0 0 1 1.2285.6992c.3062 1.1152 1.1177 2.025 2.1729 2.4658.5096.2129.75.799.537 1.3086-.2129.5094-.798.7499-1.3076.5371-1.617-.6754-2.8591-2.0672-3.33-3.7822a.9992.9992 0 0 1 .6992-1.2285Zm14.918-7.8008c.417-.3617 1.0482-.3172 1.4101.0996a8.2432 8.2432 0 0 1 1.626 2.8906l.1933.0928a5.396 5.396 0 0 1 2.2666 2.1758c.2696.4819.098 1.0916-.3837 1.3613-.482.2697-1.0917.0972-1.3614-.3848a3.396 3.396 0 0 0-1.5459-1.4267l-.4023-.1826a1.0013 1.0013 0 0 1-.5381-.6075l-.1338-.4199a6.243 6.243 0 0 0-1.2314-2.1884c-.3616-.4173-.3165-1.0484.1006-1.4102ZM5.759 4.8545c.3613-.4177.9934-.4638 1.4111-.1025.4177.3613.463.9934.1016 1.411a6.2607 6.2607 0 0 0-.916 1.4005l-.1006.2207-.1553.3603a1 1 0 0 1-.5117.5176l-.3574.1592c-.894.3972-1.6036 1.1337-1.9659 2.042-.2045.513-.7868.7631-1.2998.5586-.5126-.2047-.7628-.7861-.5586-1.2989.5562-1.395 1.6424-2.5204 3.0118-3.1289l.1318-.291a8.2616 8.2616 0 0 1 1.209-1.8486ZM12.0002 2c1.2456 0 2.4296.2768 3.4912.7734.5002.234.7165.8299.4824 1.3301-.2341.5002-.8298.7155-1.3301.4815C13.842 4.2099 12.9468 4 12.0002 4c-.9497 0-1.8476.2116-2.6514.5889-.4998.2346-1.0953.0192-1.33-.4805-.2347-.5-.0196-1.0954.4804-1.33C9.5634 2.2788 10.7508 2 12.0002 2ZM12 14.0545c.5523 0 1 .4477 1 1v2c0 .5522-.4477 1-1 1s-1-.4478-1-1v-2c0-.5523.4477-1 1-1Z"/><path fill="currentColor" fill-rule="evenodd" d="M11.6074 10.1326a2.0031 2.0031 0 0 1 .7852 0l3.8037.7607c.4672.0935.8035.5041.8037.9805v5.1807c0 3-4 5-5 5s-5-1.9606-5-5v-5.1807a1.0004 1.0004 0 0 1 .8037-.9805l3.8037-.7607ZM9 12.6941v4.3604c0 .6442.4683 1.3768 1.3486 2.0576.3997.3091.849.5763 1.2666.7637.1434.0643.2747.1147.3819.1494a3.8895 3.8895 0 0 0 .3789-.1504c.4181-.1901.8695-.4618 1.2715-.7744.8821-.6863 1.3525-1.42 1.3525-2.0459v-4.3604l-3-.5996-3 .5996Z" clip-rule="evenodd"/></svg>