<svg xmlns="http://www.w3.org/2000/svg" fill="none" viewBox="0 0 24 24" class="acv-icon"><path fill="currentColor" fill-rule="evenodd" d="M15.866 13.258c-.188.069-.415-.033-.5-.216a3.5247 3.5247 0 0 0-.371-.622c-.13-.173-.105-.399.055-.527.192-.152.299-.377.294-.616-.005-.243-.124-.466-.325-.614a5.0391 5.0391 0 0 0-1.079-.6.8473.8473 0 0 0-.322-.063c-.399 0-.736.273-.801.65-.034.198-.228.332-.447.31a3.66 3.66 0 0 0-.74 0c-.218.022-.414-.112-.448-.31-.065-.377-.402-.65-.801-.65a.846.846 0 0 0-.321.063c-.384.155-.747.357-1.079.6-.201.148-.32.371-.325.614-.005.239.102.463.294.616.16.128.184.354.055.526-.145.195-.27.404-.371.623-.085.183-.295.29-.505.214a.8566.8566 0 0 0-.284-.049c-.407 0-.752.296-.805.689-.026.199-.04.403-.04.604 0 .201.014.405.041.604.064.486.589.819 1.093.638.188-.069.415.033.5.216.102.219.226.428.371.622.13.173.105.399-.055.527-.192.152-.299.376-.294.616.005.242.124.466.325.614.333.243.696.445 1.079.6.103.042.211.063.322.063.399 0 .736-.273.801-.65.034-.198.229-.33.447-.31.244.025.496.025.74 0 .219-.021.414.112.448.31.065.377.402.65.801.65.11 0 .218-.021.321-.063.383-.155.747-.357 1.079-.6.201-.148.32-.372.325-.614.005-.24-.102-.463-.294-.616-.16-.128-.184-.354-.055-.526.145-.195.27-.404.371-.623.085-.183.296-.29.505-.214.091.033.187.05.284.05.407 0 .752-.296.805-.69.026-.201.04-.404.04-.604 0-.2-.014-.403-.041-.604-.065-.486-.59-.819-1.093-.638ZM10.5 14.5c0-.827.673-1.5 1.5-1.5s1.5.673 1.5 1.5S12.827 16 12 16s-1.5-.673-1.5-1.5Z" clip-rule="evenodd"/><path fill="currentColor" fill-rule="evenodd" d="M19.001 4H18c0-.5523-.4477-1-1-1h-1V2c0-.5523-.4477-1-1-1H9c-.5523 0-1 .4477-1 1v1H7c-.5523 0-1 .4477-1 1H4.999C3.896 4 3 4.9013 3 6v15c0 1.1055.8932 2 2.0009 2H18.999C20.1026 23 21 22.0991 21 21V6c0-1.1052-.891-2-1.999-2ZM18 7V6h1s-.0037 15-.0009 15H5V6h1v1c0 .5523.4477 1 1 1h10c.5523 0 1-.4477 1-1Z" clip-rule="evenodd"/></svg>