<svg xmlns="http://www.w3.org/2000/svg" fill="none" viewBox="0 0 32 32" class="acv-icon"><path fill="currentColor" d="M8.5715 4C7.7036 4 7 4.6888 7 5.5385V6H26c.5523 0 1 .4477 1 1V20.923h.4286c.8679 0 1.5715-.6888 1.5715-1.5385V5.5385c0-.8497-.7036-1.5385-1.5715-1.5385H8.5715Z"/><path fill="currentColor" fill-rule="evenodd" d="M4.5714 8C3.7036 8 3 8.6888 3 9.5385v13.8461c0 .8497.7035 1.5385 1.5714 1.5385h6.2857l-.6636 2.599c-.062.2428.1255.4779.3811.4779h6.8508c.2556 0 .4431-.2351.3811-.4779l-.6636-2.599h6.2857c.8678 0 1.5714-.6888 1.5714-1.5385V9.5385C25 8.6888 24.2964 8 23.4286 8H4.5714Zm8.5953 3.5H9v4.1667h4.1667V11.5Zm0 5.8333H9V21.5h4.1667v-4.1667ZM14.8333 11.5H19v4.1667h-4.1667V11.5ZM19 17.3333h-4.1667V21.5H19v-4.1667Z" clip-rule="evenodd"/></svg>