<svg xmlns="http://www.w3.org/2000/svg" fill="none" viewBox="0 0 32 32" class="acv-icon"><path fill="currentColor" fill-rule="evenodd" d="M16 4c-3.4831 0-6 2.6692-6 6.6333 0 1.7066.7632 3.6964 2.2623 6.0029-2.2007.7165-4.5572 2.0364-7.0775 3.9518A3 3 0 0 0 4 22.9765V27c0 .5523.4477 1 1 1h22c.5523 0 1-.4477 1-1v-4.0235a2.9998 2.9998 0 0 0-1.1848-2.3885c-2.4174-1.8373-4.6841-3.1266-6.8072-3.8611C21.2396 15.1138 22 12.845 22 10.6333 22 6.6693 19.4832 4 16 4Zm9.6051 18.1803c.2488.1891.3949.4837.3949.7962V26H6v-3.0235a1 1 0 0 1 .395-.7962c2.8523-2.1677 5.4232-3.4863 7.698-3.9699.707-.1503 1.0259-.978.6025-1.5639C12.884 14.1401 12 12.1181 12 10.6333 12 7.7483 13.6486 6 16 6c2.3515 0 4 1.7484 4 4.6333 0 2.3118-1.0509 4.7169-2.4873 5.8007-.6844.5164-.4442 1.5982.3944 1.7764 2.2748.4836 4.8457 1.8022 7.698 3.9699Z" clip-rule="evenodd"/></svg>