<svg xmlns="http://www.w3.org/2000/svg" fill="none" viewBox="0 0 32 32" class="acv-icon"><circle cx="16" cy="16" r="14" fill="#CADEF9"/><path fill="#408BEA" d="M16 16.5c3.0376 0 5.5-2.4624 5.5-5.5S19.0376 5.5 16 5.5s-5.5 2.4624-5.5 5.5 2.4624 5.5 5.5 5.5ZM15.9995 18.5c-4.6532 0-8.7354 2.4447-11.0322 6.1199C7.5298 27.895 11.5189 30 15.9998 30c4.4806 0 8.4696-2.1049 11.0321-5.3797C24.7351 20.9449 20.6528 18.5 15.9995 18.5Z"/><path fill="#243143" fill-opacity=".1" fill-rule="evenodd" d="M16 29c7.1797 0 13-5.8203 13-13S23.1797 3 16 3 3 8.8203 3 16s5.8203 13 13 13Zm0 1c7.732 0 14-6.268 14-14S23.732 2 16 2 2 8.268 2 16s6.268 14 14 14Z" clip-rule="evenodd"/></svg>