<svg xmlns="http://www.w3.org/2000/svg" fill="none" viewBox="0 0 32 32" class="acv-icon"><path fill="currentColor" d="M19.4297 22.7822c.5511.0001 1.0576.3921 1.0576 1.21-.0001.7823-.5065 1.1825-1.0576 1.1826-.6314 0-1.041-.5433-1.041-1.1924.0002-.6665.4098-1.2002 1.041-1.2002Z"/><path fill="currentColor" fill-rule="evenodd" d="M24 16c4.4183 0 8 3.5817 8 8s-3.5817 8-8 8-8-3.5817-8-8 3.5817-8 8-8Zm-4.6768 6c-.9871 0-1.8231.7467-1.8232 1.9648 0 1.0316.6579 1.992 1.8135 1.9922.2667 0 .7388-.0624 1.1211-.5068v.3916h.8711v-3.7441h-.8711v.4355c-.3555-.4621-.8356-.5331-1.1114-.5332Zm4.7901 0c-.1957 0-.3653.0272-.5342.125-.1244.0711-.2666.1952-.3643.3105v-.3378h-.871v3.7441h.871v-1.9385c0-.2487.0003-.6045.2403-.8623.1688-.1778.3555-.205.542-.2051.0891 0 .2497.0084.4453.1329l.3555-.7911c-.24-.1421-.4714-.1777-.6846-.1777Zm5.124 0c-.3288 0-.8001.1067-1.1113.5508-.2134-.3644-.5786-.5508-.9698-.5508-.2843.0001-.6314.0889-.9248.4443v-.3466h-.871v3.7441h.871v-1.9297c.0001-.3201.0178-.6402.169-.8535.1158-.1602.3024-.2753.5156-.2754.3111 0 .4445.186.4981.3281.0357.0798.08.2492.08.667v2.0635h.8721v-1.9297c0-.3201.0178-.6402.169-.8535.1158-.1601.3023-.2754.5156-.2754.3109.0001.4446.1859.498.3281.0357.0798.0801.2492.0801.667v2.0635H30.5v-2.3125c0-.5422-.1242-.8178-.1953-.9424-.2134-.3736-.614-.5869-1.0674-.5869Z" clip-rule="evenodd"/><path fill="currentColor" d="M11 24c0 .8284.6716 1.5 1.5 1.5h1.6123a9.9244 9.9244 0 0 0 .7227 2.5H1.5C.6716 28 0 27.3284 0 26.5V24h11Z"/><path fill="currentColor" fill-rule="evenodd" d="M27 4c1.1046 0 2 .8954 2 2v9.3408C27.5288 14.4895 25.822 14 24 14a9.9946 9.9946 0 0 0-3 .458v-.7441h-4.2861v3.4404c-1.247 1.3267-2.1375 2.9923-2.5137 4.8457H3V6c0-1.1046.8954-2 2-2h22ZM11 18h4.2861v-4.2861H11V18Zm0-5.7139h4.2861V8H11v4.2861Zm5.7139 0H21V8h-4.2861v4.2861Z" clip-rule="evenodd"/></svg>