<svg xmlns="http://www.w3.org/2000/svg" fill="none" viewBox="0 0 16 16" class="acv-icon"><path fill="currentColor" fill-rule="evenodd" d="M8.394.0809a1 1 0 0 0-.788 0l-7 3A1 1 0 0 0 0 4v8c0 .4.2384.7616.606.9191l7 3a.9992.9992 0 0 0 .788 0l1.1305-.4845-.572-.7138c-.643-.7026-.643-1.739 0-2.4416L9 12.2198V7.6594l5-2.1429V10h1.1144c.302 0 .6073.057.8856.1888V4a1 1 0 0 0-.6061-.9192l-7-3ZM2 11.3406v-5.824l5 2.1428v5.8241l-5-2.1429ZM8 5.912 3.5386 4 8 2.088 12.4614 4 8 5.912Z" clip-rule="evenodd"/><path fill="currentColor" fill-rule="evenodd" d="M11.7464 11c-.3118 0-.5483.1187-.7466.3235l-1.2911 1.6111c-.318.3284-.318.8024 0 1.1308l1.2911 1.6111c.1983.2048.4348.3235.7466.3235h3.368c.5768 0 .8854-.3424.8854-.8333v-3.3334c0-.4909-.3086-.8333-.8854-.8333h-3.368ZM11.5 14a.5.5 0 1 0 0-1 .5.5 0 0 0 0 1Z" clip-rule="evenodd"/></svg>