<svg xmlns="http://www.w3.org/2000/svg" fill="none" viewBox="0 0 24 24" class="acv-icon"><path fill="currentColor" fill-rule="evenodd" d="M20.2206 3.8342A1 1 0 0 1 21 4.8107l-.0121 10.0946c-.1156 2.3958-1.7224 4.4255-4.2384 6.0627C15.0311 22.0862 12.8038 23 12 23c-.8036 0-3.031-.9136-4.7506-2.0318C4.7324 19.3314 3.1226 17.3025 3 14.8571V4.8095a1 1 0 0 1 .7794-.9753l8-2.8096a.9998.9998 0 0 1 .4412 0l8 2.8096ZM12 3.0252 4.9999 5.6087l-.0012 9.1979c.082 1.6185 1.3068 3.1623 3.341 4.485C9.7633 20.2172 11.6717 21 12 21c.3284 0 2.2364-.7828 3.6587-1.7083 2.0321-1.3224 3.2535-2.8652 3.3304-4.4358l.0099-9.2475L12 3.0253Z" clip-rule="evenodd"/><path fill="currentColor" d="M13 6.4814V11h1.4985a.5195.5195 0 0 1 .2151.0465c.2501.1141.3566.4013.2378.6414l-2.9971 5.0372c-.083.1679-.2593.2749-.4529.2749-.2769 0-.5014-.2155-.5014-.4814V12H9.5015a.5196.5196 0 0 1-.215-.0465c-.2502-.1141-.3567-.4013-.2379-.6414l2.9971-5.0372c.083-.168.2593-.2749.4529-.2749.2769 0 .5014.2155.5014.4814Z"/></svg>