<svg xmlns="http://www.w3.org/2000/svg" fill="none" viewBox="0 0 24 24" class="acv-icon"><path fill="currentColor" fill-rule="evenodd" d="M20 14c1.0929 0 2.1175.2922 3 .8027V2.9918C23 2.4553 22.556 2 22.0082 2H1.9918C1.4553 2 1 2.444 1 2.9918v18.0164c0 .5365.444.9918.9918.9918h12.3496A5.9904 5.9904 0 0 1 14 20H3v-4h12.5278c1.0986-1.2275 2.6952-2 4.4722-2Zm0 0H3v-4h18v4h-1Zm1-6H3V4h18v4ZM4 6c0 .5523.4477 1 1 1s1-.4477 1-1-.4477-1-1-1-1 .4477-1 1Zm0 6c0 .5523.4477 1 1 1s1-.4477 1-1-.4477-1-1-1-1 .4477-1 1Zm9 1c-.5523 0-1-.4477-1-1s.4477-1 1-1 1 .4477 1 1-.4477 1-1 1Zm2-1c0 .5523.4477 1 1 1s1-.4477 1-1-.4477-1-1-1-1 .4477-1 1Zm3 0c0 .5523.4477 1 1 1s1-.4477 1-1-.4477-1-1-1-1 .4477-1 1ZM5 19c-.5523 0-1-.4477-1-1s.4477-1 1-1 1 .4477 1 1-.4477 1-1 1ZM16 7c-.5523 0-1-.4477-1-1s.4477-1 1-1 1 .4477 1 1-.4477 1-1 1Zm2-1c0 .5523.4477 1 1 1s1-.4477 1-1-.4477-1-1-1-1 .4477-1 1Z" clip-rule="evenodd"/></svg>