<svg xmlns="http://www.w3.org/2000/svg" fill="none" viewBox="0 0 24 24" class="acv-icon"><path fill="currentColor" fill-rule="evenodd" d="M18 24c3.3137 0 6-2.6863 6-6s-2.6863-6-6-6-6 2.6863-6 6 2.6863 6 6 6Zm1-8.5c0-.2761.2451-.5.5-.5h1.0385c.2549 0 .4615.2239.4615.5v5c0 .2761-.2066.5-.4615.5h-5.077c-.2549 0-.4615-.2239-.4615-.5v-5c0-.2761.2066-.5.4615-.5H16.5c.2549 0 .5.2239.5.5v2h2v-2Z" clip-rule="evenodd"/><path fill="currentColor" d="M1.5 3.75c0-.8284.6716-1.5 1.5-1.5h18c.8284 0 1.5.6716 1.5 1.5v7.6347C21.2179 10.5108 19.6686 10 18 10c-3.0632 0-5.7243 1.7216-7.0684 4.25H1.5V3.75ZM10.3208 15.75H1.5v1.5c0 .8284.6716 1.5 1.5 1.5h6l-.6335 2.534a.375.375 0 0 0 .3638.466h2.2013C10.3369 20.6315 10 19.3551 10 18c0-.7812.112-1.5363.3208-2.25ZM13.316 21.75A5.9744 5.9744 0 0 1 12 18a5.984 5.984 0 0 1 .4361-2.25H15v4.75c0 .2761.2066.5.4615.5h.101l.071.284a.375.375 0 0 1-.3638.466H13.316Z"/><path fill="currentColor" d="M22.5 14.0313v.2187h-9.184C14.4156 12.8783 16.1052 12 18 12c1.792 0 3.4006.7856 4.5 2.0313ZM21 18.75c.8284 0 1.5-.6716 1.5-1.5v-1.5H21v3ZM19 15.75h-2v1.75h2v-1.75Z"/></svg>