<svg xmlns="http://www.w3.org/2000/svg" fill="none" viewBox="0 0 24 24" class="acv-icon"><path fill="currentColor" d="M7 4c-.5523 0-1 .4477-1 1s.4477 1 1 1h4.5c.5523 0 1-.4477 1-1s-.4477-1-1-1H7ZM6 8c0-.5523.4477-1 1-1h4.5c.5523 0 1 .4477 1 1s-.4477 1-1 1H7c-.5523 0-1-.4477-1-1ZM7 10c-.5523 0-1 .4477-1 1s.4477 1 1 1h4.5c.5523 0 1-.4477 1-1s-.4477-1-1-1H7ZM11.5 15c0-.5523.4477-1 1-1H17c.5523 0 1 .4477 1 1s-.4477 1-1 1h-4.5c-.5523 0-1-.4477-1-1ZM16 12h1c.5523 0 1-.4477 1-1s-.4477-1-1-1h-1c-.5523 0-1 .4477-1 1s.4477 1 1 1ZM15 8c0-.5523.4477-1 1-1h1c.5523 0 1 .4477 1 1s-.4477 1-1 1h-1c-.5523 0-1-.4477-1-1ZM16 4c-.5523 0-1 .4477-1 1s.4477 1 1 1h1c.5523 0 1-.4477 1-1s-.4477-1-1-1h-1Z"/><path fill="currentColor" fill-rule="evenodd" d="M3.2 0C2.5372 0 2 .5373 2 1.2v18.2172c0 .3182.1264.6234.3515.8485l2.8 2.8c.4686.4686 1.2284.4686 1.697 0L9 20.9142l2.1515 2.1515c.4686.4686 1.2284.4686 1.697 0L15 20.9142l2.1515 2.1515c.4686.4686 1.2284.4686 1.697 0l2.8-2.8A1.2 1.2 0 0 0 22 19.4172V1.2c0-.6627-.5373-1.2-1.2-1.2H3.2ZM4 19.0858V2h16v17.0858l-2 2-2.1515-2.1515c-.4686-.4686-1.2284-.4686-1.697 0L12 21.0858l-2.1515-2.1515c-.4686-.4686-1.2284-.4686-1.697 0L6 21.0858l-2-2Z" clip-rule="evenodd"/></svg>