<svg xmlns="http://www.w3.org/2000/svg" fill="none" viewBox="0 0 24 24" class="acv-icon"><path fill="currentColor" d="M4 2.5c-.8284 0-1.5.6716-1.5 1.5v5c0 .8284.6716 1.5 1.5 1.5h5c.8284 0 1.5-.6716 1.5-1.5V4c0-.8284-.6716-1.5-1.5-1.5H4ZM4 13.5c-.8284 0-1.5.6716-1.5 1.5v5c0 .8284.6716 1.5 1.5 1.5h5c.8284 0 1.5-.6716 1.5-1.5v-5c0-.8284-.6716-1.5-1.5-1.5H4ZM13.5 4c0-.8284.6716-1.5 1.5-1.5h5c.8284 0 1.5.6716 1.5 1.5v5c0 .8284-.6716 1.5-1.5 1.5h-5c-.8284 0-1.5-.6716-1.5-1.5V4ZM15 13.5c-.8284 0-1.5.6716-1.5 1.5v5c0 .8284.6716 1.5 1.5 1.5h5c.8284 0 1.5-.6716 1.5-1.5v-5c0-.8284-.6716-1.5-1.5-1.5h-5Z"/></svg>