<svg xmlns="http://www.w3.org/2000/svg" fill="none" viewBox="0 0 32 32" class="acv-icon"><path fill="currentColor" fill-rule="evenodd" d="M13.6459 5a2 2 0 0 1 1.857 1.2572l1.2457 3.1142A.9998.9998 0 0 0 17.677 10H25c1.1046 0 2 .8954 2 2v12c0 1.1046-.8954 2-2 2H7c-1.1046 0-2-.8954-2-2V7c0-1.1046.8954-2 2-2h6.6459Zm1.8943 7.966-5.2625 4.21c-.5433.4346-.236 1.3108.4598 1.3108h.846v4.0485a.368.368 0 0 0 .368.3681h1.9138a.368.368 0 0 0 .3681-.3681V19.591a.368.368 0 0 1 .368-.3681h2.7972a.368.368 0 0 1 .368.3681v2.9443a.368.368 0 0 0 .3681.3681h1.9138a.368.368 0 0 0 .368-.3681v-4.0485h.846c.6958 0 1.0031-.8762.4598-1.3108l-5.2625-4.21a.736.736 0 0 0-.9196 0Z" clip-rule="evenodd"/></svg>