<svg xmlns="http://www.w3.org/2000/svg" fill="none" viewBox="0 0 32 32" class="acv-icon"><path fill="currentColor" d="M20.7433 14.669c.3695-.4105.3362-1.0428-.0743-1.4123-.4105-.3694-1.0428-.3362-1.4123.0743L16.4 16.5052l-1.6567-1.8408c-.3695-.4105-1.0017-.4438-1.4123-.0744-.4105.3695-.4437 1.0018-.0743 1.4123l2.4 2.6667a1.0001 1.0001 0 0 0 1.4866 0l3.6-4Z"/><path fill="currentColor" fill-rule="evenodd" d="M31 23c.5523 0 1 .4477 1 1v2c0 2.2091-1.7909 4-4 4H11c-2.2091 0-4-1.7909-4-4V11H2c-.5523 0-1-.4477-1-1V8c0-2.2091 1.7909-4 4-4h17c2.2091 0 4 1.7909 4 4v15h5ZM8.4648 6A3.9816 3.9816 0 0 1 9 8v18c0 1.1046.8954 2 2 2h1c1.1045 0 2-.8954 2-2v-2c0-.5523.4477-1 1-1h9V8c0-1.1046-.8955-2-2-2H8.4648ZM16 25h14v1c0 1.1046-.8955 2-2 2H15.4648A3.9808 3.9808 0 0 0 16 26v-1ZM7 9V8c0-1.1046-.8954-2-2-2s-2 .8954-2 2v1h4Z" clip-rule="evenodd"/></svg>