<svg xmlns="http://www.w3.org/2000/svg" fill="none" viewBox="0 0 16 16" class="acv-icon"><path fill="currentColor" fill-rule="evenodd" d="M16 6.9997c0 1.1046-.8954 2-2 2v.967c0 2.1537-2.2022 3.6058-4.1818 2.7574l-4.0234-1.7243H5v3c0 .5523-.4477 1-1 1s-1-.4477-1-1v-3H2c-1.1046 0-2-.8955-2-2v-4c0-1.1046.8954-2 2-2h3.7947l4.0235-1.7244C11.7978.427 14 1.8791 14 4.0328v.967c1.1046 0 2 .8954 2 2Zm-5.3939-3.886C11.2659 2.8309 12 3.3149 12 4.0328v5.9339c0 .7179-.7341 1.2019-1.3939.9191L7 9.3404V4.659l3.6061-1.5454ZM5 4.9997H3c-.5523 0-1 .4478-1 1v2c0 .5523.4477 1 1 1h2v-4Z" clip-rule="evenodd"/></svg>