<svg xmlns="http://www.w3.org/2000/svg" fill="none" viewBox="0 0 24 24" class="acv-icon"><path fill="currentColor" fill-rule="evenodd" d="M3.5558 3.7428A3 3 0 0 1 6.2797 2h11.4406a3 3 0 0 1 2.7239 1.7428l2.2214 4.813a1.493 1.493 0 0 1 .3339.9057A.9886.9886 0 0 1 23 9.521V14.5c0 .0981-.0094.1941-.0274.2869C22.0963 14.2862 21.0816 14 20 14h1v-4H3v4h17c-1.777 0-3.3736.7725-4.4722 2H13v2.2676c.3036.1756.5568.4288.7324.7324h.3506A6.0363 6.0363 0 0 0 14 20c0 .3407.0284.6748.083 1h-.3506c-.3458.5978-.9921 1-1.7324 1s-1.3866-.4022-1.7324-1H5c-.5523 0-1-.4477-1-1s.4477-1 1-1h5.2676A2.0095 2.0095 0 0 1 11 18.2676V16H2.5c-.8284 0-1.5-.6716-1.5-1.5V9.5214a.9938.9938 0 0 1 .0005-.0605 1.4933 1.4933 0 0 1 .334-.9051l2.2213-4.813ZM20.2063 8l-1.578-3.419A1 1 0 0 0 17.7204 4H6.2797a1 1 0 0 0-.908.581L3.7937 8h16.4126Z" clip-rule="evenodd"/><path fill="currentColor" d="M7 12c0 .5523-.4477 1-1 1s-1-.4477-1-1 .4477-1 1-1 1 .4477 1 1ZM20 12c0 .5523-.4477 1-1 1s-1-.4477-1-1 .4477-1 1-1 1 .4477 1 1ZM16 13c.5523 0 1-.4477 1-1s-.4477-1-1-1-1 .4477-1 1 .4477 1 1 1Z"/></svg>