<svg xmlns="http://www.w3.org/2000/svg" fill="none" viewBox="0 0 24 24" class="acv-icon"><path fill="currentColor" d="M7 10c-.5523 0-1 .4477-1 1s.4477 1 1 1h10c.5523 0 1-.4477 1-1s-.4477-1-1-1H7ZM7 14c-.5523 0-1 .4477-1 1s.4477 1 1 1h6c.5523 0 1-.4477 1-1s-.4477-1-1-1H7Z"/><path fill="currentColor" fill-rule="evenodd" d="M22 7c0-.5523-.4477-1-1-1h-8.2792l-.7721-2.3162A1 1 0 0 0 11 3H3c-.5523 0-1 .4477-1 1v16c0 .5523.4477 1 1 1h18c.5523 0 1-.4477 1-1V7ZM4 19V5h6.2792l.7721 2.3162A1 1 0 0 0 12 8h8v11H4Z" clip-rule="evenodd"/></svg>