<svg xmlns="http://www.w3.org/2000/svg" fill="none" viewBox="0 0 24 24" class="acv-icon"><path fill="currentColor" fill-rule="evenodd" d="M11.5 2c5.2467 0 9.5 4.2533 9.5 9.5 0 2.2631-.7932 4.3398-2.1143 5.9717l3.8213 3.8213c.3905.3905.3905 1.0235 0 1.414a.9996.9996 0 0 1-1.414 0l-3.8213-3.8213C15.8398 20.2068 13.7631 21 11.5 21 6.2533 21 2 16.7467 2 11.5S6.2533 2 11.5 2Zm0 2C7.3579 4 4 7.3579 4 11.5S7.3579 19 11.5 19s7.5-3.3579 7.5-7.5S15.6421 4 11.5 4Z" clip-rule="evenodd"/><path fill="currentColor" d="m12.9759 10.667.464-3.7054c.0234-.2287-.1318-.4343-.3467-.4592-.1366-.0158-.271.0458-.354.1623l-4.1596 5c-.1306.1832-.097.4445.0752.5836a.376.376 0 0 0 .2365.0847h1.3828l-.464 3.7054c-.0234.2287.1319.4343.3467.4592.1366.0158.271-.0458.354-.1623l4.1596-5c.1306-.1832.097-.4445-.0752-.5836a.3757.3757 0 0 0-.2365-.0847h-1.3828Z"/></svg>