<svg xmlns="http://www.w3.org/2000/svg" fill="none" viewBox="0 0 32 32" class="acv-icon"><path fill="#408BEA" d="M25.521 20.209a.654.654 0 0 1 .958 0l.46.489a.655.655 0 0 0 .631.19l.645-.155a.667.667 0 0 1 .805.533l.131.668a.68.68 0 0 0 .43.511l.624.229c.355.13.535.535.398.896l-.24.635a.703.703 0 0 0 .093.67l.405.539a.7.7 0 0 1-.137.975l-.536.4a.695.695 0 0 0-.273.616l.058.679a.68.68 0 0 1-.627.744l-.661.039a.648.648 0 0 0-.185.038v2.584c0 .361-.357.608-.686.474L26 31.223l-1.814.74a.501.501 0 0 1-.686-.474v-2.584a.648.648 0 0 0-.185-.038l-.66-.039a.68.68 0 0 1-.628-.744l.058-.68a.695.695 0 0 0-.273-.615l-.537-.4a.7.7 0 0 1-.136-.975l.405-.54a.703.703 0 0 0 .094-.669l-.241-.635a.692.692 0 0 1 .398-.896l.623-.229a.68.68 0 0 0 .43-.51l.132-.669a.667.667 0 0 1 .805-.533l.645.155a.655.655 0 0 0 .63-.19l.461-.49Z"/><path stroke="#243143" stroke-opacity=".1" d="m24 28.555-.33-.12a1.152 1.152 0 0 0-.326-.068l-.66-.038c-.081-.005-.169-.084-.159-.203l.058-.679a1.196 1.196 0 0 0-.473-1.058l-.536-.4a.2.2 0 0 1-.035-.275l.405-.54c.247-.328.307-.763.162-1.147l-.242-.634c-.041-.11.02-.219.103-.25l.623-.228c.39-.143.671-.482.75-.885l.13-.668c.022-.113.12-.16.198-.142l.645.154c.405.098.827-.032 1.11-.333l.462-.49a.155.155 0 0 1 .23 0l.461.49c.284.301.706.43 1.111.333l.645-.154c.077-.019.176.029.198.142l.13.668c.079.403.36.742.75.885l.623.229c.083.03.144.138.103.249l-.241.634c-.146.384-.086.819.16 1.148l.406.539a.2.2 0 0 1-.035.274l-.536.4c-.332.248-.508.65-.473 1.06l.058.678c.01.12-.078.198-.159.203l-.66.038c-.113.007-.223.03-.327.068l-.329.12v2.934l-.001.007v.002h-.001l-1.81-.738-.188-.077-.189.077-1.81.738v-.002L24 31.49v-2.934Z"/><path fill="#fff" d="M28.5 25a2.5 2.5 0 1 1-5 0 2.5 2.5 0 0 1 5 0Z"/></svg>