<svg xmlns="http://www.w3.org/2000/svg" fill="none" viewBox="0 0 32 32" class="acv-icon"><path fill="currentColor" d="M26.4529 17c.2939 0 .5254.2526.4845.5436C26.1858 22.8981 21.5854 27 16.0225 27 9.9349 27 5 22.0651 5 15.9775c0-5.5629 4.102-10.1633 9.4564-10.915.291-.0408.5436.1907.5436.4846V16.5a.5.5 0 0 0 .5.5h10.9529Z"/><path fill="currentColor" d="M17.5436 5.0627c-.291-.041-.5436.1905-.5436.4844V14.5a.5.5 0 0 0 .5.5h8.9529c.2939 0 .5254-.2526.4844-.5436-.6822-4.8523-4.5414-8.7116-9.3937-9.3937Z"/></svg>