<svg xmlns="http://www.w3.org/2000/svg" fill="none" viewBox="0 0 16 16" class="acv-icon"><path fill="currentColor" d="M14 13c.5523 0 1-.4477 1-1V4c0-.5523-.4477-1-1-1s-1 .4477-1 1v8c0 .5523.4477 1 1 1ZM6.7071 11.2929c.3905.3905.3905 1.0237 0 1.4142-.3905.3905-1.0237.3905-1.4142 0l-4-4c-.3905-.3905-.3905-1.0237 0-1.4142l4-4c.3905-.3905 1.0237-.3905 1.4142 0 .3905.3905.3905 1.0237 0 1.4142L3.4142 8l3.293 3.2929Z"/><path fill="currentColor" d="m8.4142 9 2.2929 2.2929c.3905.3905.3905 1.0237 0 1.4142-.3905.3905-1.0237.3905-1.4142 0l-4-4c-.3905-.3905-.3905-1.0237 0-1.4142l4-4c.3905-.3905 1.0237-.3905 1.4142 0 .3905.3905.3905 1.0237 0 1.4142L8.4142 7H11c.5523 0 1 .4477 1 1s-.4477 1-1 1H8.4142Z"/></svg>