<svg xmlns="http://www.w3.org/2000/svg" fill="none" viewBox="0 0 32 33" class="acv-icon"><path fill="currentColor" d="M19.7496 13.1573h-.2478v-1.5009h.2408c.2194 0 .3811.0566.4849.1699.1062.1109.1593.2985.1593.5629 0 .2548-.0495.4472-.1486.577-.0992.1274-.262.1911-.4886.1911ZM13.1227 13.2883h-.1841v-1.6319h.2336c.2219 0 .3859.0661.4921.1982.1062.1298.1593.3304.1593.6018 0 .295-.0578.5074-.1735.6372-.1156.1298-.2914.1947-.5274.1947ZM21.2481 19.4275c-.3334-.1905-.7481.0502-.7481.4341v6.2768c0 .3839.4147.6246.7481.4341l5.4922-3.1384c.3359-.1919.3359-.6763 0-.8682l-5.4922-3.1384Z"/><path fill="currentColor" fill-rule="evenodd" d="M2 5c0-1.1046.8954-2 2-2h24c1.1046 0 2 .8954 2 2v12.3427c1.2508 1.5457 2 3.514 2 5.6573 0 4.9706-4.0294 9-9 9-2.6655 0-5.0604-1.1588-6.7083-3h-4.6513c-.3253 0-.564-.3057-.4851-.6213L12 25H4c-1.1046 0-2-.8954-2-2V5Zm15.3427 11a9.0332 9.0332 0 0 1 .4422-.3359v-.5066h-1.37v-1.4337h1.2709v-.8355h-1.2709v-1.2319h1.37v-.8319H15.452V16h1.8907Zm1.1962-.8184a8.972 8.972 0 0 1 .9629-.4765v-.7194h.3434l.2064.5084a8.8938 8.8938 0 0 1 .8704-.253l-.2236-.5103c.4413-.2596.662-.7162.662-1.37 0-.5192-.1275-.905-.3824-1.1576-.2525-.2525-.6454-.3787-1.1788-.3787h-1.2603v4.3571Zm3.4233-1.1224a9.1277 9.1277 0 0 1 1.7806-.029v-.3879h-1.7806v.4169Zm2.8233.1179c.3213.0647.6363.1464.9442.2443a6.992 6.992 0 0 0-.0824-.4357l-.6761-3.1612h-.97l.7843 3.3526Zm1.1345.3072c.2724.0934.5389.1994.7987.3175l.9358-3.9773h-.9699l-.6691 3.1612a10.1734 10.1734 0 0 0-.0955.4986ZM6.6904 16h.963v-5.1755h-.963v2.0567H5.4196v-2.0567h-.963V16h.963v-2.2692h1.2708V16Zm3.8162-5.1755-.6903 2.0426-.6868-2.0426h-1.016l1.2249 3.14V16h.9487v-2.0745l1.2284-3.101h-1.0089Zm3.8728 2.8603c.2785-.295.4177-.7174.4177-1.2673 0-1.062-.5027-1.593-1.508-1.593h-1.3134V16h.9629v-1.8762h.2407c.5239 0 .924-.1463 1.2001-.439ZM23 30c3.866 0 7-3.134 7-7s-3.134-7-7-7-7 3.134-7 7 3.134 7 7 7Z" clip-rule="evenodd"/></svg>