<svg xmlns="http://www.w3.org/2000/svg" fill="none" viewBox="0 0 32 32" class="acv-icon"><path fill="#9BC225" fill-rule="evenodd" d="m25.791 21.945.16 1.09a2.456 2.456 0 0 1-2.743 2.791l-1.093-.14a3.652 3.652 0 0 0-3.395 1.441l-.658.884a2.456 2.456 0 0 1-3.914.034l-.673-.872a3.652 3.652 0 0 0-3.42-1.382l-1.09.16a2.456 2.456 0 0 1-2.791-2.743l.14-1.093a3.652 3.652 0 0 0-1.441-3.395l-.884-.658a2.456 2.456 0 0 1-.034-3.914l.872-.673a3.652 3.652 0 0 0 1.382-3.42l-.16-1.09a2.456 2.456 0 0 1 2.743-2.791l1.093.14a3.652 3.652 0 0 0 3.395-1.441l.658-.884a2.456 2.456 0 0 1 3.914-.034l.673.872a3.652 3.652 0 0 0 3.42 1.382l1.09-.16a2.456 2.456 0 0 1 2.791 2.743l-.14 1.093a3.652 3.652 0 0 0 1.441 3.395l.884.658a2.456 2.456 0 0 1 .034 3.914l-.872.673a3.652 3.652 0 0 0-1.382 3.42Z" clip-rule="evenodd"/><path stroke="#243143" stroke-opacity=".1" d="M14.34 4.288a1.955 1.955 0 0 1 2.57-.512l.166.112c.107.08.206.17.295.27l.085.103.673.872a4.153 4.153 0 0 0 3.61 1.602l.279-.03 1.09-.161a1.956 1.956 0 0 1 2.18 1.455l.038.196c.02.133.025.267.017.4l-.013.134-.14 1.092a4.152 4.152 0 0 0 1.42 3.686l.218.175.884.658a1.955 1.955 0 0 1 .512 2.57l-.112.166c-.08.107-.17.206-.27.295l-.103.085-.872.673a4.153 4.153 0 0 0-1.602 3.61l.03.279.161 1.09a1.956 1.956 0 0 1-1.455 2.18l-.196.038c-.133.02-.267.025-.4.017l-.134-.013-1.092-.14a4.152 4.152 0 0 0-3.686 1.42l-.175.218-.658.884a1.955 1.955 0 0 1-2.57.512l-.166-.112a1.963 1.963 0 0 1-.295-.27l-.085-.103-.673-.872a4.153 4.153 0 0 0-3.61-1.602l-.279.03-1.09.161a1.957 1.957 0 0 1-2.18-1.455l-.038-.196a1.96 1.96 0 0 1-.017-.4l.013-.134.14-1.092a4.153 4.153 0 0 0-1.42-3.686l-.218-.175-.884-.658a1.955 1.955 0 0 1-.512-2.57l.112-.166c.08-.107.17-.207.27-.295l.103-.085.872-.673a4.153 4.153 0 0 0 1.602-3.61l-.03-.279-.161-1.09a1.956 1.956 0 0 1 1.455-2.18l.196-.038a1.96 1.96 0 0 1 .4-.017l.134.013 1.092.14c1.396.18 2.78-.36 3.686-1.42l.175-.218.658-.884Z"/><path fill="#fff" fill-rule="evenodd" d="M12.5 15a2.5 2.5 0 1 0 0-5 2.5 2.5 0 0 0 0 5Zm0-1.5a1 1 0 1 0 0-2 1 1 0 0 0 0 2Z" clip-rule="evenodd"/><path fill="#fff" d="M20.707 11.293a1 1 0 0 1 0 1.414l-8 8a1 1 0 0 1-1.414-1.414l8-8a1 1 0 0 1 1.414 0Z"/><path fill="#fff" fill-rule="evenodd" d="M22 19.5a2.5 2.5 0 1 1-5 0 2.5 2.5 0 0 1 5 0Zm-1.5 0a1 1 0 1 1-2 0 1 1 0 0 1 2 0Z" clip-rule="evenodd"/></svg>