<svg xmlns="http://www.w3.org/2000/svg" fill="none" viewBox="0 0 24 24" class="acv-icon"><path fill="currentColor" fill-rule="evenodd" d="M16 8.6343C16 12.3778 14.6901 15 12 15s-4-2.6222-4-6.3657c0-1.555.8162-2.6515 2.0952-3.2203.7086-.3152 1.3885-.4152 1.9079-.414.5132-.0012 1.1931.0988 1.9017.414C15.1838 5.9828 16 7.0793 16 8.6343Zm-2-.2732c0-.6506-.2757-.947-.8572-1.1538-.4266-.1518-.9015-.2077-1.1374-.2073h-.0121c-.2346-.0004-.7095.0555-1.1361.2073C10.2757 7.414 10 7.7105 10 8.361 10 11.3955 11.0019 13 12 13s2-1.6045 2-4.6389Z" clip-rule="evenodd"/><path fill="currentColor" fill-rule="evenodd" d="M1 12c0 6.0751 4.9249 11 11 11s11-4.9249 11-11S18.0751 1 12 1 1 5.9249 1 12Zm20 0c0 1.908-.5937 3.6774-1.6065 5.1333-1.1946-.4103-3.7653-1.2621-4.2072-1.1168l-2.8415.6398c-.1631.0567-.5281.056-.6893 0l-2.8237-.6338c-.4563-.1502-3.03.7008-4.2252 1.111C3.5938 15.6775 3 13.9081 3 12c0-4.9706 4.0294-9 9-9s9 4.0294 9 9Zm-5.2468 5.7258c.0703.0099 1.3805.4887 2.3845.8567C16.53 20.0823 14.3722 21 12 21s-4.53-.9178-6.1378-2.4176c1.004-.368 2.3143-.847 2.3845-.8568l2.6522.5743c.6454.2243 1.5522.226 2.2026 0l2.6517-.5741Z" clip-rule="evenodd"/></svg>