<svg xmlns="http://www.w3.org/2000/svg" fill="none" viewBox="0 0 16 16" class="acv-icon"><circle cx="8" cy="8" r="8" fill="#408BEA"/><circle cx="8" cy="8" r="7.5" stroke="#243143" stroke-opacity=".1"/><path fill="#fff" fill-rule="evenodd" d="M8 3C6.6193 3 5.5 4.1193 5.5 5.5V7h-.75a.75.75 0 0 0-.75.75v4a.75.75 0 0 0 .75.75h6.5a.75.75 0 0 0 .75-.75v-4a.75.75 0 0 0-.75-.75h-.75V5.5C10.5 4.1193 9.3807 3 8 3ZM7 7h2V5.5c0-.5523-.4477-1-1-1s-1 .4477-1 1V7Zm1 1.5c-.5523 0-1 .4477-1 1v.5c0 .5523.4477 1 1 1s1-.4477 1-1v-.5c0-.5523-.4477-1-1-1Z" clip-rule="evenodd"/></svg>