<svg xmlns="http://www.w3.org/2000/svg" fill="none" viewBox="0 0 32 32" class="acv-icon"><path fill="currentColor" d="M10 8v8h2v-5c0-.5523.4477-1 1-1h5V8h-8ZM22 12h-2v5c0 .5523-.4477 1-1 1h-5v2h8v-8Z"/><path fill="currentColor" d="M18 16v-4h-4v4h4Z"/><path fill="currentColor" fill-rule="evenodd" d="M2 5c0-1.1046.8954-2 2-2h24c1.1046 0 2 .8954 2 2v18c0 1.1046-.8954 2-2 2h-8l.8447 3.3787c.0789.3156-.1598.6213-.4851.6213h-8.7192c-.3253 0-.564-.3057-.4851-.6213L12 25H4c-1.1046 0-2-.8954-2-2V5Zm7 13h3v3c0 .5523.4477 1 1 1h10c.5523 0 1-.4477 1-1V11c0-.5523-.4477-1-1-1h-3V7c0-.5523-.4477-1-1-1H9c-.5523 0-1 .4477-1 1v10c0 .5523.4477 1 1 1Z" clip-rule="evenodd"/></svg>