<svg xmlns="http://www.w3.org/2000/svg" fill="none" viewBox="0 0 32 32" class="acv-icon"><path fill="currentColor" fill-rule="evenodd" d="M20 13c0 2.2091-1.7909 4-4 4-2.2091 0-4-1.7909-4-4 0-2.2091 1.7909-4 4-4 2.2091 0 4 1.7909 4 4Zm-2 0c0 1.1046-.8954 2-2 2s-2-.8954-2-2 .8954-2 2-2 2 .8954 2 2Z" clip-rule="evenodd"/><path fill="currentColor" fill-rule="evenodd" d="M26 14c0 4.6847-2.4384 6.9309-6.3634 10.5464C18.5346 25.5615 17.3152 26.6848 16 28c-1.3152-1.3152-2.5343-2.4382-3.6362-3.4532C8.4388 20.9312 6 18.6847 6 14 6 8 10.4772 4 16 4s10 4 10 10Zm-7.663 9.0243-.0646.0596c-.7018.6464-1.4633 1.3479-2.2724 2.1208-.8092-.773-1.5707-1.4745-2.2725-2.121l-.0353-.0325c-1.9991-1.8416-3.3924-3.1413-4.3347-4.5107C8.4833 17.2699 8 15.9315 8 14c0-4.8328 3.518-8 8-8s8 3.1672 8 8c0 1.9315-.4833 3.2699-1.3575 4.5405-.9377 1.3628-2.322 2.6564-4.3055 4.4838Z" clip-rule="evenodd"/></svg>