<svg xmlns="http://www.w3.org/2000/svg" fill="none" viewBox="0 0 32 32" class="acv-icon"><path fill="currentColor" d="M11 13c-.5523 0-1 .4477-1 1v2c0 .5523.4477 1 1 1s1-.4477 1-1v-2c0-.5523-.4477-1-1-1ZM15 13c0-.5523.4477-1 1-1s1 .4477 1 1v3c0 .5523-.4477 1-1 1s-1-.4477-1-1v-3ZM11 19c-.5523 0-1 .4477-1 1v2c0 .5523.4477 1 1 1s1-.4477 1-1v-2c0-.5523-.4477-1-1-1ZM20 20c0-.5523.4477-1 1-1s1 .4477 1 1v2c0 .5523-.4477 1-1 1s-1-.4477-1-1v-2ZM21 13c-.5523 0-1 .4477-1 1v2c0 .5523.4477 1 1 1s1-.4477 1-1v-2c0-.5523-.4477-1-1-1Z"/><path fill="currentColor" fill-rule="evenodd" d="M15.4246 4.6822a1 1 0 0 1 1.151 0L23 9.203V7c0-.5523.4477-1 1-1s1 .4477 1 1v3.6105l5.0756 3.5717c.4516.3178.5601.9416.2423 1.3933-.3178.4517-.9416.5601-1.3933.2423L28 15.1672V25h1c.5523 0 1 .4477 1 1s-.4477 1-1 1H3c-.5523 0-1-.4477-1-1s.4477-1 1-1h1v-9.8327l-.9244.6505c-.4517.3178-1.0755.2094-1.3933-.2423-.3179-.4517-.2094-1.0755.2423-1.3933l13.5-9.5Zm.5755 2.0406L26 13.7598V25h-9v-4c0-.5523-.4477-1-1-1s-1 .4477-1 1v4H6V13.7599l10.0001-7.0371Z" clip-rule="evenodd"/></svg>