<svg xmlns="http://www.w3.org/2000/svg" fill="none" viewBox="0 0 24 24" class="acv-icon"><path fill="url(#HelpNavDark24:a)" d="M23 12c0 6.0751-4.9249 11-11 11S1 18.0751 1 12 5.9249 1 12 1s11 4.9249 11 11Z"/><path fill="#243143" d="M8.5 10.4513c.5523 0 1-.4501 1-1.0052 0-3.1763 5-3.3797 5-.4212 0 .7758-.4545 1.4788-1.1598 1.7939-1.6814.7512-3.5365 1.7168-2.7889 3.9713.1747.5267.741.8113 1.2649.6358.524-.1756.8071-.7449.6325-1.2715-.2584-.7793.6143-1.0947 1.2909-1.3392.1527-.0552.2955-.1067.4129-.1592C15.58 12.0182 16.5 10.5952 16.5 9.0249c0-5.526-9-5.3394-9 .4212 0 .5551.4477 1.0052 1 1.0052ZM11.5 19c.5523 0 1-.4506 1-1.0064s-.4477-1.0063-1-1.0063-1 .4505-1 1.0063S10.9477 19 11.5 19Z"/><path fill="#243143" fill-rule="evenodd" d="M24 12c0 6.6274-5.3726 12-12 12S0 18.6274 0 12 5.3726 0 12 0s12 5.3726 12 12Zm-2 0c0 5.5228-4.4772 10-10 10-5.5229 0-10-4.4772-10-10C2 6.4771 6.4771 2 12 2c5.5228 0 10 4.4771 10 10Z" clip-rule="evenodd"/><defs><linearGradient id="HelpNavDark24:a" x1="12" x2="12" y1="1" y2="20.4118" gradientUnits="userSpaceOnUse"><stop stop-color="#243143" stop-opacity=".3"/><stop offset="1" stop-color="#243143" stop-opacity="0"/></linearGradient></defs></svg>