<svg xmlns="http://www.w3.org/2000/svg" fill="none" viewBox="0 0 16 16" class="acv-icon"><path fill="currentColor" d="M6.039 12.622c.1684 1.3567.8804 2.544 1.9112 3.3389a3.1099 3.1099 0 0 1-1.5645-.4493l-2.96-1.7929c.557-.0133 1.1105-.1761 1.6143-.4844l.999-.6123Z"/><path fill="currentColor" fill-rule="evenodd" d="M12.2939 8.5a.6981.6981 0 0 1 .2579.0488c.3063.1205.5969.2778.8632.4667.1608.1151.2558.2887.2598.4776.004.1858-.0809.3613-.2344.4795-.128.0995-.1479.2756-.0439.4101.1158.1507.2144.3133.2959.4834.068.1423.25.2216.4004.168.4023-.1408.8219.1182.874.4961.0216.1563.0332.3142.0332.4697 0 .1555-.0114.3135-.0322.4697-.0424.3064-.3181.5371-.6436.5372a.6843.6843 0 0 1-.2275-.0391.3262.3262 0 0 0-.4043.166 2.7183 2.7183 0 0 1-.2959.4854c-.1032.1337-.084.3086.0439.4082.1536.119.2384.2928.2344.4795-.004.1882-.099.3624-.2598.4775a4.049 4.049 0 0 1-.8632.4668.6958.6958 0 0 1-.2569.0488c-.3191-.0001-.5886-.2127-.6406-.5058-.0274-.1538-.1834-.2566-.3584-.2403a3.0161 3.0161 0 0 1-.5918 0c-.1742-.0155-.33.0865-.3574.2403-.052.293-.3216.5056-.6407.5058a.6971.6971 0 0 1-.2578-.0488 4.0691 4.0691 0 0 1-.8632-.4668c-.1608-.1151-.2558-.2893-.2598-.4775-.004-.1867.0808-.3613.2344-.4795.128-.0996.148-.2747.044-.4092a2.729 2.729 0 0 1-.296-.4844c-.068-.1422-.25-.2215-.4004-.168-.4032.1408-.8228-.1181-.874-.4961A3.418 3.418 0 0 1 7 11.9999c0-.1563.0114-.315.0322-.4697.0425-.3056.3181-.536.6436-.5361a.7072.7072 0 0 1 .2275.038.3256.3256 0 0 0 .4043-.166c.0807-.1701.18-.3328.296-.4843.1031-.1338.084-.3097-.044-.4092-.1535-.119-.2384-.2937-.2344-.4795.004-.189.099-.3625.2598-.4776a4.0304 4.0304 0 0 1 .8632-.4667.6954.6954 0 0 1 .2569-.0489c.3191.0001.5886.2127.6406.5059.0273.1539.1841.2583.3584.2412a3.01 3.01 0 0 1 .5918 0c.1751.017.3301-.0874.3574-.2412.052-.2931.3216-.5057.6406-.5059ZM11 10.8328c-.6616 0-1.2001.5238-1.2002 1.167 0 .6432.5386 1.167 1.2002 1.167s1.2002-.5238 1.2002-1.167c-.0001-.6432-.5386-1.167-1.2002-1.167Z" clip-rule="evenodd"/><path fill="currentColor" d="M5.252 1.123c-.2386.4573-.3682.9745-.3682 1.5146v5.1572c0 1.0368.5295 2.0145 1.3848 2.5879a4.986 4.986 0 0 0-.2657 1.4834l-1.3105.8018c-.8187.5005-1.807.5204-2.6455.0498-.401-.2254-.7264-.537-.9551-.9082-.2453-.4508-.3838-.9652-.3838-1.4922V5.6269c.0002-1.0837.577-2.104 1.5049-2.664l3.039-1.84Z"/><path fill="currentColor" d="M6.8701.3603C7.4335.0389 8.07-.0606 8.6797.0653a2.497 2.497 0 0 1 .5.1563c.1491.0596.2954.1287.4346.2148l4.1728 2.5264c.9279.56 1.5047 1.5804 1.5049 2.664l-.0029 3.4874c-.2553-.401-.6067-.7425-1.0342-1.001l-4.7334-2.831a2.9867 2.9867 0 0 0-3.046-.0098l-.9286.5469V2.6376c0-.9546.4946-1.8033 1.3232-2.2773Z"/></svg>