<svg xmlns="http://www.w3.org/2000/svg" fill="none" viewBox="0 0 32 32" class="acv-icon"><path fill="currentColor" d="M10 12c1.1046 0 2-.8954 2-2s-.8954-2-2-2-2 .8954-2 2 .8954 2 2 2Z"/><path fill="currentColor" fill-rule="evenodd" d="M8.4142 4A2 2 0 0 0 7 4.5858L4.5858 7A2 2 0 0 0 4 8.4142v6.1716A2 2 0 0 0 4.5858 16l11 11c.781.781 2.0474.781 2.8284 0L27 18.4142c.781-.781.781-2.0474 0-2.8284l-11-11A2 2 0 0 0 14.5858 4H8.4142Zm0 2h6.1716l11 11L17 25.5858l-11-11V8.4142L8.4142 6Z" clip-rule="evenodd"/></svg>