<svg xmlns="http://www.w3.org/2000/svg" fill="none" viewBox="0 0 24 24" class="acv-icon"><path fill="currentColor" d="M4.3385 6.9767C5.5942 3.9992 8.603 2 12 2c3.7392 0 6.975 2.419 7.965 5.831C21.7969 8.7324 23 10.5665 23 12.625 23 15.6023 20.5088 18 17.4545 18h-1.4522c-.5523 0-1-.4477-1-1s.4477-1 1-1h1.4522C19.421 16 21 14.4802 21 12.625c0-1.3903-.8935-2.6296-2.237-3.1379a.9999.9999 0 0 1-.623-.7218C17.5387 6.0141 14.9895 4 12 4 9.2901 4 6.9187 5.6576 6.0612 8.0629a1 1 0 0 1-.5778.5955C3.9895 9.2425 3 10.6312 3 12.1875 3 14.1537 4.576 15.8096 6.5454 16H8c.5523 0 1 .4477 1 1s-.4477 1-1 1l-1.5486-.0044C3.3796 17.7055 1 15.2053 1 12.1875c0-2.2448 1.324-4.2448 3.3385-5.2108Z"/><path fill="currentColor" d="M14.2929 13.7071 13 12.4142v8.5833C13 21.5512 12.5561 22 12 22c-.5523 0-1-.4558-1-1.0025v-8.5833l-1.2929 1.2929c-.3905.3905-1.0237.3905-1.4142 0-.3905-.3905-.3905-1.0237 0-1.4142l3-3c.3905-.3905 1.0237-.3905 1.4142 0l3 3c.3905.3905.3905 1.0237 0 1.4142-.3905.3905-1.0237.3905-1.4142 0Z"/></svg>