<svg xmlns="http://www.w3.org/2000/svg" fill="none" viewBox="0 0 32 32" class="acv-icon"><circle cx="16" cy="6.5" r="4.5" fill="#6D81FF"/><circle cx="25.5" cy="7.5" r="3.5" fill="#485BD5"/><path fill="#485BD5" d="M31 14c0-.5523-.4477-1-1-1h-9c-.5523 0-1 .4477-1 1v6.7647C20 23.1038 22.4624 25 25.5 25s5.5-1.8962 5.5-4.2353V14Z"/><path fill="#6D81FF" d="M23.5 15c0-1.1046-.8954-2-2-2h-11c-1.1046 0-2 .8954-2 2v9c0 3.3137 3.3579 6 7.5 6s7.5-2.6863 7.5-6v-9Z"/><rect width="16" height="16" x="1" y="8" fill="#2D399A" rx="2"/><path stroke="#243143" stroke-opacity=".1" d="M16 2.5c2.2091 0 4 1.7909 4 4 0 1.903-1.3292 3.4971-3.1104 3.9014l-.3896.0879V13.5H30a.5.5 0 0 1 .5.5v6.7646c0 1.9494-2.1093 3.7354-5 3.7354-.6751 0-1.3173-.1002-1.9023-.2812l-.5586-.1739-.084.5801C22.5701 27.2893 19.6837 29.5 16 29.5c-3.9759 0-7-2.5608-7-5.5v-.5H3c-.8284 0-1.5-.6716-1.5-1.5V10c0-.8284.6716-1.5 1.5-1.5h9.4629l-.2354-.667A3.9926 3.9926 0 0 1 12 6.5c0-2.2091 1.7909-4 4-4Zm9.5 2c1.6569 0 3 1.3431 3 3s-1.3431 3-3 3-3-1.3431-3-3 1.3431-3 3-3Z"/><path fill="#fff" d="M5 13.5703V12h7v1.5703H9.4887V20H7.5153v-6.4297H5Z"/></svg>