<svg xmlns="http://www.w3.org/2000/svg" fill="none" viewBox="0 0 16 16" class="acv-icon"><path fill="currentColor" d="M5.5858 6.4142c-.3905-.3905-.3905-1.0237 0-1.4142C5.9763 4.6095 6.6095 4.6095 7 5l1 1.0857L9 5c.3905-.3905 1.0237-.3905 1.4142 0 .3905.3905.3905 1.0237 0 1.4142l-1 1.0857 1 1.0001c.3905.3905.3905 1.0237 0 1.4142-.3905.3905-1.0237.3905-1.4142 0l-1-1-1 1c-.3905.3905-1.0237.3905-1.4142 0-.3905-.3905-.3905-1.0237 0-1.4142l1-1-1-1.0858Z"/><path fill="currentColor" fill-rule="evenodd" d="M8.341 15.9397C12.7803 14.319 15 12.5148 15 10.527V2.7317c0-.4494-.296-.8443-.7253-.9677l-6-1.7253a.9939.9939 0 0 0-.5494 0l-6 1.7253C1.296 1.8874 1 2.2823 1 2.7317v7.7953c0 1.9878 2.2197 3.792 6.659 5.4127a.9943.9943 0 0 0 .682 0ZM3 3.4537 8 2l5 1.4537v7.1146c0 .8252-1.5267 2.1057-5 3.4317-3.4733-1.326-5-2.6065-5-3.4317V3.4537Z" clip-rule="evenodd"/></svg>