<svg xmlns="http://www.w3.org/2000/svg" fill="none" viewBox="0 0 32 32" class="acv-icon"><path fill="currentColor" d="M26 11h-7v2h7v-2ZM19 15h7v2h-7v-2ZM26 19h-7v2h7v-2ZM13 16.5c0 .8284-.6716 1.5-1.5 1.5s-1.5-.6716-1.5-1.5.6716-1.5 1.5-1.5 1.5.6716 1.5 1.5Z"/><path fill="currentColor" fill-rule="evenodd" d="M2 26h6v3l3.5-2.7751L15 29v-3h15V6H2v20ZM4 8v16h4v-3.2572C6.7785 19.734 6 18.2079 6 16.5c0-3.0376 2.4624-5.5 5.5-5.5s5.5 2.4624 5.5 5.5c0 1.7079-.7785 3.234-2 4.2428V24h13V8H4Zm9 13.793c-.4768.1348-.98.207-1.5.207s-1.0232-.0722-1.5-.207v3.0827l1.5-1.1893 1.5 1.1893V21.793ZM11.5 20c1.933 0 3.5-1.567 3.5-3.5S13.433 13 11.5 13 8 14.567 8 16.5 9.567 20 11.5 20Z" clip-rule="evenodd"/></svg>