<svg xmlns="http://www.w3.org/2000/svg" fill="none" viewBox="0 0 16 16" class="acv-icon"><circle cx="8" cy="8" r="8" fill="#408BEA"/><circle cx="8" cy="8" r="7.5" stroke="#243143" stroke-opacity=".1"/><path fill="#fff" d="M5.25 8c0 .6904-.5596 1.25-1.25 1.25S2.75 8.6904 2.75 8 3.3096 6.75 4 6.75 5.25 7.3096 5.25 8ZM9.25 8c0 .6904-.5596 1.25-1.25 1.25S6.75 8.6904 6.75 8 7.3096 6.75 8 6.75 9.25 7.3096 9.25 8ZM12 9.25c.6904 0 1.25-.5596 1.25-1.25S12.6904 6.75 12 6.75s-1.25.5596-1.25 1.25.5596 1.25 1.25 1.25Z"/></svg>