<svg xmlns="http://www.w3.org/2000/svg" fill="none" viewBox="0 0 32 32" class="acv-icon"><path fill="currentColor" d="M9 5H6c-.5523 0-1 .4477-1 1v6c0 1.1046.8954 2 2 2h1.7337l-1.723 11.8562C6.9231 26.4594 7.3908 27 8.0003 27h3.9306v-8c0-2.2091 1.7908-4 4-4h.1382c2.2091 0 4 1.7909 4 4v8h3.9305c.6095 0 1.0773-.5406.9896-1.1438L23.2662 14H25c1.1046 0 2-.8954 2-2V6c0-.5523-.4477-1-1-1h-3c-.5523 0-1 .4477-1 1v3h-3V6c0-.5523-.4477-1-1-1h-4c-.5523 0-1 .4477-1 1v3h-3V6c0-.5523-.4477-1-1-1Z"/><path fill="currentColor" d="M14 19c0-1.1046.8954-2 2-2s2 .8954 2 2v8h-4v-8Z"/></svg>