<svg xmlns="http://www.w3.org/2000/svg" fill="none" viewBox="0 0 24 24" class="acv-icon"><path fill="currentColor" fill-rule="evenodd" d="M2 1c0-.5522.4478-1 1-1H16.793a1.5 1.5 0 0 1 1.0607.4393l3.7071 3.7071A1.5 1.5 0 0 1 22 5.2071V9.793c0 .3978-.158.7793-.4393 1.0607l-2.5 2.5c-.5858.5857-1.5355.5857-2.1213 0L15 11.4142l-1.9393 1.9394c-.5858.5857-1.5355.5857-2.1213 0L9 11.4142l-1.9393 1.9394c-.5858.5857-1.5355.5857-2.1213 0l-2.5-2.5A1.5003 1.5003 0 0 1 2 9.7929V1Zm2 1v7.5858l2 2 1.9394-1.9394c.5858-.5857 1.5355-.5857 2.1213 0L12 11.5859l1.9394-1.9394c.5858-.5857 1.5355-.5857 2.1213 0L18 11.5859l2-2V7h-3.5c-.8284 0-1.5-.6716-1.5-1.5V2H4Zm13 .4142V5h2.5858L17 2.4142ZM7.9393 14.6464c.5858-.5858 1.5356-.5858 2.1214 0L12 16.5858l1.9393-1.9394c.5858-.5858 1.5356-.5858 2.1214 0L18 16.5858l2.0368-2.0369c.7245-.7244 1.9632-.2113 1.9632.8132V24H2v-8.6379c0-1.0245 1.2387-1.5376 1.9632-.8132L6 16.5858l1.9393-1.9394ZM15 16.4142l-1.9393 1.9393c-.5858.5858-1.5356.5858-2.1214 0L9 16.4142l-1.9393 1.9393c-.5858.5858-1.5356.5858-2.1214 0L4 17.4142V22h16v-4.5858l-.9393.9393c-.5858.5858-1.5356.5858-2.1214 0L15 16.4142Z" clip-rule="evenodd"/></svg>