<svg xmlns="http://www.w3.org/2000/svg" fill="none" viewBox="0 0 32 32" class="acv-icon"><path fill="currentColor" fill-rule="evenodd" d="M3 5c0-1.1046.8954-2 2-2h22c1.1046 0 2 .8954 2 2v8c0 1.1046-.8954 2-2 2H5c-1.1046 0-2-.8954-2-2V5Zm3 1c0-.5523.4477-1 1-1s1 .4477 1 1v6c0 .5523-.4477 1-1 1s-1-.4477-1-1V6Zm5-1c-.5523 0-1 .4477-1 1v6c0 .5523.4477 1 1 1s1-.4477 1-1V6c0-.5523-.4477-1-1-1Zm3 1c0-.5523.4477-1 1-1s1 .4477 1 1v6c0 .5523-.4477 1-1 1s-1-.4477-1-1V6Zm12 3c0 1.1046-.8954 2-2 2s-2-.8954-2-2 .8954-2 2-2 2 .8954 2 2ZM3 19c0-1.1046.8954-2 2-2h22c1.1046 0 2 .8954 2 2v8c0 1.1046-.8954 2-2 2H5c-1.1046 0-2-.8954-2-2v-8Zm3 1c0-.5523.4477-1 1-1s1 .4477 1 1v6c0 .5523-.4477 1-1 1s-1-.4477-1-1v-6Zm5-1c-.5523 0-1 .4477-1 1v6c0 .5523.4477 1 1 1s1-.4477 1-1v-6c0-.5523-.4477-1-1-1Zm3 1c0-.5523.4477-1 1-1s1 .4477 1 1v6c0 .5523-.4477 1-1 1s-1-.4477-1-1v-6Zm12 3c0 1.1046-.8954 2-2 2s-2-.8954-2-2 .8954-2 2-2 2 .8954 2 2Z" clip-rule="evenodd"/></svg>