<svg xmlns="http://www.w3.org/2000/svg" fill="none" viewBox="0 0 24 24" class="acv-icon"><path fill="currentColor" fill-rule="evenodd" d="M22.5269 15.0001c.9593.0001 1.4727.6164 1.4727 1.5V22.5c-.0002.8834-.5135 1.4999-1.4727 1.5h-5.1044c-.5186-.0001-.9122-.2144-1.2421-.583l-2.1474-2.8994c-.5289-.591-.5289-1.4451 0-2.0361l2.1474-2.8993c.3299-.3687.7235-.582 1.2421-.5821h5.1044Zm-5.5321 3.5156c-.5536.0002-1.0018.4493-1.0019 1.0029 0 .5537.4483 1.0028 1.0019 1.0029.5538 0 1.0029-.4491 1.0029-1.0029-.0001-.5537-.4492-1.0029-1.0029-1.0029Z" clip-rule="evenodd"/><path fill="currentColor" d="M12.4578 17.2491c-1.0934 1.3139-1.0932 3.187 0 4.5009l.7871 1.0625c-.4068.1231-.8262.1875-1.2451.1875a4.2922 4.2922 0 0 1-2.2265-.6221l-4.083-2.4736c.768-.0182 1.5317-.2419 2.2266-.6669l5.6122-3.4355-1.0713 1.4472ZM8.2098 2.5316c-.329.6308-.5077 1.3438-.5078 2.0888v7.1142c0 1.4949.7958 2.9031 2.0713 3.6757l1.33.8047-3.666 2.2402c-1.1291.6902-2.4917.7174-3.6483.0683-.5531-.3108-1.002-.74-1.3174-1.2519-.3382-.6217-.5302-1.3308-.5302-2.0576V8.7444c0-1.4949.7961-2.9031 2.0761-3.6757l4.1923-2.537ZM20.1559 12.9601c.0213.0127.0416.027.0625.0401h-2.7959c-.5339 0-1.0127.1082-1.4365.2939.2016-.5021.3115-1.0434.3116-1.5957v-1.0468l3.8583 2.3085Z"/><path fill="currentColor" d="M10.4402 1.4799c.7773-.4435 1.6558-.581 2.4971-.4072.2331.0457.4664.1188.6904.2148.2056.0823.4067.179.5986.2978l5.7558 3.4834c1.28.7726 2.076 2.1808 2.0761 3.6757l-.0039 4.2558h-.4228c-.286-.3175-.6236-.5956-1.0049-.8262l-6.5282-3.9052a4.1197 4.1197 0 0 0-4.202-.0137l-1.2794.755V4.6203c.0002-1.3163.6806-2.4868 1.8232-3.1405Z"/></svg>