<svg xmlns="http://www.w3.org/2000/svg" fill="none" viewBox="0 0 24 24" class="acv-icon"><path fill="currentColor" d="M18 3.8107a1 1 0 0 0-.7794-.9765l-8-2.8096a1 1 0 0 0-.4412 0l-8 2.8096A1 1 0 0 0 0 3.8095v10.0476c.1226 2.4454 1.7323 4.4743 4.2494 6.1111C5.969 21.0864 8.1964 22 9 22c.3663 0 1.0284-.1898 1.8031-.5023a7.9423 7.9423 0 0 1-.6419-1.8919C9.5877 19.8508 9.1433 20 9 20c-.3283 0-2.2367-.7828-3.6603-1.7085-2.0342-1.3227-3.259-2.8665-3.341-4.485L2 4.6086 9 2.0253l6.999 2.583-.006 5.6455A8.013 8.013 0 0 1 17.9926 10L18 3.8107Z"/><path fill="currentColor" d="M6.7071 10.2929c-.3905-.3905-1.0237-.3905-1.4142 0-.3905.3905-.3905 1.0237 0 1.4142l2 2c.3905.3905 1.0237.3905 1.4142 0l4-4c.3905-.3905.3905-1.0237 0-1.4142-.3905-.3905-1.0237-.3905-1.4142 0L8 11.5858l-1.2929-1.2929Z"/><path fill="currentColor" fill-rule="evenodd" d="M18 24c3.3137 0 6-2.6863 6-6s-2.6863-6-6-6-6 2.6863-6 6 2.6863 6 6 6Zm1-6.5858V21c0 .5523-.4477 1-1 1s-1-.4477-1-1v-3.5858l-1.2929 1.2929c-.3905.3905-1.0237.3905-1.4142 0-.3905-.3905-.3905-1.0237 0-1.4142l3-3c.3905-.3905 1.0237-.3905 1.4142 0l3 3c.3905.3905.3905 1.0237 0 1.4142-.3905.3905-1.0237.3905-1.4142 0L19 17.4142Z" clip-rule="evenodd"/></svg>