<svg xmlns="http://www.w3.org/2000/svg" fill="none" viewBox="0 0 16 16" class="acv-icon"><path fill="currentColor" fill-rule="evenodd" d="M.5 13.5v-11c0-1.1046.8954-2 2-2h11c1.1046 0 2 .8954 2 2v11c0 1.1046-.8954 2-2 2h-11c-1.1046 0-2-.8954-2-2ZM6.1247 2.7191c.4313.345.5012.9743.1562 1.4056L5.5806 5H9.5c2.2091 0 4 1.7909 4 4 0 2.2091-1.7909 4-4 4h-4c-.5523 0-1-.4477-1-1s.4477-1 1-1h4c1.1046 0 2-.8954 2-2s-.8954-2-2-2H5.5806l.7003.8753c.345.4313.275 1.0606-.1562 1.4056-.4313.345-1.0606.275-1.4056-.1562l-2-2.5a1 1 0 0 1 0-1.2494l2-2.5c.345-.4313.9743-.5012 1.4056-.1562Z" clip-rule="evenodd"/></svg>