<svg xmlns="http://www.w3.org/2000/svg" fill="none" viewBox="0 0 24 24" class="acv-icon"><path fill="currentColor" d="M14 9.5c-.5523 0-1 .4477-1 1s.4477 1 1 1h3c.5523 0 1-.4477 1-1s-.4477-1-1-1h-3Z"/><path fill="currentColor" fill-rule="evenodd" d="M6 6V4.1C6 2.9402 6.9402 2 8.1 2h7.8c1.1598 0 2.1.9402 2.1 2.1V6h1.98C21.0956 6 22 6.9043 22 8.02v7.96c0 1.1156-.9044 2.02-2.02 2.02H18v1.9c0 1.1598-.9402 2.1-2.1 2.1H8.1C6.9402 22 6 21.0598 6 19.9V18H4.02C2.9044 18 2 17.0957 2 15.98V8.02C2 6.9044 2.9044 6 4.02 6H6Zm13.98 10H18v-3H6v3H4.02a.02.02 0 0 1-.02-.02V8.02A.02.02 0 0 1 4.02 8h15.96a.02.02 0 0 1 .02.02v7.96a.02.02 0 0 1-.02.02ZM16 4.1V6H8V4.1a.1.1 0 0 1 .1-.1h7.8a.1.1 0 0 1 .1.1ZM8 15v4.9a.1.1 0 0 0 .1.1h7.8a.1.1 0 0 0 .1-.1V15H8Z" clip-rule="evenodd"/></svg>