<svg xmlns="http://www.w3.org/2000/svg" fill="none" viewBox="0 0 24 24" class="acv-icon"><path fill="currentColor" d="M10.9049 3.473c-.2726-.0132-.4941-.2331-.4941-.506V1.485c0-.2729.222-.495.4946-.4845C17.47 1.2538 22.7462 6.53 22.9996 13.0946c.0106.2726-.2116.4946-.4845.4946H21.033c-.2729 0-.4928-.2215-.5059-.4941-.2498-5.2004-4.4218-9.3724-9.6222-9.6222Z"/><path fill="currentColor" d="M10.9043 8.4248c-.2716-.0256-.4935-.2444-.4935-.5172V6.4254c0-.2728.2218-.4957.4942-.4783 3.8356.2442 6.9037 3.3123 7.1479 7.1479.0174.2723-.2055.4942-.4783.4942h-1.4822c-.2728 0-.4916-.2219-.5172-.4935-.2332-2.4711-2.1998-4.4377-4.6709-4.6709ZM4.4822 6.1784c.8185 0 1.4821.6636 1.4821 1.4821v7.9049c0 1.3643 1.106 2.4703 2.4703 2.4703h.247c1.2279 0 2.2233-.9954 2.2233-2.2233 0-1.2278-.9954-2.2232-2.2233-2.2232h-.247c-.8186 0-1.4822-.6636-1.4822-1.4822 0-.8185.6636-1.4821 1.4822-1.4821h.247c2.865 0 5.1876 2.3225 5.1876 5.1875S11.5466 21 8.6816 21h-.247C5.4332 21 3 18.5669 3 15.5654V7.6605c0-.8185.6636-1.4821 1.4822-1.4821Z"/></svg>