<svg xmlns="http://www.w3.org/2000/svg" fill="none" viewBox="0 0 16 16" class="acv-icon"><path fill="currentColor" d="M14.847 8.352a6.019 6.019 0 0 0-1.041-4.945l.943-.944a.857.857 0 1 0-1.212-1.212l-.944.944A5.974 5.974 0 0 0 9 1a5.973 5.973 0 0 0-3.593 1.195l-.944-.944a.857.857 0 0 0-1.212 1.212l.944.944A5.973 5.973 0 0 0 3 7c0 1.348.444 2.592 1.195 3.593l-.944.944a.857.857 0 1 0 1.212 1.212l.944-.944c.748.561 1.632.951 2.594 1.112.01-.592.122-1.16.32-1.685a4.26 4.26 0 0 1-1.684-.656l.398-.399a.857.857 0 1 0-1.213-1.212l-.398.398A4.266 4.266 0 0 1 4.714 7c0-.873.262-1.686.71-2.363l.398.398a.857.857 0 1 0 1.213-1.213l-.398-.398A4.266 4.266 0 0 1 9 2.714c.873 0 1.686.262 2.364.71l-.399.398a.857.857 0 0 0 1.213 1.213l.398-.398a4.298 4.298 0 0 1 .592 3.366 4.98 4.98 0 0 1 1.679.35Z"/><path fill="currentColor" d="M9.857 7a.857.857 0 1 1-1.714 0 .857.857 0 0 1 1.714 0Z"/><path fill="currentColor" fill-rule="evenodd" d="M13 16a3 3 0 1 0 0-6 3 3 0 0 0 0 6Zm-1.354-3.854 1-1a.5.5 0 0 1 .708 0l1 1a.5.5 0 0 1-.708.708l-.146-.147V14.5a.5.5 0 0 1-1 0v-1.793l-.146.147a.5.5 0 0 1-.708-.708Z" clip-rule="evenodd"/><path fill="currentColor" d="M1.643 3.5a.5.5 0 1 0 0 1H2.5a.5.5 0 0 0 0-1h-.857ZM1 5.5a.5.5 0 0 0 0 1h.857a.5.5 0 0 0 0-1H1ZM1.643 7.5a.5.5 0 1 0 0 1H2.5a.5.5 0 0 0 0-1h-.857ZM1 9.5a.5.5 0 0 0 0 1h.857a.5.5 0 0 0 0-1H1Z"/></svg>