<svg xmlns="http://www.w3.org/2000/svg" fill="none" viewBox="0 0 24 24" class="acv-icon"><path fill="currentColor" fill-rule="evenodd" d="M9.9866 5.335c.7743-.8084 1.852-1.309 3.0426-1.309 1.5874 0 2.9632.8845 3.704 2.2023a5.1023 5.1023 0 0 1 2.0901-.4467C21.6806 5.7816 24 8.1254 24 11.0174c0 2.8921-2.3194 5.2358-5.1767 5.2358a5.2118 5.2118 0 0 1-1.023-.1017c-.6482 1.1586-1.8873 1.9457-3.2984 1.9457a3.756 3.756 0 0 1-1.6579-.382C12.187 19.2629 10.6569 20.5 8.8754 20.5c-1.8608 0-3.4394-1.3255-4.0479-2.9794a3.9726 3.9726 0 0 1-.8237.086C1.7903 17.6066 0 15.7846 0 13.5471a4.082 4.082 0 0 1 2.002-3.5201 4.6632 4.6632 0 0 1-.3837-1.8572c0-2.5826 2.09-4.6698 4.6652-4.6698 1.508 0 2.8574.7208 3.704 1.8396" clip-rule="evenodd"/></svg>