<svg xmlns="http://www.w3.org/2000/svg" fill="none" viewBox="0 0 16 16" class="acv-icon"><path fill="currentColor" d="M6 5c0-.5523.4477-1 1-1h4c.5523 0 1 .4477 1 1s-.4477 1-1 1H7c-.5523 0-1-.4477-1-1ZM6 8c0-.5523.4477-1 1-1h2c.5523 0 1 .4477 1 1s-.4477 1-1 1H7c-.5523 0-1-.4477-1-1Z"/><path fill="currentColor" fill-rule="evenodd" d="M9.1593 12.9984c.9797-.0204 1.9098-.2276 2.7505-.5849l2.4231 1.1015c.8067.3666 1.6564-.4194 1.3536-1.2522l-.8105-2.2288C15.587 9.0167 16 7.8031 16 6.5 16 2.9101 12.866 0 9 0S2 2.9101 2 6.5c0 .1314.0042.2618.0125.3913C.7909 7.7117 0 9.0227 0 10.5c0 .7523.2051 1.4615.5678 2.0848L.038 14.5274c-.219.8028.5812 1.5063 1.3494 1.1862l2.1693-.9039C4.0137 14.9335 4.4982 15 5 15c1.7344 0 3.2625-.7947 4.1593-2.0016ZM14 6.5c0 2.4853-2.2386 4.5-5 4.5S4 8.9853 4 6.5 6.2386 2 9 2s5 2.0147 5 4.5ZM2.558 9.0474c.7572 1.6489 2.2271 2.9479 4.0504 3.5633C6.1435 12.8572 5.5918 13 5 13c-.549 0-1.0635-.1229-1.5061-.3374l-.6926-.4617C2.3041 11.7547 2 11.157 2 10.5c0-.5417.2067-1.0431.558-1.4526Z" clip-rule="evenodd"/></svg>