<svg xmlns="http://www.w3.org/2000/svg" fill="none" viewBox="0 0 32 32" class="acv-icon"><path fill="currentColor" d="M17 3c0-.5523-.4477-1-1-1s-1 .4477-1 1v7.5h-2.8696c-.4341 0-.662.5152-.37.8363l3.8697 4.2567a.5.5 0 0 0 .74 0l3.8697-4.2567c.292-.3211.0641-.8363-.37-.8363H17V3ZM13 23c-.5523 0-1 .4477-1 1s.4477 1 1 1h6c.5523 0 1-.4477 1-1s-.4477-1-1-1h-6Z"/><path fill="currentColor" fill-rule="evenodd" d="M7.8378 6.0423A2 2 0 0 1 9.5936 5H11c.5523 0 1 .4477 1 1s-.4477 1-1 1H9.5936l-4.909 9h4.7802a2 2 0 0 1 1.6641.8906L12.5352 19h6.9296l1.4063-2.1094A2 2 0 0 1 22.5352 16h4.7803l-4.9091-9H21c-.5523 0-1-.4477-1-1s.4477-1 1-1h1.4064a2 2 0 0 1 1.7558 1.0423l5.3494 9.8073A3.9995 3.9995 0 0 1 30 17.765V27c0 1.1046-.8954 2-2 2H4c-1.1046 0-2-.8954-2-2v-9.235c0-.6693.168-1.3279.4884-1.9154l5.3494-9.8073ZM4 27v-9h5.4648l1.4063 2.1094A2 2 0 0 0 12.5352 21h6.9296a2 2 0 0 0 1.6641-.8906L22.5352 18H28v9H4Z" clip-rule="evenodd"/></svg>