<svg xmlns="http://www.w3.org/2000/svg" fill="none" viewBox="0 0 16 16" class="acv-icon"><path fill="currentColor" d="M6.024 1c-.3853 0-.6258.4172-.4328.7505l4.0526 7A.5.5 0 0 0 10.0765 9h4.5182c.3812 0 .6222-.4096.4371-.7428l-3.8889-7A.5.5 0 0 0 10.7058 1H6.0239ZM4.074 2.667c.1891-.3406.6778-.3435.8711-.0053l2.3412 4.0971a.5.5 0 0 1 .003.491L3.4119 14.229c-.1869.3364-.6678.3444-.8658.0145L.1486 10.2476a.5.5 0 0 1-.0084-.5L4.074 2.667ZM4.5402 14.2572c-.1851.3332.0558.7428.437.7428h7.7397a.4997.4997 0 0 0 .4287-.2428l2.4-4c.2-.3332-.0401-.7572-.4287-.7572H7.1995a.4999.4999 0 0 0-.437.2572l-2.2223 4Z"/></svg>