<svg xmlns="http://www.w3.org/2000/svg" fill="none" viewBox="0 0 32 32" class="acv-icon"><path fill="currentColor" fill-rule="evenodd" d="M0 25.7606V6.2394c0-1.0329.748-1.9112 1.7611-2.0683l13.8462-2.1463C16.8654 1.8298 18 2.8106 18 4.093v23.8138c0 1.2826-1.1346 2.2633-2.3927 2.0683L1.7611 27.8289C.748 27.6719 0 26.7935 0 25.7606Zm4.5-12.5731h3.1146V21h2.7708v-7.8125H13.5V11h-9v2.1875Z" clip-rule="evenodd"/><path fill="currentColor" d="M20.5 5c-.1698 0-.3367.012-.5.0354v6.9292a3.538 3.538 0 0 0 .5.0354c1.933 0 3.5-1.567 3.5-3.5S22.433 5 20.5 5ZM20 26.9725V13h3.5c.8284 0 1.5.6716 1.5 1.5v8c0 2.4853-2.0147 4.5-4.5 4.5a4.537 4.537 0 0 1-.5-.0275ZM30.5 9.5c0 1.3807-1.1193 2.5-2.5 2.5s-2.5-1.1193-2.5-2.5S26.6193 7 28 7s2.5 1.1193 2.5 2.5ZM28 25a3.9868 3.9868 0 0 1-1.5639-.3173A4.479 4.479 0 0 0 27 22.5v-8c0-.8284-.6716-1.5-1.5-1.5h5c.8284 0 1.5.6716 1.5 1.5V21c0 2.2091-1.7909 4-4 4Z"/></svg>