<svg xmlns="http://www.w3.org/2000/svg" fill="none" viewBox="0 0 16 16" class="acv-icon"><path fill="currentColor" d="M1.6189 1.0752a.9972.9972 0 0 0-.326.2177A.9972.9972 0 0 0 1 2v3c0 .5523.4477 1 1 1s1-.4477 1-1v-.5858l2.2924 2.2924A2.9882 2.9882 0 0 0 5 8c0 .4632.105.9018.2924 1.2934L3 11.5858V11c0-.5523-.4477-1-1-1s-1 .4477-1 1v3a.997.997 0 0 0 .3066.7205A.9966.9966 0 0 0 2 15h3c.5523 0 1-.4477 1-1s-.4477-1-1-1h-.5858l2.2924-2.2924A2.987 2.987 0 0 0 8 11c.4632 0 .9018-.105 1.2934-.2924L11.5858 13H11c-.5523 0-1 .4477-1 1s.4477 1 1 1h3a.9976.9976 0 0 0 .7205-.3065A.9966.9966 0 0 0 15 14v-3c0-.5523-.4477-1-1-1s-1 .4477-1 1v.5858l-2.2924-2.2924A2.9885 2.9885 0 0 0 11 8c0-.4631-.105-.9018-.2924-1.2934L13 4.4142V5c0 .5523.4477 1 1 1s1-.4477 1-1V2.0017l-.0001-.0172a.998.998 0 0 0-.2928-.6916A.9977.9977 0 0 0 14 1h-3c-.5523 0-1 .4477-1 1s.4477 1 1 1h.5858L9.2934 5.2924A2.9882 2.9882 0 0 0 8 5c-.4631 0-.9018.105-1.2934.2924L4.4142 3H5c.5523 0 1-.4477 1-1s-.4477-1-1-1H2.0018l-.016.0001a1.0013 1.0013 0 0 0-.367.0751Z"/></svg>