<svg xmlns="http://www.w3.org/2000/svg" fill="none" viewBox="0 0 32 32" class="acv-icon"><path fill="currentColor" d="M9.75 15a.25.25 0 0 0-.25.25v1a.25.25 0 0 0 .25.25h12.5a.25.25 0 0 0 .25-.25v-1a.25.25 0 0 0-.25-.25H9.75ZM10.5 12.25a.25.25 0 0 1 .25-.25h10.5a.25.25 0 0 1 .25.25v1a.25.25 0 0 1-.25.25h-10.5a.25.25 0 0 1-.25-.25v-1ZM11.75 9a.25.25 0 0 0-.25.25v1a.25.25 0 0 0 .25.25h8.5a.25.25 0 0 0 .25-.25v-1a.25.25 0 0 0-.25-.25h-8.5Z"/><path fill="currentColor" fill-rule="evenodd" d="M10.2157 5h11.5686a3 3 0 0 1 2.8673 2.1177l3.1726 10.3109c.1173.3811.1758.7741.1758 1.1729V24c0 1.6569-1.3431 3-3 3H7c-1.6569 0-3-1.3431-3-3v-5.3985c0-.3988.0585-.7918.1758-1.1729L7.3484 7.1177A3 3 0 0 1 10.2157 5Zm.0561 2.5a1 1 0 0 0-.9674.7466l-2.2261 8.5c-.166.6339.3121 1.2534.9673 1.2534h2.6454a.5.5 0 0 1 .4472.2764l.7236 1.4472A.5.5 0 0 0 12.309 20h7.382a.5.5 0 0 0 .4472-.2764l.7236-1.4472A.5.5 0 0 1 21.309 18h2.6454c.6552 0 1.1333-.6195.9673-1.2534l-2.2262-8.5a1 1 0 0 0-.9673-.7466H10.2718Z" clip-rule="evenodd"/></svg>