<svg xmlns="http://www.w3.org/2000/svg" fill="none" viewBox="0 0 16 16" class="acv-icon"><path fill="currentColor" d="M4 4c-.5523 0-1 .4477-1 1v3c0 .5523.4477 1 1 1s1-.4477 1-1V5c0-.5523-.4477-1-1-1ZM6 5c0-.5523.4477-1 1-1s1 .4477 1 1v3c0 .5523-.4477 1-1 1s-1-.4477-1-1V5ZM12 6c.5523 0 1-.4477 1-1s-.4477-1-1-1-1 .4477-1 1 .4477 1 1 1Z"/><path fill="currentColor" fill-rule="evenodd" d="M0 2c0-.5523.4477-1 1-1h14c.5523 0 1 .4477 1 1v9c0 .5523-.4477 1-1 1H9v1h2c.5523 0 1 .4477 1 1s-.4477 1-1 1H5c-.5523 0-1-.4477-1-1s.4477-1 1-1h2v-1H1c-.5523 0-1-.4477-1-1V2Zm2 1h12v7H2V3Z" clip-rule="evenodd"/></svg>