<svg xmlns="http://www.w3.org/2000/svg" fill="none" viewBox="0 0 32 32" class="acv-icon"><path fill="currentColor" d="M16 3c.5523 0 1 .4477 1 1v7c0 .5523.4477 1 1 1h7c.5523 0 1 .4477 1 1v15c0 .5523-.4477 1-1 1H7c-.5523 0-1-.4477-1-1V4c0-.5523.4477-1 1-1h2v2h2v2H9v2h2v2H9v2h2v2H9v2h2v2H9v2h2v2h2v-2h-2v-2h2v-2h-2v-2h2v-2h-2v-2h2V9h-2V7h2V5h-2V3h5Z"/><path fill="currentColor" d="M20 10c-.5523 0-1-.4477-1-1V4.2071c0-.4454.5386-.6685.8536-.3535l5.2928 5.2928c.315.315.0919.8536-.3535.8536H20Z"/></svg>