<svg xmlns="http://www.w3.org/2000/svg" fill="none" viewBox="0 0 72 72" class="acv-icon"><path fill="#595551" fill-rule="evenodd" d="M0 8.25C0 7.0074 1.0074 6 2.25 6h67.5C70.9926 6 72 7.0074 72 8.25v47.5c0 1.2426-1.0074 2.25-2.25 2.25H45v4h6c.5523 0 1 .4477 1 1v2c0 .5523-.4477 1-1 1H21c-.5523 0-1-.4477-1-1v-2c0-.5523.4477-1 1-1h6v-4H2.25C1.0074 58 0 56.9926 0 55.75V8.25ZM30 58h12v1c0 .5523-.4477 1-1 1H31c-.5523 0-1-.4477-1-1v-1Z" clip-rule="evenodd"/><path fill="#fff" d="M2.25 6C1.0074 6 0 7.0074 0 8.25v1C0 8.0074 1.0074 7 2.25 7h67.5C70.9926 7 72 8.0074 72 9.25v-1C72 7.0074 70.9926 6 69.75 6H2.25Z" opacity=".2"/><path fill="#000" fill-opacity=".2" d="M0 54.75v1C0 56.9926 1.0074 58 2.25 58h67.5c1.2426 0 2.25-1.0074 2.25-2.25v-1c0 1.2426-1.0074 2.25-2.25 2.25H2.25C1.0074 57 0 55.9926 0 54.75Z"/><path fill="#000" fill-opacity=".2" d="M0 53.75v2C0 56.9926 1.0074 58 2.25 58h67.5c1.2426 0 2.25-1.0074 2.25-2.25v-2c0 1.2426-1.0074 2.25-2.25 2.25H2.25C1.0074 56 0 54.9926 0 53.75ZM20 64v1c0 .5523.4477 1 1 1h30c.5523 0 1-.4477 1-1v-1c0 .5523-.4477 1-1 1H21c-.5523 0-1-.4477-1-1Z"/><path fill="#000" fill-opacity=".2" d="M20 63v2c0 .5523.4477 1 1 1h30c.5523 0 1-.4477 1-1v-2c0 .5523-.4477 1-1 1H21c-.5523 0-1-.4477-1-1Z"/><path fill="#fff" fill-opacity=".2" d="M21 62c-.5523 0-1 .4477-1 1v1c0-.5523.4477-1 1-1h30c.5523 0 1 .4477 1 1v-1c0-.5523-.4477-1-1-1H21Z"/><path fill="#000" fill-opacity=".2" d="M27 61h18v1H27v-1Z"/><path fill="url(#WorkstationIll72:a)" fill-opacity=".2" d="M3 51h66v2H3v-2Z"/><path fill="#fff" fill-opacity=".1" d="M3 51h66v1H3v-1Z"/><path fill="#85C457" d="M65 54.5a.5.5 0 0 1 .5-.5h3a.5.5 0 0 1 0 1h-3a.5.5 0 0 1-.5-.5Z"/><path fill="#000" fill-opacity=".3" d="M3.5 54a.5.5 0 0 0 0 1h3a.5.5 0 0 0 0-1h-3ZM47 54.5a.5.5 0 0 1 .5-.5h3a.5.5 0 0 1 0 1h-3a.5.5 0 0 1-.5-.5ZM53.5 54a.5.5 0 0 0 0 1h3a.5.5 0 0 0 0-1h-3ZM59.5 54a.5.5 0 0 0 0 1h3a.5.5 0 0 0 0-1h-3Z"/><path fill="url(#WorkstationIll72:b)" d="M3 9h66v42H3V9Z"/><path fill="url(#WorkstationIll72:c)" d="M20 9h49v42H44L20 9Z" opacity=".6"/><path fill="url(#WorkstationIll72:d)" fill-opacity=".3" d="M37 9h32v23H51.1224L37 9Z"/><path fill="url(#WorkstationIll72:e)" d="M3 9h66v1H3V9Z" opacity=".7"/><defs><linearGradient id="WorkstationIll72:a" x1="36" x2="36" y1="51" y2="53" gradientUnits="userSpaceOnUse"><stop stop-color="#fff"/><stop offset="1" stop-color="#fff" stop-opacity="0"/></linearGradient><linearGradient id="WorkstationIll72:b" x1="4" x2="69" y1="51" y2="9" gradientUnits="userSpaceOnUse"><stop stop-color="#43AEF4"/><stop offset="1" stop-color="#63C2F9"/></linearGradient><linearGradient id="WorkstationIll72:c" x1="32" x2="32" y1="9" y2="51" gradientUnits="userSpaceOnUse"><stop stop-color="#7FD5FA"/><stop offset="1" stop-color="#50B6F6"/></linearGradient><linearGradient id="WorkstationIll72:d" x1="44.5" x2="44.5" y1="9" y2="32" gradientUnits="userSpaceOnUse"><stop stop-color="#fff"/><stop offset="1" stop-color="#fff" stop-opacity="0"/></linearGradient><linearGradient id="WorkstationIll72:e" x1="3" x2="69" y1="10" y2="10" gradientUnits="userSpaceOnUse"><stop stop-color="#359DF3"/><stop offset="1" stop-color="#379FF3"/></linearGradient></defs></svg>