<svg xmlns="http://www.w3.org/2000/svg" fill="none" viewBox="0 0 24 24" class="acv-icon"><path fill="currentColor" d="M14.5 15.7793c.4971 0 .9004.4046.9004.9033v1.8057c0 .4987-.4034.9033-.9004.9033s-.9004-.4046-.9004-.9033v-1.8057c0-.4987.4033-.9033.9004-.9033Z"/><path fill="currentColor" fill-rule="evenodd" d="M14.1475 12.2383a1.7913 1.7913 0 0 1 .705 0l3.4239.6865c.4206.0844.7236.4553.7236.8857v4.6778c0 2.7175-3.6 4.5146-4.5 4.5146-.4881 0-1.7703-.5209-2.8418-1.4355l-.0596.543a1.0002 1.0002 0 0 1-.9941.8896h-1.209a1.0003 1.0003 0 0 1-.9941-.8896l-.3819-3.4356a.5016.5016 0 0 0-.1435-.2988l-.583-.583A1.0003 1.0003 0 0 1 7 17.0859V14.5c0-.8284.6716-1.5 1.5-1.5h2.0107c.0669-.0323.1374-.06.2129-.0752l3.4239-.6865Zm-2.3477 2.3125v3.9375c0 .5817.4216 1.2436 1.2139 1.8584.3597.2791.7647.5203 1.1406.6894.1289.058.2464.1036.3428.1348.0957-.0317.2124-.0782.3408-.1367.3763-.1717.7828-.416 1.1445-.6983.7941-.6197 1.2178-1.2823 1.2178-1.8476v-3.9375l-2.7002-.542-2.7002.542Z" clip-rule="evenodd"/><path fill="currentColor" d="M12 3c3.6792 0 6.7949 2.4093 7.8584 5.7363l.3408.171C21.8682 9.8195 23 11.5897 23 13.625c0 1.4373-.5656 2.7446-1.4844 3.708-.3811.3997-1.0144.4144-1.414.0332-.3993-.3811-.4142-1.0135-.0332-1.4131.5782-.6063.9316-1.4249.9316-2.3281 0-1.3595-.8044-2.5354-1.9727-3.0703l-.4023-.1826a1.0019 1.0019 0 0 1-.5381-.6075l-.1338-.4208C17.1461 6.8224 14.7833 5 12 5 9.4275 5 7.2145 6.5552 6.2559 8.7842l-.1563.3603a.9995.9995 0 0 1-.5107.5176l-.3575.1592-.001.001C3.9127 10.4079 3 11.7242 3 13.25c0 1.5555.9404 2.9978 2.5898 3.585.5204.1851.7926.757.6075 1.2773-.1852.5202-.7572.7915-1.2774.6065C2.4666 17.8456 1 15.6445 1 13.25c0-2.3449 1.4043-4.361 3.418-5.2559C5.6812 5.0571 8.6006 3 12 3Z"/><path fill="currentColor" d="M10 8c1.1046 0 2 .8954 2 2s-.8954 2-2 2-2-.8954-2-2 .8954-2 2-2Z"/></svg>