<svg xmlns="http://www.w3.org/2000/svg" fill="none" viewBox="0 0 32 32" class="acv-icon"><path fill="currentColor" fill-rule="evenodd" d="m4 19.8475.0016-12.8419a2.5 2.5 0 0 1 1.6345-2.345l9.5-3.506a2.4999 2.4999 0 0 1 1.7311 0l9.498 3.5054a2.4998 2.4998 0 0 1 1.6344 2.3481l-.0138 12.9095-.0024.0478c-.1577 3.2216-2.588 5.9133-5.6644 7.9152-1.127.7334-2.4141 1.3913-3.4732 1.8652-.5322.2382-1.0307.4406-1.4458.5881-.2059.0731-.412.1402-.6034.1916-.1352.0363-.4507.1191-.795.1191-.3443 0-.6598-.0828-.7949-.1191-.1914-.0514-.3975-.1185-.6034-.1916-.4151-.1475-.9138-.3499-1.4461-.588-1.0594-.474-2.347-1.1319-3.4748-1.8652-3.0897-2.0091-5.5136-4.7015-5.6798-7.9825L4 19.8475Zm2-.0504.0016-12.7912a.5.5 0 0 1 .327-.469l9.4999-3.506a.4999.4999 0 0 1 .3462 0l9.498 3.5054a.4998.4998 0 0 1 .3269.4697l-.0138 12.8616c-.1098 2.2436-1.8547 4.4476-4.7576 6.3366-2.0319 1.3222-4.7575 2.4404-5.2266 2.4404-.4689 0-3.1952-1.1182-5.2289-2.4406C7.8667 24.3144 6.1171 22.1091 6 19.7971Z" clip-rule="evenodd"/><path fill="currentColor" d="M17.3333 9.6002v5.6336h1.998a.7327.7327 0 0 1 .2868.058c.3335.1422.4755.5002.3171.7996l-3.9961 6.2802c-.1107.2093-.3458.3427-.6039.3427-.3692 0-.6685-.2687-.6685-.6002v-5.6336h-1.998a.7327.7327 0 0 1-.2868-.058c-.3335-.1422-.4755-.5002-.3171-.7996l3.9961-6.2802c.1107-.2093.3458-.3427.6039-.3427.3692 0 .6685.2687.6685.6002Z"/></svg>