<svg xmlns="http://www.w3.org/2000/svg" fill="none" viewBox="0 0 32 32" class="acv-icon"><path fill="currentColor" fill-rule="evenodd" d="M26.999 7.9903c.0006-.6264-.2919-1.2109-.8357-1.5218C24.6564 5.6067 21.1554 4 16 4 11.5992 4 7.7442 5.6092 5.9962 6.4705 5.3665 6.7807 5 7.4275 5 8.1294v10.7277C5 24 14 28 16 28c.4349 0 1.201-.1892 2.1333-.5377A8.0513 8.0513 0 0 1 18 26c0-4.4183 3.5817-8 8-8 .3348 0 .6648.0206.9888.0605l.0102-10.0702ZM17.7292 15l.5939-4.448a.5002.5002 0 0 0-.4438-.5511.5013.5013 0 0 0-.4532.1947l-5.3242 6.0021a.4995.4995 0 0 0 .0962.7006.5015.5015 0 0 0 .3028.1017h1.7699l-.5939 4.448a.5002.5002 0 0 0 .4438.5511.5014.5014 0 0 0 .4532-.1947l5.3242-6.0021a.4995.4995 0 0 0-.0962-.7006.5015.5015 0 0 0-.3028-.1017h-1.7699Z" clip-rule="evenodd"/></svg>