<svg xmlns="http://www.w3.org/2000/svg" fill="none" viewBox="0 0 72 72" class="acv-icon"><path fill="currentColor" fill-rule="evenodd" d="M8 45.5v-29C8 11.8056 11.8056 8 16.5 8h39c4.6944 0 8.5 3.8056 8.5 8.5v29c0 4.6944-3.8056 8.5-8.5 8.5H36l-10.3155 9.4313C24.2727 64.7221 22 63.7205 22 61.8077V54h-5.5C11.8056 54 8 50.1944 8 45.5ZM46.5 13c.8447 0 1.5593.6246 1.6723 1.4617.1481 1.0339.3811 2.0602.6675 3.0638.5064 1.7749 1.2444 3.5277 2.1757 4.459.9313.9313 2.6841 1.6693 4.459 2.1757 1.0036.2864 2.0299.5194 3.0638.6675.8371.113 1.4617.8276 1.4617 1.6723 0 .8447-.6251 1.5594-1.4622 1.6724-1.0352.1446-2.0587.3807-3.0633.6674-1.7749.5064-3.5277 1.2444-4.459 2.1757-.9313.9313-1.6693 2.6841-2.1757 4.459-.2864 1.0036-.5194 2.0299-.6675 3.0638C48.0593 39.3754 47.3447 40 46.5 40c-.8447 0-1.5594-.6251-1.6724-1.4622-.1448-1.0352-.3807-2.0586-.6674-3.0633-.5064-1.7749-1.2444-3.5277-2.1757-4.459-.9313-.9313-2.6841-1.6693-4.459-2.1757-1.0036-.2864-2.0299-.5194-3.0638-.6675C33.6246 28.0593 33 27.3447 33 26.5c0-.8447.6251-1.5594 1.4622-1.6724 1.0338-.1482 2.0598-.381 3.0633-.6674 1.7749-.5064 3.5277-1.2444 4.459-2.1757.9313-.9313 1.6693-2.6841 2.1757-4.459.2864-1.0036.5194-2.0299.6675-3.0638C44.9407 13.6246 45.6553 13 46.5 13ZM27 31a1.125 1.125 0 0 1 1.1149.9744c.0987.6893.254 1.3735.4449 2.0426.3377 1.1833.8297 2.3518 1.4505 2.9727.6209.6208 1.7895 1.1128 2.9727 1.4505.6691.1909 1.3533.3462 2.0426.4449a1.125 1.125 0 0 1-.0004 2.2298c-.6902.0965-1.3724.2538-2.0422.4449-1.1832.3377-2.3518.8297-2.9727 1.4505-.6208.6209-1.1128 1.7895-1.4505 2.9727-.1909.6691-.3462 1.3533-.4449 2.0426a1.125 1.125 0 0 1-2.2298-.0004c-.0966-.6902-.2538-1.3724-.4449-2.0422-.3377-1.1832-.8297-2.3518-1.4505-2.9727-.6209-.6208-1.7894-1.1128-2.9727-1.4505-.6691-.1909-1.3533-.3462-2.0426-.4449a1.125 1.125 0 0 1 .0004-2.2298c.6892-.0988 1.3732-.254 2.0422-.4449 1.1833-.3377 2.3518-.8297 2.9727-1.4505.6208-.6209 1.1128-1.7894 1.4505-2.9727.1909-.6691.3462-1.3533.4449-2.0426A1.125 1.125 0 0 1 27 31Zm-7.5-13a.6875.6875 0 0 1 .6813.5955c.0604.4212.1553.8393.2719 1.2482.2064.7231.507 1.4372.8865 1.8166.3794.3795 1.0935.6801 1.8166.8865.4089.1166.827.2116 1.2482.2719a.6875.6875 0 0 1-.0002 1.3626c-.4218.059-.8387.1551-1.248.2719-.7231.2064-1.4372.507-1.8166.8865-.3795.3794-.6801 1.0935-.8865 1.8166-.1166.4089-.2115.827-.2719 1.2482a.6875.6875 0 0 1-1.3626-.0002c-.059-.4218-.1551-.8387-.2719-1.248-.2064-.7231-.507-1.4372-.8865-1.8166-.3794-.3795-1.0935-.6801-1.8166-.8865-.4089-.1166-.827-.2115-1.2482-.2719a.6875.6875 0 0 1 .0002-1.3626c.4212-.0604.8392-.1553 1.248-.2719.7231-.2064 1.4372-.507 1.8166-.8865.3795-.3794.6801-1.0935.8865-1.8166.1166-.4089.2116-.827.2719-1.2482A.6875.6875 0 0 1 19.5 18Z" clip-rule="evenodd"/></svg>