<svg xmlns="http://www.w3.org/2000/svg" fill="none" viewBox="0 0 16 16" class="acv-icon"><path fill="currentColor" d="M9.7929 5.7929 7.5 8.0858l-1.2929-1.293c-.3905-.3904-1.0237-.3904-1.4142 0-.3905.3906-.3905 1.0238 0 1.4143l2 2c.3905.3905 1.0237.3905 1.4142 0l3-3c.3905-.3905.3905-1.0237 0-1.4142-.3905-.3905-1.0237-.3905-1.4142 0Z"/><path fill="currentColor" fill-rule="evenodd" d="M15 10.527c0 1.9878-2.2197 3.792-6.659 5.4127a.9943.9943 0 0 1-.682 0C3.2196 14.319 1 12.5148 1 10.527V2.7317c0-.4494.296-.8443.7253-.9677l6-1.7253a.9939.9939 0 0 1 .5494 0l6 1.7253c.4293.1234.7253.5183.7253.9677v7.7953ZM8 2 3 3.4537v7.1146C3 11.3935 4.5267 12.674 8 14c3.4733-1.326 5-2.6065 5-3.4317V3.4537L8 2Z" clip-rule="evenodd"/></svg>