<svg xmlns="http://www.w3.org/2000/svg" fill="none" viewBox="0 0 24 24" class="acv-icon"><path fill="currentColor" fill-rule="evenodd" d="M20.2877 4.166c-1.6872-.2024-6.3618-.991-7.7241-2.1844l-.574-.4816-.5463.4816C10.0811 3.168 5.4064 3.9566 3.6915 4.166A.786.786 0 0 0 3 4.9463V15.193c.0456 1.8991 1.1032 3.6255 2.766 4.5155L11.9896 22.5l6.1683-2.7567.0761-.0419c1.6628-.89 2.7204-2.6164 2.766-4.5155V4.9669a.8064.8064 0 0 0-.7123-.8009ZM14 10c0 .7403-.4022 1.3866-1 1.7324V15c0 .5523-.4477 1-1 1s-1-.4477-1-1v-3.2676c-.5978-.3458-1-.9921-1-1.7324 0-1.1046.8954-2 2-2s2 .8954 2 2Z" clip-rule="evenodd"/></svg>