<svg xmlns="http://www.w3.org/2000/svg" fill="none" viewBox="0 0 32 32" class="acv-icon"><path fill="currentColor" d="M27.7493 17.3c.7469 0 1.2232-.7877.8691-1.4372l-6.7326-12.35C21.7136 3.1969 21.3798 3 21.0166 3h-8.1083c-.747 0-1.2233.7877-.8692 1.4372l6.7327 12.35c.1722.3159.506.5128.8691.5128h8.1084ZM10.008 6.1955c-.3859-.7078-1.4244-.6762-1.7654.0536L2.0909 19.4142a.9646.9646 0 0 0 .0659.9358l4.1814 6.4246c.418.6422 1.3871.5823 1.7208-.1063l5.9523-12.2851a.9646.9646 0 0 0-.0212-.8832L10.008 6.1955ZM11.4142 29c-.7264 0-1.204-.7487-.8904-1.3959l3.4643-7.15c.164-.3386.5103-.5541.8904-.5541h14.1328c.7809 0 1.2526.8534.8303 1.5022l-4.6535 7.15c-.1817.2791-.4945.4478-.8304.4478H11.4142Z"/></svg>