<svg xmlns="http://www.w3.org/2000/svg" fill="none" viewBox="0 0 32 32" class="acv-icon"><path fill="currentColor" d="M27.9996 7.4699c0 3.0209-5.3725 5.4698-11.9998 5.4698-6.6274 0-11.9999-2.4489-11.9999-5.4698 0-3.021 5.3725-5.47 11.9999-5.47 6.6273 0 11.9998 2.449 11.9998 5.47Z"/><path fill="currentColor" d="M27.9997 8.9999v4.1598a2.8411 2.8411 0 0 1-.36 1.3401 9.9108 9.9108 0 0 0-3.79-1.3601c2.54-1.01 4.15-2.4799 4.15-4.1398ZM13.5498 18.5097a11.0902 11.0902 0 0 1 3.9299-4.11h-1.4799c-6.63 0-11.9999-2.45-11.9999-5.48V13.11c0 2.69 4.1 4.8898 9.5499 5.3998Z"/><path fill="currentColor" d="M11.9998 23.9996a12.5496 12.5496 0 0 1 .84-4.06c-5.1-.63-8.8599-2.75-8.8599-5.2799v4.1801c.02 2.39 3.37 4.4098 8.0199 5.1598Z"/><path fill="currentColor" d="M4 24.5297v-4.1899c0 2.3899 3.3599 4.4198 8.0498 5.1698a12.0797 12.0797 0 0 0 1.16 4.34c-5.28-.5799-9.2099-2.74-9.2099-5.3199ZM22.4997 18.9997c1.3806 0 2.4999-1.1193 2.4999-2.5 0-1.3806-1.1193-2.4999-2.4999-2.4999-1.3807 0-2.5 1.1193-2.5 2.4999 0 1.3807 1.1193 2.5 2.5 2.5ZM17.9997 27.4996c0 1.3807-1.1192 2.4999-2.4999 2.4999-1.3807 0-2.5-1.1192-2.5-2.4999 0-1.3807 1.1193-2.5 2.5-2.5s2.4999 1.1193 2.4999 2.5ZM25.9996 16.4997a3.4506 3.4506 0 0 1-.28 1.3601 6.5098 6.5098 0 0 1 3.2799 5.6398 4.9005 4.9005 0 0 1 0 .5501 4.7554 4.7554 0 0 1 .53-.0501 3.431 3.431 0 0 1 1.46.3301v-.8301a8.5203 8.5203 0 0 0-5.0999-7.7899c.0667.2583.1036.5234.11.79ZM22.4997 29.9993a6.46 6.46 0 0 0 3.7499-1.1997 3.479 3.479 0 0 0 1.25 1.56 8.44 8.44 0 0 1-9.9999 0 3.479 3.479 0 0 0 1.25-1.56 6.46 6.46 0 0 0 3.75 1.1997ZM19.2797 17.8598a3.4506 3.4506 0 0 1-.28-1.3601 3.4899 3.4899 0 0 1 .1-.79 8.52 8.52 0 0 0-5.0999 7.7899v.8301a3.4307 3.4307 0 0 1 1.46-.3301c.1774.0068.3544.0235.53.0501a4.9005 4.9005 0 0 1 0-.5501 6.5094 6.5094 0 0 1 3.2899-5.6398ZM31.9995 27.4996c0 1.3807-1.1193 2.4999-2.5 2.4999-1.3806 0-2.4999-1.1192-2.4999-2.4999 0-1.3807 1.1193-2.5 2.4999-2.5 1.3807 0 2.5 1.1193 2.5 2.5Z"/></svg>