<svg xmlns="http://www.w3.org/2000/svg" fill="none" viewBox="0 0 24 24" class="acv-icon"><path fill="currentColor" d="M15.717 11.346a.137.137 0 0 0-.09.129v4.385a2.325 2.325 0 0 1-1.506 2.177l-1.588.597a.464.464 0 0 1-.628-.435v-5.263a.137.137 0 0 0-.185-.13l-2.925 1.069a.93.93 0 0 0-.608.873v7.321a.93.93 0 0 0 1.249.874l9.314-3.404a2.324 2.324 0 0 0 1.528-2.184v-8.89c0 .476-.27.705-.42.921-.201.288-.66.688-1.108.851l-3.033 1.109Zm.095-.523a.137.137 0 0 1-.185-.129V9.546A2.325 2.325 0 0 0 14.12 7.37l-1.584-.596a.465.465 0 0 0-.629.436v4.207a.93.93 0 0 1-1.242.877l-6.046-2.16A.93.93 0 0 1 4 9.257V1.93a.93.93 0 0 1 1.243-.875l13.492 4.818c.378.135.715.366.978.67.518.601.537 1.514.116 2.186-.254.407-.644.784-1.236 1.078l-2.781 1.016Z"/></svg>