<svg xmlns="http://www.w3.org/2000/svg" fill="none" viewBox="0 0 32 32" class="acv-icon"><rect width="26" height="26" x="3" y="3" fill="#3A76F1" rx="8"/><rect width="25" height="25" x="3.5" y="3.5" stroke="#243143" stroke-opacity=".1" rx="7.5"/><path fill="#fff" d="M8.5 11c-.8284 0-1.5.6716-1.5 1.5V18c0 1.6569 1.3431 3 3 3h7.5c.8284 0 1.5-.6716 1.5-1.5V14c0-1.6569-1.3431-3-3-3H8.5ZM20.9855 13.7749a1 1 0 0 0-.4855.8575V17.5a1 1 0 0 0 .4855.8575l3.2573 2.1882c.3332.1999.7572-.0401.7572-.4288v-8.2338c0-.3887-.424-.6287-.7572-.4288l-3.2573 2.3206Z"/></svg>