<svg xmlns="http://www.w3.org/2000/svg" fill="none" viewBox="0 0 16 16" class="acv-icon"><path fill="currentColor" fill-rule="evenodd" d="M14.7175 1.2825c1.1716 1.1716 1.1716 3.071 0 4.2426l-9.1924 9.1924c-1.1715 1.1716-3.071 1.1716-4.2426 0-1.1716-1.1716-1.1716-3.0711 0-4.2426l9.1924-9.1924c1.1715-1.1716 3.071-1.1716 4.2426 0ZM11.2071 6.207 9.7928 4.793l-5 5 1.4143 1.4142 5-5Z" clip-rule="evenodd"/><path fill="currentColor" d="M5.7073 4.2931 4.111 2.6967c-.3905-.3905-1.0237-.3905-1.4142 0-.3905.3905-.3905 1.0237 0 1.4142L4.293 5.7072 2.8787 7.1213 1.2825 5.5251c-1.1716-1.1715-1.1716-3.071 0-4.2426 1.1716-1.1716 3.071-1.1716 4.2426 0L7.1217 2.879 5.7074 4.293ZM11.7072 10.293l1.4141-1.4143 1.5962 1.5962c1.1716 1.1715 1.1716 3.071 0 4.2426-1.1716 1.1716-3.0711 1.1716-4.2427 0L8.879 13.1217l1.4141-1.4143 1.596 1.5959c.3905.3905 1.0236.3905 1.4142 0 .3905-.3905.3905-1.0237 0-1.4142l-1.5961-1.5961Z"/></svg>