<svg xmlns="http://www.w3.org/2000/svg" fill="none" viewBox="0 0 32 32" class="acv-icon"><path fill="currentColor" d="M16 5.8a2.8001 2.8001 0 1 0-.0002-5.6003A2.8001 2.8001 0 0 0 16 5.8ZM29 21.3201a2.6798 2.6798 0 0 0-.5228 5.3083 2.6803 2.6803 0 0 0 1.5484-.1523A2.68 2.68 0 0 0 29 21.3201ZM5.75 24c0 1.5188-1.2312 2.75-2.75 2.75S.25 25.5188.25 24 1.4812 21.25 3 21.25 5.75 22.4812 5.75 24ZM25.48 25.8701a12.9485 12.9485 0 0 1-9.5 4.1492 12.9502 12.9502 0 0 1-9.5-4.1492 3.9993 3.9993 0 0 1-1.35 1.48 14.9407 14.9407 0 0 0 10.83 4.6484 14.94 14.94 0 0 0 10.83-4.6484 3.9998 3.9998 0 0 1-1.31-1.48Z"/><path fill="currentColor" fill-rule="evenodd" d="M19.8222 4.1794a3.9739 3.9739 0 0 1-.1307.361A13.0794 13.0794 0 0 1 28 12H4a13.0801 13.0801 0 0 1 8.3-7.46A3.9194 3.9194 0 0 1 12 3a3.2484 3.2484 0 0 1 0-.45A14.9999 14.9999 0 0 0 1 17a14.681 14.681 0 0 0 .3896 3.3385A4.0001 4.0001 0 0 1 5.6458 21h20.7084a4.0003 4.0003 0 0 1 4.2562-.6615A14.6823 14.6823 0 0 0 31 17 15.0001 15.0001 0 0 0 20 2.55 3.2484 3.2484 0 0 1 20 3a3.9232 3.9232 0 0 1-.1778 1.1794ZM12.5627 19h1.026v-4.8543h-1.026v1.9025h-1.9225v-1.9025H9.6109V19h1.0293v-2.0951h1.9225V19Zm3.4166-3.6291c.2125-.2922.5124-.4383.8998-.4383.1771 0 .3575.0321.5412.0963.1837.0642.3664.1395.5479.2258l.332-.8367c-.4759-.228-.9496-.342-1.4211-.342-.4626 0-.8666.1018-1.2119.3054-.3431.2015-.6065.4926-.7902.8733-.1838.3785-.2756.8201-.2756 1.3248 0 .8013.187 1.4167.5611 1.8461.3741.4272.9142.6408 1.6203.6408.4914 0 .9363-.083 1.3348-.249v-.8633c-.4848.1704-.8976.2557-1.2385.2557-.8124 0-1.2186-.5412-1.2186-1.6237 0-.5201.1063-.9252.3188-1.2152Zm5.7641.6342c.1837-.2125.2755-.4704.2755-.7737 0-.363-.146-.6463-.4382-.85-.29-.2036-.6862-.3054-1.1887-.3054-.6132 0-1.1411.1594-1.5838.4781l.4748.7072c.2014-.1306.3841-.2224.5479-.2756.166-.0531.3287-.0796.488-.0796.4605 0 .6907.1837.6907.5511 0 .2391-.0875.4084-.2623.508-.1727.0974-.4472.1461-.8235.1461h-.3752v.7869h.3686c.4073 0 .7039.0476.8898.1428.186.0952.2789.2568.2789.4848 0 .2545-.0808.4394-.2423.5545-.1616.1151-.4118.1726-.7504.1726-.2214 0-.445-.0299-.6707-.0896-.2258-.0598-.4328-.1373-.6209-.2324v.8732c.4073.1749.8743.2623 1.4011.2623.6287 0 1.1123-.1295 1.451-.3885.3387-.2612.508-.6253.508-1.0924 0-.3209-.1007-.5755-.3021-.7636-.2015-.1904-.4981-.3099-.8899-.3586v-.0199c.3321-.0797.5899-.2258.7737-.4383Z" clip-rule="evenodd"/></svg>