<svg xmlns="http://www.w3.org/2000/svg" fill="none" viewBox="0 0 24 24" class="acv-icon"><path fill="currentColor" fill-rule="evenodd" d="M4 12c0-3.0467 1.7032-5.6957 4.2093-7.0467l.63-3.1494A1 1 0 0 1 9.8197 1h4.3604a1 1 0 0 1 .9806.8039l.6299 3.1494C18.0183 6.1541 19.6114 8.3804 19.9381 11H20c.5523 0 1 .4477 1 1s-.4477 1-1 1h-.0619c-.3267 2.6196-1.9198 4.8458-4.1474 6.0467l-.6299 3.1494a1 1 0 0 1-.9806.8039H9.8198a1 1 0 0 1-.9806-.8039l-.6299-3.1494C5.7032 17.6957 4 15.0467 4 12Zm6.4396 8 .2 1h2.7208l.2-1h-3.1208Zm7.4774-9H15.5c-.3038 0-.5911.1381-.7809.3753l-.9826 1.2283-1.8261-4.0174a1.0001 1.0001 0 0 0-1.7425-.141L8.4649 11h-2.382C6.559 8.1623 9.027 6 12 6c2.973 0 5.441 2.1623 5.917 5Zm0 2c-.476 2.8377-2.944 5-5.917 5s-5.441-2.1623-5.917-5H9a1 1 0 0 0 .832-.4453l1.0021-1.5031 1.7555 3.8622a1.0002 1.0002 0 0 0 1.6913.2109L15.9806 13h1.9364Zm-4.3566-9-.2-1h-2.7208l-.2 1h3.1208Z" clip-rule="evenodd"/></svg>