<svg xmlns="http://www.w3.org/2000/svg" fill="none" viewBox="0 0 16 16" class="acv-icon"><path fill="currentColor" d="M9 5.8293c1.1652-.4118 2-1.523 2-2.8293 0-1.6568-1.3431-3-3-3S5 1.3432 5 3c0 1.3062.8348 2.4175 2 2.8293V7H6c-2.0888 0-3.8785 1.2809-4.6264 3.1C.576 10.3629 0 11.1142 0 12c0 1.1046.8954 2 2 2s2-.8954 2-2a1.9945 1.9945 0 0 0-.6254-1.4528C3.8862 9.6245 4.8702 9 6 9h1v2.2676c-.5978.3458-1 .9921-1 1.7324 0 1.1046.8954 2 2 2s2-.8954 2-2c0-.7403-.4022-1.3866-1-1.7324V9h1c1.1298 0 2.1138.6245 2.6254 1.5472A1.9947 1.9947 0 0 0 12 12c0 1.1046.8954 2 2 2s2-.8954 2-2c0-.8858-.5759-1.6371-1.3736-1.9C13.8785 8.2809 12.0888 7 10 7H9V5.8293Z"/></svg>