<svg xmlns="http://www.w3.org/2000/svg" fill="none" viewBox="0 0 32 32" class="acv-icon"><path fill="currentColor" fill-rule="evenodd" d="M4 3a2 2 0 0 0-2 2v18a2 2 0 0 0 2 2h8l-.845 3.379a.5.5 0 0 0 .485.621h8.72a.5.5 0 0 0 .485-.621L20 25h8a2 2 0 0 0 2-2V5a2 2 0 0 0-2-2H4Zm13.642 11.808a.229.229 0 0 0 0-.326l-.055-.05L11.4 9.06a.25.25 0 0 0-.157-.06H8.248a.25.25 0 0 0-.244.212.26.26 0 0 0 .092.244l5.667 4.982a.272.272 0 0 1 0 .418L8.085 19.8a.277.277 0 0 0-.065.305.256.256 0 0 0 .234.146h3.113a.26.26 0 0 0 .163-.06l6.052-5.34.06-.043Zm.89-1.092a.266.266 0 0 0 .348 0l4.955-4.26a.277.277 0 0 0 .092-.244.25.25 0 0 0-.244-.212h-2.994a.26.26 0 0 0-.163.06l-3.477 2.933a.28.28 0 0 0-.068.324c.016.036.04.068.068.095l1.484 1.304Zm5.358 6.112-5.026-4.249a.255.255 0 0 0-.342 0l-1.385 1.25a.285.285 0 0 0-.069.323c.016.036.04.068.069.095l3.455 2.977a.25.25 0 0 0 .157.06h3.005a.244.244 0 0 0 .223-.35.26.26 0 0 0-.087-.107Z" clip-rule="evenodd"/></svg>