<svg xmlns="http://www.w3.org/2000/svg" fill="none" viewBox="0 0 16 16" class="acv-icon"><path fill="currentColor" fill-rule="evenodd" d="M3.9763.783A1 1 0 0 0 3.0001 0H1.0003c-.5523 0-1 .4477-1 1 0 .5522.4477 1 1 1H2.198l1.826 8.2166a1 1 0 0 0 .976.783h8.9998a.9998.9998 0 0 0 .9805-.8038l1-4.9999c.1159-.5793-.2931-1.1323-.881-1.191L4.4785 3.0426 3.9763.783Zm9.8266 5.1021L13.18 8.9997H5.8022l-.867-3.9014 8.8677.7868Z" clip-rule="evenodd"/><path fill="currentColor" d="M6.0001 15.9995c-1.1045 0-2-.8954-2-1.9999s.8955-2 2-2c1.1046 0 2 .8955 2 2s-.8954 1.9999-2 1.9999ZM12.9999 15.9995c-1.1045 0-1.9999-.8954-1.9999-1.9999s.8954-2 1.9999-2 1.9999.8955 1.9999 2-.8954 1.9999-1.9999 1.9999Z"/></svg>