<svg xmlns="http://www.w3.org/2000/svg" fill="none" viewBox="0 0 16 16" class="acv-icon"><g fill="currentColor" clip-path="url(#PartnerDrInfrastructure16:a)"><path d="M9.6455 10.6084c.503 0 .9109.4007.9111.8945 0 .494-.4079.8945-.911.8946-.5033 0-.9112-.4006-.9112-.8946.0002-.4938.408-.8945.9111-.8945Z"/><path fill-rule="evenodd" d="M9.3574 7.0771a.928.928 0 0 1 .5762 0l2.7334.8946c.3719.1218.623.4637.623.8486v3.5772c0 1.6426-1.2008 2.8222-3.3544 3.5322-.29.0956-.2902.0956-.5801 0-.7211-.2377-1.334-.5304-1.832-.8731l-.0782.5147a.5014.5014 0 0 1-.4951.4258H5.8096a.501.501 0 0 1-.4942-.4258l-.4355-2.874-.4268-.4268a.3012.3012 0 0 1-.086-.1767l-.3544-2.9786c-.0653-.5483.3265-1.0459.875-1.1113a1.0076 1.0076 0 0 1 .1182-.0068h1.5576c.02-.0082.0397-.0186.0605-.0254l2.7334-.8946ZM7.8232 9.4649v2.9327c0 .6844.5404 1.2621 1.8223 1.7353 1.2819-.4732 1.8223-1.0509 1.8223-1.7353V9.4648l-1.8223-.5966-1.8223.5966Z" clip-rule="evenodd"/><path d="M8 0c3.0059 0 5.5111 2.1412 6.0752 4.9824l.001.001C15.2254 5.6308 16 6.8624 16 8.2734c0 1.0071-.395 1.9216-1.0381 2.5977-.2724.286-.7031.0611-.7031-.334V9.0098c0-1.143-.5718-1.8527-.9404-2.1348a1.7846 1.7846 0 0 0-.2237-.1494l-.4013-.2246a1.0009 1.0009 0 0 1-.4913-.6787l-.0888-.4512C11.7308 3.449 10.0327 2 8 2 6.296 2 4.8252 3.0168 4.169 4.4814l-.1202.2989-.126.3515a1.0019 1.0019 0 0 1-.4521.5352l-.3252.1826-.001-.001C2.457 6.2366 2 6.9708 2 7.8086c0 .7393.3586 1.393.9102 1.8018.128.0948.2213.2332.2382.3916l.1358 1.2734c.036.3381-.2703.6113-.587.4873C1.1183 11.1439 0 9.607 0 7.8086c0-1.5884.8727-2.9738 2.166-3.7022C3.0234 1.7124 5.312 0 8 0Z"/><path d="M6.3799 4.25c.8288 0 1.501.6716 1.501 1.5s-.6722 1.5-1.501 1.5c-.8285-.0003-1.5-.6718-1.5-1.5s.6715-1.4997 1.5-1.5Z"/></g><defs><clipPath id="PartnerDrInfrastructure16:a"><path fill="#fff" d="M0 0h16v16H0z"/></clipPath></defs></svg>