<svg xmlns="http://www.w3.org/2000/svg" fill="none" viewBox="0 0 24 24" class="acv-icon"><path fill="currentColor" d="M8.2929 14.7071c-.3905-.3905-.3905-1.0237 0-1.4142.3905-.3905 1.0237-.3905 1.4142 0L11 14.5858l3.2929-3.2929c.3905-.3905 1.0237-.3905 1.4142 0 .3905.3905.3905 1.0237 0 1.4142l-4 4c-.3905.3905-1.0237.3905-1.4142 0l-2-2Z"/><path fill="currentColor" fill-rule="evenodd" d="M19.001 4H18c0-.5523-.4477-1-1-1h-1V2c0-.5523-.4477-1-1-1H9c-.5523 0-1 .4477-1 1v1H7c-.5523 0-1 .4477-1 1H4.999C3.896 4 3 4.9013 3 6v15c0 1.1055.8932 2 2.0009 2H18.999C20.1026 23 21 22.0991 21 21V6c0-1.1052-.891-2-1.999-2ZM18 7V6h1s-.0037 15-.0009 15H5V6h1v1c0 .5523.4477 1 1 1h10c.5523 0 1-.4477 1-1ZM8 6h8V5c-1.1053 0-2-.8923-2-2h-4c0 1.1053-.8923 2-2 2v1Z" clip-rule="evenodd"/></svg>