<svg xmlns="http://www.w3.org/2000/svg" fill="none" viewBox="0 0 16 16" class="acv-icon"><path fill="currentColor" d="M7 1.0735c0-.3037-.2396-.5391-.5367-.4762C3.0563 1.3195.5 4.3446.5 7.9667c0 4.1604 3.3727 7.5331 7.5331 7.5331 3.6221 0 6.6472-2.593 7.3693-6 .063-.297-.0987-.5-.4024-.5H7.5a.4984.4984 0 0 1-.5-.5V1.0735Z"/><path fill="currentColor" d="M15.4956 6.9998c.0395.2877-.2053.5-.4956.5H9a.4984.4984 0 0 1-.5-.5v-6c0-.2903.2816-.5352.5692-.4956 3.3315.4583 5.9681 3.1642 6.4264 6.4956Z"/></svg>