<svg xmlns="http://www.w3.org/2000/svg" fill="none" viewBox="0 0 24 24" class="acv-icon"><path fill="currentColor" fill-rule="evenodd" d="m12.514 1.142 9 5A1 1 0 0 1 22 7v8.063a5.037 5.037 0 0 0-2 .082v-6.35l-7 3.68v2.697a3.01 3.01 0 0 0-.999.594 3.011 3.011 0 0 0-1.001-.59v-2.702l-7-3.68v7.617l3.006 1.67c.008.35.079.706.218 1.05l.709 1.752-5.448-3.026A1 1 0 0 1 2 17V7a1 1 0 0 1 .485-.858l9-5a1 1 0 0 1 1.03 0ZM12 10.718l7.005-3.682L12 3.145l-7.006 3.89L12 10.719Z" clip-rule="evenodd"/><path fill="currentColor" d="M9.629 17.072a1 1 0 0 1 1.3.557L12 20.307l.772-1.929a2.193 2.193 0 0 1 3.414-.89A2.737 2.737 0 0 1 17.75 17c.665 0 1.274.236 1.75.629A2.75 2.75 0 0 1 24 19.75V23a1 1 0 1 1-2 0v-3.25a.75.75 0 1 0-1.5 0V23a1 1 0 1 1-2 0v-3.25a.75.75 0 0 0-1.5 0V23a1 1 0 1 1-2 0v-3.808a.193.193 0 0 0-.371-.071l-1.7 4.25a1 1 0 0 1-1.857 0l-2-5a1 1 0 0 1 .557-1.3Z"/></svg>