<svg xmlns="http://www.w3.org/2000/svg" fill="none" viewBox="0 0 32 32" class="acv-icon"><circle cx="16" cy="16" r="13" fill="#408BEA"/><circle cx="16" cy="16" r="12.5" stroke="#243143" stroke-opacity=".1"/><path fill="#fff" fill-rule="evenodd" d="M10.5 14H12v-2.5c0-2.2091 1.7909-4 4-4 2.2091 0 4 1.7909 4 4V14h1.5c.5523 0 1 .4477 1 1v7c0 .5523-.4477 1-1 1h-11c-.5523 0-1-.4477-1-1v-7c0-.5523.4477-1 1-1Zm7.5-2.5V14h-4v-2.5c0-1.1046.8954-2 2-2s2 .8954 2 2ZM16 17c-.6904 0-1.25.5596-1.25 1.25v1.5c0 .6904.5596 1.25 1.25 1.25s1.25-.5596 1.25-1.25v-1.5c0-.6904-.5596-1.25-1.25-1.25Z" clip-rule="evenodd"/></svg>