<svg xmlns="http://www.w3.org/2000/svg" fill="none" viewBox="0 0 24 24" class="acv-icon"><path fill="currentColor" d="M11.5 1C9.4452 1 7 2.965 7 6v3c-1.6569 0-3 1.3431-3 3v7c0 1.6569 1.3431 3 3 3h4.0703a7.9535 7.9535 0 0 1-.8183-2H7c-.5523 0-1-.4477-1-1v-7c0-.5523.4477-1 1-1h7.124c1.1482-.6372 2.4697-1 3.876-1 .4531 0 .8974.0377 1.3299.11C18.7799 9.4328 17.9405 9 17 9H9V6c0-1.9355 1.5548-3 2.5-3h1c.8676 0 2.5.9686 2.5 3.5 0 .5523.4477 1 1 1s1-.4477 1-1C17 3.0314 14.6324 1 12.5 1h-1Z"/><path fill="currentColor" fill-rule="evenodd" d="M24 18c0 3.3137-2.6863 6-6 6s-6-2.6863-6-6 2.6863-6 6-6 6 2.6863 6 6Zm-3.2197-2.0303a.75.75 0 0 1 0 1.0606l-3 3a.75.75 0 0 1-1.0606 0l-1.5-1.5a.75.75 0 0 1 0-1.0606.75.75 0 0 1 1.0606 0l.9697.9696 2.4697-2.4696a.75.75 0 0 1 1.0606 0Z" clip-rule="evenodd"/></svg>