<svg xmlns="http://www.w3.org/2000/svg" fill="none" class="acv-icon" viewBox="0 0 16 16"><g fill="currentColor" clip-path="url(#a)"><path d="M9 7H7v2h2V7Zm-3 5v-2H4v2h2Zm3-2H7v2h2v-2Zm1 2v-2h2v2h-2ZM4 9V7h2v2H4Zm8 0V7h-2v2h2Z"/><path fill-rule="evenodd" d="M11 0a1 1 0 0 1 1 1h3a1 1 0 0 1 1 1v13a1 1 0 0 1-1 1H1a1 1 0 0 1-1-1V2a1 1 0 0 1 1-1h3a1 1 0 0 1 2 0h4a1 1 0 0 1 1-1Zm3 14H2V5h12v9Z" clip-rule="evenodd"/></g><defs><clipPath id="a"><path fill="#fff" d="M0 0h16v16H0z"/></clipPath></defs></svg>