<svg xmlns="http://www.w3.org/2000/svg" fill="none" viewBox="0 0 16 16" class="acv-icon"><path fill="#2668C5" fill-rule="evenodd" d="M5 5.206c0 .304-.143.587-.361.799-.714.689-1.31 1.725-1.555 2.749-.09.378 1.342.455 1.416-.004.201-1.247.882-2.408 1.726-3.004a.235.235 0 0 1 .302.032l.618.618a.5.5 0 0 0 .708 0l.807-.807a.236.236 0 0 1 .274-.047C9.953 6.07 10.778 7.328 11 8.75c.062.394 1.999.371 1.896-.022-.19-.723-.577-1.457-.899-2.085C11.498 5.667 11 4.694 11 3.375 11 1.649 9.657.25 8 .25s-3 1.4-3 3.125v1.83Zm2.243-1.421a.225.225 0 0 0 .2-.15A1.29 1.29 0 0 0 7.5 3.25c0-.552-.336-1-.75-1s-.75.448-.75 1c0 .217.052.418.14.582.047.088.152.119.249.094a.5.5 0 1 1 .656-.12 7.02 7.02 0 0 1 .198-.021Zm2.174-.077c-.038.099-.146.145-.25.129a6.168 6.168 0 0 0-.13-.02.5.5 0 1 0-.818-.064.168.168 0 0 1-.16-.113A1.289 1.289 0 0 1 8 3.25c0-.552.336-1 .75-1s.75.448.75 1c0 .165-.03.321-.083.458Z" clip-rule="evenodd"/><path fill="#2668C5" d="M6.25 14.963a.147.147 0 0 1-.102-.145l.037-1.212c.004-.112.124-.181.227-.137.837.36 2.282.242 3.036-.263.104-.07.253-.002.256.124l.037 1.488a.147.147 0 0 1-.1.145c-.935.298-2.458.298-3.391 0ZM5 14.534v-3.78c0-.278-.211-.504-.471-.504-.167 0-.284.094-.39.21a.636.636 0 0 1-.944 0c-.107-.116-.224-.21-.39-.21-.41 0-.472.398-.472.714 0 .394-.298.714-.666.714-.33 0-.667.099-.667.505 0 .134.05.262.138.357l2.333 2.499c.204.218.478.214.751.21l.111-.001c.369 0 .667-.32.667-.714ZM11 10.755v3.78c0 .395.299.715.667.715l.11.001c.274.004.548.008.752-.21l2.333-2.5a.524.524 0 0 0 .138-.357c0-.28-.211-.505-.471-.505-.445 0-.862-.196-.862-.715 0-.316-.062-.714-.472-.714-.167 0-.283.095-.39.21a.636.636 0 0 1-.943 0c-.107-.116-.224-.21-.39-.21-.26 0-.472.226-.472.505Z"/></svg>