<svg xmlns="http://www.w3.org/2000/svg" fill="none" class="acv-icon" viewBox="0 0 32 32"><path fill="currentColor" fill-rule="evenodd" d="M5 4h9a1 1 0 0 1 1 1v9a1 1 0 0 1-1 1H5a1 1 0 0 1-1-1V5a1 1 0 0 1 1-1Zm1 2v7h7V6H6Zm12-2h9a1 1 0 0 1 1 1v9a1 1 0 0 1-1 1h-9a1 1 0 0 1-1-1V5a1 1 0 0 1 1-1Zm1 2v7h7V6h-7Zm-5 11H5a1 1 0 0 0-1 1v9a1 1 0 0 0 1 1h9a1 1 0 0 0 1-1v-9a1 1 0 0 0-1-1Zm-8 9v-7h7v7H6Zm12-9h9a1 1 0 0 1 1 1v9a1 1 0 0 1-1 1h-9a1 1 0 0 1-1-1v-9a1 1 0 0 1 1-1Zm1 2v7h7v-7h-7Z" clip-rule="evenodd"/></svg>