<svg xmlns="http://www.w3.org/2000/svg" fill="none" viewBox="0 0 24 24" class="acv-icon"><path fill="#2668C5" d="M7.996 5.994a1 1 0 1 0-2 0 1 1 0 0 0 2 0Z"/><path fill="#2668C5" fill-rule="evenodd" d="M10 1.997a1 1 0 0 1 1 1v18a1 1 0 0 1-1 1H4a1 1 0 0 1-1-1v-18a1 1 0 0 1 1-1h6Zm-5 2h4v16H5v-16Z" clip-rule="evenodd"/><path fill="#2668C5" d="M17.004 4.994a1 1 0 1 0 0 2 1 1 0 0 0 0-2Z"/><path fill="#2668C5" fill-rule="evenodd" d="M14 1.997a1 1 0 0 0-1 1v18a1 1 0 0 0 1 1h6a1 1 0 0 0 1-1v-18a1 1 0 0 0-1-1h-6Zm5 2h-4v16h4v-16Z" clip-rule="evenodd"/></svg>