<svg xmlns="http://www.w3.org/2000/svg" fill="none" viewBox="0 0 24 24" class="acv-icon"><path stroke="#141414" stroke-linecap="round" stroke-linejoin="round" stroke-width="1.5" d="m9.75 12.75 1.5 1.5m1.5-4.5 1.5 1.5M12 6.95l-1.586-1.586a2.095 2.095 0 0 0-2.963 0L5.364 7.45a2.095 2.095 0 0 0 0 2.963L6.95 12M12 17.05l1.586 1.586a2.095 2.095 0 0 0 2.963 0l2.087-2.087a2.095 2.095 0 0 0 0-2.963L17.05 12M5.364 16.549l2.087 2.087a2.095 2.095 0 0 0 2.963 0l8.222-8.222a2.095 2.095 0 0 0 0-2.963L16.55 5.364a2.095 2.095 0 0 0-2.963 0l-8.222 8.222a2.095 2.095 0 0 0 0 2.963Z"/></svg>