<svg xmlns="http://www.w3.org/2000/svg" fill="none" viewBox="0 0 16 16" class="acv-icon"><g fill="#2668C5" clip-path="url(#a)"><path fill-rule="evenodd" d="M16 8A8 8 0 1 1 0 8a8 8 0 0 1 16 0Zm-2 0A6 6 0 1 1 2 8a6 6 0 0 1 12 0Z" clip-rule="evenodd"/><path d="M6.496 8.5H7v2.499a.494.494 0 0 0 .906.281l2.009-2.998a.505.505 0 0 0-.133-.696.492.492 0 0 0-.278-.086H9V5.001a.494.494 0 0 0-.906-.281L6.085 7.718a.505.505 0 0 0 .133.696.492.492 0 0 0 .278.086Z"/></g><defs><clipPath id="a"><path fill="#fff" d="M0 0h16v16H0z"/></clipPath></defs></svg>