<svg fill="none" viewBox="0 0 24 24" xmlns="http://www.w3.org/2000/svg">
  <path fill="currentColor" d="M12 22C6.477 22 2 17.523 2 12h1.5a8.5 8.5 0 1 0 2.01-5.49L8 9H2V3l2.447 2.447A9.977 9.977 0 0 1 12 2c5.523 0 10 4.477 10 10s-4.477 10-10 10Z"/>
  <path fill="currentColor" d="M11.02 8.6v6.223H9.891V9.697h-.037l-1.455.93V9.594L9.947 8.6h1.072Zm5.28 2.79-1.003.109a.806.806 0 0 0-.149-.286.74.74 0 0 0-.28-.216 1.018 1.018 0 0 0-.43-.082c-.23 0-.422.05-.578.15-.154.099-.23.227-.228.385a.404.404 0 0 0 .149.331c.103.085.273.155.51.21l.796.17c.442.095.77.246.985.453.217.206.326.477.328.811a1.269 1.269 0 0 1-.258.778 1.656 1.656 0 0 1-.702.522c-.3.126-.644.189-1.033.189-.571 0-1.031-.12-1.38-.359a1.441 1.441 0 0 1-.622-1.005l1.072-.104c.049.21.152.37.31.477.158.108.364.161.617.161.261 0 .47-.053.629-.16.16-.108.24-.24.24-.399a.415.415 0 0 0-.155-.33c-.101-.088-.26-.155-.474-.201l-.796-.168c-.448-.093-.78-.25-.994-.47-.214-.223-.32-.505-.319-.845a1.196 1.196 0 0 1 .234-.748 1.54 1.54 0 0 1 .666-.492c.285-.117.614-.176.987-.176.547 0 .977.116 1.291.35.316.232.512.547.587.944Z"/>
</svg>
