<svg xmlns="http://www.w3.org/2000/svg" fill="none" viewBox="0 0 24 24" class="acv-icon"><path stroke="#141414" stroke-linecap="round" stroke-linejoin="round" stroke-width="1.5" d="M12.75 19.25h4.5a2 2 0 0 0 2-2v-7.5a2 2 0 0 0-2-2H6.75a2 2 0 0 0-2 2v.5M17.25 7.25v-.5a2 2 0 0 0-2-2h-6.5a2 2 0 0 0-2 2v.5"/><path stroke="#141414" stroke-linecap="round" stroke-linejoin="round" stroke-width="1.5" d="M9.25 12.5H8A3.25 3.25 0 0 0 8 19c.648 0 1.243-.174 1.75-.5"/><path stroke="#141414" stroke-linecap="round" stroke-linejoin="round" stroke-width="1.5" d="m8 14.75 2-2-2-2"/></svg>