<svg xmlns="http://www.w3.org/2000/svg" fill="none" viewBox="0 0 32 32" class="acv-icon"><path fill="#2668C5" fill-rule="evenodd" d="M13.646 5a2 2 0 0 1 1.857 1.257l1.246 3.114a1 1 0 0 0 .928.629H25a2 2 0 0 1 2 2v6.062a7.977 7.977 0 0 0-6.763 2.39v-3.285h1.769c.44 0 .66-.521.349-.826l-2.756-2.7a.5.5 0 0 0-.698 0l-2.756 2.7c-.31.305-.09.826.35.826h1.768v4.35c0 .267.221.483.494.483h.313A7.963 7.963 0 0 0 18 26H7a2 2 0 0 1-2-2V7a2 2 0 0 1 2-2h6.646Zm-1.883 8.983c0-.267.221-.483.494-.483h.986c.273 0 .494.216.494.483v4.35h1.769c.44 0 .66.521.348.826l-2.755 2.7a.5.5 0 0 1-.698 0l-2.756-2.7c-.31-.305-.09-.826.35-.826h1.768v-4.35Z" clip-rule="evenodd"/></svg>