<svg xmlns="http://www.w3.org/2000/svg" fill="none" viewBox="0 0 32 32" class="acv-icon"><path fill="#408BEA" d="M29 16c0 7.18-5.82 13-13 13S3 23.18 3 16 8.82 3 16 3s13 5.82 13 13Z"/><path stroke="#243143" stroke-opacity=".1" d="M28.5 16c0 6.904-5.596 12.5-12.5 12.5S3.5 22.904 3.5 16 9.096 3.5 16 3.5 28.5 9.096 28.5 16Z"/><path fill="#fff" d="M16 8.5v-2c0-.412.498-.647.847-.4l3.941 3c.283.2.283.6 0 .8l-3.94 3c-.35.247-.848.012-.848-.4v-2a5.5 5.5 0 0 0-5.5 5.5 1 1 0 1 1-2 0A7.5 7.5 0 0 1 16 8.5ZM16 21.5v-2c0-.412-.498-.647-.847-.4l-3.941 3c-.283.2-.283.6 0 .8l3.94 3c.35.247.848.012.848-.4v-2a7.5 7.5 0 0 0 7.5-7.5 1 1 0 1 0-2 0 5.5 5.5 0 0 1-5.5 5.5Z"/></svg>