<svg xmlns="http://www.w3.org/2000/svg" fill="none" viewBox="0 0 24 24" class="acv-icon"><path stroke="#141414" stroke-linecap="round" stroke-linejoin="round" stroke-width="1.5" d="M4.75 16A3.25 3.25 0 0 1 8 12.75h8a3.25 3.25 0 0 1 0 6.5H8A3.25 3.25 0 0 1 4.75 16Z"/><path stroke="#141414" d="M8.5 16a.5.5 0 1 1-1 0 .5.5 0 0 1 1 0Z"/><path stroke="#141414" stroke-linecap="round" stroke-linejoin="round" stroke-width="1.5" d="M4.75 16v-1.71a8 8 0 0 1 .266-2.046l1.59-6.006A2 2 0 0 1 8.54 4.75h6.921a2 2 0 0 1 1.934 1.488l1.59 6.006c.176.668.266 1.356.266 2.047V16M12.75 16h3.5"/></svg>