<svg xmlns="http://www.w3.org/2000/svg" fill="none" viewBox="0 0 16 16" class="acv-icon"><g clip-path="url(#a)"><path fill="#2668C5" fill-rule="evenodd" d="m13.998 6.055 1.583 1.131A1 1 0 0 1 15 9v4a1 1 0 1 1 0 2H1a1 1 0 1 1 0-2V9a.999.999 0 0 1-.581-1.814l7-5a1 1 0 0 1 1.162 0L12 4.628V4.01a1 1 0 1 1 2 0v1.982c0 .021 0 .043-.002.064ZM9 13h4V7.8L8 4.23 3 7.8V13h4v-2c0-.552.444-1 1-1 .552 0 1 .444 1 1v2Zm0-6a1 1 0 0 0-2 0v1a1 1 0 0 0 2 0V7ZM5 8a1 1 0 0 1 1 1v1a1 1 0 1 1-2 0V9a1 1 0 0 1 1-1Zm7 1a1 1 0 1 0-2 0v1a1 1 0 1 0 2 0V9Z" clip-rule="evenodd"/></g><defs><clipPath id="a"><path fill="#fff" d="M0 0h16v16H0z"/></clipPath></defs></svg>