<svg xmlns="http://www.w3.org/2000/svg" fill="none" viewBox="0 0 24 24" class="acv-icon"><path stroke="#141414" stroke-linecap="round" stroke-linejoin="round" stroke-width="1.5" d="M17.25 6.75H6.75a2 2 0 0 0-2 2v6.5a2 2 0 0 0 2 2h10.5a2 2 0 0 0 2-2v-6.5a2 2 0 0 0-2-2Z"/><path stroke="#141414" stroke-linecap="round" stroke-linejoin="round" stroke-width="1.5" d="M14.25 12c0 1.795-1.007 3.25-2.25 3.25S9.75 13.795 9.75 12 10.757 8.75 12 8.75s2.25 1.455 2.25 3.25ZM5.25 14.25a2.5 2.5 0 0 1 2.5 2.5M18.75 14.25a2.5 2.5 0 0 0-2.5 2.5M5.25 9.75a2.5 2.5 0 0 0 2.5-2.5M18.75 9.75a2.5 2.5 0 0 1-2.5-2.5"/></svg>