<svg xmlns="http://www.w3.org/2000/svg" fill="none" viewBox="0 0 32 32" class="acv-icon"><path fill="#2668C5" fill-rule="evenodd" d="M4 3a2 2 0 0 0-2 2v18a2 2 0 0 0 2 2h8l-.845 3.379a.5.5 0 0 0 .485.621h8.72a.5.5 0 0 0 .485-.621L20 25h8a2 2 0 0 0 2-2V5a2 2 0 0 0-2-2H4Zm11.8 5.813c.842.133 1.832-.2 2.59-.954.757-.755 1.09-1.742.957-2.581h-.001c-.842-.133-1.832.2-2.59.955-.758.755-1.091 1.741-.957 2.58ZM19.007 9c-.674 0-1.134.234-1.552.447-.348.177-.666.339-1.055.339-.419 0-.82-.167-1.242-.342-.463-.192-.95-.394-1.507-.394-1.449 0-3.651 1.39-3.651 4.665C10 16.694 12.606 20 14.078 20c.416.004.685-.122.977-.259.334-.156.698-.326 1.345-.33.653-.004 1.03.168 1.379.328.3.137.578.264.992.26 1.008-.007 1.794-1.154 2.37-2.062.393-.622.566-.953.859-1.623a3.002 3.002 0 0 1-1.965-2.814c0-1.279.802-2.37 1.933-2.802C21.374 9.798 19.9 9 19.007 9Z" clip-rule="evenodd"/></svg>