<svg fill="none" viewBox="0 0 24 24" xmlns="http://www.w3.org/2000/svg">
  <path fill="currentColor" d="M6 15.354c.42 2.772 2.751 4.284 5.796 4.284 3.234 0 5.418-1.743 5.418-4.62a4.45 4.45 0 0 0-.245-1.518h-3.446c.747.315 1.15.867 1.15 1.707 0 1.386-1.134 2.226-2.835 2.226-1.89 0-2.94-.882-3.297-2.079H6Zm.493-4.854h4.15c-1.268-.213-1.913-.841-1.913-1.782 0-1.386 1.281-2.163 2.751-2.163 1.512 0 2.604.588 3.003 1.953h2.52c-.441-2.709-2.646-4.158-5.523-4.158-2.94 0-5.292 1.785-5.292 4.557 0 .588.103 1.121.304 1.593ZM4.5 12.752h15v-1.5h-15v1.5Z"/>
</svg>
