<svg fill="none" viewBox="0 0 24 24" xmlns="http://www.w3.org/2000/svg">
  <path fill="currentColor" d="m7.718 5.094.388-2.169H6.805c-2.512 0-3.837 1.142-4.27 3.653L2.306 7.88H.388L0 10.095h1.918l-1.667 9.43h2.603l1.644-9.43H6.85l.366-2.215H4.864l.182-1.05c.229-1.233.868-1.736 1.941-1.736h.73Zm3.165 4.441c-1.973 1.987-3.165 4.7-3.165 7.577 0 1.945.575 3.576 1.15 4.548h1.44c-.672-1.233-1.056-2.712-1.056-4.288 0-2.904 1.192-5.576 3.247-7.837h-1.616Zm7.059 2.973-1.987 2.44-1.247-2.44h-1.685l1.822 3.44-3.082 3.548h1.85l2.04-2.398 1.22 2.398h1.699l-1.809-3.425 3-3.563h-1.821Zm2.893 9.152C22.808 19.674 24 16.961 24 14.084c0-1.945-.59-3.576-1.165-4.549h-1.438c.685 1.233 1.069 2.713 1.069 4.289 0 2.904-1.192 5.576-3.261 7.836h1.63Z"/>
</svg>
