<svg xmlns="http://www.w3.org/2000/svg" fill="none" viewBox="0 0 24 24" class="acv-icon"><path stroke="#141414" stroke-linecap="round" stroke-linejoin="round" stroke-width="1.5" d="M5.03 10a7.25 7.25 0 1 0 13.941 0M19.25 6.5c0 .966-3.246 1.75-7.25 1.75S4.75 7.466 4.75 6.5 7.996 4.75 12 4.75s7.25.784 7.25 1.75Z"/><path stroke="#141414" stroke-linecap="round" stroke-linejoin="round" stroke-width="1.5" d="M9.75 15.75s.75 1 2.25 1 2.25-1 2.25-1"/><path stroke="#141414" d="M10.5 12a.5.5 0 1 1-1 0 .5.5 0 0 1 1 0ZM14.5 12a.5.5 0 1 1-1 0 .5.5 0 0 1 1 0Z"/></svg>