<svg xmlns="http://www.w3.org/2000/svg" fill="none" viewBox="0 0 24 24" class="acv-icon"><path stroke="#141414" stroke-linecap="round" stroke-linejoin="round" stroke-width="1.5" d="M18.97 10a7.25 7.25 0 1 0-3.47 8.35"/><path stroke="#141414" stroke-linecap="round" stroke-linejoin="round" stroke-width="1.5" d="M9.75 14.75s.75-1 2.25-1 2.25 1 2.25 1M19.25 15a1.25 1.25 0 1 1-2.5 0c0-.69 1.25-2.25 1.25-2.25s1.25 1.56 1.25 2.25Z"/><path stroke="#141414" stroke-linecap="round" stroke-linejoin="round" d="M10.5 10a.5.5 0 1 1-1 0 .5.5 0 0 1 1 0ZM14.5 10a.5.5 0 1 1-1 0 .5.5 0 0 1 1 0Z"/></svg>