<svg xmlns="http://www.w3.org/2000/svg" fill="none" viewBox="0 0 24 24" class="acv-icon"><path stroke="#141414" stroke-linecap="round" stroke-linejoin="round" stroke-width="1.5" d="M19.25 12A7.25 7.25 0 1 1 12 4.75"/><path stroke="#141414" stroke-linecap="round" stroke-linejoin="round" stroke-width="1.5" d="M15.08 6.092a1.097 1.097 0 0 1 1.59 0l.33.341.33-.341a1.097 1.097 0 0 1 1.59 0c.44.455.44 1.194 0 1.65l-1.125 1.166a1.097 1.097 0 0 1-1.59 0L15.08 7.742a1.198 1.198 0 0 1 0-1.65Z" clip-rule="evenodd"/><path stroke="#141414" d="M10.5 11a.5.5 0 1 1-1 0 .5.5 0 0 1 1 0ZM14.5 11a.5.5 0 1 1-1 0 .5.5 0 0 1 1 0Z"/><path stroke="#141414" stroke-linecap="round" stroke-linejoin="round" stroke-width="1.5" d="M9.75 14.75s.75 1 2.25 1 2.25-1 2.25-1"/></svg>