<svg xmlns="http://www.w3.org/2000/svg" fill="none" viewBox="0 0 24 24" class="acv-icon"><path stroke="#141414" stroke-linecap="round" stroke-linejoin="round" stroke-width="1.5" d="m16 11.058 3.25-6.308m-7.889 8.107c.265-.367.492-.711.681-1.016.462-.743 1.28-1.198 2.11-1.07l3.448.535c1.15.179 1.89 1.387 1.578 2.575l-.134.51m-7.683-1.534c-1 1.386-2.537 3.094-4.611 4.22 0 0 .722.783 3.25 1.41m1.361-5.63 7.683 1.534m0 0-1.28 4.859c-3.6 0-6.082-.347-7.764-.764m0 0s1.708-1.236 2.25-2.736m1.555 3.338s.903-.838 1.445-2.338M7 4.75S7 8 4.75 8C7 8 7 11.25 7 11.25S7 8 9.25 8C7 8 7 4.75 7 4.75Z"/></svg>