<svg xmlns="http://www.w3.org/2000/svg" fill="none" viewBox="0 0 24 24" class="acv-icon"><path fill="#2668C5" fill-rule="evenodd" d="M3.556 3.743A3 3 0 0 1 6.28 2h11.44a3 3 0 0 1 2.724 1.743l2.222 4.813A1.493 1.493 0 0 1 23 9.52V14.5c0 .098-.01.194-.027.287A5.973 5.973 0 0 0 20 14h1v-4H3v4h17a5.985 5.985 0 0 0-4.472 2H13v2.268c.304.175.557.428.732.732h.351a6.036 6.036 0 0 0 0 2h-.35a2 2 0 0 1-3.465 0H5a1 1 0 1 1 0-2h5.268a2.01 2.01 0 0 1 .732-.732V16H2.5A1.5 1.5 0 0 1 1 14.5V9.461c.01-.343.133-.657.334-.905l2.222-4.813ZM20.206 8l-1.578-3.42A1 1 0 0 0 17.72 4H6.28a1 1 0 0 0-.908.58L3.794 8h16.412Z" clip-rule="evenodd"/><path fill="#2668C5" d="M7 12a1 1 0 1 1-2 0 1 1 0 0 1 2 0ZM20 12a1 1 0 1 1-2 0 1 1 0 0 1 2 0ZM16 13a1 1 0 1 0 0-2 1 1 0 0 0 0 2Z"/></svg>