<svg xmlns="http://www.w3.org/2000/svg" fill="none" viewBox="0 0 24 24" class="acv-icon"><path stroke="#141414" stroke-linecap="round" stroke-linejoin="round" stroke-width="1.5" d="m5.75 4.75 13.5 13.5M5.834 8.44c-.4.718.652 2.176 2.519 3.691-1.867 1.516-2.918 2.973-2.519 3.69.506.908 3.16.54 6.166-1.071v4.5M10.176 8.857C10.51 6.423 11.2 4.75 12 4.75s1.49 1.673 1.823 4.107c2.2-.918 3.943-1.134 4.343-.416.4.717-.652 2.175-2.519 3.69 1.867 1.516 2.918 2.973 2.519 3.69-.116.21-.345.339-.666.396"/></svg>