<svg xmlns="http://www.w3.org/2000/svg" fill="none" viewBox="0 0 32 32" class="acv-icon"><path fill="#2668C5" fill-rule="evenodd" d="M13.646 5a2 2 0 0 1 1.857 1.257l1.246 3.114a1 1 0 0 0 .928.629H25a2 2 0 0 1 2 2v12a2 2 0 0 1-2 2H7a2 2 0 0 1-2-2V7a2 2 0 0 1 2-2h6.646Zm1.894 7.966-5.262 4.21c-.544.435-.236 1.31.46 1.31h.846v4.05c0 .203.164.367.367.367h1.914a.368.368 0 0 0 .368-.368v-2.944c0-.203.165-.368.368-.368H17.4c.203 0 .368.165.368.368v2.944c0 .204.164.368.368.368h1.913a.368.368 0 0 0 .369-.368v-4.048h.845c.696 0 1.004-.876.46-1.311l-5.262-4.21a.736.736 0 0 0-.92 0Z" clip-rule="evenodd"/></svg>