<svg xmlns="http://www.w3.org/2000/svg" fill="none" viewBox="0 0 24 24" class="acv-icon"><path fill="#2668C5" d="M8.748 2a6.748 6.748 0 0 1 6.749 6.748c0 .455-.05.905-.145 1.353l-.016.062 5.592 5.592a3.658 3.658 0 0 1 .148 5.017l-.147.156A3.648 3.648 0 0 1 18.342 22a3.65 3.65 0 0 1-2.587-1.072l-5.591-5.592-.062.016a6.543 6.543 0 0 1-1.013.136l-.34.009A6.748 6.748 0 0 1 2 8.748c0-.985.217-1.943.627-2.83.31-.672 1.006-.828 1.61-.575.287.12.572.332.906.643.469.437 1.07 1.114 1.815 2.04l.42.53c.175.222.465.32.699.257l.116-.035a.97.97 0 0 0 .61-.662.705.705 0 0 0-.247-.737c-1.201-.943-2.053-1.682-2.57-2.236-.311-.334-.523-.62-.643-.907-.253-.603-.097-1.298.575-1.61A6.724 6.724 0 0 1 8.748 2Zm0 2.018c-.294 0-.586.028-.872.083l-.067.014c.417.393.996.885 1.74 1.475l.253.2a2.723 2.723 0 0 1 .95 2.849 3.005 3.005 0 0 1-1.919 2.053l-.194.06a2.724 2.724 0 0 1-2.848-.95A35.429 35.429 0 0 0 4.425 8.15l-.312-.34-.013.066c-.037.19-.061.384-.074.579l-.009.293a4.73 4.73 0 0 0 4.73 4.73c.468 0 .938-.077 1.414-.228l.585-.185 6.436 6.436c.312.313.726.48 1.159.48a1.64 1.64 0 0 0 1.16-2.8l-6.436-6.435.184-.584c.151-.476.229-.946.229-1.414a4.73 4.73 0 0 0-4.73-4.73Z"/></svg>