<svg xmlns="http://www.w3.org/2000/svg" fill="none" viewBox="0 0 24 24"><path stroke="currentColor" stroke-linecap="round" stroke-linejoin="round" stroke-width="2" d="M4 21v-2c0-.5523.4185-1.1554.914-1.3993.7804-.3841 1.8702-.9558 2.5241-1.3019.3437-.1819.7571-.1418 1.0988.0437.1479.0803.3026.1544.4631.2223m9.9981-.6581-1.4112-2.8527a.097.097 0 0 0-.1738 0l-1.4112 2.8527-3.1557.4603a.0969.0969 0 0 0-.0536.1653l2.2833 2.2191-.5389 3.1351a.097.097 0 0 0 .1407.1022L17.5 20.5076l2.8223 1.4811a.097.097 0 0 0 .1407-.1022l-.5389-3.1351 2.2833-2.2191a.0969.0969 0 0 0-.0536-.1653z"/><path stroke="currentColor" stroke-width="2" d="M12 12c-1.9962 0-4-1.8408-4-6.8981C8 2.7765 10.1084 1.9996 12.0107 2 13.9599 1.997 16 2.7023 16 5.102 16 10.1592 13.9962 12 12 12Z"/></svg>