<svg xmlns="http://www.w3.org/2000/svg" fill="none" viewBox="0 0 24 24" class="acv-icon"><path fill="#141414" d="M9.75 5.106h.75a.75.75 0 0 0-.983-.713l.233.713Zm4.5 0 .233-.713a.75.75 0 0 0-.983.713h.75ZM5.5 12a6.503 6.503 0 0 1 4.483-6.181l-.466-1.426A8.003 8.003 0 0 0 4 12h1.5Zm6.5 6.5A6.5 6.5 0 0 1 5.5 12H4a8 8 0 0 0 8 8v-1.5Zm6.5-6.5a6.5 6.5 0 0 1-6.5 6.5V20a8 8 0 0 0 8-8h-1.5Zm-4.483-6.181A6.503 6.503 0 0 1 18.5 12H20a8.003 8.003 0 0 0-5.517-7.607l-.466 1.426Zm-.517-.713v6.144H15V5.106h-1.5Zm0 6.144a.25.25 0 0 1-.25.25V13A1.75 1.75 0 0 0 15 11.25h-1.5Zm-.25.25h-2.5V13h2.5v-1.5Zm-2.5 0a.25.25 0 0 1-.25-.25H9c0 .966.784 1.75 1.75 1.75v-1.5Zm-.25-.25V5.106H9v6.144h1.5Z"/></svg>