<svg xmlns="http://www.w3.org/2000/svg" fill="none" viewBox="0 0 24 24" class="acv-icon"><path stroke="#141414" stroke-linecap="round" stroke-linejoin="round" stroke-width="1.5" d="M18.25 10c0 3.5-2.75 9.25-6.25 9.25S5.75 13.5 5.75 10 9.1 4.75 12 4.75 18.25 6.5 18.25 10Z"/><path stroke="#141414" stroke-linecap="round" stroke-linejoin="round" stroke-width="1.5" d="M10.11 10.078c.272.815.194 1.835-.505 2.113-.699.277-1.435-.42-1.707-1.235-.272-.815-.195-1.835.58-2.143.7-.277 1.36.45 1.632 1.265ZM13.9 10.078c-.271.815-.194 1.835.505 2.113.7.277 1.435-.42 1.707-1.235.272-.815.195-1.835-.58-2.143-.7-.277-1.36.45-1.631 1.265Z"/></svg>