<svg xmlns="http://www.w3.org/2000/svg" fill="none" viewBox="0 0 32 32" class="acv-icon"><path fill="#2668C5" d="M24.2 13.23A2.25 2.25 0 0 0 23 13h-.78v2.29H23a1.91 1.91 0 0 0 1.2-.3 1.06 1.06 0 0 0 .37-.88.94.94 0 0 0-.37-.88Z"/><path fill="#2668C5" fill-rule="evenodd" d="m3 9 8-8h18v22l-8 8H3V9Zm4.52 10h1.25l2.53-7h-1.23l-1.5 4.33c-.06.15-.13.39-.22.71-.022.08-.046.156-.069.23-.069.226-.131.43-.131.61-.02-.16-.17-.73-.17-.73s-.17-.593-.25-.8L6.22 12H5l2.52 7ZM20 19h-1.22v-4.82c0-.56.017-.893.05-1L16.48 19h-1.12l-2.25-5.85c.06.867.09 1.68.09 2.44V19H12v-7h1.79l2.16 5.57L18.2 12H20v7Zm3.38-2.8 1.73 2.8 1.31-.04-2-3.1a1.92 1.92 0 0 0 1.4-1.86 1.8 1.8 0 0 0-.75-1.49A3.44 3.44 0 0 0 23 12h-2v7h1.21v-2.8h1.17Z" clip-rule="evenodd"/></svg>