<svg xmlns="http://www.w3.org/2000/svg" fill="none" viewBox="0 0 24 24" class="acv-icon"><path fill="#2668C5" fill-rule="evenodd" d="M15.866 13.258a.414.414 0 0 1-.5-.216 3.525 3.525 0 0 0-.371-.622.374.374 0 0 1 .055-.527.762.762 0 0 0 .294-.616.78.78 0 0 0-.325-.614 5.04 5.04 0 0 0-1.079-.6.847.847 0 0 0-.322-.063.8.8 0 0 0-.801.65c-.034.198-.228.332-.447.31a3.66 3.66 0 0 0-.74 0c-.218.022-.414-.112-.448-.31a.8.8 0 0 0-.801-.65.846.846 0 0 0-.321.063 4.992 4.992 0 0 0-1.079.6.78.78 0 0 0-.325.614.763.763 0 0 0 .294.616c.16.128.184.354.055.526-.145.195-.27.404-.371.623a.403.403 0 0 1-.505.214.857.857 0 0 0-.284-.049.807.807 0 0 0-.805.689 4.517 4.517 0 0 0 .001 1.208c.064.486.589.819 1.093.638a.414.414 0 0 1 .5.216c.102.219.226.428.371.622a.374.374 0 0 1-.055.527.76.76 0 0 0-.294.616.781.781 0 0 0 .325.614 5.04 5.04 0 0 0 1.079.6.847.847 0 0 0 .322.063.8.8 0 0 0 .801-.65c.034-.198.229-.33.447-.31.244.025.496.025.74 0 .219-.021.414.112.448.31a.8.8 0 0 0 .801.65c.11 0 .218-.021.321-.063a5.015 5.015 0 0 0 1.079-.6.781.781 0 0 0 .325-.614.762.762 0 0 0-.294-.616.374.374 0 0 1-.055-.526c.145-.195.27-.404.371-.623a.403.403 0 0 1 .505-.214c.091.033.187.05.284.05a.807.807 0 0 0 .805-.69 4.551 4.551 0 0 0-.001-1.208c-.065-.486-.59-.819-1.093-.638ZM10.5 14.5c0-.827.673-1.5 1.5-1.5s1.5.673 1.5 1.5S12.827 16 12 16s-1.5-.673-1.5-1.5Z" clip-rule="evenodd"/><path fill="#2668C5" fill-rule="evenodd" d="M19.001 4H18a1 1 0 0 0-1-1h-1V2a1 1 0 0 0-1-1H9a1 1 0 0 0-1 1v1H7a1 1 0 0 0-1 1H4.999A2.004 2.004 0 0 0 3 6v15c0 1.105.893 2 2 2h14c1.103 0 2-.9 2-2V6c0-1.105-.891-2-1.999-2ZM18 7V6h1s-.004 15 0 15H5V6h1v1a1 1 0 0 0 1 1h10a1 1 0 0 0 1-1Z" clip-rule="evenodd"/></svg>