<svg fill="none" viewBox="0 0 48 48" xmlns="http://www.w3.org/2000/svg">
  <path fill="#DA3C2C" fill-opacity=".2" d="M4 4h24v24H4z"/>
  <path fill="#0A0A0A" fill-opacity=".94" d="M29.25 7.5a7.708 7.708 0 0 0-7.708 7.708v3.021h-1.5v-3.02a9.208 9.208 0 0 1 18.416 0v3.02h-1.5v-3.02A7.708 7.708 0 0 0 29.25 7.5Zm0 18.292.65 1.125 4.185 7.25.65 1.125h-10.97l.65-1.125 4.186-7.25.649-1.125Zm2.887 8-2.887-5-2.887 5h5.774ZM16 19.25h-.75v23.5h28.5v-23.5H16Zm.75 22v-20.5h25.5v20.5h-25.5Z" clip-rule="evenodd"/>
</svg>
