<svg fill="none" viewBox="0 0 48 48" xmlns="http://www.w3.org/2000/svg">
  <ellipse cx="30.247" cy="22.595" fill="#FACD52" rx="8.417" ry="14.175" transform="rotate(-30 30.247 22.595)"/>
  <ellipse cx="8.343" cy="35.905" fill="#DA3C2C" fill-opacity=".2" rx="2.677" ry="4.509" transform="rotate(-30 8.343 35.905)"/>
  <path fill="#0A0A0A" fill-opacity=".94" d="M41.25 6.75V10h1.5V6.75H46v-1.5h-3.25V2h-1.5v3.25H38v1.5h3.25Zm-22.41 8.259c-.045 3.687 1.14 8.117 3.607 12.39 2.466 4.27 5.71 7.512 8.926 9.317 3.232 1.814 6.301 2.115 8.573.803 2.273-1.312 3.547-4.12 3.592-7.827.045-3.687-1.14-8.117-3.607-12.389-2.466-4.272-5.71-7.513-8.926-9.318-3.232-1.814-6.301-2.115-8.574-.803-2.272 1.312-3.546 4.12-3.59 7.827Zm-1.5-.018c.049-3.982 1.427-7.425 4.341-9.108 2.915-1.683 6.586-1.154 10.058.794 3.49 1.958 6.914 5.412 9.491 9.876 2.578 4.464 3.857 9.157 3.808 13.158-.049 3.981-1.427 7.424-4.341 9.107-2.915 1.683-6.586 1.155-10.059-.794-3.488-1.958-6.913-5.412-9.49-9.876-2.578-4.464-3.857-9.157-3.808-13.157ZM4.475 32.66c-.085 1.32.283 2.913 1.165 4.44.882 1.528 2.077 2.643 3.263 3.229 1.19.589 2.284.612 3.091.145.808-.466 1.335-1.424 1.42-2.75.077-1.194-.217-2.613-.927-4.004l-6.081 3.91-.812-1.262 6.109-3.927c-.8-1.098-1.761-1.913-2.716-2.385-1.191-.59-2.285-.612-3.092-.146-.807.466-1.334 1.425-1.42 2.75Zm8.491-1.03c-.935-1.308-2.097-2.317-3.314-2.919-1.48-.732-3.13-.895-4.507-.1-1.377.795-2.06 2.306-2.167 3.953-.106 1.654.353 3.538 1.363 5.286 1.01 1.749 2.411 3.089 3.897 3.823 1.48.732 3.13.895 4.507.1 1.376-.794 2.06-2.305 2.166-3.953.1-1.537-.29-3.273-1.157-4.914l6.652-4.276-.812-1.262-6.628 4.261Zm2.79 9.985 14.153-1.353-.143-1.493-14.152 1.353.143 1.493Zm-.462-26.947-7.956 11.17 1.222.87 7.956-11.17-1.222-.87ZM4.25 12v-2h1.5v2h-1.5Zm0 4v-2h1.5v2h-1.5ZM6 13.75h2v-1.5H6v1.5Zm-2 0H2v-1.5h2v1.5Z" clip-rule="evenodd"/>
</svg>
