<svg fill="none" viewBox="0 0 48 48" xmlns="http://www.w3.org/2000/svg">
  <circle cx="24" cy="24" r="6" fill="#FACD52"/>
  <path fill="#0A0A0A" fill-opacity=".94" d="M41.25 10V6.75H38v-1.5h3.25V2h1.5v3.25H46v1.5h-3.25V10h-1.5ZM24 9.254c4.497-2.833 8.877-4.348 12.31-4.25v1.5c-1.51-.053-3.338.258-5.453 1.009-1.737.617-3.586 1.507-5.475 2.65a48.495 48.495 0 0 1 6.782 5.673 48.5 48.5 0 0 1 5.673 6.783c1.143-1.89 2.033-3.739 2.65-5.476.69-1.94 1.008-3.64 1.014-5.073H43c-.018 3.373-1.524 7.597-4.254 11.93 4.47 7.095 5.658 13.9 2.406 17.152-3.253 3.252-10.057 2.065-17.152-2.406-7.095 4.47-13.9 5.658-17.152 2.406C3.596 37.899 4.783 31.095 9.254 24c-4.47-7.095-5.658-13.9-2.406-17.152C10.101 3.596 16.905 4.783 24 9.254Zm-1.381.91c-1.89-1.144-3.739-2.034-5.476-2.651-4.445-1.578-7.625-1.213-9.234.396s-1.974 4.789-.396 9.234c.617 1.737 1.507 3.586 2.65 5.476a48.503 48.503 0 0 1 5.673-6.783 48.503 48.503 0 0 1 6.783-5.673ZM24 11.04c-2.377 1.58-4.79 3.545-7.103 5.857-2.312 2.312-4.278 4.726-5.857 7.103.08.12.16.24.242.36l-1.095 1.056-.024-.034C9.02 27.27 8.13 29.12 7.513 30.857c-1.578 4.445-1.213 7.625.396 9.234s4.789 1.974 9.234.396c1.737-.617 3.586-1.507 5.476-2.65a48.497 48.497 0 0 1-7.279-6.176l1.08-1.04c.158.16.316.322.477.482 2.312 2.313 4.726 4.278 7.103 5.857 2.377-1.579 4.791-3.544 7.103-5.857 2.313-2.312 4.278-4.726 5.857-7.103-1.579-2.377-3.544-4.79-5.857-7.103-2.312-2.312-4.726-4.278-7.103-5.857Zm13.837 14.342a48.494 48.494 0 0 1-5.673 6.782 48.497 48.497 0 0 1-6.782 5.673c1.889 1.143 3.738 2.033 5.475 2.65 4.445 1.578 7.625 1.213 9.234-.396s1.974-4.789.396-9.234c-.617-1.737-1.507-3.586-2.65-5.475ZM12.25 25v2h1.5v-2h-1.5Zm0 4v2h1.5v-2h-1.5Zm3.75-.25h-2v-1.5h2v1.5Zm-6 0h2v-1.5h-2v1.5Z" clip-rule="evenodd"/>
</svg>
