<svg fill="none" viewBox="0 0 48 48" xmlns="http://www.w3.org/2000/svg">
  <path fill="#99B6B2" fill-opacity=".2" d="m10.323 1.676-8.661 8.662L10.324 19l-8.662 8.662 8.662 8.662 8.661-8.662 8.662 8.662 8.662-8.662L27.647 19l8.662-8.662-8.662-8.662-8.662 8.662-8.662-8.662Z" clip-rule="evenodd"/>
  <path fill="#0A0A0A" fill-opacity=".43" d="M23.75 17.25a5.75 5.75 0 1 1 11.5 0 5.75 5.75 0 0 1-11.5 0ZM29.5 10a7.25 7.25 0 1 0 0 14.5 7.25 7.25 0 0 0 0-14.5Zm0 19.622a19.864 19.864 0 0 0-14.03 5.804l-.22.22v6.104h1.5v-5.478a18.342 18.342 0 0 1 12.75-5.15 18.365 18.365 0 0 1 12.75 5.15v5.478h1.5v-6.104l-.22-.22a19.843 19.843 0 0 0-14.03-5.804Z" clip-rule="evenodd"/>
</svg>
