<svg fill="none" viewBox="0 0 48 48" xmlns="http://www.w3.org/2000/svg">
  <path fill="#39C4A5" d="m34 16 7.875 26.085A.793.793 0 0 1 42 42.5c0 1.933-8.059 3.5-18 3.5S6 44.433 6 42.5c0-.14.043-.28.125-.415L14 16c0-2.761 4.477-5 10-5s10 2.239 10 5Z" clip-rule="evenodd" opacity=".5"/>
  <path fill="#0A0A0A" fill-opacity=".94" d="M19.815 4.52a11.357 11.357 0 0 1 4.19-.77 11.32 11.32 0 0 1 4.179.805c.52.21 1.012.458 1.467.738A53.67 53.67 0 0 0 24 5c-1.997 0-3.93.106-5.76.305a9.902 9.902 0 0 1 1.575-.785Zm-4.31 1.162-.048-.047c1.02-1.072 2.327-1.928 3.808-2.511a12.857 12.857 0 0 1 4.746-.874c1.64.007 3.26.319 4.735.914 1.462.591 2.748 1.45 3.751 2.518C39.862 6.925 45 9.734 45 13c0 4.418-9.402 8-21 8S3 17.418 3 13c0-3.267 5.14-6.076 12.505-7.318Zm26.84 9.317c.878-.79 1.155-1.468 1.155-1.999 0-.53-.277-1.21-1.154-2-.877-.79-2.23-1.57-4.03-2.255C34.725 7.377 29.663 6.5 24 6.5c-5.664 0-10.725.877-14.315 2.245-1.8.686-3.154 1.466-4.03 2.256C4.776 11.79 4.5 12.469 4.5 13c0 .53.277 1.21 1.154 2 .877.79 2.23 1.57 4.03 2.255C13.275 18.623 18.337 19.5 24 19.5c5.664 0 10.725-.877 14.315-2.245 1.8-.686 3.154-1.466 4.03-2.256ZM12.53 36.037c3.64-.52 7.538-.787 11.471-.787s7.83.267 11.471.787c3.64.52 6.961 1.284 9.774 2.254l-.49 1.418c-2.703-.932-5.929-1.677-9.496-2.187-3.566-.51-7.392-.772-11.259-.772s-7.693.263-11.26.772c-3.566.51-6.792 1.255-9.495 2.187l-.49-1.418c2.813-.97 6.135-1.734 9.774-2.254Z" clip-rule="evenodd"/>
</svg>
