<svg fill="none" viewBox="0 0 24 24" xmlns="http://www.w3.org/2000/svg">
  <rect width="10" height="18" x="7" y="3" fill="#0A0A0A" fill-opacity=".94" rx="2"/>
  <g clip-path="url(#prefix__a)">
    <path fill="#fff" d="M11.417 15.5a1.17 1.17 0 0 1-1.167 1.167A1.17 1.17 0 0 1 9.083 15.5a1.17 1.17 0 0 1 1.167-1.167 1.17 1.17 0 0 1 1.167 1.167Zm-1.167-4.667A1.17 1.17 0 0 0 9.083 12a1.17 1.17 0 0 0 1.167 1.167A1.17 1.17 0 0 0 11.417 12a1.17 1.17 0 0 0-1.167-1.167Zm0-3.5A1.17 1.17 0 0 0 9.083 8.5a1.17 1.17 0 0 0 1.167 1.167A1.17 1.17 0 0 0 11.417 8.5a1.17 1.17 0 0 0-1.167-1.167Zm3.5 2.334A1.17 1.17 0 0 0 14.917 8.5a1.17 1.17 0 0 0-1.167-1.167A1.17 1.17 0 0 0 12.583 8.5a1.17 1.17 0 0 0 1.167 1.167Zm0 1.166A1.17 1.17 0 0 0 12.583 12a1.17 1.17 0 0 0 1.167 1.167A1.17 1.17 0 0 0 14.917 12a1.17 1.17 0 0 0-1.167-1.167Zm0 3.5a1.17 1.17 0 0 0-1.167 1.167 1.17 1.17 0 0 0 1.167 1.167 1.17 1.17 0 0 0 1.167-1.167 1.17 1.17 0 0 0-1.167-1.167Z"/>
  </g>
  <defs>
    <clipPath id="prefix__a">
      <path fill="#fff" d="M5 5h14v14H5z"/>
    </clipPath>
  </defs>
</svg>
