<svg fill="none" viewBox="0 0 24 24" xmlns="http://www.w3.org/2000/svg">
  <path fill="currentColor" d="m3.217 21.031-1.06-1.06 2.527-2.528A12.906 12.906 0 0 1 .34 12.341a12.896 12.896 0 0 1 16.052-6.606L19.127 3l1.06 1.06-2.317 2.318h.002l-1.133 1.133-2.197 2.195h.001l-1.061 1.062h-.001l-3.059 3.058h.001l-1.06 1.062-.002-.001-2.237 2.238-1.116 1.117h-.001l-2.79 2.79Zm2.547-4.668a11.393 11.393 0 0 1-3.737-4.022 11.476 11.476 0 0 1 9.97-5.879c1.087.005 2.164.164 3.198.47l-1.96 1.96a3.664 3.664 0 0 0-4.687 4.687l-2.784 2.784Zm4.068-4.069a2.164 2.164 0 0 1 2.118-2.117l-2.118 2.117Z" clip-rule="evenodd"/>
  <path fill="currentColor" d="M23.652 12.34a12.897 12.897 0 0 0-4.447-5.174l-1.093 1.093a11.476 11.476 0 0 1 3.853 4.082 11.393 11.393 0 0 1-13.311 5.377l-1.181 1.18c1.44.54 2.971.82 4.523.821a12.907 12.907 0 0 0 11.656-7.378Z"/>
  <path fill="currentColor" d="M14.16 12.34c0-.041 0-.083-.003-.125l1.24-1.24a3.663 3.663 0 0 1-4.767 4.766l1.24-1.24a2.164 2.164 0 0 0 2.29-2.16Z"/>
</svg>
