<svg fill="none" viewBox="0 0 24 24" xmlns="http://www.w3.org/2000/svg">
  <path fill="currentColor" d="M12 8.2a3.8 3.8 0 1 0 0 7.6 3.8 3.8 0 0 0 0-7.6Zm0 6.1a2.3 2.3 0 1 1 0-4.6 2.3 2.3 0 0 1 0 4.6Zm8.289-3.143 2.373-1.954-.215-.65a11.06 11.06 0 0 0-2.237-3.876l-.456-.512-2.879 1.08-1.461-.845-.506-3.033-.671-.139a11.062 11.062 0 0 0-4.474 0l-.671.14L8.586 4.4l-1.461.844-2.879-1.079-.456.512a11.06 11.06 0 0 0-2.237 3.875l-.215.651 2.373 1.954v1.687l-2.373 1.954.215.65a11.045 11.045 0 0 0 2.237 3.875l.456.512 2.879-1.078 1.461.843.506 3.034.671.138c1.476.305 2.998.305 4.474 0l.671-.138.506-3.034 1.461-.843 2.879 1.079.456-.512a11.06 11.06 0 0 0 2.237-3.875l.215-.65-2.373-1.955v-1.687Zm.62 4.141a9.554 9.554 0 0 1-1.598 2.77l-1.91-.716-.663-.248-.613.354-1.461.842-.614.354-.116.7-.335 2.011a9.553 9.553 0 0 1-3.198 0l-.335-2.012-.116-.698-.614-.355-1.461-.843-.613-.354-.663.249-1.91.715a9.543 9.543 0 0 1-1.599-2.769l1.575-1.296.546-.45v-3.103L4.665 10 3.09 8.703a9.555 9.555 0 0 1 1.599-2.77l1.91.716.663.248.613-.354L9.336 5.7l.614-.354.116-.698.335-2.012a9.553 9.553 0 0 1 3.198 0l.335 2.012.116.698.614.354 1.461.844.613.353.663-.248 1.91-.715a9.55 9.55 0 0 1 1.599 2.769l-1.575 1.296-.546.45v3.103l.546.45 1.575 1.296Z"/>
</svg>
