<svg fill="none" viewBox="0 0 24 24" xmlns="http://www.w3.org/2000/svg">
  <path fill="currentColor" d="M12.75 12.193V3h-1.5v9.193a2.902 2.902 0 0 0 0 5.614V21h1.5v-3.193a2.901 2.901 0 0 0 0-5.614ZM12 16.55a1.55 1.55 0 1 1 0-3.1 1.55 1.55 0 0 1 0 3.1Zm7.75-10.357V3h-1.5v3.193a2.902 2.902 0 0 0 0 5.614V21h1.5v-9.193a2.901 2.901 0 0 0 0-5.614ZM19 10.55a1.55 1.55 0 1 1 0-3.1 1.55 1.55 0 0 1 0 3.1ZM5.75 6.193V3h-1.5v3.193a2.902 2.902 0 0 0 0 5.614V21h1.5v-9.193a2.902 2.902 0 0 0 0-5.614ZM5 10.55a1.55 1.55 0 1 1 0-3.1 1.55 1.55 0 0 1 0 3.1Z"/>
</svg>
