<svg fill="none" viewBox="0 0 24 24" xmlns="http://www.w3.org/2000/svg">
  <path fill="currentColor" d="M12.193 11.333H3v1.5h9.193a2.901 2.901 0 0 0 5.614 0H21v-1.5h-3.193a2.902 2.902 0 0 0-5.614 0Zm4.357.75a1.55 1.55 0 1 1-3.1 0 1.55 1.55 0 0 1 3.1 0ZM6.193 4.333H3v1.5h3.193a2.902 2.902 0 0 0 5.614 0H21v-1.5h-9.193a2.901 2.901 0 0 0-5.614 0Zm4.357.75a1.55 1.55 0 1 1-3.1 0 1.55 1.55 0 0 1 3.1 0Zm-4.357 13.25H3v1.5h3.193a2.902 2.902 0 0 0 5.614 0H21v-1.5h-9.193a2.902 2.902 0 0 0-5.614 0Zm4.357.75a1.55 1.55 0 1 1-3.1 0 1.55 1.55 0 0 1 3.1 0Z"/>
</svg>
