<svg fill="none" viewBox="0 0 24 24" xmlns="http://www.w3.org/2000/svg">
  <path fill="currentColor" d="m15.292.915-1.114 1.114a1 1 0 0 0-.282.555l-.207 1.348L9.14 8.48l-2.486-.498a2 2 0 0 0-1.806.547L3.27 10.108l4.773 4.772L1 21.924V23h1.045l7.06-7.059L13 19.837v-2.122l-7.608-7.607.518-.518a.5.5 0 0 1 .452-.136l2.485.496.787.158.568-.568 4.548-4.547.347-.348.075-.485.166-1.078 5.565 5.565-1.078.166-.486.075-.347.347L15.227 13h2.122l2.704-2.704 1.348-.208a1 1 0 0 0 .555-.281l1.114-1.114L15.292.915ZM14 20.947 16.947 18 14 15.053 15.053 14 18 16.947 20.947 14 22 15.053 19.053 18 22 20.947 20.947 22 18 19.053 15.053 22 14 20.947Z" clip-rule="evenodd"/>
</svg>
