<svg fill="none" viewBox="0 0 24 24" xmlns="http://www.w3.org/2000/svg">
  <path fill="currentColor" d="m15.292.915-1.114 1.114a1 1 0 0 0-.282.555l-.207 1.348L9.14 8.48l-2.486-.498a2 2 0 0 0-1.806.547L3.27 10.108l4.773 4.772L1 21.924V23h1.045l7.06-7.059 4.773 4.773 1.578-1.578a2 2 0 0 0 .547-1.806l-.498-2.486 4.548-4.548 1.348-.208a1 1 0 0 0 .555-.281l1.114-1.114L15.292.915Zm4.533 7.898-.486.075-.347.347-4.548 4.548-.567.568.157.787.498 2.486a.499.499 0 0 1-.137.451l-.518.518-8.485-8.486.518-.517a.5.5 0 0 1 .452-.136l2.485.496.787.158.568-.568 4.548-4.547.347-.348.075-.485.166-1.078 5.565 5.565-1.078.166Z"/>
</svg>
