<svg xmlns="http://www.w3.org/2000/svg" fill="none" viewBox="0 0 24 24" class="acv-icon"><path fill="#2668C5" fill-rule="evenodd" d="M18 24a6 6 0 1 0 0-12 6 6 0 0 0 0 12Zm1-8.5c0-.276.245-.5.5-.5h1.038c.255 0 .462.224.462.5v5c0 .276-.207.5-.462.5h-5.077c-.254 0-.461-.224-.461-.5v-5c0-.276.207-.5.461-.5H16.5c.255 0 .5.224.5.5v2h2v-2Z" clip-rule="evenodd"/><path fill="#2668C5" fill-rule="evenodd" d="M3 17h3v4a1 1 0 0 0 1 1h4.07a7.954 7.954 0 0 1-.818-2H8v-5h2.582A8.003 8.003 0 0 1 22 11.07V7a1 1 0 0 0-1-1h-3V3a1 1 0 0 0-1-1H7a1 1 0 0 0-1 1v3H3a1 1 0 0 0-1 1v9a1 1 0 0 0 1 1ZM16 6V4H8v2h8Z" clip-rule="evenodd"/><path fill="#2668C5" fill-rule="evenodd" d="M18 24a6 6 0 1 0 0-12 6 6 0 0 0 0 12Zm1-8.5c0-.276.245-.5.5-.5h1.038c.255 0 .462.224.462.5v5c0 .276-.207.5-.462.5h-5.077c-.254 0-.461-.224-.461-.5v-5c0-.276.207-.5.461-.5H16.5c.255 0 .5.224.5.5v2h2v-2Z" clip-rule="evenodd"/></svg>