<svg xmlns="http://www.w3.org/2000/svg" fill="none" viewBox="0 0 24 24" class="acv-icon"><path stroke="#141414" stroke-linecap="round" stroke-linejoin="round" stroke-width="1.5" d="M19.25 18.75v.5m-14.5-2.5v.5m9-12.105s.75-.395 1.75-.395c2.071 0 3.75 2.127 3.75 4.75s-1.679 4.75-3.75 4.75c-1 0-1.75-.5-1.75-.5m1.75.75s-.75 1.504-.75 2.5c0 1 1.5 2.25 1.5 2.25M8.5 14.5s.75 1.504.75 2.5c0 1-1.5 2.25-1.5 2.25m4.5-9.75c0 2.623-1.679 4.75-3.75 4.75-2.071 0-3.75-2.127-3.75-4.75S6.429 4.75 8.5 4.75c2.071 0 3.75 2.127 3.75 4.75Z"/></svg>