<svg xmlns="http://www.w3.org/2000/svg" fill="none" viewBox="0 0 24 24" class="acv-icon"><path stroke="#141414" stroke-linecap="round" stroke-linejoin="round" stroke-width="1.5" d="M8.75 4.75h6.5a4 4 0 0 1 4 4v6.5a4 4 0 0 1-4 4h-6.5a4 4 0 0 1-4-4v-6.5a4 4 0 0 1 4-4Z"/><path stroke="#141414" stroke-linecap="round" stroke-linejoin="round" stroke-width="1.5" d="M7.75 12.75S9 15.25 12 15.25s4.25-2.5 4.25-2.5"/><path stroke="#141414" d="M10.5 10a.5.5 0 1 1-1 0 .5.5 0 0 1 1 0ZM14.5 10a.5.5 0 1 1-1 0 .5.5 0 0 1 1 0Z"/></svg>