<svg xmlns="http://www.w3.org/2000/svg" fill="none" viewBox="0 0 24 24" class="acv-icon"><path fill="#2668C5" fill-rule="evenodd" d="M18 13c.702 0 1.374.127 2 .348v-4.96c0-1.748-1.343-3.166-3-3.166h-2V4.166C15 2.418 13.657 1 12 1H8C6.343 1 5 2.418 5 4.166v1.056H3c-1.657 0-3 1.418-3 3.166v8.445C0 18.582 1.343 20 3 20h9.09a5.998 5.998 0 0 1-.09-1c0-.38.04-.751.107-1.112H3c-.552 0-1-.472-1-1.055v-3.167h5c0 1.166.896 2.111 2 2.111h2c1.104 0 2-.945 2-2.111h2.26A5.97 5.97 0 0 1 18 13ZM9 9.444c-1.104 0-2 .945-2 2.111H2V8.388c0-.583.448-1.055 1-1.055h14c.552 0 1 .472 1 1.055v3.167h-5c0-1.166-.896-2.111-2-2.111H9ZM8 3.111c-.552 0-1 .472-1 1.055v1.056h6V4.166c0-.583-.448-1.055-1-1.055H8Zm1 10.555h2v-2.11H9v2.11Z" clip-rule="evenodd"/><path fill="#2668C5" fill-rule="evenodd" d="M22.866 17.758a.414.414 0 0 1-.5-.216 3.525 3.525 0 0 0-.371-.622.374.374 0 0 1 .055-.527.762.762 0 0 0 .294-.616.78.78 0 0 0-.325-.614 5.04 5.04 0 0 0-1.079-.6.847.847 0 0 0-.322-.063.8.8 0 0 0-.801.65c-.034.198-.228.332-.447.31a3.66 3.66 0 0 0-.74 0c-.218.022-.414-.112-.448-.31a.8.8 0 0 0-.801-.65.846.846 0 0 0-.321.063 4.992 4.992 0 0 0-1.079.6.78.78 0 0 0-.325.614.763.763 0 0 0 .294.616c.16.128.184.354.055.526-.145.195-.27.404-.371.623a.403.403 0 0 1-.505.214.857.857 0 0 0-.284-.049.807.807 0 0 0-.805.69 4.517 4.517 0 0 0 .001 1.208c.064.485.589.818 1.093.637a.414.414 0 0 1 .5.216c.102.22.226.428.371.622a.374.374 0 0 1-.055.527.76.76 0 0 0-.294.616.781.781 0 0 0 .325.614 5.04 5.04 0 0 0 1.079.6.847.847 0 0 0 .322.063.8.8 0 0 0 .801-.65c.034-.198.229-.33.447-.31.244.025.496.025.74 0 .219-.02.414.112.448.31a.8.8 0 0 0 .801.65c.11 0 .218-.02.321-.063a5.015 5.015 0 0 0 1.079-.6.781.781 0 0 0 .325-.614.762.762 0 0 0-.294-.616.374.374 0 0 1-.055-.526c.145-.195.27-.404.371-.623a.403.403 0 0 1 .505-.214c.091.033.187.05.284.05a.807.807 0 0 0 .805-.69 4.551 4.551 0 0 0-.001-1.208c-.065-.486-.59-.819-1.093-.638ZM17.5 19c0-.827.673-1.5 1.5-1.5s1.5.673 1.5 1.5-.673 1.5-1.5 1.5-1.5-.673-1.5-1.5Z" clip-rule="evenodd"/></svg>