<svg xmlns="http://www.w3.org/2000/svg" fill="none" viewBox="0 0 24 24" class="acv-icon"><path fill="#2668C5" fill-rule="evenodd" d="M3 2a2 2 0 0 0-2 2v13a2 2 0 0 0 2 2h5.8l-.632 2.371A.5.5 0 0 0 8.65 22h6.698a.5.5 0 0 0 .483-.629L15.2 19H21a2 2 0 0 0 2-2V4a2 2 0 0 0-2-2H3Zm10.282 6.341c-.44 0-.787.258-1.043.772-.251.515-.377 1.23-.377 2.148 0 1.908.498 2.863 1.493 2.863.436 0 .893-.14 1.37-.417v1.363c-.402.267-.917.4-1.544.4-.928 0-1.642-.368-2.142-1.104-.496-.74-.744-1.78-.744-3.117s.256-2.38.767-3.127C11.576 7.374 12.29 7 13.203 7c.3 0 .588.041.863.124.277.083.574.227.89.434l-.507 1.245a4.243 4.243 0 0 0-.541-.315 1.357 1.357 0 0 0-.626-.147ZM9.09 15.358H7.556v-3.613H5.533v3.613H4v-8.24h1.533v3.275h2.023V7.118H9.09v8.24Zm10.748-6.385c0 .518-.128.954-.384 1.307-.255.35-.616.592-1.082.727v.045c.519.083.919.286 1.2.609.286.323.429.763.429 1.319 0 .758-.237 1.363-.71 1.814-.47.451-1.114.677-1.933.677-.73 0-1.341-.13-1.837-.39v-1.374c.248.15.516.268.805.355.29.086.568.13.835.13.435 0 .764-.1.986-.3.221-.202.332-.522.332-.957 0-.823-.505-1.235-1.516-1.235h-.468v-1.144h.446c.447 0 .789-.105 1.025-.315.24-.21.361-.525.361-.942 0-.326-.077-.573-.23-.738-.151-.169-.365-.254-.643-.254-.425 0-.838.18-1.24.542l-.694-1.015C16.076 7.278 16.777 7 17.623 7c.695 0 1.238.177 1.628.53.391.35.587.83.587 1.443Z" clip-rule="evenodd"/></svg>