<svg xmlns="http://www.w3.org/2000/svg" fill="none" viewBox="0 0 32 32" class="acv-icon"><path fill="#2668C5" d="M17 9.583C17 12.115 16.1 16 12.5 16S8 12.115 8 9.583C8 5.917 10.015 5 12.5 5s4.5.917 4.5 4.583ZM3 23.444c0-.62.142-1.24.548-1.71C4.553 20.572 7.102 18.5 12.5 18.5s7.947 2.072 8.952 3.234c.406.47.548 1.09.548 1.71V26a2 2 0 0 1-2 2H5a2 2 0 0 1-2-2v-2.556ZM21.5 18.609c2.842 0 3.553-3.041 3.553-5.022 0-2.87-1.59-3.587-3.553-3.587-1.962 0-3.553.717-3.553 3.587 0 1.981.71 5.022 3.553 5.022ZM24 26c0 .729-.195 1.412-.535 2h3.956c.872 0 1.579-.7 1.579-1.565v-2c0-.486-.112-.971-.433-1.34-.683-.782-2.27-2.093-5.42-2.442.684.918.853 1.972.853 2.791V26Z"/></svg>