<svg xmlns="http://www.w3.org/2000/svg" fill="none" viewBox="0 0 24 24" class="acv-icon"><path fill="#2668C5" fill-rule="evenodd" d="M11.486 1.143a1 1 0 0 1 1.028 0l5 3A1 1 0 0 1 18 5v4.434l4.515 2.709A1 1 0 0 1 23 13v5a1 1 0 0 1-.485.858l-5 3a1 1 0 0 1-1.03 0L12 19.166l-4.486 2.692a1 1 0 0 1-1.029 0l-5-3A1 1 0 0 1 1 18v-5a1 1 0 0 1 .486-.857L6 9.433V5a1 1 0 0 1 .486-.857l5-3ZM3 14.9v2.533l3 1.8v-2.63L3 14.9Zm5 4.333 3-1.8V14.9l-3 1.702v2.63Zm2.087-6.216L7 14.77l-3.087-1.752L7 11.166l3.087 1.852ZM8 9.434l3 1.8v-2.63L8 6.9v2.533Zm5 5.467v2.533l3 1.8v-2.63L13 14.9Zm4-3.735 3.087 1.852L17 14.77l-3.087-1.752L17 11.166Zm1 5.437v2.63l3-1.8v-2.532l-3 1.702Zm-2-9.702v2.533l-3 1.8v-2.63L16 6.9Zm-.913-1.883L12 6.77 8.913 5.018 12 3.166l3.087 1.852Z" clip-rule="evenodd"/></svg>