<svg xmlns="http://www.w3.org/2000/svg" fill="none" viewBox="0 0 16 16" class="acv-icon"><path fill="#2668C5" d="M8 9a1 1 0 1 0 0-2 1 1 0 0 0 0 2Z"/><path fill="#2668C5" fill-rule="evenodd" d="M15 8a6.97 6.97 0 0 1-1.394 4.192l1.101 1.1a1 1 0 0 1-1.414 1.415l-1.1-1.1A6.97 6.97 0 0 1 8 15a6.969 6.969 0 0 1-4.192-1.394l-1.1 1.101a1 1 0 0 1-1.415-1.414l1.1-1.1A6.969 6.969 0 0 1 1 8c0-1.572.518-3.024 1.394-4.192l-1.101-1.1a1 1 0 0 1 1.414-1.415l1.1 1.1A6.969 6.969 0 0 1 8 1c1.572 0 3.024.518 4.192 1.394l1.1-1.101a1 1 0 1 1 1.415 1.414l-1.1 1.1A6.969 6.969 0 0 1 15 8Zm-2 0c0 1.02-.305 1.967-.828 2.757l-.465-.464a1 1 0 1 0-1.414 1.414l.464.465A4.977 4.977 0 0 1 8 13a4.977 4.977 0 0 1-2.757-.828l.464-.465a1 1 0 1 0-1.414-1.414l-.465.464A4.977 4.977 0 0 1 3 8c0-1.02.305-1.967.828-2.757l.465.464a1 1 0 0 0 1.414-1.414l-.464-.465A4.977 4.977 0 0 1 8 3c1.02 0 1.967.305 2.757.828l-.464.465a1 1 0 1 0 1.414 1.414l.465-.464C12.695 6.033 13 6.98 13 8Z" clip-rule="evenodd"/></svg>