<svg fill="none" viewBox="0 0 24 24" xmlns="http://www.w3.org/2000/svg">
  <path fill="currentColor" d="M5.411 9.697a3.796 3.796 0 0 1-1.064-2.02c.33-.252 1.62-.324 3.575.195.289-.186.582-.362.876-.538l.092-.056c.093-.056.186-.113.28-.168.175-.1.354-.195.533-.29l.2-.106-.005-.001.142-.078c.14-.077.279-.154.42-.227.53-1.955 1.239-3.037 1.623-3.197.661.276 2.293 3.267 2.293 8.789 0 .627-.024 1.216-.062 1.777.54.23 1.093.43 1.655.604.067-.766.107-1.56.107-2.381 0-5.797-1.788-10.497-3.993-10.497-1.41 0-2.645 1.928-3.354 4.83-2.869-.837-5.156-.73-5.861.49-.554.96-.028 2.42 1.268 4.003.4-.385.828-.761 1.275-1.13Zm6.672 11.092c-.383-.16-1.091-1.241-1.619-3.194a31.69 31.69 0 0 1-.904-.49l-.116-.063c-.09-.049-.177-.097-.264-.147a21.067 21.067 0 0 1-.497-.304l-.212-.132.001.005a17.18 17.18 0 0 1-.545-.335c-1.958.52-3.25.446-3.58.193-.092-.71 1.683-3.619 6.465-6.38a26.04 26.04 0 0 1 1.57-.835 17.454 17.454 0 0 0-.305-1.735c-.697.325-1.404.688-2.115 1.098-5.02 2.899-8.197 6.796-7.094 8.706.704 1.22 2.991 1.325 5.858.489.71 2.904 1.947 4.832 3.357 4.832 1.107 0 2.109-1.186 2.832-3.1a21.643 21.643 0 0 1-1.615-.54 3.798 3.798 0 0 1-1.217 1.932Zm4.865-15.012c2.02-.33 3.548-.056 4.101.902.705 1.222-.347 3.256-2.507 5.323 2.158 2.065 3.212 4.098 2.507 5.319-1.102 1.91-6.066 1.108-11.087-1.791-.71-.41-1.378-.842-2.008-1.283.43-.4.88-.777 1.35-1.131.467.313.966.628 1.508.942 4.782 2.76 8.188 2.844 8.758 2.41.053-.414-.53-1.57-1.958-3.005.008-.16.011-.32.015-.48l.003-.16-.003.003.007-.21c.007-.208.014-.415.016-.621 0-.113-.004-.227-.006-.34l-.002-.093a30.824 30.824 0 0 0-.029-1.03c1.428-1.433 2.01-2.586 1.957-2.999a3.799 3.799 0 0 0-2.28-.087 21.803 21.803 0 0 0-.341-1.67Z" clip-rule="evenodd"/>
</svg>
