<svg fill="none" viewBox="0 0 24 24" xmlns="http://www.w3.org/2000/svg">
  <path fill="currentColor" d="M16.18 4.144a1.35 1.35 0 1 0 0-2.7 1.35 1.35 0 0 0 0 2.7ZM18.5 12.5a4.5 4.5 0 1 0 0 9.002 4.5 4.5 0 0 0 0-9.002Zm0 7.567a3.067 3.067 0 1 1 0-6.134 3.067 3.067 0 0 1 0 6.134ZM5.5 12.5a4.5 4.5 0 1 0 0 9.001 4.5 4.5 0 0 0 0-9.001Zm0 7.567a3.066 3.066 0 1 1 0-6.133 3.066 3.066 0 0 1 0 6.133Zm6.736-13.123a1.28 1.28 0 0 1 1.768 0l4.101 4.102 1.061-1.06-4.101-4.102a2.815 2.815 0 0 0-3.89 0L8.298 8.763a1.751 1.751 0 0 0 0 2.474l3 3c.047.047.073.11.073.177V20h1.5v-5.586a1.76 1.76 0 0 0-.513-1.237l-3-3a.25.25 0 0 1 0-.354l2.88-2.879Z"/>
</svg>
