<svg fill="none" viewBox="0 0 24 24" xmlns="http://www.w3.org/2000/svg">
  <path fill="currentColor" d="M12.668 21.74a7.632 7.632 0 0 1-5.456-2.114 6.606 6.606 0 0 1-1.879-5.386 5.721 5.721 0 0 1-.382-.35 6.843 6.843 0 0 1-1.88-5.514A11.495 11.495 0 0 1 6.706 1.47l1.06 1.06a10.046 10.046 0 0 0-3.203 5.985 5.357 5.357 0 0 0 1.131 3.965A13.185 13.185 0 0 1 9.07 7.27a9.624 9.624 0 0 1 4.733-2.828 4.015 4.015 0 0 1 3.681.93c1.425 1.425 1.616 4.304-1.336 7.256-3.214 3.214-6.77 3.678-9.341 2.533a5.035 5.035 0 0 0 1.467 3.405c2.457 2.454 7.56 2.567 12.185-2.057l1.06 1.06c-2.946 2.947-6.11 4.17-8.85 4.17Zm-5.712-8.18c2.015 1.185 5.105 1.033 8.13-1.992 2.124-2.124 2.28-4.192 1.337-5.135a2.515 2.515 0 0 0-2.332-.519 7.962 7.962 0 0 0-3.96 2.417 11.051 11.051 0 0 0-3.175 5.229Z"/>
</svg>
