<svg fill="none" viewBox="0 0 24 24" xmlns="http://www.w3.org/2000/svg">
  <path fill="currentColor" d="m6.24 16.852.862-2.079c.35.146.737.227 1.148.227h1.875v2.25H8.25c-.712 0-1.39-.142-2.01-.398Zm7.635.398V15h1.875c.41 0 .797-.081 1.148-.227l.862 2.079a5.234 5.234 0 0 1-2.01.398h-1.875Zm6.727-3.24-2.079-.862c.146-.35.227-.737.227-1.148 0-.41-.081-.797-.227-1.148l2.079-.862c.256.62.398 1.298.398 2.01 0 .712-.142 1.39-.398 2.01ZM10.125 6.75H8.25c-.712 0-1.39.142-2.01.398l.862 2.079C7.452 9.08 7.84 9 8.25 9h1.875V6.75ZM3.398 9.99l2.079.862c-.146.35-.227.737-.227 1.148 0 .41.081.797.227 1.148l-2.079.862A5.234 5.234 0 0 1 3 12c0-.712.142-1.39.398-2.01Zm10.477-3.24V9h1.875c.41 0 .797.081 1.148.227l.862-2.079a5.234 5.234 0 0 0-2.01-.398h-1.875Z" clip-rule="evenodd"/>
</svg>
