<svg fill="none" viewBox="0 0 24 24" xmlns="http://www.w3.org/2000/svg">
  <path fill="currentColor" d="M17.5 3.5v2.14a3.15 3.15 0 0 1-.829 2.126l-3.032 3.264-.829.97.83.97 3.031 3.265a3.15 3.15 0 0 1 .829 2.126V20.5h-11v-2.14c0-.787.297-1.546.829-2.126l3.032-3.264.829-.97-.83-.97-3.03-3.264a3.15 3.15 0 0 1-.83-2.127V3.5h11ZM19 2H5v3.64a4.63 4.63 0 0 0 1.186 3.095L9.218 12l-3.032 3.265A4.632 4.632 0 0 0 5 18.36V22h14v-3.64a4.632 4.632 0 0 0-1.186-3.095L14.782 12l3.032-3.265A4.632 4.632 0 0 0 19 5.64V2Z"/>
</svg>
