<svg fill="none" viewBox="0 0 24 24" xmlns="http://www.w3.org/2000/svg">
  <path fill="currentColor" d="M2.462 5.712a1.579 1.579 0 0 0 0 2.233l3.25 3.25a1.579 1.579 0 0 0 2.233 0l3.25-3.25a1.579 1.579 0 0 0 0-2.233l-3.25-3.25a1.579 1.579 0 0 0-2.233 0l-3.25 3.25ZM3.58 6.83l1.116-1.117 1.017-1.017L6.83 3.58l1.116 1.116 1.017 1.017L10.08 6.83 8.962 7.945 7.945 8.962 6.83 10.08 5.712 8.962 4.695 7.945 3.58 6.83Zm-1.117 9.226a1.579 1.579 0 0 0 0 2.233l3.25 3.25a1.579 1.579 0 0 0 2.233 0l3.25-3.25a1.579 1.579 0 0 0 0-2.233l-3.25-3.25a1.579 1.579 0 0 0-2.233 0l-3.25 3.25ZM3.58 17.17l1.116-1.116 1.017-1.018L6.83 13.92l1.116 1.117 1.017 1.017 1.117 1.116-1.117 1.117-1.017 1.017L6.83 20.42l-1.117-1.116-1.017-1.017L3.58 17.17Zm9.225-11.459 3.25-3.25a1.579 1.579 0 0 1 2.233 0l3.25 3.25a1.579 1.579 0 0 1 0 2.233l-3.25 3.25a1.579 1.579 0 0 1-2.233 0l-3.25-3.25a1.579 1.579 0 0 1 0-2.233Zm2.232 0L13.92 6.83l1.117 1.116 1.017 1.017 1.116 1.117 1.116-1.117 1.018-1.017L20.42 6.83l-1.116-1.117-1.017-1.017L17.17 3.58l-1.116 1.116-1.017 1.017Zm1.018 7.093-3.25 3.25a1.579 1.579 0 0 0 0 2.233l3.25 3.25a1.579 1.579 0 0 0 2.233 0l3.25-3.25a1.579 1.579 0 0 0 0-2.233l-3.25-3.25a1.579 1.579 0 0 0-2.233 0ZM13.92 17.17l1.117-1.116 1.017-1.018 1.116-1.116 1.116 1.117 1.018 1.017 1.116 1.116-1.116 1.117-1.017 1.017-1.117 1.116-1.116-1.116-1.017-1.017-1.117-1.117Z" clip-rule="evenodd"/>
</svg>
