<svg fill="none" viewBox="0 0 24 24" xmlns="http://www.w3.org/2000/svg">
  <path fill="currentColor" d="M3 18.5h2V17H3v1.5Zm16 0h2V17h-2v1.5Zm-4 0h2V17h-2v1.5Zm-4 0h2V17h-2v1.5Zm-4 0h2V17H7v1.5Zm-4-5h18V12H3v1.5Zm15.273-6.423a2.49 2.49 0 0 1-3.546 0 4.003 4.003 0 0 0-5.454 0 2.78 2.78 0 0 1-1.773.736 2.78 2.78 0 0 1-1.773-.736A4.266 4.266 0 0 0 3 6v1.5a2.78 2.78 0 0 1 1.773.735A4.266 4.266 0 0 0 7.5 9.313a4.266 4.266 0 0 0 2.727-1.078 2.49 2.49 0 0 1 3.546 0A4.266 4.266 0 0 0 16.5 9.313a4.266 4.266 0 0 0 2.727-1.078A2.78 2.78 0 0 1 21 7.5V6a4.266 4.266 0 0 0-2.727 1.077Z"/>
</svg>
