<svg fill="none" viewBox="0 0 24 24" xmlns="http://www.w3.org/2000/svg">
  <path fill="currentColor" d="M20.485 3.514a4.998 4.998 0 0 0-7.071 0L11.218 5.71a5.822 5.822 0 0 1 1.84.28l1.416-1.415a3.5 3.5 0 0 1 4.95 4.95l-4.242 4.242a3.504 3.504 0 0 1-4.95 0 3.225 3.225 0 0 1-.795-1.327l-1.116 1.116c.2.475.488.907.85 1.272a5 5 0 0 0 7.071 0l4.243-4.243a5 5 0 0 0 0-7.07Zm-10.96 15.91a3.5 3.5 0 1 1-4.95-4.95l4.243-4.242a3.504 3.504 0 0 1 4.95 0c.368.371.64.827.794 1.327l1.116-1.116a3.984 3.984 0 0 0-.85-1.272 5 5 0 0 0-7.071 0l-4.243 4.243a5 5 0 0 0 7.071 7.07l2.196-2.195a5.82 5.82 0 0 1-1.84-.28l-1.416 1.415Z"/>
</svg>
