<svg fill="none" viewBox="0 0 24 24" xmlns="http://www.w3.org/2000/svg">
  <path fill="currentColor" d="M12 1.5a7.502 7.502 0 0 1 7.494 7.494c0 5.371-5.998 11.466-7.494 12.903-1.496-1.436-7.494-7.531-7.494-12.903A7.502 7.502 0 0 1 12 1.5ZM12 0a9.004 9.004 0 0 0-8.994 8.994c0 6.762 7.985 14.027 8.325 14.333l.669.602.669-.602c.34-.306 8.325-7.57 8.325-14.333A9.004 9.004 0 0 0 12 0Z"/>
  <path fill="currentColor" d="M12 7.15a1.85 1.85 0 1 1 0 3.7 1.85 1.85 0 0 1 0-3.7Zm0-1.4a3.25 3.25 0 1 0 0 6.5 3.25 3.25 0 0 0 0-6.5Z"/>
</svg>
