<svg fill="none" viewBox="0 0 24 24" xmlns="http://www.w3.org/2000/svg">
  <path fill="currentColor" d="M12 2a10 10 0 1 0 0 20 10 10 0 0 0 0-20Zm7.496 6h-3.167a11.219 11.219 0 0 0-1.66-4.064A8.538 8.538 0 0 1 19.496 8Zm1.004 4c0 .848-.127 1.69-.376 2.5h-3.537a19.352 19.352 0 0 0 0-5h3.537c.25.81.376 1.652.376 2.5ZM12 20.5c-1.223 0-2.284-1.823-2.823-4.5h5.646c-.539 2.677-1.6 4.5-2.823 4.5Zm-3.059-6a22.203 22.203 0 0 1 0-5h6.118c.095.83.142 1.665.141 2.5 0 .835-.046 1.67-.141 2.5H8.94ZM3.5 12c0-.848.127-1.69.376-2.5h3.538a19.195 19.195 0 0 0 0 5H3.876A8.47 8.47 0 0 1 3.5 12ZM12 3.5c1.223 0 2.284 1.823 2.823 4.5H9.177c.539-2.677 1.6-4.5 2.823-4.5Zm-2.67.436A11.22 11.22 0 0 0 7.672 8H4.504a8.539 8.539 0 0 1 4.827-4.064ZM4.505 16h3.167a11.22 11.22 0 0 0 1.66 4.064A8.539 8.539 0 0 1 4.504 16Zm10.165 4.064A11.22 11.22 0 0 0 16.33 16h3.167a8.54 8.54 0 0 1-4.827 4.064Z"/>
</svg>
