<svg fill="none" viewBox="0 0 24 24" xmlns="http://www.w3.org/2000/svg">
  <path fill="currentColor" d="M12.75 4.8a1.5 1.5 0 1 0-1.5 0v1.45H7A2.75 2.75 0 0 0 4.25 9v8A2.75 2.75 0 0 0 7 19.75h10A2.75 2.75 0 0 0 19.75 17V9A2.75 2.75 0 0 0 17 6.25h-4.25V4.8Zm-7 4.2c0-.69.56-1.25 1.25-1.25h10c.69 0 1.25.56 1.25 1.25v8c0 .69-.56 1.25-1.25 1.25H7c-.69 0-1.25-.56-1.25-1.25V9Zm-4 7v-6h1.5v6h-1.5Zm19 0v-6h1.5v6h-1.5ZM10.5 12.5a1.5 1.5 0 1 1-3 0 1.5 1.5 0 0 1 3 0ZM15 14a1.5 1.5 0 1 0 0-3 1.5 1.5 0 0 0 0 3Z" clip-rule="evenodd"/>
</svg>
