<svg fill="none" viewBox="0 0 24 24" xmlns="http://www.w3.org/2000/svg">
  <path fill="currentColor" d="M18.5 4h-5.75V2.75a.75.75 0 1 0-1.5 0V4H5.5L1 13.994a4.68 4.68 0 0 0 4.5 3.203 4.68 4.68 0 0 0 4.5-3.203L6.176 5.5h5.074v13.96L7 20.12V21h10v-.88l-4.25-.66V5.5h5.075L14 13.994a4.763 4.763 0 0 0 9 0L18.5 4Zm-13 11.697a3.195 3.195 0 0 1-2.863-1.686L2.642 14h5.716l.005.011A3.194 3.194 0 0 1 5.5 15.697ZM3.273 12.6 5.5 7.653 7.727 12.6H3.273Zm17.454 0h-4.454L18.5 7.653l2.227 4.947ZM18.5 15.697a3.194 3.194 0 0 1-2.863-1.686l.005-.011h5.716l.005.011a3.194 3.194 0 0 1-2.863 1.686Z"/>
</svg>
