<svg fill="none" viewBox="0 0 24 24" xmlns="http://www.w3.org/2000/svg">
  <path fill="#99B6B2" fill-opacity=".2" d="M4 3a1 1 0 0 0-1 1v7.25h18V4a1 1 0 0 0-1-1H4Zm17 9.75H3V20a1 1 0 0 0 1 1h16a1 1 0 0 0 1-1v-7.25Z" clip-rule="evenodd"/>
  <path fill="#39C4A5" d="M13 7.5a1.5 1.5 0 1 1-3 0 1.5 1.5 0 0 1 3 0ZM16.5 9a1.5 1.5 0 1 0 0-3 1.5 1.5 0 0 0 0 3Zm0 9a1.5 1.5 0 1 0 0-3 1.5 1.5 0 0 0 0 3Zm-5 0a1.5 1.5 0 1 0 0-3 1.5 1.5 0 0 0 0 3Z" clip-rule="evenodd"/>
  <path fill="#849997" d="M4.5 11.25V4.5h15v6.75h-15Zm0 1.5v6.75h15v-6.75h-15ZM3 4a1 1 0 0 1 1-1h16a1 1 0 0 1 1 1v16a1 1 0 0 1-1 1H4a1 1 0 0 1-1-1V4Z" clip-rule="evenodd"/>
</svg>
