<svg xmlns="http://www.w3.org/2000/svg" fill="none" viewBox="0 0 32 32" class="acv-icon"><path fill="#2668C5" d="M11.54 10.02 16 8.11l4.46 1.91L16 11.93l-4.46-1.91ZM17 19.5l5-2.14v-5.82l-5 2.14v5.82ZM15 19.5l-5-2.14v-5.82l5 2.14v5.82Z"/><path fill="#2668C5" fill-rule="evenodd" d="M4 3a2 2 0 0 0-2 2v18a2 2 0 0 0 2 2h8l-.845 3.379a.5.5 0 0 0 .485.621h8.72a.5.5 0 0 0 .485-.621L20 25h8a2 2 0 0 0 2-2V5a2 2 0 0 0-2-2H4Zm19.833 15.551a1 1 0 0 0 .167-.552v-8a1 1 0 0 0-.61-.92l-7-3a1 1 0 0 0-.78 0l-7 3A1 1 0 0 0 8 10v8a1 1 0 0 0 .61.92l7 3a1.001 1.001 0 0 0 .78 0l7-3a1 1 0 0 0 .443-.368Z" clip-rule="evenodd"/></svg>