<svg xmlns="http://www.w3.org/2000/svg" fill="none" viewBox="0 0 32 32" class="acv-icon"><path fill="#2668C5" fill-rule="evenodd" d="M27 2c1.102 0 2 .896 2 1.995v15.01c0 1.54-1 2.451-2.633 2.81-1.038.227-2 .253-4.366.205l-.36-.007A58.95 58.95 0 0 0 20.5 22c-.836 0-1.08.436-1.014.836.412 2.467.508 3.251.514 3.987V27a4 4 0 0 1-8 0v-.178c.006-.736.102-1.52.514-3.986.066-.398-.18-.836-1.014-.836-.346 0-.698.005-1.212.015l-.283.005c-2.361.048-3.326.022-4.365-.206C4.003 21.456 3 20.546 3 19.005V3.995C3 2.892 3.897 2 5 2h22Zm0 15H5v2.005c0 .448.253.678 1.067.856.823.18 1.716.204 3.898.16l.284-.006c.526-.01.889-.015 1.251-.015 2.286 0 3.232 1.69 2.986 3.165-.394 2.364-.482 3.073-.486 3.671V27a2 2 0 1 0 4 0v-.162c-.005-.598-.092-1.307-.486-3.674-.247-1.477.7-3.164 2.986-3.164.345 0 .698.004 1.179.014l.363.007c2.185.044 3.076.02 3.896-.16.81-.178 1.062-.407 1.062-.856V17ZM25.97 3.997c.654 0 1.03-.001 1.03-.002V15H5V4h2v2.997A.994.994 0 0 0 8 8c.556 0 1-.449 1-1.003V4.001h1.315L12 4.002v6.994A.994.994 0 0 0 13 12c.556 0 1-.449 1-1.003V4.001L18.084 4 18 4.003v4.994A.994.994 0 0 0 19 10c.556 0 1-.449 1-1.003V4l3.05-.001H23V7c0 .556.448 1 1 1 .556 0 1-.448 1-1V3.998h.97Z" clip-rule="evenodd"/></svg>