<svg xmlns="http://www.w3.org/2000/svg" fill="none" viewBox="0 0 24 24" class="acv-icon"><path fill="#2668C5" d="M6.293 11.405a.847.847 0 0 0 1.21-.082 5.908 5.908 0 0 1 8.995 0c.311.362.853.399 1.21.082a.884.884 0 0 0 .08-1.232 7.602 7.602 0 0 0-11.576 0 .883.883 0 0 0 .08 1.232Z"/><path fill="#2668C5" d="M15.414 13.717a.848.848 0 0 1-1.188-.242 2.649 2.649 0 0 0-4.452 0 .848.848 0 0 1-1.188.242.882.882 0 0 1-.238-1.21 4.347 4.347 0 0 1 7.304 0 .882.882 0 0 1-.238 1.21Z"/><path fill="#2668C5" d="M12 16.73c.812 0 1.47-.669 1.47-1.495 0-.826-.659-1.496-1.47-1.496-.812 0-1.47.67-1.47 1.496s.659 1.496 1.47 1.496Z"/><path fill="#2668C5" fill-rule="evenodd" d="M5 4a4 4 0 0 0-4 4v8a4 4 0 0 0 4 4h14a4 4 0 0 0 4-4V8a4 4 0 0 0-4-4H5Zm14 2H5a2 2 0 0 0-2 2v8a2 2 0 0 0 2 2h14a2 2 0 0 0 2-2V8a2 2 0 0 0-2-2Z" clip-rule="evenodd"/></svg>