<svg xmlns="http://www.w3.org/2000/svg" fill="none" viewBox="0 0 24 24" class="acv-icon"><path fill="#2668C5" d="M2 15V5.3A2.3 2.3 0 0 1 4.3 3h15.4A2.3 2.3 0 0 1 22 5.3V15a1 1 0 1 1-2 0V5.3a.3.3 0 0 0-.3-.3H4.3a.3.3 0 0 0-.3.3V15a1 1 0 1 1-2 0ZM0 18v1.5A1.5 1.5 0 0 0 1.5 21h21a1.5 1.5 0 0 0 1.5-1.5V18h-8a1 1 0 0 1-1 1H9a1 1 0 0 1-1-1H0Z"/><path fill="#2668C5" d="M7.83 8.132a.475.475 0 0 0-.129.351.47.47 0 0 0 .136.359c.09.083.21.125.358.125a.493.493 0 0 0 .348-.125.47.47 0 0 0 .135-.359.468.468 0 0 0-.132-.351A.475.475 0 0 0 8.195 8a.493.493 0 0 0-.365.132ZM7.738 13.233h.9V9.467h-.9v3.766ZM5 8.29v4.944h2.194v-.805H5.92V8.29H5ZM11.285 13.233V10.99c0-.273-.033-.48-.098-.619-.066-.14-.171-.21-.318-.21-.194 0-.336.097-.426.291-.09.192-.135.516-.135.974v1.808h-.9V9.467h.714l.108.484h.058a.945.945 0 0 1 .348-.406.945.945 0 0 1 .53-.149c.343 0 .599.117.768.352.171.234.257.577.257 1.028v2.457h-.906ZM14.842 12.75l.111.483h.72V9.467h-.91v1.806c0 .457-.044.783-.134.977-.088.194-.23.29-.423.29-.146 0-.252-.07-.318-.21-.065-.139-.098-.346-.098-.621V9.467h-.91v2.458c0 .458.087.801.261 1.031.174.23.43.345.768.345a.966.966 0 0 0 .527-.145.979.979 0 0 0 .358-.406h.048ZM17.076 11.31l-.94-1.843h.934l.5 1.15.463-1.15h.926l-.946 1.843.987 1.923h-.94l-.534-1.203-.497 1.204h-.936l.983-1.924Z"/></svg>