<svg xmlns="http://www.w3.org/2000/svg" fill="none" viewBox="0 0 16 16" class="acv-icon"><g fill="#2668C5" clip-path="url(#a)"><path d="M14.088 4.987C13.44 2.11 10.944 0 8 0 5.385 0 3.093 1.67 2.173 4.115.855 4.828 0 6.243 0 7.818 0 10.12 1.81 12 4.063 12a1 1 0 1 0 0-2C2.933 10 2 9.032 2 7.818c0-.925.549-1.735 1.348-2.047a1 1 0 0 0 .594-.646C4.493 3.275 6.133 2 8 2c2.114 0 3.909 1.632 4.207 3.817a1 1 0 0 0 .667.811c.66.227 1.126.884 1.126 1.645C14 9.235 13.264 10 12.375 10h-.373a1 1 0 1 0 0 2h.373C14.385 12 16 10.323 16 8.273c0-1.396-.754-2.648-1.912-3.286Z"/><path d="M8 7a1.5 1.5 0 1 1 0-3 1.5 1.5 0 0 1 0 3ZM9.5 12.7l-.436 2.875A.5.5 0 0 1 8.57 16H7.43a.5.5 0 0 1-.494-.425L6.5 12.7l-.427-.426a.3.3 0 0 1-.085-.177l-.355-2.979A1 1 0 0 1 6.626 8h2.748a1 1 0 0 1 .993 1.118l-.355 2.979a.3.3 0 0 1-.086.177L9.5 12.7Z"/></g><defs><clipPath id="a"><path fill="#fff" d="M0 0h16v16H0z"/></clipPath></defs></svg>