<svg xmlns="http://www.w3.org/2000/svg" fill="none" viewBox="0 0 32 32" class="acv-icon"><path fill="#2668C5" d="M14.842 19.765h.606c.566 0 .99-.103 1.27-.31.282-.206.423-.506.423-.9 0-.397-.118-.69-.354-.88-.235-.19-.605-.285-1.108-.285h-.837v2.375Z"/><path fill="#2668C5" fill-rule="evenodd" d="M16 3a1 1 0 0 1 1 1v7a1 1 0 0 0 1 1h7a1 1 0 0 1 1 1v15a1 1 0 0 1-1 1H7a1 1 0 0 1-1-1V4a1 1 0 0 1 1-1h9Zm-1.158 21v-2.845h.79c1.077 0 1.908-.228 2.492-.684.584-.456.876-1.115.876-1.976 0-.828-.274-1.45-.823-1.869-.548-.417-1.35-.626-2.403-.626H13v8h1.842Z" clip-rule="evenodd"/><path fill="#2668C5" d="M20 10a1 1 0 0 1-1-1V4.207a.5.5 0 0 1 .854-.353l5.292 5.292a.5.5 0 0 1-.353.854H20Z"/></svg>