<svg xmlns="http://www.w3.org/2000/svg" fill="none" viewBox="0 0 16 16" class="acv-icon"><path fill="#2668C5" d="M7.05 7.843h.548c.512 0 .895-.101 1.15-.304.253-.202.38-.497.38-.883 0-.39-.106-.679-.32-.865-.212-.186-.546-.28-1-.28H7.05v2.332Z"/><path fill="#2668C5" fill-rule="evenodd" d="M1 1a1 1 0 0 1 1-1h12a1 1 0 0 1 1 1v14a1 1 0 0 1-1 1H2a1 1 0 0 1-1-1V1Zm6.05 11V9.207h.714c.974 0 1.725-.224 2.253-.671.528-.448.793-1.094.793-1.94 0-.812-.248-1.424-.744-1.834-.496-.41-1.22-.615-2.173-.615H5.385V12H7.05Z" clip-rule="evenodd"/></svg>