<svg xmlns="http://www.w3.org/2000/svg" fill="none" viewBox="0 0 24 24" class="acv-icon"><path stroke="#141414" stroke-linecap="round" stroke-linejoin="round" stroke-width="1.5" d="M19.25 12A7.25 7.25 0 1 1 12 4.75"/><path stroke="#141414" stroke-linecap="round" stroke-linejoin="round" d="M9.5 10a.5.5 0 1 1-1 0 .5.5 0 0 1 1 0ZM11.5 15a.5.5 0 1 1-1 0 .5.5 0 0 1 1 0ZM16.5 14a.5.5 0 1 1-1 0 .5.5 0 0 1 1 0Z"/><path stroke="#141414" stroke-linecap="round" stroke-linejoin="round" stroke-width="1.5" d="M15 4.75 14 10l5.25-1v-.25a4 4 0 0 0-4-4H15Z"/></svg>