<svg xmlns="http://www.w3.org/2000/svg" fill="none" viewBox="0 0 24 24" class="acv-icon"><path stroke="#141414" stroke-linecap="round" stroke-linejoin="round" stroke-width="1.5" d="M11.742 15.9 8.75 14.75v4.5l2.992-1.15c.669.57 1.663 1.15 2.943 1.15 2.521 0 4.565-1.007 4.565-2.25s-2.044-2.25-4.565-2.25c-1.28 0-2.274.58-2.943 1.15ZM7.374 7.374 4.75 4.75v8.5l2.624-2.624C8.436 11.438 10 12.25 12 12.25c4.004 0 7.25-1.455 7.25-3.25S16.004 5.75 12 5.75c-2.001 0-3.564.812-4.626 1.624Z"/><path stroke="#141414" stroke-linecap="round" stroke-linejoin="round" d="M15.5 9a.5.5 0 1 1-1 0 .5.5 0 0 1 1 0Z"/></svg>