<svg xmlns="http://www.w3.org/2000/svg" fill="none" viewBox="0 0 16 16" class="acv-icon"><g fill="#2668C5" clip-path="url(#a)"><path d="M8 0a1 1 0 0 0-1 1v2a1 1 0 0 0 2 0V1a1 1 0 0 0-1-1ZM12 1.072a1 1 0 0 0-1.366.366l-1 1.732a1 1 0 1 0 1.732 1l1-1.732A1 1 0 0 0 12 1.072ZM13.562 3.634a1 1 0 1 1 1 1.732l-1.732 1a1 1 0 0 1-1-1.732l1.732-1ZM16 8a1 1 0 0 0-1-1h-2a1 1 0 1 0 0 2h2a1 1 0 0 0 1-1ZM14.562 10.634a1 1 0 1 1-1 1.732l-1.732-1a1 1 0 0 1 1-1.732l1.732 1ZM12 14.928a1 1 0 0 0 .366-1.366l-1-1.732a1 1 0 0 0-1.732 1l1 1.732a1 1 0 0 0 1.366.366ZM9 15a1 1 0 1 1-2 0v-2a1 1 0 1 1 2 0v2ZM4 14.928a1 1 0 0 0 1.366-.366l1-1.732a1 1 0 1 0-1.732-1l-1 1.732A1 1 0 0 0 4 14.928ZM2.438 12.366a1 1 0 1 1-1-1.732l1.732-1a1 1 0 1 1 1 1.732l-1.732 1ZM0 8a1 1 0 0 0 1 1h2a1 1 0 1 0 0-2H1a1 1 0 0 0-1 1ZM1.438 5.366a1 1 0 0 1 1-1.732l1.732 1a1 1 0 1 1-1 1.732l-1.732-1ZM4 1.072a1 1 0 0 0-.366 1.366l1 1.732a1 1 0 0 0 1.732-1l-1-1.732A1 1 0 0 0 4 1.072Z"/></g><defs><clipPath id="a"><path fill="#fff" d="M0 0h16v16H0z"/></clipPath></defs></svg>