<svg xmlns="http://www.w3.org/2000/svg" fill="none" viewBox="0 0 24 24" class="acv-icon"><path stroke="#141414" stroke-linecap="round" stroke-linejoin="round" stroke-width="1.5" d="M9.25 12.75h-3.5a1 1 0 0 0-1 1v2.5a1 1 0 0 0 1 1h3.5a1 1 0 0 0 1-1v-2.5a1 1 0 0 0-1-1ZM18.25 12.75h-3.5a1 1 0 0 0-1 1v2.5a1 1 0 0 0 1 1h3.5a1 1 0 0 0 1-1v-2.5a1 1 0 0 0-1-1Z"/><path stroke="#141414" stroke-linecap="round" stroke-linejoin="round" stroke-width="1.5" d="m16.75 6.75 2.5 6.5V15M7.25 6.75l-2.5 6.5V15M13.5 14.25h-3"/></svg>