<svg xmlns="http://www.w3.org/2000/svg" fill="none" viewBox="0 0 16 16" class="acv-icon"><path fill="#2668C5" d="M8.02 4a2.003 2.003 0 0 1-2.005-2c0-1.105.898-2 2.006-2 1.108 0 2.006.895 2.006 2S9.129 4 8.02 4ZM12.534 5c-.83 0-1.504-.672-1.504-1.5S11.703 2 12.534 2s1.505.672 1.505 1.5S13.365 5 12.534 5ZM2.003 3.5c0 .828.674 1.5 1.504 1.5.831 0 1.505-.672 1.505-1.5S4.338 2 3.507 2c-.83 0-1.504.672-1.504 1.5ZM8 13a5 5 0 0 1 2.821-4.502l.16-1.871A1.502 1.502 0 0 0 9.48 5h-2.92a1.501 1.501 0 0 0-1.5 1.627l.267 3.137a1 1 0 0 0 .384.705l.686.531.43 4.547a.5.5 0 0 0 .499.453h1.388a.5.5 0 0 0 .24-.06A4.977 4.977 0 0 1 8 13ZM14.922 8.383a4.984 4.984 0 0 0-2.103-.38L12.982 6h.514a1.502 1.502 0 0 1 1.497 1.644l-.071.739ZM3.494 16H4.97l-.444-4.91-.837-.675a.999.999 0 0 1-.368-.696L3.018 6h-.514a1.502 1.502 0 0 0-1.497 1.644l.298 3.091a1 1 0 0 0 .431.73L2.52 12l.477 3.566a.501.501 0 0 0 .497.434Z"/><path fill="#2668C5" fill-rule="evenodd" d="M16 13a3 3 0 1 1-6 0 3 3 0 0 1 6 0Zm-3.354-1.854-1 1a.5.5 0 0 0 .708.708l.146-.147V14.5a.5.5 0 0 0 1 0v-1.793l.146.147a.5.5 0 0 0 .708-.708l-1-1a.5.5 0 0 0-.708 0Z" clip-rule="evenodd"/></svg>