<svg xmlns="http://www.w3.org/2000/svg" fill="none" viewBox="0 0 16 16" class="acv-icon"><g fill="#2668C5" fill-rule="evenodd" clip-path="url(#a)" clip-rule="evenodd"><path d="M8.394.08a1 1 0 0 0-.788 0l-7 3A1 1 0 0 0 0 4v8a1 1 0 0 0 .606.92l7 3a1 1 0 0 0 .788 0l.422-.182A4.977 4.977 0 0 1 8 13c0-1.126.372-2.165 1-3V7.66l5-2.143V8.1c.739.15 1.419.463 2 .9V4a1 1 0 0 0-.606-.92l-7-3ZM2 11.34V5.518l5 2.142v5.824l-5-2.142Zm6-5.428L3.539 4 8 2.088 12.461 4 8 5.912Z"/><path d="M16 13a3 3 0 1 1-6 0 3 3 0 0 1 6 0Zm-3.354-1.854-1 1a.5.5 0 0 0 .708.708l.146-.147V14.5a.5.5 0 0 0 1 0v-1.793l.146.147a.5.5 0 0 0 .708-.708l-1-1a.5.5 0 0 0-.708 0Z"/></g><defs><clipPath id="a"><path fill="#fff" d="M0 0h16v16H0z"/></clipPath></defs></svg>