<svg xmlns="http://www.w3.org/2000/svg" fill="none" viewBox="0 0 16 16" class="acv-icon"><path fill="#2668C5" d="M0 2a1 1 0 0 1 1-1h14a1 1 0 0 1 1 1v7a4.977 4.977 0 0 0-2-.9V3H2v7h7c-.628.836-1 1.874-1 3 0 .711.148 1.387.416 2H5a1 1 0 1 1 0-2h2v-1H1a1 1 0 0 1-1-1V2Z"/><path fill="#2668C5" d="M4 4a1 1 0 0 0-1 1v3a1 1 0 0 0 2 0V5a1 1 0 0 0-1-1ZM6 5a1 1 0 0 1 2 0v3a1 1 0 0 1-2 0V5ZM12 6a1 1 0 1 0 0-2 1 1 0 0 0 0 2Z"/><path fill="#2668C5" fill-rule="evenodd" d="M16 13a3 3 0 1 1-6 0 3 3 0 0 1 6 0Zm-3.354-1.854-1 1a.5.5 0 0 0 .708.708l.146-.147V14.5a.5.5 0 0 0 1 0v-1.793l.146.147a.5.5 0 0 0 .708-.708l-1-1a.5.5 0 0 0-.708 0Z" clip-rule="evenodd"/></svg>