<svg xmlns="http://www.w3.org/2000/svg" fill="none" viewBox="0 0 24 24" class="acv-icon"><path fill="#2668C5" fill-rule="evenodd" d="M20 14c1.093 0 2.117.292 3 .803V2.992A1 1 0 0 0 22.008 2H1.992A1 1 0 0 0 1 2.992v18.016a1 1 0 0 0 .992.992h12.35A5.99 5.99 0 0 1 14 20H3v-4h12.528A5.985 5.985 0 0 1 20 14Zm0 0H3v-4h18v4h-1Zm1-6H3V4h18v4ZM4 6a1 1 0 1 0 2 0 1 1 0 0 0-2 0Zm0 6a1 1 0 1 0 2 0 1 1 0 0 0-2 0Zm9 1a1 1 0 1 1 0-2 1 1 0 0 1 0 2Zm2-1a1 1 0 1 0 2 0 1 1 0 0 0-2 0Zm3 0a1 1 0 1 0 2 0 1 1 0 0 0-2 0ZM5 19a1 1 0 1 1 0-2 1 1 0 0 1 0 2ZM16 7a1 1 0 1 1 0-2 1 1 0 0 1 0 2Zm2-1a1 1 0 1 0 2 0 1 1 0 0 0-2 0Z" clip-rule="evenodd"/></svg>