<svg xmlns="http://www.w3.org/2000/svg" fill="none" viewBox="0 0 32 32" class="acv-icon"><path fill="#2668C5" d="M24 16a1 1 0 1 0 2 0 1 1 0 0 0-2 0ZM21 16a1 1 0 1 0 2 0 1 1 0 0 0-2 0ZM19 17a1 1 0 1 1 0-2 1 1 0 0 1 0 2ZM6 16a1 1 0 1 0 2 0 1 1 0 0 0-2 0ZM25 25a1 1 0 1 1 0-2 1 1 0 0 1 0 2ZM21 24a1 1 0 1 0 2 0 1 1 0 0 0-2 0ZM7 25a1 1 0 1 1 0-2 1 1 0 0 1 0 2ZM24 8a1 1 0 1 0 2 0 1 1 0 0 0-2 0ZM22 9a1 1 0 1 1 0-2 1 1 0 0 1 0 2ZM6 8a1 1 0 1 0 2 0 1 1 0 0 0-2 0Z"/><path fill="#2668C5" fill-rule="evenodd" d="M3 3h26a1 1 0 0 1 1 1v24a1 1 0 0 1-1 1H3a1 1 0 0 1-1-1V4a1 1 0 0 1 1-1Zm1 16h24v-6H4v6Zm0 2h24v6H4v-6Zm24-10V5H4v6h24Z" clip-rule="evenodd"/></svg>