<svg xmlns="http://www.w3.org/2000/svg" fill="none" viewBox="0 0 16 16" class="acv-icon"><path fill="#2668C5" d="M8.021 6.195h-.04l-.046.128-.874 2.039h1.878l-.871-2.039-.047-.128ZM6.716 9.147l-.288.654h3.144l-.288-.654H6.716Z"/><path fill="#2668C5" fill-rule="evenodd" d="M14 6.25c0 .478-.06.942-.175 1.382 1.282.6 2.175 1.95 2.175 3.518 0 2.126-1.642 3.85-3.667 3.85H3c-1.657 0-3-1.41-3-3.15 0-1.169.606-2.19 1.507-2.733A3.655 3.655 0 0 1 1.333 8c0-1.794 1.286-3.273 2.944-3.476C4.957 2.472 6.815 1 9 1c2.761 0 5 2.35 5 5.25ZM4.5 12l3.075-7h.85l3.075 7h-.98l-.603-1.413H6.083L5.48 12H4.5Z" clip-rule="evenodd"/></svg>