<svg xmlns="http://www.w3.org/2000/svg" fill="none" viewBox="0 0 32 32" class="acv-icon"><path fill="#2668C5" fill-rule="evenodd" d="M14.592 3.583c.265-.559.812-.914 1.408-.917a1.577 1.577 0 0 1 1.41.917l2.903 6.15c.23.484.67.82 1.183.898l6.493.986a1.598 1.598 0 0 1 1.268 1.117c.184.594.03 1.247-.397 1.682l-4.7 4.786a1.69 1.69 0 0 0-.45 1.455l1.109 6.758c.1.615-.142 1.239-.623 1.605a1.52 1.52 0 0 1-1.657.125l-5.806-3.19a1.512 1.512 0 0 0-1.464 0l-5.807 3.19c-.53.291-1.17.24-1.656-.125a1.682 1.682 0 0 1-.623-1.605l1.108-6.76a1.685 1.685 0 0 0-.45-1.453l-4.7-4.786a1.689 1.689 0 0 1-.397-1.682 1.597 1.597 0 0 1 1.268-1.117l6.493-.986a1.577 1.577 0 0 0 1.182-.899l2.905-6.149Z" clip-rule="evenodd"/></svg>