<svg xmlns="http://www.w3.org/2000/svg" fill="none" viewBox="0 0 24 24" class="acv-icon"><path fill="#141414" d="m17.23 6.77-.742-.114a.75.75 0 0 0 .856.856l-.115-.741Zm-1.037 2.893.56-.498a.75.75 0 0 0-1.09-.032l.53.53Zm-6.53 6.53-.53-.53a.75.75 0 0 0 .032 1.09l.498-.56Zm-2.892 1.036.74.115a.75.75 0 0 0-.855-.856l.115.741Zm1.036-2.892-.56.498a.75.75 0 0 0 1.09.032l-.53-.53Zm6.53-6.53.53.53a.75.75 0 0 0-.032-1.09l-.498.56Zm3.633-.921c.02-.126.03-.255.03-.386h-1.5c0 .053-.004.105-.012.156l1.482.23ZM17.5 6c-.13 0-.26.01-.386.03l.23 1.482c.05-.008.103-.012.156-.012V6ZM20 8.5A2.5 2.5 0 0 0 17.5 6v1.5a1 1 0 0 1 1 1H20ZM17.5 11A2.5 2.5 0 0 0 20 8.5h-1.5a1 1 0 0 1-1 1V11Zm-1.867-.838A2.496 2.496 0 0 0 17.5 11V9.5a.996.996 0 0 1-.747-.335l-1.12.997Zm-5.44 6.561 6.53-6.53-1.06-1.06-6.53 6.53 1.06 1.06ZM11 17.5c0-.743-.325-1.41-.838-1.867l-.997 1.12c.207.184.335.45.335.747H11ZM8.5 20a2.5 2.5 0 0 0 2.5-2.5H9.5a1 1 0 0 1-1 1V20ZM6 17.5A2.5 2.5 0 0 0 8.5 20v-1.5a1 1 0 0 1-1-1H6Zm.03-.386c-.02.126-.03.255-.03.386h1.5c0-.053.004-.105.012-.156l-1.482-.23ZM6.5 18c.13 0 .26-.01.386-.03l-.23-1.482c-.05.008-.103.012-.156.012V18ZM4 15.5A2.5 2.5 0 0 0 6.5 18v-1.5a1 1 0 0 1-1-1H4ZM6.5 13A2.5 2.5 0 0 0 4 15.5h1.5a1 1 0 0 1 1-1V13Zm1.867.838A2.495 2.495 0 0 0 6.5 13v1.5c.297 0 .563.129.747.335l1.12-.997Zm5.44-6.561-6.53 6.53 1.06 1.06 6.53-6.53-1.06-1.06ZM13 6.5c0 .743.325 1.41.838 1.867l.997-1.12A.996.996 0 0 1 14.5 6.5H13ZM15.5 4A2.5 2.5 0 0 0 13 6.5h1.5a1 1 0 0 1 1-1V4ZM18 6.5A2.5 2.5 0 0 0 15.5 4v1.5a1 1 0 0 1 1 1H18Z"/></svg>