<svg xmlns="http://www.w3.org/2000/svg" fill="none" viewBox="0 0 16 16" class="acv-icon"><path fill="#2668C5" d="M15.839 10.122a4.001 4.001 0 0 0-2.049-4.7 6.003 6.003 0 0 0-11.58 0 4.001 4.001 0 0 0 .46 7.352 1 1 0 0 0 .665-1.887 2.001 2.001 0 0 1 .046-3.79 1 1 0 0 0 .677-.781 4.001 4.001 0 0 1 7.884 0 1 1 0 0 0 .676.781A2.001 2.001 0 0 1 14 9c0 .36-.098.703-.271 1h1.385c.245 0 .492.037.725.122Z"/><path fill="#2668C5" fill-rule="evenodd" d="M8.542 13a1.787 1.787 0 0 0 .41 1.72L9.978 16H5.5a.5.5 0 0 1-.5-.5v-2a.5.5 0 0 1 .5-.5h3.042ZM7.5 15a.5.5 0 1 0 0-1 .5.5 0 0 0 0 1ZM9.176 12H5.5a.5.5 0 0 1-.5-.5v-2a.5.5 0 0 1 .5-.5h5a.5.5 0 0 1 .5.5v.64c-.278.11-.517.28-.719.488l-.032.034L9.176 12Zm.324-1a.5.5 0 1 0 0-1 .5.5 0 0 0 0 1ZM11.746 11a.99.99 0 0 0-.746.323l-1.291 1.612a.79.79 0 0 0 0 1.13l1.29 1.612a.99.99 0 0 0 .747.323h3.368c.577 0 .886-.342.886-.833v-3.334c0-.49-.309-.833-.886-.833h-3.368Zm-.246 3a.5.5 0 1 0 0-1 .5.5 0 0 0 0 1Z" clip-rule="evenodd"/></svg>