<svg xmlns="http://www.w3.org/2000/svg" fill="none" viewBox="0 0 24 24" class="acv-icon"><path stroke="#141414" stroke-linecap="round" stroke-linejoin="round" stroke-width="1.5" d="m14.924 16.002.482 2.432c.106.537.682.895 1.286.8l1.64-.256c.604-.095 1.007-.607.9-1.145l-.481-2.431m-3.827.6-1.157-5.835c-.106-.538.297-1.05.9-1.145l1.64-.257c.605-.095 1.18.264 1.287.801l1.157 5.836m-3.827.6 3.827-.6M8.75 15.75v2.5a1 1 0 0 0 1 1h1.5a1 1 0 0 0 1-1v-2.5m-3.5 0v-8a1 1 0 0 1 1-1h1.5a1 1 0 0 1 1 1v8m-3.5 0h3.5m-7.5 0v2.5a1 1 0 0 0 1 1h1.5a1 1 0 0 0 1-1v-2.5m-3.5 0v-10a1 1 0 0 1 1-1h1.5a1 1 0 0 1 1 1v10m-3.5 0h3.5"/></svg>