<svg xmlns="http://www.w3.org/2000/svg" fill="none" viewBox="0 0 24 24" class="acv-icon"><path fill="#2668C5" fill-rule="evenodd" d="M21 5v14a4 4 0 0 1-4 4H7a4 4 0 0 1-4-4V5a4 4 0 0 1 4-4h10a4 4 0 0 1 4 4Zm-2 0a2 2 0 0 0-2-2H7a2 2 0 0 0-2 2v14a2 2 0 0 0 2 2h10a2 2 0 0 0 2-2V5Z" clip-rule="evenodd"/><path fill="#2668C5" fill-rule="evenodd" d="M8 15a4 4 0 1 1 8 0 4 4 0 0 1-8 0Zm6 0a2 2 0 1 0-4 0 2 2 0 0 0 4 0Z" clip-rule="evenodd"/><path fill="#2668C5" d="M12 9a2 2 0 1 1 0-4 2 2 0 0 1 0 4Z"/></svg>