<svg xmlns="http://www.w3.org/2000/svg" fill="none" viewBox="0 0 24 24" class="acv-icon"><path fill="#2668C5" d="M15 13a1 1 0 1 1 2 0 1 1 0 0 1-2 0ZM16 15a1 1 0 1 0 0 2 1 1 0 0 0 0-2Z"/><path fill="#2668C5" fill-rule="evenodd" d="M9.646 21A4 4 0 0 1 3 18V6a4 4 0 0 1 6.646-3H17a4 4 0 0 1 4 4v10a4 4 0 0 1-4 4H9.646ZM11 18v-1h2a1 1 0 1 0 0-2h-2v-1h2a1 1 0 1 0 0-2h-2v-1h5a1 1 0 0 0 1-1V8a1 1 0 0 0-1-1h-5V6c0-.345-.044-.68-.126-1H17a2 2 0 0 1 2 2v10a2 2 0 0 1-2 2h-6.126A4.01 4.01 0 0 0 11 18ZM5 6a2 2 0 1 1 4 0v12a2 2 0 1 1-4 0V6Z" clip-rule="evenodd"/></svg>