<svg xmlns="http://www.w3.org/2000/svg" fill="none" viewBox="0 0 32 32" class="acv-icon"><path fill="#2668C5" d="M4 2v2h24v24h2V2H4ZM8.63 23h7.12a2.42 2.42 0 1 0-3-2.38c.008.35.097.692.26 1H11a2.24 2.24 0 0 0 .26-1A2.64 2.64 0 1 0 8.63 23Z"/><path fill="#2668C5" fill-rule="evenodd" d="M26 30H2V6h24v24Zm-4-19H9a2 2 0 0 0-2 2h15v10a2 2 0 0 0 2-2v-8a2 2 0 0 0-2-2ZM4.477 15.477A1.63 1.63 0 0 0 4 16.63v7.74A1.63 1.63 0 0 0 5.63 26h12.74A1.63 1.63 0 0 0 20 24.37v-7.74A1.63 1.63 0 0 0 18.37 15H5.63a1.63 1.63 0 0 0-1.153.477Z" clip-rule="evenodd"/></svg>