<svg xmlns="http://www.w3.org/2000/svg" fill="none" viewBox="0 0 24 24" class="acv-icon"><path stroke="#141414" stroke-linecap="round" stroke-linejoin="round" stroke-width="1.5" d="M9.25 7a2.25 2.25 0 1 1-4.5 0 2.25 2.25 0 0 1 4.5 0ZM9.25 17a2.25 2.25 0 1 1-4.5 0 2.25 2.25 0 0 1 4.5 0ZM19.25 17a2.25 2.25 0 1 1-4.5 0 2.25 2.25 0 0 1 4.5 0ZM6.75 9.5v4.75M17.25 14.25v-3.78a3 3 0 0 0-.568-1.756L14 5"/><path stroke="#141414" stroke-linecap="round" stroke-linejoin="round" stroke-width="1.5" d="M13.75 8.25v-3.5h3.5"/></svg>