<svg xmlns="http://www.w3.org/2000/svg" fill="none" viewBox="0 0 16 16" class="acv-icon"><path fill="#2668C5" fill-rule="evenodd" d="M6.658 4.187a2.841 2.841 0 0 1 2.028-.847c1.058 0 1.976.573 2.47 1.425a3.49 3.49 0 0 1 1.393-.289C14.454 4.476 16 5.993 16 7.864c0 1.872-1.546 3.388-3.451 3.388a3.58 3.58 0 0 1-.682-.066 2.538 2.538 0 0 1-2.199 1.26c-.383 0-.761-.085-1.105-.248C8.125 13.2 7.105 14 5.917 14c-1.24 0-2.293-.858-2.699-1.928-.18.037-.364.056-.549.056C1.193 12.128 0 10.948 0 9.5c0-.973.537-1.82 1.335-2.278a2.941 2.941 0 0 1-.256-1.201C1.079 4.35 2.472 3 4.189 3c1.005 0 1.905.466 2.47 1.19" clip-rule="evenodd"/></svg>