<svg xmlns="http://www.w3.org/2000/svg" fill="none" viewBox="0 0 32 32" class="acv-icon"><path fill="#2668C5" d="M8.571 4c-.867 0-1.57.689-1.57 1.538V6H26a1 1 0 0 1 1 1v13.923h.429c.868 0 1.571-.689 1.571-1.538V5.538C29 4.688 28.297 4 27.43 4H8.57ZM13.32 15.883h.359c.328 0 .564-.092.707-.277.144-.188.216-.466.216-.835 0-.383-.077-.655-.231-.816-.15-.164-.385-.246-.703-.246h-.348v2.174Z"/><path fill="#2668C5" fill-rule="evenodd" d="M4.571 8C3.704 8 3 8.689 3 9.538v13.847c0 .85.704 1.538 1.571 1.538h6.286l-.663 2.6a.387.387 0 0 0 .38.477h6.851a.387.387 0 0 0 .381-.478l-.663-2.599h6.286c.867 0 1.571-.689 1.571-1.538V9.538C25 8.688 24.296 8 23.429 8H4.57Zm8.749 9.083V20h-1.395v-7.496h1.825c.773 0 1.342.183 1.708.549.369.366.553.924.553 1.676 0 .947-.32 1.609-.958 1.985L16.493 20h-1.492l-1.184-2.917h-.497Z" clip-rule="evenodd"/></svg>