<svg fill="none" viewBox="0 0 24 24" xmlns="http://www.w3.org/2000/svg">
  <g clip-path="url(#prefix__a)">
    <path fill="currentColor" d="M24 12c0 6.627-5.373 12-12 12S0 18.627 0 12 5.373 0 12 0s12 5.373 12 12Zm-7.875 3.825c0-.075.075-.075.15-.075.15 0 .375.075.3.375 0 .15-.075.225-.15.3a1.56 1.56 0 0 0-.225.15c-.075.056-.15.113-.225.15-1.2.75-2.85 1.275-4.275 1.275h-.15c-2.175 0-3.9-1.2-5.4-2.55-.075 0-.15-.15-.15-.225 0-.075 0-.15.075-.15C6.15 15 6.225 15 6.3 15c0 0 .075.075.15.075 1.575.9 3.225 1.8 5.175 1.8h.15c1.275 0 2.625-.3 3.9-.825l.15-.075.075-.075a.266.266 0 0 0 .112-.037.253.253 0 0 1 .113-.038Zm1.8-1.125c.075.075.075.15.075.3v.15c0 .525-.225 1.35-.825 1.875-.075.075-.15.075-.225.075 0 0-.075 0-.15-.075-.075 0-.075-.075-.075-.15v-.15c.075-.15.15-.375.225-.6.075-.225.15-.45.15-.6v-.075h-.9c-.075 0-.15.019-.225.038a.939.939 0 0 1-.225.037h-.075s-.075 0-.15-.075-.075-.15-.075-.225c0-.075.075-.15.15-.225l.45-.225.15-.075.225-.075c.225-.075.45-.075.675-.075.3 0 .525 0 .675.075.075 0 .075 0 .15.075Zm-5.813-5.287a5.34 5.34 0 0 1 .563-.038H12.6v-.3c0-.074.003-.15.006-.229.012-.317.025-.655-.156-.896-.15-.225-.525-.375-.825-.375h-.075c-.525 0-.975.3-1.125.9-.075.15-.15.3-.3.3l-1.5-.15c-.15 0-.3-.075-.225-.3.3-1.65 1.725-2.25 3.075-2.325h.3c.75 0 1.725.225 2.325.75.687.619.682 1.49.676 2.38l-.001.245v2.4c0 .687.252.996.525 1.332l.075.093c.075.075.15.3 0 .375-.3.225-.9.675-1.2.975-.075.075-.225.075-.375 0a2.602 2.602 0 0 1-.703-.713 6.334 6.334 0 0 0-.197-.262c-.525.525-.9.825-1.425.975-.3.075-.6.15-1.05.15-1.275 0-2.25-.75-2.25-2.325 0-1.2.675-2.1 1.65-2.475.525-.3 1.125-.375 1.725-.45.188 0 .375-.019.563-.037Zm.263 3.112c.3-.6.3-1.05.3-1.65v-.3c-.375 0-.75 0-1.125.075-.6.15-1.125.6-1.125 1.425 0 .675.3 1.125.9 1.125h.225c.3-.075.675-.3.825-.675Z" clip-rule="evenodd"/>
  </g>
  <defs>
    <clipPath id="prefix__a">
      <path fill="#fff" d="M0 0h24v24H0z"/>
    </clipPath>
  </defs>
</svg>
