<svg fill="none" viewBox="0 0 24 24" xmlns="http://www.w3.org/2000/svg">
  <g clip-path="url(#prefix__a)">
    <path fill="#FEC327" d="M12 24c6.627 0 12-5.373 12-12S18.627 0 12 0 0 5.373 0 12s5.373 12 12 12Z"/>
    <path fill="#0A0A0A" fill-opacity=".94" d="M16.275 15.75c-.075 0-.15 0-.15.075-.075 0-.15.075-.225.075l-.075.075-.15.075c-1.275.525-2.625.825-3.9.825h-.15c-1.95 0-3.6-.9-5.175-1.8-.075 0-.15-.075-.15-.075-.075 0-.15 0-.225.075-.075 0-.075.075-.075.15s.075.225.15.225C7.65 16.8 9.375 18 11.55 18h.15c1.425 0 3.075-.525 4.275-1.275.15-.075.3-.225.45-.3.075-.075.15-.15.15-.3.075-.3-.15-.375-.3-.375ZM18 15c0-.15 0-.225-.075-.3-.075-.075-.075-.075-.15-.075-.15-.075-.375-.075-.675-.075-.225 0-.45 0-.675.075l-.225.075-.15.075-.45.225c-.075.075-.15.15-.15.225 0 .075 0 .15.075.225.075.075.15.075.15.075h.075c.15 0 .3-.075.45-.075h.9v.075c0 .15-.075.375-.15.6-.075.225-.15.45-.225.6v.15c0 .075 0 .15.075.15.075.075.15.075.15.075.075 0 .15 0 .225-.075.6-.525.825-1.35.825-1.875V15Zm-5.325-5.625c-.375 0-.75.075-1.125.075-.6.075-1.2.15-1.725.45-.975.375-1.65 1.275-1.65 2.475 0 1.575.975 2.325 2.25 2.325.45 0 .75-.075 1.05-.15.525-.15.9-.45 1.425-.975.3.375.375.6.9.975.15.075.3.075.375 0 .3-.3.9-.75 1.2-.975.15-.075.075-.3 0-.375-.3-.375-.6-.675-.6-1.425v-2.4c0-.975.075-1.95-.675-2.625-.6-.525-1.575-.75-2.325-.75h-.3c-1.35.075-2.775.675-3.075 2.325-.075.225.075.3.225.3l1.5.15c.15 0 .225-.15.3-.3.15-.6.6-.9 1.125-.9h.075c.3 0 .675.15.825.375.225.3.15.75.15 1.125v.3h.075Zm0 1.5c0 .6 0 1.05-.3 1.65-.15.375-.525.6-.825.675h-.225c-.6 0-.9-.45-.9-1.125 0-.825.525-1.275 1.125-1.425.375-.075.75-.075 1.125-.075v.3Z" clip-rule="evenodd"/>
  </g>
  <defs>
    <clipPath id="prefix__a">
      <path fill="#fff" d="M0 0h24v24H0z"/>
    </clipPath>
  </defs>
</svg>
