<svg fill="none" viewBox="0 0 24 24" xmlns="http://www.w3.org/2000/svg">
  <path fill="currentColor" d="M8.895 12.87c-.537 1.912-2.287 3.33-4.365 3.33C2.037 16.2 0 14.148 0 11.631s2.041-4.569 4.542-4.569a4.523 4.523 0 0 1 4.378 3.38H6.907c-.414-.975-1.328-1.61-2.365-1.61-1.451 0-2.603 1.224-2.603 2.783s1.152 2.81 2.59 2.81c1.03 0 1.903-.642 2.329-1.554h2.037Zm10.56-5.808c-2.5 0-4.542 2.048-4.542 4.57 0 2.52 2.037 4.568 4.542 4.568 2.504 0 4.53-2.048 4.53-4.569 0-2.52-2.042-4.569-4.53-4.569Zm-.012 7.364c-1.44 0-2.591-1.252-2.591-2.811 0-1.56 1.152-2.783 2.59-2.783 1.44 0 2.604 1.228 2.604 2.783 0 1.554-1.165 2.81-2.604 2.81Zm-9.384-.365h2.042l1.75-2.43-1.75-2.43h-2.042l1.804 2.43-1.804 2.43Z" clip-rule="evenodd"/>
</svg>
