<svg fill="none" viewBox="0 0 24 24" xmlns="http://www.w3.org/2000/svg">
  <path fill="#DB4F3D" d="M19.455 7.062c-2.5 0-4.542 2.048-4.542 4.57 0 2.52 2.037 4.568 4.542 4.568s4.53-2.048 4.53-4.569c0-2.52-2.042-4.569-4.53-4.569Zm-.012 7.364c-1.44 0-2.591-1.252-2.591-2.811 0-1.56 1.152-2.783 2.59-2.783 1.44 0 2.604 1.228 2.604 2.783 0 1.554-1.165 2.81-2.603 2.81Z"/>
  <path fill="#00204D" d="M10.06 14.06h2.04l1.751-2.43-1.75-2.429h-2.042l1.804 2.43-1.804 2.43Z"/>
  <path fill="#008CFF" d="M4.53 16.2c2.078 0 3.828-1.418 4.365-3.33H6.858c-.426.913-1.3 1.556-2.328 1.556-1.44 0-2.591-1.252-2.591-2.811 0-1.56 1.152-2.783 2.603-2.783 1.037 0 1.951.635 2.365 1.61H8.92a4.523 4.523 0 0 0-4.378-3.38C2.042 7.062 0 9.114 0 11.632 0 14.147 2.037 16.2 4.53 16.2Z"/>
</svg>
