<svg fill="none" viewBox="0 0 24 24" xmlns="http://www.w3.org/2000/svg">
  <path fill="currentColor" d="M12 1C5.925 1 1 6.002 1 12.172 1 17.407 4.55 21.788 9.334 23a1.654 1.654 0 0 1-.084-.543v-1.91H7.868c-.753 0-1.422-.328-1.747-.939-.36-.678-.422-1.716-1.315-2.352-.265-.21-.063-.452.242-.42.564.163 1.031.556 1.471 1.138.438.584.645.716 1.463.716.397 0 .991-.023 1.55-.112.301-.776.82-1.49 1.456-1.827-3.663-.383-5.411-2.234-5.411-4.746 0-1.082.454-2.129 1.225-3.01-.253-.875-.571-2.66.097-3.34 1.648 0 2.644 1.086 2.884 1.379a8.128 8.128 0 0 1 2.67-.448c.95 0 1.856.162 2.68.45.236-.292 1.233-1.38 2.885-1.38.67.68.35 2.472.093 3.345.767.88 1.218 1.924 1.218 3.004 0 2.51-1.746 4.36-5.403 4.745 1.006.534 1.74 2.032 1.74 3.162v2.545c0 .097-.02.167-.031.25C19.92 21.18 23 17.047 23 12.172 23 6.002 18.075 1 12 1Z"/>
</svg>
