<svg fill="none" viewBox="0 0 24 24" xmlns="http://www.w3.org/2000/svg">
  <path fill="#536CBD" d="m6.678 8.069.528 13.254L16.78 9.105a.882.882 0 0 1 1.246-.144L24 13.754l-1.944-8.518L6.678 8.07Z"/>
  <path fill="#2A3B9A" d="M7.54 23.755h8.494l-5.215-4.183-3.278 4.183Z"/>
  <path fill="#3A50AA" d="m17.619 10.895-5.712 7.288 6.086 4.882 5.773-7.239-6.147-4.931Z"/>
  <path fill="#C6DEF4" d="M5.077 6.79v-.001L10.102.49 2 4.391l-2 8.765L5.076 6.79Z"/>
  <path fill="#7D97D5" d="m.112 15.844 5.38 6.746-.513-12.85-4.867 6.104Z"/>
  <path fill="#ACC1E8" d="M20.492 3.73 12.747 0l-4.82 6.044L20.491 3.73Z"/>
</svg>
