<svg fill="none" viewBox="0 0 24 24" xmlns="http://www.w3.org/2000/svg">
  <path fill="currentColor" d="M2 3.67C2 2.749 2.748 2 3.67 2h16.66c.922 0 1.67.748 1.67 1.67v16.66A1.67 1.67 0 0 1 20.33 22H3.67A1.67 1.67 0 0 1 2 20.33V3.67Zm7.917 5.95h2.708v1.367c.39-.783 1.39-1.486 2.894-1.486 2.88 0 3.564 1.557 3.564 4.415v5.228h-2.916v-4.577c0-1.627-.39-2.545-1.384-2.545-1.377 0-1.95.99-1.95 2.545v4.577H9.917V9.619Zm-5 9.524h2.916V9.619H4.917v9.524ZM8.25 6.375a1.875 1.875 0 1 1-3.75 0 1.875 1.875 0 0 1 3.75 0Z" clip-rule="evenodd"/>
</svg>
