<svg fill="none" viewBox="0 0 24 24" xmlns="http://www.w3.org/2000/svg">
  <path fill="#1D427C" d="M20.216 11.567V1H3.001v10.575L3 11.657c0 .499.108 3.14 2.232 6.487 2.321 3.662 6.15 4.793 6.312 4.84l.058.016.057-.016c.163-.047 4.004-1.178 6.326-4.84 2.315-3.648 2.235-6.46 2.231-6.577Z"/>
  <path fill="#EC8023" d="M11.062 2.27a9.787 9.787 0 0 0-1.567-.128c-.663 0-1.261.2-1.524.3a4.435 4.435 0 0 0-1.525-.3c-.836 0-1.537.123-1.566.129l-.095.017v4.456l.139-.03a7.492 7.492 0 0 1 1.44-.126c.64 0 1.306.179 1.567.273l.04.014.039-.014a5.23 5.23 0 0 1 1.569-.273c.852 0 1.432.124 1.438.126l.14.03V2.288l-.095-.017Z"/>
  <path fill="#fff" d="M7.86 2.65a4.2 4.2 0 0 0-1.41-.274c-.646 0-1.218.078-1.431.11v3.37a8.173 8.173 0 0 1 1.35-.106c.576 0 1.153.132 1.492.237V2.649Zm1.642-.274c-.606 0-1.16.179-1.421.277v3.338a5.36 5.36 0 0 1 1.504-.24 8.26 8.26 0 0 1 1.349.104V2.487a9.883 9.883 0 0 0-1.432-.11Z"/>
  <path fill="#1D427C" d="M5.653 2.938c-.082.022-.128.098-.103.17.026.071.113.11.196.089.005-.001.432-.077.797-.077.33 0 .702.15.706.152.08.026.17-.01.2-.08.031-.07-.01-.148-.09-.175-.019-.006-.427-.168-.816-.168-.413 0-.87.084-.89.089Zm0 .669c-.082.023-.128.098-.103.17.026.071.113.112.196.09a5.19 5.19 0 0 1 .797-.077c.33 0 .702.15.706.151.08.027.17-.01.2-.08.031-.07-.01-.147-.09-.173-.019-.007-.427-.17-.816-.17-.413 0-.87.084-.89.089Zm0 .67c-.082.022-.128.098-.103.17.026.07.113.111.196.088.005 0 .432-.076.797-.076.33 0 .702.15.706.151.08.027.17-.009.2-.08.031-.07-.01-.147-.09-.173-.019-.006-.427-.17-.816-.17-.413 0-.87.084-.89.09Zm0 .669c-.082.023-.128.099-.103.17.026.071.113.111.196.09.005-.002.432-.078.797-.078.33 0 .702.151.706.152.08.027.17-.009.2-.08.031-.07-.01-.148-.09-.174-.019-.006-.427-.17-.816-.17-.413 0-.87.085-.89.09Zm4.657-2.008c.083.022.129.098.104.17-.026.071-.114.11-.196.089a5.283 5.283 0 0 0-.797-.077c-.33 0-.701.15-.705.152-.081.026-.171-.01-.201-.08s.01-.148.091-.175c.017-.006.427-.168.815-.168.413 0 .87.084.89.089Zm0 .669c.083.023.129.098.104.17-.026.071-.114.112-.196.09a5.172 5.172 0 0 0-.797-.077c-.33 0-.701.15-.705.151-.081.027-.171-.01-.201-.08s.01-.147.091-.173c.017-.007.427-.17.815-.17.413 0 .87.084.89.089Zm0 .67c.083.022.129.098.104.17-.026.07-.114.111-.196.088a5.36 5.36 0 0 0-.797-.076c-.33 0-.701.15-.705.151-.081.027-.171-.009-.201-.08-.03-.07.01-.147.091-.173.017-.006.427-.17.815-.17.413 0 .87.084.89.09Zm0 .669c.083.023.129.099.104.17-.026.071-.114.111-.196.09a5.112 5.112 0 0 0-.797-.078c-.33 0-.701.151-.705.152-.081.027-.171-.009-.201-.08-.03-.07.01-.148.091-.174.017-.006.427-.17.815-.17.413 0 .87.085.89.09Z"/>
  <path fill="#fff" d="M17.642 17.9c-2.086 3.29-5.548 4.49-6.03 4.643-.479-.154-3.929-1.353-6.014-4.643-2.09-3.293-2.167-5.934-2.167-6.294V7.823h16.376v3.733l.001.044c0 .37-.077 3.008-2.166 6.3Z"/>
  <path fill="#1D427C" d="M19.035 10.854a.805.805 0 0 0-.447-.554c-.571-.303-1.317-.09-1.97.132-.494.168-.643.219-1.202.305-.422.065-1.835.248-2.281-.122a.438.438 0 0 1-.135-.243.634.634 0 0 1 .11-.396c.114-.124.377-.183.805-.183l1.094.017c.068.088.243.23.687.324.707.151 1.484-.095 1.484-.095s-.129-.025-.236-.105c-.094-.07-.086-.177-.086-.177s.155.075.383.069c.282-.009.413-.143.677-.21.263-.067.557-.011.557-.011s-.266-.285-.53-.336c-.264-.05-.593.018-.593.018s.083-.037.18-.126c.08-.07.095-.192.095-.192s-.316.122-.636.106c-.32-.017-.296-.133-.918-.15-.47-.012-.86.268-1.021.404-.504-.033-.9-.05-1.133-.05-.64 0-1.01.104-1.237.35-.188.205-.27.471-.243.79a.87.87 0 0 0 .329.62c.597.494 2.2.343 2.768.242.635-.112.825-.161 1.193-.283l.021-.007c.285-.096 1.151-.385 1.514-.192.074.039.125.112.156.224a.51.51 0 0 1 .02.137.294.294 0 0 1-.07.195c-.33.404-1.575.474-2.115.502a4.212 4.212 0 0 0-.9-.098c-.322-.002-.59.02-.875.04-.519.04-1.056.08-1.948-.022a6.741 6.741 0 0 1-1.093-.209.621.621 0 0 0-.177-.34c.214.068.492-.167.57-.284 0-.012-.38-.112-.402-.358 0-.008.268.022.38-.347-.268-.145-.184-.199-.313-.38a.546.546 0 0 0-.481-.235c.082-.01.09 0 .179-.044.117-.06.198-.22.313-.213-.233-.366-.86-.414-1.121-.337.067-.083.17-.175.17-.29-.346.097-.686-.084-1.036-.018-.29.054-.455.172-.546.448h-.013c-.092-.276-.257-.394-.547-.448-.35-.066-.69.115-1.036.019.001.114.104.206.17.29-.26-.078-.887-.03-1.121.336.116-.007.197.154.313.213.103.05.124.04.179.044a.546.546 0 0 0-.481.235c-.13.181-.045.235-.314.38.113.37.382.34.381.347-.023.246-.401.346-.403.358.079.117.356.352.571.283-.176.197-.205.347-.165.545-.273-.207-.542-.436-.685-.625-.034-.049-.141-.401-.212-.634l-.058-.19-.028-.101c-.086-.314-.168-.577-.311-.612a.712.712 0 0 0-.211-.02c-.05-.076-.118-.157-.198-.183-.166-.05-.246-.013-.246-.013s.134.096.18.195a.36.36 0 0 1 .022.071.526.526 0 0 0-.08.054l-.011.01a1.42 1.42 0 0 0-.065.055.18.18 0 0 0-.035-.008c-.171-.023-.245.027-.245.027s.094.046.163.11a.544.544 0 0 0-.11.321l.003.04c-.164.012-.225.072-.225.072s.16.043.237.12a.349.349 0 0 1 .023.025l-.013.015a.317.317 0 0 0-.048.172c0 .143.08.297.19.399l.323.266c.116.26.245.489.33.585.026.033.206.343.397.67l.077.134c.041.201.088.452.108.649.038.354.002.75.002.75s.23-.012.334-.161c.002-.004.084.245.072.525-.01.208-.064.495-.064.495s.224-.118.392-.267c.084-.075.17-.199.222-.28.185.118.714-.07.978-.176.052.105.123.22.22.352.039-.158.208-.238.286-.364h.072c.01.173-.04.336.123.66.047.092.275.432.44.605-.062.294-.181.83-.304 1.268-.141.502-.256.751-.32.867-.19.01-.534.021-.644.016-.263-.012-.457.043-.578.164l-.024.027c-.091.013-.196.041-.253.105-.115.13-.115.218-.115.218s.143-.082.251-.082l.023.001v.022a.37.37 0 0 0 .04.117.227.227 0 0 0-.046.044c-.105.136-.1.225-.1.225s.134-.09.242-.1c.034.055.072.11.112.164l-.014.017c-.094.145-.082.232-.082.232s.106-.083.207-.11c.034.038.068.074.1.102.158.139.55.049 1.048-.084l.308-.076c.218-.04.353-.127.452-.29.024-.039.046-.102.08-.203l.028-.086c.069-.194.122-.317.259-.536.004-.006.138-.22.319-.516a7.14 7.14 0 0 1 .495-.385c.215-.144.643-.363.643-.363s-.114-.185-.284-.211c-.004 0 .217-.224.401-.304.208-.09.477-.14.477-.14s-.098-.2-.25-.297a.832.832 0 0 0 .193-.105c.361-.236.628-.227.88-.156.009-.164-.032-.264-.173-.358a2.39 2.39 0 0 1 .372-.125c.082.142.175.298.217.358.187.265.467.628.694.856.006.005.009.016.009.03 0 .095-.116.358-.183.509l-.056.13-.295.693a9.584 9.584 0 0 1-.653.022c-.256-.012-.446.042-.563.159a.363.363 0 0 0-.04.045c-.095.017-.21.052-.266.124-.107.137-.103.224-.103.224s.138-.09.246-.096a.347.347 0 0 1 .048 0c.005.029.02.07.045.119a.241.241 0 0 0-.063.063c-.095.144-.083.231-.083.231s.13-.102.237-.117l.012-.001c.026.04.054.08.083.12a.26.26 0 0 0-.028.032c-.095.145-.083.233-.083.233s.124-.098.23-.117a1 1 0 0 0 .095.098c.152.134.475.054.915-.072l.313-.082c.212-.04.344-.124.442-.284l.082-.177c.039-.09.083-.192.117-.245.05-.08.104-.177.159-.281.073-.063.142-.12.19-.158.14-.107.497-.304.497-.304s-.071-.156-.216-.17c-.002-.001.141-.16.313-.26.122-.07.364-.113.364-.113s-.167-.141-.294-.197a.857.857 0 0 0-.18-.047.64.64 0 0 0-.116-.261c-.125-.194.058-.61.189-.844.066.093.184.248.382.467 0 0 .635.694.774.848-.027.11-.116.457-.256.839a6.559 6.559 0 0 1-.32.71c-.153.008-.5.026-.627.02-.256-.012-.445.041-.563.159a.372.372 0 0 0-.049.06c-.086.021-.18.057-.228.121-.105.139-.098.227-.098.227s.104-.098.244-.101h.019c.006.03.023.07.047.117a.243.243 0 0 0-.063.062c-.094.145-.082.232-.082.232s.13-.103.237-.118l.011-.001c.034.05.07.102.107.151l-.002.002c-.095.145-.083.233-.083.233s.096-.076.191-.107c.028.03.055.059.08.08.152.134.476.055.917-.072l.31-.082c.213-.04.345-.124.442-.284.043-.07.236-.52.29-.65.094-.233.202-.474.306-.695.052-.044.101-.084.14-.111.174-.12.546-.333.546-.333s-.075-.159-.217-.17a2.05 2.05 0 0 1 .293-.236c.136-.088.384-.136.384-.136s-.179-.137-.305-.191a1.144 1.144 0 0 0-.255-.064c-.022-.106-.075-.141-.155-.181-.071-.037-.168-.086-.317-.26-.19-.225-.22-.653-.22-1.081 0-.094.002-.188.003-.28l.001-.41a3.932 3.932 0 0 0-.15-1.042c.63-.057 1.782-.184 2.255-.762a.926.926 0 0 0 .213-.597c0-.1-.014-.201-.043-.307Z"/>
  <path fill="#F19320" d="M14.522 16.101c.083-.078.126-.12.126-.175 0-.047-.031-.104-.093-.2a.457.457 0 0 1-.067-.254c0-.31.206-.682.288-.817-.023-.03-.057-.072-.097-.128l-.052-.035a1.518 1.518 0 0 1-.273-.262c-.012-.016-.023-.035-.036-.056a3.121 3.121 0 0 0-1 .11c.129.074.159.17.164.294a1.972 1.972 0 0 0-.718-.033c.073.125.148.25.183.3.183.258.457.614.676.834a.19.19 0 0 1 .052.14c0 .137-.086.332-.193.574l-.056.128-.333.783-.048.003c-.023.001-.547.033-.719.025-.187-.01-.33.023-.418.091.01.036.017.083.004.127a.162.162 0 0 1-.084.103.341.341 0 0 0 .014.028c.103-.035.201-.045.201-.045s.057.075.034.169a.224.224 0 0 1-.077.128l.021.03a.977.977 0 0 1 .244-.06s.06.09.04.189a.157.157 0 0 1-.062.1c.14.046.503-.058.73-.124l.327-.085c.168-.032.262-.09.336-.21l.073-.158c.04-.096.087-.204.128-.268.1-.159.215-.391.326-.616.143-.292.268-.545.36-.63Zm-6.261-2.019v.01h.004l-.004-.01Z"/>
  <path fill="#EC8023" d="M7.586 13.18c-.102.152-.286.224-.525.253a.877.877 0 0 0-.084-.59c-.076-.166-.286-.492-.348-.677l-.05-.147c-.332-.241-.696-.535-.88-.778-.043-.057-.108-.262-.237-.683l-.057-.19-.03-.105c-.084-.31-.15-.478-.197-.5a.54.54 0 0 0-.09-.014s-.015.095-.174.087a.199.199 0 0 1-.093-.028.307.307 0 0 0-.038.028l-.013.01-.024.02c.094.084.161.194.161.194s-.036.097-.157.119c-.088.015-.156-.047-.156-.047s0-.03-.011-.074a.376.376 0 0 0-.035.251c.123.064.23.18.23.18s-.003.09-.13.155c-.048.024-.097.01-.129-.005-.016.093.038.226.135.316l.344.284.008.017c.109.247.237.478.312.563.028.031.13.206.415.696.377.649.947 1.63 1.094 1.793.056.053.445-.038.829-.191-.137-.38-.018-.612-.07-.938Zm11.299-2.286a.647.647 0 0 0-.369-.457c-.515-.273-1.223-.07-1.845.142-.53.18-.677.227-1.228.311-.563.087-1.922.244-2.406-.156a.586.586 0 0 1-.192-.35c-.015-.193.066-.423.152-.516.148-.162.432-.234.92-.234l1.138.017.086-.076-.084-.09a19.91 19.91 0 0 0-1.136-.051c-.592 0-.927.09-1.12.3-.159.171-.226.397-.204.67.018.205.11.377.273.512.508.42 1.999.322 2.64.208.626-.11.812-.158 1.172-.277l.02-.007c.333-.111 1.215-.406 1.639-.182.113.06.19.166.232.322.052.19.027.344-.079.473-.376.46-1.587.525-2.237.56h-.014l-.011-.002a4.184 4.184 0 0 0-.876-.096 9.689 9.689 0 0 0-.861.04 9.207 9.207 0 0 1-1.979-.023 6.996 6.996 0 0 1-1.08-.205c-.018.122-.066.26-.127.439-.062.184-.271.51-.348.677a.885.885 0 0 0-.085.59c-.238-.03-.422-.101-.524-.254-.071.447.182.716-.35 1.434-.054-.217-.352-.285-.325-.531-.094.255.057.403-.157.827-.054.106-.352.546-.514.674-.065.305-.18.818-.298 1.241-.162.577-.294.838-.36.942l-.02.036-.041.002c-.172.009-.574.023-.702.018-.177-.009-.316.018-.408.077.01.044.014.107-.014.152a.206.206 0 0 1-.099.089l.015.032c.115-.033.23-.035.23-.035s.048.096-.001.212a.163.163 0 0 1-.069.083l.034.047c.122-.054.264-.068.264-.068s.055.072.02.22a.12.12 0 0 1-.058.081c.16.05.61-.07.863-.137l.32-.079c.174-.032.272-.093.348-.218.015-.025.04-.102.063-.17l.03-.09c.071-.2.13-.336.274-.566.327-.523 1.295-2.106 1.334-2.234.002-.006.002-.014.002-.023 0-.084-.041-.27-.074-.387l-.021-.075 3.316-.97-.193-.333.114-.103c.01.008.251.183.383.315.117.116.23.296.348.486l.06.097c.135.213.267.37.268.371l.005.006.004.006c0 .002.105.185.433.55l.83.908-.008.04c-.002.005-.1.428-.273.898-.113.31-.282.64-.349.768l-.02.04-.045.002c-.16.01-.545.03-.687.023-.176-.008-.312.019-.402.078.013.042.024.106 0 .155a.249.249 0 0 1-.09.101l.012.023c.103-.035.203-.045.203-.045s.05.082.034.186c-.012.07-.048.1-.074.115l.03.041c.125-.06.28-.075.28-.075s.052.072.034.184a.17.17 0 0 1-.07.107c.16.02.483-.074.691-.134l.326-.085c.168-.03.262-.09.336-.21.032-.052.21-.464.278-.628a13.96 13.96 0 0 1 .674-1.42l.105-.164c.061-.092.115-.17.11-.225-.006-.074-.01-.076-.077-.11-.079-.04-.197-.1-.366-.298-.27-.319-.262-.928-.254-1.464v-.405c-.013-.53-.099-.885-.169-1.089l-.032-.094.1-.01c.58-.05 1.788-.159 2.242-.713.17-.21.22-.474.14-.764Z"/>
  <path fill="#fff" d="M15.753 4.643c.068.089.125.187.168.291a1.18 1.18 0 0 1-.336.001c.043-.105.1-.203.168-.292Z"/>
  <path fill="#EC8023" d="M15.056 4.607a1.173 1.173 0 0 1-.307-.353h.006c.159 0 .311.033.452.092a1.871 1.871 0 0 0-.151.261Zm-.996-.117c.172.366.459.665.819.855l-.002.062c0 .393.121.757.33 1.059a1.154 1.154 0 0 1-1.604-1.06c0-.374.18-.706.456-.916Zm2.69-.236h.006a1.15 1.15 0 0 1-.307.352 1.874 1.874 0 0 0-.148-.26c.142-.06.294-.092.45-.092Zm-1.995-.721c-.049 0-.098.004-.146.007a1.153 1.153 0 0 1 2.285.003l-.144-.01c-.355 0-.697.1-.996.288a1.868 1.868 0 0 0-1-.288Zm1.872 1.813c.356-.19.644-.491.818-.857.288.217.458.551.458.918a1.154 1.154 0 0 1-1.604 1.06c.215-.312.33-.676.33-1.06l-.002-.061Zm-1.02.206.146.011c.049 0 .096-.003.144-.007a1.127 1.127 0 0 1-.144.426 1.142 1.142 0 0 1-.145-.43Zm2.016-1.802.003-.06c0-1.034-.84-1.874-1.873-1.874s-1.874.84-1.874 1.874l.002.06a1.875 1.875 0 0 0 .874 3.53c.357 0 .7-.1.998-.29.29.183.63.29.997.29 1.032 0 1.873-.84 1.873-1.873 0-.693-.39-1.334-1-1.657Z"/>
  <path fill="#fff" d="M16.108 5.537c.105-.02.207-.05.306-.088a1.642 1.642 0 0 1-.305.926 1.13 1.13 0 0 1-.227-.2 1.36 1.36 0 0 0 .226-.638Zm-.356-3.5c.917 0 1.663.746 1.663 1.663 0 .918-.746 1.664-1.663 1.664l-.153-.011c.005-.102.024-.201.055-.297l.098.007c.75 0 1.362-.612 1.362-1.363 0-.75-.611-1.362-1.362-1.362-.716 0-1.295.539-1.355 1.241a1.85 1.85 0 0 0-.308.089 1.665 1.665 0 0 1 1.663-1.631Z"/>
  <path fill="#fff" d="m16.75 3.754.151.011a1.13 1.13 0 0 1-.055.297l-.097-.007c-.2 0-.4.048-.58.133a1.846 1.846 0 0 0-.23-.224c.248-.138.524-.21.81-.21Zm-1.996 3.328a1.666 1.666 0 0 1-1.664-1.664c0-.917.746-1.664 1.664-1.664.66 0 1.244.38 1.514.976-.09.045-.185.08-.286.1a1.355 1.355 0 0 0-1.228-.775c-.752 0-1.363.612-1.363 1.363a1.356 1.356 0 0 0 1.946 1.228c.07.08.146.156.228.223-.246.14-.524.213-.811.213Z"/>
  <path fill="#fff" d="M14.523 4.288c.101.211.257.395.45.53a1.8 1.8 0 0 0-.076.31 1.659 1.659 0 0 1-.66-.74c.09-.045.185-.08.286-.1Zm2.226 2.793a1.666 1.666 0 0 1-1.357-2.625c.084.056.16.123.228.2a1.364 1.364 0 0 0 1.13 2.123 1.362 1.362 0 0 0 .775-2.478c.033-.1.059-.205.076-.312.496.297.811.843.811 1.428 0 .917-.746 1.664-1.663 1.664Z"/>
  <path fill="#EC8023" d="M10.202 10.373c.098-.068.333-.263.208-.5-.133-.25-.44-.149-.531-.111-.013-.013-.69-.308-.7-.303.007-.004-.265.314-.265.314s-.27-.318-.264-.314c-.01-.005-.687.29-.7.303-.09-.038-.397-.14-.53.11-.126.238.11.433.208.501l-.002.006-.219.387c.004-.007.639.77.639.77l-.001.501s.252.17.271.175c.04.19.053.289.098.392.014.033.256.104.492.108h.018c.235-.004.478-.075.492-.108.044-.103.057-.201.097-.392.02-.005.27-.175.27-.175l.001-.502s.635-.776.638-.769l-.218-.387-.002-.006Z"/>
  <path fill="#1D427C" d="m8.595 10.406-.02.33-.57-.323.59-.007Zm.736.338.09.79-.435.237-.003.282c.02.015.094.071.172.104.14.059.28.024.282.024l.035-.009-.03.105-.013.002a.721.721 0 0 1-.293-.009.57.57 0 0 1-.186-.089h-.067a.611.611 0 0 1-.483.098l-.013-.002-.03-.105.036.009c.001 0 .141.035.282-.024a.86.86 0 0 0 .171-.104v-.285c-.018-.011-.435-.309-.435-.309h.777v-1.036l.614-.005h.078l-.549.326Z"/>
</svg>
