<svg fill="none" viewBox="0 0 25 24" xmlns="http://www.w3.org/2000/svg">
  <g clip-path="url(#prefix__a)">
    <path fill="url(#prefix__b)" d="M11.943.007c-6.1 0-5.72 2.646-5.72 2.646l.007 2.741h5.822v.823H3.918S.014 5.775.014 11.931c0 6.157 3.407 5.939 3.407 5.939h2.034v-2.857s-.11-3.408 3.353-3.408h5.774s3.245.052 3.245-3.136V3.197s.492-3.19-5.884-3.19ZM8.733 1.85a1.046 1.046 0 1 1 0 2.095 1.046 1.046 0 1 1 0-2.095Z"/>
    <path fill="url(#prefix__c)" d="M12.117 23.918c6.1 0 5.72-2.646 5.72-2.646l-.007-2.742h-5.822v-.823h8.134s3.904.443 3.904-5.714-3.407-5.938-3.407-5.938h-2.034v2.857s.11 3.408-3.353 3.408H9.478s-3.245-.053-3.245 3.136v5.271s-.492 3.19 5.884 3.19Zm3.21-1.844a1.044 1.044 0 0 1-1.047-1.047 1.047 1.047 0 1 1 1.047 1.047Z"/>
  </g>
  <defs>
    <linearGradient id="prefix__b" x1="2.323" x2="14.235" y1="2.157" y2="13.948" gradientUnits="userSpaceOnUse">
      <stop stop-color="#387EB8"/>
      <stop offset="1" stop-color="#366994"/>
    </linearGradient>
    <linearGradient id="prefix__c" x1="9.633" x2="22.425" y1="9.73" y2="21.82" gradientUnits="userSpaceOnUse">
      <stop stop-color="#FFE052"/>
      <stop offset="1" stop-color="#FFC331"/>
    </linearGradient>
    <clipPath id="prefix__a">
      <path fill="#fff" d="M0 0h24.093v24H0z"/>
    </clipPath>
  </defs>
</svg>
