<svg fill="none" viewBox="0 0 24 24" xmlns="http://www.w3.org/2000/svg">
  <g clip-path="url(#prefix__a)">
    <path fill="#FEC327" d="M12 24c6.627 0 12-5.373 12-12S18.627 0 12 0 0 5.373 0 12s5.373 12 12 12Z"/>
    <path fill="#0A0A0A" fill-opacity=".94" d="M9.446 8.809c.324.227.508.545.551.953h1.669a2.493 2.493 0 0 0-.454-1.43c-.293-.418-.696-.743-1.21-.977C9.49 7.118 8.896 7 8.217 7c-.67 0-1.27.118-1.8.355-.53.234-.948.563-1.257.986a2.472 2.472 0 0 0-.458 1.482c0 .685.228 1.235.683 1.65.458.41 1.08.717 1.869.92l1.089.28c.343.088.642.187.897.3.259.108.46.246.603.41a.915.915 0 0 1 .22.618 1.151 1.151 0 0 1-.248.72 1.607 1.607 0 0 1-.673.476 2.682 2.682 0 0 1-.99.168c-.362 0-.69-.054-.982-.163a1.633 1.633 0 0 1-.706-.496c-.18-.22-.283-.498-.308-.832H4.45c.025.636.19 1.175.495 1.617.309.443.736.78 1.28 1.01.55.23 1.196.346 1.94.346.767 0 1.42-.119 1.958-.356.543-.24.957-.571 1.244-.995.286-.427.43-.92.43-1.481 0-.415-.078-.776-.234-1.085a2.406 2.406 0 0 0-.636-.79 3.677 3.677 0 0 0-.902-.542 6.18 6.18 0 0 0-1.042-.34l-.897-.225a5.707 5.707 0 0 1-.584-.173 2.672 2.672 0 0 1-.528-.252 1.238 1.238 0 0 1-.379-.374.968.968 0 0 1-.135-.519 1.08 1.08 0 0 1 .21-.64c.137-.187.335-.335.593-.444.259-.11.569-.164.93-.164.514 0 .932.114 1.253.342Zm4.785 7.678c.523.23 1.122.346 1.795.346.685 0 1.293-.12 1.822-.36.533-.24.95-.57 1.253-.99.305-.425.458-.904.458-1.44.003-.598-.176-1.098-.538-1.5-.358-.405-.874-.655-1.547-.748v-.075c.517-.112.935-.35 1.253-.715.32-.365.48-.816.476-1.355 0-.486-.129-.93-.387-1.332a2.712 2.712 0 0 0-1.099-.958c-.47-.24-1.025-.36-1.663-.36-.62 0-1.18.115-1.678.346a2.986 2.986 0 0 0-1.196.953c-.296.405-.45.876-.463 1.412h1.668c.01-.268.09-.499.243-.692a1.48 1.48 0 0 1 .603-.453c.25-.106.52-.16.813-.16.3 0 .56.057.78.169.225.112.398.27.52.472.124.2.185.435.182.706.003.277-.067.521-.21.733a1.417 1.417 0 0 1-.594.486c-.25.116-.54.173-.874.173h-.846v1.337h.846c.405 0 .75.062 1.037.187.29.124.511.297.664.518.153.222.227.477.224.767.003.28-.07.528-.22.743a1.499 1.499 0 0 1-.62.505 2.212 2.212 0 0 1-.912.177c-.321 0-.61-.053-.87-.159a1.54 1.54 0 0 1-.62-.444 1.163 1.163 0 0 1-.258-.677h-1.757c.019.539.179 1.014.481 1.425.303.411.714.732 1.234.963Z" clip-rule="evenodd"/>
  </g>
  <defs>
    <clipPath id="prefix__a">
      <path fill="#fff" d="M0 0h24v24H0z"/>
    </clipPath>
  </defs>
</svg>
