<svg fill="none" viewBox="0 0 24 24" xmlns="http://www.w3.org/2000/svg">
  <g clip-path="url(#prefix__a)">
    <path fill="currentColor" d="M24 12c0 6.627-5.373 12-12 12S0 18.627 0 12 5.373 0 12 0s12 5.373 12 12ZM9.997 9.762a1.276 1.276 0 0 0-.551-.953c-.321-.228-.739-.342-1.253-.342a2.39 2.39 0 0 0-.93.164 1.377 1.377 0 0 0-.593.444 1.08 1.08 0 0 0-.21.64c0 .2.045.373.135.519.094.146.22.271.379.374.158.1.335.184.528.252.193.069.388.126.584.173l.897.224c.362.085.709.198 1.042.341.337.144.637.325.902.543.268.218.48.481.636.79.156.308.233.67.233 1.084 0 .56-.143 1.054-.43 1.481-.286.424-.7.756-1.243.995-.539.237-1.191.356-1.958.356-.744 0-1.39-.116-1.94-.346-.544-.23-.971-.567-1.28-1.01-.305-.442-.47-.981-.495-1.617h1.706c.025.334.128.611.308.832.18.222.416.387.706.496.293.109.62.163.981.163.377 0 .707-.056.991-.168.287-.115.511-.274.673-.477.162-.205.245-.445.248-.72a.915.915 0 0 0-.22-.616 1.608 1.608 0 0 0-.603-.412 5.801 5.801 0 0 0-.897-.299l-1.089-.28c-.788-.203-1.411-.51-1.87-.92-.454-.415-.682-.965-.682-1.65 0-.564.153-1.058.458-1.482a3.026 3.026 0 0 1 1.257-.986c.53-.237 1.13-.355 1.8-.355.679 0 1.274.118 1.785.355.514.234.917.56 1.21.977.293.414.444.89.454 1.43H9.997Zm6.029 7.07c-.673 0-1.272-.115-1.795-.345-.52-.23-.932-.552-1.234-.963a2.495 2.495 0 0 1-.481-1.425h1.757c.016.258.101.484.257.677.156.19.363.338.622.444.258.106.548.16.869.16.343 0 .646-.06.911-.178.265-.122.472-.29.622-.505.15-.215.223-.463.22-.743a1.29 1.29 0 0 0-.225-.767 1.5 1.5 0 0 0-.664-.518c-.286-.125-.632-.187-1.037-.187h-.846v-1.337h.846c.333 0 .625-.057.874-.173.252-.115.45-.277.593-.486a1.24 1.24 0 0 0 .21-.733 1.276 1.276 0 0 0-.182-.706 1.23 1.23 0 0 0-.518-.472 1.705 1.705 0 0 0-.78-.168c-.294 0-.565.053-.814.159a1.48 1.48 0 0 0-.603.453 1.15 1.15 0 0 0-.243.692h-1.668a2.428 2.428 0 0 1 .463-1.412 2.977 2.977 0 0 1 1.196-.953A3.95 3.95 0 0 1 16.054 7c.638 0 1.193.12 1.663.36.474.237.84.556 1.099.958.258.402.387.846.387 1.332.003.539-.155.99-.476 1.355-.318.365-.736.603-1.253.715v.075c.673.093 1.189.342 1.547.748.361.402.54.902.538 1.5 0 .536-.153 1.015-.458 1.44-.303.42-.72.75-1.253.99-.53.24-1.137.36-1.822.36Z" clip-rule="evenodd"/>
  </g>
  <defs>
    <clipPath id="prefix__a">
      <path fill="#fff" d="M0 0h24v24H0z"/>
    </clipPath>
  </defs>
</svg>
