<svg fill="none" viewBox="0 0 24 24" xmlns="http://www.w3.org/2000/svg">
  <path fill="#0065A9" d="m22.214 3.33-4.556-2.194a1.378 1.378 0 0 0-1.572.267l-14.915 13.6a.922.922 0 0 0 0 1.363l1.219 1.107a.921.921 0 0 0 1.177.052L21.528 3.9a.915.915 0 0 1 1.468.73v-.054a1.382 1.382 0 0 0-.782-1.245Z"/>
  <path fill="#007ACC" d="m22.214 20.668-4.556 2.194a1.378 1.378 0 0 1-1.572-.267L1.171 8.995a.921.921 0 0 1 0-1.362L2.39 6.526a.921.921 0 0 1 1.177-.053L21.528 20.1a.915.915 0 0 0 1.468-.729v.053a1.381 1.381 0 0 1-.782 1.245Z"/>
  <path fill="#1F9CF0" d="M17.662 22.863a1.378 1.378 0 0 1-1.572-.268.81.81 0 0 0 1.382-.572V1.976a.81.81 0 0 0-1.382-.572 1.378 1.378 0 0 1 1.572-.268l4.555 2.19A1.382 1.382 0 0 1 23 4.573v14.855c0 .53-.304 1.015-.783 1.245l-4.555 2.19Z"/>
</svg>
