<svg width="32" height="32" fill="currentColor" viewBox="0 0 32 32" xmlns="http://www.w3.org/2000/svg">
  <path d="M16 29C8.82 29 3 23.18 3 16S8.82 3 16 3s13 5.82 13 13-5.82 13-13 13Zm-7.888-5.333c.608-.292 1.42-.533 2.432-.69 1.875-.289 2.857-.962 2.948-2.02v-2.16c-.91-.912-1.492-2.12-1.492-2.812-.667-.33-1-.998-1-2.008.039-.405.253-.698.642-.88-.143-.728-.18-1.6-.11-2.62.188-1.216.71-3.127 3.958-3.455 1.247-.112 2.166.208 2.755.958 1.47.209 2.228 1.198 2.271 2.968 0 .912-.087 1.601-.205 2.128.419.18.648.48.689.901 0 1.01-.333 1.679-1 2.008 0 .692-.582 1.9-1.492 2.811v2.16c.09 1.059 1.073 1.732 2.948 2.021 1.013.157 1.824.398 2.432.69A10.964 10.964 0 0 0 27 16c0-6.075-4.925-11-11-11S5 9.925 5 16c0 2.981 1.186 5.686 3.112 7.667Z"/>
</svg>
