<svg width="32" height="32" fill="none" viewBox="0 0 32 32" xmlns="http://www.w3.org/2000/svg">
  <path fill="#2668C5" d="M19.66 18.91h-7.314l.583-1.28h6.149l.582 1.28Zm-1.492-3.28A9875.15 9875.15 0 0 0 16 10.87l-2.163 4.758h4.33Z"/>
  <path fill="#2668C5" fill-rule="evenodd" d="M3 2a1 1 0 0 0-1 1v26a1 1 0 0 0 1 1h26a1 1 0 0 0 1-1V3a1 1 0 0 0-1-1H3Zm18.95 21.958h2.195A5131.433 5131.433 0 0 0 16.98 8.199l-.071-.157-1.82.002-7.234 15.914h2.197l1.385-3.047h9.131c.48 1.054.946 2.085 1.381 3.047Z" clip-rule="evenodd"/>
</svg>
