<svg width="24" height="24" fill="currentColor" viewBox="0 0 24 24" xmlns="http://www.w3.org/2000/svg">
  <path d="M20.22 3.834a1 1 0 0 1 .78.977l-.012 9.094c-.116 2.396-1.723 4.426-4.238 6.063C15.03 21.086 12.804 22 12 22c-.804 0-3.031-.914-4.75-2.032-2.518-1.637-4.127-3.665-4.25-6.11V4.81a1 1 0 0 1 .78-.976l8-1.81a1 1 0 0 1 .44 0l8 1.81ZM12 4.025 5 5.61l-.001 8.198c.082 1.618 1.306 3.162 3.34 4.485C9.764 19.217 11.673 20 12 20c.328 0 2.236-.783 3.659-1.708 2.032-1.323 3.253-2.866 3.33-4.436L19 5.608l-7-1.583ZM13 11h1.498c.075 0 .148.016.216.047.25.114.356.4.237.64l-2.997 5.038a.503.503 0 0 1-.453.275.492.492 0 0 1-.501-.481V12H9.502a.519.519 0 0 1-.216-.047.473.473 0 0 1-.237-.64l2.997-5.038A.503.503 0 0 1 12.499 6c.277 0 .501.216.501.481V11Z"/>
</svg>
