<svg width="32" height="32" fill="currentColor" viewBox="0 0 32 32" xmlns="http://www.w3.org/2000/svg">
  <path d="M16.67 3.59C18.443 5.24 21.887 6.376 27 7v13c-.033 2.313-1.307 4.392-3.35 5.54L16 29l-7.64-3.46C6.313 24.395 5.035 22.315 5 20V7c5.107-.617 8.55-1.754 10.33-3.41L16 3l.67.59ZM7 8.743V19.97c.024 1.56.87 2.974 2.269 3.786l6.732 3.049 6.739-3.048c1.395-.814 2.238-2.228 2.26-3.757V8.742c-4.047-.633-7.037-1.642-9-3.111-1.967 1.474-4.957 2.483-9 3.112ZM16.248 17H12l4.151-6.514c.302-.474.955-.628 1.458-.343.502.284.666.898.364 1.371L15.752 15H20l-4.151 6.514c-.302.474-.955.628-1.458.343-.502-.284-.666-.898-.364-1.371L16.248 17Z"/>
</svg>
