<svg width="16" height="16" fill="currentColor" viewBox="0 0 16 16" xmlns="http://www.w3.org/2000/svg">
  <path d="M15 10.5c0 1.975-2.22 3.768-6.659 5.378a1 1 0 0 1-.682 0C3.219 14.268 1 12.475 1 10.5V2.754a1 1 0 0 1 .725-.961l6-1.715a1 1 0 0 1 .55 0l6 1.715a1 1 0 0 1 .725.961V10.5ZM8 2.08 3 3.509V10.5c0 .81 1.527 2.07 5 3.372 3.473-1.303 5-2.561 5-3.372V3.509L8 2.08ZM7 8h-.504a.49.49 0 0 1-.278-.086.505.505 0 0 1-.133-.696L8.094 4.22A.494.494 0 0 1 9 4.501V7h.504c.1 0 .196.03.278.086a.505.505 0 0 1 .133.696L7.906 10.78A.494.494 0 0 1 7 10.499V8Z"/>
</svg>
