<svg width="32" height="32" fill="currentColor" viewBox="0 0 32 32" xmlns="http://www.w3.org/2000/svg">
  <path d="M7.342 8.194A4 4 0 0 1 11.26 5h9.479a4 4 0 0 1 3.918 3.193l1.538 7.47A7.972 7.972 0 0 0 23 15a7.985 7.985 0 0 0-6.245 3H8.5c-1.26 0-2.428.388-3.393 1.05L7.342 8.194ZM15 23c0-1.06.207-2.074.582-3H8a4 4 0 0 0 0 8h8.755A7.966 7.966 0 0 1 15 23Zm-8 1a1 1 0 0 1 1-1h3a1 1 0 1 1 0 2H8a1 1 0 0 1-1-1Z"/>
  <path d="M29 23a6 6 0 1 1-12 0 6 6 0 0 1 12 0Zm-6-4a1 1 0 0 0-1 1v2h-2a1 1 0 1 0 0 2h2v2a1 1 0 1 0 2 0v-2h2a1 1 0 1 0 0-2h-2v-2a1 1 0 0 0-1-1Z"/>
</svg>
