<svg width="32" height="32" fill="currentColor" viewBox="0 0 32 32" xmlns="http://www.w3.org/2000/svg">
  <path d="M10 10.633C10 6.67 12.517 4 16 4s6 2.67 6 6.633c0 2.212-.76 4.48-1.992 6.094 2.123.734 4.39 2.024 6.807 3.861A3 3 0 0 1 28 22.976V27a1 1 0 0 1-1 1H5a1 1 0 0 1-1-1v-4.024a3 3 0 0 1 1.185-2.388c2.52-1.915 4.877-3.235 7.077-3.952C10.763 14.33 10 12.34 10 10.633Zm16 12.343a1 1 0 0 0-.395-.796c-2.852-2.167-5.423-3.486-7.698-3.97a1 1 0 0 1-.394-1.776C18.949 15.35 20 12.945 20 10.634 20 7.747 18.351 6 16 6s-4 1.748-4 4.633c0 1.485.884 3.507 2.695 6.014a1 1 0 0 1-.602 1.563c-2.275.484-4.846 1.803-7.698 3.97a1 1 0 0 0-.395.796V26h20v-3.024Z"/>
</svg>
