<svg width="24" height="24" fill="currentColor" viewBox="0 -2 24 24" xmlns="http://www.w3.org/2000/svg">
  <path d="M18.85 12.749a.995.995 0 0 1-.322 1.372c-1.496.927-2.69.48-3.603-.754-.644 1.71-1.825 1.83-2.852.49-.676.811-1.32 1.2-2.047 1.136-.673-.06-1.232-.492-1.759-1.368a9.205 9.205 0 0 1-1.792 1.252 1.002 1.002 0 0 1-1.355-.403.995.995 0 0 1 .405-1.351 7.038 7.038 0 0 0 1.861-1.431 40.692 40.692 0 0 1-.945-3.003c-.611-2.181.264-4.442 1.823-5.327 2.042-1.16 3.556.585 3.187 3.57-.246 1.994-.837 3.69-1.77 5.07.032.072.065.14.097.205.16.324.306.561.43.711l.103-.1c.276-.271.618-.728 1.008-1.363a1.001 1.001 0 0 1 1.779.146c.05.124.1.24.148.348l.007-.043c.086-.463.171-.792.278-1.039.218-.504.585-.868 1.23-.792.46.055.695.281.933.644.119.18.524.963.608 1.107.458.786.678.907 1.17.602a1.002 1.002 0 0 1 1.377.32Zm-9.384-6.06c.117-.948.022-1.517-.127-1.689.015.018.045.02-.085.094-.745.424-1.256 1.741-.886 3.058.135.484.267.932.395 1.345.34-.825.573-1.76.703-2.809ZM21.586 10l-.414-.414A4 4 0 0 1 20 6.757V4a2 2 0 0 0-2-2 1 1 0 0 1 0-2 4 4 0 0 1 4 4v2.757a2 2 0 0 0 .586 1.415l1.121 1.12a1 1 0 0 1 0 1.415l-1.121 1.121A2 2 0 0 0 22 13.243V16a4 4 0 0 1-4 4 1 1 0 0 1 0-2 2 2 0 0 0 2-2v-2.757a4 4 0 0 1 1.172-2.829l.414-.414ZM2.828 9.586 2.414 10l.414.414A4 4 0 0 1 4 13.243V16a2 2 0 0 0 2 2 1 1 0 0 1 0 2 4 4 0 0 1-4-4v-2.757a2 2 0 0 0-.586-1.415l-1.121-1.12a1 1 0 0 1 0-1.415l1.121-1.121A2 2 0 0 0 2 6.757V4a4 4 0 0 1 4-4 1 1 0 1 1 0 2 2 2 0 0 0-2 2v2.757a4 4 0 0 1-1.172 2.829Z"/>
</svg>
