<svg width="24" height="24" fill="currentColor" viewBox="0 -2 24 24" xmlns="http://www.w3.org/2000/svg">
  <path d="m21.586 10-.414-.414A4 4 0 0 1 20 6.757V4a2 2 0 0 0-2-2 1 1 0 0 1 0-2 4 4 0 0 1 4 4v2.757a2 2 0 0 0 .586 1.415l1.121 1.12a1 1 0 0 1 0 1.415l-1.121 1.121A2 2 0 0 0 22 13.243V16a4 4 0 0 1-4 4 1 1 0 0 1 0-2 2 2 0 0 0 2-2v-2.757a4 4 0 0 1 1.172-2.829l.414-.414ZM15 12.529v2.286a.973.973 0 0 1-1.5.818l-1.23-.792a.5.5 0 0 0-.54 0l-1.23.792a.973.973 0 0 1-1.5-.818v-2.334a1.368 1.368 0 0 0-.185-.238c-.444-.445-1.457-.544-1.72-1.16-.264-.618.37-1.383.362-2.042-.008-.658-.642-1.448-.403-2.04.238-.593 1.259-.742 1.703-1.186.445-.444.544-1.457 1.16-1.72.618-.264 1.383.37 2.042.362.658-.008 1.448-.642 2.04-.403.593.238.742 1.259 1.186 1.703.444.445 1.457.544 1.72 1.16.264.618-.362 1.408-.362 2.042.008.617.642 1.448.403 2.04-.238.593-1.259.742-1.703 1.186a1.468 1.468 0 0 0-.243.344ZM12 12a3 3 0 1 0 0-6 3 3 0 0 0 0 6Zm0-2a1 1 0 1 1 0-2 1 1 0 0 1 0 2Zm-9.172-.414L2.414 10l.414.414A4 4 0 0 1 4 13.243V16a2 2 0 0 0 2 2 1 1 0 0 1 0 2 4 4 0 0 1-4-4v-2.757a2 2 0 0 0-.586-1.415l-1.121-1.12a1 1 0 0 1 0-1.415l1.121-1.121A2 2 0 0 0 2 6.757V4a4 4 0 0 1 4-4 1 1 0 1 1 0 2 2 2 0 0 0-2 2v2.757a4 4 0 0 1-1.172 2.829Z"/>
</svg>
