<svg width="32" height="32" fill="currentColor" viewBox="0 0 32 32" xmlns="http://www.w3.org/2000/svg">
  <path d="M19.352 7.048c-.848 1.127-2.309 1.997-3.721 1.95-.259-1.446.405-2.942 1.206-3.948.884-1.105 2.397-1.959 3.692-2.05.218 1.513-.384 2.997-1.177 4.048ZM27 21.395c-.602 1.29-.89 1.868-1.662 3.008-1.08 1.593-2.604 3.581-4.488 3.595-1.677.013-2.11-1.06-4.385-1.043-2.274.01-2.75 1.061-4.427 1.045-1.884-.016-3.327-1.808-4.408-3.398-3.02-4.46-3.338-9.687-1.471-12.469 1.32-1.972 3.41-3.13 5.374-3.13 2 0 3.256 1.065 4.909 1.065 1.603 0 2.58-1.068 4.893-1.068 1.749 0 3.598.923 4.918 2.516-4.32 2.295-3.62 8.277.747 9.879Z"/>
</svg>
