<svg width="24" height="24" fill="currentColor" viewBox="0 0 24 24" xmlns="http://www.w3.org/2000/svg">
  <path d="M15.964 1c.174 1.26-.307 2.497-.942 3.373-.678.94-1.846 1.665-2.977 1.625-.206-1.205.325-2.451.965-3.29.708-.92 1.918-1.632 2.954-1.708Zm3.676 17.971c-.883 1.342-2.13 3.016-3.672 3.027-1.372.01-1.725-.892-3.588-.878-1.86.009-2.249.894-3.622.88-1.541-.013-2.722-1.522-3.606-2.861-2.471-3.756-2.731-8.158-1.204-10.5 1.08-1.661 2.791-2.637 4.397-2.637 1.637 0 2.664.897 4.017.897 1.311 0 2.11-.899 4.003-.899 1.431 0 2.944.777 4.024 2.119-3.535 1.933-2.961 6.97.611 8.318-.493 1.088-.728 1.574-1.36 2.534Z"/>
</svg>
