<svg width="24" height="24" fill="currentColor" viewBox="-2 -2 24 24" xmlns="http://www.w3.org/2000/svg">
  <path d="M13.293.293A1 1 0 0 1 14 0h5a1 1 0 0 1 1 1v7a1 1 0 0 1-1 1H1a1 1 0 0 1-1-1V1a1 1 0 0 1 1-1h5.004a1 1 0 0 1 .709.294L7.415 1h5.17l.708-.707ZM2 7h16V2h-3.586l-.707.707A1 1 0 0 1 13 3H7a1 1 0 0 1-.709-.294L5.59 2H2v5Zm5-2a1 1 0 0 1 .99-1h4.02c.546 0 .99.444.99 1a1 1 0 0 1-.99 1H7.99A.993.993 0 0 1 7 5Zm6.293 6.293A1 1 0 0 1 14 11h5a1 1 0 0 1 1 1v7a1 1 0 0 1-1 1H1a1 1 0 0 1-1-1v-7a1 1 0 0 1 1-1h5.004a1 1 0 0 1 .709.294l.702.706h5.17l.708-.707ZM2 18h16v-5h-3.586l-.707.707A1 1 0 0 1 13 14H7a1 1 0 0 1-.709-.294L5.59 13H2v5Zm5-2a1 1 0 0 1 .99-1h4.02c.546 0 .99.444.99 1a1 1 0 0 1-.99 1H7.99A.993.993 0 0 1 7 16Z"/>
</svg>
