<svg width="32" height="32" fill="currentColor" viewBox="-3 -1 32 32" xmlns="http://www.w3.org/2000/svg">
  <path d="M20 11c0-3.074-3.431-6-7-6s-7 2.926-7 6v4.994c0 2.034-1.49 3.94-3.456 4.432l-.118.029c-.181.045-.426.36-.426.55v1.986A1.01 1.01 0 0 0 3.008 24h19.984c.559 0 1.008-.45 1.008-1.01v-1.984c0-.197-.24-.505-.426-.551l-.118-.03C21.492 19.936 20 18.02 20 15.996V11Zm-7.998-7.94a8.481 8.481 0 0 1 1.996 0L14 3a1 1 0 1 0-1.998.06Zm3.954.454C19.25 4.656 22 7.577 22 11v4.994c0 1.108.868 2.223 1.941 2.491l.118.03c1.072.268 1.941 1.372 1.941 2.49v1.986A3.006 3.006 0 0 1 22.992 26H17a4 4 0 1 1-8 0H3.008A3.01 3.01 0 0 1 0 22.99v-1.984c0-1.108.868-2.223 1.941-2.491l.118-.03C3.13 18.217 4 17.113 4 15.995V11c0-3.423 2.75-6.344 6.044-7.486a3 3 0 1 1 5.912 0Zm-2.422 22.483a63.164 63.164 0 0 1-1.068 0c-.768-.006-1.207.006-1.466.037a2 2 0 0 0 4 0c-.259-.031-.698-.043-1.466-.037Z"/>
</svg>
