<svg width="24" height="24" fill="currentColor" viewBox="-2 -1 24 24" xmlns="http://www.w3.org/2000/svg">
  <path d="M10 4C7.062 4 4.7 6.25 4.7 9v2.501c0 1.251-.892 2.525-2.066 2.96l-.342.127c-.13.048-.292.281-.292.421v1.49c0 .273.228.501.504.501h14.992c.285 0 .504-.22.504-.5v-1.49c0-.145-.16-.373-.292-.422l-.342-.127c-1.177-.436-2.066-1.71-2.066-2.96V9c0-2.75-2.362-5-5.3-5Zm1.983-1.738C15.046 3.089 17.3 5.785 17.3 9v2.501c0 .412.368.94.76 1.085l.343.126c.916.34 1.597 1.315 1.597 2.297v1.49A2.495 2.495 0 0 1 17.496 19H13a3 3 0 0 1-6 0H2.504A2.507 2.507 0 0 1 0 16.5v-1.49c0-.976.682-1.959 1.597-2.298l.342-.126c.392-.145.761-.673.761-1.085V9c0-3.215 2.254-5.911 5.317-6.738a2 2 0 1 1 3.966 0ZM11 19H9a1 1 0 0 0 2 0Z"/>
</svg>
