<svg width="32" height="32" fill="currentColor" viewBox="0 0 32 32" xmlns="http://www.w3.org/2000/svg">
  <path d="M5 2h22a3 3 0 0 1 3 3v22a3 3 0 0 1-3 3H5a3 3 0 0 1-3-3V5a3 3 0 0 1 3-3Zm0 2a1 1 0 0 0-1 1v5h24V5a1 1 0 0 0-1-1H5Zm-1 8v15a1 1 0 0 0 1 1h22a1 1 0 0 0 1-1V12H4Zm13.414 8 2.829 2.828a1 1 0 0 1-1.415 1.415L16 21.414l-2.828 2.829a1 1 0 1 1-1.415-1.415L14.586 20l-2.829-2.828a1 1 0 0 1 1.415-1.415L16 18.586l2.828-2.829a1 1 0 0 1 1.415 1.415L17.414 20ZM7 6a1 1 0 1 1 0 2 1 1 0 0 1 0-2Zm4 0a1 1 0 1 1 0 2 1 1 0 0 1 0-2Z"/>
</svg>
