<svg width="24" height="24" fill="currentColor" viewBox="-1 -3 24 24" xmlns="http://www.w3.org/2000/svg">
  <path d="M12 7.166c0-.43.141-.822.394-1.166 1.228.978 2.764 1.467 4.606 1.467s3.378-.49 4.606-1.467c.253.344.394.735.394 1.166C22 8.91 19.69 10 17 10s-5-1.09-5-2.834Zm0 4c0-.43.141-.822.394-1.166 1.228.978 2.764 1.467 4.606 1.467s3.378-.49 4.606-1.467c.253.344.394.735.394 1.166C22 12.91 19.69 14 17 14s-5-1.09-5-2.834Zm0 4c0-.43.141-.822.394-1.166 1.228.978 2.764 1.467 4.606 1.467s3.378-.49 4.606-1.467c.253.344.394.735.394 1.166C22 16.91 19.69 18 17 18s-5-1.09-5-2.834Zm-12 0c0-.43.141-.822.394-1.166 1.228.978 2.764 1.467 4.606 1.467s3.378-.49 4.606-1.467c.253.344.394.735.394 1.166C10 16.91 7.69 18 5 18s-5-1.09-5-2.834ZM17 6c-2.69 0-5-1.155-5-3s2.31-3 5-3 5 1.155 5 3-2.31 3-5 3ZM5 14c-2.69 0-5-1.155-5-3s2.31-3 5-3 5 1.155 5 3-2.31 3-5 3Z"/>
</svg>
