<svg width="32" height="32" fill="currentColor" viewBox="-4 -2 32 32" xmlns="http://www.w3.org/2000/svg">
  <path d="M1.555 27.832A1 1 0 0 1 0 27V1a1 1 0 0 1 1-1h22a1 1 0 0 1 1 1v26a1 1 0 0 1-1.555.832L20 26.202l-2.445 1.63a1 1 0 0 1-1.11 0l-2.318-1.545-1.42 1.42a1 1 0 0 1-1.262.125l-2.318-1.545-1.42 1.42a1 1 0 0 1-1.262.125L4 26.202l-2.445 1.63Zm1.89-3.664a1 1 0 0 1 1.11 0l2.318 1.545 1.42-1.42a1 1 0 0 1 1.262-.125l2.318 1.545 1.42-1.42a1 1 0 0 1 1.262-.125L17 25.798l2.445-1.63a1 1 0 0 1 1.11 0L22 25.13V2H2v23.131l1.445-.963ZM5 5h7a1 1 0 0 1 0 2H5a1 1 0 1 1 0-2Zm13 0h1a1 1 0 0 1 0 2h-1a1 1 0 0 1 0-2Zm0 4h1a1 1 0 0 1 0 2h-1a1 1 0 0 1 0-2Zm0 4h1a1 1 0 0 1 0 2h-1a1 1 0 0 1 0-2Zm-4 6h5a1 1 0 0 1 0 2h-5a1 1 0 0 1 0-2ZM5 9h2a1 1 0 1 1 0 2H5a1 1 0 0 1 0-2Zm0 4h5a1 1 0 0 1 0 2H5a1 1 0 0 1 0-2Z"/>
</svg>
