<svg width="16" height="16" fill="currentColor" viewBox="-2 -1 16 16" xmlns="http://www.w3.org/2000/svg">
  <path d="M1.447 13.894A1 1 0 0 1 0 13V1a1 1 0 0 1 1-1h10a1 1 0 0 1 1 1v12a1 1 0 0 1-1.447.894l-1.356-.677-.49.49a1 1 0 0 1-1.154.187L6 13.118l-1.553.776a1 1 0 0 1-1.154-.187l-.49-.49-1.356.677ZM2 2v9.382l.553-.276a1 1 0 0 1 1.154.187l.49.49 1.356-.677a1 1 0 0 1 .894 0l1.356.677.49-.49a1 1 0 0 1 1.154-.187l.553.276V2H2Zm1.5 2h2a.5.5 0 0 1 0 1h-2a.5.5 0 0 1 0-1Zm4 0h1a.5.5 0 0 1 0 1h-1a.5.5 0 0 1 0-1Zm0 2h1a.5.5 0 0 1 0 1h-1a.5.5 0 0 1 0-1Zm-4 0h1a.5.5 0 0 1 0 1h-1a.5.5 0 0 1 0-1Zm3 2h2a.5.5 0 0 1 0 1h-2a.5.5 0 0 1 0-1Z"/>
</svg>
