<svg width="16" height="16" fill="currentColor" viewBox="0 0 16 16" xmlns="http://www.w3.org/2000/svg">
  <path d="M7.004 0a1 1 0 0 1 1 1v3.083A6.003 6.003 0 0 1 13.007 10v.838c0 1.492.491 2.548 1.407 3.038.569.304.626.895.568 1.205-.057.308-.355.919-1.087.919H4.502c-1.373 0-2.265-.979-2.758-1.912C1.241 13.134 1 11.97 1 11v-1a6.003 6.003 0 0 1 5.003-5.917V1a1 1 0 0 1 1-1Zm4.004 11H3c0 .687.18 1.523.514 2.155.344.652.702.845.987.845h7.27c-.523-.897-.744-1.96-.764-3ZM7.004 6a4.004 4.004 0 0 0-3.877 3h7.753a4.004 4.004 0 0 0-3.876-3Z"/>
</svg>
