<svg width="16" height="16" fill="currentColor" viewBox="0 0 16 16" xmlns="http://www.w3.org/2000/svg">
  <path d="M9 11.5v-2h4v2c0 .086.01.17.031.25a2 2 0 1 0 1.938 0c.02-.08.031-.164.031-.25v-2a2 2 0 0 0-2-2H9v-1c0-.056-.005-.112-.014-.166A3.001 3.001 0 0 0 8 .5a3 3 0 0 0-.986 5.834A.915.915 0 0 0 7 6.5v1H3a2 2 0 0 0-2 2v2c0 .086.01.17.031.25a2 2 0 1 0 1.938 0c.02-.08.031-.164.031-.25v-2h4v2c0 .086.011.17.031.25a2 2 0 1 0 1.938 0c.02-.08.031-.164.031-.25Zm0-8a1 1 0 1 1-2 0 1 1 0 0 1 2 0z"/>
</svg>
