<svg width="32" height="32" fill="currentColor" viewBox="-1 -2 32 32" xmlns="http://www.w3.org/2000/svg">
  <path d="M14 9.9A5.002 5.002 0 0 1 15 0a5 5 0 0 1 1 9.9V14h8.009A2.997 2.997 0 0 1 27 16.998v3.128A4.002 4.002 0 0 1 26 28a4 4 0 0 1-1-7.874v-3.128a.997.997 0 0 0-.991-.998H16v4.001c0 .042-.003.083-.007.123A4.002 4.002 0 0 1 15 28a4 4 0 0 1-.993-7.876 1.006 1.006 0 0 1-.007-.123V16H5.991a.993.993 0 0 0-.991.998v3.128A4.002 4.002 0 0 1 4 28a4 4 0 0 1-1-7.874v-3.128A2.993 2.993 0 0 1 5.991 14H14V9.9ZM15 8a3 3 0 1 0 0-6 3 3 0 0 0 0 6Zm11 18a2 2 0 1 0 0-4 2 2 0 0 0 0 4ZM4 26a2 2 0 1 0 0-4 2 2 0 0 0 0 4Zm11 0a2 2 0 1 0 0-4 2 2 0 0 0 0 4Z"/>
</svg>
