<svg width="32" height="32" fill="currentColor" viewBox="-4 -1 32 32" xmlns="http://www.w3.org/2000/svg">
  <path d="M20 5h1.99A2 2 0 0 1 24 7.002v19.996A1.996 1.996 0 0 1 21.998 29H2.002A1.997 1.997 0 0 1 0 26.997V7.003A2 2 0 0 1 2.01 5H4V4a1 1 0 0 1 1-1h2V1.999C7 .897 7.9 0 8.997 0h6.006C16.107 0 17 .892 17 1.999V3h2a1 1 0 0 1 1 1v1ZM4 7c-.873 0-2 0-2 .003C2 7.003 1.997 27 2.002 27c0 0 19.998.004 19.998-.002 0 0 .002-19.998-.01-19.998H20v1a1 1 0 0 1-1 1H5a1 1 0 0 1-1-1V7Zm2-2v2h12V5h-1.001A1.996 1.996 0 0 1 15 3.001V2H8.996L9 3a1.996 1.996 0 0 1-1.999 2H6Zm-1 9a1 1 0 0 1 1.01-1h1.98a1 1 0 1 1 0 2H6.01C5.451 15 5 14.556 5 14Zm6 0c0-.552.453-1 .997-1h6.006c.55 0 .997.444.997 1 0 .552-.453 1-.997 1h-6.006A.996.996 0 0 1 11 14Zm-6 4a1 1 0 0 1 .99-1h4.02c.546 0 .99.444.99 1a1 1 0 0 1-.99 1H5.99A.993.993 0 0 1 5 18Zm8 0a1 1 0 0 1 .99-1h4.02c.546 0 .99.444.99 1a1 1 0 0 1-.99 1h-4.02a.993.993 0 0 1-.99-1Zm-8 4a1 1 0 0 1 1.01-1h1.98a1 1 0 1 1 0 2H6.01C5.451 23 5 22.556 5 22Zm6 0c0-.552.443-1 .999-1h1.002c.552 0 .999.444.999 1 0 .552-.443 1-.999 1h-1.002A.997.997 0 0 1 11 22Z"/>
</svg>
