<svg width="32" height="32" fill="currentColor" viewBox="-4 -2 32 32" xmlns="http://www.w3.org/2000/svg">
  <path d="M4 7H2v20h20V7h-2v1a1 1 0 0 1-1 1H5a1 1 0 0 1-1-1V7Zm16-2h2a2 2 0 0 1 2 2v20a2 2 0 0 1-2 2H2a2 2 0 0 1-2-2V7a2 2 0 0 1 2-2h2V4a1 1 0 0 1 1-1h2V1.999C7 .897 7.9 0 8.997 0h6.006C16.107 0 17 .892 17 1.999V3h2a1 1 0 0 1 1 1v1ZM6 5v2h12V5h-1.001A1.996 1.996 0 0 1 15 3.001V2H9v1a1.996 1.996 0 0 1-1.999 2H6Zm4.503 17.245a4.473 4.473 0 0 1-.529-.226l-1.461.73a.562.562 0 0 1-.618-.104l-.542-.542a.577.577 0 0 1-.105-.618l.731-1.462a4.473 4.473 0 0 1-.224-.526 1.384 1.384 0 0 1-.103-.036l-1.304-.522A.6.6 0 0 1 6 18.43v-.858c0-.205.157-.434.348-.51l1.304-.522c.031-.012.066-.024.103-.036.064-.18.139-.357.224-.526l-.731-1.462a.577.577 0 0 1 .105-.618l.542-.542a.56.56 0 0 1 .618-.105l1.461.73c.17-.085.347-.16.53-.225.01-.037.023-.072.035-.103l.522-1.304a.6.6 0 0 1 .51-.348h.858c.205 0 .434.157.51.348l.522 1.304c.012.031.024.066.036.103.182.064.358.14.529.226l1.461-.73a.562.562 0 0 1 .618.104l.542.542a.577.577 0 0 1 .105.618l-.731 1.462c.085.17.16.345.224.526.037.012.072.024.103.036l1.304.522a.6.6 0 0 1 .348.51v.858a.596.596 0 0 1-.348.51l-1.304.522a1.393 1.393 0 0 1-.103.036 4.473 4.473 0 0 1-.224.526l.731 1.462a.577.577 0 0 1-.105.618l-.542.542a.562.562 0 0 1-.618.105l-1.461-.73c-.17.085-.347.16-.53.225a1.384 1.384 0 0 1-.035.103l-.522 1.304a.6.6 0 0 1-.51.348h-.858a.596.596 0 0 1-.51-.348l-.522-1.304a1.393 1.393 0 0 1-.036-.103ZM12 21a3 3 0 1 0 0-6 3 3 0 0 0 0 6Z"/>
</svg>
