<svg width="32" height="32" fill="currentColor" viewBox="-4 -1 32 32" xmlns="http://www.w3.org/2000/svg">
  <path d="M4 5V4a1 1 0 0 1 1-1h2V1.999C7 .897 7.9 0 8.997 0h6.006C16.107 0 17 .892 17 1.999V3h2a1 1 0 0 1 1 1v1h2a2 2 0 0 1 2 2v6a1 1 0 0 1-2 0V7h-2v1a1 1 0 0 1-1 1H5a1 1 0 0 1-1-1V7H2v20h20v-4a1 1 0 0 1 2 0v4a2 2 0 0 1-2 2H2a2 2 0 0 1-2-2V7a2 2 0 0 1 2-2h2Zm2 0v2h12V5h-1.001A1.996 1.996 0 0 1 15 3.001V2H9v1a1.996 1.996 0 0 1-1.999 2H6Zm-1 9c0-.552.438-1 1.003-1h4.994A.999.999 0 0 1 12 14c0 .552-.438 1-1.003 1H6.003A.999.999 0 0 1 5 14Zm0 4a1 1 0 0 1 1.01-1h1.98a1 1 0 1 1 0 2H6.01C5.451 19 5 18.556 5 18Zm0 4a1 1 0 0 1 .99-1h4.02c.546 0 .99.444.99 1a1 1 0 0 1-.99 1H5.99A.993.993 0 0 1 5 22Zm10.414-3 2.293 2.293a1 1 0 0 1-1.414 1.414l-4-4a1 1 0 0 1 0-1.414l4-4a1 1 0 0 1 1.414 1.414L15.414 17H27a1 1 0 0 1 0 2H15.414Z"/>
</svg>
