<svg width="16" height="16" fill="currentColor" viewBox="0 0 16 16" xmlns="http://www.w3.org/2000/svg">
  <path d="M16 9a4.009 4.009 0 0 1-2.664 3.768 1 1 0 0 1-.672-1.884A2.009 2.009 0 0 0 14 9c0-.873-.565-1.638-1.381-1.903a1 1 0 0 1-.677-.781 4.001 4.001 0 0 0-7.884 0 1 1 0 0 1-.677.781 2.001 2.001 0 0 0-.046 3.79 1 1 0 0 1-.664 1.887 4 4 0 0 1-.461-7.352 6.003 6.003 0 0 1 11.58 0A4.001 4.001 0 0 1 16 9ZM5.5 9h5a.5.5 0 0 1 .5.5v2a.5.5 0 0 1-.5.5h-5a.5.5 0 0 1-.5-.5v-2a.5.5 0 0 1 .5-.5Zm0 4h5a.5.5 0 0 1 .5.5v2a.5.5 0 0 1-.5.5h-5a.5.5 0 0 1-.5-.5v-2a.5.5 0 0 1 .5-.5Zm4-2a.5.5 0 1 0 0-1 .5.5 0 0 0 0 1Zm0 4a.5.5 0 1 0 0-1 .5.5 0 0 0 0 1Zm-2 0a.5.5 0 1 0 0-1 .5.5 0 0 0 0 1Z"/>
</svg>
