<svg width="24" height="24" fill="currentColor" viewBox="0 0 24 24" xmlns="http://www.w3.org/2000/svg">
  <path d="M12 2c3.74 0 6.975 2.419 7.965 5.831C21.797 8.732 23 10.566 23 12.625c0 2.28-1.494 4.287-3.668 5.053a1 1 0 1 1-.664-1.887c1.39-.49 2.332-1.754 2.332-3.166 0-1.39-.894-2.63-2.237-3.138a1 1 0 0 1-.623-.722C17.539 6.015 14.99 4 12 4 9.29 4 6.919 5.658 6.061 8.063a1 1 0 0 1-.578.595C3.99 9.243 3 10.631 3 12.188c0 1.52.945 2.884 2.389 3.49a1 1 0 0 1-.775 1.844C2.442 16.61 1 14.53 1 12.188c0-2.245 1.324-4.245 3.338-5.211C5.594 3.999 8.603 2 12 2ZM8 12h2a1 1 0 0 1 1 1v2a1 1 0 0 1-1 1H8a1 1 0 0 1-1-1v-2a1 1 0 0 1 1-1Zm6 0h2a1 1 0 0 1 1 1v2a1 1 0 0 1-1 1h-2a1 1 0 0 1-1-1v-2a1 1 0 0 1 1-1Zm-6 6h2a1 1 0 0 1 1 1v2a1 1 0 0 1-1 1H8a1 1 0 0 1-1-1v-2a1 1 0 0 1 1-1Zm6 0h2a1 1 0 0 1 1 1v2a1 1 0 0 1-1 1h-2a1 1 0 0 1-1-1v-2a1 1 0 0 1 1-1Z"/>
</svg>
