<svg width="16" height="16" fill="currentColor" viewBox="0 0 16 16" xmlns="http://www.w3.org/2000/svg">
  <path d="M8 0c2.944 0 5.44 2.11 6.088 4.987C15.246 5.625 16 6.877 16 8.273 16 10.323 14.386 12 12.375 12h-.373a1 1 0 1 1 0-2h.373C13.264 10 14 9.235 14 8.273c0-.76-.465-1.418-1.126-1.645a1 1 0 0 1-.667-.81C11.909 3.631 10.114 2 8 2 6.133 2 4.493 3.276 3.942 5.125a1 1 0 0 1-.594.646C2.548 6.083 2 6.892 2 7.818 2 9.032 2.932 10 4.063 10a1 1 0 0 1 0 2C1.81 12 0 10.12 0 7.818c0-1.575.855-2.99 2.173-3.703C3.093 1.671 5.385 0 8 0Zm1 8.414V15a1 1 0 0 1-2 0V8.414l-.293.293a1 1 0 0 1-1.414-1.414l2-2a1 1 0 0 1 1.414 0l2 2a1 1 0 1 1-1.414 1.414L9 8.414Z"/>
</svg>
