<svg width="24" height="24" fill="currentColor" viewBox="0 0 24 24" xmlns="http://www.w3.org/2000/svg">
  <path d="M3 4h1a2 2 0 0 1 2-2h12a2 2 0 0 1 2 2h1a2 2 0 0 1 2 2v12a2 2 0 0 1-2 2h-1a2 2 0 0 1-2 2H6a2 2 0 0 1-2-2H3a2 2 0 0 1-2-2V6a2 2 0 0 1 2-2Zm0 2v12h1V6H3Zm17 0v12h1V6h-1ZM6 16v4h12v-4H6Zm0-6v4h12v-4H6Zm0-6v4h12V4H6Zm2 3a1 1 0 1 1 0-2 1 1 0 0 1 0 2Zm0 6a1 1 0 1 1 0-2 1 1 0 0 1 0 2Zm0 6a1 1 0 1 1 0-2 1 1 0 0 1 0 2Zm3-12a1 1 0 1 1 0-2 1 1 0 0 1 0 2Zm0 6a1 1 0 1 1 0-2 1 1 0 0 1 0 2Zm0 6a1 1 0 1 1 0-2 1 1 0 0 1 0 2Z"/>
</svg>
