<svg width="32" height="32" fill="currentColor" viewBox="-2 -2 32 32" xmlns="http://www.w3.org/2000/svg">
  <path d="M25.832 6.555 23.97 9.347c.147.315.28.636.396.964l2.877.719A1 1 0 0 1 28 12v4a1 1 0 0 1-.757.97l-2.877.72c-.117.327-.249.648-.396.963l1.862 2.792a1 1 0 0 1-.125 1.262l-3 3a1 1 0 0 1-1.262.125l-2.792-1.862c-.315.147-.636.28-.964.396l-.719 2.877A1 1 0 0 1 16 28h-4a1 1 0 0 1-.97-.757l-.72-2.877a10.935 10.935 0 0 1-.963-.396l-2.792 1.862a1 1 0 0 1-1.262-.125l-3-3a1 1 0 0 1-.125-1.262l1.862-2.792a10.935 10.935 0 0 1-.396-.964L.757 16.97A1 1 0 0 1 0 16v-4a1 1 0 0 1 .757-.97l2.877-.72c.117-.327.249-.648.396-.963L2.168 6.555a1 1 0 0 1 .125-1.262l3-3a1 1 0 0 1 1.262-.125L9.347 4.03c.315-.147.636-.28.964-.396L11.03.757A1 1 0 0 1 12 0h4a1 1 0 0 1 .97.757l.72 2.877c.327.117.648.249.963.396l2.792-1.862a1 1 0 0 1 1.262.125l3 3a1 1 0 0 1 .125 1.262ZM26 15.219v-2.438l-2.655-.664a1 1 0 0 1-.717-.685 8.938 8.938 0 0 0-.722-1.737 1 1 0 0 1 .17-1.186l.147-.146 1.49-2.236-1.84-1.84-2.236 1.49-.146.146a1 1 0 0 1-1.186.171 8.938 8.938 0 0 0-1.737-.722 1 1 0 0 1-.685-.717L15.22 2h-2.438l-.664 2.655a1 1 0 0 1-.685.717 8.938 8.938 0 0 0-1.737.722 1 1 0 0 1-1.186-.17l-.146-.147-2.236-1.49-1.84 1.84 1.49 2.236.146.146a1 1 0 0 1 .171 1.186 8.938 8.938 0 0 0-.722 1.737 1 1 0 0 1-.717.685L2 12.78v2.438l2.655.664a1 1 0 0 1 .717.685c.179.604.421 1.185.722 1.737a1 1 0 0 1-.17 1.186l-.147.146-1.49 2.236 1.84 1.84 2.236-1.49.146-.146a1 1 0 0 1 1.186-.171c.552.3 1.133.543 1.737.722a1 1 0 0 1 .685.717L12.78 26h2.438l.664-2.655a1 1 0 0 1 .685-.717 8.938 8.938 0 0 0 1.737-.722 1 1 0 0 1 1.186.17l.146.147 2.236 1.49 1.84-1.84-1.49-2.236-.146-.146a1 1 0 0 1-.171-1.186c.3-.552.543-1.133.722-1.737a1 1 0 0 1 .717-.685L26 15.22ZM14 20a6 6 0 1 1 0-12 6 6 0 0 1 0 12Zm0-2a4 4 0 1 0 0-8 4 4 0 0 0 0 8Z"/>
</svg>
