<svg width="24" height="24" fill="currentColor" viewBox="-2 -2 24 24" xmlns="http://www.w3.org/2000/svg">
  <path d="m12.335 1.397.3 1.199c.234.083.464.177.688.282l1.091-.727.904-.602a.714.714 0 0 1 .901.089l2.143 2.143c.241.24.278.618.09.9l-.603.905-.727 1.09c.105.225.199.455.282.689l1.2.3.855.213c.318.08.541.366.541.693v2.858a.714.714 0 0 1-.541.693l-.856.213-1.199.3a7.81 7.81 0 0 1-.282.688l.727 1.091.602.904a.714.714 0 0 1-.089.901l-2.143 2.143a.714.714 0 0 1-.9.09l-.905-.603-1.09-.727a7.81 7.81 0 0 1-.689.282l-.3 1.2-.213.855a.714.714 0 0 1-.693.541H8.57a.714.714 0 0 1-.693-.541l-.213-.856-.3-1.199a7.81 7.81 0 0 1-.688-.282l-1.091.727-.904.602a.714.714 0 0 1-.901-.089L1.638 16.22a.714.714 0 0 1-.09-.9l.603-.905.727-1.09a7.81 7.81 0 0 1-.282-.689l-1.2-.3-.855-.213A.714.714 0 0 1 0 11.429V8.57c0-.327.223-.613.541-.693l.856-.213 1.199-.3a7.81 7.81 0 0 1 .282-.688l-.727-1.091-.602-.904a.714.714 0 0 1 .089-.901L3.78 1.638a.714.714 0 0 1 .9-.09l.905.603 1.09.727c.225-.105.455-.199.689-.282l.3-1.2.213-.855A.714.714 0 0 1 8.571 0h2.858c.327 0 .613.223.693.541l.213.856Zm3.215 2.4-1.117.745a2 2 0 0 1-1.957.148 5.81 5.81 0 0 0-.511-.21 2 2 0 0 1-1.27-1.399L10.425 2h-.85l-.27 1.081a2 2 0 0 1-1.27 1.4 5.81 5.81 0 0 0-.511.21 2 2 0 0 1-1.957-.149L4.45 3.797l-.653.653.745 1.117a2 2 0 0 1 .148 1.957 5.81 5.81 0 0 0-.21.511 2 2 0 0 1-1.399 1.27L2 9.575v.85l1.081.27a2 2 0 0 1 1.4 1.27c.061.173.131.344.21.511a2 2 0 0 1-.149 1.957l-.745 1.117.653.653 1.117-.745a2 2 0 0 1 1.957-.148c.167.078.338.148.511.21a2 2 0 0 1 1.27 1.399L9.575 18h.85l.27-1.081a2 2 0 0 1 1.27-1.4 5.81 5.81 0 0 0 .511-.21 2 2 0 0 1 1.957.149l1.117.745.653-.653-.745-1.117a2 2 0 0 1-.148-1.957 5.81 5.81 0 0 0 .21-.511 2 2 0 0 1 1.399-1.27l1.081-.27v-.85l-1.081-.27a2 2 0 0 1-1.4-1.27 5.81 5.81 0 0 0-.21-.511 2 2 0 0 1 .149-1.957l.745-1.117-.653-.653ZM10 14a4 4 0 1 1 0-8 4 4 0 0 1 0 8Zm0-2a2 2 0 1 0 0-4 2 2 0 0 0 0 4Z"/>
</svg>
