<svg width="16" height="16" fill="currentColor" viewBox="0 0 16 16" xmlns="http://www.w3.org/2000/svg">
  <path d="M6.004 13.66a5.964 5.964 0 0 1-.705-.3l-1.949.973a.75.75 0 0 1-.824-.14l-.722-.722c-.203-.203-.263-.578-.14-.824l.975-1.95a5.964 5.964 0 0 1-.3-.701 1.845 1.845 0 0 1-.137-.048L.464 9.252A.8.8 0 0 1 0 8.572V7.428c0-.273.21-.578.464-.68l1.738-.696c.042-.016.088-.032.138-.048.085-.241.185-.475.3-.701l-.976-1.95c-.123-.246-.063-.62.14-.824l.722-.722a.75.75 0 0 1 .824-.14l1.95.974c.226-.115.462-.216.704-.301.016-.05.032-.096.048-.138L6.748.464A.8.8 0 0 1 7.428 0h1.144c.273 0 .578.21.68.464l.696 1.738c.016.042.032.088.048.138.242.085.478.186.705.3l1.949-.973a.75.75 0 0 1 .824.14l.722.722c.203.203.263.578.14.824l-.975 1.95c.114.226.214.46.3.701.049.016.095.032.137.048l1.738.696a.8.8 0 0 1 .464.68v1.144c0 .273-.21.578-.464.68l-1.738.696a1.858 1.858 0 0 1-.138.048 5.964 5.964 0 0 1-.3.701l.976 1.95c.123.246.063.62-.14.824l-.722.722a.75.75 0 0 1-.824.14l-1.95-.974a5.964 5.964 0 0 1-.704.301c-.016.05-.032.096-.048.138l-.696 1.738a.8.8 0 0 1-.68.464H7.428a.794.794 0 0 1-.68-.464l-.696-1.738a1.858 1.858 0 0 1-.048-.138ZM8 12a4 4 0 1 0 0-8 4 4 0 0 0 0 8Z"/>
</svg>
