<svg width="24" height="24" fill="currentColor" viewBox="0 0 24 24" xmlns="http://www.w3.org/2000/svg">
  <path d="M11 18H3.503C2.673 18 2 17.336 2 16.507V3.493C2 2.668 2.665 2 3.503 2h16.994C21.327 2 22 2.664 22 3.493v13.014c0 .825-.665 1.493-1.503 1.493H13v2h2.003c.55 0 .997.444.997 1 0 .552-.453 1-.997 1H8.997A.996.996 0 0 1 8 21c0-.552.453-1 .997-1H11v-2Zm9-2V4H4v12h16Zm-8-7.414 1.293-1.293a1 1 0 0 1 1.414 1.414L13.414 10l1.293 1.293a1 1 0 1 1-1.414 1.414L12 11.414l-1.293 1.293a1 1 0 1 1-1.414-1.414L10.586 10 9.293 8.707a1 1 0 0 1 1.414-1.414L12 8.586Z"/>
</svg>
