<svg width="16" height="16" fill="currentColor" viewBox="0 0 16 16" xmlns="http://www.w3.org/2000/svg">
  <path d="M8 6.5a1 1 0 1 1 2 0c0 .14.6.5 1.5.5s1.5-.36 1.5-.5a1 1 0 0 1 2 0C15 8.017 13.361 9 11.5 9S8 8.017 8 6.5Zm0 3a1 1 0 1 1 2 0c0 .14.6.5 1.5.5s1.5-.36 1.5-.5a1 1 0 0 1 2 0c0 1.517-1.639 2.5-3.5 2.5S8 11.017 8 9.5Zm0 3a1 1 0 0 1 2 0c0 .14.6.5 1.5.5s1.5-.36 1.5-.5a1 1 0 0 1 2 0c0 1.517-1.639 2.5-3.5 2.5S8 14.017 8 12.5Zm-8 0a1 1 0 0 1 2 0c0 .14.6.5 1.5.5s1.5-.36 1.5-.5a1 1 0 0 1 2 0C7 14.017 5.361 15 3.5 15S0 14.017 0 12.5ZM11.5 6C9.567 6 8 4.88 8 3.5S9.567 1 11.5 1 15 2.12 15 3.5 13.433 6 11.5 6Zm1.497-2.495c-.01 0-.053-.051-.185-.145C12.51 3.143 12.035 3 11.5 3s-1.01.143-1.312.36c-.158.112-.188.163-.188.14 0-.023.03.028.188.14.303.217.777.36 1.312.36s1.01-.143 1.312-.36c.132-.094.175-.145.185-.145v.01ZM3.5 12C1.567 12 0 10.88 0 9.5S1.567 7 3.5 7 7 8.12 7 9.5 5.433 12 3.5 12Zm1.497-2.495c-.01 0-.053-.051-.185-.145C4.51 9.143 4.035 9 3.5 9s-1.01.143-1.312.36C2.03 9.472 2 9.523 2 9.5c0-.023.03.028.188.14.303.217.777.36 1.312.36s1.01-.143 1.312-.36c.132-.094.175-.145.185-.145v.01Z"/>
</svg>
