<svg width="24" height="24" fill="currentColor" viewBox="0 0 24 24" xmlns="http://www.w3.org/2000/svg">
  <path d="M13 18a1 1 0 0 1 2 0c0 .032.042.106.197.238.519.441 1.597.762 2.803.762 1.222 0 2.302-.318 2.81-.755.145-.126.19-.208.19-.245a1 1 0 0 1 2 0c0 .677-.33 1.281-.885 1.76C21.201 20.548 19.663 21 18 21c-1.645 0-3.179-.456-4.098-1.238C13.334 19.279 13 18.685 13 18ZM1 18a1 1 0 0 1 2 0c0 .032.042.106.197.238C3.716 18.68 4.794 19 6 19c1.222 0 2.302-.318 2.81-.755.145-.126.19-.208.19-.245a1 1 0 0 1 2 0c0 .677-.33 1.281-.885 1.76C9.201 20.548 7.663 21 6 21c-1.645 0-3.179-.456-4.098-1.238C1.334 19.279 1 18.685 1 18Zm12-4a1 1 0 0 1 2 0c0 .032.042.106.197.238.519.441 1.597.762 2.803.762 1.222 0 2.302-.318 2.81-.755.145-.126.19-.208.19-.245a1 1 0 0 1 2 0c0 .677-.33 1.281-.885 1.76C21.201 16.548 19.663 17 18 17c-1.645 0-3.179-.456-4.098-1.238C13.334 15.279 13 14.685 13 14Zm0-4a1 1 0 0 1 2 0c0 .032.042.106.197.238.519.441 1.597.762 2.803.762 1.222 0 2.302-.318 2.81-.755.145-.126.19-.208.19-.245a1 1 0 0 1 2 0c0 .677-.33 1.281-.885 1.76C21.201 12.548 19.663 13 18 13c-1.645 0-3.179-.456-4.098-1.238C13.334 11.279 13 10.685 13 10Zm5-1c-2.69 0-5-1.155-5-3s2.31-3 5-3 5 1.155 5 3-2.31 3-5 3Zm0-2c1.657 0 3-.448 3-1s-1.343-1-3-1-3 .448-3 1 1.343 1 3 1ZM6 17c-2.69 0-5-1.155-5-3s2.31-3 5-3 5 1.155 5 3-2.31 3-5 3Zm0-2c1.657 0 3-.448 3-1s-1.343-1-3-1-3 .448-3 1 1.343 1 3 1Z"/>
</svg>
