<svg width="24" height="24" fill="currentColor" viewBox="-1 -1 24 24" xmlns="http://www.w3.org/2000/svg">
  <path d="M2 15v-3H1a1 1 0 0 1 0-2h1V7H1a1 1 0 1 1 0-2h1V3a1 1 0 0 1 1-1h2V1a1 1 0 1 1 2 0v1h3V1a1 1 0 0 1 2 0v1h3V1a1 1 0 0 1 2 0v1h2a1 1 0 0 1 1 1v2h1a1 1 0 0 1 0 2h-1v3h1a1 1 0 0 1 0 2h-1v3h1a1 1 0 0 1 0 2h-1v2a1 1 0 0 1-1 1h-2v1a1 1 0 0 1-2 0v-1h-3v1a1 1 0 0 1-2 0v-1H7v1a1 1 0 0 1-2 0v-1H3a1 1 0 0 1-1-1v-2H1a1 1 0 0 1 0-2h1ZM4 4v14h14V4H4Zm4 3h6a1 1 0 0 1 1 1v6a1 1 0 0 1-1 1H8a1 1 0 0 1-1-1V8a1 1 0 0 1 1-1Zm1 2v4h4V9H9Z"/>
</svg>
