<svg width="16" height="16" fill="currentColor" viewBox="0 -2 16 16" xmlns="http://www.w3.org/2000/svg">
  <path d="m13.998 4.055 1.583 1.131A1 1 0 0 1 15 7v4a1 1 0 0 1 0 2H1a1 1 0 0 1 0-2V7a.999.999 0 0 1-.581-1.814l7-5a1 1 0 0 1 1.162 0L12 2.628V2.01a1 1 0 1 1 2 0v1.982c0 .021 0 .043-.002.064ZM9 11h4V5.8L8 2.23 3 5.8V11h4V9c0-.552.444-1 1-1 .552 0 1 .444 1 1v2Zm-8 0Zm4-5a1 1 0 0 1 1 1v1a1 1 0 1 1-2 0V7a1 1 0 0 1 1-1Zm6 0a1 1 0 0 1 1 1v1a1 1 0 0 1-2 0V7a1 1 0 0 1 1-1ZM8 4a1 1 0 0 1 1 1v1a1 1 0 1 1-2 0V5a1 1 0 0 1 1-1Z"/>
</svg>
