<svg width="24" height="24" fill="currentColor" viewBox="-1 -4 24 24" xmlns="http://www.w3.org/2000/svg">
  <path d="M20 8.52V15h1a1 1 0 0 1 0 2H1a1 1 0 0 1 0-2h1V8.52l-.427.3A1 1 0 1 1 .427 7.18l10-7a1 1 0 0 1 1.146 0l10 7a1 1 0 0 1-1.146 1.64L20 8.52Zm-2-1.4-7-4.9-7 4.9V15h14V7.12ZM11 6a1 1 0 0 1 1 1v2a1 1 0 0 1-2 0V7a1 1 0 0 1 1-1Zm6-5a1 1 0 0 1 1 1v3a1 1 0 0 1-2 0V2a1 1 0 0 1 1-1ZM7 11a1 1 0 0 1 1 1v1a1 1 0 0 1-2 0v-1a1 1 0 0 1 1-1Zm8 0a1 1 0 0 1 1 1v1a1 1 0 0 1-2 0v-1a1 1 0 0 1 1-1Zm0-4a1 1 0 0 1 1 1v1a1 1 0 0 1-2 0V8a1 1 0 0 1 1-1ZM7 7a1 1 0 0 1 1 1v1a1 1 0 1 1-2 0V8a1 1 0 0 1 1-1Zm4 4a1 1 0 0 1 1 1v3a1 1 0 0 1-2 0v-3a1 1 0 0 1 1-1Z"/>
</svg>
