<svg width="16" height="16" fill="currentColor" viewBox="0 0 16 16" xmlns="http://www.w3.org/2000/svg">
  <path d="M15.995 8.49 16 12.879c0 .35-.183.675-.482.857l-3.549 2.122a1.006 1.006 0 0 1-1.038 0L8.5 14.41l-2.432 1.442a1 1 0 0 1-1.035 0l-3.551-2.124A.997.997 0 0 1 1 12.874V8.488a1 1 0 0 1 .482-.856L3.95 6.14V3.129a1 1 0 0 1 .481-.855l3.55-2.13a1.004 1.004 0 0 1 1.037.001l3.544 2.129a1 1 0 0 1 .482.855v3.016l2.468 1.492a1 1 0 0 1 .483.854Zm-4.545 5.37L14 12.316l-.004-3.26-.996-.6v2.59a1 1 0 0 1-.537.887l-2.251 1.178 1.238.75Zm-5.898-.004 1.236-.747-2.251-1.177A1 1 0 0 1 4 11.046v-2.6l-1 .606v3.258l2.552 1.546Zm2.948-2.11 2.5-1.305V7.457L8.5 5.875 6 7.457v2.983l2.5 1.307Zm0-9.598L5.95 3.693v1.429l2.016-1.276a.998.998 0 0 1 1.069 0l2.009 1.272V3.692L8.5 2.148Z"/>
</svg>
