<svg width="24" height="24" fill="currentColor" viewBox="0 0 24 24" xmlns="http://www.w3.org/2000/svg">
  <path d="M21.994 13.372 22 18.595c0 .709-.373 1.364-.983 1.725l-4.066 2.4a2.001 2.001 0 0 1-2.035 0l-2.915-1.722-2.917 1.718a1.993 1.993 0 0 1-2.032-.001l-4.069-2.403A1.999 1.999 0 0 1 2 18.59v-5.222c0-.708.375-1.363.985-1.722l2.949-1.739V6.402c0-.708.373-1.363.982-1.722l4.067-2.402a2.001 2.001 0 0 1 2.035.001l4.059 2.401a2 2 0 0 1 .982 1.721v3.511l2.951 1.74c.609.359.984 1.013.984 1.72Zm-6.06 7.627L20 18.598l-.006-5.223L18 12.2v3.82a2 2 0 0 1-.992 1.728l-3.309 1.93 2.235 1.32Zm-7.865-.006 2.233-1.315-3.309-1.93A1.999 1.999 0 0 1 6 16.02v-3.831l-2 1.179v5.222l4.069 2.403Zm3.932-2.64L16 16.02v-5.042l-3.999-2.333L8 10.978v5.042l4.001 2.333ZM12 4 7.934 6.402v2.3l3.059-1.784a1.999 1.999 0 0 1 2.016 0l3.05 1.779V6.401L12 4Z"/>
</svg>
