<svg width="32" height="32" fill="currentColor" viewBox="-1 -3 32 32" xmlns="http://www.w3.org/2000/svg">
  <path d="M16 2.031v.97A.997.997 0 0 1 15 4c-.552 0-1-.443-1-.999v-.97c-3.29.208-6.127 1.434-8.216 3.339l.923.923a1 1 0 0 1-1.414 1.414l-.868-.868C2.88 8.826 2 11.296 2 14h1.001c.552 0 .999.444.999 1 0 .552-.443 1-.999 1h-.915c.193 2.215.706 4.16 1.444 5.733.374.796.786 1.445 1.173 1.883.154.175.294.303.41.384h4.363c.03-.083.065-.187.111-.322.14-.41.201-.58.291-.778.265-.584.51-.9 1.166-.9h7.925c.653 0 .901.316 1.167.896.09.198.154.369.294.779l.114.325s4.346-.004 4.353-.009c.106-.072.246-.2.4-.375.387-.438.799-1.087 1.173-1.883.738-1.573 1.25-3.518 1.444-5.733H27a.997.997 0 0 1-1-1c0-.552.443-1 .999-1H28c0-6.424-4.969-11.526-12-11.969ZM18.425 24h-6.833c-.03.083-.065.187-.111.322-.14.41-.202.58-.291.778-.265.584-.51.9-1.166.9H5c-2.34 0-5-5.667-5-12C0 6.156 6.354 0 15 0s15 6.156 15 14c0 6.333-2.66 12-5 12h-5c-.652 0-.9-.316-1.166-.896a7.947 7.947 0 0 1-.295-.779 22.846 22.846 0 0 0-.114-.325Zm-.717-10.293a3 3 0 1 1-1.414-1.414l3.999-4a1 1 0 0 1 1.414 1.414l-4 4ZM15 16a1 1 0 1 0 0-2 1 1 0 0 0 0 2Z"/>
</svg>
