<svg width="16" height="16" fill="currentColor" viewBox="0 0 16 16" xmlns="http://www.w3.org/2000/svg">
  <path d="M16 3.5v9c0 1.933-3.582 3.5-8 3.5s-8-1.567-8-3.5v-9C0 1.567 3.582 0 8 0s8 1.567 8 3.5Zm-2 7.146C12.534 11.476 10.39 12 8 12s-4.534-.524-6-1.354v1.826c.203.21.638.449 1.145.67C4.367 13.678 6.11 14 8 14c1.889 0 3.633-.323 4.855-.857.507-.222.942-.46 1.145-.67.036-.038.036-.647 0-1.827Zm0-4C12.534 7.476 10.39 8 8 8s-4.534-.524-6-1.354v1.826c.203.21.638.449 1.145.67C4.367 9.678 6.11 10 8 10c1.889 0 3.633-.323 4.855-.857.507-.222.942-.46 1.145-.67.036-.038.036-.647 0-1.827ZM8 6c3.314 0 6-.895 6-2s-2.686-2-6-2-6 .895-6 2 2.686 2 6 2Z"/>
</svg>
