<svg width="16" height="16" fill="currentColor" viewBox="0 0 16 16" xmlns="http://www.w3.org/2000/svg">
  <path d="M4 10V8a1 1 0 0 1 .684-.949l3-1a1 1 0 0 1 .632 0l3 1A1 1 0 0 1 12 8v4c0 1.836-1.318 3.154-3.682 3.948a1 1 0 0 1-.636 0C5.318 15.154 4 13.836 4 12c-2.252 0-4-1.88-4-4.182 0-1.575.855-2.99 2.173-3.703C3.093 1.671 5.385 0 8 0c2.944 0 5.44 2.11 6.088 4.987C15.246 5.625 16 6.877 16 8.273 16 10.323 14.386 12 12.375 12h-.373v-2h.373C13.264 10 14 9.235 14 8.273c0-.76-.465-1.418-1.126-1.645a1 1 0 0 1-.667-.81C11.909 3.631 10.114 2 8 2 6.133 2 4.493 3.276 3.942 5.125a1 1 0 0 1-.594.646C2.548 6.083 2 6.892 2 7.818 2 9.032 2.87 10 4 10Zm6 2V8.72l-2-.666-2 .667V12c0 .765.593 1.41 2 1.939 1.407-.53 2-1.174 2-1.939Zm-2-2a1 1 0 1 1 0 2 1 1 0 0 1 0-2Z"/>
</svg>
