<svg width="24" height="24" fill="currentColor" viewBox="-1 -2 24 24" xmlns="http://www.w3.org/2000/svg">
  <path d="M8 15c0 .644.468 1.377 1.349 2.058.4.309.849.576 1.266.763.144.065.274.115.382.15a3.89 3.89 0 0 0 .379-.151c.418-.19.87-.461 1.271-.774C13.53 16.36 14 15.626 14 15v-4.36l-3-.6-3 .6V15ZM6.804 8.84l3.804-.762a2 2 0 0 1 .784 0l3.804.761a1 1 0 0 1 .804.98V15c0 3-4 5-5 5s-5-1.96-5-5V9.82a1 1 0 0 1 .804-.98ZM11 0c3.74 0 6.975 2.419 7.965 5.831C20.797 6.732 22 8.567 22 10.625c0 2.28-1.494 4.287-3.668 5.053a1 1 0 0 1-.664-1.887c1.39-.49 2.332-1.754 2.332-3.166 0-1.39-.894-2.63-2.237-3.138a1 1 0 0 1-.623-.722C16.539 4.015 13.99 2 11 2 8.29 2 5.919 3.658 5.061 6.063a1 1 0 0 1-.578.595C2.99 7.243 2 8.631 2 10.188c0 1.52.945 2.884 2.389 3.49a1 1 0 1 1-.775 1.844C1.442 14.61 0 12.53 0 10.187c0-2.244 1.324-4.244 3.338-5.21C4.594 1.999 7.603 0 11 0Zm0 12a1 1 0 0 1 1 1v2a1 1 0 0 1-2 0v-2a1 1 0 0 1 1-1Z"/>
</svg>
