<svg width="16" height="16" fill="currentColor" viewBox="0 0 16 16" xmlns="http://www.w3.org/2000/svg">
  <path d="M6 1a1 1 0 1 1 0 2H3v10h10v-3l.007-.117a1 1 0 0 1 1.986 0L15 10v3a2 2 0 0 1-2 2H3a2 2 0 0 1-2-2V3a2 2 0 0 1 2-2h3Zm9.075-.226.154.155a2.644 2.644 0 0 1-.003 3.734l-5.2 5.198a.88.88 0 0 1-.409.232l-3.522.88a.88.88 0 0 1-1.068-1.068l.88-3.52a.88.88 0 0 1 .232-.41l5.2-5.198a2.636 2.636 0 0 1 3.736-.003Zm-2.322 1.418L7.773 7.17 7.42 8.58l1.411-.353 4.98-4.978a.643.643 0 0 0 .004-.906l-.154-.155a.636.636 0 0 0-.908.004Z"/>
</svg>
