<svg width="32" height="32" fill="currentColor" viewBox="0 0 32 32" xmlns="http://www.w3.org/2000/svg">
  <path d="M7 13a9 9 0 1 1 13 8.064V25h-8v-3.936A9.001 9.001 0 0 1 7 13Zm11 6.744.625-.252A7.002 7.002 0 0 0 16 6a7 7 0 0 0-2.625 13.492l.625.252V23h4v-3.256ZM12 27h8v2h-8v-2ZM5.045 14H1v-2h4.045a11.14 11.14 0 0 0 0 2Zm.966-5.613L2.51 6.366l1-1.732 3.502 2.022c-.383.543-.72 1.122-1.001 1.731Zm18.977-1.73 3.502-2.023 1 1.732-3.5 2.021a10.988 10.988 0 0 0-1.002-1.73ZM26.955 12H31v2h-4.045a11.14 11.14 0 0 0 0-2Zm-.966 5.613 3.501 2.021-1 1.732-3.502-2.022c.383-.543.72-1.122 1.001-1.731Zm-18.977 1.73L3.51 21.367l-1-1.732 3.5-2.021c.283.609.619 1.188 1.002 1.73Z"/>
</svg>
