<svg width="16" height="16" fill="currentColor" viewBox="0 0 16 16" xmlns="http://www.w3.org/2000/svg">
  <path d="M12 14a1 1 0 0 1 2 0v1a1 1 0 0 1-1 1H1a1 1 0 0 1-1-1V1a1 1 0 0 1 1-1h12a1 1 0 0 1 1 1v4a1 1 0 0 1-2 0V2H2v12h10Zm3.892-3.608a.71.71 0 0 1-.23.98c-1.068.663-1.921.343-2.573-.539-.46 1.222-1.303 1.307-2.037.351-.483.579-.942.857-1.462.811-.48-.042-.88-.352-1.256-.977-.381.342-.808.64-1.28.894a.715.715 0 0 1-.968-.288.71.71 0 0 1 .29-.965 5.027 5.027 0 0 0 1.329-1.022 29.065 29.065 0 0 1-.675-2.145c-.437-1.558.188-3.172 1.301-3.805 1.46-.828 2.54.418 2.277 2.55-.176 1.425-.598 2.636-1.265 3.622l.07.146c.114.231.219.4.307.508l.074-.071c.197-.194.44-.52.72-.974a.715.715 0 0 1 1.27.104c.036.089.071.172.106.249l.005-.03c.061-.331.122-.566.199-.743.155-.36.418-.62.878-.566.328.04.497.2.667.46.085.13.374.688.433.79.328.562.485.649.837.431a.716.716 0 0 1 .983.229ZM9.19 6.063c.084-.676.016-1.083-.091-1.206.011.013.033.015-.06.068-.533.302-.897 1.243-.634 2.184.097.345.192.665.283.96.242-.589.41-1.257.502-2.006Z"/>
</svg>
