<svg width="16" height="16" fill="currentColor" viewBox="0 0 16 16" xmlns="http://www.w3.org/2000/svg">
  <path d="M4.5 5a.5.5 0 0 1 .5.5v1a.5.5 0 0 1-.5.5H2v1h1.7a.3.3 0 0 1 .3.3v.4a.3.3 0 0 1-.3.3H2v1h2.5a.5.5 0 0 1 .5.5v1a.5.5 0 0 1-.5.5h-4a.5.5 0 0 1-.5-.5v-6A.5.5 0 0 1 .5 5h4ZM10 5a.5.5 0 0 1 .5.5v1a.5.5 0 0 1-.5.5H9v4.5a.5.5 0 0 1-.5.5h-1a.5.5 0 0 1-.5-.5V7H6a.5.5 0 0 1-.5-.5v-1A.5.5 0 0 1 6 5h4Zm2.5 0a.5.5 0 0 1 .5.5V8h1V5.5a.5.5 0 0 1 .5-.5h1a.5.5 0 0 1 .5.5v6a.5.5 0 0 1-.5.5h-1a.5.5 0 0 1-.5-.5V9h-1v2.5a.5.5 0 0 1-.5.5h-1a.5.5 0 0 1-.5-.5v-6a.5.5 0 0 1 .5-.5h1Z"/>
</svg>
