<svg width="32" height="32" fill="currentColor" viewBox="0 0 32 32" xmlns="http://www.w3.org/2000/svg">
  <path d="M3 26.3 18 29V3L3 5.67V26.3ZM28.61 8.21c.97 0 1.39.43 1.39 1.41 0 4.253-.003 8.503-.01 12.75 0 1.067-.354 1.471-1.355 1.507l-.155.003h-9v-1.89c.566.07.89-.247 1.183-.61l.237-.3a19.48 19.48 0 0 0 2.51-3.78c-.048-.096-.109-.192-.182-.227l-.058-.013-1.78 1.74c-.44.433-.873.873-1.3 1.32a.55.55 0 0 1-.497.2l-.093-.02v-3.8l1.23.65c.252.135.285.14.443-.071L21.23 17l-1.54-1.54a.55.55 0 0 1-.206-.314l-.014-.096v-3.24c.31.01.67-.09.89.11.22.2.43.4.66.62a5 5 0 0 0 .59-.78c.077-.111.037-.2-.04-.28l-.04-.04-1.21-1.14c-.21-.193-.474-.094-.724-.14l-.106-.03V8.28a.663.663 0 0 1 .3-.069l.1-.001h8.72Zm-4.94 6.78c-.23-.13-.41-.14-.55.22.112.08.219.167.32.26l2.72 2.68c.12.11.26.21.26.39v1.82h-1.3a4.46 4.46 0 0 1-1.78-.75l-.52.68c-.14.17-.09.3.06.44.37.32.73.65 1.08 1a.76.76 0 0 0 .56.24h3c.46-.01.56-.12.56-.58h-.01c0-.9-.02-1.81-.01-2.68a1.07 1.07 0 0 0-.39-.91 22.48 22.48 0 0 0-4-2.81ZM13.22 9.6v2.17H9.75a1.2 1.2 0 0 0-.07.6v1.6c0 .26.1.31.32.32h2.6v2.14H9.71v2.44l3.4.28v2.3l-5.7-.65V10l5.81-.4Zm14.42.57h-3a.72.72 0 0 0-.55.25 20.52 20.52 0 0 0-3 4.19c-.114.21-.09.351.045.423l.058.023.682-.653c.453-.433.901-.856 1.347-1.278l.668-.635a1.84 1.84 0 0 1 1.58-.65c.91 0 .992 0 1 .751v.249c.019.69.037 1.39-.562 1.895l-.138.105v.09l.69.5c.14.114.25.09.362-.012l.048-.048 1.09-1.16a.6.6 0 0 0 .149-.344l.001-.096v-3.12c0-.32-.14-.48-.47-.48Zm-6.447 4.886-.003.004h.01l-.007-.004Z"/>
</svg>
