<svg width="24" height="24" fill="currentColor" viewBox="-1 -1 24 24" xmlns="http://www.w3.org/2000/svg">
  <path d="M13 14.743c-.588-.415-1.602-.577-1.886-1.244-.316-.741.444-1.66.434-2.45-.01-.79-.77-1.738-.484-2.449.287-.711 1.511-.889 2.045-1.422.533-.533.652-1.748 1.392-2.064.741-.316 1.66.444 2.45.434.79-.01 1.738-.77 2.449-.484.711.287.889 1.511 1.422 2.045.533.533 1.748.652 2.064 1.392.316.741-.434 1.69-.434 2.45.01.74.77 1.738.484 2.449-.269.666-1.36.864-1.936 1.325v5.872a1 1 0 0 1-1.542.84L17 19.855l-2.458 1.584a1 1 0 0 1-1.542-.84v-5.855ZM15 17v1.764l1.458-.94a1 1 0 0 1 1.084 0l1.458.94V16.96c-.63-.048-1.33-.515-1.95-.507-.65.008-1.406.523-2.05.547Zm2-2a4 4 0 1 0 0-8 4 4 0 0 0 0 8Zm0-2a2 2 0 1 1 0-4 2 2 0 0 1 0 4ZM2 19h8a1 1 0 0 1 0 2H1a1 1 0 0 1-1-1V1a1 1 0 0 1 1-1h16a1 1 0 0 1 1 1v2a1 1 0 0 1-2 0V2H2v17ZM4 4h2a1 1 0 1 1 0 2H4a1 1 0 1 1 0-2Zm0 4h4a1 1 0 1 1 0 2H4a1 1 0 1 1 0-2Zm0 3h4a1 1 0 0 1 0 2H4a1 1 0 0 1 0-2Zm0 4h1a1 1 0 0 1 0 2H4a1 1 0 0 1 0-2Z"/>
</svg>
