<svg width="32" height="32" fill="currentColor" viewBox="-3 -3 32 32" xmlns="http://www.w3.org/2000/svg">
  <path d="M17 19.862a1.863 1.863 0 0 0-1.204-.988l-.743-.195a1.41 1.41 0 0 1-.86-2.075l.388-.663c.34-.581.34-1.3 0-1.882l-.388-.663a1.41 1.41 0 0 1 .86-2.075l.743-.195a1.861 1.861 0 0 0 1.33-1.33l.195-.743a1.41 1.41 0 0 1 2.075-.86l.663.388c.581.34 1.3.34 1.882 0l.663-.388a1.41 1.41 0 0 1 2.075.86l.195.743c.17.651.679 1.16 1.33 1.33l.743.195a1.41 1.41 0 0 1 .86 2.075l-.388.663c-.34.581-.34 1.3 0 1.882l.388.663a1.41 1.41 0 0 1-.86 2.075l-.743.195a1.862 1.862 0 0 0-1.204.988V26a1 1 0 0 1-1.6.8L21 25.25l-2.4 1.55A1 1 0 0 1 17 26v-6.138Zm2 2.102V24l1.4-.8a1 1 0 0 1 1.2 0l1.4.8v-2.036a1.435 1.435 0 0 1-.396-.157l-.663-.388c-.581-.34-1.3-.34-1.882 0l-.663.388c-.127.074-.26.126-.396.157Zm2-2.464a4.5 4.5 0 1 0 0-9 4.5 4.5 0 0 0 0 9Zm0-2.5a2 2 0 1 1 0-4 2 2 0 0 1 0 4ZM2 24h11a1 1 0 0 1 0 2H1a1 1 0 0 1-1-1V1a1 1 0 0 1 1-1h20a1 1 0 0 1 1 1v4a1 1 0 0 1-2 0V2H2v22ZM5 5h3a1 1 0 1 1 0 2H5a1 1 0 1 1 0-2Zm0 14h2a1 1 0 0 1 0 2H5a1 1 0 0 1 0-2Zm0-9h6a1 1 0 0 1 0 2H5a1 1 0 0 1 0-2Zm0 4h6a1 1 0 0 1 0 2H5a1 1 0 0 1 0-2Z"/>
</svg>
