<svg width="16" height="16" fill="currentColor" viewBox="0 0 16 16" xmlns="http://www.w3.org/2000/svg">
  <path d="m10.77 12.578-.319-.082a.592.592 0 0 1-.368-.874l.166-.279a.772.772 0 0 0 0-.792l-.166-.28a.588.588 0 0 1 .368-.873l.319-.082a.792.792 0 0 0 .57-.56l.083-.313a.605.605 0 0 1 .89-.362l.284.164a.81.81 0 0 0 .806 0l.284-.164a.61.61 0 0 1 .89.362l.083.313a.792.792 0 0 0 .57.56l.319.082a.592.592 0 0 1 .368.874l-.166.279a.772.772 0 0 0 0 .792l.166.28a.588.588 0 0 1-.368.873l-.319.082a.795.795 0 0 0-.516.416v2.584c0 .347-.403.545-.685.337l-.697-.62a.5.5 0 0 0-.664 0l-.697.62c-.282.208-.685.01-.685-.337v-2.584a.795.795 0 0 0-.516-.416ZM13 12a1 1 0 1 0 0-2 1 1 0 0 0 0 2Zm-6 2a1 1 0 0 1 0 2H1a1 1 0 0 1-1-1V1a1 1 0 0 1 1-1h12a1 1 0 0 1 1 1v4a1 1 0 0 1-2 0V2H2v12h5ZM4 4h2a1 1 0 1 1 0 2H4a1 1 0 1 1 0-2Zm0 3h4a1 1 0 1 1 0 2H4a1 1 0 1 1 0-2Zm0 3h2a1 1 0 0 1 0 2H4a1 1 0 0 1 0-2Z"/>
</svg>
