<svg width="24" height="24" fill="currentColor" viewBox="-2 -1 24 24" xmlns="http://www.w3.org/2000/svg">
  <path d="M15.51 16.9a1 1 0 1 0 .98 1.744c.568-.319 1.423-.801 2.565-1.446.597-.362.945-.982.945-1.65v-3.046a1 1 0 1 0-2 0v2.995c-1.092.617-1.93 1.09-2.49 1.403ZM2 15.451v-2.945a1 1 0 1 0-2 0v3.042c0 .668.348 1.288.919 1.634l2.595 1.458a1 1 0 0 0 .979-1.745L2.058 15.53 2 15.45Zm1.028-9.52 1.434.748a1 1 0 1 1-.924 1.773L2 7.651v1.851a1 1 0 0 1-2 0V6.457c0-.669.348-1.29.948-1.652l2.566-1.44a1 1 0 1 1 .978 1.744l-1.464.822ZM18 7.651l-1.538.801a1 1 0 1 1-.924-1.773l1.433-.747-1.46-.818a1 1 0 1 1 .978-1.744l2.592 1.452c.571.346.919.966.919 1.635V9.5a1 1 0 0 1-2 0V7.65ZM7.49 3.427a1 1 0 1 1-.978-1.744L9.019.277A1.878 1.878 0 0 1 10.952.26l2.539 1.424a1 1 0 0 1-.979 1.744L9.945 1.987a.13.13 0 0 0 .081.017L7.49 3.427ZM10 9.574l2.539-1.328a1 1 0 0 1 .927 1.773L11 11.308v2.194a1 1 0 0 1-2 0v-2.194l-2.465-1.29a1 1 0 0 1 .926-1.772l2.54 1.328ZM9 19.4c-.662-.387-1.164-.676-1.51-.87a1 1 0 1 0-.98 1.744c.497.279 1.338.766 2.52 1.46a1.887 1.887 0 0 0 1.951-.006c1.157-.651 2.001-1.127 2.507-1.41a1 1 0 0 0-.976-1.745l-1.512.85v-1.925a1 1 0 1 0-2 0V19.4Z"/>
</svg>
