<svg width="16" height="16" fill="currentColor" viewBox="0 0 16 16" xmlns="http://www.w3.org/2000/svg">
  <path d="M10.15 13.603c-.634-.286-1.331-.695-2.131-1.227-1.805-1.2-3.225-1.79-5.008-1.042A5.994 5.994 0 0 0 8 14c.758 0 1.483-.14 2.15-.397Zm2.145-1.414A6 6 0 1 0 2.191 9.507C3.16 9.09 4.083 8.942 5 9.022V5h1.55v4.366c.408.142.818.325 1.235.543V5h1.977c.721 0 1.263.158 1.625.473.362.315.543.763.543 1.343 0 .638-.188 1.131-.565 1.479-.376.348-.91.521-1.603.521h-.434v1.895h-.202c1.299.864 2.272 1.393 3.17 1.478ZM8 16A8 8 0 1 1 8 0a8 8 0 0 1 0 16Zm1.328-8.441h.281c.232 0 .416-.066.553-.196.137-.13.205-.31.205-.539 0-.385-.213-.578-.64-.578h-.399V7.56Z"/>
</svg>
