<svg width="24" height="24" fill="currentColor" viewBox="0 0 24 24" xmlns="http://www.w3.org/2000/svg">
  <path d="M5.585 18.313A8.973 8.973 0 0 0 12 21c1.31 0 2.554-.28 3.676-.782-1.029-.136-2.166-.7-3.657-1.692-2.259-1.502-3.915-2.048-6.434-.213ZM4.35 16.742c1.3-.96 2.49-1.454 3.65-1.567v-8.17h1.634v8.257a7.497 7.497 0 0 1 1.638.545V7.006h2.878c1.25 0 2.184.255 2.807.765.622.51.933 1.263.933 2.256 0 1.044-.342 1.844-1.026 2.4-.683.556-1.656.834-2.919.834h-1.039v3.456c.073.047.147.095.22.144 2.999 1.995 4.263 2.204 6.86-.709a9 9 0 1 0-15.638.59ZM12 23C5.925 23 1 18.075 1 12S5.925 1 12 1s11 4.925 11 11-4.925 11-11 11Zm.906-11.113h.868c.839 0 1.454-.146 1.846-.438.392-.291.588-.747.588-1.367 0-.574-.175-1.003-.526-1.285-.351-.283-.898-.424-1.641-.424h-1.135v3.514Z"/>
</svg>
