<svg width="24" height="24" fill="currentColor" viewBox="-1 -2 24 24" xmlns="http://www.w3.org/2000/svg">
  <path d="M6 18a1 1 0 1 0 0-2 1 1 0 0 0 0 2Zm2.83 0a3.001 3.001 0 0 1-5.664-.014A.915.915 0 0 1 3 18H2a2 2 0 0 1-2-1.99V11a1 1 0 0 1 .051-.316l2-6A1 1 0 0 1 3 4h7V1a1 1 0 0 1 1-1h10a1 1 0 0 1 0 2h-9v14h3c.057 0 .112.005.166.014A3.001 3.001 0 0 1 20.829 16h.172c.556 0 .999.448.999 1 0 .556-.447 1-.999 1h-.172a3.001 3.001 0 0 1-5.663-.014A.915.915 0 0 1 15 18H8.83Zm0-2H10v-4H2v4h1c.057 0 .112.005.166.014A3.001 3.001 0 0 1 8.829 16ZM10 10V6H3.72l-1.333 4H10Zm8 8a1 1 0 1 0 0-2 1 1 0 0 0 0 2Zm5-13c0 .556-.446 1-.997 1h-6.006C15.453 6 15 5.552 15 5c0-.556.446-1 .997-1h6.006c.544 0 .997.448.997 1Zm0 3c0 .556-.446 1-.997 1h-6.006C15.453 9 15 8.552 15 8c0-.556.446-1 .997-1h6.006c.544 0 .997.448.997 1Zm0 3c0 .556-.446 1-.997 1h-6.006c-.544 0-.997-.448-.997-1 0-.556.446-1 .997-1h6.006c.544 0 .997.448.997 1Z"/>
</svg>
