<svg width="16" height="16" fill="currentColor" viewBox="0 0 16 16" xmlns="http://www.w3.org/2000/svg">
  <path d="M2.477 8H7V5H3.677l-1.2 3ZM2 10v3h5v-3H2Zm-.5 5A1.5 1.5 0 0 1 0 13.5V9.096c0-.19.036-.38.107-.557l1.839-4.596A1.5 1.5 0 0 1 3.339 3H7V1.5A1.5 1.5 0 0 1 8.5 0H15a1 1 0 0 1 0 2H9v11h6a1 1 0 0 1 0 2H1.5ZM15 6a1 1 0 0 1 0 2h-3a1 1 0 0 1 0-2h3Zm0-3a1 1 0 0 1 0 2h-3a1 1 0 0 1 0-2h3Zm0 6a1 1 0 0 1 0 2h-3a1 1 0 0 1 0-2h3ZM4 16a2 2 0 1 1 0-4 2 2 0 0 1 0 4Zm9 0a2 2 0 1 1 0-4 2 2 0 0 1 0 4Z"/>
</svg>
