<svg width="24" height="24" fill="currentColor" viewBox="0 0 24 24" xmlns="http://www.w3.org/2000/svg">
  <path d="M18.984 7H20a1 1 0 0 1 1 1v5a1 1 0 0 1-1 1v8a1 1 0 0 1-1 1H5a1 1 0 0 1-1-1v-8a1 1 0 0 1-1-1V8a1 1 0 0 1 1-1h1.015a3.964 3.964 0 0 1-.495-1.545 3.578 3.578 0 0 1 3.185-3.933 3.975 3.975 0 0 1 4.294 3.084 3.975 3.975 0 0 1 4.295-3.084 3.578 3.578 0 0 1 3.184 3.933A3.964 3.964 0 0 1 18.984 7ZM13 12h6V9h-3.133c-.113.01-.226.015-.341.015H13V12Zm-2 0V9.015H8.472c-.115 0-.228-.005-.34-.015H5v3h6Zm0 2H6v7h5v-7Zm2 0v7h5v-7h-5Zm-2.948-8.936a1.975 1.975 0 0 0-2.138-1.553 1.578 1.578 0 0 0-1.405 1.735 1.975 1.975 0 0 0 1.964 1.769h1.994l-.415-1.95Zm5.473 1.95a1.974 1.974 0 0 0 1.964-1.768 1.578 1.578 0 0 0-1.404-1.735 1.975 1.975 0 0 0-2.139 1.553l-.415 1.951h1.994Z"/>
</svg>
