<svg width="16" height="16" fill="currentColor" viewBox="0 0 16 16" xmlns="http://www.w3.org/2000/svg">
  <path d="M8 0a1 1 0 0 1 1 1v2a1 1 0 1 1-2 0V1a1 1 0 0 1 1-1Zm4 1.072a1 1 0 0 1 .366 1.366l-1 1.732a1 1 0 0 1-1.732-1l1-1.732A1 1 0 0 1 12 1.072ZM14.928 4a1 1 0 0 1-.366 1.366l-1.732 1a1 1 0 0 1-1-1.732l1.732-1A1 1 0 0 1 14.928 4ZM16 8a1 1 0 0 1-1 1h-2a1 1 0 0 1 0-2h2a1 1 0 0 1 1 1Zm-1.072 4a1 1 0 0 1-1.366.366l-1.732-1a1 1 0 0 1 1-1.732l1.732 1A1 1 0 0 1 14.928 12ZM12 14.928a1 1 0 0 1-1.366-.366l-1-1.732a1 1 0 0 1 1.732-1l1 1.732A1 1 0 0 1 12 14.928ZM8 16a1 1 0 0 1-1-1v-2a1 1 0 0 1 2 0v2a1 1 0 0 1-1 1Zm-4-1.072a1 1 0 0 1-.366-1.366l1-1.732a1 1 0 1 1 1.732 1l-1 1.732A1 1 0 0 1 4 14.928ZM1.072 12a1 1 0 0 1 .366-1.366l1.732-1a1 1 0 1 1 1 1.732l-1.732 1A1 1 0 0 1 1.072 12ZM0 8a1 1 0 0 1 1-1h2a1 1 0 1 1 0 2H1a1 1 0 0 1-1-1Zm1.072-4a1 1 0 0 1 1.366-.366l1.732 1a1 1 0 1 1-1 1.732l-1.732-1A1 1 0 0 1 1.072 4ZM4 1.072a1 1 0 0 1 1.366.366l1 1.732a1 1 0 1 1-1.732 1l-1-1.732A1 1 0 0 1 4 1.072Z"/>
</svg>
