<svg width="32" height="32" fill="currentColor" viewBox="0 -2 32 32" xmlns="http://www.w3.org/2000/svg">
  <path d="M24.126 14A4.002 4.002 0 0 1 32 15a4 4 0 0 1-7.874 1h-4.635a1.645 1.645 0 0 1-1.58-1.268l-1.733-8.677-3.11 20.864c-.025.155-.06.294-.121.428-.154.343-.422.621-.903.65-.484.03-.783-.215-.975-.539a1.61 1.61 0 0 1-.166-.408l-3.99-14.677-.807 2.476A1.708 1.708 0 0 1 4.51 16H1c-.552 0-1-.43-1-.994A.998.998 0 0 1 1 14h3.28l1.614-4.966c.401-1.23 1.867-1.178 2.203.06l3.64 13.388 3.196-21.41a1.6 1.6 0 0 1 .115-.415c.158-.36.433-.65.95-.657.5-.006.776.258.951.598.064.125.107.254.14.4L19.795 14h4.33ZM28 17a2 2 0 1 0 0-4 2 2 0 0 0 0 4Z"/>
</svg>
