<svg width="24" height="24" fill="currentColor" viewBox="0 -2 24 24" xmlns="http://www.w3.org/2000/svg">
  <path d="M18.17 9.995A3.004 3.004 0 0 1 21 8a3 3 0 0 1 0 6c-1.338 0-2.472-.79-2.858-2h-3.644c-.77 0-1.437-.636-1.573-1.355l-.83-4.38-1.957 12.513c-.244 1.556-1.928 1.648-2.374.15L4.842 9.12l-.729 1.748C3.861 11.472 3.179 12 2.495 12H1c-.552 0-1-.47-1-1s.448-1.005 1-1.005h1.323L3.7 6.693c.56-1.342 2.124-1.259 2.536.125l2.459 8.254 2.167-13.86c.03-.193.07-.357.13-.502.161-.394.418-.692.986-.71.58-.017.86.279 1.037.672.065.143.11.306.146.496l1.674 8.827h3.335ZM21 12a1 1 0 1 0 0-2 1 1 0 0 0 0 2Z"/>
</svg>
