<svg width="32" height="32" fill="currentColor" viewBox="0 0 32 32" xmlns="http://www.w3.org/2000/svg">
  <path d="M16 29C8.82 29 3 23.18 3 16S8.82 3 16 3s13 5.82 13 13-5.82 13-13 13Zm0-2c6.075 0 11-4.925 11-11S22.075 5 16 5 5 9.925 5 16s4.925 11 11 11Zm-1-8.16v-.64a3.81 3.81 0 0 1 .39-1.82 5.14 5.14 0 0 1 1.37-1.5 7.62 7.62 0 0 0 1.5-1.45 2.21 2.21 0 0 0 .34-1.23 1.56 1.56 0 0 0-.6-1.28 2.43 2.43 0 0 0-1.57-.45 5.32 5.32 0 0 0-1.72.27 12.14 12.14 0 0 0-1.54.65l-.82-1.75a8.49 8.49 0 0 1 4.25-1.12 4.54 4.54 0 0 1 3 1 3.27 3.27 0 0 1 1.12 2.63 3.58 3.58 0 0 1-.86 2.43 10.59 10.59 0 0 1-1.5 1.37 5.81 5.81 0 0 0-1.22 1.2 2.34 2.34 0 0 0-.31 1.28v.45L15 18.84ZM14.59 22c0-1 .48-1.5 1.44-1.5a1.41 1.41 0 0 1 1.07.39c.264.307.396.706.37 1.11a1.6 1.6 0 0 1-.38 1.12 1.37 1.37 0 0 1-1.07.41 1.38 1.38 0 0 1-1.06-.4 1.6 1.6 0 0 1-.37-1.13Z"/>
</svg>
