<svg width="16" height="16" fill="currentColor" viewBox="0 0 16 16" xmlns="http://www.w3.org/2000/svg">
  <path d="M8 16A8 8 0 1 1 8 0a8 8 0 0 1 0 16Zm0-3a1 1 0 1 0 0-2 1 1 0 0 0 0 2ZM5 5.603c0 .191.077.369.231.533a.748.748 0 0 0 .567.246c.38 0 .638-.235.774-.704.144-.448.32-.788.528-1.018.208-.23.532-.346.972-.346.376 0 .683.114.921.343.238.228.357.508.357.84a.99.99 0 0 1-.117.474 1.782 1.782 0 0 1-.288.395c-.114.118-.299.294-.555.526a9.663 9.663 0 0 0-.696.689c-.172.193-.31.417-.414.672a2.395 2.395 0 0 0-.156.906c0 .278.071.488.213.63a.716.716 0 0 0 .525.211c.4 0 .638-.216.714-.648.044-.203.077-.345.099-.426.022-.081.053-.162.093-.243.04-.081.101-.17.183-.268.082-.098.191-.21.327-.34.492-.456.833-.781 1.023-.974.19-.193.354-.422.492-.688.138-.266.207-.575.207-.928 0-.449-.121-.864-.363-1.246a2.518 2.518 0 0 0-1.029-.906C9.164 3.111 8.652 3 8.072 3c-.624 0-1.17.133-1.638.399-.468.265-.824.6-1.068 1.005C5.122 4.81 5 5.21 5 5.604Z"/>
</svg>
