<svg width="24" height="24" fill="currentColor" viewBox="0 0 24 24" xmlns="http://www.w3.org/2000/svg">
  <path d="M2.35 14.366 4.577 4.72C4.93 3.193 6.436 2 8.01 2h7.982c1.574 0 3.08 1.193 3.433 2.721l2.223 9.637c.227.503.353 1.062.353 1.652v1.98A4.006 4.006 0 0 1 18 22H6a4 4 0 0 1-4-4.01v-1.98c0-.586.125-1.143.35-1.644Zm16.735-2.217-1.61-6.978C17.332 4.551 16.635 4 15.99 4H8.01c-.643 0-1.34.552-1.484 1.171l-1.61 6.978A4.002 4.002 0 0 1 6 12h12.002c.376 0 .74.052 1.084.149ZM4 16.009v1.981A2 2 0 0 0 6 20h12c1.103 0 2-.9 2-2.01v-1.98A2 2 0 0 0 18 14H6c-1.103 0-2 .9-2 2.01ZM6 17a1 1 0 0 1 .99-1h4.02c.546 0 .99.444.99 1a1 1 0 0 1-.99 1H6.99A.993.993 0 0 1 6 17Zm11 1a1 1 0 1 1 0-2 1 1 0 0 1 0 2ZM13 7v3a1 1 0 0 1-2 0V7H9a1 1 0 1 1 0-2h6a1 1 0 0 1 0 2h-2Z"/>
</svg>
