<svg width="32" height="32" fill="currentColor" viewBox="-3 -10 32 32" xmlns="http://www.w3.org/2000/svg">
  <path d="M11.834 3.267C9.513 1.112 7.461 0 5.615 0 2.413 0 0 2.264 0 6s2.413 6 5.615 6c1.92 0 5.093-2.293 9.939-6.96 2-2.061 3.628-3.04 4.83-3.04C22.51 2 24 3.399 24 6c0 2.602-1.49 4-3.615 4-1.232 0-2.872-.887-4.859-2.73l-1.36 1.466C16.487 10.89 18.54 12 20.385 12 23.587 12 26 9.736 26 6c0-3.735-2.414-6-5.615-6-1.872 0-3.926 1.235-6.243 3.624C9.763 7.84 6.774 10 5.615 10 3.49 10 2 8.602 2 6c0-2.602 1.49-4 3.615-4 1.232 0 2.872.888 4.858 2.733l1.361-1.466Z"/>
</svg>
