<svg width="24" height="24" fill="currentColor" viewBox="0 0 24 24" xmlns="http://www.w3.org/2000/svg">
  <path d="M11 20.3v-7.832L4 8.806v7.606l7 3.888Zm2 1.7a1 1 0 0 1-1.486.874l-9-5A1 1 0 0 1 2 17V7a1 1 0 0 1 .514-.874l9-5a1 1 0 0 1 .972 0l9 5A1 1 0 0 1 22 7v6a1 1 0 0 1-2 0V8.808l-6.996 3.66V22H13Zm6.016-14.958L12 3.144 4.986 7.041l7.016 3.683 7.014-3.682ZM17.414 19l1.293 1.293a1 1 0 0 1-1.414 1.414l-3-3a1 1 0 0 1 0-1.414l3-3a1 1 0 0 1 1.414 1.414L17.414 17H22a1 1 0 0 1 0 2h-4.586Z"/>
</svg>
