<svg width="24" height="24" fill="currentColor" viewBox="0 0 24 24" xmlns="http://www.w3.org/2000/svg">
  <path d="M2 2.992A1 1 0 0 1 2.992 2h18.016a1 1 0 0 1 .992.992v18.016a1 1 0 0 1-.992.992H2.992A1 1 0 0 1 2 21.008V2.992ZM4 10v9.998L20 20V10H4Zm16-6H4v4h16V4ZM6 7a1 1 0 1 1 0-2 1 1 0 0 1 0 2Zm3 0a1 1 0 1 1 0-2 1 1 0 0 1 0 2Zm3 0a1 1 0 1 1 0-2 1 1 0 0 1 0 2Zm0 6.586 1.298-1.298a.997.997 0 1 1 1.41 1.41l-1.298 1.298 1.298 1.298a.997.997 0 0 1-1.41 1.41L12 16.406l-1.298 1.298a.997.997 0 1 1-1.41-1.41l1.298-1.298-1.298-1.298a.997.997 0 0 1 1.41-1.41L12 13.586Z"/>
</svg>
