<svg width="24" height="24" fill="currentColor" viewBox="-1 -2 24 24" xmlns="http://www.w3.org/2000/svg">
  <path d="m17.944 10 3.57 2.143a1 1 0 0 1 0 1.714l-10 6a1 1 0 0 1-1.028 0l-10-6a1 1 0 0 1 0-1.714L4.056 10 .486 7.857a1 1 0 0 1 0-1.714l10-6a1 1 0 0 1 1.028 0l10 6a1 1 0 0 1 0 1.714L17.944 10ZM16 11.166l-4.486 2.691a1 1 0 0 1-1.028 0L6 11.167 2.944 13 11 17.834 19.056 13 16 11.166Zm-.498-2.033L19.056 7 11 2.166 2.944 7l3.554 2.133a.997.997 0 0 1 .034.02L11 11.833l4.468-2.68a.998.998 0 0 1 .034-.02Z"/>
</svg>
