<svg width="16" height="16" fill="currentColor" viewBox="0 0 16 16" xmlns="http://www.w3.org/2000/svg">
  <path d="M7.968 0c.509 0 .916.419.936.944l-.004.218-.006.042-.06.319-.04.449-.007.16.085.085a6.153 6.153 0 0 1 2.588 1.05l.255.19.344.302h.114a3.34 3.34 0 0 0 .362-.336l.097-.093.073-.087.161-.168.074-.053-.021.008.025-.025.051-.039.038-.033.134-.083a.96.96 0 0 1 .46-.119.89.89 0 0 1 .72.35c.296.384.23.93-.124 1.277a.246.246 0 0 1-.051.057l-.09.07-.05.035c-.105.07-.192.122-.24.14a.941.941 0 0 1-.108.063l-.18.108-.32.206v.173c.287.514.5 1.063.635 1.638a6.06 6.06 0 0 1 .148 1.74l.104.157c.058.013.122.024.198.034l.267.03.02.004.122.015.02-.001.126.005.212.028.514.193c.271.186.45.487.45.795l-.022.147a.975.975 0 0 1-.933.677L15 10.67a.739.739 0 0 1-.12-.013l-.088-.022-.01-.005-.11-.02a1.262 1.262 0 0 1-.274-.106l-.067-.026-.062-.03-.026-.005-.306-.108-.16-.047-.068-.015-.079.04c-.1.256-.215.505-.346.741l-.177.298a5.997 5.997 0 0 1-1.714 1.783l-.008.038-.018.058c.031.073.08.16.164.292l.183.284.112.149.084.13.105.204v.011c.074.197.078.407.027.608-.062.251-.23.442-.472.58a.873.873 0 0 1-.393.095.972.972 0 0 1-.752-.364l-.113-.16-.033-.07-.028-.049a1.032 1.032 0 0 1-.065-.16l-.039-.135-.05-.15-.003-.024-.132-.35-.062-.144-.16-.052a6.209 6.209 0 0 1-.37.094 5.595 5.595 0 0 1-1.346.156 6.015 6.015 0 0 1-1.494-.19l-.29-.082-.076.049-.036.012a1.61 1.61 0 0 0-.092.208l-.114.323-.113.347-.029.072-.062.092-.02.058-.015.026a1.001 1.001 0 0 1-.84.493.856.856 0 0 1-.381-.09c-.444-.206-.627-.722-.458-1.19v-.016l.034-.063.07-.133.157-.232.02-.025.081-.12a7.5 7.5 0 0 0 .195-.317l.08-.147-.017-.034v-.03l-.017-.078a5.1 5.1 0 0 1-.327-.237 6.07 6.07 0 0 1-1.88-2.524h-.032l-.088-.06a2.69 2.69 0 0 0-.25.07l-.28.1-.02.003-.153.07a1.692 1.692 0 0 1-.183.068l-.163.049-.094.022-.073.011-.065.004-.153-.005c-.404-.042-.742-.312-.83-.726a.954.954 0 0 1 .545-1.03l.174-.07.063-.017.131-.02.194-.025.078-.006a.986.986 0 0 1 .165-.015l.322-.032.205-.03.1-.161a5.97 5.97 0 0 1 .76-3.381v-.166a2.438 2.438 0 0 0-.135-.095l-.375-.235-.045-.021a2.527 2.527 0 0 1-.255-.147l.016.006-.067-.039-.057-.044-.108-.083c-.365-.34-.439-.899-.149-1.276a.898.898 0 0 1 .731-.364c.17 0 .34.046.492.134.14.103.222.165.244.185l.15.152.057.064.075.074.24.252.138.13.06.051h.07A5.924 5.924 0 0 1 7.067 2.2l.087-.088-.004-.118-.043-.432-.013-.077-.03-.109a1.365 1.365 0 0 1-.031-.26V.92a.94.94 0 0 1 .272-.633A.946.946 0 0 1 7.968 0ZM8 9a1 1 0 1 0 0-2 1 1 0 0 0 0 2Zm-.058 1.878-.655 1.186a4.025 4.025 0 0 0 1.097.033l.212-.03-.654-1.189Zm-2.07-1.016-1.349.23c.173.313.387.6.633.853l.191.183.526-1.266Zm4.14-.013.534 1.279c.225-.2.425-.422.6-.669l.188-.284.057-.094-1.379-.232Zm1.549-3.147-1.013.912 1.31.376a4.215 4.215 0 0 0-.296-1.288Zm-7.228-.006-.093.249a4.035 4.035 0 0 0-.178.777l-.025.267 1.319-.382-1.023-.91ZM6.87 4.43l-.259.083a3.793 3.793 0 0 0-.723.35l-.221.148 1.125.804.078-1.385Zm2.165.005.07 1.37 1.12-.795a3.768 3.768 0 0 0-.936-.494l-.254-.081Z"/>
</svg>
