<svg width="24" height="24" fill="currentColor" viewBox="0 0 24 24" xmlns="http://www.w3.org/2000/svg">
  <path d="M11.909 1c.479 0 .87.404.89.907l-.003.255-.071.434-.014.045-.014.062-.002.067-.04.415-.02.26a4.345 4.345 0 0 0-.007.21l.004.175a.1.1 0 0 0 .019.05l.115.118.074.16.005.06a8.49 8.49 0 0 1 4.246 1.76l.47.414c.03.027.06.054.087.081l.163.16.074-.05.139-.043h.04l.113.027-.017-.006h.029c.01 0 .024-.005.043-.017.182-.127.37-.289.573-.491l.247-.252.052-.05.046-.05.067-.08.073-.08.168-.17.083-.064.075-.07.034-.024a.983.983 0 0 1 .563-.187.83.83 0 0 1 .674.326c.282.37.21.913-.152 1.252l-.024.022-.008.013-.14.115-.124.083-.09.056-.198.11-.121.063-.385.239-.22.143a3.89 3.89 0 0 0-.168.12l-.13.107a.205.205 0 0 0-.047.132v.065l-.084.185-.05.045a8.79 8.79 0 0 1 1.077 2.616c.214.92.271 1.87.174 2.805l.21.065.023.109.026.055c.02.037.035.05.059.062.21.066.438.109.756.145l.285.03.081.008a.407.407 0 0 0 .086.013l.148.003.129.012.075.01.475.11c.386.158.66.535.65.958a.947.947 0 0 1-.903.655h-.054a3.53 3.53 0 0 1-.363-.072 1.936 1.936 0 0 1-.382-.148l-.031-.012-.13-.061.054.003-.107-.016-.317-.114-.292-.095a3.082 3.082 0 0 0-.242-.06l-.137-.027h-.041a.07.07 0 0 0-.03.006l-.219.111-.102.004-.038-.006c-.133.383-.408.956-.825 1.718a8.3 8.3 0 0 1-2.625 2.647l.02.049.014.148-.02.066-.01.014-.018.08a.159.159 0 0 0 0 .082c.057.173.153.356.317.618l.193.301.22.309.07.103c.016.029.09.141.136.234l.043.089c.085.2.093.425.038.645-.056.227-.213.407-.44.537a.796.796 0 0 1-.36.089.945.945 0 0 1-.754-.387l-.097-.15-.026-.059-.056-.098-.054-.134-.077-.257-.15-.447c-.133-.362-.221-.57-.316-.738-.038-.057-.057-.069-.11-.08l-.04-.019-.108-.01-.087-.16c-.301.1-.596.182-.895.249a7.698 7.698 0 0 1-1.857.215 8.3 8.3 0 0 1-2.781-.481l-.08.138-.021.021-.064.044-.044.013-.086.039a.13.13 0 0 0-.06.048c-.104.162-.183.342-.289.639l-.119.342-.06.182-.075.245-.031.084-.06.12-.05.084-.012.036-.018.03c-.174.293-.494.491-.82.491a.787.787 0 0 1-.353-.086c-.43-.201-.602-.726-.401-1.198l.281-.46.181-.262.199-.317c.144-.24.24-.423.308-.591a.147.147 0 0 0-.004-.105l-.032-.074-.006-.02-.022-.044-.002-.01.017-.157.03-.066a7.734 7.734 0 0 1-.722-.503 8.46 8.46 0 0 1-2.724-3.828l-.168.017-.065-.02-.02-.015a.613.613 0 0 0-.11-.066l-.04-.017-.033-.003a3.585 3.585 0 0 0-.734.194l-.292.094.001.004-.175.078a2.22 2.22 0 0 1-.443.168l-.296.064-.076.002c-.446 0-.818-.266-.906-.682-.085-.455.209-.913.676-1.047.038-.022.175-.048.414-.08.107-.015.188-.022.192-.009a.746.746 0 0 1 .227-.033h.055l.332-.033.29-.039c.17-.026.3-.055.406-.089a.227.227 0 0 0 .102-.09.252.252 0 0 1 .022-.052l.021-.1.208-.064a8.333 8.333 0 0 1 1.033-5.12l.18-.3-.052-.046-.082-.186-.002-.107c-.002-.036-.007-.047-.02-.061a3.478 3.478 0 0 0-.477-.356l-.497-.311a.544.544 0 0 0-.085-.04 3.21 3.21 0 0 1-.325-.189l-.07-.048-.068-.054-.041-.025-.027-.023-.02-.01-.028-.025c-.359-.336-.43-.88-.153-1.242a.834.834 0 0 1 .679-.334c.207 0 .414.071.584.2l.026.02.166.145c.21.217.33.341.357.372l.043.05.314.327c.187.187.341.32.487.422.023.016.037.02.047.02l.091-.018.066-.002.152.045.032.023a8.2 8.2 0 0 1 4.067-2.241c.184-.041.36-.072.576-.102l.36-.045.005-.063.072-.158.109-.109a.098.098 0 0 0 .027-.056 2.497 2.497 0 0 0-.007-.542l-.057-.543-.022-.126-.045-.164a1.507 1.507 0 0 1-.036-.29v-.258a.902.902 0 0 1 .259-.61.907.907 0 0 1 .63-.281Zm.046 10.1c-.828 0-1.5.675-1.5 1.507 0 .833.672 1.508 1.5 1.508.83 0 1.501-.675 1.501-1.508 0-.832-.672-1.507-1.5-1.507Zm-.253 4.815-.064.052-1.466 2.665a6.596 6.596 0 0 0 1.716.234c.362 0 .724-.034 1.098-.101l.283-.056.293-.08-1.417-2.574-.018-.024a.616.616 0 0 0-.152-.138c-.081-.044-.184-.035-.273.022Zm-2.59-1.403-2.973.506a6.303 6.303 0 0 0 1.895 2.509l.229.172 1.139-2.755.017-.069a.456.456 0 0 0-.005-.12.308.308 0 0 0-.302-.243Zm5.525-.02-.06.006a.303.303 0 0 0-.268.298l.007.069 1.175 2.832a6.267 6.267 0 0 0 1.665-1.772c.156-.23.285-.458.387-.69l.094-.234-3-.508Zm2.704-4.898-2.26 2.044a.238.238 0 0 0-.056.103c-.03.137.03.27.135.336l.056.026 2.889.835a6.3 6.3 0 0 0-.16-1.712 6.506 6.506 0 0 0-.604-1.632ZM6.415 9.59l-.143.28a6.464 6.464 0 0 0-.626 2.747l.006.32 2.923-.852c.034-.007.066-.03.104-.08a.314.314 0 0 0 .03-.347l-.044-.055-2.25-2.013Zm4.4-3.157-.338.063A6.056 6.056 0 0 0 7.972 7.72l-.237.205 2.495 1.79a.308.308 0 0 0 .4-.197l.015-.067.17-3.018Zm2.145.007.168 3.05c.016.064.026.084.049.109.081.1.206.138.314.108l.062-.026 2.467-1.757a6.003 6.003 0 0 0-2.728-1.42l-.279-.056-.053-.008Z"/>
</svg>
