<svg width="32" height="32" fill="currentColor" viewBox="0 0 32 32" xmlns="http://www.w3.org/2000/svg">
  <path d="M13.707 22.707A1 1 0 0 1 13 23h-1v1a1 1 0 0 1-.293.707l-1 1A1 1 0 0 1 10 26H9v1a1 1 0 0 1-.293.707l-1 1A1 1 0 0 1 7 29H3a1 1 0 0 1-1-1v-4a1 1 0 0 1 .293-.707l7.466-7.466A9.973 9.973 0 0 1 9 12C9 6.477 13.477 2 19 2s10 4.477 10 10-4.477 10-10 10c-1.33 0-2.626-.26-3.827-.759l-1.466 1.466Zm.543-3.371a1 1 0 0 1 1.157-.186 8 8 0 1 0-3.557-3.557 1 1 0 0 1-.186 1.157L4 24.414V27h2.586L7 26.586V25a1 1 0 0 1 1-1h1.586l.414-.414V22a1 1 0 0 1 1-1h1.586l1.664-1.664ZM20 15a4 4 0 1 1 0-8 4 4 0 0 1 0 8Zm0-2a2 2 0 1 0 0-4 2 2 0 0 0 0 4Z"/>
</svg>
