<svg width="16" height="16" fill="currentColor" viewBox="0 0 16 16" xmlns="http://www.w3.org/2000/svg">
  <path d="M3.586 3A2 2 0 0 1 5 3.586L5.414 4h5.172L11 3.586A2 2 0 0 1 12.414 3H13a2 2 0 0 1 2 2v7a2 2 0 0 1-2 2H3a2 2 0 0 1-2-2V5a2 2 0 0 1 2-2h.586Zm9.121 2a.707.707 0 0 0-.5.207l-.5.5A1 1 0 0 1 11 6H5a1 1 0 0 1-.707-.293l-.5-.5a.707.707 0 0 0-.5-.207.293.293 0 0 0-.293.293V11a1 1 0 0 0 1 1h8a1 1 0 0 0 1-1V5.293A.293.293 0 0 0 12.707 5ZM5 7a1 1 0 0 1 1 1v2a1 1 0 0 1-2 0V8a1 1 0 0 1 1-1Zm3 0a1 1 0 0 1 1 1v2a1 1 0 0 1-2 0V8a1 1 0 0 1 1-1Zm3 0a1 1 0 0 1 1 1v2a1 1 0 0 1-2 0V8a1 1 0 0 1 1-1Z"/>
</svg>
