<svg width="32" height="32" fill="currentColor" viewBox="-1 -1 32 32" xmlns="http://www.w3.org/2000/svg">
  <path d="m26.297 21.86.185 1.257a2.833 2.833 0 0 1-3.165 3.221l-1.261-.162a4.214 4.214 0 0 0-3.918 1.663l-.76 1.02a2.833 2.833 0 0 1-4.515.039l-.777-1.006a4.214 4.214 0 0 0-3.946-1.595l-1.257.185a2.833 2.833 0 0 1-3.221-3.165l.162-1.261a4.214 4.214 0 0 0-1.663-3.918l-1.02-.76a2.833 2.833 0 0 1-.039-4.515l1.006-.777A4.214 4.214 0 0 0 3.703 8.14l-.185-1.257a2.833 2.833 0 0 1 3.165-3.221l1.261.162a4.214 4.214 0 0 0 3.918-1.663l.76-1.02a2.833 2.833 0 0 1 4.515-.039l.777 1.006a4.214 4.214 0 0 0 3.946 1.595l1.257-.185a2.833 2.833 0 0 1 3.221 3.165l-.162 1.261a4.214 4.214 0 0 0 1.663 3.918l1.02.76a2.833 2.833 0 0 1 .039 4.515l-1.006.777a4.214 4.214 0 0 0-1.595 3.946Zm-2.018.39a6.428 6.428 0 0 1 2.432-6.019l1.018-.786a.698.698 0 0 0-.01-1.112l-1.031-.768A6.428 6.428 0 0 1 24.15 7.59l.164-1.275a.698.698 0 0 0-.793-.78l-1.272.186a6.428 6.428 0 0 1-6.019-2.432l-.786-1.017a.698.698 0 0 0-1.112.01l-.768 1.03A6.428 6.428 0 0 1 7.59 5.85l-1.275-.164a.698.698 0 0 0-.78.794l.185 1.27a6.428 6.428 0 0 1-2.432 6.02l-1.017.785a.698.698 0 0 0 .01 1.112l1.03.768a6.428 6.428 0 0 1 2.537 5.976l-.164 1.275a.698.698 0 0 0 .794.78l1.271-.187a6.428 6.428 0 0 1 6.02 2.432l.785 1.018a.698.698 0 0 0 1.112-.01l.768-1.031a6.428 6.428 0 0 1 5.976-2.537l1.275.164a.698.698 0 0 0 .78-.793l-.187-1.272Zm-12.572-6.957L13 16.586l5.293-5.293a1 1 0 0 1 1.414 1.414l-6 6a1 1 0 0 1-1.414 0l-2-2a1 1 0 0 1 1.414-1.414Z"/>
</svg>
