<svg width="24" height="24" fill="currentColor" viewBox="-4 -2 24 24" xmlns="http://www.w3.org/2000/svg">
  <path d="m12.184 1.404-1.435 1.434A4.94 4.94 0 0 0 8 2C5.26 2 3 4.274 3 7c0 1.083.28 2.022.818 2.77l-1.427 1.426C1.483 10.068 1 8.624 1 7c0-3.828 3.152-7 7-7 1.565 0 3.014.524 4.184 1.404Zm1.412 1.413A6.95 6.95 0 0 1 15 7c0 2.408-1.062 4.422-3 5.595V14a2 2 0 0 1-2 2H6a2 2 0 0 1-2-2v-1.405a6.519 6.519 0 0 1-.113-.07l1.466-1.466.08.04A1 1 0 0 1 6 12v2h4v-2a1 1 0 0 1 .566-.901C12.148 10.337 13 8.887 13 7c0-1.01-.31-1.956-.839-2.75l1.435-1.433ZM6 17h4a1 1 0 0 1 0 2H6a1 1 0 0 1 0-2ZM15.295.293a.999.999 0 0 1 1.412 1.412L1.705 16.707a.999.999 0 0 1-1.412-1.412L15.295.293Z"/>
</svg>
