<svg width="24" height="24" fill="currentColor" viewBox="-1 -2 24 24" xmlns="http://www.w3.org/2000/svg">
  <path d="M4 7c0-3.828 3.152-7 7-7s7 3.172 7 7c0 2.408-1.062 4.422-3 5.595V14a2 2 0 0 1-2 2H9a2 2 0 0 1-2-2v-1.405C5.062 11.422 4 9.408 4 7Zm2 0c0 1.887.852 3.337 2.434 4.099A1 1 0 0 1 9 12v2h4v-2a1 1 0 0 1 .566-.901C15.148 10.337 16 8.887 16 7c0-2.726-2.26-5-5-5S6 4.274 6 7ZM3 3a1 1 0 1 1 0-2 1 1 0 0 1 0 2ZM1 8a1 1 0 1 1 0-2 1 1 0 0 1 0 2Zm2 5a1 1 0 1 1 0-2 1 1 0 0 1 0 2Zm16 0a1 1 0 1 1 0-2 1 1 0 0 1 0 2Zm0-10a1 1 0 1 1 0-2 1 1 0 0 1 0 2Zm2 5a1 1 0 1 1 0-2 1 1 0 0 1 0 2ZM9 17h4a1 1 0 0 1 0 2H9a1 1 0 0 1 0-2Z"/>
</svg>
