<svg width="32" height="32" fill="currentColor" viewBox="0 0 32 32" xmlns="http://www.w3.org/2000/svg">
  <path d="M9.023 20.126a1.367 1.367 0 0 0-.95.347c-.161-.802-.055-1.072.414-2.245.452-1.12.986-2.418 1.815-3.665 1.005-1.515 2.095-2.318 2.016-3.489-.317-4.36-.572-6.54 1.365-7.544 1.844-.957 3.385-.39 3.995-.063.262.141.795.414 1.193.893.399.467.757 1.177.957 2.075.416 1.798-.169 1.207.299 3.264.463 2.057 1.405 3.066 2.556 4.692 1.147 1.63 2.346 4.312 1.965 5.866a6.02 6.02 0 0 1-.214.651.64.64 0 0 0-.14-.013 1.17 1.17 0 0 0-.243.028h-.003a.4.4 0 0 0-.181.055c-.021-.178-.316-.348-.545-.443a2.567 2.567 0 0 0-.494-.133s-.291-.044-.547-.057c-.085-.003-.075-.004-.175.004.107-.173.515-.938.453-2.453-.074-1.8-2.023-2.839-2.069-2.76-.034.057.549.19 1.158 1.001.545.728.821 1.697.712 2.477-.074.532-.116.735-.221 1.09-.083.268-.194.535-.242.654-.179.023-.356.061-.454.128-.176.114-.316.3-.216.278.1-.023.211-.186.424-.257.212-.066.58-.064.722-.056.146.006.505.046.752.127.246.083.447.205.551.361a.515.515 0 0 0 .094.118c-.092.093-.181.231-.303.422-.061.093-.135.21-.166.25a3.274 3.274 0 0 1-.576.465c-.146.092-.225.133-.471.133-.055 0-.115 0-.179-.004-.305-.026-.387-.098-.501-.196l-.051-.044-.033-.027c-.111-.099-.111-.099-.104-.176l.012-.107c.04-.34.075-.664-.159-.895a.772.772 0 0 0-.417-.217c.037-.335.067-.71.067-.936 0-1.05-.123-2.119-.364-2.906-.222-.734-.574-1.25-.876-1.914-.606-1.326-.575-1.918-1.116-2.765-.29-.465-.375-.855-.471-1.13.173-.233.262-.544.29-.967.025-.37-.184-.6-.474-.76.094-.124.155-.273.203-.449.12-.455.126-.957-.212-1.547-.316-.564-.498-.654-.957-.69-.706-.062-1.038.433-1.193.785-.168.383-.133.328-.122.812.001.064.005.127.01.183a2.322 2.322 0 0 0-.682-.033 2.389 2.389 0 0 1-.169.015c-.071.006-.143.008-.217.02.008-.085.011-.185.011-.3 0-.504-.155-.674-.394-1.004-.228-.314-.589-.329-.816-.288-.131.021-.301.188-.418.436a1.561 1.561 0 0 0-.141.6c-.015.595.036.821.17 1.223.035.1.078.188.13.267a4.798 4.798 0 0 1-.04.031c-.32.263-.598.492-.581.982.009.388.233.695.505.958-.05.37-.064.458-.064.972 0 .416-.19.447-.604 1.078-.112.174-.21.357-.299.545-.045.164-.073.295-.031.434.123.42.736.5.704.638-.032.14-.512.207-.852.396-.176.103-.282.248-.485.432-.293.673-.83 1.432-.973 2.068-.169.756-.379 1.24-.347 2.253.011.281.017.453.036.571-.149-.164-.316-.359-.401-.53-.161-.323-.243-.792-.191-1.357.058-.649.183-1.01.531-1.852.376-.906.657-1.108.581-1.196-.06-.07-.411.584-.531.84-.321.685-.596 1.333-.687 2.151-.067.598.006 1.023.17 1.38.041.092.14.23.254.377-.404-.348-.633-.358-.753-.358Zm17.262 4.08c.205.128.498.247.488.617-.017.417-.222.528-.339.644-.232.23-1.4.812-2.176 1.34-.978.67-1.315.966-1.633 1.288-.493.49-.96.659-1.713.659-.75 0-1.089-.157-1.318-.366-.233-.201-.49-.715-.465-1.48.021-.763.261-1.458.378-2.64.05-.51.046-1.137.046-1.698 0-.705.01-1.306.16-1.396.272-.173.333-.183.656-.183.322 0 .468.02.574.128.101.1.061.332.026.659-.03.329.125.432.281.572.156.127.3.294.791.335.494.037.676-.045.907-.192.233-.143.558-.407.681-.558.115-.147.402-.651.457-.651.053 0 .384-.113.57.159.313.453-.009 1.039.217 1.405.373.59 1.123 1.194 1.412 1.358Zm-12.55 1.918c.481.123 1.24.175 2.406-.044 1.236-.228 2.206-.903 2.925-1.57-.055.446-.125.827-.187 1.166-.086.452-.159.85-.17 1.273-.007.227.007.435.037.626-1.24-.288-1.78-.217-3.285-.129-1.047.062-1.309.03-1.606.108.03-.17.041-.373.035-.643a2.086 2.086 0 0 0-.156-.787Zm-2.285-4.141c.505.44 1.552 1.206 1.694 1.444.151.242.282.624.055.964-.094.134-.299.21-.508.252-.059-.088-.118-.176-.179-.273-.376-.595-.58-.926-.762-1.22a92.489 92.489 0 0 0-.499-.801 13.182 13.182 0 0 0-.95-1.322l.054.047c.303.252.616.487 1.095.909Zm2.903-9.842c-.226-.083-.546-.465-.918-.772-.372-.302-.72-.626-.73-1.047-.016-.447.277-.597.692-.952.045-.043.099-.092.16-.138-.112-.026-.145-.13-.283-.27-.055-.065-.221-.353-.221-.594 0-.152-.035-.371.096-.561a.405.405 0 0 1 .369-.206c.149 0 .34.1.433.237a.963.963 0 0 1 .166.542c0 .157-.01.316-.04.455.072-.043.138-.084.2-.117.253-.124.413-.1.676-.13.368-.046.87.044 1.102.217.068.05.133.092.19.13a2.274 2.274 0 0 1-.063-.584c0-.278.08-.473.22-.632.109-.113.3-.14.46-.14.379 0 .599.339.675.772a.789.789 0 0 1-.136.58.766.766 0 0 1-.465.28c.59.164 1.205.313 1.17.818-.044.71-.251 1.028-.84 1.214-.475.148-1.32.967-1.977.967-.291 0-.7.015-.936-.07ZM13.14 10.87c.177.142.393.28.58.375.113.055.39.119.39.119.265.033.514.027.675.027.376 0 .847-.158 1.339-.395.485-.241.6-.337.943-.535.333-.186.75-.427.604-.5-.144-.071-.291.032-.77.32a9.085 9.085 0 0 1-1.245.658c-.211.092-.495.203-.704.219-.203.013-.463.01-.621.01-.181 0-.384-.074-.574-.141a1.116 1.116 0 0 1-.277-.152c-.162-.101-.447-.375-.543-.44-.03-.008-.115-.002-.097.056.05.165.157.264.3.379Zm.41-3.007c-.03.062.03.119.11.217s.074.246.16.213c.032-.01.02-.26-.04-.368-.06-.103-.203-.116-.23-.062Zm.817 1.07c-.207.04-.207.124-.227.17-.014.043.11.129.17.067.07-.052.152-.11.184-.13.125-.078.074-.136-.127-.107Zm1.289-.013c-.075-.05-.438-.06-.408.013.057.114.197.128.292.185.092.05.142.06.178.039.079-.04.019-.188-.062-.237Zm1.285-1.104c-.08.075-.004.124.086.212.05.062.082.22.157.156.08-.058.08-.151-.02-.26-.097-.108-.182-.15-.223-.108ZM10.896 22.52c.46.723.569.923 1.26 2.02.69 1.092 1.3 1.376 1.315 2.32.016.955-.141.817-.625 1.252-.488.433-.66.699-1.461.64-.801-.067-1.994-.747-3.26-1.008-2.364-.494-2.775-.6-3.034-1.03-.14-.241-.094-.477-.024-.814.05-.268.126-.601.126-1.037.007-1.03-.292-1.584-.005-1.965.29-.386 1.439-.355 1.895-.681.453-.328.769-.996 1.028-1.256.256-.26.489-.483.9-.473.52.015 1.428 1.313 1.885 2.032Z"/>
</svg>
