<svg width="24" height="24" fill="currentColor" viewBox="0 0 24 24" xmlns="http://www.w3.org/2000/svg">
  <path d="M6.396 15.626c-.36-.008-.61.132-.802.296-.136-.685-.046-.915.35-1.917.381-.957.832-2.065 1.532-3.13.848-1.294 1.768-1.98 1.702-2.98-.268-3.724-.483-5.585 1.152-6.442 1.557-.818 2.858-.333 3.373-.054.22.12.67.354 1.007.763.337.398.639 1.005.808 1.772.35 1.535-.143 1.03.252 2.787.39 1.757 1.186 2.618 2.158 4.007.968 1.392 1.98 3.682 1.659 5.01-.041.16-.103.349-.181.556a.534.534 0 0 0-.118-.012.977.977 0 0 0-.205.024h-.003a.335.335 0 0 0-.153.047c-.017-.152-.267-.297-.46-.378-.2-.08-.417-.114-.417-.114s-.246-.037-.462-.048c-.071-.003-.063-.004-.147.003.09-.148.434-.8.382-2.095-.062-1.538-1.708-2.424-1.747-2.357-.028.049.464.163.978.855.46.622.693 1.45.601 2.115a5.368 5.368 0 0 1-.187.931c-.07.23-.163.457-.204.559-.15.02-.3.052-.383.11-.149.097-.267.255-.182.237.084-.02.178-.16.358-.22.178-.056.49-.055.609-.048.123.005.426.04.635.109.208.07.377.175.465.308a.44.44 0 0 0 .08.1c-.078.08-.153.198-.256.361-.052.08-.114.179-.14.213a2.77 2.77 0 0 1-.487.398.59.59 0 0 1-.397.113c-.047 0-.098 0-.152-.003-.257-.022-.326-.084-.422-.167l-.044-.038-.027-.023c-.094-.085-.094-.085-.088-.15l.01-.092c.034-.29.063-.567-.134-.764a.649.649 0 0 0-.352-.185c.03-.286.056-.607.056-.8 0-.896-.104-1.81-.307-2.481-.187-.627-.485-1.068-.74-1.635-.511-1.132-.485-1.638-.942-2.361-.244-.397-.316-.73-.397-.966.146-.198.22-.464.245-.825.02-.316-.156-.513-.4-.65.079-.105.13-.232.17-.383a1.668 1.668 0 0 0-.178-1.32c-.267-.482-.42-.56-.808-.59-.596-.053-.876.37-1.007.67-.142.327-.112.28-.103.694 0 .054.004.108.008.156a1.939 1.939 0 0 0-.575-.028c-.053.006-.1.011-.143.013-.06.005-.12.007-.183.017a2.84 2.84 0 0 0 .009-.256c0-.43-.13-.576-.333-.858-.192-.268-.497-.28-.689-.246-.11.018-.254.16-.352.373a1.346 1.346 0 0 0-.12.511c-.012.51.031.702.144 1.045.03.086.066.161.11.228l-.034.027c-.27.225-.505.42-.49.839.007.33.196.593.426.818-.042.316-.054.39-.054.83 0 .355-.16.381-.51.92a4.109 4.109 0 0 0-.252.466c-.038.14-.062.252-.027.37.104.358.622.427.595.545-.027.119-.432.177-.72.338-.148.088-.238.212-.409.37-.247.574-.7 1.222-.821 1.765-.143.646-.32 1.059-.293 1.925.009.24.014.386.03.487-.126-.14-.267-.306-.338-.452-.136-.276-.206-.677-.162-1.16.05-.554.155-.863.449-1.58.317-.775.554-.947.49-1.022-.05-.06-.347.498-.448.717-.271.585-.503 1.138-.58 1.837-.057.51.005.874.143 1.178.035.08.119.197.215.322-.341-.297-.535-.305-.636-.305Zm14 3.141c.408.239.61.463.604.674-.014.356-.238.537-.337.636-.196.197-.75.803-1.406 1.254-.825.572-1.11.825-1.378 1.1-.416.42-.811.563-1.446.563-.633 0-.92-.135-1.113-.313-.196-.172-.413-.61-.392-1.263.017-.653.22-1.246.319-2.255.041-.435.039-.971.039-1.45 0-.603.007-1.116.135-1.193.23-.148.28-.156.553-.156.272 0 .396.018.485.11.085.086.052.283.022.562-.026.281.105.369.237.489.132.108.253.25.668.286.417.031.57-.039.766-.164.196-.122.47-.348.574-.477.098-.125.34-.556.386-.556.045 0 .324-.096.481.136.265.387-.007.887.184 1.2.315.505.375.677.619.817Zm-10.022 1.981c.406.105 1.047.15 2.031-.037 1.044-.195 1.863-.771 2.47-1.342-.047.382-.106.707-.158.997-.073.386-.134.725-.144 1.087a2.9 2.9 0 0 0 .032.534c-1.048-.246-1.503-.185-2.774-.11-.883.053-1.105.025-1.355.093.025-.146.034-.319.03-.55a1.8 1.8 0 0 0-.132-.672Zm-1.929-3.537c.427.376 1.31 1.03 1.43 1.234.128.206.238.532.047.823-.08.114-.253.18-.43.215-.049-.075-.099-.15-.15-.233-.318-.508-.49-.79-.644-1.041a79.14 79.14 0 0 0-.42-.685 11.255 11.255 0 0 0-.803-1.13c.015.015.03.027.046.041.256.215.52.416.924.776Zm2.45-8.405c-.19-.07-.46-.397-.775-.66-.314-.257-.607-.534-.616-.893-.013-.382.234-.51.584-.813.038-.037.084-.079.135-.118-.094-.022-.122-.11-.238-.23-.047-.056-.187-.302-.187-.508 0-.13-.03-.317.081-.48a.341.341 0 0 1 .312-.175c.125 0 .287.085.365.202.08.116.14.279.14.463 0 .134-.007.27-.033.389.06-.037.116-.072.17-.1.212-.106.347-.085.569-.111.31-.04.734.037.93.185.058.044.112.079.16.111a1.964 1.964 0 0 1-.053-.499.77.77 0 0 1 .187-.54c.091-.096.252-.118.387-.118.32 0 .506.289.57.658a.68.68 0 0 1-.115.496.645.645 0 0 1-.392.239c.498.14 1.017.267.988.698-.038.607-.212.878-.71 1.037-.4.127-1.114.826-1.668.826-.246 0-.59.013-.79-.059ZM9.872 7.721c.15.121.332.239.49.32.095.047.33.102.33.102.223.028.433.023.569.023.317 0 .715-.135 1.13-.338.41-.206.507-.288.796-.457.281-.158.634-.364.51-.426-.121-.061-.245.027-.649.273a7.64 7.64 0 0 1-1.052.562c-.178.078-.418.173-.594.187-.171.01-.39.009-.524.009-.153 0-.324-.064-.485-.121a.939.939 0 0 1-.234-.13c-.136-.086-.377-.32-.458-.376-.025-.007-.097-.002-.082.048.042.14.133.225.253.324Zm.346-2.568c-.024.053.027.101.093.185.068.084.063.21.135.182.027-.009.018-.222-.033-.314-.051-.088-.172-.1-.195-.053Zm.69.913c-.175.035-.175.106-.192.146-.011.036.093.11.145.057a2.84 2.84 0 0 1 .154-.11c.106-.068.063-.117-.107-.093Zm1.088-.01c-.063-.042-.37-.051-.344.01.048.098.166.11.246.158.078.043.12.052.15.034.067-.034.017-.16-.052-.203Zm1.085-.943c-.068.064-.003.105.073.18.043.054.069.19.132.134.069-.05.069-.13-.017-.221-.082-.093-.153-.128-.188-.093ZM7.977 17.67c.388.617.48.788 1.064 1.725.582.933 1.097 1.175 1.11 1.982.013.815-.12.697-.528 1.068-.412.37-.557.597-1.233.547-.676-.057-1.684-.638-2.752-.86-1.996-.423-2.343-.513-2.562-.88-.117-.206-.079-.408-.02-.696.042-.228.107-.513.107-.885.005-.88-.247-1.353-.005-1.678.246-.33 1.215-.303 1.6-.582.382-.28.65-.85.868-1.072.216-.222.413-.413.76-.404.439.012 1.205 1.12 1.591 1.735Z"/>
</svg>
