<svg width="16" height="16" fill="currentColor" viewBox="0 0 16 16" xmlns="http://www.w3.org/2000/svg">
  <path d="M3 10a1 1 0 0 0-1 1v2a1 1 0 0 0 1 1h10a1 1 0 0 0 1-1v-2a1 1 0 0 0-1-1H3Zm10.117-1.998L11.262 2H4.738L2.883 8.002 3 8h10c.04 0 .078 0 .117.002Zm2.626 1.782c.165.372.257.783.257 1.216v2a3 3 0 0 1-3 3H3a3 3 0 0 1-3-3v-2c0-.433.092-.844.257-1.216.007-.06.02-.12.038-.18L2.827 1.41A2 2 0 0 1 4.737 0h6.525a2 2 0 0 1 1.911 1.41l2.532 8.195c.019.06.031.12.038.18ZM12 13a1 1 0 1 1 0-2 1 1 0 0 1 0 2Zm-8-2h2a1 1 0 0 1 0 2H4a1 1 0 0 1 0-2Z"/>
</svg>
