<svg width="32" height="32" fill="currentColor" viewBox="-3 -3 32 32" xmlns="http://www.w3.org/2000/svg">
  <path d="M.573 16.675 4.23 2.205C4.57.96 5.817 0 7.096 0h11.808c1.28 0 2.526.959 2.865 2.205l3.656 14.46A5 5 0 0 1 26 19.002v1.996A5.001 5.001 0 0 1 21.002 26H4.998A4.993 4.993 0 0 1 0 20.998v-1.996c0-.84.207-1.632.573-2.327Zm22.188-2.358L19.834 2.742c-.098-.364-.552-.713-.93-.713H7.096c-.377 0-.832.35-.93.713L3.239 14.319A4.98 4.98 0 0 1 4.998 14h16.004c.62 0 1.212.112 1.759.317ZM2 19.002v1.996A2.993 2.993 0 0 0 4.998 24h16.004A3.001 3.001 0 0 0 24 20.998v-1.996A2.993 2.993 0 0 0 21.002 16H4.998A3.001 3.001 0 0 0 2 19.002ZM20 21a1 1 0 1 0 0-2 1 1 0 0 0 0 2ZM5 20c0-.552.446-1 .998-1h7.004c.551 0 .998.444.998 1 0 .552-.446 1-.998 1H5.998A.996.996 0 0 1 5 20Z"/>
</svg>
