<svg width="16" height="16" fill="currentColor" viewBox="0 0 16 16" xmlns="http://www.w3.org/2000/svg">
  <path d="M3.322 9h1.637a1.1 1.1 0 0 1 .777.322l.678.678h3.188l.678-.678A1.1 1.1 0 0 1 11.057 9h1.621l-1.413-4h-.202a1 1 0 1 1 0-2h.959a1 1 0 0 1 .962.728l1.978 6A1 1 0 0 1 15 10v4a1 1 0 0 1-1 1H2a1 1 0 0 1-1-1v-4a1 1 0 0 1 .038-.272l1.978-6A1 1 0 0 1 3.978 3h1.007a1 1 0 1 1 0 2h-.25L3.322 9ZM3 11v2h10v-2h-1.57l-.678.678a1.1 1.1 0 0 1-.777.322H6.04a1.1 1.1 0 0 1-.777-.322L4.586 11H3Zm4-5V2a1 1 0 1 1 2 0v4h.793a.5.5 0 0 1 .353.854L8.354 8.646a.5.5 0 0 1-.708 0L5.854 6.854A.5.5 0 0 1 6.207 6H7Z"/>
</svg>
