<svg width="24" height="24" fill="currentColor" viewBox="-1 -1 24 24" xmlns="http://www.w3.org/2000/svg">
  <path d="M0 3.853c0-.549.427-1.103.962-1.24L11.038.03c.531-.136.962.202.962.747v20.446c0 .548-.427.883-.962.746L.962 19.387C.43 19.25 0 18.688 0 18.147V3.853Zm2 13.735 8 2.05V2.362L2 4.41v13.177ZM6 15c-1.657 0-3-1.79-3-4s1.343-4 3-4 3 1.79 3 4-1.343 4-3 4Zm0-2c.407 0 1-.79 1-2s-.593-2-1-2c-.407 0-1 .79-1 2s.593 2 1 2Zm5.555-3.832 2.485 1.657 6.464-3.693a1 1 0 1 1 .992 1.736l-7 4a1 1 0 0 1-1.05-.036l-3-2a1 1 0 0 1 1.109-1.664ZM20 5h-8V3h9.004c.55 0 .996.445.996 1v14c0 .552-.445 1-.996 1H12v-2h8V5Z"/>
</svg>
