<svg width="24" height="24" fill="currentColor" viewBox="0 0 24 24" xmlns="http://www.w3.org/2000/svg">
  <path d="M16 4h1a1 1 0 0 1 .894.553l3.948 7.894a1.5 1.5 0 0 1 .158.671V20a2 2 0 0 1-2 2H4a2 2 0 0 1-2-2v-6.882a1.5 1.5 0 0 1 .158-.67l3.948-7.895A1 1 0 0 1 7 4h1a1 1 0 1 1 0 2h-.382l-3 6H8a1 1 0 0 1 .894.553L9.618 14h4.764l.724-1.447A1 1 0 0 1 16 12h3.382l-3-6H16a1 1 0 0 1 0-2Zm4 10h-3.382l-.724 1.447A1 1 0 0 1 15 16H9a1 1 0 0 1-.894-.553L7.382 14H4v6h16v-6Zm-10 3h4a1 1 0 0 1 0 2h-4a1 1 0 0 1 0-2Zm1-9V3a1 1 0 0 1 2 0v5h1.793a.5.5 0 0 1 .353.854l-2.792 2.792a.5.5 0 0 1-.708 0L8.854 8.854A.5.5 0 0 1 9.207 8H11Z"/>
</svg>
