<svg width="16" height="16" fill="currentColor" viewBox="0 0 16 16" xmlns="http://www.w3.org/2000/svg">
  <path d="M16 6.017V13a1 1 0 0 1-1 1H9v1a1 1 0 0 1-1.141.99l-7-1A1 1 0 0 1 0 14V2a1 1 0 0 1 .859-.99l7-1A1 1 0 0 1 9 1v1h6a1 1 0 0 1 1 1v2.982a1 1 0 0 1 0 .035ZM9 7.382l.956.478L14 5.434V4H9v3.382Zm0 2.236V12h5V7.766l-3.486 2.092a1 1 0 0 1-.961.037L9 9.618Zm-2-1.64V2.154l-5 .714v10.266l5 .714V7.98ZM4.5 11C3.672 11 3 9.657 3 8s.672-3 1.5-3S6 6.343 6 8s-.672 3-1.5 3Zm0-1c.088 0 .5-.824.5-2 0-1.175-.412-2-.5-2-.088 0-.5.825-.5 2 0 1.176.412 2 .5 2Z"/>
</svg>
