<svg width="24" height="24" fill="currentColor" viewBox="0 0 24 24" xmlns="http://www.w3.org/2000/svg">
  <path d="M13.336 21.008c.02.05.049.098.07.148.105.272.227.535.368.786.01.019.017.039.027.058H1.992A.999.999 0 0 1 1 21.008V2.992C1 2.444 1.455 2 1.992 2h20.016c.548 0 .992.455.992.992v11.527c-.057-.049-.113-.089-.169-.136l-.041-.033a6.613 6.613 0 0 0-.79-.563 4.689 4.689 0 0 0-1-.45V10H3v4h12.671c-.057.042-.107.084-.162.126a6.002 6.002 0 0 0-.847.736c-.033.034-.074.067-.105.099-.065.069-.114.138-.173.207l-.023.028a4.293 4.293 0 0 0-.56.804H3v4h10.083c.036.339.12.675.253 1.008ZM3 4v4h18V4H3Zm15 2a1 1 0 1 1 2 0 1 1 0 0 1-2 0Zm-3 0a1 1 0 1 1 2 0 1 1 0 0 1-2 0ZM4 6a1 1 0 1 1 2 0 1 1 0 0 1-2 0Zm9 7a1 1 0 1 1 0-2 1 1 0 0 1 0 2Zm-8 0a1 1 0 1 1 0-2 1 1 0 0 1 0 2Zm0 6a1 1 0 1 1 0-2 1 1 0 0 1 0 2Zm14-8a1 1 0 1 1 0 2 1 1 0 0 1 0-2Zm-4 1a1 1 0 1 1 2 0 1 1 0 0 1-2 0Zm8.96 6.396a4.61 4.61 0 0 1 0 1.208.808.808 0 0 1-.805.69.828.828 0 0 1-.284-.05.403.403 0 0 0-.505.215 3.541 3.541 0 0 1-.371.622.373.373 0 0 0 .055.526.763.763 0 0 1-.032 1.23 5.03 5.03 0 0 1-1.078.6.852.852 0 0 1-.321.063.8.8 0 0 1-.801-.65c-.034-.198-.229-.331-.448-.31a3.67 3.67 0 0 1-.74 0c-.218-.02-.413.112-.447.31a.8.8 0 0 1-.801.65.856.856 0 0 1-.322-.063 5.058 5.058 0 0 1-1.078-.6.778.778 0 0 1-.326-.614.76.76 0 0 1 .294-.616.375.375 0 0 0 .055-.527 3.539 3.539 0 0 1-.37-.622.415.415 0 0 0-.5-.216c-.505.18-1.03-.152-1.095-.638a4.572 4.572 0 0 1 0-1.208.808.808 0 0 1 .805-.69c.097 0 .192.017.284.05.21.076.42-.031.505-.215.101-.218.226-.427.371-.622a.373.373 0 0 0-.055-.526.763.763 0 0 1-.294-.616.779.779 0 0 1 .325-.614 5.034 5.034 0 0 1 1.079-.6.852.852 0 0 1 .321-.063.8.8 0 0 1 .801.65c.034.198.23.333.448.31a3.67 3.67 0 0 1 .74 0c.219.023.413-.112.447-.31a.8.8 0 0 1 .801-.65c.11 0 .22.021.322.063.383.155.746.357 1.078.6a.778.778 0 0 1 .326.614.76.76 0 0 1-.294.616.375.375 0 0 0-.055.527c.145.194.27.403.37.622a.415.415 0 0 0 .5.216c.504-.181 1.03.152 1.095.638ZM19 20.5c.827 0 1.5-.673 1.5-1.5s-.673-1.5-1.5-1.5-1.5.673-1.5 1.5.673 1.5 1.5 1.5Z"/>
</svg>
