<svg width="24" height="24" fill="currentColor" viewBox="0 0 24 24" xmlns="http://www.w3.org/2000/svg">
  <path d="M9 22a1 1 0 1 1 0-2h2v-2l.003-.059a8.439 8.439 0 0 1-3.914-1.51 8.23 8.23 0 0 1-3.039-4.118 1 1 0 1 1 1.9-.626 6.23 6.23 0 0 0 2.302 3.116A6.451 6.451 0 0 0 11.998 16c1.348 0 2.66-.418 3.747-1.193a6.23 6.23 0 0 0 2.306-3.113 1 1 0 1 1 1.899.628 8.23 8.23 0 0 1-3.044 4.114 8.438 8.438 0 0 1-3.91 1.506l.004.028V20h2a1 1 0 1 1 0 2H9Zm3-20a4 4 0 0 1 4 4v4a4 4 0 0 1-8 0V6a4 4 0 0 1 4-4Zm0 2a2 2 0 0 0-2 2v4a2 2 0 1 0 4 0V6a2 2 0 0 0-2-2Z"/>
</svg>
