<svg width="32" height="32" fill="currentColor" viewBox="-3 -3 32 32" xmlns="http://www.w3.org/2000/svg">
  <path d="M18.588 19.911a.998.998 0 0 1-.295-.204l-10-10a1 1 0 0 1 1.414-1.414l10 10a.998.998 0 0 1 .204.295 4 4 0 1 1-1.324 1.324ZM21 7.874A4.002 4.002 0 0 1 22 0a4 4 0 0 1 1 7.874V15a1 1 0 0 1-2 0V7.874ZM3 18.126V11a1 1 0 0 1 2 0v7.126A4.002 4.002 0 0 1 4 26a4 4 0 0 1-1-7.874ZM4 8a4 4 0 1 1 0-8 4 4 0 0 1 0 8Zm0-2a2 2 0 1 0 0-4 2 2 0 0 0 0 4Zm18 18a2 2 0 1 0 0-4 2 2 0 0 0 0 4Zm0-18a2 2 0 1 0 0-4 2 2 0 0 0 0 4ZM4 24a2 2 0 1 0 0-4 2 2 0 0 0 0 4Z"/>
</svg>
