<svg width="24" height="24" fill="currentColor" viewBox="-1 -1 24 24" xmlns="http://www.w3.org/2000/svg">
  <path d="M5 0h7.816a5 5 0 0 1 3.366 1.303l4.185 3.811A5 5 0 0 1 22 8.811V17a5 5 0 0 1-5 5H5a5 5 0 0 1-5-5V5a5 5 0 0 1 5-5Zm3.55 14V8.29h-.855v2.991c0 .211.008.505.024.881.015.376.026.595.031.654h-.023L4.926 8.29H3.793V14h.848v-2.969c0-.4-.019-.843-.055-1.328l-.02-.254h.032L7.406 14h1.145Zm2.434 0v-2.344h2.153v-.793h-2.153V9.078h2.297V8.29H10.06V14h.925Zm6.625-1.55a1.54 1.54 0 0 0-.136-.673 1.436 1.436 0 0 0-.43-.511c-.195-.151-.503-.314-.922-.489-.372-.153-.63-.277-.773-.37a.958.958 0 0 1-.309-.3.734.734 0 0 1-.094-.38c0-.217.078-.39.235-.522.156-.131.385-.197.687-.197.399 0 .852.107 1.36.32l.296-.762a4.006 4.006 0 0 0-1.632-.359c-.57 0-1.025.137-1.364.41-.338.274-.507.649-.507 1.125 0 .38.106.706.32.977.213.27.58.511 1.101.722.506.204.839.38 1 .528a.71.71 0 0 1 .243.543.688.688 0 0 1-.264.566c-.176.14-.449.211-.818.211a3.52 3.52 0 0 1-.819-.105 4.31 4.31 0 0 1-.83-.29v.883c.412.2.94.301 1.586.301.646 0 1.152-.144 1.52-.433.367-.29.55-.688.55-1.196Z"/>
</svg>
