<svg width="24" height="24" fill="currentColor" viewBox="0 0 24 24" xmlns="http://www.w3.org/2000/svg">
  <path d="m20.285 17.03.135.923a2.078 2.078 0 0 1-2.321 2.362l-.925-.12a3.09 3.09 0 0 0-2.873 1.22l-.557.748a2.078 2.078 0 0 1-3.31.029l-.57-.738a3.09 3.09 0 0 0-2.894-1.17l-.923.136a2.078 2.078 0 0 1-2.362-2.321l.12-.925a3.09 3.09 0 0 0-1.22-2.873l-.748-.557a2.078 2.078 0 0 1-.029-3.31l.738-.57a3.09 3.09 0 0 0 1.17-2.894l-.136-.923a2.078 2.078 0 0 1 2.321-2.362l.925.12a3.09 3.09 0 0 0 2.873-1.22l.557-.748a2.078 2.078 0 0 1 3.31-.029l.57.738a3.09 3.09 0 0 0 2.894 1.17l.923-.136a2.078 2.078 0 0 1 2.362 2.321l-.12.925a3.09 3.09 0 0 0 1.22 2.873l.748.557a2.078 2.078 0 0 1 .029 3.31l-.738.57a3.09 3.09 0 0 0-1.17 2.894Zm-1.86-.01a4.45 4.45 0 0 1 1.683-4.168l.704-.544a.483.483 0 0 0-.007-.77l-.713-.531a4.45 4.45 0 0 1-1.756-4.137l.113-.883a.483.483 0 0 0-.55-.54l-.88.13a4.45 4.45 0 0 1-4.167-1.684l-.544-.705a.483.483 0 0 0-.77.007l-.531.714A4.45 4.45 0 0 1 6.87 5.665l-.883-.114a.483.483 0 0 0-.54.55l.13.88a4.45 4.45 0 0 1-1.684 4.167l-.705.544a.483.483 0 0 0 .007.77l.714.532a4.45 4.45 0 0 1 1.756 4.136l-.114.883a.483.483 0 0 0 .55.54l.88-.129a4.45 4.45 0 0 1 4.167 1.684l.544.704a.483.483 0 0 0 .77-.007l.532-.713a4.45 4.45 0 0 1 4.136-1.756l.883.113a.483.483 0 0 0 .54-.55l-.129-.88Zm-8.718-5.727L11 12.586l3.293-3.293a1 1 0 0 1 1.414 1.414l-4 4a1 1 0 0 1-1.414 0l-2-2a1 1 0 0 1 1.414-1.414Z"/>
</svg>
