<svg width="16" height="16" fill="currentColor" viewBox="0 0 16 16" xmlns="http://www.w3.org/2000/svg">
  <path d="M9.424 1.206a3.971 3.971 0 0 0-.334.944A4.003 4.003 0 0 0 4 6v3.833C4 10.477 3.478 11 2.833 11a.833.833 0 0 0-.833.833v.169c0 .552.447 1 1 1.002l1.9.006A.506.506 0 0 1 5 13h8a1 1 0 0 0 1-1v-.184a.816.816 0 0 0-.816-.816c-.64 0-1.159-.519-1.158-1.158V8.158A.5.5 0 0 1 12 8V6.874c.32.082.655.126 1 .126v.842c.017.05.026.104.026.158v1.842c0 .087.07.158.158.158 1.003 0 1.816.813 1.816 1.816V12a2 2 0 0 1-2 2h-3a2 2 0 0 1-4 .013l-3.004-.009A2.002 2.002 0 0 1 1 12.002v-.169C1 10.821 1.82 10 2.833 10A.167.167 0 0 0 3 9.833V6a5 5 0 0 1 6.424-4.794ZM8 15a1 1 0 0 0 1-1H7a1 1 0 0 0 1 1Z"/>
</svg>
