<svg width="16" height="16" fill="currentColor" viewBox="0 0 16 16" xmlns="http://www.w3.org/2000/svg">
  <path d="M8 1a5 5 0 0 1 5 5v1.842c.017.05.025.104.025.158v1.842c0 .087.071.158.159.158 1.003 0 1.816.813 1.816 1.816V12a2 2 0 0 1-2 2h-3a2 2 0 0 1-4 .013l-3.004-.009A2.002 2.002 0 0 1 1 12.002v-.169C1 10.821 1.82 10 2.833 10A.167.167 0 0 0 3 9.833V6a5 5 0 0 1 5-5ZM4 9.833C4 10.477 3.477 11 2.833 11a.833.833 0 0 0-.833.833v.169c0 .552.447 1 .999 1.002l1.902.006A.506.506 0 0 1 5 13h8a1 1 0 0 0 1-1v-.184a.816.816 0 0 0-.816-.816c-.64 0-1.159-.519-1.159-1.158V8.158A.5.5 0 0 1 12 8V6a4 4 0 1 0-8 0v3.833ZM7 14a1 1 0 1 0 2 0H7Z"/>
</svg>
