<svg width="16" height="16" fill="currentColor" viewBox="0 0 16 16" xmlns="http://www.w3.org/2000/svg">
  <path d="M9 2.268a2 2 0 0 1 2.9 1.106A5.017 5.017 0 0 1 14.626 6.1a2 2 0 0 1 0 3.8 5.017 5.017 0 0 1-2.726 2.726A2 2 0 0 1 9 13.732V15a1 1 0 0 1-1.141.99l-7-1A1 1 0 0 1 0 14V2a1 1 0 0 1 .859-.99l7-1A1 1 0 0 1 9 1v1.268Zm0 3.464v4.536a1.994 1.994 0 0 1 2.453.358c.492-.274.9-.681 1.172-1.173A1.994 1.994 0 0 1 12 8c0-.572.24-1.088.625-1.453-.273-.492-.68-.9-1.172-1.172A1.994 1.994 0 0 1 9 5.732Zm-7 7.4 5 .715V2.153l-5 .714v10.266Zm4.386-4.115c0 .325-.087.61-.261.85a1.55 1.55 0 0 1-.733.54c-.315.12-.693.178-1.135.178-.513 0-.982-.086-1.408-.26V8.983c.205.15.431.272.68.364a2 2 0 0 0 .694.139c.161 0 .287-.03.376-.087a.285.285 0 0 0 .133-.255.34.34 0 0 0-.067-.21.654.654 0 0 0-.201-.17 3.756 3.756 0 0 0-.501-.215c-.789-.303-1.183-.793-1.183-1.47 0-.473.18-.852.54-1.136.36-.284.843-.425 1.45-.425a4.998 4.998 0 0 1 .863.071c.117.02.282.06.493.117v1.247c-.412-.225-.818-.338-1.216-.338a.75.75 0 0 0-.397.092c-.1.062-.15.146-.15.253 0 .103.04.187.121.255.081.067.25.154.508.261.508.205.867.43 1.078.673.21.244.316.534.316.869Z"/>
</svg>
