<svg width="24" height="24" fill="currentColor" viewBox="0 0 24 24" xmlns="http://www.w3.org/2000/svg">
  <path d="M13 3.17a3 3 0 0 1 3.982 2.494 7.024 7.024 0 0 1 3.353 3.354 3 3 0 0 1 0 5.964 7.024 7.024 0 0 1-3.353 3.353A3 3 0 0 1 13 20.829v1.394c0 .548-.427.883-.962.746L1.962 20.387C1.43 20.25 1 19.688 1 19.147V4.853c0-.549.427-1.103.962-1.24L12.038 1.03c.531-.136.962.202.962.747V3.17ZM14 7a1 1 0 1 0 0-2 1 1 0 0 0 0 2Zm6 6a1 1 0 1 0 0-2 1 1 0 0 0 0 2Zm-6 6a1 1 0 1 0 0-2 1 1 0 0 0 0 2ZM13 8.83v6.34a2.997 2.997 0 0 1 3.495 1.163 5.03 5.03 0 0 0 1.839-1.838A2.997 2.997 0 0 1 17 12c0-1.04.53-1.957 1.334-2.495a5.03 5.03 0 0 0-1.839-1.839A2.997 2.997 0 0 1 13 8.829ZM3 18.587l8 2.05V3.362L3 5.41v13.177Zm1.526-2.883v-1.72a3.303 3.303 0 0 0 2.122.785c.218 0 .409-.02.572-.06a1.34 1.34 0 0 0 .408-.163c.11-.07.19-.152.245-.247a.668.668 0 0 0-.048-.712 1.387 1.387 0 0 0-.353-.327 3.676 3.676 0 0 0-.529-.29 18.209 18.209 0 0 0-.66-.285c-.602-.25-1.05-.557-1.346-.918-.295-.362-.443-.799-.443-1.311 0-.401.08-.746.242-1.034.161-.288.38-.525.658-.712a2.95 2.95 0 0 1 .964-.41 4.954 4.954 0 0 1 1.16-.132c.401 0 .756.024 1.066.072.31.049.596.123.857.223v1.606a2.59 2.59 0 0 0-.422-.236 3.585 3.585 0 0 0-1.405-.3 2.34 2.34 0 0 0-.536.056 1.37 1.37 0 0 0-.409.158.788.788 0 0 0-.257.244.58.58 0 0 0-.092.32.61.61 0 0 0 .102.346c.068.102.165.2.29.29.126.092.278.181.457.269.179.088.381.178.607.271.308.13.584.266.83.411.245.145.455.309.63.492.176.182.31.39.404.625.093.235.14.508.14.82 0 .43-.082.79-.245 1.082a1.984 1.984 0 0 1-.663.709c-.28.18-.605.31-.975.39-.37.078-.762.117-1.174.117-.422 0-.824-.036-1.206-.107a3.64 3.64 0 0 1-.99-.322Z"/>
</svg>
