<svg width="24" height="24" fill="currentColor" viewBox="0 0 24 24" xmlns="http://www.w3.org/2000/svg">
  <path d="M17 9a1 1 0 0 1 1 1v9c0 2.667-1.667 4-5 4-2.357 0-3.88-.666-4.57-2H12a2 2 0 0 0 1.995-1.85L14 19V9h3Zm2.829-.002L23 9a1 1 0 0 1 1 1v6c0 2.667-1.167 4-3.5 4-.207 0-.404-.01-.592-.031.046-.18.075-.362.086-.547l.006-.184V10c0-.351-.06-.689-.171-1.002ZM11 7a1 1 0 0 1 1 1v10a1 1 0 0 1-1 1H1a1 1 0 0 1-1-1V8a1 1 0 0 1 1-1h10ZM9 9H3v1.5h2.25V17h1.5v-6.5H9V9Zm11-6a2 2 0 1 1 0 4 2 2 0 0 1 0-4Zm-7-2a3 3 0 0 1 .993 5.832 2 2 0 0 0-1.837-1.826L12 5h-1.829A3 3 0 0 1 13 1Z"/>
</svg>
