<svg width="32" height="32" fill="currentColor" viewBox="0 0 32 32" xmlns="http://www.w3.org/2000/svg">
  <path d="M18 4v23L3 25V7l15-3Zm-7.904 7.082c-1.233 0-2.224.473-2.972 1.417C6.376 13.443 6 14.68 6 16.207c0 1.448.371 2.622 1.107 3.524.737.9 1.687 1.351 2.857 1.351 1.2 0 2.173-.466 2.92-1.396.745-.93 1.117-2.155 1.116-3.675 0-1.479-.36-2.672-1.08-3.576-.718-.904-1.66-1.353-2.824-1.353Zm-.055 2c.607 0 1.085.266 1.435.802.35.536.524 1.284.524 2.248 0 .924-.181 1.648-.541 2.169-.36.52-.847.781-1.461.781-.596 0-1.078-.265-1.445-.802C8.186 17.745 8 17.017 8 16.096c0-.908.186-1.637.553-2.187.367-.551.864-.827 1.488-.827ZM21 16l8-4v9a2 2 0 0 1-2 2h-8v-8l2 1Zm-2-8h8a2 2 0 0 1 2 2l-8 4-2-1V8Z"/>
</svg>
