<svg width="32" height="32" fill="currentColor" viewBox="0 0 32 32" xmlns="http://www.w3.org/2000/svg">
  <path d="m9.517 21.639-2.379 1.05C6.185 23.252 5 22.542 5 21.41V9.517c0-1.075.567-2.064 1.48-2.583l8.278-4.679c1.037-.58 1.839-.36 2.268-.219l7.793 2.159A2.953 2.953 0 0 1 27 7.033v17.606c0 1.334-.91 2.498-2.217 2.845l-8.198 2.243a3.16 3.16 0 0 1-2.502-.258l-4.332-3.11a1.52 1.52 0 0 1-.674-1.72c.177-.648.784-1.06 1.423-1.06h8.494V7l-7.023 2.44c-.828.328-1.373 1.149-1.373 2.063v8.216c0 .793-.413 1.526-1.08 1.92Z"/>
</svg>
