<svg width="24" height="24" fill="currentColor" viewBox="0 0 24 24" xmlns="http://www.w3.org/2000/svg">
  <path d="m7.332 16.57-1.755.775C4.874 17.759 4 17.235 4 16.4V7.628c0-.792.419-1.522 1.092-1.905l6.106-3.451c1.054-.597 2.285-.157 2.834.798a2.146 2.146 0 0 0-1.161-.96l5.52 1.615a2.178 2.178 0 0 1 1.61 2.093v12.987a2.18 2.18 0 0 1-1.636 2.098l-5.82 1.633a2.33 2.33 0 0 1-1.845-.19L7.12 20.05a1.12 1.12 0 0 1-.498-1.268c.13-.478.579-.783 1.05-.783h6.65V5.772l-5.18 1.8A1.63 1.63 0 0 0 8.13 9.094v6.06c0 .585-.304 1.125-.797 1.416Z"/>
</svg>
