<svg width="32" height="32" fill="currentColor" viewBox="0 0 32 32" xmlns="http://www.w3.org/2000/svg">
  <path d="M16.807 12.04c3.455 0 4.731 2.543 4.731 2.543s2.18-1.33 4.566 0c2.386 1.333 1.934 3.876 1.934 3.876s2.603.531 2.929 2.893c.022.158.033.323.033.497 0 .28-.027.535-.077.768-.44 2.088-2.638 2.382-2.638 2.382L11.254 25s-3.825-.485-3.825-4.118c0-3.633 4.195-3.876 4.195-3.876s.74-4.966 5.183-4.966ZM17.393 7c5.995 0 6.491 5.27 6.463 5.484-.015 0-.029-.003-.044-.003l-.015-.001a6.148 6.148 0 0 0-1.748.258c-.88-.984-2.51-2.138-5.133-2.138h-.027c-3.78 0-5.632 2.869-6.3 5.092-1.929.472-4.376 1.92-4.376 5.228 0 1.049.238 1.918.614 2.64h-2.09S1.001 23.195 1 19.665c0-3.897 3.616-4.263 3.616-4.263s-.362-2.434 1.206-4.018c3.053-3.085 6.026-.853 6.026-.853S13.295 7 17.393 7Z"/>
</svg>
