<svg width="24" height="24" fill="currentColor" viewBox="-2 -1 24 24" xmlns="http://www.w3.org/2000/svg">
  <path d="M18 9V2h-1v.99a1 1 0 1 1-2 0V2h-2v3.01c0 .546-.444.99-1 .99a1 1 0 0 1-1-.99V2H9v3.997A.999.999 0 0 1 8 7c-.552 0-1-.438-1-1.003V2.003L5 2v1.99a1 1 0 1 1-2 0V2.01C3 2.005 2 2 2 2v7h16Zm0 2H2v2.004c0 .301.26.578.566.598l5.005.334a1.93 1.93 0 0 1 1.798 2.177l-.367 2.934c.009.12.05.321.142.506.15.297.374.447.856.447s.707-.15.856-.447c.092-.185.133-.386.142-.506l-.367-2.934a1.93 1.93 0 0 1 1.798-2.177l5.005-.334c.304-.02.566-.3.566-.598V11ZM2.433 15.598A2.62 2.62 0 0 1 0 13.004V1a1 1 0 0 1 1-1h18a1 1 0 0 1 1 1v12.004c0 1.354-1.08 2.504-2.433 2.594l-4.943.33.368 2.948L13 19c0 .391-.086.908-.356 1.447C12.168 21.4 11.268 22 10 22c-1.268 0-2.168-.6-2.644-1.553A3.277 3.277 0 0 1 7 19l.008-.124.368-2.949-4.943-.33Z"/>
</svg>
