<svg width="32" height="32" fill="currentColor" viewBox="-3 -2 32 32" xmlns="http://www.w3.org/2000/svg">
  <path d="M22 1.998V5c0 .552-.444 1-1 1-.552 0-1-.444-1-1V2h-3v4.998A.999.999 0 0 1 16 8c-.552 0-1-.438-1-1.003V2h-4v7.002A.997.997 0 0 1 10 10c-.552 0-1-.446-1-.998V2H6v4.01C6 6.555 5.556 7 5 7a1 1 0 0 1-1-.99V2H2v11h22V1.995l-2 .003ZM2 15v2.005c0 .448.253.678 1.067.856.823.18 1.716.204 3.898.16l.284-.006c.526-.01.889-.015 1.251-.015 2.286 0 3.232 1.69 2.986 3.165-.394 2.364-.481 3.073-.486 3.671V25a2 2 0 1 0 4 0v-.163c-.005-.598-.092-1.306-.486-3.673-.247-1.477.7-3.164 2.986-3.164.345 0 .699.004 1.179.014l.363.007c2.185.044 3.076.02 3.896-.16.81-.178 1.062-.407 1.062-.856V15H2Zm15.5 5c-.836 0-1.08.436-1.014.836.412 2.467.508 3.251.514 3.987V25a4 4 0 1 1-8 0v-.178c.006-.736.103-1.52.514-3.986C9.58 20.438 9.334 20 8.5 20c-.346 0-.698.005-1.212.015l-.283.005c-2.361.048-3.326.022-4.365-.206C1.003 19.456 0 18.546 0 17.005V1.995C0 .892.897 0 2 0h22c1.102 0 2 .896 2 1.995v15.01c0 1.54-1 2.451-2.633 2.81-1.038.227-2 .253-4.366.205l-.36-.007c-.469-.009-.81-.013-1.141-.013Z"/>
</svg>
