<svg width="24" height="24" fill="currentColor" viewBox="-1 -2 24 24" xmlns="http://www.w3.org/2000/svg">
  <path d="M11 0c3.74 0 6.975 2.419 7.965 5.831C20.797 6.732 22 8.567 22 10.625 22 13.602 19.509 16 16.455 16h-.453a1 1 0 0 1 0-2h.453C18.42 14 20 12.48 20 10.625c0-1.39-.894-2.63-2.237-3.138a1 1 0 0 1-.623-.722C16.539 4.015 13.99 2 11 2 8.29 2 5.919 3.658 5.061 6.063a1 1 0 0 1-.578.595C2.99 7.243 2 8.631 2 10.188 2 12.153 3.576 13.81 5.545 14H6a1 1 0 0 1 0 2l-.549-.004C2.38 15.706 0 13.206 0 10.187c0-2.244 1.324-4.244 3.338-5.21C4.594 1.999 7.603 0 11 0Zm0 10a2 2 0 1 1 0-4 2 2 0 0 1 0 4Zm-3 2.5A1.5 1.5 0 0 1 9.5 11h3a1.5 1.5 0 0 1 1.5 1.5v2.586a1 1 0 0 1-.293.707l-.583.583a.5.5 0 0 0-.143.298l-.382 3.436a1 1 0 0 1-.994.89h-1.21a1 1 0 0 1-.994-.89l-.382-3.436a.5.5 0 0 0-.143-.298l-.583-.583A1 1 0 0 1 8 15.086V12.5Z"/>
</svg>
