<svg width="24" height="24" fill="currentColor" viewBox="-1 -2 24 24" xmlns="http://www.w3.org/2000/svg">
  <path d="M15 19V2H7v17h3v-.99a1 1 0 1 1 2 0v.98c0 .004 3 .01 3 .01Zm6 0a.999.999 0 0 1 1 1c0 .552-.44 1-1.002 1H1.002A.999.999 0 0 1 0 20a.995.995 0 0 1 1-1V6.85c0-.548.451-1.07.99-1.16L5 5.184V.999C5 .447 5.456 0 6.002 0h9.996A.995.995 0 0 1 17 .999V8h3.01c.546 0 .99.447.99.999V19ZM3 19h2V7.212l-2 .336V19Zm14-9v9h2v-9h-2Zm-8 4a1 1 0 0 1 1.01-1h1.98a1 1 0 1 1 0 2h-1.98C9.451 15 9 14.556 9 14Zm0-3a1 1 0 0 1 1.01-1h1.98a1 1 0 1 1 0 2h-1.98C9.451 12 9 11.556 9 11Zm0-3a1 1 0 0 1 1.01-1h1.98a1 1 0 1 1 0 2h-1.98C9.451 9 9 8.556 9 8Zm0-3a1 1 0 0 1 1.01-1h1.98a1 1 0 1 1 0 2h-1.98C9.451 6 9 5.556 9 5Z"/>
</svg>
