<svg width="16" height="16" fill="currentColor" viewBox="0 0 16 16" xmlns="http://www.w3.org/2000/svg">
  <path d="M8 0c2.944 0 5.44 2.11 6.088 4.987C15.246 5.625 16 6.877 16 8.273 16 10.323 14.386 12 12.375 12h-.373a1 1 0 1 1 0-2h.373C13.264 10 14 9.235 14 8.273c0-.76-.465-1.418-1.126-1.645a1 1 0 0 1-.667-.81C11.909 3.631 10.114 2 8 2 6.133 2 4.493 3.276 3.942 5.125a1 1 0 0 1-.594.646C2.548 6.083 2 6.892 2 7.818 2 9.032 2.932 10 4.063 10a1 1 0 0 1 0 2C1.81 12 0 10.12 0 7.818c0-1.575.855-2.99 2.173-3.703C3.093 1.671 5.385 0 8 0Zm1.5 12.7-.436 2.875A.5.5 0 0 1 8.57 16H7.43a.5.5 0 0 1-.494-.425L6.5 12.7l-.427-.427a.3.3 0 0 1-.085-.176l-.355-2.979A1 1 0 0 1 6.626 8h2.748a1 1 0 0 1 .993 1.118l-.355 2.979a.3.3 0 0 1-.085.176L9.5 12.7ZM8 7a1.5 1.5 0 1 1 0-3 1.5 1.5 0 0 1 0 3Z"/>
</svg>
