<svg width="16" height="16" fill="currentColor" viewBox="0 0 16 16" xmlns="http://www.w3.org/2000/svg">
  <path d="M11.207 6.207 9.793 4.793l-5 5 1.414 1.414 5-5Zm3.51-4.925a3 3 0 0 1 0 4.243l-9.192 9.193a3 3 0 1 1-4.243-4.243l9.193-9.193a3 3 0 0 1 4.243 0Zm-9.01 3.011L4.111 2.697A1 1 0 0 0 2.697 4.11l1.596 1.596L2.879 7.12 1.282 5.524a3 3 0 1 1 4.243-4.243L7.122 2.88 5.707 4.293Zm6 6 1.414-1.414 1.597 1.596a3 3 0 1 1-4.243 4.243l-1.596-1.596 1.414-1.415 1.596 1.596a1 1 0 0 0 1.414-1.414l-1.596-1.596Z"/>
</svg>
