<svg width="16" height="16" fill="currentColor" viewBox="0 0 16 16" xmlns="http://www.w3.org/2000/svg">
  <path d="M4.302 12.177c-.105.2-.188.41-.312.594C3.466 13.55 2.886 14 2.333 14c-.187 0-.207-.045-.25-.094a.39.39 0 0 1-.083-.24c0-.346.075-.482.26-.666.186-.183.53-.381.98-.542.314-.112.694-.194 1.062-.281m9.03-2.51c.348 0 .453.08.533.166.08.085.135.22.135.365 0 .12.023.469-.667.469-.316 0-.802-.283-1.333-.667.554-.193 1.03-.333 1.333-.333M7.625 7.552c.42.576.775 1.043 1.219 1.553-.7.18-1.326.35-2.042.572.303-.743.565-1.386.823-2.125M7 2c.312 0 .394.075.5.208a.974.974 0 0 1 .167.459c0 .136-.15.717-.417 1.375-.032.08-.07.188-.104.27-.072-.114-.153-.254-.22-.364-.392-.652-.593-1.251-.593-1.281a.86.86 0 0 1 .178-.47C6.62 2.07 6.725 2 7 2m0-2c-.833 0-1.564.376-2.011.896a2.71 2.71 0 0 0-.656 1.77c0 .937.45 1.604.886 2.324.254.42.52.845.76 1.24-.43 1.26-.955 2.68-1.468 3.812-.59.138-1.276.29-1.948.53-.602.216-1.204.51-1.708 1.01A2.968 2.968 0 0 0 0 13.668c0 .55.183 1.106.583 1.563a2.36 2.36 0 0 0 1.75.77c1.519 0 2.605-1.061 3.313-2.114a9.635 9.635 0 0 0 1.052-2.094 49.056 49.056 0 0 1 3.157-.906c.868.812 1.958 1.78 3.478 1.78 1.63 0 2.667-1.3 2.667-2.468 0-.604-.211-1.232-.677-1.73-.466-.496-1.186-.801-1.99-.801-.937 0-1.796.309-2.583.625-.671-.755-1.466-1.746-2.02-2.573.126-.306.25-.623.375-.927.285-.706.562-1.35.562-2.125 0-.567-.176-1.16-.604-1.698A2.664 2.664 0 0 0 7-.001"/>
</svg>
