<svg width="32" height="32" fill="currentColor" viewBox="0 0 32 32" xmlns="http://www.w3.org/2000/svg">
  <path d="M18.707 19.156h-1.696v-1.288h1.822V17h-2.864v4.997h1.042v-1.976h1.696v-.865Zm-9.627.134c-.162.129-.405.193-.731.193H8V18h.482c.289 0 .502.06.637.178.136.118.204.301.204.55 0 .246-.081.433-.243.562ZM12.544 18c.915 0 1.372.536 1.372 1.61 0 1.096-.493 1.644-1.477 1.644H12V18h.544Zm-1.575 3.997h1.365c.853 0 1.505-.219 1.957-.656.452-.438.678-1.068.678-1.89 0-.774-.218-1.375-.653-1.805-.436-.431-1.046-.646-1.834-.646h-1.513v4.997ZM26 28V12h-7V5h-9v10h9.525c.815 0 1.475.66 1.475 1.474v6.051C21 23.34 20.34 24 19.525 24H10v4h16ZM7 21.997h1.06v-1.778h.454c.62 0 1.098-.142 1.434-.426.336-.285.504-.697.504-1.235 0-.517-.158-.906-.474-1.167-.315-.26-.776-.391-1.382-.391H7v4.997ZM20 3l8 8v19H8v-6H6.475C5.66 24 5 23.34 5 22.525v-6.051C5 15.66 5.66 15 6.475 15H8V3h12Z"/>
</svg>
