<svg width="24" height="24" fill="currentColor" viewBox="0 0 24 24" xmlns="http://www.w3.org/2000/svg">
  <path d="M1.5 2h17A1.5 1.5 0 0 1 20 3.5v6.862l-1.206-.323a1.138 1.138 0 0 0-.588 0l-.206.055V8.539l-7.188 3.194a2 2 0 0 1-1.624 0L2 8.54V16h9v2H1.5A1.5 1.5 0 0 1 0 16.5v-13A1.5 1.5 0 0 1 1.5 2ZM10 9.906l8-3.556V4H2v2.35l8 3.556Zm14 9.99c0 1.49-1.744 2.843-5.232 4.059a.816.816 0 0 1-.536 0C14.744 22.739 13 21.386 13 19.895V14.05a.76.76 0 0 1 .57-.726l4.714-1.294a.817.817 0 0 1 .432 0l4.714 1.294a.76.76 0 0 1 .57.726v5.846Zm-3.707-4.103L18 18.086l-1.293-1.293a1 1 0 0 0-1.414 1.414l2 2a1 1 0 0 0 1.414 0l3-3a1 1 0 0 0-1.414-1.414Z"/>
</svg>
