<svg width="24" height="24" fill="currentColor" viewBox="0 0 24 24" xmlns="http://www.w3.org/2000/svg">
  <path d="M19.848 14c-.17.386-.321.74-.454 1.062a8.014 8.014 0 0 1-1.737 2.595A7.967 7.967 0 0 1 12 20a8 8 0 0 1-8-8c0-2.16.857-4.177 2.357-5.67A8.014 8.014 0 0 1 8.95 4.6c.32-.132.67-.282 1.049-.45V2.188a9.363 9.363 0 0 0-1.812.564 10.014 10.014 0 0 0-3.242 2.16A9.969 9.969 0 0 0 2 12c0 5.523 4.477 10 10 10a9.969 9.969 0 0 0 7.071-2.929 10.015 10.015 0 0 0 2.17-3.243c.248-.599.44-1.178.569-1.828h-1.962ZM22 12H12V2a9.969 9.969 0 0 1 7.071 2.929A9.969 9.969 0 0 1 22 12Zm-4.343-5.657A7.973 7.973 0 0 0 14 4.252V10h5.748a7.973 7.973 0 0 0-2.091-3.657Z"/>
</svg>
