<svg width="24" height="24" fill="currentColor" viewBox="-3 -1 24 24" xmlns="http://www.w3.org/2000/svg">
  <path d="M15 3h1.001C17.109 3 18 3.895 18 5v15c0 1.1-.897 2-2 2H2c-1.107 0-2-.895-2-2V5c0-1.099.896-2 1.999-2H3a1 1 0 0 1 1-1h1V1a1 1 0 0 1 1-1h6a1 1 0 0 1 1 1v1h1a1 1 0 0 1 1 1Zm0 2v1a1 1 0 0 1-1 1H4a1 1 0 0 1-1-1V5H2v15c0 .002 14 0 14 0-.004 0 0-15 0-15h-1Zm-8.293 7.293L8 13.586l3.293-3.293a1 1 0 0 1 1.414 1.414l-4 4a1 1 0 0 1-1.414 0l-2-2a1 1 0 0 1 1.414-1.414ZM5 5h8V4c-1.105 0-2-.892-2-2H7c0 1.105-.892 2-2 2v1Z"/>
</svg>
