<svg width="32" height="32" fill="currentColor" viewBox="-2 -3 32 32" xmlns="http://www.w3.org/2000/svg">
  <path d="M7 3V1a1 1 0 0 1 1-1h4a1 1 0 0 1 1 1v10a1 1 0 0 1-1 1H1a1 1 0 0 1-1-1V1a1 1 0 0 1 1-1h4a1 1 0 0 1 1 1v2h1ZM2 2v8h9V2H9v2a1 1 0 0 1-1 1H5a1 1 0 0 1-1-1V2H2Zm20-1a1 1 0 0 1 1-1h4a1 1 0 0 1 1 1v10a1 1 0 0 1-1 1H16a1 1 0 0 1-1-1V1a1 1 0 0 1 1-1h4a1 1 0 0 1 1 1v2h1V1Zm-5 1v8h9V2h-2v2a1 1 0 0 1-1 1h-3a1 1 0 0 1-1-1V2h-2Zm5 13a1 1 0 0 1 1-1h4a1 1 0 0 1 1 1v10a1 1 0 0 1-1 1H16a1 1 0 0 1-1-1V15a1 1 0 0 1 1-1h4a1 1 0 0 1 1 1v2h1v-2Zm-5 1v8h9v-8h-2v2a1 1 0 0 1-1 1h-3a1 1 0 0 1-1-1v-2h-2ZM7 15a1 1 0 0 1 1-1h4a1 1 0 0 1 1 1v10a1 1 0 0 1-1 1H1a1 1 0 0 1-1-1V15a1 1 0 0 1 1-1h4a1 1 0 0 1 1 1v2h1v-2Zm-5 1v8h9v-8H9v2a1 1 0 0 1-1 1H5a1 1 0 0 1-1-1v-2H2Z"/>
</svg>
