<svg width="24" height="24" fill="currentColor" viewBox="0 0 24 24" xmlns="http://www.w3.org/2000/svg">
  <path d="M5.004 13a1 1 0 0 1 .709.294l.702.706h.17l.708-.707A1 1 0 0 1 8 13h2a1 1 0 0 1 1 1v7a1 1 0 0 1-1 1H3a1 1 0 0 1-1-1v-7a1 1 0 0 1 1-1h2.004Zm11 0a1 1 0 0 1 .709.294l.702.706h.17l.708-.707A1 1 0 0 1 19 13h2a1 1 0 0 1 1 1v7a1 1 0 0 1-1 1h-7a1 1 0 0 1-1-1v-7a1 1 0 0 1 1-1h2.004ZM4.59 15H4v5h5v-5h-.586l-.707.707A1 1 0 0 1 7 16H6a1 1 0 0 1-.709-.294L4.59 15Zm11 0H15v5h5v-5h-.586l-.707.707A1 1 0 0 1 18 16h-1a1 1 0 0 1-.709-.294L15.59 15ZM5.004 2a1 1 0 0 1 .709.294L6.415 3h.17l.708-.707A1 1 0 0 1 8 2h2a1 1 0 0 1 1 1v7a1 1 0 0 1-1 1H3a1 1 0 0 1-1-1V3a1 1 0 0 1 1-1h2.004Zm11 0a1 1 0 0 1 .709.294l.702.706h.17l.708-.707A1 1 0 0 1 19 2h2a1 1 0 0 1 1 1v7a1 1 0 0 1-1 1h-7a1 1 0 0 1-1-1V3a1 1 0 0 1 1-1h2.004ZM4.59 4H4v5h5V4h-.586l-.707.707A1 1 0 0 1 7 5H6a1 1 0 0 1-.709-.294L4.59 4Zm11 0H15v5h5V4h-.586l-.707.707A1 1 0 0 1 18 5h-1a1 1 0 0 1-.709-.294L15.59 4Z"/>
</svg>
