<svg width="16" height="16" fill="currentColor" viewBox="0 0 16 16" xmlns="http://www.w3.org/2000/svg">
  <path d="m8.275.039 6 1.725c.429.123.725.518.725.968v7.795c0 1.988-2.22 3.792-6.659 5.413a.994.994 0 0 1-.682 0C3.219 14.319 1 12.515 1 10.527V2.732c0-.45.296-.845.725-.968l6-1.725a.994.994 0 0 1 .55 0ZM8 2 3 3.454v7.114c0 .826 1.527 2.106 5 3.432 3.473-1.326 5-2.606 5-3.432V3.454L8 2Zm3.207 3.793a1 1 0 0 1 0 1.414l-3 3a1 1 0 0 1-1.414 0l-2-2a1 1 0 0 1 1.414-1.414L7.5 8.086l2.293-2.293a1 1 0 0 1 1.414 0Z"/>
</svg>
