<svg width="32" height="32" fill="currentColor" viewBox="0 0 32 32" xmlns="http://www.w3.org/2000/svg">
  <path d="m16.002 4-10 3.379L6 18.695c.117 2.432 1.867 4.75 4.773 6.738C12.806 26.824 15.533 28 16.002 28c.469 0 3.194-1.176 5.226-2.567 2.903-1.986 4.648-4.304 4.758-6.664L26 7.38 16.002 4Zm-.463-1.946a2 2 0 0 1 .925 0l9.999 3.379A2 2 0 0 1 28 7.38l-.016 11.481c-.142 3.042-2.19 5.87-5.626 8.222C20.257 28.522 17.116 30 16.002 30c-1.114 0-4.256-1.478-6.358-2.916-3.453-2.36-5.492-5.193-5.644-8.39L4.002 7.38a2 2 0 0 1 1.537-1.946l10-3.379Zm4.754 9.239a1 1 0 0 1 1.414 1.414l-7 7a1 1 0 0 1-1.414 0l-3-3a1 1 0 0 1 1.414-1.414L14 17.586l6.293-6.293Z"/>
</svg>
