<svg width="24" height="24" fill="currentColor" viewBox="0 0 24 24" xmlns="http://www.w3.org/2000/svg">
  <path d="M20.22 3.834a1 1 0 0 1 .78.977l-.012 10.094c-.116 2.396-1.723 4.426-4.238 6.063C15.03 22.086 12.804 23 12 23c-.804 0-3.031-.914-4.75-2.032-2.518-1.637-4.127-3.665-4.25-6.11V4.81a1 1 0 0 1 .78-.976l8-2.81a1 1 0 0 1 .44 0l8 2.81ZM12 3.025 5 5.61l-.001 9.198c.082 1.618 1.306 3.162 3.34 4.485C9.764 20.217 11.673 21 12 21c.328 0 2.236-.783 3.659-1.708 2.032-1.323 3.253-2.866 3.33-4.436L19 5.608l-7-2.583Zm-2.293 8.268L11 12.586l3.293-3.293a1 1 0 0 1 1.414 1.414l-4 4a1 1 0 0 1-1.414 0l-2-2a1 1 0 0 1 1.414-1.414Z"/>
</svg>
