<svg width="24" height="24" fill="currentColor" viewBox="-3 -1 24 24" xmlns="http://www.w3.org/2000/svg">
  <path d="M9 22c-2.25 0-9-8.604-9-12.818C0 4.116 4.024 0 9 0s9 4.116 9 9.182C18 13.396 11.25 22 9 22Zm.043-2.132c.25-.181.575-.458.941-.805.814-.77 1.746-1.8 2.604-2.895C14.685 13.496 16 10.913 16 9.182 16 5.21 12.86 2 9 2S2 5.21 2 9.182c0 1.73 1.315 4.314 3.412 6.986.858 1.094 1.79 2.124 2.604 2.895a10.067 10.067 0 0 0 .984.836l.043-.03ZM9 13a4 4 0 1 1 0-8 4 4 0 0 1 0 8Zm0-2a2 2 0 1 0 0-4 2 2 0 0 0 0 4Z"/>
</svg>
