<svg width="32" height="32" fill="currentColor" viewBox="-2 -2 32 32" xmlns="http://www.w3.org/2000/svg">
  <path d="M14 28C6.268 28 0 21.732 0 14S6.268 0 14 0s14 6.268 14 14-6.268 14-14 14Zm0-2c6.627 0 12-5.373 12-12S20.627 2 14 2 2 7.373 2 14s5.373 12 12 12Zm0-4a1 1 0 1 1 0-2 1 1 0 0 1 0 2Zm-3.007-10.882a1 1 0 0 1-1.986-.236c.067-.562.35-1.313 1.007-2.048C11.05 7.674 12.698 7 15.008 7c5.837 0 6.964 7.78 1.205 8.979-.668.139-.994.418-1.151.828a1.913 1.913 0 0 0-.09.908l.01.064a1 1 0 0 1-1.95.442 3.838 3.838 0 0 1 .163-2.129c.398-1.044 1.274-1.793 2.61-2.071C19.136 13.328 18.509 9 15.008 9c-1.762 0-2.863.45-3.503 1.166-.349.39-.49.764-.512.952Z"/>
</svg>
