<svg width="24" height="24" fill="currentColor" viewBox="-1 -1 24 24" xmlns="http://www.w3.org/2000/svg">
  <path d="M11 22C4.925 22 0 17.075 0 11S4.925 0 11 0s11 4.925 11 11-4.925 11-11 11Zm0-2a9 9 0 1 0 0-18 9 9 0 0 0 0 18Zm0-2a1 1 0 1 0 0-2 1 1 0 0 0 0 2ZM9 8.002c0-.053.043-.224.176-.4.27-.36.815-.602 1.83-.602.582 0 1.047.049 1.403.127.18.04.367.112.367.112C13.423 7.48 14 8.31 14 9c0 .64-.546 1.32-1.178 1.46l-.578.128a2.934 2.934 0 0 0-2.23 3.588l.016.067a1 1 0 0 0 1.94-.486l-.016-.066a.935.935 0 0 1 .724-1.15l.578-.13C14.803 12.069 16 10.578 16 9c0-1.528-1.097-3.103-2.526-3.635-.067-.037-.304-.119-.636-.192A8.625 8.625 0 0 0 11.006 5c-1.613 0-2.758.508-3.428 1.399C7.147 6.972 7 7.55 7 7.999a1 1 0 1 0 2 .003Z"/>
</svg>
