<svg width="24" height="24" fill="currentColor" viewBox="-1 -4 24 24" xmlns="http://www.w3.org/2000/svg">
  <path d="M1 14a1 1 0 0 1-1-1V1a1 1 0 0 1 1-1h20a1 1 0 0 1 1 1v12a1 1 0 0 1-1 1v1a1 1 0 0 1-1 1H2a1 1 0 0 1-1-1v-1Zm15 0v-1a1 1 0 0 1 2 0v1h1v-1a1 1 0 0 1 1-1V2H2v10a1 1 0 0 1 1 1v1h1v-1a1 1 0 0 1 2 0v1h2v-1a1 1 0 0 1 2 0v1h2v-1a1 1 0 0 1 2 0v1h2ZM5 4h2a1 1 0 0 1 1 1v4a1 1 0 0 1-1 1H5a1 1 0 0 1-1-1V5a1 1 0 0 1 1-1Zm0 1v4h2V5H5Zm5-1h2a1 1 0 0 1 1 1v4a1 1 0 0 1-1 1h-2a1 1 0 0 1-1-1V5a1 1 0 0 1 1-1Zm0 1v4h2V5h-2Zm5-1h2a1 1 0 0 1 1 1v4a1 1 0 0 1-1 1h-2a1 1 0 0 1-1-1V5a1 1 0 0 1 1-1Zm0 1v4h2V5h-2Z"/>
</svg>
