<svg width="32" height="32" fill="currentColor" viewBox="0 0 32 32" xmlns="http://www.w3.org/2000/svg">
  <path d="M13.598 26c.248.704.57 1.374.956 2h-3.552a.999.999 0 1 1 0-2h2.595Zm13.91-24C28.333 2 29 2.675 29 3.493v10.061a10.451 10.451 0 0 0-2-.957V4H5v12h10.253a10.507 10.507 0 0 0-1.243 2H5v3h8.106a10.6 10.6 0 0 0-.094 2h-8.52A1.496 1.496 0 0 1 3 21.507V3.493C3 2.67 3.669 2 4.491 2ZM23.5 14a8.5 8.5 0 1 1 0 17 8.5 8.5 0 0 1 0-17Zm0 2a6.5 6.5 0 1 0 0 13 6.5 6.5 0 0 0 0-13Zm-3.707 5.293a1 1 0 0 1 1.414 0l2 2a1 1 0 0 1 0 1.414l-2 2a1 1 0 0 1-1.414-1.414L21.086 24l-1.293-1.293a1 1 0 0 1 0-1.414Zm7.414-3a1 1 0 0 1 0 1.414L25.914 21l1.293 1.293a1 1 0 0 1-1.414 1.414l-2-2a1 1 0 0 1 0-1.414l2-2a1 1 0 0 1 1.414 0Z"/>
</svg>
