<svg width="32" height="32" fill="currentColor" viewBox="0 0 32 32" xmlns="http://www.w3.org/2000/svg">
  <path d="M23.5 15a8.5 8.5 0 1 1 0 17 8.5 8.5 0 0 1 0-17Zm0 2a6.5 6.5 0 1 0 0 13 6.5 6.5 0 0 0 0-13ZM27 3a2 2 0 0 1 2 2v9.554a10.451 10.451 0 0 0-2-.957V13H5v14h8.598c.248.704.57 1.374.956 2H5a2 2 0 0 1-2-2V5a2 2 0 0 1 2-2h22Zm-7.207 19.293a1 1 0 0 1 1.32-.083l.094.083 2 2a1 1 0 0 1 .083 1.32l-.083.094-2 2a1 1 0 0 1-1.497-1.32l.083-.094L21.086 25l-1.293-1.293a1 1 0 0 1 0-1.414Zm7.414-3a1 1 0 0 1 0 1.414L25.914 22l1.293 1.293a1 1 0 0 1-1.414 1.414l-2-2a1 1 0 0 1 0-1.414l2-2a1 1 0 0 1 1.414 0ZM27 5H5v6h22V5ZM8 7a1 1 0 1 1 0 2 1 1 0 0 1 0-2Zm3 0a1 1 0 1 1 0 2 1 1 0 0 1 0-2Zm3 0a1 1 0 1 1 0 2 1 1 0 0 1 0-2Z"/>
</svg>
