<svg width="24" height="24" fill="currentColor" viewBox="0 0 24 24" xmlns="http://www.w3.org/2000/svg">
  <path d="M23 14.803A5.972 5.972 0 0 0 20 14a5.985 5.985 0 0 0-4.472 2H7v4h7c0 .701.12 1.374.341 2H6a1 1 0 0 1-1-1v-5H2a1 1 0 0 1-1-1V3a1 1 0 0 1 1-1h16a1 1 0 0 1 1 1v5h3a1 1 0 0 1 1 1v5.803ZM21 10H7v4h14v-4Zm-4-2V4H3v4h14ZM3 10v4h2v-4H3Zm6 3a1 1 0 1 1 0-2 1 1 0 0 1 0 2Zm0 6a1 1 0 1 1 0-2 1 1 0 0 1 0 2Zm10-6a1 1 0 1 1 0-2 1 1 0 0 1 0 2Zm-3 0a1 1 0 1 1 0-2 1 1 0 0 1 0 2ZM5 7a1 1 0 1 1 0-2 1 1 0 0 1 0 2Zm10 0a1 1 0 1 1 0-2 1 1 0 0 1 0 2Zm-3 0a1 1 0 1 1 0-2 1 1 0 0 1 0 2Z"/>
</svg>
