<svg width="32" height="32" fill="currentColor" viewBox="0 0 32 32" xmlns="http://www.w3.org/2000/svg">
  <path d="M8 9V4h21v17h-4v5h-6.4l.787 3H8.613l.787-3H3V9h5Zm2 0h15v10h2V6H10v3Zm-5 2v13h7l-.613 3h5.226L16 24h7V11H5Zm7.63 7.64V22H11v-9h3a3.34 3.34 0 0 1 1.13.19c.343.124.656.318.92.57.261.254.466.561.6.9.144.373.215.77.21 1.17a2.74 2.74 0 0 1-.44 1.55 2.65 2.65 0 0 1-1.17 1l2.17 3.65h-1.9l-2-3.39h-.89Zm0-4.12v2.6H14a1.35 1.35 0 0 0 .91-.32 1.18 1.18 0 0 0 .37-.95 1.25 1.25 0 0 0-.38-1 1.33 1.33 0 0 0-.9-.33h-1.37Z"/>
</svg>
