<svg width="16" height="16" fill="currentColor" viewBox="0 0 16 16" xmlns="http://www.w3.org/2000/svg">
  <path d="M2.083 9h1.948a16.077 16.077 0 0 1 0-2H2.083a6.04 6.04 0 0 0 0 2Zm.72 2a6.03 6.03 0 0 0 2.142 2.165A11.37 11.37 0 0 1 4.291 11H2.803Zm11.114-2a6.04 6.04 0 0 0 0-2h-1.948a16.077 16.077 0 0 1 0 2h1.948Zm-.72 2H11.71a11.37 11.37 0 0 1-.654 2.165A6.03 6.03 0 0 0 13.197 11ZM6.035 9h3.93a14.022 14.022 0 0 0 0-2h-3.93a14.022 14.022 0 0 0 0 2Zm.303 2c.16.66.37 1.257.622 1.762C7.402 13.646 7.821 14 8 14c.179 0 .598-.354 1.04-1.238A8.323 8.323 0 0 0 9.662 11H6.338ZM2.803 5H4.29c.16-.793.382-1.523.654-2.165A6.03 6.03 0 0 0 2.803 5Zm10.394 0a6.03 6.03 0 0 0-2.142-2.165c.272.642.494 1.372.654 2.165h1.488ZM6.338 5h3.324a8.323 8.323 0 0 0-.622-1.762C8.598 2.354 8.179 2 8 2c-.179 0-.598.354-1.04 1.238A8.323 8.323 0 0 0 6.338 5ZM8 16A8 8 0 1 1 8 0a8 8 0 0 1 0 16Z"/>
</svg>
