<svg width="24" height="24" fill="currentColor" viewBox="0 0 24 24" xmlns="http://www.w3.org/2000/svg">
  <path d="M12 22C6.477 22 2 17.523 2 12S6.477 2 12 2s10 4.477 10 10-4.477 10-10 10Zm7.748-12H16.82a11.273 11.273 0 0 1 0 4h2.928a8.047 8.047 0 0 0 0-4Zm-.818-2a8.02 8.02 0 0 0-4.584-3.65c.845 1.209 1.49 2.426 1.933 3.65h2.65Zm-9.71 2A9.339 9.339 0 0 0 9 12c0 .664.073 1.33.22 2h5.56c.147-.67.22-1.336.22-2 0-.664-.073-1.33-.22-2H9.22Zm.653-2h4.254C13.632 6.859 12.924 5.71 12 4.55 11.076 5.71 10.368 6.86 9.873 8Zm-5.621 2A8.014 8.014 0 0 0 4 12c0 .69.088 1.36.252 2H7.18a11.273 11.273 0 0 1 0-4H4.252Zm.818-2h2.65c.443-1.224 1.089-2.441 1.934-3.65A8.02 8.02 0 0 0 5.07 8Zm13.86 8h-2.65c-.443 1.224-1.089 2.441-1.934 3.65A8.02 8.02 0 0 0 18.93 16Zm-9.057 0c.495 1.141 1.203 2.29 2.127 3.45.924-1.16 1.632-2.309 2.127-3.45H9.873ZM5.07 16a8.02 8.02 0 0 0 4.584 3.65c-.845-1.209-1.49-2.426-1.933-3.65H5.07Z"/>
</svg>
