<svg width="24" height="24" fill="currentColor" viewBox="0 0 24 24" xmlns="http://www.w3.org/2000/svg">
  <path d="M5.08 16h2.654c.443 1.225 1.09 2.442 1.936 3.653A8.015 8.015 0 0 1 5.08 16Zm-.818-2A7.998 7.998 0 0 1 4 12c0-.692.097-1.359.262-2h2.933A11.35 11.35 0 0 0 7 12c0 .669.076 1.335.195 2H4.262ZM9.67 4.347C8.824 5.558 8.177 6.775 7.734 8H5.08a8.015 8.015 0 0 1 4.59-3.653Zm2.33.214c.92 1.155 1.627 2.3 2.121 3.439H9.88c.494-1.139 1.2-2.284 2.121-3.439ZM18.921 8h-2.655c-.443-1.225-1.09-2.442-1.937-3.653A8.014 8.014 0 0 1 18.921 8Zm-9.699 6A9.364 9.364 0 0 1 9 12c0-.664.076-1.331.222-2h5.556c.146.669.222 1.336.222 2 0 .644-.074 1.29-.212 1.937a5.951 5.951 0 0 1 2.145-.836c.041-.367.067-.734.067-1.101 0-.669-.076-1.335-.195-2h2.933c.165.641.262 1.308.262 2 0 .446-.052.878-.125 1.303a5.962 5.962 0 0 1 1.85.998c.173-.74.275-1.508.275-2.301 0-5.522-4.477-10-10-10S2 6.478 2 12s4.477 10 10 10c.265 0 .525-.02.785-.04a5.943 5.943 0 0 1-.764-2.548.317.317 0 0 1-.02.027c-.92-1.155-1.628-2.3-2.122-3.439h2.93a6.018 6.018 0 0 1 1.877-2H9.222ZM19 21c-.827 0-1.5-.673-1.5-1.5S18.173 18 19 18s1.5.673 1.5 1.5S19.827 21 19 21m4.959-2.104c-.065-.486-.59-.819-1.093-.638a.414.414 0 0 1-.5-.216 3.525 3.525 0 0 0-.371-.622.374.374 0 0 1 .055-.527.762.762 0 0 0 .294-.616.78.78 0 0 0-.325-.614 5.04 5.04 0 0 0-1.079-.6.847.847 0 0 0-.322-.063.8.8 0 0 0-.801.65c-.034.198-.228.332-.447.31a3.66 3.66 0 0 0-.74 0c-.218.022-.414-.112-.448-.31a.8.8 0 0 0-.801-.65.846.846 0 0 0-.321.063 4.992 4.992 0 0 0-1.079.6.78.78 0 0 0-.325.614.763.763 0 0 0 .294.616c.16.128.184.354.055.526-.145.195-.27.404-.371.623a.403.403 0 0 1-.505.214.857.857 0 0 0-.284-.049.807.807 0 0 0-.805.689 4.517 4.517 0 0 0 .001 1.208c.064.486.589.819 1.093.638a.414.414 0 0 1 .5.216c.102.219.226.428.371.622a.374.374 0 0 1-.055.527.76.76 0 0 0-.294.616.781.781 0 0 0 .325.614 5.04 5.04 0 0 0 1.079.6.847.847 0 0 0 .322.063.8.8 0 0 0 .801-.65c.034-.198.229-.33.447-.31.244.025.496.025.74 0 .219-.021.414.112.448.31a.8.8 0 0 0 .801.65c.11 0 .218-.021.321-.063a5.015 5.015 0 0 0 1.079-.6.781.781 0 0 0 .325-.614.762.762 0 0 0-.294-.616.374.374 0 0 1-.055-.526c.145-.195.27-.404.371-.623a.403.403 0 0 1 .505-.214c.091.033.187.05.284.05a.807.807 0 0 0 .805-.69 4.551 4.551 0 0 0-.001-1.208"/>
</svg>
