<svg width="16" height="16" fill="currentColor" viewBox="0 0 16 16" xmlns="http://www.w3.org/2000/svg">
  <path d="M13.696 10.132a.997.997 0 0 0-1.366.366 5.004 5.004 0 0 1-6.83 1.83 4.906 4.906 0 0 1-2.061-2.33H5a1 1 0 0 0 0-2H1a1 1 0 0 0-1 1v4a1 1 0 1 0 2 0v-1.424a6.92 6.92 0 0 0 2.5 2.486 7.004 7.004 0 0 0 9.562-2.562 1 1 0 0 0-.366-1.366M15 1.997a1 1 0 0 0-1 1v1.424a6.913 6.913 0 0 0-2.5-2.486C8.157.007 3.868 1.155 1.938 4.497a1 1 0 1 0 1.73 1 5.008 5.008 0 0 1 6.832-1.83 4.907 4.907 0 0 1 2.06 2.33H11a1 1 0 0 0 0 2h4a1 1 0 0 0 1-1v-4a1 1 0 0 0-1-1"/>
</svg>
