<svg width="24" height="24" fill="currentColor" viewBox="0 0 24 24" xmlns="http://www.w3.org/2000/svg">
  <path d="M12 23C5.925 23 1 18.075 1 12S5.925 1 12 1s11 4.925 11 11-4.925 11-11 11Zm0-2a9 9 0 1 0 0-18 9 9 0 0 0 0 18Zm2.667-5.153v1.32a.833.833 0 1 1-1.667 0v-3.334c0-.46.373-.833.833-.833h3.334a.833.833 0 0 1 0 1.667h-1.322l1.772 1.768a.837.837 0 0 1 .002 1.181.83.83 0 0 1-1.177.002l-1.775-1.771Zm-7-.693 1.775-1.772a.83.83 0 0 1 1.177.003.837.837 0 0 1-.002 1.18l-1.772 1.769h1.322a.833.833 0 0 1 0 1.667H6.833A.833.833 0 0 1 6 17.167v-3.334a.833.833 0 1 1 1.667 0v1.32Zm1.666-7v-1.32a.833.833 0 1 1 1.667 0v3.333c0 .46-.373.834-.833.834H6.833a.833.833 0 0 1 0-1.667h1.322L6.383 7.565a.837.837 0 0 1-.002-1.18.83.83 0 0 1 1.177-.003l1.775 1.772Zm7 .693-1.775 1.771a.83.83 0 0 1-1.177-.002.837.837 0 0 1 .002-1.18l1.772-1.77h-1.322a.833.833 0 0 1 0-1.666h3.334c.46 0 .833.373.833.833v3.334a.833.833 0 1 1-1.667 0v-1.32Z"/>
</svg>
