<svg width="24" height="24" fill="currentColor" viewBox="0 0 24 24" xmlns="http://www.w3.org/2000/svg">
  <path d="M11 19.268V18H2a1 1 0 0 1-1-1V3a1 1 0 0 1 1-1h20a1 1 0 0 1 1 1v14a1 1 0 0 1-1 1h-9v1.268c.304.175.557.428.732.732H19a1 1 0 0 1 0 2h-5.268a2 2 0 0 1-3.464 0H5a1 1 0 0 1 0-2h5.268a2.01 2.01 0 0 1 .732-.732ZM11 16h10V4H3v12h8Zm4.586-7-1.293-1.293a1 1 0 1 1 1.414-1.414l3 3a1 1 0 0 1 0 1.414l-3 3a1 1 0 0 1-1.414-1.414L15.586 11H8.414l1.293 1.293a1 1 0 1 1-1.414 1.414l-3-3a1 1 0 0 1 0-1.414l3-3a1 1 0 0 1 1.414 1.414L8.414 9h7.172Z"/>
</svg>
