<svg width="32" height="32" fill="currentColor" viewBox="0 0 32 32" xmlns="http://www.w3.org/2000/svg">
  <path d="M16 30C8.268 30 2 23.732 2 16S8.268 2 16 2s14 6.268 14 14-6.268 14-14 14Zm0-2c6.627 0 12-5.373 12-12S22.627 4 16 4 4 9.373 4 16s5.373 12 12 12Zm-3-16.416V10a1 1 0 0 1 2 0v4a1 1 0 0 1-1 1h-4a1 1 0 0 1 0-2h1.587L8.294 9.712a1.004 1.004 0 0 1-.003-1.417.997.997 0 0 1 1.413-.003L13 11.584Zm9-.168-3.296 3.292a.997.997 0 0 1-1.413-.003 1.004 1.004 0 0 1 .003-1.417L20.587 10h-1.586a1 1 0 0 1 0-2h4a1 1 0 0 1 1 1v4a1 1 0 1 1-2 0v-1.584Zm-3 9V22a1 1 0 0 1-2 0v-4a1 1 0 0 1 1-1h4a1 1 0 0 1 0 2h-1.586l3.293 3.288c.39.39.392 1.025.003 1.417a.997.997 0 0 1-1.413.003L19 20.416Zm-9 .168 3.297-3.292a.997.997 0 0 1 1.413.003 1.004 1.004 0 0 1-.003 1.417L11.414 22H13a1 1 0 0 1 0 2H9a1 1 0 0 1-1-1v-4a1 1 0 0 1 2 0v1.584Z"/>
</svg>
