<svg width="24" height="24" fill="currentColor" viewBox="-1 -1 24 24" xmlns="http://www.w3.org/2000/svg">
  <path d="M10.172.18a2 2 0 0 1 1.656 0l9 4.09A2 2 0 0 1 22 6.09v9.425a2 2 0 0 1-1.172 1.821l-9 4.09a2 2 0 0 1-1.656 0l-9-4.09A2 2 0 0 1 0 15.516V6.09a2 2 0 0 1 1.172-1.82l9-4.092ZM7.641 14.912c.645 0 1.22-.097 1.722-.291.502-.195.894-.473 1.177-.836.282-.363.423-.79.423-1.282 0-.447-.095-.82-.286-1.116-.19-.297-.49-.54-.896-.726-.408-.187-.952-.343-1.634-.468a6.931 6.931 0 0 1-.963-.258c-.223-.085-.384-.178-.484-.28a.533.533 0 0 1-.148-.386c0-.227.088-.4.264-.517.176-.117.429-.176.759-.176.286 0 .526.059.72.176.195.117.314.26.358.43a.42.42 0 0 0 .149.142c.055.03.126.044.214.044h1.452a.224.224 0 0 0 .231-.23c-.015-.324-.145-.652-.39-.985-.246-.334-.604-.61-1.073-.83-.47-.22-1.023-.33-1.661-.33-.616 0-1.155.098-1.617.296-.462.198-.818.473-1.067.825a2.02 2.02 0 0 0-.374 1.2c0 .66.218 1.167.654 1.523.437.355 1.095.625 1.975.808.477.103.836.194 1.078.275.242.08.42.172.534.275a.51.51 0 0 1 .17.396c0 .227-.11.407-.33.54-.22.131-.539.197-.957.197-.352 0-.634-.062-.847-.187a1.143 1.143 0 0 1-.462-.473.757.757 0 0 0-.17-.148.413.413 0 0 0-.215-.05H4.561a.233.233 0 0 0-.17.072.22.22 0 0 0-.072.16c.015.395.148.76.402 1.094.253.333.628.603 1.127.808.499.205 1.096.308 1.793.308Zm7.227 0c.616 0 1.17-.099 1.661-.297.491-.198.876-.48 1.155-.847s.418-.796.418-1.287c0-.675-.196-1.193-.588-1.556-.393-.363-.926-.589-1.601-.677l-.077-.022 1.672-1.55a.469.469 0 0 0 .176-.364v-.935a.259.259 0 0 0-.082-.198.287.287 0 0 0-.204-.077h-5.06a.273.273 0 0 0-.275.275v1.034c0 .073.027.138.082.193.056.055.12.082.193.082h3.058l-1.804 1.53a.44.44 0 0 0-.176.373v.616c0 .073.027.138.082.193.056.055.12.082.193.082h1.221c.763 0 1.144.293 1.144.88 0 .3-.104.537-.314.71-.209.172-.5.258-.874.258-.653 0-1.052-.19-1.199-.572a.408.408 0 0 0-.143-.165.396.396 0 0 0-.198-.044h-1.441a.243.243 0 0 0-.17.066.215.215 0 0 0-.072.165c.015.33.137.658.369.985.23.326.586.6 1.067.82.48.22 1.076.33 1.787.33Z"/>
</svg>
