<svg width="32" height="32" fill="currentColor" viewBox="0 0 32 32" xmlns="http://www.w3.org/2000/svg">
  <path d="m26 9.175-10.102 6.859 10.092 6.798s-1.474 1.504-2.72.662c-.966-.652-7.053-4.282-9.772-5.896l-3.846 2.607c.406.899.497 1.91.26 2.868A5.295 5.295 0 0 1 7.76 26.24c-2.003 1.354-4.364.852-5.36-1.153a4.398 4.398 0 0 1-.269-2.898 5.305 5.305 0 0 1 2.152-3.168 4.418 4.418 0 0 1 1.514-.662h.13c3.167-.562 4.791-1.614 5.578-2.366-.787-.742-2.41-1.805-5.579-2.367h-.129a4.438 4.438 0 0 1-1.504-.661A5.305 5.305 0 0 1 2.14 9.797a4.398 4.398 0 0 1 .269-2.888c.956-1.995 3.387-2.506 5.38-1.153A5.285 5.285 0 0 1 9.92 8.915c.24.96.15 1.975-.259 2.877l3.846 2.607c2.72-1.614 8.776-5.244 9.772-5.895 1.246-.843 2.72.671 2.72.671ZM7.79 10.71c.17-.377.208-.8.109-1.203a3.007 3.007 0 0 0-1.305-1.805c-1.076-.681-2.351-.581-2.79.321a1.842 1.842 0 0 0-.05 1.193c.18.739.624 1.385 1.246 1.815 1.076.682 2.351.582 2.79-.32Zm.09 11.832.019.01c.1-.39.068-.803-.09-1.173-.438-.902-1.713-1.053-2.789-.32a3.108 3.108 0 0 0-1.265 1.814c-.104.397-.073.817.09 1.193.438.903 1.713 1.053 2.789.321a3.009 3.009 0 0 0 1.245-1.845ZM20 15h2v2h-2v-2Zm4 0h2v2h-2v-2Zm4 0h2v2h-2v-2Z"/>
</svg>
