<svg width="24" height="24" fill="currentColor" viewBox="-1 -2 24 24" xmlns="http://www.w3.org/2000/svg">
  <path d="M2 18h18V2H2v16ZM0 .992A1 1 0 0 1 .992 0h20.016A1 1 0 0 1 22 .992v18.016a1 1 0 0 1-.992.992H.992A1 1 0 0 1 0 19.008V.992ZM18 11a1 1 0 1 1 0-2 1 1 0 0 1 0 2Zm0 6a1 1 0 1 1 0-2 1 1 0 0 1 0 2Zm-3-6a1 1 0 1 1 0-2 1 1 0 0 1 0 2Zm0 6a1 1 0 1 1 0-2 1 1 0 0 1 0 2Zm-3-6a1 1 0 1 1 0-2 1 1 0 0 1 0 2Zm-8 0a1 1 0 1 1 0-2 1 1 0 0 1 0 2Zm0 6a1 1 0 1 1 0-2 1 1 0 0 1 0 2ZM4 5a1 1 0 1 1 0-2 1 1 0 0 1 0 2Zm11 0a1 1 0 1 1 0-2 1 1 0 0 1 0 2Zm3 0a1 1 0 1 1 0-2 1 1 0 0 1 0 2ZM2 6h18v2H2V6Zm0 6h18v2H2v-2Z"/>
</svg>
