<svg width="24" height="24" fill="currentColor" viewBox="0 0 24 24" xmlns="http://www.w3.org/2000/svg">
  <path d="M23 14.803A5.972 5.972 0 0 0 20 14a5.985 5.985 0 0 0-4.472 2H3v4h11c0 .701.12 1.374.341 2H1.991A1 1 0 0 1 1 21.008V2.992A1 1 0 0 1 1.992 2h20.016a1 1 0 0 1 .992.992v11.81ZM3 8h18V4H3v4Zm0 6h18v-4H3v4Zm16-1a1 1 0 1 1 0-2 1 1 0 0 1 0 2Zm-3 0a1 1 0 1 1 0-2 1 1 0 0 1 0 2Zm-3 0a1 1 0 1 1 0-2 1 1 0 0 1 0 2Zm-8 0a1 1 0 1 1 0-2 1 1 0 0 1 0 2Zm0 6a1 1 0 1 1 0-2 1 1 0 0 1 0 2ZM5 7a1 1 0 1 1 0-2 1 1 0 0 1 0 2Zm11 0a1 1 0 1 1 0-2 1 1 0 0 1 0 2Zm3 0a1 1 0 1 1 0-2 1 1 0 0 1 0 2Z"/>
</svg>
