<svg width="32" height="32" fill="currentColor" viewBox="-2 -3 32 32" xmlns="http://www.w3.org/2000/svg">
  <path d="M26 16v-6H2v6h24Zm0 2H2v6h24v-6Zm0-10V2H2v6h24ZM1 0h26a1 1 0 0 1 1 1v24a1 1 0 0 1-1 1H1a1 1 0 0 1-1-1V1a1 1 0 0 1 1-1Zm22 6a1 1 0 1 1 0-2 1 1 0 0 1 0 2Zm0 8a1 1 0 1 1 0-2 1 1 0 0 1 0 2Zm0 8a1 1 0 1 1 0-2 1 1 0 0 1 0 2Zm-3 0a1 1 0 1 1 0-2 1 1 0 0 1 0 2ZM5 22a1 1 0 1 1 0-2 1 1 0 0 1 0 2Zm15-8a1 1 0 1 1 0-2 1 1 0 0 1 0 2Zm-3 0a1 1 0 1 1 0-2 1 1 0 0 1 0 2ZM5 14a1 1 0 1 1 0-2 1 1 0 0 1 0 2Zm15-8a1 1 0 1 1 0-2 1 1 0 0 1 0 2ZM5 6a1 1 0 1 1 0-2 1 1 0 0 1 0 2Z"/>
</svg>
