<svg width="16" height="16" fill="currentColor" viewBox="0 0 16 16" xmlns="http://www.w3.org/2000/svg">
  <path d="M14 0c1.053 0 1.918.817 1.995 1.85L16 2v8a2.002 2.002 0 0 1-1.85 1.995L14 12h-2v2a2.002 2.002 0 0 1-1.85 1.995L10 16H2a2.002 2.002 0 0 1-1.995-1.85L0 14V6c0-1.053.817-1.918 1.85-1.995L2 4h2V2C4 .947 4.817.082 5.85.005L6 0h8Zm-4 12H2v2h8v-2Zm4-4h-2v2h2V8Zm-4-2H1.999L2 10h8V6ZM4.5 7a1 1 0 1 1 0 2 1 1 0 0 1 0-2Zm3 0a1 1 0 1 1 0 2 1 1 0 0 1 0-2ZM14 2H6v2h4c1.053 0 1.918.817 1.995 1.85L12 6h2V2Z"/>
</svg>
