<svg width="16" height="16" fill="currentColor" viewBox="0 0 16 16" xmlns="http://www.w3.org/2000/svg">
  <path d="M8 0c.823 0 1.519.61 1.628 1.425l.126.946c.063.47.61.696.985.409l.759-.58A1.642 1.642 0 0 1 13.8 4.5l-.58.76a.616.616 0 0 0 .408.985l.947.126a1.642 1.642 0 0 1 0 3.256l-.947.126a.616.616 0 0 0-.408.985l.58.759a1.642 1.642 0 0 1-2.302 2.302l-.758-.58a.616.616 0 0 0-.986.408l-.126.947a1.642 1.642 0 0 1-3.256 0l-.126-.947a.616.616 0 0 0-.986-.408l-.758.58A1.642 1.642 0 0 1 2.2 11.5l.58-.76a.616.616 0 0 0-.408-.985l-.947-.126a1.642 1.642 0 0 1 0-3.256l.947-.126a.616.616 0 0 0 .408-.985L2.2 4.5a1.642 1.642 0 0 1 2.302-2.3l.759.58a.616.616 0 0 0 .985-.408l.126-.946A1.642 1.642 0 0 1 8 0Zm-.637 1.557-.126.946a1.616 1.616 0 0 1-2.584 1.07l-.758-.58a.642.642 0 0 0-.9.9l.58.76c.754.987.16 2.42-1.07 2.584l-.948.127a.642.642 0 0 0 0 1.272l.947.127a1.616 1.616 0 0 1 1.07 2.584l-.58.759a.642.642 0 0 0 .9.9l.759-.58a1.616 1.616 0 0 1 2.584 1.07l.126.947a.642.642 0 0 0 1.274 0l.126-.947a1.616 1.616 0 0 1 2.584-1.07l.758.58a.642.642 0 0 0 .9-.901l-.58-.758a1.616 1.616 0 0 1 1.071-2.584l.947-.127a.642.642 0 0 0 0-1.272l-.947-.127a1.616 1.616 0 0 1-1.07-2.584l.58-.759a.642.642 0 0 0-.9-.9l-.76.58c-.986.754-2.42.16-2.583-1.07l-.126-.947a.642.642 0 0 0-1.274 0ZM8 5.5a2.5 2.5 0 1 1 0 5 2.5 2.5 0 0 1 0-5ZM6.5 8a1.5 1.5 0 1 0 3 0 1.5 1.5 0 0 0-3 0Z"/>
</svg>
