<svg width="32" height="32" fill="currentColor" viewBox="-4 -4 32 32" xmlns="http://www.w3.org/2000/svg">
  <path d="M12 22c-.327 0-.65-.016-.968-.046l-.34.82a2.042 2.042 0 0 1-2.6 1.075l-1.683-.697a1.99 1.99 0 0 1-1.076-2.599l.337-.811a10.06 10.06 0 0 1-1.399-1.396l-.81.336a1.993 1.993 0 0 1-2.61-1.075l-.697-1.683a1.99 1.99 0 0 1 1.076-2.598l.818-.34a10.12 10.12 0 0 1-.001-1.96l-.817-.339A1.992 1.992 0 0 1 .154 8.08l.698-1.682A1.992 1.992 0 0 1 3.46 5.32l.808.335a10.06 10.06 0 0 1 1.39-1.389l-.335-.807A1.99 1.99 0 0 1 6.399.85L8.082.154a1.992 1.992 0 0 1 2.6 1.076l.34.817a10.121 10.121 0 0 1 1.96 0l.34-.817A1.992 1.992 0 0 1 15.93.154l1.683.697a1.99 1.99 0 0 1 1.075 2.599l-.339.825c.505.415.969.88 1.384 1.385l.818-.339a1.992 1.992 0 0 1 2.6 1.076l.697 1.682a1.99 1.99 0 0 1-1.076 2.598l-.82.34a10.12 10.12 0 0 1 0 1.959l.82.34a1.99 1.99 0 0 1 1.076 2.598l-.698 1.683a2.042 2.042 0 0 1-2.6 1.075l-.813-.337c-.415.506-.88.971-1.385 1.388l.336.81a1.99 1.99 0 0 1-1.075 2.619l-1.683.697a1.992 1.992 0 0 1-2.6-1.076l-.34-.821A10.12 10.12 0 0 1 12 22Zm4.845-.694-.907-2.185 1.144-.942a8.06 8.06 0 0 0 1.11-1.112l.94-1.149 1.372.569.767.318c.014.006.256-.543.726-1.646l-2.177-.902.142-1.474a8.121 8.121 0 0 0 0-1.571l-.144-1.475 1.369-.567.81-.336-.689-1.661-2.179.903-.941-1.147a8.06 8.06 0 0 0-1.109-1.11l-1.14-.939.561-1.366.338-.82-1.672-.692-.904 2.18-1.474-.144a8.12 8.12 0 0 0-1.574 0l-1.473.143-.567-1.367-.335-.808-1.667.69.902 2.176-1.146.941a8.06 8.06 0 0 0-1.113 1.113l-.942 1.146-1.37-.568-.807-.335-.693 1.674 2.177.902-.142 1.473a8.122 8.122 0 0 0 0 1.574l.145 1.475-1.37.567-.807.335.69 1.665 2.179-.903.941 1.145a8.06 8.06 0 0 0 1.12 1.118l1.15.942-.569 1.372-.332.8 1.626.674c.014.006.327-.715.94-2.16l1.472.14a8.122 8.122 0 0 0 1.572 0l1.475-.146.568 1.37.336.811 1.67-.691ZM12 17a5 5 0 1 1 0-10 5 5 0 0 1 0 10Zm0-2a3 3 0 1 0 0-6 3 3 0 0 0 0 6Z"/>
</svg>
