<svg width="32" height="32" fill="currentColor" viewBox="0 0 32 32" xmlns="http://www.w3.org/2000/svg">
  <path d="m3.645 19.41 6.8-6.799a5.618 5.618 0 0 1 7.944 0 1.022 1.022 0 0 1-1.444 1.445 3.575 3.575 0 0 0-4.903-.144l-.153.144-6.8 6.799a3.575 3.575 0 0 0 4.904 5.2l.153-.144 3.617-3.618a1.022 1.022 0 0 1 1.53 1.348l-.085.096-3.618 3.618a5.618 5.618 0 0 1-8.122-7.759l.177-.186 6.8-6.799-6.8 6.8ZM15.792 7.263l3.618-3.618a5.618 5.618 0 0 1 8.122 7.759l-.177.186-6.8 6.8a5.618 5.618 0 0 1-7.944 0 1.022 1.022 0 0 1 1.444-1.445 3.575 3.575 0 0 0 4.903.144l.153-.144 6.8-6.8a3.575 3.575 0 0 0-4.904-5.2l-.152.145-3.618 3.618a1.021 1.021 0 0 1-1.53-1.348l.085-.097 3.618-3.618-3.618 3.618Z"/>
</svg>
