<svg width="32" height="32" fill="currentColor" viewBox="0 0 32 32" xmlns="http://www.w3.org/2000/svg">
  <path d="M22.935 9.936a7.021 7.021 0 0 1 4.12 4.103 2.5 2.5 0 1 1 0 4.921 7.021 7.021 0 0 1-4.12 4.104 2.501 2.501 0 0 1-3.933 1.438l.002-4.006a2.5 2.5 0 0 1 3.941 1.484 6.02 6.02 0 0 0 3.18-3.39A2.498 2.498 0 0 1 25 16.5a2.5 2.5 0 0 1 1.127-2.09 6.02 6.02 0 0 0-3.18-3.39A2.5 2.5 0 0 1 19 12.5l.006-4.006a2.501 2.501 0 0 1 3.929 1.441ZM3 7l15-3v23L3 25V7Zm8.167 13.195c1.484-1.11 1.347-3.602-.248-4.572-.817-.684-2.508-1.18-1.974-2.492.766-.891 1.956-.335 2.889-.058l-.049-1.92c-1.119-.147-2.359-.338-3.374.266-1.738 1.086-1.671 3.866.119 4.881.834.561 2.276 1.297 1.543 2.454-.949.754-2.127-.058-2.922-.611.023.682.041 1.359.057 2.036 1.239.479 2.782.819 3.959.016Z"/>
</svg>
