<svg width="32" height="32" fill="currentColor" viewBox="0 0 32 32" xmlns="http://www.w3.org/2000/svg">
  <path d="M24.224 7.094 24.78 4.3A2.012 2.012 0 0 1 26.695 3l3.315.037c.556.009.999.464.99 1.018-.009.553-.45.954-1.006.945l-3.331.004-3.598 16.279A2.008 2.008 0 0 1 21.074 23H7.696a2.01 2.01 0 0 1-1.968-1.583l-2.671-9.13-.024-.101a2 2 0 0 1 1.62-2.326l.046-.007.015-.003 19.51-2.756ZM5.018 11.827 7.672 20.9l.024.1h13.378l.015-.08 2.687-11.721.003-.022-18.761 2.65ZM22 30a3 3 0 1 1 0-6 3 3 0 0 1 0 6Zm0-2a1 1 0 1 0 0-2 1 1 0 0 0 0 2ZM7 30a3 3 0 1 1 0-6 3 3 0 0 1 0 6Zm0-2a1 1 0 1 0 0-2 1 1 0 0 0 0 2Z"/>
</svg>
