<svg width="24" height="24" fill="currentColor" viewBox="0 0 24 24" xmlns="http://www.w3.org/2000/svg">
  <path d="M5.5 18a2.5 2.5 0 1 1 0 5 2.5 2.5 0 0 1 0-5Zm11 0a2.5 2.5 0 1 1 0 5 2.5 2.5 0 0 1 0-5Zm-11 2a.5.5 0 1 0 0 1 .5.5 0 0 0 0-1Zm11 0a.5.5 0 1 0 0 1 .5.5 0 0 0 0-1ZM22 2a1 1 0 0 1 .117 1.993L22 4h-2.26l-.766 3.227-2.095 9a1 1 0 0 1-.859.766l-.115.007H5.068a1 1 0 0 1-.918-.603l-.04-.112-2.068-6.96a1 1 0 0 1 .712-1.254l.112-.021 14.3-1.946.817-3.341a1 1 0 0 1 .857-.757L18.954 2H22Zm-5.303 6.186L4.29 9.874 5.814 15h9.296l1.587-6.814Z"/>
</svg>
