<svg width="24" height="24" fill="currentColor" viewBox="-1 -1 24 24" xmlns="http://www.w3.org/2000/svg">
  <path d="M17.69 22c-1.149-1.6-3.712-2.714-6.69-2.714S5.459 20.4 4.31 22A5.013 5.013 0 0 1 0 17.03V4.97A5.013 5.013 0 0 1 4.31 0C5.46 1.6 8.022 2.714 11 2.714S16.541 1.6 17.69 0A5.013 5.013 0 0 1 22 4.97v12.06A5.013 5.013 0 0 1 17.69 22ZM6.516 12.444c0-.26-.046-.484-.137-.675a1.44 1.44 0 0 0-.43-.513c-.195-.152-.502-.315-.922-.49-.372-.154-.63-.278-.773-.372a.96.96 0 0 1-.309-.3.739.739 0 0 1-.093-.382c0-.217.078-.392.234-.524.156-.132.385-.198.687-.198.399 0 .852.108 1.36.322l.297-.764a3.994 3.994 0 0 0-1.633-.361c-.57 0-1.025.137-1.363.411-.339.275-.508.651-.508 1.13 0 .38.107.707.32.98.214.271.58.513 1.102.724.505.204.838.38 1 .53.161.148.242.33.242.544a.691.691 0 0 1-.264.569c-.176.14-.448.211-.818.211-.253 0-.526-.035-.819-.105a4.3 4.3 0 0 1-.83-.29v.885c.412.202.94.302 1.586.302.646 0 1.153-.145 1.52-.435.367-.29.55-.69.55-1.2ZM10.09 14h.824l1.715-4.778h.031a38.02 38.02 0 0 0-.058 1.944V14h.898V8.27h-1.32l-1.633 4.558h-.024L8.938 8.269H7.62V14h.848v-2.786c0-.622-.022-1.288-.067-2h.032L10.09 14Zm4.914-5.73V14h2.062c.638 0 1.136-.146 1.495-.437.358-.292.537-.695.537-1.21 0-.381-.095-.683-.284-.907-.188-.223-.483-.373-.884-.449v-.039c.323-.057.57-.197.742-.42.172-.221.258-.5.258-.834 0-.497-.175-.86-.526-1.09-.35-.23-.918-.345-1.705-.345h-1.695Zm.934 2.367V9.053h.808c.422 0 .73.06.924.18.194.12.29.315.29.584 0 .298-.089.51-.269.633-.18.125-.464.187-.855.187h-.898Zm0 .76h.945c.414 0 .722.072.926.216.203.143.304.364.304.662 0 .324-.1.561-.299.711-.199.15-.494.226-.884.226h-.992v-1.815Z"/>
</svg>
