<svg width="16" height="16" fill="currentColor" viewBox="0 0 16 16" xmlns="http://www.w3.org/2000/svg">
  <path d="M8 0a1 1 0 0 1 1 1v3a1 1 0 1 1-2 0V1a1 1 0 0 1 1-1Zm0 11a1 1 0 0 1 1 1v3a1 1 0 0 1-2 0v-3a1 1 0 0 1 1-1ZM2.3 2.3c.401-.4 1.05-.4 1.451 0L5.7 4.25A1.026 1.026 0 0 1 4.249 5.7L2.3 3.752c-.4-.4-.4-1.05 0-1.45Zm11.4 0c.4.401.4 1.05 0 1.451L11.75 5.7a1.026 1.026 0 1 1-1.45-1.451L12.248 2.3c.4-.4 1.05-.4 1.45 0Zm0 11.4c-.401.4-1.05.4-1.451 0L10.3 11.75a1.026 1.026 0 0 1 1.451-1.45l1.949 1.948c.4.4.4 1.05 0 1.45Zm-11.4 0c-.4-.401-.4-1.05 0-1.451L4.25 10.3a1.026 1.026 0 0 1 1.45 1.451L3.752 13.7c-.4.4-1.05.4-1.45 0ZM5 8a1 1 0 0 1-1 1H1a1 1 0 1 1 0-2h3a1 1 0 0 1 1 1Zm11 0a1 1 0 0 1-1 1h-3a1 1 0 0 1 0-2h3a1 1 0 0 1 1 1Z"/>
</svg>
