<svg width="16" height="16" fill="currentColor" viewBox="-1 -1 16 16" xmlns="http://www.w3.org/2000/svg">
  <path d="M6 10H3.571C1.614 10 0 8.494 0 6.6c0-1.303.772-2.45 1.93-3.021C2.586 1.479 4.638 0 7 0c2.363 0 4.415 1.48 5.07 3.579C13.227 4.149 14 5.297 14 6.6c0 1.894-1.614 3.4-3.571 3.4H8v1.268c.304.175.557.428.732.732H11a1 1 0 0 1 0 2H8.732a2 2 0 0 1-3.464 0H3a1 1 0 0 1 0-2h2.268A2.01 2.01 0 0 1 6 11.268V10Zm1-8C5.379 2 4.022 3.077 3.76 4.498a1 1 0 0 1-.693.776C2.426 5.468 2 6.006 2 6.6 2 7.357 2.689 8 3.571 8h6.858C11.31 8 12 7.357 12 6.6c0-.594-.426-1.132-1.067-1.326a1 1 0 0 1-.693-.776C9.978 3.078 8.621 2 7 2Z"/>
</svg>
