<svg width="24" height="24" fill="currentColor" viewBox="-1 -1 24 24" xmlns="http://www.w3.org/2000/svg">
  <path d="M13.957 2.493a8.973 8.973 0 0 1 4.084 2.883 1 1 0 1 1-1.563 1.248 6.974 6.974 0 0 0-2.876-2.13 3 3 0 1 1 .355-2.001ZM2.497 8.042A9.015 9.015 0 0 1 5.37 3.979a1 1 0 0 1 1.252 1.56A7.021 7.021 0 0 0 4.5 8.4a3 3 0 1 1-2.001-.359Zm5.544 11.456a9.058 9.058 0 0 1-4.056-2.871 1 1 0 1 1 1.559-1.254 7.067 7.067 0 0 0 2.859 2.125 3 3 0 1 1-.362 2Zm9.454-5.902a3 3 0 1 1 2.002.363 9.13 9.13 0 0 1-2.864 4.038 1 1 0 0 1-1.259-1.554 7.148 7.148 0 0 0 2.121-2.847ZM11 20a1 1 0 1 0 0-2 1 1 0 0 0 0 2Zm0-16a1 1 0 1 0 0-2 1 1 0 0 0 0 2Zm-8 8a1 1 0 1 0 0-2 1 1 0 0 0 0 2Zm16 0a1 1 0 1 0 0-2 1 1 0 0 0 0 2Z"/>
</svg>
