<svg width="32" height="32" fill="currentColor" viewBox="0 0 32 32" xmlns="http://www.w3.org/2000/svg">
  <path d="M7.627 21.452a10.037 10.037 0 0 0 4.74 3.873 4 4 0 1 1-.354 2.003 12.036 12.036 0 0 1-6.063-4.786 1 1 0 0 1 1.677-1.09ZM16 25a2 2 0 1 0 0 4 2 2 0 0 0 0-4Zm11-13a4 4 0 0 1 .345 7.985 12.032 12.032 0 0 1-4.784 6.09 1 1 0 1 1-1.092-1.677 10.038 10.038 0 0 0 3.872-4.758A4 4 0 0 1 27 12ZM10.525 6.424a1 1 0 0 1-.244 1.393 10.036 10.036 0 0 0-3.582 4.56A4.002 4.002 0 0 1 5 20a4 4 0 0 1-.297-7.99 12.022 12.022 0 0 1 4.429-5.83 1 1 0 0 1 1.393.244ZM27 14a2 2 0 1 0 0 4 2 2 0 0 0 0-4ZM5 14a2 2 0 1 0 0 4 2 2 0 0 0 0-4ZM16 1a4 4 0 0 1 3.987 3.679 12.03 12.03 0 0 1 6.105 4.804 1 1 0 0 1-1.678 1.089 10.036 10.036 0 0 0-4.782-3.892A4.002 4.002 0 0 1 12 5a4 4 0 0 1 4-4Zm0 2a2 2 0 1 0 0 4 2 2 0 0 0 0-4Z"/>
</svg>
