<svg width="24" height="24" fill="currentColor" viewBox="0 0 24 24" xmlns="http://www.w3.org/2000/svg">
  <path d="M13 16v2.268c.304.175.557.428.732.732H19a1 1 0 0 1 0 2h-5.268a2 2 0 0 1-3.464 0H5a1 1 0 0 1 0-2h5.268a2.01 2.01 0 0 1 .732-.732V16H2a1 1 0 0 1-1-1V3a1 1 0 0 1 1-1h20a1 1 0 0 1 1 1v12a1 1 0 0 1-1 1h-9ZM3 4v4h18V4H3Zm0 6v4h18v-4H3Zm2-3a1 1 0 1 1 0-2 1 1 0 0 1 0 2Zm0 6a1 1 0 1 1 0-2 1 1 0 0 1 0 2Zm14-6a1 1 0 1 1 0-2 1 1 0 0 1 0 2Zm0 6a1 1 0 1 1 0-2 1 1 0 0 1 0 2Zm-3-6a1 1 0 1 1 0-2 1 1 0 0 1 0 2Zm0 6a1 1 0 1 1 0-2 1 1 0 0 1 0 2Z"/>
</svg>
