<svg width="24" height="24" fill="currentColor" viewBox="0 0 24 24" xmlns="http://www.w3.org/2000/svg">
  <path d="M16 6.007c3.876.101 7 1.389 7 3.493v10c0 2.194-3.396 3.5-7.5 3.5S8 21.694 8 19.5v-1.507c-3.876-.101-7-1.389-7-3.493v-10C1 2.306 4.396 1 8.5 1S16 2.306 16 4.5v1.507Zm5 5.968C19.624 12.638 17.66 13 15.5 13s-4.124-.362-5.5-1.025V14.5c0 .568 2.424 1.5 5.5 1.5s5.5-.932 5.5-1.5v-2.525Zm0 7.525v-2.525C19.624 17.638 17.66 18 15.5 18s-4.124-.362-5.5-1.025V19.5c0 .568 2.424 1.5 5.5 1.5s5.5-.932 5.5-1.5ZM8 15.992v-2.999c-1.962-.051-3.731-.406-5-1.018V14.5c0 .536 2.166 1.399 5 1.492Zm0-5V9.5c0-.56.222-1.063.62-1.5H8.5C6.34 8 4.376 7.638 3 6.975V9.5c0 .536 2.166 1.399 5 1.492ZM8.5 6c3.076 0 5.5-.932 5.5-1.5S11.576 3 8.5 3 3 3.932 3 4.5 5.424 6 8.5 6Zm7 5c3.076 0 5.5-.932 5.5-1.5S18.576 8 15.5 8 10 8.932 10 9.5s2.424 1.5 5.5 1.5Z"/>
</svg>
