<svg width="16" height="16" fill="currentColor" viewBox="0 0 16 16" xmlns="http://www.w3.org/2000/svg">
  <path d="m13.523 8-1.2-3H9v3h4.523ZM14 10H9v3h5v-3Zm.5 5H1a1 1 0 0 1 0-2h6V2H1a1 1 0 1 1 0-2h6.5A1.5 1.5 0 0 1 9 1.5V3h3.661a1.5 1.5 0 0 1 1.393.943l1.839 4.596a1.5 1.5 0 0 1 .107.557V13.5a1.5 1.5 0 0 1-1.5 1.5ZM1 6h3a1 1 0 1 1 0 2H1a1 1 0 1 1 0-2Zm0-3h3a1 1 0 1 1 0 2H1a1 1 0 1 1 0-2Zm0 6h3a1 1 0 1 1 0 2H1a1 1 0 0 1 0-2Zm11 7a2 2 0 1 1 0-4 2 2 0 0 1 0 4Zm-9 0a2 2 0 1 1 0-4 2 2 0 0 1 0 4Z"/>
</svg>
