<svg width="24" height="24" fill="currentColor" viewBox="0 -2 24 24" xmlns="http://www.w3.org/2000/svg">
  <path d="M17 18a1 1 0 1 0 0-2 1 1 0 0 0 0 2Zm-2.83 0H8c-.057 0-.112-.005-.166-.014A3.001 3.001 0 0 1 2.171 18h-.172A.997.997 0 0 1 1 17c0-.552.443-1 .999-1h.172a3.001 3.001 0 0 1 5.663.014A.915.915 0 0 1 8 16h3V2H2a1 1 0 1 1 0-2h10a1 1 0 0 1 1 1v3h7a1 1 0 0 1 .949.684l2 6A1 1 0 0 1 23 11v5.01A2 2 0 0 1 21 18h-1c-.057 0-.112-.005-.166-.014a3.001 3.001 0 0 1-5.663.014Zm0-2a3.001 3.001 0 0 1 5.664.014A.915.915 0 0 1 20 16h1v-4h-8v4h1.17ZM13 10h7.613l-1.334-4H13v4Zm-8 8a1 1 0 1 0 0-2 1 1 0 0 0 0 2ZM0 5c0-.552.453-1 .997-1h6.006C7.553 4 8 4.444 8 5c0 .552-.453 1-.997 1H.997A.996.996 0 0 1 0 5Zm0 3c0-.552.453-1 .997-1h6.006C7.553 7 8 7.444 8 8c0 .552-.453 1-.997 1H.997A.996.996 0 0 1 0 8Zm0 3c0-.552.453-1 .997-1h6.006c.55 0 .997.444.997 1 0 .552-.453 1-.997 1H.997A.996.996 0 0 1 0 11Z"/>
</svg>
