<svg width="16" height="16" fill="currentColor" viewBox="0 0 16 16" xmlns="http://www.w3.org/2000/svg">
  <path d="M8.8 10.974c-.282-1.098-1.565-2-2.795-2-1.245-.001-2.415.886-2.854 2L2.001 11s-.95-.034-.967 1c.004.968.963.976.963.976h1.166c.283 1.098 1.58 2.01 2.837 2.006a2.966 2.966 0 0 0 2.825-1.994l5.131-.012s1.01.066 1.03-.968c.019-1.034-1.006-1.034-1.006-1.034zm-2.752 2.004c-.44-.002-1.008-.269-1.033-.949-.026-.701.513-1.047.997-1.057.447-.01.942.49.961.937.02.471-.222 1.073-.925 1.07zm1.137-9.986c.282-1.098 1.565-2 2.795-2 1.246-.001 2.416.886 2.854 2l1.15.026s.951-.034.968 1c-.004.968-.963.976-.963.976h-1.167C12.54 6.092 11.243 7.004 9.985 7a2.966 2.966 0 0 1-2.824-1.994l-5.132-.012S1.02 5.06 1 4.026C.98 2.992 2.005 2.992 2.005 2.992zm2.752 2.004c.44-.002 1.009-.269 1.033-.949.026-.701-.512-1.047-.997-1.057-.447-.01-.942.49-.96.937-.02.471.222 1.073.924 1.07z" style="fill:#222;fill-rule:evenodd;stroke-width:.63636363"/>
</svg>
