<svg width="32" height="32" fill="currentColor" viewBox="0 0 32 32" xmlns="http://www.w3.org/2000/svg">
  <path d="M17.053 21.09h12.888v2.546H17.053a5.093 5.093 0 0 1-9.861 0H1.941v-2.545h5.251a5.093 5.093 0 0 1 9.861 0zM14.828 8.365a5.093 5.093 0 0 1 9.861 0h5.252v2.545h-5.252a5.093 5.093 0 0 1-9.86 0H1.94V8.364Zm4.93 3.818a2.545 2.545 0 1 0 0-5.091 2.545 2.545 0 0 0 0 5.09zM12.122 24.91a2.545 2.545 0 1 0 0-5.09 2.545 2.545 0 0 0 0 5.09z" style="fill:#222;fill-rule:evenodd;stroke-width:1.27272725"/>
</svg>
