<svg width="32" height="32" fill="currentColor" viewBox="0 0 32 32" xmlns="http://www.w3.org/2000/svg">
  <path d="M4 5h4v4H4V5Zm0 9h4v4H4v-4Zm0 9h4v4H4v-4Zm6-17h18v2H10V6Zm0 9h3v2h-3v-2Zm0 9h4v2h-4v-2Zm7.12-5H15v-6h2v2.11a7.145 7.145 0 0 1 7.216-1.703A7.019 7.019 0 0 1 29 19h-2.019a5.023 5.023 0 0 0-3.828-3.847A5.072 5.072 0 0 0 18.028 17H21v2h-3.88ZM29 21v6h-2v-2.11a7.145 7.145 0 0 1-7.216 1.703A7.019 7.019 0 0 1 15 21h2.019a5.023 5.023 0 0 0 3.828 3.847A5.072 5.072 0 0 0 25.972 23H23v-2h6Z"/>
</svg>
