<svg width="32" height="32" fill="currentColor" viewBox="-3 -1 32 32" xmlns="http://www.w3.org/2000/svg">
  <path d="M2 15c0 3.586 1.727 6.882 4.585 8.937a1 1 0 1 1-1.167 1.624A12.982 12.982 0 0 1 0 15C0 7.957 5.601 2.222 12.592 2.006l-.3-.299A1 1 0 1 1 13.708.293l2 2a1 1 0 0 1 0 1.414l-2 2a1 1 0 0 1-1.414-1.414l.285-.285C6.698 4.23 2 9.066 2 15Zm11.422 10.992C19.302 25.77 24 20.934 24 15a10.99 10.99 0 0 0-4.584-8.932 1 1 0 0 1 1.168-1.623A12.987 12.987 0 0 1 26 15c0 7.043-5.601 12.778-12.592 12.994l.3.299a1 1 0 0 1-1.415 1.414l-2-2a1 1 0 0 1 0-1.414l2-2a1 1 0 0 1 1.414 1.414l-.285.285ZM14 14h2a1 1 0 0 1 0 2h-2v2a1 1 0 0 1-2 0v-2h-2a1 1 0 0 1 0-2h2v-2a1 1 0 0 1 2 0v2Z"/>
</svg>
