<svg width="24" height="24" fill="currentColor" viewBox="-3 -1 24 24" xmlns="http://www.w3.org/2000/svg">
  <path d="M9.427 17.987A7 7 0 0 0 16 11c0-1.715-.63-3.34-1.751-4.616a1 1 0 0 1 1.502-1.32A8.978 8.978 0 0 1 18 11a9 9 0 0 1-8.595 8.991l.302.302a1 1 0 1 1-1.414 1.414l-2-2a1 1 0 0 1 0-1.414l2-2a1 1 0 1 1 1.414 1.414l-.28.28ZM8.573 4.013A7 7 0 0 0 2 11c0 1.746.626 3.38 1.748 4.644a1 1 0 0 1-1.496 1.328A8.957 8.957 0 0 1 0 11a9 9 0 0 1 8.595-8.991l-.302-.302A1 1 0 0 1 9.707.293l2 2a1 1 0 0 1 0 1.414l-2 2a1 1 0 0 1-1.414-1.414l.28-.28ZM10 10h1a1 1 0 0 1 0 2h-1v1a1 1 0 0 1-2 0v-1H7a1 1 0 0 1 0-2h1V9a1 1 0 1 1 2 0v1Z"/>
</svg>
