<svg width="32" height="32" fill="currentColor" viewBox="-1 -1 32 32" xmlns="http://www.w3.org/2000/svg">
  <path d="m2.825 28.807-.701-6.646c-.888-.546-1.495-1.34-1.62-2.28l-.48-4.592C-.232 13.383 1.626 12 3.913 12h2.23c.555 0 1.005.448 1.005 1s-.45 1-1.005 1h-2.23c-1.22 0-1.96.551-1.894 1.054l.48 4.59c.044.322.393.707.988.978a1 1 0 0 1 .58.805l.69 6.539c.224.021.494.034.774.034s.55-.012.773-.033l.69-6.54a1.003 1.003 0 0 1 1.104-.89c.553.058.953.55.895 1.1l-.758 7.186c-.192 1.571-5.217 1.567-5.411-.016Zm26.667-8.899c-.123.917-.729 1.708-1.617 2.254l-.702 6.661c-.192 1.571-5.216 1.567-5.41-.016l-.756-7.172a1.001 1.001 0 0 1 .895-1.098 1.004 1.004 0 0 1 1.104.89l.69 6.539c.223.021.494.034.773.034.28 0 .55-.012.773-.033l.69-6.54a1 1 0 0 1 .58-.804c.595-.271.944-.656.983-.95l.487-4.647c.064-.477-.672-1.026-1.896-1.026h-2.23a1.003 1.003 0 0 1-1.005-1c0-.552.45-1 1.006-1h2.23c2.29 0 4.143 1.382 3.892 3.261l-.487 4.647Zm-19.99-1.785L9.02 13.73C8.79 11.639 10.595 10 12.892 10h4.219c2.301 0 4.1 1.637 3.871 3.729l-.48 4.394c-.113 1.03-.708 1.955-1.598 2.6l-.71 8.015c-.113 1.13-1.02 1.264-3.194 1.262-2.174-.002-3.078-.134-3.192-1.273l-.709-8.005c-.89-.645-1.485-1.57-1.597-2.599Zm7.453 1.935a1 1 0 0 1 .51-.786c.61-.34.992-.854 1.048-1.367l.481-4.394c.088-.804-.688-1.511-1.883-1.511h-4.219c-1.19 0-1.971.71-1.883 1.511l.48 4.394c.057.512.44 1.027 1.05 1.366a1 1 0 0 1 .509.786l.697 7.875c.338.043.788.068 1.257.068.469 0 .918-.023 1.255-.066l.698-7.876ZM5.5 10a3.5 3.5 0 1 1 0-7 3.5 3.5 0 0 1 0 7Zm19 0a3.5 3.5 0 1 1 0-7 3.5 3.5 0 0 1 0 7ZM15 8a4 4 0 1 1 0-8 4 4 0 0 1 0 8Zm9.5.3a1.8 1.8 0 1 0 0-3.6 1.8 1.8 0 0 0 0 3.6Zm-19 0a1.8 1.8 0 1 0 0-3.6 1.8 1.8 0 0 0 0 3.6ZM15 6a2 2 0 1 0 0-4 2 2 0 0 0 0 4Z"/>
</svg>
