<svg width="24" height="24" fill="currentColor" viewBox="0 0 24 24" xmlns="http://www.w3.org/2000/svg">
  <path d="M10.21 4.34a5.44 5.44 0 0 1 1.243-.297c.263-.033.458-.043.552-.043.084 0 .28.01.541.043a5.44 5.44 0 0 1 1.245.296c.852.324 1.21.732 1.21 1.476C15 9.695 13.591 12 12 12c-1.588 0-3-2.31-3-6.185 0-.744.356-1.152 1.209-1.476M12 14c2.96 0 5-3.346 5-8.185C17 1.98 12 2 12 2s-5-.02-5 3.815C7 10.655 9.047 14 12 14m-8 6v-1.331c0 .02.105-.128.091-.123l3.64-1.293c.045-.016.359-.005.413.018l1.236.526c.76.324 1.698.485 2.634.483-.004-.093-.014-.185-.014-.28 0-.602.091-1.182.256-1.73-.747.031-1.521-.069-2.092-.312l-1.236-.527c-.515-.22-1.348-.246-1.865-.062l-3.641 1.292C2.642 16.938 2 17.839 2 18.669v1.337C2 21.113 2.891 22 3.991 22h9.546a5.977 5.977 0 0 1-1.188-2H4Zm17.97-3.017a.58.58 0 0 0-.46-.39l-2.083-.32-.903-1.94a.577.577 0 0 0-1.047 0l-.903 1.94-2.083.319a.584.584 0 0 0-.327.98l1.527 1.572-.354 2.18a.579.579 0 0 0 .85.603L18 20.919l1.814 1.008a.58.58 0 0 0 .849-.602l-.353-2.181 1.527-1.572a.581.581 0 0 0 .133-.59"/>
</svg>
