<svg width="24" height="24" fill="currentColor" viewBox="-2 -2 24 24" xmlns="http://www.w3.org/2000/svg">
  <path d="M13 3.815c0-.743-.356-1.152-1.21-1.476a5.481 5.481 0 0 0-1.243-.296A4.878 4.878 0 0 0 10.004 2c-.094 0-.288.01-.55.043a5.481 5.481 0 0 0-1.244.296C7.356 2.663 7 3.072 7 3.815 7 7.69 8.412 10 10 10c1.593 0 3-2.305 3-6.185Zm2 0C15 8.655 12.96 12 10 12c-2.952 0-5-3.345-5-8.185C5-.02 10 0 10 0s5-.02 5 3.815ZM0 16.669c0-.83.642-1.731 1.422-2.008l3.64-1.292c.518-.184 1.351-.157 1.866.062l1.236.527c1.014.432 2.665.429 3.672 0l1.236-.527c.513-.218 1.35-.246 1.866-.062l3.64 1.292c.785.279 1.422 1.177 1.422 2.008v1.337A1.997 1.997 0 0 1 18.01 20H1.99A1.989 1.989 0 0 1 0 18.006v-1.337Zm18 0c0 .017-.102-.127-.091-.123l-3.64-1.293a1.564 1.564 0 0 0-.413.018l-1.236.527c-1.51.643-3.727.644-5.24 0l-1.236-.527a1.492 1.492 0 0 0-.412-.018L2.09 16.546c.014-.005-.091.143-.091.123V18h16v-1.331Z"/>
</svg>
