<svg width="32" height="32" fill="currentColor" viewBox="-2 -2 32 32" xmlns="http://www.w3.org/2000/svg">
  <path d="M14 28C6.268 28 0 21.732 0 14S6.268 0 14 0s14 6.268 14 14-6.268 14-14 14Zm0-2c6.627 0 12-5.373 12-12S20.627 2 14 2 2 7.373 2 14s5.373 12 12 12Zm5-16.185C19 14.655 16.96 18 14 18c-2.952 0-5-3.345-5-8.185C9 5.98 14 6 14 6s5-.02 5 3.815Zm-2 0c0-.743-.356-1.152-1.21-1.476a5.481 5.481 0 0 0-1.243-.296A4.878 4.878 0 0 0 14.004 8c-.094 0-.288.01-.55.043a5.481 5.481 0 0 0-1.244.296c-.854.324-1.21.733-1.21 1.476C11 13.69 12.412 16 14 16c1.593 0 3-2.305 3-6.185ZM6 22.752v1.008H4v-1.008c0-.825.62-1.751 1.392-2.073l3.684-1.535c.51-.213 1.322-.186 1.812.059l1.323.661c.988.494 2.598.49 3.578 0l1.323-.661c.49-.245 1.3-.272 1.812-.059l3.684 1.535C23.377 21 24 21.931 24 22.765v.992h-2v-.992a.965.965 0 0 0-.16-.24l-3.685-1.535c.024.01-.179.017-.148.002l-1.323.661c-1.546.773-3.819.775-5.368 0l-1.323-.661c.032.015-.173.009-.148-.002L6.16 22.525c-.028.012-.161.21-.161.227Z"/>
</svg>
