<svg width="24" height="24" fill="currentColor" viewBox="0 0 24 24" xmlns="http://www.w3.org/2000/svg">
  <path d="M11.454 4.043c.261-.033.457-.043.55-.043.085 0 .28.01.543.043a5.44 5.44 0 0 1 1.243.296c.854.324 1.21.732 1.21 1.476C15 9.695 13.593 12 12 12c-1.588 0-3-2.31-3-6.185 0-.744.357-1.152 1.21-1.476a5.44 5.44 0 0 1 1.243-.296ZM17 5.815C17 1.98 12 2 12 2s-5-.02-5 3.815C7 10.655 9.047 14 12 14c2.96 0 5-3.346 5-8.185ZM4 20v-1.331c0 .02.105-.128.091-.123l3.64-1.293c.045-.016.359-.005.413.018l1.236.526c.76.324 1.698.485 2.634.483-.004-.093-.014-.185-.014-.28 0-.602.091-1.182.256-1.73-.747.031-1.521-.069-2.092-.312l-1.236-.527c-.515-.22-1.348-.246-1.865-.062l-3.641 1.292C2.642 16.938 2 17.839 2 18.669v1.337C2 21.113 2.891 22 3.991 22h9.546a5.977 5.977 0 0 1-1.188-2H4Zm19.96-3.104c-.066-.486-.591-.82-1.094-.638a.415.415 0 0 1-.5-.216 3.539 3.539 0 0 0-.371-.622.375.375 0 0 1 .055-.527.76.76 0 0 0 .294-.616.778.778 0 0 0-.326-.614 5.058 5.058 0 0 0-1.078-.6.856.856 0 0 0-.322-.063.8.8 0 0 0-.8.65c-.035.198-.23.333-.448.31a3.67 3.67 0 0 0-.74 0c-.218.023-.414-.112-.448-.31a.8.8 0 0 0-.8-.65.852.852 0 0 0-.322.063 5.034 5.034 0 0 0-1.079.6.779.779 0 0 0-.325.614.763.763 0 0 0 .294.616c.16.127.184.354.055.526-.145.195-.27.404-.371.622a.403.403 0 0 1-.505.215.837.837 0 0 0-.284-.05.808.808 0 0 0-.805.69 4.644 4.644 0 0 0 0 1.208c.065.486.59.819 1.094.638a.415.415 0 0 1 .5.216c.102.219.226.428.371.622.13.173.105.4-.055.527a.76.76 0 0 0-.294.616.778.778 0 0 0 .326.614c.332.243.695.445 1.078.6a.856.856 0 0 0 .322.063.8.8 0 0 0 .8-.65c.035-.198.23-.33.448-.31.243.025.497.025.74 0 .22-.021.414.112.448.31a.8.8 0 0 0 .8.65c.111 0 .22-.021.322-.063a5.03 5.03 0 0 0 1.078-.6.763.763 0 0 0 .032-1.23c-.16-.127-.184-.354-.055-.526.145-.195.27-.404.371-.622a.403.403 0 0 1 .505-.215c.091.033.187.05.284.05a.808.808 0 0 0 .805-.69 4.692 4.692 0 0 0 0-1.208ZM19 19c-.827 0-1.5-.673-1.5-1.5S18.173 16 19 16s1.5.673 1.5 1.5S19.827 19 19 19Z"/>
</svg>
