<svg width="24" height="24" fill="currentColor" viewBox="0 -1 24 24" xmlns="http://www.w3.org/2000/svg">
  <path d="M14.616 20.689c0 1.109-.982 1.313-2.617 1.311-1.635-.002-2.615-.205-2.611-1.227l-.484-4.957a4.421 4.421 0 0 1-.137-.082c-.566-.35-.947-.75-.982-1.33l-.75-4.478C6.772 8.344 8.017 7 9.755 7h4.492c1.734 0 2.984 1.34 2.718 2.926l-.749 4.477c-.035.584-.417.987-.983 1.335a4.368 4.368 0 0 1-.136.08l-.48 4.87Zm-1.492-5.564c.034-.34.275-.635.624-.765a2.392 2.392 0 0 0 .463-.245l.747-4.368c.075-.437-.22-.747-.712-.747H9.754c-.492 0-.787.311-.712.747l.747 4.365c.028.021.064.046.107.072.136.082.282.148.36.178.348.13.586.425.62.763l.48 4.84a6.133 6.133 0 0 0 1.285.003l.483-4.843Zm8.066.53a1.16 1.16 0 0 0 .105-.077l.69-3.792c.085-.47-.179-.786-.66-.786H20.11a1 1 0 1 1 0-2h1.216c1.728 0 2.936 1.444 2.627 3.144l-.685 3.769c-.04.614-.416 1.04-.97 1.408-.044.03-.088.057-.131.084l-.355 3.195c0 1.134-.941 1.4-2.254 1.4-1.313-.002-2.252-.267-2.25-1.336l-.305-3.83a1 1 0 0 1 1.996-.125l.268 3.277a3.258 3.258 0 0 0 .593 0l.36-3.298a1 1 0 0 1 .617-.841 2.28 2.28 0 0 0 .354-.192Zm-18.38 0c.134.09.278.16.355.192a1 1 0 0 1 .616.841l.36 3.298a3.236 3.236 0 0 0 .593 0l.268-3.277a1 1 0 0 1 1.996.126l-.304 3.83c.002 1.068-.938 1.333-2.251 1.334C3.13 22 2.189 21.734 2.189 20.6l-.355-3.195a4.251 4.251 0 0 1-.13-.084c-.555-.368-.931-.794-.97-1.408l-.686-3.77C-.26 10.445.948 9 2.675 9h1.216a1 1 0 1 1 0 2H2.675c-.48 0-.745.315-.659.786l.69 3.792a.9.9 0 0 0 .105.077ZM12 6a3 3 0 1 1 0-6 3 3 0 0 1 0 6Zm7 2a3 3 0 1 1 0-6 3 3 0 0 1 0 6ZM5 8a3 3 0 1 1 0-6 3 3 0 0 1 0 6Zm0-1.7a1.3 1.3 0 1 0 0-2.6 1.3 1.3 0 0 0 0 2.6Zm14 0a1.3 1.3 0 1 0 0-2.6 1.3 1.3 0 0 0 0 2.6Zm-7-2a1.3 1.3 0 1 0 0-2.6 1.3 1.3 0 0 0 0 2.6Z"/>
</svg>
