<svg width="32" height="32" fill="currentColor" viewBox="-2 -2 32 32" xmlns="http://www.w3.org/2000/svg">
  <path d="M26.009 26c-.012 0-.009-2.17-.009-2.17 0-.325-.36-.885-.653-1.02l-6.041-2.763-2.494 2.053c-1.585 1.305-4.036 1.308-5.624 0l-2.492-2.053-6.042 2.763c-.295.135-.654.694-.654 1.02v2.165c0 .004 24.009.005 24.009.005ZM0 23.83c0-1.108.815-2.378 1.822-2.839l6.268-2.866c.504-.23 1.256-.135 1.682.217l2.688 2.214c.85.7 2.235.696 3.081 0l2.689-2.214c.425-.35 1.18-.447 1.682-.217l6.267 2.866c1.006.46 1.821 1.731 1.821 2.839v2.165C28 27.102 27.1 28 26.009 28H1.99A1.998 1.998 0 0 1 0 25.995V23.83ZM21 5.722C21 12.982 18.668 18 14 18S7 12.982 7 5.722C7-.03 14 0 14 0s7-.03 7 5.722Zm-2 0c0-1.622-.763-2.56-2.253-3.165a7.881 7.881 0 0 0-1.9-.487 6.917 6.917 0 0 0-.842-.07c-.155 0-.455.017-.852.07a7.881 7.881 0 0 0-1.9.487C9.763 3.162 9 4.1 9 5.722 9 12.372 10.957 16 14 16s5-3.628 5-10.278Z"/>
</svg>
