<svg width="24" height="24" fill="currentColor" viewBox="-1 -1 24 24" xmlns="http://www.w3.org/2000/svg">
  <path d="M11 22C4.925 22 0 17.075 0 11S4.925 0 11 0s11 4.925 11 11-4.925 11-11 11Zm0-2a9 9 0 1 0 0-18 9 9 0 0 0 0 18Zm4-12.366C15 11.378 13.69 14 11 14s-4-2.622-4-6.366c0-1.555.816-2.651 2.095-3.22A4.73 4.73 0 0 1 11.003 4a4.723 4.723 0 0 1 1.902.414C14.184 4.983 15 6.079 15 7.634Zm-2-.273c0-.65-.276-.947-.857-1.154A3.803 3.803 0 0 0 11.005 6h-.012c-.234 0-.71.055-1.136.207C9.276 6.414 9 6.71 9 7.361 9 10.396 10.002 12 11 12s2-1.604 2-4.639ZM9.899 17.3l-2.652-.574C7.134 16.74 3.844 17.959 3.72 18L3 16.344c.131-.043 4.243-1.515 4.832-1.322l2.824.634c.16.056.526.057.689 0l2.841-.64c.57-.187 4.683 1.285 4.814 1.328L18.28 18c-.124-.04-3.414-1.258-3.527-1.274l-2.652.574c-.65.226-1.557.224-2.202 0Z"/>
</svg>
