<svg width="16" height="16" fill="currentColor" viewBox="0 0 16 16" xmlns="http://www.w3.org/2000/svg">
  <path d="M3.5 6.42V3a1 1 0 0 1 .504-.868l3.5-2a1 1 0 0 1 .982-.006l3.6 2A1 1 0 0 1 12.6 3v3.477l2.896 1.655A1 1 0 0 1 16 9v4a1 1 0 0 1-.504.868l-3.5 2a1 1 0 0 1-.992 0L8 14.152l-3.004 1.716a1 1 0 0 1-.992 0l-3.5-2A1 1 0 0 1 0 13V9a1 1 0 0 1 .504-.868L3.5 6.42Zm-.613 2.653 1.613.903 1.613-.903L4.5 8.152l-1.613.921ZM7 10.908l-1.496.837v1.53L7 12.42v-1.512Zm-3.504 2.367v-1.53L2 10.908v1.512l1.496.855Zm6.391-4.202 1.613.903 1.613-.903-1.613-.921-1.613.921ZM14 10.908l-1.496.837v1.53L14 12.42v-1.512Zm-3.504 2.367v-1.53L9 10.908v1.512l1.496.855ZM6.387 3.073 8 3.976l1.643-.92-1.636-.908-1.62.925Zm4.213 1.78-1.596.892v1.553l1.596-.886v-1.56ZM6.996 7.274v-1.53L5.5 4.908V6.42l1.496.855Z"/>
</svg>
