<svg width="24" height="24" fill="currentColor" viewBox="-1 -1 24 24" xmlns="http://www.w3.org/2000/svg">
  <path d="M9.087 12.018 6 10.166l-3.087 1.852L6 13.77l3.087-1.752ZM10 13.901l-3 1.702v2.63l3-1.8v-2.532Zm-5 4.333v-2.63L2 13.9v2.533l3 1.8Zm7-1.8 3 1.8v-2.63L12 13.9v2.533Zm-7-8V4a1 1 0 0 1 .486-.857l5-3a1 1 0 0 1 1.028 0l5 3A1 1 0 0 1 17 4v4.434l4.514 2.709A1 1 0 0 1 22 12v5a1 1 0 0 1-.486.857l-5 3a1 1 0 0 1-1.028 0L11 18.167l-4.486 2.69a1 1 0 0 1-1.028 0l-5-3A1 1 0 0 1 0 17v-5a1 1 0 0 1 .486-.857L5 8.433Zm5 1.8v-2.63L7 5.9v2.533l3 1.8Zm9.087 1.784L16 10.166l-3.087 1.852L16 13.77l3.087-1.752ZM20 13.901l-3 1.702v2.63l3-1.8v-2.532Zm-5-5.467V5.9l-3 1.702v2.63l3-1.8Zm-.913-4.416L11 2.166 7.913 4.018 11 5.77l3.087-1.752Z"/>
</svg>
