<svg width="32" height="32" fill="currentColor" viewBox="-3 -2 32 32" xmlns="http://www.w3.org/2000/svg">
  <path d="m13.476.12 12 6.5a1 1 0 0 1 0 1.76l-12 6.5a1 1 0 0 1-.952 0l-12-6.5a1 1 0 0 1 0-1.76l12-6.5a1 1 0 0 1 .952 0ZM13 2.138 3.1 7.5l9.9 5.363L22.9 7.5 13 2.137ZM26 21a1 1 0 0 1-.524.88l-12 6.5A1 1 0 0 1 12 27.5V14a1 1 0 0 1 .524-.88l12-6.5A1 1 0 0 1 26 7.5V21ZM24 9.179l-10 5.417V25.82l10-5.417V9.18ZM0 21V7.5a1 1 0 0 1 1.476-.88l12 6.5A1 1 0 0 1 14 14v13.5a1 1 0 0 1-1.476.88l-12-6.5A1 1 0 0 1 0 21Zm2-.596 10 5.417V14.596L2 9.179v11.225Z"/>
</svg>
