<svg width="24" height="24" fill="currentColor" viewBox="-1 -1 24 24" xmlns="http://www.w3.org/2000/svg">
  <path d="m15.005 11-1.719-5H8.714l-1.72 5h8.012Zm2.698 1.697c.19.394.297.836.297 1.303v1a3 3 0 0 1-3 3H7a3 3 0 0 1-3-3v-1c0-.467.107-.91.297-1.303a1.02 1.02 0 0 1 .007-.022L6.822 5.35A2 2 0 0 1 8.714 4h4.572a2 2 0 0 1 1.892 1.35l2.518 7.325.007.022ZM7 13a1 1 0 0 0-1 1v1a1 1 0 0 0 1 1h8a1 1 0 0 0 1-1v-1a1 1 0 0 0-1-1H7Zm.5 1h3a.5.5 0 1 1 0 1h-3a.5.5 0 1 1 0-1Zm7 1a.5.5 0 1 1 0-1 .5.5 0 0 1 0 1ZM4 2H2v2a1 1 0 1 1-2 0V1a1 1 0 0 1 1-1h3a1 1 0 1 1 0 2Zm14 0a1 1 0 0 1 0-2h3a1 1 0 0 1 1 1v3a1 1 0 0 1-2 0V2h-2Zm0 18h2v-2a1 1 0 0 1 2 0v3a1 1 0 0 1-1 1h-3a1 1 0 0 1 0-2ZM4 20a1 1 0 0 1 0 2H1a1 1 0 0 1-1-1v-3a1 1 0 0 1 2 0v2h2Z"/>
</svg>
