<svg width="16" height="16" fill="currentColor" viewBox="0 0 16 16" xmlns="http://www.w3.org/2000/svg">
  <path d="M14.88 6.704A7 7 0 1 1 1.12 9.296a7 7 0 0 1 13.76-2.592Zm-1.115 2.963a1.45 1.45 0 0 1-1.934-.655 1.45 1.45 0 0 0-1.057-.781l-.072-.012a1.557 1.557 0 0 1-1.3-1.536V6.53a1 1 0 0 1 .142-.514l.32-.533.005-.01.217-.361.177-.296a.207.207 0 0 0-.177-.313.207.207 0 0 1-.185-.3l.185-.37.076-.152a.518.518 0 0 0 .051-.168v-.004a.52.52 0 0 0-.389-.563.519.519 0 0 1-.327-.757 6.011 6.011 0 0 0-2.399-.12c.014.02.026.04.039.061a1.833 1.833 0 0 1-.827 2.62l-1.066.474a2 2 0 0 0-1.045 1.085l-.213.534a.944.944 0 0 0 1.226 1.226l.255-.101a1.282 1.282 0 0 1 1.382.283l1.007 1.008a.495.495 0 0 0 .35.145c.441 0 .662.533.35.845L6.95 11.854c-.226.226-.37.52-.41.838l-.137 1.093a6.003 6.003 0 0 0 7.362-4.118ZM14 7.924a5.997 5.997 0 0 0-2.9-5.063c.153.365.165.79-.005 1.185.24.365.284.855.027 1.284l-.72 1.199v.154c0 .272.197.505.466.55l.07.011c.774.13 1.438.62 1.789 1.32a.45.45 0 0 0 .765.063L14 7.924Zm-8.603 5.483.066-.66a1.695 1.695 0 0 0-.602-1.47l-.88-.733a1.472 1.472 0 0 1-.529-1.13v-.448a.85.85 0 0 0-.582-.807.85.85 0 0 1-.565-.64l-.134-.672a1.97 1.97 0 0 0-.032-.134 6 6 0 0 0 3.257 6.694ZM2.586 5.41c.226.294.396.628.501.985l.184-.459A3 3 0 0 1 4.838 4.31l1.066-.474a.833.833 0 0 0 .376-1.191.898.898 0 0 0-.292-.298A6.02 6.02 0 0 0 2.586 5.41Zm1.865 3.682v.322c0 .14.062.272.17.362l.88.733c.258.215.47.473.629.759.036-.041.073-.082.112-.12l1.054-1.054c-.051-.04-.1-.083-.147-.13L6.142 8.958a.281.281 0 0 0-.304-.062l-.255.102c-.37.148-.763.175-1.132.095Z"/>
</svg>
