<svg width="24" height="24" fill="currentColor" viewBox="-2 -2 24 24" xmlns="http://www.w3.org/2000/svg">
  <path d="M18 8H9v10h9V8Zm0-2V2H2v4h16ZM2 8v10h5V8H2ZM0 .992A1 1 0 0 1 .992 0h18.016A1 1 0 0 1 20 .992v18.016a1 1 0 0 1-.992.992H.992A1 1 0 0 1 0 19.008V.992ZM4 5a1 1 0 1 1 0-2 1 1 0 0 1 0 2Zm3 0a1 1 0 1 1 0-2 1 1 0 0 1 0 2Zm3 0a1 1 0 1 1 0-2 1 1 0 0 1 0 2Zm-7 5c0-.552.443-1 .999-1h1.002C5.553 9 6 9.444 6 10c0 .552-.443 1-.999 1H3.999A.997.997 0 0 1 3 10Zm7 0c0-.552.438-1 1.003-1h4.994A.999.999 0 0 1 17 10c0 .552-.438 1-1.003 1h-4.994A.999.999 0 0 1 10 10Zm0 3a1 1 0 0 1 1.01-1h1.98a1 1 0 1 1 0 2h-1.98c-.558 0-1.01-.444-1.01-1Zm0 3a1 1 0 0 1 .99-1h4.02c.546 0 .99.444.99 1a1 1 0 0 1-.99 1h-4.02a.993.993 0 0 1-.99-1Zm-7-3c0-.552.443-1 .999-1h1.002c.552 0 .999.444.999 1 0 .552-.443 1-.999 1H3.999A.997.997 0 0 1 3 13Zm0 3c0-.552.443-1 .999-1h1.002c.552 0 .999.444.999 1 0 .552-.443 1-.999 1H3.999A.997.997 0 0 1 3 16Z"/>
</svg>
