<svg width="16" height="16" fill="currentColor" viewBox="0 0 16 16" xmlns="http://www.w3.org/2000/svg">
  <path d="M1 0h14a1 1 0 0 1 1 1v14a1 1 0 0 1-1 1H1a1 1 0 0 1-1-1V1a1 1 0 0 1 1-1Zm1 2v12h12V2H2Zm6 5v7H6V7H2V5h12v2H8Zm1.5 1h3a.5.5 0 1 1 0 1h-3a.5.5 0 0 1 0-1Zm0 2h1a.5.5 0 1 1 0 1h-1a.5.5 0 1 1 0-1Zm0 2h3a.5.5 0 1 1 0 1h-3a.5.5 0 1 1 0-1Zm-6-8a.5.5 0 1 1 0-1 .5.5 0 0 1 0 1Zm2 0a.5.5 0 1 1 0-1 .5.5 0 0 1 0 1Zm2 0a.5.5 0 1 1 0-1 .5.5 0 0 1 0 1Zm-4 4h1a.5.5 0 0 1 0 1h-1a.5.5 0 0 1 0-1Zm0 2h1a.5.5 0 1 1 0 1h-1a.5.5 0 1 1 0-1Zm0 2h1a.5.5 0 1 1 0 1h-1a.5.5 0 1 1 0-1Z"/>
</svg>
