<svg width="24" height="24" fill="currentColor" viewBox="-3 -2 24 24" xmlns="http://www.w3.org/2000/svg">
  <path d="m15.993 9 .006-5.392L10 2.251V9h5.993Zm-.003 2H10v6.674a17.418 17.418 0 0 0 2.659-1.382c2.032-1.323 3.253-2.866 3.33-4.436L15.99 11ZM8 9V2.251L2 3.61l-.001 8.198c.082 1.618 1.306 3.162 3.34 4.485A17.45 17.45 0 0 0 8 17.674V11H2V9h6Zm9.22-7.166a1 1 0 0 1 .78.977l-.012 9.094c-.116 2.396-1.723 4.426-4.238 6.063C12.03 19.086 9.804 20 9 20c-.804 0-3.031-.914-4.75-2.032C1.731 16.331.122 14.303 0 11.858V2.81a1 1 0 0 1 .78-.976l8-1.81a1 1 0 0 1 .44 0l8 1.81Z"/>
</svg>
