<svg width="16" height="16" fill="currentColor" viewBox="0 0 16 16" xmlns="http://www.w3.org/2000/svg">
  <path d="M6.687 0a6.687 6.687 0 0 1 6.688 6.688c0 .45-.049.896-.144 1.34l-.015.061 1.722 1.723a3.625 3.625 0 0 1 .147 4.971l-.147.155A3.615 3.615 0 0 1 12.375 16a3.616 3.616 0 0 1-2.563-1.062L8.09 13.216l-.06.015a6.485 6.485 0 0 1-1.005.135l-.338.009A6.687 6.687 0 0 1 0 6.687c0-.976.215-1.926.621-2.804.308-.666.998-.82 1.595-.57.285.12.568.329.899.637.464.433 1.06 1.104 1.798 2.022l.417.525c.173.22.46.316.692.255l.115-.035a.961.961 0 0 0 .604-.656.699.699 0 0 0-.244-.73c-1.19-.935-2.035-1.667-2.547-2.216-.309-.331-.518-.614-.637-.899-.25-.598-.096-1.287.57-1.595A6.663 6.663 0 0 1 6.687 0Zm0 2a4.61 4.61 0 0 0-.864.082l-.066.014c.412.39.986.877 1.723 1.462l.252.198a2.699 2.699 0 0 1 .94 2.823 2.977 2.977 0 0 1-1.9 2.034l-.193.06a2.7 2.7 0 0 1-2.823-.942 35.104 35.104 0 0 0-1.351-1.636l-.31-.338-.013.066c-.036.189-.06.38-.073.573L2 6.688a4.687 4.687 0 0 0 4.687 4.687c.464 0 .93-.077 1.401-.226l.58-.184 2.558 2.559c.31.31.72.476 1.149.476a1.625 1.625 0 0 0 1.149-2.774l-2.558-2.559.183-.579a4.63 4.63 0 0 0 .226-1.4A4.687 4.687 0 0 0 6.687 2Z"/>
</svg>
