<svg width="24" height="24" fill="currentColor" viewBox="0 0 24 24" xmlns="http://www.w3.org/2000/svg">
  <path d="M21.5 16a.5.5 0 0 1 .5.5v1.319a.5.5 0 0 1-.116.32L19.5 21h2a.5.5 0 0 1 .5.5v1a.5.5 0 0 1-.5.5h-4a.5.5 0 0 1-.5-.5v-1.319a.5.5 0 0 1 .116-.32L19.5 18h-2a.5.5 0 0 1-.5-.5v-1a.5.5 0 0 1 .5-.5h4ZM3 2h16a1 1 0 0 1 .993.883L20 3v9a1 1 0 0 1-1.993.117L18 12V4H4v17h9a1 1 0 0 1 .117 1.993L13 23H3a1 1 0 0 1-.993-.883L2 22V3a1 1 0 0 1 .883-.993L3 2h16H3Zm5 15a1 1 0 0 1 0 2H7a1 1 0 0 1 0-2h1Zm4-4a1 1 0 0 1 0 2H7a1 1 0 0 1 0-2h5Zm2-3a1 1 0 0 1 0 2H7a1 1 0 0 1 0-2h7ZM9 6a1 1 0 1 1 0 2H7a1 1 0 1 1 0-2h2Z"/>
</svg>
