<svg width="24" height="24" fill="currentColor" viewBox="0 0 24 24" xmlns="http://www.w3.org/2000/svg">
  <path d="M19 2a1 1 0 0 1 1 1v1.944a1 1 0 0 1-2 0V4H4v17h14v-.833a1 1 0 1 1 2 0V22a1 1 0 0 1-1 1H3a1 1 0 0 1-1-1V3a1 1 0 0 1 1-1h16Zm-3 7a.5.5 0 0 1 .5.5v1a.5.5 0 0 1-.5.5h-1v4.5a.5.5 0 0 1-.5.5h-1a.5.5 0 0 1-.5-.5V11h-1a.5.5 0 0 1-.5-.5v-1A.5.5 0 0 1 12 9h4Zm-5.5 0a.5.5 0 0 1 .5.5v1.319a.5.5 0 0 1-.116.32L8.5 14h2a.5.5 0 0 1 .5.5v1a.5.5 0 0 1-.5.5h-4a.5.5 0 0 1-.5-.5v-1.319a.5.5 0 0 1 .116-.32L8.5 11h-2a.5.5 0 0 1-.5-.5v-1a.5.5 0 0 1 .5-.5h4ZM20 9a2 2 0 0 1 2 2v.2a.3.3 0 0 1-.3.3h-1.4a.3.3 0 0 1-.3-.3V11a.5.5 0 0 0-.992-.09L19 11v3a.5.5 0 0 0 .992.09L20 14v-.2a.3.3 0 0 1 .3-.3h1.4a.3.3 0 0 1 .3.3v.2a2 2 0 0 1-2 2h-1a2 2 0 0 1-2-2v-3a2 2 0 0 1 2-2h1Z"/>
</svg>
