<svg width="16" height="16" fill="currentColor" viewBox="0 0 16 16" xmlns="http://www.w3.org/2000/svg">
  <path d="M13 0a1 1 0 0 1 1 1v4a1 1 0 0 1-2 0V2H2v12h5a1 1 0 0 1 0 2H1a1 1 0 0 1-1-1V1a1 1 0 0 1 1-1h12ZM6 10a1 1 0 0 1 0 2H4a1 1 0 0 1 0-2h2Zm2-3a1 1 0 1 1 0 2H4a1 1 0 1 1 0-2h4ZM6 4a1 1 0 1 1 0 2H4a1 1 0 1 1 0-2h2Zm9.5 5a.5.5 0 0 1 .5.5v1.319a.5.5 0 0 1-.116.32L13.5 14h2a.5.5 0 0 1 .5.5v1a.5.5 0 0 1-.5.5h-4a.5.5 0 0 1-.5-.5v-1.319a.5.5 0 0 1 .116-.32L13.5 11h-2a.5.5 0 0 1-.5-.5v-1a.5.5 0 0 1 .5-.5h4Z"/>
</svg>
