<svg width="16" height="16" fill="currentColor" viewBox="0 0 16 16" xmlns="http://www.w3.org/2000/svg">
  <path d="M10 5a.5.5 0 0 1 .5.5v1a.5.5 0 0 1-.5.5H9v4.5a.5.5 0 0 1-.5.5h-1a.5.5 0 0 1-.5-.5V7H6a.5.5 0 0 1-.5-.5v-1A.5.5 0 0 1 6 5h4ZM4.5 5a.5.5 0 0 1 .5.5v1.319a.5.5 0 0 1-.116.32L2.5 10h2a.5.5 0 0 1 .5.5v1a.5.5 0 0 1-.5.5h-4a.5.5 0 0 1-.5-.5v-1.319a.5.5 0 0 1 .116-.32L2.5 7h-2a.5.5 0 0 1-.5-.5v-1A.5.5 0 0 1 .5 5h4ZM14 5a2 2 0 0 1 2 2v.2a.3.3 0 0 1-.3.3h-1.4a.3.3 0 0 1-.3-.3V7a.5.5 0 0 0-.992-.09L13 7v3a.5.5 0 0 0 .992.09L14 10v-.2a.3.3 0 0 1 .3-.3h1.4a.3.3 0 0 1 .3.3v.2a2 2 0 0 1-2 2h-1a2 2 0 0 1-2-2V7a2 2 0 0 1 2-2h1Z"/>
</svg>
