<svg width="32" height="32" fill="currentColor" viewBox="0 0 32 32" xmlns="http://www.w3.org/2000/svg">
  <g fill="none" fill-rule="evenodd">
    <path fill="#FFE2A7" fill-rule="nonzero" d="M29 4a1 1 0 0 1 1 1v6.5a.5.5 0 0 1-.5.5H28v14a1 1 0 0 1-.883.993L27 27H5a1 1 0 0 1-1-1V12H2.5a.5.5 0 0 1-.492-.41L2 11.5V5a1 1 0 0 1 1-1Z"/>
    <path fill="#FFDA8E" d="M29 4a1 1 0 0 1 1 1v6.5a.5.5 0 0 1-.5.5H28v15a1 1 0 0 1-1 1H5a1 1 0 0 1-1-1V12H2.5a.5.5 0 0 1-.5-.5V5a1 1 0 0 1 1-1h26Zm-2 8H5v15h22V12Zm2-7H3v6h26V5Z"/>
    <path fill="#E6C480" fill-rule="nonzero" d="M28 26v1a1 1 0 0 1-.883.993L27 28H5a1 1 0 0 1-.993-.883L4 27v-1a1 1 0 0 0 .883.993L5 27h22a1 1 0 0 0 1-1ZM5 12v2H4v-2h1Zm23 0v2h-1v-2h1Z"/>
    <path fill="#F3D08A" fill-rule="nonzero" d="M5 12h22v2H5z"/>
    <rect width="8" height="2" x="12" y="17" fill="#98742B" fill-rule="nonzero" rx="1"/>
  </g>
</svg>
