<svg width="72" height="72" fill="none" viewBox="0 0 72 72" xmlns="http://www.w3.org/2000/svg">
  <path fill="url(#asz-ill--72_svg__a)" fill-rule="evenodd" d="M60.863 12.998c-5.062-.607-19.085-2.973-23.172-6.553L35.969 5 34.33 6.445c-4.087 3.559-18.11 5.925-23.255 6.553A2.358 2.358 0 0 0 9 15.338v30.74c.137 5.698 3.31 10.877 8.298 13.547L35.968 68l18.506-8.27.228-.126c4.989-2.67 8.161-7.849 8.298-13.546V15.4a2.42 2.42 0 0 0-2.137-2.403Z" clip-rule="evenodd"/>
  <path fill="url(#asz-ill--72_svg__b)" fill-rule="evenodd" d="M60.746 13.991h-.002c-2.562-.307-7.372-1.057-12.066-2.182-2.347-.563-4.683-1.224-6.704-1.978-1.991-.744-3.771-1.611-4.934-2.627l-1.055-.885-.998.88c-1.163 1.012-2.946 1.878-4.943 2.62-2.021.751-4.36 1.411-6.712 1.974a118.531 118.531 0 0 1-12.136 2.198A1.359 1.359 0 0 0 10 15.339v30.728c.132 5.324 3.092 10.159 7.74 12.66l18.23 8.177 18.058-8.07.202-.112c4.665-2.496 7.638-7.34 7.77-12.676V15.4a1.42 1.42 0 0 0-1.254-1.41ZM63 46.058c-.137 5.697-3.31 10.876-8.298 13.546l-.228.126L35.969 68l-18.67-8.375C12.308 56.955 9.136 51.776 9 46.08V15.34c0-1.193.89-2.198 2.075-2.341 5.144-.628 19.168-2.994 23.255-6.553L35.969 5l1.722 1.445c4.087 3.58 18.11 5.946 23.172 6.553A2.42 2.42 0 0 1 63 15.401v30.657Z" clip-rule="evenodd"/>
  <path fill="url(#asz-ill--72_svg__c)" fill-opacity=".9" d="M60.894 12.998c-5.061-.607-19.085-2.973-23.172-6.553L36 5v63l18.505-8.27.228-.126c4.989-2.67 8.161-7.849 8.298-13.546V15.4a2.42 2.42 0 0 0-2.137-2.403Z"/>
  <path fill="url(#asz-ill--72_svg__d)" fill-rule="evenodd" d="M41 30.111a5.13 5.13 0 0 1-2.5 4.427v10.906C38.5 46.856 37.38 48 36 48s-2.5-1.144-2.5-2.556V34.538a5.13 5.13 0 0 1-2.5-4.427C31 27.288 33.239 25 36 25s5 2.288 5 5.111Z" clip-rule="evenodd"/>
  <path stroke="url(#asz-ill--72_svg__e)" d="m38.245 34.108-.245.145v11.191c0 1.146-.906 2.056-2 2.056-1.094 0-2-.91-2-2.056V34.253l-.245-.145a4.63 4.63 0 0 1-2.255-3.997c0-2.557 2.025-4.611 4.5-4.611s4.5 2.054 4.5 4.611a4.63 4.63 0 0 1-2.255 3.997Z"/>
  <defs>
    <linearGradient id="asz-ill--72_svg__a" x1="36" x2="36" y1="65" y2="-67.5" gradientUnits="userSpaceOnUse">
      <stop offset=".002" stop-color="#73D1FD"/>
      <stop offset="1" stop-color="#408FFF"/>
    </linearGradient>
    <linearGradient id="asz-ill--72_svg__b" x1="36" x2="36" y1="5" y2="68" gradientUnits="userSpaceOnUse">
      <stop stop-color="#B7E7FD"/>
      <stop offset="1" stop-color="#45AADA"/>
    </linearGradient>
    <linearGradient id="asz-ill--72_svg__c" x1="1.5" x2="63" y1="28.5" y2="29.5" gradientUnits="userSpaceOnUse">
      <stop stop-color="#fff"/>
      <stop offset="1" stop-color="#fff" stop-opacity="0"/>
    </linearGradient>
    <linearGradient id="asz-ill--72_svg__e" x1="36" x2="36" y1="25" y2="34.5" gradientUnits="userSpaceOnUse">
      <stop stop-color="#12325C"/>
      <stop offset="1" stop-color="#173C6F" stop-opacity="0"/>
    </linearGradient>
    <radialGradient id="asz-ill--72_svg__d" cx="0" cy="0" r="1" gradientTransform="matrix(0 19 -8.26087 0 36 32.5)" gradientUnits="userSpaceOnUse">
      <stop stop-color="#204C88"/>
      <stop offset="1" stop-color="#143766"/>
    </radialGradient>
  </defs>
</svg>
