<svg width="32" height="32" fill="none" viewBox="0 0 32 32" xmlns="http://www.w3.org/2000/svg">
  <path fill="#7CB342" d="M10.25 22.25c6.628 0 12-5.373 12-12 0-2.4-.704-4.635-1.918-6.51C25.382 5.522 29 10.34 29 16c0 7.18-5.82 13-13 13-5.66 0-10.477-3.618-12.26-8.668a11.944 11.944 0 0 0 6.51 1.918Z"/>
  <path fill="#29B6F6" fill-rule="evenodd" d="M16 24a8 8 0 1 0 0-16 8 8 0 0 0 0 16Zm0 5c7.18 0 13-5.82 13-13S23.18 3 16 3 3 8.82 3 16s5.82 13 13 13Z" clip-rule="evenodd"/>
  <path fill="#244B71" fill-rule="evenodd" d="M23.188 7.95a2.5 2.5 0 0 1 3.48.62A12.951 12.951 0 0 1 29 16c0 7.18-5.82 13-13 13-2.759 0-5.324-.862-7.43-2.332a2.5 2.5 0 1 1 2.86-4.1A7.951 7.951 0 0 0 16 24a8 8 0 0 0 8-8c0-1.703-.53-3.275-1.433-4.57a2.5 2.5 0 0 1 .62-3.48Z" clip-rule="evenodd"/>
  <path fill="#243143" fill-opacity=".1" fill-rule="evenodd" d="M16 28c6.627 0 12-5.373 12-12S22.627 4 16 4 4 9.373 4 16s5.373 12 12 12Zm0 1c7.18 0 13-5.82 13-13S23.18 3 16 3 3 8.82 3 16s5.82 13 13 13Z" clip-rule="evenodd"/>
</svg>
