<svg width="32" height="32" fill="none" viewBox="0 0 32 32" xmlns="http://www.w3.org/2000/svg">
  <path fill="#EA3939" fill-rule="evenodd" d="M26 32a6 6 0 1 0 0-12 6 6 0 0 0 0 12Z" clip-rule="evenodd"/>
  <path stroke="#243143" stroke-opacity=".1" d="M31.5 26a5.5 5.5 0 1 1-11 0 5.5 5.5 0 0 1 11 0Z"/>
  <path fill="#fff" d="M28.707 24.707a1 1 0 0 0-1.414-1.414L26 24.586l-1.293-1.293a1 1 0 0 0-1.414 1.414L24.586 26l-1.293 1.293a1 1 0 0 0 1.414 1.414L26 27.414l1.293 1.293a1 1 0 0 0 1.414-1.414L27.414 26l1.293-1.293Z"/>
</svg>
