<svg width="32" height="32" fill="currentColor" viewBox="0 0 32 32" xmlns="http://www.w3.org/2000/svg">
  <g fill="none" fill-rule="evenodd">
    <path fill="#D7E5F9" fill-rule="nonzero" d="M16 30c5.523 0 10-1.353 10-3.022V4.5H6v22.478C6 28.647 10.477 30 16 30Z"/>
    <path fill="#BBD1F0" fill-rule="nonzero" d="M26 4.5v22.478C26 28.647 21.523 30 16 30S6 28.647 6 26.978V4.5h20Zm-1 17.896c-1.62.95-5.04 1.604-9 1.604-3.958 0-7.38-.654-9-1.603v4.569l.014.031c.029.055.114.172.353.343.382.273.999.56 1.851.818 1.692.511 4.09.842 6.782.842s5.09-.331 6.782-.842c.852-.258 1.47-.545 1.85-.818.24-.17.325-.288.354-.343l.014-.031v-4.57Zm0-6c-1.62.95-5.04 1.604-9 1.604-3.958 0-7.38-.654-9-1.603v4.886c.105.066.217.13.337.193l.03.021c.382.257.999.526 1.851.769 1.692.481 4.09.793 6.782.793s5.09-.312 6.782-.793c.757-.216 1.33-.453 1.715-.683l.166-.107c.12-.063.233-.128.338-.193v-4.887Zm0-6c-1.62.95-5.04 1.604-9 1.604-3.958 0-7.38-.654-9-1.603v4.886c.105.066.217.13.337.193l.03.021c.382.257.999.526 1.851.769 1.692.481 4.09.793 6.782.793s5.09-.312 6.782-.793c.757-.216 1.33-.453 1.715-.683l.166-.107c.12-.063.233-.128.338-.193v-4.887ZM25 5.5H7v3.783c.105.066.217.13.337.193l.03.021c.382.257.999.527 1.851.769 1.692.481 4.09.793 6.782.793s5.09-.312 6.782-.793c.757-.216 1.33-.453 1.715-.683l.166-.107c.12-.063.233-.128.338-.193L25 5.5Z"/>
    <path fill="#8EBCED" d="M26 25.5c0 1.67-4.477 3.5-10 3.5S6 27.17 6 25.5v1.478C6 28.647 10.477 30 16 30s10-1.353 10-3.022V25.5Z"/>
    <ellipse cx="16" cy="4.5" fill="#EEF4FD" fill-rule="nonzero" rx="10" ry="2.5"/>
    <path fill="#CEDDF3" d="M16 2c5.523 0 10 1.12 10 2.5S21.523 7 16 7 6 5.88 6 4.5 10.477 2 16 2Zm0 1c-2.704 0-5.119.275-6.829.702-.862.216-1.489.457-1.876.686-.072.042-.129.08-.173.112.044.032.1.07.173.112.387.23 1.014.47 1.876.686C10.881 5.725 13.296 6 16 6c2.704 0 5.119-.275 6.828-.702.863-.216 1.49-.457 1.877-.686.072-.042.129-.08.173-.112a1.9 1.9 0 0 0-.173-.112c-.387-.23-1.014-.47-1.877-.686C21.12 3.275 18.704 3 16 3Z"/>
  </g>
</svg>
