<svg width="16" height="16" fill="none" viewBox="0 0 16 16" xmlns="http://www.w3.org/2000/svg">
  <g clip-path="url(#direction--16_svg__a)">
    <path fill="#408BEA" d="M8 0a8 8 0 1 1 0 16A8 8 0 0 1 8 0Z"/>
    <path stroke="#243143" stroke-opacity=".1" d="M8 .5a7.5 7.5 0 1 1 0 15 7.5 7.5 0 0 1 0-15Z"/>
    <path fill="#fff" d="M12.707 8.707a1 1 0 0 0 0-1.414l-3-3a1 1 0 0 0-1.414 1.414L9.586 7H4a1 1 0 0 0 0 2h5.586l-1.293 1.293a1 1 0 1 0 1.414 1.414l3-3Z"/>
  </g>
  <defs>
    <clipPath id="direction--16_svg__a">
      <path fill="#fff" d="M0 0h16v16H0z"/>
    </clipPath>
  </defs>
</svg>
