<svg width="32" height="32" fill="currentColor" viewBox="0 0 32 32" xmlns="http://www.w3.org/2000/svg">
  <g fill="none" fill-rule="evenodd">
    <path fill="#EEF4FD" fill-rule="nonzero" d="M6 30h20a1 1 0 0 0 1-1V11.325a3.2 3.2 0 0 0-.937-2.262l-6.126-6.126A3.2 3.2 0 0 0 17.674 2H6a1 1 0 0 0-1 1v26a1 1 0 0 0 1 1Z"/>
    <path fill="#4875B3" fill-opacity=".08" d="M17.674 2a3.2 3.2 0 0 1 2.263.937l6.126 6.126c.6.6.937 1.414.937 2.262V29a1 1 0 0 1-1 1H6a1 1 0 0 1-1-1V3a1 1 0 0 1 1-1h11.674Zm0 1H6v26h20V11.325a2.2 2.2 0 0 0-.644-1.555L19.23 3.644A2.2 2.2 0 0 0 17.674 3Z"/>
    <path fill="#BBD1F0" fill-rule="nonzero" d="M5 28v1a1 1 0 0 0 1 1h20a1 1 0 0 0 1-1v-1a1 1 0 0 1-1 1H6a1 1 0 0 1-1-1Z"/>
    <path fill="#B9CFEE" fill-rule="nonzero" d="M19.57 3.35v4.506c0 .868.703 1.572 1.571 1.572H25.5c.95 0 1.318.675 1.5 1.572-.104-.651-.328-1.292-.8-1.764L20 2.88c-.47-.47-1.351-.776-2-.88.896.183 1.57.4 1.57 1.35Z"/>
    <path fill="#2D3138" d="m14.139 12 3.543 8H16.02l-.84-1.882h-3.428L10.923 20H9.25l3.554-8h1.335Zm-.667 2.255-1.056 2.384h2.111l-1.055-2.384Zm7.01.245c.317 0 .6.036.852.108.26.072.478.19.658.356a1.5 1.5 0 0 1 .42.647c.101.266.152.593.152.981v3.354H21.41l-.032-.334c-.151.122-.32.219-.507.29a1.903 1.903 0 0 1-.626.098c-.31 0-.586-.047-.83-.14a1.845 1.845 0 0 1-.626-.388 1.695 1.695 0 0 1-.399-.594 1.986 1.986 0 0 1-.14-.755c0-.273.047-.524.14-.754.1-.23.238-.425.41-.583.18-.165.388-.29.625-.377a2.24 2.24 0 0 1 .81-.14 2.494 2.494 0 0 1 1.1.248c0-.194-.033-.345-.098-.453a.548.548 0 0 0-.226-.248.763.763 0 0 0-.302-.108 2.458 2.458 0 0 0-.324-.022c-.187 0-.424.033-.712.097a3.573 3.573 0 0 0-.916.335v-1.251c.266-.137.55-.23.852-.28.309-.058.6-.087.873-.087Zm-.172 2.901c-.266 0-.471.072-.615.216a.712.712 0 0 0-.205.506c0 .209.072.385.216.529.15.144.352.216.604.216.388 0 .73-.187 1.024-.561v-.658a2.265 2.265 0 0 0-1.024-.248Z"/>
  </g>
</svg>
