<svg width="16" height="16" fill="none" viewBox="0 0 16 16" xmlns="http://www.w3.org/2000/svg">
  <circle cx="8" cy="8" r="8" fill="#fff"/>
  <path fill="#9BC225" d="M8 15A7 7 0 1 1 8 1a7 7 0 0 1 0 14Z"/>
  <path fill="#fff" d="M9.029 5.386A3 3 0 0 0 3.5 7v4a1 1 0 0 0 1 1l3.268.001A1.99 1.99 0 0 1 7.5 11V8l.007-.209a3 3 0 0 1 .164-.79L4.5 7a2 2 0 0 1 3.745-.978 2.96 2.96 0 0 1 .784-.636Z"/>
  <path fill="#fff" fill-rule="evenodd" d="M10.5 6a2 2 0 0 1 2 2v3a1 1 0 0 1-1 1h-2a1 1 0 0 1-1-1V8a2 2 0 0 1 2-2Zm0 1a1 1 0 0 0-1 1v.5h2V8a1 1 0 0 0-1-1Z" clip-rule="evenodd"/>
</svg>
