<svg width="16" height="16" fill="currentColor" viewBox="0 0 16 16" xmlns="http://www.w3.org/2000/svg">
  <g fill="none">
    <path fill="#92BD11" d="M8 15.5a7.5 7.5 0 1 1 0-15 7.5 7.5 0 0 1 0 15Z"/>
    <path fill="#FFF" d="M8 0a8 8 0 1 1 0 16A8 8 0 0 1 8 0Zm0 1a7 7 0 1 0 0 14A7 7 0 0 0 8 1ZM6.5 4c1.063 0 1.996.552 2.529 1.386a2.993 2.993 0 0 0-.784.636A2 2 0 0 0 4.5 7h3.17c-.088.25-.144.516-.163.791L7.5 8v3c0 .365.098.707.268 1.001L4.5 12a1 1 0 0 1-1-1V7a3 3 0 0 1 3-3Zm4 2a2 2 0 0 1 2 2v3a1 1 0 0 1-1 1h-2a1 1 0 0 1-1-1V8a2 2 0 0 1 2-2Zm0 1a1 1 0 0 0-1 1v.5h2V8a1 1 0 0 0-1-1Z"/>
  </g>
</svg>
