<svg width="32" height="32" fill="currentColor" viewBox="0 0 32 32" xmlns="http://www.w3.org/2000/svg">
  <g fill="none" fill-rule="evenodd">
    <path fill="#EEF4FD" fill-rule="nonzero" d="M6 30h20a1 1 0 0 0 1-1V11.325a3.2 3.2 0 0 0-.937-2.262l-6.126-6.126A3.2 3.2 0 0 0 17.674 2H6a1 1 0 0 0-1 1v26a1 1 0 0 0 1 1Z"/>
    <path fill="#4875B3" fill-opacity=".08" d="M17.674 2a3.2 3.2 0 0 1 2.263.937l6.126 6.126c.6.6.937 1.414.937 2.262V29a1 1 0 0 1-1 1H6a1 1 0 0 1-1-1V3a1 1 0 0 1 1-1h11.674Zm0 1H6v26h20V11.325a2.2 2.2 0 0 0-.644-1.555L19.23 3.644A2.2 2.2 0 0 0 17.674 3Z"/>
    <path fill="#BBD1F0" fill-rule="nonzero" d="M5 28v1a1 1 0 0 0 1 1h20a1 1 0 0 0 1-1v-1a1 1 0 0 1-1 1H6a1 1 0 0 1-1-1Z"/>
    <path fill="#B9CFEE" fill-rule="nonzero" d="M19.57 3.35v4.506c0 .868.703 1.572 1.571 1.572H25.5c.95 0 1.318.675 1.5 1.572-.104-.651-.328-1.292-.8-1.764L20 2.88c-.47-.47-1.351-.776-2-.88.896.183 1.57.4 1.57 1.35Z"/>
    <path fill="#488CD3" fill-rule="nonzero" d="M10.532 18.499c.931-.93 1.794-1.114 2.968-.999l1 1c.115 1.174.032 2.139-.9 3.067-.882.884-2.983 1.064-4.35.853.82-.92.4-3.038 1.282-3.921Z"/>
    <path fill="#0A4187" fill-rule="nonzero" d="M20.983 10.983c-.422-.422-1.067-.523-1.576-.213-1.369.833-4.028 2.677-5.556 5.223l.004.005-.666 1.28a.3.3 0 0 0 .054.35l1.103 1.103a.3.3 0 0 0 .35.054l1.28-.666-.004-.005c2.546-1.527 4.39-4.187 5.223-5.556.31-.51.21-1.153-.212-1.575Z"/>
  </g>
</svg>
