<svg width="32" height="32" fill="currentColor" viewBox="0 0 32 32" xmlns="http://www.w3.org/2000/svg">
  <g fill="none">
    <path fill="#6DA3DC" d="M6 3.25C6 2.56 6.56 2 7.25 2h17.5c.69 0 1.25.56 1.25 1.25v25.5c0 .69-.56 1.25-1.25 1.25H7.25C6.56 30 6 29.44 6 28.75V3.25Z"/>
    <path fill="#BCD2F1" d="M7 3.5a.5.5 0 0 1 .5-.5h17a.5.5 0 0 1 .5.5v25a.5.5 0 0 1-.5.5h-17a.5.5 0 0 1-.5-.5v-25Z"/>
    <path fill="#F0F6FF" d="M9.5 25.5a1 1 0 1 1 0 2 1 1 0 0 1 0-2Zm13 0a1 1 0 1 1 0 2 1 1 0 0 1 0-2ZM16 5.5a7.5 7.5 0 0 1 4.894 13.183l.866 2.598c.175.524-.117 1.082-.59 1.368a4.507 4.507 0 0 0-2.06 2.859c-.122.539-.558.992-1.11.992h-4c-.552 0-.989-.453-1.11-.992a4.506 4.506 0 0 0-3.398-3.398c-.539-.122-.992-.558-.992-1.11v-8A7.5 7.5 0 0 1 16 5.5Zm-6.5-1a1 1 0 1 1 0 2 1 1 0 0 1 0-2Zm13 0a1 1 0 1 1 0 2 1 1 0 0 1 0-2Z"/>
    <path fill="#BCD2F1" d="M11 17.143a6.487 6.487 0 0 0 5.05 2.407 6.475 6.475 0 0 0 2.808-.636l.497 1.613c.08.262-.068.536-.312.66-.881.453-1.39 1.296-1.514 2.314-.033.274-.253.499-.529.499h-1.214c-.276 0-.498-.226-.56-.495-.345-1.514-2.152-3.227-3.73-3.544-.27-.054-.496-.276-.496-.552Zm5.05-7.593a3.5 3.5 0 1 1 0 7 3.5 3.5 0 0 1 0-7Z"/>
    <path fill="#255BA2" d="M26 28v1a1 1 0 0 1-1 1H7a1 1 0 0 1-1-1v-1a1 1 0 0 0 1 1h18a1 1 0 0 0 1-1ZM9.517 26.017l.032.012.333.192a.1.1 0 0 1 .044.052l.006.035v.384a.1.1 0 0 1-.023.064l-.027.023-.333.192a.098.098 0 0 1-.067.012l-.033-.012-.333-.192a.1.1 0 0 1-.044-.052l-.006-.035v-.384a.1.1 0 0 1 .024-.065l.026-.022.333-.192.033-.012h.035Zm13.032.012.333.192a.1.1 0 0 1 .044.052l.006.035v.384a.1.1 0 0 1-.023.064l-.027.023-.333.192a.1.1 0 0 1-.067.012l-.033-.012-.333-.192a.1.1 0 0 1-.044-.052l-.006-.035v-.384a.1.1 0 0 1 .024-.065l.026-.022.333-.192.033-.012h.035ZM9.517 5.017l.032.012.333.192a.1.1 0 0 1 .044.052l.006.035v.384a.1.1 0 0 1-.023.064l-.027.023-.333.192a.1.1 0 0 1-.067.012l-.033-.012-.333-.192a.1.1 0 0 1-.044-.052l-.006-.035v-.384a.1.1 0 0 1 .024-.065l.026-.022.333-.192.033-.012h.035Zm13 0 .032.012.333.192a.1.1 0 0 1 .044.052l.006.035v.384a.1.1 0 0 1-.023.064l-.027.023-.333.192a.098.098 0 0 1-.067.012l-.033-.012-.333-.192a.1.1 0 0 1-.044-.052l-.006-.035v-.384a.1.1 0 0 1 .024-.065l.026-.022.333-.192.033-.012h.035Z"/>
  </g>
</svg>
