<svg width="72" height="72" fill="none" viewBox="0 0 72 72" xmlns="http://www.w3.org/2000/svg">
  <path fill="#CACACA" d="M48.634 64.091H23.366a.911.911 0 0 1 0-1.822h3.505c1.535-.563 2.29-2.036 2.25-4.348a7.717 7.717 0 0 0-.147-1.125l-26.578.017A2.386 2.386 0 0 1 0 54.41l.14-6.599h.563l-.14 6.599a1.828 1.828 0 0 0 1.833 1.839h26.95l.04.236c.13.477.228.962.292 1.452.05 2.564-.872 4.258-2.667 4.904h-3.645a.349.349 0 1 0 0 .698h25.268a.349.349 0 1 0 0-.697h-3.645c-1.795-.647-2.717-2.34-2.666-4.906a8.78 8.78 0 0 1 .163-1.4l.04-.287h26.948a1.822 1.822 0 0 0 1.823-1.822v-6.615h.562v6.637c0 1.316-.793 2.362-2.109 2.362H42.986a7.314 7.314 0 0 0-.1 1.126c-.046 2.311.708 3.768 2.25 4.348h3.503a.911.911 0 1 1 0 1.822l-.005-.017Z"/>
  <path fill="#B1B0B0" d="M46.614 62.826c-6.12-.237-3.42-8.438-3.42-8.438l-6.75-.214h-.843l-6.75.214s2.7 8.224-3.42 8.438c-.753.016-1.505.076-2.25.18h25.66a19.287 19.287 0 0 0-2.227-.18Z"/>
  <path fill="#989796" d="M42.604 57.937c.041-1.203.24-2.396.59-3.549l-6.75-.214h-.843l-6.75.214c.34 1.154.53 2.347.562 3.55h13.19Z"/>
  <path fill="#595551" d="M72 47.813V9.978a2.1 2.1 0 0 0-2.104-2.104H2.104A2.098 2.098 0 0 0 0 9.979v37.834h72Z"/>
  <path fill="#E3E3E3" d="M.422 47.813v6.316a2.103 2.103 0 0 0 2.104 2.121h66.937a2.104 2.104 0 0 0 2.104-2.104v-6.334H.422Z"/>
  <path fill="#67ACE3" d="M68.625 11.25H2.942V45h65.683V11.25Z"/>
  <path fill="#000" d="M68.625 11.245H2.942v.843h65.683v-.843Z" opacity=".1"/>
  <path fill="#fff" d="M72 49.562V9.979a2.096 2.096 0 0 0-2.103-2.104H2.103C.94 7.875 72 49.562 72 49.562Z" opacity=".1"/>
  <path fill="#595551" d="M37.356 52.234a1.355 1.355 0 1 1-2.71 0 1.355 1.355 0 0 1 2.71 0Z"/>
  <path fill="#E3E3E3" d="M49.264 63.18a.63.63 0 0 1-.63.63H23.366a.63.63 0 0 1 0-1.26h25.268a.63.63 0 0 1 .63.63Z"/>
  <path fill="#30261B" d="M36.562 9.563a.53.53 0 1 1-1.058.01.53.53 0 0 1 1.058-.01Z"/>
</svg>
