<svg width="16" height="16" fill="none" viewBox="0 0 16 16" xmlns="http://www.w3.org/2000/svg">
  <rect width="13" height="13" x="1.5" y="1.5" fill="#4875B3" stroke="#fff" rx="6.5"/>
  <path fill="#fff" d="M5.6 8.004c0-1.3 1.1-2.3 2.3-2.3v.8c0 .2.3.4.5.2l1.9-1.4c.2-.1.2-.4 0-.5l-1.9-1.4c-.2-.2-.4-.1-.4.2v.7c-2.1 0-3.7 1.7-3.7 3.7 0 .4.1.8.2 1.1.1.3.4.5.8.4.3-.1.5-.5.4-.8-.1-.2-.1-.5-.1-.7Zm6 0c0-.3 0-.5-.1-.8-.1-.4-.4-.6-.8-.5-.3.1-.5.4-.5.8.1.1.1.3.1.5 0 1.1-.7 2-1.7 2.2v-.6c0-.3-.3-.4-.5-.3l-1.8 1.3c-.2.1-.2.4 0 .5l1.9 1.5c.2.2.5 0 .5-.2v-.8c1.6-.4 2.9-1.8 2.9-3.6Z"/>
</svg>
