<svg width="96" height="96" fill="none" viewBox="0 0 96 96" xmlns="http://www.w3.org/2000/svg">
  <path fill="#CED2D9" d="M15 19a3 3 0 0 0-3 3v49H5a1 1 0 0 0-1 1v3a2 2 0 0 0 2 2h84a2 2 0 0 0 2-2v-3a1 1 0 0 0-1-1h-7V22a3 3 0 0 0-3-3H15Z"/>
  <path fill="#B4B8BF" d="M4 74v1a2 2 0 0 0 2 2h84a2 2 0 0 0 2-2v-1a2 2 0 0 1-2 2H6a2 2 0 0 1-2-2Z"/>
  <path fill="url(#laptop-macBook-enabled-ill--96_svg__a)" d="M37 71h22a2 2 0 0 1-2 2H39a2 2 0 0 1-2-2Z"/>
  <path fill="url(#laptop-macBook-enabled-ill--96_svg__b)" d="M14 22h68v47H14V22Z"/>
  <g fill="#FAFCFF" clip-path="url(#laptop-macBook-enabled-ill--96_svg__c)">
    <path d="M49.874 40.962c.538-.272 1.13-.57 1.998-.57 1.15 0 3.049 1.018 3.814 2.167-1.456.552-2.49 1.947-2.49 3.58 0 1.648 1.053 3.053 2.531 3.594a12.85 12.85 0 0 1-1.107 2.072c-.74 1.16-1.754 2.625-3.051 2.635-.533.005-.892-.158-1.278-.333-.449-.204-.935-.425-1.776-.418-.834.004-1.302.221-1.732.421-.376.175-.723.336-1.26.33-1.894 0-5.25-4.222-5.25-8.027 0-4.182 2.836-5.957 4.701-5.958.719 0 1.345.258 1.942.504.542.223 1.06.436 1.6.436.5 0 .91-.207 1.358-.433Zm1.203-2.028c-.976.964-2.25 1.388-3.335 1.218l-.001.001c-.173-1.072.257-2.331 1.233-3.296.976-.965 2.25-1.389 3.335-1.218l.001-.001c.173 1.071-.257 2.331-1.233 3.296Z"/>
  </g>
  <path fill="url(#laptop-macBook-enabled-ill--96_svg__d)" d="M31.515 22H82v42.913H56.242L31.515 22Z" opacity=".15"/>
  <path fill="url(#laptop-macBook-enabled-ill--96_svg__e)" d="M49.03 22H82v23.5H63.58L49.03 22Z" opacity=".25"/>
  <path fill="url(#laptop-macBook-enabled-ill--96_svg__f)" fill-rule="evenodd" d="M81 23H15v45h66V23Zm-67-1v47h68V22H14Z" clip-rule="evenodd" opacity=".2"/>
  <path fill="#434C59" fill-rule="evenodd" d="M12 22a3 3 0 0 1 3-3h66a3 3 0 0 1 3 3v49H12V22Zm70 0v47H14V22h28.625c.552 0 .98.474 1.245.959A2 2 0 0 0 45.625 24h4.75a2 2 0 0 0 1.755-1.041c.266-.485.693-.959 1.245-.959H82Z" clip-rule="evenodd"/>
  <path fill="#6C7480" d="M15 19a3 3 0 0 0-3 3v1a3 3 0 0 1 3-3h66a3 3 0 0 1 3 3v-1a3 3 0 0 0-3-3H15Z"/>
  <defs>
    <linearGradient id="laptop-macBook-enabled-ill--96_svg__a" x1="48" x2="48" y1="71" y2="73" gradientUnits="userSpaceOnUse">
      <stop stop-color="#A1A8B2"/>
      <stop offset="1" stop-color="#FAFCFF"/>
    </linearGradient>
    <linearGradient id="laptop-macBook-enabled-ill--96_svg__b" x1="15.03" x2="81.67" y1="67.978" y2="24.558" gradientUnits="userSpaceOnUse">
      <stop stop-color="#40A9FF"/>
      <stop offset="1" stop-color="#A6D7FF"/>
    </linearGradient>
    <linearGradient id="laptop-macBook-enabled-ill--96_svg__d" x1="43.879" x2="43.879" y1="22" y2="64.913" gradientUnits="userSpaceOnUse">
      <stop stop-color="#fff"/>
      <stop offset="1" stop-color="#EBEBEB" stop-opacity="0"/>
    </linearGradient>
    <linearGradient id="laptop-macBook-enabled-ill--96_svg__e" x1="56.758" x2="56.758" y1="22" y2="45.5" gradientUnits="userSpaceOnUse">
      <stop stop-color="#fff"/>
      <stop offset="1" stop-color="#fff" stop-opacity="0"/>
    </linearGradient>
    <linearGradient id="laptop-macBook-enabled-ill--96_svg__f" x1="48" x2="48" y1="22" y2="69" gradientUnits="userSpaceOnUse">
      <stop stop-color="#1D2026"/>
      <stop offset="1" stop-color="#1D2026" stop-opacity="0"/>
    </linearGradient>
    <clipPath id="laptop-macBook-enabled-ill--96_svg__c">
      <path fill="#fff" d="M37.697 35.283h20.606v20.435H37.697z"/>
    </clipPath>
  </defs>
</svg>
