<svg width="96" height="96" fill="none" viewBox="0 0 96 96" xmlns="http://www.w3.org/2000/svg">
  <path fill="#434C59" d="M15 19a3 3 0 0 0-3 3v49H5a1 1 0 0 0-1 1v3a2 2 0 0 0 2 2h84a2 2 0 0 0 2-2v-3a1 1 0 0 0-1-1h-7V22a3 3 0 0 0-3-3H15Z"/>
  <path fill="#303640" d="M4 73v2a2 2 0 0 0 2 2h84a2 2 0 0 0 2-2v-2a2 2 0 0 1-2 2H6a2 2 0 0 1-2-2Z"/>
  <path fill="#6C7480" d="M4 72a1 1 0 0 1 1-1h86a1 1 0 0 1 1 1H4Zm11-53a3 3 0 0 0-3 3v1a3 3 0 0 1 3-3h66a3 3 0 0 1 3 3v-1a3 3 0 0 0-3-3H15Z"/>
  <path fill="#82E03D" d="M84 73.5a.5.5 0 0 1 .5-.5h3a.5.5 0 0 1 0 1h-3a.5.5 0 0 1-.5-.5Z"/>
  <path fill="url(#laptop-linux-enabled-ill--96_svg__a)" d="M37 71h22a2 2 0 0 1-2 2H39a2 2 0 0 1-2-2Z"/>
  <path fill="url(#laptop-linux-enabled-ill--96_svg__b)" d="M15 23h66v46H15V23Z"/>
  <path fill="#FAFCFF" d="M32.413 51v-8.727h2.109v7.014h3.63V51h-5.74Zm6.832 0v-6.545h2.083V51h-2.084Zm1.044-7.308a1.08 1.08 0 0 1-.755-.29.933.933 0 0 1-.315-.707c0-.273.105-.506.315-.7.21-.195.462-.293.755-.293.295 0 .546.098.754.294.21.193.315.426.315.699a.933.933 0 0 1-.315.707 1.07 1.07 0 0 1-.755.29Zm4.45 3.575V51h-2.084v-6.545h1.981v1.201h.073c.144-.4.392-.714.741-.941.35-.23.766-.346 1.249-.346.46 0 .86.104 1.197.311.341.205.605.492.793.861.19.367.284.796.281 1.287V51h-2.084v-3.763c.003-.363-.09-.648-.277-.852-.184-.205-.442-.307-.771-.307a1.14 1.14 0 0 0-.58.145.96.96 0 0 0-.383.405 1.443 1.443 0 0 0-.136.639Zm9.744.908v-3.72h2.08V51h-1.986v-1.219h-.068c-.145.4-.392.719-.742.955-.346.233-.765.35-1.257.35-.446 0-.838-.103-1.176-.308a2.09 2.09 0 0 1-.788-.856c-.188-.37-.283-.801-.286-1.296v-4.171h2.084v3.762c.003.355.096.635.281.84.185.204.436.307.754.307.208 0 .394-.046.559-.137a.997.997 0 0 0 .396-.405c.1-.178.15-.395.15-.647Zm5.179-3.72 1.078 2.156 1.116-2.156h2.101l-1.828 3.272L64.025 51h-2.083l-1.202-2.173L59.568 51h-2.114l1.9-3.273-1.806-3.272h2.114Z"/>
  <path fill="url(#laptop-linux-enabled-ill--96_svg__c)" d="M32 23h49v42H56L32 23Z" opacity=".15"/>
  <path fill="url(#laptop-linux-enabled-ill--96_svg__d)" d="M49 23h32v23H63.122L49 23Z" opacity=".25"/>
  <path fill="url(#laptop-linux-enabled-ill--96_svg__e)" fill-rule="evenodd" d="M80 24H16v44h64V24Zm-65-1v46h66V23H15Z" clip-rule="evenodd" opacity=".2"/>
  <defs>
    <linearGradient id="laptop-linux-enabled-ill--96_svg__a" x1="46" x2="46" y1="71" y2="73" gradientUnits="userSpaceOnUse">
      <stop stop-color="#A1A8B2"/>
      <stop offset="0" stop-color="#84817F"/>
      <stop offset="1" stop-color="#92918F"/>
    </linearGradient>
    <linearGradient id="laptop-linux-enabled-ill--96_svg__b" x1="16" x2="81" y1="68" y2="26" gradientUnits="userSpaceOnUse">
      <stop stop-color="#40A9FF"/>
      <stop offset="1" stop-color="#A6D7FF"/>
    </linearGradient>
    <linearGradient id="laptop-linux-enabled-ill--96_svg__c" x1="44" x2="44" y1="23" y2="65" gradientUnits="userSpaceOnUse">
      <stop stop-color="#fff"/>
      <stop offset="1" stop-color="#EBEBEB" stop-opacity="0"/>
    </linearGradient>
    <linearGradient id="laptop-linux-enabled-ill--96_svg__d" x1="56.5" x2="56.5" y1="23" y2="46" gradientUnits="userSpaceOnUse">
      <stop stop-color="#fff"/>
      <stop offset="1" stop-color="#fff" stop-opacity="0"/>
    </linearGradient>
    <linearGradient id="laptop-linux-enabled-ill--96_svg__e" x1="48" x2="48" y1="23" y2="69" gradientUnits="userSpaceOnUse">
      <stop stop-color="#1D2026"/>
      <stop offset="1" stop-color="#1D2026" stop-opacity="0"/>
    </linearGradient>
  </defs>
</svg>
