<svg width="16" height="16" fill="currentColor" viewBox="0 0 16 16" xmlns="http://www.w3.org/2000/svg">
  <g fill="none">
    <path fill="#D92C33" d="M8 15.5a7.5 7.5 0 1 1 0-15 7.5 7.5 0 0 1 0 15Z"/>
    <path fill="#FFF" d="M8 0a8 8 0 1 1 0 16A8 8 0 0 1 8 0Zm0 1a7 7 0 1 0 0 14A7 7 0 0 0 8 1Zm1.826 2.2a2.99 2.99 0 1 1-.47 5.943c-.395-.063-.816.009-1.099.291l-2.379 2.38a1 1 0 0 1-.766.29l-.275-.015a1 1 0 0 1-.939-.94l-.016-.274a1 1 0 0 1 .29-.767l2.4-2.4c.279-.277.353-.692.296-1.082A2.99 2.99 0 0 1 9.826 3.2Zm.8 1.2a.997.997 0 1 0 0 1.993.997.997 0 0 0 0-1.993Z"/>
  </g>
</svg>
