<svg width="32" height="32" fill="none" viewBox="0 0 32 32" xmlns="http://www.w3.org/2000/svg">
  <circle cx="16" cy="16" r="13" fill="#EA3939"/>
  <circle cx="16" cy="16" r="12.5" stroke="#243143" stroke-opacity=".1"/>
  <path fill="#fff" fill-rule="evenodd" d="M17.5 18a4.5 4.5 0 1 0-3.941-2.326l-3.943 3.942a1.25 1.25 0 0 0 1.768 1.768l.5-.5 1.012 1.012a.5.5 0 0 0 .708 0l1.292-1.292a.5.5 0 0 0 0-.708l-1.012-1.012 1.442-1.443A4.48 4.48 0 0 0 17.5 18Zm0-2.5a2 2 0 1 0 0-4 2 2 0 0 0 0 4Z" clip-rule="evenodd"/>
</svg>
