<svg width="32" height="32" fill="currentColor" viewBox="0 0 32 32" xmlns="http://www.w3.org/2000/svg">
  <g fill="none">
    <path fill="#505764" d="M9 3.25C9 2.56 9.56 2 10.25 2h11.5c.69 0 1.25.56 1.25 1.25v25.5c0 .69-.56 1.25-1.25 1.25h-11.5C9.56 30 9 29.44 9 28.75V3.25Z"/>
    <path fill="#6DA3DC" d="M10 3.5a.5.5 0 0 1 .5-.5h2.191a.5.5 0 0 1 .447.276l.086.171a1 1 0 0 0 .894.553h3.764a1 1 0 0 0 .894-.553l.155-.309A.25.25 0 0 1 19.154 3H21.5a.5.5 0 0 1 .5.5v25a.5.5 0 0 1-.5.5h-11a.5.5 0 0 1-.5-.5v-25Z"/>
    <path fill="#FFF" d="M22 2H10l13 23V3a1 1 0 0 0-1-1Z" opacity=".25"/>
  </g>
</svg>
