<svg width="16" height="16" fill="currentColor" viewBox="0 0 16 16" xmlns="http://www.w3.org/2000/svg">
  <g fill="none">
    <path fill="#92BD11" d="M8 15.5a7.5 7.5 0 1 1 0-15 7.5 7.5 0 0 1 0 15Z"/>
    <path fill="#FFF" d="M8 0a8 8 0 1 1 0 16A8 8 0 0 1 8 0Zm0 1a7 7 0 1 0 0 14A7 7 0 0 0 8 1Zm-.987 2.5h1.974c.59.005.927.027 1.194.163a1.5 1.5 0 0 1 .655.656c.15.294.163.672.164 1.38V10.1c0 .84 0 1.26-.164 1.581a1.5 1.5 0 0 1-.655.655c-.294.15-.672.163-1.38.164H7.4c-.84 0-1.26 0-1.581-.164a1.5 1.5 0 0 1-.656-.655c-.136-.267-.158-.604-.162-1.194V5.513c.004-.59.026-.927.162-1.194a1.5 1.5 0 0 1 .656-.656c.267-.136.604-.158 1.194-.162h1.974Zm1.487 7h-1a.5.5 0 0 0 0 1h1a.5.5 0 0 0 0-1Z"/>
  </g>
</svg>
