<svg width="72" height="72" fill="none" viewBox="0 0 72 72" xmlns="http://www.w3.org/2000/svg">
  <path fill="#BDC1C7" d="M5.5 64a.5.5 0 0 0-.5.5v3a.5.5 0 0 0 .5.5h61a.5.5 0 0 0 .5-.5v-3a.5.5 0 0 0-.5-.5h-61Z"/>
  <path fill="#243143" d="M5 66h62v1.5a.5.5 0 0 1-.5.5h-61a.5.5 0 0 1-.5-.5V66Z" opacity=".1"/>
  <path fill="#243143" d="M5 67h62v.5a.5.5 0 0 1-.5.5h-61a.5.5 0 0 1-.5-.5V67Z" opacity=".1"/>
  <path fill="#243143" d="M5 64.5a.5.5 0 0 1 .5-.5h61a.5.5 0 0 1 .5.5v.5H5v-.5Z" opacity=".05"/>
  <path fill="#243143" d="M24 64h24v4H24v-4Z" opacity=".05"/>
  <path fill="#243143" d="M25 64h22v4H25v-4Z" opacity=".05"/>
  <path fill="#243143" d="M26 64h20v4H26v-4Z" opacity=".05"/>
  <path fill="#BDC1C7" d="M27 63a1 1 0 0 1 1-1h16a1 1 0 0 1 1 1v6a1 1 0 0 1-1 1H28a1 1 0 0 1-1-1v-6Z"/>
  <path fill="#243143" d="M27 66v3a1 1 0 0 0 1 1h16a1 1 0 0 0 1-1v-3a1 1 0 0 1-1 1H28a1 1 0 0 1-1-1Z" opacity=".1"/>
  <path fill="#243143" d="M27 67v2a1 1 0 0 0 1 1h16a1 1 0 0 0 1-1v-2a1 1 0 0 1-1 1H28a1 1 0 0 1-1-1Z" opacity=".1"/>
  <path fill="#243143" d="M27 68v1a1 1 0 0 0 1 1h16a1 1 0 0 0 1-1v-1a1 1 0 0 1-1 1H28a1 1 0 0 1-1-1Z" opacity=".1"/>
  <path fill="#243143" d="M28 62a1 1 0 0 0-1 1v2a1 1 0 0 1 1-1h16a1 1 0 0 1 1 1v-2a1 1 0 0 0-1-1H28Z" opacity=".05"/>
  <path fill="#243143" d="M28 62a1 1 0 0 0-1 1v1a1 1 0 0 1 1-1h16a1 1 0 0 1 1 1v-1a1 1 0 0 0-1-1H28Z" opacity=".05"/>
  <path fill="#fff" d="M27 63a1 1 0 0 1 1-1v8a1 1 0 0 1-1-1v-6Zm17-1a1 1 0 0 1 1 1v6a1 1 0 0 1-1 1v-8Z" opacity=".15"/>
  <path fill="#BDC1C7" d="M34 55h4v9h-4v-9Z"/>
  <path fill="#243143" d="M36 55h2v8h-2v-8Z" opacity=".1"/>
  <path fill="#243143" d="M37 55h1v7.5a.5.5 0 0 1-.5.5H37v-8Z" opacity=".1"/>
  <path fill="#243143" d="M34 55h1v8h-.5a.5.5 0 0 1-.5-.5V55Z" opacity=".05"/>
  <path fill="#243143" d="M34 55h4v3h-4v-3Z" opacity=".1"/>
  <path fill="#243143" d="M34 55h4v2h-4v-2Z" opacity=".1"/>
  <path fill="#243143" d="M34 55h4v1h-4v-1Z" opacity=".2"/>
  <g filter="url(#network-folder-ill--72_svg__a)" opacity=".2">
    <path fill="#243143" d="M34 62h-.5a.5.5 0 0 0-.5.5v.5a1 1 0 0 0 1 1h4a1 1 0 0 0 1-1v-.5a.5.5 0 0 0-.5-.5H38v.5a.5.5 0 0 1-.5.5h-3a.5.5 0 0 1-.5-.5V62Z"/>
  </g>
  <path fill="#fff" d="M34 64a1 1 0 0 1-1-1v1a1 1 0 0 0 1 1h4a1 1 0 0 0 1-1v-1a1 1 0 0 1-1 1h-4Z" opacity=".3"/>
  <path fill="#F5CB63" d="M5 7v18h62V13a4 4 0 0 0-4-4H35.873a4 4 0 0 1-3.072-1.44l-2.602-3.12A4 4 0 0 0 27.126 3H9a4 4 0 0 0-4 4Z"/>
  <path fill="url(#network-folder-ill--72_svg__b)" d="M5 7v18h62V13a4 4 0 0 0-4-4H35.873a4 4 0 0 1-3.072-1.44l-2.602-3.12A4 4 0 0 0 27.126 3H9a4 4 0 0 0-4 4Z" opacity=".1"/>
  <path fill="#fff" d="M5 8V7a4 4 0 0 1 4-4h18.127a4 4 0 0 1 3.072 1.44l2.602 3.12A4 4 0 0 0 35.873 9H63a4 4 0 0 1 4 4v1a4 4 0 0 0-4-4H35.873a4 4 0 0 1-3.072-1.44l-2.602-3.12A4 4 0 0 0 27.126 4H9a4 4 0 0 0-4 4Z" opacity=".3"/>
  <path fill="#D6A948" fill-opacity=".6" d="M67 16.977A3.364 3.364 0 0 0 64.625 16H7.375c-.926 0-1.765.373-2.375.977v2A3.364 3.364 0 0 1 7.375 18h57.25c.926 0 1.765.373 2.375.977v-2Z"/>
  <path fill="#CE983A" fill-opacity=".4" d="M67 17.977A3.364 3.364 0 0 0 64.625 17H7.375c-.926 0-1.765.373-2.375.977v1A3.364 3.364 0 0 1 7.375 18h57.25c.926 0 1.765.373 2.375.977v-1ZM4 21.375V21h.02c-.013.123-.02.248-.02.375Z"/>
  <path fill="#F5CB63" d="M64.625 18H7.375A3.375 3.375 0 0 0 4 21.375v30.25A3.375 3.375 0 0 0 7.375 55h57.25A3.375 3.375 0 0 0 68 51.625v-30.25A3.375 3.375 0 0 0 64.625 18Z"/>
  <path fill="#F9E08B" d="M7.375 18h57.25A3.375 3.375 0 0 1 68 21.375v1A3.375 3.375 0 0 0 64.625 19H7.375A3.375 3.375 0 0 0 4 22.375v-1A3.375 3.375 0 0 1 7.375 18Z"/>
  <path fill="#DCB759" d="M4 50.625v1A3.375 3.375 0 0 0 7.375 55h57.25A3.375 3.375 0 0 0 68 51.625v-1A3.375 3.375 0 0 1 64.625 54H7.375A3.375 3.375 0 0 1 4 50.625Z"/>
  <defs>
    <linearGradient id="network-folder-ill--72_svg__b" x1="36" x2="36" y1="11.684" y2="3" gradientUnits="userSpaceOnUse">
      <stop/>
      <stop offset="1" stop-opacity=".4"/>
    </linearGradient>
    <filter id="network-folder-ill--72_svg__a" width="14" height="10" x="29" y="62" color-interpolation-filters="sRGB" filterUnits="userSpaceOnUse">
      <feFlood flood-opacity="0" result="BackgroundImageFix"/>
      <feColorMatrix in="SourceAlpha" values="0 0 0 0 0 0 0 0 0 0 0 0 0 0 0 0 0 0 127 0"/>
      <feOffset dy="4"/>
      <feGaussianBlur stdDeviation="2"/>
      <feColorMatrix values="0 0 0 0 0 0 0 0 0 0 0 0 0 0 0 0 0 0 0.25 0"/>
      <feBlend in2="BackgroundImageFix" result="effect1_dropShadow"/>
      <feBlend in="SourceGraphic" in2="effect1_dropShadow" result="shape"/>
    </filter>
  </defs>
</svg>
