<svg width="32" height="32" fill="currentColor" viewBox="0 0 32 32" xmlns="http://www.w3.org/2000/svg">
  <g fill="none" fill-rule="evenodd">
    <path fill="#FFE2A7" d="M2 6a1 1 0 0 1 1-1h10.11a2 2 0 0 1 1.395.567l1.39 1.352a.75.75 0 0 0 .523.213H29a1 1 0 0 1 1 1V26a1 1 0 0 1-1 1H3a1 1 0 0 1-1-1V6Z"/>
    <path fill="#FFDA8E" d="M13.11 5a2 2 0 0 1 1.395.567l1.39 1.352a.75.75 0 0 0 .523.213H29a1 1 0 0 1 1 1V26a1 1 0 0 1-1 1H3a1 1 0 0 1-1-1V6a1 1 0 0 1 1-1Zm0 1H3v20h26V8.132H16.418a1.75 1.75 0 0 1-1.22-.496l-1.39-1.353A1 1 0 0 0 13.11 6Z"/>
    <path fill="#E6C480" fill-rule="nonzero" d="M2 25v1a1 1 0 0 0 1 1h26a1 1 0 0 0 1-1v-1a1 1 0 0 1-1 1H3a1 1 0 0 1-1-1Z"/>
    <path fill="#D92C33" d="m16.73 10.254.104.091.72.721c.19.19.438.309.702.338l.133.008h1.019c.61 0 1.113.464 1.174 1.06l.006.12v1.018c0 .268.09.527.256.735l.09.1.72.72a1.18 1.18 0 0 1 .092 1.566l-.091.103-.722.722a1.18 1.18 0 0 0-.338.701l-.008.133v1.019a1.18 1.18 0 0 1-1.059 1.173l-.12.006h-.083l.566 2.757a.4.4 0 0 1-.521.445l-3.244-1.29a.4.4 0 0 0-.253 0l-3.243 1.29a.4.4 0 0 1-.52-.445l.564-2.757h-.083a1.18 1.18 0 0 1-1.174-1.059l-.006-.12v-1.02a1.18 1.18 0 0 0-.257-.735l-.088-.1-.72-.72a1.18 1.18 0 0 1-.092-1.565l.091-.103.72-.72c.19-.19.308-.437.338-.701l.008-.133v-1.02a1.18 1.18 0 0 1 1.059-1.174l.12-.006h1.02c.268 0 .527-.091.735-.257l.1-.089.72-.72a1.18 1.18 0 0 1 1.566-.092ZM16 12.5a3.5 3.5 0 1 0 0 7 3.5 3.5 0 0 0 0-7Zm0 1a2.5 2.5 0 1 1 0 5 2.5 2.5 0 0 1 0-5Z"/>
  </g>
</svg>
