<svg width="32" height="32" fill="none" viewBox="0 0 32 32" xmlns="http://www.w3.org/2000/svg">
  <path fill="#408BEA" d="M25.521 20.209a.654.654 0 0 1 .958 0l.46.489a.655.655 0 0 0 .631.19l.645-.155a.667.667 0 0 1 .805.533l.131.668a.68.68 0 0 0 .43.511l.624.229c.355.13.535.535.398.896l-.24.635a.703.703 0 0 0 .093.67l.405.539a.7.7 0 0 1-.137.975l-.536.4a.695.695 0 0 0-.273.616l.058.679a.68.68 0 0 1-.627.744l-.661.039a.648.648 0 0 0-.185.038v2.584a.501.501 0 0 1-.686.474L26 31.223l-1.814.74a.501.501 0 0 1-.686-.474v-2.584a.648.648 0 0 0-.185-.038l-.66-.039a.68.68 0 0 1-.628-.744l.058-.68a.695.695 0 0 0-.273-.615l-.537-.4a.7.7 0 0 1-.136-.975l.405-.54a.703.703 0 0 0 .094-.669l-.241-.635a.692.692 0 0 1 .398-.896l.623-.229a.68.68 0 0 0 .43-.51l.132-.669a.667.667 0 0 1 .805-.533l.645.155a.655.655 0 0 0 .63-.19l.461-.49Z"/>
  <path stroke="#243143" stroke-opacity=".1" d="m28.33 28.435-.33.12v2.94l-.001.002-1.81-.738-.189-.077-.189.077-1.81.738v-.002L24 31.489v-2.934l-.33-.12a1.152 1.152 0 0 0-.326-.067l-.66-.039c-.082-.004-.169-.084-.159-.203l.058-.68a1.195 1.195 0 0 0-.472-1.057l-.3.4.3-.4-.536-.4a.2.2 0 0 1-.036-.275l.405-.54a1.2 1.2 0 0 0 .161-1.146l-.24-.635c-.043-.11.018-.22.101-.25l.624-.228c.39-.143.67-.482.75-.885l.13-.668c.022-.113.121-.161.198-.143l.645.155c.405.098.827-.032 1.111-.333l.461-.49a.154.154 0 0 1 .23 0l.46.49.357-.336-.356.336c.284.301.706.431 1.111.334l.645-.156c.077-.018.176.03.198.143l.13.668.486-.095-.485.095c.078.403.359.742.749.885l.624.228c.083.03.144.14.102.25l-.241.635c-.146.383-.086.818.161 1.147l.405.539a.2.2 0 0 1-.036.275l-.536.4c-.33.247-.506.65-.472 1.058l.058.679c.01.12-.077.199-.158.203l-.661.038c-.113.007-.223.03-.327.068Z"/>
  <path fill="#fff" d="M28.5 25a2.5 2.5 0 1 1-5 0 2.5 2.5 0 0 1 5 0Z"/>
</svg>
