<svg width="16" height="16" fill="none" viewBox="0 0 16 16" xmlns="http://www.w3.org/2000/svg">
  <path fill="#4875B3" stroke="#fff" d="m3.598 13.629.073.495-.073-.495a1.011 1.011 0 0 1-1.15-1.13l.087-.672a2.748 2.748 0 0 0-1.084-2.554l-.29.39.29-.39-.544-.405a1.011 1.011 0 0 1-.014-1.612l.537-.414-.306-.396.306.396a2.748 2.748 0 0 0 1.04-2.573l-.1-.669A1.011 1.011 0 0 1 3.5 2.45l.672.086a2.748 2.748 0 0 0 2.554-1.084l.405-.544A1.011 1.011 0 0 1 8.744.893l.414.537a2.747 2.747 0 0 0 2.573 1.04l.67-.099a1.011 1.011 0 0 1 1.15 1.13l-.086.672a2.747 2.747 0 0 0 1.084 2.554l.544.405a1.011 1.011 0 0 1 .014 1.612l-.537.414a2.747 2.747 0 0 0-1.04 2.573l.099.67a1.011 1.011 0 0 1-1.13 1.15l-.672-.086a2.747 2.747 0 0 0-2.554 1.084l-.405.544a1.011 1.011 0 0 1-1.612.014l-.414-.537a2.748 2.748 0 0 0-2.573-1.04l-.67.099Z"/>
  <path fill="#fff" d="M11.465 5.383c-.28-.272-.702-.227-.982.045L6.974 8.965 5.899 7.877c-.28-.272-.702-.318-.982-.046a.686.686 0 0 0-.047.953l1.356 1.36a1.127 1.127 0 0 0 1.544 0l3.742-3.809c.28-.272.233-.68-.047-.952Z"/>
</svg>
