<svg width="32" height="32" fill="none" viewBox="0 0 32 32" xmlns="http://www.w3.org/2000/svg">
  <path fill="#485BD5" d="M30.4 13h-8v8a4.8 4.8 0 1 0 9.6 0v-6.4a1.6 1.6 0 0 0-1.6-1.6Z"/>
  <path fill="#6D81FF" d="M8.8 13v10.126c0 4.26 3.215 7.981 7.467 8.256A8 8 0 0 0 24.8 23.4v-8.8a1.6 1.6 0 0 0-1.6-1.6H8.8Z"/>
  <path fill="#5161CB" d="M16.8 1a4.8 4.8 0 1 0 0 9.6 4.8 4.8 0 0 0 0-9.6Z"/>
  <path fill="#3440A0" d="M27.2 3.4a3.2 3.2 0 1 0 0 6.4 3.2 3.2 0 0 0 0-6.4Z"/>
  <path fill="#2D399A" d="M14.655 24.2H1.345A1.345 1.345 0 0 1 0 22.855V9.545C0 8.803.602 8.2 1.345 8.2h13.31c.743 0 1.345.603 1.345 1.345v13.31c0 .743-.602 1.345-1.345 1.345Z"/>
  <path fill="#fff" d="M11.254 12.2H4.746v1.375h2.437V20.2h1.634v-6.624h2.437V12.2Z"/>
</svg>
