<svg width="16" height="16" fill="currentColor" viewBox="0 0 16 16" xmlns="http://www.w3.org/2000/svg">
  <g fill="none">
    <path fill="#92BD11" d="M8 15.5a7.5 7.5 0 1 1 0-15 7.5 7.5 0 0 1 0 15Z"/>
    <path fill="#FFF" d="M8 0a8 8 0 1 1 0 16A8 8 0 0 1 8 0Zm0 1a7 7 0 1 0 0 14A7 7 0 0 0 8 1Zm.474 2.545.76 2.337a.5.5 0 0 0 .475.346h2.457a.5.5 0 0 1 .294.904l-1.988 1.445a.5.5 0 0 0-.182.559l.76 2.337a.5.5 0 0 1-.77.559l-1.988-1.445a.5.5 0 0 0-.587 0l-1.988 1.445a.5.5 0 0 1-.77-.56l.76-2.336a.5.5 0 0 0-.182-.56L3.537 7.133a.5.5 0 0 1 .294-.904h2.457a.5.5 0 0 0 .476-.346l.759-2.337a.5.5 0 0 1 .951 0Z"/>
  </g>
</svg>
