<svg width="16" height="16" fill="none" viewBox="0 0 16 16" xmlns="http://www.w3.org/2000/svg">
  <circle cx="8" cy="8" r="8" fill="#fff"/>
  <path fill="#9BC225" d="M8 15A7 7 0 1 1 8 1a7 7 0 0 1 0 14Z"/>
  <path fill="#fff" d="M7.523 3.545a.5.5 0 0 1 .951 0l.76 2.337a.5.5 0 0 0 .475.346h2.457a.5.5 0 0 1 .294.904l-1.988 1.445a.5.5 0 0 0-.182.559l.76 2.337a.5.5 0 0 1-.77.559l-1.988-1.445a.5.5 0 0 0-.587 0l-1.988 1.445a.5.5 0 0 1-.77-.56l.76-2.336a.5.5 0 0 0-.182-.56L3.537 7.133a.5.5 0 0 1 .294-.904h2.457a.5.5 0 0 0 .476-.346l.759-2.337Z"/>
</svg>
