<svg width="32" height="32" fill="currentColor" viewBox="0 0 32 32" xmlns="http://www.w3.org/2000/svg">
  <g fill="none">
    <path fill="#505764" d="M24.5 28v.5a.5.5 0 0 1-.5.5H8a.5.5 0 0 1-.5-.5V28h17ZM20 24v1h-8v-1h8Zm9-21a1 1 0 0 1 1 1v19H2V4a1 1 0 0 1 1-1h26Z"/>
    <path fill="#B9BCC1" d="m20 27 4.5 1h-17l4.5-1h8Zm10-6v2a1 1 0 0 1-1 1H3a1 1 0 0 1-1-1v-2h28Z"/>
    <path fill="#6E7279" d="M20 25v2h-8v-2h8ZM4.25 22.25a.25.25 0 1 1 0 .5h-.5a.25.25 0 1 1 0-.5h.5Zm22.5 0a.25.25 0 1 1 0 .5h-.5a.25.25 0 1 1 0-.5h.5Z"/>
    <path fill="#92BD11" d="M28.25 22.25a.25.25 0 1 1 0 .5h-.5a.25.25 0 1 1 0-.5h.5Zm-11-19a.25.25 0 1 1 0 .5.25.25 0 0 1 0-.5Z"/>
    <path fill="#6DA3DC" d="M3 4h26v16H3z"/>
    <path fill="#FFF" d="M29 3H5l23 18h2V4a1 1 0 0 0-1-1Z" opacity=".25"/>
    <path fill="#505764" d="M16 3.5a.25.25 0 1 1 .5 0 .25.25 0 0 1-.5 0Z"/>
  </g>
</svg>
