<svg width="32" height="32" fill="currentColor" viewBox="0 0 32 32" xmlns="http://www.w3.org/2000/svg">
  <g fill="none" fill-rule="evenodd">
    <path fill="#EEF4FD" fill-rule="nonzero" d="M6 30h20a1 1 0 0 0 1-1V11.325a3.2 3.2 0 0 0-.937-2.262l-6.126-6.126A3.2 3.2 0 0 0 17.674 2H6a1 1 0 0 0-1 1v26a1 1 0 0 0 1 1Z"/>
    <path fill="#4875B3" fill-opacity=".08" d="M17.674 2a3.2 3.2 0 0 1 2.263.937l6.126 6.126c.6.6.937 1.414.937 2.262V29a1 1 0 0 1-1 1H6a1 1 0 0 1-1-1V3a1 1 0 0 1 1-1h11.674Zm0 1H6v26h20V11.325a2.2 2.2 0 0 0-.644-1.555L19.23 3.644A2.2 2.2 0 0 0 17.674 3Z"/>
    <path fill="#BBD1F0" fill-rule="nonzero" d="M5 28v1a1 1 0 0 0 1 1h20a1 1 0 0 0 1-1v-1a1 1 0 0 1-1 1H6a1 1 0 0 1-1-1Z"/>
    <path fill="#B9CFEE" fill-rule="nonzero" d="M19.57 3.35v4.506c0 .868.703 1.572 1.571 1.572H25.5c.95 0 1.318.675 1.5 1.572-.104-.651-.328-1.292-.8-1.764L20 2.88c-.47-.47-1.351-.776-2-.88.896.183 1.57.4 1.57 1.35Z"/>
    <path fill="#D92C33" d="M13.657 9.263c.582-.086 1.071.246 1.361.665.295.426.449 1.005.449 1.683 0 .566-.096 1.29-.258 2.084.438.613.97 1.256 1.556 1.88a19.8 19.8 0 0 0 1.737 1.648 20.7 20.7 0 0 1 1.628-.07c.783 0 1.426.16 1.89.467.461.306.808.818.716 1.42-.094.608-.584.987-1.112 1.112-.527.126-1.15.033-1.8-.259-.548-.245-1.16-.637-1.788-1.121-.895.092-1.854.236-2.778.426a19.63 19.63 0 0 0-2.075.537c-.351.713-.737 1.354-1.137 1.78-.406.43-.836.732-1.265.86-.415.125-1.017.116-1.379-.394-.329-.465-.211-1.018-.03-1.395.199-.409.554-.813 1.045-1.186.435-.329 1.014-.619 1.675-.87a24.45 24.45 0 0 0 .834-2.165c.27-.807.503-1.619.678-2.362-.417-.648-.745-1.282-.93-1.86-.218-.685-.263-1.303-.123-1.81.14-.507.51-.982 1.106-1.07Zm1.091 6.291a30.426 30.426 0 0 1-.799 2.404c.332-.083.67-.16 1.006-.229a29.205 29.205 0 0 1 1.558-.276 22.563 22.563 0 0 1-1.765-1.899Z"/>
  </g>
</svg>
