<svg width="16" height="16" fill="currentColor" viewBox="0 0 16 16" xmlns="http://www.w3.org/2000/svg">
  <g fill="none">
    <path fill="#FF8900" d="M8 15.5a7.5 7.5 0 1 1 0-15 7.5 7.5 0 0 1 0 15Z"/>
    <path fill="#000" d="M2.657 3c.504.336 1.038.667 1.6.988 3.476 1.985 7.23 3.222 11.217 3.477a7.3 7.3 0 0 1 .042.782l-.004.224a25.05 25.05 0 0 1-1.507-.136 2.499 2.499 0 1 1-4.889-.923l.049-.149a28.79 28.79 0 0 1-5.404-2.407c-.62-.354-1.207-.72-1.761-1.09.203-.27.422-.526.657-.766Zm4.305 5.247a1.501 1.501 0 0 1-1.446 1.9 1.5 1.5 0 0 1-1.476-1.77l.03-.13h2.892Z"/>
    <path fill="#FFF" d="M8 0a8 8 0 1 1 0 16A8 8 0 0 1 8 0Zm0 1a7 7 0 1 0 0 14A7 7 0 0 0 8 1Z"/>
  </g>
</svg>
