<svg width="32" height="32" fill="currentColor" viewBox="0 0 32 32" xmlns="http://www.w3.org/2000/svg">
  <g fill="none" fill-rule="evenodd">
    <path fill="#EEF4FD" fill-rule="nonzero" d="M6 30h20a1 1 0 0 0 1-1V11.325a3.2 3.2 0 0 0-.937-2.262l-6.126-6.126A3.2 3.2 0 0 0 17.674 2H6a1 1 0 0 0-1 1v26a1 1 0 0 0 1 1Z"/>
    <path fill="#4875B3" fill-opacity=".08" d="M17.674 2a3.2 3.2 0 0 1 2.263.937l6.126 6.126c.6.6.937 1.414.937 2.262V29a1 1 0 0 1-1 1H6a1 1 0 0 1-1-1V3a1 1 0 0 1 1-1h11.674Zm0 1H6v26h20V11.325a2.2 2.2 0 0 0-.644-1.555L19.23 3.644A2.2 2.2 0 0 0 17.674 3Z"/>
    <path fill="#BBD1F0" fill-rule="nonzero" d="M5 28v1a1 1 0 0 0 1 1h20a1 1 0 0 0 1-1v-1a1 1 0 0 1-1 1H6a1 1 0 0 1-1-1Z"/>
    <path fill="#B9CFEE" fill-rule="nonzero" d="M19.57 3.35v4.506c0 .868.703 1.572 1.571 1.572H25.5c.95 0 1.318.675 1.5 1.572-.104-.651-.328-1.292-.8-1.764L20 2.88c-.47-.47-1.351-.776-2-.88.896.183 1.57.4 1.57 1.35Z"/>
    <path fill="#D92C33" fill-rule="nonzero" d="M3 10.658c0-.364.294-.658.658-.658h10.684c.364 0 .658.294.658.658v10.685a.658.658 0 0 1-.658.657H3.659A.658.658 0 0 1 3 21.343V10.658Z"/>
    <path fill="#FFF" d="M9.005 13c.286 0 .55.046.788.139a1.688 1.688 0 0 1 1.035 1c.1.24.148.504.148.791 0 .277-.052.534-.157.769-.1.233-.24.434-.421.604a1.922 1.922 0 0 1-.62.384 2.23 2.23 0 0 1-.773.131h-.766V19H7v-6Zm0 1.172h-.766v1.474h.766c.212 0 .382-.06.517-.176.133-.115.207-.289.207-.54a.782.782 0 0 0-.254-.598.761.761 0 0 0-.47-.16Z"/>
  </g>
</svg>
