<svg width="32" height="32" fill="currentColor" viewBox="0 0 32 32" xmlns="http://www.w3.org/2000/svg">
  <g fill="none" fill-rule="evenodd">
    <path fill="#EEF4FD" fill-rule="nonzero" d="M6 30h20a1 1 0 0 0 1-1V11.325a3.2 3.2 0 0 0-.937-2.262l-6.126-6.126A3.2 3.2 0 0 0 17.674 2H6a1 1 0 0 0-1 1v26a1 1 0 0 0 1 1Z"/>
    <path fill="#4875B3" fill-opacity=".08" d="M17.674 2a3.2 3.2 0 0 1 2.263.937l6.126 6.126c.6.6.937 1.414.937 2.262V29a1 1 0 0 1-1 1H6a1 1 0 0 1-1-1V3a1 1 0 0 1 1-1h11.674Zm0 1H6v26h20V11.325a2.2 2.2 0 0 0-.644-1.555L19.23 3.644A2.2 2.2 0 0 0 17.674 3Z"/>
    <path fill="#BBD1F0" fill-rule="nonzero" d="M5 28v1a1 1 0 0 0 1 1h20a1 1 0 0 0 1-1v-1a1 1 0 0 1-1 1H6a1 1 0 0 1-1-1Z"/>
    <path fill="#B9CFEE" fill-rule="nonzero" d="M19.57 3.35v4.506c0 .868.703 1.572 1.571 1.572H25.5c.95 0 1.318.675 1.5 1.572-.104-.651-.328-1.292-.8-1.764L20 2.88c-.47-.47-1.351-.776-2-.88.896.183 1.57.4 1.57 1.35Z"/>
    <path fill="#D92C33" fill-rule="nonzero" stroke="#D92C33" d="M16 10.5a5.5 5.5 0 1 1 0 11 5.5 5.5 0 0 1 0-11Zm.5.5H16a5 5 0 1 0 5 5v-.5h-4.5V11Z"/>
  </g>
</svg>
