<svg width="24" height="24" fill="none" viewBox="0 0 24 24" xmlns="http://www.w3.org/2000/svg">
  <path fill="url(#profile-nav-dark--24_svg__a)" d="M23 12c0 6.075-4.925 11-11 11S1 18.075 1 12 5.925 1 12 1s11 4.925 11 11Z"/>
  <path fill="#243143" fill-rule="evenodd" d="M12 4C9.388 4 7.5 6.386 7.5 9.026c0 2.64 1.888 5.027 4.5 5.027s4.5-2.387 4.5-5.027S14.612 4 12 4ZM9.5 9.026C9.5 7.22 10.746 6 12 6s2.5 1.219 2.5 3.026c0 1.808-1.246 3.027-2.5 3.027s-2.5-1.22-2.5-3.027Z" clip-rule="evenodd"/>
  <path fill="#243143" fill-rule="evenodd" d="M12 24c6.627 0 12-5.373 12-12S18.627 0 12 0 0 5.373 0 12s5.373 12 12 12ZM2 12C2 6.477 6.477 2 12 2s10 4.477 10 10a9.959 9.959 0 0 1-2.285 6.362 3.748 3.748 0 0 0-.614-.821c-.485-.5-1.135-.96-1.861-1.347-1.45-.775-3.36-1.352-5.24-1.352-1.88 0-3.79.577-5.24 1.352-.726.388-1.377.847-1.86 1.347-.226.233-.448.51-.616.821A9.96 9.96 0 0 1 2 12Zm10 10a9.305 9.305 0 0 0 5.74-1.978c.149-.115.26-.326.26-.6v-.003c-.007-.023-.049-.19-.337-.487-.3-.31-.765-.653-1.366-.974-1.205-.644-2.794-1.116-4.297-1.116-1.503 0-3.092.472-4.297 1.116-.601.32-1.066.664-1.366.974-.288.298-.33.464-.336.487 0 .004-.001.004-.001.002 0 .275.111.486.26.601A9.305 9.305 0 0 0 12 22Z" clip-rule="evenodd"/>
  <defs>
    <linearGradient id="profile-nav-dark--24_svg__a" x1="12" x2="12" y1="1" y2="20.412" gradientUnits="userSpaceOnUse">
      <stop stop-color="#243143" stop-opacity=".3"/>
      <stop offset="1" stop-color="#243143" stop-opacity="0"/>
    </linearGradient>
  </defs>
</svg>
