<svg width="16" height="16" fill="none" viewBox="0 0 16 16" xmlns="http://www.w3.org/2000/svg">
  <g clip-path="url(#progress--16_svg__a)">
    <circle cx="8" cy="8" r="8" fill="#408BEA"/>
    <circle cx="8" cy="8" r="7.5" stroke="#243143" stroke-opacity=".1"/>
    <path fill="#fff" d="M5.25 8a1.25 1.25 0 1 1-2.5 0 1.25 1.25 0 0 1 2.5 0Zm4 0a1.25 1.25 0 1 1-2.5 0 1.25 1.25 0 0 1 2.5 0ZM12 9.25a1.25 1.25 0 1 0 0-2.5 1.25 1.25 0 0 0 0 2.5Z"/>
  </g>
  <defs>
    <clipPath id="progress--16_svg__a">
      <path fill="#fff" d="M0 0h16v16H0z"/>
    </clipPath>
  </defs>
</svg>
