<svg width="16" height="16" fill="currentColor" viewBox="0 0 16 16" xmlns="http://www.w3.org/2000/svg">
  <g fill="none">
    <path fill="#92BD11" d="M8 15.5a7.5 7.5 0 1 1 0-15 7.5 7.5 0 0 1 0 15Z"/>
    <path fill="#FFF" d="M8 0a8 8 0 1 1 0 16A8 8 0 0 1 8 0Zm0 1a7 7 0 1 0 0 14A7 7 0 0 0 8 1Zm-.24 3 .142.013c.19.028.373.103.532.225l.114.1 3.713 3.713a1 1 0 0 1 .083 1.32l-.083.094-2.796 2.795a1 1 0 0 1-1.32.083l-.094-.083L4.34 8.548a1.152 1.152 0 0 1-.326-.646l-.012-.142L4 6a2 2 0 0 1 1.85-1.995L6 4h1.76ZM6 5a1 1 0 1 0 0 2 1 1 0 0 0 0-2Z"/>
  </g>
</svg>
