<svg width="96" height="96" fill="none" viewBox="0 0 96 96" xmlns="http://www.w3.org/2000/svg">
  <path fill="#434C59" d="M26 16a4 4 0 0 1 4-4h36a4 4 0 0 1 4 4v64a4 4 0 0 1-4 4H30a4 4 0 0 1-4-4V16Z"/>
  <path fill="#1D2026" fill-opacity=".5" d="M26 79v1a4 4 0 0 0 4 4h36a4 4 0 0 0 4-4v-1a4 4 0 0 1-4 4H30a4 4 0 0 1-4-4Z"/>
  <path fill="#1D2026" fill-opacity=".5" d="M26 78v2a4 4 0 0 0 4 4h36a4 4 0 0 0 4-4v-2a4 4 0 0 1-4 4H30a4 4 0 0 1-4-4Z"/>
  <path fill="#fff" fill-opacity=".2" d="M30 12a4 4 0 0 0-4 4v2a4 4 0 0 1 4-4h36a4 4 0 0 1 4 4v-2a4 4 0 0 0-4-4H30Z"/>
  <path fill="#fff" fill-opacity=".2" d="M30 12a4 4 0 0 0-4 4v1a4 4 0 0 1 4-4h36a4 4 0 0 1 4 4v-1a4 4 0 0 0-4-4H30Z"/>
  <path fill="#1D2026" fill-rule="evenodd" d="M32 70a2 2 0 0 0-2 2v3a2 2 0 0 0 2 2h32a2 2 0 0 0 2-2v-3a2 2 0 0 0-2-2H32Zm1 2a1 1 0 0 0-1 1v1a1 1 0 0 0 1 1h4a1 1 0 0 0 1-1v-1a1 1 0 0 0-1-1h-4Zm7 1a1 1 0 0 1 1-1h5a1 1 0 0 1 1 1v1a1 1 0 0 1-1 1h-5a1 1 0 0 1-1-1v-1Zm10-1a1 1 0 0 0-1 1v1a1 1 0 0 0 1 1h1a1 1 0 0 0 1-1v-1a1 1 0 0 0-1-1h-1Zm4 1a1 1 0 0 1 1-1h1a1 1 0 0 1 1 1v1a1 1 0 0 1-1 1h-1a1 1 0 0 1-1-1v-1Zm6-1a1 1 0 0 0-1 1v1a1 1 0 0 0 1 1h3a1 1 0 0 0 1-1v-1a1 1 0 0 0-1-1h-3Z" clip-rule="evenodd"/>
  <path fill="#fff" d="M30 75v1a2 2 0 0 0 2 2h32a2 2 0 0 0 2-2v-1a2 2 0 0 1-2 2H32a2 2 0 0 1-2-2Z" opacity=".1"/>
  <path fill="url(#server-enabled-ill--96_svg__a)" d="M40 73a1 1 0 0 1 1-1h5a1 1 0 0 1 1 1v1a1 1 0 0 1-1 1h-5a1 1 0 0 1-1-1v-1Z"/>
  <path fill="url(#server-enabled-ill--96_svg__b)" d="M49 73a1 1 0 0 1 1-1h1a1 1 0 0 1 1 1v1a1 1 0 0 1-1 1h-1a1 1 0 0 1-1-1v-1Z"/>
  <path fill="url(#server-enabled-ill--96_svg__c)" d="M59 73a1 1 0 0 1 1-1h3a1 1 0 0 1 1 1v1a1 1 0 0 1-1 1h-3a1 1 0 0 1-1-1v-1Z"/>
  <circle cx="48" cy="55" r="7" fill="#303640"/>
  <circle cx="48" cy="56" r="7" fill="url(#server-enabled-ill--96_svg__d)" fill-opacity=".2"/>
  <path fill="#fff" d="M30 24.5a1.5 1.5 0 0 1 1.5-1.5h33a1.5 1.5 0 0 1 0 3h-33a1.5 1.5 0 0 1-1.5-1.5Zm0 7a1.5 1.5 0 0 1 1.5-1.5h33a1.5 1.5 0 0 1 0 3h-33a1.5 1.5 0 0 1-1.5-1.5Zm1.5 5.5a1.5 1.5 0 0 0 0 3h33a1.5 1.5 0 0 0 0-3h-33Z" opacity=".3"/>
  <path fill="#303640" d="M30 23.5a1.5 1.5 0 0 1 1.5-1.5h33a1.5 1.5 0 0 1 0 3h-33a1.5 1.5 0 0 1-1.5-1.5Zm0 7a1.5 1.5 0 0 1 1.5-1.5h33a1.5 1.5 0 0 1 0 3h-33a1.5 1.5 0 0 1-1.5-1.5Zm1.5 5.5a1.5 1.5 0 0 0 0 3h33a1.5 1.5 0 0 0 0-3h-33Z"/>
  <path fill="url(#server-enabled-ill--96_svg__e)" d="M49 22h15.5a1.5 1.5 0 0 1 0 3H49v-3Z"/>
  <path fill="url(#server-enabled-ill--96_svg__f)" d="M43 29h21.5a1.5 1.5 0 0 1 0 3H43v-3Z"/>
  <path fill="url(#server-enabled-ill--96_svg__g)" d="M54 36h10.5a1.5 1.5 0 0 1 0 3H54v-3Z"/>
  <defs>
    <linearGradient id="server-enabled-ill--96_svg__a" x1="43" x2="43" y1="72" y2="75" gradientUnits="userSpaceOnUse">
      <stop stop-color="#4AADFF"/>
      <stop offset="1" stop-color="#92CEFF"/>
    </linearGradient>
    <linearGradient id="server-enabled-ill--96_svg__b" x1="52" x2="52" y1="72" y2="75" gradientUnits="userSpaceOnUse">
      <stop stop-color="#4AADFF"/>
      <stop offset="1" stop-color="#92CEFF"/>
    </linearGradient>
    <linearGradient id="server-enabled-ill--96_svg__c" x1="64" x2="64" y1="72" y2="75" gradientUnits="userSpaceOnUse">
      <stop stop-color="#4AADFF"/>
      <stop offset="1" stop-color="#92CEFF"/>
    </linearGradient>
    <linearGradient id="server-enabled-ill--96_svg__d" x1="48" x2="48" y1="49" y2="63" gradientUnits="userSpaceOnUse">
      <stop stop-color="#204880"/>
      <stop offset="1" stop-color="#fff"/>
    </linearGradient>
    <linearGradient id="server-enabled-ill--96_svg__e" x1="57.5" x2="57.5" y1="22" y2="25" gradientUnits="userSpaceOnUse">
      <stop stop-color="#40A9FF"/>
      <stop offset="1" stop-color="#A6D7FF"/>
    </linearGradient>
    <linearGradient id="server-enabled-ill--96_svg__f" x1="54.5" x2="54.5" y1="29" y2="32" gradientUnits="userSpaceOnUse">
      <stop stop-color="#40A9FF"/>
      <stop offset="1" stop-color="#A6D7FF"/>
    </linearGradient>
    <linearGradient id="server-enabled-ill--96_svg__g" x1="60" x2="60" y1="36" y2="39" gradientUnits="userSpaceOnUse">
      <stop stop-color="#40A9FF"/>
      <stop offset="1" stop-color="#A6D7FF"/>
    </linearGradient>
  </defs>
</svg>
