<svg width="32" height="32" fill="currentColor" viewBox="0 0 32 32" xmlns="http://www.w3.org/2000/svg">
  <g fill="none" fill-rule="evenodd">
    <path fill="#89BBEE" fill-rule="nonzero" d="M30 26V6a1 1 0 0 0-1-1H3a1 1 0 0 0-1 1v20a1 1 0 0 0 1 1h26a1 1 0 0 0 1-1Z"/>
    <path fill="#7EB4EE" d="M29 5a1 1 0 0 1 1 1v20a1 1 0 0 1-1 1H3a1 1 0 0 1-1-1V6a1 1 0 0 1 1-1h26Zm0 1H3v20h26V6Z"/>
    <path fill="#488CD3" fill-rule="nonzero" d="M2 11.862v1.909a1 1 0 0 0 .694.952l13 4.179a1 1 0 0 0 .612 0l13-4.179a1 1 0 0 0 .694-.952v-1.91a1 1 0 0 1-.579.908l-13 6.036a1 1 0 0 1-.842 0l-13-6.036A1 1 0 0 1 2 11.862Z"/>
    <path fill="#BCD2F1" fill-rule="nonzero" d="M29 5H3a1 1 0 0 0-1 1v5.862a1 1 0 0 0 .579.907l13 6.036a1 1 0 0 0 .842 0l13-6.036a1 1 0 0 0 .579-.907V6a1 1 0 0 0-1-1Z"/>
    <path fill="#AFCBF5" fill-rule="nonzero" d="M2 6a1 1 0 0 1 1-1h26a1 1 0 0 1 1 1v5.862a1 1 0 0 1-.579.907l-.421.195V6H3v6.964l-.421-.195A1 1 0 0 1 2 11.862V6Z"/>
    <path fill="#255BA2" fill-rule="nonzero" d="M30 25v1a1 1 0 0 1-1 1H3a1 1 0 0 1-1-1v-1a1 1 0 0 0 1 1h26a1 1 0 0 0 1-1ZM15 11a4 4 0 0 1 3.635 2.328A3 3 0 0 1 23 16.05a2.5 2.5 0 0 1-.5 4.95H11a3 3 0 1 1 0-6 4 4 0 0 1 4-4Z"/>
  </g>
</svg>
