<svg width="72" height="72" fill="none" viewBox="0 0 72 72" xmlns="http://www.w3.org/2000/svg">
  <path fill="#BDC3CB" d="M17 4a4 4 0 0 0-4 4v56a4 4 0 0 0 4 4h38a4 4 0 0 0 4-4V8a4 4 0 0 0-4-4H17Z"/>
  <path fill="#454E5C" d="M13 57h46v7a4 4 0 0 1-4 4H17a4 4 0 0 1-4-4v-7Z"/>
  <path fill="#243143" fill-opacity=".4" d="M13 63v1a4 4 0 0 0 4 4h38a4 4 0 0 0 4-4v-1a4 4 0 0 1-4 4H17a4 4 0 0 1-4-4Z"/>
  <path fill="url(#swiss-drive-ill--72_svg__a)" d="M14 54h-1v9a4 4 0 0 0 4 4h38a4 4 0 0 0 4-4v-9h-1v8.5a3.5 3.5 0 0 1-3.5 3.5h-37a3.5 3.5 0 0 1-3.5-3.5V54Z" opacity=".2"/>
  <path fill="url(#swiss-drive-ill--72_svg__b)" d="M17 4a4 4 0 0 0-4 4v49h46V8a4 4 0 0 0-4-4H17Z"/>
  <path fill="url(#swiss-drive-ill--72_svg__c)" fill-opacity=".2" fill-rule="evenodd" d="M17 6a2 2 0 0 0-2 2v56a2 2 0 0 0 2 2h38a2 2 0 0 0 2-2V8a2 2 0 0 0-2-2H17Zm38-2a4 4 0 0 1 4 4v56a4 4 0 0 1-4 4H17a4 4 0 0 1-4-4V8a4 4 0 0 1 4-4h38Z" clip-rule="evenodd"/>
  <path fill="url(#swiss-drive-ill--72_svg__d)" fill-opacity=".3" fill-rule="evenodd" d="M55 5a3 3 0 0 1 3 3v56a3 3 0 0 1-3 3H17a3 3 0 0 1-3-3V8a3 3 0 0 1 3-3h38Zm0-1a4 4 0 0 1 4 4v56a4 4 0 0 1-4 4H17a4 4 0 0 1-4-4V8a4 4 0 0 1 4-4h38Z" clip-rule="evenodd"/>
  <path fill="#fff" d="M13 55h46v1H13v-1Z" opacity=".05"/>
  <path fill="#243143" d="M13 56h46v1H13v-1Z" opacity=".25"/>
  <path fill="#fff" d="M24 43h3.692l1.776-4.377h13.1L44.308 43H48L37.917 19h-3.834L24 43Zm8.911-12.953.64-1.553c1.029-2.541 1.916-4.659 2.449-6.247.568 1.588 1.456 3.706 2.485 6.247l.64 1.553H32.91Zm-2.236 5.576 1.1-2.752h8.45l1.136 2.752H30.675Z"/>
  <path fill="#fff" d="M21.99 10.25a3 3 0 0 1-5.98 0 3 3 0 1 0 5.98 0Z" opacity=".3"/>
  <path fill="#0B4781" d="M22 10a3 3 0 1 1-6 0 3 3 0 0 1 6 0Z" opacity=".3"/>
  <path fill="#243143" d="M21.99 10.25a3 3 0 1 0-5.98 0 3 3 0 0 1 5.98 0Z" opacity=".3"/>
  <path fill="#243143" d="M21 10.5a2 2 0 1 1-4 0 2 2 0 0 1 4 0Z" opacity=".4"/>
  <path fill="#E0E4E8" d="M21 10a2 2 0 1 1-4 0 2 2 0 0 1 4 0Z"/>
  <path fill="#243143" fill-opacity=".9" d="M20 10a1 1 0 1 1-2 0 1 1 0 0 1 2 0Z" opacity=".8"/>
  <path fill="#fff" d="M55.99 10.25a3 3 0 0 1-5.98 0 3 3 0 1 0 5.98 0Z" opacity=".3"/>
  <path fill="#0B4781" d="M56 10a3 3 0 1 1-6 0 3 3 0 0 1 6 0Z" opacity=".3"/>
  <path fill="#243143" d="M55.99 10.25a3 3 0 1 0-5.98 0 3 3 0 0 1 5.98 0Z" opacity=".3"/>
  <path fill="#243143" d="M55 10.5a2 2 0 1 1-4 0 2 2 0 0 1 4 0Z" opacity=".4"/>
  <path fill="#E0E4E8" d="M55 10a2 2 0 1 1-4 0 2 2 0 0 1 4 0Z"/>
  <path fill="#243143" fill-opacity=".9" d="M54 10a1 1 0 1 1-2 0 1 1 0 0 1 2 0Z" opacity=".8"/>
  <path fill="#fff" d="M21.99 61.25a3 3 0 0 1-5.98 0 3 3 0 1 0 5.98 0Z" opacity=".1"/>
  <path fill="#243143" d="M22 61a3 3 0 1 1-6 0 3 3 0 0 1 6 0Z" opacity=".4"/>
  <path fill="#243143" d="M21.99 61.25a3 3 0 1 0-5.98 0 3 3 0 0 1 5.98 0Z" opacity=".3"/>
  <path fill="#243143" d="M21 61.5a2 2 0 1 1-4 0 2 2 0 0 1 4 0Z" opacity=".4"/>
  <path fill="#E0E4E8" d="M21 61a2 2 0 1 1-4 0 2 2 0 0 1 4 0Z"/>
  <path fill="#243143" fill-opacity=".9" d="M20 61a1 1 0 1 1-2 0 1 1 0 0 1 2 0Z" opacity=".8"/>
  <path fill="#fff" d="M55.99 61.25a3 3 0 0 1-5.98 0 3 3 0 1 0 5.98 0Z" opacity=".1"/>
  <path fill="#243143" d="M56 61a3 3 0 1 1-6 0 3 3 0 0 1 6 0Z" opacity=".4"/>
  <path fill="#243143" d="M55.99 61.25a3 3 0 1 0-5.98 0 3 3 0 0 1 5.98 0Z" opacity=".3"/>
  <path fill="#243143" d="M55 61.5a2 2 0 1 1-4 0 2 2 0 0 1 4 0Z" opacity=".4"/>
  <path fill="#E0E4E8" d="M55 61a2 2 0 1 1-4 0 2 2 0 0 1 4 0Z"/>
  <path fill="#243143" fill-opacity=".9" d="M54 61a1 1 0 1 1-2 0 1 1 0 0 1 2 0Z" opacity=".8"/>
  <path fill="url(#swiss-drive-ill--72_svg__e)" fill-rule="evenodd" d="M43.75 59.75h2.5a1.25 1.25 0 1 1 0 2.5h-2.5a1.25 1.25 0 1 1 0-2.5Zm0 .5a.75.75 0 0 0 0 1.5h2.5a.75.75 0 0 0 0-1.5h-2.5Z" clip-rule="evenodd"/>
  <path fill="#9BC225" d="M43 61a.75.75 0 0 1 .75-.75h2.5a.75.75 0 0 1 0 1.5h-2.5A.75.75 0 0 1 43 61Z"/>
  <defs>
    <linearGradient id="swiss-drive-ill--72_svg__a" x1="38" x2="38" y1="56" y2="67" gradientUnits="userSpaceOnUse">
      <stop stop-color="#fff" stop-opacity="0"/>
      <stop offset="1" stop-color="#fff"/>
    </linearGradient>
    <linearGradient id="swiss-drive-ill--72_svg__b" x1="38" x2="38" y1="5.531" y2="51.469" gradientUnits="userSpaceOnUse">
      <stop stop-color="#0B84D1"/>
      <stop offset="1" stop-color="#034E96"/>
    </linearGradient>
    <linearGradient id="swiss-drive-ill--72_svg__c" x1="38" x2="38" y1="2.984" y2="51.746" gradientUnits="userSpaceOnUse">
      <stop stop-color="#fff"/>
      <stop offset=".969" stop-color="#fff" stop-opacity="0"/>
    </linearGradient>
    <linearGradient id="swiss-drive-ill--72_svg__d" x1="38" x2="38" y1="4" y2="68" gradientUnits="userSpaceOnUse">
      <stop stop-color="#0B4781"/>
      <stop offset=".969" stop-color="#034E96" stop-opacity="0"/>
    </linearGradient>
    <linearGradient id="swiss-drive-ill--72_svg__e" x1="45" x2="45" y1="59.75" y2="62.25" gradientUnits="userSpaceOnUse">
      <stop stop-color="#262F3E"/>
      <stop offset="1" stop-color="#58606C"/>
    </linearGradient>
  </defs>
</svg>
