<svg width="32" height="32" fill="currentColor" viewBox="0 0 32 32" xmlns="http://www.w3.org/2000/svg">
  <g fill="none" fill-rule="evenodd">
    <path fill="#EEF4FD" fill-rule="nonzero" d="M6 30h20a1 1 0 0 0 1-1V11.325a3.2 3.2 0 0 0-.937-2.262l-6.126-6.126A3.2 3.2 0 0 0 17.674 2H6a1 1 0 0 0-1 1v26a1 1 0 0 0 1 1Z"/>
    <path fill="#4875B3" fill-opacity=".08" d="M17.674 2a3.2 3.2 0 0 1 2.263.937l6.126 6.126c.6.6.937 1.414.937 2.262V29a1 1 0 0 1-1 1H6a1 1 0 0 1-1-1V3a1 1 0 0 1 1-1h11.674Zm0 1H6v26h20V11.325a2.2 2.2 0 0 0-.644-1.555L19.23 3.644A2.2 2.2 0 0 0 17.674 3Z"/>
    <path fill="#BBD1F0" fill-rule="nonzero" d="M5 28v1a1 1 0 0 0 1 1h20a1 1 0 0 0 1-1v-1a1 1 0 0 1-1 1H6a1 1 0 0 1-1-1Z"/>
    <path fill="#B9CFEE" fill-rule="nonzero" d="M19.57 3.35v4.506c0 .868.703 1.572 1.571 1.572H25.5c.95 0 1.318.675 1.5 1.572-.104-.651-.328-1.292-.8-1.764L20 2.88c-.47-.47-1.351-.776-2-.88.896.183 1.57.4 1.57 1.35Z"/>
    <path fill="#2D3138" fill-rule="nonzero" d="M16.429 10c.205 0 .434.157.51.348l.522 1.304.037.103c.181.064.357.14.528.226l1.461-.73a.562.562 0 0 1 .618.104l.542.542a.577.577 0 0 1 .105.618l-.731 1.462c.085.17.16.345.224.526.037.012.072.024.103.036l1.304.522a.6.6 0 0 1 .348.51v.858a.595.595 0 0 1-.348.51l-1.304.522-.103.036-.04.107a4.485 4.485 0 0 1-.184.419l.731 1.462a.577.577 0 0 1-.105.618l-.542.542a.562.562 0 0 1-.618.105l-1.461-.73a4.82 4.82 0 0 1-.422.186l-.107.038a1.41 1.41 0 0 1-.036.104l-.522 1.304a.6.6 0 0 1-.51.348h-.858a.595.595 0 0 1-.51-.348l-.522-1.304-.037-.103a4.48 4.48 0 0 1-.528-.226l-1.461.73a.562.562 0 0 1-.618-.104l-.542-.542a.577.577 0 0 1-.105-.618l.731-1.462a4.482 4.482 0 0 1-.224-.526 1.386 1.386 0 0 1-.103-.036l-1.304-.522a.6.6 0 0 1-.348-.51v-.858c0-.205.157-.434.348-.51l1.304-.522.103-.036.04-.107c.054-.143.116-.283.184-.419l-.731-1.462a.577.577 0 0 1 .105-.618l.542-.542a.56.56 0 0 1 .618-.105l1.461.73a4.82 4.82 0 0 1 .422-.186l.107-.039a1.41 1.41 0 0 1 .036-.103l.522-1.304a.6.6 0 0 1 .51-.348h.858ZM16 13a3 3 0 1 0 0 6 3 3 0 0 0 0-6Z"/>
  </g>
</svg>
