<svg width="32" height="32" fill="currentColor" viewBox="0 0 32 32" xmlns="http://www.w3.org/2000/svg">
  <g fill="none">
    <path fill="#505764" d="M24.5 28v.5a.5.5 0 0 1-.5.5H8a.5.5 0 0 1-.5-.5V28h17ZM20 24v1h-8v-1h8Zm9-21a1 1 0 0 1 1 1v19H2V4a1 1 0 0 1 1-1h26Z"/>
    <path fill="#B9BCC1" d="m20 27 4.5 1h-17l4.5-1h8Zm10-6v2a1 1 0 0 1-1 1H3a1 1 0 0 1-1-1v-2h28Z"/>
    <path fill="#6E7279" d="M20 25v2h-8v-2h8ZM4.25 22.25a.25.25 0 1 1 0 .5h-.5a.25.25 0 1 1 0-.5h.5Zm22.5 0a.25.25 0 1 1 0 .5h-.5a.25.25 0 1 1 0-.5h.5Z"/>
    <path fill="#92BD11" d="M28.25 22.25a.25.25 0 1 1 0 .5h-.5a.25.25 0 1 1 0-.5h.5Zm-11-19a.25.25 0 1 1 0 .5.25.25 0 0 1 0-.5Z"/>
    <path fill="#6DA3DC" d="M3 4h26v16H3z"/>
    <path fill="#FFF" d="M16.429 6c.205 0 .434.157.51.348l.522 1.304.037.103c.181.064.357.14.528.226l1.461-.73a.562.562 0 0 1 .618.104l.542.542a.577.577 0 0 1 .105.618l-.731 1.462c.085.17.16.345.224.526.037.012.072.024.103.036l1.304.522a.6.6 0 0 1 .348.51v.858a.595.595 0 0 1-.348.51l-1.304.522-.103.036-.04.107a4.485 4.485 0 0 1-.184.419l.731 1.462a.577.577 0 0 1-.105.618l-.542.542a.562.562 0 0 1-.618.105l-1.461-.73a4.82 4.82 0 0 1-.422.186l-.107.038a1.41 1.41 0 0 1-.036.104l-.522 1.304a.6.6 0 0 1-.51.348h-.858a.595.595 0 0 1-.51-.348l-.522-1.304-.037-.103a4.48 4.48 0 0 1-.528-.226l-1.461.73a.562.562 0 0 1-.618-.104l-.542-.542a.577.577 0 0 1-.105-.618l.731-1.462a4.482 4.482 0 0 1-.224-.526 1.386 1.386 0 0 1-.103-.036l-1.304-.522a.6.6 0 0 1-.348-.51v-.858c0-.205.157-.434.348-.51l1.304-.522.103-.036.04-.107c.054-.143.116-.283.184-.419l-.731-1.462a.577.577 0 0 1 .105-.618l.542-.542a.56.56 0 0 1 .618-.105l1.461.73a4.82 4.82 0 0 1 .422-.186l.107-.039c.012-.037.024-.072.036-.103l.522-1.304A.6.6 0 0 1 15.57 6h.858ZM16 15a3 3 0 1 0 0-6 3 3 0 0 0 0 6Z"/>
    <path fill="#FFF" d="M29 3H5l23 18h2V4a1 1 0 0 0-1-1Z" opacity=".25"/>
    <path fill="#505764" d="M16 3.5a.25.25 0 1 1 .5 0 .25.25 0 0 1-.5 0Z"/>
  </g>
</svg>
