<svg width="32" height="32" fill="none" viewBox="0 0 32 32" xmlns="http://www.w3.org/2000/svg">
  <path fill="#407009" d="M16 3c7.18 0 13 5.82 13 13s-5.82 13-13 13S3 23.18 3 16 8.82 3 16 3Z"/>
  <path stroke="#243143" stroke-opacity=".1" d="M16 3.5c6.904 0 12.5 5.596 12.5 12.5S22.904 28.5 16 28.5 3.5 22.904 3.5 16 9.096 3.5 16 3.5Z"/>
  <path fill="#fff" d="m17 12.414 1.293 1.293a1 1 0 0 0 1.414-1.414l-3-3a1 1 0 0 0-1.414 0l-3 3a1 1 0 0 0 1.414 1.414L15 12.414V22a1 1 0 1 0 2 0v-9.586Z"/>
</svg>
