<svg width="32" height="32" fill="currentColor" viewBox="0 0 32 32" xmlns="http://www.w3.org/2000/svg">
  <g fill="none" fill-rule="evenodd">
    <rect width="26" height="26" x="3" y="3" fill="#EEF4FD" fill-rule="nonzero" rx="13"/>
    <path fill="#488CD3" fill-rule="nonzero" d="M21.394 10.768c0 .732-.032 1.436-.095 2.109.17.353.24.764.18 1.19l-.01.067a4.091 4.091 0 0 1-.71 1.79c-.363 1.303-.87 2.399-1.494 3.235l.182 1.347c.352.058.553.494.553.494l.547 1.642a74.62 74.62 0 0 0 1.38.539l3.826 1.416A12.969 12.969 0 0 1 16.002 29c-3.884 0-7.37-1.703-9.752-4.403l3.826-1.416c.322-.119.908-.351 1.4-.548L12.018 21s.194-.42.534-.49l.184-1.353c-.623-.835-1.13-1.929-1.493-3.23a4.09 4.09 0 0 1-.713-1.793l-.01-.067a2.07 2.07 0 0 1 .18-1.19 22.855 22.855 0 0 1-.095-2.109C10.606 5.975 16 6 16 6s5.394-.025 5.394 4.768Z"/>
    <path fill="#3E7EC5" fill-rule="nonzero" d="M12.738 19.157C13.618 20.337 14.732 21 16 21c1.271 0 2.385-.662 3.265-1.841l.03.225C18.453 21.19 17.32 22.5 16 22.5c-1.316 0-2.449-1.311-3.293-3.118l.03-.225Z"/>
    <path fill="#1A60B3" fill-opacity=".05" d="M4 16c0 6.627 5.373 12 12 12s12-5.373 12-12S22.627 4 16 4 4 9.373 4 16ZM16 3C8.82 3 3 8.82 3 16s5.82 13 13 13 13-5.82 13-13S23.18 3 16 3Z"/>
    <path fill="#255BA2" fill-opacity=".25" fill-rule="nonzero" d="M3.015 15.375C3.005 15.582 3 15.79 3 16c0 7.18 5.82 13 13 13s13-5.82 13-13c0-.21-.005-.418-.015-.625C28.66 22.265 22.97 27.75 16 27.75S3.34 22.265 3.015 15.375Z"/>
  </g>
</svg>
