<svg width="32" height="32" fill="none" viewBox="0 0 32 32" xmlns="http://www.w3.org/2000/svg">
  <path fill="#FFC107" fill-rule="evenodd" d="M25.348 20.66a.792.792 0 0 1 .274-.3c.36-.226.821-.093 1.03.3l5.246 9.857a.878.878 0 0 1 .102.412c0 .453-.337.821-.753.821H20.753a.707.707 0 0 1-.378-.11c-.36-.228-.482-.73-.273-1.123l5.246-9.858Z" clip-rule="evenodd"/>
  <path stroke="#243143" stroke-opacity=".1" d="M25.79 20.894a.291.291 0 0 1 .1-.11.198.198 0 0 1 .165-.026.264.264 0 0 1 .155.136l5.247 9.858a.378.378 0 0 1 .043.177c0 .219-.153.321-.253.321H20.753a.206.206 0 0 1-.11-.034c-.124-.078-.194-.287-.1-.464l5.247-9.858-.437-.233.437.233Z"/>
  <path fill="#243143" fill-opacity=".9" d="M26 23.25a1 1 0 0 0-1 1v2a1 1 0 1 0 2 0v-2a1 1 0 0 0-1-1Zm0 7a1 1 0 1 0 0-2 1 1 0 0 0 0 2Z"/>
</svg>
