<svg width="32" height="32" fill="currentColor" viewBox="0 0 32 32" xmlns="http://www.w3.org/2000/svg">
  <g fill="none" fill-rule="evenodd">
    <path fill="#EEF4FD" fill-rule="nonzero" d="M6 30h20a1 1 0 0 0 1-1V11.325a3.2 3.2 0 0 0-.937-2.262l-6.126-6.126A3.2 3.2 0 0 0 17.674 2H6a1 1 0 0 0-1 1v26a1 1 0 0 0 1 1Z"/>
    <path fill="#4875B3" fill-opacity=".08" d="M17.674 2a3.2 3.2 0 0 1 2.263.937l6.126 6.126c.6.6.937 1.414.937 2.262V29a1 1 0 0 1-1 1H6a1 1 0 0 1-1-1V3a1 1 0 0 1 1-1h11.674Zm0 1H6v26h20V11.325a2.2 2.2 0 0 0-.644-1.555L19.23 3.644A2.2 2.2 0 0 0 17.674 3Z"/>
    <path fill="#BBD1F0" fill-rule="nonzero" d="M5 28v1a1 1 0 0 0 1 1h20a1 1 0 0 0 1-1v-1a1 1 0 0 1-1 1H6a1 1 0 0 1-1-1Z"/>
    <path fill="#B9CFEE" fill-rule="nonzero" d="M19.57 3.35v4.506c0 .868.703 1.572 1.571 1.572H25.5c.95 0 1.318.675 1.5 1.572-.104-.651-.328-1.292-.8-1.764L20 2.88c-.47-.47-1.351-.776-2-.88.896.183 1.57.4 1.57 1.35Z"/>
    <path fill="#2D3138" d="M16 10a6.001 6.001 0 0 1 .911 11.931l-.072.01A6.047 6.047 0 0 1 16 22h-.089c-.31 0-.614-.023-.911-.069l.012-.012a6.002 6.002 0 0 1-.083-11.824l.009-.001.074-.013-.012-.012c.297-.046.602-.069.911-.069H16Zm1.379 6.75h-2.846a8.448 8.448 0 0 0 1.251 3.745c.072.003.144.005.216.005l.125-.002a8.448 8.448 0 0 0 1.254-3.748Zm3.059 0h-1.554a9.944 9.944 0 0 1-.8 3.24 4.506 4.506 0 0 0 2.354-3.24Zm-7.41 0h-1.466a4.504 4.504 0 0 0 2.238 3.177 9.942 9.942 0 0 1-.772-3.177Zm5.056-4.74a9.944 9.944 0 0 1 .8 3.24h1.554a4.506 4.506 0 0 0-2.354-3.24ZM16 11.5c-.072 0-.144.002-.216.005a8.448 8.448 0 0 0-1.251 3.745h2.846a8.448 8.448 0 0 0-1.254-3.748A4.711 4.711 0 0 0 16 11.5Zm-2.2.573a4.504 4.504 0 0 0-2.238 3.177h1.466c.083-1.12.35-2.19.772-3.177Z"/>
  </g>
</svg>
