<svg xmlns="http://www.w3.org/2000/svg" fill="none" viewBox="0 0 16 16" class="acv-icon"><g fill="#2668C5" fill-rule="evenodd" clip-path="url(#a)" clip-rule="evenodd"><path d="m5.53 3.556 3.842-2.218A2.904 2.904 0 0 0 6.926 0a2.899 2.899 0 0 0-2.9 2.894v4.383l1.497.868.008-4.589Z"/><path d="m1.596 8.89 3.792 2.19 1.499-.863-3.97-2.3V3.48a2.89 2.89 0 0 0-2.382 1.45 2.899 2.899 0 0 0 1.05 3.953l.003.002.004.002.004.002ZM10.47 12.444l-3.842 2.218A2.89 2.89 0 0 0 9.073 16a2.9 2.9 0 0 0 2.9-2.894V8.723l-1.496-.868-.008 4.589Z"/><path d="m14.41 7.113-.006-.003-.003-.002-3.788-2.187-1.5.862 3.97 2.3v4.436a2.89 2.89 0 0 0 2.382-1.449 2.899 2.899 0 0 0-1.055-3.957Z"/><path d="m6.636 5.927 3.978-2.288 3.841 2.218a2.897 2.897 0 0 0-.064-2.787 2.899 2.899 0 0 0-3.954-1.065l-.006.004-3.792 2.189-.003 1.73ZM9.364 10.073 5.386 12.36l-3.841-2.217a2.905 2.905 0 0 0 .064 2.787m7.755-2.857-.003 1.73-3.792 2.188-.006.004A2.899 2.899 0 0 1 1.61 12.93"/></g><defs><clipPath id="a"><path fill="#fff" d="M0 0h16v16H0z"/></clipPath></defs></svg>