<svg fill="none" viewBox="0 0 24 24" xmlns="http://www.w3.org/2000/svg">
  <path fill="currentColor" d="M20.485 3.514C18.2 1.228 14.76.947 12.82 2.89c-2.124 2.123-1.861 6.645-1.693 8.237-1.589-.17-6.104-.44-8.237 1.693-1.94 1.94-1.66 5.38.626 7.666a6.32 6.32 0 0 0 4.406 1.916 4.54 4.54 0 0 0 3.26-1.29c2.124-2.123 1.861-6.644 1.693-8.237.699.075 1.401.112 2.104.113 2.005 0 4.648-.321 6.133-1.806 1.94-1.941 1.66-5.38-.626-7.666ZM10.12 20.051c-1.356 1.356-3.843 1.074-5.545-.626-1.702-1.701-1.982-4.19-.626-5.546 1.065-1.065 3.224-1.367 5.098-1.367a17.4 17.4 0 0 1 2.292.149c.263 1.929.335 5.836-1.219 7.39Zm9.93-9.93c-1.56 1.56-5.464 1.483-7.39 1.218-.262-1.929-.334-5.837 1.22-7.39 1.356-1.357 3.841-1.076 5.544.626 1.702 1.702 1.983 4.19.627 5.545Z"/>
</svg>
