<svg fill="none" viewBox="0 0 24 24" xmlns="http://www.w3.org/2000/svg">
  <path fill="currentColor" d="M16.75 6.5a2.25 2.25 0 1 1 4.5 0 2.25 2.25 0 0 1-4.5 0Zm-1.425.75a3.754 3.754 0 0 0 1.714 2.447l-1.488 4.093a3.751 3.751 0 0 0-4.226 2.96h-2.65a3.754 3.754 0 0 0-1.714-2.447l1.488-4.093a3.751 3.751 0 0 0 4.226-2.96h2.65ZM7.039 9.697a3.75 3.75 0 1 1 5.636-3.947h2.65a3.751 3.751 0 0 1 7.425.75 3.75 3.75 0 0 1-4.301 3.71l-1.488 4.093a3.75 3.75 0 1 1-5.636 3.947h-2.65a3.751 3.751 0 0 1-7.425-.75 3.75 3.75 0 0 1 4.301-3.71l1.488-4.093ZM12.75 17.5a2.25 2.25 0 1 1 4.5 0 2.25 2.25 0 0 1-4.5 0ZM5 15.25a2.25 2.25 0 1 0 0 4.5 2.25 2.25 0 0 0 0-4.5ZM6.75 6.5a2.25 2.25 0 1 1 4.5 0 2.25 2.25 0 0 1-4.5 0Z" clip-rule="evenodd"/>
</svg>
