<svg fill="none" viewBox="0 0 24 24" xmlns="http://www.w3.org/2000/svg">
  <path fill="#186486" fill-opacity=".94" d="M2 3a1 1 0 0 1 1-1h15l4 4v15a1 1 0 0 1-1 1H3a1 1 0 0 1-1-1V3Z"/>
  <path fill="#fff" fill-opacity=".98" d="M12 17c.246 0 .737-.225 1.227-1.205a6.61 6.61 0 0 0 .472-1.295H10.3c.127.49.288.927.472 1.295.49.98.981 1.205 1.227 1.205Zm-1.896-3.5h3.792c.067-.471.104-.974.104-1.5s-.037-1.029-.104-1.5h-3.792c-.067.471-.104.974-.104 1.5s.037 1.029.104 1.5Zm.197-4a6.61 6.61 0 0 1 .472-1.295C11.263 7.225 11.754 7 12 7c.246 0 .737.225 1.227 1.205.184.369.345.805.472 1.295H10.3Zm4.604 1a11.774 11.774 0 0 1 0 3h1.866c.149-.473.229-.977.229-1.5s-.08-1.027-.229-1.5h-1.866Zm1.426-1h-1.603c-.19-.824-.47-1.548-.814-2.12A5.019 5.019 0 0 1 16.33 9.5Zm-7.059 0H7.669a5.02 5.02 0 0 1 2.417-2.12c-.345.572-.625 1.296-.814 2.12Zm-2.043 1h1.866a11.774 11.774 0 0 0 0 3H7.229A4.998 4.998 0 0 1 7 12c0-.523.08-1.027.229-1.5Zm6.685 6.12c.345-.572.625-1.296.814-2.12h1.603a5.02 5.02 0 0 1-2.417 2.12Zm-3.828 0A5.02 5.02 0 0 1 7.67 14.5h1.603c.19.824.47 1.548.814 2.12ZM12 6a6 6 0 1 1 0 12 6 6 0 0 1 0-12Z" clip-rule="evenodd"/>
</svg>
