<svg fill="none" viewBox="0 0 24 24" xmlns="http://www.w3.org/2000/svg">
  <g clip-path="url(#prefix__a)">
    <mask id="prefix__b" width="24" height="24" x="0" y="0" maskUnits="userSpaceOnUse" style="mask-type:alpha">
      <path fill="#D9D9D9" d="M24 9.698A7.5 7.5 0 1 1 14.302 0H0v24h24V9.698ZM19.698 0A7.524 7.524 0 0 1 24 4.302V0h-4.302Z" clip-rule="evenodd"/>
    </mask>
    <g mask="url(#prefix__b)">
      <rect width="16" height="20" x="4" y="2" fill="#4BBBF0" fill-opacity=".2" rx="1"/>
      <path fill="#4BBBF0" fill-opacity=".2" d="M5.5 3.5v17h13v-17h-13ZM5 2a1 1 0 0 0-1 1v18a1 1 0 0 0 1 1h14a1 1 0 0 0 1-1V3a1 1 0 0 0-1-1H5Z" clip-rule="evenodd"/>
      <path fill="#0080AD" d="M17 7H7v1.5h10V7Zm0 3H7v1.5h10V10ZM7 13h10v1.5H7V13Zm5 3H7v1.5h5V16Z" clip-rule="evenodd"/>
    </g>
    <circle cx="17" cy="7" r="6" fill="#4BBBF0" fill-opacity=".2"/>
    <path fill="#186486" fill-opacity=".94" d="M19.592 12.413c.159-.232.3-.476.424-.723.318-.637.568-1.38.736-2.19h1.704a6.025 6.025 0 0 1-2.864 2.913Zm-5.184 0A6.025 6.025 0 0 1 11.544 9.5h1.704c.168.81.418 1.553.736 2.19.124.247.265.491.424.723ZM17 13c1.21 0 2.254-1.434 2.728-3.5h-5.456C14.746 11.566 15.789 13 17 13Zm-5.811-4.5h1.898a12.82 12.82 0 0 1 0-3h-1.898a6.01 6.01 0 0 0 0 3Zm.355-4h1.704c.168-.81.418-1.553.736-2.19a6.08 6.08 0 0 1 .424-.723A6.024 6.024 0 0 0 11.544 4.5ZM17 1c-1.21 0-2.254 1.434-2.728 3.5h5.456C19.254 2.434 18.211 1 17 1Zm2.592.587A6.024 6.024 0 0 1 22.456 4.5h-1.704a9.014 9.014 0 0 0-.736-2.19 6.08 6.08 0 0 0-.424-.723ZM22.81 5.5h-1.898a12.82 12.82 0 0 1 0 3h1.898a6.01 6.01 0 0 0 0-3ZM14 7c0 .518.033 1.02.095 1.5h5.81a11.774 11.774 0 0 0 0-3h-5.81C14.033 5.98 14 6.482 14 7Z" clip-rule="evenodd"/>
  </g>
  <defs>
    <clipPath id="prefix__a">
      <path fill="#fff" d="M0 0h24v24H0z"/>
    </clipPath>
  </defs>
</svg>
