<svg fill="none" viewBox="0 0 24 24" xmlns="http://www.w3.org/2000/svg">
  <path fill="currentColor" d="M9.614 3.75H4v1.5h5.614a2.506 2.506 0 0 0 1.636 1.636v2.728a2.501 2.501 0 0 0 0 4.771v2.73a2.501 2.501 0 1 0 3.136 3.135H20v-1.5h-5.614a2.506 2.506 0 0 0-1.636-1.636v-2.729a2.506 2.506 0 0 0 1.636-1.635H20v-1.5h-5.614a2.506 2.506 0 0 0-1.636-1.636V6.886a2.506 2.506 0 0 0 1.636-1.636H20v-1.5h-5.614a2.501 2.501 0 0 0-4.772 0ZM12 5.5a1 1 0 1 0 0-2 1 1 0 0 0 0 2Zm1 14a1 1 0 1 1-2 0 1 1 0 0 1 2 0Zm0-7.5a1 1 0 1 1-2 0 1 1 0 0 1 2 0Z" clip-rule="evenodd"/>
</svg>
