<svg fill="none" viewBox="0 0 24 24" xmlns="http://www.w3.org/2000/svg">
  <path fill="currentColor" d="M8.614 3.75H3v1.5h5.614a2.506 2.506 0 0 0 1.636 1.636V17.5A2.75 2.75 0 0 0 13 20.25h3.114a2.501 2.501 0 1 0 0-1.5H13c-.69 0-1.25-.56-1.25-1.25v-4.75h4.364a2.501 2.501 0 1 0 0-1.5H11.75V6.886a2.506 2.506 0 0 0 1.636-1.636h2.729a2.501 2.501 0 1 0 0-1.5h-2.73a2.501 2.501 0 0 0-4.77 0ZM12 4.5a1 1 0 1 1-2 0 1 1 0 0 1 2 0Zm6.5 16a1 1 0 1 0 0-2 1 1 0 0 0 0 2Zm0-7.5a1 1 0 1 0 0-2 1 1 0 0 0 0 2Zm0-7.5a1 1 0 1 0 0-2 1 1 0 0 0 0 2Z" clip-rule="evenodd"/>
</svg>
