<svg fill="none" viewBox="0 0 24 24" xmlns="http://www.w3.org/2000/svg">
  <path fill="currentColor" d="M5.5 5.5a1 1 0 1 0 0-2 1 1 0 0 0 0 2ZM3 4.5a2.5 2.5 0 0 0 4.886.75h3.364V17.5A2.75 2.75 0 0 0 14 20.25h2.114a2.501 2.501 0 1 0 0-1.5H14c-.69 0-1.25-.56-1.25-1.25v-4.75h3.364a2.501 2.501 0 1 0 0-1.5H12.75v-6h3.364a2.501 2.501 0 1 0 0-1.5H7.886A2.501 2.501 0 0 0 3 4.5Zm15.5 16a1 1 0 1 0 0-2 1 1 0 0 0 0 2Zm0-7.5a1 1 0 1 0 0-2 1 1 0 0 0 0 2Zm1-8.5a1 1 0 1 1-2 0 1 1 0 0 1 2 0Z" clip-rule="evenodd"/>
</svg>
