<svg fill="none" viewBox="0 0 24 24" xmlns="http://www.w3.org/2000/svg">
  <path fill="currentColor" d="M2.5 2.5v7h7v-7h-7ZM2 1a1 1 0 0 0-1 1v8a1 1 0 0 0 1 1h8a1 1 0 0 0 1-1V2a1 1 0 0 0-1-1H2Zm12.5 13.5v7h7v-7h-7ZM14 13a1 1 0 0 0-1 1v8a1 1 0 0 0 1 1h8a1 1 0 0 0 1-1v-8a1 1 0 0 0-1-1h-8ZM8.06 6 5.53 3.47 4.47 4.53 5.94 6 4.47 7.47l1.06 1.06L8.06 6Zm9.47 9.47L20.06 18l-2.53 2.53-1.06-1.06L17.94 18l-1.47-1.47 1.06-1.06ZM5.25 12v1A5.75 5.75 0 0 0 11 18.75h1v-1.5h-1A4.25 4.25 0 0 1 6.75 13v-1h-1.5Z" clip-rule="evenodd"/>
</svg>
