<svg xmlns="http://www.w3.org/2000/svg" fill="none" viewBox="0 0 24 24" class="acv-icon"><path fill="#2668C5" d="m3.7 5.227 7.1-3.802c.745-.404 1.681-.554 2.5-.3L20 3.226c.613.19 1 .7 1 1.301v13.712c0 1.224-.841 2.338-2.1 2.698l-5.5 1.901c-.871.31-1.907.157-2.7-.3l-4-2.301c-.417-.247-.7-.741-.7-1.2 0-.75.5-1.502 1.5-1.502H15V5.027L9.386 7.042C8.246 7.466 7.5 8.39 7.5 9.53v4.703c0 .973-1.97 1.775-2.264 1.89-.025.009-.048.019-.073.03-.99.43-2.163-.24-2.163-1.265v-8.46c0-.496.24-.95.7-1.2Z"/></svg>