<svg xmlns="http://www.w3.org/2000/svg" fill="none" viewBox="0 0 24 24" class="acv-icon"><path fill="#2668C5" fill-rule="evenodd" d="M1 4a2 2 0 0 1 2-2h18a2 2 0 0 1 2 2v13a2 2 0 0 1-2 2h-5.8l.632 2.371a.5.5 0 0 1-.483.629H8.651a.5.5 0 0 1-.483-.629L8.8 19H3a2 2 0 0 1-2-2V4Zm12.593 2.74c-.505.503-1.165.725-1.726.636-.09-.56.132-1.217.637-1.72.505-.504 1.166-.726 1.727-.637.09.56-.133 1.217-.638 1.72Zm-.623 1.058c.279-.141.585-.297 1.035-.297.595 0 1.577.531 1.974 1.131a2.001 2.001 0 0 0-1.29 1.869c0 .86.546 1.594 1.311 1.876-.196.446-.31.667-.573 1.081-.383.606-.908 1.37-1.58 1.376-.275.002-.461-.083-.661-.174-.232-.107-.484-.222-.92-.218-.43.002-.673.115-.896.22-.194.09-.374.175-.652.172-.98 0-2.718-2.204-2.718-4.19 0-2.183 1.468-3.11 2.434-3.11.372 0 .696.134 1.005.263.28.116.549.227.828.227.259 0 .471-.108.703-.226Z" clip-rule="evenodd"/></svg>