<svg xmlns="http://www.w3.org/2000/svg" fill="none" viewBox="0 0 24 24" class="acv-icon"><path stroke="#141414" stroke-linecap="round" stroke-linejoin="round" stroke-width="1.5" d="M18 11.758h-1.25m1.25 0-.734-5.277a2 2 0 0 0-2.185-1.714l-6.933.711a1 1 0 0 0-.898.995v7.785c2.024 0 2.455 2.515 2.521 4.15.024.6.672 1.027 1.208.758a2.298 2.298 0 0 0 1.271-2.055v-2.853H18a1.25 1.25 0 1 0 0-2.5Z"/><path stroke="#141414" stroke-linecap="round" stroke-linejoin="round" stroke-width="1.5" d="M4.75 5.75a1 1 0 0 1 1-1h.5a1 1 0 0 1 1 1v8.5a1 1 0 0 1-1 1h-.5a1 1 0 0 1-1-1v-8.5Z"/></svg>