<svg xmlns="http://www.w3.org/2000/svg" fill="none" viewBox="0 0 24 24" class="acv-icon"><path fill="#2668C5" fill-rule="evenodd" d="M3 3h2a1 1 0 0 0 0-2H2a1 1 0 0 0-1 1v3a1 1 0 0 0 2 0V3Zm15-1a1 1 0 0 0 1 1h2v2a1 1 0 1 0 2 0V2a1 1 0 0 0-1-1h-3a1 1 0 0 0-1 1Zm1 19h2v-2a1 1 0 1 1 2 0v3a1 1 0 0 1-1 1h-3a1 1 0 1 1 0-2ZM6 22a1 1 0 0 0-1-1H3v-2a1 1 0 1 0-2 0v3a1 1 0 0 0 1 1h3a1 1 0 0 0 1-1Zm12.703-8.303c.19.394.297.836.297 1.303v1a3 3 0 0 1-3 3H8a3 3 0 0 1-3-3v-1c0-.467.107-.91.297-1.303l.007-.022L7.822 6.35A2 2 0 0 1 9.714 5h4.572a2 2 0 0 1 1.892 1.35l2.518 7.325.007.022ZM16.005 12l-1.719-5H9.714l-1.72 5h8.011ZM7 15a1 1 0 0 1 1-1h8a1 1 0 0 1 1 1v1a1 1 0 0 1-1 1H8a1 1 0 0 1-1-1v-1Zm1.5 0h3a.5.5 0 0 1 0 1h-3a.5.5 0 0 1 0-1Zm6.5.5a.5.5 0 1 0 1 0 .5.5 0 0 0-1 0Z" clip-rule="evenodd"/></svg>