<svg xmlns="http://www.w3.org/2000/svg" fill="none" viewBox="0 0 24 24" class="acv-icon"><path stroke="#141414" stroke-linecap="round" stroke-linejoin="round" stroke-width="1.5" d="M4.75 14.75v2.5a2 2 0 0 0 2 2h10.5a2 2 0 0 0 2-2v-2.5a2 2 0 0 0-2-2H6.75a2 2 0 0 0-2 2Z"/><path stroke="#141414" stroke-linecap="round" stroke-linejoin="round" d="M8.5 16a.5.5 0 1 1-1 0 .5.5 0 0 1 1 0ZM11.5 16a.5.5 0 1 1-1 0 .5.5 0 0 1 1 0Z"/><path stroke="#141414" stroke-linecap="round" stroke-linejoin="round" stroke-width="1.5" d="M12 12.5v-1.75M9.702 8.702a3.25 3.25 0 0 1 4.596 0M7.58 6.58a6.25 6.25 0 0 1 8.84 0"/></svg>