<svg xmlns="http://www.w3.org/2000/svg" fill="none" viewBox="0 0 16 16" class="acv-icon"><g fill="#2668C5" clip-path="url(#a)"><path fill-rule="evenodd" d="M12.606 11.192a7 7 0 1 0-1.414 1.414l3.1 3.101a1 1 0 0 0 1.415-1.414l-3.1-3.1ZM7 12A5 5 0 1 0 7 2a5 5 0 0 0 0 10Z" clip-rule="evenodd"/><path d="M8 7.167C8 7.627 7.552 8 7 8s-1-.373-1-.833V3.833C6 3.373 6.448 3 7 3s1 .373 1 .833v3.334ZM8 10a1 1 0 1 1-2 0 1 1 0 0 1 2 0Z"/></g><defs><clipPath id="a"><path fill="#fff" d="M0 0h16v16H0z"/></clipPath></defs></svg>