<svg xmlns="http://www.w3.org/2000/svg" fill="none" viewBox="0 0 32 32" class="acv-icon"><path fill="#2668C5" d="M4 5h4v4H4V5ZM4 14h4v4H4v-4ZM4 23h4v4H4v-4ZM10 6h18v2H10V6ZM24.828 21.414a1 1 0 1 1-1.414 1.414L22 21.414l-1.414 1.414a1 1 0 0 1-1.414-1.414L20.586 20l-1.414-1.414a1 1 0 0 1 1.414-1.414L22 18.586l1.414-1.414a1 1 0 1 1 1.414 1.414L23.414 20l1.414 1.414Z"/><path fill="#2668C5" fill-rule="evenodd" d="M14.582 17H10v-2h5.755a8 8 0 1 1 .954 11H10v-2h5.07A7.963 7.963 0 0 1 14 20c0-1.06.207-2.074.582-3ZM22 26a6 6 0 1 0 0-12 6 6 0 0 0 0 12Z" clip-rule="evenodd"/></svg>