<svg xmlns="http://www.w3.org/2000/svg" fill="none" viewBox="0 0 16 16" class="acv-icon"><path fill="#2668C5" d="M4 10V8a1 1 0 0 1 2 0v2a1 1 0 1 1-2 0ZM7 8a1 1 0 0 1 2 0v2a1 1 0 1 1-2 0V8ZM10 8a1 1 0 1 1 2 0v2a1 1 0 1 1-2 0V8Z"/><path fill="#2668C5" fill-rule="evenodd" d="M10.586 4 11 3.586A2 2 0 0 1 12.414 3H13a2 2 0 0 1 2 2v7a2 2 0 0 1-2 2H3a2 2 0 0 1-2-2V5a2 2 0 0 1 2-2h.586A2 2 0 0 1 5 3.586L5.414 4h5.172ZM3 11a1 1 0 0 0 1 1h8a1 1 0 0 0 1-1V5.414a.414.414 0 0 0-.707-.293l-.586.586A1 1 0 0 1 11 6H5a1 1 0 0 1-.707-.293l-.586-.586A.414.414 0 0 0 3 5.414V11Z" clip-rule="evenodd"/></svg>