<svg xmlns="http://www.w3.org/2000/svg" fill="none" viewBox="0 0 24 24" class="acv-icon"><path fill="#2668C5" d="M12 16a1 1 0 0 1-1-1v-1a1 1 0 1 1 2 0v1a1 1 0 0 1-1 1ZM11 11a1 1 0 1 0 2 0v-1a1 1 0 1 0-2 0v1ZM16 16a1 1 0 0 1-1-1v-1a1 1 0 1 1 2 0v1a1 1 0 0 1-1 1ZM15 11a1 1 0 1 0 2 0v-1a1 1 0 1 0-2 0v1ZM8 16a1 1 0 0 1-1-1v-1a1 1 0 1 1 2 0v1a1 1 0 0 1-1 1ZM7 11a1 1 0 1 0 2 0v-1a1 1 0 0 0-2 0v1Z"/><path fill="#2668C5" fill-rule="evenodd" d="M1.264 8.344A3 3 0 0 1 4.244 5h15.512a3 3 0 0 1 2.98 3.344l-1.038 9A3 3 0 0 1 18.718 20H5.282a3 3 0 0 1-2.98-2.656l-1.038-9ZM4.244 7a1 1 0 0 0-.993 1.115l1.038 9a1 1 0 0 0 .994.885h13.435a1 1 0 0 0 .993-.885l1.038-9A1 1 0 0 0 19.756 7H4.244Z" clip-rule="evenodd"/></svg>