<svg fill="none" viewBox="0 0 24 24" xmlns="http://www.w3.org/2000/svg">
  <path fill="currentColor" d="M11.25 4.5V1h1.5v3.5h-1.5ZM12 7.75a4.25 4.25 0 1 0 0 8.5 4.25 4.25 0 0 0 0-8.5ZM6.25 12a5.75 5.75 0 1 1 11.5 0 5.75 5.75 0 0 1-11.5 0Zm5 7.5V23h1.5v-3.5h-1.5ZM4.5 12.75H1v-1.5h3.5v1.5Zm15 0H23v-1.5h-3.5v1.5ZM6.167 7.227 3.692 4.752l1.06-1.06 2.475 2.474-1.06 1.061Zm10.606 10.607 2.475 2.474 1.06-1.06-2.474-2.475-1.061 1.06Zm-9.546 0-2.475 2.474-1.06-1.06 2.474-2.475 1.061 1.06ZM17.834 7.227l2.474-2.475-1.06-1.06-2.475 2.474 1.06 1.06Z" clip-rule="evenodd"/>
</svg>
