<svg xmlns="http://www.w3.org/2000/svg" fill="none" viewBox="0 0 24 24" class="acv-icon"><path fill="#2668C5" d="M11.999 5c.595 0 1.076.426 1.076.952v.083c.975.24 1.912.818 2.22 1.876.147.51-.2 1.028-.776 1.16-.575.13-1.162-.177-1.31-.686-.082-.283-.539-.618-1.341-.58-.356.018-.625.115-.774.222a.358.358 0 0 0-.168.35c.009.14.046.199.064.224a.477.477 0 0 0 .178.129c.273.136.665.214 1.297.337l.027.005c.526.103 1.286.25 1.888.61.333.199.64.472.85.848.209.373.288.788.267 1.227-.038.814-.546 1.416-1.191 1.78a3.827 3.827 0 0 1-1.23.422v.09c0 .525-.482.951-1.077.951s-1.077-.426-1.077-.952v-.188c-1.014-.266-1.993-.865-2.372-1.928-.179-.502.136-1.036.703-1.194.567-.158 1.172.12 1.35.622.142.398.741.765 1.625.766.406 0 .73-.086.92-.193.162-.092.194-.17.197-.254v-.003c.01-.186-.027-.27-.045-.303a.31.31 0 0 0-.125-.113c-.212-.127-.56-.215-1.174-.334l-.12-.023c-.504-.097-1.2-.23-1.769-.514a2.536 2.536 0 0 1-.918-.739 2.137 2.137 0 0 1-.418-1.174v-.003c-.046-.817.346-1.483.962-1.925a3.408 3.408 0 0 1 1.184-.525v-.071c0-.526.482-.952 1.077-.952Z"/><path fill="#2668C5" fill-rule="evenodd" d="M8 2a3 3 0 0 0-3 3v11H2a1 1 0 0 0-1 1v2a3 3 0 0 0 3 3h12a3 3 0 0 0 3-3V8h3a1 1 0 0 0 1-1V5a3 3 0 0 0-3-3H8Zm5 14H7V5a1 1 0 0 1 1-1h9v15a1 1 0 0 1-1 1h-1.83c-.11-.313-.17-.65-.17-1v-2a1 1 0 0 0-1-1Zm-1 3c0 .343.034.677.1 1H4a1 1 0 0 1-1-1v-1h9v1Zm9-13V5a1 1 0 0 0-1-1h-1v2h2Z" clip-rule="evenodd"/></svg>