<svg xmlns="http://www.w3.org/2000/svg" fill="none" viewBox="0 0 24 24" class="acv-icon"><path stroke="#141414" stroke-linecap="round" stroke-linejoin="round" stroke-width="1.5" d="M8.751 14.752 10.75 18v1.25h2.5V18l1.999-3.248m-6.498 0-.001-.002m.001.002C8.785 14.806 9.557 16 12 16s3.215-1.194 3.249-1.248m.001-.002-.001.002M16.25 9a4.25 4.25 0 1 1-8.5 0 4.25 4.25 0 0 1 8.5 0Z"/><path stroke="#141414" stroke-linecap="round" stroke-linejoin="round" d="M14.5 12a.5.5 0 1 1-1 0 .5.5 0 0 1 1 0ZM10.5 12a.5.5 0 1 1-1 0 .5.5 0 0 1 1 0ZM10.5 6a.5.5 0 1 1-1 0 .5.5 0 0 1 1 0ZM14.5 6a.5.5 0 1 1-1 0 .5.5 0 0 1 1 0ZM16.5 9a.5.5 0 1 1-1 0 .5.5 0 0 1 1 0ZM8.5 9a.5.5 0 1 1-1 0 .5.5 0 0 1 1 0ZM12.5 9a.5.5 0 1 1-1 0 .5.5 0 0 1 1 0Z"/></svg>