<svg fill="none" viewBox="0 0 24 24" xmlns="http://www.w3.org/2000/svg">
  <path fill="currentColor" d="M12 22c5.523 0 10-4.477 10-10S17.523 2 12 2 2 6.477 2 12s4.477 10 10 10Zm-1.333-8.021v.185h2.064v-.185c.004-.356.05-.656.137-.899.09-.243.227-.458.408-.643a3.61 3.61 0 0 1 .708-.534c.342-.203.638-.43.888-.68a2.76 2.76 0 0 0 .583-.872c.142-.33.213-.708.213-1.133 0-.636-.159-1.179-.474-1.629-.316-.45-.752-.793-1.308-1.03-.555-.24-1.194-.359-1.917-.359-.657 0-1.259.118-1.803.354a2.995 2.995 0 0 0-1.313 1.062c-.33.472-.505 1.072-.523 1.798h2.223c.01-.298.083-.547.217-.746a1.28 1.28 0 0 1 .518-.458 1.48 1.48 0 0 1 .67-.158c.243 0 .465.051.665.153.203.101.364.247.484.435.12.19.18.409.18.66 0 .236-.053.45-.158.642a1.959 1.959 0 0 1-.425.518c-.178.156-.38.307-.604.452-.302.189-.56.4-.774.632-.214.232-.378.537-.49.915-.11.378-.165.884-.17 1.52Zm.147 3.29c.258.254.568.381.931.381.233 0 .447-.058.643-.174.196-.12.354-.278.474-.474a1.25 1.25 0 0 0-.207-1.574 1.265 1.265 0 0 0-.91-.381 1.28 1.28 0 0 0-.931.38c-.254.255-.38.56-.376.916-.004.36.122.668.376.926Z" clip-rule="evenodd"/>
</svg>
