<svg fill="none" viewBox="0 0 24 24" xmlns="http://www.w3.org/2000/svg">
  <path fill="currentColor" d="M12 2a10 10 0 1 0 0 20 10 10 0 0 0 0-20Zm0 18.5a8.5 8.5 0 1 1 8.5-8.5 8.51 8.51 0 0 1-8.5 8.5Zm-.12-5.307a.917.917 0 1 0 0 1.834.917.917 0 0 0 0-1.834Zm.26-8.218c-1.565 0-3.144 1.084-3.144 3.505h1.434c0-1.87 1.195-2.072 1.71-2.072a1.554 1.554 0 0 1 1.668 1.375c0 .667-.287.89-.935 1.334a3.174 3.174 0 0 0-1.706 2.877h1.434c0-.956.43-1.25 1.08-1.693a2.855 2.855 0 0 0 1.56-2.518 2.97 2.97 0 0 0-3.101-2.808Z"/>
</svg>
