<svg width="96" height="96" fill="none" viewBox="0 0 96 96" xmlns="http://www.w3.org/2000/svg">
  <path fill="url(#prefix__a)" d="m71 42-7-6H14l-7 6v2h64v-2Z" clip-rule="evenodd"/>
  <path fill="url(#prefix__b)" d="m89 82-7-6H32l-7 6v2h64v-2Z" clip-rule="evenodd"/>
  <path fill="url(#prefix__c)" d="M14 11a3 3 0 0 1 3-3h44a3 3 0 0 1 3 3v25H14V11Z" clip-rule="evenodd" opacity=".45"/>
  <path fill="url(#prefix__d)" d="M32 51a3 3 0 0 1 3-3h44a3 3 0 0 1 3 3v25H32V51Z" clip-rule="evenodd" opacity=".45"/>
  <path fill="url(#prefix__e)" d="M43.435 48A34.18 34.18 0 0 1 41 44h9.233A25.819 25.819 0 0 0 54 48H43.435Z" clip-rule="evenodd"/>
  <path fill="url(#prefix__f)" d="M37.947 36A34.089 34.089 0 0 1 37 28h-5l9-13 9 13h-4.96l-.04.133A25.976 25.976 0 0 0 46.254 36h-8.307Z" clip-rule="evenodd"/>
  <path fill="url(#prefix__g)" d="M43 48h10.687c4.424 3.747 10.11 6 16.313 6v8c-11.097 0-20.93-5.515-27-14Z" clip-rule="evenodd"/>
  <path fill="url(#prefix__h)" d="M51 44h-9.847A33.074 33.074 0 0 1 38 36h8.6a25.657 25.657 0 0 0 4.4 8Z" clip-rule="evenodd"/>
  <defs>
    <linearGradient id="prefix__a" x1="-17.76" x2="-16.195" y1="39.547" y2="53.666" gradientUnits="userSpaceOnUse">
      <stop stop-color="#8FBDFF"/>
      <stop offset="1" stop-color="#4D82D5"/>
    </linearGradient>
    <linearGradient id="prefix__b" x1="57" x2="58.969" y1="88" y2="72.246" gradientUnits="userSpaceOnUse">
      <stop stop-color="#295296"/>
      <stop offset="1" stop-color="#3E78D3"/>
    </linearGradient>
    <linearGradient id="prefix__c" x1="39" x2="62.874" y1="50" y2="7.369" gradientUnits="userSpaceOnUse">
      <stop stop-color="#70B1FF"/>
      <stop offset="1" stop-color="#005CCD"/>
    </linearGradient>
    <linearGradient id="prefix__d" x1="57" x2="80.874" y1="90" y2="47.369" gradientUnits="userSpaceOnUse">
      <stop stop-color="#70B1FF"/>
      <stop offset="1" stop-color="#005CCD"/>
    </linearGradient>
    <linearGradient id="prefix__e" x1="60.5" x2="58.251" y1="46" y2="38.692" gradientUnits="userSpaceOnUse">
      <stop stop-color="#A8CBF5"/>
      <stop offset="1" stop-color="#ADCFF8"/>
    </linearGradient>
    <linearGradient id="prefix__f" x1="59" x2="38.247" y1="25.5" y2="7.712" gradientUnits="userSpaceOnUse">
      <stop stop-color="#71A1E8"/>
      <stop offset="1" stop-color="#7EADF0"/>
    </linearGradient>
    <linearGradient id="prefix__g" x1="29.5" x2="40.942" y1="55" y2="77.067" gradientUnits="userSpaceOnUse">
      <stop stop-color="#74A6EF"/>
      <stop offset="1" stop-color="#6598E6"/>
    </linearGradient>
    <linearGradient id="prefix__h" x1="32.971" x2="38.981" y1="39.547" y2="50.56" gradientUnits="userSpaceOnUse">
      <stop stop-color="#4C83E5"/>
      <stop offset="1" stop-color="#4178DB"/>
    </linearGradient>
  </defs>
</svg>
