<svg width="48" height="48" fill="none" viewBox="0 0 48 48" xmlns="http://www.w3.org/2000/svg">
  <path fill="url(#prefix__a)" d="M4.658 14h38.684c.916 0 1.658.76 1.658 1.696v22.608c0 .937-.742 1.696-1.658 1.696H4.658C3.742 40 3 39.24 3 38.304V15.696C3 14.759 3.742 14 4.658 14Z" clip-rule="evenodd"/>
  <path fill="url(#prefix__b)" d="M19.25 40h9.5L30 47H18l1.25-7Z" clip-rule="evenodd"/>
  <path fill="url(#prefix__c)" d="M3 35h42v3.5a1.5 1.5 0 0 1-1.5 1.5h-39A1.5 1.5 0 0 1 3 38.5V35Z" clip-rule="evenodd"/>
  <path fill="url(#prefix__d)" d="M13 8h18v18H13z" opacity=".6"/>
  <path fill="url(#prefix__e)" d="M20 2h18v18H20z" opacity=".6"/>
  <defs>
    <linearGradient id="prefix__a" x1="39.06" x2="36.115" y1="37.687" y2="15.627" gradientUnits="userSpaceOnUse">
      <stop stop-color="#0049A6"/>
      <stop offset="1" stop-color="#0064C6"/>
    </linearGradient>
    <linearGradient id="prefix__b" x1="34.879" x2="28.106" y1="42.192" y2="32.751" gradientUnits="userSpaceOnUse">
      <stop stop-color="#0049A6"/>
      <stop offset="1" stop-color="#0064C6"/>
    </linearGradient>
    <linearGradient id="prefix__c" x1="13.5" x2="16.317" y1="42.5" y2="30.671" gradientUnits="userSpaceOnUse">
      <stop stop-color="#1372C4"/>
      <stop offset="1" stop-color="#1DAFF2"/>
    </linearGradient>
    <linearGradient id="prefix__d" x1="22" x2="5.704" y1="-.148" y2="17.852" gradientUnits="userSpaceOnUse">
      <stop stop-color="#0048A6"/>
      <stop offset="1" stop-color="#46A3FF"/>
    </linearGradient>
    <linearGradient id="prefix__e" x1="29" x2="12.704" y1="-6.148" y2="11.852" gradientUnits="userSpaceOnUse">
      <stop stop-color="#0048A6"/>
      <stop offset="1" stop-color="#46A3FF"/>
    </linearGradient>
  </defs>
</svg>
