<svg width="48" height="48" fill="none" viewBox="0 0 48 48" xmlns="http://www.w3.org/2000/svg">
  <path fill="url(#prefix__a)" d="M24 33a9 9 0 1 0 0-18 9 9 0 0 0 0 18Z" clip-rule="evenodd"/>
  <path fill="url(#prefix__b)" d="M46 18h-5V7H30V2h16v16Z" clip-rule="evenodd"/>
  <path fill="url(#prefix__c)" d="M46 30v16H30v-5h11V30h5Z" clip-rule="evenodd"/>
  <path fill="url(#prefix__d)" d="M7 30v11h11v5H2V30h5Z" clip-rule="evenodd"/>
  <path fill="url(#prefix__e)" d="M2 18V2h16v5H7v11H2Z" clip-rule="evenodd"/>
  <path fill="url(#prefix__f)" d="M21 21V11h6v10h10v6H27v10h-6V27H11v-6h10Z" clip-rule="evenodd"/>
  <path fill="url(#prefix__g)" d="M21 32.488V27h-5.488A8.987 8.987 0 0 1 15 24c0-1.052.18-2.062.512-3H21v-5.488A8.987 8.987 0 0 1 24 15c1.052 0 2.062.18 3 .512V21h5.488c.331.938.512 1.948.512 3s-.18 2.062-.512 3H27v5.488A8.987 8.987 0 0 1 24 33a8.987 8.987 0 0 1-3-.512Z" clip-rule="evenodd"/>
  <defs>
    <linearGradient id="prefix__a" x1="30.454" x2="27.251" y1="31.399" y2="16.545" gradientUnits="userSpaceOnUse">
      <stop stop-color="#0049A6"/>
      <stop offset="1" stop-color="#0064C6"/>
    </linearGradient>
    <linearGradient id="prefix__b" x1="43.737" x2="40.89" y1="16.576" y2="3.373" gradientUnits="userSpaceOnUse">
      <stop stop-color="#0049A6"/>
      <stop offset="1" stop-color="#0064C6"/>
    </linearGradient>
    <linearGradient id="prefix__c" x1="43.737" x2="40.89" y1="44.577" y2="31.373" gradientUnits="userSpaceOnUse">
      <stop stop-color="#0049A6"/>
      <stop offset="1" stop-color="#0064C6"/>
    </linearGradient>
    <linearGradient id="prefix__d" x1="15.737" x2="12.89" y1="44.577" y2="31.373" gradientUnits="userSpaceOnUse">
      <stop stop-color="#0049A6"/>
      <stop offset="1" stop-color="#0064C6"/>
    </linearGradient>
    <linearGradient id="prefix__e" x1="15.737" x2="12.89" y1="16.576" y2="3.373" gradientUnits="userSpaceOnUse">
      <stop stop-color="#0049A6"/>
      <stop offset="1" stop-color="#0064C6"/>
    </linearGradient>
    <linearGradient id="prefix__f" x1="33.323" x2="28.696" y1="34.687" y2="13.232" gradientUnits="userSpaceOnUse">
      <stop stop-color="#0049A6"/>
      <stop offset="1" stop-color="#0064C6"/>
    </linearGradient>
    <linearGradient id="prefix__g" x1="42" x2="24" y1="24" y2="6" gradientUnits="userSpaceOnUse">
      <stop stop-color="#1372C4"/>
      <stop offset="1" stop-color="#1DAFF2"/>
    </linearGradient>
  </defs>
</svg>
