<svg width="96" height="96" fill="none" viewBox="0 0 96 96" xmlns="http://www.w3.org/2000/svg">
  <path fill="url(#prefix__a)" d="M46 37.176 65.319 32 80.33 88.024l-11.73-5.14L61.012 93.2 46 37.176Z" clip-rule="evenodd"/>
  <path fill="url(#prefix__b)" d="M50.33 37.176 35.319 93.2l-7.59-10.316L16 88.025 31.012 32l19.318 5.176Z" clip-rule="evenodd"/>
  <path fill="url(#prefix__c)" d="M52.004 62.148a9.68 9.68 0 0 0-8.008 0c-5.102 2.318-11.1-.167-13.068-5.413a9.68 9.68 0 0 0-5.663-5.663c-5.247-1.968-7.73-7.966-5.413-13.068a9.68 9.68 0 0 0 0-8.008c-2.318-5.102.166-11.1 5.413-13.068a9.68 9.68 0 0 0 5.663-5.663c1.968-5.247 7.966-7.731 13.068-5.413a9.68 9.68 0 0 0 8.008 0c5.102-2.318 11.1.166 13.068 5.413a9.68 9.68 0 0 0 5.663 5.663c5.246 1.968 7.73 7.966 5.413 13.067a9.68 9.68 0 0 0 0 8.01c2.318 5.1-.166 11.099-5.413 13.067a9.68 9.68 0 0 0-5.663 5.663c-1.968 5.246-7.966 7.73-13.068 5.413Z" clip-rule="evenodd" opacity=".6"/>
  <path fill="url(#prefix__d)" d="M48 52c9.941 0 18-8.059 18-18s-8.059-18-18-18-18 8.059-18 18 8.059 18 18 18Z" clip-rule="evenodd"/>
  <defs>
    <linearGradient id="prefix__a" x1="33.517" x2="25.219" y1="36.862" y2="89.952" gradientUnits="userSpaceOnUse">
      <stop stop-color="#0049A6"/>
      <stop offset="1" stop-color="#0064C6"/>
    </linearGradient>
    <linearGradient id="prefix__b" x1="3.517" x2="-4.781" y1="36.862" y2="89.952" gradientUnits="userSpaceOnUse">
      <stop stop-color="#0049A6"/>
      <stop offset="1" stop-color="#0064C6"/>
    </linearGradient>
    <linearGradient id="prefix__c" x1="49.572" x2="-.17" y1="-23.304" y2="28.686" gradientUnits="userSpaceOnUse">
      <stop stop-color="#0048A6"/>
      <stop offset="1" stop-color="#46A3FF"/>
    </linearGradient>
    <linearGradient id="prefix__d" x1="46.224" x2="24.853" y1="10.168" y2="38.607" gradientUnits="userSpaceOnUse">
      <stop stop-color="#1372C4"/>
      <stop offset="1" stop-color="#1DAFF2"/>
    </linearGradient>
  </defs>
</svg>
