<svg width="48" height="48" fill="none" viewBox="0 0 48 48" xmlns="http://www.w3.org/2000/svg">
  <path fill="url(#prefix__a)" d="M23 18.588 32.66 16l7.505 28.012-5.865-2.57-3.794 5.158L23 18.588Z" clip-rule="evenodd"/>
  <path fill="url(#prefix__b)" d="M25.165 18.588 17.659 46.6l-3.794-5.158L8 44.012 15.506 16l9.659 2.588Z" clip-rule="evenodd"/>
  <path fill="url(#prefix__c)" d="M26.002 31.074a4.84 4.84 0 0 0-4.004 0 4.84 4.84 0 0 1-6.534-2.707 4.84 4.84 0 0 0-2.832-2.831 4.84 4.84 0 0 1-2.706-6.534 4.84 4.84 0 0 0 0-4.004 4.84 4.84 0 0 1 2.706-6.534 4.84 4.84 0 0 0 2.832-2.832 4.84 4.84 0 0 1 6.534-2.706 4.84 4.84 0 0 0 4.004 0 4.84 4.84 0 0 1 6.534 2.706 4.84 4.84 0 0 0 2.832 2.832 4.84 4.84 0 0 1 2.706 6.534 4.84 4.84 0 0 0 0 4.004 4.84 4.84 0 0 1-2.706 6.534 4.84 4.84 0 0 0-2.832 2.831 4.84 4.84 0 0 1-6.534 2.707Z" clip-rule="evenodd" opacity=".6"/>
  <path fill="url(#prefix__d)" d="M24 26a9 9 0 1 0 0-18 9 9 0 0 0 0 18Z" clip-rule="evenodd"/>
  <defs>
    <linearGradient id="prefix__a" x1="16.758" x2="12.609" y1="18.431" y2="44.976" gradientUnits="userSpaceOnUse">
      <stop stop-color="#0049A6"/>
      <stop offset="1" stop-color="#0064C6"/>
    </linearGradient>
    <linearGradient id="prefix__b" x1="1.758" x2="-2.391" y1="18.431" y2="44.976" gradientUnits="userSpaceOnUse">
      <stop stop-color="#0049A6"/>
      <stop offset="1" stop-color="#0064C6"/>
    </linearGradient>
    <linearGradient id="prefix__c" x1="24.786" x2="-.085" y1="-11.652" y2="14.343" gradientUnits="userSpaceOnUse">
      <stop stop-color="#0048A6"/>
      <stop offset="1" stop-color="#46A3FF"/>
    </linearGradient>
    <linearGradient id="prefix__d" x1="23.112" x2="12.426" y1="5.084" y2="19.304" gradientUnits="userSpaceOnUse">
      <stop stop-color="#1372C4"/>
      <stop offset="1" stop-color="#1DAFF2"/>
    </linearGradient>
  </defs>
</svg>
