<svg width="48" height="48" fill="none" viewBox="0 0 48 48" xmlns="http://www.w3.org/2000/svg">
  <path fill="url(#prefix__a)" d="M27 47v-6.115c6.847-1.396 12-7.477 12-14.767 0-8.322-6.716-15.068-15-15.068v5.023L12 8.036 24 0v5.023c11.598 0 21 9.444 21 21.095C45 36.746 37.177 45.538 27 47Z" clip-rule="evenodd"/>
  <path fill="url(#prefix__b)" d="M3 28.407h6.16a14.573 14.573 0 0 0 2.211 5.214L7.016 37.88A20.417 20.417 0 0 1 3 28.407Z" clip-rule="evenodd"/>
  <path fill="url(#prefix__c)" d="M15.665 37.818A15.286 15.286 0 0 0 21 39.978V46a21.407 21.407 0 0 1-9.691-3.925l4.356-4.257Z" clip-rule="evenodd"/>
  <path fill="url(#prefix__d)" d="m7.016 13 4.355 4.257a14.573 14.573 0 0 0-2.21 5.215H3A20.418 20.418 0 0 1 7.016 13Z" clip-rule="evenodd"/>
  <defs>
    <linearGradient id="prefix__a" x1=".826" x2="25.385" y1="19.966" y2="43.321" gradientUnits="userSpaceOnUse">
      <stop stop-color="#0049A6"/>
      <stop offset="1" stop-color="#0064C6"/>
    </linearGradient>
    <linearGradient id="prefix__b" x1="35.324" x2="18.6" y1="38.199" y2="7.233" gradientUnits="userSpaceOnUse">
      <stop stop-color="#1372C4"/>
      <stop offset="1" stop-color="#1DAFF2"/>
    </linearGradient>
    <linearGradient id="prefix__c" x1="40.477" x2="30.15" y1="40.086" y2="6.078" gradientUnits="userSpaceOnUse">
      <stop stop-color="#1372C4"/>
      <stop offset="1" stop-color="#1DAFF2"/>
    </linearGradient>
    <linearGradient id="prefix__d" x1="35.86" x2="18.852" y1="38.37" y2="6.729" gradientUnits="userSpaceOnUse">
      <stop stop-color="#1372C4"/>
      <stop offset="1" stop-color="#1DAFF2"/>
    </linearGradient>
  </defs>
</svg>
