<svg width="96" height="96" fill="none" viewBox="0 0 96 96" xmlns="http://www.w3.org/2000/svg">
  <path fill="url(#prefix__a)" d="M27 46c10.493 0 19-8.507 19-19S37.493 8 27 8 8 16.507 8 27s8.507 19 19 19Z" clip-rule="evenodd" opacity=".45"/>
  <path fill="url(#prefix__b)" d="M46 27H27V8c10.496 0 19 8.512 19 19Z" clip-rule="evenodd"/>
  <path fill="url(#prefix__c)" d="M46 27c0 2.622-.532 5.122-1.49 7.394-.204.472-.418.935-.66 1.384a18.99 18.99 0 0 1-3.413 4.66L27 27h19Z" clip-rule="evenodd"/>
  <path fill="url(#prefix__d)" d="M36 54h10v32H36z" opacity=".45"/>
  <path fill="url(#prefix__e)" d="M17 36h10v50H17z" opacity=".45"/>
  <path fill="url(#prefix__f)" d="M17 43.159A18.912 18.912 0 0 0 27 46V36H17v7.159Z" clip-rule="evenodd"/>
  <path fill="url(#prefix__g)" d="M55 42h10v44H55z" opacity=".45"/>
  <path fill="url(#prefix__h)" d="M74 20h10v66H74z" opacity=".45"/>
  <path fill="url(#prefix__i)" d="M74 46h10v40H74z"/>
  <path fill="url(#prefix__j)" d="M36 65h10v21H36z"/>
  <path fill="url(#prefix__k)" d="M55 72h10v14H55z"/>
  <path fill="url(#prefix__l)" d="M17 77h10v9H17z"/>
  <defs>
    <linearGradient id="prefix__a" x1="30.37" x2="1.482" y1="-1.813" y2="27.054" gradientUnits="userSpaceOnUse">
      <stop stop-color="#70B1FF"/>
      <stop offset="1" stop-color="#005CCD"/>
    </linearGradient>
    <linearGradient id="prefix__b" x1="34.67" x2="20.568" y1="7.085" y2="19.95" gradientUnits="userSpaceOnUse">
      <stop stop-color="#8AB9FD"/>
      <stop offset="1" stop-color="#5A8FDF"/>
    </linearGradient>
    <linearGradient id="prefix__c" x1="41.585" x2="51.289" y1="42.804" y2="27.002" gradientUnits="userSpaceOnUse">
      <stop stop-color="#295296"/>
      <stop offset="1" stop-color="#3E78D3"/>
    </linearGradient>
    <linearGradient id="prefix__d" x1="26.69" x2="99.192" y1="193.213" y2="186.352" gradientUnits="userSpaceOnUse">
      <stop stop-color="#70B1FF"/>
      <stop offset="1" stop-color="#005CCD"/>
    </linearGradient>
    <linearGradient id="prefix__e" x1="7.69" x2="80.574" y1="253.52" y2="249.106" gradientUnits="userSpaceOnUse">
      <stop stop-color="#70B1FF"/>
      <stop offset="1" stop-color="#005CCD"/>
    </linearGradient>
    <linearGradient id="prefix__f" x1="21.233" x2="15.771" y1="33.269" y2="41.882" gradientUnits="userSpaceOnUse">
      <stop stop-color="#6499E5"/>
      <stop offset="1" stop-color="#5F93E1"/>
    </linearGradient>
    <linearGradient id="prefix__g" x1="45.69" x2="118.497" y1="233.417" y2="228.407" gradientUnits="userSpaceOnUse">
      <stop stop-color="#70B1FF"/>
      <stop offset="1" stop-color="#005CCD"/>
    </linearGradient>
    <linearGradient id="prefix__h" x1="64.69" x2="137.688" y1="307.126" y2="303.777" gradientUnits="userSpaceOnUse">
      <stop stop-color="#70B1FF"/>
      <stop offset="1" stop-color="#005CCD"/>
    </linearGradient>
    <linearGradient id="prefix__i" x1="79" x2="79" y1="46" y2="86" gradientUnits="userSpaceOnUse">
      <stop stop-color="#91BCF8"/>
      <stop offset="1" stop-color="#84B0F0"/>
    </linearGradient>
    <linearGradient id="prefix__j" x1="41" x2="41" y1="65" y2="86" gradientUnits="userSpaceOnUse">
      <stop stop-color="#8EBAF7"/>
      <stop offset="1" stop-color="#81ADEE"/>
    </linearGradient>
    <linearGradient id="prefix__k" x1="60" x2="73.243" y1="93" y2="83.54" gradientUnits="userSpaceOnUse">
      <stop stop-color="#295296"/>
      <stop offset="1" stop-color="#3E78D3"/>
    </linearGradient>
    <linearGradient id="prefix__l" x1="22" x2="30.95" y1="90.5" y2="80.555" gradientUnits="userSpaceOnUse">
      <stop stop-color="#295296"/>
      <stop offset="1" stop-color="#3E78D3"/>
    </linearGradient>
  </defs>
</svg>
