<svg width="48" height="48" fill="none" viewBox="0 0 48 48" xmlns="http://www.w3.org/2000/svg">
  <path fill="url(#prefix__a)" d="M13.703 27h25.088c3.157 0 5.715-2.686 5.715-6s-2.558-6-5.715-6h-2.397C36.13 8.88 31.021 4 24.76 4a11.68 11.68 0 0 0-9.025 4.23A9.77 9.77 0 0 0 13.62 8C8.308 8 4 12.253 4 17.5S8.308 27 13.62 27h.083Z" clip-rule="evenodd" opacity=".45"/>
  <path fill="url(#prefix__b)" d="M15.5 15a3.5 3.5 0 0 0-3.5 3.5v21a3.5 3.5 0 0 0 3.5 3.5h17a3.5 3.5 0 0 0 3.5-3.5v-21a3.5 3.5 0 0 0-3.5-3.5h-17ZM18 39.5a1.5 1.5 0 1 1-3 0 1.5 1.5 0 0 1 3 0Z" clip-rule="evenodd" opacity=".45"/>
  <path fill="url(#prefix__c)" d="M12 26.866a9.807 9.807 0 0 0 1.766.134H36v-8.5a3.5 3.5 0 0 0-3.5-3.5h-17a3.5 3.5 0 0 0-3.5 3.5v8.366Z" clip-rule="evenodd"/>
  <path fill="url(#prefix__d)" d="M15.5 36h17a3.5 3.5 0 1 1 0 7h-17a3.5 3.5 0 1 1 0-7Zm1 5a1.5 1.5 0 1 0 0-3 1.5 1.5 0 0 0 0 3Z" clip-rule="evenodd"/>
  <defs>
    <linearGradient id="prefix__a" x1="26.395" x2="5.449" y1="-5.067" y2="27.92" gradientUnits="userSpaceOnUse">
      <stop stop-color="#70B1FF"/>
      <stop offset="1" stop-color="#005CCD"/>
    </linearGradient>
    <linearGradient id="prefix__b" x1="25.743" x2="58.93" y1="59.93" y2="32.991" gradientUnits="userSpaceOnUse">
      <stop stop-color="#70B1FF"/>
      <stop offset="1" stop-color="#005CCD"/>
    </linearGradient>
    <linearGradient id="prefix__c" x1="25.269" x2="14.982" y1="10.269" y2="28.667" gradientUnits="userSpaceOnUse">
      <stop stop-color="#689BE7"/>
      <stop offset="1" stop-color="#679AE7"/>
    </linearGradient>
    <linearGradient id="prefix__d" x1="49.59" x2="10.98" y1="33.117" y2="33.117" gradientUnits="userSpaceOnUse">
      <stop stop-color="#295296"/>
      <stop offset="1" stop-color="#3E78D3"/>
    </linearGradient>
  </defs>
</svg>
