<svg width="96" height="96" fill="none" viewBox="0 0 96 96" xmlns="http://www.w3.org/2000/svg">
  <path fill="url(#prefix__a)" d="M31.646 88 5 25.225l5.523-2.344L38.164 88h-6.518Z" clip-rule="evenodd"/>
  <path fill="#13519A" d="m12.086 26.563 51.548-21.88 16.41 38.66-51.547 21.881-16.411-38.661Z" clip-rule="evenodd" opacity=".45"/>
  <path fill="#0054B4" d="m17.556 39.45 12.887-5.47 5.47 12.887-12.887 5.47-5.47-12.887Zm7.42-18.357 12.888-5.47 5.47 12.887-12.887 5.47-5.47-12.887Zm10.938 25.774 12.887-5.47 5.47 12.887-12.887 5.47-5.47-12.887ZM50.75 10.153l12.887-5.47 5.47 12.886-12.887 5.47-5.47-12.887Zm10.938 25.773 12.887-5.47 5.47 12.887-12.887 5.47-5.47-12.887ZM43.33 28.51l12.887-5.47 5.47 12.887-12.886 5.47-5.47-12.887Z" clip-rule="evenodd"/>
  <path fill="#004BA9" d="M63.24 32.003 86 88h-6.476L75.46 78H44.54l-4.063 10H34l22.762-56h6.478v.003ZM70.585 66l2.438 6H46.976l2.438-6h21.172ZM60 39.941 68.149 60H51.85L60 39.941Z" clip-rule="evenodd" opacity=".75"/>
  <path fill="url(#prefix__b)" d="M36.037 82.988 38.164 88H34l2.037-5.012Z" clip-rule="evenodd"/>
  <path fill="url(#prefix__c)" d="M69.643 47.758 64.127 50.1 60 39.941l-5.847 14.393-7.818 3.318L56.762 32h6.478v.003l6.403 15.755Z" clip-rule="evenodd"/>
  <defs>
    <linearGradient id="prefix__a" x1="-6.23" x2="25.618" y1="50.544" y2="72.512" gradientUnits="userSpaceOnUse">
      <stop stop-color="#0049A6"/>
      <stop offset="1" stop-color="#0064C6"/>
    </linearGradient>
    <linearGradient id="prefix__b" x1="50.08" x2="40.939" y1="88.169" y2="72.257" gradientUnits="userSpaceOnUse">
      <stop stop-color="#1372C4"/>
      <stop offset="1" stop-color="#1DAFF2"/>
    </linearGradient>
    <linearGradient id="prefix__c" x1="116.488" x2="76.639" y1="39.11" y2="-61.565" gradientUnits="userSpaceOnUse">
      <stop stop-color="#1372C4"/>
      <stop offset="1" stop-color="#1DAFF2"/>
    </linearGradient>
  </defs>
</svg>
