<svg width="48" height="48" fill="none" viewBox="0 0 48 48" xmlns="http://www.w3.org/2000/svg">
  <path fill="url(#prefix__a)" d="M40 28c0 8.837-7.163 16-16 16S8 36.837 8 28s7.163-16 16-16 16 7.163 16 16Zm-13 0a3 3 0 1 1-6 0 3 3 0 0 1 6 0Z" clip-rule="evenodd" opacity=".45"/>
  <path fill="url(#prefix__b)" d="M27 28h10c-.021-7.162-5.833-12.96-13-12.96V25a3 3 0 0 1 3 3Z" clip-rule="evenodd"/>
  <path fill="url(#prefix__c)" d="M17 4h14v6H17z" opacity=".45"/>
  <path fill="url(#prefix__d)" d="M17 4h14v6H17z"/>
  <defs>
    <linearGradient id="prefix__a" x1="22.079" x2="50.653" y1="58.287" y2="30.13" gradientUnits="userSpaceOnUse">
      <stop stop-color="#70B1FF"/>
      <stop offset="1" stop-color="#005CCD"/>
    </linearGradient>
    <linearGradient id="prefix__b" x1="28.674" x2="42.755" y1="37.688" y2="23.302" gradientUnits="userSpaceOnUse">
      <stop stop-color="#295296"/>
      <stop offset="1" stop-color="#3E78D3"/>
    </linearGradient>
    <linearGradient id="prefix__c" x1="22.508" x2="13.017" y1="-1.091" y2="14.741" gradientUnits="userSpaceOnUse">
      <stop stop-color="#70B1FF"/>
      <stop offset="1" stop-color="#005CCD"/>
    </linearGradient>
    <linearGradient id="prefix__d" x1="24" x2="19.655" y1="1" y2="11.138" gradientUnits="userSpaceOnUse">
      <stop stop-color="#8FBDFF"/>
      <stop offset="1" stop-color="#6498E5"/>
    </linearGradient>
  </defs>
</svg>
