<svg width="96" height="96" fill="none" viewBox="0 0 96 96" xmlns="http://www.w3.org/2000/svg">
  <path fill="url(#prefix__a)" d="M78.297 28.714a13.194 13.194 0 0 0-1.191-17.291c-4.489-4.489-11.766-4.489-16.254 0a13.177 13.177 0 0 0-1.18 17.282L69 41l9.297-12.286ZM74 20a5 5 0 1 1-10 0 5 5 0 0 1 10 0Z" clip-rule="evenodd" opacity=".5"/>
  <path fill="url(#prefix__b)" d="M49 79c17.673 0 32-14.327 32-32 0-17.673-14.327-32-32-32-17.673 0-32 14.327-32 32 0 17.673 14.327 32 32 32Z" clip-rule="evenodd" opacity=".4"/>
  <path fill="url(#prefix__c)" d="M76.653 30.887 69 41l-9.328-12.295a13.176 13.176 0 0 1-1.882-12.483 31.797 31.797 0 0 1 6.354 2.581 5 5 0 0 0 7.41 5.496 32.126 32.126 0 0 1 5.1 6.588Z" clip-rule="evenodd"/>
  <path fill="url(#prefix__d)" d="M18.957 35.957C23.454 23.725 35.208 15 49 15c.3 0 .598.004.895.012L39 24.995v5.52L26 43l-7.043-7.043Z" clip-rule="evenodd"/>
  <path fill="url(#prefix__e)" d="M80.861 50c-1.418 15.253-13.54 27.399-28.783 28.854V60H62.97l9.125-10h8.766Z" clip-rule="evenodd"/>
  <path fill="url(#prefix__f)" d="M30.784 59.247A13.948 13.948 0 0 0 25 58c-7.732 0-14 6.268-14 14s6.268 14 14 14 14-6.268 14-14c0-2.583-.7-5.003-1.92-7.08L56 46v-6l-5.98.025L48 42v4h-3.995v4H40v4h-4l-5.216 5.247Z" clip-rule="evenodd" opacity=".55"/>
  <path fill="url(#prefix__g)" d="M38.05 77.078a32.1 32.1 0 0 1-18.656-17.91A13.953 13.953 0 0 1 25 58c2.063 0 4.02.446 5.784 1.247L36 54h4v-4h4.005v-4H48v-4l2.02-1.975L56 40v6L37.08 64.92A13.936 13.936 0 0 1 39 72c0 1.791-.336 3.504-.95 5.078Z" clip-rule="evenodd"/>
  <path fill="url(#prefix__h)" d="M20.5 79a3.5 3.5 0 1 0 0-7 3.5 3.5 0 0 0 0 7Z" clip-rule="evenodd"/>
  <defs>
    <linearGradient id="prefix__a" x1="58.818" x2="86.735" y1="48.52" y2="45.421" gradientUnits="userSpaceOnUse">
      <stop stop-color="#70B1FF"/>
      <stop offset="1" stop-color="#005CCD"/>
    </linearGradient>
    <linearGradient id="prefix__b" x1="62.776" x2="106.952" y1="99.14" y2="39.064" gradientUnits="userSpaceOnUse">
      <stop stop-color="#70B1FF"/>
      <stop offset="1" stop-color="#005CCD"/>
    </linearGradient>
    <linearGradient id="prefix__c" x1="66.95" x2="100.68" y1="63.369" y2="36.541" gradientUnits="userSpaceOnUse">
      <stop stop-color="#295296"/>
      <stop offset="1" stop-color="#3E78D3"/>
    </linearGradient>
    <linearGradient id="prefix__d" x1="40.821" x2="59.157" y1="51.635" y2="24.081" gradientUnits="userSpaceOnUse">
      <stop stop-color="#8FBBF9"/>
      <stop offset="1" stop-color="#6293DE"/>
    </linearGradient>
    <linearGradient id="prefix__e" x1="66.47" x2="95.324" y1="93.281" y2="64.498" gradientUnits="userSpaceOnUse">
      <stop stop-color="#96C0FC"/>
      <stop offset="1" stop-color="#6595DF"/>
    </linearGradient>
    <linearGradient id="prefix__f" x1="35.499" x2="-7.113" y1="18.681" y2="59.659" gradientUnits="userSpaceOnUse">
      <stop stop-color="#70B1FF"/>
      <stop offset="1" stop-color="#005CCD"/>
    </linearGradient>
    <linearGradient id="prefix__g" x1="40.553" x2="70.904" y1="84.623" y2="55.572" gradientUnits="userSpaceOnUse">
      <stop stop-color="#6597DF"/>
      <stop offset="1" stop-color="#76AAF4"/>
    </linearGradient>
    <linearGradient id="prefix__h" x1="20.545" x2="30.325" y1="85.32" y2="75.516" gradientUnits="userSpaceOnUse">
      <stop stop-color="#295296"/>
      <stop offset="1" stop-color="#3E78D3"/>
    </linearGradient>
  </defs>
</svg>
