<svg width="48" height="48" fill="none" viewBox="0 0 48 48" xmlns="http://www.w3.org/2000/svg">
  <path fill="url(#prefix__a)" d="M9 19h30v23H9z" opacity=".45"/>
  <path fill="url(#prefix__b)" d="M19 19v-4a5 5 0 0 1 10 0v4h6v-4c0-6.075-4.925-11-11-11S13 8.925 13 15v4h6Z"/>
  <path fill="url(#prefix__c)" d="M22 31.663a3.5 3.5 0 1 1 3 0V37h-3v-5.337Z" clip-rule="evenodd"/>
  <path fill="url(#prefix__d)" d="M13 19h6v4h-6z"/>
  <path fill="url(#prefix__e)" d="M29 19h6v4h-6z"/>
  <defs>
    <linearGradient id="prefix__a" x1="24.26" x2="1.317" y1="5.696" y2="36.226" gradientUnits="userSpaceOnUse">
      <stop stop-color="#70B1FF"/>
      <stop offset="1" stop-color="#005CCD"/>
    </linearGradient>
    <linearGradient id="prefix__b" x1="21.841" x2="33.847" y1="25.333" y2="8.571" gradientUnits="userSpaceOnUse">
      <stop stop-color="#AFD1FB"/>
      <stop offset="1" stop-color="#8CB7EC"/>
    </linearGradient>
    <linearGradient id="prefix__c" x1="23.545" x2="38.156" y1="47.834" y2="39.29" gradientUnits="userSpaceOnUse">
      <stop stop-color="#295296"/>
      <stop offset="1" stop-color="#3E78D3"/>
    </linearGradient>
    <linearGradient id="prefix__d" x1="16" x2="12.308" y1="17" y2="22.538" gradientUnits="userSpaceOnUse">
      <stop stop-color="#70A4F1"/>
      <stop offset="1" stop-color="#7BABF2"/>
    </linearGradient>
    <linearGradient id="prefix__e" x1="32" x2="28.308" y1="17" y2="22.538" gradientUnits="userSpaceOnUse">
      <stop stop-color="#70A4F1"/>
      <stop offset="1" stop-color="#7BABF2"/>
    </linearGradient>
  </defs>
</svg>
