<svg width="96" height="96" fill="none" viewBox="0 0 96 96" xmlns="http://www.w3.org/2000/svg">
  <rect width="34" height="34" x="10" y="27" fill="url(#prefix__a)" opacity=".45" rx="8"/>
  <path fill="url(#prefix__b)" d="M10.004 53.246A8 8 0 0 0 18 61h18a8 8 0 0 0 8-8v-6l-9-9-11 12-5-5-8.996 8.246Z" clip-rule="evenodd" opacity=".35" style="mix-blend-mode:multiply"/>
  <rect width="40" height="70" x="30" y="12" fill="url(#prefix__c)" opacity=".35" rx="4"/>
  <path fill="url(#prefix__d)" d="M30 27h6a8 8 0 0 1 8 8v18a8 8 0 0 1-8 8h-6V27Z" clip-rule="evenodd"/>
  <path fill="url(#prefix__e)" d="m24 50-5-5-8.996 8.246A8 8 0 0 0 18 61h12V43.455L24 50Z" clip-rule="evenodd" opacity=".35"/>
  <path fill="url(#prefix__f)" d="M30 43.455 35 38l9 9v6c0 2.21-.895 4.21-2.343 5.657A7.975 7.975 0 0 1 36 61h-6V43.455Z" clip-rule="evenodd"/>
  <path fill="url(#prefix__g)" d="M34 12h32a4 4 0 0 1 4 4v4H30v-4a4 4 0 0 1 4-4Z" clip-rule="evenodd"/>
  <path fill="url(#prefix__h)" d="M30 68h40v10a4 4 0 0 1-4 4H34a4 4 0 0 1-4-4V68Zm20 10a3 3 0 1 0 0-6 3 3 0 0 0 0 6Z" clip-rule="evenodd"/>
  <path fill="url(#prefix__i)" d="M20 39a3 3 0 1 0 0-6 3 3 0 0 0 0 6Z" clip-rule="evenodd"/>
  <path fill="url(#prefix__j)" d="M76 48v5l13-9-13-9v5H50v8h26Z" clip-rule="evenodd" opacity=".45"/>
  <path fill="url(#prefix__k)" d="M50 40h20v8H50z"/>
  <defs>
    <linearGradient id="prefix__a" x1="28.369" x2="-5.631" y1="12.738" y2="44" gradientUnits="userSpaceOnUse">
      <stop stop-color="#70B1FF"/>
      <stop offset="1" stop-color="#005CCD"/>
    </linearGradient>
    <linearGradient id="prefix__b" x1="27.002" x2="48.351" y1="72.5" y2="40.944" gradientUnits="userSpaceOnUse">
      <stop stop-color="#70B1FF"/>
      <stop offset="1" stop-color="#005CCD"/>
    </linearGradient>
    <linearGradient id="prefix__c" x1="53.787" x2="111.279" y1="113.686" y2="77.398" gradientUnits="userSpaceOnUse">
      <stop stop-color="#70B1FF"/>
      <stop offset="1" stop-color="#005CCD"/>
    </linearGradient>
    <linearGradient id="prefix__d" x1="39.741" x2="21.692" y1="12.738" y2="17.26" gradientUnits="userSpaceOnUse">
      <stop stop-color="#87B3F5"/>
      <stop offset="1" stop-color="#80AEF1"/>
    </linearGradient>
    <linearGradient id="prefix__e" x1="20.002" x2="37.398" y1="69.773" y2="49.946" gradientUnits="userSpaceOnUse">
      <stop stop-color="#6597E0"/>
      <stop offset="1" stop-color="#7BAAEE"/>
    </linearGradient>
    <linearGradient id="prefix__f" x1="37" x2="57.43" y1="72.5" y2="60.064" gradientUnits="userSpaceOnUse">
      <stop stop-color="#5C93EB"/>
      <stop offset="1" stop-color="#5E93EA"/>
    </linearGradient>
    <linearGradient id="prefix__g" x1="10" x2="13.077" y1="16" y2="31.385" gradientUnits="userSpaceOnUse">
      <stop stop-color="#8FB9F2"/>
      <stop offset="1" stop-color="#719EE1"/>
    </linearGradient>
    <linearGradient id="prefix__h" x1="15.058" x2="26.275" y1="75" y2="98.944" gradientUnits="userSpaceOnUse">
      <stop stop-color="#96C2FD"/>
      <stop offset="1" stop-color="#6D9FE7"/>
    </linearGradient>
    <linearGradient id="prefix__i" x1="19.987" x2="30.102" y1="46.178" y2="36.024" gradientUnits="userSpaceOnUse">
      <stop stop-color="#295296"/>
      <stop offset="1" stop-color="#3E78D3"/>
    </linearGradient>
    <linearGradient id="prefix__j" x1="37.115" x2="55.487" y1="49.089" y2="75.391" gradientUnits="userSpaceOnUse">
      <stop stop-color="#70B1FF"/>
      <stop offset="1" stop-color="#005CCD"/>
    </linearGradient>
    <linearGradient id="prefix__k" x1="69.32" x2="76.843" y1="65.185" y2="35.061" gradientUnits="userSpaceOnUse">
      <stop stop-color="#295296"/>
      <stop offset="1" stop-color="#3E78D3"/>
    </linearGradient>
  </defs>
</svg>
