<svg width="48" height="48" fill="none" viewBox="0 0 48 48" xmlns="http://www.w3.org/2000/svg">
  <path fill="url(#prefix__a)" d="M11 7h16a2 2 0 0 1 2 2v32a2 2 0 0 1-2 2H11a2 2 0 0 1-2-2V9a2 2 0 0 1 2-2Zm8 34a2 2 0 1 0 0-4 2 2 0 0 0 0 4Z" clip-rule="evenodd" opacity=".35"/>
  <path fill="url(#prefix__b)" d="M11 7h16a2 2 0 0 1 2 2v3H9V9a2 2 0 0 1 2-2Z" clip-rule="evenodd"/>
  <path fill="url(#prefix__c)" d="M9 35h20v6a2 2 0 0 1-2 2H11a2 2 0 0 1-2-2v-6Zm10 6a2 2 0 1 0 0-4 2 2 0 0 0 0 4Z" clip-rule="evenodd"/>
  <path fill="url(#prefix__d)" d="m42 23-8 6v-3H16v-6h18v-3l8 6Z" clip-rule="evenodd" opacity=".5"/>
  <path fill="url(#prefix__e)" d="M16 20h13v6H16z"/>
  <defs>
    <linearGradient id="prefix__a" x1="20.894" x2="50.095" y1="59.296" y2="41.376" gradientUnits="userSpaceOnUse">
      <stop stop-color="#70B1FF"/>
      <stop offset="1" stop-color="#005CCD"/>
    </linearGradient>
    <linearGradient id="prefix__b" x1="-1" x2="1.353" y1="9.5" y2="18.912" gradientUnits="userSpaceOnUse">
      <stop stop-color="#8FB9F3"/>
      <stop offset="1" stop-color="#72A0E1"/>
    </linearGradient>
    <linearGradient id="prefix__c" x1="1.529" x2="8.472" y1="39" y2="51.968" gradientUnits="userSpaceOnUse">
      <stop stop-color="#96C0FD"/>
      <stop offset="1" stop-color="#6DA0E7"/>
    </linearGradient>
    <linearGradient id="prefix__d" x1="3" x2="12.132" y1="23" y2="3.215" gradientUnits="userSpaceOnUse">
      <stop stop-color="#70B1FF"/>
      <stop offset="1" stop-color="#005CCD"/>
    </linearGradient>
    <linearGradient id="prefix__e" x1="2.09" x2="32.554" y1="34.865" y2="34.865" gradientUnits="userSpaceOnUse">
      <stop stop-color="#295296"/>
      <stop offset="1" stop-color="#3E78D3"/>
    </linearGradient>
  </defs>
</svg>
