<svg width="48" height="48" fill="none" viewBox="0 0 48 48" xmlns="http://www.w3.org/2000/svg">
  <path fill="url(#prefix__a)" d="M19 4h15l8 8v23H19V4Z" clip-rule="evenodd" opacity=".45"/>
  <path fill="url(#prefix__b)" d="m34 4 8 8h-8V4Z" clip-rule="evenodd"/>
  <path fill="url(#prefix__c)" d="M6 23h31v19H6z" opacity=".45"/>
  <path fill="url(#prefix__d)" d="M37 35H19V23h18v12Z" clip-rule="evenodd"/>
  <path fill="url(#prefix__e)" d="M6 17h11.502l2.998 3.061L37 20v3H6v-6Z" clip-rule="evenodd" opacity=".55"/>
  <path fill="url(#prefix__f)" d="M19 23v-4.47l1.5 1.531L37 20v3H19Z"/>
  <defs>
    <linearGradient id="prefix__a" x1="32.678" x2="60.332" y1="49.032" y2="26.369" gradientUnits="userSpaceOnUse">
      <stop stop-color="#70B1FF"/>
      <stop offset="1" stop-color="#005CCD"/>
    </linearGradient>
    <linearGradient id="prefix__b" x1="52.98" x2="40.156" y1="9.599" y2="-5.813" gradientUnits="userSpaceOnUse">
      <stop stop-color="#295296"/>
      <stop offset="1" stop-color="#3E78D3"/>
    </linearGradient>
    <linearGradient id="prefix__c" x1="-9.5" x2="-9.5" y1="23" y2="42" gradientUnits="userSpaceOnUse">
      <stop stop-color="#70B1FF"/>
      <stop offset="1" stop-color="#005CCD"/>
    </linearGradient>
    <linearGradient id="prefix__d" x1="10" x2="21.077" y1="29" y2="45.615" gradientUnits="userSpaceOnUse">
      <stop stop-color="#86B5FB"/>
      <stop offset="1" stop-color="#71A6F3"/>
    </linearGradient>
    <linearGradient id="prefix__e" x1="23.821" x2="21.189" y1="14.898" y2="26.458" gradientUnits="userSpaceOnUse">
      <stop stop-color="#70B1FF"/>
      <stop offset="1" stop-color="#005CCD"/>
    </linearGradient>
    <linearGradient id="prefix__f" x1="29.348" x2="26.909" y1="16.963" y2="25.31" gradientUnits="userSpaceOnUse">
      <stop stop-color="#77A8EF"/>
      <stop offset="1" stop-color="#5590E6"/>
    </linearGradient>
  </defs>
</svg>
