<svg width="48" height="48" fill="none" viewBox="0 0 48 48" xmlns="http://www.w3.org/2000/svg">
  <path fill="url(#prefix__a)" d="M15 20h3v-4c0-6.075 4.925-11 11-11s11 4.925 11 11v4h3v22H15V20Zm14-9a5 5 0 0 0-5 5v4h10v-4a5 5 0 0 0-5-5Z" clip-rule="evenodd" opacity=".45"/>
  <path fill="url(#prefix__b)" d="m3 31 8 6v-3h18v-6H11v-3l-8 6Z" clip-rule="evenodd" opacity=".5"/>
  <path fill="url(#prefix__c)" d="m35 31-8 6v-3H15v-6h12v-3l8 6Z" clip-rule="evenodd"/>
  <defs>
    <linearGradient id="prefix__a" x1="29.242" x2="-7.932" y1="-16.402" y2="12.298" gradientUnits="userSpaceOnUse">
      <stop stop-color="#70B1FF"/>
      <stop offset="1" stop-color="#005CCD"/>
    </linearGradient>
    <linearGradient id="prefix__b" x1="42" x2="32.868" y1="31" y2="11.215" gradientUnits="userSpaceOnUse">
      <stop stop-color="#70B1FF"/>
      <stop offset="1" stop-color="#005CCD"/>
    </linearGradient>
    <linearGradient id="prefix__c" x1="-10.984" x2="12.646" y1="28.568" y2="52.799" gradientUnits="userSpaceOnUse">
      <stop stop-color="#295296"/>
      <stop offset="1" stop-color="#3E78D3"/>
    </linearGradient>
  </defs>
</svg>
