<svg width="96" height="96" fill="none" viewBox="0 0 96 96" xmlns="http://www.w3.org/2000/svg">
  <path fill="url(#prefix__a)" d="M29 12h30l16 16v46H29V12Z" clip-rule="evenodd" opacity=".4"/>
  <path fill="url(#prefix__b)" d="m59 12 16 16H59V12Z" clip-rule="evenodd"/>
  <path fill="url(#prefix__c)" d="M29 65c8.837 0 16-7.163 16-16s-7.163-16-16-16-16 7.163-16 16 7.163 16 16 16Z" clip-rule="evenodd" opacity=".5"/>
  <path fill="url(#prefix__d)" d="M21 49h16v37l-8-7-8 7V49Z" clip-rule="evenodd" opacity=".45"/>
  <path fill="url(#prefix__e)" d="M29 57a8 8 0 1 0 0-16 8 8 0 0 0 0 16Z" clip-rule="evenodd"/>
  <defs>
    <linearGradient id="prefix__a" x1="56.355" x2="111.664" y1="102.065" y2="56.738" gradientUnits="userSpaceOnUse">
      <stop stop-color="#70B1FF"/>
      <stop offset="1" stop-color="#005CCD"/>
    </linearGradient>
    <linearGradient id="prefix__b" x1="96.96" x2="71.311" y1="23.197" y2="-7.626" gradientUnits="userSpaceOnUse">
      <stop stop-color="#295296"/>
      <stop offset="1" stop-color="#3E78D3"/>
    </linearGradient>
    <linearGradient id="prefix__c" x1="53.478" x2="27.047" y1="47.878" y2="19.784" gradientUnits="userSpaceOnUse">
      <stop stop-color="#70B1FF"/>
      <stop offset="1" stop-color="#005CCD"/>
    </linearGradient>
    <linearGradient id="prefix__d" x1="13.506" x2="39.312" y1="69.839" y2="80.293" gradientUnits="userSpaceOnUse">
      <stop stop-color="#70B1FF"/>
      <stop offset="1" stop-color="#005CCD"/>
    </linearGradient>
    <linearGradient id="prefix__e" x1="12.234" x2="28.234" y1="49" y2="66.531" gradientUnits="userSpaceOnUse">
      <stop stop-color="#295296"/>
      <stop offset="1" stop-color="#3E78D3"/>
    </linearGradient>
  </defs>
</svg>
