<svg width="48" height="48" fill="none" viewBox="0 0 48 48" xmlns="http://www.w3.org/2000/svg">
  <path fill="url(#prefix__a)" d="M21 2H2v19h19V2Zm-7 7H9v5h5V9Z" clip-rule="evenodd" opacity=".45"/>
  <path fill="url(#prefix__b)" d="M33 14H14v19h19V14Zm-7 7h-5v5h5v-5Z" clip-rule="evenodd" opacity=".45"/>
  <path fill="url(#prefix__c)" d="M26 26h19v19H26z" opacity=".5"/>
  <path fill="url(#prefix__d)" d="M39 10a3 3 0 0 1 3 3v23.156L39 42l-3-5.844V13a3 3 0 0 1 3-3Z" clip-rule="evenodd" opacity=".5"/>
  <path fill="url(#prefix__e)" d="M36 26h6v10.294L39 42l-3-5.706V26Z" clip-rule="evenodd"/>
  <defs>
    <linearGradient id="prefix__a" x1="33.008" x2="9.772" y1="9.382" y2="-14.635" gradientUnits="userSpaceOnUse">
      <stop stop-color="#70B1FF"/>
      <stop offset="1" stop-color="#005CCD"/>
    </linearGradient>
    <linearGradient id="prefix__b" x1="45.008" x2="21.772" y1="21.382" y2="-2.635" gradientUnits="userSpaceOnUse">
      <stop stop-color="#70B1FF"/>
      <stop offset="1" stop-color="#005CCD"/>
    </linearGradient>
    <linearGradient id="prefix__c" x1="57.008" x2="33.772" y1="33.382" y2="9.365" gradientUnits="userSpaceOnUse">
      <stop stop-color="#70B1FF"/>
      <stop offset="1" stop-color="#005CCD"/>
    </linearGradient>
    <linearGradient id="prefix__d" x1="38.285" x2="51.299" y1="64.597" y2="62.283" gradientUnits="userSpaceOnUse">
      <stop stop-color="#70B1FF"/>
      <stop offset="1" stop-color="#005CCD"/>
    </linearGradient>
    <linearGradient id="prefix__e" x1="39.039" x2="53.764" y1="56.445" y2="50.91" gradientUnits="userSpaceOnUse">
      <stop stop-color="#295296"/>
      <stop offset="1" stop-color="#3E78D3"/>
    </linearGradient>
  </defs>
</svg>
