<svg width="96" height="96" fill="none" viewBox="0 0 96 96" xmlns="http://www.w3.org/2000/svg">
  <path fill="url(#prefix__a)" d="M73 29a4 4 0 0 1 8 0v45l-4 8-4-8V29Z" clip-rule="evenodd" opacity=".5"/>
  <path fill="url(#prefix__b)" d="M73 52h8v22l-4 8-4-8V52Z" clip-rule="evenodd"/>
  <path fill="url(#prefix__c)" d="M44 8H8v36h36V8ZM30 22h-8v8h8v-8Z" clip-rule="evenodd" opacity=".5"/>
  <path fill="url(#prefix__d)" d="M66 30H30v36h36V30ZM52 44h-8v8h8v-8Z" clip-rule="evenodd" opacity=".5"/>
  <path fill="url(#prefix__e)" d="M52 52h36v36H52z" opacity=".5"/>
  <path fill="url(#prefix__f)" d="M30 30h14v14H30z"/>
  <path fill="url(#prefix__g)" d="M52 52h14v14H52z"/>
  <defs>
    <linearGradient id="prefix__a" x1="76.046" x2="93.635" y1="122.251" y2="119.91" gradientUnits="userSpaceOnUse">
      <stop stop-color="#70B1FF"/>
      <stop offset="1" stop-color="#005CCD"/>
    </linearGradient>
    <linearGradient id="prefix__b" x1="81" x2="81" y1="82" y2="52" gradientUnits="userSpaceOnUse">
      <stop stop-color="#295296"/>
      <stop offset="1" stop-color="#3E78D3"/>
    </linearGradient>
    <linearGradient id="prefix__c" x1="66.752" x2="22.725" y1="21.986" y2="-23.519" gradientUnits="userSpaceOnUse">
      <stop stop-color="#70B1FF"/>
      <stop offset="1" stop-color="#005CCD"/>
    </linearGradient>
    <linearGradient id="prefix__d" x1="88.752" x2="44.725" y1="43.986" y2="-1.519" gradientUnits="userSpaceOnUse">
      <stop stop-color="#70B1FF"/>
      <stop offset="1" stop-color="#005CCD"/>
    </linearGradient>
    <linearGradient id="prefix__e" x1="110.752" x2="66.725" y1="65.986" y2="20.481" gradientUnits="userSpaceOnUse">
      <stop stop-color="#70B1FF"/>
      <stop offset="1" stop-color="#005CCD"/>
    </linearGradient>
    <linearGradient id="prefix__f" x1="23.679" x2="37.679" y1="37" y2="49.642" gradientUnits="userSpaceOnUse">
      <stop stop-color="#70A4F3"/>
      <stop offset="1" stop-color="#70A4F3"/>
    </linearGradient>
    <linearGradient id="prefix__g" x1="45.679" x2="59.679" y1="59" y2="71.642" gradientUnits="userSpaceOnUse">
      <stop stop-color="#5C93E6"/>
      <stop offset="1" stop-color="#679CED"/>
    </linearGradient>
  </defs>
</svg>
