<svg width="48" height="48" fill="none" viewBox="0 0 48 48" xmlns="http://www.w3.org/2000/svg">
  <path fill="url(#prefix__a)" d="M5 7h8a2 2 0 0 1 2 2v17a2 2 0 0 1-2 2H5a2 2 0 0 1-2-2V9a2 2 0 0 1 2-2Z" clip-rule="evenodd" opacity=".35"/>
  <path fill="url(#prefix__b)" d="M15 15v11a2 2 0 0 1-2 2H7V16.5A1.5 1.5 0 0 1 8.5 15H15Z" clip-rule="evenodd"/>
  <path fill="url(#prefix__c)" d="M3 24h12v2a2 2 0 0 1-2 2H5a2 2 0 0 1-2-2v-2Z" clip-rule="evenodd" opacity=".35"/>
  <path fill="url(#prefix__d)" d="M5 7h8a2 2 0 0 1 2 2v1H3V9a2 2 0 0 1 2-2Z" clip-rule="evenodd" opacity=".35"/>
  <path fill="url(#prefix__e)" d="M8.5 15h35a1.5 1.5 0 0 1 1.5 1.5v20a1.5 1.5 0 0 1-1.5 1.5h-35A1.5 1.5 0 0 1 7 36.5v-20A1.5 1.5 0 0 1 8.5 15Z" clip-rule="evenodd" opacity=".35"/>
  <path fill="url(#prefix__f)" d="M7 24h8v2a2 2 0 0 1-2 2H7v-4Z" clip-rule="evenodd"/>
  <path fill="url(#prefix__g)" d="M22.25 38h7.5L31 44H21l1.25-6Z" clip-rule="evenodd" opacity=".5"/>
  <path fill="url(#prefix__h)" d="M7 34h38v2.5a1.5 1.5 0 0 1-1.5 1.5h-35A1.5 1.5 0 0 1 7 36.5V34Z" clip-rule="evenodd"/>
  <path fill="url(#prefix__i)" d="m31 2-6 8h3v18h6V10h3l-6-8Z" clip-rule="evenodd" opacity=".45"/>
  <path fill="url(#prefix__j)" d="M28 15h6v13h-6z"/>
  <defs>
    <linearGradient id="prefix__a" x1="10.136" x2="27.384" y1="37.506" y2="26.619" gradientUnits="userSpaceOnUse">
      <stop stop-color="#70B1FF"/>
      <stop offset="1" stop-color="#005CCD"/>
    </linearGradient>
    <linearGradient id="prefix__b" x1="9.677" x2="19.579" y1="30.199" y2="26.121" gradientUnits="userSpaceOnUse">
      <stop stop-color="#9DC5FB"/>
      <stop offset="1" stop-color="#8DB7F3"/>
    </linearGradient>
    <linearGradient id="prefix__c" x1="10.136" x2="12.149" y1="29.811" y2="23.14" gradientUnits="userSpaceOnUse">
      <stop stop-color="#70B1FF"/>
      <stop offset="1" stop-color="#005CCD"/>
    </linearGradient>
    <linearGradient id="prefix__d" x1="10.136" x2="11.311" y1="11.358" y2="6.165" gradientUnits="userSpaceOnUse">
      <stop stop-color="#70B1FF"/>
      <stop offset="1" stop-color="#005CCD"/>
    </linearGradient>
    <linearGradient id="prefix__e" x1="-7.836" x2="13.593" y1="26.209" y2="56.409" gradientUnits="userSpaceOnUse">
      <stop stop-color="#70B1FF"/>
      <stop offset="1" stop-color="#005CCD"/>
    </linearGradient>
    <linearGradient id="prefix__f" x1="11" x2="14.2" y1="30" y2="23.6" gradientUnits="userSpaceOnUse">
      <stop stop-color="#72A9F8"/>
      <stop offset="1" stop-color="#5892E6"/>
    </linearGradient>
    <linearGradient id="prefix__g" x1="24.071" x2="19.461" y1="32.685" y2="43.334" gradientUnits="userSpaceOnUse">
      <stop stop-color="#70B1FF"/>
      <stop offset="1" stop-color="#005CCD"/>
    </linearGradient>
    <linearGradient id="prefix__h" x1="26" x2="25.167" y1="32" y2="39.912" gradientUnits="userSpaceOnUse">
      <stop stop-color="#7DACEE"/>
      <stop offset="1" stop-color="#6D9FE7"/>
    </linearGradient>
    <linearGradient id="prefix__i" x1="37" x2="37" y1="28" y2="2" gradientUnits="userSpaceOnUse">
      <stop stop-color="#70B1FF"/>
      <stop offset="1" stop-color="#005CCD"/>
    </linearGradient>
    <linearGradient id="prefix__j" x1="31.9" x2="47.176" y1="45.117" y2="35.105" gradientUnits="userSpaceOnUse">
      <stop stop-color="#295296"/>
      <stop offset="1" stop-color="#3E78D3"/>
    </linearGradient>
  </defs>
</svg>
