<svg width="48" height="48" fill="none" viewBox="0 0 48 48" xmlns="http://www.w3.org/2000/svg">
  <path fill="url(#prefix__a)" d="M7 7h34v34H7V7Zm26 16a3 3 0 1 0 0-6 3 3 0 0 0 0 6Zm-6 7a3 3 0 1 1-6 0 3 3 0 0 1 6 0Z" clip-rule="evenodd" opacity=".45"/>
  <path fill="url(#prefix__b)" d="M35 17.764V11h-4v6.764A2.989 2.989 0 0 1 33 17c.768 0 1.47.289 2 .764Zm0 4.472V37h-4V22.236c.53.475 1.232.764 2 .764s1.47-.289 2-.764Z" clip-rule="evenodd"/>
  <path fill="url(#prefix__c)" d="M26 27.764V11h-4v16.764A2.989 2.989 0 0 1 24 27c.768 0 1.47.289 2 .764Zm0 4.472V37h-4v-4.764c.53.475 1.232.764 2 .764s1.47-.289 2-.764Z" clip-rule="evenodd"/>
  <path fill="url(#prefix__d)" d="M13 11h4v26h-4z"/>
  <path fill="url(#prefix__e)" d="M15 21a3 3 0 1 0 0-6 3 3 0 0 0 0 6Z" clip-rule="evenodd"/>
  <defs>
    <linearGradient id="prefix__a" x1="41" x2="7" y1="7" y2="7" gradientUnits="userSpaceOnUse">
      <stop stop-color="#70B1FF"/>
      <stop offset="1" stop-color="#005CCD"/>
    </linearGradient>
    <linearGradient id="prefix__b" x1="29" x2="36.815" y1="24" y2="25.202" gradientUnits="userSpaceOnUse">
      <stop stop-color="#7CAFF9"/>
      <stop offset="1" stop-color="#538CE2"/>
    </linearGradient>
    <linearGradient id="prefix__c" x1="24" x2="31.815" y1="50" y2="48.798" gradientUnits="userSpaceOnUse">
      <stop stop-color="#72A6F3"/>
      <stop offset="1" stop-color="#4D85DC"/>
    </linearGradient>
    <linearGradient id="prefix__d" x1="11" x2="18.815" y1="24" y2="25.202" gradientUnits="userSpaceOnUse">
      <stop stop-color="#689DED"/>
      <stop offset="1" stop-color="#467ED7"/>
    </linearGradient>
    <linearGradient id="prefix__e" x1="17.044" x2="26.52" y1="24.842" y2="16.417" gradientUnits="userSpaceOnUse">
      <stop stop-color="#295296"/>
      <stop offset="1" stop-color="#3E78D3"/>
    </linearGradient>
  </defs>
</svg>
