<svg width="48" height="48" fill="none" viewBox="0 0 48 48" xmlns="http://www.w3.org/2000/svg">
  <path fill="url(#prefix__a)" d="M13.766 27a6.433 6.433 0 0 1-.146 0C8.308 27 4 22.747 4 17.5S8.308 8 13.62 8c.727 0 1.435.08 2.116.23A11.68 11.68 0 0 1 24.758 4c6.262 0 11.37 4.88 11.635 11h2.397c3.157 0 5.715 2.686 5.715 6s-2.558 6-5.715 6H13.766ZM30 21.5a1.5 1.5 0 1 1-3 0 1.5 1.5 0 0 1 3 0Z" clip-rule="evenodd" opacity=".45"/>
  <path fill="url(#prefix__b)" d="M12 17h18a3 3 0 0 1 3 3v18a3 3 0 0 1-3 3H12a3 3 0 0 1-3-3V20a3 3 0 0 1 3-3Zm16.5 6a1.5 1.5 0 1 0 0-3 1.5 1.5 0 0 0 0 3Z" clip-rule="evenodd" opacity=".5"/>
  <path fill="url(#prefix__c)" d="M21 35a6 6 0 1 0 0-12 6 6 0 0 0 0 12Z" clip-rule="evenodd"/>
  <defs>
    <linearGradient id="prefix__a" x1="-16.253" x2="3.498" y1="15.5" y2="50.285" gradientUnits="userSpaceOnUse">
      <stop stop-color="#70B1FF"/>
      <stop offset="1" stop-color="#005CCD"/>
    </linearGradient>
    <linearGradient id="prefix__b" x1="-3" x2="-3" y1="17" y2="41" gradientUnits="userSpaceOnUse">
      <stop stop-color="#70B1FF"/>
      <stop offset="1" stop-color="#005CCD"/>
    </linearGradient>
    <linearGradient id="prefix__c" x1="21" x2="33" y1="41" y2="29" gradientUnits="userSpaceOnUse">
      <stop stop-color="#295296"/>
      <stop offset="1" stop-color="#3E78D3"/>
    </linearGradient>
  </defs>
</svg>
