<svg width="96" height="96" fill="none" viewBox="0 0 96 96" xmlns="http://www.w3.org/2000/svg">
  <path fill="url(#prefix__a)" d="M26.164 55h49.549C81.947 55 87 49.628 87 43s-5.053-12-11.287-12h-4.734C70.455 18.762 60.367 9 48 9c-7.187 0-13.605 3.297-17.822 8.46A19.065 19.065 0 0 0 26 17C15.508 17 7 25.507 7 36s8.508 19 19 19h.164Z" clip-rule="evenodd" opacity=".45"/>
  <path fill="url(#prefix__b)" d="M62 43H42v42h32V55L62 43Z" clip-rule="evenodd" opacity=".35"/>
  <path fill="url(#prefix__c)" d="M74 55 62 43H42v12h32Z" clip-rule="evenodd" opacity=".45"/>
  <path fill="url(#prefix__d)" d="M42 26H22v42h32V38L42 26Z" clip-rule="evenodd" opacity=".35"/>
  <path fill="url(#prefix__e)" d="M22 54.578a19.072 19.072 0 0 0 4.287.422H54V38L42 26H22v28.578Z" clip-rule="evenodd"/>
  <path fill="url(#prefix__f)" d="M74 55H62V43l12 12Z" clip-rule="evenodd"/>
  <path fill="url(#prefix__g)" d="M54 38H42V26l12 12Z" clip-rule="evenodd"/>
  <path fill="url(#prefix__h)" d="M42 43h12v12H42z"/>
  <defs>
    <linearGradient id="prefix__a" x1="-33" x2="6.756" y1="32" y2="101.14" gradientUnits="userSpaceOnUse">
      <stop stop-color="#70B1FF"/>
      <stop offset="1" stop-color="#005CCD"/>
    </linearGradient>
    <linearGradient id="prefix__b" x1="47.054" x2="17.284" y1="29.183" y2="63.657" gradientUnits="userSpaceOnUse">
      <stop stop-color="#70B1FF"/>
      <stop offset="1" stop-color="#005CCD"/>
    </linearGradient>
    <linearGradient id="prefix__c" x1="38.221" x2="39.364" y1="44.452" y2="57.051" gradientUnits="userSpaceOnUse">
      <stop stop-color="#7EADF0"/>
      <stop offset="1" stop-color="#76A6EC"/>
    </linearGradient>
    <linearGradient id="prefix__d" x1="30.851" x2="4.354" y1="24.697" y2="47.45" gradientUnits="userSpaceOnUse">
      <stop stop-color="#70B1FF"/>
      <stop offset="1" stop-color="#005CCD"/>
    </linearGradient>
    <linearGradient id="prefix__e" x1="6" x2="22.984" y1="34.911" y2="65.405" gradientUnits="userSpaceOnUse">
      <stop stop-color="#90BCFA"/>
      <stop offset="1" stop-color="#79A9ED"/>
    </linearGradient>
    <linearGradient id="prefix__f" x1="45.53" x2="64.766" y1="46.602" y2="69.72" gradientUnits="userSpaceOnUse">
      <stop stop-color="#295296"/>
      <stop offset="1" stop-color="#3E78D3"/>
    </linearGradient>
    <linearGradient id="prefix__g" x1="36" x2="36" y1="26" y2="38" gradientUnits="userSpaceOnUse">
      <stop stop-color="#649CF5"/>
      <stop offset="1" stop-color="#4A80DF"/>
    </linearGradient>
    <linearGradient id="prefix__h" x1="36" x2="48" y1="49" y2="61" gradientUnits="userSpaceOnUse">
      <stop stop-color="#6598EF"/>
      <stop offset="1" stop-color="#5C91E9"/>
    </linearGradient>
  </defs>
</svg>
