<svg width="48" height="48" fill="none" viewBox="0 0 48 48" xmlns="http://www.w3.org/2000/svg">
  <path fill="url(#prefix__a)" d="M16 44c7.18 0 13-5.82 13-13s-5.82-13-13-13S3 23.82 3 31s5.82 13 13 13Z" clip-rule="evenodd" opacity=".5"/>
  <path fill="url(#prefix__b)" d="M14.975 36.975a3.5 3.5 0 1 0-4.95-4.95 3.5 3.5 0 0 0 4.95 4.95Z" clip-rule="evenodd"/>
  <path fill="url(#prefix__c)" d="m26 17-6 6 5.01 5L45 8V3h-5l-2 2v4h-4v4h-4v4h-4Z" opacity=".6"/>
  <defs>
    <linearGradient id="prefix__a" x1="14.29" x2="-7.936" y1="11.016" y2="32.887" gradientUnits="userSpaceOnUse">
      <stop stop-color="#70B1FF"/>
      <stop offset="1" stop-color="#005CCD"/>
    </linearGradient>
    <linearGradient id="prefix__b" x1="18.095" x2="18.224" y1="39.514" y2="28.325" gradientUnits="userSpaceOnUse">
      <stop stop-color="#295296"/>
      <stop offset="1" stop-color="#3E78D3"/>
    </linearGradient>
    <linearGradient id="prefix__c" x1="30.533" x2="-.836" y1="-16.779" y2="18.248" gradientUnits="userSpaceOnUse">
      <stop stop-color="#70B1FF"/>
      <stop offset="1" stop-color="#005CCD"/>
    </linearGradient>
  </defs>
</svg>
