<svg width="96" height="96" fill="none" viewBox="0 0 96 96" xmlns="http://www.w3.org/2000/svg">
  <path fill="url(#prefix__a)" d="M20 25h64a3 3 0 0 1 3 3v40a3 3 0 0 1-3 3H20a3 3 0 0 1-3-3V28a3 3 0 0 1 3-3Z" clip-rule="evenodd" opacity=".35"/>
  <path fill="url(#prefix__b)" d="M22 10c-8.284 0-15 6.716-15 15 0 8.284 6.716 15 15 15 6.531 0 12.087-4.174 14.147-10H72l5-5-5-5h-3l-4 3-4-3-4 3-4-3-4 3-4-3h-8.853C34.087 14.174 28.53 10 22 10Z" clip-rule="evenodd" opacity=".5"/>
  <path fill="url(#prefix__c)" d="m77 25-5 5H36.147C34.087 35.826 28.53 40 22 40c-1.753 0-3.436-.3-5-.853V25h60Z" clip-rule="evenodd"/>
  <path fill="url(#prefix__d)" d="M17 29a4 4 0 1 0 0-8 4 4 0 0 0 0 8Z" clip-rule="evenodd"/>
  <path fill="url(#prefix__e)" d="M45.25 71h13.5L61 83H43l2.25-12Z" clip-rule="evenodd" opacity=".5"/>
  <path fill="url(#prefix__f)" d="M17 64h70v4a3 3 0 0 1-3 3H20a3 3 0 0 1-3-3v-4Z" clip-rule="evenodd"/>
  <defs>
    <linearGradient id="prefix__a" x1="48.301" x2="23.17" y1="16.144" y2="62.118" gradientUnits="userSpaceOnUse">
      <stop stop-color="#70B1FF"/>
      <stop offset="1" stop-color="#005CCD"/>
    </linearGradient>
    <linearGradient id="prefix__b" x1="45.01" x2="21.854" y1="-2.42" y2="46.965" gradientUnits="userSpaceOnUse">
      <stop stop-color="#70B1FF"/>
      <stop offset="1" stop-color="#005CCD"/>
    </linearGradient>
    <linearGradient id="prefix__c" x1="49.58" x2="41.915" y1="18.79" y2="46.815" gradientUnits="userSpaceOnUse">
      <stop stop-color="#8FBCFC"/>
      <stop offset="1" stop-color="#5B90DC"/>
    </linearGradient>
    <linearGradient id="prefix__d" x1="17.469" x2="26.616" y1="33.574" y2="24.636" gradientUnits="userSpaceOnUse">
      <stop stop-color="#295296"/>
      <stop offset="1" stop-color="#3E78D3"/>
    </linearGradient>
    <linearGradient id="prefix__e" x1="50.51" x2="37.48" y1="53.639" y2="80.302" gradientUnits="userSpaceOnUse">
      <stop stop-color="#70B1FF"/>
      <stop offset="1" stop-color="#005CCD"/>
    </linearGradient>
    <linearGradient id="prefix__f" x1="-4.459" x2="-1.315" y1="83.158" y2="58.475" gradientUnits="userSpaceOnUse">
      <stop stop-color="#295296"/>
      <stop offset="1" stop-color="#3E78D3"/>
    </linearGradient>
  </defs>
</svg>
