<svg width="48" height="48" fill="none" viewBox="0 0 48 48" xmlns="http://www.w3.org/2000/svg">
  <path fill="url(#prefix__a)" d="M35 14H20v29h23V22l-8-8Z" clip-rule="evenodd" opacity=".35"/>
  <path fill="url(#prefix__b)" d="M43 22h-8v-8l8 8Z" clip-rule="evenodd"/>
  <path fill="url(#prefix__c)" d="m23 2-6 8h3v29h6V10h3l-6-8Z" clip-rule="evenodd" opacity=".45"/>
  <path fill="url(#prefix__d)" d="M9 19v-3l-8 6 8 6v-3c6.075 0 11 4.925 11 11v3h6v-3c0-9.389-7.61-17-17-17Z" clip-rule="evenodd" opacity=".45"/>
  <path fill="url(#prefix__e)" d="M20 23a17.02 17.02 0 0 1 6 12.993V39h-6V23Z" clip-rule="evenodd"/>
  <defs>
    <linearGradient id="prefix__a" x1="54.5" x2="26.262" y1="28.5" y2="6.104" gradientUnits="userSpaceOnUse">
      <stop stop-color="#70B1FF"/>
      <stop offset="1" stop-color="#005CCD"/>
    </linearGradient>
    <linearGradient id="prefix__b" x1="24.02" x2="36.844" y1="16.401" y2="31.813" gradientUnits="userSpaceOnUse">
      <stop stop-color="#295296"/>
      <stop offset="1" stop-color="#3E78D3"/>
    </linearGradient>
    <linearGradient id="prefix__c" x1="28.892" x2="28.892" y1="39" y2="2.666" gradientUnits="userSpaceOnUse">
      <stop stop-color="#70B1FF"/>
      <stop offset="1" stop-color="#005CCD"/>
    </linearGradient>
    <linearGradient id="prefix__d" x1="34.797" x2="11.214" y1="27.5" y2="9.461" gradientUnits="userSpaceOnUse">
      <stop stop-color="#70B1FF"/>
      <stop offset="1" stop-color="#005CCD"/>
    </linearGradient>
    <linearGradient id="prefix__e" x1="35.377" x2="16.982" y1="37.906" y2="30.626" gradientUnits="userSpaceOnUse">
      <stop stop-color="#295296"/>
      <stop offset="1" stop-color="#3E78D3"/>
    </linearGradient>
  </defs>
</svg>
