<svg width="96" height="96" fill="none" viewBox="0 0 96 96" xmlns="http://www.w3.org/2000/svg">
  <path fill="url(#prefix__a)" d="M25 24h31l16 16v46H25V24Z" clip-rule="evenodd" opacity=".4"/>
  <path fill="url(#prefix__b)" d="M40 17h-5l9-13 9 13h-5v65h-8V17Z" clip-rule="evenodd" opacity=".45"/>
  <path fill="url(#prefix__c)" d="M40 24h8v58h-8V24Z" clip-rule="evenodd"/>
  <path fill="url(#prefix__d)" d="M17 29v-5L4 33l13 9v-5c12.703 0 23 10.297 23 23h8c0-17.12-13.88-31-31-31Z" clip-rule="evenodd" opacity=".45"/>
  <path fill="url(#prefix__e)" d="M25 38.43v-8.388C38.243 33.57 48 45.645 48 60h-8c0-9.89-6.241-18.32-15-21.57Z" clip-rule="evenodd"/>
  <path fill="url(#prefix__f)" d="M79 50.015C61.79 50.544 48 64.661 48 82h-8c0-21.757 17.37-39.457 39-39.988V37l13 9-13 9v-4.985Z" opacity=".4"/>
  <path fill="url(#prefix__g)" d="M72 42.8v8.208C58.198 54.56 48 67.09 48 82h-8c0-19.352 13.742-35.494 32-39.2Z" clip-rule="evenodd"/>
  <path fill="url(#prefix__h)" d="M40 60V39.215A30.886 30.886 0 0 1 48 60v22h-8V60Z" clip-rule="evenodd"/>
  <path fill="url(#prefix__i)" d="m56 24 16 16H56V24Z" clip-rule="evenodd"/>
  <defs>
    <linearGradient id="prefix__a" x1="52.95" x2="108.48" y1="114.065" y2="67.567" gradientUnits="userSpaceOnUse">
      <stop stop-color="#70B1FF"/>
      <stop offset="1" stop-color="#005CCD"/>
    </linearGradient>
    <linearGradient id="prefix__b" x1="35" x2="35" y1="82" y2="4" gradientUnits="userSpaceOnUse">
      <stop stop-color="#70B1FF"/>
      <stop offset="1" stop-color="#005CCD"/>
    </linearGradient>
    <linearGradient id="prefix__c" x1="50" x2="50" y1="53" y2="24" gradientUnits="userSpaceOnUse">
      <stop stop-color="#71A3EA"/>
      <stop offset="1" stop-color="#6294E0"/>
    </linearGradient>
    <linearGradient id="prefix__d" x1="64.707" x2="27.439" y1="42" y2="7.408" gradientUnits="userSpaceOnUse">
      <stop stop-color="#70B1FF"/>
      <stop offset="1" stop-color="#005CCD"/>
    </linearGradient>
    <linearGradient id="prefix__e" x1="49.854" x2="29.5" y1="50.112" y2="30.207" gradientUnits="userSpaceOnUse">
      <stop stop-color="#7CACF2"/>
      <stop offset="1" stop-color="#6B9CE6"/>
    </linearGradient>
    <linearGradient id="prefix__f" x1="65.92" x2="106.907" y1="102.37" y2="60.12" gradientUnits="userSpaceOnUse">
      <stop stop-color="#70B1FF"/>
      <stop offset="1" stop-color="#005CCD"/>
    </linearGradient>
    <linearGradient id="prefix__g" x1="60.301" x2="90.206" y1="89.678" y2="64.011" gradientUnits="userSpaceOnUse">
      <stop stop-color="#83B1F2"/>
      <stop offset="1" stop-color="#6A9AE3"/>
    </linearGradient>
    <linearGradient id="prefix__h" x1="58.98" x2="29.141" y1="69.157" y2="62.452" gradientUnits="userSpaceOnUse">
      <stop stop-color="#295296"/>
      <stop offset="1" stop-color="#3E78D3"/>
    </linearGradient>
    <linearGradient id="prefix__i" x1="93.96" x2="68.311" y1="35.197" y2="4.374" gradientUnits="userSpaceOnUse">
      <stop stop-color="#295296"/>
      <stop offset="1" stop-color="#3E78D3"/>
    </linearGradient>
  </defs>
</svg>
