<svg width="48" height="48" fill="none" viewBox="0 0 48 48" xmlns="http://www.w3.org/2000/svg">
  <path fill="url(#prefix__a)" d="M13 8h30v30H13z" opacity=".35"/>
  <path fill="url(#prefix__b)" d="M7 14h30v30H7z" opacity=".35"/>
  <path fill="url(#prefix__c)" d="M13 36h18v4H13v-4Z" clip-rule="evenodd"/>
  <path fill="url(#prefix__d)" d="m22.5 34.5-6-8h3v-23h6v23h3l-6 8Z" clip-rule="evenodd" opacity=".5"/>
  <path fill="url(#prefix__e)" d="M19.5 14h6v12.5h3l-6 8-6-8h3V14Z" clip-rule="evenodd"/>
  <defs>
    <linearGradient id="prefix__a" x1="28" x2="-2" y1="-7" y2="23" gradientUnits="userSpaceOnUse">
      <stop stop-color="#70B1FF"/>
      <stop offset="1" stop-color="#005CCD"/>
    </linearGradient>
    <linearGradient id="prefix__b" x1="22" x2="-8" y1="-1" y2="29" gradientUnits="userSpaceOnUse">
      <stop stop-color="#70B1FF"/>
      <stop offset="1" stop-color="#005CCD"/>
    </linearGradient>
    <linearGradient id="prefix__c" x1="22" x2="23.694" y1="42" y2="34.377" gradientUnits="userSpaceOnUse">
      <stop stop-color="#295296"/>
      <stop offset="1" stop-color="#3E78D3"/>
    </linearGradient>
    <linearGradient id="prefix__d" x1="16.5" x2="16.5" y1="34.5" y2="3.5" gradientUnits="userSpaceOnUse">
      <stop stop-color="#70B1FF"/>
      <stop offset="1" stop-color="#005CCD"/>
    </linearGradient>
    <linearGradient id="prefix__e" x1="24.804" x2="42.093" y1="49.294" y2="29.112" gradientUnits="userSpaceOnUse">
      <stop stop-color="#295296"/>
      <stop offset="1" stop-color="#3E78D3"/>
    </linearGradient>
  </defs>
</svg>
