<svg width="96" height="96" fill="none" viewBox="0 0 96 96" xmlns="http://www.w3.org/2000/svg">
  <path fill="url(#prefix__a)" d="M24 81h63v8H24z" opacity=".45"/>
  <path fill="url(#prefix__b)" d="M24 81h8l-8 8v-8Z" clip-rule="evenodd"/>
  <path fill="url(#prefix__c)" d="M69 89h-8l8-8v8Z" clip-rule="evenodd"/>
  <path fill="url(#prefix__d)" d="M39 81h8l-8 8h-8l8-8Z" clip-rule="evenodd"/>
  <path fill="url(#prefix__e)" d="M54 81h8l-8 8h-8l8-8Z" clip-rule="evenodd"/>
  <path fill="url(#prefix__f)" d="M24 13h50v50H24z" opacity=".3"/>
  <path fill="url(#prefix__g)" d="M14 23h50v50H14z" opacity=".35"/>
  <path fill="url(#prefix__h)" d="M64 63H24V23h40v40Z" clip-rule="evenodd"/>
  <path fill="url(#prefix__i)" d="M35 7h8v37h5l-9 13-9-13h5V7Z" clip-rule="evenodd" opacity=".45"/>
  <path fill="url(#prefix__j)" d="M43 23V13h-8v10h8Z" clip-rule="evenodd"/>
  <path fill="url(#prefix__k)" d="M35 23h8v21h5l-9 13-9-13h5V23Z" clip-rule="evenodd"/>
  <path fill="url(#prefix__l)" d="M24 60h30v6H24z"/>
  <defs>
    <linearGradient id="prefix__a" x1="59.901" x2="57.596" y1="73.398" y2="92.958" gradientUnits="userSpaceOnUse">
      <stop stop-color="#70B1FF"/>
      <stop offset="1" stop-color="#005CCD"/>
    </linearGradient>
    <linearGradient id="prefix__b" x1="28" x2="73.299" y1="111.649" y2="103.649" gradientUnits="userSpaceOnUse">
      <stop stop-color="#295296"/>
      <stop offset="1" stop-color="#3E78D3"/>
    </linearGradient>
    <linearGradient id="prefix__c" x1="28.743" x2="73" y1="111.128" y2="103.128" gradientUnits="userSpaceOnUse">
      <stop stop-color="#295296"/>
      <stop offset="1" stop-color="#3E78D3"/>
    </linearGradient>
    <linearGradient id="prefix__d" x1="31.499" x2="66.136" y1="100.474" y2="76.325" gradientUnits="userSpaceOnUse">
      <stop stop-color="#295296"/>
      <stop offset="1" stop-color="#3E78D3"/>
    </linearGradient>
    <linearGradient id="prefix__e" x1="31.774" x2="64.988" y1="100.146" y2="76.306" gradientUnits="userSpaceOnUse">
      <stop stop-color="#295296"/>
      <stop offset="1" stop-color="#3E78D3"/>
    </linearGradient>
    <linearGradient id="prefix__f" x1="49" x2="-1" y1="-12" y2="38" gradientUnits="userSpaceOnUse">
      <stop stop-color="#70B1FF"/>
      <stop offset="1" stop-color="#005CCD"/>
    </linearGradient>
    <linearGradient id="prefix__g" x1="39" x2="-11" y1="-2" y2="48" gradientUnits="userSpaceOnUse">
      <stop stop-color="#70B1FF"/>
      <stop offset="1" stop-color="#005CCD"/>
    </linearGradient>
    <linearGradient id="prefix__h" x1="44" x2="4" y1="3" y2="43" gradientUnits="userSpaceOnUse">
      <stop stop-color="#A6CAFC"/>
      <stop offset="1" stop-color="#7CA7E4"/>
    </linearGradient>
    <linearGradient id="prefix__i" x1="48" x2="30" y1="7" y2="7" gradientUnits="userSpaceOnUse">
      <stop stop-color="#70B1FF"/>
      <stop offset="1" stop-color="#005CCD"/>
    </linearGradient>
    <linearGradient id="prefix__j" x1="39" x2="29.244" y1="8" y2="15.805" gradientUnits="userSpaceOnUse">
      <stop stop-color="#8CB7F5"/>
      <stop offset="1" stop-color="#77A7E9"/>
    </linearGradient>
    <linearGradient id="prefix__k" x1="42.456" x2="72.187" y1="82.15" y2="51.527" gradientUnits="userSpaceOnUse">
      <stop stop-color="#295296"/>
      <stop offset="1" stop-color="#3E78D3"/>
    </linearGradient>
    <linearGradient id="prefix__l" x1="39" x2="41.308" y1="69" y2="57.462" gradientUnits="userSpaceOnUse">
      <stop stop-color="#295296"/>
      <stop offset="1" stop-color="#3E78D3"/>
    </linearGradient>
  </defs>
</svg>
