<svg width="96" height="96" fill="none" viewBox="0 0 96 96" xmlns="http://www.w3.org/2000/svg">
  <path fill="url(#prefix__a)" d="M4 36h28l14 14v41H4V36Z" clip-rule="evenodd" opacity=".35" style="mix-blend-mode:multiply"/>
  <path fill="url(#prefix__b)" d="M50 4h28l14 14v41H50V4Z" clip-rule="evenodd" opacity=".45" style="mix-blend-mode:multiply"/>
  <path fill="url(#prefix__c)" d="m32 36 14 14H32V36Z" clip-rule="evenodd"/>
  <path fill="url(#prefix__d)" d="m78 4 14 14H78V4Z" clip-rule="evenodd"/>
  <path fill="url(#prefix__e)" d="M36 61 18 72V50l18 11Z" clip-rule="evenodd"/>
  <path fill="url(#prefix__f)" d="M82 29 64 40V18l18 11Z" clip-rule="evenodd"/>
  <path fill="url(#prefix__g)" d="M4 77h42v14H4V77Zm3 4h6v6H7v-6Zm16 0h-6v6h6v-6Zm4 0h6v6h-6v-6Zm16 0h-6v6h6v-6Z" clip-rule="evenodd"/>
  <path fill="url(#prefix__h)" d="M50 45h42v14H50V45Zm3 4h6v6h-6v-6Zm16 0h-6v6h6v-6Zm4 0h6v6h-6v-6Zm16 0h-6v6h6v-6Z" clip-rule="evenodd"/>
  <path fill="url(#prefix__i)" d="M43 12C24.222 12 9 27.222 9 46h8c0-14.36 11.64-26 26-26v5l14-9-14-9v5Z" clip-rule="evenodd" opacity=".6"/>
  <defs>
    <linearGradient id="prefix__a" x1="28.977" x2="78.3" y1="115.896" y2="74.293" gradientUnits="userSpaceOnUse">
      <stop stop-color="#70B1FF"/>
      <stop offset="1" stop-color="#005CCD"/>
    </linearGradient>
    <linearGradient id="prefix__b" x1="74.977" x2="124.3" y1="83.896" y2="42.292" gradientUnits="userSpaceOnUse">
      <stop stop-color="#70B1FF"/>
      <stop offset="1" stop-color="#005CCD"/>
    </linearGradient>
    <linearGradient id="prefix__c" x1="35.5" x2="28.5" y1="39.5" y2="46.5" gradientUnits="userSpaceOnUse">
      <stop stop-color="#7EABEC"/>
      <stop offset="1" stop-color="#6B9BE0"/>
    </linearGradient>
    <linearGradient id="prefix__d" x1="111.215" x2="88.772" y1="13.798" y2="-13.173" gradientUnits="userSpaceOnUse">
      <stop stop-color="#295296"/>
      <stop offset="1" stop-color="#3E78D3"/>
    </linearGradient>
    <linearGradient id="prefix__e" x1="20.382" x2="8.754" y1="50.323" y2="64.315" gradientUnits="userSpaceOnUse">
      <stop stop-color="#80AEF1"/>
      <stop offset="1" stop-color="#6A9DE4"/>
    </linearGradient>
    <linearGradient id="prefix__f" x1="69.403" x2="109.503" y1="70.196" y2="42.894" gradientUnits="userSpaceOnUse">
      <stop stop-color="#295296"/>
      <stop offset="1" stop-color="#3E78D3"/>
    </linearGradient>
    <linearGradient id="prefix__g" x1="25" x2="33.4" y1="98" y2="72.8" gradientUnits="userSpaceOnUse">
      <stop stop-color="#A0C8FF"/>
      <stop offset="1" stop-color="#70A0E4"/>
    </linearGradient>
    <linearGradient id="prefix__h" x1="71" x2="79.4" y1="66" y2="40.8" gradientUnits="userSpaceOnUse">
      <stop stop-color="#84B6FF"/>
      <stop offset="1" stop-color="#4C83DC"/>
    </linearGradient>
    <linearGradient id="prefix__i" x1="66.135" x2="-13.063" y1="-54.24" y2="23.533" gradientUnits="userSpaceOnUse">
      <stop stop-color="#70B1FF"/>
      <stop offset="1" stop-color="#005CCD"/>
    </linearGradient>
  </defs>
</svg>
