<svg width="48" height="48" fill="none" viewBox="0 0 48 48" xmlns="http://www.w3.org/2000/svg">
  <path fill="url(#prefix__a)" d="M11 13h19l7 7v25H11V13Z" clip-rule="evenodd" opacity=".45"/>
  <path fill="url(#prefix__b)" d="m30 13 7 7h-7v-7Z" clip-rule="evenodd"/>
  <path fill="url(#prefix__c)" d="m29 28.5-9 5v-10l9 5Z" clip-rule="evenodd"/>
  <path fill="url(#prefix__d)" d="M11 37h26v8H11v-8Zm2 2h4v4h-4v-4Zm10 0h-4v4h4v-4Zm2 0h4v4h-4v-4Zm10 0h-4v4h4v-4Z" clip-rule="evenodd"/>
  <path fill="url(#prefix__e)" d="M26 20V10h3l-6-8-6 8h3v10h6Z" clip-rule="evenodd" opacity=".55"/>
  <path fill="url(#prefix__f)" d="M20 13h6v7h-6v-7Z" clip-rule="evenodd"/>
  <defs>
    <linearGradient id="prefix__a" x1="26.462" x2="55.406" y1="59.485" y2="33.509" gradientUnits="userSpaceOnUse">
      <stop stop-color="#70B1FF"/>
      <stop offset="1" stop-color="#005CCD"/>
    </linearGradient>
    <linearGradient id="prefix__b" x1="46.608" x2="35.386" y1="17.899" y2="4.414" gradientUnits="userSpaceOnUse">
      <stop stop-color="#295296"/>
      <stop offset="1" stop-color="#3E78D3"/>
    </linearGradient>
    <linearGradient id="prefix__c" x1="22.701" x2="41.501" y1="47.225" y2="33.146" gradientUnits="userSpaceOnUse">
      <stop stop-color="#295296"/>
      <stop offset="1" stop-color="#3E78D3"/>
    </linearGradient>
    <linearGradient id="prefix__d" x1="24" x2="28.497" y1="49" y2="34.384" gradientUnits="userSpaceOnUse">
      <stop stop-color="#86B8FF"/>
      <stop offset="1" stop-color="#4B84DB"/>
    </linearGradient>
    <linearGradient id="prefix__e" x1="24.136" x2="39.775" y1="28.148" y2="16.632" gradientUnits="userSpaceOnUse">
      <stop stop-color="#70B1FF"/>
      <stop offset="1" stop-color="#005CCD"/>
    </linearGradient>
    <linearGradient id="prefix__f" x1="23.568" x2="29.927" y1="23.169" y2="17.148" gradientUnits="userSpaceOnUse">
      <stop stop-color="#689DEE"/>
      <stop offset="1" stop-color="#5A90E3"/>
    </linearGradient>
  </defs>
</svg>
