<svg width="48" height="48" fill="none" viewBox="0 0 48 48" xmlns="http://www.w3.org/2000/svg">
  <path fill="url(#prefix__a)" d="M5 15h34a1 1 0 0 1 1 1v21a1 1 0 0 1-1 1H5a1 1 0 0 1-1-1V16a1 1 0 0 1 1-1Z" clip-rule="evenodd" opacity=".4"/>
  <path fill="url(#prefix__b)" d="M17.75 38h7.5l1.25 6h-10l1.25-6Z" clip-rule="evenodd" opacity=".5"/>
  <path fill="url(#prefix__c)" d="M4 34h36v2.5a1.5 1.5 0 0 1-1.5 1.5h-33A1.5 1.5 0 0 1 4 36.5V34Z" clip-rule="evenodd"/>
  <path fill="url(#prefix__d)" d="M7.5 6H13a1 1 0 0 1 1 1v11a1 1 0 0 1-1 1H7.5a1 1 0 0 1-1-1V7a1 1 0 0 1 1-1Z" clip-rule="evenodd" opacity=".4"/>
  <path fill="url(#prefix__e)" d="M6.5 15H14v3a1 1 0 0 1-1 1H7.5a1 1 0 0 1-1-1v-3Z" clip-rule="evenodd"/>
  <path fill="url(#prefix__f)" d="M46 23.333 42 20H18l-4 3.333V25h32v-1.667Z" clip-rule="evenodd" opacity=".7"/>
  <path fill="url(#prefix__g)" d="M40 20v5H14v-1.667L18 20h22Z" clip-rule="evenodd"/>
  <path fill="url(#prefix__h)" d="M19 6h22a1 1 0 0 1 1 1v13H18V7a1 1 0 0 1 1-1Z" clip-rule="evenodd" opacity=".4"/>
  <path fill="url(#prefix__i)" d="M18 15h21a1 1 0 0 1 1 1v4H18v-5Z" clip-rule="evenodd" opacity=".4"/>
  <defs>
    <linearGradient id="prefix__a" x1="20.098" x2="7.725" y1="10.572" y2="33.853" gradientUnits="userSpaceOnUse">
      <stop stop-color="#70B1FF"/>
      <stop offset="1" stop-color="#005CCD"/>
    </linearGradient>
    <linearGradient id="prefix__b" x1="19.571" x2="14.961" y1="32.685" y2="43.334" gradientUnits="userSpaceOnUse">
      <stop stop-color="#70B1FF"/>
      <stop offset="1" stop-color="#005CCD"/>
    </linearGradient>
    <linearGradient id="prefix__c" x1="2.955" x2="5.72" y1="40.362" y2="28.985" gradientUnits="userSpaceOnUse">
      <stop stop-color="#285093"/>
      <stop offset="1" stop-color="#3E78D3"/>
    </linearGradient>
    <linearGradient id="prefix__d" x1="9.854" x2="1.951" y1="3.497" y2="8.978" gradientUnits="userSpaceOnUse">
      <stop stop-color="#70B1FF"/>
      <stop offset="1" stop-color="#005CCD"/>
    </linearGradient>
    <linearGradient id="prefix__e" x1="8.022" x2="6.058" y1="13.594" y2="18.834" gradientUnits="userSpaceOnUse">
      <stop stop-color="#77A6EB"/>
      <stop offset="1" stop-color="#6394DE"/>
    </linearGradient>
    <linearGradient id="prefix__f" x1="24.349" x2="23.194" y1="17.713" y2="26.942" gradientUnits="userSpaceOnUse">
      <stop stop-color="#8FBDFF"/>
      <stop offset="1" stop-color="#4D82D5"/>
    </linearGradient>
    <linearGradient id="prefix__g" x1="27" x2="25.145" y1="17.5" y2="27.143" gradientUnits="userSpaceOnUse">
      <stop stop-color="#86B5FD"/>
      <stop offset="1" stop-color="#5886D7"/>
    </linearGradient>
    <linearGradient id="prefix__h" x1="30" x2="42.187" y1="27" y2="6.109" gradientUnits="userSpaceOnUse">
      <stop stop-color="#70B1FF"/>
      <stop offset="1" stop-color="#005CCD"/>
    </linearGradient>
    <linearGradient id="prefix__i" x1="29" x2="26.839" y1="12.5" y2="22.009" gradientUnits="userSpaceOnUse">
      <stop stop-color="#80AFF0"/>
      <stop offset="1" stop-color="#89B7F6"/>
    </linearGradient>
  </defs>
</svg>
