<svg width="96" height="96" fill="none" viewBox="0 0 96 96" xmlns="http://www.w3.org/2000/svg">
  <path fill="url(#prefix__a)" d="M42 7h48v34.91a16 16 0 0 1-6.845 13.122L66 67 48.845 55.032A16 16 0 0 1 42 41.909V7Z" clip-rule="evenodd" opacity=".45"/>
  <path fill="url(#prefix__b)" d="M90 33V7H66v26h24Z" clip-rule="evenodd"/>
  <path fill="url(#prefix__c)" d="M42 33v8.715c0 5.337 2.555 10.323 6.812 13.294L66 67V33H42Z" clip-rule="evenodd" opacity=".5"/>
  <path fill="url(#prefix__d)" d="M66 44V33H42v8.715c0 .77.053 1.534.157 2.285H66Z" clip-rule="evenodd"/>
  <path fill="url(#prefix__e)" d="M7 51h67v38H7z" opacity=".45"/>
  <path fill="url(#prefix__f)" d="m66 67 8-5.581V51h-8v16Z" clip-rule="evenodd"/>
  <path fill="url(#prefix__g)" d="M7 38h23.005L36 44l38 .074V51H7V38Z" clip-rule="evenodd" opacity=".55"/>
  <path fill="url(#prefix__h)" d="M66 44h8v7h-8z"/>
  <path fill="url(#prefix__i)" d="M66 67 48.845 55.032A16 16 0 0 1 42.137 44H66v23Z"/>
  <defs>
    <linearGradient id="prefix__a" x1="13.683" x2="82.27" y1="84.6" y2="100.45" gradientUnits="userSpaceOnUse">
      <stop stop-color="#70B1FF"/>
      <stop offset="1" stop-color="#005CCD"/>
    </linearGradient>
    <linearGradient id="prefix__b" x1="78" x2="52.083" y1="-6" y2="17.923" gradientUnits="userSpaceOnUse">
      <stop stop-color="#7FABF1"/>
      <stop offset="1" stop-color="#6B97E0"/>
    </linearGradient>
    <linearGradient id="prefix__c" x1="54" x2="21.963" y1="16" y2="38.614" gradientUnits="userSpaceOnUse">
      <stop stop-color="#8FBDFF"/>
      <stop offset="1" stop-color="#4D82D5"/>
    </linearGradient>
    <linearGradient id="prefix__d" x1="54" x2="45.667" y1="27.5" y2="45.681" gradientUnits="userSpaceOnUse">
      <stop stop-color="#81AEF4"/>
      <stop offset="1" stop-color="#7FA9EF"/>
    </linearGradient>
    <linearGradient id="prefix__e" x1="40.5" x2="7.886" y1="32" y2="89.503" gradientUnits="userSpaceOnUse">
      <stop stop-color="#70B1FF"/>
      <stop offset="1" stop-color="#005CCD"/>
    </linearGradient>
    <linearGradient id="prefix__f" x1="70" x2="57.2" y1="43" y2="49.4" gradientUnits="userSpaceOnUse">
      <stop stop-color="#74A6F0"/>
      <stop offset="1" stop-color="#70A2EC"/>
    </linearGradient>
    <linearGradient id="prefix__g" x1="1.897" x2="-1.263" y1="15.282" y2="50.253" gradientUnits="userSpaceOnUse">
      <stop stop-color="#70B1FF"/>
      <stop offset="1" stop-color="#005CCD"/>
    </linearGradient>
    <linearGradient id="prefix__h" x1="70" x2="63.062" y1="40.5" y2="48.429" gradientUnits="userSpaceOnUse">
      <stop stop-color="#689EEE"/>
      <stop offset="1" stop-color="#659BEC"/>
    </linearGradient>
    <linearGradient id="prefix__i" x1="107.039" x2="62.088" y1="55.224" y2="26.768" gradientUnits="userSpaceOnUse">
      <stop stop-color="#295296"/>
      <stop offset="1" stop-color="#3E78D3"/>
    </linearGradient>
  </defs>
</svg>
