<svg width="48" height="48" fill="none" viewBox="0 0 48 48" xmlns="http://www.w3.org/2000/svg">
  <path fill="url(#prefix__a)" d="M21 3h24v17.955a8 8 0 0 1-3.422 6.56L33 33.5l-8.578-5.984A8 8 0 0 1 21 20.955V3Z" clip-rule="evenodd" opacity=".45"/>
  <path fill="url(#prefix__b)" d="M45 16V3H33v13h12Z" clip-rule="evenodd"/>
  <path fill="url(#prefix__c)" d="M21 16.5v4.358c0 2.668 1.278 5.161 3.406 6.646L33 33.5v-17H21Z" clip-rule="evenodd" opacity=".5"/>
  <path fill="url(#prefix__d)" d="M33 22v-6H21v4.858c0 .385.027.767.079 1.142H33Z" clip-rule="evenodd"/>
  <path fill="url(#prefix__e)" d="M3.5 26H37v19H3.5z" opacity=".45"/>
  <path fill="url(#prefix__f)" d="m33 33.5 4-2.79V26h-4v7.5Z" clip-rule="evenodd"/>
  <path fill="url(#prefix__g)" d="M3.5 19h11.502L18 22l19 .037V26H3.5v-7Z" clip-rule="evenodd" opacity=".55"/>
  <path fill="url(#prefix__h)" d="m33 33.5-8.578-5.984A8 8 0 0 1 21.069 22H33v11.5Z"/>
  <defs>
    <linearGradient id="prefix__a" x1="6.842" x2="41.192" y1="42.447" y2="50.254" gradientUnits="userSpaceOnUse">
      <stop stop-color="#70B1FF"/>
      <stop offset="1" stop-color="#005CCD"/>
    </linearGradient>
    <linearGradient id="prefix__b" x1="39" x2="26.041" y1="-3.5" y2="8.462" gradientUnits="userSpaceOnUse">
      <stop stop-color="#7FABF1"/>
      <stop offset="1" stop-color="#6B97E0"/>
    </linearGradient>
    <linearGradient id="prefix__c" x1="27" x2="10.982" y1="8" y2="19.307" gradientUnits="userSpaceOnUse">
      <stop stop-color="#8FBDFF"/>
      <stop offset="1" stop-color="#4D82D5"/>
    </linearGradient>
    <linearGradient id="prefix__d" x1="27" x2="22.2" y1="13" y2="22.6" gradientUnits="userSpaceOnUse">
      <stop stop-color="#81AEF4"/>
      <stop offset="1" stop-color="#7FA9EF"/>
    </linearGradient>
    <linearGradient id="prefix__e" x1="20.25" x2="3.943" y1="16.5" y2="45.251" gradientUnits="userSpaceOnUse">
      <stop stop-color="#70B1FF"/>
      <stop offset="1" stop-color="#005CCD"/>
    </linearGradient>
    <linearGradient id="prefix__f" x1="35" x2="28.6" y1="21.5" y2="24.7" gradientUnits="userSpaceOnUse">
      <stop stop-color="#74A6F0"/>
      <stop offset="1" stop-color="#70A2EC"/>
    </linearGradient>
    <linearGradient id="prefix__g" x1=".949" x2="-.882" y1="6.767" y2="25.573" gradientUnits="userSpaceOnUse">
      <stop stop-color="#70B1FF"/>
      <stop offset="1" stop-color="#005CCD"/>
    </linearGradient>
    <linearGradient id="prefix__h" x1="53.519" x2="31.044" y1="27.612" y2="13.384" gradientUnits="userSpaceOnUse">
      <stop stop-color="#295296"/>
      <stop offset="1" stop-color="#3E78D3"/>
    </linearGradient>
  </defs>
</svg>
