<svg width="48" height="48" fill="none" viewBox="0 0 48 48" xmlns="http://www.w3.org/2000/svg">
  <path fill="url(#prefix__a)" d="M27.524 20.012A10.977 10.977 0 0 0 36 24v21H3V28l9-10 11 6 4.524-3.988Z" clip-rule="evenodd" opacity=".4"/>
  <path fill="url(#prefix__b)" d="M36 24c6.075 0 11-4.925 11-11S42.075 2 36 2 25 6.925 25 13s4.925 11 11 11Z" clip-rule="evenodd" opacity=".45"/>
  <path fill="url(#prefix__c)" d="M34.5 4h3v2.112A4.502 4.502 0 0 1 41 10.5h-3A1.5 1.5 0 0 0 36.5 9h-1.25a1.25 1.25 0 1 0 0 2.5h1.5a4.25 4.25 0 0 1 .75 8.434V22h-3v-2.112a4.504 4.504 0 0 1-3.5-4.39h3c0 .83.673 1.502 1.502 1.502h1.248a1.25 1.25 0 1 0 0-2.5h-1.5a4.25 4.25 0 0 1-.75-8.434V4Z" clip-rule="evenodd"/>
  <path fill="url(#prefix__d)" d="M12 20a2 2 0 1 0 0-4 2 2 0 0 0 0 4Z" clip-rule="evenodd"/>
  <path fill="url(#prefix__e)" d="M3 30a2 2 0 1 0 0-4 2 2 0 0 0 0 4Z" clip-rule="evenodd"/>
  <path fill="url(#prefix__f)" d="M23 26a2 2 0 1 0 0-4 2 2 0 0 0 0 4Z" clip-rule="evenodd"/>
  <path fill="url(#prefix__g)" d="m8 45 8-8.5 4.877 4.833L36 27.503 44 34v11H8Z" clip-rule="evenodd" opacity=".4"/>
  <path fill="url(#prefix__h)" d="m36 27.502-15.123 13.83L16 36.5 8 45h28V27.502Z" clip-rule="evenodd"/>
  <defs>
    <linearGradient id="prefix__a" x1="37.727" x2="3" y1="30.794" y2="30.794" gradientUnits="userSpaceOnUse">
      <stop stop-color="#72B2FF"/>
      <stop offset="1" stop-color="#005CCD"/>
    </linearGradient>
    <linearGradient id="prefix__b" x1="44.069" x2="9.952" y1="-24.929" y2="5.167" gradientUnits="userSpaceOnUse">
      <stop stop-color="#70B1FF"/>
      <stop offset="1" stop-color="#005CCD"/>
    </linearGradient>
    <linearGradient id="prefix__c" x1="58.54" x2="33.463" y1="11.742" y2="3.256" gradientUnits="userSpaceOnUse">
      <stop stop-color="#295296"/>
      <stop offset="1" stop-color="#3E78D3"/>
    </linearGradient>
    <linearGradient id="prefix__d" x1="21.023" x2="12.885" y1="17.729" y2="12.749" gradientUnits="userSpaceOnUse">
      <stop stop-color="#295296"/>
      <stop offset=".008" stop-color="#295296"/>
      <stop offset="1" stop-color="#3E78D3"/>
    </linearGradient>
    <linearGradient id="prefix__e" x1="12.023" x2="3.885" y1="27.729" y2="22.749" gradientUnits="userSpaceOnUse">
      <stop stop-color="#295296"/>
      <stop offset=".008" stop-color="#295296"/>
      <stop offset="1" stop-color="#3E78D3"/>
    </linearGradient>
    <linearGradient id="prefix__f" x1="32.016" x2="23.862" y1="23.721" y2="18.753" gradientUnits="userSpaceOnUse">
      <stop stop-color="#295296"/>
      <stop offset="1" stop-color="#3E78D3"/>
    </linearGradient>
    <linearGradient id="prefix__g" x1="45.884" x2="8" y1="35.793" y2="35.793" gradientUnits="userSpaceOnUse">
      <stop stop-color="#72B2FF"/>
      <stop offset="1" stop-color="#005CCD"/>
    </linearGradient>
    <linearGradient id="prefix__h" x1="26.911" x2="7.769" y1="24.892" y2="44.778" gradientUnits="userSpaceOnUse">
      <stop stop-color="#90BCFA"/>
      <stop offset="1" stop-color="#6092DC"/>
    </linearGradient>
  </defs>
</svg>
