<svg width="48" height="48" fill="none" viewBox="0 0 48 48" xmlns="http://www.w3.org/2000/svg">
  <path fill="url(#prefix__a)" d="M7 15h17v29H7z" opacity=".4"/>
  <path fill="url(#prefix__b)" d="M24 15h17v29H24z" opacity=".6"/>
  <path fill="url(#prefix__c)" d="M7 15h17l-6 9H1l6-9Z" clip-rule="evenodd" opacity=".45"/>
  <path fill="url(#prefix__d)" d="M41 15H24l6 9h17l-6-9Z" clip-rule="evenodd" opacity=".55"/>
  <path fill="url(#prefix__e)" d="m15 38-6-8h3V3h6v27h3l-6 8Z" clip-rule="evenodd" opacity=".45"/>
  <path fill="url(#prefix__f)" d="m15 38-6-8h3V15h6v15h3l-6 8Z" clip-rule="evenodd"/>
  <defs>
    <linearGradient id="prefix__a" x1="15.5" x2="-9.804" y1=".5" y2="15.334" gradientUnits="userSpaceOnUse">
      <stop stop-color="#70B1FF"/>
      <stop offset="1" stop-color="#005CCD"/>
    </linearGradient>
    <linearGradient id="prefix__b" x1="32.5" x2="7.196" y1=".5" y2="15.334" gradientUnits="userSpaceOnUse">
      <stop stop-color="#70B1FF"/>
      <stop offset="1" stop-color="#005CCD"/>
    </linearGradient>
    <linearGradient id="prefix__c" x1="12.5" x2="6.392" y1="10.5" y2="26.11" gradientUnits="userSpaceOnUse">
      <stop stop-color="#70B1FF"/>
      <stop offset="1" stop-color="#005CCD"/>
    </linearGradient>
    <linearGradient id="prefix__d" x1="35.5" x2="41.608" y1="10.5" y2="26.11" gradientUnits="userSpaceOnUse">
      <stop stop-color="#70B1FF"/>
      <stop offset="1" stop-color="#005CCD"/>
    </linearGradient>
    <linearGradient id="prefix__e" x1="12.026" x2="12.026" y1="38" y2="3" gradientUnits="userSpaceOnUse">
      <stop stop-color="#70B1FF"/>
      <stop offset="1" stop-color="#005CCD"/>
    </linearGradient>
    <linearGradient id="prefix__f" x1="15.991" x2="15.991" y1="41.17" y2="15.768" gradientUnits="userSpaceOnUse">
      <stop stop-color="#295296"/>
      <stop offset="1" stop-color="#3E78D3"/>
    </linearGradient>
  </defs>
</svg>
