<svg width="96" height="96" fill="none" viewBox="0 0 96 96" xmlns="http://www.w3.org/2000/svg">
  <path fill="url(#prefix__a)" d="M68 38.453 48 50 28 38.453V13.547L48 2l20 11.547v24.906Z" clip-rule="evenodd" opacity=".4"/>
  <path fill="url(#prefix__b)" d="M48 50 28 38.453 48 26l20 12.453L48 50Z" clip-rule="evenodd" opacity=".45"/>
  <path fill="url(#prefix__c)" d="M92 82.453 72 94 52 82.453V57.547L72 46l20 11.547v24.906Z" clip-rule="evenodd" opacity=".4"/>
  <path fill="url(#prefix__d)" d="M52 82.453V57.547L72 46v24L52 82.453Z" clip-rule="evenodd"/>
  <path fill="url(#prefix__e)" d="M44 82.453 24 94 4 82.453V57.547L24 46l20 11.547v24.906Z" clip-rule="evenodd" opacity=".4"/>
  <path fill="url(#prefix__f)" d="M44 82.453V57.547L24 46v24l20 12.453Z" clip-rule="evenodd" opacity=".45"/>
  <defs>
    <linearGradient id="prefix__a" x1="48" x2=".787" y1="-22" y2="17.344" gradientUnits="userSpaceOnUse">
      <stop stop-color="#70B1FF"/>
      <stop offset="1" stop-color="#005CCD"/>
    </linearGradient>
    <linearGradient id="prefix__b" x1="48" x2="26.823" y1="14" y2="49.294" gradientUnits="userSpaceOnUse">
      <stop stop-color="#70B1FF"/>
      <stop offset="1" stop-color="#005CCD"/>
    </linearGradient>
    <linearGradient id="prefix__c" x1="72" x2="24.787" y1="22" y2="61.344" gradientUnits="userSpaceOnUse">
      <stop stop-color="#70B1FF"/>
      <stop offset="1" stop-color="#005CCD"/>
    </linearGradient>
    <linearGradient id="prefix__d" x1="57.668" x2="80.346" y1="100.071" y2="93.635" gradientUnits="userSpaceOnUse">
      <stop stop-color="#295296"/>
      <stop offset="1" stop-color="#3E78D3"/>
    </linearGradient>
    <linearGradient id="prefix__e" x1="24" x2="-23.213" y1="22" y2="61.344" gradientUnits="userSpaceOnUse">
      <stop stop-color="#70B1FF"/>
      <stop offset="1" stop-color="#005CCD"/>
    </linearGradient>
    <linearGradient id="prefix__f" x1="34" x2="64.745" y1="27.773" y2="44.642" gradientUnits="userSpaceOnUse">
      <stop stop-color="#70B1FF"/>
      <stop offset="1" stop-color="#005CCD"/>
    </linearGradient>
  </defs>
</svg>
