<svg width="96" height="96" fill="none" viewBox="0 0 96 96" xmlns="http://www.w3.org/2000/svg">
  <path fill="url(#prefix__a)" d="M60.008 84.008h-.016L57 87l-2.992-2.992h-.016L51 87l-2.992-2.992h-.016L45 87l-2.992-2.992h-.016L39 87l-2.992-2.992h-.016L33 87l-2.992-2.992h-.016L27 87l-2.992-2.992h-.016L21 87l-2.992-2.992h-.016L15 87l-2.992-2.992h-.016L9 87l-3-3h.066L6 16.008c-.005-5.523 4.469-10.004 9.992-10.009H16l59.99.009c-5.517 0-9.99 4.472-9.99 9.99v68.01h-.008L63 87l-2.992-2.992Z" clip-rule="evenodd" opacity=".35"/>
  <path fill="url(#prefix__b)" d="M96 48c-5.523 0-10-4.477-10-10V16c0-5.523-4.477-10-10-10H16c5.521 0 9.996 4.479 9.991 10l-.018 21.991C25.968 43.518 30.445 48 35.972 48H96Z" clip-rule="evenodd" opacity=".4"/>
  <path fill="url(#prefix__c)" d="M39 28.045c5.604.507 9.996 5.218 9.996 10.955v2h-6v-2a5 5 0 0 0-5-5H34a5 5 0 0 0 0 10h3.999c6.073 0 10.997 4.923 10.997 10.997 0 5.735-4.392 10.445-9.996 10.951V74h-6v-8.052c-5.607-.505-10-5.217-10-10.955V53h6v1.993a5 5 0 0 0 5 5h3.999a4.997 4.997 0 1 0 0-9.993H34c-6.075 0-11-4.925-11-11 0-5.738 4.393-10.45 10-10.955V20h6v8.045Z"/>
  <defs>
    <linearGradient id="prefix__a" x1="-40.542" x2="54.414" y1="70.979" y2="124.956" gradientUnits="userSpaceOnUse">
      <stop stop-color="#70B1FF"/>
      <stop offset="1" stop-color="#005CCD"/>
    </linearGradient>
    <linearGradient id="prefix__b" x1="-37.198" x2="18.69" y1="39.691" y2="109.709" gradientUnits="userSpaceOnUse">
      <stop stop-color="#70B1FF"/>
      <stop offset="1" stop-color="#005CCD"/>
    </linearGradient>
    <linearGradient id="prefix__c" x1="93.702" x2="30.558" y1="46.353" y2="27.805" gradientUnits="userSpaceOnUse">
      <stop stop-color="#295296"/>
      <stop offset="1" stop-color="#3E78D3"/>
    </linearGradient>
  </defs>
</svg>
