<svg width="48" height="48" fill="none" viewBox="0 0 48 48" xmlns="http://www.w3.org/2000/svg">
  <path fill="url(#prefix__a)" d="m20 28.008-8-8-8 8V42h40V20.008l-8-8-16 16Z" clip-rule="evenodd" opacity=".4"/>
  <path fill="url(#prefix__b)" d="M12 42.008 20 34l8 2.886L44 21v21.008H12Z" clip-rule="evenodd"/>
  <path fill="url(#prefix__c)" d="M4 31.287 28.106 7.181l-1.767-1.767L34.117 4l-1.414 7.778-1.768-1.768-8.839 8.84.002-.004L4 36.944v-5.657Z" opacity=".5"/>
  <path fill="url(#prefix__d)" d="m13.64 21.648 2.828 2.828L4 36.944v-5.657l9.64-9.64Z" clip-rule="evenodd"/>
  <defs>
    <linearGradient id="prefix__a" x1="46.093" x2="4" y1="26.219" y2="26.219" gradientUnits="userSpaceOnUse">
      <stop stop-color="#72B2FF"/>
      <stop offset="1" stop-color="#005CCD"/>
    </linearGradient>
    <linearGradient id="prefix__b" x1="28" x2="8.724" y1="10.496" y2="39.857" gradientUnits="userSpaceOnUse">
      <stop stop-color="#8BBBFD"/>
      <stop offset="1" stop-color="#568ADB"/>
    </linearGradient>
    <linearGradient id="prefix__c" x1="21.193" x2="54.396" y1="58.085" y2="23.429" gradientUnits="userSpaceOnUse">
      <stop stop-color="#72B2FF"/>
      <stop offset="1" stop-color="#005CCD"/>
    </linearGradient>
    <linearGradient id="prefix__d" x1="8.329" x2="27.146" y1="53.674" y2="34.624" gradientUnits="userSpaceOnUse">
      <stop stop-color="#295296"/>
      <stop offset="1" stop-color="#3E78D3"/>
    </linearGradient>
  </defs>
</svg>
