<svg width="96" height="96" fill="none" viewBox="0 0 96 96" xmlns="http://www.w3.org/2000/svg">
  <path fill="url(#prefix__a)" d="M9 45h62v38H9z" opacity=".45"/>
  <path fill="url(#prefix__b)" d="M32.005 33H9v12h62v-5.926l-33-.056L32.005 33Z" clip-rule="evenodd" opacity=".6"/>
  <path fill="url(#prefix__c)" d="M63 55s-16-3.2-16-18.822C47 23.538 63.414 17.909 67 5c13.124 10.038 9 26 9 26s4.033-5.53 5-11c3.613 3.391 13.766 24.222-5 35-10.971-6.517-11.845-13.85-13.227-19.565C59.14 43.573 63 55 63 55Z" clip-rule="evenodd" opacity=".55"/>
  <path fill="url(#prefix__d)" d="M49.097 45C53.436 53.087 63 55 63 55s-1.546-4.577-1.76-10H49.096Z"/>
  <path fill="#689EEE" d="M65.835 45H71v6.42c-2.428-2.128-4.039-4.294-5.165-6.42Z" clip-rule="evenodd"/>
  <path fill="url(#prefix__e)" d="M61.24 45H49.096c-.914-1.702-1.596-3.678-1.908-5.966l14.457.024c-.39 1.976-.483 4.013-.407 5.942Zm4.595 0H71v-5.926l-7.368-.013c.487 1.899 1.123 3.901 2.203 5.939Z" clip-rule="evenodd"/>
  <defs>
    <linearGradient id="prefix__a" x1="-22" x2="-22" y1="45" y2="83" gradientUnits="userSpaceOnUse">
      <stop stop-color="#70B1FF"/>
      <stop offset="1" stop-color="#005CCD"/>
    </linearGradient>
    <linearGradient id="prefix__b" x1="64.055" x2="51.852" y1="31.025" y2="61.923" gradientUnits="userSpaceOnUse">
      <stop stop-color="#70B1FF"/>
      <stop offset="1" stop-color="#005CCD"/>
    </linearGradient>
    <linearGradient id="prefix__c" x1="85.5" x2="39.461" y1="-5.974" y2="4.41" gradientUnits="userSpaceOnUse">
      <stop stop-color="#72B2FF"/>
      <stop offset="1" stop-color="#005CCD"/>
    </linearGradient>
    <linearGradient id="prefix__d" x1="60.618" x2="65.486" y1="52.906" y2="43.734" gradientUnits="userSpaceOnUse">
      <stop stop-color="#558EE4"/>
      <stop offset="1" stop-color="#6199EB"/>
    </linearGradient>
    <linearGradient id="prefix__e" x1="54.04" x2="56.87" y1="51.659" y2="37.469" gradientUnits="userSpaceOnUse">
      <stop stop-color="#295296"/>
      <stop offset="1" stop-color="#3E78D3"/>
    </linearGradient>
  </defs>
</svg>
