<svg width="96" height="96" fill="none" viewBox="0 0 96 96" xmlns="http://www.w3.org/2000/svg">
  <path fill="url(#prefix__a)" d="M72 14.074V57H10V8h23.005L39 14l33 .074Z" clip-rule="evenodd" opacity=".45"/>
  <path fill="url(#prefix__b)" d="m72 57 15-36H25L10 57h62Z" clip-rule="evenodd" opacity=".4"/>
  <path fill="url(#prefix__c)" d="M72 21v36H10l15-36h47Z" clip-rule="evenodd" opacity=".45"/>
  <path fill="url(#prefix__d)" d="M44 78H10v8h77v-8H52V45h-8v33Z" clip-rule="evenodd" opacity=".4"/>
  <path fill="url(#prefix__e)" d="M44 45h8v12h-8z"/>
  <path fill="url(#prefix__f)" d="M34 76h28v12H34z"/>
  <defs>
    <linearGradient id="prefix__a" x1="41" x2="-6.674" y1="-16.5" y2="43.822" gradientUnits="userSpaceOnUse">
      <stop stop-color="#70B1FF"/>
      <stop offset="1" stop-color="#005CCD"/>
    </linearGradient>
    <linearGradient id="prefix__b" x1="-28.5" x2="-28.5" y1="21" y2="57" gradientUnits="userSpaceOnUse">
      <stop stop-color="#70B1FF"/>
      <stop offset="1" stop-color="#005CCD"/>
    </linearGradient>
    <linearGradient id="prefix__c" x1="41" x2="9.735" y1="3" y2="56.846" gradientUnits="userSpaceOnUse">
      <stop stop-color="#90BDFD"/>
      <stop offset="1" stop-color="#5488D7"/>
    </linearGradient>
    <linearGradient id="prefix__d" x1="-56.262" x2="-.725" y1="72.891" y2="149.552" gradientUnits="userSpaceOnUse">
      <stop stop-color="#70B1FF"/>
      <stop offset="1" stop-color="#005CCD"/>
    </linearGradient>
    <linearGradient id="prefix__e" x1="40" x2="51.077" y1="51" y2="58.385" gradientUnits="userSpaceOnUse">
      <stop stop-color="#4A80DD"/>
      <stop offset="1" stop-color="#4176D5"/>
    </linearGradient>
    <linearGradient id="prefix__f" x1="40.844" x2="53.709" y1="98.18" y2="73.513" gradientUnits="userSpaceOnUse">
      <stop stop-color="#295296"/>
      <stop offset="1" stop-color="#3E78D3"/>
    </linearGradient>
  </defs>
</svg>
