<svg width="48" height="48" fill="none" viewBox="0 0 48 48" xmlns="http://www.w3.org/2000/svg">
  <path fill="url(#prefix__a)" d="M4 22h31v19H4z" opacity=".45"/>
  <path fill="url(#prefix__b)" d="M15.502 16H4v6h31v-2.963l-16.5-.028L15.502 16Z" clip-rule="evenodd" opacity=".6"/>
  <path fill="url(#prefix__c)" d="M26.5 3 32 6.25v6.5L26.5 16 21 12.75v-6.5L26.5 3Z" clip-rule="evenodd" opacity=".45"/>
  <path fill="url(#prefix__d)" d="M39.5 3 45 6.25v6.5L39.5 16 34 12.75v-6.5L39.5 3Z" clip-rule="evenodd" opacity=".45"/>
  <path fill="url(#prefix__e)" d="m33 14.25 5.5 3.25V24L33 27.25 27.5 24v-6.5l5.5-3.25Z" clip-rule="evenodd" opacity=".45"/>
  <path fill="url(#prefix__f)" d="M27.5 22H35v4.068l-2 1.181L27.5 24v-2Z" clip-rule="evenodd" opacity=".45"/>
  <path fill="url(#prefix__g)" fill-opacity=".6" d="m27.5 19 7.5.013v2.964h-7.5V19Z" clip-rule="evenodd"/>
  <path fill="url(#prefix__h)" d="M38.5 17.5V24L33 27.25v-6l5.5-3.75Z" clip-rule="evenodd"/>
  <path fill="url(#prefix__i)" d="M32 6.25v6.5L26.5 16v-6L32 6.25Z" clip-rule="evenodd"/>
  <path fill="url(#prefix__j)" d="M45 6.25v6.5L39.5 16v-6L45 6.25Z" clip-rule="evenodd"/>
  <defs>
    <linearGradient id="prefix__a" x1="-11.5" x2="-11.5" y1="22" y2="41" gradientUnits="userSpaceOnUse">
      <stop stop-color="#70B1FF"/>
      <stop offset="1" stop-color="#005CCD"/>
    </linearGradient>
    <linearGradient id="prefix__b" x1="31.527" x2="25.426" y1="15.013" y2="30.462" gradientUnits="userSpaceOnUse">
      <stop stop-color="#70B1FF"/>
      <stop offset="1" stop-color="#005CCD"/>
    </linearGradient>
    <linearGradient id="prefix__c" x1="15.5" x2="15.5" y1="3" y2="16" gradientUnits="userSpaceOnUse">
      <stop stop-color="#70B1FF"/>
      <stop offset="1" stop-color="#005CCD"/>
    </linearGradient>
    <linearGradient id="prefix__d" x1="28.5" x2="28.5" y1="3" y2="16" gradientUnits="userSpaceOnUse">
      <stop stop-color="#70B1FF"/>
      <stop offset="1" stop-color="#005CCD"/>
    </linearGradient>
    <linearGradient id="prefix__e" x1="22" x2="22" y1="14.25" y2="27.25" gradientUnits="userSpaceOnUse">
      <stop stop-color="#70B1FF"/>
      <stop offset="1" stop-color="#005CCD"/>
    </linearGradient>
    <linearGradient id="prefix__f" x1="23.75" x2="26.909" y1="23.869" y2="30.207" gradientUnits="userSpaceOnUse">
      <stop stop-color="#75A7F0"/>
      <stop offset="1" stop-color="#6397E5"/>
    </linearGradient>
    <linearGradient id="prefix__g" x1="30.852" x2="28.993" y1="17.591" y2="22.538" gradientUnits="userSpaceOnUse">
      <stop stop-color="#699EF0"/>
      <stop offset="1" stop-color="#5991E7"/>
    </linearGradient>
    <linearGradient id="prefix__h" x1="34.344" x2="44.072" y1="35.52" y2="31.01" gradientUnits="userSpaceOnUse">
      <stop stop-color="#295296"/>
      <stop offset="1" stop-color="#3E78D3"/>
    </linearGradient>
    <linearGradient id="prefix__i" x1="29.25" x2="20.906" y1="1.375" y2="6.083" gradientUnits="userSpaceOnUse">
      <stop stop-color="#84B4FA"/>
      <stop offset="1" stop-color="#4E82D5"/>
    </linearGradient>
    <linearGradient id="prefix__j" x1="42.25" x2="33.906" y1="1.375" y2="6.083" gradientUnits="userSpaceOnUse">
      <stop stop-color="#84B4FA"/>
      <stop offset="1" stop-color="#4E82D5"/>
    </linearGradient>
  </defs>
</svg>
