<svg width="96" height="96" fill="none" viewBox="0 0 96 96" xmlns="http://www.w3.org/2000/svg">
  <path fill="url(#prefix__a)" d="m85 78-9-25H14L5 78v1a3 3 0 0 0 3 3h74a3 3 0 0 0 3-3v-1Z" clip-rule="evenodd" opacity=".4"/>
  <path fill="url(#prefix__b)" d="M37 78h16v2a2 2 0 0 1-2 2H39a2 2 0 0 1-2-2v-2Z" opacity=".55"/>
  <path fill="url(#prefix__c)" d="M14 16a3 3 0 0 1 3-3h56a3 3 0 0 1 3 3v37H14V16Z" clip-rule="evenodd" opacity=".35"/>
  <path fill="url(#prefix__d)" d="M19 18h52v30H19z" opacity=".25"/>
  <path fill="url(#prefix__e)" d="M19 53h70v8H19z" opacity=".45"/>
  <path fill="url(#prefix__f)" d="M19 53h8l-8 8v-8Z" clip-rule="evenodd"/>
  <path fill="url(#prefix__g)" d="M64 61h-8l8-8v8Z" clip-rule="evenodd"/>
  <path fill="url(#prefix__h)" d="M34 53h8l-8 8h-8l8-8Z" clip-rule="evenodd"/>
  <path fill="url(#prefix__i)" d="M49 53h8l-8 8h-8l8-8Z" clip-rule="evenodd"/>
  <defs>
    <linearGradient id="prefix__a" x1="125" x2="110.169" y1="69.275" y2="22.657" gradientUnits="userSpaceOnUse">
      <stop stop-color="#70B1FF"/>
      <stop offset="1" stop-color="#005CCD"/>
    </linearGradient>
    <linearGradient id="prefix__b" x1="46.118" x2="43.935" y1="74.199" y2="83.609" gradientUnits="userSpaceOnUse">
      <stop stop-color="#70B1FF"/>
      <stop offset="1" stop-color="#005CCD"/>
    </linearGradient>
    <linearGradient id="prefix__c" x1="45" x2="81.444" y1="73" y2="16.512" gradientUnits="userSpaceOnUse">
      <stop stop-color="#70B1FF"/>
      <stop offset="1" stop-color="#005CCD"/>
    </linearGradient>
    <linearGradient id="prefix__d" x1="45" x2="70.971" y1="63" y2="17.983" gradientUnits="userSpaceOnUse">
      <stop stop-color="#70B1FF"/>
      <stop offset="1" stop-color="#005CCD"/>
    </linearGradient>
    <linearGradient id="prefix__e" x1="58.889" x2="56.81" y1="45.398" y2="65.009" gradientUnits="userSpaceOnUse">
      <stop stop-color="#70B1FF"/>
      <stop offset="1" stop-color="#005CCD"/>
    </linearGradient>
    <linearGradient id="prefix__f" x1="23" x2="68.299" y1="83.649" y2="75.649" gradientUnits="userSpaceOnUse">
      <stop stop-color="#295296"/>
      <stop offset="1" stop-color="#3E78D3"/>
    </linearGradient>
    <linearGradient id="prefix__g" x1="23.743" x2="68" y1="83.128" y2="75.128" gradientUnits="userSpaceOnUse">
      <stop stop-color="#295296"/>
      <stop offset="1" stop-color="#3E78D3"/>
    </linearGradient>
    <linearGradient id="prefix__h" x1="26.499" x2="61.136" y1="72.474" y2="48.325" gradientUnits="userSpaceOnUse">
      <stop stop-color="#295296"/>
      <stop offset="1" stop-color="#3E78D3"/>
    </linearGradient>
    <linearGradient id="prefix__i" x1="26.774" x2="59.988" y1="72.146" y2="48.306" gradientUnits="userSpaceOnUse">
      <stop stop-color="#295296"/>
      <stop offset="1" stop-color="#3E78D3"/>
    </linearGradient>
  </defs>
</svg>
