<svg width="96" height="96" fill="none" viewBox="0 0 96 96" xmlns="http://www.w3.org/2000/svg">
  <path fill="url(#prefix__a)" d="M6 10h42v32.55a16 16 0 0 1-6.025 12.51L27 67 12.025 55.06A16 16 0 0 1 6 42.55V10Z" clip-rule="evenodd" opacity=".35"/>
  <path fill="url(#prefix__b)" d="M27 10v57L12.025 55.06A16 16 0 0 1 6 42.55V10h21Z" clip-rule="evenodd" opacity=".4"/>
  <path fill="url(#prefix__c)" d="M34 57c7.732 0 14-6.268 14-14s-6.268-14-14-14-14 6.268-14 14 6.268 14 14 14Z" clip-rule="evenodd" opacity=".45"/>
  <path fill="url(#prefix__d)" d="M27 30.873v24.254c-4.185-2.42-7-6.945-7-12.127s2.815-9.706 7-12.127Z" clip-rule="evenodd"/>
  <path fill="url(#prefix__e)" d="M46.522 88 26 76.151l1-1.732a8 8 0 0 1 10.928-2.928l9.249 5.34-18.088-31.33a5 5 0 1 1 8.66-5l10 17.32a5 5 0 0 1 9.294-1.901l1 1.731a5 5 0 0 1 9.294-1.902l1 1.732a5 5 0 0 1 8.928-.536L89.582 88h-43.06Z" clip-rule="evenodd" opacity=".45"/>
  <path fill="url(#prefix__f)" d="M44.614 52.393a15.994 15.994 0 0 1-2.64 2.667l-5.044 4.023L29.088 45.5a5 5 0 0 1 8.66-5l6.866 11.892Z" clip-rule="evenodd"/>
  <defs>
    <linearGradient id="prefix__a" x1="-18.777" x2="41.702" y1="83.72" y2="96.593" gradientUnits="userSpaceOnUse">
      <stop stop-color="#70B1FF"/>
      <stop offset="1" stop-color="#005CCD"/>
    </linearGradient>
    <linearGradient id="prefix__b" x1="-8.494" x2="42.666" y1="49.702" y2="68.379" gradientUnits="userSpaceOnUse">
      <stop stop-color="#70B1FF"/>
      <stop offset="1" stop-color="#005CCD"/>
      <stop offset="1" stop-color="#005CCD"/>
    </linearGradient>
    <linearGradient id="prefix__c" x1="34" x2="62" y1="71" y2="43" gradientUnits="userSpaceOnUse">
      <stop stop-color="#70B1FF"/>
      <stop offset="1" stop-color="#005CCD"/>
    </linearGradient>
    <linearGradient id="prefix__d" x1="23.5" x2="23.5" y1="30.873" y2="55.127" gradientUnits="userSpaceOnUse">
      <stop stop-color="#5A8FE6"/>
      <stop offset="1" stop-color="#5E92E9"/>
    </linearGradient>
    <linearGradient id="prefix__e" x1="119.288" x2="73.226" y1="64.366" y2="6.47" gradientUnits="userSpaceOnUse">
      <stop stop-color="#70B1FF"/>
      <stop offset="1" stop-color="#005CCD"/>
    </linearGradient>
    <linearGradient id="prefix__f" x1="4.373" x2="27.598" y1="25.366" y2="64.39" gradientUnits="userSpaceOnUse">
      <stop stop-color="#295296"/>
      <stop offset="1" stop-color="#3E78D3"/>
    </linearGradient>
  </defs>
</svg>
