<svg width="48" height="48" fill="none" viewBox="0 0 48 48" xmlns="http://www.w3.org/2000/svg">
  <path fill="url(#prefix__a)" d="M3 4h22v17.017a7 7 0 0 1-2.701 5.525L14 33l-8.299-6.458A7 7 0 0 1 3 21.017V4Z" clip-rule="evenodd" opacity=".35"/>
  <path fill="url(#prefix__b)" d="M14 4v29l-8.299-6.458A7 7 0 0 1 3 21.017V4h11Z" clip-rule="evenodd" opacity=".4"/>
  <path fill="url(#prefix__c)" d="M18 28a7 7 0 1 0 0-14 7 7 0 0 0 0 14Z" clip-rule="evenodd" opacity=".45"/>
  <path fill="url(#prefix__d)" d="M14 15.255v11.49A6.992 6.992 0 0 1 11 21a6.992 6.992 0 0 1 3-5.745Z" clip-rule="evenodd"/>
  <path fill="url(#prefix__e)" d="M24.261 43 14 37.076l.5-.866a4 4 0 0 1 5.464-1.464l4.625 2.67-9.045-15.666a2.5 2.5 0 0 1 4.33-2.5l5 8.66a2.5 2.5 0 0 1 4.647-.95l.5.866a2.5 2.5 0 0 1 4.647-.95l.5.865a2.5 2.5 0 0 1 4.464-.268L45.792 43h-21.53Z" clip-rule="evenodd" opacity=".45"/>
  <path fill="url(#prefix__f)" d="M23.439 25.424a6.975 6.975 0 0 1-1.14 1.118l-2.752 2.141-4.003-6.933a2.5 2.5 0 0 1 4.33-2.5l3.565 6.174Z" clip-rule="evenodd"/>
  <defs>
    <linearGradient id="prefix__a" x1="-9.978" x2="21.619" y1="41.507" y2="48.431" gradientUnits="userSpaceOnUse">
      <stop stop-color="#70B1FF"/>
      <stop offset="1" stop-color="#005CCD"/>
    </linearGradient>
    <linearGradient id="prefix__b" x1="-4.592" x2="22.018" y1="24.199" y2="34.201" gradientUnits="userSpaceOnUse">
      <stop stop-color="#70B1FF"/>
      <stop offset="1" stop-color="#005CCD"/>
      <stop offset="1" stop-color="#005CCD"/>
    </linearGradient>
    <linearGradient id="prefix__c" x1="18" x2="32" y1="35" y2="21" gradientUnits="userSpaceOnUse">
      <stop stop-color="#70B1FF"/>
      <stop offset="1" stop-color="#005CCD"/>
    </linearGradient>
    <linearGradient id="prefix__d" x1="12.5" x2="12.5" y1="15.255" y2="26.745" gradientUnits="userSpaceOnUse">
      <stop stop-color="#5A8FE6"/>
      <stop offset="1" stop-color="#5E92E9"/>
    </linearGradient>
    <linearGradient id="prefix__e" x1="60.644" x2="37.613" y1="31.183" y2="2.235" gradientUnits="userSpaceOnUse">
      <stop stop-color="#70B1FF"/>
      <stop offset="1" stop-color="#005CCD"/>
    </linearGradient>
    <linearGradient id="prefix__f" x1="2.991" x2="14.745" y1="11.598" y2="31.401" gradientUnits="userSpaceOnUse">
      <stop stop-color="#295296"/>
      <stop offset="1" stop-color="#3E78D3"/>
    </linearGradient>
  </defs>
</svg>
