<svg width="48" height="48" fill="none" viewBox="0 0 48 48" xmlns="http://www.w3.org/2000/svg">
  <path fill="url(#prefix__a)" d="M31 45h6V13h4L34 3l-7 10h4v32Z" clip-rule="evenodd" opacity=".45"/>
  <path fill="url(#prefix__b)" d="m24 22-7 10h-4L6 22V12h18v10Z" clip-rule="evenodd" opacity=".45"/>
  <path fill="url(#prefix__c)" d="m24 22-7 10h-4L6 22h18Z" clip-rule="evenodd" opacity=".35"/>
  <path fill="url(#prefix__d)" d="M8 4h14v11H8z" opacity=".5"/>
  <path fill="url(#prefix__e)" d="M10 8h3v3h-3z"/>
  <path fill="url(#prefix__f)" d="M17 8h3v3h-3z"/>
  <path fill="url(#prefix__g)" d="M44 37.01v4H21a8 8 0 0 1-8-8V32h4v1.01a4 4 0 0 0 4 4h23Z" opacity=".45"/>
  <path fill="url(#prefix__h)" d="M8 12h14v3H8z"/>
  <path fill="url(#prefix__i)" d="M31 37h6v4h-6z"/>
  <defs>
    <linearGradient id="prefix__a" x1="23.277" x2="45.201" y1="39.415" y2="11.936" gradientUnits="userSpaceOnUse">
      <stop stop-color="#70B1FF"/>
      <stop offset="1" stop-color="#005CCD"/>
    </linearGradient>
    <linearGradient id="prefix__b" x1="-.631" x2="16.424" y1="20.726" y2="33.687" gradientUnits="userSpaceOnUse">
      <stop stop-color="#70B1FF"/>
      <stop offset="1" stop-color="#005CCD"/>
    </linearGradient>
    <linearGradient id="prefix__c" x1="-10.655" x2="-.381" y1="28.944" y2="53.588" gradientUnits="userSpaceOnUse">
      <stop stop-color="#70B1FF"/>
      <stop offset="1" stop-color="#005CCD"/>
    </linearGradient>
    <linearGradient id="prefix__d" x1="29" x2="18.312" y1="9.5" y2="-4.103" gradientUnits="userSpaceOnUse">
      <stop stop-color="#70B1FF"/>
      <stop offset="1" stop-color="#005CCD"/>
    </linearGradient>
    <linearGradient id="prefix__e" x1="12.076" x2="14.21" y1="13.219" y2="9.067" gradientUnits="userSpaceOnUse">
      <stop stop-color="#295296"/>
      <stop offset="1" stop-color="#3E78D3"/>
    </linearGradient>
    <linearGradient id="prefix__f" x1="19.076" x2="21.21" y1="13.219" y2="9.067" gradientUnits="userSpaceOnUse">
      <stop stop-color="#295296"/>
      <stop offset="1" stop-color="#3E78D3"/>
    </linearGradient>
    <linearGradient id="prefix__g" x1="26.862" x2="24.19" y1="30.265" y2="41.316" gradientUnits="userSpaceOnUse">
      <stop stop-color="#70B1FF"/>
      <stop offset="1" stop-color="#005CCD"/>
    </linearGradient>
    <linearGradient id="prefix__h" x1="1" x2="2.229" y1="13.5" y2="19.237" gradientUnits="userSpaceOnUse">
      <stop stop-color="#6A9FED"/>
      <stop offset="1" stop-color="#72A6F1"/>
    </linearGradient>
    <linearGradient id="prefix__i" x1="28" x2="31.692" y1="39" y2="44.538" gradientUnits="userSpaceOnUse">
      <stop stop-color="#7FAEF3"/>
      <stop offset="1" stop-color="#84B3F9"/>
    </linearGradient>
  </defs>
</svg>
