<svg width="96" height="96" fill="none" viewBox="0 0 96 96" xmlns="http://www.w3.org/2000/svg">
  <path fill="url(#prefix__a)" d="M62 87h12V27h6L68 9 56 27h6v60Z" clip-rule="evenodd" opacity=".45"/>
  <path fill="url(#prefix__b)" d="M45 48 32 67h-6L13 48V25h32v23Z" clip-rule="evenodd" opacity=".45"/>
  <path fill="url(#prefix__c)" d="M45 48 32 67h-6L13 48h32Z" clip-rule="evenodd"/>
  <path fill="url(#prefix__d)" d="M17 10h24v22H17z" opacity=".5"/>
  <path fill="url(#prefix__e)" d="M20 17h6v5h-6z"/>
  <path fill="url(#prefix__f)" d="M32 17h6v5h-6z"/>
  <path fill="url(#prefix__g)" d="M26 67h6v7a8 8 0 1 0 16 0v-1c0-8.284 6.716-15 15-15h25v6H63a9 9 0 0 0-9 9v1c0 7.732-6.268 14-14 14s-14-6.268-14-14v-7Z" opacity=".45"/>
  <path fill="url(#prefix__h)" d="M17 25h24v7H17z"/>
  <defs>
    <linearGradient id="prefix__a" x1="49.617" x2="90.936" y1="76.628" y2="28.824" gradientUnits="userSpaceOnUse">
      <stop stop-color="#70B1FF"/>
      <stop offset="1" stop-color="#005CCD"/>
    </linearGradient>
    <linearGradient id="prefix__b" x1="1.211" x2="35.041" y1="43.324" y2="65.089" gradientUnits="userSpaceOnUse">
      <stop stop-color="#70B1FF"/>
      <stop offset="1" stop-color="#005CCD"/>
    </linearGradient>
    <linearGradient id="prefix__c" x1=".731" x2="11.897" y1="54.64" y2="75.271" gradientUnits="userSpaceOnUse">
      <stop stop-color="#8EBDF6"/>
      <stop offset="1" stop-color="#68A0E5"/>
    </linearGradient>
    <linearGradient id="prefix__d" x1="53" x2="31.083" y1="21" y2="-2.909" gradientUnits="userSpaceOnUse">
      <stop stop-color="#70B1FF"/>
      <stop offset="1" stop-color="#005CCD"/>
    </linearGradient>
    <linearGradient id="prefix__e" x1="24.152" x2="27.318" y1="25.698" y2="18.306" gradientUnits="userSpaceOnUse">
      <stop stop-color="#295296"/>
      <stop offset="1" stop-color="#3E78D3"/>
    </linearGradient>
    <linearGradient id="prefix__f" x1="36.152" x2="39.318" y1="25.698" y2="18.306" gradientUnits="userSpaceOnUse">
      <stop stop-color="#295296"/>
      <stop offset="1" stop-color="#3E78D3"/>
    </linearGradient>
    <linearGradient id="prefix__g" x1="91.076" x2="30.993" y1="48.716" y2="36.394" gradientUnits="userSpaceOnUse">
      <stop stop-color="#70B1FF"/>
      <stop offset="1" stop-color="#005CCD"/>
    </linearGradient>
    <linearGradient id="prefix__h" x1="5" x2="8.763" y1="28.5" y2="41.402" gradientUnits="userSpaceOnUse">
      <stop stop-color="#70A8ED"/>
      <stop offset="1" stop-color="#7BB1F3"/>
    </linearGradient>
  </defs>
</svg>
