<svg width="96" height="96" fill="none" viewBox="0 0 96 96" xmlns="http://www.w3.org/2000/svg">
  <path fill="url(#prefix__a)" d="M53 86c18.225 0 33-14.775 33-33S71.225 20 53 20 20 34.775 20 53s14.775 33 33 33Z" clip-rule="evenodd" opacity=".3"/>
  <path fill="url(#prefix__b)" d="M25 11V7l-10 7 10 7v-4h.045C31.1 17.024 36 21.94 36 28c0 6.075-4.925 11-11 11s-11-4.925-11-11c0-2.293.704-4.422 1.904-6.185l-4.961-3.374A16.92 16.92 0 0 0 8 28c0 9.39 7.611 17 17 17s17-7.61 17-17-7.611-17-17-17Z" clip-rule="evenodd" opacity=".45"/>
  <path fill="url(#prefix__c)" d="M21.092 44.548a32.77 32.77 0 0 1 2.087-5.698c.593.098 1.2.15 1.821.15 6.075 0 11-4.925 11-11 0-1.052-.147-2.068-.423-3.031a32.873 32.873 0 0 1 5.426-2.72 16.97 16.97 0 0 1 .997 5.75c0 9.39-7.61 17-17 17-1.345 0-2.653-.155-3.908-.45Z" clip-rule="evenodd"/>
  <path fill="url(#prefix__d)" d="M60 44.514v-7.01C65.897 40.17 70 46.105 70 53c0 9.389-7.611 17-17 17s-17-7.611-17-17c0-6.894 4.103-12.829 10-15.497v7.011c-2.443 2.018-4 5.07-4 8.486 0 6.075 4.925 11 11 11s11-4.925 11-11c0-3.416-1.557-6.468-4-8.486Z" clip-rule="evenodd" opacity=".6"/>
  <path fill="url(#prefix__e)" d="M50 33h6v14h-6V33Z" clip-rule="evenodd" opacity=".6"/>
  <defs>
    <linearGradient id="prefix__a" x1="55.97" x2="-2.358" y1="-9.164" y2="50.897" gradientUnits="userSpaceOnUse">
      <stop stop-color="#70B1FF"/>
      <stop offset="1" stop-color="#005CCD"/>
    </linearGradient>
    <linearGradient id="prefix__b" x1="-3.36" x2="22.495" y1="15.267" y2="49.719" gradientUnits="userSpaceOnUse">
      <stop stop-color="#70B1FF"/>
      <stop offset="1" stop-color="#005CCD"/>
    </linearGradient>
    <linearGradient id="prefix__c" x1="32.487" x2="12.402" y1="12.195" y2="31.201" gradientUnits="userSpaceOnUse">
      <stop stop-color="#77A6E9"/>
      <stop offset="1" stop-color="#6A9AE2"/>
    </linearGradient>
    <linearGradient id="prefix__d" x1="13.639" x2="44.854" y1="48.775" y2="83.296" gradientUnits="userSpaceOnUse">
      <stop stop-color="#70B1FF"/>
      <stop offset="1" stop-color="#005CCD"/>
    </linearGradient>
    <linearGradient id="prefix__e" x1="46.054" x2="56.215" y1="37.856" y2="42.459" gradientUnits="userSpaceOnUse">
      <stop stop-color="#70B1FF"/>
      <stop offset="1" stop-color="#005CCD"/>
    </linearGradient>
  </defs>
</svg>
