<svg width="48" height="48" fill="none" viewBox="0 0 48 48" xmlns="http://www.w3.org/2000/svg">
  <path fill="url(#prefix__a)" d="M29.5 45C38.613 45 46 37.613 46 28.5S38.613 12 29.5 12 13 19.387 13 28.5 20.387 45 29.5 45Z" clip-rule="evenodd" opacity=".3"/>
  <path fill="url(#prefix__b)" d="M13 8.07V10L7 6l6-4v2.045c.33-.03.663-.045 1-.045 6.075 0 11 4.925 11 11s-4.925 11-11 11S3 21.075 3 15c0-2.357.741-4.54 2.003-6.331l3.33 2.22A7 7 0 1 0 13 8.071Z" opacity=".45"/>
  <path fill="url(#prefix__c)" d="M13.193 25.97a16.381 16.381 0 0 1 1.14-3.978 7 7 0 0 0 6.64-7.62 16.41 16.41 0 0 1 3.784-1.68c.16.744.243 1.516.243 2.308 0 6.075-4.925 11-11 11-.271 0-.54-.01-.807-.03Z" clip-rule="evenodd"/>
  <path fill="url(#prefix__d)" d="M33 24.257v-3.505a8.5 8.5 0 1 1-7 0v3.505a5.5 5.5 0 1 0 7 0Z" clip-rule="evenodd" opacity=".6"/>
  <path fill="url(#prefix__e)" d="M28 18h3v8h-3v-8Z" clip-rule="evenodd" opacity=".6"/>
  <defs>
    <linearGradient id="prefix__a" x1="30.985" x2="1.821" y1="-2.582" y2="27.448" gradientUnits="userSpaceOnUse">
      <stop stop-color="#70B1FF"/>
      <stop offset="1" stop-color="#005CCD"/>
    </linearGradient>
    <linearGradient id="prefix__b" x1="-4.351" x2="11.864" y1="7.221" y2="29.358" gradientUnits="userSpaceOnUse">
      <stop stop-color="#70B1FF"/>
      <stop offset="1" stop-color="#005CCD"/>
    </linearGradient>
    <linearGradient id="prefix__c" x1="19.628" x2="7.909" y1="6.811" y2="17.517" gradientUnits="userSpaceOnUse">
      <stop stop-color="#77A6E9"/>
      <stop offset="1" stop-color="#6A9AE2"/>
    </linearGradient>
    <linearGradient id="prefix__d" x1="9.82" x2="25.427" y1="26.387" y2="43.648" gradientUnits="userSpaceOnUse">
      <stop stop-color="#70B1FF"/>
      <stop offset="1" stop-color="#005CCD"/>
    </linearGradient>
    <linearGradient id="prefix__e" x1="26.027" x2="31.319" y1="20.775" y2="22.872" gradientUnits="userSpaceOnUse">
      <stop stop-color="#70B1FF"/>
      <stop offset="1" stop-color="#005CCD"/>
    </linearGradient>
  </defs>
</svg>
