<svg width="48" height="48" fill="none" viewBox="0 0 48 48" xmlns="http://www.w3.org/2000/svg">
  <path fill="url(#prefix__a)" d="M3 32h14v14H3z" opacity=".55"/>
  <path fill="url(#prefix__b)" d="M13 28h14v14H13z" opacity=".45"/>
  <path fill="url(#prefix__c)" d="M23 24h14v14H23z" opacity=".35"/>
  <path fill="url(#prefix__d)" d="M12 34H8V21c0-9.389 7.611-17 17-17h17v4H25c-7.18 0-13 5.82-13 13v13Z" opacity=".55"/>
  <path fill="url(#prefix__e)" d="M22 30h-4v-9c0-9.389 7.611-17 17-17h7v4h-7c-7.18 0-13 5.82-13 13v9Z" opacity=".45"/>
  <path fill="url(#prefix__f)" d="M32.148 26H28v-8.5C28 10.044 34.268 4 42 4v4c-5.441 0-9.852 4.253-9.852 9.5V26Z" opacity=".35"/>
  <path fill="url(#prefix__g)" d="M40.94 8H32c2.432-2.47 5.21-4 8.94-4V1L48 6l-7.06 5V8Z" clip-rule="evenodd"/>
  <path fill="url(#prefix__h)" d="M13 32h4v10h-4z"/>
  <path fill="url(#prefix__i)" d="M8 32h4v2H8z"/>
  <path fill="url(#prefix__j)" d="M18 28h4v2h-4z"/>
  <path fill="url(#prefix__k)" d="M28 24h4v2h-4z"/>
  <path fill="url(#prefix__l)" d="M23 28h4v10h-4z"/>
  <path fill="#fff" d="M1 0v-1H0v1h1Zm48 0h1v-1h-1v1Zm0 48v1h1v-1h-1ZM1 48H0v1h1v-1ZM1 1h48v-2H1v2Zm47-1v48h2V0h-2Zm1 47H1v2h48v-2ZM2 48V0H0v48h2Z"/>
  <defs>
    <linearGradient id="prefix__a" x1="-4" x2="10" y1="39" y2="53" gradientUnits="userSpaceOnUse">
      <stop stop-color="#70B1FF"/>
      <stop offset="1" stop-color="#005CCD"/>
    </linearGradient>
    <linearGradient id="prefix__b" x1="6" x2="20" y1="35" y2="49" gradientUnits="userSpaceOnUse">
      <stop stop-color="#70B1FF"/>
      <stop offset="1" stop-color="#005CCD"/>
    </linearGradient>
    <linearGradient id="prefix__c" x1="16" x2="30" y1="31" y2="45" gradientUnits="userSpaceOnUse">
      <stop stop-color="#70B1FF"/>
      <stop offset="1" stop-color="#005CCD"/>
    </linearGradient>
    <linearGradient id="prefix__d" x1="12.532" x2="-3.527" y1="-.485" y2="27.349" gradientUnits="userSpaceOnUse">
      <stop stop-color="#70B1FF"/>
      <stop offset="1" stop-color="#005CCD"/>
    </linearGradient>
    <linearGradient id="prefix__e" x1="23.693" x2="5.754" y1="-1.733" y2="19.797" gradientUnits="userSpaceOnUse">
      <stop stop-color="#70B1FF"/>
      <stop offset="1" stop-color="#005CCD"/>
    </linearGradient>
    <linearGradient id="prefix__f" x1="41.626" x2="38.895" y1="4.654" y2="4.654" gradientUnits="userSpaceOnUse">
      <stop stop-color="#70B1FF"/>
      <stop offset="1" stop-color="#005CCD"/>
    </linearGradient>
    <linearGradient id="prefix__g" x1="54.697" x2="31.038" y1="-1.583" y2="3.316" gradientUnits="userSpaceOnUse">
      <stop stop-color="#295296"/>
      <stop offset="1" stop-color="#3E78D3"/>
    </linearGradient>
    <linearGradient id="prefix__h" x1="11" x2="17.897" y1="37" y2="39.759" gradientUnits="userSpaceOnUse">
      <stop stop-color="#70A6F3"/>
      <stop offset="1" stop-color="#4E85DC"/>
    </linearGradient>
    <linearGradient id="prefix__i" x1="6" x2="7.6" y1="33" y2="36.2" gradientUnits="userSpaceOnUse">
      <stop stop-color="#4A83DE"/>
      <stop offset="1" stop-color="#4E85DC"/>
    </linearGradient>
    <linearGradient id="prefix__j" x1="16" x2="17.6" y1="29" y2="32.2" gradientUnits="userSpaceOnUse">
      <stop stop-color="#669AE7"/>
      <stop offset="1" stop-color="#6196E3"/>
    </linearGradient>
    <linearGradient id="prefix__k" x1="26" x2="27.6" y1="25" y2="28.2" gradientUnits="userSpaceOnUse">
      <stop stop-color="#82AEEC"/>
      <stop offset="1" stop-color="#7DAAE9"/>
    </linearGradient>
    <linearGradient id="prefix__l" x1="21" x2="27.897" y1="33" y2="35.759" gradientUnits="userSpaceOnUse">
      <stop stop-color="#88B6F6"/>
      <stop offset="1" stop-color="#699AE2"/>
    </linearGradient>
  </defs>
</svg>
