<svg width="48" height="48" fill="none" viewBox="0 0 48 48" xmlns="http://www.w3.org/2000/svg">
  <path fill="url(#prefix__a)" d="M10.5 7h31A1.5 1.5 0 0 1 43 8.5v24.44H9V8.5A1.5 1.5 0 0 1 10.5 7Z" clip-rule="evenodd" opacity=".35"/>
  <path fill="url(#prefix__b)" d="M6.5 11h31a1.5 1.5 0 0 1 1.5 1.5v24.44H5V12.5A1.5 1.5 0 0 1 6.5 11Z" clip-rule="evenodd" opacity=".35"/>
  <path fill="url(#prefix__c)" d="M34 32.5c-.805.86-1.667 2.15-2.78 4.02-1.538 2.583-2.278 3.68-3.442 4.853-1.685 1.699-3.648 2.622-6.012 2.622-4.823 0-8.766-3.786-8.766-8.497S16.943 27 21.741 27c.46-.006 1.138.063 1.955.276 1.34.35 2.631.995 3.766 2.014l-2.674 2.975a4.997 4.997 0 0 0-2.101-1.118c-.441-.115-.77-.149-.921-.147C19.116 31 17 33.033 17 35.498c0 2.465 2.116 4.497 4.766 4.497 2.236 0 3.47-1.244 6.017-5.522 1.537-2.582 2.277-3.678 3.441-4.852.85-.856 1.77-1.515 2.776-1.958A7.923 7.923 0 0 1 37.234 27C42.058 27 46 30.787 46 35.498c0 4.693-3.912 8.468-8.71 8.497l-.13.004c-.134.002-.282 0-.443-.007A8.399 8.399 0 0 1 34 43.398a7.722 7.722 0 0 1-2.621-1.737L34 39.057l.218-.216c.548.553 1.218.89 1.954 1.054a4.31 4.31 0 0 0 .913.105l.149-.006c2.65 0 4.766-2.032 4.766-4.497S39.884 31 37.234 31c-1.258 0-2.198.394-3.234 1.5Z" clip-rule="evenodd" opacity=".45"/>
  <path fill="url(#prefix__d)" d="M41.197 33c-.852-1.202-2.303-2-3.963-2-1.258 0-2.198.394-3.234 1.5a9.894 9.894 0 0 0-.435.5h-4.89c.982-1.583 1.635-2.457 2.549-3.379.85-.856 1.77-1.515 2.776-1.958A7.922 7.922 0 0 1 37.234 27 8.9 8.9 0 0 1 43 29.097V33h-1.803Z" clip-rule="evenodd"/>
  <path fill="url(#prefix__e)" d="M13.384 33c1.101-3.483 4.445-6 8.357-6 .46-.006 1.138.063 1.955.276 1.34.35 2.631.995 3.766 2.014l-2.674 2.975a4.998 4.998 0 0 0-2.101-1.118c-.441-.115-.77-.149-.921-.147-1.66 0-3.11.798-3.963 2h-4.419Z" clip-rule="evenodd"/>
  <path fill="url(#prefix__f)" d="M43 8.5A1.5 1.5 0 0 0 41.5 7h-31A1.5 1.5 0 0 0 9 8.5V11h34V8.5Z" clip-rule="evenodd" opacity=".2"/>
  <path fill="url(#prefix__g)" d="M39 12.5a1.5 1.5 0 0 0-1.5-1.5h-31A1.5 1.5 0 0 0 5 12.5V15h34v-2.5Z" clip-rule="evenodd" opacity=".4"/>
  <path fill="url(#prefix__h)" d="M9 11h28.5a1.5 1.5 0 0 1 1.5 1.5V15H9v-4Z" clip-rule="evenodd"/>
  <defs>
    <linearGradient id="prefix__a" x1="-8" x2="-8" y1="7" y2="32.94" gradientUnits="userSpaceOnUse">
      <stop stop-color="#70B1FF"/>
      <stop offset="1" stop-color="#005CCD"/>
    </linearGradient>
    <linearGradient id="prefix__b" x1="-12" x2="-12" y1="11" y2="36.94" gradientUnits="userSpaceOnUse">
      <stop stop-color="#70B1FF"/>
      <stop offset="1" stop-color="#005CCD"/>
    </linearGradient>
    <linearGradient id="prefix__c" x1="-3.5" x2="10.342" y1="35.5" y2="62.37" gradientUnits="userSpaceOnUse">
      <stop stop-color="#70B1FF"/>
      <stop offset="1" stop-color="#005CCD"/>
    </linearGradient>
    <linearGradient id="prefix__d" x1="39.117" x2="44.809" y1="40.869" y2="25.725" gradientUnits="userSpaceOnUse">
      <stop stop-color="#295296"/>
      <stop offset="1" stop-color="#3E78D3"/>
    </linearGradient>
    <linearGradient id="prefix__e" x1="23.645" x2="29.413" y1="40.87" y2="25.791" gradientUnits="userSpaceOnUse">
      <stop stop-color="#295296"/>
      <stop offset="1" stop-color="#3E78D3"/>
    </linearGradient>
    <linearGradient id="prefix__f" x1="-8" x2="-7.072" y1="9" y2="16.891" gradientUnits="userSpaceOnUse">
      <stop stop-color="#70B1FF"/>
      <stop offset="1" stop-color="#005CCD"/>
    </linearGradient>
    <linearGradient id="prefix__g" x1="-12" x2="-11.072" y1="13" y2="20.891" gradientUnits="userSpaceOnUse">
      <stop stop-color="#70B1FF"/>
      <stop offset="1" stop-color="#005CCD"/>
    </linearGradient>
    <linearGradient id="prefix__h" x1="-6" x2="-4.952" y1="13" y2="20.86" gradientUnits="userSpaceOnUse">
      <stop stop-color="#73A7FB"/>
      <stop offset="1" stop-color="#568BE4"/>
    </linearGradient>
  </defs>
</svg>
