<svg width="96" height="96" fill="none" viewBox="0 0 96 96" xmlns="http://www.w3.org/2000/svg">
  <path fill="url(#prefix__a)" d="M6 29h68v42H6z" opacity=".35"/>
  <path fill="url(#prefix__b)" d="M22 11.121h62a3 3 0 0 1 3 3V63H19V14.121a3 3 0 0 1 3-3ZM59.5 27a2.5 2.5 0 1 0 0-5 2.5 2.5 0 0 0 0 5Z" clip-rule="evenodd" opacity=".35"/>
  <path fill="url(#prefix__c)" d="M70 20a4 4 0 0 1 4 4v5H6v-5a4 4 0 0 1 4-4h60Zm-8 4.5a2.5 2.5 0 1 1-5 0 2.5 2.5 0 0 1 5 0Z" clip-rule="evenodd" opacity=".55"/>
  <path fill="url(#prefix__d)" d="M87 14a3 3 0 0 0-3-3H22a3 3 0 0 0-3 3v6h68v-6Z" clip-rule="evenodd" opacity=".2"/>
  <path fill="url(#prefix__e)" d="M67.5 27a2.5 2.5 0 1 0 0-5 2.5 2.5 0 0 0 0 5Z" clip-rule="evenodd"/>
  <path fill="url(#prefix__f)" d="M67 62.001c-1.61 1.72-3.334 4.3-5.561 8.04-3.075 5.164-4.555 7.359-6.883 9.705-3.37 3.397-7.296 5.244-12.024 5.244C32.885 84.99 25 77.418 25 67.995 25 58.573 32.885 51 42.482 51.001c.922-.012 2.276.125 3.91.551 2.68.699 5.262 1.99 7.531 4.028l-5.347 5.95a9.996 9.996 0 0 0-4.202-2.237c-.882-.23-1.54-.296-1.842-.293-5.3 0-9.532 4.066-9.532 8.995 0 4.93 4.233 8.995 9.532 8.995 4.472 0 6.94-2.488 12.035-11.044 3.074-5.163 4.554-7.357 6.881-9.703 1.699-1.712 3.54-3.03 5.552-3.917C68.979 51.454 71.125 51 73.468 51 83.115 51 91 58.573 91 67.995c0 9.386-7.823 16.936-17.42 16.995l-.26.008c-.267.005-.564.001-.886-.014a16.585 16.585 0 0 1-2.836-.385A16.783 16.783 0 0 1 67 83.796c-1.9-.763-3.678-1.9-5.242-3.475L67 75.117l.435-.432c1.098 1.105 2.437 1.778 3.909 2.107a8.63 8.63 0 0 0 1.825.21l.299-.012c5.3 0 9.532-4.064 9.532-8.995C83 63.065 78.768 59 73.468 59c-2.515 0-4.396.788-6.468 3.001Z" clip-rule="evenodd" opacity=".5"/>
  <path fill="url(#prefix__g)" d="M81.394 63c-1.704-2.404-4.606-4-7.926-4-2.515 0-4.396.788-6.468 3.001-.286.306-.575.638-.87.999h-9.78c1.965-3.166 3.27-4.915 5.098-6.757 1.699-1.712 3.54-3.03 5.552-3.917C68.979 51.454 71.125 51 73.468 51c5.435 0 10.31 2.404 13.532 6.187V63h-5.606Z" clip-rule="evenodd"/>
  <path fill="url(#prefix__h)" d="M25.768 63c2.203-6.966 8.89-12 16.714-12 .922-.01 2.276.126 3.91.552 2.68.699 5.262 1.99 7.531 4.028l-5.347 5.95a9.996 9.996 0 0 0-4.202-2.237c-.882-.23-1.54-.296-1.842-.293-3.32 0-6.221 1.596-7.925 4h-8.839Z" clip-rule="evenodd"/>
  <defs>
    <linearGradient id="prefix__a" x1="-28" x2="-28" y1="29" y2="71" gradientUnits="userSpaceOnUse">
      <stop stop-color="#70B1FF"/>
      <stop offset="1" stop-color="#005CCD"/>
    </linearGradient>
    <linearGradient id="prefix__b" x1="-15" x2="-15" y1="11.121" y2="63" gradientUnits="userSpaceOnUse">
      <stop stop-color="#70B1FF"/>
      <stop offset="1" stop-color="#005CCD"/>
    </linearGradient>
    <linearGradient id="prefix__c" x1="40" x2="37.659" y1="15.5" y2="33.19" gradientUnits="userSpaceOnUse">
      <stop stop-color="#70B1FF"/>
      <stop offset="1" stop-color="#005CCD"/>
    </linearGradient>
    <linearGradient id="prefix__d" x1="-15" x2="-12.659" y1="15.5" y2="33.19" gradientUnits="userSpaceOnUse">
      <stop stop-color="#70B1FF"/>
      <stop offset="1" stop-color="#005CCD"/>
    </linearGradient>
    <linearGradient id="prefix__e" x1="82.925" x2="70.374" y1="26.285" y2="13.599" gradientUnits="userSpaceOnUse">
      <stop stop-color="#295296"/>
      <stop offset="1" stop-color="#3E78D3"/>
    </linearGradient>
    <linearGradient id="prefix__f" x1="-8" x2="19.684" y1="68" y2="121.739" gradientUnits="userSpaceOnUse">
      <stop stop-color="#70B1FF"/>
      <stop offset="1" stop-color="#005CCD"/>
    </linearGradient>
    <linearGradient id="prefix__g" x1="78.691" x2="89.503" y1="78.738" y2="47.969" gradientUnits="userSpaceOnUse">
      <stop stop-color="#295296"/>
      <stop offset="1" stop-color="#3E78D3"/>
    </linearGradient>
    <linearGradient id="prefix__h" x1="46.291" x2="57.826" y1="78.739" y2="48.582" gradientUnits="userSpaceOnUse">
      <stop stop-color="#295296"/>
      <stop offset="1" stop-color="#3E78D3"/>
    </linearGradient>
  </defs>
</svg>
