<svg width="48" height="48" fill="none" viewBox="0 0 48 48" xmlns="http://www.w3.org/2000/svg">
  <path fill="url(#prefix__a)" d="M24 5h13l8 8v21H24V5Z" clip-rule="evenodd" opacity=".45"/>
  <path fill="url(#prefix__b)" d="M5 30h28v16H5z" opacity=".4"/>
  <path fill="url(#prefix__c)" d="M5 30h28L19 41 5 30Z" clip-rule="evenodd" opacity=".3"/>
  <path fill="url(#prefix__d)" d="m37 5 8 8h-8V5Z" clip-rule="evenodd"/>
  <path fill="url(#prefix__e)" d="M27.91 34H24v-4h9l-5.09 4Z" clip-rule="evenodd"/>
  <path fill="url(#prefix__f)" d="M19 4c6.627 0 12 5.373 12 12s-5.373 12-12 12S7 22.627 7 16c0-2.31.653-4.467 1.783-6.298l3.267 2.334A8 8 0 1 0 19 8v3l-7-5 7-5v3Z" clip-rule="evenodd" opacity=".6"/>
  <path fill="url(#prefix__g)" d="M24 26.912v-4.667A7.985 7.985 0 0 0 27 16a7.985 7.985 0 0 0-3-6.245V5.088c4.131 1.896 7 6.069 7 10.912 0 4.843-2.869 9.016-7 10.912Z" clip-rule="evenodd"/>
  <defs>
    <linearGradient id="prefix__a" x1="36.488" x2="62.228" y1="47.127" y2="26.539" gradientUnits="userSpaceOnUse">
      <stop stop-color="#70B1FF"/>
      <stop offset="1" stop-color="#005CCD"/>
    </linearGradient>
    <linearGradient id="prefix__b" x1="21.651" x2="33.532" y1="53.243" y2="30.276" gradientUnits="userSpaceOnUse">
      <stop stop-color="#70B1FF"/>
      <stop offset="1" stop-color="#005CCD"/>
    </linearGradient>
    <linearGradient id="prefix__c" x1="21.651" x2="27.97" y1="45.979" y2="28.211" gradientUnits="userSpaceOnUse">
      <stop stop-color="#70B1FF"/>
      <stop offset="1" stop-color="#005CCD"/>
    </linearGradient>
    <linearGradient id="prefix__d" x1="55.98" x2="43.156" y1="10.599" y2="-4.813" gradientUnits="userSpaceOnUse">
      <stop stop-color="#295296"/>
      <stop offset="1" stop-color="#3E78D3"/>
    </linearGradient>
    <linearGradient id="prefix__e" x1="28.5" x2="31.469" y1="36" y2="29.32" gradientUnits="userSpaceOnUse">
      <stop stop-color="#598FE9"/>
      <stop offset="1" stop-color="#497EDB"/>
    </linearGradient>
    <linearGradient id="prefix__f" x1="46.846" x2="20.684" y1="21.73" y2="-3.898" gradientUnits="userSpaceOnUse">
      <stop stop-color="#70B1FF"/>
      <stop offset="1" stop-color="#005CCD"/>
    </linearGradient>
    <linearGradient id="prefix__g" x1="28.163" x2="28.163" y1="26.912" y2="5.088" gradientUnits="userSpaceOnUse">
      <stop stop-color="#629AF0"/>
      <stop offset="1" stop-color="#4681DD"/>
    </linearGradient>
  </defs>
</svg>
