<svg width="48" height="48" fill="none" viewBox="0 0 48 48" xmlns="http://www.w3.org/2000/svg">
  <path fill="url(#prefix__a)" d="M16 3h28a4 4 0 0 1 0 8H20V7a4 4 0 0 0-4-4Z" clip-rule="evenodd" opacity=".2"/>
  <path fill="url(#prefix__b)" d="M12 7a4 4 0 0 1 4-4h28a4 4 0 0 0-4 4v32a4 4 0 0 1-4 4H8a4 4 0 0 0 4-4V7Z" clip-rule="evenodd" opacity=".4"/>
  <path fill="url(#prefix__c)" d="M17 18h18v3H17z" opacity=".7"/>
  <path fill="url(#prefix__d)" d="M17 23h18v3H17z" opacity=".7"/>
  <path fill="url(#prefix__e)" d="M17 28h18v3H17z" opacity=".7"/>
  <path fill="url(#prefix__f)" d="M14 30c5.523 0 10-4.477 10-10s-4.477-10-10-10S4 14.477 4 20s4.477 10 10 10Z" clip-rule="evenodd" opacity=".4"/>
  <path fill="url(#prefix__g)" d="M9.768 19 8 20.768l4.384 4.384 8.384-8.384L19 15l-6.616 6.616L9.768 19Z"/>
  <path fill="url(#prefix__h)" d="M36 35H8a4 4 0 0 0 0 8h28a4 4 0 0 1 0-8Z" clip-rule="evenodd" opacity=".6"/>
  <defs>
    <linearGradient id="prefix__a" x1="54.183" x2="54.612" y1="11.825" y2="3.507" gradientUnits="userSpaceOnUse">
      <stop stop-color="#70B1FF"/>
      <stop offset="1" stop-color="#005CCD"/>
    </linearGradient>
    <linearGradient id="prefix__b" x1="29.408" x2="65.8" y1="61.106" y2="24.929" gradientUnits="userSpaceOnUse">
      <stop stop-color="#70B1FF"/>
      <stop offset="1" stop-color="#005CCD"/>
    </linearGradient>
    <linearGradient id="prefix__c" x1="17" x2="35" y1="19.5" y2="19.5" gradientUnits="userSpaceOnUse">
      <stop stop-color="#8FB9F6"/>
      <stop offset="1" stop-color="#6F9EE2"/>
    </linearGradient>
    <linearGradient id="prefix__d" x1="17" x2="35" y1="24.5" y2="24.5" gradientUnits="userSpaceOnUse">
      <stop stop-color="#8FB9F6"/>
      <stop offset="1" stop-color="#6F9EE2"/>
    </linearGradient>
    <linearGradient id="prefix__e" x1="17" x2="35" y1="29.5" y2="29.5" gradientUnits="userSpaceOnUse">
      <stop stop-color="#8FB9F6"/>
      <stop offset="1" stop-color="#6F9EE2"/>
    </linearGradient>
    <linearGradient id="prefix__f" x1="15.894" x2="34" y1="39.053" y2="19.053" gradientUnits="userSpaceOnUse">
      <stop stop-color="#70B1FF"/>
      <stop offset="1" stop-color="#005CCD"/>
    </linearGradient>
    <linearGradient id="prefix__g" x1="38.292" x2="23.06" y1="22.105" y2="-.917" gradientUnits="userSpaceOnUse">
      <stop stop-color="#295296"/>
      <stop offset="1" stop-color="#3E78D3"/>
    </linearGradient>
    <linearGradient id="prefix__h" x1="21.063" x2="22.551" y1="34.245" y2="43.402" gradientUnits="userSpaceOnUse">
      <stop stop-color="#70B1FF"/>
      <stop offset="1" stop-color="#005CCD"/>
    </linearGradient>
  </defs>
</svg>
