<svg width="48" height="48" fill="none" viewBox="0 0 48 48" xmlns="http://www.w3.org/2000/svg">
  <path fill="url(#prefix__a)" d="M37.356 43C40.474 43 43 40.314 43 37s-2.526-6-5.644-6H34.99c-.261-6.12-5.305-11-11.489-11a11.477 11.477 0 0 0-8.911 4.23A9.533 9.533 0 0 0 12.5 24a9.5 9.5 0 0 0 0 19h24.856Z" clip-rule="evenodd" opacity=".4"/>
  <path fill="url(#prefix__b)" d="M16 5h30a1 1 0 0 1 1 1v22a1 1 0 0 1-1 1H16a1 1 0 0 1-1-1V6a1 1 0 0 1 1-1Z" clip-rule="evenodd" opacity=".35"/>
  <path fill="url(#prefix__c)" d="M15 23.754A11.47 11.47 0 0 1 23.5 20c5.493 0 10.086 3.85 11.227 9H16a1 1 0 0 1-1-1v-4.246Z" clip-rule="evenodd"/>
  <path fill="url(#prefix__d)" d="M24 8h15a1 1 0 0 1 1 1v8a1 1 0 0 1-1 1H24a1 1 0 0 1-1-1V9a1 1 0 0 1 1-1Z" clip-rule="evenodd" opacity=".4"/>
  <path fill="url(#prefix__e)" d="M35 12h8a1 1 0 0 1 1 1v8a1 1 0 0 1-1 1h-8a1 1 0 0 1-1-1v-8a1 1 0 0 1 1-1Z" clip-rule="evenodd" opacity=".45"/>
  <path fill="url(#prefix__f)" d="M40 12v5a1 1 0 0 1-1 1h-5v-5a1 1 0 0 1 1-1h5Z" clip-rule="evenodd"/>
  <rect width="9" height="14" x="19" y="12" fill="url(#prefix__g)" opacity=".44" rx="1"/>
  <path fill="url(#prefix__h)" d="M19 20.914A11.463 11.463 0 0 1 23.5 20c1.597 0 3.118.326 4.5.914V25a1 1 0 0 1-1 1h-7a1 1 0 0 1-1-1v-4.086Z" clip-rule="evenodd"/>
  <path fill="url(#prefix__i)" d="M28 18h-4a1 1 0 0 1-1-1v-5h4a1 1 0 0 1 1 1v5Z" clip-rule="evenodd"/>
  <defs>
    <linearGradient id="prefix__a" x1="25.115" x2="4.058" y1="10.933" y2="43.68" gradientUnits="userSpaceOnUse">
      <stop stop-color="#70B1FF"/>
      <stop offset="1" stop-color="#005CCD"/>
    </linearGradient>
    <linearGradient id="prefix__b" x1="32.692" x2="8.911" y1="-4.462" y2="23.893" gradientUnits="userSpaceOnUse">
      <stop stop-color="#70B1FF"/>
      <stop offset="1" stop-color="#005CCD"/>
    </linearGradient>
    <linearGradient id="prefix__c" x1="23.261" x2="17.644" y1="18.504" y2="30.263" gradientUnits="userSpaceOnUse">
      <stop stop-color="#88B3F2"/>
      <stop offset="1" stop-color="#709FE3"/>
    </linearGradient>
    <linearGradient id="prefix__d" x1="32.399" x2="23.159" y1="4.058" y2="18.105" gradientUnits="userSpaceOnUse">
      <stop stop-color="#70B1FF"/>
      <stop offset="1" stop-color="#005CCD"/>
    </linearGradient>
    <linearGradient id="prefix__e" x1="39.529" x2="29.529" y1="8.058" y2="17" gradientUnits="userSpaceOnUse">
      <stop stop-color="#70B1FF"/>
      <stop offset="1" stop-color="#005CCD"/>
    </linearGradient>
    <linearGradient id="prefix__f" x1="28.479" x2="36.307" y1="14.529" y2="21.914" gradientUnits="userSpaceOnUse">
      <stop stop-color="#295296"/>
      <stop offset="1" stop-color="#3E78D3"/>
    </linearGradient>
    <linearGradient id="prefix__g" x1="23.976" x2="11.802" y1="6.481" y2="13.479" gradientUnits="userSpaceOnUse">
      <stop stop-color="#70B1FF"/>
      <stop offset="1" stop-color="#005CCD"/>
    </linearGradient>
    <linearGradient id="prefix__h" x1="23.976" x2="18.19" y1="17.635" y2="25.396" gradientUnits="userSpaceOnUse">
      <stop stop-color="#679AEA"/>
      <stop offset="1" stop-color="#5486DA"/>
    </linearGradient>
    <linearGradient id="prefix__i" x1="14.199" x2="25.078" y1="12.584" y2="21.547" gradientUnits="userSpaceOnUse">
      <stop stop-color="#295296"/>
      <stop offset="1" stop-color="#3E78D3"/>
    </linearGradient>
  </defs>
</svg>
