<svg width="96" height="96" fill="none" viewBox="0 0 96 96" xmlns="http://www.w3.org/2000/svg">
  <path fill="url(#prefix__a)" d="M72.713 86C78.947 86 84 80.628 84 74s-5.053-12-11.287-12h-4.734C67.455 49.761 57.367 40 45 40c-7.187 0-13.605 3.297-17.822 8.46A19.065 19.065 0 0 0 23 48C12.508 48 4 56.507 4 67s8.508 19 19 19h49.713Z" clip-rule="evenodd" opacity=".4"/>
  <path fill="url(#prefix__b)" d="M29 10h60a2 2 0 0 1 2 2v44a2 2 0 0 1-2 2H29a2 2 0 0 1-2-2V12a2 2 0 0 1 2-2Z" clip-rule="evenodd" opacity=".35"/>
  <path fill="url(#prefix__c)" d="m27 48.422.178.039C31.395 43.297 37.813 40 45 40c10.985 0 20.172 7.702 22.455 18H29a2 2 0 0 1-2-2v-7.578Z" clip-rule="evenodd" opacity=".4"/>
  <rect width="32" height="18" x="44" y="16" fill="url(#prefix__d)" rx="2"/>
  <path fill="url(#prefix__e)" d="M67 23h16a2 2 0 0 1 2 2v16a2 2 0 0 1-2 2H67a2 2 0 0 1-2-2V25a2 2 0 0 1 2-2Z" clip-rule="evenodd"/>
  <path fill="url(#prefix__f)" d="M76 23v9a2 2 0 0 1-2 2h-9v-9a2 2 0 0 1 2-2h9Z" clip-rule="evenodd"/>
  <path fill="url(#prefix__g)" d="M37 23h14a2 2 0 0 1 2 2v23a2 2 0 0 1-2 2H37a2 2 0 0 1-2-2V25a2 2 0 0 1 2-2Z" clip-rule="evenodd"/>
  <path fill="url(#prefix__h)" d="M35 42.282A22.908 22.908 0 0 1 45 40c2.813 0 5.508.505 8 1.43V48a2 2 0 0 1-2 2H37a2 2 0 0 1-2-2v-5.718Z" clip-rule="evenodd"/>
  <path fill="url(#prefix__i)" d="M53 34h-7a2 2 0 0 1-2-2v-9h7a2 2 0 0 1 2 2v9Z" clip-rule="evenodd"/>
  <defs>
    <linearGradient id="prefix__a" x1="48.231" x2="6.116" y1="21.865" y2="87.361" gradientUnits="userSpaceOnUse">
      <stop stop-color="#70B1FF"/>
      <stop offset="1" stop-color="#005CCD"/>
    </linearGradient>
    <linearGradient id="prefix__b" x1="62.385" x2="14.822" y1="-8.923" y2="47.786" gradientUnits="userSpaceOnUse">
      <stop stop-color="#70B1FF"/>
      <stop offset="1" stop-color="#005CCD"/>
    </linearGradient>
    <linearGradient id="prefix__c" x1="43.79" x2="32.848" y1="37.418" y2="60.743" gradientUnits="userSpaceOnUse">
      <stop stop-color="#7FADF0"/>
      <stop offset="1" stop-color="#6B9BE3"/>
    </linearGradient>
    <linearGradient id="prefix__d" x1="71.514" x2="43.867" y1="8.904" y2="22.683" gradientUnits="userSpaceOnUse">
      <stop stop-color="#94BEFB"/>
      <stop offset="1" stop-color="#75A3E8"/>
    </linearGradient>
    <linearGradient id="prefix__e" x1="76.058" x2="56.058" y1="15.115" y2="33" gradientUnits="userSpaceOnUse">
      <stop stop-color="#92BDFD"/>
      <stop offset="1" stop-color="#6C9DE5"/>
    </linearGradient>
    <linearGradient id="prefix__f" x1="54.878" x2="69.231" y1="27.637" y2="41.176" gradientUnits="userSpaceOnUse">
      <stop stop-color="#295296"/>
      <stop offset="1" stop-color="#3E78D3"/>
    </linearGradient>
    <linearGradient id="prefix__g" x1="37.641" x2="23.351" y1="16.25" y2="29.713" gradientUnits="userSpaceOnUse">
      <stop stop-color="#8DB8F5"/>
      <stop offset="1" stop-color="#79A5E7"/>
    </linearGradient>
    <linearGradient id="prefix__h" x1="37.622" x2="33.119" y1="36.772" y2="49.325" gradientUnits="userSpaceOnUse">
      <stop stop-color="#5E91E7"/>
      <stop offset="1" stop-color="#4F82DB"/>
    </linearGradient>
    <linearGradient id="prefix__i" x1="28.158" x2="48.029" y1="24.07" y2="40.145" gradientUnits="userSpaceOnUse">
      <stop stop-color="#295296"/>
      <stop offset="1" stop-color="#3E78D3"/>
    </linearGradient>
  </defs>
</svg>
