<svg width="48" height="48" fill="none" viewBox="0 0 48 48" xmlns="http://www.w3.org/2000/svg">
  <path fill="url(#prefix__a)" d="M3 35V19l14-8 14 8v16l-14 8-14-8Z" clip-rule="evenodd" opacity=".36" style="mix-blend-mode:multiply"/>
  <path fill="url(#prefix__b)" d="M35.123 25.173 39.7 33.1l-3.464 2-4.577-7.927c-5.876 2.282-12.7.003-15.95-5.626C12.12 15.33 14.25 7.38 20.468 3.79 26.686.2 34.636 2.33 38.226 8.548c3.25 5.629 1.812 12.678-3.103 16.626Zm-3.655-2.332a9 9 0 1 0-9-15.588 9 9 0 0 0 9 15.588Z" clip-rule="evenodd" opacity=".5" style="mix-blend-mode:multiply"/>
  <path fill="url(#prefix__c)" d="m33 30.5 4.33-2.5 7 12.124-4.33 2.5L33 30.5Z" clip-rule="evenodd"/>
  <path fill="url(#prefix__d)" d="M18.553 11.887A9 9 0 0 0 31 23.064v4.309A12.99 12.99 0 0 1 27 28c-7.18 0-13-5.82-13-13 0-.825.077-1.631.224-2.414L17 11l1.553.887Z" clip-rule="evenodd"/>
  <path fill="url(#prefix__e)" d="M27 24a9 9 0 1 0 0-18 9 9 0 0 0 0 18Z" clip-rule="evenodd" opacity=".35"/>
  <path fill="url(#prefix__f)" d="M25 13h6v6h-6z"/>
  <path fill="url(#prefix__g)" d="M3 19v16l14 8V28L3 19Z" clip-rule="evenodd"/>
  <defs>
    <linearGradient id="prefix__a" x1="-11" x2="-11" y1="11" y2="43" gradientUnits="userSpaceOnUse">
      <stop stop-color="#70B1FF"/>
      <stop offset="1" stop-color="#005CCD"/>
    </linearGradient>
    <linearGradient id="prefix__b" x1=".963" x2=".963" y1="2.045" y2="35.1" gradientUnits="userSpaceOnUse">
      <stop stop-color="#70B1FF"/>
      <stop offset="1" stop-color="#005CCD"/>
    </linearGradient>
    <linearGradient id="prefix__c" x1="48.172" x2="30.295" y1="33.054" y2="35.176" gradientUnits="userSpaceOnUse">
      <stop stop-color="#295296"/>
      <stop offset="1" stop-color="#3E78D3"/>
    </linearGradient>
    <linearGradient id="prefix__d" x1="5.5" x2="22.5" y1="19.5" y2="36.5" gradientUnits="userSpaceOnUse">
      <stop stop-color="#5E97FB"/>
      <stop offset="1" stop-color="#3369D2"/>
    </linearGradient>
    <linearGradient id="prefix__e" x1="27" x2="9" y1="-3" y2="15" gradientUnits="userSpaceOnUse">
      <stop stop-color="#84B4FA"/>
      <stop offset="1" stop-color="#4E82D5"/>
    </linearGradient>
    <linearGradient id="prefix__f" x1="39.235" x2="29.617" y1="17.199" y2="5.64" gradientUnits="userSpaceOnUse">
      <stop stop-color="#295296"/>
      <stop offset="1" stop-color="#3E78D3"/>
    </linearGradient>
    <linearGradient id="prefix__g" x1="10" x2="30.891" y1="7" y2="19.186" gradientUnits="userSpaceOnUse">
      <stop stop-color="#8AB4F7"/>
      <stop offset="1" stop-color="#6692DB"/>
    </linearGradient>
  </defs>
</svg>
