<svg width="96" height="96" fill="none" viewBox="0 0 96 96" xmlns="http://www.w3.org/2000/svg">
  <path fill="url(#prefix__a)" d="m22 27 44-16 24 10v58L66 89 22 73V27Z" clip-rule="evenodd" opacity=".35"/>
  <path fill="url(#prefix__b)" d="m66 77-44-4 18-10.2V31l26-7v53Z" clip-rule="evenodd"/>
  <path fill="url(#prefix__c)" d="M4 10h36v23.974a15 15 0 0 1-5.397 11.524L22 56 9.397 45.498A15 15 0 0 1 4 33.974V10Z" clip-rule="evenodd" opacity=".5"/>
  <path fill="url(#prefix__d)" d="M22 10h18v23.974a15 15 0 0 1-5.397 11.524L22 56V10Z" clip-rule="evenodd" opacity=".65"/>
  <path fill="url(#prefix__e)" d="M40 20v13.84a15 15 0 0 1-5.325 11.463L22 56V26.63L40 20Z" clip-rule="evenodd"/>
  <defs>
    <linearGradient id="prefix__a" x1="32.424" x2="32.424" y1="11" y2="89" gradientUnits="userSpaceOnUse">
      <stop stop-color="#70B1FF"/>
      <stop offset="1" stop-color="#005CCD"/>
    </linearGradient>
    <linearGradient id="prefix__b" x1="33.845" x2="33.845" y1="27.816" y2="77" gradientUnits="userSpaceOnUse">
      <stop stop-color="#8AB3F3"/>
      <stop offset="1" stop-color="#729DE2"/>
    </linearGradient>
    <linearGradient id="prefix__c" x1="-17.237" x2="34.315" y1="69.493" y2="81.147" gradientUnits="userSpaceOnUse">
      <stop stop-color="#70B1FF"/>
      <stop offset="1" stop-color="#005CCD"/>
    </linearGradient>
    <linearGradient id="prefix__d" x1="18.248" x2="47.067" y1="66.544" y2="62.678" gradientUnits="userSpaceOnUse">
      <stop stop-color="#7AACF6"/>
      <stop offset="1" stop-color="#5489DC"/>
    </linearGradient>
    <linearGradient id="prefix__e" x1="31" x2="59.8" y1="74" y2="59.6" gradientUnits="userSpaceOnUse">
      <stop stop-color="#295296"/>
      <stop offset="1" stop-color="#3E78D3"/>
    </linearGradient>
  </defs>
</svg>
