<svg width="48" height="48" fill="none" viewBox="0 0 48 48" xmlns="http://www.w3.org/2000/svg">
  <path fill="url(#prefix__a)" d="m12 13.5 23-9 12 5v31l-12 5-23-9v-23Z" clip-rule="evenodd" opacity=".35"/>
  <path fill="url(#prefix__b)" d="m34 39.5-22-3L22 32V14.5L34 11v28.5Z" clip-rule="evenodd" opacity=".45"/>
  <path fill="url(#prefix__c)" d="M2 3h20v13.75a7.5 7.5 0 0 1-3 6L12 28l-7-5.25a7.5 7.5 0 0 1-3-6V3Z" clip-rule="evenodd" opacity=".5"/>
  <path fill="url(#prefix__d)" d="M12 3h10v13.75a7.5 7.5 0 0 1-3 6L12 28V3Z" clip-rule="evenodd" opacity=".45"/>
  <path fill="url(#prefix__e)" d="M22 9.587v7.163a7.5 7.5 0 0 1-3 6L12 28V13.5l10-3.913Z" clip-rule="evenodd"/>
  <defs>
    <linearGradient id="prefix__a" x1="17.365" x2="17.365" y1="4.5" y2="45.5" gradientUnits="userSpaceOnUse">
      <stop stop-color="#70B1FF"/>
      <stop offset="1" stop-color="#005CCD"/>
    </linearGradient>
    <linearGradient id="prefix__b" x1="3.11" x2="23.834" y1="21.448" y2="39.082" gradientUnits="userSpaceOnUse">
      <stop stop-color="#7AACF6"/>
      <stop offset="1" stop-color="#5489DC"/>
    </linearGradient>
    <linearGradient id="prefix__c" x1="-9.799" x2="18.779" y1="35.333" y2="41.937" gradientUnits="userSpaceOnUse">
      <stop stop-color="#70B1FF"/>
      <stop offset="1" stop-color="#005CCD"/>
    </linearGradient>
    <linearGradient id="prefix__d" x1="7.959" x2="21.556" y1="12.165" y2="18.16" gradientUnits="userSpaceOnUse">
      <stop stop-color="#7AACF6"/>
      <stop offset="1" stop-color="#5489DC"/>
    </linearGradient>
    <linearGradient id="prefix__e" x1="17" x2="32.445" y1="37.206" y2="28.819" gradientUnits="userSpaceOnUse">
      <stop stop-color="#295296"/>
      <stop offset="1" stop-color="#3E78D3"/>
    </linearGradient>
  </defs>
</svg>
