<svg width="48" height="48" fill="none" viewBox="0 0 48 48" xmlns="http://www.w3.org/2000/svg">
  <path fill="url(#prefix__a)" d="M33 33.5c8.284 0 15-6.716 15-15 0-8.284-6.716-15-15-15-8.284 0-15 6.716-15 15 0 8.284 6.716 15 15 15Z" clip-rule="evenodd" opacity=".4"/>
  <path fill="url(#prefix__b)" d="M33.985 6.5v9.485h5.986l-7.986 13.486v-9.486H26L33.985 6.5Z" clip-rule="evenodd"/>
  <path fill="url(#prefix__c)" d="M16 19c6.627 0 12 5.373 12 12s-5.373 12-12 12S4 37.627 4 31c0-2.31.653-4.467 1.783-6.298l3.267 2.334A8 8 0 1 0 16 23v3l-7-5 7-5v3Z" clip-rule="evenodd" opacity=".6"/>
  <path fill="url(#prefix__d)" d="M27.893 32.608a14.965 14.965 0 0 1-3.909-2.119 8.005 8.005 0 0 0-5.12-6.961 14.943 14.943 0 0 1-.85-4.36C23.684 20.127 28 25.06 28 31c0 .545-.036 1.082-.107 1.608Z" clip-rule="evenodd"/>
  <defs>
    <linearGradient id="prefix__a" x1="59.279" x2="29.279" y1="18.5" y2="-4.058" gradientUnits="userSpaceOnUse">
      <stop stop-color="#70B1FF"/>
      <stop offset="1" stop-color="#005CCD"/>
    </linearGradient>
    <linearGradient id="prefix__b" x1="39.214" x2="42.391" y1="31.864" y2="7.739" gradientUnits="userSpaceOnUse">
      <stop stop-color="#295296"/>
      <stop offset="1" stop-color="#3E78D3"/>
    </linearGradient>
    <linearGradient id="prefix__c" x1="43.846" x2="17.684" y1="36.73" y2="11.102" gradientUnits="userSpaceOnUse">
      <stop stop-color="#70B1FF"/>
      <stop offset="1" stop-color="#005CCD"/>
    </linearGradient>
    <linearGradient id="prefix__d" x1="32.993" x2="20.125" y1="25.888" y2="16.328" gradientUnits="userSpaceOnUse">
      <stop stop-color="#5C94E9"/>
      <stop offset="1" stop-color="#447DD8"/>
    </linearGradient>
  </defs>
</svg>
