<svg width="48" height="48" fill="none" viewBox="0 0 48 48" xmlns="http://www.w3.org/2000/svg">
  <path fill="url(#prefix__a)" d="M4 23c0 9.941 8.059 18 18 18s18-8.059 18-18S31.941 5 22 5 4 13.059 4 23Zm30 0c0 6.627-5.373 12-12 12s-12-5.373-12-12 5.373-12 12-12 12 5.373 12 12Z" clip-rule="evenodd" opacity=".35"/>
  <path fill="url(#prefix__b)" d="M22 35h17v-3l9 6.5-9 5.5v-3H22c-9.941 0-18-8.059-18-18S12.059 5 22 5v6c-6.627 0-12 5.373-12 12s5.373 12 12 12Z" clip-rule="evenodd" opacity=".75"/>
  <path fill="url(#prefix__c)" d="M39 41H3v-6h36v-3l9 6.5-9 5.5v-3Z" clip-rule="evenodd" opacity=".3"/>
  <path fill="url(#prefix__d)" d="M13.766 28.676A9.954 9.954 0 0 1 12 23c0-5.523 4.477-10 10-10s10 4.477 10 10a9.954 9.954 0 0 1-1.766 5.676A13.936 13.936 0 0 0 22 26c-3.078 0-5.923.993-8.234 2.676Z" clip-rule="evenodd" opacity=".4"/>
  <path fill="url(#prefix__e)" d="M19.402 23.5a3 3 0 0 0 4.098 1.098C24.935 23.77 34.124 15 34.124 15s-12.19 3.573-13.624 4.402a3 3 0 0 0-1.098 4.098Z" clip-rule="evenodd"/>
  <defs>
    <linearGradient id="prefix__a" x1="4.03" x2="4.03" y1="5" y2="35.569" gradientUnits="userSpaceOnUse">
      <stop stop-color="#70B1FF"/>
      <stop offset="1" stop-color="#005CCD"/>
    </linearGradient>
    <linearGradient id="prefix__b" x1="5.252" x2="5.252" y1="10.089" y2="40.73" gradientUnits="userSpaceOnUse">
      <stop stop-color="#70B1FF" stop-opacity=".01"/>
      <stop offset="1" stop-color="#005CCD"/>
    </linearGradient>
    <linearGradient id="prefix__c" x1="-1.26" x2="33.547" y1="48.565" y2="20.239" gradientUnits="userSpaceOnUse">
      <stop stop-color="#70B1FF"/>
      <stop offset="1" stop-color="#005CCD"/>
    </linearGradient>
    <linearGradient id="prefix__d" x1="6.045" x2="13.624" y1="20.117" y2="34.658" gradientUnits="userSpaceOnUse">
      <stop stop-color="#70B1FF"/>
      <stop offset="1" stop-color="#005CCD"/>
    </linearGradient>
    <linearGradient id="prefix__e" x1="20.812" x2="34.653" y1="25.942" y2="17.951" gradientUnits="userSpaceOnUse">
      <stop stop-color="#295296"/>
      <stop offset="1" stop-color="#3E78D3"/>
    </linearGradient>
  </defs>
</svg>
