<svg width="48" height="48" fill="none" viewBox="0 0 48 48" xmlns="http://www.w3.org/2000/svg">
  <path fill="url(#prefix__a)" d="M4 32h40v10H4V32Z" clip-rule="evenodd" opacity=".45"/>
  <path fill="url(#prefix__b)" d="M21 19h-3l6-9 6 9h-3v20h-6V19Z" clip-rule="evenodd" opacity=".55"/>
  <path fill="url(#prefix__c)" d="M21 32h6v7h-6v-7Z" clip-rule="evenodd"/>
  <path fill="url(#prefix__d)" d="M4 5h40v20H4z" opacity=".45"/>
  <path fill="url(#prefix__e)" d="M15 8v15h-3V8h3Z" clip-rule="evenodd" opacity=".45"/>
  <path fill="url(#prefix__f)" d="M10 8v15H7V8h3Z" clip-rule="evenodd" opacity=".45"/>
  <path fill="url(#prefix__g)" d="M20 8v15h-3V8h3Z" clip-rule="evenodd" opacity=".45"/>
  <path fill="url(#prefix__h)" d="M25 8v15h-3V8h3Z" clip-rule="evenodd" opacity=".45"/>
  <path fill="url(#prefix__i)" d="M30 8v15h-3V8h3Z" clip-rule="evenodd" opacity=".45"/>
  <path fill="url(#prefix__j)" d="M27 25h-6v-6h-3l6-9 6 9h-3v6Z" clip-rule="evenodd"/>
  <path fill="#fff" d="M9.5 39a1.5 1.5 0 1 0 0-3 1.5 1.5 0 0 0 0 3Z" clip-rule="evenodd"/>
  <path fill="url(#prefix__k)" d="M34.5 23a1.5 1.5 0 1 0 0-3 1.5 1.5 0 0 0 0 3Z" clip-rule="evenodd"/>
  <path fill="url(#prefix__l)" d="M15.5 39a1.5 1.5 0 1 0 0-3 1.5 1.5 0 0 0 0 3Z" clip-rule="evenodd"/>
  <path fill="url(#prefix__m)" d="M39.5 23a1.5 1.5 0 1 0 0-3 1.5 1.5 0 0 0 0 3Z" clip-rule="evenodd"/>
  <defs>
    <linearGradient id="prefix__a" x1="-16" x2="-11.294" y1="37" y2="55.824" gradientUnits="userSpaceOnUse">
      <stop stop-color="#70B1FF"/>
      <stop offset="1" stop-color="#005CCD"/>
    </linearGradient>
    <linearGradient id="prefix__b" x1="19.238" x2="19.238" y1="41.942" y2="18.923" gradientUnits="userSpaceOnUse">
      <stop stop-color="#70B1FF"/>
      <stop offset="1" stop-color="#005CCD"/>
    </linearGradient>
    <linearGradient id="prefix__c" x1="18" x2="18" y1="32" y2="39" gradientUnits="userSpaceOnUse">
      <stop stop-color="#5E95EB"/>
      <stop offset="1" stop-color="#699FF3"/>
    </linearGradient>
    <linearGradient id="prefix__d" x1="-16" x2="0" y1="15" y2="47" gradientUnits="userSpaceOnUse">
      <stop stop-color="#70B1FF"/>
      <stop offset="1" stop-color="#005CCD"/>
    </linearGradient>
    <linearGradient id="prefix__e" x1="10.366" x2="17.027" y1="11.576" y2="13.791" gradientUnits="userSpaceOnUse">
      <stop stop-color="#70B1FF"/>
      <stop offset="1" stop-color="#005CCD"/>
    </linearGradient>
    <linearGradient id="prefix__f" x1="5.366" x2="12.027" y1="11.576" y2="13.791" gradientUnits="userSpaceOnUse">
      <stop stop-color="#70B1FF"/>
      <stop offset="1" stop-color="#005CCD"/>
    </linearGradient>
    <linearGradient id="prefix__g" x1="15.366" x2="22.027" y1="11.576" y2="13.791" gradientUnits="userSpaceOnUse">
      <stop stop-color="#70B1FF"/>
      <stop offset="1" stop-color="#005CCD"/>
    </linearGradient>
    <linearGradient id="prefix__h" x1="20.366" x2="27.027" y1="11.576" y2="13.791" gradientUnits="userSpaceOnUse">
      <stop stop-color="#70B1FF"/>
      <stop offset="1" stop-color="#005CCD"/>
    </linearGradient>
    <linearGradient id="prefix__i" x1="25.366" x2="32.027" y1="11.576" y2="13.791" gradientUnits="userSpaceOnUse">
      <stop stop-color="#70B1FF"/>
      <stop offset="1" stop-color="#005CCD"/>
    </linearGradient>
    <linearGradient id="prefix__j" x1="19.992" x2="19.992" y1="8.206" y2="25" gradientUnits="userSpaceOnUse">
      <stop stop-color="#295296"/>
      <stop offset="1" stop-color="#3E78D3"/>
    </linearGradient>
    <linearGradient id="prefix__k" x1="40.118" x2="35.308" y1="22.099" y2="16.32" gradientUnits="userSpaceOnUse">
      <stop stop-color="#295296"/>
      <stop offset="1" stop-color="#3E78D3"/>
    </linearGradient>
    <linearGradient id="prefix__l" x1="15.623" x2="10.127" y1="32.275" y2="37.166" gradientUnits="userSpaceOnUse">
      <stop stop-color="#6FA2EC"/>
      <stop offset="1" stop-color="#5C90DF"/>
    </linearGradient>
    <linearGradient id="prefix__m" x1="45.118" x2="40.308" y1="22.099" y2="16.32" gradientUnits="userSpaceOnUse">
      <stop stop-color="#295296"/>
      <stop offset="1" stop-color="#3E78D3"/>
    </linearGradient>
  </defs>
</svg>
