<svg width="96" height="96" fill="none" viewBox="0 0 96 96" xmlns="http://www.w3.org/2000/svg">
  <path fill="url(#prefix__a)" d="M47 50.1C37.63 40 5 40 5 40l8 50h34V50.1Z" clip-rule="evenodd" opacity=".35"/>
  <path fill="url(#prefix__b)" d="M47 50.1C56.37 40 89 40 89 40l-8 50H47V50.1Z" clip-rule="evenodd" opacity=".22"/>
  <path fill="#4A90E2" d="m48.253 38.928-9.569-3.397c-3.176-1.128-4.888-4.554-3.877-7.756l17.273 5.14 3.92 3.87v-2.297L44.121 22.66a2.977 2.977 0 0 1 0-4.224 3.01 3.01 0 0 1 4.243 0l12.371 12.317-2.959-10.993a2.985 2.985 0 0 1 2.122-3.659 3.001 3.001 0 0 1 3.674 2.113L67 30.952v-5.667a2.993 2.993 0 0 1 3-2.986c1.657 0 3 1.337 3 2.986v35.752l19 14.029V90H79L33 43.327a7.265 7.265 0 0 1 10.243 0L56 56.03v-9.39l-7.747-7.713Z" clip-rule="evenodd" opacity=".65"/>
  <path fill="url(#prefix__c)" d="M5.21 7.364A1.524 1.524 0 0 1 7.363 5.21L51.54 48.007l-3.535 3.536L5.209 7.364Z" clip-rule="evenodd"/>
  <defs>
    <linearGradient id="prefix__a" x1="68" x2="27.423" y1="59.78" y2="102.86" gradientUnits="userSpaceOnUse">
      <stop stop-color="#70B1FF"/>
      <stop offset="1" stop-color="#005CCD"/>
    </linearGradient>
    <linearGradient id="prefix__b" x1="30.817" x2="68.642" y1="70.656" y2="102.559" gradientUnits="userSpaceOnUse">
      <stop stop-color="#70B1FF"/>
      <stop offset="1" stop-color="#005CCD"/>
    </linearGradient>
    <linearGradient id="prefix__c" x1="43.022" x2="27.985" y1="29.782" y2="42.2" gradientUnits="userSpaceOnUse">
      <stop stop-color="#295296"/>
      <stop offset="1" stop-color="#3E78D3"/>
    </linearGradient>
  </defs>
</svg>
