<svg width="96" height="96" fill="none" viewBox="0 0 96 96" xmlns="http://www.w3.org/2000/svg">
  <path fill="url(#prefix__a)" d="M15 92c6.075 0 11-4.925 11-11s-4.925-11-11-11S4 74.925 4 81s4.925 11 11 11Z" clip-rule="evenodd" opacity=".4"/>
  <path fill="url(#prefix__b)" d="M18 89c6.075 0 11-4.925 11-11s-4.925-11-11-11S7 71.925 7 78s4.925 11 11 11Z" clip-rule="evenodd" opacity=".4"/>
  <path fill="url(#prefix__c)" d="M8.867 71.867A10.949 10.949 0 0 1 15 70c6.075 0 11 4.925 11 11 0 2.27-.688 4.38-1.867 6.133A10.949 10.949 0 0 1 18 89c-6.075 0-11-4.925-11-11 0-2.27.688-4.38 1.867-6.133Z" clip-rule="evenodd"/>
  <path fill="url(#prefix__d)" d="M40.498 32.427A32.398 32.398 0 0 0 33.9 39.97L17.82 23.89a2 2 0 0 1 0-2.828l4.243-4.242a2 2 0 0 1 2.828 0l15.608 15.607Z" clip-rule="evenodd" opacity=".6"/>
  <path fill="url(#prefix__e)" d="m85.573 77.502 7.2 7.2a2 2 0 0 1 0 2.829l-4.242 4.242a2 2 0 0 1-2.829 0l-7.672-7.672a32.373 32.373 0 0 0 7.543-6.599Z" clip-rule="evenodd" opacity=".6"/>
  <path fill="url(#prefix__f)" d="M38.373 34.373c-12.497 12.496-12.497 32.758 0 45.254 12.496 12.497 32.758 12.497 45.254 0 12.497-12.496 12.497-32.758 0-45.254-12.496-12.497-32.758-12.497-45.254 0ZM81 50H41v14h40V50Z" clip-rule="evenodd" opacity=".5"/>
  <path fill="url(#prefix__g)" d="M58.071 50H43.93L33.9 39.97a32.4 32.4 0 0 1 6.6-7.543L58.07 50Z" clip-rule="evenodd"/>
  <path fill="url(#prefix__h)" d="m72.071 64 13.502 13.502c-.611.73-1.26 1.44-1.946 2.125a32.097 32.097 0 0 1-5.597 4.474L57.929 64h14.142Z" clip-rule="evenodd"/>
  <path fill="url(#prefix__i)" d="m58.071 50 14 14H57.93l-14-14h14.142Z" clip-rule="evenodd" opacity=".3"/>
  <path fill="url(#prefix__j)" d="M3.678 70.56c1.067-16.888 8.154-33.61 21.213-46.67C37.95 10.833 54.67 3.746 71.56 2.679 58.825 10.53 45.954 20.672 33.813 32.813 21.67 44.953 11.53 57.825 3.678 70.56Z" clip-rule="evenodd" opacity=".6"/>
  <path fill="url(#prefix__k)" d="m30.316 36.387-8.842-8.842a74.557 74.557 0 0 1 7.07-7.071l8.843 8.842a228.1 228.1 0 0 0-7.071 7.07Z" clip-rule="evenodd" opacity=".6"/>
  <defs>
    <linearGradient id="prefix__a" x1="16.34" x2="40.898" y1="104.279" y2="79.599" gradientUnits="userSpaceOnUse">
      <stop stop-color="#70B1FF"/>
      <stop offset="1" stop-color="#005CCD"/>
    </linearGradient>
    <linearGradient id="prefix__b" x1="19.34" x2="43.898" y1="101.279" y2="76.599" gradientUnits="userSpaceOnUse">
      <stop stop-color="#70B1FF"/>
      <stop offset="1" stop-color="#005CCD"/>
    </linearGradient>
    <linearGradient id="prefix__c" x1="17.574" x2="29.094" y1="91.927" y2="78.122" gradientUnits="userSpaceOnUse">
      <stop stop-color="#8DB8F8"/>
      <stop offset="1" stop-color="#6E9EE5"/>
    </linearGradient>
    <linearGradient id="prefix__d" x1="-43.713" x2="48.902" y1="46.445" y2="134.241" gradientUnits="userSpaceOnUse">
      <stop stop-color="#70B1FF"/>
      <stop offset="1" stop-color="#005CCD"/>
    </linearGradient>
    <linearGradient id="prefix__e" x1="-45.625" x2="42.063" y1="44.203" y2="136.059" gradientUnits="userSpaceOnUse">
      <stop stop-color="#70B1FF"/>
      <stop offset="1" stop-color="#005CCD"/>
    </linearGradient>
    <linearGradient id="prefix__f" x1="61" x2="125" y1="121" y2="57" gradientUnits="userSpaceOnUse">
      <stop stop-color="#70B1FF"/>
      <stop offset="1" stop-color="#005CCD"/>
    </linearGradient>
    <linearGradient id="prefix__g" x1="114" x2="84.665" y1="63.777" y2="9.912" gradientUnits="userSpaceOnUse">
      <stop stop-color="#295296"/>
      <stop offset="1" stop-color="#3E78D3"/>
    </linearGradient>
    <linearGradient id="prefix__h" x1="112.885" x2="85.063" y1="65.264" y2="11.149" gradientUnits="userSpaceOnUse">
      <stop stop-color="#295296"/>
      <stop offset="1" stop-color="#3E78D3"/>
    </linearGradient>
    <linearGradient id="prefix__i" x1="37.166" x2="40.938" y1="53.279" y2="69.471" gradientUnits="userSpaceOnUse">
      <stop stop-color="#70B1FF"/>
      <stop offset="1" stop-color="#005CCD"/>
    </linearGradient>
    <linearGradient id="prefix__j" x1="37.619" x2="105.501" y1="104.501" y2="36.619" gradientUnits="userSpaceOnUse">
      <stop stop-color="#70B1FF"/>
      <stop offset="1" stop-color="#005CCD"/>
    </linearGradient>
    <linearGradient id="prefix__k" x1="21.474" x2="22.751" y1="21.112" y2="37.025" gradientUnits="userSpaceOnUse">
      <stop stop-color="#4B86E4"/>
      <stop offset="1" stop-color="#437EDF"/>
    </linearGradient>
  </defs>
</svg>
