<svg width="48" height="48" fill="none" viewBox="0 0 48 48" xmlns="http://www.w3.org/2000/svg">
  <path fill="url(#prefix__a)" d="m24 46-11.567-9.398A12 12 0 0 1 8 27.288V3h32v24.288a12 12 0 0 1-4.433 9.314L24 46Z" clip-rule="evenodd" opacity=".35"/>
  <path fill="url(#prefix__b)" d="M24 46V3h16v24.288a12 12 0 0 1-4.433 9.314L24 46Z" clip-rule="evenodd" opacity=".45"/>
  <path fill="url(#prefix__c)" d="M12.433 36.602 24 46l11.567-9.398A12 12 0 0 0 40 27.288V3H8v24.288a12 12 0 0 0 4.433 9.314ZM36 27.288a8 8 0 0 1-2.955 6.21L24 40.845l-9.045-7.349A8 8 0 0 1 12 27.288V7h24v20.288Z" clip-rule="evenodd" opacity=".3"/>
  <path fill="url(#prefix__d)" d="M24 46v-5.154l9.045-7.349A8 8 0 0 0 36 27.288V7H24V3h16v24.288a12 12 0 0 1-4.433 9.314L24 46Z" clip-rule="evenodd"/>
  <path fill="url(#prefix__e)" d="M46.5 12.38 24 30.5l-9-7.255V16.3l8.978 7.294L46.5 5.5v6.88Z" clip-rule="evenodd" opacity=".52"/>
  <path fill="url(#prefix__f)" d="M40 10.722v6.892L24 30.5v-6.923l16-12.855Z"/>
  <defs>
    <linearGradient id="prefix__a" x1="-10.878" x2="35.161" y1="58.614" y2="68.51" gradientUnits="userSpaceOnUse">
      <stop stop-color="#70B1FF"/>
      <stop offset="1" stop-color="#005CCD"/>
    </linearGradient>
    <linearGradient id="prefix__b" x1="14.561" x2="38.369" y1="58.614" y2="61.172" gradientUnits="userSpaceOnUse">
      <stop stop-color="#70B1FF"/>
      <stop offset="1" stop-color="#005CCD"/>
    </linearGradient>
    <linearGradient id="prefix__c" x1="-10.878" x2="35.161" y1="58.614" y2="68.51" gradientUnits="userSpaceOnUse">
      <stop stop-color="#70B1FF"/>
      <stop offset="1" stop-color="#005CCD"/>
    </linearGradient>
    <linearGradient id="prefix__d" x1="17.884" x2="39.385" y1="19.473" y2="27.456" gradientUnits="userSpaceOnUse">
      <stop stop-color="#75A8F5"/>
      <stop offset="1" stop-color="#5486DC"/>
    </linearGradient>
    <linearGradient id="prefix__e" x1="52.943" x2="8.978" y1="-15.911" y2="6.631" gradientUnits="userSpaceOnUse">
      <stop stop-color="#70B1FF"/>
      <stop offset="1" stop-color="#005CCD"/>
    </linearGradient>
    <linearGradient id="prefix__f" x1="29.784" x2="49.719" y1="34.462" y2="24.045" gradientUnits="userSpaceOnUse">
      <stop stop-color="#295296"/>
      <stop offset="1" stop-color="#3E78D3"/>
    </linearGradient>
  </defs>
</svg>
