<svg width="96" height="96" fill="none" viewBox="0 0 96 96" xmlns="http://www.w3.org/2000/svg">
  <path fill="url(#prefix__a)" d="M6 11a4 4 0 0 1 4-4h66a4 4 0 0 1 4 4v56a4 4 0 0 1-4 4H10a4 4 0 0 1-4-4V11Z" clip-rule="evenodd" opacity=".35"/>
  <path fill="url(#prefix__b)" d="M27 38c8.284 0 15 6.716 15 15v6H12v-6c0-8.284 6.716-15 15-15Zm0-3a9 9 0 1 1 0-18 9 9 0 0 1 0 18Z" clip-rule="evenodd"/>
  <path fill="url(#prefix__c)" d="M45 29h28v6H45z"/>
  <path fill="url(#prefix__d)" d="M45 17h28v6H45z"/>
  <path fill="url(#prefix__e)" d="M69 53c8.837 0 16 7.163 16 16s-7.163 16-16 16-16-7.163-16-16c0-3.483 1.113-6.705 3.002-9.332l-6.5-4.666A23.89 23.89 0 0 0 45 69c0 13.255 10.745 24 24 24s24-10.745 24-24-10.745-24-24-24v-5l-13 9 13 9v-5Z" clip-rule="evenodd" opacity=".6"/>
  <path fill="url(#prefix__f)" d="M80 47.664v9.717A15.945 15.945 0 0 0 69 53v5l-13-9 13-9v5c3.965 0 7.705.961 11 2.664Z" clip-rule="evenodd"/>
  <path fill="url(#prefix__g)" d="M53.124 71h-8.042A24.325 24.325 0 0 1 45 69a23.89 23.89 0 0 1 4.503-13.998l6.499 4.666A15.927 15.927 0 0 0 53 69c0 .677.042 1.345.124 2Z" clip-rule="evenodd"/>
  <defs>
    <linearGradient id="prefix__a" x1="-37.309" x2="29.645" y1="37.222" y2="114.582" gradientUnits="userSpaceOnUse">
      <stop stop-color="#70B1FF"/>
      <stop offset="1" stop-color="#005CCD"/>
    </linearGradient>
    <linearGradient id="prefix__b" x1="17.89" x2="-12.461" y1="4.086" y2="34.928" gradientUnits="userSpaceOnUse">
      <stop stop-color="#8CB9F9"/>
      <stop offset="1" stop-color="#6497E1"/>
    </linearGradient>
    <linearGradient id="prefix__c" x1="72.122" x2="45" y1="25.082" y2="25.082" gradientUnits="userSpaceOnUse">
      <stop stop-color="#91BAF4"/>
      <stop offset="1" stop-color="#7CA8E8"/>
    </linearGradient>
    <linearGradient id="prefix__d" x1="72.122" x2="45" y1="13.082" y2="13.082" gradientUnits="userSpaceOnUse">
      <stop stop-color="#91BAF4"/>
      <stop offset="1" stop-color="#7CA8E8"/>
    </linearGradient>
    <linearGradient id="prefix__e" x1="69" x2="121.741" y1="119.5" y2="71.735" gradientUnits="userSpaceOnUse">
      <stop stop-color="#70B1FF"/>
      <stop offset="1" stop-color="#005CCD"/>
    </linearGradient>
    <linearGradient id="prefix__f" x1="59.262" x2="56.468" y1="35.707" y2="56.446" gradientUnits="userSpaceOnUse">
      <stop stop-color="#295296"/>
      <stop offset="1" stop-color="#3E78D3"/>
    </linearGradient>
    <linearGradient id="prefix__g" x1="46.495" x2="41.907" y1="51.186" y2="68.755" gradientUnits="userSpaceOnUse">
      <stop stop-color="#295296"/>
      <stop offset="1" stop-color="#3E78D3"/>
    </linearGradient>
  </defs>
</svg>
