<svg width="48" height="48" fill="none" viewBox="0 0 48 48" xmlns="http://www.w3.org/2000/svg">
  <path fill="url(#prefix__a)" d="M40.32 27.604a6.505 6.505 0 0 0-5.02-3.555 12.001 12.001 0 0 0-2.815-12.534c-4.686-4.687-12.284-4.687-16.97 0a11.98 11.98 0 0 0-3.416 10.027 8.02 8.02 0 0 0-4.783 5.225c-2.633-6.499-1.314-14.224 3.956-19.495 7.03-7.03 18.427-7.03 25.456 0 5.498 5.498 6.696 13.67 3.593 20.332Z" opacity=".4"/>
  <path fill="url(#prefix__b)" d="M12.099 21.542a8.02 8.02 0 0 0-4.783 5.225c-2.633-6.499-1.314-14.224 3.956-19.495 7.03-7.03 18.427-7.03 25.456 0l-4.243 4.243c-4.686-4.687-12.284-4.687-16.97 0a11.98 11.98 0 0 0-3.416 10.027Z" opacity=".35"/>
  <path fill="url(#prefix__c)" d="M35.3 24.049a12.088 12.088 0 0 0 .546-5.977C42.116 18.742 47 24.052 47 30.5 47 37.404 41.404 43 34.5 43H15C7.268 43 1 36.732 1 29s6.268-14 14-14a13.96 13.96 0 0 1 9.9 4.1l-4.243 4.243A8 8 0 1 0 15 37h19.5a6.5 6.5 0 0 0 .8-12.951Z" opacity=".4"/>
  <path fill="url(#prefix__d)" d="M12.099 21.542a8.02 8.02 0 0 0-4.783 5.226A18.054 18.054 0 0 1 6.09 18.2a13.94 13.94 0 0 1 6.935-3.063 12.033 12.033 0 0 0-.926 6.404Z"/>
  <path fill="url(#prefix__e)" d="M25 37v6H15a13.956 13.956 0 0 1-9.9-4.1l4.243-4.243A7.975 7.975 0 0 0 15 37h10Z"/>
  <defs>
    <linearGradient id="prefix__a" x1="25.904" x2=".801" y1="-8.094" y2="23.469" gradientUnits="userSpaceOnUse">
      <stop stop-color="#70B1FF"/>
      <stop offset="1" stop-color="#005CCD"/>
    </linearGradient>
    <linearGradient id="prefix__b" x1="22.989" x2="-1.8" y1="-7.764" y2="19.737" gradientUnits="userSpaceOnUse">
      <stop stop-color="#70B1FF"/>
      <stop offset="1" stop-color="#005CCD"/>
    </linearGradient>
    <linearGradient id="prefix__c" x1="35.596" x2="6.233" y1="14.255" y2="41.022" gradientUnits="userSpaceOnUse">
      <stop stop-color="#70B1FF"/>
      <stop offset="1" stop-color="#005CCD"/>
    </linearGradient>
    <linearGradient id="prefix__d" x1="10.402" x2="1.309" y1="9.323" y2="13.426" gradientUnits="userSpaceOnUse">
      <stop stop-color="#5087E7"/>
      <stop offset="1" stop-color="#3C71D3"/>
    </linearGradient>
    <linearGradient id="prefix__e" x1="8.477" x2="21.884" y1="43" y2="32.148" gradientUnits="userSpaceOnUse">
      <stop stop-color="#295296"/>
      <stop offset="1" stop-color="#3E78D3"/>
    </linearGradient>
  </defs>
</svg>
