<svg width="48" height="48" fill="none" viewBox="0 0 48 48" xmlns="http://www.w3.org/2000/svg">
  <path fill="url(#prefix__a)" d="M21 3h13v13H21V3ZM6 3h13v13H6V3Zm15 15h13v13H21V18ZM6 18h13v13H6V18Z" clip-rule="evenodd" opacity=".55" style="mix-blend-mode:multiply"/>
  <path fill="url(#prefix__b)" d="M39.086 33h.77c3.118 0 5.644 2.686 5.644 6s-2.526 6-5.644 6H11.5a9.5 9.5 0 0 1-1.21-18.924 6.503 6.503 0 0 1 9.978-3.373A10.973 10.973 0 0 1 28.5 19c6.075 0 11 4.925 11 11a11 11 0 0 1-.414 3Z" clip-rule="evenodd" opacity=".45"/>
  <path fill="url(#prefix__c)" d="M6 27.753a9.448 9.448 0 0 1 4.29-1.677A6.503 6.503 0 0 1 19 21.998V31H6v-3.247Z" clip-rule="evenodd"/>
  <path fill="url(#prefix__d)" d="M21 21.953A10.961 10.961 0 0 1 28.5 19c2.004 0 3.882.536 5.5 1.472V31H21v-9.047Z" clip-rule="evenodd"/>
  <defs>
    <linearGradient id="prefix__a" x1="17.945" x2="-5.593" y1="-3.956" y2="19.231" gradientUnits="userSpaceOnUse">
      <stop stop-color="#70B1FF"/>
      <stop offset="1" stop-color="#005CCD"/>
    </linearGradient>
    <linearGradient id="prefix__b" x1="17.91" x2="2.363" y1="9.366" y2="41.003" gradientUnits="userSpaceOnUse">
      <stop stop-color="#70B1FF"/>
      <stop offset="1" stop-color="#005CCD"/>
    </linearGradient>
    <linearGradient id="prefix__c" x1="33.595" x2="22.374" y1="26.781" y2="5.164" gradientUnits="userSpaceOnUse">
      <stop stop-color="#295296"/>
      <stop offset="1" stop-color="#3E78D3"/>
    </linearGradient>
    <linearGradient id="prefix__d" x1="39.383" x2="27.24" y1="25" y2="14.107" gradientUnits="userSpaceOnUse">
      <stop stop-color="#6CA1F1"/>
      <stop offset="1" stop-color="#6399EB"/>
    </linearGradient>
  </defs>
</svg>
