<svg width="96" height="96" fill="none" viewBox="0 0 96 96" xmlns="http://www.w3.org/2000/svg">
  <path fill="url(#prefix__a)" d="M4 46a2 2 0 0 1 2-2h60a2 2 0 0 1 2 2v42a2 2 0 0 1-2 2H6a2 2 0 0 1-2-2V46Z" clip-rule="evenodd" opacity=".45"/>
  <path fill="url(#prefix__b)" d="M26 61 9 72l17 11v-5.76L17.518 72 26 66.76V61Zm12 0h6L34 83h-6l10-22Zm25 11L46 83v-5.76L54.481 72 46 66.76V61l17 11Z" clip-rule="evenodd"/>
  <path fill="url(#prefix__c)" d="M6 44h60a2 2 0 0 1 2 2v6H4v-6a2 2 0 0 1 2-2Z" clip-rule="evenodd" opacity=".45"/>
  <path fill="url(#prefix__d)" d="M68 68 49.926 53.405A18.591 18.591 0 0 1 43 38.942V4h50v34.942a18.591 18.591 0 0 1-6.926 14.463L68 68Z" clip-rule="evenodd" opacity=".4"/>
  <path fill="url(#prefix__e)" d="M43.704 44H66a2 2 0 0 1 2 2v6H48.373a18.611 18.611 0 0 1-4.67-8Z" clip-rule="evenodd"/>
  <path fill="url(#prefix__f)" d="M68 4h25v34.942a18.591 18.591 0 0 1-6.926 14.463L68 68V4Z" clip-rule="evenodd" opacity=".25"/>
  <defs>
    <linearGradient id="prefix__a" x1="36" x2="-7.601" y1="21" y2="81.662" gradientUnits="userSpaceOnUse">
      <stop stop-color="#70B1FF"/>
      <stop offset="1" stop-color="#005CCD"/>
    </linearGradient>
    <linearGradient id="prefix__b" x1="46.2" x2="28.991" y1="58.44" y2="85.521" gradientUnits="userSpaceOnUse">
      <stop stop-color="#70B1FF"/>
      <stop offset="1" stop-color="#4A82D9"/>
    </linearGradient>
    <linearGradient id="prefix__c" x1="36" x2="34.031" y1="40" y2="55.754" gradientUnits="userSpaceOnUse">
      <stop stop-color="#70B1FF"/>
      <stop offset="1" stop-color="#005CCD"/>
    </linearGradient>
    <linearGradient id="prefix__d" x1="13.504" x2="85.116" y1="86.773" y2="102.934" gradientUnits="userSpaceOnUse">
      <stop stop-color="#70B1FF"/>
      <stop offset="1" stop-color="#005CCD"/>
    </linearGradient>
    <linearGradient id="prefix__e" x1="49.643" x2="56.865" y1="58.787" y2="40.763" gradientUnits="userSpaceOnUse">
      <stop stop-color="#295296"/>
      <stop offset="1" stop-color="#3E78D3"/>
    </linearGradient>
    <linearGradient id="prefix__f" x1="80.5" x2="123.881" y1="100" y2="83.054" gradientUnits="userSpaceOnUse">
      <stop stop-color="#70B1FF"/>
      <stop offset="1" stop-color="#005CCD"/>
    </linearGradient>
  </defs>
</svg>
