<svg width="96" height="96" fill="none" viewBox="0 0 96 96" xmlns="http://www.w3.org/2000/svg">
  <path fill="url(#prefix__a)" d="M17 27a9 9 0 1 0 0-18 9 9 0 0 0 0 18Z" clip-rule="evenodd" opacity=".45"/>
  <path fill="url(#prefix__b)" d="M17 87c6.075 0 11-4.925 11-11s-4.925-11-11-11S6 69.925 6 76s4.925 11 11 11Z" clip-rule="evenodd" opacity=".55"/>
  <path fill="url(#prefix__c)" d="M12 55a8 8 0 1 0 0-16 8 8 0 0 0 0 16Z" clip-rule="evenodd" opacity=".45"/>
  <path fill="url(#prefix__d)" d="M81 31c7.18 0 13-5.82 13-13S88.18 5 81 5s-13 5.82-13 13 5.82 13 13 13Z" clip-rule="evenodd" opacity=".55"/>
  <path fill="url(#prefix__e)" d="M81 85a9 9 0 1 0 0-18 9 9 0 0 0 0 18Z" clip-rule="evenodd" opacity=".55"/>
  <path fill="url(#prefix__f)" d="M49 68c11.046 0 20-8.954 20-20s-8.954-20-20-20-20 8.954-20 20 8.954 20 20 20Z" clip-rule="evenodd" opacity=".55"/>
  <path fill="url(#prefix__g)" d="M83 73.586 78.972 78 48.993 51.02 19.015 78l-4.028-4.414 26.23-23.607H12V44.02h29.217l-26.23-23.607L19.015 16l29.978 26.98L78.972 16 83 20.414 53.46 47 83 73.586Z" opacity=".55"/>
  <path fill="url(#prefix__h)" d="M25.247 21.609a9.037 9.037 0 0 1-4.078 4.37l-6.182-5.565L19.015 16l6.232 5.609Z" clip-rule="evenodd"/>
  <path fill="url(#prefix__i)" d="M19.427 44.021c.37.921.573 1.926.573 2.979a7.977 7.977 0 0 1-.573 2.979H12V44.02h7.427Z" clip-rule="evenodd"/>
  <path fill="url(#prefix__j)" d="M72.749 72.4a9.035 9.035 0 0 1 4.074-4.374L83 73.586 78.972 78l-6.223-5.6Z" clip-rule="evenodd"/>
  <path fill="url(#prefix__k)" d="M22.736 66.612a11.052 11.052 0 0 1 4.062 4.383L19.015 78l-4.028-4.414 7.749-6.974Z" clip-rule="evenodd"/>
  <path fill="url(#prefix__l)" d="M73.716 28.77a13.064 13.064 0 0 1-4.048-4.396L78.972 16 83 20.414l-9.284 8.355Z" clip-rule="evenodd"/>
  <path fill="url(#prefix__m)" d="M35.726 62.96a20.099 20.099 0 0 1-3.831-4.59l9.322-8.391h-12.12a20.247 20.247 0 0 1 .299-5.958h11.821l-8.494-7.645a20.114 20.114 0 0 1 4.164-4.292L48.993 42.98l12.113-10.9a20.118 20.118 0 0 1 4.166 4.29L53.46 47 66.1 58.377a20.103 20.103 0 0 1-3.833 4.59L48.993 51.02 35.726 62.96Z" clip-rule="evenodd"/>
  <path fill="url(#prefix__n)" d="M49 57a9 9 0 1 0 0-18 9 9 0 0 0 0 18Z" clip-rule="evenodd"/>
  <defs>
    <linearGradient id="prefix__a" x1="17" x2="-1" y1="0" y2="18" gradientUnits="userSpaceOnUse">
      <stop stop-color="#70B1FF"/>
      <stop offset="1" stop-color="#005CCD"/>
    </linearGradient>
    <linearGradient id="prefix__b" x1="17" x2="-5" y1="54" y2="76" gradientUnits="userSpaceOnUse">
      <stop stop-color="#70B1FF"/>
      <stop offset="1" stop-color="#005CCD"/>
    </linearGradient>
    <linearGradient id="prefix__c" x1="12" x2="-4" y1="31" y2="47" gradientUnits="userSpaceOnUse">
      <stop stop-color="#70B1FF"/>
      <stop offset="1" stop-color="#005CCD"/>
    </linearGradient>
    <linearGradient id="prefix__d" x1="81" x2="55" y1="-8" y2="18" gradientUnits="userSpaceOnUse">
      <stop stop-color="#70B1FF"/>
      <stop offset="1" stop-color="#005CCD"/>
    </linearGradient>
    <linearGradient id="prefix__e" x1="81" x2="63" y1="58" y2="76" gradientUnits="userSpaceOnUse">
      <stop stop-color="#70B1FF"/>
      <stop offset="1" stop-color="#005CCD"/>
    </linearGradient>
    <linearGradient id="prefix__f" x1="49" x2="9" y1="8" y2="48" gradientUnits="userSpaceOnUse">
      <stop stop-color="#70B1FF"/>
      <stop offset="1" stop-color="#005CCD"/>
    </linearGradient>
    <linearGradient id="prefix__g" x1="47.5" x2="-13.935" y1="-15" y2="55.353" gradientUnits="userSpaceOnUse">
      <stop stop-color="#70B1FF"/>
      <stop offset="1" stop-color="#005CCD"/>
    </linearGradient>
    <linearGradient id="prefix__h" x1="27.175" x2="20.082" y1="20.638" y2="14.019" gradientUnits="userSpaceOnUse">
      <stop stop-color="#5D92E6"/>
      <stop offset="1" stop-color="#5E94E7"/>
    </linearGradient>
    <linearGradient id="prefix__i" x1="20" x2="12" y1="44.021" y2="44.021" gradientUnits="userSpaceOnUse">
      <stop stop-color="#5C93E7"/>
      <stop offset="1" stop-color="#568DE2"/>
    </linearGradient>
    <linearGradient id="prefix__j" x1="84.387" x2="77.893" y1="72.867" y2="66.557" gradientUnits="userSpaceOnUse">
      <stop stop-color="#548CE5"/>
      <stop offset="1" stop-color="#578FE6"/>
    </linearGradient>
    <linearGradient id="prefix__k" x1="21.417" x2="13.987" y1="65.106" y2="72.449" gradientUnits="userSpaceOnUse">
      <stop stop-color="#538BE4"/>
      <stop offset="1" stop-color="#447DDA"/>
    </linearGradient>
    <linearGradient id="prefix__l" x1="76.28" x2="67.04" y1="13.32" y2="22.782" gradientUnits="userSpaceOnUse">
      <stop stop-color="#639CF0"/>
      <stop offset="1" stop-color="#518BE4"/>
    </linearGradient>
    <linearGradient id="prefix__m" x1="45.87" x2="23.63" y1="20.477" y2="51.346" gradientUnits="userSpaceOnUse">
      <stop stop-color="#68A0F5"/>
      <stop offset="1" stop-color="#417AD7"/>
    </linearGradient>
    <linearGradient id="prefix__n" x1="44.4" x2="67.486" y1="72.27" y2="53.298" gradientUnits="userSpaceOnUse">
      <stop stop-color="#295296"/>
      <stop offset="1" stop-color="#3E78D3"/>
    </linearGradient>
  </defs>
</svg>
