<svg width="48" height="48" fill="none" viewBox="0 0 48 48" xmlns="http://www.w3.org/2000/svg">
  <path fill="url(#prefix__a)" d="m14 39-8 7v-7H3V18h32v21H14Z" clip-rule="evenodd" opacity=".45"/>
  <path fill="url(#prefix__b)" d="M33 24H12V3h32v21h-3v7l-8-7Z" clip-rule="evenodd" opacity=".4"/>
  <path fill="url(#prefix__c)" d="M12 18h23v7.75L33 24H12v-6Z" clip-rule="evenodd"/>
  <path fill="url(#prefix__d)" d="M12 32a2 2 0 1 0 0-4 2 2 0 0 0 0 4Zm7.5 0a2 2 0 1 0 0-4 2 2 0 0 0 0 4Zm9.5-2a2 2 0 1 1-4 0 2 2 0 0 1 4 0Z" clip-rule="evenodd"/>
  <path fill="url(#prefix__e)" d="M16 7h23v3H16z"/>
  <path fill="url(#prefix__f)" d="M16 12h14v3H16z"/>
  <defs>
    <linearGradient id="prefix__a" x1="23.388" x2="-1.576" y1="5.72" y2="29.324" gradientUnits="userSpaceOnUse">
      <stop stop-color="#70B1FF"/>
      <stop offset="1" stop-color="#005CCD"/>
    </linearGradient>
    <linearGradient id="prefix__b" x1="28" x2=".248" y1="-11" y2="20.717" gradientUnits="userSpaceOnUse">
      <stop stop-color="#70B1FF"/>
      <stop offset="1" stop-color="#005CCD"/>
    </linearGradient>
    <linearGradient id="prefix__c" x1="25.61" x2="20.032" y1="14.125" y2="27.642" gradientUnits="userSpaceOnUse">
      <stop stop-color="#84B3F7"/>
      <stop offset="1" stop-color="#6799E3"/>
    </linearGradient>
    <linearGradient id="prefix__d" x1="14.644" x2="17.159" y1="35.393" y2="25.579" gradientUnits="userSpaceOnUse">
      <stop stop-color="#295296"/>
      <stop offset="1" stop-color="#3E78D3"/>
    </linearGradient>
    <linearGradient id="prefix__e" x1="33.25" x2="31.418" y1="5.5" y2="12.522" gradientUnits="userSpaceOnUse">
      <stop stop-color="#94C0FC"/>
      <stop offset="1" stop-color="#6798E0"/>
    </linearGradient>
    <linearGradient id="prefix__f" x1="43.846" x2="16" y1="10.517" y2="10.517" gradientUnits="userSpaceOnUse">
      <stop stop-color="#94C0FC"/>
      <stop offset="1" stop-color="#6798E0"/>
    </linearGradient>
  </defs>
</svg>
