<svg width="48" height="48" fill="none" viewBox="0 0 48 48" xmlns="http://www.w3.org/2000/svg">
  <path fill="url(#prefix__a)" d="M31.075 23.575a9.5 9.5 0 1 0 0-19 9.5 9.5 0 0 0 0 19Z" clip-rule="evenodd" opacity=".4"/>
  <path fill="url(#prefix__b)" d="M20.25 20.325c3.198 5.54 9.995 7.705 15.732 5.248l8.794 15.233 2.598-1.5-8.794-15.232c4.995-3.74 6.519-10.71 3.32-16.249C38.45 1.847 30.805-.202 24.826 3.25c-5.978 3.452-8.027 11.097-4.575 17.075Zm19.053-11a9.5 9.5 0 1 1-16.455 9.5 9.5 9.5 0 0 1 16.455-9.5Z" clip-rule="evenodd" opacity=".7"/>
  <path fill="url(#prefix__c)" d="M23.462 40.44 8.382 28.66a5 5 0 1 1 1.243-7.845L29.2 13.69a5.001 5.001 0 1 1 5.994 5.21l-3.98 18.717a5 5 0 1 1-7.753 2.822Zm3.84-3.655 3.98-18.717a4.993 4.993 0 0 1-.713-.62l-19.576 7.125c-.02.317-.07.63-.149.934l15.08 11.78a5.04 5.04 0 0 1 1.378-.502Z" clip-rule="evenodd" opacity=".55"/>
  <path fill="url(#prefix__d)" d="M34.322 23.006a9.482 9.482 0 0 1-4.2.522l1.16-5.46a4.993 4.993 0 0 1-.714-.62l-6.94 2.527a9.467 9.467 0 0 1-1.776-3.61L29.2 13.69a5.001 5.001 0 1 1 5.995 5.21l-.873 4.106Z" opacity=".55"/>
  <path fill="url(#prefix__e)" d="m38.093 30.23 3.464-2 6.25 10.826-3.464 2-6.25-10.825Z" clip-rule="evenodd"/>
  <path fill="url(#prefix__f)" d="M30.122 23.528a9.45 9.45 0 0 0 4.2-.523l-.704 3.313c-1.37.284-2.764.332-4.123.158l.627-2.948Zm-6.494-3.553-2.932 1.067a12.52 12.52 0 0 1-1.675-3.647l2.832-1.03a9.502 9.502 0 0 0 1.775 3.61Z" clip-rule="evenodd"/>
  <defs>
    <linearGradient id="prefix__a" x1="20.804" x2="30.505" y1="12.135" y2="22.406" gradientUnits="userSpaceOnUse">
      <stop stop-color="#84B4FA"/>
      <stop offset="1" stop-color="#4E82D5"/>
    </linearGradient>
    <linearGradient id="prefix__b" x1="12.547" x2="36.561" y1="17.24" y2="34.629" gradientUnits="userSpaceOnUse">
      <stop stop-color="#70B1FF"/>
      <stop offset="1" stop-color="#005CCD"/>
    </linearGradient>
    <linearGradient id="prefix__c" x1="2.657" x2="-14.137" y1=".534" y2="35.127" gradientUnits="userSpaceOnUse">
      <stop stop-color="#70B1FF"/>
      <stop offset="1" stop-color="#005CCD"/>
    </linearGradient>
    <linearGradient id="prefix__d" x1="2.657" x2="-14.137" y1=".534" y2="35.127" gradientUnits="userSpaceOnUse">
      <stop stop-color="#70B1FF"/>
      <stop offset="1" stop-color="#005CCD"/>
    </linearGradient>
    <linearGradient id="prefix__e" x1="61.14" x2="40.324" y1="37.206" y2="18.259" gradientUnits="userSpaceOnUse">
      <stop stop-color="#295296"/>
      <stop offset="1" stop-color="#3E78D3"/>
    </linearGradient>
    <linearGradient id="prefix__f" x1="12.852" x2="22.728" y1="22.621" y2="34.888" gradientUnits="userSpaceOnUse">
      <stop stop-color="#4B86E9"/>
      <stop offset="1" stop-color="#417FE2"/>
    </linearGradient>
  </defs>
</svg>
