<svg width="48" height="48" fill="none" viewBox="0 0 48 48" xmlns="http://www.w3.org/2000/svg">
  <path fill="url(#prefix__a)" d="M15.823 44 2.5 12.613l2.762-1.172L19.082 44h-3.259Z" clip-rule="evenodd" opacity=".6"/>
  <path fill="url(#prefix__b)" d="m6.043 13.281 25.774-10.94 8.206 19.33-25.775 10.941-8.205-19.33Z" clip-rule="evenodd" opacity=".45"/>
  <path fill="url(#prefix__c)" d="m8.778 19.725 6.444-2.735 2.735 6.443-6.444 2.736-2.735-6.444Zm3.708-9.179 6.444-2.735 2.735 6.444-6.443 2.735-2.736-6.444Zm5.47 12.887 6.444-2.735 2.735 6.444-6.443 2.735-2.735-6.444Zm7.418-18.357 6.443-2.735 2.735 6.444-6.443 2.735-2.735-6.444Zm5.47 12.887 6.443-2.735 2.736 6.444-6.444 2.735-2.735-6.444Zm-9.179-3.708 6.444-2.735 2.735 6.443-6.444 2.735-2.735-6.443Z" clip-rule="evenodd"/>
  <path fill="url(#prefix__d)" d="M31.62 16.001 43 44h-3.238l-2.031-5H22.269l-2.03 5H17l11.38-28h3.24v.001ZM35.293 33l1.219 3H23.488l1.219-3h10.586ZM30 19.97 34.074 30h-8.148L30 19.97Z" clip-rule="evenodd" opacity=".75"/>
  <path fill="url(#prefix__e)" d="M18.018 41.494 19.082 44H17l1.018-2.506Z" clip-rule="evenodd"/>
  <path fill="url(#prefix__f)" d="m34.822 23.88-2.759 1.17L30 19.97l-2.924 7.197-3.909 1.66L28.382 16h3.239v.001l3.201 7.878Z" clip-rule="evenodd"/>
  <defs>
    <linearGradient id="prefix__a" x1="27.364" x2="14.112" y1="30.412" y2="14.512" gradientUnits="userSpaceOnUse">
      <stop stop-color="#70B1FF"/>
      <stop offset="1" stop-color="#005CCD"/>
    </linearGradient>
    <linearGradient id="prefix__b" x1="-.887" x2="3.467" y1="13.088" y2="34.776" gradientUnits="userSpaceOnUse">
      <stop stop-color="#70B1FF"/>
      <stop offset="1" stop-color="#005CCD"/>
    </linearGradient>
    <linearGradient id="prefix__c" x1="16.569" x2="8.904" y1="-1.623" y2="27.863" gradientUnits="userSpaceOnUse">
      <stop stop-color="#93C0FF"/>
      <stop offset="1" stop-color="#5D90DE"/>
    </linearGradient>
    <linearGradient id="prefix__d" x1="13.03" x2="37.284" y1="42.638" y2="55.112" gradientUnits="userSpaceOnUse">
      <stop stop-color="#70B1FF"/>
      <stop offset="1" stop-color="#005CCD"/>
    </linearGradient>
    <linearGradient id="prefix__e" x1="19.782" x2="19.782" y1="44" y2="41.57" gradientUnits="userSpaceOnUse">
      <stop stop-color="#5A99FA"/>
      <stop offset="1" stop-color="#5A99FA"/>
    </linearGradient>
    <linearGradient id="prefix__f" x1="39.568" x2="30.074" y1="20.099" y2="10.557" gradientUnits="userSpaceOnUse">
      <stop stop-color="#295296"/>
      <stop offset="1" stop-color="#3E78D3"/>
    </linearGradient>
  </defs>
</svg>
