<svg width="96" height="96" fill="none" viewBox="0 0 96 96" xmlns="http://www.w3.org/2000/svg">
  <path fill="url(#prefix__a)" d="M55 90c-18.225 0-33-14.775-33-33s14.775-33 33-33 33 14.775 33 33-14.775 33-33 33Zm0-25a8 8 0 1 0 0-16 8 8 0 0 0 0 16Z" clip-rule="evenodd" opacity=".5"/>
  <path fill="url(#prefix__b)" d="M36.404 4 19.16 33.866c-2.761 4.783-8.877 6.422-13.66 3.66-4.783-2.761-6.42-8.876-3.66-13.66L13.31 4h23.094Z" clip-rule="evenodd" opacity=".5"/>
  <rect width="16" height="40" x="3" y="21" fill="url(#prefix__c)" opacity=".5" rx="8"/>
  <path fill="url(#prefix__d)" d="M19 34.134c-2.832 4.575-8.807 6.102-13.5 3.392A9.99 9.99 0 0 1 3 35.484V29a8 8 0 1 1 16 0v5.134Z" clip-rule="evenodd"/>
  <path fill="url(#prefix__e)" d="m68.268 66.517-3.464-2 8.998-15.586A9.968 9.968 0 0 1 73 45V4h20v41c0 5.118-3.845 9.338-8.804 9.93l-9 15.587-3.464-2-4.5 7.794-3.464-2 4.5-7.794Z" clip-rule="evenodd" opacity=".6"/>
  <path fill="url(#prefix__f)" d="M73 29.337c8.176 5.33 13.843 14.189 14.842 24.415a9.934 9.934 0 0 1-3.646 1.177l-9 15.588-3.464-2-4.5 7.794-3.464-2 4.5-7.794-3.464-2 8.998-15.586A9.968 9.968 0 0 1 73 45V29.337Z" clip-rule="evenodd"/>
  <path fill="url(#prefix__g)" d="M93 45c0-5.523-4.477-10-10-10s-10 4.477-10 10 4.477 10 10 10 10-4.477 10-10Z" clip-rule="evenodd"/>
  <path fill="url(#prefix__h)" d="M35.772 64.725a8.003 8.003 0 0 1 9.539-1.153l-2 3.464a4 4 0 0 0-4 6.928l-2 3.464a8.003 8.003 0 0 1-3.771-8.837L9.53 58.82a6 6 0 1 1 5.774-10.002l20.468 15.908Z" clip-rule="evenodd" opacity=".5"/>
  <path fill="url(#prefix__i)" d="M22.791 64.216a33.423 33.423 0 0 1-.667-10.099l13.648 10.608a8.003 8.003 0 0 1 9.539-1.153l-2 3.464a4 4 0 1 0-4 6.928l-2 3.464a8.004 8.004 0 0 1-3.771-8.837l-10.75-4.375Z" clip-rule="evenodd"/>
  <path fill="url(#prefix__j)" d="M19 51.69V53c0 3.463-2.2 6.411-5.278 7.525l-4.193-1.706a6 6 0 1 1 5.774-10.002L19 51.69Z" clip-rule="evenodd"/>
  <defs>
    <linearGradient id="prefix__a" x1="58.49" x2="-7.51" y1="-2.019" y2="57" gradientUnits="userSpaceOnUse">
      <stop stop-color="#70B1FF"/>
      <stop offset="1" stop-color="#005CCD"/>
    </linearGradient>
    <linearGradient id="prefix__b" x1="16.708" x2="-16.404" y1="-12.587" y2="23.25" gradientUnits="userSpaceOnUse">
      <stop stop-color="#70B1FF"/>
      <stop offset="1" stop-color="#005CCD"/>
    </linearGradient>
    <linearGradient id="prefix__c" x1="3" x2="3" y1="21" y2="61" gradientUnits="userSpaceOnUse">
      <stop stop-color="#70B1FF"/>
      <stop offset="1" stop-color="#005CCD"/>
    </linearGradient>
    <linearGradient id="prefix__d" x1="10.236" x2="-4.697" y1="14.694" y2="27.163" gradientUnits="userSpaceOnUse">
      <stop stop-color="#679CF1"/>
      <stop offset="1" stop-color="#5188E0"/>
    </linearGradient>
    <linearGradient id="prefix__e" x1="80.138" x2="26.075" y1="-40.516" y2="-19.175" gradientUnits="userSpaceOnUse">
      <stop stop-color="#70B1FF"/>
      <stop offset="1" stop-color="#005CCD"/>
    </linearGradient>
    <linearGradient id="prefix__f" x1="62.377" x2="35.679" y1="19.38" y2="50.476" gradientUnits="userSpaceOnUse">
      <stop stop-color="#5B95EF"/>
      <stop offset="1" stop-color="#3B75D7"/>
    </linearGradient>
    <linearGradient id="prefix__g" x1="79.562" x2="104.597" y1="70.713" y2="47.518" gradientUnits="userSpaceOnUse">
      <stop stop-color="#295296"/>
      <stop offset="1" stop-color="#3E78D3"/>
    </linearGradient>
    <linearGradient id="prefix__h" x1="4.999" x2="4.999" y1="46.999" y2="77.428" gradientUnits="userSpaceOnUse">
      <stop stop-color="#70B1FF"/>
      <stop offset="1" stop-color="#005CCD"/>
    </linearGradient>
    <linearGradient id="prefix__i" x1="50.318" x2="31.939" y1="64.806" y2="44.928" gradientUnits="userSpaceOnUse">
      <stop stop-color="#437AD6"/>
      <stop offset="1" stop-color="#538AE2"/>
    </linearGradient>
    <linearGradient id="prefix__j" x1="2.54" x2="14.59" y1="54.897" y2="63.285" gradientUnits="userSpaceOnUse">
      <stop stop-color="#6096ED"/>
      <stop offset="1" stop-color="#5289E2"/>
    </linearGradient>
  </defs>
</svg>
