<svg width="96" height="96" fill="none" viewBox="0 0 96 96" xmlns="http://www.w3.org/2000/svg">
  <path fill="url(#prefix__a)" d="M48.023 23c-5.523 0-10-4.477-10-10s4.477-10 10-10 10 4.477 10 10-4.477 10-10 10ZM69 47c0-11.598-9.402-21-21-21s-21 9.402-21 21h42Z" clip-rule="evenodd" opacity=".7"/>
  <path fill="url(#prefix__b)" d="M19 62v16h-6V56h70v22h-6V62H19Z" clip-rule="evenodd" opacity=".45"/>
  <path fill="url(#prefix__c)" d="M28 72H4v20h24V72Zm8 0h24v20H36V72Zm32 0h24v20H68V72Z" clip-rule="evenodd" opacity=".5"/>
  <path fill="url(#prefix__d)" d="M45 72h6v6h-6z"/>
  <path fill="url(#prefix__e)" d="M77 72h6v6h-6z"/>
  <path fill="url(#prefix__f)" d="M13 72h6v6h-6z"/>
  <path fill="url(#prefix__g)" d="M45 47h6v31h-6z" opacity=".46"/>
  <path fill="url(#prefix__h)" d="M45 56h6v6h-6z"/>
  <path fill="url(#prefix__i)" d="M45 33h6v14h-6z"/>
  <defs>
    <linearGradient id="prefix__a" x1="90" x2="54.249" y1="29.282" y2="-13.092" gradientUnits="userSpaceOnUse">
      <stop stop-color="#70B1FF"/>
      <stop offset="1" stop-color="#005CCD"/>
    </linearGradient>
    <linearGradient id="prefix__b" x1="54.188" x2="39.469" y1="44.028" y2="87.054" gradientUnits="userSpaceOnUse">
      <stop stop-color="#70B1FF"/>
      <stop offset="1" stop-color="#005CCD"/>
    </linearGradient>
    <linearGradient id="prefix__c" x1="-60.298" x2="-52.291" y1="76.777" y2="119.221" gradientUnits="userSpaceOnUse">
      <stop stop-color="#70B1FF"/>
      <stop offset="1" stop-color="#005CCD"/>
    </linearGradient>
    <linearGradient id="prefix__d" x1="42" x2="42" y1="72" y2="78" gradientUnits="userSpaceOnUse">
      <stop stop-color="#679CEE"/>
      <stop offset="1" stop-color="#6BA0F2"/>
    </linearGradient>
    <linearGradient id="prefix__e" x1="74" x2="74" y1="72" y2="78" gradientUnits="userSpaceOnUse">
      <stop stop-color="#5C93E8"/>
      <stop offset="1" stop-color="#5B92E7"/>
    </linearGradient>
    <linearGradient id="prefix__f" x1="16" x2="10" y1="69" y2="75" gradientUnits="userSpaceOnUse">
      <stop stop-color="#5B91E5"/>
      <stop offset="1" stop-color="#5990E5"/>
    </linearGradient>
    <linearGradient id="prefix__g" x1="54" x2="42.433" y1="62.5" y2="60.261" gradientUnits="userSpaceOnUse">
      <stop stop-color="#70B1FF"/>
      <stop offset="1" stop-color="#005CCD"/>
    </linearGradient>
    <linearGradient id="prefix__h" x1="45" x2="45" y1="56" y2="62" gradientUnits="userSpaceOnUse">
      <stop stop-color="#5E93E4"/>
      <stop offset="1" stop-color="#6397E9"/>
    </linearGradient>
    <linearGradient id="prefix__i" x1="48.574" x2="60.087" y1="56.678" y2="50.8" gradientUnits="userSpaceOnUse">
      <stop stop-color="#295296"/>
      <stop offset="1" stop-color="#3E78D3"/>
    </linearGradient>
  </defs>
</svg>
