<svg width="48" height="48" fill="none" viewBox="0 0 48 48" xmlns="http://www.w3.org/2000/svg">
  <path fill="url(#prefix__a)" d="m26.24 24.999-.611-.611-3.326 3.34a3.5 3.5 0 0 1-4.95 0L25.582 19H48v11h-8.722L28.107 40.102a1.5 1.5 0 0 1-2.46-1.602h-.18l-1.603 1.602a1.5 1.5 0 0 1-2.46-1.602h-.18l-1.603 1.602a1.5 1.5 0 1 1-2.121-2.121l.49-.49v-.213a1.5 1.5 0 0 1-1.55-2.479l9.8-9.8Z" clip-rule="evenodd" opacity=".55"/>
  <path fill="url(#prefix__b)" d="M33.418 24H8.644C5.526 24 3 21.314 3 18s2.526-6 5.644-6h2.367C11.273 5.88 16.316 1 22.5 1c3.594 0 6.802 1.648 8.911 4.23A9.533 9.533 0 0 1 33.5 5a9.5 9.5 0 0 1 0 19h-.082Z" clip-rule="evenodd" opacity=".45"/>
  <path fill="url(#prefix__c)" d="m20.868 24 4.713-5h16.287a9.499 9.499 0 0 1-8.512 5H20.868Z" clip-rule="evenodd"/>
  <path fill="url(#prefix__d)" d="m21.26 29.999 9.8 9.8a1.5 1.5 0 0 1-1.55 2.479v.213l.49.49a1.5 1.5 0 1 1-2.121 2.121L26.276 43.5h-.18a1.5 1.5 0 0 1-2.46 1.602L22.034 43.5h-.18a1.5 1.5 0 0 1-2.46 1.602L8.221 35H0V24h21.919l8.227 8.728a3.5 3.5 0 0 1-4.95 0l-3.325-3.34-.61.61Z" clip-rule="evenodd" opacity=".42"/>
  <path fill="url(#prefix__e)" d="m23.91 26.113-1.607 1.615a3.5 3.5 0 0 1-4.95 0L20.869 24h1.05l1.993 2.113Z" clip-rule="evenodd"/>
  <path fill="url(#prefix__f)" d="m29.817 38.555-1.71 1.547a1.5 1.5 0 0 1-2.46-1.602h-.18l-1.603 1.602a1.5 1.5 0 0 1-2.46-1.602h-.18l-1.603 1.602a1.5 1.5 0 1 1-2.121-2.121l.49-.49v-.213a1.5 1.5 0 0 1-1.55-2.48l8.06-8.06 5.646 5.99a3.5 3.5 0 0 1-4.95 0l-3.325-3.34-.61.61 8.556 8.557Z" clip-rule="evenodd"/>
  <defs>
    <linearGradient id="prefix__a" x1="32" x2="14.478" y1="9.207" y2="37.833" gradientUnits="userSpaceOnUse">
      <stop stop-color="#70B1FF"/>
      <stop offset="1" stop-color="#005CCD"/>
    </linearGradient>
    <linearGradient id="prefix__b" x1="63" x2="43.122" y1="12.5" y2="47.07" gradientUnits="userSpaceOnUse">
      <stop stop-color="#70B1FF"/>
      <stop offset="1" stop-color="#005CCD"/>
    </linearGradient>
    <linearGradient id="prefix__c" x1="34.607" x2="36.643" y1="30.161" y2="18.117" gradientUnits="userSpaceOnUse">
      <stop stop-color="#295296"/>
      <stop offset="1" stop-color="#3E78D3"/>
    </linearGradient>
    <linearGradient id="prefix__d" x1="13.858" x2="-5.638" y1="13.22" y2="44.239" gradientUnits="userSpaceOnUse">
      <stop stop-color="#70B1FF"/>
      <stop offset="1" stop-color="#005CCD"/>
    </linearGradient>
    <linearGradient id="prefix__e" x1="10.653" x2="8.475" y1="22.52" y2="39.39" gradientUnits="userSpaceOnUse">
      <stop stop-color="#5C92E8"/>
      <stop offset="1" stop-color="#4C83DB"/>
    </linearGradient>
    <linearGradient id="prefix__f" x1="13.491" x2="9.434" y1="21.823" y2="38.055" gradientUnits="userSpaceOnUse">
      <stop stop-color="#5C92E8"/>
      <stop offset="1" stop-color="#4C83DB"/>
    </linearGradient>
  </defs>
</svg>
