<svg width="48" height="48" fill="none" viewBox="0 0 48 48" xmlns="http://www.w3.org/2000/svg">
  <path fill="url(#prefix__a)" d="M7 30h17v17H7V30Z" clip-rule="evenodd" opacity=".3"/>
  <path fill="url(#prefix__b)" d="M24 30h17v17H24V30Z" clip-rule="evenodd" opacity=".45"/>
  <path fill="url(#prefix__c)" d="M10 1h28v43H10V1Z" clip-rule="evenodd" opacity=".35"/>
  <path fill="url(#prefix__d)" d="M23 12h2l6.5 16h-2.25l-1.212-3h-8.076l-1.212 3H16.5L23 12Zm-2.23 11h6.46l-.605-1.5h-5.25l-.606 1.5ZM24 15l1.817 4.5h-3.634L24 15Z" clip-rule="evenodd"/>
  <path fill="url(#prefix__e)" d="M7 30h17l-7 9H0l7-9Z" clip-rule="evenodd" opacity=".35"/>
  <path fill="url(#prefix__f)" d="M10 30h14l-7 9h-7v-9Z" clip-rule="evenodd"/>
  <path fill="url(#prefix__g)" d="M41 30H24l7 9h17l-7-9Z" clip-rule="evenodd" opacity=".45"/>
  <path fill="url(#prefix__h)" d="M38 30h3v9h-3z"/>
  <path fill="url(#prefix__i)" d="M38 39h-7l-7-9h14v9Z" clip-rule="evenodd"/>
  <path fill="url(#prefix__j)" d="M14 10V3h-2v7h2Zm4 0V3h-2v7h2Zm4-7v7h-2V3h2Zm4 7V3h-2v7h2Z" clip-rule="evenodd"/>
  <path fill="#F2F8FF" d="M29.5 8a1.5 1.5 0 1 0 0-3 1.5 1.5 0 0 0 0 3Z" clip-rule="evenodd"/>
  <path fill="url(#prefix__k)" d="M34.5 8a1.5 1.5 0 1 0 0-3 1.5 1.5 0 0 0 0 3Z" clip-rule="evenodd"/>
  <defs>
    <linearGradient id="prefix__a" x1="15.5" x2="-1.5" y1="21.5" y2="38.5" gradientUnits="userSpaceOnUse">
      <stop stop-color="#70B1FF"/>
      <stop offset="1" stop-color="#005CCD"/>
    </linearGradient>
    <linearGradient id="prefix__b" x1="32.5" x2="15.5" y1="21.5" y2="38.5" gradientUnits="userSpaceOnUse">
      <stop stop-color="#70B1FF"/>
      <stop offset="1" stop-color="#005CCD"/>
    </linearGradient>
    <linearGradient id="prefix__c" x1="24" x2="-15.325" y1="-20.5" y2="5.107" gradientUnits="userSpaceOnUse">
      <stop stop-color="#70B1FF"/>
      <stop offset="1" stop-color="#005CCD"/>
    </linearGradient>
    <linearGradient id="prefix__d" x1="4.595" x2="23.858" y1="18.963" y2="36.429" gradientUnits="userSpaceOnUse">
      <stop stop-color="#295296"/>
      <stop offset="1" stop-color="#3E78D3"/>
    </linearGradient>
    <linearGradient id="prefix__e" x1="12" x2="6.082" y1="25.5" y2="41.281" gradientUnits="userSpaceOnUse">
      <stop stop-color="#70B1FF"/>
      <stop offset="1" stop-color="#005CCD"/>
    </linearGradient>
    <linearGradient id="prefix__f" x1="17" x2="8.812" y1="25.5" y2="38.236" gradientUnits="userSpaceOnUse">
      <stop stop-color="#72A5F4"/>
      <stop offset="1" stop-color="#58D"/>
    </linearGradient>
    <linearGradient id="prefix__g" x1="36" x2="41.918" y1="25.5" y2="41.281" gradientUnits="userSpaceOnUse">
      <stop stop-color="#70B1FF"/>
      <stop offset="1" stop-color="#005CCD"/>
    </linearGradient>
    <linearGradient id="prefix__h" x1="36.5" x2="41.9" y1="34.5" y2="36.3" gradientUnits="userSpaceOnUse">
      <stop stop-color="#73A7F2"/>
      <stop offset="1" stop-color="#669BEA"/>
    </linearGradient>
    <linearGradient id="prefix__i" x1="45" x2="36.812" y1="34.5" y2="21.764" gradientUnits="userSpaceOnUse">
      <stop stop-color="#497FDF"/>
      <stop offset="1" stop-color="#538CEB"/>
    </linearGradient>
    <linearGradient id="prefix__j" x1="19.699" x2="13.506" y1="-1.808" y2="10.743" gradientUnits="userSpaceOnUse">
      <stop stop-color="#92C0FA"/>
      <stop offset="1" stop-color="#639EE5"/>
    </linearGradient>
    <linearGradient id="prefix__k" x1="31.726" x2="34.726" y1="6.5" y2="9.048" gradientUnits="userSpaceOnUse">
      <stop stop-color="#77A8F2"/>
      <stop offset="1" stop-color="#6397E7"/>
    </linearGradient>
  </defs>
</svg>
