<svg width="96" height="96" fill="none" viewBox="0 0 96 96" xmlns="http://www.w3.org/2000/svg">
  <path fill="url(#prefix__a)" d="M14 59h34v35H14V59Z" clip-rule="evenodd" opacity=".3"/>
  <path fill="url(#prefix__b)" d="M48 59h34v35H48V59Z" clip-rule="evenodd" opacity=".45"/>
  <path fill="url(#prefix__c)" d="M21 2h54v84H21V2Z" clip-rule="evenodd" opacity=".35"/>
  <path fill="url(#prefix__d)" d="M46 24h4l13 32h-4.5l-2.423-6H39.923L37.5 56H33l13-32Zm-4.462 22h12.924l-1.212-3h-10.5l-1.212 3ZM48 30l3.635 9h-7.27L48 30Z" clip-rule="evenodd"/>
  <path fill="url(#prefix__e)" d="M14 59h34L34 77H0l14-18Z" clip-rule="evenodd" opacity=".35"/>
  <path fill="url(#prefix__f)" d="M21 59h27L34 77H21V59Z" clip-rule="evenodd"/>
  <path fill="url(#prefix__g)" d="M82 59H48l14 18h34L82 59Z" clip-rule="evenodd" opacity=".45"/>
  <path fill="url(#prefix__h)" d="M75 59h7v18h-7z"/>
  <path fill="url(#prefix__i)" d="M75 77H62L48 59h27v18Z" clip-rule="evenodd"/>
  <path fill="url(#prefix__j)" d="M29 18V6h-4v12h4Zm7 0V6h-4v12h4Zm7-12v12h-4V6h4Zm7 12V6h-4v12h4Z" clip-rule="evenodd"/>
  <path fill="#F2F8FF" d="M58.5 14a2.5 2.5 0 1 0 0-5 2.5 2.5 0 0 0 0 5Z" clip-rule="evenodd"/>
  <path fill="url(#prefix__k)" d="M66.5 14a2.5 2.5 0 1 0 0-5 2.5 2.5 0 0 0 0 5Z" clip-rule="evenodd"/>
  <defs>
    <linearGradient id="prefix__a" x1="31" x2="-3.985" y1="41.5" y2="75.486" gradientUnits="userSpaceOnUse">
      <stop stop-color="#70B1FF"/>
      <stop offset="1" stop-color="#005CCD"/>
    </linearGradient>
    <linearGradient id="prefix__b" x1="65" x2="30.015" y1="41.5" y2="75.486" gradientUnits="userSpaceOnUse">
      <stop stop-color="#70B1FF"/>
      <stop offset="1" stop-color="#005CCD"/>
    </linearGradient>
    <linearGradient id="prefix__c" x1="48" x2="-28.419" y1="-40" y2="9.126" gradientUnits="userSpaceOnUse">
      <stop stop-color="#70B1FF"/>
      <stop offset="1" stop-color="#005CCD"/>
    </linearGradient>
    <linearGradient id="prefix__d" x1="9.19" x2="47.715" y1="37.926" y2="72.858" gradientUnits="userSpaceOnUse">
      <stop stop-color="#295296"/>
      <stop offset="1" stop-color="#3E78D3"/>
    </linearGradient>
    <linearGradient id="prefix__e" x1="24" x2="12.164" y1="50" y2="81.562" gradientUnits="userSpaceOnUse">
      <stop stop-color="#70B1FF"/>
      <stop offset="1" stop-color="#005CCD"/>
    </linearGradient>
    <linearGradient id="prefix__f" x1="34.5" x2="17.885" y1="50" y2="74.923" gradientUnits="userSpaceOnUse">
      <stop stop-color="#72A5F4"/>
      <stop offset="1" stop-color="#58D"/>
    </linearGradient>
    <linearGradient id="prefix__g" x1="72" x2="83.836" y1="50" y2="81.562" gradientUnits="userSpaceOnUse">
      <stop stop-color="#70B1FF"/>
      <stop offset="1" stop-color="#005CCD"/>
    </linearGradient>
    <linearGradient id="prefix__h" x1="71.5" x2="83.661" y1="68" y2="72.729" gradientUnits="userSpaceOnUse">
      <stop stop-color="#73A7F2"/>
      <stop offset="1" stop-color="#669BEA"/>
    </linearGradient>
    <linearGradient id="prefix__i" x1="88.5" x2="71.885" y1="68" y2="43.077" gradientUnits="userSpaceOnUse">
      <stop stop-color="#497FDF"/>
      <stop offset="1" stop-color="#538CEB"/>
    </linearGradient>
    <linearGradient id="prefix__j" x1="38.748" x2="28.397" y1="-2.242" y2="19.609" gradientUnits="userSpaceOnUse">
      <stop stop-color="#92C0FA"/>
      <stop offset="1" stop-color="#639EE5"/>
    </linearGradient>
    <linearGradient id="prefix__k" x1="61.877" x2="66.876" y1="11.5" y2="15.747" gradientUnits="userSpaceOnUse">
      <stop stop-color="#77A8F2"/>
      <stop offset="1" stop-color="#6397E7"/>
    </linearGradient>
  </defs>
</svg>
