<svg width="96" height="96" fill="none" viewBox="0 0 96 96" xmlns="http://www.w3.org/2000/svg">
  <path fill="url(#prefix__a)" d="M63 35v12h16l15 18v16H2V35h61Z" clip-rule="evenodd" opacity=".45"/>
  <path fill="url(#prefix__b)" d="M18 91a8 8 0 1 0 0-16 8 8 0 0 0 0 16Z" clip-rule="evenodd" opacity=".4"/>
  <path fill="url(#prefix__c)" d="M78 91a8 8 0 1 0 0-16 8 8 0 0 0 0 16Z" clip-rule="evenodd" opacity=".4"/>
  <path fill="url(#prefix__d)" d="M85.748 81H70.252a8.003 8.003 0 0 1 15.496 0Z" clip-rule="evenodd" opacity=".45"/>
  <path fill="url(#prefix__e)" d="M25.748 81H10.252a8.003 8.003 0 0 1 15.496 0Z" clip-rule="evenodd" opacity=".45"/>
  <path fill="url(#prefix__f)" d="M11 21h68v44H11z" opacity=".3"/>
  <path fill="url(#prefix__g)" d="M79 47v18H11V35h52v12h16Z" clip-rule="evenodd"/>
  <path fill="url(#prefix__h)" d="M29 6h8v37h5l-9 13-9-13h5V6Z" clip-rule="evenodd" opacity=".45"/>
  <path fill="url(#prefix__i)" d="M29 21h8v22h5l-9 13-9-13h5V21Z" clip-rule="evenodd"/>
  <path fill="url(#prefix__j)" d="M18 59h30v6H18z"/>
  <path fill="url(#prefix__k)" d="M75 12a4 4 0 0 1 4 4v5H11v-5a4 4 0 0 1 4-4h60Zm-10.5 7a2.5 2.5 0 1 0 0-5 2.5 2.5 0 0 0 0 5Z" clip-rule="evenodd" opacity=".45"/>
  <path fill="url(#prefix__l)" d="M29 12h8v9h-8z"/>
  <path fill="url(#prefix__m)" d="M72.5 19a2.5 2.5 0 1 0 0-5 2.5 2.5 0 0 0 0 5Z" clip-rule="evenodd"/>
  <defs>
    <linearGradient id="prefix__a" x1="151.989" x2="-12.16" y1="-3.327" y2="67.868" gradientUnits="userSpaceOnUse">
      <stop stop-color="#70B1FF"/>
      <stop offset="1" stop-color="#005CCD"/>
    </linearGradient>
    <linearGradient id="prefix__b" x1="26.998" x2=".973" y1="56.599" y2="74.653" gradientUnits="userSpaceOnUse">
      <stop stop-color="#70B1FF"/>
      <stop offset="1" stop-color="#005CCD"/>
    </linearGradient>
    <linearGradient id="prefix__c" x1="86.998" x2="60.973" y1="56.599" y2="74.653" gradientUnits="userSpaceOnUse">
      <stop stop-color="#70B1FF"/>
      <stop offset="1" stop-color="#005CCD"/>
    </linearGradient>
    <linearGradient id="prefix__d" x1="91.716" x2="88.241" y1="78.539" y2="70.109" gradientUnits="userSpaceOnUse">
      <stop stop-color="#6D9FEC"/>
      <stop offset="1" stop-color="#6699E6"/>
    </linearGradient>
    <linearGradient id="prefix__e" x1="18" x2="21.081" y1="83.556" y2="74.217" gradientUnits="userSpaceOnUse">
      <stop stop-color="#5689DC"/>
      <stop offset="1" stop-color="#6294E3"/>
    </linearGradient>
    <linearGradient id="prefix__f" x1="-23" x2="17.137" y1="43" y2="105.029" gradientUnits="userSpaceOnUse">
      <stop stop-color="#70B1FF"/>
      <stop offset="1" stop-color="#005CCD"/>
    </linearGradient>
    <linearGradient id="prefix__g" x1="113" x2="90.842" y1="50" y2="-.224" gradientUnits="userSpaceOnUse">
      <stop stop-color="#6C9CE5"/>
      <stop offset="1" stop-color="#72A3EC"/>
    </linearGradient>
    <linearGradient id="prefix__h" x1="42" x2="24" y1="6" y2="6" gradientUnits="userSpaceOnUse">
      <stop stop-color="#70B1FF"/>
      <stop offset="1" stop-color="#005CCD"/>
    </linearGradient>
    <linearGradient id="prefix__i" x1="36.456" x2="67.075" y1="81.89" y2="51.253" gradientUnits="userSpaceOnUse">
      <stop stop-color="#295296"/>
      <stop offset="1" stop-color="#3E78D3"/>
    </linearGradient>
    <linearGradient id="prefix__j" x1="33" x2="35.308" y1="68" y2="56.462" gradientUnits="userSpaceOnUse">
      <stop stop-color="#295296"/>
      <stop offset="1" stop-color="#3E78D3"/>
    </linearGradient>
    <linearGradient id="prefix__k" x1="-20.227" x2="-18.067" y1="16.317" y2="33.323" gradientUnits="userSpaceOnUse">
      <stop stop-color="#70B1FF"/>
      <stop offset="1" stop-color="#005CCD"/>
    </linearGradient>
    <linearGradient id="prefix__l" x1="41" x2="32.062" y1="16.5" y2="8.555" gradientUnits="userSpaceOnUse">
      <stop stop-color="#71A3F1"/>
      <stop offset="1" stop-color="#679AEB"/>
    </linearGradient>
    <linearGradient id="prefix__m" x1="67.5" x2="72.5" y1="16.5" y2="21.5" gradientUnits="userSpaceOnUse">
      <stop stop-color="#5C90E3"/>
      <stop offset="1" stop-color="#4F83DA"/>
    </linearGradient>
  </defs>
</svg>
