<svg width="96" height="96" fill="none" viewBox="0 0 96 96" xmlns="http://www.w3.org/2000/svg">
  <path fill="url(#prefix__a)" d="M39.545 21.095c-1.335-1.37-2.786-2.419-4.324-3.147-1.538-.729-3.482-1.079-5.717-1.079-1.8 0-3.511.32-5.108.962a12.631 12.631 0 0 0-4.178 2.71c-1.22 1.166-2.177 2.595-2.873 4.256-.697 1.661-1.045 3.497-1.045 5.537s.348 3.877 1.044 5.538c.697 1.661 1.655 3.06 2.873 4.226a13.27 13.27 0 0 0 4.238 2.74c1.596.641 3.337.962 5.165.962 1.944 0 3.657-.263 5.108-.816 1.45-.554 2.698-1.312 3.743-2.245a10.353 10.353 0 0 0 1.887-2.36 13.5 13.5 0 0 0 1.306-3.177H29.387v-6.995h20.024c.116.466.203 1.02.29 1.72.087.699.116 1.34.116 2.01 0 2.77-.406 5.276-1.219 7.578-.812 2.303-2.06 4.314-3.685 6.092-1.828 1.953-4.005 3.439-6.559 4.517-2.554 1.079-5.485 1.603-8.764 1.603-2.96 0-5.746-.524-8.358-1.603-2.612-1.078-4.904-2.565-6.878-4.459-1.944-1.894-3.482-4.139-4.643-6.733C8.552 36.34 8 33.453 8 30.364c0-3.09.58-5.946 1.712-8.57 1.132-2.622 2.67-4.866 4.643-6.76 1.945-1.895 4.237-3.353 6.878-4.431C23.874 9.525 26.66 9 29.591 9c3.366 0 6.355.583 8.938 1.749a20.53 20.53 0 0 1 6.704 4.809l-5.688 5.537Z" opacity=".5"/>
  <path fill="url(#prefix__b)" d="M48 39c7.217 0 13.678 3.234 18.014 8.333.8-.1 1.614-.151 2.44-.151C79.25 47.182 88 55.932 88 66.727c0 10.337-8.023 18.799-18.182 19.499l-49.09.047C13.697 86.273 8 80.575 8 73.546c0-7.03 5.698-12.728 12.727-12.728h3.706C25.36 48.614 35.558 39 48 39Z" clip-rule="evenodd" opacity=".4"/>
  <path fill="url(#prefix__c)" d="M35.067 42.849c.992-.41 1.885-.918 2.679-1.515a23.542 23.542 0 0 1 11.023-2.322 19.8 19.8 0 0 1-.17.503c-.812 2.303-2.06 4.314-3.685 6.092-1.828 1.953-4.005 3.439-6.559 4.517-2.553 1.079-5.485 1.603-8.764 1.603-.846 0-1.679-.043-2.497-.13a23.75 23.75 0 0 1 7.973-8.748Z"/>
  <path fill="url(#prefix__d)" d="M24.824 68.136h1.378L23.46 78.415h-1.35L19.9 71.64h-.057l-2.21 6.775h-1.35l-2.856-10.278h1.378l2.167 8.082h.058l2.224-6.704h1.235l2.225 6.704h.057l2.053-8.082Z"/>
  <path fill="url(#prefix__e)" d="M26.077 74.897c0-1.08.34-1.976 1.02-2.684.688-.708 1.554-1.062 2.597-1.062s1.905.354 2.584 1.062c.689.708 1.034 1.603 1.034 2.684 0 1.091-.345 1.986-1.034 2.684-.68.709-1.54 1.063-2.584 1.063-1.043 0-1.909-.355-2.598-1.063-.68-.708-1.019-1.603-1.019-2.685v.001Zm1.32 0c0 .755.22 1.368.661 1.837.44.468.986.703 1.636.703.651 0 1.197-.235 1.637-.703.44-.469.66-1.081.66-1.838 0-.746-.22-1.354-.66-1.823-.45-.478-.995-.717-1.637-.717-.641 0-1.187.24-1.637.718-.44.469-.66 1.077-.66 1.823"/>
  <path fill="url(#prefix__f)" d="M35.57 78.414h-1.322V71.38h1.264v1.149h.058c.134-.373.41-.692.826-.955s.825-.395 1.227-.395c.383 0 .708.058.976.173l-.403 1.278c-.163-.067-.421-.1-.775-.1-.498 0-.93.2-1.3.602a2.02 2.02 0 0 0-.552 1.406v3.876Z"/>
  <path fill="url(#prefix__g)" d="M45.395 78.414h-1.593l-2.196-3.316-1.077 1.062v2.254h-1.32V68.136h1.32v6.33l3.044-3.085h1.693v.057l-2.741 2.727 2.87 4.191v.058Z"/>
  <path fill="url(#prefix__h)" d="M51.11 76.462c0 .612-.268 1.13-.804 1.55-.536.42-1.21.631-2.024.632-.708 0-1.33-.185-1.866-.553a3.047 3.047 0 0 1-1.148-1.457l1.177-.502c.172.42.423.748.753.983.315.23.695.352 1.084.351.421 0 .773-.09 1.055-.272.282-.182.423-.398.423-.646 0-.45-.344-.78-1.033-.99l-1.206-.302c-1.368-.345-2.052-1.005-2.053-1.982 0-.64.261-1.155.783-1.543.522-.388 1.189-.581 2.002-.581.622 0 1.185.148 1.687.445.502.296.854.694 1.055 1.191l-1.177.488a1.483 1.483 0 0 0-.653-.696 2.05 2.05 0 0 0-1.012-.251 1.697 1.697 0 0 0-.926.258c-.273.172-.41.383-.41.632 0 .402.378.689 1.134.861l1.062.273c1.397.344 2.096 1.047 2.096 2.109"/>
  <path fill="url(#prefix__i)" d="M55.696 78.644c-.517 0-.988-.11-1.414-.33a2.476 2.476 0 0 1-.983-.876h-.059l.059.976v3.1h-1.321V71.381h1.263v.976h.059c.23-.364.557-.656.983-.876.426-.22.897-.33 1.414-.33.928 0 1.713.364 2.354 1.09.66.738.99 1.623.99 2.656 0 1.043-.33 1.929-.99 2.656-.641.727-1.426 1.09-2.354 1.09h-.001Zm-.214-1.206c.631 0 1.162-.24 1.593-.718.43-.469.644-1.076.644-1.823 0-.736-.215-1.344-.644-1.823a2.055 2.055 0 0 0-1.593-.717c-.642 0-1.178.239-1.608.717-.421.479-.632 1.087-.632 1.823 0 .747.21 1.36.632 1.838.43.468.965.703 1.608.703"/>
  <path fill="url(#prefix__j)" d="M62.657 71.15c.977 0 1.747.261 2.311.783.565.521.847 1.237.847 2.146v4.335h-1.263v-.976h-.059c-.545.803-1.272 1.205-2.181 1.205-.775 0-1.424-.23-1.945-.689a2.2 2.2 0 0 1-.782-1.722c0-.727.274-1.306.825-1.737.55-.43 1.284-.646 2.203-.646.785 0 1.43.144 1.938.43v-.302c0-.46-.182-.85-.546-1.17a1.872 1.872 0 0 0-1.277-.48c-.737 0-1.32.31-1.751.933l-1.163-.733c.641-.918 1.588-1.377 2.842-1.377h.001Zm-1.708 5.112c0 .345.146.632.438.861.292.23.633.345 1.025.345.555 0 1.05-.206 1.486-.617.435-.412.653-.895.653-1.45-.412-.325-.986-.488-1.723-.488-.536 0-.983.13-1.342.387-.358.259-.537.58-.537.962Z"/>
  <path fill="url(#prefix__k)" d="M70.292 78.644c-1.043 0-1.91-.354-2.598-1.063-.68-.727-1.02-1.621-1.02-2.684 0-1.08.34-1.976 1.02-2.684.689-.708 1.555-1.062 2.598-1.062.718 0 1.344.18 1.88.538.536.359.938.854 1.206 1.486l-1.204.502c-.374-.88-1.03-1.32-1.967-1.32-.603 0-1.124.244-1.564.732-.431.488-.647 1.091-.647 1.809 0 .717.216 1.32.647 1.808.44.488.961.733 1.564.733.967 0 1.646-.44 2.038-1.321l1.177.502a3.149 3.149 0 0 1-1.213 1.486c-.55.359-1.189.538-1.916.538"/>
  <path fill="url(#prefix__l)" d="M77.399 78.644c-1.034 0-1.886-.354-2.555-1.063-.67-.708-1.005-1.602-1.005-2.684 0-1.071.325-1.964.976-2.677.65-.713 1.483-1.07 2.498-1.07 1.042 0 1.872.338 2.49 1.013.617.674.925 1.62.925 2.835l-.015.143h-5.525c.02.69.25 1.244.69 1.665a2.2 2.2 0 0 0 1.578.632c.842 0 1.502-.421 1.98-1.263l1.178.574A3.507 3.507 0 0 1 79.3 78.14c-.56.335-1.193.502-1.901.503Zm-2.11-4.594h4.032a1.757 1.757 0 0 0-.595-1.213c-.358-.32-.84-.48-1.443-.48-.498 0-.926.153-1.285.459-.358.306-.595.718-.71 1.234"/>
  <defs>
    <linearGradient id="prefix__a" x1="-7.485" x2="24.88" y1="25.135" y2="61.822" gradientUnits="userSpaceOnUse">
      <stop stop-color="#70B1FF"/>
      <stop offset="1" stop-color="#005CCD"/>
    </linearGradient>
    <linearGradient id="prefix__b" x1="15.262" x2=".545" y1="27.992" y2="81.468" gradientUnits="userSpaceOnUse">
      <stop stop-color="#70B1FF"/>
      <stop offset="1" stop-color="#005CCD"/>
    </linearGradient>
    <linearGradient id="prefix__c" x1="35.139" x2="25.124" y1="29.357" y2="50.808" gradientUnits="userSpaceOnUse">
      <stop stop-color="#295296"/>
      <stop offset="1" stop-color="#3E78D3"/>
    </linearGradient>
    <linearGradient id="prefix__d" x1="18.168" x2="8.592" y1="60.349" y2="75.321" gradientUnits="userSpaceOnUse">
      <stop stop-color="#295296"/>
      <stop offset="1" stop-color="#3E78D3"/>
    </linearGradient>
    <linearGradient id="prefix__e" x1="28.762" x2="21.215" y1="65.474" y2="74.639" gradientUnits="userSpaceOnUse">
      <stop stop-color="#295296"/>
      <stop offset="1" stop-color="#3E78D3"/>
    </linearGradient>
    <linearGradient id="prefix__f" x1="35.863" x2="28.718" y1="65.698" y2="71.102" gradientUnits="userSpaceOnUse">
      <stop stop-color="#295296"/>
      <stop offset="1" stop-color="#3E78D3"/>
    </linearGradient>
    <linearGradient id="prefix__g" x1="41.505" x2="31.352" y1="60.349" y2="68.036" gradientUnits="userSpaceOnUse">
      <stop stop-color="#295296"/>
      <stop offset="1" stop-color="#3E78D3"/>
    </linearGradient>
    <linearGradient id="prefix__h" x1="47.436" x2="39.746" y1="65.472" y2="73.012" gradientUnits="userSpaceOnUse">
      <stop stop-color="#295296"/>
      <stop offset="1" stop-color="#3E78D3"/>
    </linearGradient>
    <linearGradient id="prefix__i" x1="54.6" x2="44.088" y1="63.299" y2="72.309" gradientUnits="userSpaceOnUse">
      <stop stop-color="#295296"/>
      <stop offset="1" stop-color="#3E78D3"/>
    </linearGradient>
    <linearGradient id="prefix__j" x1="61.897" x2="54.214" y1="65.473" y2="73.508" gradientUnits="userSpaceOnUse">
      <stop stop-color="#295296"/>
      <stop offset="1" stop-color="#3E78D3"/>
    </linearGradient>
    <linearGradient id="prefix__k" x1="69.179" x2="61.547" y1="65.473" y2="74.117" gradientUnits="userSpaceOnUse">
      <stop stop-color="#295296"/>
      <stop offset="1" stop-color="#3E78D3"/>
    </linearGradient>
    <linearGradient id="prefix__l" x1="76.396" x2="68.785" y1="65.474" y2="74.273" gradientUnits="userSpaceOnUse">
      <stop stop-color="#295296"/>
      <stop offset="1" stop-color="#3E78D3"/>
    </linearGradient>
  </defs>
</svg>
