<svg width="48" height="48" fill="none" viewBox="0 0 48 48" xmlns="http://www.w3.org/2000/svg">
  <path fill="url(#prefix__a)" d="M19.35 9.652c-.735-.753-1.533-1.33-2.379-1.73-.845-.402-1.915-.594-3.144-.594-.99 0-1.931.176-2.809.53a6.947 6.947 0 0 0-2.298 1.49c-.67.641-1.197 1.427-1.58 2.34-.384.914-.575 1.924-.575 3.046 0 1.122.191 2.132.574 3.046a6.83 6.83 0 0 0 1.58 2.324 7.297 7.297 0 0 0 2.331 1.507 7.589 7.589 0 0 0 2.841.529c1.07 0 2.011-.144 2.81-.449a6.594 6.594 0 0 0 2.058-1.234 5.695 5.695 0 0 0 1.038-1.299 7.43 7.43 0 0 0 .718-1.747h-6.752v-3.847h11.013c.064.256.112.56.16.946.048.384.064.737.064 1.106 0 1.523-.224 2.901-.67 4.167a9.711 9.711 0 0 1-2.027 3.35c-1.006 1.075-2.203 1.892-3.608 2.485-1.404.594-3.016.882-4.82.882-1.628 0-3.16-.288-4.597-.882a12.041 12.041 0 0 1-3.783-2.452c-1.069-1.042-1.915-2.276-2.553-3.703C2.303 18.036 2 16.449 2 14.75c0-1.7.32-3.27.942-4.713.622-1.443 1.468-2.677 2.553-3.719 1.07-1.042 2.33-1.843 3.783-2.436A12.036 12.036 0 0 1 13.875 3c1.852 0 3.496.32 4.916.962a11.29 11.29 0 0 1 3.687 2.645L19.35 9.652Z" opacity=".5"/>
  <path fill="url(#prefix__b)" fill-opacity=".7" d="M24 19.5c3.97 0 7.523 1.779 9.908 4.583.44-.055.887-.083 1.342-.083C41.187 24 46 28.813 46 34.75c0 5.685-4.413 10.34-10 10.724L9 45.5a7 7 0 1 1 0-14h2.038c.51-6.712 6.119-12 12.962-12Z" clip-rule="evenodd" opacity=".47"/>
  <path fill="url(#prefix__c)" d="M16.887 21.617a6.683 6.683 0 0 0 1.473-.833 12.95 12.95 0 0 1 6.063-1.277 9.712 9.712 0 0 1-2.12 3.627c-1.006 1.074-2.203 1.891-3.607 2.484-1.405.594-3.017.882-4.82.882-.466 0-.924-.024-1.374-.071a13.06 13.06 0 0 1 4.385-4.812Z"/>
  <path fill="url(#prefix__d)" d="M11.266 35.199h.757l-1.507 5.65h-.742L8.56 37.124h-.032L7.312 40.85H6.57L5 35.199h.758l1.191 4.443h.032l1.223-3.686h.679l1.223 3.686h.031l1.129-4.443Z"/>
  <path fill="url(#prefix__e)" d="M11.955 38.916c0-.595.186-1.087.56-1.476.379-.39.855-.584 1.428-.584.574 0 1.047.195 1.42.584.38.39.569.881.569 1.476 0 .6-.19 1.091-.568 1.475-.374.39-.847.584-1.42.584-.574 0-1.05-.195-1.43-.584-.373-.39-.56-.881-.56-1.476Zm.726 0c0 .415.12.752.363 1.01.242.257.541.386.9.386.357 0 .657-.13.899-.387.242-.258.363-.594.363-1.01 0-.41-.121-.744-.363-1.002a1.189 1.189 0 0 0-.9-.395 1.19 1.19 0 0 0-.9.395c-.242.258-.363.592-.363 1.003"/>
  <path fill="url(#prefix__f)" d="M17.173 40.85h-.726v-3.868h.695v.632h.032c.074-.206.225-.38.454-.525.229-.145.453-.217.674-.217.21 0 .39.031.537.095l-.222.702a1.223 1.223 0 0 0-.426-.055.94.94 0 0 0-.714.331 1.111 1.111 0 0 0-.304.773v2.131Z"/>
  <path fill="url(#prefix__g)" d="M22.576 40.849H21.7l-1.208-1.823-.592.584v1.239h-.726v-5.65h.726v3.48l1.673-1.697h.931v.032l-1.507 1.5 1.579 2.303v.032Z"/>
  <path fill="url(#prefix__h)" d="M25.717 39.776c0 .337-.147.62-.442.852-.294.231-.665.347-1.112.347a1.76 1.76 0 0 1-1.026-.304 1.674 1.674 0 0 1-.632-.8l.648-.277c.094.232.232.412.414.54a1 1 0 0 0 .596.194c.231 0 .425-.05.58-.15.154-.1.232-.218.232-.355 0-.247-.19-.428-.568-.545l-.663-.165c-.752-.19-1.128-.553-1.128-1.09 0-.352.143-.635.43-.848.287-.213.654-.32 1.1-.32.343 0 .652.082.928.245.276.163.47.381.58.655l-.647.268a.815.815 0 0 0-.359-.382 1.128 1.128 0 0 0-.556-.138.933.933 0 0 0-.51.142c-.15.094-.225.21-.225.347 0 .22.208.379.624.473l.583.15c.769.19 1.153.576 1.153 1.16"/>
  <path fill="url(#prefix__i)" d="M28.238 40.975c-.284 0-.543-.06-.777-.181a1.362 1.362 0 0 1-.54-.482h-.033l.032.537v1.705h-.726v-5.572h.695v.537h.032c.126-.2.306-.36.54-.481.235-.122.494-.182.778-.182.51 0 .941.2 1.294.6.363.405.544.891.544 1.46 0 .573-.181 1.06-.544 1.46-.352.4-.784.6-1.294.6Zm-.117-.663c.347 0 .639-.131.875-.394.237-.258.355-.592.355-1.002 0-.405-.118-.74-.355-1.003a1.13 1.13 0 0 0-.875-.394 1.14 1.14 0 0 0-.884.394c-.232.264-.348.598-.348 1.003 0 .41.116.747.348 1.01.236.257.53.386.884.386"/>
  <path fill="url(#prefix__j)" d="M32.065 36.856c.537 0 .96.143 1.27.43.311.286.466.68.466 1.18v2.383h-.694v-.537h-.032c-.3.442-.7.663-1.2.663-.426 0-.782-.126-1.069-.379a1.21 1.21 0 0 1-.43-.947c0-.4.151-.718.454-.954.302-.237.706-.356 1.211-.355.431 0 .787.078 1.065.236v-.166c0-.253-.1-.467-.3-.643a1.029 1.029 0 0 0-.702-.265c-.405 0-.726.171-.963.513l-.639-.402c.353-.505.873-.757 1.562-.757h.001Zm-.939 2.81c0 .19.08.347.24.474.161.126.35.189.565.189.305 0 .577-.113.816-.34.24-.226.36-.491.36-.796-.227-.18-.543-.269-.948-.269-.294 0-.54.071-.737.213-.198.142-.296.319-.296.529Z"/>
  <path fill="url(#prefix__k)" d="M36.263 40.975c-.573 0-1.05-.194-1.428-.584-.374-.4-.56-.891-.56-1.475 0-.595.186-1.087.56-1.476.379-.39.855-.584 1.428-.584.395 0 .74.099 1.034.296.294.197.515.47.663.817l-.663.276c-.205-.484-.565-.726-1.08-.726-.332 0-.619.134-.86.403-.238.268-.356.6-.356.994s.118.726.355.994c.242.269.529.403.86.403.532 0 .905-.242 1.12-.726l.648.276a1.73 1.73 0 0 1-.667.817 1.886 1.886 0 0 1-1.053.296"/>
  <path fill="url(#prefix__l)" d="M40.17 40.975c-.568 0-1.037-.194-1.405-.584-.368-.389-.552-.88-.552-1.475 0-.59.179-1.08.536-1.472.358-.392.816-.588 1.374-.588.573 0 1.03.185 1.369.556.339.371.508.89.508 1.559l-.008.079h-3.037c.01.379.137.684.379.915.241.232.53.347.867.347.463 0 .826-.231 1.09-.694l.647.316a1.928 1.928 0 0 1-.723.765 2 2 0 0 1-1.045.276Zm-1.16-2.525h2.217a.966.966 0 0 0-.327-.667c-.197-.176-.462-.264-.794-.264-.273 0-.509.084-.706.252a1.206 1.206 0 0 0-.39.679"/>
  <defs>
    <linearGradient id="prefix__a" x1="-6.517" x2="11.284" y1="11.874" y2="32.052" gradientUnits="userSpaceOnUse">
      <stop stop-color="#70B1FF"/>
      <stop offset="1" stop-color="#005CCD"/>
    </linearGradient>
    <linearGradient id="prefix__b" x1="5.994" x2="-2.1" y1="13.446" y2="42.857" gradientUnits="userSpaceOnUse">
      <stop stop-color="#70B1FF"/>
      <stop offset="1" stop-color="#005CCD"/>
    </linearGradient>
    <linearGradient id="prefix__c" x1="16.927" x2="11.418" y1="14.196" y2="25.994" gradientUnits="userSpaceOnUse">
      <stop stop-color="#295296"/>
      <stop offset="1" stop-color="#3E78D3"/>
    </linearGradient>
    <linearGradient id="prefix__d" x1="7.607" x2="2.342" y1="30.918" y2="39.149" gradientUnits="userSpaceOnUse">
      <stop stop-color="#295296"/>
      <stop offset="1" stop-color="#3E78D3"/>
    </linearGradient>
    <linearGradient id="prefix__e" x1="13.431" x2="9.281" y1="33.735" y2="38.774" gradientUnits="userSpaceOnUse">
      <stop stop-color="#295296"/>
      <stop offset="1" stop-color="#3E78D3"/>
    </linearGradient>
    <linearGradient id="prefix__f" x1="17.335" x2="13.407" y1="33.858" y2="36.829" gradientUnits="userSpaceOnUse">
      <stop stop-color="#295296"/>
      <stop offset="1" stop-color="#3E78D3"/>
    </linearGradient>
    <linearGradient id="prefix__g" x1="20.437" x2="14.855" y1="30.918" y2="35.144" gradientUnits="userSpaceOnUse">
      <stop stop-color="#295296"/>
      <stop offset="1" stop-color="#3E78D3"/>
    </linearGradient>
    <linearGradient id="prefix__h" x1="23.698" x2="19.47" y1="33.734" y2="37.879" gradientUnits="userSpaceOnUse">
      <stop stop-color="#295296"/>
      <stop offset="1" stop-color="#3E78D3"/>
    </linearGradient>
    <linearGradient id="prefix__i" x1="27.636" x2="21.856" y1="32.539" y2="37.493" gradientUnits="userSpaceOnUse">
      <stop stop-color="#295296"/>
      <stop offset="1" stop-color="#3E78D3"/>
    </linearGradient>
    <linearGradient id="prefix__j" x1="31.647" x2="27.423" y1="33.734" y2="38.152" gradientUnits="userSpaceOnUse">
      <stop stop-color="#295296"/>
      <stop offset="1" stop-color="#3E78D3"/>
    </linearGradient>
    <linearGradient id="prefix__k" x1="35.651" x2="31.455" y1="33.735" y2="38.486" gradientUnits="userSpaceOnUse">
      <stop stop-color="#295296"/>
      <stop offset="1" stop-color="#3E78D3"/>
    </linearGradient>
    <linearGradient id="prefix__l" x1="39.619" x2="35.435" y1="33.735" y2="38.573" gradientUnits="userSpaceOnUse">
      <stop stop-color="#295296"/>
      <stop offset="1" stop-color="#3E78D3"/>
    </linearGradient>
  </defs>
</svg>
