<svg width="96" height="96" fill="none" viewBox="0 0 96 96" xmlns="http://www.w3.org/2000/svg">
  <path fill="url(#prefix__a)" d="m50.882 28.648 21.214 21.213-14.143 14.143c-4.686 4.686-12.284 4.686-16.97 0L36.74 59.76c-4.686-4.686-4.686-12.284 0-16.97l14.142-14.143Z" opacity=".45"/>
  <path fill="url(#prefix__b)" d="M85.53 16.627h6v27h-6z" opacity=".55" transform="rotate(45 85.53 16.627)"/>
  <path fill="url(#prefix__c)" d="M74.217 27.941h6v17h-6z" opacity=".55" transform="rotate(45 74.217 27.941)"/>
  <path fill="url(#prefix__d)" d="m70.681 39.962-4.242-4.243 7.778-7.778 4.242 4.243-7.778 7.778Z" clip-rule="evenodd"/>
  <path fill="url(#prefix__e)" d="M85.53 27.941h6v19h-6z" opacity=".55" transform="rotate(45 85.53 27.941)"/>
  <path fill="url(#prefix__f)" d="M78.46 35.012h6v15h-6z" opacity=".55" transform="rotate(45 78.46 35.012)"/>
  <path fill="url(#prefix__g)" d="m76.338 45.619-4.243-4.243 6.364-6.364 4.243 4.243-6.364 6.364Z" clip-rule="evenodd"/>
  <path fill="url(#prefix__h)" d="M84.116 6.728h6v33h-6z" opacity=".55" transform="rotate(45 84.116 6.728)"/>
  <path fill="url(#prefix__i)" d="M14.643 96H6.158l39.067-39.068 4.243 4.243L14.643 96Z" clip-rule="evenodd" opacity=".5"/>
  <path fill="url(#prefix__j)" d="M3.33 96H0v-5.156l39.569-39.568 4.242 4.242L3.33 96Z" clip-rule="evenodd" opacity=".5"/>
  <path fill="url(#prefix__k)" d="M27.03 96H0V77.561l25.426-20.629 18.385 18.385L27.031 96Z" clip-rule="evenodd" opacity=".48"/>
  <path fill="url(#prefix__l)" d="M71.388 19.456h6v21h-6z" opacity=".55" transform="rotate(45 71.388 19.456)"/>
  <path fill="url(#prefix__m)" d="m65.024 34.305-4.242-4.243 10.606-10.606 4.243 4.242-10.607 10.607Z" clip-rule="evenodd"/>
  <path fill="url(#prefix__n)" d="M76.338 3.192h6v30h-6z" opacity=".55" transform="rotate(45 76.338 3.192)"/>
  <path fill="url(#prefix__o)" d="M64.317 15.213h6v19h-6z" opacity=".55" transform="rotate(45 64.317 15.213)"/>
  <path fill="url(#prefix__p)" d="m59.368 28.648-4.243-4.242 9.192-9.193 4.243 4.243-9.192 9.192Z" clip-rule="evenodd"/>
  <path fill="url(#prefix__q)" d="m45.932 29.355 2.122 13.435-7.072 7.071-5.656-5.656 2.121-16.264 12.728-12.728 2.828 7.071-7.07 7.071Z" clip-rule="evenodd" opacity=".52"/>
  <path fill="url(#prefix__r)" d="M35.443 44.322a12.11 12.11 0 0 1 1.297-1.532l9.771-9.77 1.543 9.77-7.071 7.071-5.54-5.54Z" clip-rule="evenodd" opacity=".45"/>
  <path fill="url(#prefix__s)" d="m38.154 61.175-1.414-1.414a11.982 11.982 0 0 1-2.346-3.311l5.175-5.174 4.242 4.242-5.657 5.657Z" clip-rule="evenodd"/>
  <path fill="url(#prefix__t)" d="M44.294 66.35a11.982 11.982 0 0 1-3.311-2.346l-1.415-1.415 5.657-5.657 4.243 4.243-5.174 5.174Z" clip-rule="evenodd"/>
  <defs>
    <linearGradient id="prefix__a" x1="79.533" x2="77.288" y1="88.125" y2="27.668" gradientUnits="userSpaceOnUse">
      <stop stop-color="#70B1FF" stop-opacity=".4"/>
      <stop offset="1" stop-color="#005CCD"/>
    </linearGradient>
    <linearGradient id="prefix__b" x1="88.764" x2="72.994" y1="-12.674" y2="-8.324" gradientUnits="userSpaceOnUse">
      <stop stop-color="#70B1FF" stop-opacity=".4"/>
      <stop offset="1" stop-color="#005CCD"/>
    </linearGradient>
    <linearGradient id="prefix__c" x1="77.451" x2="63.214" y1="9.492" y2="15.729" gradientUnits="userSpaceOnUse">
      <stop stop-color="#70B1FF" stop-opacity=".4"/>
      <stop offset="1" stop-color="#005CCD"/>
    </linearGradient>
    <linearGradient id="prefix__d" x1="69.222" x2="58.079" y1="16.087" y2="26.455" gradientUnits="userSpaceOnUse">
      <stop stop-color="#6A9CE6"/>
      <stop offset="1" stop-color="#3B73D0"/>
    </linearGradient>
    <linearGradient id="prefix__e" x1="88.764" x2="74.055" y1="7.322" y2="13.087" gradientUnits="userSpaceOnUse">
      <stop stop-color="#70B1FF" stop-opacity=".4"/>
      <stop offset="1" stop-color="#005CCD"/>
    </linearGradient>
    <linearGradient id="prefix__f" x1="81.693" x2="68.08" y1="18.734" y2="25.493" gradientUnits="userSpaceOnUse">
      <stop stop-color="#70B1FF" stop-opacity=".4"/>
      <stop offset="1" stop-color="#005CCD"/>
    </linearGradient>
    <linearGradient id="prefix__g" x1="74.552" x2="64.719" y1="24.553" y2="33.7" gradientUnits="userSpaceOnUse">
      <stop stop-color="#6A9CE6"/>
      <stop offset="1" stop-color="#3B73D0"/>
    </linearGradient>
    <linearGradient id="prefix__h" x1="87.35" x2="71.203" y1="-29.085" y2="-25.441" gradientUnits="userSpaceOnUse">
      <stop stop-color="#70B1FF" stop-opacity=".4"/>
      <stop offset="1" stop-color="#005CCD"/>
    </linearGradient>
    <linearGradient id="prefix__i" x1="33.409" x2="-44.917" y1="8.387" y2="75.733" gradientUnits="userSpaceOnUse">
      <stop stop-color="#70B1FF" stop-opacity=".4"/>
      <stop offset="1" stop-color="#005CCD"/>
    </linearGradient>
    <linearGradient id="prefix__j" x1="27.566" x2="-59.807" y1="-4.299" y2="62.083" gradientUnits="userSpaceOnUse">
      <stop stop-color="#70B1FF" stop-opacity=".4"/>
      <stop offset="1" stop-color="#005CCD"/>
    </linearGradient>
    <linearGradient id="prefix__k" x1=".22" x2="-45.342" y1=".823" y2="87.207" gradientUnits="userSpaceOnUse">
      <stop stop-color="#70B1FF" stop-opacity=".4"/>
      <stop offset="1" stop-color="#005CCD"/>
    </linearGradient>
    <linearGradient id="prefix__l" x1="74.622" x2="59.548" y1="-3.334" y2="2.012" gradientUnits="userSpaceOnUse">
      <stop stop-color="#70B1FF" stop-opacity=".4"/>
      <stop offset="1" stop-color="#005CCD"/>
    </linearGradient>
    <linearGradient id="prefix__m" x1="64.221" x2="50.455" y1="4.813" y2="17.619" gradientUnits="userSpaceOnUse">
      <stop stop-color="#6A9CE6"/>
      <stop offset="1" stop-color="#3B73D0"/>
    </linearGradient>
    <linearGradient id="prefix__n" x1="79.572" x2="63.587" y1="-29.365" y2="-25.396" gradientUnits="userSpaceOnUse">
      <stop stop-color="#70B1FF" stop-opacity=".4"/>
      <stop offset="1" stop-color="#005CCD"/>
    </linearGradient>
    <linearGradient id="prefix__o" x1="67.551" x2="52.842" y1="-5.406" y2=".36" gradientUnits="userSpaceOnUse">
      <stop stop-color="#70B1FF" stop-opacity=".4"/>
      <stop offset="1" stop-color="#005CCD"/>
    </linearGradient>
    <linearGradient id="prefix__p" x1="58.237" x2="45.782" y1="1.965" y2="13.552" gradientUnits="userSpaceOnUse">
      <stop stop-color="#6A9CE6"/>
      <stop offset="1" stop-color="#3B73D0"/>
    </linearGradient>
    <linearGradient id="prefix__q" x1="44.853" x2="9.168" y1="-22.388" y2=".211" gradientUnits="userSpaceOnUse">
      <stop stop-color="#70B1FF" stop-opacity=".4"/>
      <stop offset="1" stop-color="#005CCD"/>
    </linearGradient>
    <linearGradient id="prefix__r" x1="46.337" x2="46.337" y1="49.861" y2="37.605" gradientUnits="userSpaceOnUse">
      <stop stop-color="#5A8EDC"/>
      <stop offset="1" stop-color="#578BDA"/>
    </linearGradient>
    <linearGradient id="prefix__s" x1="37.506" x2="44.301" y1="61.227" y2="55.024" gradientUnits="userSpaceOnUse">
      <stop stop-color="#9FC3F4"/>
      <stop offset="1" stop-color="#9AC0F4"/>
    </linearGradient>
    <linearGradient id="prefix__t" x1="42.84" x2="49.33" y1="66.399" y2="59.85" gradientUnits="userSpaceOnUse">
      <stop stop-color="#9FC3F4"/>
      <stop offset="1" stop-color="#9AC0F4"/>
    </linearGradient>
  </defs>
</svg>
