<svg width="48" height="48" fill="none" viewBox="0 0 48 48" xmlns="http://www.w3.org/2000/svg">
  <path fill="url(#prefix__a)" d="M9 14c4.97 0 9-2.686 9-6s-4.03-6-9-6-9 2.686-9 6 4.03 6 9 6Z" clip-rule="evenodd" opacity=".4"/>
  <path fill="url(#prefix__b)" d="M3.143 12.556C1.219 11.456 0 9.823 0 8h9l-5.857 4.556Z" clip-rule="evenodd" opacity=".4"/>
  <path fill="url(#prefix__c)" d="M14.857 3.444C16.781 4.544 18 6.178 18 8H9l5.857-4.556Z" clip-rule="evenodd" opacity=".4"/>
  <path fill="url(#prefix__d)" d="M39 45c4.97 0 9-2.686 9-6s-4.03-6-9-6-9 2.686-9 6 4.03 6 9 6Z" clip-rule="evenodd" opacity=".4"/>
  <path fill="url(#prefix__e)" d="M33.143 43.556C31.219 42.456 30 40.823 30 39h9l-5.857 4.556Z" clip-rule="evenodd" opacity=".45"/>
  <path fill="url(#prefix__f)" d="M44.857 34.444C46.781 35.544 48 37.177 48 39h-9l5.857-4.556Z" clip-rule="evenodd" opacity=".45"/>
  <path fill="url(#prefix__g)" d="M39 14c-4.97 0-9-2.686-9-6s4.03-6 9-6 9 2.686 9 6-4.03 6-9 6Z" clip-rule="evenodd" opacity=".4"/>
  <path fill="url(#prefix__h)" d="M44.857 12.556 39 8h9c0 1.822-1.219 3.455-3.143 4.556Z" clip-rule="evenodd" opacity=".4"/>
  <path fill="url(#prefix__i)" d="M39 8h-9c0-1.822 1.219-3.455 3.143-4.556L39 8Z" clip-rule="evenodd" opacity=".4"/>
  <path fill="url(#prefix__j)" d="M9 45c-4.97 0-9-2.686-9-6s4.03-6 9-6 9 2.686 9 6-4.03 6-9 6Z" clip-rule="evenodd" opacity=".4"/>
  <path fill="url(#prefix__k)" d="M14.857 43.556 9 39h9c0 1.822-1.219 3.455-3.143 4.556Z" clip-rule="evenodd" opacity=".45"/>
  <path fill="url(#prefix__l)" d="M3.143 34.444 9 39H0c0-1.822 1.219-3.455 3.143-4.556Z" clip-rule="evenodd" opacity=".45"/>
  <path fill="url(#prefix__m)" d="M16.638 14.365a11.5 11.5 0 0 0 14.724 0L39 8v6l-4.394 3.662c-3.646 3.038-3.646 8.638 0 11.677L39 33v6l-7.638-6.365a11.5 11.5 0 0 0-14.724 0L9 39v-6l4.394-3.662c3.646-3.038 3.646-8.638 0-11.677L9 14V8l7.638 6.365Z" clip-rule="evenodd" opacity=".52"/>
  <path fill="url(#prefix__n)" d="M24 27c-3.314 0-6-1.79-6-4s2.686-4 6-4 6 1.79 6 4-2.686 4-6 4Z" clip-rule="evenodd"/>
  <defs>
    <linearGradient id="prefix__a" x1="21.433" x2="12.935" y1="7.531" y2="-4.116" gradientUnits="userSpaceOnUse">
      <stop stop-color="#70B1FF"/>
      <stop offset="1" stop-color="#005CCD"/>
    </linearGradient>
    <linearGradient id="prefix__b" x1="9" x2="0" y1="5.722" y2="5.722" gradientUnits="userSpaceOnUse">
      <stop stop-color="#C6DDF9"/>
      <stop offset="1" stop-color="#005CCD"/>
    </linearGradient>
    <linearGradient id="prefix__c" x1="9" x2="18" y1="10.278" y2="10.278" gradientUnits="userSpaceOnUse">
      <stop stop-color="#C6DDF9"/>
      <stop offset="1" stop-color="#005CCD"/>
    </linearGradient>
    <linearGradient id="prefix__d" x1="51.432" x2="42.935" y1="38.531" y2="26.884" gradientUnits="userSpaceOnUse">
      <stop stop-color="#70B1FF"/>
      <stop offset="1" stop-color="#005CCD"/>
    </linearGradient>
    <linearGradient id="prefix__e" x1="39" x2="30" y1="36.722" y2="36.722" gradientUnits="userSpaceOnUse">
      <stop stop-color="#C6DDF9"/>
      <stop offset="1" stop-color="#005CCD"/>
    </linearGradient>
    <linearGradient id="prefix__f" x1="39" x2="48" y1="41.278" y2="41.278" gradientUnits="userSpaceOnUse">
      <stop stop-color="#C6DDF9"/>
      <stop offset="1" stop-color="#005CCD"/>
    </linearGradient>
    <linearGradient id="prefix__g" x1="26.567" x2="35.065" y1="7.531" y2="-4.116" gradientUnits="userSpaceOnUse">
      <stop stop-color="#70B1FF"/>
      <stop offset="1" stop-color="#005CCD"/>
    </linearGradient>
    <linearGradient id="prefix__h" x1="39" x2="48" y1="10.278" y2="10.278" gradientUnits="userSpaceOnUse">
      <stop stop-color="#C6DDF9"/>
      <stop offset="1" stop-color="#005CCD"/>
    </linearGradient>
    <linearGradient id="prefix__i" x1="39" x2="30" y1="5.722" y2="5.722" gradientUnits="userSpaceOnUse">
      <stop stop-color="#C6DDF9"/>
      <stop offset="1" stop-color="#005CCD"/>
    </linearGradient>
    <linearGradient id="prefix__j" x1="-3.432" x2="5.065" y1="38.531" y2="26.884" gradientUnits="userSpaceOnUse">
      <stop stop-color="#70B1FF"/>
      <stop offset="1" stop-color="#005CCD"/>
    </linearGradient>
    <linearGradient id="prefix__k" x1="9" x2="18" y1="41.278" y2="41.278" gradientUnits="userSpaceOnUse">
      <stop stop-color="#C6DDF9"/>
      <stop offset="1" stop-color="#005CCD"/>
    </linearGradient>
    <linearGradient id="prefix__l" x1="9" x2="0" y1="36.722" y2="36.722" gradientUnits="userSpaceOnUse">
      <stop stop-color="#C6DDF9"/>
      <stop offset="1" stop-color="#005CCD"/>
    </linearGradient>
    <linearGradient id="prefix__m" x1="20.83" x2="20.83" y1="1.449" y2="39" gradientUnits="userSpaceOnUse">
      <stop stop-color="#70B1FF"/>
      <stop offset="1" stop-color="#005CCD"/>
    </linearGradient>
    <linearGradient id="prefix__n" x1="13.149" x2="13.149" y1="33.468" y2="19" gradientUnits="userSpaceOnUse">
      <stop stop-color="#295296"/>
      <stop offset="1" stop-color="#3E78D3"/>
    </linearGradient>
  </defs>
</svg>
