<svg width="96" height="96" fill="none" viewBox="0 0 96 96" xmlns="http://www.w3.org/2000/svg">
  <path fill="url(#prefix__a)" d="M96 64H0V49l3-6h7l15.23-6.346A47.5 47.5 0 0 1 43.5 33c6.194 0 12.25 1.834 17.404 5.27L68 43c11.534.997 19.868 3.33 25 7l3 5v9Z" clip-rule="evenodd" opacity=".42"/>
  <path fill="url(#prefix__b)" d="m10 43 15.23-6.346A47.5 47.5 0 0 1 43.5 33c6.194 0 12.25 1.834 17.404 5.27L68 43H10Z" clip-rule="evenodd"/>
  <path fill="url(#prefix__c)" d="M16.5 70a7.5 7.5 0 1 0 0-15 7.5 7.5 0 0 0 0 15Z" clip-rule="evenodd" opacity=".5"/>
  <path fill="url(#prefix__d)" d="M76.5 70a7.5 7.5 0 1 0 0-15 7.5 7.5 0 0 0 0 15Z" clip-rule="evenodd" opacity=".5"/>
  <path fill="url(#prefix__e)" d="m93 50 3 5h-6.615a5 5 0 0 1-4.642-3.143L84 50h9Z" clip-rule="evenodd"/>
  <path fill="url(#prefix__f)" d="M0 49h9l-3 6H0v-6Z" clip-rule="evenodd"/>
  <path fill="url(#prefix__g)" d="M76.992 81.991c-16.012 16.012-41.972 16.012-57.983 0L48 53l28.992 28.991Z" clip-rule="evenodd" opacity=".25"/>
  <path fill="url(#prefix__h)" d="m72.749 77.749 4.243 4.242c-16.012 16.012-41.972 16.012-57.983 0l4.242-4.242c13.669 13.668 35.83 13.668 49.498 0Z" clip-rule="evenodd" opacity=".35"/>
  <path fill="url(#prefix__i)" d="M62.768 67.85 67 71.742c-10.519 9.676-27.573 9.676-38.092 0l4.233-3.894c8.18 7.526 21.445 7.526 29.627 0Z" clip-rule="evenodd" opacity=".35"/>
  <path fill="url(#prefix__j)" d="M76.992 14.009 48 43 19.01 14.009c16.011-16.012 41.971-16.012 57.983 0Z" clip-rule="evenodd" opacity=".23"/>
  <path fill="url(#prefix__k)" d="M72.749 18.251c-13.668-13.668-35.83-13.668-49.498 0L19.01 14.01c16.011-16.012 41.971-16.012 57.983 0l-4.243 4.242Z" clip-rule="evenodd" opacity=".35"/>
  <path fill="url(#prefix__l)" d="M62.85 28.15c-8.202-8.2-21.498-8.2-29.7 0l-4.242-4.242c10.544-10.544 27.64-10.544 38.184 0l-4.243 4.243Z" clip-rule="evenodd" opacity=".35"/>
  <path fill="url(#prefix__m)" d="m37 64 11-11 11 11H37Z" clip-rule="evenodd"/>
  <path fill="url(#prefix__n)" d="M38.287 33.287A47.516 47.516 0 0 1 43.5 33c4.167 0 8.272.83 12.081 2.419L48.001 43l-9.714-9.713Z" clip-rule="evenodd"/>
  <path fill="url(#prefix__o)" d="M83.85 64h-14.7a7.5 7.5 0 1 1 14.7 0Z" clip-rule="evenodd"/>
  <path fill="url(#prefix__p)" d="M23.85 64H9.15a7.5 7.5 0 1 1 14.7 0Z" clip-rule="evenodd"/>
  <defs>
    <linearGradient id="prefix__a" x1="138.782" x2="121.199" y1="49.877" y2="-.653" gradientUnits="userSpaceOnUse">
      <stop stop-color="#70B1FF"/>
      <stop offset="1" stop-color="#005CCD"/>
    </linearGradient>
    <linearGradient id="prefix__b" x1="68" x2="11.452" y1="38.125" y2="38.125" gradientUnits="userSpaceOnUse">
      <stop stop-color="#8DB9F6"/>
      <stop offset="1" stop-color="#6F9CDE"/>
    </linearGradient>
    <linearGradient id="prefix__c" x1="15.752" x2="5.601" y1="51.763" y2="62.871" gradientUnits="userSpaceOnUse">
      <stop stop-color="#70B1FF"/>
      <stop offset="1" stop-color="#005CCD"/>
    </linearGradient>
    <linearGradient id="prefix__d" x1="75.752" x2="65.601" y1="51.763" y2="62.871" gradientUnits="userSpaceOnUse">
      <stop stop-color="#70B1FF"/>
      <stop offset="1" stop-color="#005CCD"/>
    </linearGradient>
    <linearGradient id="prefix__e" x1="99.215" x2="96.135" y1="52.025" y2="44.815" gradientUnits="userSpaceOnUse">
      <stop stop-color="#91BFFE"/>
      <stop offset="1" stop-color="#6EA1E8"/>
    </linearGradient>
    <linearGradient id="prefix__f" x1="10.608" x2="7.317" y1="52.964" y2="45.689" gradientUnits="userSpaceOnUse">
      <stop stop-color="#6C9DE5"/>
      <stop offset="1" stop-color="#5B8ED9"/>
    </linearGradient>
    <linearGradient id="prefix__g" x1="76.992" x2="19.009" y1="61.353" y2="61.353" gradientUnits="userSpaceOnUse">
      <stop stop-color="#70B1FF"/>
      <stop offset="1" stop-color="#005CCD"/>
    </linearGradient>
    <linearGradient id="prefix__h" x1="76.992" x2="19.009" y1="73.902" y2="73.902" gradientUnits="userSpaceOnUse">
      <stop stop-color="#70B1FF"/>
      <stop offset="1" stop-color="#005CCD"/>
    </linearGradient>
    <linearGradient id="prefix__i" x1="67" x2="28.908" y1="65.21" y2="65.21" gradientUnits="userSpaceOnUse">
      <stop stop-color="#70B1FF"/>
      <stop offset="1" stop-color="#005CCD"/>
    </linearGradient>
    <linearGradient id="prefix__j" x1="19.009" x2="76.992" y1="50.664" y2="50.664" gradientUnits="userSpaceOnUse">
      <stop stop-color="#70B1FF"/>
      <stop offset="1" stop-color="#005CCD"/>
    </linearGradient>
    <linearGradient id="prefix__k" x1="19.009" x2="76.992" y1="14.332" y2="14.332" gradientUnits="userSpaceOnUse">
      <stop stop-color="#70B1FF"/>
      <stop offset="1" stop-color="#005CCD"/>
    </linearGradient>
    <linearGradient id="prefix__l" x1="28.908" x2="67.092" y1="25.22" y2="25.22" gradientUnits="userSpaceOnUse">
      <stop stop-color="#70B1FF"/>
      <stop offset="1" stop-color="#005CCD"/>
    </linearGradient>
    <linearGradient id="prefix__m" x1="37.634" x2="50.584" y1="72.533" y2="55.745" gradientUnits="userSpaceOnUse">
      <stop stop-color="#295296"/>
      <stop offset="1" stop-color="#3E78D3"/>
    </linearGradient>
    <linearGradient id="prefix__n" x1="49.734" x2="43.361" y1="23.649" y2="41.742" gradientUnits="userSpaceOnUse">
      <stop stop-color="#295296"/>
      <stop offset="1" stop-color="#3E78D3"/>
    </linearGradient>
    <linearGradient id="prefix__o" x1="77.234" x2="69.198" y1="54.071" y2="64.157" gradientUnits="userSpaceOnUse">
      <stop stop-color="#84B5FB"/>
      <stop offset="1" stop-color="#6297E5"/>
    </linearGradient>
    <linearGradient id="prefix__p" x1="17.234" x2="9.197" y1="54.071" y2="64.157" gradientUnits="userSpaceOnUse">
      <stop stop-color="#70A2EE"/>
      <stop offset="1" stop-color="#5085D8"/>
    </linearGradient>
  </defs>
</svg>
