<svg width="48" height="48" fill="none" viewBox="0 0 48 48" xmlns="http://www.w3.org/2000/svg">
  <path fill="url(#prefix__a)" d="m38 5 5 5v28l-5 5H10l-5-5V10l5-5h28Z" clip-rule="evenodd" opacity=".35"/>
  <path fill="url(#prefix__b)" d="M18 0h4v12h-4z" opacity=".3"/>
  <path fill="url(#prefix__c)" d="M10 0h4v12h-4z" opacity=".3"/>
  <path fill="url(#prefix__d)" d="M26 0h4v12h-4z" opacity=".3"/>
  <path fill="url(#prefix__e)" d="M34 0h4v12h-4z" opacity=".3"/>
  <path fill="url(#prefix__f)" d="M18 5h4v7h-4z"/>
  <path fill="url(#prefix__g)" d="M10 5h4v7h-4z"/>
  <path fill="url(#prefix__h)" d="M26 5h4v7h-4z"/>
  <path fill="url(#prefix__i)" d="M34 5h4v7h-4z"/>
  <path fill="url(#prefix__j)" d="M18 36h4v12h-4V36Z" clip-rule="evenodd" opacity=".3"/>
  <path fill="url(#prefix__k)" d="M10 36h4v12h-4V36Z" clip-rule="evenodd" opacity=".3"/>
  <path fill="url(#prefix__l)" d="M26 36h4v12h-4V36Z" clip-rule="evenodd" opacity=".3"/>
  <path fill="url(#prefix__m)" d="M34 36h4v12h-4V36Z" clip-rule="evenodd" opacity=".3"/>
  <path fill="url(#prefix__n)" d="M18 36h4v7h-4v-7Z" clip-rule="evenodd"/>
  <path fill="url(#prefix__o)" d="M10 36h4v7h-4v-7Z" clip-rule="evenodd"/>
  <path fill="url(#prefix__p)" d="M26 36h4v7h-4v-7Z" clip-rule="evenodd"/>
  <path fill="url(#prefix__q)" d="M34 36h4v7h-4v-7Z" clip-rule="evenodd"/>
  <path fill="url(#prefix__r)" d="M48 18v4H36v-4h12Z" clip-rule="evenodd" opacity=".3"/>
  <path fill="url(#prefix__s)" d="M48 10v4H36v-4h12Z" clip-rule="evenodd" opacity=".3"/>
  <path fill="url(#prefix__t)" d="M48 26v4H36v-4h12Z" clip-rule="evenodd" opacity=".3"/>
  <path fill="url(#prefix__u)" d="M48 34v4H36v-4h12Z" clip-rule="evenodd" opacity=".3"/>
  <path fill="url(#prefix__v)" d="M43 18v4h-7v-4h7Z" clip-rule="evenodd" opacity=".3"/>
  <path fill="url(#prefix__w)" d="M43 10v4h-7v-4h7Z" clip-rule="evenodd" opacity=".3"/>
  <path fill="url(#prefix__x)" d="M43 26v4h-7v-4h7Z" clip-rule="evenodd" opacity=".3"/>
  <path fill="url(#prefix__y)" d="M43 34v4h-7v-4h7Z" clip-rule="evenodd" opacity=".3"/>
  <path fill="url(#prefix__z)" d="M12 18v4H0v-4h12Z" clip-rule="evenodd" opacity=".3"/>
  <path fill="url(#prefix__A)" d="M12 10v4H0v-4h12Z" clip-rule="evenodd" opacity=".3"/>
  <path fill="url(#prefix__B)" d="M12 26v4H0v-4h12Z" clip-rule="evenodd" opacity=".3"/>
  <path fill="url(#prefix__C)" d="M12 34v4H0v-4h12Z" clip-rule="evenodd" opacity=".3"/>
  <path fill="url(#prefix__D)" d="M12 18v4H5v-4h7Z" clip-rule="evenodd"/>
  <path fill="url(#prefix__E)" d="M12 10v4H5v-4h7Z" clip-rule="evenodd"/>
  <path fill="url(#prefix__F)" d="M12 26v4H5v-4h7Z" clip-rule="evenodd"/>
  <path fill="url(#prefix__G)" d="M12 34v4H5v-4h7Z" clip-rule="evenodd"/>
  <path fill="url(#prefix__H)" d="M10 10h4v4h-4z"/>
  <path fill="url(#prefix__I)" d="M34 10h4v4h-4z"/>
  <rect width="14" height="14" x="17" y="17" fill="url(#prefix__J)" rx="2"/>
  <path fill="url(#prefix__K)" d="M34 34h4v4h-4z"/>
  <path fill="url(#prefix__L)" d="M10 34h4v4h-4z"/>
  <defs>
    <linearGradient id="prefix__a" x1="24" x2="-14" y1="-14" y2="24" gradientUnits="userSpaceOnUse">
      <stop stop-color="#70B1FF"/>
      <stop offset="1" stop-color="#005CCD"/>
    </linearGradient>
    <linearGradient id="prefix__b" x1="20" x2="12.8" y1="-6" y2="-3.6" gradientUnits="userSpaceOnUse">
      <stop stop-color="#70B1FF"/>
      <stop offset="1" stop-color="#005CCD"/>
    </linearGradient>
    <linearGradient id="prefix__c" x1="12" x2="4.8" y1="-6" y2="-3.6" gradientUnits="userSpaceOnUse">
      <stop stop-color="#70B1FF"/>
      <stop offset="1" stop-color="#005CCD"/>
    </linearGradient>
    <linearGradient id="prefix__d" x1="28" x2="20.8" y1="-6" y2="-3.6" gradientUnits="userSpaceOnUse">
      <stop stop-color="#70B1FF"/>
      <stop offset="1" stop-color="#005CCD"/>
    </linearGradient>
    <linearGradient id="prefix__e" x1="36" x2="28.8" y1="-6" y2="-3.6" gradientUnits="userSpaceOnUse">
      <stop stop-color="#70B1FF"/>
      <stop offset="1" stop-color="#005CCD"/>
    </linearGradient>
    <linearGradient id="prefix__f" x1="20" x2="13.969" y1="1.5" y2="4.946" gradientUnits="userSpaceOnUse">
      <stop stop-color="#8EBAF7"/>
      <stop offset="1" stop-color="#80AEF0"/>
    </linearGradient>
    <linearGradient id="prefix__g" x1="12" x2="5.969" y1="1.5" y2="4.946" gradientUnits="userSpaceOnUse">
      <stop stop-color="#8EBAF7"/>
      <stop offset="1" stop-color="#80AEF0"/>
    </linearGradient>
    <linearGradient id="prefix__h" x1="28" x2="21.969" y1="1.5" y2="4.946" gradientUnits="userSpaceOnUse">
      <stop stop-color="#8EBAF7"/>
      <stop offset="1" stop-color="#80AEF0"/>
    </linearGradient>
    <linearGradient id="prefix__i" x1="36" x2="29.969" y1="1.5" y2="4.946" gradientUnits="userSpaceOnUse">
      <stop stop-color="#8EBAF7"/>
      <stop offset="1" stop-color="#80AEF0"/>
    </linearGradient>
    <linearGradient id="prefix__j" x1="20" x2="12.8" y1="30" y2="32.4" gradientUnits="userSpaceOnUse">
      <stop stop-color="#70B1FF"/>
      <stop offset="1" stop-color="#005CCD"/>
    </linearGradient>
    <linearGradient id="prefix__k" x1="12" x2="4.8" y1="30" y2="32.4" gradientUnits="userSpaceOnUse">
      <stop stop-color="#70B1FF"/>
      <stop offset="1" stop-color="#005CCD"/>
    </linearGradient>
    <linearGradient id="prefix__l" x1="28" x2="20.8" y1="30" y2="32.4" gradientUnits="userSpaceOnUse">
      <stop stop-color="#70B1FF"/>
      <stop offset="1" stop-color="#005CCD"/>
    </linearGradient>
    <linearGradient id="prefix__m" x1="36" x2="28.8" y1="30" y2="32.4" gradientUnits="userSpaceOnUse">
      <stop stop-color="#70B1FF"/>
      <stop offset="1" stop-color="#005CCD"/>
    </linearGradient>
    <linearGradient id="prefix__n" x1="20.328" x2="14.796" y1="33.65" y2="36.292" gradientUnits="userSpaceOnUse">
      <stop stop-color="#7EACEE"/>
      <stop offset="1" stop-color="#6C9AE1"/>
    </linearGradient>
    <linearGradient id="prefix__o" x1="12.329" x2="6.796" y1="33.65" y2="36.292" gradientUnits="userSpaceOnUse">
      <stop stop-color="#7EACEE"/>
      <stop offset="1" stop-color="#6C9AE1"/>
    </linearGradient>
    <linearGradient id="prefix__p" x1="28.328" x2="22.796" y1="33.65" y2="36.292" gradientUnits="userSpaceOnUse">
      <stop stop-color="#7EACEE"/>
      <stop offset="1" stop-color="#6C9AE1"/>
    </linearGradient>
    <linearGradient id="prefix__q" x1="36.328" x2="30.796" y1="33.65" y2="36.292" gradientUnits="userSpaceOnUse">
      <stop stop-color="#7EACEE"/>
      <stop offset="1" stop-color="#6C9AE1"/>
    </linearGradient>
    <linearGradient id="prefix__r" x1="42" x2="39.6" y1="16" y2="23.2" gradientUnits="userSpaceOnUse">
      <stop stop-color="#70B1FF"/>
      <stop offset="1" stop-color="#005CCD"/>
    </linearGradient>
    <linearGradient id="prefix__s" x1="42" x2="39.6" y1="8" y2="15.2" gradientUnits="userSpaceOnUse">
      <stop stop-color="#70B1FF"/>
      <stop offset="1" stop-color="#005CCD"/>
    </linearGradient>
    <linearGradient id="prefix__t" x1="42" x2="39.6" y1="24" y2="31.2" gradientUnits="userSpaceOnUse">
      <stop stop-color="#70B1FF"/>
      <stop offset="1" stop-color="#005CCD"/>
    </linearGradient>
    <linearGradient id="prefix__u" x1="42" x2="39.6" y1="32" y2="39.2" gradientUnits="userSpaceOnUse">
      <stop stop-color="#70B1FF"/>
      <stop offset="1" stop-color="#005CCD"/>
    </linearGradient>
    <linearGradient id="prefix__v" x1="39.5" x2="36.054" y1="16" y2="22.031" gradientUnits="userSpaceOnUse">
      <stop stop-color="#70B1FF"/>
      <stop offset="1" stop-color="#005CCD"/>
    </linearGradient>
    <linearGradient id="prefix__w" x1="39.5" x2="36.054" y1="8" y2="14.031" gradientUnits="userSpaceOnUse">
      <stop stop-color="#70B1FF"/>
      <stop offset="1" stop-color="#005CCD"/>
    </linearGradient>
    <linearGradient id="prefix__x" x1="39.5" x2="36.054" y1="24" y2="30.031" gradientUnits="userSpaceOnUse">
      <stop stop-color="#70B1FF"/>
      <stop offset="1" stop-color="#005CCD"/>
    </linearGradient>
    <linearGradient id="prefix__y" x1="39.5" x2="36.054" y1="32" y2="38.031" gradientUnits="userSpaceOnUse">
      <stop stop-color="#70B1FF"/>
      <stop offset="1" stop-color="#005CCD"/>
    </linearGradient>
    <linearGradient id="prefix__z" x1="6" x2="3.6" y1="16" y2="23.2" gradientUnits="userSpaceOnUse">
      <stop stop-color="#70B1FF"/>
      <stop offset="1" stop-color="#005CCD"/>
    </linearGradient>
    <linearGradient id="prefix__A" x1="6" x2="3.6" y1="8" y2="15.2" gradientUnits="userSpaceOnUse">
      <stop stop-color="#70B1FF"/>
      <stop offset="1" stop-color="#005CCD"/>
    </linearGradient>
    <linearGradient id="prefix__B" x1="6" x2="3.6" y1="24" y2="31.2" gradientUnits="userSpaceOnUse">
      <stop stop-color="#70B1FF"/>
      <stop offset="1" stop-color="#005CCD"/>
    </linearGradient>
    <linearGradient id="prefix__C" x1="6" x2="3.6" y1="32" y2="39.2" gradientUnits="userSpaceOnUse">
      <stop stop-color="#70B1FF"/>
      <stop offset="1" stop-color="#005CCD"/>
    </linearGradient>
    <linearGradient id="prefix__D" x1="9.075" x2="5.287" y1="16.657" y2="22.197" gradientUnits="userSpaceOnUse">
      <stop stop-color="#7CAAEC"/>
      <stop offset="1" stop-color="#6C9AE1"/>
    </linearGradient>
    <linearGradient id="prefix__E" x1="9.075" x2="5.287" y1="8.657" y2="14.197" gradientUnits="userSpaceOnUse">
      <stop stop-color="#7CAAEC"/>
      <stop offset="1" stop-color="#6C9AE1"/>
    </linearGradient>
    <linearGradient id="prefix__F" x1="9.075" x2="5.287" y1="24.657" y2="30.197" gradientUnits="userSpaceOnUse">
      <stop stop-color="#7CAAEC"/>
      <stop offset="1" stop-color="#6C9AE1"/>
    </linearGradient>
    <linearGradient id="prefix__G" x1="9.075" x2="5.287" y1="32.657" y2="38.197" gradientUnits="userSpaceOnUse">
      <stop stop-color="#7CAAEC"/>
      <stop offset="1" stop-color="#6C9AE1"/>
    </linearGradient>
    <linearGradient id="prefix__H" x1="17.679" x2="12.56" y1="12.56" y2="7.44" gradientUnits="userSpaceOnUse">
      <stop stop-color="#295296"/>
      <stop offset="1" stop-color="#3E78D3"/>
    </linearGradient>
    <linearGradient id="prefix__I" x1="41.679" x2="36.56" y1="12.56" y2="7.44" gradientUnits="userSpaceOnUse">
      <stop stop-color="#295296"/>
      <stop offset="1" stop-color="#3E78D3"/>
    </linearGradient>
    <linearGradient id="prefix__J" x1="24" x2="38" y1="38" y2="24" gradientUnits="userSpaceOnUse">
      <stop stop-color="#75A7F1"/>
      <stop offset="1" stop-color="#6C9EEB"/>
    </linearGradient>
    <linearGradient id="prefix__K" x1="41.679" x2="36.56" y1="36.56" y2="31.44" gradientUnits="userSpaceOnUse">
      <stop stop-color="#295296"/>
      <stop offset="1" stop-color="#3E78D3"/>
    </linearGradient>
    <linearGradient id="prefix__L" x1="17.679" x2="12.56" y1="36.56" y2="31.44" gradientUnits="userSpaceOnUse">
      <stop stop-color="#295296"/>
      <stop offset="1" stop-color="#3E78D3"/>
    </linearGradient>
  </defs>
</svg>
