<svg width="48" height="48" fill="none" viewBox="0 0 48 48" xmlns="http://www.w3.org/2000/svg">
  <path fill="url(#prefix__a)" d="M35.783 9.596a6.532 6.532 0 0 0 2.003 2.24l-5.142 5.141a12.568 12.568 0 0 0-2.302-1.94l5.441-5.441Z" clip-rule="evenodd" opacity=".32"/>
  <path fill="url(#prefix__b)" d="M41.5 13a6.5 6.5 0 1 0 0-13 6.5 6.5 0 0 0 0 13Z" clip-rule="evenodd" opacity=".28"/>
  <path fill="url(#prefix__c)" d="M23.5 41C32.06 41 39 34.06 39 25.5 39 16.94 32.06 10 23.5 10 14.94 10 8 16.94 8 25.5 8 34.06 14.94 41 23.5 41Z" clip-rule="evenodd" opacity=".22"/>
  <path fill="url(#prefix__d)" d="M8 25.5C8 34.06 14.94 41 23.5 41 32.06 41 39 34.06 39 25.5 39 16.94 32.06 10 23.5 10 14.94 10 8 16.94 8 25.5Zm28 0C36 32.404 30.404 38 23.5 38S11 32.404 11 25.5 16.596 13 23.5 13 36 18.596 36 25.5Z" clip-rule="evenodd" opacity=".42"/>
  <path fill="url(#prefix__e)" d="M10.115 39.507a5.524 5.524 0 0 0-2.263-1.98l5.185-5.185a12.564 12.564 0 0 0 1.94 2.302l-4.862 4.863Z" clip-rule="evenodd" opacity=".32"/>
  <path fill="url(#prefix__f)" d="M5.5 48a5.5 5.5 0 1 0 0-11 5.5 5.5 0 0 0 0 11Z" clip-rule="evenodd" opacity=".48"/>
  <path fill="url(#prefix__g)" d="M41.337 27h-5.426a12.632 12.632 0 0 0 0-3h5.426A3.487 3.487 0 0 0 41 25.5c0 .537.121 1.045.337 1.5Z" clip-rule="evenodd" opacity=".32"/>
  <path fill="url(#prefix__h)" d="M44.5 29a3.5 3.5 0 1 0 0-7 3.5 3.5 0 0 0 0 7Z" clip-rule="evenodd" opacity=".4"/>
  <path fill="url(#prefix__i)" d="M25.5 24a4.5 4.5 0 1 1 0 9h-8v-3h8a1.5 1.5 0 0 0 0-3h-5a4.5 4.5 0 1 1 0-9h8v3h-8a1.5 1.5 0 0 0 0 3h5Z" opacity=".54"/>
  <path fill="url(#prefix__j)" d="M6.09 8.711a4.515 4.515 0 0 0 2.298-1.944l8.27 8.27a12.568 12.568 0 0 0-2.302 1.94L6.09 8.711Z" clip-rule="evenodd" opacity=".32"/>
  <path fill="url(#prefix__k)" d="M4.5 9a4.5 4.5 0 1 0 0-9 4.5 4.5 0 0 0 0 9Z" clip-rule="evenodd" opacity=".32"/>
  <path fill="#D8D8D8" d="M24 24v3h-3.5a4.5 4.5 0 1 1 0-9H29v3h-8.5a1.5 1.5 0 0 0 0 3H24Z" clip-rule="evenodd"/>
  <path fill="#D8D8D8" d="M22 27v-3h3.5a4.5 4.5 0 1 1 0 9H17v-3h8.5a1.5 1.5 0 0 0 0-3H22Z" clip-rule="evenodd"/>
  <path fill="url(#prefix__l)" d="M25.5 27h-5a4.5 4.5 0 1 1 0-9H29v3h-8.5a1.5 1.5 0 0 0 0 3h5a4.5 4.5 0 1 1 0 9H17v-3h8.5a1.5 1.5 0 0 0 0-3Z" clip-rule="evenodd" opacity=".54"/>
  <path fill="url(#prefix__m)" d="M22 15h3v21h-3V15Z" clip-rule="evenodd" opacity=".45"/>
  <path fill="url(#prefix__n)" d="M22 18h3v3h-3v-3Zm0 6h3v3h-3v-3Zm0 6h3v3h-3v-3Z" clip-rule="evenodd"/>
  <defs>
    <linearGradient id="prefix__a" x1="34.289" x2="28.882" y1="7.766" y2="13.181" gradientUnits="userSpaceOnUse">
      <stop stop-color="#70B1FF"/>
      <stop offset="1" stop-color="#005CCD"/>
    </linearGradient>
    <linearGradient id="prefix__b" x1="36.514" x2="30.132" y1="-5.802" y2="7.134" gradientUnits="userSpaceOnUse">
      <stop stop-color="#70B1FF"/>
      <stop offset="1" stop-color="#005CCD"/>
    </linearGradient>
    <linearGradient id="prefix__c" x1="11.611" x2="-3.607" y1="-3.837" y2="27.012" gradientUnits="userSpaceOnUse">
      <stop stop-color="#70B1FF"/>
      <stop offset="1" stop-color="#005CCD"/>
    </linearGradient>
    <linearGradient id="prefix__d" x1="11.611" x2="-3.607" y1="-3.837" y2="27.012" gradientUnits="userSpaceOnUse">
      <stop stop-color="#70B1FF"/>
      <stop offset="1" stop-color="#005CCD"/>
    </linearGradient>
    <linearGradient id="prefix__e" x1="9.779" x2="14.452" y1="39.404" y2="35.554" gradientUnits="userSpaceOnUse">
      <stop stop-color="#70B1FF"/>
      <stop offset="1" stop-color="#005CCD"/>
    </linearGradient>
    <linearGradient id="prefix__f" x1="1.281" x2="-4.119" y1="32.09" y2="43.037" gradientUnits="userSpaceOnUse">
      <stop stop-color="#70B1FF"/>
      <stop offset="1" stop-color="#005CCD"/>
    </linearGradient>
    <linearGradient id="prefix__g" x1="41.337" x2="35.911" y1="24.883" y2="24.883" gradientUnits="userSpaceOnUse">
      <stop stop-color="#70B1FF"/>
      <stop offset="1" stop-color="#005CCD"/>
    </linearGradient>
    <linearGradient id="prefix__h" x1="41.815" x2="38.379" y1="18.876" y2="25.841" gradientUnits="userSpaceOnUse">
      <stop stop-color="#70B1FF"/>
      <stop offset="1" stop-color="#005CCD"/>
    </linearGradient>
    <linearGradient id="prefix__i" x1="17.631" x2="9.963" y1="11.305" y2="25.812" gradientUnits="userSpaceOnUse">
      <stop stop-color="#70B1FF"/>
      <stop offset="1" stop-color="#005CCD"/>
    </linearGradient>
    <linearGradient id="prefix__j" x1="3.049" x2="11.01" y1="11.607" y2="20.385" gradientUnits="userSpaceOnUse">
      <stop stop-color="#70B1FF"/>
      <stop offset="1" stop-color="#005CCD"/>
    </linearGradient>
    <linearGradient id="prefix__k" x1="1.048" x2="-3.37" y1="-4.017" y2="4.939" gradientUnits="userSpaceOnUse">
      <stop stop-color="#70B1FF"/>
      <stop offset="1" stop-color="#005CCD"/>
    </linearGradient>
    <linearGradient id="prefix__l" x1="17.631" x2="9.963" y1="11.305" y2="25.812" gradientUnits="userSpaceOnUse">
      <stop stop-color="#70B1FF"/>
      <stop offset="1" stop-color="#005CCD"/>
    </linearGradient>
    <linearGradient id="prefix__m" x1="22.349" x2="15.407" y1="5.627" y2="7.637" gradientUnits="userSpaceOnUse">
      <stop stop-color="#70B1FF"/>
      <stop offset="1" stop-color="#005CCD"/>
    </linearGradient>
    <linearGradient id="prefix__n" x1="23.5" x2="29.269" y1="40.5" y2="39.346" gradientUnits="userSpaceOnUse">
      <stop stop-color="#295296"/>
      <stop offset="1" stop-color="#3E78D3"/>
    </linearGradient>
  </defs>
</svg>
