<svg width="96" height="96" fill="none" viewBox="0 0 96 96" xmlns="http://www.w3.org/2000/svg">
  <path fill="url(#prefix__a)" d="M82 28c7.732 0 14-6.268 14-14S89.732 0 82 0 68 6.268 68 14s6.268 14 14 14Z" clip-rule="evenodd" opacity=".28"/>
  <path fill="url(#prefix__b)" d="M46 81c16.569 0 30-13.431 30-30 0-16.569-13.431-30-30-30-16.569 0-30 13.431-30 30 0 16.569 13.431 30 30 30Z" clip-rule="evenodd" opacity=".22"/>
  <path fill="url(#prefix__c)" d="M16 51c0 16.569 13.431 30 30 30 16.569 0 30-13.431 30-30 0-16.569-13.431-30-30-30-16.569 0-30 13.431-30 30Zm54 0c0 13.255-10.745 24-24 24S22 64.255 22 51s10.745-24 24-24 24 10.745 24 24Z" clip-rule="evenodd" opacity=".42"/>
  <path fill="url(#prefix__d)" d="M10 20c5.523 0 10-4.477 10-10S15.523 0 10 0 0 4.477 0 10s4.477 10 10 10Z" clip-rule="evenodd" opacity=".32"/>
  <path fill="url(#prefix__e)" d="M12 96c6.627 0 12-5.373 12-12s-5.373-12-12-12S0 77.373 0 84s5.373 12 12 12Z" clip-rule="evenodd" opacity=".48"/>
  <path fill="url(#prefix__f)" d="M90 57a6 6 0 1 0 0-12 6 6 0 0 0 0 12Z" clip-rule="evenodd" opacity=".4"/>
  <path fill="url(#prefix__g)" d="M84.803 48A5.972 5.972 0 0 0 84 51c0 1.093.292 2.117.803 3H69.814a24.247 24.247 0 0 0 0-6h14.989Z" clip-rule="evenodd" opacity=".32"/>
  <path fill="url(#prefix__h)" d="M43 30h6v42h-6V30Z" clip-rule="evenodd" opacity=".45"/>
  <path fill="url(#prefix__i)" d="M22.338 77.904a12.06 12.06 0 0 0-4.242-4.243l8.514-8.514a24.14 24.14 0 0 0 4.118 4.368l-8.39 8.39Z" clip-rule="evenodd" opacity=".32"/>
  <path fill="url(#prefix__j)" d="m74.45 25.792-9.935 9.936a24.138 24.138 0 0 0-4.368-4.117l10.061-10.062a14.074 14.074 0 0 0 4.243 4.243Z" clip-rule="evenodd" opacity=".32"/>
  <path fill="url(#prefix__k)" d="m19.19 13.948 15.748 15.748a24.057 24.057 0 0 0-5.007 3.477L15.262 18.505a10.04 10.04 0 0 0 3.928-4.557Z" clip-rule="evenodd" opacity=".32"/>
  <path fill="url(#prefix__l)" d="M51 48a9 9 0 1 1 0 18H35v-6h16a3 3 0 1 0 0-6H41a9 9 0 1 1 0-18h16v6H41a3 3 0 1 0 0 6h10Z" opacity=".54"/>
  <path fill="url(#prefix__m)" d="M43 36h6v6h-6v-6Zm0 24h6v6h-6v-6Zm0-12h6v6h-6v-6Z" clip-rule="evenodd"/>
  <defs>
    <linearGradient id="prefix__a" x1="71.261" x2="57.516" y1="-12.498" y2="15.366" gradientUnits="userSpaceOnUse">
      <stop stop-color="#70B1FF"/>
      <stop offset="1" stop-color="#005CCD"/>
    </linearGradient>
    <linearGradient id="prefix__b" x1="22.988" x2="-6.466" y1="-5.781" y2="53.927" gradientUnits="userSpaceOnUse">
      <stop stop-color="#70B1FF"/>
      <stop offset="1" stop-color="#005CCD"/>
    </linearGradient>
    <linearGradient id="prefix__c" x1="22.988" x2="-6.466" y1="-5.781" y2="53.927" gradientUnits="userSpaceOnUse">
      <stop stop-color="#70B1FF"/>
      <stop offset="1" stop-color="#005CCD"/>
    </linearGradient>
    <linearGradient id="prefix__d" x1="2.329" x2="-7.489" y1="-8.927" y2="10.976" gradientUnits="userSpaceOnUse">
      <stop stop-color="#70B1FF"/>
      <stop offset="1" stop-color="#005CCD"/>
    </linearGradient>
    <linearGradient id="prefix__e" x1="2.795" x2="-8.986" y1="61.288" y2="85.171" gradientUnits="userSpaceOnUse">
      <stop stop-color="#70B1FF"/>
      <stop offset="1" stop-color="#005CCD"/>
    </linearGradient>
    <linearGradient id="prefix__f" x1="85.398" x2="79.507" y1="39.644" y2="51.585" gradientUnits="userSpaceOnUse">
      <stop stop-color="#70B1FF"/>
      <stop offset="1" stop-color="#005CCD"/>
    </linearGradient>
    <linearGradient id="prefix__g" x1="84.803" x2="69.814" y1="49.765" y2="49.765" gradientUnits="userSpaceOnUse">
      <stop stop-color="#70B1FF"/>
      <stop offset="1" stop-color="#005CCD"/>
    </linearGradient>
    <linearGradient id="prefix__h" x1="43.699" x2="29.814" y1="11.254" y2="15.274" gradientUnits="userSpaceOnUse">
      <stop stop-color="#70B1FF"/>
      <stop offset="1" stop-color="#005CCD"/>
    </linearGradient>
    <linearGradient id="prefix__i" x1="21.511" x2="29.825" y1="77.721" y2="70.903" gradientUnits="userSpaceOnUse">
      <stop stop-color="#70B1FF"/>
      <stop offset="1" stop-color="#005CCD"/>
    </linearGradient>
    <linearGradient id="prefix__j" x1="67.732" x2="57.346" y1="18.035" y2="28.439" gradientUnits="userSpaceOnUse">
      <stop stop-color="#70B1FF"/>
      <stop offset="1" stop-color="#005CCD"/>
    </linearGradient>
    <linearGradient id="prefix__k" x1="9.601" x2="24.607" y1="23.062" y2="39.42" gradientUnits="userSpaceOnUse">
      <stop stop-color="#70B1FF"/>
      <stop offset="1" stop-color="#005CCD"/>
    </linearGradient>
    <linearGradient id="prefix__l" x1="35.261" x2="19.926" y1="22.61" y2="51.623" gradientUnits="userSpaceOnUse">
      <stop stop-color="#70B1FF"/>
      <stop offset="1" stop-color="#005CCD"/>
    </linearGradient>
    <linearGradient id="prefix__m" x1="46" x2="57.538" y1="81" y2="78.692" gradientUnits="userSpaceOnUse">
      <stop stop-color="#295296"/>
      <stop offset="1" stop-color="#3E78D3"/>
    </linearGradient>
  </defs>
</svg>
