<svg width="48" height="48" fill="none" viewBox="0 0 48 48" xmlns="http://www.w3.org/2000/svg">
  <g clip-path="url(#prefix__a)">
    <path fill="url(#prefix__b)" d="M19 48c10.493 0 19-8.507 19-19s-8.507-19-19-19S0 18.507 0 29s8.507 19 19 19Z" clip-rule="evenodd" opacity=".33"/>
    <path fill="url(#prefix__c)" d="M18 16c0 8.284 6.716 15 15 15 8.284 0 15-6.716 15-15 0-8.284-6.716-15-15-15-8.284 0-15 6.716-15 15Zm24 0a9 9 0 1 1-18 0 9 9 0 0 1 18 0Z" clip-rule="evenodd" opacity=".22"/>
    <path fill="url(#prefix__d)" d="M26.636 9.633a9.002 9.002 0 0 0-1.429 10.864 8.998 8.998 0 1 0 15.586-8.999 8.984 8.984 0 0 0-1.842-2.255A9.035 9.035 0 0 0 33 6.997V1h-.259a15.034 15.034 0 0 1 10.176 3.743 14.983 14.983 0 0 1 3.071 3.756c4.142 7.173 1.684 16.345-5.49 20.487-7.172 4.141-16.345 1.683-20.486-5.49-3.47-6.01-2.307-13.424 2.38-18.106l4.244 4.243Z" opacity=".24"/>
    <path fill="url(#prefix__e)" d="M19.252 10.002c2.169.028 4.25.42 6.185 1.116a8.999 8.999 0 0 0 11.87 12.78 19.015 19.015 0 0 1 .659 6.254c-6.676 2.35-14.287-.304-17.954-6.656a14.976 14.976 0 0 1-.76-13.494Z" clip-rule="evenodd"/>
    <path fill="url(#prefix__f)" d="M33 6.997v-6a15.034 15.034 0 0 1 9.917 3.746 14.983 14.983 0 0 1 3.071 3.756c3.47 6.01 2.307 13.425-2.382 18.107l-4.243-4.243a9.002 9.002 0 0 0 1.43-10.865 8.984 8.984 0 0 0-1.842-2.255A9.035 9.035 0 0 0 33 6.997Z"/>
    <path fill="url(#prefix__g)" d="M42 16h6a15.03 15.03 0 0 1-4.394 10.606l-4.243-4.243A9.018 9.018 0 0 0 42 16Z"/>
    <path fill="url(#prefix__h)" d="M17.368 10.07C17.371 10.097 10 19 10 19v4l-6 6-3.75-3.087c1.388-8.5 8.417-15.104 17.118-15.844Z" clip-rule="evenodd" opacity=".33"/>
    <path fill="url(#prefix__i)" d="M25 34h12.335C35.14 42.068 27.763 48 19 48a18.95 18.95 0 0 1-7-1.331V39h9l4-5Z" clip-rule="evenodd" opacity=".4"/>
  </g>
  <defs>
    <linearGradient id="prefix__b" x1="27.18" x2="53.409" y1="59.958" y2="24.288" gradientUnits="userSpaceOnUse">
      <stop stop-color="#70B1FF"/>
      <stop offset="1" stop-color="#005CCD"/>
    </linearGradient>
    <linearGradient id="prefix__c" x1="21.494" x2="6.767" y1="-12.39" y2="17.463" gradientUnits="userSpaceOnUse">
      <stop stop-color="#70B1FF"/>
      <stop offset="1" stop-color="#005CCD"/>
    </linearGradient>
    <linearGradient id="prefix__d" x1="37.099" x2="10.48" y1="-8.601" y2="6.44" gradientUnits="userSpaceOnUse">
      <stop stop-color="#70B1FF"/>
      <stop offset="1" stop-color="#005CCD"/>
    </linearGradient>
    <linearGradient id="prefix__e" x1="48" x2="27.029" y1="20.5" y2=".523" gradientUnits="userSpaceOnUse">
      <stop stop-color="#73A0E4"/>
      <stop offset="1" stop-color="#75A1E3"/>
    </linearGradient>
    <linearGradient id="prefix__f" x1="28.471" x2="46.664" y1="13.802" y2="20.237" gradientUnits="userSpaceOnUse">
      <stop stop-color="#9DC3FA"/>
      <stop offset="1" stop-color="#8CB4EF"/>
    </linearGradient>
    <linearGradient id="prefix__g" x1="52.555" x2="46.168" y1="28.979" y2="14.078" gradientUnits="userSpaceOnUse">
      <stop stop-color="#295296"/>
      <stop offset="1" stop-color="#3E78D3"/>
    </linearGradient>
    <linearGradient id="prefix__h" x1="12.494" x2="25.895" y1="34.957" y2="18.477" gradientUnits="userSpaceOnUse">
      <stop stop-color="#70B1FF"/>
      <stop offset="1" stop-color="#005CCD"/>
    </linearGradient>
    <linearGradient id="prefix__i" x1="30.121" x2="37.182" y1="52.406" y2="35.028" gradientUnits="userSpaceOnUse">
      <stop stop-color="#70B1FF"/>
      <stop offset="1" stop-color="#005CCD"/>
    </linearGradient>
    <clipPath id="prefix__a">
      <path fill="#fff" d="M0 0h48v48H0z"/>
    </clipPath>
  </defs>
</svg>
