<svg width="48" height="48" fill="none" viewBox="0 0 48 48" xmlns="http://www.w3.org/2000/svg">
  <path fill="url(#prefix__a)" d="M16 36.156C18.145 37.93 20.947 39 24 39s5.855-1.07 8-2.843v2.724a7 7 0 0 0 3.6 6.12L41 48H7l5.4-3a7 7 0 0 0 3.6-6.119v-2.725Z" clip-rule="evenodd" opacity=".3"/>
  <path fill="url(#prefix__b)" d="M24 0c7.18 0 13 5.53 13 12.35 0 .211-.006.422-.017.633l-.811 15.031C35.839 34.17 30.489 39 24 39c-6.488 0-11.839-4.83-12.171-10.986l-.812-15.031C10.65 6.17 16.164.366 23.334.016A14.8 14.8 0 0 1 24 0Z" clip-rule="evenodd" opacity=".3"/>
  <path fill="url(#prefix__c)" d="M9 29c-2.761 0-5-2.302-5-5.143v-7.714C4 13.303 6.239 11 9 11h30c2.761 0 5 2.303 5 5.143v7.714C44 26.697 41.761 29 39 29c-9.695 0-10.62-3.531-15-3.652C19.62 25.227 18.695 29 9 29Z" clip-rule="evenodd" opacity=".4"/>
  <path fill="url(#prefix__d)" d="M36.923 11a11.886 11.886 0 0 1 .06 1.983l-.811 15.031c-.017.316-.048.628-.09.935-7.789-.432-8.013-3.489-12.082-3.601-4.07-.113-4.293 3.137-12.082 3.598a11.108 11.108 0 0 1-.09-.932l-.81-15.031A11.82 11.82 0 0 1 11.075 11h25.847Z" clip-rule="evenodd"/>
  <path fill="url(#prefix__e)" d="M8 18a2 2 0 1 0 0-4 2 2 0 0 0 0 4Z" clip-rule="evenodd" opacity=".55"/>
  <path fill="url(#prefix__f)" d="M14 18a2 2 0 1 0 0-4 2 2 0 0 0 0 4Z" clip-rule="evenodd"/>
  <path fill="url(#prefix__g)" d="M8.005 26v-3H10c2.962 0 4.58-.328 6.114-1.136.093-.05.156-.084.91-.508.51-.287.78-.437.947-.525 2.046-1.073 3.943-1.543 6.195-1.481 2.137.059 3.904.554 5.876 1.596.135.07.325.176.85.466.504.28.708.393.804.443C33.264 22.675 34.904 23 38 23h2v3h-2c-3.544 0-5.65-.418-7.694-1.486-.13-.068-.323-.175-.87-.478a59.886 59.886 0 0 0-.794-.438c-1.58-.833-2.9-1.203-4.56-1.25-1.72-.047-3.113.298-4.717 1.14-.13.068-.394.215-.863.479-.843.473-.857.481-.99.551C15.502 25.578 13.415 26 10 26H8.005Z" opacity=".52"/>
  <path fill="url(#prefix__h)" d="m36.444 22.966-.162 2.995c-2.553-.125-4.285-.564-5.976-1.447a50.06 50.06 0 0 1-.87-.478 60.27 60.27 0 0 0-.794-.438c-1.58-.833-2.9-1.203-4.56-1.25-1.72-.047-3.113.298-4.716 1.14-.13.068-.395.215-.864.479-.843.473-.857.481-.99.551-1.649.87-3.35 1.31-5.794 1.44l-.162-2.995c2.02-.105 3.316-.445 4.558-1.099.093-.05.156-.084.91-.508.51-.287.78-.437.948-.525 2.045-1.073 3.942-1.543 6.194-1.481 2.137.059 3.904.554 5.877 1.596.134.07.324.176.849.466.505.28.709.393.804.443 1.282.67 2.613 1.01 4.748 1.111Z" clip-rule="evenodd"/>
  <defs>
    <linearGradient id="prefix__a" x1="42.157" x2="42.017" y1="47.798" y2="35.943" gradientUnits="userSpaceOnUse">
      <stop stop-color="#70B1FF"/>
      <stop offset="1" stop-color="#005CCD"/>
    </linearGradient>
    <linearGradient id="prefix__b" x1="28.556" x2="53.37" y1="47.337" y2="24.726" gradientUnits="userSpaceOnUse">
      <stop stop-color="#70B1FF"/>
      <stop offset="1" stop-color="#005CCD"/>
    </linearGradient>
    <linearGradient id="prefix__c" x1="-19.135" x2="-4.849" y1="18.174" y2="48.856" gradientUnits="userSpaceOnUse">
      <stop stop-color="#70B1FF"/>
      <stop offset="1" stop-color="#005CCD"/>
    </linearGradient>
    <linearGradient id="prefix__d" x1="25.768" x2="41.03" y1="37.314" y2="13.593" gradientUnits="userSpaceOnUse">
      <stop stop-color="#8BB7F6"/>
      <stop offset="1" stop-color="#709FE5"/>
    </linearGradient>
    <linearGradient id="prefix__e" x1="1.096" x2="7.128" y1="15.271" y2="21.016" gradientUnits="userSpaceOnUse">
      <stop stop-color="#70B1FF"/>
      <stop offset="1" stop-color="#005CCD"/>
    </linearGradient>
    <linearGradient id="prefix__f" x1="18.331" x2="14.011" y1="15.84" y2="11.178" gradientUnits="userSpaceOnUse">
      <stop stop-color="#295296"/>
      <stop offset="1" stop-color="#3E78D3"/>
    </linearGradient>
    <linearGradient id="prefix__g" x1="-7.993" x2="-5.339" y1="22.672" y2="35.431" gradientUnits="userSpaceOnUse">
      <stop stop-color="#70B1FF"/>
      <stop offset="1" stop-color="#005CCD"/>
    </linearGradient>
    <linearGradient id="prefix__h" x1="17.778" x2="24.635" y1="29.27" y2="16.374" gradientUnits="userSpaceOnUse">
      <stop stop-color="#6398F3"/>
      <stop offset="1" stop-color="#4377D7"/>
    </linearGradient>
  </defs>
</svg>
