<svg width="48" height="48" fill="none" viewBox="0 0 48 48" xmlns="http://www.w3.org/2000/svg">
  <path fill="url(#prefix__a)" d="M17 44a4 4 0 0 1-4 4V25c0-6.627 5.373-12 12-12h23a4 4 0 0 1-4 4H25a8 8 0 0 0-8 8v19Z"/>
  <path fill="url(#prefix__b)" d="M9.622 35 17 42.379V44a3.98 3.98 0 0 1-.567 2.054L5.38 35h4.243Z" opacity=".5"/>
  <path fill="url(#prefix__c)" d="M13 38.379v4.242l3.433 3.433c.36-.6.567-1.303.567-2.054v-1.621l-4-4Z"/>
  <path fill="url(#prefix__d)" d="m35 4.879 11.355 11.355A3.982 3.982 0 0 1 44 17h-1.121L35 9.121V4.88Z" opacity=".5"/>
  <path fill="url(#prefix__e)" d="M35 0v23c0 6.627-5.373 12-12 12H0a4 4 0 0 1 4-4h19a8 8 0 0 0 8-8V4a4 4 0 0 1 4-4Z"/>
  <path fill="url(#prefix__f)" d="M23.455 13.098 31 20.643V23c0 .585-.063 1.155-.182 1.704L20.139 14.025c1.037-.46 2.15-.777 3.316-.927Z" clip-rule="evenodd" opacity=".5"/>
  <path fill="url(#prefix__g)" d="m13.876 20.49 10.408 10.408A8.058 8.058 0 0 1 23 31h-2.857l-7.094-7.094c.109-1.198.393-2.345.827-3.416Z" clip-rule="evenodd" opacity=".5"/>
  <path fill="url(#prefix__h)" d="M32.37 30.498a12.068 12.068 0 0 1-2.153 2.09L18.282 20.654a8.044 8.044 0 0 1 2.074-2.169L32.37 30.498Z" clip-rule="evenodd" opacity=".5"/>
  <path fill="url(#prefix__i)" d="M13.121 48H8.88L0 39.121V34.88L13.121 48Z" clip-rule="evenodd" opacity=".35"/>
  <path fill="url(#prefix__j)" d="M48 8.879v4.242L34.88 0h4.242l8.88 8.879Z" clip-rule="evenodd" opacity=".35"/>
  <path fill="url(#prefix__k)" d="M31 13h4v4h-4z"/>
  <path fill="url(#prefix__l)" d="M13 31h4v4h-4z"/>
  <defs>
    <linearGradient id="prefix__a" x1="-4.5" x2="-4.5" y1="13" y2="48" gradientUnits="userSpaceOnUse">
      <stop stop-color="#C5DBFF"/>
      <stop offset="1" stop-color="#6691DB"/>
    </linearGradient>
    <linearGradient id="prefix__b" x1="1.79" x2="10.684" y1="39.473" y2="49.731" gradientUnits="userSpaceOnUse">
      <stop stop-color="#8FC1FF"/>
      <stop offset="1" stop-color="#005CCD"/>
    </linearGradient>
    <linearGradient id="prefix__c" x1="23.288" x2="12.416" y1="45.317" y2="39.464" gradientUnits="userSpaceOnUse">
      <stop stop-color="#295296"/>
      <stop offset="1" stop-color="#3E78D3"/>
    </linearGradient>
    <linearGradient id="prefix__d" x1="31.493" x2="41.341" y1="9.783" y2="19.904" gradientUnits="userSpaceOnUse">
      <stop stop-color="#8FC1FF"/>
      <stop offset="1" stop-color="#005CCD"/>
    </linearGradient>
    <linearGradient id="prefix__e" x1="52.5" x2="52.5" y1="35" y2="0" gradientUnits="userSpaceOnUse">
      <stop stop-color="#C5DBFF"/>
      <stop offset="1" stop-color="#6691DB"/>
    </linearGradient>
    <linearGradient id="prefix__f" x1="35.282" x2="24.51" y1="19.305" y2="9.253" gradientUnits="userSpaceOnUse">
      <stop stop-color="#8FC1FF"/>
      <stop offset="1" stop-color="#005CCD"/>
    </linearGradient>
    <linearGradient id="prefix__g" x1="28.713" x2="18.955" y1="26.111" y2="15.709" gradientUnits="userSpaceOnUse">
      <stop stop-color="#8FC1FF"/>
      <stop offset="1" stop-color="#005CCD"/>
    </linearGradient>
    <linearGradient id="prefix__h" x1="13.931" x2="25.346" y1="24.192" y2="36.7" gradientUnits="userSpaceOnUse">
      <stop stop-color="#8FC1FF"/>
      <stop offset="1" stop-color="#005CCD"/>
    </linearGradient>
    <linearGradient id="prefix__i" x1="18.294" x2="6.087" y1="41.896" y2="29.723" gradientUnits="userSpaceOnUse">
      <stop stop-color="#8FC1FF"/>
      <stop offset="1" stop-color="#005CCD"/>
    </linearGradient>
    <linearGradient id="prefix__j" x1="53.173" x2="40.966" y1="7.017" y2="-5.156" gradientUnits="userSpaceOnUse">
      <stop stop-color="#8FC1FF"/>
      <stop offset="1" stop-color="#005CCD"/>
    </linearGradient>
    <linearGradient id="prefix__k" x1="31" x2="31" y1="13" y2="17" gradientUnits="userSpaceOnUse">
      <stop stop-color="#648FE9"/>
      <stop offset="1" stop-color="#6690E8"/>
    </linearGradient>
    <linearGradient id="prefix__l" x1="19" x2="19" y1="35" y2="31" gradientUnits="userSpaceOnUse">
      <stop stop-color="#648FE9"/>
      <stop offset="1" stop-color="#6690E8"/>
    </linearGradient>
  </defs>
</svg>
