<svg width="48" height="48" fill="none" viewBox="0 0 48 48" xmlns="http://www.w3.org/2000/svg">
  <g clip-path="url(#prefix__a)">
    <path fill="url(#prefix__b)" d="M33 32c8.284 0 15-6.716 15-15 0-8.284-6.716-15-15-15-8.284 0-15 6.716-15 15 0 8.284 6.716 15 15 15Z" clip-rule="evenodd" opacity=".35"/>
    <path fill="url(#prefix__c)" d="M19 12a6 6 0 1 0 0-12 6 6 0 0 0 0 12Z" clip-rule="evenodd" opacity=".55"/>
    <path fill="url(#prefix__d)" d="M18.854 11.998a15.044 15.044 0 0 1 5.941-7.557 6 6 0 0 1-5.941 7.558Z" clip-rule="evenodd"/>
    <path fill="url(#prefix__e)" d="m22.817 30.657 4.182 11.374L24.23 44.8 3.37 23.94l2.768-2.767L17.16 25l3.535-3.535 14.412-10.216 1.697 1.697L26.352 27.12l-3.535 3.536Z" clip-rule="evenodd" opacity=".5"/>
    <path fill="url(#prefix__f)" d="M24.273 29.201a15.055 15.055 0 0 1-5.051-6.262l1.474-1.474 14.411-10.216 1.697 1.697L26.353 27.12l-2.08 2.08Z" clip-rule="evenodd"/>
    <path fill="url(#prefix__g)" d="M8.321 18.99h3v11h-3z" opacity=".45" transform="rotate(45 8.321 18.99)"/>
    <path fill="url(#prefix__h)" d="M15.746 26.414h3v11h-3z" opacity=".45" transform="rotate(45 15.746 26.414)"/>
    <path fill="url(#prefix__i)" d="M19.281 29.95h3v11h-3z" opacity=".45" transform="rotate(45 19.281 29.95)"/>
    <path fill="url(#prefix__j)" d="M27.06 37.728h3v11h-3z" opacity=".45" transform="rotate(45 27.06 37.728)"/>
    <path fill="url(#prefix__k)" d="m5.493 26.06-2.121-2.12 2.767-2.768 3.15 1.093-3.796 3.796Z" clip-rule="evenodd"/>
    <path fill="url(#prefix__l)" d="m12.917 33.485-2.121-2.121 4.95-4.95 2.121 2.122-4.95 4.95Z" clip-rule="evenodd"/>
    <path fill="url(#prefix__m)" d="m16.453 37.02-2.121-2.12 4.95-4.95 2.12 2.121-4.95 4.95Z" clip-rule="evenodd"/>
    <path fill="url(#prefix__n)" d="m25.858 38.93 1.14 3.101-2.767 2.768-2.121-2.121 3.748-3.749Z" clip-rule="evenodd"/>
  </g>
  <defs>
    <linearGradient id="prefix__b" x1="17.964" x2="33.715" y1="20.132" y2="32.59" gradientUnits="userSpaceOnUse">
      <stop stop-color="#70B1FF"/>
      <stop offset="1" stop-color="#005CCD"/>
    </linearGradient>
    <linearGradient id="prefix__c" x1="11.817" x2="21.916" y1="8.347" y2="14.514" gradientUnits="userSpaceOnUse">
      <stop stop-color="#70B1FF"/>
      <stop offset="1" stop-color="#005CCD"/>
    </linearGradient>
    <linearGradient id="prefix__d" x1="14.395" x2="22.482" y1="9.019" y2="12.656" gradientUnits="userSpaceOnUse">
      <stop stop-color="#295296"/>
      <stop offset="1" stop-color="#3E78D3"/>
    </linearGradient>
    <linearGradient id="prefix__e" x1="4.644" x2="42.121" y1="45.324" y2="36.07" gradientUnits="userSpaceOnUse">
      <stop stop-color="#70B1FF"/>
      <stop offset="1" stop-color="#005CCD"/>
    </linearGradient>
    <linearGradient id="prefix__f" x1="27.857" x2="42.17" y1="33.501" y2="20.114" gradientUnits="userSpaceOnUse">
      <stop stop-color="#6EA1ED"/>
      <stop offset="1" stop-color="#598FDF"/>
    </linearGradient>
    <linearGradient id="prefix__g" x1="9.776" x2="17.42" y1="37.315" y2="33.239" gradientUnits="userSpaceOnUse">
      <stop stop-color="#70B1FF"/>
      <stop offset="1" stop-color="#005CCD"/>
    </linearGradient>
    <linearGradient id="prefix__h" x1="17.2" x2="24.845" y1="44.74" y2="40.663" gradientUnits="userSpaceOnUse">
      <stop stop-color="#70B1FF"/>
      <stop offset="1" stop-color="#005CCD"/>
    </linearGradient>
    <linearGradient id="prefix__i" x1="20.736" x2="28.38" y1="48.275" y2="44.199" gradientUnits="userSpaceOnUse">
      <stop stop-color="#70B1FF"/>
      <stop offset="1" stop-color="#005CCD"/>
    </linearGradient>
    <linearGradient id="prefix__j" x1="28.514" x2="36.158" y1="56.053" y2="51.977" gradientUnits="userSpaceOnUse">
      <stop stop-color="#70B1FF"/>
      <stop offset="1" stop-color="#005CCD"/>
    </linearGradient>
    <linearGradient id="prefix__k" x1="10.166" x2="13.765" y1="30.28" y2="26.069" gradientUnits="userSpaceOnUse">
      <stop stop-color="#679CEE"/>
      <stop offset="1" stop-color="#548ADF"/>
    </linearGradient>
    <linearGradient id="prefix__l" x1="18.916" x2="24.183" y1="39.588" y2="34.497" gradientUnits="userSpaceOnUse">
      <stop stop-color="#679CEE"/>
      <stop offset="1" stop-color="#548ADF"/>
    </linearGradient>
    <linearGradient id="prefix__m" x1="22.451" x2="27.719" y1="43.123" y2="38.032" gradientUnits="userSpaceOnUse">
      <stop stop-color="#679CEE"/>
      <stop offset="1" stop-color="#548ADF"/>
    </linearGradient>
    <linearGradient id="prefix__n" x1="27.724" x2="31.998" y1="49.865" y2="46.424" gradientUnits="userSpaceOnUse">
      <stop stop-color="#679CEE"/>
      <stop offset="1" stop-color="#548ADF"/>
    </linearGradient>
    <clipPath id="prefix__a">
      <path fill="#fff" d="M0 0h48v48H0z"/>
    </clipPath>
  </defs>
</svg>
