<svg width="96" height="96" fill="none" viewBox="0 0 96 96" xmlns="http://www.w3.org/2000/svg">
  <path fill="url(#prefix__a)" d="M31 65c17.12 0 31-13.88 31-31C62 16.88 48.12 3 31 3 13.88 3 0 16.88 0 34c0 17.12 13.88 31 31 31Z" clip-rule="evenodd" opacity=".43"/>
  <path fill="url(#prefix__b)" d="M31 17v-4l-10 7 10 7v-4h.045C37.1 23.024 42 27.94 42 34c0 6.075-4.925 11-11 11s-11-4.925-11-11c0-2.293.704-4.422 1.904-6.185l-4.961-3.374A16.92 16.92 0 0 0 14 34c0 9.39 7.611 17 17 17s17-7.61 17-17-7.611-17-17-17Z" clip-rule="evenodd" opacity=".6"/>
  <path fill="url(#prefix__c)" d="M52.077 79.694 30.72 42.59a5 5 0 1 1 8.673-4.978l13.49 23.438.007-.23a4.991 4.991 0 0 1 2.481-3.73c2.407-1.381 5.485-.562 6.875 1.83l1.006 1.731a4.991 4.991 0 0 1 2.48-3.732c2.408-1.38 5.486-.56 6.876 1.83l1.006 1.732a4.988 4.988 0 0 1 2.112-2.365c2.407-1.381 5.486-.562 6.875 1.83L95 91H51.657L31 79.151l1.007-1.732c2.223-3.826 7.148-5.137 11-2.928l9.07 5.203Z" clip-rule="evenodd" opacity=".45"/>
  <path fill="url(#prefix__d)" d="M43.773 45.22a16.997 16.997 0 0 1-8.52 5.244l-3.175-5.517a11.001 11.001 0 0 0 8.426-5.406l3.269 5.678Z" clip-rule="evenodd"/>
  <defs>
    <linearGradient id="prefix__a" x1="-21.803" x2="26.513" y1="34.196" y2="77.803" gradientUnits="userSpaceOnUse">
      <stop stop-color="#70B1FF" stop-opacity=".7"/>
      <stop offset="1" stop-color="#005CCD"/>
    </linearGradient>
    <linearGradient id="prefix__b" x1="70.448" x2="33.624" y1="42.175" y2="5.865" gradientUnits="userSpaceOnUse">
      <stop stop-color="#70B1FF"/>
      <stop offset="1" stop-color="#005CCD"/>
    </linearGradient>
    <linearGradient id="prefix__c" x1="127.5" x2="69.379" y1="61.798" y2="-2.888" gradientUnits="userSpaceOnUse">
      <stop stop-color="#70B1FF"/>
      <stop offset="1" stop-color="#005CCD"/>
    </linearGradient>
    <linearGradient id="prefix__d" x1="35.805" x2="49.686" y1="65.554" y2="45.72" gradientUnits="userSpaceOnUse">
      <stop stop-color="#295296"/>
      <stop offset="1" stop-color="#3E78D3"/>
    </linearGradient>
  </defs>
</svg>
