<svg width="48" height="48" fill="none" viewBox="0 0 48 48" xmlns="http://www.w3.org/2000/svg">
  <path fill="url(#prefix__a)" d="M20 46c9.941 0 18-8.059 18-18s-8.059-18-18-18S2 18.059 2 28s8.059 18 18 18Z" clip-rule="evenodd" opacity=".42"/>
  <path fill="url(#prefix__b)" d="M7.272 15.272 20 28h18c0 9.941-8.059 18-18 18S2 37.941 2 28c0-4.97 2.015-9.47 5.272-12.728Z" clip-rule="evenodd"/>
  <path fill="url(#prefix__c)" d="M32 5.2a10.012 10.012 0 0 0-7.8 7.8H21v4h3.2a10.012 10.012 0 0 0 7.8 7.8V29h4v-4.2a10.012 10.012 0 0 0 7.8-7.8H47v-4h-3.2A10.012 10.012 0 0 0 36 5.2V1h-4v4.2Zm8 9.8a6 6 0 1 1-12 0 6 6 0 0 1 12 0Z" clip-rule="evenodd" opacity=".55"/>
  <path fill="url(#prefix__d)" d="M28.678 12.226a6 6 0 0 0 7.695 8.286 17.86 17.86 0 0 1 1.251 3.811A9.927 9.927 0 0 1 36 24.8V29h-4v-4.2a10.012 10.012 0 0 1-7.8-7.8H21v-4h3.2c.164-.808.425-1.58.771-2.305 1.302.374 2.544.89 3.707 1.531Z" clip-rule="evenodd"/>
  <path fill="url(#prefix__e)" d="m11.515 19.515 16.97 16.97c-4.686 4.687-12.284 4.687-16.97 0-4.687-4.686-4.687-12.284 0-16.97Z" clip-rule="evenodd"/>
  <path fill="url(#prefix__f)" d="M34 18a3 3 0 1 0 0-6 3 3 0 0 0 0 6Z" clip-rule="evenodd"/>
  <path fill="url(#prefix__g)" d="M10.5 37a2.5 2.5 0 1 0 0-5 2.5 2.5 0 0 0 0 5Z" clip-rule="evenodd" opacity=".45"/>
  <path fill="url(#prefix__h)" d="M20 31a3 3 0 1 0 0-6 3 3 0 0 0 0 6Z" clip-rule="evenodd"/>
  <defs>
    <linearGradient id="prefix__a" x1="18.098" x2="-4.877" y1="3.069" y2="30.689" gradientUnits="userSpaceOnUse">
      <stop stop-color="#70B1FF"/>
      <stop offset="1" stop-color="#005CCD"/>
    </linearGradient>
    <linearGradient id="prefix__b" x1="27.195" x2="16.921" y1="22.792" y2="8.315" gradientUnits="userSpaceOnUse">
      <stop stop-color="#70B1FF" stop-opacity=".01"/>
      <stop offset="1" stop-color="#6093E1"/>
    </linearGradient>
    <linearGradient id="prefix__c" x1="11.073" x2="27.206" y1="8.914" y2="29.15" gradientUnits="userSpaceOnUse">
      <stop stop-color="#70B1FF"/>
      <stop offset="1" stop-color="#005CCD"/>
    </linearGradient>
    <linearGradient id="prefix__d" x1="42.961" x2="26.702" y1="20.788" y2="6.839" gradientUnits="userSpaceOnUse">
      <stop stop-color="#5088E1"/>
      <stop offset="1" stop-color="#6CA1F3"/>
    </linearGradient>
    <linearGradient id="prefix__e" x1="24.294" x2="15.767" y1="23.778" y2="15.596" gradientUnits="userSpaceOnUse">
      <stop stop-color="#70B1FF" stop-opacity=".01"/>
      <stop offset="1" stop-color="#4378D7"/>
    </linearGradient>
    <linearGradient id="prefix__f" x1="45.235" x2="35.617" y1="16.199" y2="4.64" gradientUnits="userSpaceOnUse">
      <stop stop-color="#295296"/>
      <stop offset="1" stop-color="#3E78D3"/>
    </linearGradient>
    <linearGradient id="prefix__g" x1="6.091" x2="8.917" y1="33.413" y2="37.231" gradientUnits="userSpaceOnUse">
      <stop stop-color="#70B1FF"/>
      <stop offset="1" stop-color="#005CCD"/>
    </linearGradient>
    <linearGradient id="prefix__h" x1="20.039" x2="28.422" y1="36.417" y2="28.014" gradientUnits="userSpaceOnUse">
      <stop stop-color="#295296"/>
      <stop offset="1" stop-color="#3E78D3"/>
    </linearGradient>
  </defs>
</svg>
