<svg width="48" height="48" fill="none" viewBox="0 0 48 48" xmlns="http://www.w3.org/2000/svg">
  <path fill="url(#prefix__a)" d="m46 24-9 18-9-18 9-18 9 18Z" clip-rule="evenodd" opacity=".37"/>
  <path fill="url(#prefix__b)" d="M35 24 24 46 13 24 24 2l11 22Z" clip-rule="evenodd" opacity=".47"/>
  <path fill="url(#prefix__c)" d="M31.5 31 28 24l3.5-7 3.5 7-3.5 7Z" clip-rule="evenodd"/>
  <path fill="url(#prefix__d)" d="m20 24-9 18-9-18 9-18 9 18Z" clip-rule="evenodd" opacity=".37"/>
  <path fill="url(#prefix__e)" d="M16.5 31 13 24l3.5-7 3.5 7-3.5 7Z" clip-rule="evenodd"/>
  <defs>
    <linearGradient id="prefix__a" x1="14.29" x2="44.454" y1="13.124" y2="35.628" gradientUnits="userSpaceOnUse">
      <stop stop-color="#70B1FF" stop-opacity=".7"/>
      <stop offset="1" stop-color="#005CCD"/>
    </linearGradient>
    <linearGradient id="prefix__b" x1="-3.757" x2="33.111" y1="10.707" y2="38.212" gradientUnits="userSpaceOnUse">
      <stop stop-color="#70B1FF" stop-opacity=".7"/>
      <stop offset="1" stop-color="#005CCD"/>
    </linearGradient>
    <linearGradient id="prefix__c" x1="29.05" x2="29.05" y1="17" y2="31" gradientUnits="userSpaceOnUse">
      <stop stop-color="#6D9DEA"/>
      <stop offset="1" stop-color="#5183D9"/>
    </linearGradient>
    <linearGradient id="prefix__d" x1="-11.71" x2="18.454" y1="13.124" y2="35.628" gradientUnits="userSpaceOnUse">
      <stop stop-color="#70B1FF" stop-opacity=".7"/>
      <stop offset="1" stop-color="#005CCD"/>
    </linearGradient>
    <linearGradient id="prefix__e" x1="14.05" x2="14.05" y1="17" y2="31" gradientUnits="userSpaceOnUse">
      <stop stop-color="#6D9DEA"/>
      <stop offset="1" stop-color="#5183D9"/>
    </linearGradient>
  </defs>
</svg>
