<svg width="96" height="96" fill="none" viewBox="0 0 96 96" xmlns="http://www.w3.org/2000/svg">
  <path fill="url(#prefix__a)" d="M92 48 74 84 56 48l18-36 18 36Z" clip-rule="evenodd" opacity=".37"/>
  <path fill="url(#prefix__b)" d="M70 48 48 92 26 48 48 4l22 44Z" clip-rule="evenodd" opacity=".47"/>
  <path fill="url(#prefix__c)" d="m63 62-7-14 7-14 7 14-7 14Z" clip-rule="evenodd"/>
  <path fill="url(#prefix__d)" d="M40 48 22 84 4 48l18-36 18 36Z" clip-rule="evenodd" opacity=".37"/>
  <path fill="url(#prefix__e)" d="m33 62-7-14 7-14 7 14-7 14Z" clip-rule="evenodd"/>
  <defs>
    <linearGradient id="prefix__a" x1="28.579" x2="88.908" y1="26.247" y2="71.256" gradientUnits="userSpaceOnUse">
      <stop stop-color="#70B1FF" stop-opacity=".7"/>
      <stop offset="1" stop-color="#005CCD"/>
    </linearGradient>
    <linearGradient id="prefix__b" x1="-7.515" x2="66.221" y1="21.413" y2="76.424" gradientUnits="userSpaceOnUse">
      <stop stop-color="#70B1FF" stop-opacity=".7"/>
      <stop offset="1" stop-color="#005CCD"/>
    </linearGradient>
    <linearGradient id="prefix__c" x1="58.1" x2="58.1" y1="34" y2="62" gradientUnits="userSpaceOnUse">
      <stop stop-color="#6D9DEA"/>
      <stop offset="1" stop-color="#5183D9"/>
    </linearGradient>
    <linearGradient id="prefix__d" x1="-23.421" x2="36.908" y1="26.247" y2="71.256" gradientUnits="userSpaceOnUse">
      <stop stop-color="#70B1FF" stop-opacity=".7"/>
      <stop offset="1" stop-color="#005CCD"/>
    </linearGradient>
    <linearGradient id="prefix__e" x1="28.1" x2="28.1" y1="34" y2="62" gradientUnits="userSpaceOnUse">
      <stop stop-color="#6D9DEA"/>
      <stop offset="1" stop-color="#5183D9"/>
    </linearGradient>
  </defs>
</svg>
