<svg width="48" height="48" fill="none" viewBox="0 0 48 48" xmlns="http://www.w3.org/2000/svg">
  <path fill="url(#prefix__a)" d="m12 20 9 5.292v11.416L12 42l-9-5.292V25.292L12 20Z" clip-rule="evenodd" opacity=".47"/>
  <path fill="url(#prefix__b)" d="m36 20 9 5.292v11.416L36 42l-9-5.292V25.292L36 20Z" clip-rule="evenodd" opacity=".36"/>
  <path fill="url(#prefix__c)" d="m36 7 9 5.292v11.416L36 29l-9-5.292V12.292L36 7Z" clip-rule="evenodd" opacity=".28"/>
  <path fill="url(#prefix__d)" d="M43.653 24.5 36 29l-7.652-4.5L36 20l7.653 4.5Z" clip-rule="evenodd" opacity=".7"/>
  <path fill="url(#prefix__e)" d="m12 7 9 5.292v11.416L12 29l-9-5.292V12.292L12 7Z" clip-rule="evenodd" opacity=".53"/>
  <path fill="url(#prefix__f)" d="M19.653 24.5 12 29l-7.652-4.5L12 20l7.653 4.5Z" clip-rule="evenodd" opacity=".7"/>
  <path fill="url(#prefix__g)" d="m24 26 9 5.292v11.416L24 48l-9-5.292V31.292L24 26Z" clip-rule="evenodd" opacity=".42"/>
  <path fill="url(#prefix__h)" d="m33 40.236-6-3.528v-8.944l6 3.528v8.944Z" clip-rule="evenodd" opacity=".7"/>
  <path fill="url(#prefix__i)" d="M21 27.764v8.944l-6 3.528v-8.944l6-3.528Z" clip-rule="evenodd" opacity=".7"/>
  <path fill="url(#prefix__j)" d="m24 0 9 5.292v11.416L24 22l-9-5.292V5.292L24 0Z" clip-rule="evenodd" opacity=".22"/>
  <path fill="url(#prefix__k)" d="M27 20.236v-7.944l6-3.528v7.944l-6 3.528Z" clip-rule="evenodd" opacity=".7"/>
  <path fill="url(#prefix__l)" d="m15 8.764 6 3.528v7.944l-6-3.528V8.764Z" clip-rule="evenodd" opacity=".7"/>
  <defs>
    <linearGradient id="prefix__a" x1="12" x2="-9.564" y1="9" y2="26.644" gradientUnits="userSpaceOnUse">
      <stop stop-color="#70B1FF"/>
      <stop offset="1" stop-color="#005CCD"/>
    </linearGradient>
    <linearGradient id="prefix__b" x1="36" x2="14.436" y1="9" y2="26.644" gradientUnits="userSpaceOnUse">
      <stop stop-color="#70B1FF"/>
      <stop offset="1" stop-color="#005CCD"/>
    </linearGradient>
    <linearGradient id="prefix__c" x1="36" x2="14.436" y1="-4" y2="13.644" gradientUnits="userSpaceOnUse">
      <stop stop-color="#70B1FF"/>
      <stop offset="1" stop-color="#005CCD"/>
    </linearGradient>
    <linearGradient id="prefix__d" x1="43.653" x2="28.348" y1="20" y2="20" gradientUnits="userSpaceOnUse">
      <stop stop-color="#709FEC"/>
      <stop offset="1" stop-color="#719EEA"/>
    </linearGradient>
    <linearGradient id="prefix__e" x1="12" x2="-9.564" y1="-4" y2="13.644" gradientUnits="userSpaceOnUse">
      <stop stop-color="#70B1FF"/>
      <stop offset="1" stop-color="#005CCD"/>
    </linearGradient>
    <linearGradient id="prefix__f" x1="4.348" x2="19.653" y1="29" y2="29" gradientUnits="userSpaceOnUse">
      <stop stop-color="#4981E2"/>
      <stop offset="1" stop-color="#5086E6"/>
    </linearGradient>
    <linearGradient id="prefix__g" x1="24" x2="2.436" y1="15" y2="32.644" gradientUnits="userSpaceOnUse">
      <stop stop-color="#70B1FF"/>
      <stop offset="1" stop-color="#005CCD"/>
    </linearGradient>
    <linearGradient id="prefix__h" x1="24" x2="33.745" y1="34" y2="38.688" gradientUnits="userSpaceOnUse">
      <stop stop-color="#699CEE"/>
      <stop offset="1" stop-color="#5A8EE1"/>
    </linearGradient>
    <linearGradient id="prefix__i" x1="18" x2="8.255" y1="21.528" y2="26.216" gradientUnits="userSpaceOnUse">
      <stop stop-color="#659AF2"/>
      <stop offset="1" stop-color="#497EDA"/>
    </linearGradient>
    <linearGradient id="prefix__j" x1="24" x2="2.436" y1="-11" y2="6.644" gradientUnits="userSpaceOnUse">
      <stop stop-color="#70B1FF"/>
      <stop offset="1" stop-color="#005CCD"/>
    </linearGradient>
    <linearGradient id="prefix__k" x1="30" x2="20.578" y1="3.028" y2="7.956" gradientUnits="userSpaceOnUse">
      <stop stop-color="#84AEF0"/>
      <stop offset="1" stop-color="#85AFF0"/>
    </linearGradient>
    <linearGradient id="prefix__l" x1="12" x2="21.422" y1="14.5" y2="19.428" gradientUnits="userSpaceOnUse">
      <stop stop-color="#548BE4"/>
      <stop offset="1" stop-color="#548AE2"/>
    </linearGradient>
  </defs>
</svg>
