<svg width="48" height="48" fill="none" viewBox="0 0 48 48" xmlns="http://www.w3.org/2000/svg">
  <g clip-path="url(#prefix__a)">
    <path fill="url(#prefix__b)" d="M41.394 9.002c-3.313-5.74-10.652-7.706-16.392-4.392-5.74 3.313-7.706 10.652-4.392 16.392 2.973 5.15 9.186 7.262 14.577 5.249l7.583 13.134 3.464-2-7.582-13.135c4.438-3.662 5.715-10.099 2.742-15.248Zm-17.32 10a8 8 0 1 1 13.856-8 8 8 0 0 1-13.856 8Z" clip-rule="evenodd"/>
    <path fill="url(#prefix__c)" d="M31 23a8 8 0 1 0 0-16 8 8 0 0 0 0 16Z" clip-rule="evenodd" opacity=".34"/>
    <path fill="url(#prefix__d)" d="M33 9v9h-9.416a8.007 8.007 0 0 1 2.128-9H33Z" clip-rule="evenodd"/>
    <path fill="url(#prefix__e)" d="m37.27 29.858 3.464-2 5.5 9.527-3.464 2-5.5-9.527Z" clip-rule="evenodd"/>
    <path fill="url(#prefix__f)" d="M23.062 13.999H0V9l25.71-.001a7.985 7.985 0 0 0-2.648 5Z" clip-rule="evenodd" opacity=".396"/>
    <path fill="url(#prefix__g)" d="M30 22.938V23H0v-5h23.582A8.008 8.008 0 0 0 30 22.939Z" clip-rule="evenodd" opacity=".396"/>
    <path fill="url(#prefix__h)" d="M20.61 8.998h5.1l-.16.145-.214.209c-.184.183-.36.377-.525.578l-.191.243-.094.129a7.938 7.938 0 0 0-1.464 3.697h-4.019a12.06 12.06 0 0 1 1.567-5Z"/>
    <path fill="url(#prefix__i)" d="M23.582 18a7.957 7.957 0 0 0 1.039 1.828l.275.344c.59.7 1.285 1.278 2.048 1.726l.344.19.346.171.285.126.3.118.37.127.12.036c.266.08.539.147.816.198l.37.061.105.013V23l-7.948-.001a12.05 12.05 0 0 1-1.442-1.997A12.01 12.01 0 0 1 19.38 18h4.202Z"/>
    <path fill="url(#prefix__j)" d="M0 27h20v5H0v-5Z" clip-rule="evenodd" opacity=".496"/>
    <path fill="url(#prefix__k)" d="M0 37h30v5H0v-5Z" clip-rule="evenodd" opacity=".496"/>
  </g>
  <defs>
    <linearGradient id="prefix__b" x1="48.349" x2="25.444" y1="15.864" y2="1.679" gradientUnits="userSpaceOnUse">
      <stop stop-color="#9CC3F8"/>
      <stop offset="1" stop-color="#72A4E4"/>
    </linearGradient>
    <linearGradient id="prefix__c" x1="31.008" x2="19.538" y1="3.585" y2="14.71" gradientUnits="userSpaceOnUse">
      <stop stop-color="#84B4FA"/>
      <stop offset="1" stop-color="#4E82D5"/>
    </linearGradient>
    <linearGradient id="prefix__d" x1="28" x2="36.952" y1="22.501" y2="12.557" gradientUnits="userSpaceOnUse">
      <stop stop-color="#99BBF0"/>
      <stop offset="1" stop-color="#538BDF"/>
    </linearGradient>
    <linearGradient id="prefix__e" x1="58.538" x2="39.79" y1="35.925" y2="18.404" gradientUnits="userSpaceOnUse">
      <stop stop-color="#295296"/>
      <stop offset="1" stop-color="#3E78D3"/>
    </linearGradient>
    <linearGradient id="prefix__f" x1="8.516" x2="9.9" y1="15.751" y2="9.02" gradientUnits="userSpaceOnUse">
      <stop stop-color="#70B1FF"/>
      <stop offset="1" stop-color="#005CCD"/>
    </linearGradient>
    <linearGradient id="prefix__g" x1="9.937" x2="11.136" y1="24.75" y2="17.947" gradientUnits="userSpaceOnUse">
      <stop stop-color="#70B1FF"/>
      <stop offset="1" stop-color="#005CCD"/>
    </linearGradient>
    <linearGradient id="prefix__h" x1="26.387" x2="24.831" y1="13.022" y2="7.714" gradientUnits="userSpaceOnUse">
      <stop stop-color="#4A7FD7"/>
      <stop offset="1" stop-color="#447AD3"/>
    </linearGradient>
    <linearGradient id="prefix__i" x1="33.394" x2="30.588" y1="20.951" y2="13.677" gradientUnits="userSpaceOnUse">
      <stop stop-color="#558ADF"/>
      <stop offset="1" stop-color="#4C82D9"/>
    </linearGradient>
    <linearGradient id="prefix__j" x1="6.625" x2="8.357" y1="33.75" y2="27.194" gradientUnits="userSpaceOnUse">
      <stop stop-color="#70B1FF"/>
      <stop offset="1" stop-color="#005CCD"/>
    </linearGradient>
    <linearGradient id="prefix__k" x1="9.937" x2="11.136" y1="43.75" y2="36.947" gradientUnits="userSpaceOnUse">
      <stop stop-color="#70B1FF"/>
      <stop offset="1" stop-color="#005CCD"/>
    </linearGradient>
    <clipPath id="prefix__a">
      <path fill="#fff" d="M0 0h48v48H0z"/>
    </clipPath>
  </defs>
</svg>
