<svg width="96" height="96" fill="none" viewBox="0 0 96 96" xmlns="http://www.w3.org/2000/svg">
  <path fill="url(#prefix__a)" d="M36.026 29H3v-7.999h35.262a18.88 18.88 0 0 0-2.203 7.492l-.033.507Z" clip-rule="evenodd" opacity=".396"/>
  <path fill="url(#prefix__b)" d="M3 55h40v8H3v-8Z" clip-rule="evenodd" opacity=".5"/>
  <path fill="url(#prefix__c)" d="M44.749 46H3v-8h34.761a19.08 19.08 0 0 0 6.613 7.753l.375.247Z" clip-rule="evenodd" opacity=".396"/>
  <path fill="url(#prefix__d)" d="M3 72h55v8H3v-8Z" clip-rule="evenodd" opacity=".5"/>
  <path fill="url(#prefix__e)" d="M55 49c10.493 0 19-8.507 19-19s-8.507-19-19-19-19 8.507-19 19 8.507 19 19 19Z" clip-rule="evenodd" opacity=".34"/>
  <path fill="url(#prefix__f)" d="M60 21.001V38H37.761A18.924 18.924 0 0 1 36 30c0-3.256.82-6.32 2.263-9L60 21.002Z" clip-rule="evenodd"/>
  <path fill="url(#prefix__g)" d="M76.65 17.5C69.747 5.543 54.457 1.446 42.5 8.35c-11.957 6.903-16.054 22.193-9.15 34.15 6.395 11.078 19.99 15.41 31.463 10.496l9.089 15.743 5.196-3-9.089-15.743C80 42.516 83.046 28.578 76.65 17.5Zm-38.105 22C33.3 30.413 36.412 18.792 45.5 13.546c9.087-5.247 20.708-2.133 25.954 6.954 5.247 9.088 2.133 20.708-6.954 25.955-9.088 5.246-20.708 2.133-25.955-6.955Z" clip-rule="evenodd" opacity=".52"/>
  <path fill="url(#prefix__h)" d="M38.262 21a18.87 18.87 0 0 0-2.108 6.568l-.054.466c-.033.321-.059.643-.076.966h-6.007a25.134 25.134 0 0 1 1.658-8h6.587Z" clip-rule="evenodd"/>
  <path fill="url(#prefix__i)" d="M37.761 38c.396.85.852 1.666 1.363 2.443l.378.55.133.186A18.87 18.87 0 0 0 44.746 46h-8.96a25.163 25.163 0 0 1-2.437-3.5 25.114 25.114 0 0 1-2.04-4.5h6.452Z" clip-rule="evenodd"/>
  <path fill="url(#prefix__j)" d="m68.17 62.81 8.66-5 16.5 28.58-8.66 5-16.5-28.58Z" clip-rule="evenodd"/>
  <defs>
    <linearGradient id="prefix__a" x1="14.68" x2="17.226" y1="31.801" y2="21.189" gradientUnits="userSpaceOnUse">
      <stop stop-color="#70B1FF"/>
      <stop offset="1" stop-color="#005CCD"/>
    </linearGradient>
    <linearGradient id="prefix__b" x1="16.25" x2="18.521" y1="65.802" y2="55.058" gradientUnits="userSpaceOnUse">
      <stop stop-color="#70B1FF"/>
      <stop offset="1" stop-color="#005CCD"/>
    </linearGradient>
    <linearGradient id="prefix__c" x1="16.829" x2="19.013" y1="48.802" y2="38.02" gradientUnits="userSpaceOnUse">
      <stop stop-color="#70B1FF"/>
      <stop offset="1" stop-color="#005CCD"/>
    </linearGradient>
    <linearGradient id="prefix__d" x1="21.218" x2="22.904" y1="82.802" y2="71.837" gradientUnits="userSpaceOnUse">
      <stop stop-color="#70B1FF"/>
      <stop offset="1" stop-color="#005CCD"/>
    </linearGradient>
    <linearGradient id="prefix__e" x1="55.018" x2="27.777" y1="2.889" y2="29.31" gradientUnits="userSpaceOnUse">
      <stop stop-color="#84B4FA"/>
      <stop offset="1" stop-color="#4E82D5"/>
    </linearGradient>
    <linearGradient id="prefix__f" x1="43.534" x2="62.272" y1="40.173" y2="23.563" gradientUnits="userSpaceOnUse">
      <stop stop-color="#99BAF0"/>
      <stop offset="1" stop-color="#5189DD"/>
    </linearGradient>
    <linearGradient id="prefix__g" x1="85.631" x2="43.932" y1="37.096" y2="4.947" gradientUnits="userSpaceOnUse">
      <stop stop-color="#70B1FF"/>
      <stop offset="1" stop-color="#005CCD"/>
    </linearGradient>
    <linearGradient id="prefix__h" x1="27.203" x2="32.007" y1="23.436" y2="31.565" gradientUnits="userSpaceOnUse">
      <stop stop-color="#467CD3"/>
      <stop offset="1" stop-color="#4B81D7"/>
    </linearGradient>
    <linearGradient id="prefix__i" x1="24.591" x2="31.624" y1="42.001" y2="53.813" gradientUnits="userSpaceOnUse">
      <stop stop-color="#4E84DA"/>
      <stop offset="1" stop-color="#568BDF"/>
    </linearGradient>
    <linearGradient id="prefix__j" x1="127.863" x2="73.422" y1="81.311" y2="32.289" gradientUnits="userSpaceOnUse">
      <stop stop-color="#295296"/>
      <stop offset="1" stop-color="#3E78D3"/>
    </linearGradient>
  </defs>
</svg>
