<svg width="96" height="96" fill="none" viewBox="0 0 96 96" xmlns="http://www.w3.org/2000/svg">
  <path fill="url(#prefix__a)" d="M75 45.074V92H5V38h27.005L39 45l36 .074Z" clip-rule="evenodd" opacity=".3"/>
  <path fill="url(#prefix__b)" d="M93 52H23L5 92h70l18-40Z" clip-rule="evenodd" opacity=".3"/>
  <path fill="url(#prefix__c)" d="M75 52v40H5l18-40h52Z" clip-rule="evenodd"/>
  <path fill="url(#prefix__d)" d="M43 5h28a4 4 0 0 1 4 4v53a4 4 0 0 1-4 4H43a4 4 0 0 1-4-4V9a4 4 0 0 1 4-4Z" clip-rule="evenodd" opacity=".38"/>
  <path fill="url(#prefix__e)" d="m39 45 36 .074V62a4 4 0 0 1-4 4H43a4 4 0 0 1-4-4V45Z" clip-rule="evenodd"/>
  <path fill="url(#prefix__f)" d="M42.6 5h28.8C73.388 5 75 6.79 75 9v4H39V9c0-2.21 1.612-4 3.6-4Z" clip-rule="evenodd"/>
  <path fill="url(#prefix__g)" d="M39 52h36v10a4 4 0 0 1-4 4H43a4 4 0 0 1-4-4V52Zm18 10a3 3 0 1 0 0-6 3 3 0 0 0 0 6Z" clip-rule="evenodd"/>
  <path fill="url(#prefix__h)" d="M83 33v5l13-9-13-9v5H57v8h26Z" clip-rule="evenodd"/>
  <path fill="url(#prefix__i)" d="M75 33H57v-8h18v8Z" clip-rule="evenodd"/>
  <defs>
    <linearGradient id="prefix__a" x1="110" x2="57.769" y1="65" y2="-2.707" gradientUnits="userSpaceOnUse">
      <stop stop-color="#70B1FF"/>
      <stop offset="1" stop-color="#005CCD"/>
    </linearGradient>
    <linearGradient id="prefix__b" x1="52.441" x2="19.969" y1="27.515" y2="98.817" gradientUnits="userSpaceOnUse">
      <stop stop-color="#70B1FF"/>
      <stop offset="1" stop-color="#005CCD"/>
    </linearGradient>
    <linearGradient id="prefix__c" x1="35.422" x2="60.297" y1="107.346" y2="58.033" gradientUnits="userSpaceOnUse">
      <stop stop-color="#7DA8E7"/>
      <stop offset="1" stop-color="#97BEF6"/>
    </linearGradient>
    <linearGradient id="prefix__d" x1="60.408" x2="111.187" y1="93.612" y2="60.511" gradientUnits="userSpaceOnUse">
      <stop stop-color="#70B1FF"/>
      <stop offset="1" stop-color="#005CCD"/>
    </linearGradient>
    <linearGradient id="prefix__e" x1="69.112" x2="75.512" y1="65.529" y2="46.457" gradientUnits="userSpaceOnUse">
      <stop stop-color="#6EA0F0"/>
      <stop offset="1" stop-color="#86B1F1"/>
    </linearGradient>
    <linearGradient id="prefix__f" x1="21" x2="24.388" y1="9" y2="24.247" gradientUnits="userSpaceOnUse">
      <stop stop-color="#83ACEB"/>
      <stop offset="1" stop-color="#628FDD"/>
    </linearGradient>
    <linearGradient id="prefix__g" x1="73.775" x2="86.617" y1="96.073" y2="43.186" gradientUnits="userSpaceOnUse">
      <stop stop-color="#295296"/>
      <stop offset="1" stop-color="#3E78D3"/>
    </linearGradient>
    <linearGradient id="prefix__h" x1="108.885" x2="90.513" y1="23.911" y2="-2.391" gradientUnits="userSpaceOnUse">
      <stop stop-color="#90B7EC"/>
      <stop offset="1" stop-color="#A4C7F5"/>
    </linearGradient>
    <linearGradient id="prefix__i" x1="66" x2="60.062" y1="21" y2="34.361" gradientUnits="userSpaceOnUse">
      <stop stop-color="#6E9EE8"/>
      <stop offset="1" stop-color="#7FAEF4"/>
    </linearGradient>
  </defs>
</svg>
