<svg width="96" height="96" fill="none" viewBox="0 0 96 96" xmlns="http://www.w3.org/2000/svg">
  <path fill="url(#prefix__a)" d="M75 27.074V74H5V20h27.005L39 27l36 .074Z" clip-rule="evenodd" opacity=".32"/>
  <path fill="url(#prefix__b)" d="M93 34H23L5 74h70l18-40Z" clip-rule="evenodd" opacity=".33"/>
  <path fill="url(#prefix__c)" d="M75 34v40H5l18-40h52Z" clip-rule="evenodd"/>
  <path fill="url(#prefix__d)" d="M54 4h8v37h5l-9 13-9-13h5V4Z" clip-rule="evenodd" opacity=".5"/>
  <path fill="url(#prefix__e)" d="m54 27.031 8 .016V41h5l-9 13-9-13h5V27.031Z" clip-rule="evenodd"/>
  <path fill="url(#prefix__f)" d="M62 34v7h5l-9 13-9-13h5v-7h8Z" clip-rule="evenodd"/>
  <path fill="url(#prefix__g)" d="M32 91h8V54h5l-9-13-9 13h5v37Z" clip-rule="evenodd" opacity=".5"/>
  <path fill="url(#prefix__h)" d="m36 41 9 13h-5v20h-8V54h-5l9-13Z" clip-rule="evenodd"/>
  <defs>
    <linearGradient id="prefix__a" x1="110" x2="57.769" y1="47" y2="-20.707" gradientUnits="userSpaceOnUse">
      <stop stop-color="#70B1FF"/>
      <stop offset="1" stop-color="#005CCD"/>
    </linearGradient>
    <linearGradient id="prefix__b" x1="52.441" x2="19.969" y1="9.516" y2="80.817" gradientUnits="userSpaceOnUse">
      <stop stop-color="#70B1FF"/>
      <stop offset="1" stop-color="#005CCD"/>
    </linearGradient>
    <linearGradient id="prefix__c" x1="40" x2="74.462" y1="94" y2="33.692" gradientUnits="userSpaceOnUse">
      <stop stop-color="#76A3E5"/>
      <stop offset="1" stop-color="#92BCF7"/>
    </linearGradient>
    <linearGradient id="prefix__d" x1="52.962" x2="22.593" y1="-14.003" y2="1.179" gradientUnits="userSpaceOnUse">
      <stop stop-color="#70B1FF"/>
      <stop offset="1" stop-color="#005CCD"/>
    </linearGradient>
    <linearGradient id="prefix__e" x1="60.802" x2="60.802" y1="35.428" y2="27.031" gradientUnits="userSpaceOnUse">
      <stop stop-color="#6B9EE9"/>
      <stop offset="1" stop-color="#70A2EC"/>
    </linearGradient>
    <linearGradient id="prefix__f" x1="67" x2="67" y1="54" y2="34" gradientUnits="userSpaceOnUse">
      <stop stop-color="#497FDD"/>
      <stop offset="1" stop-color="#5287E4"/>
    </linearGradient>
    <linearGradient id="prefix__g" x1="33.404" x2="7.998" y1="114.11" y2="104.386" gradientUnits="userSpaceOnUse">
      <stop stop-color="#70B1FF"/>
      <stop offset="1" stop-color="#005CCD"/>
    </linearGradient>
    <linearGradient id="prefix__h" x1="27" x2="27" y1="41" y2="74" gradientUnits="userSpaceOnUse">
      <stop stop-color="#295296"/>
      <stop offset="1" stop-color="#3E78D3"/>
    </linearGradient>
  </defs>
</svg>
