<svg width="48" height="48" fill="none" viewBox="0 0 48 48" xmlns="http://www.w3.org/2000/svg">
  <path fill="url(#prefix__a)" d="M37 13.67v23.732H2v-27.31h13.502L19 13.632l18 .037Z" clip-rule="evenodd" opacity=".32"/>
  <path fill="url(#prefix__b)" d="M46 17.172H11l-9 20.23h35l9-20.23Z" clip-rule="evenodd" opacity=".33"/>
  <path fill="url(#prefix__c)" d="M37 17.172v20.23H2l9-20.23h26Z" clip-rule="evenodd"/>
  <path fill="url(#prefix__d)" d="M26.5 2h4v18.713H33l-4.5 6.574-4.5-6.574h2.5V2Z" clip-rule="evenodd" opacity=".5"/>
  <path fill="url(#prefix__e)" d="m26.5 13.648 4 .008v7.057H33l-4.5 6.574-4.5-6.574h2.5v-7.065Z" clip-rule="evenodd"/>
  <path fill="url(#prefix__f)" d="M30.5 17.172v3.54H33l-4.5 6.575-4.5-6.574h2.5v-3.54h4Z" clip-rule="evenodd"/>
  <path fill="url(#prefix__g)" d="M15.5 46h4V27.287H22l-4.5-6.574-4.5 6.574h2.5V46Z" clip-rule="evenodd" opacity=".5"/>
  <path fill="url(#prefix__h)" d="m17.5 20.713 4.5 6.574h-2.5v10.115h-4V27.287H13l4.5-6.574Z" clip-rule="evenodd"/>
  <defs>
    <linearGradient id="prefix__a" x1="54.5" x2="28.009" y1="23.747" y2="-10.203" gradientUnits="userSpaceOnUse">
      <stop stop-color="#70B1FF"/>
      <stop offset="1" stop-color="#005CCD"/>
    </linearGradient>
    <linearGradient id="prefix__b" x1="25.721" x2="9.175" y1="4.789" y2="40.707" gradientUnits="userSpaceOnUse">
      <stop stop-color="#70B1FF"/>
      <stop offset="1" stop-color="#005CCD"/>
    </linearGradient>
    <linearGradient id="prefix__c" x1="19.5" x2="37.029" y1="47.517" y2="17.189" gradientUnits="userSpaceOnUse">
      <stop stop-color="#76A3E5"/>
      <stop offset="1" stop-color="#92BCF7"/>
    </linearGradient>
    <linearGradient id="prefix__d" x1="25.981" x2="10.728" y1="-7.105" y2=".434" gradientUnits="userSpaceOnUse">
      <stop stop-color="#70B1FF"/>
      <stop offset="1" stop-color="#005CCD"/>
    </linearGradient>
    <linearGradient id="prefix__e" x1="29.901" x2="29.901" y1="17.895" y2="13.648" gradientUnits="userSpaceOnUse">
      <stop stop-color="#6B9EE9"/>
      <stop offset="1" stop-color="#70A2EC"/>
    </linearGradient>
    <linearGradient id="prefix__f" x1="33" x2="33" y1="27.287" y2="17.172" gradientUnits="userSpaceOnUse">
      <stop stop-color="#497FDD"/>
      <stop offset="1" stop-color="#5287E4"/>
    </linearGradient>
    <linearGradient id="prefix__g" x1="16.202" x2="3.462" y1="57.688" y2="52.867" gradientUnits="userSpaceOnUse">
      <stop stop-color="#70B1FF"/>
      <stop offset="1" stop-color="#005CCD"/>
    </linearGradient>
    <linearGradient id="prefix__h" x1="13" x2="13" y1="20.713" y2="37.402" gradientUnits="userSpaceOnUse">
      <stop stop-color="#295296"/>
      <stop offset="1" stop-color="#3E78D3"/>
    </linearGradient>
  </defs>
</svg>
