<svg width="48" height="48" fill="none" viewBox="0 0 48 48" xmlns="http://www.w3.org/2000/svg">
  <path fill="url(#prefix__a)" d="M24.758 2h14.154L47 10v21H24.758V2Z" clip-rule="evenodd" opacity=".38"/>
  <path fill="url(#prefix__b)" d="M38.912 2 47 10h-8.088V2Z" clip-rule="evenodd"/>
  <path fill="url(#prefix__c)" d="M13.637 9h14.154l8.088 8v21H13.637V9Z" clip-rule="evenodd" opacity=".38"/>
  <path fill="url(#prefix__d)" d="m27.791 9 8.088 8H27.79V9Z" clip-rule="evenodd"/>
  <path fill="url(#prefix__e)" d="M12.626 47c6.421 0 11.627-5.149 11.627-11.5S19.047 24 12.626 24C6.206 24 1 29.149 1 35.5S6.205 47 12.626 47Z" clip-rule="evenodd" opacity=".5"/>
  <path fill="url(#prefix__f)" d="M13.637 24.043c5.948.507 10.616 5.443 10.616 11.457 0 .859-.096 1.695-.276 2.5h-10.34V24.043Z" clip-rule="evenodd"/>
  <path fill="url(#prefix__g)" d="m7.144 34.228-2.1 2.09L10.25 41.5l9.958-9.91-2.1-2.09-7.858 7.82-3.107-3.092Z"/>
  <path fill="url(#prefix__h)" d="m18.109 29.5 2.1 2.09L13.768 38h-.13v-4.05l4.471-4.45Z" clip-rule="evenodd"/>
  <defs>
    <linearGradient id="prefix__a" x1="33.207" x2="9.981" y1="-6.064" y2="12.959" gradientUnits="userSpaceOnUse">
      <stop stop-color="#70B1FF"/>
      <stop offset="1" stop-color="#005CCD"/>
    </linearGradient>
    <linearGradient id="prefix__b" x1="40.934" x2="36.934" y1="4" y2="8.044" gradientUnits="userSpaceOnUse">
      <stop stop-color="#8FB9F9"/>
      <stop offset="1" stop-color="#81ACEF"/>
    </linearGradient>
    <linearGradient id="prefix__c" x1="22.727" x2="-.657" y1="1.434" y2="19.669" gradientUnits="userSpaceOnUse">
      <stop stop-color="#70B1FF"/>
      <stop offset="1" stop-color="#005CCD"/>
    </linearGradient>
    <linearGradient id="prefix__d" x1="46.98" x2="34.181" y1="14.599" y2="-.951" gradientUnits="userSpaceOnUse">
      <stop stop-color="#295296"/>
      <stop offset="1" stop-color="#3E78D3"/>
    </linearGradient>
    <linearGradient id="prefix__e" x1="10.504" x2="-8.612" y1="18" y2="37.649" gradientUnits="userSpaceOnUse">
      <stop stop-color="#70B1FF"/>
      <stop offset="1" stop-color="#005CCD"/>
    </linearGradient>
    <linearGradient id="prefix__f" x1="17.681" x2="27.498" y1="43.014" y2="35.094" gradientUnits="userSpaceOnUse">
      <stop stop-color="#5D91E2"/>
      <stop offset="1" stop-color="#77A9F3"/>
    </linearGradient>
    <linearGradient id="prefix__g" x1="12.829" x2="2.259" y1="24.331" y2="35.125" gradientUnits="userSpaceOnUse">
      <stop stop-color="#70B1FF"/>
      <stop offset="1" stop-color="#477ED8"/>
    </linearGradient>
    <linearGradient id="prefix__h" x1="16.923" x2="23.367" y1="41.064" y2="34.155" gradientUnits="userSpaceOnUse">
      <stop stop-color="#295296"/>
      <stop offset="1" stop-color="#3E78D3"/>
    </linearGradient>
  </defs>
</svg>
