<svg width="96" height="96" fill="none" viewBox="0 0 96 96" xmlns="http://www.w3.org/2000/svg">
  <path fill="url(#prefix__a)" d="M61.904 1a34.491 34.491 0 0 1 12.232 5.065 6.937 6.937 0 0 0 9.799 9.799A34.492 34.492 0 0 1 89 28.096a6.938 6.938 0 0 0 0 13.808 34.492 34.492 0 0 1-5.065 12.232 6.937 6.937 0 0 0-9.799 9.799A34.492 34.492 0 0 1 61.904 69a6.938 6.938 0 0 0-13.808 0 34.492 34.492 0 0 1-12.232-5.065 6.937 6.937 0 0 0-9.799-9.799A34.492 34.492 0 0 1 21 41.904a6.938 6.938 0 0 0 0-13.808 34.492 34.492 0 0 1 5.065-12.232 6.937 6.937 0 0 0 9.799-9.799A34.491 34.491 0 0 1 48.096 1a6.938 6.938 0 0 0 13.808 0ZM55 18c-9.389 0-17 7.611-17 17s7.611 17 17 17 17-7.611 17-17-7.611-17-17-17Z" clip-rule="evenodd" opacity=".38"/>
  <path fill="url(#prefix__b)" d="M55 43a8 8 0 1 0 0-16 8 8 0 0 0 0 16Z" clip-rule="evenodd"/>
  <path fill="url(#prefix__c)" d="m1.344 63.77 13.175-9.541a5.367 5.367 0 0 1 3.778-.983l43.891 5.185A5.302 5.302 0 0 1 61.566 69H37l13.082 9.751a9.974 9.974 0 0 0 9.95 1.145l14.57-6.359a21.085 21.085 0 0 1 19.913 1.639.32.32 0 0 1-.039.558L55.031 94.056a7.175 7.175 0 0 1-4.232.555C43.3 93.334 18.25 89.422 1 91l.344-27.23Z" clip-rule="evenodd" opacity=".55"/>
  <path fill="url(#prefix__d)" d="m36.465 55.393 25.567 3.02A5.474 5.474 0 0 1 66.862 64a5.142 5.142 0 0 1-3.06 4.562l-.93.228-.967.207A6.938 6.938 0 0 0 48.096 69a34.494 34.494 0 0 1-12.233-5.065 6.912 6.912 0 0 0 1.793-4.654c0-1.441-.44-2.78-1.191-3.888Z" clip-rule="evenodd"/>
  <defs>
    <linearGradient id="prefix__a" x1="-16.131" x2="25.506" y1="15.557" y2="89.818" gradientUnits="userSpaceOnUse">
      <stop stop-color="#70B1FF"/>
      <stop offset="1" stop-color="#005CCD"/>
    </linearGradient>
    <linearGradient id="prefix__b" x1="49.374" x2="67.371" y1="55.185" y2="37.846" gradientUnits="userSpaceOnUse">
      <stop stop-color="#295296"/>
      <stop offset="1" stop-color="#3E78D3"/>
    </linearGradient>
    <linearGradient id="prefix__c" x1="131.055" x2="93.232" y1="74" y2="9.061" gradientUnits="userSpaceOnUse">
      <stop stop-color="#70B1FF"/>
      <stop offset="1" stop-color="#005CCD"/>
    </linearGradient>
    <linearGradient id="prefix__d" x1="18.936" x2="28.389" y1="60.943" y2="84.464" gradientUnits="userSpaceOnUse">
      <stop stop-color="#558ADF"/>
      <stop offset="1" stop-color="#598FE2"/>
    </linearGradient>
  </defs>
</svg>
