<svg width="48" height="48" fill="none" viewBox="0 0 48 48" xmlns="http://www.w3.org/2000/svg">
  <g fill-rule="evenodd" clip-path="url(#prefix__a)" clip-rule="evenodd">
    <path fill="url(#prefix__b)" d="M30.371 27.233a19.069 19.069 0 0 1-1.915 3.402c-1.006 1.418-1.83 2.4-2.466 2.946-.985.895-2.04 1.353-3.17 1.38-.812 0-1.79-.229-2.929-.692-1.142-.46-2.192-.688-3.152-.688-1.007 0-2.087.228-3.242.688-1.157.463-2.089.704-2.801.728-1.084.046-2.164-.426-3.242-1.416-.688-.594-1.549-1.61-2.58-3.05-1.106-1.539-2.016-3.322-2.728-5.356C1.383 22.98 1 20.852 1 18.793c0-2.359.516-4.393 1.549-6.098a9.031 9.031 0 0 1 3.244-3.242 8.804 8.804 0 0 1 4.385-1.223c.86 0 1.99.263 3.392.78 1.399.519 2.297.782 2.69.782.295 0 1.292-.308 2.984-.921 1.6-.569 2.949-.804 4.055-.712 2.996.24 5.248 1.407 6.745 3.51-2.68 1.604-4.006 3.852-3.98 6.735.025 2.245.85 4.114 2.47 5.598A8.124 8.124 0 0 0 31 25.601c-.198.567-.407 1.11-.629 1.632Z" opacity=".5"/>
    <path fill="url(#prefix__c)" d="M23.5.688c0 1.719-.65 3.324-1.948 4.81-1.565 1.765-3.458 2.786-5.51 2.625A5.179 5.179 0 0 1 16 7.472c0-1.65.744-3.417 2.066-4.86.66-.732 1.5-1.34 2.517-1.825C21.599.31 22.559.045 23.463 0c.026.23.037.46.037.688Z"/>
    <path fill="url(#prefix__d)" d="m47 44-5-4H10l-5 4v2h42v-2Z" opacity=".8"/>
    <path fill="url(#prefix__e)" d="M10 20h32v20H10V20Z" opacity=".36"/>
    <path fill="url(#prefix__f)" d="M28.533 24.002A8.124 8.124 0 0 0 31 25.601c-.198.567-.407 1.11-.629 1.632a19.069 19.069 0 0 1-1.915 3.402c-.94 1.324-1.72 2.267-2.337 2.83l-.13.115c-.984.896-2.04 1.354-3.17 1.38-.73 0-1.595-.185-2.59-.559l-.338-.132c-1.142-.46-2.192-.688-3.152-.688-.895 0-1.848.18-2.86.543l-.382.145c-1.157.463-2.089.704-2.801.728a3.431 3.431 0 0 1-.695-.042L10 20h16.23c.315 1.55 1.084 2.885 2.303 4.002Z"/>
  </g>
  <defs>
    <linearGradient id="prefix__b" x1="16" x2="42.697" y1="48.43" y2="18.613" gradientUnits="userSpaceOnUse">
      <stop stop-color="#70B1FF"/>
      <stop offset="1" stop-color="#005CCD"/>
    </linearGradient>
    <linearGradient id="prefix__c" x1="19.75" x2="11.638" y1="-4.07" y2="3.405" gradientUnits="userSpaceOnUse">
      <stop stop-color="#295296"/>
      <stop offset="1" stop-color="#3E78D3"/>
    </linearGradient>
    <linearGradient id="prefix__d" x1="-16" x2="-14.32" y1="43" y2="54.76" gradientUnits="userSpaceOnUse">
      <stop stop-color="#8DBCFF"/>
      <stop offset="1" stop-color="#4D82D5"/>
    </linearGradient>
    <linearGradient id="prefix__e" x1="58" x2="40.023" y1="30" y2="1.236" gradientUnits="userSpaceOnUse">
      <stop stop-color="#70B1FF"/>
      <stop offset="1" stop-color="#005CCD"/>
    </linearGradient>
    <linearGradient id="prefix__f" x1=".692" x2="11.425" y1="25.894" y2="42.844" gradientUnits="userSpaceOnUse">
      <stop stop-color="#6093E3"/>
      <stop offset="1" stop-color="#6194E3"/>
    </linearGradient>
    <clipPath id="prefix__a">
      <path fill="#fff" d="M0 0h48v48H0z"/>
    </clipPath>
  </defs>
</svg>
