<svg width="48" height="48" fill="none" viewBox="0 0 48 48" xmlns="http://www.w3.org/2000/svg">
  <path fill="url(#prefix__a)" d="M0 33a2 2 0 0 0 2 2h44a2 2 0 0 0 2-2V3a2 2 0 0 0-2-2H2a2 2 0 0 0-2 2v30Zm42-15a2 2 0 1 1 4 0 2 2 0 0 1-4 0Z" clip-rule="evenodd" opacity=".3"/>
  <path fill="url(#prefix__b)" d="M46 1a2 2 0 0 1 2 2v30a2 2 0 0 1-2 2h-6V1h6Zm-2 15a2 2 0 1 0 0 4 2 2 0 0 0 0-4Z" clip-rule="evenodd"/>
  <path fill="url(#prefix__c)" d="M2 1h2v34H2a2 2 0 0 1-2-2V3a2 2 0 0 1 2-2Z" clip-rule="evenodd"/>
  <path fill="url(#prefix__d)" d="M28 12v3H8v-3h20Zm5-6v3H8V6h25Z" clip-rule="evenodd"/>
  <path fill="url(#prefix__e)" d="M15 32a7 7 0 1 0 0-14 7 7 0 0 0 0 14Z" clip-rule="evenodd"/>
  <path fill="url(#prefix__f)" d="M21.261 47 11 41.076l.5-.866a4 4 0 0 1 5.464-1.464l4.625 2.67-9.045-15.666a2.5 2.5 0 0 1 4.33-2.5l5 8.66a2.5 2.5 0 0 1 4.647-.95l.5.866a2.5 2.5 0 0 1 4.647-.95l.5.865a2.5 2.5 0 0 1 4.464-.268L42.792 47h-21.53Z" clip-rule="evenodd" opacity=".45"/>
  <path fill="url(#prefix__g)" d="M20.433 29.414a6.993 6.993 0 0 1-4.33 2.5l-3.559-6.164a2.5 2.5 0 0 1 4.33-2.5l3.56 6.164Z" clip-rule="evenodd"/>
  <defs>
    <linearGradient id="prefix__a" x1="24" x2="49.3" y1="49.202" y2="6.445" gradientUnits="userSpaceOnUse">
      <stop stop-color="#70B1FF"/>
      <stop offset="1" stop-color="#005CCD"/>
    </linearGradient>
    <linearGradient id="prefix__b" x1="44" x2="28.839" y1="-16" y2="-12.433" gradientUnits="userSpaceOnUse">
      <stop stop-color="#8BB5F0"/>
      <stop offset="1" stop-color="#7CA8E6"/>
    </linearGradient>
    <linearGradient id="prefix__c" x1="3.256" x2="-4.978" y1="-21.337" y2="-20.6" gradientUnits="userSpaceOnUse">
      <stop stop-color="#9EC5FA"/>
      <stop offset="1" stop-color="#8AB4EF"/>
    </linearGradient>
    <linearGradient id="prefix__d" x1="20.5" x2="26.236" y1="19.5" y2="3.565" gradientUnits="userSpaceOnUse">
      <stop stop-color="#9BC2FB"/>
      <stop offset="1" stop-color="#729FE2"/>
    </linearGradient>
    <linearGradient id="prefix__e" x1="14.809" x2="25.559" y1="35.156" y2="25.195" gradientUnits="userSpaceOnUse">
      <stop stop-color="#8CB9F9"/>
      <stop offset="1" stop-color="#6D9EE7"/>
    </linearGradient>
    <linearGradient id="prefix__f" x1="57.644" x2="34.613" y1="35.183" y2="6.235" gradientUnits="userSpaceOnUse">
      <stop stop-color="#70B1FF"/>
      <stop offset="1" stop-color="#005CCD"/>
    </linearGradient>
    <linearGradient id="prefix__g" x1="0" x2="10.505" y1="16.059" y2="35.119" gradientUnits="userSpaceOnUse">
      <stop stop-color="#295296"/>
      <stop offset="1" stop-color="#3E78D3"/>
    </linearGradient>
  </defs>
</svg>
