<svg width="96" height="96" fill="none" viewBox="0 0 96 96" xmlns="http://www.w3.org/2000/svg">
  <path fill="url(#prefix__a)" d="M22 14h56v56H22z" opacity=".35"/>
  <path fill="url(#prefix__b)" d="M38 0h56v56H38z" opacity=".35"/>
  <path fill="url(#prefix__c)" d="M78 14v42H38V14h40Z" clip-rule="evenodd"/>
  <path fill="url(#prefix__d)" d="M56 24c7.57 0 13.738 6.01 13.992 13.519L70 38v7.834c0 4.84 3.344 9.002 8 10.089v8.154a10.362 10.362 0 0 0-7.99 9.63l-.01.459V82c0 7.57-6.01 13.738-13.519 13.992L56 96h-8v-8h8a6 6 0 0 0 5.99-5.647L62 82v-7.835a18.348 18.348 0 0 1 6.5-14.017l.18-.148-.18-.148a18.349 18.349 0 0 1-6.492-13.48L62 45.833V38a6 6 0 0 0-5.648-5.99L56 32h-8v-8h8Z" clip-rule="evenodd" opacity=".6"/>
  <path fill="url(#prefix__e)" d="M56 24c7.57 0 13.738 6.01 13.992 13.519L70 38v7.834c0 4.84 3.344 9.002 8 10.089v8.154A10.363 10.363 0 0 0 70.873 70h-8.397a18.378 18.378 0 0 1 6.024-9.852l.18-.148-.18-.148a18.349 18.349 0 0 1-6.492-13.48L62 45.833V38a6 6 0 0 0-5.648-5.99L56 32h-8v-8h8Z" clip-rule="evenodd"/>
  <path fill="url(#prefix__f)" d="M31.996 24v8h-8l-.353.01a6 6 0 0 0-5.637 5.638l-.01.352v7.834l-.008.537a18.344 18.344 0 0 1-6.034 13.079l-.458.401-.18.149.18.148a18.35 18.35 0 0 1 6.489 13.378l.01.64V82l.011.353a6 6 0 0 0 5.637 5.637l.353.01h8v8h-8l-.481-.008c-7.35-.248-13.263-6.161-13.511-13.51L9.996 82v-7.835l-.01-.458A10.362 10.362 0 0 0 2 64.077v-8.155a10.362 10.362 0 0 0 7.985-9.621l.01-.467V38l.009-.481c.248-7.35 6.161-13.263 13.51-13.51l.482-.009h8Z" clip-rule="evenodd" opacity=".6"/>
  <path fill="url(#prefix__g)" d="M31.996 24v8h-8l-.353.01a5.971 5.971 0 0 0-1.646.33L22 24.142a14.07 14.07 0 0 1 1.515-.133l.482-.008h8Z" clip-rule="evenodd"/>
  <defs>
    <linearGradient id="prefix__a" x1="50" x2="-6" y1="-14" y2="42" gradientUnits="userSpaceOnUse">
      <stop stop-color="#70B1FF"/>
      <stop offset="1" stop-color="#005CCD"/>
    </linearGradient>
    <linearGradient id="prefix__b" x1="66" x2="10" y1="-28" y2="28" gradientUnits="userSpaceOnUse">
      <stop stop-color="#70B1FF"/>
      <stop offset="1" stop-color="#005CCD"/>
    </linearGradient>
    <linearGradient id="prefix__c" x1="58" x2="16.05" y1="-7" y2="32.952" gradientUnits="userSpaceOnUse">
      <stop stop-color="#93BCFA"/>
      <stop offset="1" stop-color="#6C9BE1"/>
    </linearGradient>
    <linearGradient id="prefix__d" x1="31.619" x2="81.097" y1="39.413" y2="76.182" gradientUnits="userSpaceOnUse">
      <stop stop-color="#70B1FF"/>
      <stop offset="1" stop-color="#005CCD"/>
    </linearGradient>
    <linearGradient id="prefix__e" x1="93" x2="50.904" y1="47" y2="19.547" gradientUnits="userSpaceOnUse">
      <stop stop-color="#295296"/>
      <stop offset="1" stop-color="#3E78D3"/>
    </linearGradient>
    <linearGradient id="prefix__f" x1="-14.379" x2="35.097" y1="39.413" y2="76.176" gradientUnits="userSpaceOnUse">
      <stop stop-color="#70B1FF"/>
      <stop offset="1" stop-color="#005CCD"/>
    </linearGradient>
    <linearGradient id="prefix__g" x1="33.052" x2="48.345" y1="69.02" y2="30.489" gradientUnits="userSpaceOnUse">
      <stop stop-color="#295296"/>
      <stop offset="1" stop-color="#3E78D3"/>
    </linearGradient>
  </defs>
</svg>
