<svg width="48" height="48" fill="none" viewBox="0 0 48 48" xmlns="http://www.w3.org/2000/svg">
  <path fill="url(#prefix__a)" d="M0 5h44v29H0V5Z" clip-rule="evenodd" opacity=".276"/>
  <path fill="url(#prefix__b)" d="M42 0a2 2 0 0 1 1.995 1.85L44 2v3H0V2A2 2 0 0 1 1.85.005L2 0h40Zm-6 1a1.5 1.5 0 1 0 0 3 1.5 1.5 0 0 0 0-3Z" clip-rule="evenodd" opacity=".55"/>
  <path fill="url(#prefix__c)" d="M40.5 4a1.5 1.5 0 1 0 0-3 1.5 1.5 0 0 0 0 3Z" clip-rule="evenodd"/>
  <path fill="url(#prefix__d)" d="M16 10h32v3H16v-3Z" clip-rule="evenodd" opacity=".346"/>
  <path fill="url(#prefix__e)" d="M16 10h28v3H16v-3Z" clip-rule="evenodd"/>
  <path fill="url(#prefix__f)" d="M16 16h22v3H16v-3Z" clip-rule="evenodd"/>
  <path fill="url(#prefix__g)" d="M16 22h12v3H16v-3Z" clip-rule="evenodd"/>
  <path fill="url(#prefix__h)" d="M40.28 34 24 28l6.047 16.28 3.72-3.722L41.21 48 44 45.21l-7.442-7.443L40.28 34Z" clip-rule="evenodd" opacity=".6"/>
  <path fill="url(#prefix__i)" d="m24 28 16.28 6H26.227L24 28Z" clip-rule="evenodd"/>
  <path fill="url(#prefix__j)" d="M3 10h10v15H3V10Z" clip-rule="evenodd" opacity=".55"/>
  <defs>
    <linearGradient id="prefix__a" x1="22" x2="-4.65" y1="-9.5" y2="30.935" gradientUnits="userSpaceOnUse">
      <stop stop-color="#70B1FF"/>
      <stop offset="1" stop-color="#005CCD"/>
    </linearGradient>
    <linearGradient id="prefix__b" x1="22" x2="20.878" y1="-2.5" y2="7.373" gradientUnits="userSpaceOnUse">
      <stop stop-color="#70B1FF"/>
      <stop offset="1" stop-color="#005CCD"/>
    </linearGradient>
    <linearGradient id="prefix__c" x1="49.755" x2="42.224" y1="3.571" y2="-4.041" gradientUnits="userSpaceOnUse">
      <stop stop-color="#295296"/>
      <stop offset="1" stop-color="#3E78D3"/>
    </linearGradient>
    <linearGradient id="prefix__d" x1="32" x2="32.558" y1="14.5" y2="8.552" gradientUnits="userSpaceOnUse">
      <stop stop-color="#70B1FF"/>
      <stop offset="1" stop-color="#005CCD"/>
    </linearGradient>
    <linearGradient id="prefix__e" x1="30" x2="30.636" y1="14.5" y2="8.568" gradientUnits="userSpaceOnUse">
      <stop stop-color="#97BFF7"/>
      <stop offset="1" stop-color="#88B2EF"/>
    </linearGradient>
    <linearGradient id="prefix__f" x1="27" x2="27.803" y1="20.5" y2="14.61" gradientUnits="userSpaceOnUse">
      <stop stop-color="#97BFF7"/>
      <stop offset="1" stop-color="#88B2EF"/>
    </linearGradient>
    <linearGradient id="prefix__g" x1="22" x2="23.412" y1="26.5" y2="20.853" gradientUnits="userSpaceOnUse">
      <stop stop-color="#97BFF7"/>
      <stop offset="1" stop-color="#88B2EF"/>
    </linearGradient>
    <linearGradient id="prefix__h" x1="48.833" x2="32.773" y1="39.97" y2="25.027" gradientUnits="userSpaceOnUse">
      <stop stop-color="#70B1FF"/>
      <stop offset="1" stop-color="#005CCD"/>
    </linearGradient>
    <linearGradient id="prefix__i" x1="13.888" x2="15.521" y1="29.84" y2="38.815" gradientUnits="userSpaceOnUse">
      <stop stop-color="#295296"/>
      <stop offset="1" stop-color="#3E78D3"/>
    </linearGradient>
    <linearGradient id="prefix__j" x1="-7.162" x2="11.502" y1="13.931" y2="27.12" gradientUnits="userSpaceOnUse">
      <stop stop-color="#70B1FF" stop-opacity=".7"/>
      <stop offset="1" stop-color="#005CCD"/>
    </linearGradient>
  </defs>
</svg>
