<svg width="96" height="96" fill="none" viewBox="0 0 96 96" xmlns="http://www.w3.org/2000/svg">
  <g fill-rule="evenodd" clip-path="url(#prefix__a)" clip-rule="evenodd">
    <path fill="url(#prefix__b)" d="M93.91 47.203a33.056 33.056 0 0 1-3.319 5.897c-1.745 2.459-3.174 4.161-4.275 5.106-1.708 1.552-3.537 2.346-5.495 2.391-1.406 0-3.102-.395-5.076-1.197-1.98-.798-3.8-1.194-5.465-1.194-1.745 0-3.617.396-5.619 1.194-2.005.802-3.62 1.22-4.855 1.261-1.879.08-3.75-.738-5.62-2.455-1.192-1.028-2.684-2.79-4.471-5.287-1.918-2.666-3.494-5.758-4.73-9.282C43.664 39.83 43 36.143 43 32.574c0-4.088.894-7.614 2.685-10.57 1.407-2.373 3.279-4.245 5.622-5.62 2.343-1.374 4.875-2.075 7.602-2.12 1.492 0 3.448.457 5.88 1.353 2.423.9 3.98 1.355 4.663 1.355.51 0 2.24-.533 5.17-1.596 2.773-.986 5.113-1.394 7.03-1.233 5.193.414 9.095 2.437 11.69 6.082-4.645 2.782-6.943 6.677-6.897 11.675.042 3.892 1.471 7.131 4.28 9.703A14.078 14.078 0 0 0 95 44.375a45.398 45.398 0 0 1-1.09 2.828Z" opacity=".5"/>
    <path fill="url(#prefix__c)" d="M9.006 49.354c.34-18.265 15.083-33.008 33.348-33.348L43 16v-6l16 11-16 11v-6c-13.05 0-23.669 10.417-23.992 23.39L19 50v14H9V50l.006-.646Z" opacity=".45"/>
    <path fill="url(#prefix__d)" d="M51.846 16.084 59 21 43.008 31.996l.004-.232c.111-3.746 1.001-7.002 2.672-9.76 1.408-2.373 3.28-4.245 5.623-5.62l.539-.3Z"/>
    <path fill="url(#prefix__e)" d="M82 1.192c0 2.98-1.128 5.762-3.376 8.337-2.713 3.06-5.994 4.83-9.552 4.55A8.966 8.966 0 0 1 69 12.952c0-2.86 1.29-5.922 3.581-8.425 1.144-1.267 2.599-2.321 4.363-3.162C78.704.536 80.369.078 81.935 0c.046.398.065.797.065 1.192Z"/>
    <path fill="url(#prefix__f)" d="M29 69.998 59 70v26l-30-4V69.998Zm-6 0V91.2L1 88.267V70l22-.002ZM23 42.8v21.198L1 64V45.733L23 42.8ZM59 38v26l-30-.002V42l30-4Z" opacity=".5"/>
    <path fill="url(#prefix__g)" d="M59 38v22.64c-1.475-.14-2.945-.832-4.413-2.08l-.4-.354c-1.193-1.028-2.685-2.79-4.472-5.287-1.918-2.666-3.494-5.758-4.73-9.282a38.918 38.918 0 0 1-1.068-3.626L59 38Z"/>
    <path fill="url(#prefix__h)" d="M19.008 49.39 19 50v13.998L9 64V50l.006-.646c.03-1.61.172-3.194.419-4.743l10.551-1.408a23.973 23.973 0 0 0-.968 6.187Z"/>
  </g>
  <defs>
    <linearGradient id="prefix__b" x1="69" x2="115.275" y1="83.946" y2="32.262" gradientUnits="userSpaceOnUse">
      <stop stop-color="#70B1FF"/>
      <stop offset="1" stop-color="#005CCD"/>
    </linearGradient>
    <linearGradient id="prefix__c" x1="76.821" x2="24.296" y1="37" y2="2.332" gradientUnits="userSpaceOnUse">
      <stop stop-color="#70B1FF"/>
      <stop offset="1" stop-color="#005CCD"/>
    </linearGradient>
    <linearGradient id="prefix__d" x1="48.835" x2="63.117" y1="39.13" y2="27.463" gradientUnits="userSpaceOnUse">
      <stop stop-color="#669AEC"/>
      <stop offset="1" stop-color="#5F94E8"/>
    </linearGradient>
    <linearGradient id="prefix__e" x1="75.5" x2="61.439" y1="-7.054" y2="5.902" gradientUnits="userSpaceOnUse">
      <stop stop-color="#295296"/>
      <stop offset="1" stop-color="#3E78D3"/>
    </linearGradient>
    <linearGradient id="prefix__f" x1="35.303" x2="-22.697" y1="9" y2="56.395" gradientUnits="userSpaceOnUse">
      <stop stop-color="#70B1FF"/>
      <stop offset="1" stop-color="#005CCD"/>
    </linearGradient>
    <linearGradient id="prefix__g" x1="54.095" x2="39.995" y1="30.186" y2="39.036" gradientUnits="userSpaceOnUse">
      <stop stop-color="#6DA2F5"/>
      <stop offset="1" stop-color="#6FA3F6"/>
    </linearGradient>
    <linearGradient id="prefix__h" x1="14.488" x2="-2.681" y1="32.805" y2="41.867" gradientUnits="userSpaceOnUse">
      <stop stop-color="#5A90E4"/>
      <stop offset="1" stop-color="#5389DF"/>
    </linearGradient>
    <clipPath id="prefix__a">
      <path fill="#fff" d="M0 0h96v96H0z"/>
    </clipPath>
  </defs>
</svg>
