<svg width="96" height="96" fill="none" viewBox="0 0 96 96" xmlns="http://www.w3.org/2000/svg">
  <path fill="url(#prefix__a)" d="M81.861 18.055C74.187 4.615 57.191.01 43.9 7.77c-13.292 7.76-17.846 24.946-10.172 38.386 7 12.26 21.757 17.169 34.383 12.046L85.124 88 92 83.986 74.988 54.187c10.699-8.496 13.873-23.872 6.873-36.132ZM40.604 42.142c-5.481-9.6-2.228-21.877 7.266-27.42 9.494-5.542 21.634-2.253 27.115 7.348 5.482 9.6 2.229 21.876-7.265 27.419-9.495 5.542-21.634 2.253-27.116-7.347Z" clip-rule="evenodd" opacity=".5"/>
  <path fill="url(#prefix__b)" d="M40.604 42.142A19.8 19.8 0 0 0 57.998 52.18v8.03c-9.666.063-19.091-4.983-24.27-14.054-4.367-7.648-4.774-16.51-1.865-24.157h8.777c-3.458 6.016-3.723 13.685-.036 20.143Z"/>
  <path fill="url(#prefix__c)" d="M80.24 63.386 92 83.986 85.124 88l-11.78-20.632 6.896-3.982Z" clip-rule="evenodd"/>
  <path fill="url(#prefix__d)" d="M47.87 14.723c-9.494 5.542-12.747 17.818-7.266 27.419 5.482 9.6 17.621 12.89 27.116 7.347 9.494-5.543 12.747-17.819 7.265-27.42-5.481-9.6-17.621-12.889-27.115-7.346Z" clip-rule="evenodd" opacity=".34"/>
  <path fill="url(#prefix__e)" d="M58 22H20L4 38v54h54V22Z" clip-rule="evenodd" opacity=".35"/>
  <path fill="url(#prefix__f)" d="M20 22 4 38h16V22Z" clip-rule="evenodd"/>
  <path fill="url(#prefix__g)" d="M81.783 12 86 16.195 58.048 44 46 32.015l4.217-4.195 7.831 7.79L81.783 12Z" opacity=".5"/>
  <path fill="url(#prefix__h)" d="M81.861 18.055c.279.488.54.98.787 1.477l-6.079 6.046a20.282 20.282 0 0 0-2.891-5.514l5.697-5.67a28.33 28.33 0 0 1 2.486 3.661Z"/>
  <path fill="url(#prefix__i)" d="M50.217 28 58 35.678V44L46 32.161 50.217 28Z" clip-rule="evenodd"/>
  <defs>
    <linearGradient id="prefix__a" x1="98.976" x2="44.965" y1="46.301" y2="7.124" gradientUnits="userSpaceOnUse">
      <stop stop-color="#70B1FF"/>
      <stop offset="1" stop-color="#005CCD"/>
    </linearGradient>
    <linearGradient id="prefix__b" x1="71.997" x2="37.594" y1="42.619" y2="15.243" gradientUnits="userSpaceOnUse">
      <stop stop-color="#74A4F0"/>
      <stop offset="1" stop-color="#5C92E2"/>
    </linearGradient>
    <linearGradient id="prefix__c" x1="94.668" x2="85.794" y1="84.445" y2="61.159" gradientUnits="userSpaceOnUse">
      <stop stop-color="#295296"/>
      <stop offset="1" stop-color="#3E78D3"/>
    </linearGradient>
    <linearGradient id="prefix__d" x1="57.813" x2="29.042" y1="3.46" y2="31.057" gradientUnits="userSpaceOnUse">
      <stop stop-color="#84B4FA"/>
      <stop offset="1" stop-color="#4E82D5"/>
    </linearGradient>
    <linearGradient id="prefix__e" x1="85" x2="17.293" y1="57" y2="109.231" gradientUnits="userSpaceOnUse">
      <stop stop-color="#70B1FF"/>
      <stop offset="1" stop-color="#005CCD"/>
    </linearGradient>
    <linearGradient id="prefix__f" x1="22.225" x2="26.169" y1="23.689" y2="36.028" gradientUnits="userSpaceOnUse">
      <stop stop-color="#85B0F3"/>
      <stop offset="1" stop-color="#699BE6"/>
    </linearGradient>
    <linearGradient id="prefix__g" x1="62.182" x2="45.44" y1="2.515" y2="37.82" gradientUnits="userSpaceOnUse">
      <stop stop-color="#70B1FF"/>
      <stop offset="1" stop-color="#005CCD"/>
    </linearGradient>
    <linearGradient id="prefix__h" x1="79.43" x2="86.343" y1="28.913" y2="21.61" gradientUnits="userSpaceOnUse">
      <stop stop-color="#5B91E7"/>
      <stop offset="1" stop-color="#6096EB"/>
    </linearGradient>
    <linearGradient id="prefix__i" x1="43.1" x2="57.733" y1="41.769" y2="46.431" gradientUnits="userSpaceOnUse">
      <stop stop-color="#295296"/>
      <stop offset="1" stop-color="#3E78D3"/>
    </linearGradient>
  </defs>
</svg>
