<svg width="96" height="96" fill="none" viewBox="0 0 96 96" xmlns="http://www.w3.org/2000/svg">
  <rect width="48" height="86" x="3" fill="url(#prefix__a)" opacity=".4" rx="2.667"/>
  <path fill="url(#prefix__b)" d="m50.749 20.486 10 17.22a4.962 4.962 0 0 1 2.464-3.71c2.391-1.373 5.45-.558 6.83 1.82l1 1.72a4.962 4.962 0 0 1 2.464-3.71c2.391-1.372 5.45-.557 6.83 1.82l1 1.722a4.958 4.958 0 0 1 2.098-2.352c2.392-1.373 5.45-.558 6.83 1.82l2.733 6.85L93 96 75.32 76.096 39 55.93l1-1.722c2.21-3.804 7.102-5.108 10.928-2.911l9.249 5.308-18.088-31.148a4.955 4.955 0 0 1 1.83-6.79c2.391-1.373 5.449-.558 6.83 1.82Z" clip-rule="evenodd" opacity=".45"/>
  <path fill="url(#prefix__c)" d="m50.555 51.095.445.243v11.254L39 55.93l1-1.722c2.138-3.682 6.789-5.021 10.555-3.113Z" clip-rule="evenodd"/>
  <path fill="url(#prefix__d)" d="m50.749 20.486.251.434v19.882l-8.91-15.345a4.955 4.955 0 0 1 1.83-6.79c2.391-1.373 5.45-.558 6.83 1.82Z" clip-rule="evenodd"/>
  <path fill="url(#prefix__e)" d="M7.8 0h38.4C48.851 0 51 2.239 51 5v5H3V5c0-2.761 2.149-5 4.8-5Z" clip-rule="evenodd"/>
  <path fill="url(#prefix__f)" d="M3 70h48v10.5c0 3.038-2.388 5.5-5.333 5.5H8.333C5.388 86 3 83.538 3 80.5V70Zm24 12a4 4 0 1 0 0-8 4 4 0 0 0 0 8Z" clip-rule="evenodd"/>
  <path fill="#fff" d="M7 16h12v12H7z"/>
  <path fill="url(#prefix__g)" d="M7 34h12v12H7z"/>
  <path fill="url(#prefix__h)" d="M25 16h12v12H25z"/>
  <defs>
    <linearGradient id="prefix__a" x1="31.544" x2="101.45" y1="124.929" y2="81.832" gradientUnits="userSpaceOnUse">
      <stop stop-color="#70B1FF"/>
      <stop offset="1" stop-color="#005CCD"/>
    </linearGradient>
    <linearGradient id="prefix__b" x1="120" x2="55.522" y1="63.881" y2="9.679" gradientUnits="userSpaceOnUse">
      <stop stop-color="#70B1FF"/>
      <stop offset="1" stop-color="#005CCD"/>
    </linearGradient>
    <linearGradient id="prefix__c" x1="54" x2="41.86" y1="56.411" y2="50.519" gradientUnits="userSpaceOnUse">
      <stop stop-color="#6B9CEA"/>
      <stop offset="1" stop-color="#6799E8"/>
    </linearGradient>
    <linearGradient id="prefix__d" x1="55.791" x2="41.753" y1="35.102" y2="23.302" gradientUnits="userSpaceOnUse">
      <stop stop-color="#5E92E1"/>
      <stop offset="1" stop-color="#5487DA"/>
    </linearGradient>
    <linearGradient id="prefix__e" x1="27" x2="23.007" y1="-5" y2="14.168" gradientUnits="userSpaceOnUse">
      <stop stop-color="#719FE5"/>
      <stop offset="1" stop-color="#719CE2"/>
    </linearGradient>
    <linearGradient id="prefix__f" x1="27" x2="36.6" y1="94" y2="65.2" gradientUnits="userSpaceOnUse">
      <stop stop-color="#295296"/>
      <stop offset="1" stop-color="#3E78D3"/>
    </linearGradient>
    <linearGradient id="prefix__g" x1="13" x2="1" y1="28" y2="40" gradientUnits="userSpaceOnUse">
      <stop stop-color="#83ADEE"/>
      <stop offset="1" stop-color="#80A9EA"/>
    </linearGradient>
    <linearGradient id="prefix__h" x1="31" x2="19" y1="10" y2="22" gradientUnits="userSpaceOnUse">
      <stop stop-color="#7BA7EA"/>
      <stop offset="1" stop-color="#80A9EA"/>
    </linearGradient>
  </defs>
</svg>
