<svg width="96" height="96" fill="none" viewBox="0 0 96 96" xmlns="http://www.w3.org/2000/svg">
  <path fill="url(#prefix__a)" d="M84 25H13v20.553h71V25ZM26.079 35.276a2.803 2.803 0 1 1-5.605 0 2.803 2.803 0 0 1 5.605 0Z" clip-rule="evenodd" opacity=".45"/>
  <path fill="url(#prefix__b)" d="M13 51.158h71v20.553H13z" opacity=".45"/>
  <path fill="url(#prefix__c)" d="M84 45.553v5.605H13v-5.605h71Z" clip-rule="evenodd"/>
  <path fill="url(#prefix__d)" d="M23.276 64.237a2.803 2.803 0 1 0 0-5.605 2.803 2.803 0 0 0 0 5.605Z" clip-rule="evenodd"/>
  <path fill="url(#prefix__e)" d="M34.487 38.079a2.803 2.803 0 1 0 0-5.605 2.803 2.803 0 0 0 0 5.605Z" clip-rule="evenodd"/>
  <path fill="url(#prefix__f)" d="M34.487 64.237a2.803 2.803 0 1 0 0-5.605 2.803 2.803 0 0 0 0 5.605Z" clip-rule="evenodd"/>
  <defs>
    <linearGradient id="prefix__a" x1="48.5" x2="37.521" y1="14.724" y2="52.651" gradientUnits="userSpaceOnUse">
      <stop stop-color="#70B1FF"/>
      <stop offset="1" stop-color="#005CCD"/>
    </linearGradient>
    <linearGradient id="prefix__b" x1="-22.5" x2="-11.521" y1="61.434" y2="99.361" gradientUnits="userSpaceOnUse">
      <stop stop-color="#70B1FF"/>
      <stop offset="1" stop-color="#005CCD"/>
    </linearGradient>
    <linearGradient id="prefix__c" x1="48.959" x2="50.184" y1="56.218" y2="40.652" gradientUnits="userSpaceOnUse">
      <stop stop-color="#295296"/>
      <stop offset="1" stop-color="#3E78D3"/>
    </linearGradient>
    <linearGradient id="prefix__d" x1="23.507" x2="13.238" y1="51.672" y2="60.811" gradientUnits="userSpaceOnUse">
      <stop stop-color="#6FA2EC"/>
      <stop offset="1" stop-color="#5C90DF"/>
    </linearGradient>
    <linearGradient id="prefix__e" x1="34.718" x2="24.448" y1="25.514" y2="34.653" gradientUnits="userSpaceOnUse">
      <stop stop-color="#6FA2EC"/>
      <stop offset="1" stop-color="#5C90DF"/>
    </linearGradient>
    <linearGradient id="prefix__f" x1="34.523" x2="42.354" y1="69.297" y2="61.447" gradientUnits="userSpaceOnUse">
      <stop stop-color="#295296"/>
      <stop offset="1" stop-color="#3E78D3"/>
    </linearGradient>
  </defs>
</svg>
