<svg width="48" height="48" fill="none" viewBox="0 0 48 48" xmlns="http://www.w3.org/2000/svg">
  <path fill="url(#prefix__a)" d="M21 9c0 .168.005.335.015.5H17.75a5.25 5.25 0 1 0 0 10.5H40a8 8 0 1 0-3.19-15.339A8.5 8.5 0 0 0 21 9Z" opacity=".45"/>
  <path fill="url(#prefix__b)" d="M1 9.5h28V47H1V9.5Z" opacity=".35"/>
  <path fill="url(#prefix__c)" d="M29 20V9.5H17.75a5.25 5.25 0 1 0 0 10.5H29Z"/>
  <path fill="url(#prefix__d)" d="M11.5 39a3.5 3.5 0 1 1 7 0v8h-7v-8Z"/>
  <path fill="url(#prefix__e)" d="M4.5 15.5h5v8h-5v-8Z"/>
  <path fill="url(#prefix__f)" d="M17.5 15.5h-5v8h5v-8Z"/>
  <path fill="url(#prefix__g)" d="M17.5 25.5h-5v8h5v-8Z"/>
  <path fill="url(#prefix__h)" d="M9.5 25.5h-5v8h5v-8Z"/>
  <path fill="url(#prefix__i)" d="M20.5 15.5h5v8h-5v-8Z"/>
  <path fill="url(#prefix__j)" d="M25.5 25.5h-5v8h5v-8Z"/>
  <path fill="url(#prefix__k)" d="M17.5 19.994V15.5h-4.947a5.252 5.252 0 0 0 4.947 4.494Z"/>
  <path fill="url(#prefix__l)" d="M25.5 20v-4.5h-5V20h5Z"/>
  <path fill="url(#prefix__m)" d="M36 36h-7v4h11V20h-4v16Z" clip-rule="evenodd" opacity=".45"/>
  <path fill="url(#prefix__n)" d="M20.5 36H29v4h-8.5z"/>
  <path fill="url(#prefix__o)" d="M36 9.5h4V20h-4V9.5Z"/>
  <defs>
    <linearGradient id="prefix__a" x1="48" x2="28.995" y1=".5" y2="29.726" gradientUnits="userSpaceOnUse">
      <stop stop-color="#70B1FF"/>
      <stop offset="1" stop-color="#005CCD"/>
    </linearGradient>
    <linearGradient id="prefix__b" x1="16.481" x2="-9.168" y1="10.748" y2="35.939" gradientUnits="userSpaceOnUse">
      <stop stop-color="#70B1FF"/>
      <stop offset="1" stop-color="#005CCD"/>
    </linearGradient>
    <linearGradient id="prefix__c" x1="29" x2="13.614" y1="9.5" y2="21.436" gradientUnits="userSpaceOnUse">
      <stop stop-color="#81AFF0"/>
      <stop offset="1" stop-color="#73A2E8"/>
    </linearGradient>
    <linearGradient id="prefix__d" x1="18.5" x2="8.523" y1="35.5" y2="43.083" gradientUnits="userSpaceOnUse">
      <stop stop-color="#83B0F2"/>
      <stop offset="1" stop-color="#6696DF"/>
    </linearGradient>
    <linearGradient id="prefix__e" x1="4.5" x2="26.221" y1="33.5" y2="32.189" gradientUnits="userSpaceOnUse">
      <stop stop-color="#568BDB"/>
      <stop offset="1" stop-color="#8CBAFD"/>
    </linearGradient>
    <linearGradient id="prefix__f" x1="4.5" x2="26.221" y1="33.5" y2="32.189" gradientUnits="userSpaceOnUse">
      <stop stop-color="#568BDB"/>
      <stop offset="1" stop-color="#8CBAFD"/>
    </linearGradient>
    <linearGradient id="prefix__g" x1="4.5" x2="26.221" y1="33.5" y2="32.189" gradientUnits="userSpaceOnUse">
      <stop stop-color="#568BDB"/>
      <stop offset="1" stop-color="#8CBAFD"/>
    </linearGradient>
    <linearGradient id="prefix__h" x1="4.5" x2="26.221" y1="33.5" y2="32.189" gradientUnits="userSpaceOnUse">
      <stop stop-color="#568BDB"/>
      <stop offset="1" stop-color="#8CBAFD"/>
    </linearGradient>
    <linearGradient id="prefix__i" x1="4.5" x2="26.221" y1="33.5" y2="32.189" gradientUnits="userSpaceOnUse">
      <stop stop-color="#568BDB"/>
      <stop offset="1" stop-color="#8CBAFD"/>
    </linearGradient>
    <linearGradient id="prefix__j" x1="4.5" x2="26.221" y1="33.5" y2="32.189" gradientUnits="userSpaceOnUse">
      <stop stop-color="#568BDB"/>
      <stop offset="1" stop-color="#8CBAFD"/>
    </linearGradient>
    <linearGradient id="prefix__k" x1="17.5" x2="13.229" y1="15.5" y2="16.902" gradientUnits="userSpaceOnUse">
      <stop stop-color="#4E85E5"/>
      <stop offset="1" stop-color="#4980DF"/>
    </linearGradient>
    <linearGradient id="prefix__l" x1="25.5" x2="19.761" y1="15.5" y2="16.845" gradientUnits="userSpaceOnUse">
      <stop stop-color="#5A91EE"/>
      <stop offset="1" stop-color="#548BEA"/>
    </linearGradient>
    <linearGradient id="prefix__m" x1="40" x2="18.572" y1="10" y2="26.241" gradientUnits="userSpaceOnUse">
      <stop stop-color="#70B1FF"/>
      <stop offset="1" stop-color="#005CCD"/>
    </linearGradient>
    <linearGradient id="prefix__n" x1="22.578" x2="27.088" y1="43.393" y2="35.517" gradientUnits="userSpaceOnUse">
      <stop stop-color="#295296"/>
      <stop offset="1" stop-color="#3E78D3"/>
    </linearGradient>
    <linearGradient id="prefix__o" x1="36" x2="45.467" y1="34" y2="31.665" gradientUnits="userSpaceOnUse">
      <stop stop-color="#295296"/>
      <stop offset="1" stop-color="#3E78D3"/>
    </linearGradient>
  </defs>
</svg>
