<svg width="48" height="48" fill="none" viewBox="0 0 48 48" xmlns="http://www.w3.org/2000/svg">
  <path fill="url(#prefix__a)" d="M22.5 41.5h-17v4H44v-4H26.5V20h-4v21.5Z" clip-rule="evenodd" opacity=".4"/>
  <path fill="url(#prefix__b)" d="M17.5 40.5h14v6h-14z"/>
  <path fill="url(#prefix__c)" d="M12.082 34h24.774c3.118 0 5.644-2.686 5.644-6s-2.526-6-5.644-6H34.49c-.262-6.12-5.306-11-11.49-11a11.477 11.477 0 0 0-8.911 4.23A9.533 9.533 0 0 0 12 15a9.5 9.5 0 0 0 0 19h.082Z" clip-rule="evenodd" opacity=".4"/>
  <path fill="url(#prefix__d)" d="M39.586 15h.77C43.474 15 46 17.686 46 21s-2.526 6-5.644 6H12a9.5 9.5 0 0 1-1.21-18.924 6.503 6.503 0 0 1 9.978-3.373A10.973 10.973 0 0 1 29 1c6.075 0 11 4.925 11 11a11 11 0 0 1-.414 3Z" clip-rule="evenodd" opacity=".4"/>
  <path fill="url(#prefix__e)" d="M42.349 26.615a5.336 5.336 0 0 1-1.993.385H12a9.504 9.504 0 0 1-8.834-6 9.504 9.504 0 0 1 10.923-5.77 11.477 11.477 0 0 1 8.91-4.23c6.185 0 11.229 4.88 11.49 11h2.367c2.67 0 4.905 1.969 5.493 4.615Z"/>
  <path fill="url(#prefix__f)" d="M22.5 20h4v7h-4v-7Z"/>
  <defs>
    <linearGradient id="prefix__a" x1="-27.631" x2=".137" y1="38.946" y2="77.276" gradientUnits="userSpaceOnUse">
      <stop stop-color="#70B1FF"/>
      <stop offset="1" stop-color="#005CCD"/>
    </linearGradient>
    <linearGradient id="prefix__b" x1="20.922" x2="27.354" y1="51.59" y2="39.257" gradientUnits="userSpaceOnUse">
      <stop stop-color="#295296"/>
      <stop offset="1" stop-color="#3E78D3"/>
    </linearGradient>
    <linearGradient id="prefix__c" x1="24.615" x2="3.558" y1="1.933" y2="34.68" gradientUnits="userSpaceOnUse">
      <stop stop-color="#70B1FF"/>
      <stop offset="1" stop-color="#005CCD"/>
    </linearGradient>
    <linearGradient id="prefix__d" x1="26.55" x2="2.376" y1="-9.25" y2="26.917" gradientUnits="userSpaceOnUse">
      <stop stop-color="#70B1FF"/>
      <stop offset="1" stop-color="#005CCD"/>
    </linearGradient>
    <linearGradient id="prefix__e" x1="23.54" x2="9.998" y1="7.565" y2="26.542" gradientUnits="userSpaceOnUse">
      <stop stop-color="#87B3F4"/>
      <stop offset="1" stop-color="#6293DE"/>
    </linearGradient>
    <linearGradient id="prefix__f" x1="20.5" x2="25.436" y1="24.462" y2="28.351" gradientUnits="userSpaceOnUse">
      <stop stop-color="#4A80DD"/>
      <stop offset="1" stop-color="#4176D5"/>
    </linearGradient>
  </defs>
</svg>
