<svg width="48" height="48" fill="none" viewBox="0 0 48 48" xmlns="http://www.w3.org/2000/svg">
  <rect width="17.412" height="26.118" x="15.289" y="7.636" fill="url(#prefix__a)" opacity=".5" rx="8.706"/>
  <path fill="url(#prefix__b)" d="M24 0a2 2 0 0 1 2 2v18a2 2 0 1 1-4 0V2a2 2 0 0 1 2-2Zm-5 5a2 2 0 1 0-4 0v12a2 2 0 1 0 4 0V5Zm-9 .5a2 2 0 0 1 2 2v7a2 2 0 1 1-4 0v-7a2 2 0 0 1 2-2Zm-7 3a2 2 0 0 1 2 2v1a2 2 0 1 1-4 0v-1a2 2 0 0 1 2-2ZM33 5a2 2 0 1 0-4 0v12a2 2 0 1 0 4 0V5Zm5 .5a2 2 0 0 1 2 2v7a2 2 0 1 1-4 0v-7a2 2 0 0 1 2-2Zm9 5a2 2 0 1 0-4 0v1a2 2 0 1 0 4 0v-1Z" clip-rule="evenodd" opacity=".5"/>
  <path fill="url(#prefix__c)" d="M11.198 23.182a1.91 1.91 0 0 1 1.91 1.909c0 5.916 4.795 10.711 10.71 10.711 5.916 0 10.712-4.795 10.712-10.711a1.91 1.91 0 1 1 3.818 0c0 7.368-5.484 13.455-12.594 14.401v4.69h4.337a1.91 1.91 0 0 1 0 3.818H17.409a1.91 1.91 0 1 1 0-3.818h4.527V39.5C14.801 38.577 9.29 32.477 9.29 25.09a1.91 1.91 0 0 1 1.91-1.91Z" clip-rule="evenodd" opacity=".5"/>
  <path fill="url(#prefix__d)" d="M15.29 18.036v-1.694A8.695 8.695 0 0 1 19 9.211V17a2 2 0 0 1-3.71 1.036ZM29 9.218a8.695 8.695 0 0 1 3.7 7.124v1.71A1.999 1.999 0 0 1 29 17V9.218Zm-3-1.35V20a2 2 0 1 1-4 0V7.866a8.73 8.73 0 0 1 4 .002Z" clip-rule="evenodd"/>
  <defs>
    <linearGradient id="prefix__a" x1="23.995" x2="48.103" y1="46.813" y2="30.74" gradientUnits="userSpaceOnUse">
      <stop stop-color="#70B1FF"/>
      <stop offset="1" stop-color="#005CCD"/>
    </linearGradient>
    <linearGradient id="prefix__b" x1="24" x2="41.126" y1="33" y2="-2.809" gradientUnits="userSpaceOnUse">
      <stop stop-color="#70B1FF"/>
      <stop offset="1" stop-color="#005CCD"/>
    </linearGradient>
    <linearGradient id="prefix__c" x1="23.818" x2="48.331" y1="60.409" y2="31.708" gradientUnits="userSpaceOnUse">
      <stop stop-color="#70B1FF"/>
      <stop offset="1" stop-color="#005CCD"/>
    </linearGradient>
    <linearGradient id="prefix__d" x1="15.791" x2="32.777" y1="33.142" y2="19.795" gradientUnits="userSpaceOnUse">
      <stop stop-color="#295296"/>
      <stop offset="1" stop-color="#3E78D3"/>
    </linearGradient>
  </defs>
</svg>
