<svg width="96" height="96" fill="none" viewBox="0 0 96 96" xmlns="http://www.w3.org/2000/svg">
  <path fill="url(#prefix__a)" d="M6 11a4 4 0 0 1 4-4h66a4 4 0 0 1 4 4v56a4 4 0 0 1-4 4H10a4 4 0 0 1-4-4V11Z" clip-rule="evenodd" opacity=".35"/>
  <path fill="url(#prefix__b)" d="M27 38c8.284 0 15 6.716 15 15v6H12v-6c0-8.284 6.716-15 15-15Zm0-3a9 9 0 1 1 0-18 9 9 0 0 1 0 18Z" clip-rule="evenodd" opacity=".55" style="mix-blend-mode:multiply"/>
  <path fill="url(#prefix__c)" d="M69 53c8.837 0 16 7.163 16 16s-7.163 16-16 16-16-7.163-16-16c0-3.483 1.113-6.705 3.002-9.332l-6.5-4.666A23.89 23.89 0 0 0 45 69c0 13.255 10.745 24 24 24s24-10.745 24-24-10.745-24-24-24v-5l-13 9 13 9v-5Z" clip-rule="evenodd" opacity=".6"/>
  <path fill="url(#prefix__d)" d="M80 47.664v9.717A15.945 15.945 0 0 0 69 53v5l-13-9 13-9v5c3.965 0 7.705.961 11 2.664Z" clip-rule="evenodd"/>
  <path fill="url(#prefix__e)" d="M53.124 71h-8.042A24.325 24.325 0 0 1 45 69a23.89 23.89 0 0 1 4.503-13.998l6.499 4.666A15.927 15.927 0 0 0 53 69c0 .677.042 1.345.124 2Z" clip-rule="evenodd"/>
  <path fill="url(#prefix__f)" d="M59.857 15H71v11.143H59.857V15ZM47 15h11.143v11.143H47V15Zm12.857 12.857H71V39H59.857V27.857Zm-12.857 0h11.143V39H47V27.857Z" clip-rule="evenodd" opacity=".55" style="mix-blend-mode:multiply"/>
  <defs>
    <linearGradient id="prefix__a" x1="-37.309" x2="29.645" y1="37.222" y2="114.582" gradientUnits="userSpaceOnUse">
      <stop stop-color="#70B1FF"/>
      <stop offset="1" stop-color="#005CCD"/>
    </linearGradient>
    <linearGradient id="prefix__b" x1="24.798" x2="-8.438" y1="6.567" y2="29.952" gradientUnits="userSpaceOnUse">
      <stop stop-color="#70B1FF"/>
      <stop offset="1" stop-color="#005CCD"/>
    </linearGradient>
    <linearGradient id="prefix__c" x1="69" x2="121.741" y1="119.5" y2="71.735" gradientUnits="userSpaceOnUse">
      <stop stop-color="#70B1FF"/>
      <stop offset="1" stop-color="#005CCD"/>
    </linearGradient>
    <linearGradient id="prefix__d" x1="59.262" x2="56.468" y1="35.707" y2="56.446" gradientUnits="userSpaceOnUse">
      <stop stop-color="#295296"/>
      <stop offset="1" stop-color="#3E78D3"/>
    </linearGradient>
    <linearGradient id="prefix__e" x1="46.495" x2="41.907" y1="51.186" y2="68.755" gradientUnits="userSpaceOnUse">
      <stop stop-color="#295296"/>
      <stop offset="1" stop-color="#3E78D3"/>
    </linearGradient>
    <linearGradient id="prefix__f" x1="57.238" x2="37.063" y1="9.038" y2="28.912" gradientUnits="userSpaceOnUse">
      <stop stop-color="#70B1FF"/>
      <stop offset="1" stop-color="#005CCD"/>
    </linearGradient>
  </defs>
</svg>
