<svg width="96" height="96" fill="none" viewBox="0 0 96 96" xmlns="http://www.w3.org/2000/svg">
  <path fill="url(#prefix__a)" d="M55 70c17.673 0 32-14.327 32-32C87 20.327 72.673 6 55 6 37.327 6 23 20.327 23 38c0 17.673 14.327 32 32 32Z" clip-rule="evenodd" opacity=".4"/>
  <path fill="url(#prefix__b)" d="M15 50.5V58H9v31h37V58h-6v-7.5C40 43.596 34.404 38 27.5 38S15 43.596 15 50.5Zm19 0V58H21v-7.5a6.5 6.5 0 1 1 13 0Z" clip-rule="evenodd" opacity=".45"/>
  <path fill="url(#prefix__c)" d="M24.956 26.957C29.454 14.725 41.209 6 55 6c.3 0 .598.004.895.012L45 15.995v5.52L32 34l-7.044-7.043Z" clip-rule="evenodd"/>
  <path fill="url(#prefix__d)" d="M86.861 41C85.443 56.253 73.32 68.399 58.078 69.854V51H68.97l9.126-10h8.766Z" clip-rule="evenodd"/>
  <path fill="url(#prefix__e)" d="M46 68.717V58h-6v-7.5C40 43.596 34.404 38 27.5 38a12.47 12.47 0 0 0-4.49.83 32.06 32.06 0 0 0 .793 6.323A6.5 6.5 0 0 1 34 50.5V58h-3.98A32.036 32.036 0 0 0 46 68.717Z" clip-rule="evenodd"/>
  <defs>
    <linearGradient id="prefix__a" x1="68.776" x2="112.952" y1="90.14" y2="30.064" gradientUnits="userSpaceOnUse">
      <stop stop-color="#70B1FF"/>
      <stop offset="1" stop-color="#005CCD"/>
    </linearGradient>
    <linearGradient id="prefix__b" x1="27.5" x2="-20.982" y1="12.5" y2="47.673" gradientUnits="userSpaceOnUse">
      <stop stop-color="#70B1FF"/>
      <stop offset="1" stop-color="#005CCD"/>
    </linearGradient>
    <linearGradient id="prefix__c" x1="46.821" x2="65.157" y1="42.635" y2="15.081" gradientUnits="userSpaceOnUse">
      <stop stop-color="#8FBBF9"/>
      <stop offset="1" stop-color="#6293DE"/>
    </linearGradient>
    <linearGradient id="prefix__d" x1="72.47" x2="101.323" y1="84.281" y2="55.498" gradientUnits="userSpaceOnUse">
      <stop stop-color="#96C0FC"/>
      <stop offset="1" stop-color="#6595DF"/>
    </linearGradient>
    <linearGradient id="prefix__e" x1="85.537" x2="35.344" y1="52.99" y2="30.069" gradientUnits="userSpaceOnUse">
      <stop stop-color="#295296"/>
      <stop offset="1" stop-color="#3E78D3"/>
    </linearGradient>
  </defs>
</svg>
