<svg width="48" height="48" fill="none" viewBox="0 0 48 48" xmlns="http://www.w3.org/2000/svg">
  <path fill="url(#prefix__a)" d="M2 23a1 1 0 0 1 1-1h30a1 1 0 0 1 1 1v21a1 1 0 0 1-1 1H3a1 1 0 0 1-1-1V23Z" clip-rule="evenodd" opacity=".45"/>
  <path fill="url(#prefix__b)" d="M3 22h30a1 1 0 0 1 1 1v3H2v-3a1 1 0 0 1 1-1Z" clip-rule="evenodd" opacity=".45"/>
  <path fill="url(#prefix__c)" d="m34 34-9.037-7.297A9.296 9.296 0 0 1 21.5 19.47V2h25v17.471a9.296 9.296 0 0 1-3.463 7.232L34 34Z" clip-rule="evenodd" opacity=".4"/>
  <path fill="url(#prefix__d)" d="M21.852 22H33a1 1 0 0 1 1 1v3h-9.814a9.306 9.306 0 0 1-2.334-4Z" clip-rule="evenodd"/>
  <path fill="url(#prefix__e)" d="M34 2h12.5v17.471a9.296 9.296 0 0 1-3.463 7.232L34 34V2Z" clip-rule="evenodd" opacity=".25"/>
  <path fill="url(#prefix__f)" d="M19.068 29H15.66L9.977 41.5h3.41l5.68-12.5Zm6.25 0H21.91l-5.682 12.5h3.41L25.317 29Zm-15.34 3.125a1.989 1.989 0 1 1-3.978 0 1.989 1.989 0 0 1 3.977 0Zm-1.99 8.239a1.989 1.989 0 1 0 0-3.978 1.989 1.989 0 0 0 0 3.978Z" clip-rule="evenodd"/>
  <defs>
    <linearGradient id="prefix__a" x1="18" x2="-3.8" y1="10.5" y2="40.831" gradientUnits="userSpaceOnUse">
      <stop stop-color="#70B1FF"/>
      <stop offset="1" stop-color="#005CCD"/>
    </linearGradient>
    <linearGradient id="prefix__b" x1="18" x2="17.015" y1="20" y2="27.877" gradientUnits="userSpaceOnUse">
      <stop stop-color="#70B1FF"/>
      <stop offset="1" stop-color="#005CCD"/>
    </linearGradient>
    <linearGradient id="prefix__c" x1="6.752" x2="42.558" y1="43.387" y2="51.467" gradientUnits="userSpaceOnUse">
      <stop stop-color="#70B1FF"/>
      <stop offset="1" stop-color="#005CCD"/>
    </linearGradient>
    <linearGradient id="prefix__d" x1="24.821" x2="28.432" y1="29.393" y2="20.381" gradientUnits="userSpaceOnUse">
      <stop stop-color="#295296"/>
      <stop offset="1" stop-color="#3E78D3"/>
    </linearGradient>
    <linearGradient id="prefix__e" x1="40.25" x2="61.94" y1="50" y2="41.527" gradientUnits="userSpaceOnUse">
      <stop stop-color="#70B1FF"/>
      <stop offset="1" stop-color="#005CCD"/>
    </linearGradient>
    <linearGradient id="prefix__f" x1="19.308" x2="8.508" y1="27.545" y2="38.246" gradientUnits="userSpaceOnUse">
      <stop stop-color="#70B1FF"/>
      <stop offset="1" stop-color="#4A82D9"/>
    </linearGradient>
  </defs>
</svg>
