<svg width="96" height="96" fill="none" viewBox="0 0 96 96" xmlns="http://www.w3.org/2000/svg">
  <path fill="url(#prefix__a)" d="M29.866 79.862h11.405L43.172 90H27.965l1.901-10.138Z" clip-rule="evenodd" opacity=".5"/>
  <path fill="url(#prefix__b)" d="M6 73.948h59.138v3.38c0 1.4-1.135 2.534-2.535 2.534H8.534A2.534 2.534 0 0 1 6 77.328v-3.38Z" clip-rule="evenodd"/>
  <path fill="url(#prefix__c)" d="M65.138 68.689 49.926 56.405A18.591 18.591 0 0 1 43 41.942V41h19.603c1.4 0 2.535 1.135 2.535 2.535v25.154Z" clip-rule="evenodd" opacity=".4"/>
  <path fill="url(#prefix__d)" d="M8.534 41h54.07c1.4 0 2.534 1.135 2.534 2.535v33.793c0 1.4-1.135 2.534-2.535 2.534H8.534A2.535 2.535 0 0 1 6 77.328V43.534A2.535 2.535 0 0 1 8.534 41Z" clip-rule="evenodd" opacity=".35"/>
  <path fill="url(#prefix__e)" d="M68 71 49.926 56.405A18.591 18.591 0 0 1 43 41.942V7h50v34.942a18.591 18.591 0 0 1-6.926 14.463L68 71Z" clip-rule="evenodd" opacity=".4"/>
  <path fill="url(#prefix__f)" d="M68 7h25v34.942a18.591 18.591 0 0 1-6.926 14.463L68 71V7Z" clip-rule="evenodd" opacity=".25"/>
  <defs>
    <linearGradient id="prefix__a" x1="34.31" x2="23.302" y1="65.195" y2="87.721" gradientUnits="userSpaceOnUse">
      <stop stop-color="#70B1FF"/>
      <stop offset="1" stop-color="#005CCD"/>
    </linearGradient>
    <linearGradient id="prefix__b" x1="-12.129" x2="-9.473" y1="90.134" y2="69.28" gradientUnits="userSpaceOnUse">
      <stop stop-color="#295296"/>
      <stop offset="1" stop-color="#3E78D3"/>
    </linearGradient>
    <linearGradient id="prefix__c" x1="13.504" x2="85.116" y1="89.773" y2="105.934" gradientUnits="userSpaceOnUse">
      <stop stop-color="#70B1FF"/>
      <stop offset="1" stop-color="#005CCD"/>
    </linearGradient>
    <linearGradient id="prefix__d" x1="32.444" x2="11.212" y1="33.518" y2="72.359" gradientUnits="userSpaceOnUse">
      <stop stop-color="#70B1FF"/>
      <stop offset="1" stop-color="#005CCD"/>
    </linearGradient>
    <linearGradient id="prefix__e" x1="13.504" x2="85.116" y1="89.773" y2="105.934" gradientUnits="userSpaceOnUse">
      <stop stop-color="#70B1FF"/>
      <stop offset="1" stop-color="#005CCD"/>
    </linearGradient>
    <linearGradient id="prefix__f" x1="80.5" x2="123.881" y1="103" y2="86.054" gradientUnits="userSpaceOnUse">
      <stop stop-color="#70B1FF"/>
      <stop offset="1" stop-color="#005CCD"/>
    </linearGradient>
  </defs>
</svg>
