<svg width="48" height="48" fill="none" viewBox="0 0 48 48" xmlns="http://www.w3.org/2000/svg">
  <path fill="url(#prefix__a)" d="M14.933 39.931h5.702l.95 5.07h-7.603l.95-5.07Z" clip-rule="evenodd" opacity=".5"/>
  <path fill="url(#prefix__b)" d="M3 36.974h29.569v1.69c0 .7-.567 1.267-1.267 1.267H4.267c-.7 0-1.267-.567-1.267-1.267v-1.69Z" clip-rule="evenodd"/>
  <path fill="url(#prefix__c)" d="m32.569 34.344-7.606-6.142a9.296 9.296 0 0 1-3.463-7.231V20.5h9.802c.7 0 1.267.567 1.267 1.267v12.577Z" clip-rule="evenodd" opacity=".4"/>
  <path fill="url(#prefix__d)" d="M4.267 20.5h27.035c.7 0 1.267.567 1.267 1.267v16.897c0 .7-.567 1.267-1.267 1.267H4.267c-.7 0-1.267-.567-1.267-1.267V21.767c0-.7.567-1.267 1.267-1.267Z" clip-rule="evenodd" opacity=".35"/>
  <path fill="url(#prefix__e)" d="m34 35.5-9.037-7.297A9.296 9.296 0 0 1 21.5 20.97V3.5h25v17.471a9.296 9.296 0 0 1-3.463 7.232L34 35.5Z" clip-rule="evenodd" opacity=".4"/>
  <path fill="url(#prefix__f)" d="M34 3.5h12.5v17.471a9.296 9.296 0 0 1-3.463 7.232L34 35.5v-32Z" clip-rule="evenodd" opacity=".25"/>
  <defs>
    <linearGradient id="prefix__a" x1="17.155" x2="11.651" y1="32.597" y2="43.861" gradientUnits="userSpaceOnUse">
      <stop stop-color="#70B1FF"/>
      <stop offset="1" stop-color="#005CCD"/>
    </linearGradient>
    <linearGradient id="prefix__b" x1="-6.064" x2="-4.737" y1="45.067" y2="34.64" gradientUnits="userSpaceOnUse">
      <stop stop-color="#295296"/>
      <stop offset="1" stop-color="#3E78D3"/>
    </linearGradient>
    <linearGradient id="prefix__c" x1="6.752" x2="42.558" y1="44.887" y2="52.967" gradientUnits="userSpaceOnUse">
      <stop stop-color="#70B1FF"/>
      <stop offset="1" stop-color="#005CCD"/>
    </linearGradient>
    <linearGradient id="prefix__d" x1="16.222" x2="5.606" y1="16.759" y2="36.179" gradientUnits="userSpaceOnUse">
      <stop stop-color="#70B1FF"/>
      <stop offset="1" stop-color="#005CCD"/>
    </linearGradient>
    <linearGradient id="prefix__e" x1="6.752" x2="42.558" y1="44.887" y2="52.967" gradientUnits="userSpaceOnUse">
      <stop stop-color="#70B1FF"/>
      <stop offset="1" stop-color="#005CCD"/>
    </linearGradient>
    <linearGradient id="prefix__f" x1="40.25" x2="61.94" y1="51.5" y2="43.027" gradientUnits="userSpaceOnUse">
      <stop stop-color="#70B1FF"/>
      <stop offset="1" stop-color="#005CCD"/>
    </linearGradient>
  </defs>
</svg>
