<svg width="96" height="96" fill="none" viewBox="0 0 96 96" xmlns="http://www.w3.org/2000/svg">
  <path fill="url(#prefix__a)" d="M19.115 3.23h58.642v58.126H19.115z" opacity=".35"/>
  <path fill="url(#prefix__b)" d="M47.106 13.959a25.604 25.604 0 0 0-4.632.42.755.755 0 0 1-.845-.624.78.78 0 0 1 .629-.925 34.654 34.654 0 0 1 4.89-.413c9.332 0 13.998 5.136 15.577 7.316a.702.702 0 0 1 .125.581.856.856 0 0 1-.328.505.802.802 0 0 1-1.09-.168c-1.453-2.012-5.748-6.692-14.326-6.692Zm3.164 23.243c1.208-3.504-.293-5.851-2.291-6.65a4.5 4.5 0 0 0-1.67-.287 4.736 4.736 0 0 0-4.414 3.048c-1.083 2.508-3.877 6.895-7.167 8.738a.757.757 0 0 0-.294 1.044.762.762 0 0 0 1.041.294c3.919-2.102 6.88-7.147 7.88-9.488A3.242 3.242 0 0 1 46.35 31.8c.37.004.738.076 1.083.21 1.292.505 2.291 1.97 1.397 4.64-1.397 4.056-6.538 9.487-9.92 11.33a.735.735 0 0 0-.285 1.044.814.814 0 0 0 1.04.336c3.647-2.004 9.102-7.77 10.604-12.157Zm-3.374-1.843a.703.703 0 0 0 0-.582.819.819 0 0 0-.42-.42.62.62 0 0 0-.292-.042.824.824 0 0 0-.748.504c-1.166 2.964-5.253 8.654-9.039 10.742a.7.7 0 0 0-.377.456.703.703 0 0 0 .084.588.761.761 0 0 0 1.04.295c4.331-2.34 8.502-8.318 9.752-11.541Zm2.375-8.108a8.036 8.036 0 0 0-4.422-.413 8.626 8.626 0 0 0-6.203 5.052 11.977 11.977 0 0 1-5.42 6.146.785.785 0 0 0-.35 1.05.78.78 0 0 0 1.048.351 13.448 13.448 0 0 0 6.12-6.937 6.941 6.941 0 0 1 5.085-4.142 5.948 5.948 0 0 1 1.208-.126c.813.01 1.617.168 2.375.463 2.794 1.086 5.085 4.428 3.493 9.151-1.537 4.478-6.126 9.488-9.78 12.123a.793.793 0 0 0-.167 1.086.699.699 0 0 0 1.04.21c3.92-2.803 8.704-8.15 10.332-12.872 1.928-5.704-.901-9.761-4.359-11.142Zm4.708-9.698A17.406 17.406 0 0 1 64.31 29.928a.703.703 0 0 1-.083.61.86.86 0 0 1-.496.33h-.168a.81.81 0 0 1-.754-.582 15.887 15.887 0 0 0-9.417-11.29 17.227 17.227 0 0 0-6.622-1.338 16.92 16.92 0 0 0-8.836 2.467.788.788 0 0 1-1.083-.252.759.759 0 0 1 .252-1.086 18.76 18.76 0 0 1 9.667-2.67 18.535 18.535 0 0 1 7.21 1.436Zm-3.416 6.398a11.708 11.708 0 0 0-6.335-.624c-3.92.75-6.916 2.922-8.501 6.139l-.084.126-.026.053c-.572 1.153-1.156 2.334-2.182 2.624a.77.77 0 0 0-.335 1.335c.22.19.528.24.796.13 1.663-.505 2.501-2.173 3.123-3.505l.042-.084a9.941 9.941 0 0 1 7.44-5.318 9.259 9.259 0 0 1 1.83-.168 9.99 9.99 0 0 1 3.666.7c4.457 1.752 7.796 7.008 5.505 13.623-1.048 3.013-3.297 6.397-6.287 9.614a.772.772 0 0 0 .372 1.32.767.767 0 0 0 .753-.276c3.164-3.343 5.497-6.938 6.622-10.154 2.64-7.512-1.237-13.559-6.399-15.535Zm-4.17-4.387c1.883.01 3.748.363 5.505 1.044 6.573 2.551 11.79 10.448 8.417 20.062a23.578 23.578 0 0 1-1.872 4.1.802.802 0 0 1-1.083.287.756.756 0 0 1-.293-1.044 28.189 28.189 0 0 0 1.753-3.847c2.997-8.647-1.67-15.795-7.586-18.135a13.104 13.104 0 0 0-7.39-.673 13.272 13.272 0 0 0-8.83 6.062.795.795 0 0 1-1.083.21.834.834 0 0 1-.335-.505.702.702 0 0 1 .126-.581 14.871 14.871 0 0 1 9.877-6.734 16.287 16.287 0 0 1 2.794-.246Z" clip-rule="evenodd"/>
  <path fill="url(#prefix__c)" d="m29.083 94.061 27.11-15.703-.698-1.206a5.523 5.523 0 0 0-7.558-2.025l-6.399 3.7 12.44-21.61a3.574 3.574 0 0 0-.907-4.681 3.484 3.484 0 0 0-5.009 1.086l-6.915 12.017a3.502 3.502 0 0 0-2.04-2.76 3.55 3.55 0 0 0-4.463 1.562l-.622 1.08a3.454 3.454 0 0 0-2.04-2.762 3.55 3.55 0 0 0-4.456 1.563l-.622 1.08a3.49 3.49 0 0 0-6.175-.371l-7.803 19.724a2.154 2.154 0 0 0 1.027 2.712l13.084 6.65a2.13 2.13 0 0 0 2.046-.056Z"/>
  <path fill="url(#prefix__d)" d="M51.605 61.356h-7.99l4.44-7.734a3.484 3.484 0 0 1 5.015-1.086 3.574 3.574 0 0 1 .902 4.68l-2.367 4.14Z" opacity=".9"/>
  <defs>
    <linearGradient id="prefix__a" x1="50.07" x2="-11.46" y1="-36.035" y2="30.901" gradientUnits="userSpaceOnUse">
      <stop stop-color="#70B1FF"/>
      <stop offset="1" stop-color="#005CCD"/>
    </linearGradient>
    <linearGradient id="prefix__b" x1="41.739" x2="18.729" y1=".309" y2="34.192" gradientUnits="userSpaceOnUse">
      <stop stop-color="#3E78D3"/>
      <stop offset=".96" stop-color="#295296"/>
    </linearGradient>
    <linearGradient id="prefix__c" x1="26.473" x2="67.048" y1="109.375" y2="76.249" gradientUnits="userSpaceOnUse">
      <stop stop-color="#8FBBF9"/>
      <stop offset="1" stop-color="#6293DE"/>
    </linearGradient>
    <linearGradient id="prefix__d" x1="56.876" x2="2.345" y1="-27.271" y2="54.317" gradientUnits="userSpaceOnUse">
      <stop stop-color="#295296"/>
      <stop offset="1" stop-color="#3E78D3"/>
    </linearGradient>
  </defs>
</svg>
