<svg width="48" height="48" fill="none" viewBox="0 0 48 48" xmlns="http://www.w3.org/2000/svg">
  <path fill="url(#prefix__a)" d="M9.558 1.615h29.321v29.063H9.558z" opacity=".35"/>
  <path fill="url(#prefix__b)" d="M23.553 6.98c-.777-.001-1.552.07-2.316.21a.377.377 0 0 1-.422-.312.39.39 0 0 1 .314-.463 17.324 17.324 0 0 1 2.445-.207c4.666 0 7 2.569 7.788 3.658a.35.35 0 0 1 .063.291.427.427 0 0 1-.164.252.4.4 0 0 1-.545-.084C29.99 9.32 27.842 6.98 23.553 6.98Zm1.582 11.62c.604-1.75-.147-2.925-1.146-3.324a2.25 2.25 0 0 0-.834-.144 2.368 2.368 0 0 0-2.208 1.524c-.541 1.255-1.938 3.448-3.583 4.37a.378.378 0 0 0-.147.521.381.381 0 0 0 .52.148c1.96-1.052 3.44-3.574 3.94-4.744a1.62 1.62 0 0 1 1.499-1.051c.185.002.368.037.54.105.647.252 1.146.984.7 2.32-.7 2.028-3.27 4.743-4.96 5.665a.368.368 0 0 0-.143.522.41.41 0 0 0 .52.168c1.823-1.002 4.551-3.886 5.302-6.08Zm-1.687-.92a.351.351 0 0 0 0-.291.41.41 0 0 0-.21-.21.31.31 0 0 0-.146-.022.412.412 0 0 0-.374.253c-.583 1.482-2.627 4.327-4.52 5.37a.35.35 0 0 0-.188.229.35.35 0 0 0 .042.294.38.38 0 0 0 .52.147c2.166-1.17 4.25-4.159 4.876-5.77Zm1.188-4.054a4.018 4.018 0 0 0-2.211-.207 4.313 4.313 0 0 0-3.102 2.526 5.988 5.988 0 0 1-2.71 3.073.392.392 0 0 0 .35.7 6.723 6.723 0 0 0 3.059-3.468 3.47 3.47 0 0 1 3.147-2.134c.406.005.808.084 1.187.232 1.397.542 2.543 2.214 1.746 4.575-.768 2.24-3.063 4.744-4.89 6.062a.397.397 0 0 0-.083.543.35.35 0 0 0 .52.105c1.96-1.402 4.352-4.075 5.166-6.436.964-2.852-.45-4.881-2.18-5.571Zm2.354-4.85a8.703 8.703 0 0 1 5.165 6.188.351.351 0 0 1-.042.305.43.43 0 0 1-.248.165h-.083a.405.405 0 0 1-.378-.291 7.944 7.944 0 0 0-4.708-5.645 8.614 8.614 0 0 0-3.31-.669 8.46 8.46 0 0 0-4.419 1.233.394.394 0 0 1-.541-.126.38.38 0 0 1 .125-.543 9.38 9.38 0 0 1 4.834-1.335 9.269 9.269 0 0 1 3.605.719Zm-1.708 3.2a5.853 5.853 0 0 0-3.168-.312c-1.96.375-3.458 1.46-4.25 3.069l-.043.063-.013.026c-.285.577-.578 1.167-1.09 1.312a.385.385 0 1 0 .23.733c.831-.253 1.25-1.087 1.561-1.752l.021-.042a4.97 4.97 0 0 1 3.72-2.66 4.995 4.995 0 0 1 2.75.267c2.228.877 3.898 3.504 2.752 6.812-.524 1.506-1.649 3.199-3.143 4.807a.386.386 0 0 0 .186.66.384.384 0 0 0 .376-.138c1.582-1.671 2.749-3.469 3.311-5.077 1.32-3.756-.618-6.78-3.2-7.767Zm-2.085-2.194a7.707 7.707 0 0 1 2.752.522c3.286 1.276 5.895 5.224 4.208 10.031a11.85 11.85 0 0 1-.936 2.05.401.401 0 0 1-.541.143.378.378 0 0 1-.147-.522c.34-.618.633-1.26.877-1.923 1.498-4.324-.835-7.897-3.793-9.067a6.552 6.552 0 0 0-3.695-.337 6.637 6.637 0 0 0-4.415 3.03.397.397 0 0 1-.541.106.417.417 0 0 1-.168-.252.351.351 0 0 1 .063-.291 7.436 7.436 0 0 1 4.938-3.367 8.14 8.14 0 0 1 1.398-.123Z" clip-rule="evenodd"/>
  <path fill="url(#prefix__c)" d="m14.542 47.03 13.555-7.851-.35-.603a2.761 2.761 0 0 0-3.779-1.012l-3.199 1.85 6.22-10.806a1.787 1.787 0 0 0-.454-2.34 1.742 1.742 0 0 0-2.504.543l-3.458 6.009a1.751 1.751 0 0 0-1.02-1.38 1.775 1.775 0 0 0-2.231.78l-.311.54a1.727 1.727 0 0 0-1.02-1.38 1.775 1.775 0 0 0-2.228.781l-.311.54a1.745 1.745 0 0 0-3.088-.186l-3.9 9.863a1.077 1.077 0 0 0 .513 1.356l6.541 3.325c.324.165.71.155 1.024-.028Z"/>
  <path fill="url(#prefix__d)" d="M25.803 30.678h-3.996l2.22-3.867a1.747 1.747 0 0 1 2.509-.543c.724.55.918 1.56.45 2.34l-1.183 2.07Z" opacity=".9"/>
  <defs>
    <linearGradient id="prefix__a" x1="25.035" x2="-5.73" y1="-18.018" y2="15.451" gradientUnits="userSpaceOnUse">
      <stop stop-color="#70B1FF"/>
      <stop offset="1" stop-color="#005CCD"/>
    </linearGradient>
    <linearGradient id="prefix__b" x1="20.869" x2="9.365" y1=".155" y2="17.096" gradientUnits="userSpaceOnUse">
      <stop stop-color="#3E78D3"/>
      <stop offset=".96" stop-color="#295296"/>
    </linearGradient>
    <linearGradient id="prefix__c" x1="13.237" x2="33.524" y1="54.688" y2="38.124" gradientUnits="userSpaceOnUse">
      <stop stop-color="#8FBBF9"/>
      <stop offset="1" stop-color="#6293DE"/>
    </linearGradient>
    <linearGradient id="prefix__d" x1="28.438" x2="1.172" y1="-13.635" y2="27.159" gradientUnits="userSpaceOnUse">
      <stop stop-color="#295296"/>
      <stop offset="1" stop-color="#3E78D3"/>
    </linearGradient>
  </defs>
</svg>
