<svg width="96" height="96" fill="none" viewBox="0 0 96 96" xmlns="http://www.w3.org/2000/svg">
  <path fill="url(#prefix__a)" d="M48 93 23.504 73.098a25.412 25.412 0 0 1-9.388-19.723V3h67.765v50.375a25.412 25.412 0 0 1-9.387 19.723L47.999 93Z" clip-rule="evenodd" opacity=".35"/>
  <path fill="url(#prefix__b)" d="M48 93V3h33.882v50.375a25.412 25.412 0 0 1-9.387 19.723L48 93Z" clip-rule="evenodd" opacity=".45"/>
  <path fill="url(#prefix__c)" d="M48 17c-13.807 0-25 11.193-25 25s11.193 25 25 25 25-11.193 25-25-11.193-25-25-25Zm1.966 25.06c-.005 1.15-.851 1.975-2.023 1.973-1.158-.002-1.997-.844-1.995-2.003.001-1.149.853-2.003 2.001-2.008 1.168-.005 2.022.858 2.017 2.039Zm-.078-7.392c-.055 1.032-.746 1.758-1.8 1.83-1.82.126-3.427.707-4.52 2.241-1.17 1.641-1.538 3.47-.72 5.357.838 1.937 2.357 3.182 4.475 3.442 2.386.293 5.865-1.293 6.094-5.105.041-.683.116-1.381.71-1.857.635-.51 1.346-.652 2.096-.29.766.368 1.12 1.008 1.106 1.853-.002.114-.02.227-.026.298-.007 4.219-3.604 8.183-7.8 8.863-4.955.803-9.664-2.493-10.712-7.241-1.091-4.94 1.997-10.123 7.279-11.226a7.09 7.09 0 0 1 2.218-.11c1.03.119 1.651.965 1.6 1.945Zm10.754 18.468c-2.44 2.808-5.504 4.6-9.133 5.383-1.168.252-2.374.332-3.563.49-7.603-.025-15.136-5.558-16.607-13.985a16.886 16.886 0 0 1 13.13-19.518c1.134-.24 2.321-.274 3.487-.322a1.824 1.824 0 0 1 1.912 1.752c.035 1.147-.644 1.957-1.777 2.032-1.876.124-3.724.36-5.443 1.184-4.264 2.041-6.776 5.405-7.558 10.064C33.916 47.22 39 53.693 45.725 54.883c7.004 1.24 13.78-3.489 15.016-10.46.147-.83.199-1.676.285-2.516.114-1.105.9-1.809 1.996-1.774 1.01.03 1.807.859 1.802 1.933-.016 4.207-1.427 7.9-4.182 11.07Z" opacity=".52"/>
  <path fill="url(#prefix__d)" d="M48 67c13.807 0 25-11.193 25-25S61.807 17 48 17v8.183a1.823 1.823 0 0 1 1.868 1.753c.035 1.147-.644 1.957-1.777 2.032l-.091.006v3.722a8.8 8.8 0 0 1 .288.026c1.03.12 1.651.966 1.6 1.946-.055 1.032-.746 1.758-1.8 1.83l-.088.007v3.517c1.142.02 1.971.875 1.966 2.039-.004 1.13-.824 1.947-1.966 1.971v3.539c2.316-.048 5.209-1.673 5.417-5.138.041-.683.116-1.381.71-1.857.635-.51 1.346-.652 2.096-.29.766.368 1.12 1.008 1.106 1.853a2.315 2.315 0 0 1-.019.233l-.007.065c-.007 4.219-3.604 8.183-7.8 8.863a9.321 9.321 0 0 1-1.503.12v3.66c6.14-.015 11.64-4.446 12.741-10.657.108-.61.165-1.228.221-1.846.02-.224.041-.447.064-.67.114-1.105.9-1.809 1.996-1.774 1.01.03 1.807.859 1.802 1.933-.016 4.207-1.427 7.9-4.182 11.07-2.44 2.808-5.504 4.6-9.133 5.383-.802.173-1.621.265-2.44.357-.357.04-.714.08-1.069.127V67Z" clip-rule="evenodd"/>
  <defs>
    <linearGradient id="prefix__a" x1="-25.859" x2="71.533" y1="119.4" y2="140.582" gradientUnits="userSpaceOnUse">
      <stop stop-color="#70B1FF"/>
      <stop offset="1" stop-color="#005CCD"/>
    </linearGradient>
    <linearGradient id="prefix__b" x1="28.012" x2="78.415" y1="119.4" y2="124.881" gradientUnits="userSpaceOnUse">
      <stop stop-color="#70B1FF"/>
      <stop offset="1" stop-color="#005CCD"/>
    </linearGradient>
    <linearGradient id="prefix__c" x1="83.226" x2="7.616" y1="-25.823" y2="4.946" gradientUnits="userSpaceOnUse">
      <stop stop-color="#70B1FF"/>
      <stop offset="1" stop-color="#005CCD"/>
    </linearGradient>
    <linearGradient id="prefix__d" x1="57.037" x2="92.946" y1="77.017" y2="65.419" gradientUnits="userSpaceOnUse">
      <stop stop-color="#295296"/>
      <stop offset="1" stop-color="#3E78D3"/>
    </linearGradient>
  </defs>
</svg>
