<svg width="48" height="48" fill="none" viewBox="0 0 48 48" xmlns="http://www.w3.org/2000/svg">
  <path fill="url(#prefix__a)" d="m23.941 46.5-12.247-9.951A12.706 12.706 0 0 1 7 26.688V1.5h33.882v25.188c0 3.826-1.724 7.448-4.693 9.86L23.94 46.5Z" clip-rule="evenodd" opacity=".35"/>
  <path fill="url(#prefix__b)" d="M23.941 46.5v-45h16.942v25.188c0 3.826-1.725 7.448-4.694 9.86L23.94 46.5Z" clip-rule="evenodd" opacity=".45"/>
  <path fill="url(#prefix__c)" d="M23.941 8.5c-6.903 0-12.5 5.597-12.5 12.5 0 6.904 5.597 12.5 12.5 12.5 6.904 0 12.5-5.596 12.5-12.5 0-6.903-5.596-12.5-12.5-12.5Zm.984 12.53c-.003.575-.426.987-1.012.986-.58 0-.998-.421-.997-1a.979.979 0 0 1 1-1.005c.584-.002 1.011.43 1.009 1.02Zm-.04-3.696c-.027.516-.372.879-.9.915-.91.063-1.713.354-2.26 1.12-.584.821-.769 1.735-.36 2.679.42.968 1.179 1.591 2.238 1.72 1.193.147 2.932-.645 3.047-2.552.02-.34.058-.69.355-.928.318-.255.673-.326 1.048-.145.383.184.56.504.553.927 0 .056-.01.113-.013.148-.003 2.11-1.802 4.092-3.9 4.432-2.478.402-4.832-1.247-5.356-3.62-.546-2.47.998-5.062 3.64-5.613a3.555 3.555 0 0 1 1.108-.056c.515.06.826.483.8.973Zm5.377 9.234c-1.22 1.404-2.752 2.3-4.566 2.691-.584.126-1.187.167-1.782.246-3.801-.013-7.568-2.78-8.303-6.993a8.443 8.443 0 0 1 6.565-9.759c.567-.12 1.16-.137 1.743-.161a.912.912 0 0 1 .957.876c.017.574-.323.979-.889 1.016-.938.062-1.862.18-2.721.592-2.132 1.02-3.388 2.703-3.78 5.032-.587 3.502 1.955 6.738 5.318 7.334 3.502.62 6.89-1.745 7.508-5.23.073-.415.1-.839.142-1.259.057-.552.45-.904.998-.887.505.016.904.43.901.967-.008 2.103-.713 3.95-2.09 5.535Z" opacity=".52"/>
  <path fill="url(#prefix__d)" d="M23.941 33.5c6.904 0 12.5-5.596 12.5-12.5 0-6.903-5.596-12.5-12.5-12.5v4.091c.515-.01.92.394.935.877.017.574-.323.979-.889 1.016a6.98 6.98 0 0 0-.046.003v1.861c.049.003.097.008.144.013.515.06.826.483.8.973-.027.516-.372.879-.9.915l-.044.004v1.758c.571.01.986.438.984 1.02-.003.565-.413.973-.984.985v1.77c1.159-.025 2.605-.837 2.709-2.57.02-.34.058-.69.355-.928.318-.255.673-.326 1.048-.145.383.184.56.504.553.927 0 .041-.006.083-.01.116 0 .012-.002.023-.003.032-.003 2.11-1.802 4.092-3.9 4.432-.253.04-.504.06-.752.06v1.83c3.07-.007 5.82-2.223 6.37-5.328.055-.305.083-.614.111-.924l.032-.335c.057-.552.45-.904.998-.887.505.016.904.43.901.967-.008 2.103-.713 3.95-2.09 5.535-1.22 1.404-2.753 2.3-4.567 2.691-.401.087-.81.133-1.22.179-.179.02-.357.04-.535.063V33.5Z" clip-rule="evenodd"/>
  <defs>
    <linearGradient id="prefix__a" x1="-12.988" x2="35.708" y1="59.7" y2="70.291" gradientUnits="userSpaceOnUse">
      <stop stop-color="#70B1FF"/>
      <stop offset="1" stop-color="#005CCD"/>
    </linearGradient>
    <linearGradient id="prefix__b" x1="13.947" x2="39.149" y1="59.7" y2="62.441" gradientUnits="userSpaceOnUse">
      <stop stop-color="#70B1FF"/>
      <stop offset="1" stop-color="#005CCD"/>
    </linearGradient>
    <linearGradient id="prefix__c" x1="41.555" x2="3.749" y1="-12.911" y2="2.473" gradientUnits="userSpaceOnUse">
      <stop stop-color="#70B1FF"/>
      <stop offset="1" stop-color="#005CCD"/>
    </linearGradient>
    <linearGradient id="prefix__d" x1="28.46" x2="46.414" y1="38.508" y2="32.71" gradientUnits="userSpaceOnUse">
      <stop stop-color="#295296"/>
      <stop offset="1" stop-color="#3E78D3"/>
    </linearGradient>
  </defs>
</svg>
