<svg width="96" height="96" fill="none" viewBox="0 0 96 96" xmlns="http://www.w3.org/2000/svg">
  <path fill="url(#prefix__a)" d="M48.504 92.38 26.458 74.467a22.872 22.872 0 0 1-8.45-17.75V19H79v37.716a22.872 22.872 0 0 1-8.449 17.751L48.504 92.38Z" clip-rule="evenodd" opacity=".35"/>
  <path fill="url(#prefix__b)" d="M48.504 92.38V19h30.495v37.716a22.872 22.872 0 0 1-8.448 17.751L48.504 92.38Z" clip-rule="evenodd" opacity=".45"/>
  <path fill="url(#prefix__c)" d="M75.914 13.547c7.144 0 12.935 5.812 12.935 12.981 0 7.17-5.791 12.981-12.935 12.981S62.98 33.698 62.98 26.53c0-2.826.9-5.44 2.427-7.572l-5.254-3.786a19.43 19.43 0 0 0-3.64 11.357C56.512 37.282 65.198 46 75.914 46s19.403-8.718 19.403-19.472c0-10.754-8.687-19.471-19.403-19.471V3l-10.51 7.302 10.51 7.302v-4.057Z" clip-rule="evenodd" opacity=".6"/>
  <path fill="url(#prefix__d)" d="M78.999 45.755v-6.617a12.92 12.92 0 0 1-3.085.371c-7.144 0-12.935-5.811-12.935-12.98 0-2.807.888-5.406 2.396-7.529h-7.36a19.472 19.472 0 0 0-1.503 7.528C56.512 37.282 65.198 46 75.914 46c1.05 0 2.08-.084 3.085-.245Z" clip-rule="evenodd"/>
  <path fill="url(#prefix__e)" d="M23.5 46 47 86.87H0L23.5 46Zm-3.065 13.283h6.13l-1.027 14.304h-4.076l-1.027-14.304Zm6.13 20.434a3.065 3.065 0 1 1-6.13 0 3.065 3.065 0 0 1 6.13 0Z" clip-rule="evenodd" opacity=".5"/>
  <path fill="url(#prefix__f)" d="M18.009 55.55 23.5 46 47 86.87h-5.278L26.458 74.467c-.35-.284-.69-.578-1.02-.88h.1l1.027-14.304h-6.13l.637 8.867a22.867 22.867 0 0 1-3.063-11.434V55.55Z" clip-rule="evenodd"/>
  <defs>
    <linearGradient id="prefix__a" x1="-17.972" x2="69.686" y1="116.141" y2="135.206" gradientUnits="userSpaceOnUse">
      <stop stop-color="#70B1FF"/>
      <stop offset="1" stop-color="#005CCD"/>
    </linearGradient>
    <linearGradient id="prefix__b" x1="30.514" x2="75.879" y1="116.141" y2="121.075" gradientUnits="userSpaceOnUse">
      <stop stop-color="#70B1FF"/>
      <stop offset="1" stop-color="#005CCD"/>
    </linearGradient>
    <linearGradient id="prefix__c" x1="75.914" x2="118.689" y1="67.5" y2="28.899" gradientUnits="userSpaceOnUse">
      <stop stop-color="#70B1FF"/>
      <stop offset="1" stop-color="#005CCD"/>
    </linearGradient>
    <linearGradient id="prefix__d" x1="56.209" x2="65.944" y1="32.188" y2="40.611" gradientUnits="userSpaceOnUse">
      <stop stop-color="#295296"/>
      <stop offset="1" stop-color="#3E78D3"/>
    </linearGradient>
    <linearGradient id="prefix__e" x1="2.685" x2="-23.165" y1="32.11" y2="81.164" gradientUnits="userSpaceOnUse">
      <stop stop-color="#70B1FF"/>
      <stop offset="1" stop-color="#005CCD"/>
    </linearGradient>
    <linearGradient id="prefix__f" x1="17.619" x2="31.841" y1="65.963" y2="76.444" gradientUnits="userSpaceOnUse">
      <stop stop-color="#295296"/>
      <stop offset="1" stop-color="#3E78D3"/>
    </linearGradient>
  </defs>
</svg>
