<svg width="48" height="48" fill="none" viewBox="0 0 48 48" xmlns="http://www.w3.org/2000/svg">
  <path fill="url(#prefix__a)" d="M4 34h40v10H4V34Z" clip-rule="evenodd" opacity=".45"/>
  <path fill="url(#prefix__b)" d="M4 14h40v20H4z" opacity=".45"/>
  <path fill="url(#prefix__c)" d="M33 4.2a10.012 10.012 0 0 0-7.8 7.8H22v4h3.2a10.012 10.012 0 0 0 7.8 7.8V28h4v-4.2a10.012 10.012 0 0 0 7.8-7.8H48v-4h-3.2A10.012 10.012 0 0 0 37 4.2V0h-4v4.2Zm8 9.8a6 6 0 1 1-12 0 6 6 0 0 1 12 0Z" clip-rule="evenodd" opacity=".55"/>
  <path fill="url(#prefix__d)" d="M35 17a3 3 0 1 0 0-6 3 3 0 0 0 0 6Z" clip-rule="evenodd"/>
  <path fill="url(#prefix__e)" d="M15 17v15h-3V17h3Z" clip-rule="evenodd" opacity=".45"/>
  <path fill="url(#prefix__f)" d="M10 17v15H7V17h3Z" clip-rule="evenodd" opacity=".45"/>
  <path fill="url(#prefix__g)" d="M20 17v15h-3V17h3Z" clip-rule="evenodd" opacity=".45"/>
  <path fill="#fff" d="M9.5 41a1.5 1.5 0 1 0 0-3 1.5 1.5 0 0 0 0 3Z" clip-rule="evenodd"/>
  <path fill="url(#prefix__h)" d="M15.5 41a1.5 1.5 0 1 0 0-3 1.5 1.5 0 0 0 0 3Z" clip-rule="evenodd"/>
  <defs>
    <linearGradient id="prefix__a" x1="-16" x2="-11.294" y1="39" y2="57.824" gradientUnits="userSpaceOnUse">
      <stop stop-color="#70B1FF"/>
      <stop offset="1" stop-color="#005CCD"/>
    </linearGradient>
    <linearGradient id="prefix__b" x1="-16" x2="0" y1="24" y2="56" gradientUnits="userSpaceOnUse">
      <stop stop-color="#70B1FF"/>
      <stop offset="1" stop-color="#005CCD"/>
    </linearGradient>
    <linearGradient id="prefix__c" x1="12.073" x2="28.206" y1="7.914" y2="28.15" gradientUnits="userSpaceOnUse">
      <stop stop-color="#70B1FF"/>
      <stop offset="1" stop-color="#005CCD"/>
    </linearGradient>
    <linearGradient id="prefix__d" x1="46.235" x2="36.617" y1="15.199" y2="3.64" gradientUnits="userSpaceOnUse">
      <stop stop-color="#295296"/>
      <stop offset="1" stop-color="#3E78D3"/>
    </linearGradient>
    <linearGradient id="prefix__e" x1="10.366" x2="17.027" y1="20.576" y2="22.791" gradientUnits="userSpaceOnUse">
      <stop stop-color="#70B1FF"/>
      <stop offset="1" stop-color="#005CCD"/>
    </linearGradient>
    <linearGradient id="prefix__f" x1="5.366" x2="12.027" y1="20.576" y2="22.791" gradientUnits="userSpaceOnUse">
      <stop stop-color="#70B1FF"/>
      <stop offset="1" stop-color="#005CCD"/>
    </linearGradient>
    <linearGradient id="prefix__g" x1="15.366" x2="22.027" y1="20.576" y2="22.791" gradientUnits="userSpaceOnUse">
      <stop stop-color="#70B1FF"/>
      <stop offset="1" stop-color="#005CCD"/>
    </linearGradient>
    <linearGradient id="prefix__h" x1="15.623" x2="10.127" y1="34.275" y2="39.166" gradientUnits="userSpaceOnUse">
      <stop stop-color="#6FA2EC"/>
      <stop offset="1" stop-color="#5C90DF"/>
    </linearGradient>
  </defs>
</svg>
