<svg width="96" height="96" fill="none" viewBox="0 0 96 96" xmlns="http://www.w3.org/2000/svg">
  <path fill="url(#prefix__a)" d="M8 68h80v20H8V68Z" clip-rule="evenodd" opacity=".45"/>
  <path fill="url(#prefix__b)" d="M8 28h80v40H8z" opacity=".45"/>
  <path fill="url(#prefix__c)" d="M66 8.4C58.163 9.99 51.99 16.163 50.4 24H44v8h6.4c1.59 7.837 7.764 14.01 15.6 15.6V56h8v-8.4c7.837-1.59 14.01-7.764 15.6-15.6H96v-8h-6.4C88.01 16.163 81.837 9.99 74 8.4V0h-8v8.4ZM82 28c0 6.627-5.373 12-12 12s-12-5.373-12-12 5.373-12 12-12 12 5.373 12 12Z" clip-rule="evenodd" opacity=".55"/>
  <path fill="url(#prefix__d)" d="M70 34a6 6 0 1 0 0-12 6 6 0 0 0 0 12Z" clip-rule="evenodd"/>
  <path fill="url(#prefix__e)" d="M30 34v30h-6V34h6Z" clip-rule="evenodd" opacity=".45"/>
  <path fill="url(#prefix__f)" d="M20 34v30h-6V34h6Z" clip-rule="evenodd" opacity=".45"/>
  <path fill="url(#prefix__g)" d="M40 34v30h-6V34h6Z" clip-rule="evenodd" opacity=".45"/>
  <path fill="#fff" d="M19 82a3 3 0 1 0 0-6 3 3 0 0 0 0 6Z" clip-rule="evenodd"/>
  <path fill="url(#prefix__h)" d="M31 82a3 3 0 1 0 0-6 3 3 0 0 0 0 6Z" clip-rule="evenodd"/>
  <defs>
    <linearGradient id="prefix__a" x1="-32" x2="-22.588" y1="78" y2="115.647" gradientUnits="userSpaceOnUse">
      <stop stop-color="#70B1FF"/>
      <stop offset="1" stop-color="#005CCD"/>
    </linearGradient>
    <linearGradient id="prefix__b" x1="-32" x2="0" y1="48" y2="112" gradientUnits="userSpaceOnUse">
      <stop stop-color="#70B1FF"/>
      <stop offset="1" stop-color="#005CCD"/>
    </linearGradient>
    <linearGradient id="prefix__c" x1="24.147" x2="56.411" y1="15.827" y2="56.299" gradientUnits="userSpaceOnUse">
      <stop stop-color="#70B1FF"/>
      <stop offset="1" stop-color="#005CCD"/>
    </linearGradient>
    <linearGradient id="prefix__d" x1="92.47" x2="73.234" y1="30.398" y2="7.28" gradientUnits="userSpaceOnUse">
      <stop stop-color="#295296"/>
      <stop offset="1" stop-color="#3E78D3"/>
    </linearGradient>
    <linearGradient id="prefix__e" x1="20.733" x2="34.055" y1="41.152" y2="45.582" gradientUnits="userSpaceOnUse">
      <stop stop-color="#70B1FF"/>
      <stop offset="1" stop-color="#005CCD"/>
    </linearGradient>
    <linearGradient id="prefix__f" x1="10.733" x2="24.055" y1="41.152" y2="45.582" gradientUnits="userSpaceOnUse">
      <stop stop-color="#70B1FF"/>
      <stop offset="1" stop-color="#005CCD"/>
    </linearGradient>
    <linearGradient id="prefix__g" x1="30.733" x2="44.055" y1="41.152" y2="45.582" gradientUnits="userSpaceOnUse">
      <stop stop-color="#70B1FF"/>
      <stop offset="1" stop-color="#005CCD"/>
    </linearGradient>
    <linearGradient id="prefix__h" x1="31.247" x2="20.255" y1="68.55" y2="78.333" gradientUnits="userSpaceOnUse">
      <stop stop-color="#6FA2EC"/>
      <stop offset="1" stop-color="#5C90DF"/>
    </linearGradient>
  </defs>
</svg>
