<svg width="48" height="48" fill="none" viewBox="0 0 48 48" xmlns="http://www.w3.org/2000/svg">
  <path fill="url(#prefix__a)" d="M14.5 11a3.5 3.5 0 0 0-3.5 3.5v25a3.5 3.5 0 0 0 3.5 3.5h17a3.5 3.5 0 0 0 3.5-3.5v-25a3.5 3.5 0 0 0-3.5-3.5h-17ZM17 39.5a1.5 1.5 0 1 1-3 0 1.5 1.5 0 0 1 3 0Z" clip-rule="evenodd" opacity=".45"/>
  <path fill="url(#prefix__b)" d="M33 4.2a10.012 10.012 0 0 0-7.8 7.8H22v4h3.2a10.012 10.012 0 0 0 7.8 7.8V28h4v-4.2a10.012 10.012 0 0 0 7.8-7.8H48v-4h-3.2A10.012 10.012 0 0 0 37 4.2V0h-4v4.2Zm8 9.8a6 6 0 1 1-12 0 6 6 0 0 1 12 0Z" clip-rule="evenodd" opacity=".55"/>
  <path fill="url(#prefix__c)" d="M35 17a3 3 0 1 0 0-6 3 3 0 0 0 0 6Z" clip-rule="evenodd"/>
  <path fill="url(#prefix__d)" d="M14.5 36a3.5 3.5 0 1 0 0 7h17a3.5 3.5 0 1 0 0-7h-17Zm2.5 3.5a1.5 1.5 0 1 1-3 0 1.5 1.5 0 0 1 3 0Z" clip-rule="evenodd"/>
  <defs>
    <linearGradient id="prefix__a" x1="24.269" x2="-5.522" y1="-1.615" y2="18.365" gradientUnits="userSpaceOnUse">
      <stop stop-color="#70B1FF"/>
      <stop offset="1" stop-color="#005CCD"/>
    </linearGradient>
    <linearGradient id="prefix__b" x1="12.073" x2="28.206" y1="7.914" y2="28.15" gradientUnits="userSpaceOnUse">
      <stop stop-color="#70B1FF"/>
      <stop offset="1" stop-color="#005CCD"/>
    </linearGradient>
    <linearGradient id="prefix__c" x1="46.235" x2="36.617" y1="15.199" y2="3.64" gradientUnits="userSpaceOnUse">
      <stop stop-color="#295296"/>
      <stop offset="1" stop-color="#3E78D3"/>
    </linearGradient>
    <linearGradient id="prefix__d" x1="-1" x2="2.763" y1="39.5" y2="52.402" gradientUnits="userSpaceOnUse">
      <stop stop-color="#6CA0EC"/>
      <stop offset="1" stop-color="#5B90DF"/>
    </linearGradient>
  </defs>
</svg>
