<svg width="48" height="48" fill="none" viewBox="0 0 48 48" xmlns="http://www.w3.org/2000/svg">
  <path fill="url(#prefix__a)" d="M9 4.444A2.444 2.444 0 0 1 11.444 2H30l11 11v30.556A2.444 2.444 0 0 1 38.556 46H11.444A2.444 2.444 0 0 1 9 43.556V4.444Z" clip-rule="evenodd" opacity=".4"/>
  <path fill="url(#prefix__b)" d="m30 2 11 11h-8.556A2.444 2.444 0 0 1 30 10.556V2Z" clip-rule="evenodd"/>
  <path fill="url(#prefix__c)" d="M6 13h23v13H6z" opacity=".4"/>
  <path fill="url(#prefix__d)" d="M13 29h24v3H13z" opacity=".4"/>
  <path fill="url(#prefix__e)" d="M13 34h24v3H13z" opacity=".4"/>
  <path fill="url(#prefix__f)" d="M13 39h18v3H13z" opacity=".4"/>
  <path fill="url(#prefix__g)" d="m9 29-3-3h3v3Z"/>
  <path fill="url(#prefix__h)" d="M16.146 18.627c0 .596-.195 1.053-.586 1.37-.39.319-.947.477-1.668.477h-.594v2.137h-.933v-5.71h1.644c.714 0 1.248.145 1.602.437.357.291.535.721.535 1.289Zm-2.848 1.062h.496c.48 0 .831-.083 1.055-.25.224-.166.336-.427.336-.781 0-.328-.1-.573-.3-.734-.201-.162-.514-.243-.938-.243h-.649v2.008Zm8.633.012c0 .943-.262 1.664-.785 2.164-.523.497-1.277.746-2.262.746h-1.597v-5.71h1.765c.91 0 1.616.244 2.121.733.506.49.758 1.179.758 2.067Zm-.984.031c0-1.367-.64-2.05-1.918-2.05h-.809v4.144h.664c1.375 0 2.063-.698 2.063-2.094Zm3.14 2.88h-.925V16.9h3.222v.79h-2.297v1.784h2.153v.793h-2.153v2.344Z"/>
  <defs>
    <linearGradient id="prefix__a" x1="28.03" x2="67.12" y1="65.917" y2="34.515" gradientUnits="userSpaceOnUse">
      <stop stop-color="#70B1FF"/>
      <stop offset="1" stop-color="#005CCD"/>
    </linearGradient>
    <linearGradient id="prefix__b" x1="56.098" x2="38.464" y1="9.698" y2="-11.493" gradientUnits="userSpaceOnUse">
      <stop stop-color="#295296"/>
      <stop offset="1" stop-color="#3E78D3"/>
    </linearGradient>
    <linearGradient id="prefix__c" x1="17.5" x2="6.362" y1="6.5" y2="26.205" gradientUnits="userSpaceOnUse">
      <stop stop-color="#70B1FF"/>
      <stop offset="1" stop-color="#005CCD"/>
    </linearGradient>
    <linearGradient id="prefix__d" x1="21.727" x2="27.737" y1="29.261" y2="38.774" gradientUnits="userSpaceOnUse">
      <stop stop-color="#297BE0"/>
      <stop offset="1" stop-color="#005CCD"/>
    </linearGradient>
    <linearGradient id="prefix__e" x1="21.727" x2="27.737" y1="34.261" y2="43.774" gradientUnits="userSpaceOnUse">
      <stop stop-color="#297BE0"/>
      <stop offset="1" stop-color="#005CCD"/>
    </linearGradient>
    <linearGradient id="prefix__f" x1="19.546" x2="26.103" y1="39.261" y2="47.046" gradientUnits="userSpaceOnUse">
      <stop stop-color="#297BE0"/>
      <stop offset="1" stop-color="#005CCD"/>
    </linearGradient>
    <linearGradient id="prefix__g" x1="13.118" x2="8.308" y1="28.099" y2="22.32" gradientUnits="userSpaceOnUse">
      <stop stop-color="#295296"/>
      <stop offset="1" stop-color="#3E78D3"/>
    </linearGradient>
    <linearGradient id="prefix__h" x1="50.758" x2="34.531" y1="21.644" y2="-6.387" gradientUnits="userSpaceOnUse">
      <stop stop-color="#295296"/>
      <stop offset="1" stop-color="#3E78D3"/>
    </linearGradient>
  </defs>
</svg>
