<svg width="48" height="48" fill="none" viewBox="0 0 48 48" xmlns="http://www.w3.org/2000/svg">
  <circle cx="24.234" cy="16.767" r="13.767" fill="url(#prefix__a)" opacity=".35"/>
  <path fill="url(#prefix__b)" d="m2.228 30.426 6.148-4.453a2.505 2.505 0 0 1 1.763-.458l20.483 2.42a2.474 2.474 0 0 1-.29 4.932H18.866l6.105 4.55a4.654 4.654 0 0 0 4.644.534l6.8-2.967a9.84 9.84 0 0 1 9.292.765.149.149 0 0 1-.018.26l-18.408 8.55a3.348 3.348 0 0 1-1.975.26c-3.5-.597-15.19-2.422-23.24-1.686l.16-12.707Z" clip-rule="evenodd" opacity=".55"/>
  <path fill="url(#prefix__c)" d="M31.704 28.332a13.702 13.702 0 0 1-7.47 2.201 13.732 13.732 0 0 1-10.238-4.563l16.626 1.965c.4.047.767.187 1.082.398Z" clip-rule="evenodd"/>
  <path fill="url(#prefix__d)" d="M24.44 15.74a6.164 6.164 0 0 1 6.164 6.164v2.465H18.275v-2.465a6.164 6.164 0 0 1 6.165-6.165Zm-.001-1.233a3.699 3.699 0 1 1 0-7.398 3.699 3.699 0 0 1 0 7.398Z" clip-rule="evenodd" opacity=".55" style="mix-blend-mode:multiply"/>
  <defs>
    <linearGradient id="prefix__a" x1="-5.647" x2="23.458" y1="16.002" y2="45.086" gradientUnits="userSpaceOnUse">
      <stop stop-color="#70B1FF"/>
      <stop offset="1" stop-color="#005CCD"/>
    </linearGradient>
    <linearGradient id="prefix__b" x1="62.76" x2="45.109" y1="35.2" y2="4.895" gradientUnits="userSpaceOnUse">
      <stop stop-color="#70B1FF"/>
      <stop offset="1" stop-color="#005CCD"/>
    </linearGradient>
    <linearGradient id="prefix__c" x1="16.403" x2="16.155" y1="24.882" y2="30.224" gradientUnits="userSpaceOnUse">
      <stop stop-color="#295296"/>
      <stop offset="1" stop-color="#3E78D3"/>
    </linearGradient>
    <linearGradient id="prefix__d" x1="23.535" x2="9.876" y1="2.822" y2="12.432" gradientUnits="userSpaceOnUse">
      <stop stop-color="#70B1FF"/>
      <stop offset="1" stop-color="#005CCD"/>
    </linearGradient>
  </defs>
</svg>
