<svg width="96" height="96" fill="none" viewBox="0 0 96 96" xmlns="http://www.w3.org/2000/svg">
  <circle cx="48.5" cy="32.5" r="29.5" fill="url(#prefix__a)" opacity=".35"/>
  <path fill="url(#prefix__b)" d="m1.344 61.77 13.175-9.541a5.367 5.367 0 0 1 3.778-.983l43.891 5.185A5.302 5.302 0 0 1 61.566 67H37l13.082 9.751a9.974 9.974 0 0 0 9.95 1.145l14.57-6.359a21.085 21.085 0 0 1 19.913 1.639.32.32 0 0 1-.039.558L55.031 92.056a7.175 7.175 0 0 1-4.232.555C43.3 91.334 18.25 87.422 1 89l.344-27.23Z" clip-rule="evenodd" opacity=".55"/>
  <path fill="url(#prefix__c)" d="M64.507 57.284A29.362 29.362 0 0 1 48.5 62c-8.71 0-16.538-3.775-21.939-9.778l35.627 4.21a5.283 5.283 0 0 1 2.319.852Z" clip-rule="evenodd"/>
  <path fill="url(#prefix__d)" d="M48.94 30.299c7.296 0 13.21 5.913 13.21 13.209v5.283H35.73v-5.283c0-7.296 5.914-13.21 13.21-13.21Zm0-2.642a7.925 7.925 0 1 1 0-15.851 7.925 7.925 0 0 1 0 15.85Z" clip-rule="evenodd" opacity=".55" style="mix-blend-mode:multiply"/>
  <defs>
    <linearGradient id="prefix__a" x1="-15.53" x2="46.838" y1="30.861" y2="93.184" gradientUnits="userSpaceOnUse">
      <stop stop-color="#70B1FF"/>
      <stop offset="1" stop-color="#005CCD"/>
    </linearGradient>
    <linearGradient id="prefix__b" x1="131.055" x2="93.232" y1="72" y2="7.061" gradientUnits="userSpaceOnUse">
      <stop stop-color="#70B1FF"/>
      <stop offset="1" stop-color="#005CCD"/>
    </linearGradient>
    <linearGradient id="prefix__c" x1="31.719" x2="31.189" y1="49.89" y2="61.336" gradientUnits="userSpaceOnUse">
      <stop stop-color="#295296"/>
      <stop offset="1" stop-color="#3E78D3"/>
    </linearGradient>
    <linearGradient id="prefix__d" x1="47.001" x2="17.733" y1="2.618" y2="23.212" gradientUnits="userSpaceOnUse">
      <stop stop-color="#70B1FF"/>
      <stop offset="1" stop-color="#005CCD"/>
    </linearGradient>
  </defs>
</svg>
