<svg width="96" height="96" fill="none" viewBox="0 0 96 96" xmlns="http://www.w3.org/2000/svg">
  <path fill="url(#prefix__a)" d="M30.107 96 10.51 80.077A20.33 20.33 0 0 1 3 64.3V29.818h54.215v34.48a20.33 20.33 0 0 1-7.51 15.78L30.106 96Z" clip-rule="evenodd" opacity=".35"/>
  <path fill="url(#prefix__b)" d="M91.868 60.571c-.041.704-.55 1.23-1.49 1.799-1.882 1.136-5.225 2.123-7.355 4.709-1.852 2.2-4.112 3.414-6.1 3.567-1.987.16-3.703-.668-4.715-2.697v-.012c-.627-1.195-.367-3.077.16-5.065.526-1.987 1.29-4.029 1.39-5.685v-.006c.107-2.124.225-3.982.58-5.413.355-1.432.917-2.403 1.917-2.947.047-.023.095-.047.136-.07.112 1.84 1.024 3.715 2.633 4.123 1.763.461 4.301-1.047 5.372-2.278.213-.006.426-.018.627-.023.94-.024 1.728.029 2.538.733.621.527.917 1.515 1.171 2.627.255 1.112.462 2.32 1.225 3.183 1.48 1.65 1.953 2.751 1.911 3.455Zm-35.793 5.212v.012c-.172 2.23-1.432 3.45-3.36 3.887-1.936.444-4.55 0-7.172-1.367-2.893-1.532-6.336-1.378-8.548-1.84-1.107-.23-1.829-.58-2.154-1.224-.331-.645-.337-1.77.367-3.686l.006-.006v-.006c.349-1.07.088-2.248-.077-3.348-.172-1.101-.249-2.107.124-2.805l.006-.006c.48-.929 1.19-1.26 2.065-1.573.875-.314 1.917-.563 2.739-1.385l.006-.006.006-.006c.757-.798 1.33-1.804 1.994-2.514.562-.604 1.124-1 1.976-1.006h.03c.147 0 .307.012.473.041 1.124.172 2.112.959 3.058 2.243l2.733 4.981c.728 1.52 2.267 3.19 3.568 4.893 1.284 1.698 2.29 3.408 2.16 4.721Zm13.63-46.443c-.218-.431-.668-.84-1.431-1.153-1.586-.68-2.278-.728-3.16-1.302-1.443-.929-2.632-1.254-3.62-1.248-.52 0-.982.094-1.396.236-1.207.415-2.006 1.278-2.509 1.758-.1.094-.225.177-.532.402-.308.225-.775.568-1.444 1.065-.592.444-.787 1.023-.58 1.704.207.68.858 1.461 2.06 2.141.745.438 1.247 1.024 1.833 1.491.29.237.598.444.965.598a3.95 3.95 0 0 0 1.337.296c1.266.07 2.194-.308 3.017-.775.822-.468 1.52-1.048 2.325-1.308 1.639-.515 2.81-1.544 3.177-2.526.183-.48.178-.947-.041-1.379Zm15.827 30.286a7.874 7.874 0 0 0-.533 0h-.047c.45-1.414-.544-2.461-3.189-3.656-2.74-1.207-4.922-1.089-5.295 1.36-.024.13-.041.26-.06.39-.206.072-.407.16-.615.273-1.283.704-1.987 1.982-2.378 3.55-.39 1.568-.503 3.46-.61 5.585-.064 1.07-.508 2.514-.952 4.052-4.49 3.201-10.72 4.591-16.01.983-.36-.569-.768-1.13-1.194-1.68-.273-.356-.55-.705-.823-1.054.545 0 1.006-.089 1.379-.254.461-.213.787-.55.952-.982.32-.87 0-2.089-1.035-3.491-1.035-1.396-2.78-2.976-5.354-4.55-1.888-1.177-2.947-2.615-3.438-4.177-.497-1.561-.426-3.254-.041-4.922.734-3.2 2.609-6.318 3.81-8.277.32-.236.113.444-1.213 2.911-1.189 2.254-3.42 7.46-.367 11.525.083-2.893.775-5.84 1.935-8.602 1.686-3.828 5.218-10.466 5.502-15.761.148.106.645.443.864.568.65.378 1.136.94 1.763 1.443.633.51 1.42.947 2.615 1.018.112.006.225.012.337.012 1.23 0 2.19-.403 2.988-.858.87-.497 1.562-1.047 2.219-1.26 1.39-.432 2.49-1.201 3.117-2.095 1.077 4.254 3.586 10.39 5.2 13.389.859 1.591 2.563 4.97 3.302 9.034a5.61 5.61 0 0 1 1.532.195c1.93-4.993-1.632-10.371-3.26-11.868-.656-.639-.686-.923-.36-.91 1.763 1.561 4.082 4.702 4.928 8.246.385 1.616.467 3.314.053 4.994.201.083.408.171.615.272 3.071 1.503 4.213 2.816 3.663 4.597ZM69.848 14.448c.006.84-.136 1.561-.456 2.29-.183.42-.39.768-.645 1.07a2.778 2.778 0 0 0-.266-.118 19.76 19.76 0 0 0-.852-.343c-.254-.095-.45-.16-.65-.231.147-.178.437-.385.543-.651.166-.396.243-.787.26-1.248 0-.018.007-.036.007-.053a3.356 3.356 0 0 0-.178-1.207c-.136-.409-.307-.699-.556-.941-.248-.243-.497-.355-.799-.361h-.041c-.278 0-.526.1-.775.308-.266.219-.462.503-.627.899a3.455 3.455 0 0 0-.26 1.248v.054c-.006.254.011.49.047.715-.574-.284-1.308-.497-1.816-.615a6.234 6.234 0 0 1-.054-.68v-.065c-.011-.84.13-1.562.45-2.29.325-.734.722-1.26 1.284-1.686.562-.426 1.118-.621 1.775-.633h.03c.638 0 1.188.19 1.75.597.574.415.983.935 1.32 1.663.325.71.485 1.402.497 2.218.006.018.006.036.012.06Zm-9.691.834a4.942 4.942 0 0 0-1.426.645 3.07 3.07 0 0 0 .012-.77v-.04a3.236 3.236 0 0 0-.243-.983c-.136-.325-.29-.55-.497-.728-.183-.16-.355-.23-.55-.23h-.06c-.212.017-.395.124-.561.33-.172.208-.278.462-.361.8-.083.337-.1.668-.065 1.053 0 .017.006.03.006.041.035.373.112.675.242.988.136.32.29.55.497.722.036.03.065.053.1.077-.212.165-.348.278-.526.402l-.396.29c-.337-.314-.598-.71-.822-1.23a5.43 5.43 0 0 1-.456-1.959v-.006a5.454 5.454 0 0 1 .23-2c.202-.644.468-1.112.859-1.496.384-.385.78-.58 1.248-.604h.106c.426 0 .805.142 1.201.456.426.343.752.78 1.024 1.396.272.615.414 1.23.456 1.958v.006c.011.32.005.604-.018.882Z" opacity=".35"/>
  <path fill="url(#prefix__c)" fill-opacity=".5" d="M65.54 21.766c-1.307.68-2.828 1.509-4.455 1.509-1.621 0-2.905-.752-3.828-1.48-.461-.366-.834-.727-1.118-.993-.491-.385-.432-.93-.23-.911.337.041.39.485.597.686.29.266.645.615 1.083.964.87.692 2.035 1.361 3.49 1.361 1.456 0 3.148-.852 4.183-1.432.586-.331 1.331-.917 1.94-1.366.468-.344.45-.752.835-.71.384.041.1.455-.438.929-.532.46-1.373 1.088-2.059 1.443Zm25.126 34.729c-.508-.574-.75-1.633-1.011-2.763-.26-1.13-.55-2.349-1.473-3.136l-.006-.006a3.854 3.854 0 0 0-1.136-.686c1.29-3.822.78-7.626-.515-11.064-1.597-4.218-4.384-7.892-6.508-10.406-2.384-3.006-4.71-5.857-4.668-10.07C75.42 11.94 76.053.018 64.741 0c-.461 0-.94.018-1.437.06-12.643 1.017-9.289 14.376-9.478 18.849-.23 3.271-.894 5.85-3.142 9.046-2.644 3.141-6.366 8.229-8.129 13.524-.834 2.497-1.224 5.047-.864 7.455a5.46 5.46 0 0 0-.325.32c-.775.827-1.349 1.833-1.988 2.508-.597.597-1.45.822-2.384 1.16-.935.337-1.958.828-2.586 2.023 0 0 0 .005-.005.005-.296.545-.39 1.136-.39 1.734 0 .556.082 1.112.165 1.657.171 1.124.349 2.189.112 2.904-.74 2.024-.834 3.42-.313 4.438.52 1.017 1.597 1.467 2.81 1.721 2.426.51 5.71.379 8.3 1.752l.225-.42-.219.42c2.77 1.449 5.58 1.964 7.822 1.449 1.627-.373 2.946-1.337 3.62-2.828 1.752-.006 3.68-.751 6.763-.923 2.088-.171 4.703.746 7.709.574.077.325.189.639.349.935l.006.006c1.165 2.33 3.33 3.396 5.632 3.212 2.307-.183 4.763-1.544 6.75-3.904l-.366-.308.367.302c1.893-2.296 5.028-3.243 7.117-4.503 1.041-.627 1.887-1.414 1.952-2.556.065-1.124-.603-2.402-2.147-4.117Zm-27.93-41.982a5.29 5.29 0 0 1 .45-2.29c.325-.734.721-1.26 1.283-1.686.562-.426 1.118-.621 1.775-.633h.03c.639 0 1.189.19 1.75.597.575.415.983.935 1.32 1.663.326.71.485 1.402.497 2.219 0 .023 0 .04.006.059.006.84-.136 1.562-.455 2.29a4.29 4.29 0 0 1-.645 1.07 2.77 2.77 0 0 0-.267-.118 19.71 19.71 0 0 0-.852-.343c-.254-.095-.45-.16-.65-.231.148-.178.438-.385.544-.65.166-.397.243-.788.26-1.25 0-.017.006-.035.006-.053a3.353 3.353 0 0 0-.177-1.206c-.136-.409-.308-.699-.556-.941-.249-.243-.497-.355-.8-.361h-.04c-.279 0-.527.1-.776.308-.266.219-.461.503-.627.899a3.459 3.459 0 0 0-.26 1.248v.054a3.97 3.97 0 0 0 .047.715c-.574-.284-1.307-.497-1.816-.615a6.209 6.209 0 0 1-.053-.68v-.065h.006Zm-7.46-1.81c.2-.646.467-1.113.857-1.497.385-.385.781-.58 1.248-.604h.107c.426 0 .805.142 1.201.456.426.343.751.78 1.023 1.396a5.43 5.43 0 0 1 .456 1.958v.006c.018.308.018.592-.006.87a3.22 3.22 0 0 0-.248.077 4.9 4.9 0 0 0-1.178.568 2.98 2.98 0 0 0 .012-.77v-.041a3.233 3.233 0 0 0-.242-.982c-.136-.325-.29-.55-.497-.728-.184-.16-.355-.23-.55-.23h-.06c-.213.017-.396.124-.562.33-.171.208-.278.462-.36.8a3.093 3.093 0 0 0-.066 1.053c0 .017.006.03.006.041.036.373.112.675.243.988.136.32.29.55.497.722.035.03.065.053.1.077-.213.165-.349.278-.526.402l-.397.29c-.337-.314-.597-.71-.822-1.23a5.43 5.43 0 0 1-.456-1.959v-.006a5.16 5.16 0 0 1 .22-1.988Zm.325 6.4a78.87 78.87 0 0 1 1.443-1.064c.308-.225.432-.308.533-.402.503-.474 1.301-1.343 2.508-1.758a4.259 4.259 0 0 1 1.396-.236c.988-.006 2.184.32 3.621 1.248.888.574 1.574.627 3.16 1.302.763.313 1.212.721 1.431 1.153.22.432.225.894.042 1.385-.367.982-1.538 2.011-3.177 2.526-.799.26-1.497.834-2.325 1.307-.823.474-1.752.852-3.018.776a3.818 3.818 0 0 1-1.337-.296 4.272 4.272 0 0 1-.964-.598c-.58-.467-1.089-1.059-1.834-1.49-1.195-.675-1.852-1.462-2.06-2.142-.206-.687-.01-1.267.58-1.71Zm.473 46.68v.012c-.172 2.23-1.432 3.45-3.36 3.887-1.935.444-4.55 0-7.171-1.367-2.893-1.532-6.336-1.378-8.55-1.84-1.105-.23-1.827-.58-2.153-1.224-.33-.645-.337-1.77.367-3.686l.006-.006v-.006c.35-1.07.089-2.248-.077-3.348-.171-1.1-.248-2.107.124-2.805l.006-.006c.48-.929 1.19-1.26 2.065-1.573.876-.314 1.917-.563 2.74-1.385l.005-.006.006-.006c.758-.798 1.331-1.804 1.994-2.514.562-.604 1.124-1 1.976-1.006h.03c.148 0 .307.012.473.041 1.124.172 2.112.959 3.059 2.243l2.733 4.981c.728 1.52 2.266 3.19 3.567 4.893 1.284 1.698 2.29 3.408 2.16 4.721Zm-.23-3.62c-.362-.569-.77-1.13-1.196-1.68-.272-.356-.55-.705-.822-1.054.544 0 1.006-.089 1.378-.254.462-.213.787-.55.953-.982.32-.87 0-2.089-1.035-3.491-1.036-1.396-2.781-2.976-5.355-4.55-1.887-1.177-2.946-2.615-3.437-4.177-.497-1.561-.426-3.254-.042-4.922.734-3.2 2.61-6.318 3.81-8.277.32-.236.113.444-1.212 2.911-1.19 2.254-3.42 7.46-.367 11.525.083-2.893.775-5.84 1.934-8.602 1.687-3.828 5.219-10.466 5.503-15.761.148.106.644.443.863.568.651.378 1.136.94 1.764 1.443.633.51 1.42.947 2.614 1.018.113.006.225.012.338.012 1.23 0 2.189-.403 2.987-.858.87-.497 1.562-1.047 2.22-1.26 1.39-.432 2.49-1.201 3.117-2.095 1.077 4.254 3.585 10.39 5.2 13.389.858 1.591 2.562 4.97 3.302 9.034a5.61 5.61 0 0 1 1.532.195c1.929-4.993-1.633-10.371-3.26-11.868-.657-.639-.686-.923-.36-.91 1.762 1.561 4.081 4.702 4.928 8.246.384 1.616.467 3.314.053 4.994.2.083.408.171.615.272 3.094 1.503 4.236 2.816 3.686 4.603a8.01 8.01 0 0 0-.533 0h-.047c.45-1.414-.544-2.461-3.189-3.657-2.74-1.206-4.922-1.088-5.295 1.361-.024.13-.041.26-.06.39a3.99 3.99 0 0 0-.614.273c-1.284.704-1.988 1.982-2.379 3.55-.39 1.568-.503 3.46-.61 5.585-.064 1.07-.508 2.514-.952 4.052-4.514 3.201-10.744 4.591-16.033.977Zm36.024-1.592c-.042.704-.55 1.23-1.491 1.799-1.882 1.136-5.224 2.123-7.354 4.709-1.852 2.2-4.112 3.414-6.1 3.567-1.988.16-3.704-.668-4.715-2.697v-.012c-.627-1.195-.367-3.077.16-5.065.526-1.987 1.29-4.029 1.39-5.685v-.006c.106-2.124.225-3.982.58-5.413.355-1.432.917-2.403 1.916-2.947.048-.023.095-.047.136-.07.113 1.84 1.024 3.715 2.633 4.123 1.763.461 4.301-1.047 5.372-2.278.213-.006.426-.018.627-.023.941-.024 1.728.03 2.538.733.622.527.918 1.515 1.172 2.627.254 1.112.461 2.32 1.225 3.183 1.479 1.65 1.952 2.751 1.91 3.455Zm-29.57-43.55c.053.172.331.142.497.225.142.071.254.23.414.237.154.006.39-.054.408-.201.024-.202-.266-.326-.45-.397-.242-.095-.55-.142-.774-.018-.054.03-.113.1-.095.154Zm-1.65 0c-.054.172-.332.142-.498.225-.142.071-.254.23-.414.237-.154.006-.39-.054-.408-.201-.024-.202.266-.326.45-.397.242-.095.55-.142.775-.018.059.03.112.1.094.154Z"/>
  <path fill="url(#prefix__d)" d="M30.107 96V29.818h27.108v34.48a20.33 20.33 0 0 1-7.51 15.78L30.107 96Z" clip-rule="evenodd" opacity=".45"/>
  <path fill="url(#prefix__e)" d="M65.54 21.766c-1.307.68-2.828 1.509-4.455 1.509-1.621 0-2.905-.752-3.828-1.48-.461-.366-.834-.727-1.118-.993-.491-.385-.432-.93-.23-.911.337.041.39.485.597.686.29.266.645.615 1.083.964.87.692 2.035 1.361 3.49 1.361 1.456 0 3.148-.852 4.183-1.432.586-.331 1.331-.917 1.94-1.366.468-.344.45-.752.835-.71.384.041.1.455-.438.929-.532.46-1.373 1.088-2.059 1.443Zm25.126 34.729c-.508-.574-.75-1.633-1.011-2.763-.26-1.13-.55-2.349-1.473-3.136l-.006-.006a3.854 3.854 0 0 0-1.136-.686c1.29-3.822.78-7.626-.515-11.064-1.597-4.218-4.384-7.892-6.508-10.406-2.384-3.006-4.71-5.857-4.668-10.07C75.42 11.94 76.053.018 64.741 0c-.461 0-.94.018-1.437.06-12.643 1.017-9.289 14.376-9.478 18.849-.23 3.271-.894 5.85-3.142 9.046-2.644 3.141-6.366 8.229-8.129 13.524-.834 2.497-1.224 5.047-.864 7.455a5.46 5.46 0 0 0-.325.32c-.775.827-1.349 1.833-1.988 2.508-.597.597-1.45.822-2.384 1.16-.935.337-1.958.828-2.586 2.023 0 0 0 .005-.005.005-.296.545-.39 1.136-.39 1.734 0 .556.082 1.112.165 1.657.171 1.124.349 2.189.112 2.904-.74 2.024-.834 3.42-.313 4.438.52 1.017 1.597 1.467 2.81 1.721 2.426.51 5.71.379 8.3 1.752l.225-.42-.219.42c2.77 1.449 5.58 1.964 7.822 1.449 1.627-.373 2.946-1.337 3.62-2.828 1.752-.006 3.68-.751 6.763-.923 2.088-.171 4.703.746 7.709.574.077.325.189.639.349.935l.006.006c1.165 2.33 3.33 3.396 5.632 3.212 2.307-.183 4.763-1.544 6.75-3.904l-.366-.308.367.302c1.893-2.296 5.028-3.243 7.117-4.503 1.041-.627 1.887-1.414 1.952-2.556.065-1.124-.603-2.402-2.147-4.117Zm-27.93-41.982a5.29 5.29 0 0 1 .45-2.29c.325-.734.721-1.26 1.283-1.686.562-.426 1.118-.621 1.775-.633h.03c.639 0 1.189.19 1.75.597.575.415.983.935 1.32 1.663.326.71.485 1.402.497 2.219 0 .023 0 .04.006.059.006.84-.136 1.562-.455 2.29a4.29 4.29 0 0 1-.645 1.07 2.77 2.77 0 0 0-.267-.118 19.71 19.71 0 0 0-.852-.343c-.254-.095-.45-.16-.65-.231.148-.178.438-.385.544-.65.166-.397.243-.788.26-1.25 0-.017.006-.035.006-.053a3.353 3.353 0 0 0-.177-1.206c-.136-.409-.308-.699-.556-.941-.249-.243-.497-.355-.8-.361h-.04c-.279 0-.527.1-.776.308-.266.219-.461.503-.627.899a3.459 3.459 0 0 0-.26 1.248v.054a3.97 3.97 0 0 0 .047.715c-.574-.284-1.307-.497-1.816-.615a6.209 6.209 0 0 1-.053-.68v-.065h.006Zm-7.46-1.81c.2-.646.467-1.113.857-1.497.385-.385.781-.58 1.248-.604h.107c.426 0 .805.142 1.201.456.426.343.751.78 1.023 1.396a5.43 5.43 0 0 1 .456 1.958v.006c.018.308.018.592-.006.87a3.22 3.22 0 0 0-.248.077 4.9 4.9 0 0 0-1.178.568 2.98 2.98 0 0 0 .012-.77v-.041a3.233 3.233 0 0 0-.242-.982c-.136-.325-.29-.55-.497-.728-.184-.16-.355-.23-.55-.23h-.06c-.213.017-.396.124-.562.33-.171.208-.278.462-.36.8a3.093 3.093 0 0 0-.066 1.053c0 .017.006.03.006.041.036.373.112.675.243.988.136.32.29.55.497.722.035.03.065.053.1.077-.213.165-.349.278-.526.402l-.397.29c-.337-.314-.597-.71-.822-1.23a5.43 5.43 0 0 1-.456-1.959v-.006a5.16 5.16 0 0 1 .22-1.988Zm.325 6.4a78.87 78.87 0 0 1 1.443-1.064c.308-.225.432-.308.533-.402.503-.474 1.301-1.343 2.508-1.758a4.259 4.259 0 0 1 1.396-.236c.988-.006 2.184.32 3.621 1.248.888.574 1.574.627 3.16 1.302.763.313 1.212.721 1.431 1.153.22.432.225.894.042 1.385-.367.982-1.538 2.011-3.177 2.526-.799.26-1.497.834-2.325 1.307-.823.474-1.752.852-3.018.776a3.818 3.818 0 0 1-1.337-.296 4.272 4.272 0 0 1-.964-.598c-.58-.467-1.089-1.059-1.834-1.49-1.195-.675-1.852-1.462-2.06-2.142-.206-.687-.01-1.267.58-1.71Zm.473 46.68v.012c-.172 2.23-1.432 3.45-3.36 3.887-1.935.444-4.55 0-7.171-1.367-2.893-1.532-6.336-1.378-8.55-1.84-1.105-.23-1.827-.58-2.153-1.224-.33-.645-.337-1.77.367-3.686l.006-.006v-.006c.35-1.07.089-2.248-.077-3.348-.171-1.1-.248-2.107.124-2.805l.006-.006c.48-.929 1.19-1.26 2.065-1.573.876-.314 1.917-.563 2.74-1.385l.005-.006.006-.006c.758-.798 1.331-1.804 1.994-2.514.562-.604 1.124-1 1.976-1.006h.03c.148 0 .307.012.473.041 1.124.172 2.112.959 3.059 2.243l2.733 4.981c.728 1.52 2.266 3.19 3.567 4.893 1.284 1.698 2.29 3.408 2.16 4.721Zm-.23-3.62c-.362-.569-.77-1.13-1.196-1.68-.272-.356-.55-.705-.822-1.054.544 0 1.006-.089 1.378-.254.462-.213.787-.55.953-.982.32-.87 0-2.089-1.035-3.491-1.036-1.396-2.781-2.976-5.355-4.55-1.887-1.177-2.946-2.615-3.437-4.177-.497-1.561-.426-3.254-.042-4.922.734-3.2 2.61-6.318 3.81-8.277.32-.236.113.444-1.212 2.911-1.19 2.254-3.42 7.46-.367 11.525.083-2.893.775-5.84 1.934-8.602 1.687-3.828 5.219-10.466 5.503-15.761.148.106.644.443.863.568.651.378 1.136.94 1.764 1.443.633.51 1.42.947 2.614 1.018.113.006.225.012.338.012 1.23 0 2.189-.403 2.987-.858.87-.497 1.562-1.047 2.22-1.26 1.39-.432 2.49-1.201 3.117-2.095 1.077 4.254 3.585 10.39 5.2 13.389.858 1.591 2.562 4.97 3.302 9.034a5.61 5.61 0 0 1 1.532.195c1.929-4.993-1.633-10.371-3.26-11.868-.657-.639-.686-.923-.36-.91 1.762 1.561 4.081 4.702 4.928 8.246.384 1.616.467 3.314.053 4.994.2.083.408.171.615.272 3.094 1.503 4.236 2.816 3.686 4.603a8.01 8.01 0 0 0-.533 0h-.047c.45-1.414-.544-2.461-3.189-3.657-2.74-1.206-4.922-1.088-5.295 1.361-.024.13-.041.26-.06.39a3.99 3.99 0 0 0-.614.273c-1.284.704-1.988 1.982-2.379 3.55-.39 1.568-.503 3.46-.61 5.585-.064 1.07-.508 2.514-.952 4.052-4.514 3.201-10.744 4.591-16.033.977Zm36.024-1.592c-.042.704-.55 1.23-1.491 1.799-1.882 1.136-5.224 2.123-7.354 4.709-1.852 2.2-4.112 3.414-6.1 3.567-1.988.16-3.704-.668-4.715-2.697v-.012c-.627-1.195-.367-3.077.16-5.065.526-1.987 1.29-4.029 1.39-5.685v-.006c.106-2.124.225-3.982.58-5.413.355-1.432.917-2.403 1.916-2.947.048-.023.095-.047.136-.07.113 1.84 1.024 3.715 2.633 4.123 1.763.461 4.301-1.047 5.372-2.278.213-.006.426-.018.627-.023.941-.024 1.728.03 2.538.733.622.527.918 1.515 1.172 2.627.254 1.112.461 2.32 1.225 3.183 1.479 1.65 1.952 2.751 1.91 3.455Zm-29.57-43.55c.053.172.331.142.497.225.142.071.254.23.414.237.154.006.39-.054.408-.201.024-.202-.266-.326-.45-.397-.242-.095-.55-.142-.774-.018-.054.03-.113.1-.095.154Zm-1.65 0c-.054.172-.332.142-.498.225-.142.071-.254.23-.414.237-.154.006-.39-.054-.408-.201-.024-.202.266-.326.45-.397.242-.095.55-.142.775-.018.059.03.112.1.094.154Z" opacity=".3"/>
  <path fill="url(#prefix__f)" d="M56.917 67.765a20.28 20.28 0 0 0 .298-3.466v-1.32c-.463-.237-.92-.508-1.372-.816-.36-.569-.769-1.13-1.195-1.68a71.56 71.56 0 0 0-.527-.678c-.099-.125-.198-.25-.295-.376.544 0 1.006-.089 1.378-.254.462-.213.787-.55.953-.982.32-.87 0-2.089-1.035-3.49-1.036-1.397-2.781-2.977-5.355-4.55-1.887-1.178-2.946-2.616-3.437-4.178-.497-1.561-.426-3.253-.042-4.922.734-3.2 2.61-6.318 3.81-8.277.32-.236.113.444-1.212 2.911-1.19 2.254-3.42 7.46-.367 11.525.083-2.893.775-5.84 1.934-8.602.288-.654.63-1.39 1-2.186.9-1.939 1.97-4.24 2.842-6.606H49.18c-2.408 3.106-5.176 7.314-6.624 11.661-.834 2.497-1.224 5.047-.864 7.455a5.46 5.46 0 0 0-.325.32c-.402.429-.75.906-1.081 1.36-.307.422-.6.823-.907 1.148-.505.505-1.194.744-1.96 1.01-.139.048-.28.098-.424.15-.935.337-1.958.828-2.586 2.023 0 0 0 .006-.005.006-.296.544-.39 1.136-.39 1.733 0 .556.082 1.112.165 1.657l.02.134c.165 1.074.32 2.083.092 2.77-.74 2.024-.834 3.42-.313 4.438.52 1.017 1.597 1.467 2.81 1.721.77.162 1.628.26 2.522.36 1.92.218 4.01.455 5.778 1.392l.225-.42-.219.42c2.77 1.45 5.58 1.964 7.822 1.45 1.627-.374 2.946-1.338 3.62-2.829.127 0 .254-.005.382-.012Zm-.843-1.97v-.012c.13-1.313-.876-3.023-2.16-4.72a67.62 67.62 0 0 0-1.115-1.408c-.977-1.211-1.926-2.387-2.452-3.486l-2.733-4.981c-.947-1.284-1.935-2.07-3.059-2.242a2.696 2.696 0 0 0-.473-.042h-.03c-.852.006-1.414.402-1.976 1.006-.316.338-.611.744-.916 1.162-.335.46-.681.934-1.078 1.352l-.006.006-.006.006c-.693.693-1.541.979-2.315 1.239-.144.049-.286.096-.424.146-.875.313-1.585.644-2.065 1.573l-.005.006c-.373.698-.296 1.704-.125 2.805.02.134.042.27.064.406.156.98.32 2.002.013 2.942v.006l-.006.006c-.704 1.917-.698 3.04-.367 3.686.326.645 1.048.994 2.154 1.224.663.139 1.437.222 2.274.312 1.954.21 4.25.456 6.275 1.528 2.62 1.367 5.236 1.81 7.17 1.367 1.93-.438 3.19-1.656 3.361-3.887Z" clip-rule="evenodd"/>
  <defs>
    <linearGradient id="prefix__a" x1="-28.983" x2="48.935" y1="117.121" y2="134.068" gradientUnits="userSpaceOnUse">
      <stop stop-color="#70B1FF"/>
      <stop offset="1" stop-color="#005CCD"/>
    </linearGradient>
    <linearGradient id="prefix__b" x1="98.312" x2="57.337" y1="40.505" y2="2.564" gradientUnits="userSpaceOnUse">
      <stop stop-color="#70B1FF"/>
      <stop offset="1" stop-color="#005CCD"/>
    </linearGradient>
    <linearGradient id="prefix__c" x1="55.037" x2="128.079" y1="85.946" y2="46.956" gradientUnits="userSpaceOnUse">
      <stop stop-color="#295296"/>
      <stop offset="1" stop-color="#3E78D3"/>
    </linearGradient>
    <linearGradient id="prefix__d" x1="14.116" x2="54.441" y1="117.121" y2="121.507" gradientUnits="userSpaceOnUse">
      <stop stop-color="#70B1FF"/>
      <stop offset="1" stop-color="#005CCD"/>
    </linearGradient>
    <linearGradient id="prefix__e" x1="-1.258" x2="83.004" y1="92.605" y2="112.718" gradientUnits="userSpaceOnUse">
      <stop stop-color="#70B1FF"/>
      <stop offset="1" stop-color="#005CCD"/>
    </linearGradient>
    <linearGradient id="prefix__f" x1="42.167" x2="75.015" y1="79.01" y2="66.808" gradientUnits="userSpaceOnUse">
      <stop stop-color="#295296"/>
      <stop offset="1" stop-color="#3E78D3"/>
    </linearGradient>
  </defs>
</svg>
