<svg width="48" height="48" fill="none" viewBox="0 0 48 48" xmlns="http://www.w3.org/2000/svg">
  <path fill="url(#prefix__a)" d="m15.554 48-9.799-7.961A10.165 10.165 0 0 1 2 32.149V14.91h27.107v17.24c0 3.061-1.38 5.96-3.755 7.89L15.554 48Z" clip-rule="evenodd" opacity=".35"/>
  <path fill="url(#prefix__b)" d="M46.434 30.285c-.02.352-.275.616-.745.9-.941.568-2.612 1.062-3.677 2.354-.926 1.1-2.056 1.707-3.05 1.784-.994.08-1.852-.334-2.358-1.349v-.006c-.313-.597-.183-1.538.08-2.532s.645-2.014.695-2.843v-.003c.053-1.061.113-1.99.29-2.706.178-.716.459-1.201.959-1.473l.068-.036c.056.92.511 1.858 1.316 2.062.881.23 2.15-.524 2.686-1.139.106-.003.213-.009.313-.012.47-.012.864.015 1.27.367.31.263.458.757.585 1.314.127.556.231 1.16.613 1.59.74.826.976 1.377.955 1.729Zm-17.897 2.607v.005c-.085 1.116-.716 1.725-1.68 1.944-.967.222-2.275 0-3.585-.683-1.447-.766-3.168-.69-4.275-.92-.553-.116-.914-.29-1.076-.613-.166-.322-.17-.884.183-1.843l.003-.003v-.002c.174-.536.044-1.125-.039-1.675-.085-.55-.124-1.053.063-1.402l.003-.003c.24-.464.594-.63 1.032-.787.438-.157.958-.28 1.37-.692l.002-.003.003-.003c.379-.4.666-.902.997-1.257.281-.302.562-.5.988-.503h.015c.074 0 .154.006.237.02.562.086 1.056.48 1.53 1.122l1.366 2.49c.364.76 1.133 1.595 1.784 2.447.641.849 1.144 1.704 1.08 2.36ZM35.353 9.67c-.11-.216-.334-.42-.716-.577-.793-.34-1.139-.364-1.58-.65-.721-.465-1.316-.628-1.81-.625-.26 0-.491.048-.698.119-.604.207-1.003.639-1.255.878-.05.048-.112.089-.266.201-.153.113-.387.284-.721.533-.296.222-.394.512-.29.852.103.34.429.73 1.03 1.07.372.22.623.512.916.746.145.118.299.222.482.299.184.077.4.133.669.148.633.035 1.097-.154 1.509-.388.41-.233.76-.523 1.162-.653.82-.258 1.405-.772 1.589-1.264a.823.823 0 0 0-.021-.689Zm7.913 15.143a4.076 4.076 0 0 0-.266 0h-.024c.225-.707-.272-1.23-1.594-1.828-1.37-.604-2.462-.544-2.648.68-.012.065-.02.13-.03.195-.103.036-.204.08-.307.137-.642.352-.994.99-1.19 1.774-.195.784-.25 1.73-.304 2.793-.033.535-.255 1.257-.476 2.026-2.246 1.6-5.36 2.296-8.005.491-.18-.284-.385-.565-.598-.84-.136-.177-.275-.352-.41-.526.271 0 .502-.045.688-.128a.89.89 0 0 0 .477-.49c.16-.436 0-1.045-.518-1.746-.518-.698-1.39-1.488-2.677-2.275-.944-.588-1.473-1.307-1.719-2.088-.248-.781-.213-1.627-.02-2.461.366-1.6 1.304-3.16 1.904-4.139.16-.118.057.222-.606 1.455-.595 1.128-1.71 3.73-.183 5.763.041-1.447.387-2.92.967-4.301.843-1.914 2.61-5.233 2.751-7.88.074.053.322.221.432.283.325.19.568.47.881.722.317.255.71.473 1.308.509.056.003.112.006.169.006.615 0 1.094-.201 1.493-.43.435-.248.781-.523 1.11-.63.695-.215 1.245-.6 1.559-1.046.538 2.127 1.792 5.194 2.6 6.694.429.796 1.28 2.485 1.65 4.517.234-.006.492.027.767.098.964-2.497-.817-5.186-1.63-5.934-.328-.32-.343-.462-.18-.456.88.781 2.04 2.352 2.463 4.124.193.807.234 1.656.027 2.496.1.042.204.086.308.136 1.535.752 2.106 1.409 1.83 2.299Zm-7.842-17.59c.003.42-.068.782-.228 1.146a2.16 2.16 0 0 1-.322.535 9.976 9.976 0 0 0-.56-.23c-.127-.048-.224-.08-.325-.116.074-.089.219-.192.272-.325.083-.199.122-.394.13-.625 0-.009.003-.017.003-.026a1.677 1.677 0 0 0-.088-.604 1.112 1.112 0 0 0-.278-.47.56.56 0 0 0-.4-.18h-.02a.588.588 0 0 0-.388.153c-.133.11-.23.252-.314.45a1.73 1.73 0 0 0-.13.624v.027c-.003.127.006.245.024.358a4.509 4.509 0 0 0-.908-.308 3.093 3.093 0 0 1-.027-.34v-.033c-.006-.42.065-.78.225-1.145.163-.366.36-.63.642-.843.28-.213.559-.31.887-.316h.015c.32 0 .595.095.876.299.287.207.49.467.66.83.162.356.242.702.248 1.11l.006.03Zm-4.846.418c-.041.012-.082.024-.124.038a2.49 2.49 0 0 0-.588.284 1.51 1.51 0 0 0 .005-.384v-.02a1.618 1.618 0 0 0-.12-.492.92.92 0 0 0-.25-.364.403.403 0 0 0-.274-.115h-.03a.395.395 0 0 0-.281.165.96.96 0 0 0-.18.4c-.042.168-.05.334-.033.526 0 .01.003.015.003.021.018.186.056.337.121.494a.908.908 0 0 0 .299.4c-.107.082-.175.138-.263.2l-.198.146a1.764 1.764 0 0 1-.412-.616 2.714 2.714 0 0 1-.227-.979v-.003a2.713 2.713 0 0 1 .115-1c.1-.322.234-.556.429-.748.192-.192.39-.29.624-.302h.053c.213 0 .402.071.6.228.214.171.376.39.512.698.136.308.207.615.228.98V7.2c.006.16.003.302-.009.44Z" opacity=".35"/>
  <path fill="url(#prefix__c)" fill-opacity=".5" d="M33.27 10.883c-.654.34-1.414.754-2.228.754-.81 0-1.452-.375-1.913-.74-.231-.183-.418-.363-.56-.496-.245-.192-.215-.465-.115-.456.169.021.195.243.299.343.145.133.322.308.541.483.435.346 1.018.68 1.746.68.727 0 1.573-.426 2.091-.716.293-.165.666-.458.97-.683.234-.172.225-.376.417-.355.193.02.05.228-.218.464-.267.231-.687.545-1.03.722Zm12.563 17.364c-.254-.287-.375-.816-.506-1.381-.13-.565-.275-1.174-.736-1.568l-.003-.003a1.928 1.928 0 0 0-.568-.343c.645-1.911.39-3.813-.257-5.532-.8-2.109-2.192-3.946-3.254-5.203-1.193-1.503-2.355-2.929-2.334-5.035C38.21 5.97 38.527.01 32.87 0c-.231 0-.47.009-.72.03-6.32.508-4.643 7.188-4.738 9.424-.116 1.636-.447 2.926-1.57 4.523-1.323 1.571-3.184 4.115-4.065 6.763-.418 1.248-.613 2.523-.432 3.727-.056.05-.113.106-.163.16-.387.414-.674.917-.994 1.254-.299.299-.725.411-1.192.58-.467.168-.98.414-1.293 1.011 0 0 0 .003-.003.003-.148.272-.195.568-.195.867 0 .278.041.556.083.828.086.562.174 1.095.056 1.453-.37 1.011-.417 1.71-.157 2.218.26.51.799.734 1.405.861 1.213.255 2.855.19 4.15.876l.113-.21-.11.21c1.385.724 2.79.982 3.911.724.814-.186 1.473-.668 1.81-1.413.876-.003 1.84-.376 3.382-.462 1.044-.086 2.352.373 3.854.287.039.163.095.32.175.467l.003.003c.583 1.166 1.665 1.698 2.816 1.607 1.154-.092 2.381-.772 3.375-1.953l-.183-.154.183.151c.947-1.148 2.515-1.62 3.559-2.25.52-.314.944-.708.976-1.279.033-.562-.302-1.2-1.074-2.059ZM31.868 7.257c-.006-.42.065-.782.225-1.145.162-.367.36-.63.642-.844.28-.213.559-.31.887-.316h.015c.32 0 .594.095.875.299.287.207.492.467.66.83.163.356.243.702.249 1.11a2.696 2.696 0 0 1-.225 1.174c-.092.21-.195.385-.323.536a9.909 9.909 0 0 0-.559-.23c-.127-.048-.225-.08-.325-.116.074-.089.219-.192.272-.325a1.73 1.73 0 0 0 .13-.625c0-.008.003-.017.003-.026a1.677 1.677 0 0 0-.089-.604 1.113 1.113 0 0 0-.278-.47.56.56 0 0 0-.399-.18h-.02c-.14 0-.264.05-.388.153-.133.11-.231.252-.314.45a1.728 1.728 0 0 0-.13.624v.027c-.003.127.006.245.024.358a4.51 4.51 0 0 0-.908-.308 3.117 3.117 0 0 1-.027-.34v-.033h.003Zm-3.73-.906c.1-.322.233-.556.429-.748.192-.193.39-.29.624-.302h.053c.213 0 .402.071.6.228.213.171.376.39.512.698.136.308.207.615.228.979v.003c.009.154.009.296-.003.435-.041.012-.083.024-.124.038a2.47 2.47 0 0 0-.589.284 1.51 1.51 0 0 0 .006-.384V7.56a1.618 1.618 0 0 0-.121-.491.92.92 0 0 0-.249-.364.403.403 0 0 0-.275-.115h-.03a.395.395 0 0 0-.28.165.961.961 0 0 0-.18.4 1.519 1.519 0 0 0-.033.526c0 .01.003.015.003.021.017.186.056.337.12.494a.91.91 0 0 0 .3.4c-.107.082-.175.138-.264.2-.056.042-.12.09-.198.145a1.764 1.764 0 0 1-.411-.615 2.714 2.714 0 0 1-.228-.979v-.003a2.583 2.583 0 0 1 .11-.994Zm.162 3.2c.335-.25.565-.42.722-.532.154-.112.216-.153.266-.2.252-.237.651-.672 1.255-.88a2.13 2.13 0 0 1 .698-.118c.494-.003 1.091.16 1.81.625.444.286.787.313 1.58.65.381.157.606.361.716.577.11.216.112.447.02.692-.183.491-.769 1.006-1.588 1.264-.4.13-.749.417-1.163.653-.41.237-.875.426-1.508.388a1.908 1.908 0 0 1-.669-.148 2.137 2.137 0 0 1-.482-.299c-.29-.234-.544-.53-.917-.745-.598-.338-.926-.731-1.03-1.071-.103-.343-.006-.633.29-.855Zm.237 23.34v.007c-.086 1.115-.716 1.724-1.68 1.943-.967.222-2.275 0-3.585-.683-1.447-.766-3.169-.69-4.275-.92-.553-.116-.914-.29-1.077-.613-.166-.322-.168-.884.184-1.843l.003-.003v-.002c.174-.536.044-1.125-.039-1.675-.086-.55-.124-1.053.062-1.402l.003-.003c.24-.464.595-.63 1.033-.787.437-.157.958-.28 1.37-.692l.002-.003.003-.003c.379-.4.666-.902.997-1.257.281-.302.562-.5.988-.503h.015c.074 0 .154.006.236.02.563.086 1.056.48 1.53 1.122l1.367 2.49c.363.76 1.133 1.595 1.783 2.447.642.849 1.145 1.704 1.08 2.36Zm-.115-1.81c-.18-.284-.385-.565-.598-.84-.136-.177-.275-.352-.411-.526a1.7 1.7 0 0 0 .69-.128.889.889 0 0 0 .475-.49c.16-.436 0-1.045-.517-1.746-.518-.698-1.39-1.488-2.677-2.275-.944-.588-1.474-1.307-1.72-2.088-.248-.781-.212-1.627-.02-2.461.367-1.6 1.305-3.16 1.905-4.139.16-.118.056.222-.606 1.455-.595 1.128-1.71 3.73-.184 5.763.042-1.447.388-2.92.968-4.301.843-1.914 2.609-5.233 2.75-7.88a7.4 7.4 0 0 0 .433.283c.325.19.568.47.881.722.317.255.71.473 1.308.509.056.003.112.006.168.006.616 0 1.095-.201 1.494-.43.435-.248.781-.523 1.11-.63.695-.215 1.245-.6 1.558-1.046.539 2.127 1.793 5.194 2.6 6.694.43.796 1.282 2.485 1.651 4.517.234-.006.491.027.767.098.964-2.497-.817-5.186-1.63-5.934-.329-.32-.344-.462-.18-.456.88.781 2.04 2.352 2.463 4.124.192.807.234 1.656.027 2.496.1.042.204.086.307.137 1.548.75 2.119 1.407 1.843 2.3a3.937 3.937 0 0 0-.266 0h-.024c.225-.706-.272-1.23-1.594-1.827-1.37-.604-2.461-.544-2.647.68-.012.065-.021.13-.03.195-.104.036-.204.08-.308.136-.642.353-.994.991-1.189 1.775-.195.784-.251 1.73-.305 2.793-.032.535-.254 1.257-.476 2.026-2.257 1.6-5.372 2.296-8.016.488Zm18.012-.796c-.02.352-.275.616-.746.9-.94.568-2.612 1.062-3.677 2.354-.926 1.1-2.056 1.707-3.05 1.784-.993.08-1.851-.334-2.357-1.349v-.006c-.314-.597-.184-1.538.08-2.532.263-.994.645-2.014.695-2.843v-.003c.053-1.061.112-1.99.29-2.706.177-.716.458-1.201.958-1.473.024-.012.048-.024.068-.036.056.92.512 1.858 1.317 2.062.881.23 2.15-.524 2.686-1.139.106-.003.213-.009.313-.012.47-.012.864.015 1.27.367.31.263.458.757.585 1.314.127.556.23 1.16.612 1.59.74.826.977 1.377.956 1.729ZM31.649 8.511c.027.085.166.07.248.112.071.035.128.115.208.118.076.003.195-.026.204-.1.012-.1-.133-.163-.225-.198-.122-.048-.275-.071-.388-.01-.026.015-.056.051-.047.078Zm-.825 0c-.027.085-.166.07-.249.112-.07.035-.127.115-.207.118-.077.003-.195-.026-.204-.1-.012-.1.133-.163.225-.198.121-.048.275-.071.387-.01.03.015.056.051.048.078Z"/>
  <path fill="url(#prefix__d)" d="M15.554 48V14.909h13.553v17.24c0 3.061-1.379 5.96-3.755 7.89L15.554 48Z" clip-rule="evenodd" opacity=".45"/>
  <path fill="url(#prefix__e)" d="M33.27 10.883c-.654.34-1.414.754-2.228.754-.81 0-1.452-.375-1.913-.74-.231-.183-.418-.363-.56-.496-.245-.192-.215-.465-.115-.456.169.021.195.243.299.343.145.133.322.308.541.483.435.346 1.018.68 1.746.68.727 0 1.573-.426 2.091-.716.293-.165.666-.458.97-.683.234-.172.225-.376.417-.355.193.02.05.228-.218.464-.267.231-.687.545-1.03.722Zm12.563 17.364c-.254-.287-.375-.816-.506-1.381-.13-.565-.275-1.174-.736-1.568l-.003-.003a1.928 1.928 0 0 0-.568-.343c.645-1.911.39-3.813-.257-5.532-.8-2.109-2.192-3.946-3.254-5.203-1.193-1.503-2.355-2.929-2.334-5.035C38.21 5.97 38.527.01 32.87 0c-.231 0-.47.009-.72.03-6.32.508-4.643 7.188-4.738 9.424-.116 1.636-.447 2.926-1.57 4.523-1.323 1.571-3.184 4.115-4.065 6.763-.418 1.248-.613 2.523-.432 3.727-.056.05-.113.106-.163.16-.387.414-.674.917-.994 1.254-.299.299-.725.411-1.192.58-.467.168-.98.414-1.293 1.011 0 0 0 .003-.003.003-.148.272-.195.568-.195.867 0 .278.041.556.083.828.086.562.174 1.095.056 1.453-.37 1.011-.417 1.71-.157 2.218.26.51.799.734 1.405.861 1.213.255 2.855.19 4.15.876l.113-.21-.11.21c1.385.724 2.79.982 3.911.724.814-.186 1.473-.668 1.81-1.413.876-.003 1.84-.376 3.382-.462 1.044-.086 2.352.373 3.854.287.039.163.095.32.175.467l.003.003c.583 1.166 1.665 1.698 2.816 1.607 1.154-.092 2.381-.772 3.375-1.953l-.183-.154.183.151c.947-1.148 2.515-1.62 3.559-2.25.52-.314.944-.708.976-1.279.033-.562-.302-1.2-1.074-2.059ZM31.868 7.257c-.006-.42.065-.782.225-1.145.162-.367.36-.63.642-.844.28-.213.559-.31.887-.316h.015c.32 0 .594.095.875.299.287.207.492.467.66.83.163.356.243.702.249 1.11a2.696 2.696 0 0 1-.225 1.174c-.092.21-.195.385-.323.536a9.909 9.909 0 0 0-.559-.23c-.127-.048-.225-.08-.325-.116.074-.089.219-.192.272-.325a1.73 1.73 0 0 0 .13-.625c0-.008.003-.017.003-.026a1.677 1.677 0 0 0-.089-.604 1.113 1.113 0 0 0-.278-.47.56.56 0 0 0-.399-.18h-.02c-.14 0-.264.05-.388.153-.133.11-.231.252-.314.45a1.728 1.728 0 0 0-.13.624v.027c-.003.127.006.245.024.358a4.51 4.51 0 0 0-.908-.308 3.117 3.117 0 0 1-.027-.34v-.033h.003Zm-3.73-.906c.1-.322.233-.556.429-.748.192-.193.39-.29.624-.302h.053c.213 0 .402.071.6.228.213.171.376.39.512.698.136.308.207.615.228.979v.003c.009.154.009.296-.003.435-.041.012-.083.024-.124.038a2.47 2.47 0 0 0-.589.284 1.51 1.51 0 0 0 .006-.384V7.56a1.618 1.618 0 0 0-.121-.491.92.92 0 0 0-.249-.364.403.403 0 0 0-.275-.115h-.03a.395.395 0 0 0-.28.165.961.961 0 0 0-.18.4 1.519 1.519 0 0 0-.033.526c0 .01.003.015.003.021.017.186.056.337.12.494a.91.91 0 0 0 .3.4c-.107.082-.175.138-.264.2-.056.042-.12.09-.198.145a1.764 1.764 0 0 1-.411-.615 2.714 2.714 0 0 1-.228-.979v-.003a2.583 2.583 0 0 1 .11-.994Zm.162 3.2c.335-.25.565-.42.722-.532.154-.112.216-.153.266-.2.252-.237.651-.672 1.255-.88a2.13 2.13 0 0 1 .698-.118c.494-.003 1.091.16 1.81.625.444.286.787.313 1.58.65.381.157.606.361.716.577.11.216.112.447.02.692-.183.491-.769 1.006-1.588 1.264-.4.13-.749.417-1.163.653-.41.237-.875.426-1.508.388a1.908 1.908 0 0 1-.669-.148 2.137 2.137 0 0 1-.482-.299c-.29-.234-.544-.53-.917-.745-.598-.338-.926-.731-1.03-1.071-.103-.343-.006-.633.29-.855Zm.237 23.34v.007c-.086 1.115-.716 1.724-1.68 1.943-.967.222-2.275 0-3.585-.683-1.447-.766-3.169-.69-4.275-.92-.553-.116-.914-.29-1.077-.613-.166-.322-.168-.884.184-1.843l.003-.003v-.002c.174-.536.044-1.125-.039-1.675-.086-.55-.124-1.053.062-1.402l.003-.003c.24-.464.595-.63 1.033-.787.437-.157.958-.28 1.37-.692l.002-.003.003-.003c.379-.4.666-.902.997-1.257.281-.302.562-.5.988-.503h.015c.074 0 .154.006.236.02.563.086 1.056.48 1.53 1.122l1.367 2.49c.363.76 1.133 1.595 1.783 2.447.642.849 1.145 1.704 1.08 2.36Zm-.115-1.81c-.18-.284-.385-.565-.598-.84-.136-.177-.275-.352-.411-.526a1.7 1.7 0 0 0 .69-.128.889.889 0 0 0 .475-.49c.16-.436 0-1.045-.517-1.746-.518-.698-1.39-1.488-2.677-2.275-.944-.588-1.474-1.307-1.72-2.088-.248-.781-.212-1.627-.02-2.461.367-1.6 1.305-3.16 1.905-4.139.16-.118.056.222-.606 1.455-.595 1.128-1.71 3.73-.184 5.763.042-1.447.388-2.92.968-4.301.843-1.914 2.609-5.233 2.75-7.88a7.4 7.4 0 0 0 .433.283c.325.19.568.47.881.722.317.255.71.473 1.308.509.056.003.112.006.168.006.616 0 1.095-.201 1.494-.43.435-.248.781-.523 1.11-.63.695-.215 1.245-.6 1.558-1.046.539 2.127 1.793 5.194 2.6 6.694.43.796 1.282 2.485 1.651 4.517.234-.006.491.027.767.098.964-2.497-.817-5.186-1.63-5.934-.329-.32-.344-.462-.18-.456.88.781 2.04 2.352 2.463 4.124.192.807.234 1.656.027 2.496.1.042.204.086.307.137 1.548.75 2.119 1.407 1.843 2.3a3.937 3.937 0 0 0-.266 0h-.024c.225-.706-.272-1.23-1.594-1.827-1.37-.604-2.461-.544-2.647.68-.012.065-.021.13-.03.195-.104.036-.204.08-.308.136-.642.353-.994.991-1.189 1.775-.195.784-.251 1.73-.305 2.793-.032.535-.254 1.257-.476 2.026-2.257 1.6-5.372 2.296-8.016.488Zm18.012-.796c-.02.352-.275.616-.746.9-.94.568-2.612 1.062-3.677 2.354-.926 1.1-2.056 1.707-3.05 1.784-.993.08-1.851-.334-2.357-1.349v-.006c-.314-.597-.184-1.538.08-2.532.263-.994.645-2.014.695-2.843v-.003c.053-1.061.112-1.99.29-2.706.177-.716.458-1.201.958-1.473.024-.012.048-.024.068-.036.056.92.512 1.858 1.317 2.062.881.23 2.15-.524 2.686-1.139.106-.003.213-.009.313-.012.47-.012.864.015 1.27.367.31.263.458.757.585 1.314.127.556.23 1.16.612 1.59.74.826.977 1.377.956 1.729ZM31.649 8.511c.027.085.166.07.248.112.071.035.128.115.208.118.076.003.195-.026.204-.1.012-.1-.133-.163-.225-.198-.122-.048-.275-.071-.388-.01-.026.015-.056.051-.047.078Zm-.825 0c-.027.085-.166.07-.249.112-.07.035-.127.115-.207.118-.077.003-.195-.026-.204-.1-.012-.1.133-.163.225-.198.121-.048.275-.071.387-.01.03.015.056.051.048.078Z" opacity=".3"/>
  <path fill="url(#prefix__f)" d="M28.959 33.882a10.16 10.16 0 0 0 .148-1.733v-.66a6.342 6.342 0 0 1-.685-.408c-.18-.284-.385-.565-.598-.84-.087-.114-.176-.226-.264-.338a48.37 48.37 0 0 1-.147-.188 1.7 1.7 0 0 0 .69-.128.889.889 0 0 0 .475-.49c.16-.436 0-1.045-.517-1.746-.518-.698-1.39-1.488-2.677-2.275-.944-.588-1.474-1.307-1.72-2.088-.248-.781-.212-1.627-.02-2.461.367-1.6 1.305-3.16 1.905-4.139.16-.118.056.222-.606 1.456-.595 1.127-1.71 3.73-.184 5.762.042-1.447.388-2.92.968-4.301.144-.327.314-.695.5-1.093.45-.97.985-2.12 1.42-3.303H25.09c-1.204 1.553-2.588 3.657-3.311 5.83-.418 1.249-.613 2.524-.432 3.728-.056.05-.113.106-.163.16a7.055 7.055 0 0 0-.54.68c-.154.211-.3.412-.454.574-.253.253-.597.372-.98.505l-.212.075c-.467.168-.98.414-1.293 1.011 0 0 0 .003-.003.003-.148.272-.195.568-.195.867 0 .278.041.556.083.828l.01.067c.082.538.16 1.042.046 1.386-.37 1.011-.417 1.71-.157 2.218.26.51.799.734 1.405.861.386.081.814.13 1.261.18.96.11 2.006.228 2.89.696l.112-.21-.11.21c1.385.725 2.79.982 3.911.725.814-.187 1.473-.669 1.81-1.414.064 0 .127-.003.192-.007Zm-.422-.984v-.006c.065-.657-.438-1.512-1.08-2.36-.18-.237-.37-.472-.557-.705-.489-.605-.964-1.193-1.226-1.742l-1.367-2.491c-.473-.642-.967-1.035-1.53-1.121a1.348 1.348 0 0 0-.236-.02h-.015c-.426.002-.707.2-.988.502-.158.17-.306.372-.458.581-.168.23-.34.467-.539.676l-.003.003-.003.003c-.346.347-.77.49-1.157.62l-.212.072c-.438.157-.793.323-1.033.787l-.003.003c-.186.35-.148.852-.062 1.402l.032.203c.078.49.16 1.002.007 1.472v.003l-.003.002c-.352.959-.35 1.521-.184 1.844.163.322.524.496 1.077.612.332.069.719.11 1.137.155.977.105 2.125.228 3.137.765 1.311.683 2.619.905 3.586.683.964-.219 1.594-.828 1.68-1.943Z" clip-rule="evenodd"/>
  <defs>
    <linearGradient id="prefix__a" x1="-13.991" x2="24.968" y1="58.561" y2="67.034" gradientUnits="userSpaceOnUse">
      <stop stop-color="#70B1FF"/>
      <stop offset="1" stop-color="#005CCD"/>
    </linearGradient>
    <linearGradient id="prefix__b" x1="49.656" x2="29.168" y1="20.253" y2="1.282" gradientUnits="userSpaceOnUse">
      <stop stop-color="#70B1FF"/>
      <stop offset="1" stop-color="#005CCD"/>
    </linearGradient>
    <linearGradient id="prefix__c" x1="28.018" x2="64.54" y1="42.973" y2="23.478" gradientUnits="userSpaceOnUse">
      <stop stop-color="#295296"/>
      <stop offset="1" stop-color="#3E78D3"/>
    </linearGradient>
    <linearGradient id="prefix__d" x1="7.558" x2="27.721" y1="58.561" y2="60.753" gradientUnits="userSpaceOnUse">
      <stop stop-color="#70B1FF"/>
      <stop offset="1" stop-color="#005CCD"/>
    </linearGradient>
    <linearGradient id="prefix__e" x1="-.129" x2="42.002" y1="46.302" y2="56.359" gradientUnits="userSpaceOnUse">
      <stop stop-color="#70B1FF"/>
      <stop offset="1" stop-color="#005CCD"/>
    </linearGradient>
    <linearGradient id="prefix__f" x1="21.584" x2="38.008" y1="39.505" y2="33.404" gradientUnits="userSpaceOnUse">
      <stop stop-color="#295296"/>
      <stop offset="1" stop-color="#3E78D3"/>
    </linearGradient>
  </defs>
</svg>
