<svg width="48" height="48" fill="none" viewBox="0 0 48 48" xmlns="http://www.w3.org/2000/svg">
  <path fill="url(#prefix__a)" d="M1.5 9h32c.828 0 1.5.613 1.5 1.37v18.26c0 .757-.672 1.37-1.5 1.37h-32C.672 30 0 29.387 0 28.63V10.37C0 9.613.672 9 1.5 9Z" clip-rule="evenodd" opacity=".35"/>
  <path fill="url(#prefix__b)" d="M35.858 26.094h8.095v18.718l-4.047-3.54-4.048 3.54V26.094Z" clip-rule="evenodd" opacity=".45"/>
  <path fill="url(#prefix__c)" d="M39.906 34.188a8.094 8.094 0 1 0 0-16.188 8.094 8.094 0 0 0 0 16.188Z" clip-rule="evenodd" opacity=".5"/>
  <path fill="url(#prefix__d)" d="M36.238 4.414a2 2 0 0 1 2.829 2.829l-15.91 15.91-4.243 1.414 1.414-4.243 15.91-15.91Z" clip-rule="evenodd" opacity=".5"/>
  <path fill="url(#prefix__e)" d="M35.086 11.31 23.243 23.151 19 24.567l1.414-4.243L31.738 9h1.848a1.5 1.5 0 0 1 1.5 1.5v.81Z" clip-rule="evenodd"/>
  <path fill="url(#prefix__f)" d="M14.125 30h6.75L22 36h-9l1.125-6Z" clip-rule="evenodd" opacity=".5"/>
  <path stroke="#3A70C6" stroke-linecap="round" d="M12.75 13.75c-4 0-7.5 2.25-9 4.25s-1.904 4.5 0 4.5c3.75 0 6-4.5 7.5-4.5s0 2.25-.75 4.5 2.25-.25 3.5-1.25-5.5 5.25 4.25 3.25"/>
  <path fill="url(#prefix__g)" d="M35 19.655v8.975c0 .757-.672 1.37-1.5 1.37h-.686a8.059 8.059 0 0 1-1.003-3.906c0-2.626 1.25-4.96 3.188-6.439Z" clip-rule="evenodd" opacity=".5"/>
  <path fill="url(#prefix__h)" d="M39.906 30.141a4.047 4.047 0 1 0 0-8.094 4.047 4.047 0 0 0 0 8.094Z" clip-rule="evenodd"/>
  <path fill="url(#prefix__i)" d="M0 27h35v1.5a1.5 1.5 0 0 1-1.5 1.5h-32A1.5 1.5 0 0 1 0 28.5V27Z" opacity=".35"/>
  <defs>
    <linearGradient id="prefix__a" x1="15.65" x2="4.758" y1="4.957" y2="26.78" gradientUnits="userSpaceOnUse">
      <stop stop-color="#70B1FF"/>
      <stop offset="1" stop-color="#005CCD"/>
    </linearGradient>
    <linearGradient id="prefix__b" x1="32.067" x2="45.122" y1="36.637" y2="41.925" gradientUnits="userSpaceOnUse">
      <stop stop-color="#70B1FF"/>
      <stop offset="1" stop-color="#005CCD"/>
    </linearGradient>
    <linearGradient id="prefix__c" x1="52.289" x2="38.918" y1="25.527" y2="11.314" gradientUnits="userSpaceOnUse">
      <stop stop-color="#70B1FF"/>
      <stop offset="1" stop-color="#005CCD"/>
    </linearGradient>
    <linearGradient id="prefix__d" x1="4.346" x2="11.392" y1="38.46" y2="43.851" gradientUnits="userSpaceOnUse">
      <stop stop-color="#70B1FF"/>
      <stop offset="1" stop-color="#005CCD"/>
    </linearGradient>
    <linearGradient id="prefix__e" x1="35.086" x2="35.086" y1="24.567" y2="9" gradientUnits="userSpaceOnUse">
      <stop stop-color="#295296"/>
      <stop offset="1" stop-color="#3E78D3"/>
    </linearGradient>
    <linearGradient id="prefix__f" x1="16.755" x2="10.24" y1="21.319" y2="34.651" gradientUnits="userSpaceOnUse">
      <stop stop-color="#70B1FF"/>
      <stop offset="1" stop-color="#005CCD"/>
    </linearGradient>
    <linearGradient id="prefix__g" x1="52.289" x2="38.917" y1="25.527" y2="11.314" gradientUnits="userSpaceOnUse">
      <stop stop-color="#70B1FF"/>
      <stop offset="1" stop-color="#005CCD"/>
    </linearGradient>
    <linearGradient id="prefix__h" x1="31.424" x2="39.518" y1="26.094" y2="34.963" gradientUnits="userSpaceOnUse">
      <stop stop-color="#295296"/>
      <stop offset="1" stop-color="#3E78D3"/>
    </linearGradient>
    <linearGradient id="prefix__i" x1="15.65" x2="15.374" y1="26.422" y2="30.297" gradientUnits="userSpaceOnUse">
      <stop stop-color="#70B1FF"/>
      <stop offset="1" stop-color="#005CCD"/>
    </linearGradient>
  </defs>
</svg>
