<svg width="96" height="96" fill="none" viewBox="0 0 96 96" xmlns="http://www.w3.org/2000/svg">
  <g clip-path="url(#prefix__a)">
    <path fill="url(#prefix__b)" d="M3 18h64c1.657 0 3 1.226 3 2.74v36.52c0 1.514-1.343 2.74-3 2.74H3c-1.657 0-3-1.226-3-2.74V20.74C0 19.225 1.343 18 3 18Z" clip-rule="evenodd" opacity=".35"/>
    <path fill="url(#prefix__c)" d="M71.717 52.189h16.189v37.436l-8.095-7.082-8.094 7.082V52.189Z" clip-rule="evenodd" opacity=".45"/>
    <path fill="url(#prefix__d)" d="M79.812 68.377C88.752 68.377 96 61.13 96 52.19 96 43.248 88.752 36 79.812 36c-8.941 0-16.189 7.248-16.189 16.189 0 8.94 7.248 16.188 16.189 16.188Z" clip-rule="evenodd" opacity=".5"/>
    <path fill="url(#prefix__e)" d="M72.476 8.828a4 4 0 1 1 5.657 5.657l-31.82 31.82-8.485 2.828 2.828-8.485 31.82-31.82Z" clip-rule="evenodd" opacity=".5"/>
    <path fill="url(#prefix__f)" d="M70.172 22.618 46.485 46.305 38 49.133l2.828-8.485L63.477 18h3.695a3 3 0 0 1 3 3v1.618Z" clip-rule="evenodd"/>
    <path fill="url(#prefix__g)" d="M28.25 60h13.5L44 72H26l2.25-12Z" clip-rule="evenodd" opacity=".5"/>
    <path stroke="#3A70C6" stroke-linecap="round" stroke-width="2" d="M25.5 27.5c-8 0-15 4.5-18 8.5s-3.808 9 0 9c7.5 0 12-9 15-9s0 4.5-1.5 9 4.5-.5 7-2.5S17 53 36.5 49"/>
    <path fill="url(#prefix__h)" d="M70 39.311v17.95C70 58.774 68.657 60 67 60h-1.371a16.115 16.115 0 0 1-2.006-7.811c0-5.252 2.501-9.92 6.377-12.878Z" clip-rule="evenodd" opacity=".5"/>
    <path fill="url(#prefix__i)" d="M79.811 60.283a8.094 8.094 0 1 0 0-16.189 8.094 8.094 0 0 0 0 16.189Z" clip-rule="evenodd"/>
    <path fill="url(#prefix__j)" d="M0 54h70v3a3 3 0 0 1-3 3H3a3 3 0 0 1-3-3v-3Z" opacity=".35"/>
  </g>
  <defs>
    <linearGradient id="prefix__b" x1="31.301" x2="9.517" y1="9.914" y2="53.561" gradientUnits="userSpaceOnUse">
      <stop stop-color="#70B1FF"/>
      <stop offset="1" stop-color="#005CCD"/>
    </linearGradient>
    <linearGradient id="prefix__c" x1="64.134" x2="90.245" y1="73.273" y2="83.851" gradientUnits="userSpaceOnUse">
      <stop stop-color="#70B1FF"/>
      <stop offset="1" stop-color="#005CCD"/>
    </linearGradient>
    <linearGradient id="prefix__d" x1="104.579" x2="77.836" y1="51.054" y2="22.628" gradientUnits="userSpaceOnUse">
      <stop stop-color="#70B1FF"/>
      <stop offset="1" stop-color="#005CCD"/>
    </linearGradient>
    <linearGradient id="prefix__e" x1="8.692" x2="22.785" y1="76.921" y2="87.702" gradientUnits="userSpaceOnUse">
      <stop stop-color="#70B1FF"/>
      <stop offset="1" stop-color="#005CCD"/>
    </linearGradient>
    <linearGradient id="prefix__f" x1="70.172" x2="70.172" y1="49.133" y2="18" gradientUnits="userSpaceOnUse">
      <stop stop-color="#295296"/>
      <stop offset="1" stop-color="#3E78D3"/>
    </linearGradient>
    <linearGradient id="prefix__g" x1="33.51" x2="20.48" y1="42.639" y2="69.302" gradientUnits="userSpaceOnUse">
      <stop stop-color="#70B1FF"/>
      <stop offset="1" stop-color="#005CCD"/>
    </linearGradient>
    <linearGradient id="prefix__h" x1="104.579" x2="77.836" y1="51.054" y2="22.628" gradientUnits="userSpaceOnUse">
      <stop stop-color="#70B1FF"/>
      <stop offset="1" stop-color="#005CCD"/>
    </linearGradient>
    <linearGradient id="prefix__i" x1="62.848" x2="79.037" y1="52.189" y2="69.927" gradientUnits="userSpaceOnUse">
      <stop stop-color="#295296"/>
      <stop offset="1" stop-color="#3E78D3"/>
    </linearGradient>
    <linearGradient id="prefix__j" x1="31.301" x2="30.749" y1="52.845" y2="60.594" gradientUnits="userSpaceOnUse">
      <stop stop-color="#70B1FF"/>
      <stop offset="1" stop-color="#005CCD"/>
    </linearGradient>
    <clipPath id="prefix__a">
      <path fill="#fff" d="M0 0h96v96H0z"/>
    </clipPath>
  </defs>
</svg>
