<svg width="96" height="96" fill="none" viewBox="0 0 96 96" xmlns="http://www.w3.org/2000/svg">
  <g clip-path="url(#prefix__a)">
    <path fill="url(#prefix__b)" d="M3 34h64c1.657 0 3 1.226 3 2.74v36.52c0 1.514-1.343 2.74-3 2.74H3c-1.657 0-3-1.226-3-2.74V36.74C0 35.225 1.343 34 3 34Z" clip-rule="evenodd" opacity=".35"/>
    <path fill="url(#prefix__c)" d="M38 14.712h58.169V52H38z" opacity=".276"/>
    <path fill="url(#prefix__d)" d="M28.25 76h13.5L44 88H26l2.25-12Z" clip-rule="evenodd" opacity=".5"/>
    <path fill="url(#prefix__e)" d="M0 70h70v3a3 3 0 0 1-3 3H3a3 3 0 0 1-3-3v-3Z" opacity=".35"/>
    <path fill="url(#prefix__f)" d="M70 52H38V34h29c1.657 0 3 1.226 3 2.74V52Z" clip-rule="evenodd" opacity=".8"/>
    <path fill="url(#prefix__g)" d="M65.593 18.44v18.645H41.73V18.44h23.864Z" clip-rule="evenodd" opacity=".316" style="mix-blend-mode:multiply"/>
    <path fill="url(#prefix__h)" d="M91.695 18.44v6.712H67.831v-6.711h23.864Z" clip-rule="evenodd" opacity=".316" style="mix-blend-mode:multiply"/>
    <path fill="url(#prefix__i)" d="M65.593 40.068v6.712H41.73v-6.712h23.864Z" clip-rule="evenodd" opacity=".316" style="mix-blend-mode:multiply"/>
    <path fill="url(#prefix__j)" d="M91.695 27.39v19.39H67.831V27.39h23.864Z" clip-rule="evenodd" opacity=".316" style="mix-blend-mode:multiply"/>
    <path fill="url(#prefix__k)" d="M93.186 8a2.983 2.983 0 0 1 2.98 2.834l.004.15v3.728H38v-3.729a2.983 2.983 0 0 1 2.834-2.98l.15-.003h52.202Zm-7.83 1.492a1.864 1.864 0 1 0 0 3.728 1.864 1.864 0 0 0 0-3.728Z" clip-rule="evenodd" opacity=".55"/>
    <path fill="url(#prefix__l)" d="M91.322 13.22a1.864 1.864 0 1 0 0-3.728 1.864 1.864 0 0 0 0 3.728Z" clip-rule="evenodd"/>
  </g>
  <defs>
    <linearGradient id="prefix__b" x1="31.301" x2="9.517" y1="25.914" y2="69.561" gradientUnits="userSpaceOnUse">
      <stop stop-color="#70B1FF"/>
      <stop offset="1" stop-color="#005CCD"/>
    </linearGradient>
    <linearGradient id="prefix__c" x1="96.169" x2="38" y1="33.356" y2="33.356" gradientUnits="userSpaceOnUse">
      <stop stop-color="#70B1FF"/>
      <stop offset="1" stop-color="#005CCD"/>
    </linearGradient>
    <linearGradient id="prefix__d" x1="33.51" x2="20.48" y1="58.639" y2="85.302" gradientUnits="userSpaceOnUse">
      <stop stop-color="#70B1FF"/>
      <stop offset="1" stop-color="#005CCD"/>
    </linearGradient>
    <linearGradient id="prefix__e" x1="31.301" x2="30.749" y1="68.845" y2="76.594" gradientUnits="userSpaceOnUse">
      <stop stop-color="#70B1FF"/>
      <stop offset="1" stop-color="#005CCD"/>
    </linearGradient>
    <linearGradient id="prefix__f" x1="152.72" x2="114.319" y1="49.425" y2="-19.576" gradientUnits="userSpaceOnUse">
      <stop stop-color="#295296"/>
      <stop offset="1" stop-color="#3E78D3"/>
    </linearGradient>
    <linearGradient id="prefix__g" x1="53.661" x2="71.751" y1="46.407" y2="23.252" gradientUnits="userSpaceOnUse">
      <stop stop-color="#70B1FF"/>
      <stop offset="1" stop-color="#005CCD"/>
    </linearGradient>
    <linearGradient id="prefix__h" x1="79.763" x2="83.261" y1="28.509" y2="16.069" gradientUnits="userSpaceOnUse">
      <stop stop-color="#70B1FF"/>
      <stop offset="1" stop-color="#005CCD"/>
    </linearGradient>
    <linearGradient id="prefix__i" x1="53.661" x2="57.16" y1="50.136" y2="37.696" gradientUnits="userSpaceOnUse">
      <stop stop-color="#70B1FF"/>
      <stop offset="1" stop-color="#005CCD"/>
    </linearGradient>
    <linearGradient id="prefix__j" x1="79.763" x2="98.742" y1="56.474" y2="33.115" gradientUnits="userSpaceOnUse">
      <stop stop-color="#70B1FF"/>
      <stop offset="1" stop-color="#005CCD"/>
    </linearGradient>
    <linearGradient id="prefix__k" x1="67.085" x2="65.556" y1="4.644" y2="17.891" gradientUnits="userSpaceOnUse">
      <stop stop-color="#70B1FF"/>
      <stop offset="1" stop-color="#005CCD"/>
    </linearGradient>
    <linearGradient id="prefix__l" x1="102.825" x2="93.465" y1="12.687" y2="3.226" gradientUnits="userSpaceOnUse">
      <stop stop-color="#295296"/>
      <stop offset="1" stop-color="#3E78D3"/>
    </linearGradient>
    <clipPath id="prefix__a">
      <path fill="#fff" d="M0 0h96v96H0z"/>
    </clipPath>
  </defs>
</svg>
