<svg width="48" height="48" fill="none" viewBox="0 0 48 48" xmlns="http://www.w3.org/2000/svg">
  <path fill="url(#prefix__a)" d="M2 14.5h25v17.358a8 8 0 0 1-3.548 6.646L14.5 44.5l-8.952-5.996A8 8 0 0 1 2 31.858V14.5Z" clip-rule="evenodd" opacity=".45"/>
  <path fill="url(#prefix__b)" d="M14.5 14.5H27v17.358a8 8 0 0 1-3.548 6.646L14.5 44.5v-30Z" clip-rule="evenodd"/>
  <path fill="url(#prefix__c)" d="M39.545 6.446 46 11.5l-6.455 5.055a13.867 13.867 0 0 1-17.09 0L16 11.5l6.455-5.054a13.867 13.867 0 0 1 17.09 0Z" clip-rule="evenodd" opacity=".42"/>
  <path fill="url(#prefix__d)" d="M31 17a5.5 5.5 0 1 0 0-11 5.5 5.5 0 0 0 0 11Z" clip-rule="evenodd"/>
  <path fill="url(#prefix__e)" d="M34.5 11.76A3.503 3.503 0 0 1 31.005 15a3.502 3.502 0 0 1-3.505-3.5 3.502 3.502 0 0 1 4.61-3.322 2.189 2.189 0 0 0 2.39 3.582Z" clip-rule="evenodd"/>
  <defs>
    <linearGradient id="prefix__a" x1="-12.748" x2="22.821" y1="53.3" y2="61.862" gradientUnits="userSpaceOnUse">
      <stop stop-color="#70B1FF"/>
      <stop offset="1" stop-color="#005CCD"/>
    </linearGradient>
    <linearGradient id="prefix__b" x1="9.436" x2="26.041" y1="24.985" y2="33.006" gradientUnits="userSpaceOnUse">
      <stop stop-color="#8AB8F6"/>
      <stop offset="1" stop-color="#6395DE"/>
    </linearGradient>
    <linearGradient id="prefix__c" x1="4.118" x2="15.341" y1="10.668" y2="34.152" gradientUnits="userSpaceOnUse">
      <stop stop-color="#70B1FF"/>
      <stop offset="1" stop-color="#005CCD"/>
    </linearGradient>
    <linearGradient id="prefix__d" x1="22.688" x2="28.844" y1="10.799" y2="20.078" gradientUnits="userSpaceOnUse">
      <stop stop-color="#7AAAF1"/>
      <stop offset="1" stop-color="#6395E2"/>
    </linearGradient>
    <linearGradient id="prefix__e" x1="31.045" x2="40.825" y1="21.32" y2="11.516" gradientUnits="userSpaceOnUse">
      <stop stop-color="#295296"/>
      <stop offset="1" stop-color="#3E78D3"/>
    </linearGradient>
  </defs>
</svg>
