<svg width="96" height="96" fill="none" viewBox="0 0 96 96" xmlns="http://www.w3.org/2000/svg">
  <path fill="url(#prefix__a)" d="M12.654 16.969h69.692V55.3H12.654z" opacity=".276"/>
  <path fill="url(#prefix__b)" d="M79.432 10a2.914 2.914 0 0 1 2.91 2.768l.004.146v4.055H12.654v-4.055a2.914 2.914 0 0 1 2.768-2.91l.146-.004h63.864Zm-7.747 1.457a1.821 1.821 0 1 0 0 3.642 1.821 1.821 0 0 0 0-3.642Z" clip-rule="evenodd" opacity=".55"/>
  <path fill="url(#prefix__c)" d="M77.513 15.099a1.821 1.821 0 1 0 0-3.642 1.821 1.821 0 0 0 0 3.642Z" clip-rule="evenodd"/>
  <path fill="url(#prefix__d)" d="M10.33 22.777h74.34c1.924 0 3.484 1.424 3.484 3.182V68.38c0 1.757-1.56 3.182-3.485 3.182H10.331c-1.925 0-3.485-1.425-3.485-3.182V25.959c0-1.758 1.56-3.182 3.485-3.182Z" clip-rule="evenodd" opacity=".25"/>
  <path fill="url(#prefix__e)" d="M39.66 71.561h15.68L57.955 85.5H37.046l2.614-13.939Z" clip-rule="evenodd" opacity=".5"/>
  <path fill="url(#prefix__f)" d="M6.846 64.592h81.308v3.485a3.485 3.485 0 0 1-3.485 3.484H10.331a3.485 3.485 0 0 1-3.485-3.484v-3.485Z" opacity=".35"/>
  <path fill="url(#prefix__g)" d="m56.792 27.423 9.293 13.27h-5.163v20.415h-8.26V40.693H47.5l9.292-13.27Z" clip-rule="evenodd"/>
  <path fill="url(#prefix__h)" d="m38.208 61.108-9.293-13.27h5.163V27.423h8.26v20.415H47.5l-9.292 13.27Z" clip-rule="evenodd"/>
  <defs>
    <linearGradient id="prefix__a" x1="82.346" x2="12.654" y1="36.135" y2="36.135" gradientUnits="userSpaceOnUse">
      <stop stop-color="#70B1FF"/>
      <stop offset="1" stop-color="#005CCD"/>
    </linearGradient>
    <linearGradient id="prefix__b" x1="47.5" x2="46.12" y1="6.515" y2="20.316" gradientUnits="userSpaceOnUse">
      <stop stop-color="#70B1FF"/>
      <stop offset="1" stop-color="#005CCD"/>
    </linearGradient>
    <linearGradient id="prefix__c" x1="88.749" x2="79.606" y1="14.578" y2="5.337" gradientUnits="userSpaceOnUse">
      <stop stop-color="#295296"/>
      <stop offset="1" stop-color="#3E78D3"/>
    </linearGradient>
    <linearGradient id="prefix__d" x1="43.204" x2="17.9" y1="13.385" y2="64.082" gradientUnits="userSpaceOnUse">
      <stop stop-color="#70B1FF"/>
      <stop offset="1" stop-color="#005CCD"/>
    </linearGradient>
    <linearGradient id="prefix__e" x1="45.77" x2="30.635" y1="51.396" y2="82.367" gradientUnits="userSpaceOnUse">
      <stop stop-color="#70B1FF"/>
      <stop offset="1" stop-color="#005CCD"/>
    </linearGradient>
    <linearGradient id="prefix__f" x1="43.204" x2="42.562" y1="63.251" y2="72.251" gradientUnits="userSpaceOnUse">
      <stop stop-color="#70B1FF"/>
      <stop offset="1" stop-color="#005CCD"/>
    </linearGradient>
    <linearGradient id="prefix__g" x1="47.5" x2="47.5" y1="27.423" y2="61.108" gradientUnits="userSpaceOnUse">
      <stop stop-color="#295296"/>
      <stop offset="1" stop-color="#3E78D3"/>
    </linearGradient>
    <linearGradient id="prefix__h" x1="47.5" x2="47.5" y1="61.108" y2="27.423" gradientUnits="userSpaceOnUse">
      <stop stop-color="#295296"/>
      <stop offset="1" stop-color="#3E78D3"/>
    </linearGradient>
  </defs>
</svg>
