<svg width="96" height="96" fill="none" viewBox="0 0 96 96" xmlns="http://www.w3.org/2000/svg">
  <path fill="url(#prefix__a)" d="M20.986 52.527c9.457 0 17.123 7.666 17.123 17.123v6.85H3.864v-6.85c0-9.457 7.666-17.123 17.122-17.123Zm0-3.424c-5.674 0-10.273-4.6-10.273-10.274 0-5.674 4.6-10.273 10.273-10.273 5.674 0 10.274 4.6 10.274 10.273 0 5.674-4.6 10.274-10.274 10.274Z" clip-rule="evenodd" opacity=".55" style="mix-blend-mode:multiply"/>
  <path fill="url(#prefix__b)" d="M75.431 52.527c9.457 0 17.123 7.666 17.123 17.123v6.849H58.309v-6.85c0-9.456 7.666-17.122 17.122-17.122Zm0-3.424c-5.674 0-10.273-4.6-10.273-10.274 0-5.674 4.6-10.274 10.273-10.274 5.674 0 10.274 4.6 10.274 10.274 0 5.674-4.6 10.274-10.274 10.274Z" clip-rule="evenodd" opacity=".55" style="mix-blend-mode:multiply"/>
  <path fill="url(#prefix__c)" d="M48.21 48c13.806 0 25 11.193 25 25v10H23.208V73c0-13.807 11.193-25 25-25Zm-.001-5c-8.284 0-15-6.716-15-15 0-8.284 6.716-15 15-15 8.284 0 15 6.716 15 15 0 8.284-6.716 15-15 15Z" clip-rule="evenodd" opacity=".55" style="mix-blend-mode:multiply"/>
  <defs>
    <linearGradient id="prefix__a" x1="18.473" x2="-19.467" y1="16.646" y2="43.341" gradientUnits="userSpaceOnUse">
      <stop stop-color="#70B1FF"/>
      <stop offset="1" stop-color="#005CCD"/>
    </linearGradient>
    <linearGradient id="prefix__b" x1="72.918" x2="34.978" y1="16.646" y2="43.341" gradientUnits="userSpaceOnUse">
      <stop stop-color="#70B1FF"/>
      <stop offset="1" stop-color="#005CCD"/>
    </linearGradient>
    <linearGradient id="prefix__c" x1="44.539" x2="-10.855" y1="-4.389" y2="34.587" gradientUnits="userSpaceOnUse">
      <stop stop-color="#70B1FF"/>
      <stop offset="1" stop-color="#005CCD"/>
    </linearGradient>
  </defs>
</svg>
