<svg width="96" height="96" fill="none" viewBox="0 0 96 96" xmlns="http://www.w3.org/2000/svg">
  <path fill="url(#prefix__a)" d="M18.624 18.356a8 8 0 0 1 8-8h56.377a8 8 0 0 1 8 8v35.09a8 8 0 0 1-8 8H26.624a8 8 0 0 1-8-8v-35.09Z" opacity=".5"/>
  <path fill="url(#prefix__b)" d="m5.293 59.546 11.218-8.123a4.57 4.57 0 0 1 3.217-.837L57.1 55a4.515 4.515 0 0 1-.53 9H35.655l11.139 8.302a8.492 8.492 0 0 0 8.472.975l12.407-5.414a17.954 17.954 0 0 1 16.956 1.395c.18.116.16.385-.034.475L51.31 85.196a7.159 7.159 0 0 1-4.222.56C40.34 84.615 19.453 81.41 5 82.732l.293-23.187Z" clip-rule="evenodd" opacity=".55"/>
  <path fill="url(#prefix__c)" d="M90.923 17.23a8.002 8.002 0 0 0-7.921-6.874H26.625a8.001 8.001 0 0 0-7.955 7.143l30.776 18.693c2.832 1.72 7.424 1.72 10.256 0l31.22-18.963Z" clip-rule="evenodd" opacity=".5"/>
  <defs>
    <linearGradient id="prefix__a" x1="61.43" x2="17.011" y1="-12.209" y2="46.003" gradientUnits="userSpaceOnUse">
      <stop stop-color="#70B1FF"/>
      <stop offset="1" stop-color="#005CCD"/>
    </linearGradient>
    <linearGradient id="prefix__b" x1="115.741" x2="83.535" y1="68.258" y2="12.962" gradientUnits="userSpaceOnUse">
      <stop stop-color="#70B1FF"/>
      <stop offset="1" stop-color="#005CCD"/>
    </linearGradient>
    <linearGradient id="prefix__c" x1="68.964" x2="-47.248" y1="-133.652" y2="-10.231" gradientUnits="userSpaceOnUse">
      <stop stop-color="#70B1FF"/>
      <stop offset="1" stop-color="#005CCD"/>
    </linearGradient>
  </defs>
</svg>
