<svg width="96" height="96" fill="none" viewBox="0 0 96 96" xmlns="http://www.w3.org/2000/svg">
  <path fill="url(#prefix__a)" d="M63 27H0v18h63V27Zm-51.395 9c0 1.355-1.114 2.455-2.487 2.455-1.374 0-2.487-1.1-2.487-2.455 0-1.356 1.113-2.455 2.487-2.455 1.373 0 2.486 1.1 2.486 2.455Z" clip-rule="evenodd" opacity=".45"/>
  <path fill="url(#prefix__b)" d="M0 51h63v18H0z" opacity=".45"/>
  <path fill="url(#prefix__c)" d="M0 4h63v18H0z" opacity=".45"/>
  <path fill="#609DE8" d="M63 45v6H0v-6h63Zm0-23v5H0v-5h63Z" clip-rule="evenodd"/>
  <path fill="url(#prefix__d)" d="M9.024 62.194a2.461 2.461 0 1 0 0-4.922 2.461 2.461 0 0 0 0 4.922Z" clip-rule="evenodd"/>
  <path fill="url(#prefix__e)" d="M9.024 15.485a2.461 2.461 0 1 0 0-4.922 2.461 2.461 0 0 0 0 4.922Z" clip-rule="evenodd"/>
  <path fill="url(#prefix__f)" d="M18.867 38.485a2.461 2.461 0 1 0 0-4.922 2.461 2.461 0 0 0 0 4.922Z" clip-rule="evenodd"/>
  <path fill="url(#prefix__g)" d="M18.867 62.194a2.461 2.461 0 1 0 0-4.922 2.461 2.461 0 0 0 0 4.922Z" clip-rule="evenodd"/>
  <path fill="url(#prefix__h)" d="M18.867 15.485a2.461 2.461 0 1 0 0-4.922 2.461 2.461 0 0 0 0 4.922Z" clip-rule="evenodd"/>
  <path fill="url(#prefix__i)" d="M58.513 34.82c10.054-5.805 22.909-2.36 28.713 7.694 5.207 9.02 2.97 20.295-4.804 26.71l13.281 23.008-6.067 3.504-13.282-23.008c-9.444 3.527-20.327-.173-25.534-9.194-5.805-10.054-2.36-22.91 7.693-28.714Zm3.503 6.068c-6.702 3.87-8.998 12.44-5.129 19.143 3.87 6.703 12.44 9 19.142 5.13s8.999-12.441 5.13-19.144c-3.87-6.702-12.44-8.999-19.143-5.13Z" clip-rule="evenodd" opacity=".5"/>
  <path fill="url(#prefix__j)" d="M76.03 65.16c6.702-3.87 8.998-12.44 5.129-19.143-3.87-6.702-12.44-8.999-19.142-5.13-6.703 3.87-8.999 12.441-5.13 19.144 3.87 6.703 12.44 9 19.142 5.13Z" clip-rule="evenodd" opacity=".25"/>
  <path fill="url(#prefix__k)" d="m80.001 79.048 6.068-3.503 9.634 16.687-6.068 3.504L80 79.048Z" clip-rule="evenodd"/>
  <path fill="url(#prefix__l)" d="M63 33c-1.534.459-3.04 1.1-4.487 1.933-10.053 5.786-13.498 18.599-7.693 28.62A20.933 20.933 0 0 0 55.353 69H63v-3.31a13.931 13.931 0 0 1-6.112-5.63c-3.87-6.68-1.574-15.222 5.129-19.079.323-.186.651-.358.983-.516V33Z" clip-rule="evenodd" opacity=".5"/>
  <defs>
    <linearGradient id="prefix__a" x1="31.5" x2="21.991" y1="18" y2="51.283" gradientUnits="userSpaceOnUse">
      <stop stop-color="#70B1FF"/>
      <stop offset="1" stop-color="#005CCD"/>
    </linearGradient>
    <linearGradient id="prefix__b" x1="-31.5" x2="-21.991" y1="60" y2="93.283" gradientUnits="userSpaceOnUse">
      <stop stop-color="#70B1FF"/>
      <stop offset="1" stop-color="#005CCD"/>
    </linearGradient>
    <linearGradient id="prefix__c" x1="-31.5" x2="-21.991" y1="13" y2="46.283" gradientUnits="userSpaceOnUse">
      <stop stop-color="#70B1FF"/>
      <stop offset="1" stop-color="#005CCD"/>
    </linearGradient>
    <linearGradient id="prefix__d" x1="9.226" x2=".209" y1="51.161" y2="59.186" gradientUnits="userSpaceOnUse">
      <stop stop-color="#6FA2EC"/>
      <stop offset="1" stop-color="#5C90DF"/>
    </linearGradient>
    <linearGradient id="prefix__e" x1="9.226" x2=".209" y1="4.452" y2="12.476" gradientUnits="userSpaceOnUse">
      <stop stop-color="#6FA2EC"/>
      <stop offset="1" stop-color="#5C90DF"/>
    </linearGradient>
    <linearGradient id="prefix__f" x1="19.07" x2="10.052" y1="27.451" y2="35.476" gradientUnits="userSpaceOnUse">
      <stop stop-color="#6FA2EC"/>
      <stop offset="1" stop-color="#5C90DF"/>
    </linearGradient>
    <linearGradient id="prefix__g" x1="18.899" x2="25.776" y1="66.638" y2="59.745" gradientUnits="userSpaceOnUse">
      <stop stop-color="#295296"/>
      <stop offset="1" stop-color="#3E78D3"/>
    </linearGradient>
    <linearGradient id="prefix__h" x1="18.899" x2="25.776" y1="19.928" y2="13.035" gradientUnits="userSpaceOnUse">
      <stop stop-color="#295296"/>
      <stop offset="1" stop-color="#3E78D3"/>
    </linearGradient>
    <linearGradient id="prefix__i" x1="91.536" x2="60.264" y1="65.074" y2="32.856" gradientUnits="userSpaceOnUse">
      <stop stop-color="#70B1FF"/>
      <stop offset="1" stop-color="#005CCD"/>
    </linearGradient>
    <linearGradient id="prefix__j" x1="48.753" x2="67.973" y1="53.805" y2="73.296" gradientUnits="userSpaceOnUse">
      <stop stop-color="#7FB8FF"/>
      <stop offset="1" stop-color="#005CCD"/>
    </linearGradient>
    <linearGradient id="prefix__k" x1="117.253" x2="84.413" y1="89.675" y2="58.985" gradientUnits="userSpaceOnUse">
      <stop stop-color="#295296"/>
      <stop offset="1" stop-color="#3E78D3"/>
    </linearGradient>
    <linearGradient id="prefix__l" x1="91.537" x2="60.372" y1="65.087" y2="32.873" gradientUnits="userSpaceOnUse">
      <stop stop-color="#70B1FF"/>
      <stop offset="1" stop-color="#005CCD"/>
    </linearGradient>
  </defs>
</svg>
