<svg width="48" height="48" fill="none" viewBox="0 0 48 48" xmlns="http://www.w3.org/2000/svg">
  <path fill="url(#prefix__a)" d="M31.5 13.5H0v9h31.5v-9ZM5.802 18c0 .678-.556 1.227-1.243 1.227S3.315 18.677 3.315 18c0-.678.557-1.227 1.244-1.227.687 0 1.243.55 1.243 1.227Z" clip-rule="evenodd" opacity=".45"/>
  <path fill="url(#prefix__b)" d="M0 25.5h31.5v9H0z" opacity=".45"/>
  <path fill="url(#prefix__c)" d="M0 2h31.5v9H0z" opacity=".45"/>
  <path fill="#609DE8" d="M31.5 22.5v3H0v-3h31.5Zm0-11.5v2.5H0V11h31.5Z" clip-rule="evenodd"/>
  <path fill="url(#prefix__d)" d="M4.512 31.097a1.23 1.23 0 1 0 0-2.461 1.23 1.23 0 0 0 0 2.461Z" clip-rule="evenodd"/>
  <path fill="url(#prefix__e)" d="M4.512 7.742a1.23 1.23 0 1 0 0-2.46 1.23 1.23 0 0 0 0 2.46Z" clip-rule="evenodd"/>
  <path fill="url(#prefix__f)" d="M9.434 19.242a1.23 1.23 0 1 0 0-2.46 1.23 1.23 0 0 0 0 2.46Z" clip-rule="evenodd"/>
  <path fill="url(#prefix__g)" d="M9.434 31.097a1.23 1.23 0 1 0 0-2.461 1.23 1.23 0 0 0 0 2.461Z" clip-rule="evenodd"/>
  <path fill="url(#prefix__h)" d="M9.434 7.742a1.23 1.23 0 1 0 0-2.46 1.23 1.23 0 0 0 0 2.46Z" clip-rule="evenodd"/>
  <path fill="url(#prefix__i)" d="M29.257 17.41c5.026-2.902 11.454-1.18 14.356 3.847 2.604 4.51 1.485 10.147-2.402 13.355l6.64 11.504-3.033 1.752-6.641-11.504c-4.722 1.764-10.163-.087-12.767-4.597-2.902-5.027-1.18-11.455 3.847-14.357Zm1.751 3.034a7.007 7.007 0 1 0 7.008 12.136 7.007 7.007 0 0 0-7.008-12.136Z" clip-rule="evenodd" opacity=".5"/>
  <path fill="url(#prefix__j)" d="M38.015 32.58a7.007 7.007 0 1 0-7.008-12.136 7.007 7.007 0 0 0 7.008 12.136Z" clip-rule="evenodd" opacity=".25"/>
  <path fill="url(#prefix__k)" d="m40 39.524 3.034-1.752 4.817 8.344-3.034 1.752L40 39.524Z" clip-rule="evenodd"/>
  <path fill="url(#prefix__l)" d="M31.5 16.5c-.767.23-1.52.55-2.243.967-5.027 2.892-6.75 9.299-3.847 14.31a10.466 10.466 0 0 0 2.267 2.723H31.5v-1.655a6.965 6.965 0 0 1-3.056-2.815 6.971 6.971 0 0 1 3.056-9.797V16.5Z" clip-rule="evenodd" opacity=".5"/>
  <defs>
    <linearGradient id="prefix__a" x1="15.75" x2="10.995" y1="9" y2="25.642" gradientUnits="userSpaceOnUse">
      <stop stop-color="#70B1FF"/>
      <stop offset="1" stop-color="#005CCD"/>
    </linearGradient>
    <linearGradient id="prefix__b" x1="-15.75" x2="-10.995" y1="30" y2="46.642" gradientUnits="userSpaceOnUse">
      <stop stop-color="#70B1FF"/>
      <stop offset="1" stop-color="#005CCD"/>
    </linearGradient>
    <linearGradient id="prefix__c" x1="-15.75" x2="-10.995" y1="6.5" y2="23.142" gradientUnits="userSpaceOnUse">
      <stop stop-color="#70B1FF"/>
      <stop offset="1" stop-color="#005CCD"/>
    </linearGradient>
    <linearGradient id="prefix__d" x1="4.613" x2=".104" y1="25.58" y2="29.593" gradientUnits="userSpaceOnUse">
      <stop stop-color="#6FA2EC"/>
      <stop offset="1" stop-color="#5C90DF"/>
    </linearGradient>
    <linearGradient id="prefix__e" x1="4.613" x2=".104" y1="2.226" y2="6.238" gradientUnits="userSpaceOnUse">
      <stop stop-color="#6FA2EC"/>
      <stop offset="1" stop-color="#5C90DF"/>
    </linearGradient>
    <linearGradient id="prefix__f" x1="9.535" x2="5.026" y1="13.726" y2="17.738" gradientUnits="userSpaceOnUse">
      <stop stop-color="#6FA2EC"/>
      <stop offset="1" stop-color="#5C90DF"/>
    </linearGradient>
    <linearGradient id="prefix__g" x1="9.45" x2="12.888" y1="33.319" y2="29.872" gradientUnits="userSpaceOnUse">
      <stop stop-color="#295296"/>
      <stop offset="1" stop-color="#3E78D3"/>
    </linearGradient>
    <linearGradient id="prefix__h" x1="9.45" x2="12.888" y1="9.964" y2="6.518" gradientUnits="userSpaceOnUse">
      <stop stop-color="#295296"/>
      <stop offset="1" stop-color="#3E78D3"/>
    </linearGradient>
    <linearGradient id="prefix__i" x1="45.768" x2="30.132" y1="32.537" y2="16.428" gradientUnits="userSpaceOnUse">
      <stop stop-color="#70B1FF"/>
      <stop offset="1" stop-color="#005CCD"/>
    </linearGradient>
    <linearGradient id="prefix__j" x1="24.376" x2="33.986" y1="26.902" y2="36.648" gradientUnits="userSpaceOnUse">
      <stop stop-color="#7FB8FF"/>
      <stop offset="1" stop-color="#005CCD"/>
    </linearGradient>
    <linearGradient id="prefix__k" x1="58.626" x2="42.206" y1="44.837" y2="29.492" gradientUnits="userSpaceOnUse">
      <stop stop-color="#295296"/>
      <stop offset="1" stop-color="#3E78D3"/>
    </linearGradient>
    <linearGradient id="prefix__l" x1="45.768" x2="30.186" y1="32.544" y2="16.436" gradientUnits="userSpaceOnUse">
      <stop stop-color="#70B1FF"/>
      <stop offset="1" stop-color="#005CCD"/>
    </linearGradient>
  </defs>
</svg>
