<svg width="96" height="96" fill="none" viewBox="0 0 96 96" xmlns="http://www.w3.org/2000/svg">
  <path fill="url(#prefix__a)" d="M8 32h53v37.03a17.096 17.096 0 0 1-7.522 14.18L34.5 96 15.522 83.21A17.096 17.096 0 0 1 8 69.03V32Z" clip-rule="evenodd" opacity=".45"/>
  <path fill="url(#prefix__b)" d="M35 32h26v37.03c0 5.693-2.768 11.011-7.38 14.18L35 96V32Z" clip-rule="evenodd"/>
  <path fill="url(#prefix__c)" d="M68.5 47C80.374 47 90 37.374 90 25.5S80.374 4 68.5 4 47 13.626 47 25.5 56.626 47 68.5 47Z" clip-rule="evenodd" opacity=".45"/>
  <path fill="url(#prefix__d)" d="M61 45.656V32H48a21.557 21.557 0 0 0 13 13.656Z" clip-rule="evenodd"/>
  <path fill="url(#prefix__e)" d="M71.875 22.125V12h-6.75v10.125H55v6.75h10.125V39h6.75V28.875H82v-6.75H71.875Z" clip-rule="evenodd"/>
  <defs>
    <linearGradient id="prefix__a" x1="-23.266" x2="52.191" y1="114.774" y2="132.824" gradientUnits="userSpaceOnUse">
      <stop stop-color="#70B1FF"/>
      <stop offset="1" stop-color="#005CCD"/>
    </linearGradient>
    <linearGradient id="prefix__b" x1="24.466" x2="59.331" y1="54.369" y2="70.788" gradientUnits="userSpaceOnUse">
      <stop stop-color="#8AB8F6"/>
      <stop offset="1" stop-color="#6395DE"/>
    </linearGradient>
    <linearGradient id="prefix__c" x1="63.511" x2="102.44" y1="66.464" y2="41.584" gradientUnits="userSpaceOnUse">
      <stop stop-color="#70B1FF"/>
      <stop offset="1" stop-color="#005CCD"/>
    </linearGradient>
    <linearGradient id="prefix__d" x1="78.843" x2="56.781" y1="41.557" y2="16.317" gradientUnits="userSpaceOnUse">
      <stop stop-color="#295296"/>
      <stop offset="1" stop-color="#3E78D3"/>
    </linearGradient>
    <linearGradient id="prefix__e" x1="119.058" x2="75.775" y1="30.895" y2="-21.119" gradientUnits="userSpaceOnUse">
      <stop stop-color="#295296"/>
      <stop offset="1" stop-color="#3E78D3"/>
    </linearGradient>
  </defs>
</svg>
