<svg width="48" height="48" fill="none" viewBox="0 0 48 48" xmlns="http://www.w3.org/2000/svg">
  <path fill="url(#prefix__a)" d="m32.92 3 9.29 9.29h-9.29V3Z" clip-rule="evenodd"/>
  <path fill="url(#prefix__b)" d="M15.5 3h17.42l9.29 9.29V39H15.5V3Z" clip-rule="evenodd" opacity=".4"/>
  <path fill="url(#prefix__c)" d="M9 25.25V29H6v15.5h18.5V29h-3v-3.75a6.25 6.25 0 1 0-12.5 0Zm9.5 0V29H12v-3.75a3.25 3.25 0 0 1 6.5 0Z" clip-rule="evenodd" opacity=".45"/>
  <path fill="url(#prefix__d)" d="M24.5 39V29h-3v-3.75a6.25 6.25 0 0 0-6-6.245v3.004a3.25 3.25 0 0 1 3 3.241V29h-3v10h9Z" clip-rule="evenodd"/>
  <defs>
    <linearGradient id="prefix__a" x1="54.962" x2="40.068" y1="9.502" y2="-8.396" gradientUnits="userSpaceOnUse">
      <stop stop-color="#295296"/>
      <stop offset="1" stop-color="#3E78D3"/>
    </linearGradient>
    <linearGradient id="prefix__b" x1="31.384" x2="63.498" y1="55.296" y2="28.977" gradientUnits="userSpaceOnUse">
      <stop stop-color="#70B1FF"/>
      <stop offset="1" stop-color="#005CCD"/>
    </linearGradient>
    <linearGradient id="prefix__c" x1="15.25" x2="-8.991" y1="6.25" y2="23.837" gradientUnits="userSpaceOnUse">
      <stop stop-color="#70B1FF"/>
      <stop offset="1" stop-color="#005CCD"/>
    </linearGradient>
    <linearGradient id="prefix__d" x1="20.058" x2="41.003" y1="57.051" y2="47.602" gradientUnits="userSpaceOnUse">
      <stop stop-color="#295296"/>
      <stop offset="1" stop-color="#3E78D3"/>
    </linearGradient>
  </defs>
</svg>
