<svg width="96" height="96" fill="none" viewBox="0 0 96 96" xmlns="http://www.w3.org/2000/svg">
  <path fill="url(#prefix__a)" d="M90.9 11.944C91.633 11.09 92 9.99 92 8.89 92 6.2 89.8 4 87.111 4H8.89C6.933 4 5.1 5.222 4.367 7.056A4.904 4.904 0 0 0 4 8.889c0 1.1.367 2.2 1.1 3.055l3.056 3.79L25.633 37l11 13.444c.978.978 1.59 2.2 1.467 3.667v33C38.1 89.8 40.3 92 42.989 92c.978 0 1.955-.367 2.811-.856l.244-.244 9.412-7.089.244-.244c1.222-.978 1.956-2.323 1.956-3.911V54.11c0-1.344.488-2.567 1.466-3.544L70.367 37 90.9 11.944Z" opacity=".45"/>
  <path fill="url(#prefix__b)" d="M69.41 29.882a31.492 31.492 0 0 1 2.901 5.162 31.794 31.794 0 0 1 1.884 6.943 32.288 32.288 0 0 1 0 7.1 31.792 31.792 0 0 1-1.873 6.92 31.922 31.922 0 0 1-3.57 6.105 32.27 32.27 0 0 1-4.789 4.788 31.643 31.643 0 0 1-6.077 3.56 31.79 31.79 0 0 1-6.943 1.883 32.288 32.288 0 0 1-7.1 0 31.787 31.787 0 0 1-6.92-1.873 31.9 31.9 0 0 1-5.189-2.913l.996-.996 4.788-4.788 5.86-5.86 6.399-6.399 6.459-6.459 6.047-6.047 5.088-5.088 2.038-2.038ZM25.377 61.204l2.047-2.046 5.088-5.088 6.047-6.047 6.459-6.459 6.399-6.4 5.86-5.859 4.788-4.788.99-.99a31.91 31.91 0 0 0-5.196-2.919 31.795 31.795 0 0 0-6.921-1.873 32.288 32.288 0 0 0-7.1 0c-2.38.363-4.706.996-6.943 1.884a31.638 31.638 0 0 0-6.077 3.559 32.276 32.276 0 0 0-4.788 4.788 31.927 31.927 0 0 0-3.57 6.105 31.792 31.792 0 0 0-1.874 6.92 32.288 32.288 0 0 0 0 7.1c.363 2.38.996 4.707 1.884 6.943a31.502 31.502 0 0 0 2.907 5.17Zm-4.711-11.457a32.627 32.627 0 0 1-.013-.098l.013.098Zm2.045-15.294-.074.179.074-.179Zm20.472-15.638Zm15.114 1.97.179.075-.179-.074Zm14.878-.35c1.273 1.316 2.42 2.741 3.502 4.217 2.143 2.922 3.754 6.227 4.908 9.659 1.132 3.364 1.709 6.976 1.791 10.52a31.147 31.147 0 0 1-.247 4.728c-.255 1.979-.57 3.927-1.117 5.845-.981 3.454-2.495 6.826-4.48 9.816-2.061 3.102-4.549 5.95-7.479 8.258-1.566 1.236-3.162 2.405-4.9 3.386-1.739.982-3.582 1.791-5.448 2.496-3.342 1.258-6.909 1.918-10.468 2.128-3.522.202-7.126-.173-10.55-1.012a32.168 32.168 0 0 1-4.586-1.506c-1.828-.757-3.604-1.566-5.298-2.593-3.162-1.918-6.1-4.346-8.512-7.156-1.326-1.543-2.563-3.177-3.627-4.908-1.034-1.686-1.858-3.462-2.622-5.282-1.394-3.327-2.143-6.82-2.496-10.4-.344-3.545-.06-7.142.652-10.626.72-3.5 2.038-6.924 3.777-10.041a35.531 35.531 0 0 1 6.841-8.715c2.675-2.487 5.74-4.638 9.06-6.174 1.768-.817 3.589-1.551 5.462-2.098 1.918-.562 3.866-.884 5.845-1.147 3.559-.464 7.096-.277 10.633.315 3.529.585 6.946 1.814 10.13 3.432 3.238 1.649 6.24 3.879 8.825 6.443l.076.069c.116.105.225.221.328.347ZM36.484 70.293l-.179-.075.179.075Zm15.114 1.97c-.032.005-.065.01-.097.013l.098-.012ZM72.07 56.626l.075-.179-.075.18Zm2.046-15.293.012.097-.013-.097Z" clip-rule="evenodd" opacity=".45"/>
  <path fill="url(#prefix__c)" d="M78.376 27.227a31.45 31.45 0 0 0-1.698-2.575c-1.083-1.476-2.229-2.9-3.502-4.216a3.243 3.243 0 0 0-.404-.416c-2.584-2.564-5.587-4.794-8.825-6.443-3.184-1.618-6.601-2.847-10.13-3.432-3.538-.592-7.074-.78-10.633-.314-1.979.262-3.927.584-5.845 1.146-1.873.547-3.694 1.281-5.463 2.098-3.32 1.536-6.384 3.687-9.059 6.175a35.49 35.49 0 0 0-5.907 7.136l6.128 7.456a31.935 31.935 0 0 1 2.993-4.876 32.265 32.265 0 0 1 4.788-4.788 31.638 31.638 0 0 1 6.077-3.56 31.788 31.788 0 0 1 6.943-1.882 32.282 32.282 0 0 1 7.1-.001c2.371.361 4.69.99 6.92 1.873 1.822.81 3.56 1.787 5.197 2.919l-.99.99-4.789 4.788-5.86 5.86-6.398 6.4-6.46 6.458-2.149 2.15.223.271c.978.978 1.589 2.2 1.467 3.667v7.08l5.277-5.277 6.4-6.4 6.459-6.459 6.047-6.047 5.088-5.088 2.038-2.038a31.53 31.53 0 0 1 2.781 4.893l6.186-7.548ZM57.64 80.055c.01-.131.015-.264.015-.4V70.55a31.779 31.779 0 0 1-6.712 1.793 32.282 32.282 0 0 1-7.1 0A31.748 31.748 0 0 1 38.1 70.91v9.416c.195.052.391.102.588.15 3.424.84 7.028 1.214 10.55 1.012 2.835-.167 5.675-.62 8.402-1.433Zm.837-59.195-.179-.074.18.074h-.001Z" clip-rule="evenodd"/>
  <defs>
    <linearGradient id="prefix__a" x1="-47.914" x2="74.343" y1="117.814" y2="153.128" gradientUnits="userSpaceOnUse">
      <stop stop-color="#70B1FF"/>
      <stop offset="1" stop-color="#005CCD"/>
    </linearGradient>
    <linearGradient id="prefix__b" x1="-31.064" x2="68.939" y1="102.654" y2="131.545" gradientUnits="userSpaceOnUse">
      <stop stop-color="#70B1FF"/>
      <stop offset="1" stop-color="#005CCD"/>
    </linearGradient>
    <linearGradient id="prefix__c" x1="48.04" x2="130.652" y1="122.171" y2="36.161" gradientUnits="userSpaceOnUse">
      <stop stop-color="#295296"/>
      <stop offset="1" stop-color="#3E78D3"/>
    </linearGradient>
  </defs>
</svg>
