<svg width="48" height="48" fill="none" viewBox="0 0 48 48" xmlns="http://www.w3.org/2000/svg">
  <path fill="url(#prefix__a)" d="M45.45 5.972c.367-.428.55-.978.55-1.528C46 3.1 44.9 2 43.556 2H4.444A2.46 2.46 0 0 0 2 4.444c0 .55.183 1.1.55 1.528l1.528 1.895L12.817 18.5l5.5 6.722c.489.49.794 1.1.733 1.834v16.5c0 1.344 1.1 2.444 2.444 2.444.49 0 .978-.183 1.406-.428l.122-.122 4.706-3.544.122-.123c.611-.489.978-1.16.978-1.955V27.056c0-.673.244-1.284.733-1.773l5.622-6.783L45.45 5.972Z" opacity=".45"/>
  <path fill="url(#prefix__b)" d="M34.705 14.94c.563.814 1.05 1.677 1.451 2.582.444 1.118.76 2.282.942 3.472.13 1.18.13 2.372 0 3.55a15.889 15.889 0 0 1-.937 3.46 15.96 15.96 0 0 1-1.785 3.052 16.139 16.139 0 0 1-2.394 2.394 15.823 15.823 0 0 1-3.038 1.78c-1.119.444-2.282.76-3.472.942-1.18.13-2.372.13-3.55 0a15.9 15.9 0 0 1-3.46-.937 15.954 15.954 0 0 1-2.595-1.457l.498-.497 2.394-2.394 2.93-2.93 3.2-3.2 3.229-3.23 3.023-3.023 2.544-2.544 1.02-1.02ZM12.689 30.602l1.023-1.023 2.544-2.544 3.024-3.023 3.23-3.23 3.199-3.2 2.93-2.93 2.394-2.393.495-.496a15.947 15.947 0 0 0-2.598-1.459 15.893 15.893 0 0 0-3.46-.937c-1.178-.13-2.37-.13-3.55 0a15.92 15.92 0 0 0-3.471.942 15.82 15.82 0 0 0-3.039 1.78 16.138 16.138 0 0 0-2.394 2.394 15.97 15.97 0 0 0-1.785 3.052 15.899 15.899 0 0 0-.937 3.46c-.13 1.179-.13 2.37 0 3.55a15.9 15.9 0 0 0 .942 3.472c.401.906.89 1.77 1.453 2.585Zm-2.355-5.729-.007-.049.007.05Zm1.023-7.646-.038.089.038-.09Zm10.235-7.82.05-.006-.05.006Zm7.558.986.089.037-.09-.037Zm7.434-.18c.638.66 1.213 1.373 1.756 2.113 1.071 1.461 1.877 3.113 2.454 4.83.565 1.681.854 3.487.895 5.26.019.79-.023 1.58-.124 2.364-.127.989-.284 1.963-.558 2.922a17.645 17.645 0 0 1-2.24 4.908c-1.03 1.551-2.275 2.975-3.74 4.129-.782.618-1.58 1.202-2.45 1.693-.869.491-1.79.896-2.723 1.248-1.671.63-3.455.959-5.235 1.064a17.998 17.998 0 0 1-5.275-.506 16.096 16.096 0 0 1-2.293-.753c-.914-.378-1.802-.783-2.648-1.296-1.582-.96-3.05-2.173-4.257-3.578a19.291 19.291 0 0 1-1.813-2.454c-.517-.843-.93-1.731-1.311-2.642-.697-1.663-1.072-3.41-1.248-5.2-.172-1.772-.03-3.57.326-5.313.36-1.75 1.02-3.461 1.888-5.02a17.764 17.764 0 0 1 3.421-4.357c1.338-1.244 2.87-2.32 4.53-3.088a19.744 19.744 0 0 1 2.731-1.049c.96-.28 1.933-.442 2.922-.573 1.78-.232 3.548-.138 5.317.158 1.764.292 3.473.906 5.065 1.715 1.622.826 3.126 1.944 4.42 3.229l.03.027c.056.052.11.108.16.169ZM18.242 35.146l-.089-.037.09.037Zm7.558.986Zm10.235-7.82.038-.089-.038.09Zm1.023-7.646a7.2 7.2 0 0 1 .007.049l-.007-.05Z" clip-rule="evenodd" opacity=".45"/>
  <path fill="url(#prefix__c)" d="M39.188 13.614a15.73 15.73 0 0 0-.849-1.288 20.1 20.1 0 0 0-1.756-2.113 1.618 1.618 0 0 0-.16-.169l-.03-.028c-1.294-1.284-2.798-2.402-4.42-3.227-1.592-.81-3.3-1.424-5.065-1.716-1.768-.296-3.537-.39-5.316-.158-.99.131-1.963.293-2.923.574a19.56 19.56 0 0 0-2.73 1.049c-1.66.768-3.193 1.843-4.53 3.087a17.746 17.746 0 0 0-2.954 3.568l3.064 3.728c.425-.856.925-1.671 1.496-2.438a16.138 16.138 0 0 1 2.394-2.394 15.82 15.82 0 0 1 3.039-1.78 15.895 15.895 0 0 1 3.471-.941c1.18-.13 2.372-.13 3.55 0 1.186.18 2.346.495 3.46.936.911.405 1.78.893 2.598 1.46l-.495.495-2.394 2.394-2.93 2.93-3.2 3.2-3.229 3.229-1.074 1.074.112.136c.488.49.794 1.1.733 1.834v3.539l2.638-2.638 3.2-3.2 3.23-3.23 3.023-3.023 2.544-2.544 1.02-1.02c.534.773 1 1.592 1.39 2.447l3.093-3.774ZM28.82 40.028c.005-.066.008-.133.008-.2v-4.553c-1.083.42-2.207.721-3.357.897-1.18.13-2.372.13-3.55 0-.978-.15-1.939-.39-2.871-.717v4.708l.294.075c1.712.42 3.514.607 5.275.506a18.541 18.541 0 0 0 4.2-.716Z" clip-rule="evenodd"/>
  <defs>
    <linearGradient id="prefix__a" x1="-23.957" x2="37.171" y1="58.907" y2="76.564" gradientUnits="userSpaceOnUse">
      <stop stop-color="#70B1FF"/>
      <stop offset="1" stop-color="#005CCD"/>
    </linearGradient>
    <linearGradient id="prefix__b" x1="-15.532" x2="34.47" y1="51.327" y2="65.773" gradientUnits="userSpaceOnUse">
      <stop stop-color="#70B1FF"/>
      <stop offset="1" stop-color="#005CCD"/>
    </linearGradient>
    <linearGradient id="prefix__c" x1="24.02" x2="65.326" y1="61.086" y2="18.08" gradientUnits="userSpaceOnUse">
      <stop stop-color="#295296"/>
      <stop offset="1" stop-color="#3E78D3"/>
    </linearGradient>
  </defs>
</svg>
