<svg width="48" height="48" fill="none" viewBox="0 0 48 48" xmlns="http://www.w3.org/2000/svg">
  <path fill="url(#prefix__a)" d="M4.975 13.924h38.339V38.5H4.975z" opacity=".276"/>
  <path fill="url(#prefix__b)" d="M45.45 5.972c.367-.428.55-.978.55-1.528C46 3.1 44.9 2 43.556 2H4.444A2.46 2.46 0 0 0 2 4.444c0 .55.183 1.1.55 1.528l1.528 1.895L12.817 18.5l5.5 6.722c.489.49.794 1.1.733 1.834v16.5c0 1.344 1.1 2.444 2.444 2.444.49 0 .978-.183 1.406-.428l.122-.122 4.706-3.544.122-.123c.611-.489.978-1.16.978-1.955V27.056c0-.673.244-1.284.733-1.773l5.622-6.783L45.45 5.972Z" opacity=".45"/>
  <path fill="url(#prefix__c)" d="M40.364 20.805v-4.424H24.636v4.424h15.729ZM23.162 28.67V16.381H7.433V28.67H23.16Zm0 1.966v4.424H7.433v-4.423H23.16Zm17.203 4.424V22.28H24.636v12.78h15.729Z" clip-rule="evenodd" opacity=".316" style="mix-blend-mode:multiply"/>
  <path fill="url(#prefix__d)" d="M36.92 16.381H24.634v4.424h8.637l1.911-2.305 1.736-2.119Zm-4.87 5.899h-7.415v12.78h4.192v-8.004c0-.673.245-1.284.734-1.773l2.49-3.003Zm-13 12.78h4.111v-4.425H19.05v4.424Zm0-6.39h4.111V16.38H11.075l1.741 2.119 5.5 6.722c.49.49.795 1.1.734 1.834v1.614Z" clip-rule="evenodd"/>
  <path fill="url(#prefix__e)" d="M41.347 9.5c1.053 0 1.913.828 1.964 1.868l.002.098v2.458H4.975v-2.458c0-1.053.827-1.912 1.868-1.964L6.94 9.5h34.406Zm-5.16.983a1.229 1.229 0 1 0 0 2.458 1.229 1.229 0 0 0 0-2.458Z" clip-rule="evenodd" opacity=".55"/>
  <path fill="url(#prefix__f)" d="M40.12 12.94a1.229 1.229 0 1 0 0-2.457 1.229 1.229 0 0 0 0 2.458Z" clip-rule="evenodd"/>
  <defs>
    <linearGradient id="prefix__a" x1="43.313" x2="4.975" y1="26.212" y2="26.212" gradientUnits="userSpaceOnUse">
      <stop stop-color="#70B1FF"/>
      <stop offset="1" stop-color="#005CCD"/>
    </linearGradient>
    <linearGradient id="prefix__b" x1="-23.957" x2="37.171" y1="58.907" y2="76.564" gradientUnits="userSpaceOnUse">
      <stop stop-color="#70B1FF"/>
      <stop offset="1" stop-color="#005CCD"/>
    </linearGradient>
    <linearGradient id="prefix__c" x1="32.5" x2="45.009" y1="41.449" y2="26.053" gradientUnits="userSpaceOnUse">
      <stop stop-color="#70B1FF"/>
      <stop offset="1" stop-color="#005CCD"/>
    </linearGradient>
    <linearGradient id="prefix__d" x1="103.726" x2="59.358" y1="32.388" y2="-29.663" gradientUnits="userSpaceOnUse">
      <stop stop-color="#295296"/>
      <stop offset="1" stop-color="#3E78D3"/>
    </linearGradient>
    <linearGradient id="prefix__e" x1="24.144" x2="23.137" y1="7.288" y2="16.019" gradientUnits="userSpaceOnUse">
      <stop stop-color="#70B1FF"/>
      <stop offset="1" stop-color="#005CCD"/>
    </linearGradient>
    <linearGradient id="prefix__f" x1="47.701" x2="41.532" y1="12.589" y2="6.354" gradientUnits="userSpaceOnUse">
      <stop stop-color="#295296"/>
      <stop offset="1" stop-color="#3E78D3"/>
    </linearGradient>
  </defs>
</svg>
