<svg width="48" height="48" fill="none" viewBox="0 0 48 48" xmlns="http://www.w3.org/2000/svg">
  <path fill="url(#prefix__a)" d="M24.115 45c12.49 0 22.616-4.791 22.616-10.702 0-5.91-10.126-10.702-22.616-10.702S1.5 28.388 1.5 34.298 11.625 45 24.115 45Zm0-8.077c3.123 0 5.654-1.175 5.654-2.625s-2.531-2.625-5.654-2.625c-3.122 0-5.654 1.175-5.654 2.625s2.532 2.625 5.654 2.625Z" clip-rule="evenodd" opacity=".45"/>
  <path fill="url(#prefix__b)" d="M24.116 9.439c4.312 0 7.808 3.548 7.808 7.924 0 4.377-3.496 7.925-7.808 7.925-4.312 0-7.808-3.548-7.808-7.925a7.97 7.97 0 0 1 1.465-4.622l-3.171-2.31a11.953 11.953 0 0 0-2.198 6.932c0 6.565 5.244 11.887 11.712 11.887s11.711-5.322 11.711-11.887S30.584 5.476 24.116 5.476V3l-6.344 4.458 6.344 4.457V9.44Z" clip-rule="evenodd" opacity=".6"/>
  <path fill="url(#prefix__c)" d="M33.448 24.547a42.167 42.167 0 0 0-4.793-.735 7.695 7.695 0 0 1-4.54 1.476 7.695 7.695 0 0 1-4.538-1.476 42.17 42.17 0 0 0-4.793.735c2.14 2.858 5.523 4.703 9.332 4.703 3.809 0 7.193-1.845 9.332-4.703Z" clip-rule="evenodd"/>
  <defs>
    <linearGradient id="prefix__b" x1="24.116" x2="50.196" y1="42.375" y2="19.103" gradientUnits="userSpaceOnUse">
      <stop stop-color="#70B1FF"/>
      <stop offset="1" stop-color="#005CCD"/>
    </linearGradient>
    <linearGradient id="prefix__c" x1="24.236" x2="28.31" y1="34.16" y2="20.148" gradientUnits="userSpaceOnUse">
      <stop stop-color="#295296"/>
      <stop offset="1" stop-color="#3E78D3"/>
    </linearGradient>
    <radialGradient id="prefix__a" cx="0" cy="0" r="1" gradientTransform="matrix(22.6154 0 0 20.9879 24.115 34.096)" gradientUnits="userSpaceOnUse">
      <stop stop-color="#70B1FF"/>
      <stop offset="1" stop-color="#005CCD"/>
    </radialGradient>
  </defs>
</svg>
