<svg width="96" height="96" fill="none" viewBox="0 0 96 96" xmlns="http://www.w3.org/2000/svg">
  <rect width="58.313" height="46.651" x="33.688" y="39.627" fill="url(#prefix__a)" opacity=".4" rx="5.301"/>
  <path fill="url(#prefix__b)" d="M54.992 17.672H43.886l-2.423-4.852c-.505-1.112-1.616-1.82-2.928-1.82H26.619c-1.212 0-2.323.708-2.929 1.82l-2.322 4.852H10.26c-3.433 0-6.26 2.83-6.26 6.268v24.262c0 3.437 2.827 6.268 6.26 6.268h44.733c3.433 0 6.26-2.83 6.26-6.268V23.94c0-3.437-2.827-6.268-6.26-6.268Z" opacity=".4"/>
  <path fill="url(#prefix__c)" d="M78.747 59.771a6.892 6.892 0 1 0 0-13.783 6.892 6.892 0 0 0 0 13.783Z"/>
  <path fill="url(#prefix__d)" d="M92 82.563v-1.402L80.556 68.79c-1.253-1.32-3.258-1.32-4.511 0l-6.182 6.598-12.365-13.196a4.191 4.191 0 0 0-6.182 0L33.688 81.08v1.402c0 2.144 1.754 3.793 3.843 3.793h50.542c2.172.083 3.927-1.65 3.927-3.711Z"/>
  <path fill="url(#prefix__e)" d="M61.254 39.627H38.989a5.301 5.301 0 0 0-5.301 5.3v9.543h21.305c3.433 0 6.26-2.83 6.26-6.268v-8.575Z" clip-rule="evenodd"/>
  <path fill="url(#prefix__f)" d="M45.431 35.533c0 6.913-5.604 12.517-12.517 12.517-6.913 0-12.517-5.604-12.517-12.517 0-6.913 5.605-12.517 12.517-12.517 6.913 0 12.517 5.604 12.517 12.517Zm-4.034 0a8.483 8.483 0 1 1-16.965 0 8.483 8.483 0 0 1 16.965 0Z" clip-rule="evenodd"/>
  <path fill="url(#prefix__g)" d="M44.747 39.627c-1.615 4.67-5.918 8.087-11.06 8.4v-3.1c0-.325.03-.644.086-.954a8.485 8.485 0 0 0 6.573-4.346h4.401Z" clip-rule="evenodd" opacity=".8"/>
  <defs>
    <linearGradient id="prefix__a" x1="51.77" x2="31.676" y1="30.867" y2="75.59" gradientUnits="userSpaceOnUse">
      <stop stop-color="#70B1FF"/>
      <stop offset="1" stop-color="#005CCD"/>
    </linearGradient>
    <linearGradient id="prefix__b" x1="21.754" x2="3.682" y1="2.838" y2="45.218" gradientUnits="userSpaceOnUse">
      <stop stop-color="#70B1FF"/>
      <stop offset="1" stop-color="#005CCD"/>
    </linearGradient>
    <linearGradient id="prefix__c" x1="74.584" x2="65.394" y1="40.999" y2="57.596" gradientUnits="userSpaceOnUse">
      <stop stop-color="#8FBBF9"/>
      <stop offset="1" stop-color="#6293DE"/>
    </linearGradient>
    <linearGradient id="prefix__d" x1="45.229" x2="36.091" y1="51.621" y2="89.445" gradientUnits="userSpaceOnUse">
      <stop stop-color="#8FBBF9"/>
      <stop offset="1" stop-color="#6293DE"/>
    </linearGradient>
    <linearGradient id="prefix__e" x1="108.66" x2="76.816" y1="46.87" y2="10.785" gradientUnits="userSpaceOnUse">
      <stop stop-color="#295296"/>
      <stop offset="1" stop-color="#3E78D3"/>
    </linearGradient>
    <linearGradient id="prefix__f" x1="25.352" x2="8.663" y1="13.955" y2="44.099" gradientUnits="userSpaceOnUse">
      <stop stop-color="#8FBBF9"/>
      <stop offset="1" stop-color="#6293DE"/>
    </linearGradient>
    <linearGradient id="prefix__g" x1="57.733" x2="69.008" y1="54.777" y2="20.094" gradientUnits="userSpaceOnUse">
      <stop stop-color="#295296"/>
      <stop offset="1" stop-color="#3E78D3"/>
    </linearGradient>
  </defs>
</svg>
