<svg width="48" height="48" fill="none" viewBox="0 0 48 48" xmlns="http://www.w3.org/2000/svg">
  <path fill="url(#prefix__a)" d="m.172 29.885 6.587-4.77a2.684 2.684 0 0 1 1.89-.492l21.945 2.593a2.651 2.651 0 0 1-.311 5.284H18l6.541 4.876a4.987 4.987 0 0 0 4.975.572l7.285-3.18a10.543 10.543 0 0 1 9.957.82.16.16 0 0 1-.02.279l-19.723 9.161c-.66.307-1.398.4-2.115.278-3.75-.64-16.275-2.595-24.9-1.806l.172-13.615Z" clip-rule="evenodd" opacity=".55"/>
  <circle cx="24.25" cy="16.75" r="12.75" fill="url(#prefix__b)" opacity=".45"/>
  <path fill="url(#prefix__c)" d="M22.875 23.311C20.967 23.044 19.5 21.44 19.5 19.5h2.25c0 .911.756 1.65 1.688 1.65h1.125c.932 0 1.687-.738 1.687-1.65 0-.91-.755-1.648-1.687-1.648h-1.125c-2.175 0-3.938-1.724-3.938-3.851 0-1.94 1.467-3.545 3.375-3.812V8.5h2.25v1.689C27.033 10.456 28.5 12.06 28.5 14h-2.25c0-.911-.756-1.65-1.688-1.65h-1.124c-.932 0-1.688.74-1.688 1.65 0 .912.756 1.652 1.688 1.652h1.125c2.175 0 3.937 1.723 3.937 3.849 0 1.94-1.467 3.544-3.375 3.81V25h-2.25v-1.689Z"/>
  <path fill="url(#prefix__d)" d="M31.277 27.39a12.69 12.69 0 0 1-7.027 2.11 12.716 12.716 0 0 1-9.41-4.145l15.754 1.86c.24.03.468.089.683.175Z" clip-rule="evenodd"/>
  <defs>
    <linearGradient id="prefix__a" x1="65.028" x2="46.116" y1="35" y2="2.53" gradientUnits="userSpaceOnUse">
      <stop stop-color="#70B1FF"/>
      <stop offset="1" stop-color="#005CCD"/>
    </linearGradient>
    <linearGradient id="prefix__b" x1="38.499" x2="38.499" y1="32.499" y2="4" gradientUnits="userSpaceOnUse">
      <stop stop-color="#70B1FF"/>
      <stop offset="1" stop-color="#005CCD"/>
    </linearGradient>
    <linearGradient id="prefix__c" x1="43.978" x2="22.599" y1="16.552" y2="9.437" gradientUnits="userSpaceOnUse">
      <stop stop-color="#295296"/>
      <stop offset="1" stop-color="#3E78D3"/>
    </linearGradient>
    <linearGradient id="prefix__d" x1="17.28" x2="19.566" y1="32.657" y2="23.924" gradientUnits="userSpaceOnUse">
      <stop stop-color="#295296"/>
      <stop offset="1" stop-color="#3E78D3"/>
    </linearGradient>
  </defs>
</svg>
