<svg width="48" height="48" fill="none" viewBox="0 0 48 48" xmlns="http://www.w3.org/2000/svg">
  <path fill="url(#prefix__a)" d="M3 4.5h28.5v19.835a9.148 9.148 0 0 1-4.045 7.596L17.25 38.783 7.045 31.93A9.148 9.148 0 0 1 3 24.335V4.5Z" clip-rule="evenodd" opacity=".45"/>
  <path fill="url(#prefix__b)" d="M17.457 4.5H31.5v19.835c0 3.05-1.495 5.899-3.986 7.596l-10.057 6.852V4.5Z" clip-rule="evenodd"/>
  <path fill="url(#prefix__c)" d="M44.997 37.783c-.43.984-.94 1.89-1.532 2.723-.805 1.135-1.465 1.921-1.973 2.358-.788.716-1.632 1.083-2.536 1.104-.65 0-1.432-.183-2.343-.553-.914-.369-1.754-.551-2.522-.551-.806 0-1.67.182-2.594.551-.925.37-1.67.563-2.24.583-.867.036-1.732-.341-2.594-1.134-.55-.475-1.239-1.289-2.064-2.442-.885-1.23-1.613-2.658-2.183-4.286-.61-1.758-.916-3.46-.916-5.109 0-1.888.413-3.516 1.239-4.88a7.227 7.227 0 0 1 2.595-2.596 7.041 7.041 0 0 1 3.509-.979c.688 0 1.591.21 2.713.625 1.119.415 1.837.625 2.152.625.236 0 1.034-.246 2.387-.737 1.28-.455 2.36-.643 3.244-.57 2.397.192 4.198 1.126 5.396 2.81-2.144 1.284-3.204 3.083-3.183 5.39.019 1.798.678 3.294 1.975 4.482a6.499 6.499 0 0 0 1.973 1.28c-.158.454-.325.888-.503 1.306Z" clip-rule="evenodd" opacity=".5"/>
  <path fill="url(#prefix__d)" d="M31.5 23.176v1.16c0 3.049-1.495 5.898-3.986 7.595l-5.294 3.607c-.48-1.547-.72-3.05-.72-4.51 0-1.889.413-3.517 1.239-4.882a7.228 7.228 0 0 1 2.595-2.595 7.041 7.041 0 0 1 3.509-.979c.677 0 1.56.204 2.657.604Z" clip-rule="evenodd"/>
  <path fill="url(#prefix__e)" d="M39.5 16.55c0 1.372-.52 2.654-1.558 3.84-1.252 1.41-2.767 2.225-4.409 2.097a4.104 4.104 0 0 1-.033-.52c0-1.318.595-2.729 1.653-3.882.528-.584 1.2-1.07 2.013-1.456.813-.382 1.581-.593 2.304-.629.021.183.03.367.03.55Z" clip-rule="evenodd" opacity=".5"/>
  <defs>
    <linearGradient id="prefix__a" x1="-13.813" x2="26.746" y1="48.839" y2="58.579" gradientUnits="userSpaceOnUse">
      <stop stop-color="#70B1FF"/>
      <stop offset="1" stop-color="#005CCD"/>
    </linearGradient>
    <linearGradient id="prefix__b" x1="11.767" x2="30.542" y1="16.482" y2="25.398" gradientUnits="userSpaceOnUse">
      <stop stop-color="#8AB8F6"/>
      <stop offset="1" stop-color="#6395DE"/>
    </linearGradient>
    <linearGradient id="prefix__c" x1="33.5" x2="54.871" y1="54.75" y2="30.895" gradientUnits="userSpaceOnUse">
      <stop stop-color="#70B1FF"/>
      <stop offset="1" stop-color="#005CCD"/>
    </linearGradient>
    <linearGradient id="prefix__d" x1="26.565" x2="41.431" y1="42.857" y2="28.879" gradientUnits="userSpaceOnUse">
      <stop stop-color="#295296"/>
      <stop offset="1" stop-color="#3E78D3"/>
    </linearGradient>
    <linearGradient id="prefix__e" x1="36.5" x2="42.979" y1="25.75" y2="19.769" gradientUnits="userSpaceOnUse">
      <stop stop-color="#70B1FF"/>
      <stop offset="1" stop-color="#005CCD"/>
    </linearGradient>
  </defs>
</svg>
