<svg width="48" height="48" fill="none" viewBox="0 0 48 48" xmlns="http://www.w3.org/2000/svg">
  <path fill="url(#prefix__a)" d="M4 6h30.5v30.5H4z" opacity=".45"/>
  <path fill="url(#prefix__b)" d="M8.25 11.5a1.75 1.75 0 1 0 0-3.5 1.75 1.75 0 0 0 0 3.5Z" clip-rule="evenodd" opacity=".45"/>
  <path fill="url(#prefix__c)" d="M8.25 34a1.75 1.75 0 1 0 0-3.5 1.75 1.75 0 0 0 0 3.5Z" clip-rule="evenodd" opacity=".45"/>
  <path fill="url(#prefix__d)" d="M30.25 12a1.75 1.75 0 1 0 0-3.5 1.75 1.75 0 0 0 0 3.5Z" clip-rule="evenodd" opacity=".45"/>
  <path fill="url(#prefix__e)" d="M19 32c6.075 0 11-4.925 11-11s-4.925-11-11-11S8 14.925 8 21s4.925 11 11 11Zm3.5-11a3.5 3.5 0 1 1-7 0 3.5 3.5 0 0 1 7 0Z" clip-rule="evenodd" opacity=".6"/>
  <path fill="url(#prefix__f)" d="M41 22.75v3.75h3V42H25.5V26.5h3v-3.75a6.25 6.25 0 1 1 12.5 0Zm-9.5 0v3.75H38v-3.75a3.25 3.25 0 0 0-6.5 0Z" clip-rule="evenodd" opacity=".45"/>
  <path fill="url(#prefix__g)" d="M25.5 36.5v-10h3v-3.75a6.25 6.25 0 0 1 6-6.245v3.004a3.25 3.25 0 0 0-3 3.241v3.75h3v10h-9Z" clip-rule="evenodd"/>
  <path fill="url(#prefix__h)" d="M30.25 34a1.75 1.75 0 1 0 0-3.5 1.75 1.75 0 0 0 0 3.5Z" clip-rule="evenodd" opacity=".45"/>
  <defs>
    <linearGradient id="prefix__a" x1="19.25" x2="-11.25" y1="-9.25" y2="21.25" gradientUnits="userSpaceOnUse">
      <stop stop-color="#70B1FF"/>
      <stop offset="1" stop-color="#005CCD"/>
    </linearGradient>
    <linearGradient id="prefix__b" x1="8.545" x2="3.83" y1="4.106" y2="9.446" gradientUnits="userSpaceOnUse">
      <stop stop-color="#70B1FF"/>
      <stop offset="1" stop-color="#005CCD"/>
    </linearGradient>
    <linearGradient id="prefix__c" x1="8.545" x2="3.83" y1="26.606" y2="31.946" gradientUnits="userSpaceOnUse">
      <stop stop-color="#70B1FF"/>
      <stop offset="1" stop-color="#005CCD"/>
    </linearGradient>
    <linearGradient id="prefix__d" x1="30.545" x2="25.83" y1="4.606" y2="9.946" gradientUnits="userSpaceOnUse">
      <stop stop-color="#70B1FF"/>
      <stop offset="1" stop-color="#005CCD"/>
    </linearGradient>
    <linearGradient id="prefix__e" x1="19" x2="41" y1="43" y2="21" gradientUnits="userSpaceOnUse">
      <stop stop-color="#70B1FF"/>
      <stop offset="1" stop-color="#005CCD"/>
    </linearGradient>
    <linearGradient id="prefix__f" x1="34.75" x2="58.991" y1="3.75" y2="21.337" gradientUnits="userSpaceOnUse">
      <stop stop-color="#70B1FF"/>
      <stop offset="1" stop-color="#005CCD"/>
    </linearGradient>
    <linearGradient id="prefix__g" x1="29.942" x2="8.997" y1="54.551" y2="45.102" gradientUnits="userSpaceOnUse">
      <stop stop-color="#295296"/>
      <stop offset="1" stop-color="#3E78D3"/>
    </linearGradient>
    <linearGradient id="prefix__h" x1="30.545" x2="25.83" y1="26.606" y2="31.946" gradientUnits="userSpaceOnUse">
      <stop stop-color="#70B1FF"/>
      <stop offset="1" stop-color="#005CCD"/>
    </linearGradient>
  </defs>
</svg>
