<svg width="96" height="96" fill="none" viewBox="0 0 96 96" xmlns="http://www.w3.org/2000/svg">
  <path fill="url(#prefix__a)" d="M12 25a8 8 0 0 1 8-8h56.377a8 8 0 0 1 8 8v35.09a8 8 0 0 1-8 8H20a8 8 0 0 1-8-8V25Z" opacity=".5"/>
  <path fill="url(#prefix__b)" d="M70.438 53.063A2.4 2.4 0 0 0 71 51.5c0-1.375-1.125-2.5-2.5-2.5h-40a2.516 2.516 0 0 0-2.5 2.5 2.4 2.4 0 0 0 .563 1.563L28.125 55l8.938 10.875 5.624 6.875c.5.5.813 1.125.75 1.875V91.5c0 1.375 1.126 2.5 2.5 2.5.5 0 1-.188 1.438-.438l.125-.124 4.813-3.626.124-.124c.626-.5 1-1.188 1-2V74.624c0-.688.25-1.313.75-1.813l5.75-6.937 10.5-12.813Z" opacity=".45"/>
  <path fill="url(#prefix__c)" d="M58.102 68.09H38.875l-1.813-2.215L28.126 55l-1.563-1.938A2.4 2.4 0 0 1 26 51.5a2.516 2.516 0 0 1 2.5-2.5h40c1.375 0 2.5 1.125 2.5 2.5a2.4 2.4 0 0 1-.563 1.563l-10.5 12.812-1.835 2.215Z" clip-rule="evenodd"/>
  <path fill="url(#prefix__d)" d="M48 5c-6.627 0-12 5.373-12 12s5.373 12 12 12 12-5.373 12-12S54.627 5 48 5Zm-4.607 17.293a1 1 0 0 1-1.415-1.414l4.243-4.243-4.242-4.243a1 1 0 0 1 1.414-1.414l4.243 4.242 4.242-4.242a1 1 0 1 1 1.414 1.414l-4.242 4.243 4.243 4.243a1 1 0 0 1-1.414 1.414l-4.243-4.243-4.243 4.243Z" clip-rule="evenodd" opacity=".5"/>
  <path fill="url(#prefix__e)" d="M84.299 23.873A8.002 8.002 0 0 0 76.377 17H20.002a8.001 8.001 0 0 0-7.955 7.143l30.776 18.693c2.832 1.72 7.424 1.72 10.256 0l31.22-18.963Z" clip-rule="evenodd" opacity=".5"/>
  <path fill="url(#prefix__f)" d="M36 16.91V17c0 6.627 5.373 12 12 12s12-5.373 12-12v-.09H49.325l3.968 3.969a1 1 0 1 1-1.414 1.414l-4.243-4.243-4.243 4.243a.998.998 0 1 1-1.414-1.414l3.968-3.969H36Z" clip-rule="evenodd"/>
  <defs>
    <linearGradient id="prefix__a" x1="54.806" x2="10.387" y1="-5.565" y2="52.647" gradientUnits="userSpaceOnUse">
      <stop stop-color="#70B1FF"/>
      <stop offset="1" stop-color="#005CCD"/>
    </linearGradient>
    <linearGradient id="prefix__b" x1="-.547" x2="61.971" y1="107.2" y2="125.259" gradientUnits="userSpaceOnUse">
      <stop stop-color="#70B1FF"/>
      <stop offset="1" stop-color="#005CCD"/>
    </linearGradient>
    <linearGradient id="prefix__c" x1="48.791" x2="62.404" y1="78.866" y2="39.744" gradientUnits="userSpaceOnUse">
      <stop stop-color="#295296"/>
      <stop offset="1" stop-color="#3E78D3"/>
    </linearGradient>
    <linearGradient id="prefix__d" x1="45.806" x2="67.374" y1="39.6" y2="19.648" gradientUnits="userSpaceOnUse">
      <stop stop-color="#70B1FF"/>
      <stop offset="1" stop-color="#005CCD"/>
    </linearGradient>
    <linearGradient id="prefix__e" x1="62.34" x2="-53.873" y1="-127.008" y2="-3.587" gradientUnits="userSpaceOnUse">
      <stop stop-color="#70B1FF"/>
      <stop offset="1" stop-color="#005CCD"/>
    </linearGradient>
    <linearGradient id="prefix__f" x1="47.845" x2="38.042" y1="10.085" y2="33.811" gradientUnits="userSpaceOnUse">
      <stop stop-color="#295296"/>
      <stop offset="1" stop-color="#3E78D3"/>
    </linearGradient>
  </defs>
</svg>
