<svg width="96" height="96" fill="none" viewBox="0 0 96 96" xmlns="http://www.w3.org/2000/svg">
  <path fill="url(#prefix__a)" d="M1 18a8 8 0 0 1 8-8h56.377a8 8 0 0 1 8 8v35.09a8 8 0 0 1-8 8H9a8 8 0 0 1-8-8V18Z" opacity=".5"/>
  <path fill="url(#prefix__b)" d="M95.425 45.153A2.454 2.454 0 0 0 96 43.556 2.563 2.563 0 0 0 93.444 41H52.556A2.571 2.571 0 0 0 50 43.556c0 .575.192 1.15.575 1.597l1.597 1.98 9.136 11.117 5.75 7.028c.511.51.83 1.15.767 1.916v17.25A2.563 2.563 0 0 0 70.381 87c.51 0 1.022-.192 1.469-.447l.128-.128 4.92-3.706.127-.127c.639-.511 1.022-1.214 1.022-2.045V67.194c0-.702.256-1.341.767-1.852l5.878-7.092 10.733-13.097Z" opacity=".45"/>
  <path fill="url(#prefix__c)" d="M73.299 16.873A8.002 8.002 0 0 0 65.377 10H9.002a8.001 8.001 0 0 0-7.955 7.143l30.776 18.693c2.832 1.72 7.424 1.72 10.256 0l31.22-18.963Z" clip-rule="evenodd" opacity=".5"/>
  <path fill="url(#prefix__d)" d="M73.377 41v12.09a8 8 0 0 1-8 8h-1.745l-2.324-2.84-9.136-11.117-1.597-1.98A2.454 2.454 0 0 1 50 43.556 2.571 2.571 0 0 1 52.556 41h20.821Z" clip-rule="evenodd"/>
  <defs>
    <linearGradient id="prefix__a" x1="43.806" x2="-.613" y1="-12.565" y2="45.647" gradientUnits="userSpaceOnUse">
      <stop stop-color="#70B1FF"/>
      <stop offset="1" stop-color="#005CCD"/>
    </linearGradient>
    <linearGradient id="prefix__b" x1="22.863" x2="86.77" y1="100.493" y2="118.953" gradientUnits="userSpaceOnUse">
      <stop stop-color="#70B1FF"/>
      <stop offset="1" stop-color="#005CCD"/>
    </linearGradient>
    <linearGradient id="prefix__c" x1="51.34" x2="-64.873" y1="-134.008" y2="-10.587" gradientUnits="userSpaceOnUse">
      <stop stop-color="#70B1FF"/>
      <stop offset="1" stop-color="#005CCD"/>
    </linearGradient>
    <linearGradient id="prefix__d" x1="61.839" x2="83.575" y1="72.431" y2="41.596" gradientUnits="userSpaceOnUse">
      <stop stop-color="#295296"/>
      <stop offset="1" stop-color="#3E78D3"/>
    </linearGradient>
  </defs>
</svg>
