<svg width="48" height="48" fill="none" viewBox="0 0 48 48" xmlns="http://www.w3.org/2000/svg">
  <path fill="url(#prefix__a)" d="M.5 9a4 4 0 0 1 4-4h28.188a4 4 0 0 1 4 4v17.545a4 4 0 0 1-4 4H4.5a4 4 0 0 1-4-4V9Z" opacity=".5"/>
  <path fill="url(#prefix__b)" d="M47.712 22.576c.192-.223.288-.51.288-.798 0-.703-.575-1.278-1.278-1.278H26.278A1.286 1.286 0 0 0 25 21.778c0 .287.096.575.288.798l.798.99 4.568 5.559 2.875 3.514c.256.255.415.575.383.958v8.625c0 .703.575 1.278 1.278 1.278.256 0 .511-.096.735-.224l.064-.064 2.46-1.852.064-.064c.319-.256.51-.607.51-1.022v-6.677c0-.351.128-.67.384-.926l2.939-3.546 5.367-6.549Z" opacity=".45"/>
  <path fill="url(#prefix__c)" d="M36.65 8.437A4 4 0 0 0 32.69 5H4.5A4 4 0 0 0 .524 8.572l15.388 9.346c1.417.86 3.713.86 5.129 0l15.61-9.481Z" clip-rule="evenodd" opacity=".5"/>
  <path fill="url(#prefix__d)" d="M36.688 20.5v6.045a4 4 0 0 1-4 4h-.872l-1.162-1.42-4.568-5.558-.798-.99a1.227 1.227 0 0 1-.288-.8 1.286 1.286 0 0 1 1.278-1.278h10.41Z" clip-rule="evenodd"/>
  <defs>
    <linearGradient id="prefix__a" x1="21.903" x2="-.306" y1="-6.282" y2="22.824" gradientUnits="userSpaceOnUse">
      <stop stop-color="#70B1FF"/>
      <stop offset="1" stop-color="#005CCD"/>
    </linearGradient>
    <linearGradient id="prefix__b" x1="11.432" x2="43.385" y1="50.247" y2="59.477" gradientUnits="userSpaceOnUse">
      <stop stop-color="#70B1FF"/>
      <stop offset="1" stop-color="#005CCD"/>
    </linearGradient>
    <linearGradient id="prefix__c" x1="25.671" x2="-32.436" y1="-67.004" y2="-5.293" gradientUnits="userSpaceOnUse">
      <stop stop-color="#70B1FF"/>
      <stop offset="1" stop-color="#005CCD"/>
    </linearGradient>
    <linearGradient id="prefix__d" x1="30.92" x2="41.788" y1="36.215" y2="20.798" gradientUnits="userSpaceOnUse">
      <stop stop-color="#295296"/>
      <stop offset="1" stop-color="#3E78D3"/>
    </linearGradient>
  </defs>
</svg>
