<svg width="96" height="96" fill="none" viewBox="0 0 96 96" xmlns="http://www.w3.org/2000/svg">
  <path fill="url(#prefix__a)" d="M76.65 17.5C69.748 5.543 54.459 1.446 42.5 8.35c-11.957 6.903-16.054 22.193-9.15 34.15 6.396 11.078 19.99 15.41 31.464 10.496l9.088 15.743 5.196-3-9.088-15.743C80 42.516 83.047 28.578 76.65 17.5Zm-38.104 22c-5.247-9.087-2.133-20.708 6.954-25.954 9.088-5.247 20.708-2.133 25.955 6.954 5.246 9.088 2.133 20.708-6.955 25.955-9.087 5.246-20.708 2.133-25.954-6.955Z" clip-rule="evenodd" opacity=".52"/>
  <path fill="url(#prefix__b)" d="m68.17 62.81 8.66-5 16.5 28.58-8.66 5-16.5-28.58Z" clip-rule="evenodd"/>
  <path fill="url(#prefix__c)" d="M55 49c10.493 0 19-8.507 19-19s-8.507-19-19-19-19 8.507-19 19 8.507 19 19 19Z" clip-rule="evenodd" opacity=".34"/>
  <path fill="url(#prefix__d)" d="M7 86V66h13v20H7Z" clip-rule="evenodd" opacity=".5"/>
  <path fill="url(#prefix__e)" d="M25 86V53h13v33H25Z" clip-rule="evenodd" opacity=".5"/>
  <path fill="url(#prefix__f)" d="M43 51.94V37h13v17.98a24.888 24.888 0 0 1-13-3.041Z" clip-rule="evenodd"/>
  <path fill="url(#prefix__g)" d="M43 86V37h13v49H43Z" clip-rule="evenodd" opacity=".5"/>
  <path fill="url(#prefix__h)" d="M56 48.974a18.922 18.922 0 0 1-13-4.242V37h13v11.974Z" clip-rule="evenodd"/>
  <defs>
    <linearGradient id="prefix__a" x1="85.631" x2="43.933" y1="37.096" y2="4.947" gradientUnits="userSpaceOnUse">
      <stop stop-color="#70B1FF"/>
      <stop offset="1" stop-color="#005CCD"/>
    </linearGradient>
    <linearGradient id="prefix__b" x1="127.863" x2="73.422" y1="81.31" y2="32.289" gradientUnits="userSpaceOnUse">
      <stop stop-color="#295296"/>
      <stop offset="1" stop-color="#3E78D3"/>
    </linearGradient>
    <linearGradient id="prefix__c" x1="55.018" x2="27.777" y1="2.889" y2="29.31" gradientUnits="userSpaceOnUse">
      <stop stop-color="#84B4FA"/>
      <stop offset="1" stop-color="#4E82D5"/>
    </linearGradient>
    <linearGradient id="prefix__d" x1="24.553" x2="12.164" y1="79.375" y2="70.862" gradientUnits="userSpaceOnUse">
      <stop stop-color="#70B1FF"/>
      <stop offset="1" stop-color="#005CCD"/>
    </linearGradient>
    <linearGradient id="prefix__e" x1="42.553" x2="27.01" y1="75.069" y2="68.596" gradientUnits="userSpaceOnUse">
      <stop stop-color="#70B1FF"/>
      <stop offset="1" stop-color="#005CCD"/>
    </linearGradient>
    <linearGradient id="prefix__f" x1="73.843" x2="44.791" y1="49.597" y2="24.382" gradientUnits="userSpaceOnUse">
      <stop stop-color="#295296"/>
      <stop offset="1" stop-color="#3E78D3"/>
    </linearGradient>
    <linearGradient id="prefix__g" x1="60.553" x2="43.644" y1="69.769" y2="65.026" gradientUnits="userSpaceOnUse">
      <stop stop-color="#70B1FF"/>
      <stop offset="1" stop-color="#005CCD"/>
    </linearGradient>
    <linearGradient id="prefix__h" x1="38.564" x2="45.593" y1="40.655" y2="53.155" gradientUnits="userSpaceOnUse">
      <stop stop-color="#467CD3"/>
      <stop offset="1" stop-color="#4B81D7"/>
    </linearGradient>
  </defs>
</svg>
