<svg width="48" height="48" fill="none" viewBox="0 0 48 48" xmlns="http://www.w3.org/2000/svg">
  <path fill="url(#prefix__a)" d="M38.325 8.75C34.874 2.771 27.23.723 21.25 4.175c-5.979 3.451-8.027 11.096-4.575 17.075 3.198 5.54 9.995 7.705 15.732 5.248l4.544 7.872 2.598-1.5-4.544-7.872C40 21.258 41.523 14.29 38.325 8.75Zm-19.052 11a9.5 9.5 0 1 1 16.454-9.5 9.5 9.5 0 0 1-16.454 9.5Z" clip-rule="evenodd" opacity=".52"/>
  <path fill="url(#prefix__b)" d="m34.085 31.405 4.33-2.5 8.25 14.29-4.33 2.5-8.25-14.29Z" clip-rule="evenodd"/>
  <path fill="url(#prefix__c)" d="M27.5 24.5a9.5 9.5 0 1 0 0-19 9.5 9.5 0 0 0 0 19Z" clip-rule="evenodd" opacity=".34"/>
  <path fill="url(#prefix__d)" d="M3.5 43V33H10v10H3.5Z" clip-rule="evenodd" opacity=".5"/>
  <path fill="url(#prefix__e)" d="M12.5 43V26.5H19V43h-6.5Z" clip-rule="evenodd" opacity=".5"/>
  <path fill="url(#prefix__f)" d="M21.5 25.97V18.5H28v8.99a12.444 12.444 0 0 1-6.5-1.52Z" clip-rule="evenodd"/>
  <path fill="url(#prefix__g)" d="M21.5 43V18.5H28V43h-6.5Z" clip-rule="evenodd" opacity=".5"/>
  <path fill="url(#prefix__h)" d="M28 24.487a9.46 9.46 0 0 1-6.5-2.121V18.5H28v5.987Z" clip-rule="evenodd"/>
  <defs>
    <linearGradient id="prefix__a" x1="42.816" x2="21.966" y1="18.548" y2="2.473" gradientUnits="userSpaceOnUse">
      <stop stop-color="#70B1FF"/>
      <stop offset="1" stop-color="#005CCD"/>
    </linearGradient>
    <linearGradient id="prefix__b" x1="63.932" x2="36.711" y1="40.655" y2="16.145" gradientUnits="userSpaceOnUse">
      <stop stop-color="#295296"/>
      <stop offset="1" stop-color="#3E78D3"/>
    </linearGradient>
    <linearGradient id="prefix__c" x1="27.509" x2="13.888" y1="1.445" y2="14.655" gradientUnits="userSpaceOnUse">
      <stop stop-color="#84B4FA"/>
      <stop offset="1" stop-color="#4E82D5"/>
    </linearGradient>
    <linearGradient id="prefix__d" x1="12.276" x2="6.082" y1="39.688" y2="35.431" gradientUnits="userSpaceOnUse">
      <stop stop-color="#70B1FF"/>
      <stop offset="1" stop-color="#005CCD"/>
    </linearGradient>
    <linearGradient id="prefix__e" x1="21.276" x2="13.505" y1="37.535" y2="34.298" gradientUnits="userSpaceOnUse">
      <stop stop-color="#70B1FF"/>
      <stop offset="1" stop-color="#005CCD"/>
    </linearGradient>
    <linearGradient id="prefix__f" x1="36.921" x2="22.395" y1="24.799" y2="12.191" gradientUnits="userSpaceOnUse">
      <stop stop-color="#295296"/>
      <stop offset="1" stop-color="#3E78D3"/>
    </linearGradient>
    <linearGradient id="prefix__g" x1="30.276" x2="21.822" y1="34.885" y2="32.513" gradientUnits="userSpaceOnUse">
      <stop stop-color="#70B1FF"/>
      <stop offset="1" stop-color="#005CCD"/>
    </linearGradient>
    <linearGradient id="prefix__h" x1="19.282" x2="22.797" y1="20.327" y2="26.578" gradientUnits="userSpaceOnUse">
      <stop stop-color="#467CD3"/>
      <stop offset="1" stop-color="#4B81D7"/>
    </linearGradient>
  </defs>
</svg>
