<svg width="48" height="48" fill="none" viewBox="0 0 48 48" xmlns="http://www.w3.org/2000/svg">
  <path fill="url(#prefix__a)" d="M39.149 6.437A4.001 4.001 0 0 0 35.189 3H6.998a4 4 0 0 0-3.977 3.571l15.389 9.347c1.416.86 3.712.86 5.128 0l15.61-9.48Z" clip-rule="evenodd" opacity=".5"/>
  <path fill="url(#prefix__b)" d="M3 7a4 4 0 0 1 4-4h28.188a4 4 0 0 1 4 4v17.545a4 4 0 0 1-4 4H7a4 4 0 0 1-4-4V7Z" opacity=".5"/>
  <path fill="url(#prefix__c)" d="M32.873 20.455a9.253 9.253 0 1 0-1.135 13.802l4.651 4.861 1.604-1.535-4.651-4.86c2.934-3.569 2.804-8.847-.47-12.268Zm-11.765 11.26a7.032 7.032 0 1 1 10.161-9.725 7.032 7.032 0 0 1-10.161 9.724Z" clip-rule="evenodd" opacity=".52"/>
  <path fill="url(#prefix__d)" d="M35.285 28.544a9.253 9.253 0 1 0-18.196.001h2.273a7.032 7.032 0 1 1 13.653 0h2.173l.097-.001Z" clip-rule="evenodd"/>
  <path fill="url(#prefix__e)" d="m33.807 37.491 2.674-2.559 8.444 8.824-2.674 2.56-8.444-8.825Z" clip-rule="evenodd"/>
  <path fill="url(#prefix__f)" d="M27.86 33.683a7.032 7.032 0 1 0-3.341-13.661 7.032 7.032 0 0 0 3.34 13.661Z" clip-rule="evenodd" opacity=".34"/>
  <defs>
    <linearGradient id="prefix__a" x1="28.17" x2="-29.937" y1="-69.004" y2="-7.294" gradientUnits="userSpaceOnUse">
      <stop stop-color="#70B1FF"/>
      <stop offset="1" stop-color="#005CCD"/>
    </linearGradient>
    <linearGradient id="prefix__b" x1="24.403" x2="2.194" y1="-8.282" y2="20.823" gradientUnits="userSpaceOnUse">
      <stop stop-color="#70B1FF"/>
      <stop offset="1" stop-color="#005CCD"/>
    </linearGradient>
    <linearGradient id="prefix__c" x1="37.824" x2="20.006" y1="26.711" y2="18.818" gradientUnits="userSpaceOnUse">
      <stop stop-color="#70B1FF"/>
      <stop offset="1" stop-color="#005CCD"/>
    </linearGradient>
    <linearGradient id="prefix__d" x1="60.84" x2="46.702" y1="25.259" y2="-3.469" gradientUnits="userSpaceOnUse">
      <stop stop-color="#295296"/>
      <stop offset="1" stop-color="#3E78D3"/>
    </linearGradient>
    <linearGradient id="prefix__e" x1="56.894" x2="33.012" y1="38.895" y2="26.056" gradientUnits="userSpaceOnUse">
      <stop stop-color="#295296"/>
      <stop offset="1" stop-color="#3E78D3"/>
    </linearGradient>
    <linearGradient id="prefix__f" x1="23.812" x2="16.341" y1="17.104" y2="28.998" gradientUnits="userSpaceOnUse">
      <stop stop-color="#84B4FA"/>
      <stop offset="1" stop-color="#4E82D5"/>
    </linearGradient>
  </defs>
</svg>
