<svg width="48" height="48" fill="none" viewBox="0 0 48 48" xmlns="http://www.w3.org/2000/svg">
  <path fill="url(#prefix__a)" d="M22.25 32.183c10.355 0 18.75-6.309 18.75-14.091C41 10.308 32.605 4 22.25 4S3.5 10.309 3.5 18.091c0 4.756 3.135 8.962 7.937 11.514-.488 2.646-1.622 5.185-3.92 6.395 4.532-.054 8.028-1.69 10.702-4.144a24.79 24.79 0 0 0 4.031.327Z" clip-rule="evenodd" opacity=".89"/>
  <path fill="url(#prefix__b)" d="M42.465 28.202V24.96a7.081 7.081 0 0 0-7.05-7.092 6.984 6.984 0 0 0-7.075 6.987v3.34H25.9v11.554a4.254 4.254 0 0 0 4.277 4.235h10.459a4.258 4.258 0 0 0 4.277-4.235V28.202h-2.447Zm-6.108 7.913.39 3.385h-2.499l.395-3.385c-.845-.38-1.3-1.266-1.094-2.133.206-.867 1.016-1.482 1.951-1.482s1.745.615 1.951 1.482c.205.867-.249 1.753-1.094 2.133Zm-4.335-7.913h6.765l-.018-3.34a3.388 3.388 0 0 0-6.747 0v3.34Z" clip-rule="evenodd"/>
  <path fill="url(#prefix__c)" d="M40.762 20.342a7.065 7.065 0 0 0-5.348-2.474 6.984 6.984 0 0 0-7.074 6.987v3.34H25.9v3.72c3.62-.536 6.865-1.855 9.41-3.713h-3.288v-3.34a3.388 3.388 0 0 1 6.737-.085c.977-1.36 1.665-2.853 2.003-4.435Z" clip-rule="evenodd" opacity=".9"/>
  <defs>
    <linearGradient id="prefix__a" x1="22.453" x2="-8.642" y1="-15.227" y2="24.605" gradientUnits="userSpaceOnUse">
      <stop offset=".07" stop-color="#D4E6FF"/>
      <stop offset=".24" stop-color="#CBE0FD"/>
      <stop offset=".52" stop-color="#B2CFF9"/>
      <stop offset=".87" stop-color="#8AB4F3"/>
      <stop offset="1" stop-color="#7AA9F0"/>
    </linearGradient>
    <linearGradient id="prefix__b" x1="15.651" x2="40.635" y1="34.517" y2="48.919" gradientUnits="userSpaceOnUse">
      <stop stop-color="#8FBBF9"/>
      <stop offset="1" stop-color="#6293DE"/>
    </linearGradient>
    <linearGradient id="prefix__c" x1="38.237" x2="20.005" y1="9.19" y2="25.469" gradientUnits="userSpaceOnUse">
      <stop stop-color="#295296"/>
      <stop offset="1" stop-color="#3E78D3"/>
    </linearGradient>
  </defs>
</svg>
