<svg width="96" height="96" fill="none" viewBox="0 0 96 96" xmlns="http://www.w3.org/2000/svg">
  <path fill="url(#prefix__a)" d="M5 41a8 8 0 0 1 8-8h52.073a8 8 0 0 1 8 8v32a8 8 0 0 1-8 8H13a8 8 0 0 1-8-8V41Z" opacity=".5"/>
  <circle cx="72.572" cy="32.5" r="17.5" fill="url(#prefix__b)" opacity=".5"/>
  <path fill="url(#prefix__c)" d="M72.933 39.504A8.002 8.002 0 0 0 65.073 33H13a8.002 8.002 0 0 0-7.903 6.752l28.586 17.362c2.832 1.72 7.424 1.72 10.256 0l28.993-17.61Z" clip-rule="evenodd" opacity=".5"/>
  <path fill="url(#prefix__d)" d="M55.08 33h9.993a8 8 0 0 1 8 8v8.993c-.167.005-.333.007-.5.007-9.499 0-17.23-7.566-17.494-17Z" clip-rule="evenodd"/>
  <path fill="url(#prefix__e)" d="M68.072 21h-3v23h3V33h15l-5.131-5 5.131-5h-15v-2Z" clip-rule="evenodd"/>
  <path fill="#A5CAF7" d="M68.072 33.581a7.979 7.979 0 0 0-3-.581v11h3V33.581Z" clip-rule="evenodd"/>
  <defs>
    <linearGradient id="prefix__a" x1="45.26" x2="3.54" y1="11.8" y2="66.534" gradientUnits="userSpaceOnUse">
      <stop stop-color="#70B1FF"/>
      <stop offset="1" stop-color="#005CCD"/>
    </linearGradient>
    <linearGradient id="prefix__b" x1="75.772" x2="44.319" y1="-.458" y2="28.639" gradientUnits="userSpaceOnUse">
      <stop stop-color="#70B1FF"/>
      <stop offset="1" stop-color="#005CCD"/>
    </linearGradient>
    <linearGradient id="prefix__c" x1="52.317" x2="-56.502" y1="-101.867" y2="13.991" gradientUnits="userSpaceOnUse">
      <stop stop-color="#70B1FF"/>
      <stop offset="1" stop-color="#005CCD"/>
    </linearGradient>
    <linearGradient id="prefix__d" x1="64.192" x2="83.103" y1="59.597" y2="35.195" gradientUnits="userSpaceOnUse">
      <stop stop-color="#295296"/>
      <stop offset="1" stop-color="#3E78D3"/>
    </linearGradient>
    <linearGradient id="prefix__e" x1="74.189" x2="100.581" y1="56.984" y2="31.803" gradientUnits="userSpaceOnUse">
      <stop stop-color="#295296"/>
      <stop offset="1" stop-color="#3E78D3"/>
    </linearGradient>
  </defs>
</svg>
