<svg width="96" height="96" fill="none" viewBox="0 0 96 96" xmlns="http://www.w3.org/2000/svg">
  <path fill="url(#prefix__a)" d="M5 25a8 8 0 0 1 8-8h56.377a8 8 0 0 1 8 8v35.09a8 8 0 0 1-8 8H13a8 8 0 0 1-8-8V25Z" opacity=".5"/>
  <path fill="url(#prefix__b)" d="M86.922 48.049v6.03h4.823V79H62V54.078h4.823V48.05c0-5.55 4.5-10.049 10.05-10.049 5.55 0 10.049 4.5 10.049 10.049Zm-15.275 0v6.03h10.451v-6.03a5.226 5.226 0 0 0-10.45 0Z" clip-rule="evenodd" opacity=".45"/>
  <path fill="url(#prefix__c)" d="M77.299 23.873A8.002 8.002 0 0 0 69.377 17H13.002a8.001 8.001 0 0 0-7.955 7.143l30.776 18.693c2.832 1.72 7.424 1.72 10.256 0l31.22-18.963Z" clip-rule="evenodd" opacity=".5"/>
  <path fill="url(#prefix__d)" d="M77.377 38.012a10.292 10.292 0 0 0-.504-.012c-5.55 0-10.05 4.5-10.05 10.049v6.03H62v14.01h7.377a8 8 0 0 0 8-8v-6.01h-5.73v-6.03a5.225 5.225 0 0 1 5.73-5.201v-4.836Z" clip-rule="evenodd"/>
  <defs>
    <linearGradient id="prefix__a" x1="47.806" x2="3.387" y1="-5.565" y2="52.647" gradientUnits="userSpaceOnUse">
      <stop stop-color="#70B1FF"/>
      <stop offset="1" stop-color="#005CCD"/>
    </linearGradient>
    <linearGradient id="prefix__b" x1="76.873" x2="115.848" y1="17.5" y2="45.777" gradientUnits="userSpaceOnUse">
      <stop stop-color="#70B1FF"/>
      <stop offset="1" stop-color="#005CCD"/>
    </linearGradient>
    <linearGradient id="prefix__c" x1="55.34" x2="-60.873" y1="-127.008" y2="-3.587" gradientUnits="userSpaceOnUse">
      <stop stop-color="#70B1FF"/>
      <stop offset="1" stop-color="#005CCD"/>
    </linearGradient>
    <linearGradient id="prefix__d" x1="69.788" x2="103.905" y1="95.254" y2="77.778" gradientUnits="userSpaceOnUse">
      <stop stop-color="#295296"/>
      <stop offset="1" stop-color="#3E78D3"/>
    </linearGradient>
  </defs>
</svg>
