<svg width="96" height="96" fill="none" viewBox="0 0 96 96" xmlns="http://www.w3.org/2000/svg">
  <path fill="url(#prefix__a)" d="M48 91 24.866 72.203A24 24 0 0 1 16 53.577V6h64v47.577a24 24 0 0 1-8.866 18.626L48 91Z" clip-rule="evenodd" opacity=".35"/>
  <path fill="url(#prefix__b)" d="M48 91V6h32v47.577a24 24 0 0 1-8.866 18.626L48 91Z" clip-rule="evenodd" opacity=".45"/>
  <path fill="url(#prefix__c)" d="M31.619 62.707a3.74 3.74 0 0 0 4.106-.812 3.751 3.751 0 0 0 .813-4.107l-4.919 4.919Zm10.235-10.235.127.002h.63v.842a2.11 2.11 0 0 0 2.104 2.105H48v-8.195l-.237.616c-.105.21-.315.369-.525.369h-.105c-.309 0-.564-.118-.722-.296l-4.557 4.557ZM48 36.426V26.58h-.026c-3.102 0-5.94 1.105-8.148 2.947l-4.1-4.105a3.752 3.752 0 0 0 0-5.316 3.74 3.74 0 0 0-5.31 0c-.631.632-.999 1.421-1.052 2.21a3.84 3.84 0 0 0-2.26 1.106 3.752 3.752 0 0 0 0 5.316 3.74 3.74 0 0 0 5.31 0l4.415 4.42c-.999 1.79-1.524 3.896-1.524 6.054 0 2.315.63 4.473 1.682 6.315-.263.421-.42.948-.42 1.474 0 .275.02.54.06.8l3.443-3.444a3.419 3.419 0 0 1-1.506-2.83c0-1.79 1.42-3.263 3.207-3.42h.21c1.183 0 2.222.595 2.834 1.505L48 36.427ZM31.735 52.691a3.941 3.941 0 0 0-1.95-.533c-.946 0-1.945.368-2.681 1.105a3.751 3.751 0 0 0-.554 4.613l5.185-5.185Z" clip-rule="evenodd" opacity=".52"/>
  <path fill="url(#prefix__d)" d="m48.634 45.692.549.782.473.631c.315.527-.105 1.106-.789 1.106h-.105c-.21 0-.42-.158-.525-.369L48 47.226v8.195h3.285a2.11 2.11 0 0 0 2.103-2.105v-.842h.631a5.41 5.41 0 0 0 1.84-.316l4.416 4.42a3.752 3.752 0 0 0 0 5.317 3.74 3.74 0 0 0 5.31 0c.578-.58.946-1.421 1.05-2.21a3.84 3.84 0 0 0 2.261-1.106 3.752 3.752 0 0 0 0-5.316 3.823 3.823 0 0 0-2.68-1.105c-.947 0-1.893.368-2.682 1.053l-4.416-4.422A5.13 5.13 0 0 0 59.434 47c0-.526-.158-1.053-.42-1.474 1.05-1.842 1.681-4 1.681-6.316a12.76 12.76 0 0 0-.881-4.698l-4.078 4.078c1.016.604 1.7 1.694 1.7 2.936 0 1.527-.999 2.79-2.365 3.263a3.388 3.388 0 0 1-1.052.158 3.409 3.409 0 0 1-2.95-1.69l-2.435 2.435ZM64.78 29.545a3.74 3.74 0 0 0 4.115-.808 3.752 3.752 0 0 0 .81-4.116l-4.925 4.924Zm.097-9.997a3.74 3.74 0 0 0-4.603.557 3.75 3.75 0 0 0-.559 4.605l5.162-5.162Zm-9.421 9.422a12.665 12.665 0 0 0-7.43-2.391H48v9.847l7.457-7.456Z" clip-rule="evenodd"/>
  <path fill="url(#prefix__e)" d="M48 91 24.866 72.203A24 24 0 0 1 16 53.577V6h64v47.577a24 24 0 0 1-8.866 18.626L48 91Zm18.09-25.005A16 16 0 0 0 72 53.577V14H24v39.577c0 1.998.373 3.952 1.078 5.772L48 36.427v9.899L29.067 65.259c.272.254.553.5.843.736L48 80.692l18.09-14.697Z" clip-rule="evenodd" opacity=".3"/>
  <path fill="url(#prefix__f)" d="M48 80.692V91l23.134-18.797A24 24 0 0 0 80 53.577V6H48v8h22.44L48 36.44v9.894l24-24v31.243a16 16 0 0 1-5.91 12.418L48 80.692Z" clip-rule="evenodd"/>
  <defs>
    <linearGradient id="prefix__a" x1="-21.755" x2="70.226" y1="115.934" y2="135.939" gradientUnits="userSpaceOnUse">
      <stop stop-color="#70B1FF"/>
      <stop offset="1" stop-color="#005CCD"/>
    </linearGradient>
    <linearGradient id="prefix__b" x1="29.122" x2="76.726" y1="115.934" y2="121.11" gradientUnits="userSpaceOnUse">
      <stop stop-color="#70B1FF"/>
      <stop offset="1" stop-color="#005CCD"/>
    </linearGradient>
    <linearGradient id="prefix__c" x1="52.5" x2="15.263" y1="-18.684" y2="-11.108" gradientUnits="userSpaceOnUse">
      <stop stop-color="#70B1FF"/>
      <stop offset="1" stop-color="#005CCD"/>
    </linearGradient>
    <linearGradient id="prefix__d" x1="62.048" x2="30.448" y1="71.815" y2="61.609" gradientUnits="userSpaceOnUse">
      <stop stop-color="#295296"/>
      <stop offset="1" stop-color="#3E78D3"/>
    </linearGradient>
    <linearGradient id="prefix__e" x1="8.252" x2="43.814" y1="75.162" y2="83.736" gradientUnits="userSpaceOnUse">
      <stop stop-color="#70B1FF"/>
      <stop offset="1" stop-color="#005CCD"/>
    </linearGradient>
    <linearGradient id="prefix__f" x1="36.99" x2="62.518" y1="25.513" y2="47.252" gradientUnits="userSpaceOnUse">
      <stop stop-color="#75A8F5"/>
      <stop offset="1" stop-color="#5486DC"/>
    </linearGradient>
  </defs>
</svg>
