<svg width="48" height="48" fill="none" viewBox="0 0 48 48" xmlns="http://www.w3.org/2000/svg">
  <path fill="url(#prefix__a)" d="M11.5 10.348h16.115l8.595 8.594v24.71H11.5V10.348Z" clip-rule="evenodd" opacity=".4"/>
  <path fill="url(#prefix__b)" d="M7.592 11.243 6 12.898 9.949 17 17.5 9.154 15.908 7.5l-5.96 6.191-2.356-2.448Z"/>
  <path fill="url(#prefix__c)" d="m27.615 10.348 8.595 8.594h-8.595v-8.594Z" clip-rule="evenodd"/>
  <path fill="url(#prefix__d)" d="M42.238 18.914a2 2 0 0 1 2.829 2.829l-15.91 15.91-4.243 1.414 1.414-4.243 15.91-15.91Z" clip-rule="evenodd" opacity=".5"/>
  <path fill="url(#prefix__e)" d="M36.21 24.943v5.656l-7.053 7.054-4.243 1.414 1.414-4.243 9.882-9.881Z" clip-rule="evenodd"/>
  <path fill="url(#prefix__f)" d="M11.75 21a8.75 8.75 0 1 0 0-17.5 8.75 8.75 0 0 0 0 17.5Z" clip-rule="evenodd" opacity=".5"/>
  <path fill="url(#prefix__g)" d="M11.5 12.08v3.308l4.851-5.04h-3.184L11.5 12.08Z" clip-rule="evenodd"/>
  <defs>
    <linearGradient id="prefix__a" x1="26.194" x2="55.904" y1="58.728" y2="34.38" gradientUnits="userSpaceOnUse">
      <stop stop-color="#70B1FF"/>
      <stop offset="1" stop-color="#005CCD"/>
    </linearGradient>
    <linearGradient id="prefix__b" x1="11.904" x2="3.536" y1="3.408" y2="11.593" gradientUnits="userSpaceOnUse">
      <stop stop-color="#70B1FF"/>
      <stop offset="1" stop-color="#477ED8"/>
    </linearGradient>
    <linearGradient id="prefix__c" x1="48.006" x2="34.228" y1="16.363" y2="-.195" gradientUnits="userSpaceOnUse">
      <stop stop-color="#295296"/>
      <stop offset="1" stop-color="#3E78D3"/>
    </linearGradient>
    <linearGradient id="prefix__d" x1="10.346" x2="17.392" y1="52.96" y2="58.351" gradientUnits="userSpaceOnUse">
      <stop stop-color="#70B1FF"/>
      <stop offset="1" stop-color="#005CCD"/>
    </linearGradient>
    <linearGradient id="prefix__e" x1="51.713" x2="28.706" y1="34.827" y2="12.715" gradientUnits="userSpaceOnUse">
      <stop stop-color="#295296"/>
      <stop offset="1" stop-color="#3E78D3"/>
    </linearGradient>
    <linearGradient id="prefix__f" x1="10.152" x2="-4.396" y1="-1.066" y2="13.726" gradientUnits="userSpaceOnUse">
      <stop stop-color="#70B1FF"/>
      <stop offset="1" stop-color="#005CCD"/>
    </linearGradient>
    <linearGradient id="prefix__g" x1="23.01" x2="14.879" y1="13.875" y2="4.471" gradientUnits="userSpaceOnUse">
      <stop stop-color="#295296"/>
      <stop offset="1" stop-color="#3E78D3"/>
    </linearGradient>
  </defs>
</svg>
