<svg width="96" height="96" fill="none" viewBox="0 0 96 96" xmlns="http://www.w3.org/2000/svg">
  <path fill="url(#prefix__a)" d="M45 47h6v28h-6z" opacity=".46"/>
  <path fill="url(#prefix__b)" d="M48.023 23c-5.523 0-10-4.477-10-10s4.477-10 10-10 10 4.477 10 10-4.477 10-10 10ZM69 47c0-11.598-9.402-21-21-21s-21 9.402-21 21h42Z" clip-rule="evenodd" opacity=".7"/>
  <path fill="url(#prefix__c)" d="M19 59v16h-6V53h70v22h-6V59H19Z" clip-rule="evenodd" opacity=".45"/>
  <path fill="url(#prefix__d)" d="M45 53h6v6h-6z"/>
  <path fill="url(#prefix__e)" d="M45 37h6v10h-6z"/>
  <path fill="url(#prefix__f)" d="M48.012 78.429a5.238 5.238 0 1 1 0-10.477 5.238 5.238 0 0 1 0 10.477ZM59 91c0-6.075-4.925-11-11-11s-11 4.925-11 11h22Z" clip-rule="evenodd" opacity=".7"/>
  <path fill="url(#prefix__g)" d="M51 68.888V75h-6v-6.095a5.214 5.214 0 0 1 3.012-.953c1.11 0 2.14.346 2.988.936Z" clip-rule="evenodd"/>
  <path fill="url(#prefix__h)" d="M80.012 78.429a5.238 5.238 0 1 1 0-10.477 5.238 5.238 0 0 1 0 10.477ZM91 91c0-6.075-4.925-11-11-11s-11 4.925-11 11h22Z" clip-rule="evenodd" opacity=".7"/>
  <path fill="url(#prefix__i)" d="M83 68.888V75h-6v-6.095a5.214 5.214 0 0 1 3.012-.953c1.11 0 2.14.346 2.988.936Z" clip-rule="evenodd"/>
  <path fill="url(#prefix__j)" d="M16.012 78.429a5.238 5.238 0 1 1 0-10.477 5.238 5.238 0 0 1 0 10.477ZM27 91c0-6.075-4.925-11-11-11S5 84.925 5 91h22Z" clip-rule="evenodd" opacity=".7"/>
  <path fill="url(#prefix__k)" d="M19 68.888V75h-6v-6.095a5.214 5.214 0 0 1 3.012-.953c1.11 0 2.14.346 2.988.936Z" clip-rule="evenodd"/>
  <defs>
    <linearGradient id="prefix__a" x1="54" x2="42.527" y1="61" y2="58.541" gradientUnits="userSpaceOnUse">
      <stop stop-color="#70B1FF"/>
      <stop offset="1" stop-color="#005CCD"/>
    </linearGradient>
    <linearGradient id="prefix__b" x1="90" x2="54.249" y1="29.282" y2="-13.092" gradientUnits="userSpaceOnUse">
      <stop stop-color="#70B1FF"/>
      <stop offset="1" stop-color="#005CCD"/>
    </linearGradient>
    <linearGradient id="prefix__c" x1="54.188" x2="39.469" y1="41.028" y2="84.054" gradientUnits="userSpaceOnUse">
      <stop stop-color="#70B1FF"/>
      <stop offset="1" stop-color="#005CCD"/>
    </linearGradient>
    <linearGradient id="prefix__d" x1="45" x2="45" y1="53" y2="59" gradientUnits="userSpaceOnUse">
      <stop stop-color="#5E93E4"/>
      <stop offset="1" stop-color="#6397E9"/>
    </linearGradient>
    <linearGradient id="prefix__e" x1="48.574" x2="58.181" y1="53.913" y2="47.046" gradientUnits="userSpaceOnUse">
      <stop stop-color="#295296"/>
      <stop offset="1" stop-color="#3E78D3"/>
    </linearGradient>
    <linearGradient id="prefix__f" x1="70" x2="51.273" y1="81.719" y2="59.523" gradientUnits="userSpaceOnUse">
      <stop stop-color="#70B1FF"/>
      <stop offset="1" stop-color="#005CCD"/>
    </linearGradient>
    <linearGradient id="prefix__g" x1="48.574" x2="55.729" y1="79.872" y2="72.615" gradientUnits="userSpaceOnUse">
      <stop stop-color="#295296"/>
      <stop offset="1" stop-color="#3E78D3"/>
    </linearGradient>
    <linearGradient id="prefix__h" x1="102" x2="83.273" y1="81.719" y2="59.523" gradientUnits="userSpaceOnUse">
      <stop stop-color="#70B1FF"/>
      <stop offset="1" stop-color="#005CCD"/>
    </linearGradient>
    <linearGradient id="prefix__i" x1="80.574" x2="87.729" y1="79.872" y2="72.615" gradientUnits="userSpaceOnUse">
      <stop stop-color="#295296"/>
      <stop offset="1" stop-color="#3E78D3"/>
    </linearGradient>
    <linearGradient id="prefix__j" x1="38" x2="19.273" y1="81.719" y2="59.523" gradientUnits="userSpaceOnUse">
      <stop stop-color="#70B1FF"/>
      <stop offset="1" stop-color="#005CCD"/>
    </linearGradient>
    <linearGradient id="prefix__k" x1="16.574" x2="23.729" y1="79.872" y2="72.615" gradientUnits="userSpaceOnUse">
      <stop stop-color="#295296"/>
      <stop offset="1" stop-color="#3E78D3"/>
    </linearGradient>
  </defs>
</svg>
