<svg width="96" height="96" fill="none" viewBox="0 0 96 96" xmlns="http://www.w3.org/2000/svg">
  <path fill="url(#prefix__a)" d="M45 11h6v50h-6V11Z" opacity=".3"/>
  <path fill="url(#prefix__b)" d="M45 10a3 3 0 1 1 6 0v1h-6v-1Z"/>
  <path fill="url(#prefix__c)" d="M8 15a4 4 0 0 1 4-4h72a4 4 0 0 1 4 4v42a4 4 0 0 1-4 4H12a4 4 0 0 1-4-4V15Z" opacity=".3"/>
  <path fill="url(#prefix__d)" d="M30 51c8.284 0 15-6.716 15-15 0-8.284-6.716-15-15-15-8.284 0-15 6.716-15 15 0 8.284 6.716 15 15 15Z" opacity=".35"/>
  <path fill="url(#prefix__e)" d="M45 36c0 4.142-1.679 7.892-4.393 10.607L30 36h15Z"/>
  <path fill="url(#prefix__f)" d="M30 21c8.284 0 15 6.716 15 15H30V21Z"/>
  <path fill="url(#prefix__g)" d="M52.5 29a2.5 2.5 0 1 0 0-5 2.5 2.5 0 0 0 0 5Z" opacity=".35"/>
  <path fill="url(#prefix__h)" d="M52.5 39a2.5 2.5 0 1 0 0-5 2.5 2.5 0 0 0 0 5Z" opacity=".6"/>
  <path fill="url(#prefix__i)" d="M58 24h23v5H58v-5Z"/>
  <path fill="url(#prefix__j)" d="M58 34h19v5H58v-5Z"/>
  <path fill="url(#prefix__k)" d="M58 44h23v5H58v-5Z"/>
  <path fill="url(#prefix__l)" d="M52.5 49a2.5 2.5 0 1 0 0-5 2.5 2.5 0 0 0 0 5Z"/>
  <path fill="url(#prefix__m)" d="M45 61h6v6l17 22h-6L48 70.882 34 89h-6l17-22v-6Z" clip-rule="evenodd"/>
  <defs>
    <linearGradient id="prefix__a" x1="47.564" x2="39.552" y1="8.476" y2="9.32" gradientUnits="userSpaceOnUse">
      <stop stop-color="#7CACF6"/>
      <stop offset="1" stop-color="#6093E3"/>
    </linearGradient>
    <linearGradient id="prefix__b" x1="47.564" x2="44.603" y1="6.798" y2="10.699" gradientUnits="userSpaceOnUse">
      <stop stop-color="#7CACF6"/>
      <stop offset="1" stop-color="#6093E3"/>
    </linearGradient>
    <linearGradient id="prefix__c" x1="-9.555" x2="58.204" y1="51.353" y2="93.546" gradientUnits="userSpaceOnUse">
      <stop stop-color="#70B1FF"/>
      <stop offset="1" stop-color="#005CCD"/>
    </linearGradient>
    <linearGradient id="prefix__d" x1="29.33" x2="10.314" y1="16.021" y2="37.891" gradientUnits="userSpaceOnUse">
      <stop stop-color="#70B1FF"/>
      <stop offset="1" stop-color="#005CCD"/>
    </linearGradient>
    <linearGradient id="prefix__e" x1="36.158" x2="46.04" y1="47.572" y2="40.024" gradientUnits="userSpaceOnUse">
      <stop stop-color="#295296"/>
      <stop offset="1" stop-color="#3E78D3"/>
    </linearGradient>
    <linearGradient id="prefix__f" x1="36.41" x2="24.979" y1="20.243" y2="30.285" gradientUnits="userSpaceOnUse">
      <stop stop-color="#7CACF6"/>
      <stop offset="1" stop-color="#6093E3"/>
    </linearGradient>
    <linearGradient id="prefix__g" x1="51.565" x2="46.243" y1="22.094" y2="27.385" gradientUnits="userSpaceOnUse">
      <stop stop-color="#70B1FF"/>
      <stop offset="1" stop-color="#005CCD"/>
    </linearGradient>
    <linearGradient id="prefix__h" x1="52.51" x2="47.51" y1="31.51" y2="36.49" gradientUnits="userSpaceOnUse">
      <stop stop-color="#70B1FF"/>
      <stop offset="1" stop-color="#005CCD"/>
    </linearGradient>
    <linearGradient id="prefix__i" x1="81" x2="58" y1="23.882" y2="23.882" gradientUnits="userSpaceOnUse">
      <stop stop-color="#93BCF3"/>
      <stop offset="1" stop-color="#7AA6E6"/>
    </linearGradient>
    <linearGradient id="prefix__j" x1="77" x2="58" y1="33.882" y2="33.882" gradientUnits="userSpaceOnUse">
      <stop stop-color="#93BCF3"/>
      <stop offset="1" stop-color="#7AA6E6"/>
    </linearGradient>
    <linearGradient id="prefix__k" x1="81" x2="58" y1="43.882" y2="43.882" gradientUnits="userSpaceOnUse">
      <stop stop-color="#93BCF3"/>
      <stop offset="1" stop-color="#7AA6E6"/>
    </linearGradient>
    <linearGradient id="prefix__l" x1="51.611" x2="56.725" y1="52.285" y2="47.407" gradientUnits="userSpaceOnUse">
      <stop stop-color="#295296"/>
      <stop offset="1" stop-color="#3E78D3"/>
    </linearGradient>
    <linearGradient id="prefix__m" x1="48.436" x2="53.008" y1="66.697" y2="70.714" gradientUnits="userSpaceOnUse">
      <stop stop-color="#7CACF6"/>
      <stop offset="1" stop-color="#6093E3"/>
    </linearGradient>
  </defs>
</svg>
