<svg width="48" height="48" fill="none" viewBox="0 0 48 48" xmlns="http://www.w3.org/2000/svg">
  <path fill="url(#prefix__a)" d="M22.5 5.5h3v25h-3v-25Z" opacity=".3"/>
  <path fill="url(#prefix__b)" d="M22.5 5a1.5 1.5 0 0 1 3 0v.5h-3V5Z"/>
  <path fill="url(#prefix__c)" d="M4 7.5a2 2 0 0 1 2-2h36a2 2 0 0 1 2 2v21a2 2 0 0 1-2 2H6a2 2 0 0 1-2-2v-21Z" opacity=".3"/>
  <path fill="url(#prefix__d)" d="M15 25.5a7.5 7.5 0 1 0 0-15 7.5 7.5 0 0 0 0 15Z" opacity=".35"/>
  <path fill="url(#prefix__e)" d="M22.5 18c0 2.071-.84 3.946-2.197 5.303L15 18h7.5Z"/>
  <path fill="url(#prefix__f)" d="M15 10.5a7.5 7.5 0 0 1 7.5 7.5H15v-7.5Z"/>
  <path fill="url(#prefix__g)" d="M26.25 14.5a1.25 1.25 0 1 0 0-2.5 1.25 1.25 0 0 0 0 2.5Z" opacity=".35"/>
  <path fill="url(#prefix__h)" d="M26.25 19.5a1.25 1.25 0 1 0 0-2.5 1.25 1.25 0 0 0 0 2.5Z" opacity=".6"/>
  <path fill="url(#prefix__i)" d="M29 12h11.5v2.5H29V12Z"/>
  <path fill="url(#prefix__j)" d="M29 17h9.5v2.5H29V17Z"/>
  <path fill="url(#prefix__k)" d="M29 22h11.5v2.5H29V22Z"/>
  <path fill="url(#prefix__l)" d="M26.25 24.5a1.25 1.25 0 1 0 0-2.5 1.25 1.25 0 0 0 0 2.5Z"/>
  <path fill="url(#prefix__m)" d="M22.5 30.5h3v3l8.5 11h-3l-7-9.059-7 9.059h-3l8.5-11v-3Z" clip-rule="evenodd"/>
  <defs>
    <linearGradient id="prefix__a" x1="23.782" x2="19.776" y1="4.238" y2="4.66" gradientUnits="userSpaceOnUse">
      <stop stop-color="#7CACF6"/>
      <stop offset="1" stop-color="#6093E3"/>
    </linearGradient>
    <linearGradient id="prefix__b" x1="23.782" x2="22.302" y1="3.399" y2="5.35" gradientUnits="userSpaceOnUse">
      <stop stop-color="#7CACF6"/>
      <stop offset="1" stop-color="#6093E3"/>
    </linearGradient>
    <linearGradient id="prefix__c" x1="-4.777" x2="29.102" y1="25.676" y2="46.773" gradientUnits="userSpaceOnUse">
      <stop stop-color="#70B1FF"/>
      <stop offset="1" stop-color="#005CCD"/>
    </linearGradient>
    <linearGradient id="prefix__d" x1="14.665" x2="5.157" y1="8.011" y2="18.945" gradientUnits="userSpaceOnUse">
      <stop stop-color="#70B1FF"/>
      <stop offset="1" stop-color="#005CCD"/>
    </linearGradient>
    <linearGradient id="prefix__e" x1="18.079" x2="23.02" y1="23.786" y2="20.012" gradientUnits="userSpaceOnUse">
      <stop stop-color="#295296"/>
      <stop offset="1" stop-color="#3E78D3"/>
    </linearGradient>
    <linearGradient id="prefix__f" x1="18.205" x2="12.489" y1="10.121" y2="15.142" gradientUnits="userSpaceOnUse">
      <stop stop-color="#7CACF6"/>
      <stop offset="1" stop-color="#6093E3"/>
    </linearGradient>
    <linearGradient id="prefix__g" x1="25.783" x2="23.122" y1="11.047" y2="13.693" gradientUnits="userSpaceOnUse">
      <stop stop-color="#70B1FF"/>
      <stop offset="1" stop-color="#005CCD"/>
    </linearGradient>
    <linearGradient id="prefix__h" x1="26.255" x2="23.755" y1="15.755" y2="18.245" gradientUnits="userSpaceOnUse">
      <stop stop-color="#70B1FF"/>
      <stop offset="1" stop-color="#005CCD"/>
    </linearGradient>
    <linearGradient id="prefix__i" x1="40.5" x2="29" y1="11.941" y2="11.941" gradientUnits="userSpaceOnUse">
      <stop stop-color="#93BCF3"/>
      <stop offset="1" stop-color="#7AA6E6"/>
    </linearGradient>
    <linearGradient id="prefix__j" x1="38.5" x2="29" y1="16.941" y2="16.941" gradientUnits="userSpaceOnUse">
      <stop stop-color="#93BCF3"/>
      <stop offset="1" stop-color="#7AA6E6"/>
    </linearGradient>
    <linearGradient id="prefix__k" x1="40.5" x2="29" y1="21.941" y2="21.941" gradientUnits="userSpaceOnUse">
      <stop stop-color="#93BCF3"/>
      <stop offset="1" stop-color="#7AA6E6"/>
    </linearGradient>
    <linearGradient id="prefix__l" x1="25.805" x2="28.363" y1="26.143" y2="23.703" gradientUnits="userSpaceOnUse">
      <stop stop-color="#295296"/>
      <stop offset="1" stop-color="#3E78D3"/>
    </linearGradient>
    <linearGradient id="prefix__m" x1="24.218" x2="26.504" y1="33.349" y2="35.357" gradientUnits="userSpaceOnUse">
      <stop stop-color="#7CACF6"/>
      <stop offset="1" stop-color="#6093E3"/>
    </linearGradient>
  </defs>
</svg>
