<svg width="48" height="48" fill="none" viewBox="0 0 48 48" xmlns="http://www.w3.org/2000/svg">
  <path fill="url(#prefix__a)" d="M14.5 10.5v17.08l14 7.92V19.04l-14-8.54Z" clip-rule="evenodd"/>
  <path fill="url(#prefix__b)" d="m.5 31 6.76-4.887a2.684 2.684 0 0 1 1.887-.49l21.947 2.593a2.651 2.651 0 0 1-.311 5.284H18.5l6.541 4.876a4.987 4.987 0 0 0 4.975.572l7.285-3.18a10.543 10.543 0 0 1 9.957.82.16.16 0 0 1-.02.279l-19.723 9.161c-.66.307-1.398.4-2.115.278-3.75-.64-16.275-2.595-24.9-1.806V31Z" clip-rule="evenodd" opacity=".55"/>
  <path fill="url(#prefix__c)" d="m28.5 2 14 8.059V27.44l-14 8.059-14-8.059V10.06L28.5 2Z" clip-rule="evenodd" opacity=".38"/>
  <path fill="url(#prefix__d)" d="m28.5 27.91-14-1.655v1.326L24.964 33.5H28.5v-5.59Z" clip-rule="evenodd"/>
  <defs>
    <linearGradient id="prefix__a" x1="12.239" x2="27.21" y1="15.03" y2="12.322" gradientUnits="userSpaceOnUse">
      <stop stop-color="#8EB7F7"/>
      <stop offset="1" stop-color="#7DA6E8"/>
    </linearGradient>
    <linearGradient id="prefix__b" x1="65.528" x2="46.616" y1="36" y2="3.53" gradientUnits="userSpaceOnUse">
      <stop stop-color="#70B1FF"/>
      <stop offset="1" stop-color="#005CCD"/>
    </linearGradient>
    <linearGradient id="prefix__c" x1="42.5" x2="42.5" y1="35.5" y2="2" gradientUnits="userSpaceOnUse">
      <stop stop-color="#70B1FF"/>
      <stop offset="1" stop-color="#005CCD"/>
    </linearGradient>
    <linearGradient id="prefix__d" x1="41.505" x2="34.025" y1="31.055" y2="16.334" gradientUnits="userSpaceOnUse">
      <stop stop-color="#295296"/>
      <stop offset="1" stop-color="#3E78D3"/>
    </linearGradient>
  </defs>
</svg>
