<svg width="96" height="96" fill="none" viewBox="0 0 96 96" xmlns="http://www.w3.org/2000/svg">
  <path fill="url(#prefix__a)" d="M29 21v34.162L57 71V38.08L29 21Z" clip-rule="evenodd"/>
  <path fill="url(#prefix__b)" d="m1 62 13.52-9.774a5.367 5.367 0 0 1 3.774-.98l43.894 5.185A5.302 5.302 0 0 1 61.566 67H37l13.082 9.751a9.974 9.974 0 0 0 9.95 1.145l14.57-6.359a21.085 21.085 0 0 1 19.913 1.639.32.32 0 0 1-.039.558L55.031 92.056a7.175 7.175 0 0 1-4.232.555C43.3 91.334 18.25 87.422 1 89V62Z" clip-rule="evenodd" opacity=".55"/>
  <path fill="url(#prefix__c)" d="m57 4 28 16.118v34.764L57 71 29 54.882V20.118L57 4Z" clip-rule="evenodd" opacity=".38"/>
  <path fill="url(#prefix__d)" d="M57 55.818 29 52.51v2.652L49.928 67H57V55.818Z" clip-rule="evenodd"/>
  <defs>
    <linearGradient id="prefix__a" x1="24.478" x2="54.42" y1="30.06" y2="24.644" gradientUnits="userSpaceOnUse">
      <stop stop-color="#8EB7F7"/>
      <stop offset="1" stop-color="#7DA6E8"/>
    </linearGradient>
    <linearGradient id="prefix__b" x1="131.055" x2="93.232" y1="72" y2="7.061" gradientUnits="userSpaceOnUse">
      <stop stop-color="#70B1FF"/>
      <stop offset="1" stop-color="#005CCD"/>
    </linearGradient>
    <linearGradient id="prefix__c" x1="85" x2="85" y1="71" y2="4" gradientUnits="userSpaceOnUse">
      <stop stop-color="#70B1FF"/>
      <stop offset="1" stop-color="#005CCD"/>
    </linearGradient>
    <linearGradient id="prefix__d" x1="83.011" x2="68.049" y1="62.11" y2="32.667" gradientUnits="userSpaceOnUse">
      <stop stop-color="#295296"/>
      <stop offset="1" stop-color="#3E78D3"/>
    </linearGradient>
  </defs>
</svg>
