<svg width="48" height="48" fill="none" viewBox="0 0 48 48" xmlns="http://www.w3.org/2000/svg">
  <path fill="url(#prefix__a)" d="m26.24 24.499-.611-.611-3.326 3.34a3.5 3.5 0 0 1-4.95 0l8.228-8.728H48v11h-8.722L28.107 39.602A1.5 1.5 0 0 1 25.647 38h-.18l-1.603 1.602A1.5 1.5 0 0 1 21.404 38h-.18l-1.603 1.602a1.5 1.5 0 1 1-2.121-2.121l.49-.49v-.213a1.5 1.5 0 0 1-1.55-2.479l9.8-9.8Z" clip-rule="evenodd" opacity=".55"/>
  <path fill="url(#prefix__b)" d="m21.26 29.499 9.8 9.8a1.5 1.5 0 0 1-1.55 2.479v.213l.49.49a1.5 1.5 0 1 1-2.121 2.121L26.276 43h-.18a1.5 1.5 0 0 1-2.46 1.602L22.034 43h-.18a1.5 1.5 0 0 1-2.46 1.602L8.221 34.5H0v-11h21.919l8.227 8.728a3.5 3.5 0 0 1-4.95 0l-3.325-3.34-.61.61Z" clip-rule="evenodd" opacity=".42"/>
  <path fill="url(#prefix__c)" d="m23.91 25.613-1.607 1.615a3.5 3.5 0 0 1-4.95 0l3.515-3.728h1.05l1.993 2.113Z" clip-rule="evenodd"/>
  <path fill="url(#prefix__d)" d="M28.107 39.602A1.5 1.5 0 0 1 25.647 38h-.18l-1.603 1.602A1.5 1.5 0 0 1 21.404 38h-.18l-1.603 1.602a1.5 1.5 0 1 1-2.121-2.121l.49-.49v-.213a1.5 1.5 0 0 1-1.55-2.48l8.06-8.06 5.646 5.99a3.5 3.5 0 0 1-4.95 0l-3.325-3.34-.61.61 8.556 8.557-1.71 1.547Z" clip-rule="evenodd"/>
  <path fill="url(#prefix__e)" d="M30.349 21H17.962l-2.188 5H12.5L22.781 2.5h2.749L35.81 26h-3.275l-2.187-5Zm-1.094-2.5-.875-2h-8.45l-.874 2h10.199Zm-5.1-11.656L27.286 14h-6.262l3.131-7.156Z" clip-rule="evenodd" opacity=".7" style="mix-blend-mode:multiply"/>
  <path fill="url(#prefix__f)" d="M23.225 21h7.124l2.187 5h3.275l-3.281-7.5h-6.95L23.225 21Zm-6.357 2.5h-3.274L12.5 26h3.274l1.094-2.5Z" clip-rule="evenodd"/>
  <defs>
    <linearGradient id="prefix__a" x1="32" x2="14.478" y1="8.707" y2="37.333" gradientUnits="userSpaceOnUse">
      <stop stop-color="#70B1FF"/>
      <stop offset="1" stop-color="#005CCD"/>
    </linearGradient>
    <linearGradient id="prefix__b" x1="13.858" x2="-5.638" y1="12.72" y2="43.739" gradientUnits="userSpaceOnUse">
      <stop stop-color="#70B1FF"/>
      <stop offset="1" stop-color="#005CCD"/>
    </linearGradient>
    <linearGradient id="prefix__c" x1="10.707" x2="8.477" y1="21.986" y2="38.536" gradientUnits="userSpaceOnUse">
      <stop stop-color="#689CEF"/>
      <stop offset="1" stop-color="#4B82DA"/>
    </linearGradient>
    <linearGradient id="prefix__d" x1="13.797" x2="9.731" y1="21.474" y2="37.637" gradientUnits="userSpaceOnUse">
      <stop stop-color="#689CEF"/>
      <stop offset="1" stop-color="#4B82DA"/>
    </linearGradient>
    <linearGradient id="prefix__e" x1="25.388" x2="1.91" y1="-6.764" y2="14.062" gradientUnits="userSpaceOnUse">
      <stop stop-color="#70B1FF"/>
      <stop offset="1" stop-color="#005CCD"/>
    </linearGradient>
    <linearGradient id="prefix__f" x1="25.654" x2="27.739" y1="28.492" y2="17.488" gradientUnits="userSpaceOnUse">
      <stop stop-color="#295296"/>
      <stop offset="1" stop-color="#3E78D3"/>
    </linearGradient>
  </defs>
</svg>
