<svg width="48" height="48" fill="none" viewBox="0 0 48 48" xmlns="http://www.w3.org/2000/svg">
  <path fill="#fff" d="M38.295 15.638h1.252v9.387h-1.252z"/>
  <path fill="url(#prefix__a)" d="M37.802 14.263c.769-1.336 2.697-1.336 3.466 0l4.95 8.597c.768 1.333-.195 2.998-1.733 2.998h-9.9c-1.538 0-2.5-1.665-1.733-2.998l4.95-8.597Zm.848 2.36a.886.886 0 1 1 1.768 0l-.23 4.287a.655.655 0 0 1-1.308 0l-.23-4.286Zm1.818 6.776a.934.934 0 1 1-1.868 0 .934.934 0 0 1 1.868 0Z" clip-rule="evenodd" opacity=".5"/>
  <mask id="prefix__c" width="10" height="19" x="30" y="10" maskUnits="userSpaceOnUse" style="mask-type:alpha">
    <path fill="url(#prefix__b)" d="M30.786 10.632h8.761v17.522h-8.761z"/>
  </mask>
  <g mask="url(#prefix__c)">
    <path fill="url(#prefix__d)" d="M37.803 14.263c.769-1.336 2.697-1.336 3.466 0l4.95 8.597c.768 1.333-.195 2.998-1.733 2.998h-9.9c-1.539 0-2.5-1.665-1.733-2.998l4.95-8.597Zm.848 2.36a.886.886 0 1 1 1.768 0l-.23 4.287a.655.655 0 0 1-1.308 0l-.23-4.286Zm1.818 6.776a.934.934 0 1 1-1.868 0 .934.934 0 0 1 1.868 0Z" clip-rule="evenodd"/>
  </g>
  <path fill="url(#prefix__e)" d="M2 30.03c0 .922.747 1.67 1.669 1.67h34.209c.921 0 1.668-.747 1.668-1.67V6.67c0-.923-.746-1.67-1.668-1.67H3.668A1.67 1.67 0 0 0 2 6.669V30.03Z" clip-rule="evenodd" opacity=".35" style="mix-blend-mode:multiply"/>
  <path fill="url(#prefix__f)" d="M16.875 42.964 8.257 38.02l.42-.723a3.371 3.371 0 0 1 4.589-1.222l3.883 2.228-7.595-13.07a2.078 2.078 0 0 1 .768-2.85 2.107 2.107 0 0 1 2.868.764l4.2 7.225a2.082 2.082 0 0 1 1.034-1.556 2.107 2.107 0 0 1 2.869.763l.42.723a2.082 2.082 0 0 1 1.034-1.557 2.107 2.107 0 0 1 2.868.763l.42.723a2.107 2.107 0 0 1 3.75-.223l5.171 12.955H16.875Z" clip-rule="evenodd" opacity=".45"/>
  <path fill="url(#prefix__g)" d="M16.271 20.644a2 2 0 0 1 2 2v1.007a2 2 0 0 1-2 2H7.13a2 2 0 0 1-2-2v-1.007a2 2 0 0 1 2-2h9.141Z" clip-rule="evenodd" opacity=".346" style="mix-blend-mode:multiply"/>
  <path fill="url(#prefix__h)" d="M33.915 8.755v3.128H5.13V8.755h28.785Z" clip-rule="evenodd" opacity=".346" style="mix-blend-mode:multiply"/>
  <path fill="url(#prefix__i)" d="M27.658 13.76v3.13H5.13v-3.13h22.528Z" clip-rule="evenodd" opacity=".346" style="mix-blend-mode:multiply"/>
  <defs>
    <linearGradient id="prefix__a" x1="32.834" x2="24.21" y1="7.821" y2="23.815" gradientUnits="userSpaceOnUse">
      <stop stop-color="#70B1FF"/>
      <stop offset="1" stop-color="#005CCD"/>
    </linearGradient>
    <linearGradient id="prefix__b" x1="17.78" x2="39.653" y1=".132" y2="24.051" gradientUnits="userSpaceOnUse">
      <stop stop-color="#295296"/>
      <stop offset="1" stop-color="#3E78D3"/>
    </linearGradient>
    <linearGradient id="prefix__d" x1="11.939" x2="23.103" y1="5.712" y2="32.665" gradientUnits="userSpaceOnUse">
      <stop stop-color="#295296"/>
      <stop offset="1" stop-color="#3E78D3"/>
    </linearGradient>
    <linearGradient id="prefix__e" x1="20.773" x2="45.993" y1="45.05" y2="9.584" gradientUnits="userSpaceOnUse">
      <stop stop-color="#70B1FF"/>
      <stop offset="1" stop-color="#005CCD"/>
    </linearGradient>
    <linearGradient id="prefix__f" x1="47.431" x2="28.243" y1="33.104" y2="8.828" gradientUnits="userSpaceOnUse">
      <stop stop-color="#70B1FF"/>
      <stop offset="1" stop-color="#005CCD"/>
    </linearGradient>
    <linearGradient id="prefix__g" x1="11.7" x2="15.031" y1="28.154" y2="19.41" gradientUnits="userSpaceOnUse">
      <stop stop-color="#70B1FF"/>
      <stop offset="1" stop-color="#005CCD"/>
    </linearGradient>
    <linearGradient id="prefix__h" x1="19.523" x2="20.195" y1="13.448" y2="7.263" gradientUnits="userSpaceOnUse">
      <stop stop-color="#70B1FF"/>
      <stop offset="1" stop-color="#005CCD"/>
    </linearGradient>
    <linearGradient id="prefix__i" x1="16.394" x2="17.247" y1="18.454" y2="12.315" gradientUnits="userSpaceOnUse">
      <stop stop-color="#70B1FF"/>
      <stop offset="1" stop-color="#005CCD"/>
    </linearGradient>
  </defs>
</svg>
