<svg width="48" height="48" fill="none" viewBox="0 0 48 48" xmlns="http://www.w3.org/2000/svg">
  <path fill="url(#prefix__a)" d="M24 21.5H8v5.288a12 12 0 0 0 4.433 9.314L24 45.5v-24Z" clip-rule="evenodd" opacity=".35"/>
  <path fill="url(#prefix__b)" d="M24 21.5H8v5.288a12 12 0 0 0 4.433 9.314L24 45.5v-24Z" clip-rule="evenodd" opacity=".35"/>
  <path fill="url(#prefix__c)" d="m24 45.5 11.567-9.398A12 12 0 0 0 40 26.788V21.5H24v24Z" clip-rule="evenodd" opacity=".35"/>
  <path fill="url(#prefix__d)" d="m24 45.5 11.567-9.398A12 12 0 0 0 40 26.788V21.5H24v24Z" clip-rule="evenodd" opacity=".7"/>
  <path fill="url(#prefix__e)" d="M24 21.5h16V3H24v18.5Z" clip-rule="evenodd"/>
  <path fill="url(#prefix__f)" d="M24 21.5h16V3H24v18.5Z" clip-rule="evenodd" opacity=".5"/>
  <path fill="url(#prefix__g)" d="M24 3H8v18.5h16V3Z" clip-rule="evenodd" opacity=".35"/>
  <path fill="url(#prefix__h)" d="M12.433 36.102 24 45.5l11.567-9.398A12 12 0 0 0 40 26.788V3H8v23.788a12 12 0 0 0 4.433 9.314ZM36 26.788a8 8 0 0 1-2.955 6.21L24 40.345l-9.045-7.349A8 8 0 0 1 12 26.788V7h24v19.788Z" clip-rule="evenodd" opacity=".3"/>
  <defs>
    <linearGradient id="prefix__a" x1="-10.878" x2="35.113" y1="57.967" y2="67.969" gradientUnits="userSpaceOnUse">
      <stop stop-color="#70B1FF"/>
      <stop offset="1" stop-color="#005CCD"/>
    </linearGradient>
    <linearGradient id="prefix__b" x1="-10.878" x2="35.113" y1="57.967" y2="67.969" gradientUnits="userSpaceOnUse">
      <stop stop-color="#70B1FF"/>
      <stop offset="1" stop-color="#005CCD"/>
    </linearGradient>
    <linearGradient id="prefix__c" x1="5.122" x2="51.972" y1="92.808" y2="100.663" gradientUnits="userSpaceOnUse">
      <stop stop-color="#70B1FF"/>
      <stop offset="1" stop-color="#005CCD"/>
    </linearGradient>
    <linearGradient id="prefix__d" x1="34.216" x2="12.807" y1="50.308" y2="41.089" gradientUnits="userSpaceOnUse">
      <stop stop-color="#295296"/>
      <stop offset="1" stop-color="#3E78D3"/>
    </linearGradient>
    <linearGradient id="prefix__e" x1="18.495" x2="23.056" y1="7.247" y2="16.171" gradientUnits="userSpaceOnUse">
      <stop stop-color="#75A8F5"/>
      <stop offset="1" stop-color="#5486DC"/>
    </linearGradient>
    <linearGradient id="prefix__f" x1="34.216" x2="14.874" y1="25.206" y2="14.4" gradientUnits="userSpaceOnUse">
      <stop stop-color="#295296"/>
      <stop offset="1" stop-color="#3E78D3"/>
    </linearGradient>
    <linearGradient id="prefix__g" x1="-10.878" x2="35.113" y1="57.967" y2="67.969" gradientUnits="userSpaceOnUse">
      <stop stop-color="#70B1FF"/>
      <stop offset="1" stop-color="#005CCD"/>
    </linearGradient>
    <linearGradient id="prefix__h" x1="4.126" x2="21.907" y1="37.581" y2="41.868" gradientUnits="userSpaceOnUse">
      <stop stop-color="#70B1FF"/>
      <stop offset="1" stop-color="#005CCD"/>
    </linearGradient>
  </defs>
</svg>
