<svg width="96" height="96" fill="none" viewBox="0 0 96 96" xmlns="http://www.w3.org/2000/svg">
  <path fill="url(#prefix__a)" d="M48 43H16v10.577a24 24 0 0 0 8.866 18.626L48 91V43Z" clip-rule="evenodd" opacity=".35"/>
  <path fill="url(#prefix__b)" d="M48 43H16v10.577a24 24 0 0 0 8.866 18.626L48 91V43Z" clip-rule="evenodd" opacity=".35"/>
  <path fill="url(#prefix__c)" d="m48 91 23.134-18.797A24 24 0 0 0 80 53.577V43H48v48Z" clip-rule="evenodd" opacity=".35"/>
  <path fill="url(#prefix__d)" d="m48 91 23.134-18.797A24 24 0 0 0 80 53.577V43H48v48Z" clip-rule="evenodd" opacity=".7"/>
  <path fill="url(#prefix__e)" d="M48 43h32V6H48v37Z" clip-rule="evenodd"/>
  <path fill="url(#prefix__f)" d="M48 43h32V6H48v37Z" clip-rule="evenodd" opacity=".5"/>
  <path fill="url(#prefix__g)" d="M48 6H16v37h32V6Z" clip-rule="evenodd" opacity=".35"/>
  <path fill="url(#prefix__h)" d="M24.866 72.203 48 91l23.134-18.797A24 24 0 0 0 80 53.577V6H16v47.577a24 24 0 0 0 8.866 18.626ZM72 53.577a16 16 0 0 1-5.91 12.418L48 80.692 29.91 65.995A16 16 0 0 1 24 53.577V14h48v39.577Z" clip-rule="evenodd" opacity=".3"/>
  <defs>
    <linearGradient id="prefix__a" x1="-21.755" x2="70.226" y1="115.934" y2="135.939" gradientUnits="userSpaceOnUse">
      <stop stop-color="#70B1FF"/>
      <stop offset="1" stop-color="#005CCD"/>
    </linearGradient>
    <linearGradient id="prefix__b" x1="-21.755" x2="70.226" y1="115.934" y2="135.939" gradientUnits="userSpaceOnUse">
      <stop stop-color="#70B1FF"/>
      <stop offset="1" stop-color="#005CCD"/>
    </linearGradient>
    <linearGradient id="prefix__c" x1="10.245" x2="103.944" y1="185.617" y2="201.325" gradientUnits="userSpaceOnUse">
      <stop stop-color="#70B1FF"/>
      <stop offset="1" stop-color="#005CCD"/>
    </linearGradient>
    <linearGradient id="prefix__d" x1="68.433" x2="25.615" y1="100.616" y2="82.178" gradientUnits="userSpaceOnUse">
      <stop stop-color="#295296"/>
      <stop offset="1" stop-color="#3E78D3"/>
    </linearGradient>
    <linearGradient id="prefix__e" x1="36.99" x2="46.113" y1="14.494" y2="32.342" gradientUnits="userSpaceOnUse">
      <stop stop-color="#75A8F5"/>
      <stop offset="1" stop-color="#5486DC"/>
    </linearGradient>
    <linearGradient id="prefix__f" x1="68.433" x2="29.748" y1="50.413" y2="28.801" gradientUnits="userSpaceOnUse">
      <stop stop-color="#295296"/>
      <stop offset="1" stop-color="#3E78D3"/>
    </linearGradient>
    <linearGradient id="prefix__g" x1="-21.755" x2="70.226" y1="115.934" y2="135.939" gradientUnits="userSpaceOnUse">
      <stop stop-color="#70B1FF"/>
      <stop offset="1" stop-color="#005CCD"/>
    </linearGradient>
    <linearGradient id="prefix__h" x1="8.252" x2="43.814" y1="75.162" y2="83.736" gradientUnits="userSpaceOnUse">
      <stop stop-color="#70B1FF"/>
      <stop offset="1" stop-color="#005CCD"/>
    </linearGradient>
  </defs>
</svg>
