<svg width="96" height="96" fill="none" viewBox="0 0 96 96" xmlns="http://www.w3.org/2000/svg">
  <path fill="url(#prefix__a)" d="M44 81H10v8h77v-8H52V48h-8v33Z" clip-rule="evenodd" opacity=".4"/>
  <path fill="url(#prefix__b)" d="M48 71 29.926 56.405A18.591 18.591 0 0 1 23 41.942V7h50v34.942a18.591 18.591 0 0 1-6.926 14.463L48 71Z" clip-rule="evenodd" opacity=".4"/>
  <path fill="url(#prefix__c)" d="M34 79h28v12H34z"/>
  <path fill="url(#prefix__d)" d="M48 7h25v34.942a18.591 18.591 0 0 1-6.926 14.463L48 71V7Z" clip-rule="evenodd" opacity=".25"/>
  <path fill="url(#prefix__e)" d="M44 67.77 48 71l4-3.23V48h-8v19.77Z" clip-rule="evenodd"/>
  <defs>
    <linearGradient id="prefix__a" x1="-56.262" x2="-.725" y1="75.891" y2="152.552" gradientUnits="userSpaceOnUse">
      <stop stop-color="#70B1FF"/>
      <stop offset="1" stop-color="#005CCD"/>
    </linearGradient>
    <linearGradient id="prefix__b" x1="-6.496" x2="65.116" y1="89.773" y2="105.934" gradientUnits="userSpaceOnUse">
      <stop stop-color="#70B1FF"/>
      <stop offset="1" stop-color="#005CCD"/>
    </linearGradient>
    <linearGradient id="prefix__c" x1="40.844" x2="53.709" y1="101.18" y2="76.513" gradientUnits="userSpaceOnUse">
      <stop stop-color="#295296"/>
      <stop offset="1" stop-color="#3E78D3"/>
    </linearGradient>
    <linearGradient id="prefix__d" x1="60.5" x2="103.881" y1="103" y2="86.054" gradientUnits="userSpaceOnUse">
      <stop stop-color="#70B1FF"/>
      <stop offset="1" stop-color="#005CCD"/>
    </linearGradient>
    <linearGradient id="prefix__e" x1="45.956" x2="61.847" y1="90.512" y2="85.969" gradientUnits="userSpaceOnUse">
      <stop stop-color="#295296"/>
      <stop offset="1" stop-color="#3E78D3"/>
    </linearGradient>
  </defs>
</svg>
