<svg width="48" height="48" fill="none" viewBox="0 0 48 48" xmlns="http://www.w3.org/2000/svg">
  <path fill="url(#prefix__a)" d="M3.375 7.75h41.25c1.035 0 1.875.84 1.875 1.875v25c0 1.035-.84 1.875-1.875 1.875H3.375A1.875 1.875 0 0 1 1.5 34.625v-25c0-1.036.84-1.875 1.875-1.875Z" clip-rule="evenodd" opacity=".35"/>
  <path fill="url(#prefix__b)" d="M18.813 36.5h10.875L31.5 43H17l1.813-6.5Z" clip-rule="evenodd" opacity=".5"/>
  <path fill="url(#prefix__c)" d="M1.5 32.125h45v2.5c0 1.035-.84 1.875-1.875 1.875H3.375A1.875 1.875 0 0 1 1.5 34.625v-2.5Z" clip-rule="evenodd"/>
  <path fill="url(#prefix__d)" d="m31.06 25.574-2.006-2.01c.095-.239.143-.526.143-.813 0-.239-.072-.478-.191-.67a5.782 5.782 0 0 0 .072-5.622l2.007-2.01a1.7 1.7 0 0 0 2.413 0c.67-.67.67-1.746 0-2.415a1.745 1.745 0 0 0-1.027-.503 1.798 1.798 0 0 0-.478-1.005 1.7 1.7 0 0 0-2.414 0 1.705 1.705 0 0 0 0 2.417l-1.887 1.842a5.759 5.759 0 0 0-3.704-1.34c-1.41 0-2.7.502-3.704 1.34l-1.863-1.866a1.706 1.706 0 0 0 0-2.417 1.7 1.7 0 0 0-2.414 0 1.587 1.587 0 0 0-.478 1.005c-.382.048-.74.216-1.027.503-.67.67-.67 1.746 0 2.416a1.7 1.7 0 0 0 2.413 0l2.007 2.01a5.665 5.665 0 0 0-.693 2.75 5.78 5.78 0 0 0 .765 2.871c-.12.192-.191.431-.191.67 0 .287.048.55.143.814l-2.007 2.01a1.868 1.868 0 0 0-1.219-.48c-.43 0-.884.168-1.218.503-.67.67-.67 1.747 0 2.416.287.288.645.455 1.027.503.048.359.215.741.478 1.005a1.7 1.7 0 0 0 2.413 0c.67-.67.67-1.747 0-2.417l2.008-2.01c.263.096.55.144.836.144h.287v.383c0 .526.43.957.956.957h2.986a.96.96 0 0 0 .956-.957v-.383h.287c.287 0 .573-.047.836-.143l2.007 2.01a1.705 1.705 0 0 0 0 2.416 1.7 1.7 0 0 0 2.414 0 1.59 1.59 0 0 0 .478-1.005c.382-.048.74-.215 1.027-.503.67-.67.67-1.746 0-2.416-.669-.646-1.768-.67-2.437 0Zm-2.795-5.335c0 .694-.454 1.268-1.075 1.483a1.54 1.54 0 0 1-.478.072c-.86 0-1.553-.694-1.553-1.555s.693-1.555 1.553-1.555h.096a1.55 1.55 0 0 1 1.457 1.555Zm-8.554 0c0-.813.645-1.483 1.458-1.555h.095c.86 0 1.553.694 1.553 1.555s-.693 1.555-1.553 1.555a1.54 1.54 0 0 1-.478-.072 1.574 1.574 0 0 1-1.075-1.483Zm4.707 3.038h-.048c-.12 0-.215-.071-.239-.167l-.12-.311-.119.311c-.047.096-.143.168-.238.168h-.048c-.31 0-.502-.264-.359-.503l.215-.287.454-.646c.048-.072.168-.072.215 0l.454.646.215.287c.12.215-.071.503-.382.503Z" opacity=".7"/>
  <defs>
    <linearGradient id="prefix__a" x1="21.622" x2="6.156" y1="2.215" y2="31.316" gradientUnits="userSpaceOnUse">
      <stop stop-color="#70B1FF"/>
      <stop offset="1" stop-color="#005CCD"/>
    </linearGradient>
    <linearGradient id="prefix__b" x1="21.453" x2="17.442" y1="30.742" y2="43.143" gradientUnits="userSpaceOnUse">
      <stop stop-color="#70B1FF"/>
      <stop offset="1" stop-color="#005CCD"/>
    </linearGradient>
    <linearGradient id="prefix__c" x1="24" x2="23.157" y1="29.938" y2="38.606" gradientUnits="userSpaceOnUse">
      <stop stop-color="#95C0FC"/>
      <stop offset="1" stop-color="#5C8EDA"/>
    </linearGradient>
    <linearGradient id="prefix__d" x1="38.091" x2="7.846" y1="-7.129" y2="5.178" gradientUnits="userSpaceOnUse">
      <stop stop-color="#70B1FF"/>
      <stop offset=".846" stop-color="#005CCD"/>
    </linearGradient>
  </defs>
</svg>
