<svg width="96" height="96" fill="none" viewBox="0 0 96 96" xmlns="http://www.w3.org/2000/svg">
  <path fill="url(#prefix__a)" d="M6.75 15.5h82.5A3.75 3.75 0 0 1 93 19.25v50A3.75 3.75 0 0 1 89.25 73H6.75A3.75 3.75 0 0 1 3 69.25v-50a3.75 3.75 0 0 1 3.75-3.75Z" clip-rule="evenodd" opacity=".35"/>
  <path fill="url(#prefix__b)" d="M37.625 73h21.75L63 86H34l3.625-13Z" clip-rule="evenodd" opacity=".5"/>
  <path fill="url(#prefix__c)" d="M3 64.25h90v5A3.75 3.75 0 0 1 89.25 73H6.75A3.75 3.75 0 0 1 3 69.25v-5Z" clip-rule="evenodd"/>
  <path fill="url(#prefix__d)" d="m62.122 51.148-4.014-4.019c.19-.478.286-1.052.286-1.627 0-.478-.143-.957-.382-1.34a11.566 11.566 0 0 0 1.53-5.74c0-2.01-.526-3.877-1.387-5.503l4.015-4.02a3.4 3.4 0 0 0 4.826 0 3.41 3.41 0 0 0 0-4.832 3.49 3.49 0 0 0-2.054-1.005c-.096-.718-.43-1.483-.956-2.01a3.4 3.4 0 0 0-4.827 0 3.41 3.41 0 0 0 0 4.833l-3.776 3.684a11.516 11.516 0 0 0-7.407-2.679c-2.82 0-5.4 1.005-7.407 2.68l-3.728-3.733a3.41 3.41 0 0 0 0-4.832 3.4 3.4 0 0 0-4.827 0c-.573.574-.908 1.292-.956 2.01a3.49 3.49 0 0 0-2.054 1.004 3.41 3.41 0 0 0 0 4.833 3.4 3.4 0 0 0 4.826 0l4.015 4.019c-.908 1.627-1.386 3.54-1.386 5.502 0 2.105.573 4.067 1.53 5.742a2.574 2.574 0 0 0-.383 1.34c0 .574.095 1.1.286 1.626l-4.014 4.02c-.717-.623-1.577-.957-2.437-.957-.86 0-1.768.334-2.437 1.004a3.41 3.41 0 0 0 0 4.833 3.49 3.49 0 0 0 2.054 1.005c.096.717.43 1.483.956 2.01a3.4 3.4 0 0 0 4.827 0 3.41 3.41 0 0 0 0-4.833l4.014-4.02c.526.192 1.1.288 1.673.288h.574v.765c0 1.053.86 1.914 1.911 1.914h5.974a1.918 1.918 0 0 0 1.911-1.914v-.765h.574c.573 0 1.147-.096 1.673-.287l4.014 4.019a3.41 3.41 0 0 0 0 4.832 3.4 3.4 0 0 0 4.827 0c.573-.574.908-1.292.956-2.01a3.49 3.49 0 0 0 2.054-1.004 3.41 3.41 0 0 0 0-4.833c-1.338-1.292-3.536-1.34-4.874 0Zm-5.591-10.67c0 1.388-.908 2.536-2.151 2.967a3.077 3.077 0 0 1-.956.144 3.102 3.102 0 0 1-3.106-3.11 3.102 3.102 0 0 1 3.106-3.11h.191a3.098 3.098 0 0 1 2.916 3.11Zm-17.11 0c0-1.626 1.291-2.966 2.916-3.11h.191a3.102 3.102 0 0 1 3.106 3.11 3.102 3.102 0 0 1-3.106 3.11c-.334 0-.669-.047-.956-.143-1.242-.43-2.15-1.579-2.15-2.967Zm9.415 6.077h-.095c-.24 0-.43-.144-.478-.335l-.24-.622-.238.622c-.096.191-.287.335-.478.335h-.096c-.62 0-1.003-.526-.716-1.005l.43-.574.908-1.292c.095-.143.334-.143.43 0l.908 1.292.43.574c.239.43-.143 1.005-.765 1.005Z" opacity=".7"/>
  <defs>
    <linearGradient id="prefix__a" x1="43.244" x2="12.313" y1="4.43" y2="62.631" gradientUnits="userSpaceOnUse">
      <stop stop-color="#70B1FF"/>
      <stop offset="1" stop-color="#005CCD"/>
    </linearGradient>
    <linearGradient id="prefix__b" x1="42.906" x2="34.883" y1="61.484" y2="86.286" gradientUnits="userSpaceOnUse">
      <stop stop-color="#70B1FF"/>
      <stop offset="1" stop-color="#005CCD"/>
    </linearGradient>
    <linearGradient id="prefix__c" x1="48" x2="46.315" y1="59.875" y2="77.211" gradientUnits="userSpaceOnUse">
      <stop stop-color="#95C0FC"/>
      <stop offset="1" stop-color="#5C8EDA"/>
    </linearGradient>
    <linearGradient id="prefix__d" x1="76.181" x2="15.693" y1="-14.258" y2="10.357" gradientUnits="userSpaceOnUse">
      <stop stop-color="#70B1FF"/>
      <stop offset=".846" stop-color="#005CCD"/>
    </linearGradient>
  </defs>
</svg>
