<svg width="48" height="48" fill="none" viewBox="0 0 48 48" xmlns="http://www.w3.org/2000/svg">
  <path fill="url(#prefix__a)" d="M9.5 16.5a6 6 0 1 0 0-12 6 6 0 0 0 0 12Z" clip-rule="evenodd" opacity=".35"/>
  <path fill="url(#prefix__b)" d="M9.5 30a6 6 0 1 0 0-12 6 6 0 0 0 0 12Z" clip-rule="evenodd" opacity=".35"/>
  <path fill="url(#prefix__c)" d="M9.5 43.5a6 6 0 1 0 0-12 6 6 0 0 0 0 12Z" clip-rule="evenodd" opacity=".35"/>
  <path fill="url(#prefix__d)" d="M18.5 8.5h26v4h-26z" opacity=".45"/>
  <path fill="url(#prefix__e)" d="M18.5 8.5h23v4h-23z"/>
  <path fill="url(#prefix__f)" d="M18.5 35.5h26v4h-26z" opacity=".45"/>
  <path fill="url(#prefix__g)" d="M18.5 35.5h17v4h-17z"/>
  <path fill="url(#prefix__h)" fill-opacity=".45" d="M18.5 22h26v4h-26z"/>
  <path fill="url(#prefix__i)" d="M18.5 22H31v4H18.5z"/>
  <path fill="url(#prefix__j)" d="M6.707 9.294 5.293 10.71 8.5 13.914l5.207-5.207-1.414-1.414L8.5 11.086 6.707 9.294Z"/>
  <path fill="url(#prefix__k)" d="M6.707 22.794 5.293 24.21 8.5 27.414l5.207-5.207-1.414-1.414L8.5 24.586l-1.793-1.792Z"/>
  <path fill="url(#prefix__l)" d="M6.707 36.294 5.293 37.71 8.5 40.914l5.207-5.207-1.414-1.414L8.5 38.086l-1.793-1.792Z"/>
  <defs>
    <linearGradient id="prefix__a" x1="10.636" x2="21.5" y1="21.932" y2="9.932" gradientUnits="userSpaceOnUse">
      <stop stop-color="#70B1FF"/>
      <stop offset="1" stop-color="#005CCD"/>
    </linearGradient>
    <linearGradient id="prefix__b" x1="10.636" x2="21.5" y1="35.432" y2="23.432" gradientUnits="userSpaceOnUse">
      <stop stop-color="#70B1FF"/>
      <stop offset="1" stop-color="#005CCD"/>
    </linearGradient>
    <linearGradient id="prefix__c" x1="10.636" x2="21.5" y1="48.932" y2="36.932" gradientUnits="userSpaceOnUse">
      <stop stop-color="#70B1FF"/>
      <stop offset="1" stop-color="#005CCD"/>
    </linearGradient>
    <linearGradient id="prefix__d" x1="33.962" x2="34.956" y1="14.311" y2="7.171" gradientUnits="userSpaceOnUse">
      <stop stop-color="#70B1FF"/>
      <stop offset="1" stop-color="#005CCD"/>
    </linearGradient>
    <linearGradient id="prefix__e" x1="79.821" x2="77.779" y1="12.848" y2="-.542" gradientUnits="userSpaceOnUse">
      <stop stop-color="#295296"/>
      <stop offset="1" stop-color="#3E78D3"/>
    </linearGradient>
    <linearGradient id="prefix__f" x1="33.962" x2="34.956" y1="41.311" y2="34.171" gradientUnits="userSpaceOnUse">
      <stop stop-color="#70B1FF"/>
      <stop offset="1" stop-color="#005CCD"/>
    </linearGradient>
    <linearGradient id="prefix__g" x1="63.825" x2="61.112" y1="39.848" y2="26.706" gradientUnits="userSpaceOnUse">
      <stop stop-color="#295296"/>
      <stop offset="1" stop-color="#3E78D3"/>
    </linearGradient>
    <linearGradient id="prefix__h" x1="33.962" x2="34.956" y1="27.811" y2="20.671" gradientUnits="userSpaceOnUse">
      <stop stop-color="#70B1FF"/>
      <stop offset="1" stop-color="#005CCD"/>
    </linearGradient>
    <linearGradient id="prefix__i" x1="51.827" x2="48.262" y1="26.348" y2="13.647" gradientUnits="userSpaceOnUse">
      <stop stop-color="#295296"/>
      <stop offset="1" stop-color="#3E78D3"/>
    </linearGradient>
    <linearGradient id="prefix__j" x1="27.726" x2="17.123" y1="14.491" y2="-.872" gradientUnits="userSpaceOnUse">
      <stop stop-color="#295296"/>
      <stop offset="1" stop-color="#3E78D3"/>
    </linearGradient>
    <linearGradient id="prefix__k" x1="27.726" x2="17.123" y1="27.991" y2="12.628" gradientUnits="userSpaceOnUse">
      <stop stop-color="#295296"/>
      <stop offset="1" stop-color="#3E78D3"/>
    </linearGradient>
    <linearGradient id="prefix__l" x1="27.726" x2="17.123" y1="41.491" y2="26.128" gradientUnits="userSpaceOnUse">
      <stop stop-color="#295296"/>
      <stop offset="1" stop-color="#3E78D3"/>
    </linearGradient>
  </defs>
</svg>
