<svg width="48" height="48" fill="none" viewBox="0 0 48 48" xmlns="http://www.w3.org/2000/svg">
  <path fill="url(#prefix__a)" d="M8.5 3h20.543L40 13.956v31.5H8.5V3Z" clip-rule="evenodd" opacity=".4"/>
  <path fill="url(#prefix__b)" d="m29.043 3 10.956 10.956H29.043V3Z" clip-rule="evenodd"/>
  <path fill="url(#prefix__c)" d="M29.678 23.297a1.685 1.685 0 0 1 0 2.384l-4.37 4.37a1.685 1.685 0 0 1-2.383 0l-.014-.014-4.357-4.357a1.685 1.685 0 1 1 2.384-2.383l1.505 1.505v-7.753a1.685 1.685 0 1 1 3.37 0v7.729l1.482-1.48a1.685 1.685 0 0 1 2.383 0Z" clip-rule="evenodd"/>
  <path fill="url(#prefix__d)" d="M32.403 28.69c.88 0 1.594.713 1.594 1.593v5.1a1.594 1.594 0 0 1-1.593 1.594l-.013-.001H15.83a1.593 1.593 0 0 1-1.594-1.593v-5.1a1.594 1.594 0 0 1 3.187 0v3.506H30.81v-3.506c0-.88.713-1.593 1.593-1.593Z" clip-rule="evenodd"/>
  <defs>
    <linearGradient id="prefix__a" x1="27.232" x2="65.106" y1="64.674" y2="33.636" gradientUnits="userSpaceOnUse">
      <stop stop-color="#70B1FF"/>
      <stop offset="1" stop-color="#005CCD"/>
    </linearGradient>
    <linearGradient id="prefix__b" x1="55.037" x2="37.474" y1="10.668" y2="-10.44" gradientUnits="userSpaceOnUse">
      <stop stop-color="#295296"/>
      <stop offset="1" stop-color="#3E78D3"/>
    </linearGradient>
    <linearGradient id="prefix__c" x1="33.06" x2="19.139" y1="17.427" y2="15.432" gradientUnits="userSpaceOnUse">
      <stop stop-color="#295296"/>
      <stop offset="1" stop-color="#3E78D3"/>
    </linearGradient>
    <linearGradient id="prefix__d" x1="33.997" x2="15.497" y1="32.833" y2="35.256" gradientUnits="userSpaceOnUse">
      <stop stop-color="#295296"/>
      <stop offset="1" stop-color="#3E78D3"/>
    </linearGradient>
  </defs>
</svg>
