<svg width="96" height="96" fill="none" viewBox="0 0 96 96" xmlns="http://www.w3.org/2000/svg">
  <path fill="url(#prefix__a)" d="M17 6h41.087l21.912 21.913v63H17V6Z" clip-rule="evenodd" opacity=".4"/>
  <path fill="url(#prefix__b)" d="M58.087 6 80 27.913H58.087V6Z" clip-rule="evenodd"/>
  <path fill="url(#prefix__c)" d="M59.356 46.594a3.37 3.37 0 0 1 0 4.768l-8.74 8.74a3.371 3.371 0 0 1-4.811-.046l-8.696-8.695a3.371 3.371 0 0 1 4.767-4.768l3.01 3.01V34.098a3.37 3.37 0 0 1 6.742 0v15.458l2.961-2.962a3.371 3.371 0 0 1 4.767 0Z" clip-rule="evenodd"/>
  <path fill="url(#prefix__d)" d="M64.805 57.38a3.187 3.187 0 0 1 3.187 3.187v10.198a3.187 3.187 0 0 1-3.187 3.187H31.661a3.188 3.188 0 0 1-3.187-3.187V60.567a3.187 3.187 0 1 1 6.374 0v7.011h26.77v-7.011a3.187 3.187 0 0 1 3.187-3.187Z" clip-rule="evenodd"/>
  <defs>
    <linearGradient id="prefix__a" x1="54.464" x2="130.213" y1="129.349" y2="67.271" gradientUnits="userSpaceOnUse">
      <stop stop-color="#70B1FF"/>
      <stop offset="1" stop-color="#005CCD"/>
    </linearGradient>
    <linearGradient id="prefix__b" x1="110.076" x2="74.948" y1="21.335" y2="-20.879" gradientUnits="userSpaceOnUse">
      <stop stop-color="#295296"/>
      <stop offset="1" stop-color="#3E78D3"/>
    </linearGradient>
    <linearGradient id="prefix__c" x1="66.121" x2="38.278" y1="34.854" y2="30.864" gradientUnits="userSpaceOnUse">
      <stop stop-color="#295296"/>
      <stop offset="1" stop-color="#3E78D3"/>
    </linearGradient>
    <linearGradient id="prefix__d" x1="67.992" x2="30.992" y1="65.666" y2="70.513" gradientUnits="userSpaceOnUse">
      <stop stop-color="#295296"/>
      <stop offset="1" stop-color="#3E78D3"/>
    </linearGradient>
  </defs>
</svg>
