<svg width="48" height="48" fill="none" viewBox="0 0 48 48" xmlns="http://www.w3.org/2000/svg">
  <g clip-path="url(#prefix__a)">
    <path fill="url(#prefix__b)" d="M31.5 13.5H0v9h31.5v-9ZM5.802 18c0 .678-.556 1.227-1.243 1.227S3.315 18.677 3.315 18c0-.678.557-1.227 1.244-1.227.687 0 1.243.55 1.243 1.227Z" clip-rule="evenodd" opacity=".45"/>
    <path fill="url(#prefix__c)" d="M0 25.5h31.5v9H0z" opacity=".45"/>
    <path fill="url(#prefix__d)" d="M0 2h31.5v9H0z" opacity=".45"/>
    <path fill="#609DE8" d="M31.5 22.5v3H0v-3h31.5Zm0-11.5v2.5H0V11h31.5Z" clip-rule="evenodd"/>
    <path fill="url(#prefix__e)" d="M4.512 31.097a1.23 1.23 0 1 0 0-2.461 1.23 1.23 0 0 0 0 2.461Z" clip-rule="evenodd"/>
    <path fill="url(#prefix__f)" d="M4.512 7.742a1.23 1.23 0 1 0 0-2.46 1.23 1.23 0 0 0 0 2.46Z" clip-rule="evenodd"/>
    <path fill="url(#prefix__g)" d="M9.434 19.242a1.23 1.23 0 1 0 0-2.46 1.23 1.23 0 0 0 0 2.46Z" clip-rule="evenodd"/>
    <path fill="url(#prefix__h)" d="M9.434 31.097a1.23 1.23 0 1 0 0-2.461 1.23 1.23 0 0 0 0 2.461Z" clip-rule="evenodd"/>
    <path fill="url(#prefix__i)" d="M9.434 7.742a1.23 1.23 0 1 0 0-2.46 1.23 1.23 0 0 0 0 2.46Z" clip-rule="evenodd"/>
    <path fill="url(#prefix__j)" d="M38.558 38.464a3 3 0 0 0-2.482 0l-.272.123a3 3 0 0 1-4.05-1.677l-.105-.28a3 3 0 0 0-1.755-1.755l-.28-.105a3 3 0 0 1-1.677-4.05l.124-.271a3 3 0 0 0 0-2.483l-.124-.271a3 3 0 0 1 1.678-4.05l.28-.105a3 3 0 0 0 1.754-1.755l.105-.28a3 3 0 0 1 4.05-1.677l.272.123a3 3 0 0 0 2.482 0l.272-.123a3 3 0 0 1 4.05 1.677l.104.28a3 3 0 0 0 1.755 1.755l.28.105a3 3 0 0 1 1.678 4.05l-.124.271a3 3 0 0 0 0 2.482l.124.272a3 3 0 0 1-1.678 4.05l-.28.105a3 3 0 0 0-1.755 1.755l-.104.28a3 3 0 0 1-4.05 1.677l-.272-.123Z" clip-rule="evenodd" opacity=".4"/>
    <path fill="url(#prefix__k)" d="M37.33 36.569 34.224 48.16l-2.068-2.632-3.103 1.247 3.26-12.169a7.335 7.335 0 0 0 5.005 1.963h.012Z" clip-rule="evenodd" opacity=".4"/>
    <path fill="url(#prefix__l)" d="m42.35 34.58 3.267 12.195-3.103-1.247-2.068 2.632-3.106-11.59a7.336 7.336 0 0 0 5.01-1.988Z" clip-rule="evenodd" opacity=".4"/>
    <path fill="url(#prefix__m)" d="M31.5 22.12V34.5h-2.431a3.001 3.001 0 0 1-1.131-3.78l.123-.271a3 3 0 0 0 0-2.482l-.123-.272a3 3 0 0 1 1.677-4.05l.28-.105a3 3 0 0 0 1.605-1.42Z" clip-rule="evenodd"/>
    <path fill="url(#prefix__n)" d="M37.318 36.569a7.361 7.361 0 1 0 0-14.723 7.361 7.361 0 0 0 0 14.723Z" clip-rule="evenodd" opacity=".6"/>
    <path fill="url(#prefix__o)" d="m34.031 27.818-1.398 1.4 3.385 3.336 5.984-5.97-1.407-1.392-4.586 4.575-1.978-1.95Z"/>
  </g>
  <defs>
    <linearGradient id="prefix__b" x1="15.75" x2="10.995" y1="9" y2="25.642" gradientUnits="userSpaceOnUse">
      <stop stop-color="#70B1FF"/>
      <stop offset="1" stop-color="#005CCD"/>
    </linearGradient>
    <linearGradient id="prefix__c" x1="-15.75" x2="-10.995" y1="30" y2="46.642" gradientUnits="userSpaceOnUse">
      <stop stop-color="#70B1FF"/>
      <stop offset="1" stop-color="#005CCD"/>
    </linearGradient>
    <linearGradient id="prefix__d" x1="-15.75" x2="-10.995" y1="6.5" y2="23.142" gradientUnits="userSpaceOnUse">
      <stop stop-color="#70B1FF"/>
      <stop offset="1" stop-color="#005CCD"/>
    </linearGradient>
    <linearGradient id="prefix__e" x1="4.613" x2=".104" y1="25.58" y2="29.593" gradientUnits="userSpaceOnUse">
      <stop stop-color="#6FA2EC"/>
      <stop offset="1" stop-color="#5C90DF"/>
    </linearGradient>
    <linearGradient id="prefix__f" x1="4.613" x2=".104" y1="2.226" y2="6.238" gradientUnits="userSpaceOnUse">
      <stop stop-color="#6FA2EC"/>
      <stop offset="1" stop-color="#5C90DF"/>
    </linearGradient>
    <linearGradient id="prefix__g" x1="9.535" x2="5.026" y1="13.726" y2="17.738" gradientUnits="userSpaceOnUse">
      <stop stop-color="#6FA2EC"/>
      <stop offset="1" stop-color="#5C90DF"/>
    </linearGradient>
    <linearGradient id="prefix__h" x1="9.45" x2="12.888" y1="33.319" y2="29.872" gradientUnits="userSpaceOnUse">
      <stop stop-color="#295296"/>
      <stop offset="1" stop-color="#3E78D3"/>
    </linearGradient>
    <linearGradient id="prefix__i" x1="9.45" x2="12.888" y1="9.964" y2="6.518" gradientUnits="userSpaceOnUse">
      <stop stop-color="#295296"/>
      <stop offset="1" stop-color="#3E78D3"/>
    </linearGradient>
    <linearGradient id="prefix__j" x1="36.605" x2="25.109" y1="16.479" y2="34.167" gradientUnits="userSpaceOnUse">
      <stop stop-color="#70B1FF"/>
      <stop offset="1" stop-color="#005CCD"/>
    </linearGradient>
    <linearGradient id="prefix__k" x1="35.788" x2="25.244" y1="31.929" y2="34.538" gradientUnits="userSpaceOnUse">
      <stop stop-color="#70B1FF"/>
      <stop offset="1" stop-color="#005CCD"/>
    </linearGradient>
    <linearGradient id="prefix__l" x1="44.075" x2="33.528" y1="31.898" y2="34.502" gradientUnits="userSpaceOnUse">
      <stop stop-color="#70B1FF"/>
      <stop offset="1" stop-color="#005CCD"/>
    </linearGradient>
    <linearGradient id="prefix__m" x1="28.602" x2="33.24" y1="36.242" y2="35.542" gradientUnits="userSpaceOnUse">
      <stop stop-color="#295296"/>
      <stop offset="1" stop-color="#3E78D3"/>
    </linearGradient>
    <linearGradient id="prefix__n" x1="36.591" x2="27.851" y1="19.461" y2="31.092" gradientUnits="userSpaceOnUse">
      <stop stop-color="#99C3FC"/>
      <stop offset="1" stop-color="#6B9AE0"/>
    </linearGradient>
    <linearGradient id="prefix__o" x1="34.917" x2="43.289" y1="33.59" y2="28.393" gradientUnits="userSpaceOnUse">
      <stop stop-color="#295296"/>
      <stop offset="1" stop-color="#3E78D3"/>
    </linearGradient>
    <clipPath id="prefix__a">
      <path fill="#fff" d="M0 0h48v48H0z"/>
    </clipPath>
  </defs>
</svg>
