<svg width="96" height="96" fill="none" viewBox="0 0 96 96" xmlns="http://www.w3.org/2000/svg">
  <g clip-path="url(#prefix__a)">
    <path fill="url(#prefix__b)" d="M63 27H0v18h63V27Zm-51.395 9c0 1.355-1.114 2.455-2.487 2.455-1.374 0-2.487-1.1-2.487-2.455 0-1.356 1.113-2.455 2.487-2.455 1.373 0 2.486 1.1 2.486 2.455Z" clip-rule="evenodd" opacity=".45"/>
    <path fill="url(#prefix__c)" d="M0 51h63v18H0z" opacity=".45"/>
    <path fill="url(#prefix__d)" d="M0 4h63v18H0z" opacity=".45"/>
    <path fill="#609DE8" d="M63 45v6H0v-6h63Zm0-23v5H0v-5h63Z" clip-rule="evenodd"/>
    <path fill="url(#prefix__e)" d="M9.024 62.194a2.461 2.461 0 1 0 0-4.922 2.461 2.461 0 0 0 0 4.922Z" clip-rule="evenodd"/>
    <path fill="url(#prefix__f)" d="M9.024 15.485a2.461 2.461 0 1 0 0-4.922 2.461 2.461 0 0 0 0 4.922Z" clip-rule="evenodd"/>
    <path fill="url(#prefix__g)" d="M18.867 38.485a2.461 2.461 0 1 0 0-4.922 2.461 2.461 0 0 0 0 4.922Z" clip-rule="evenodd"/>
    <path fill="url(#prefix__h)" d="M18.867 62.194a2.461 2.461 0 1 0 0-4.922 2.461 2.461 0 0 0 0 4.922Z" clip-rule="evenodd"/>
    <path fill="url(#prefix__i)" d="M18.867 15.485a2.461 2.461 0 1 0 0-4.922 2.461 2.461 0 0 0 0 4.922Z" clip-rule="evenodd"/>
    <path fill="url(#prefix__j)" d="M77.117 76.927a6 6 0 0 0-4.964 0l-.544.247a6 6 0 0 1-8.1-3.355l-.21-.559a6 6 0 0 0-3.51-3.51l-.559-.21a6 6 0 0 1-3.355-8.1l.247-.543a6 6 0 0 0 0-4.964l-.247-.544a6 6 0 0 1 3.355-8.1l.56-.21a6 6 0 0 0 3.51-3.51l.21-.558a6 6 0 0 1 8.1-3.355l.543.247a6 6 0 0 0 4.964 0l.543-.247a6 6 0 0 1 8.1 3.355l.21.559a6 6 0 0 0 3.51 3.51l.56.21a6 6 0 0 1 3.354 8.1l-.247.543a6 6 0 0 0 0 4.964l.247.544a6 6 0 0 1-3.355 8.1l-.559.21a6 6 0 0 0-3.51 3.51l-.21.559a6 6 0 0 1-8.1 3.355l-.543-.248Z" clip-rule="evenodd" opacity=".4"/>
    <path fill="url(#prefix__k)" d="M74.66 73.138 68.448 96.32l-4.136-5.265-6.206 2.494 6.52-24.337a14.67 14.67 0 0 0 10.01 3.925h.024Z" clip-rule="evenodd" opacity=".4"/>
    <path fill="url(#prefix__l)" d="m84.7 69.161 6.534 24.389-6.206-2.494-4.136 5.265-6.212-23.183A14.671 14.671 0 0 0 84.7 69.16Z" clip-rule="evenodd" opacity=".4"/>
    <path fill="url(#prefix__m)" d="M63 44.24V69h-4.862a6.002 6.002 0 0 1-2.263-7.56l.247-.543a6 6 0 0 0 0-4.964l-.247-.544a6 6 0 0 1 3.355-8.1l.56-.21A6 6 0 0 0 63 44.24Z" clip-rule="evenodd"/>
    <path fill="url(#prefix__n)" d="M74.635 73.138c8.131 0 14.723-6.592 14.723-14.723s-6.592-14.723-14.723-14.723-14.723 6.592-14.723 14.723 6.592 14.723 14.723 14.723Z" clip-rule="evenodd" opacity=".6"/>
    <path fill="url(#prefix__o)" d="m68.062 55.635-2.796 2.8 6.77 6.672 11.968-11.94-2.814-2.783-9.171 9.15-3.957-3.899Z"/>
  </g>
  <defs>
    <linearGradient id="prefix__b" x1="31.5" x2="21.991" y1="18" y2="51.283" gradientUnits="userSpaceOnUse">
      <stop stop-color="#70B1FF"/>
      <stop offset="1" stop-color="#005CCD"/>
    </linearGradient>
    <linearGradient id="prefix__c" x1="-31.5" x2="-21.991" y1="60" y2="93.283" gradientUnits="userSpaceOnUse">
      <stop stop-color="#70B1FF"/>
      <stop offset="1" stop-color="#005CCD"/>
    </linearGradient>
    <linearGradient id="prefix__d" x1="-31.5" x2="-21.991" y1="13" y2="46.283" gradientUnits="userSpaceOnUse">
      <stop stop-color="#70B1FF"/>
      <stop offset="1" stop-color="#005CCD"/>
    </linearGradient>
    <linearGradient id="prefix__e" x1="9.226" x2=".209" y1="51.161" y2="59.186" gradientUnits="userSpaceOnUse">
      <stop stop-color="#6FA2EC"/>
      <stop offset="1" stop-color="#5C90DF"/>
    </linearGradient>
    <linearGradient id="prefix__f" x1="9.226" x2=".209" y1="4.451" y2="12.476" gradientUnits="userSpaceOnUse">
      <stop stop-color="#6FA2EC"/>
      <stop offset="1" stop-color="#5C90DF"/>
    </linearGradient>
    <linearGradient id="prefix__g" x1="19.07" x2="10.052" y1="27.451" y2="35.476" gradientUnits="userSpaceOnUse">
      <stop stop-color="#6FA2EC"/>
      <stop offset="1" stop-color="#5C90DF"/>
    </linearGradient>
    <linearGradient id="prefix__h" x1="18.899" x2="25.776" y1="66.638" y2="59.745" gradientUnits="userSpaceOnUse">
      <stop stop-color="#295296"/>
      <stop offset="1" stop-color="#3E78D3"/>
    </linearGradient>
    <linearGradient id="prefix__i" x1="18.899" x2="25.776" y1="19.928" y2="13.035" gradientUnits="userSpaceOnUse">
      <stop stop-color="#295296"/>
      <stop offset="1" stop-color="#3E78D3"/>
    </linearGradient>
    <linearGradient id="prefix__j" x1="73.212" x2="50.22" y1="32.958" y2="68.334" gradientUnits="userSpaceOnUse">
      <stop stop-color="#70B1FF"/>
      <stop offset="1" stop-color="#005CCD"/>
    </linearGradient>
    <linearGradient id="prefix__k" x1="71.577" x2="50.487" y1="63.858" y2="69.075" gradientUnits="userSpaceOnUse">
      <stop stop-color="#70B1FF"/>
      <stop offset="1" stop-color="#005CCD"/>
    </linearGradient>
    <linearGradient id="prefix__l" x1="88.151" x2="67.057" y1="63.796" y2="69.005" gradientUnits="userSpaceOnUse">
      <stop stop-color="#70B1FF"/>
      <stop offset="1" stop-color="#005CCD"/>
    </linearGradient>
    <linearGradient id="prefix__m" x1="57.205" x2="66.48" y1="72.485" y2="71.085" gradientUnits="userSpaceOnUse">
      <stop stop-color="#295296"/>
      <stop offset="1" stop-color="#3E78D3"/>
    </linearGradient>
    <linearGradient id="prefix__n" x1="73.183" x2="55.702" y1="38.922" y2="62.184" gradientUnits="userSpaceOnUse">
      <stop stop-color="#99C3FC"/>
      <stop offset="1" stop-color="#6B9AE0"/>
    </linearGradient>
    <linearGradient id="prefix__o" x1="69.835" x2="86.579" y1="67.179" y2="56.787" gradientUnits="userSpaceOnUse">
      <stop stop-color="#295296"/>
      <stop offset="1" stop-color="#3E78D3"/>
    </linearGradient>
    <clipPath id="prefix__a">
      <path fill="#fff" d="M0 0h96v96H0z"/>
    </clipPath>
  </defs>
</svg>
