<svg width="96" height="96" fill="none" viewBox="0 0 96 96" xmlns="http://www.w3.org/2000/svg">
  <path fill="url(#prefix__a)" d="M65 51.424c17.12 0 31 13.94 31 31.134V89H34v-6.442c0-17.195 13.88-31.134 31-31.134Zm.196-5.368c-9.672 0-17.513-7.84-17.513-17.513 0-9.672 7.84-17.513 17.513-17.513 9.672 0 17.513 7.841 17.513 17.513s-7.841 17.513-17.513 17.513Z" clip-rule="evenodd" opacity=".55" style="mix-blend-mode:multiply"/>
  <path fill="url(#prefix__b)" d="M23.154 26.004c1.539-2.672 5.395-2.672 6.933 0l22.615 39.279c1.536 2.666-.39 5.995-3.466 5.995H4.006c-3.077 0-5.002-3.329-3.467-5.995l22.615-39.279Zm.361 12.843a3.11 3.11 0 1 1 6.212 0l-.808 15.055a2.302 2.302 0 0 1-4.596 0l-.808-15.055Zm6.387 23.796a3.282 3.282 0 1 1-6.563 0 3.282 3.282 0 0 1 6.563 0Z" clip-rule="evenodd" opacity=".5"/>
  <path fill="url(#prefix__c)" d="m47.751 56.685 4.95 8.598c1.536 2.666-.389 5.996-3.466 5.996H36.097A31.212 31.212 0 0 1 47.75 56.685Z" clip-rule="evenodd"/>
  <defs>
    <linearGradient id="prefix__a" x1="60.912" x2="-.632" y1="-7.872" y2="38.639" gradientUnits="userSpaceOnUse">
      <stop stop-color="#70B1FF"/>
      <stop offset="1" stop-color="#005CCD"/>
    </linearGradient>
    <linearGradient id="prefix__b" x1=".965" x2="-31.046" y1="3.583" y2="64.146" gradientUnits="userSpaceOnUse">
      <stop stop-color="#70B1FF"/>
      <stop offset="1" stop-color="#005CCD"/>
    </linearGradient>
    <linearGradient id="prefix__c" x1="55.693" x2="52.027" y1="69.171" y2="54.261" gradientUnits="userSpaceOnUse">
      <stop stop-color="#295296"/>
      <stop offset="1" stop-color="#3E78D3"/>
    </linearGradient>
  </defs>
</svg>
