<svg width="48" height="48" fill="none" viewBox="0 0 48 48" xmlns="http://www.w3.org/2000/svg">
  <path fill="url(#prefix__a)" d="M44.641 7c1.263 0 2.295.936 2.356 2.111l.003.111V12H1V9.222c0-1.19.993-2.161 2.241-2.22L3.36 7h41.282ZM38.5 11a1.5 1.5 0 1 0 0-3 1.5 1.5 0 0 0 0 3Z" clip-rule="evenodd" opacity=".55"/>
  <path fill="url(#prefix__b)" d="M1 12h46v29H1z" opacity=".276"/>
  <path fill="url(#prefix__c)" d="M43.5 11a1.5 1.5 0 1 0 0-3 1.5 1.5 0 0 0 0 3Z" clip-rule="evenodd"/>
  <path fill="url(#prefix__d)" d="M34.518 34.703a3 3 0 0 0 0-4.243l-4.132-4.132 4.125-4.125a3 3 0 0 0 0-4.242l-2.282-2.281a3 3 0 0 0-4.242 0l-4.125 4.124-4.133-4.133a3 3 0 0 0-4.242 0l-2.299 2.298a3 3 0 0 0 0 4.243l4.133 4.133-4.123 4.124a3 3 0 0 0 0 4.242l2.281 2.282a3 3 0 0 0 4.243 0l4.123-4.124 4.132 4.132a3 3 0 0 0 4.243 0l2.298-2.298Zm-17.197-8.358 6.524 6.524 6.541-6.54-6.524-6.525-6.54 6.541Z" clip-rule="evenodd"/>
  <path fill="url(#prefix__e)" d="m23.854 32.877-6.541-6.542 6.54-6.54 6.542 6.54-6.541 6.542Z" clip-rule="evenodd" opacity=".276"/>
  <circle cx="23.854" cy="22.876" r="1.223" fill="url(#prefix__f)" transform="rotate(45 23.854 22.876)"/>
  <circle cx="20.394" cy="26.336" r="1.223" fill="url(#prefix__g)" transform="rotate(45 20.394 26.336)"/>
  <circle cx="27.314" cy="26.336" r="1.223" fill="url(#prefix__h)" transform="rotate(45 27.314 26.336)"/>
  <circle cx="23.854" cy="29.797" r="1.223" fill="url(#prefix__i)" transform="rotate(45 23.854 29.797)"/>
  <circle cx="23.854" cy="26.336" r="1.223" fill="url(#prefix__j)" transform="rotate(45 23.854 26.336)"/>
  <defs>
    <linearGradient id="prefix__a" x1="24" x2="22.926" y1="4.5" y2="14.383" gradientUnits="userSpaceOnUse">
      <stop stop-color="#70B1FF"/>
      <stop offset="1" stop-color="#005CCD"/>
    </linearGradient>
    <linearGradient id="prefix__b" x1="47" x2="1" y1="26.5" y2="26.5" gradientUnits="userSpaceOnUse">
      <stop stop-color="#70B1FF"/>
      <stop offset="1" stop-color="#005CCD"/>
    </linearGradient>
    <linearGradient id="prefix__c" x1="52.755" x2="45.224" y1="10.571" y2="2.959" gradientUnits="userSpaceOnUse">
      <stop stop-color="#295296"/>
      <stop offset="1" stop-color="#3E78D3"/>
    </linearGradient>
    <linearGradient id="prefix__d" x1="7.836" x2="27.214" y1="-3.004" y2="42.018" gradientUnits="userSpaceOnUse">
      <stop stop-color="#295296"/>
      <stop offset="1" stop-color="#3E78D3"/>
    </linearGradient>
    <linearGradient id="prefix__e" x1="20.583" x2="27.124" y1="23.065" y2="29.607" gradientUnits="userSpaceOnUse">
      <stop stop-color="#70B1FF"/>
      <stop offset="1" stop-color="#005CCD"/>
    </linearGradient>
    <linearGradient id="prefix__f" x1="31.402" x2="25.26" y1="23.749" y2="17.541" gradientUnits="userSpaceOnUse">
      <stop stop-color="#295296"/>
      <stop offset="1" stop-color="#3E78D3"/>
    </linearGradient>
    <linearGradient id="prefix__g" x1="27.942" x2="21.8" y1="27.209" y2="21.002" gradientUnits="userSpaceOnUse">
      <stop stop-color="#295296"/>
      <stop offset="1" stop-color="#3E78D3"/>
    </linearGradient>
    <linearGradient id="prefix__h" x1="34.862" x2="28.72" y1="27.209" y2="21.002" gradientUnits="userSpaceOnUse">
      <stop stop-color="#295296"/>
      <stop offset="1" stop-color="#3E78D3"/>
    </linearGradient>
    <linearGradient id="prefix__i" x1="31.402" x2="25.26" y1="30.67" y2="24.462" gradientUnits="userSpaceOnUse">
      <stop stop-color="#295296"/>
      <stop offset="1" stop-color="#3E78D3"/>
    </linearGradient>
    <linearGradient id="prefix__j" x1="31.402" x2="25.26" y1="27.209" y2="21.002" gradientUnits="userSpaceOnUse">
      <stop stop-color="#295296"/>
      <stop offset="1" stop-color="#3E78D3"/>
    </linearGradient>
  </defs>
</svg>
