<svg width="96" height="96" fill="none" viewBox="0 0 96 96" xmlns="http://www.w3.org/2000/svg">
  <path fill="url(#prefix__a)" d="m90 77-10-8H16L6 77v4h84v-4Z" clip-rule="evenodd" opacity=".8"/>
  <path fill="url(#prefix__b)" d="M16 32a3 3 0 0 1 3-3h58a3 3 0 0 1 3 3v37H16V32Z" clip-rule="evenodd" opacity=".36"/>
  <path fill="url(#prefix__c)" d="M19 23h68v44H19z" opacity=".276"/>
  <path fill="url(#prefix__d)" d="M83.513 15c1.867 0 3.392 1.497 3.483 3.378l.004.178V23H19v-4.444c0-1.905 1.468-3.46 3.313-3.552l.174-.004h61.026Zm-9.154 1.778c-1.203 0-2.18.995-2.18 2.222 0 1.227.977 2.222 2.18 2.222 1.204 0 2.18-.995 2.18-2.222 0-1.227-.976-2.222-2.18-2.222Z" clip-rule="evenodd" opacity=".55"/>
  <path fill="url(#prefix__e)" d="M81.5 21.436a2.5 2.5 0 1 0 0-5 2.5 2.5 0 0 0 0 5Z" clip-rule="evenodd"/>
  <path fill="url(#prefix__f)" d="M63.576 57.8a3 3 0 0 0 0-4.243L58.03 48.01l5.536-5.537a3 3 0 0 0 0-4.242l-3.756-3.757a3 3 0 0 0-4.242 0l-5.537 5.537-5.547-5.547a3 3 0 0 0-4.242 0l-3.777 3.777a3 3 0 0 0 0 4.243l5.546 5.546-5.535 5.536a3 3 0 0 0 0 4.243l3.756 3.756a3 3 0 0 0 4.243 0l5.535-5.536 5.547 5.547a3 3 0 0 0 4.242 0l3.777-3.778Zm-21.565-9.77 8 8 8.02-8.02-8-8-8.02 8.02Z" clip-rule="evenodd"/>
  <path fill="url(#prefix__g)" d="M50.02 56.04 42 48.02 50.02 40l8.02 8.02-8.02 8.02Z" clip-rule="evenodd" opacity=".276"/>
  <circle cx="50.02" cy="43.778" r="1.5" fill="url(#prefix__h)" transform="rotate(45 50.02 43.778)"/>
  <circle cx="45.778" cy="48.021" r="1.5" fill="url(#prefix__i)" transform="rotate(45 45.778 48.02)"/>
  <circle cx="54.263" cy="48.021" r="1.5" fill="url(#prefix__j)" transform="rotate(45 54.263 48.02)"/>
  <circle cx="50.02" cy="52.263" r="1.5" fill="url(#prefix__k)" transform="rotate(45 50.02 52.263)"/>
  <circle cx="50.02" cy="48.021" r="1.5" fill="url(#prefix__l)" transform="rotate(45 50.02 48.02)"/>
  <defs>
    <linearGradient id="prefix__a" x1="-36" x2="-32.64" y1="75" y2="98.52" gradientUnits="userSpaceOnUse">
      <stop stop-color="#8DBCFF"/>
      <stop offset="1" stop-color="#4D82D5"/>
    </linearGradient>
    <linearGradient id="prefix__b" x1="112" x2="76.045" y1="49" y2="-8.528" gradientUnits="userSpaceOnUse">
      <stop stop-color="#70B1FF"/>
      <stop offset="1" stop-color="#005CCD"/>
    </linearGradient>
    <linearGradient id="prefix__c" x1="87" x2="19" y1="45" y2="45" gradientUnits="userSpaceOnUse">
      <stop stop-color="#70B1FF"/>
      <stop offset="1" stop-color="#005CCD"/>
    </linearGradient>
    <linearGradient id="prefix__d" x1="53" x2="51.143" y1="11" y2="26.782" gradientUnits="userSpaceOnUse">
      <stop stop-color="#70B1FF"/>
      <stop offset="1" stop-color="#005CCD"/>
    </linearGradient>
    <linearGradient id="prefix__e" x1="96.925" x2="84.374" y1="20.721" y2="8.035" gradientUnits="userSpaceOnUse">
      <stop stop-color="#295296"/>
      <stop offset="1" stop-color="#3E78D3"/>
    </linearGradient>
    <linearGradient id="prefix__f" x1="29.991" x2="54.223" y1="11.333" y2="67.629" gradientUnits="userSpaceOnUse">
      <stop stop-color="#295296"/>
      <stop offset="1" stop-color="#3E78D3"/>
    </linearGradient>
    <linearGradient id="prefix__g" x1="46.01" x2="54.03" y1="44.011" y2="52.031" gradientUnits="userSpaceOnUse">
      <stop stop-color="#70B1FF"/>
      <stop offset="1" stop-color="#005CCD"/>
    </linearGradient>
    <linearGradient id="prefix__h" x1="59.276" x2="51.745" y1="44.849" y2="37.237" gradientUnits="userSpaceOnUse">
      <stop stop-color="#295296"/>
      <stop offset="1" stop-color="#3E78D3"/>
    </linearGradient>
    <linearGradient id="prefix__i" x1="55.033" x2="47.503" y1="49.092" y2="41.48" gradientUnits="userSpaceOnUse">
      <stop stop-color="#295296"/>
      <stop offset="1" stop-color="#3E78D3"/>
    </linearGradient>
    <linearGradient id="prefix__j" x1="63.518" x2="55.987" y1="49.092" y2="41.48" gradientUnits="userSpaceOnUse">
      <stop stop-color="#295296"/>
      <stop offset="1" stop-color="#3E78D3"/>
    </linearGradient>
    <linearGradient id="prefix__k" x1="59.276" x2="51.745" y1="53.334" y2="45.723" gradientUnits="userSpaceOnUse">
      <stop stop-color="#295296"/>
      <stop offset="1" stop-color="#3E78D3"/>
    </linearGradient>
    <linearGradient id="prefix__l" x1="59.276" x2="51.745" y1="49.092" y2="41.48" gradientUnits="userSpaceOnUse">
      <stop stop-color="#295296"/>
      <stop offset="1" stop-color="#3E78D3"/>
    </linearGradient>
  </defs>
</svg>
