<svg width="96" height="96" fill="none" viewBox="0 0 96 96" xmlns="http://www.w3.org/2000/svg">
  <path fill="url(#prefix__a)" d="M5.778 0h40.444A5.774 5.774 0 0 1 52 5.77v76.46A5.774 5.774 0 0 1 46.222 88H5.778A5.774 5.774 0 0 1 0 82.23V5.77A5.774 5.774 0 0 1 5.778 0Z" clip-rule="evenodd" opacity=".38"/>
  <path fill="url(#prefix__b)" d="M68 16.774c8.1 0 14.667 6.487 14.667 14.49S76.1 45.754 68 45.754s-14.667-6.487-14.667-14.49c0-3.154 1.02-6.072 2.752-8.451l-5.958-4.226A21.462 21.462 0 0 0 46 31.264C46 43.27 55.85 53 68 53s22-9.731 22-21.736C90 19.26 80.15 9.528 68 9.528V5l-11.917 8.15L68 21.303v-4.528Z" clip-rule="evenodd" opacity=".6"/>
  <path fill="url(#prefix__c)" d="M77.649 85.884c-1.562 0-2.832-1.327-2.832-2.957s1.27-2.956 2.832-2.956c1.561 0 2.831 1.326 2.831 2.956s-1.27 2.957-2.831 2.957Zm-31.298 0c-1.561 0-2.831-1.327-2.831-2.957s1.27-2.956 2.831-2.956c1.562 0 2.832 1.326 2.832 2.956s-1.27 2.957-2.832 2.957Zm32.313-17.808 5.66-10.232c.324-.589.13-1.34-.432-1.68-.562-.338-1.283-.137-1.608.45l-5.73 10.363c-4.382-2.088-9.303-3.251-14.554-3.251-5.251 0-10.172 1.163-14.554 3.25l-5.73-10.362c-.325-.587-1.046-.788-1.608-.45-.563.34-.757 1.091-.431 1.68l5.659 10.232C35.618 73.594 28.972 83.866 28 96h68c-.973-12.135-7.62-22.406-17.336-27.924Z" opacity=".4"/>
  <rect width="14" height="3" x="19" y="6" fill="url(#prefix__d)" rx="1.5"/>
  <rect width="3" height="3" x="35" y="6" fill="url(#prefix__e)" rx="1.5"/>
  <path fill="url(#prefix__f)" d="M46.8 88H5.2C2.328 88 0 85.314 0 82v-6h52v6c0 3.314-2.328 6-5.2 6Z" clip-rule="evenodd"/>
  <path fill="url(#prefix__g)" d="M52 19.915v26.268c-3.72-3.893-6-9.143-6-14.919 0-4.73 1.53-9.109 4.127-12.677L52 19.915Z" clip-rule="evenodd" opacity=".6"/>
  <path fill="url(#prefix__h)" d="M52 65.206v17.023A5.774 5.774 0 0 1 46.222 88H29.526c2.647-8.585 8.315-15.668 15.81-19.924l-5.66-10.232c-.325-.589-.131-1.34.431-1.68.563-.338 1.283-.137 1.609.45l5.73 10.363A33.15 33.15 0 0 1 52 65.206Zm-8.48 17.721c0 1.63 1.27 2.957 2.831 2.957s2.831-1.327 2.831-2.957-1.27-2.956-2.83-2.956c-1.562 0-2.832 1.326-2.832 2.956Z" clip-rule="evenodd" opacity=".6"/>
  <defs>
    <linearGradient id="prefix__a" x1="30.923" x2="104.214" y1="127.834" y2="79.997" gradientUnits="userSpaceOnUse">
      <stop stop-color="#70B1FF"/>
      <stop offset="1" stop-color="#005CCD"/>
    </linearGradient>
    <linearGradient id="prefix__b" x1="68" x2="115.819" y1="77" y2="33.166" gradientUnits="userSpaceOnUse">
      <stop stop-color="#70B1FF"/>
      <stop offset="1" stop-color="#005CCD"/>
    </linearGradient>
    <linearGradient id="prefix__c" x1="68.438" x2="98.635" y1="114.106" y2="57.403" gradientUnits="userSpaceOnUse">
      <stop stop-color="#70B1FF"/>
      <stop offset="1" stop-color="#005CCD"/>
    </linearGradient>
    <linearGradient id="prefix__d" x1="12" x2="13.229" y1="7.5" y2="13.237" gradientUnits="userSpaceOnUse">
      <stop stop-color="#83ACEB"/>
      <stop offset="1" stop-color="#628FDD"/>
    </linearGradient>
    <linearGradient id="prefix__e" x1="33.5" x2="36.5" y1="7.5" y2="10.5" gradientUnits="userSpaceOnUse">
      <stop stop-color="#83ACEB"/>
      <stop offset="1" stop-color="#628FDD"/>
    </linearGradient>
    <linearGradient id="prefix__f" x1="78" x2="72.742" y1="82" y2="59.214" gradientUnits="userSpaceOnUse">
      <stop stop-color="#83ACEB"/>
      <stop offset="1" stop-color="#628FDD"/>
    </linearGradient>
    <linearGradient id="prefix__g" x1="60.235" x2="38.228" y1="37.899" y2="32.149" gradientUnits="userSpaceOnUse">
      <stop stop-color="#295296"/>
      <stop offset="1" stop-color="#3E78D3"/>
    </linearGradient>
    <linearGradient id="prefix__h" x1="82.845" x2="31.42" y1="78.395" y2="34.993" gradientUnits="userSpaceOnUse">
      <stop stop-color="#295296"/>
      <stop offset="1" stop-color="#3E78D3"/>
    </linearGradient>
  </defs>
</svg>
