<svg width="96" height="96" fill="none" viewBox="0 0 96 96" xmlns="http://www.w3.org/2000/svg">
  <path fill="url(#prefix__a)" d="M77.649 85.884c-1.562 0-2.832-1.327-2.832-2.957s1.27-2.956 2.832-2.956c1.561 0 2.831 1.326 2.831 2.956s-1.27 2.957-2.831 2.957Zm-31.298 0c-1.561 0-2.831-1.327-2.831-2.957s1.27-2.956 2.831-2.956c1.562 0 2.832 1.326 2.832 2.956s-1.27 2.957-2.832 2.957Zm32.313-17.808 5.66-10.232c.324-.589.13-1.34-.432-1.68-.562-.338-1.283-.137-1.608.45l-5.73 10.363c-4.382-2.088-9.303-3.251-14.554-3.251-5.251 0-10.172 1.163-14.554 3.25l-5.73-10.362c-.325-.587-1.046-.788-1.608-.45-.563.34-.757 1.091-.431 1.68l5.659 10.232C35.618 73.594 28.972 83.866 28 96h68c-.973-12.135-7.62-22.406-17.336-27.924Z" opacity=".4"/>
  <path fill="url(#prefix__b)" d="M0 5h34.618l17.31 17.31V73H0V5Z" clip-rule="evenodd" opacity=".4"/>
  <path fill="url(#prefix__c)" d="M51.927 65.228V73h-13.2a33.446 33.446 0 0 1 6.609-4.924l-5.66-10.232c-.325-.589-.13-1.34.431-1.68.563-.338 1.283-.137 1.609.45l5.73 10.363a33.15 33.15 0 0 1 4.481-1.749Z" clip-rule="evenodd"/>
  <path fill="url(#prefix__d)" d="m34.618 5 17.31 17.31h-17.31V5Z" clip-rule="evenodd" opacity=".8"/>
  <path fill="url(#prefix__e)" d="m39.563 40.009-22.255 13.6v-27.2l22.255 13.6Z" clip-rule="evenodd" opacity=".8"/>
  <path fill="url(#prefix__f)" d="M68 22.774c8.1 0 14.667 6.487 14.667 14.49S76.1 51.754 68 51.754s-14.667-6.487-14.667-14.49c0-3.154 1.02-6.073 2.752-8.452l-5.958-4.225A21.462 21.462 0 0 0 46 37.264C46 49.27 55.85 59 68 59s22-9.731 22-21.736c0-12.004-9.85-21.736-22-21.736V11l-11.917 8.15L68 27.303v-4.528Z" clip-rule="evenodd" opacity=".6"/>
  <path fill="url(#prefix__g)" d="M52 25.915v26.268c-3.72-3.893-6-9.143-6-14.919 0-4.73 1.53-9.109 4.127-12.677L52 25.915Z" clip-rule="evenodd"/>
  <defs>
    <linearGradient id="prefix__a" x1="68.438" x2="98.635" y1="114.106" y2="57.403" gradientUnits="userSpaceOnUse">
      <stop stop-color="#70B1FF"/>
      <stop offset="1" stop-color="#005CCD"/>
    </linearGradient>
    <linearGradient id="prefix__b" x1="30.88" x2="91.861" y1="103.781" y2="52.343" gradientUnits="userSpaceOnUse">
      <stop stop-color="#70B1FF"/>
      <stop offset="1" stop-color="#005CCD"/>
    </linearGradient>
    <linearGradient id="prefix__c" x1="70.044" x2="42.397" y1="67.897" y2="42.1" gradientUnits="userSpaceOnUse">
      <stop stop-color="#295296"/>
      <stop offset="1" stop-color="#3E78D3"/>
    </linearGradient>
    <linearGradient id="prefix__d" x1="75.684" x2="47.937" y1="17.113" y2="-16.232" gradientUnits="userSpaceOnUse">
      <stop stop-color="#295296"/>
      <stop offset="1" stop-color="#3E78D3"/>
    </linearGradient>
    <linearGradient id="prefix__e" x1="23.988" x2="73.566" y1="90.941" y2="57.187" gradientUnits="userSpaceOnUse">
      <stop stop-color="#295296"/>
      <stop offset="1" stop-color="#3E78D3"/>
    </linearGradient>
    <linearGradient id="prefix__f" x1="68" x2="115.819" y1="83" y2="39.166" gradientUnits="userSpaceOnUse">
      <stop stop-color="#70B1FF"/>
      <stop offset="1" stop-color="#005CCD"/>
    </linearGradient>
    <linearGradient id="prefix__g" x1="60.235" x2="38.228" y1="43.899" y2="38.149" gradientUnits="userSpaceOnUse">
      <stop stop-color="#295296"/>
      <stop offset="1" stop-color="#3E78D3"/>
    </linearGradient>
  </defs>
</svg>
