<svg width="48" height="48" fill="none" viewBox="0 0 48 48" xmlns="http://www.w3.org/2000/svg">
  <path fill="url(#prefix__a)" d="M38.824 42.942c-.78 0-1.415-.663-1.415-1.478 0-.816.635-1.478 1.415-1.478.781 0 1.416.663 1.416 1.478s-.635 1.478-1.416 1.478Zm-15.648 0c-.781 0-1.416-.663-1.416-1.478 0-.816.635-1.478 1.416-1.478.78 0 1.415.663 1.415 1.478s-.635 1.478-1.415 1.478Zm16.156-8.904 2.83-5.116a.63.63 0 0 0-.216-.84.576.576 0 0 0-.804.225l-2.865 5.181A16.845 16.845 0 0 0 31 31.863c-2.626 0-5.086.581-7.277 1.625l-2.865-5.18a.576.576 0 0 0-.804-.226.63.63 0 0 0-.216.84l2.83 5.116C17.809 36.798 14.486 41.933 14 48h34c-.487-6.067-3.81-11.203-8.668-13.962Z" opacity=".4"/>
  <path fill="url(#prefix__b)" d="M0 2.5h17.31l8.654 8.655V36.5H0v-34Z" clip-rule="evenodd" opacity=".4"/>
  <path fill="url(#prefix__c)" d="M25.964 32.614V36.5h-6.6a16.713 16.713 0 0 1 3.304-2.462l-2.83-5.116a.63.63 0 0 1 .216-.84.576.576 0 0 1 .804.225l2.865 5.181a16.76 16.76 0 0 1 2.241-.874Z" clip-rule="evenodd"/>
  <path fill="url(#prefix__d)" d="m17.309 2.5 8.654 8.655H17.31V2.5Z" clip-rule="evenodd" opacity=".8"/>
  <path fill="url(#prefix__e)" d="m19.781 20.004-11.127 6.8v-13.6l11.127 6.8Z" clip-rule="evenodd" opacity=".8"/>
  <path fill="url(#prefix__f)" d="M34 11.387c4.05 0 7.333 3.244 7.333 7.245 0 4.002-3.283 7.245-7.333 7.245-4.05 0-7.333-3.243-7.333-7.245 0-1.577.51-3.036 1.375-4.226l-2.978-2.113A10.73 10.73 0 0 0 23 18.633c0 6 4.925 10.867 11 10.867s11-4.866 11-10.868c0-6.002-4.925-10.868-11-10.868V5.5l-5.958 4.075L34 13.651v-2.264Z" clip-rule="evenodd" opacity=".6"/>
  <path fill="url(#prefix__g)" d="M26 12.957v13.134a10.76 10.76 0 0 1-3-7.459c0-2.366.765-4.555 2.064-6.339l.936.664Z" clip-rule="evenodd"/>
  <defs>
    <linearGradient id="prefix__a" x1="34.219" x2="49.318" y1="57.053" y2="28.702" gradientUnits="userSpaceOnUse">
      <stop stop-color="#70B1FF"/>
      <stop offset="1" stop-color="#005CCD"/>
    </linearGradient>
    <linearGradient id="prefix__b" x1="15.44" x2="45.931" y1="51.891" y2="26.172" gradientUnits="userSpaceOnUse">
      <stop stop-color="#70B1FF"/>
      <stop offset="1" stop-color="#005CCD"/>
    </linearGradient>
    <linearGradient id="prefix__c" x1="35.022" x2="21.199" y1="33.949" y2="21.05" gradientUnits="userSpaceOnUse">
      <stop stop-color="#295296"/>
      <stop offset="1" stop-color="#3E78D3"/>
    </linearGradient>
    <linearGradient id="prefix__d" x1="37.842" x2="23.968" y1="8.557" y2="-8.116" gradientUnits="userSpaceOnUse">
      <stop stop-color="#295296"/>
      <stop offset="1" stop-color="#3E78D3"/>
    </linearGradient>
    <linearGradient id="prefix__e" x1="11.994" x2="36.783" y1="45.471" y2="28.593" gradientUnits="userSpaceOnUse">
      <stop stop-color="#295296"/>
      <stop offset="1" stop-color="#3E78D3"/>
    </linearGradient>
    <linearGradient id="prefix__f" x1="34" x2="57.909" y1="41.5" y2="19.583" gradientUnits="userSpaceOnUse">
      <stop stop-color="#70B1FF"/>
      <stop offset="1" stop-color="#005CCD"/>
    </linearGradient>
    <linearGradient id="prefix__g" x1="30.118" x2="19.114" y1="21.95" y2="19.075" gradientUnits="userSpaceOnUse">
      <stop stop-color="#295296"/>
      <stop offset="1" stop-color="#3E78D3"/>
    </linearGradient>
  </defs>
</svg>
