<svg width="96" height="96" fill="none" viewBox="0 0 96 96" xmlns="http://www.w3.org/2000/svg">
  <path fill="url(#prefix__a)" d="m.344 59.77 13.175-9.541a5.367 5.367 0 0 1 3.778-.983l43.891 5.185A5.302 5.302 0 0 1 60.566 65H36l13.082 9.751a9.974 9.974 0 0 0 9.95 1.145l14.57-6.359a21.085 21.085 0 0 1 19.913 1.639.32.32 0 0 1-.039.558L54.031 90.056a7.175 7.175 0 0 1-4.232.555C42.3 89.334 17.25 85.422 0 87l.344-27.23Z" clip-rule="evenodd" opacity=".55"/>
  <circle cx="48.5" cy="33.5" r="25.5" fill="url(#prefix__b)" opacity=".45"/>
  <path fill="url(#prefix__c)" d="M62.554 54.78A25.381 25.381 0 0 1 48.5 59c-7.45 0-14.155-3.196-18.817-8.29l31.505 3.721c.48.057.938.177 1.366.35Z" clip-rule="evenodd"/>
  <path fill="url(#prefix__d)" d="M53 19h-9v10H34v9h10v10h9V38h10v-9H53V19Z" clip-rule="evenodd"/>
  <defs>
    <linearGradient id="prefix__a" x1="130.055" x2="92.232" y1="70" y2="5.061" gradientUnits="userSpaceOnUse">
      <stop stop-color="#70B1FF"/>
      <stop offset="1" stop-color="#005CCD"/>
    </linearGradient>
    <linearGradient id="prefix__b" x1="76.999" x2="76.999" y1="64.998" y2="8" gradientUnits="userSpaceOnUse">
      <stop stop-color="#70B1FF"/>
      <stop offset="1" stop-color="#005CCD"/>
    </linearGradient>
    <linearGradient id="prefix__c" x1="34.561" x2="39.133" y1="65.314" y2="47.847" gradientUnits="userSpaceOnUse">
      <stop stop-color="#295296"/>
      <stop offset="1" stop-color="#3E78D3"/>
    </linearGradient>
    <linearGradient id="prefix__d" x1="112.873" x2="57.113" y1="33.153" y2="-.871" gradientUnits="userSpaceOnUse">
      <stop stop-color="#295296"/>
      <stop offset="1" stop-color="#3E78D3"/>
    </linearGradient>
  </defs>
</svg>
