<svg width="48" height="48" fill="none" viewBox="0 0 48 48" xmlns="http://www.w3.org/2000/svg">
  <path fill="url(#prefix__a)" d="M6.583 17h34.834c.874 0 1.583.7 1.583 1.565v20.87c0 .864-.709 1.565-1.583 1.565H6.583C5.71 41 5 40.3 5 39.435v-20.87C5 17.701 5.709 17 6.583 17Z" clip-rule="evenodd" opacity=".3"/>
  <path fill="url(#prefix__b)" d="M40.125 12.82C29.563 12.82 21 21.407 21 32h4.5c0-8.1 6.548-14.667 14.625-14.667v2.82L48 15.078 40.125 10v2.82Z" clip-rule="evenodd" opacity=".43"/>
  <path fill="url(#prefix__c)" d="M20.25 41h7.5L29 47H19l1.25-6Z" clip-rule="evenodd" opacity=".42"/>
  <path fill="url(#prefix__d)" d="M5 37h38v2.286c0 .947-.709 1.714-1.583 1.714H6.583C5.71 41 5 40.233 5 39.286V37Z" clip-rule="evenodd"/>
  <path fill="url(#prefix__e)" d="M42.98 18.314A1.578 1.578 0 0 0 41.417 17H28.206A19.164 19.164 0 0 0 21 32h4.5c0-8.1 6.548-14.667 14.625-14.667v2.82l2.855-1.84Z" clip-rule="evenodd" opacity=".43"/>
  <path fill="url(#prefix__f)" d="M3 15h22v19H3V15Z" clip-rule="evenodd" opacity=".43"/>
  <path fill="url(#prefix__g)" d="M18 19v-8c0-2.455-1.545-4-4-4s-4 1.545-4 4v8H6v-8a8 8 0 1 1 16 0v8h-4Z" opacity=".43"/>
  <path fill="url(#prefix__h)" fill-opacity=".9" d="M11 21.895C11 20.296 12.343 19 14 19s3 1.296 3 2.895c0 .947-.471 1.788-1.2 2.316V30h-3.6v-5.79a2.858 2.858 0 0 1-1.2-2.315Z" clip-rule="evenodd"/>
  <path fill="url(#prefix__i)" d="M6 15h4v4H6v-4Z" clip-rule="evenodd" opacity=".43"/>
  <path fill="url(#prefix__j)" d="M18 15h4v4h-4v-4Z" clip-rule="evenodd" opacity=".43"/>
  <path fill="url(#prefix__k)" fill-opacity=".4" d="M25 20.26V32h-4c0-4.422 1.492-8.495 4-11.74Z" clip-rule="evenodd"/>
  <defs>
    <linearGradient id="prefix__a" x1="21.992" x2="9.165" y1="12.38" y2="36.795" gradientUnits="userSpaceOnUse">
      <stop stop-color="#70B1FF"/>
      <stop offset="1" stop-color="#005CCD"/>
    </linearGradient>
    <linearGradient id="prefix__b" x1="61.5" x2="39.953" y1="21" y2="-5.444" gradientUnits="userSpaceOnUse">
      <stop stop-color="#70B1FF"/>
      <stop offset="1" stop-color="#005CCD"/>
    </linearGradient>
    <linearGradient id="prefix__c" x1="22.071" x2="17.461" y1="35.685" y2="46.334" gradientUnits="userSpaceOnUse">
      <stop stop-color="#70B1FF"/>
      <stop offset="1" stop-color="#005CCD"/>
    </linearGradient>
    <linearGradient id="prefix__d" x1="24" x2="23.167" y1="35" y2="42.912" gradientUnits="userSpaceOnUse">
      <stop stop-color="#86B3F9"/>
      <stop offset="1" stop-color="#5B88D8"/>
    </linearGradient>
    <linearGradient id="prefix__e" x1="61.5" x2="39.953" y1="21" y2="-5.444" gradientUnits="userSpaceOnUse">
      <stop stop-color="#70B1FF"/>
      <stop offset="1" stop-color="#005CCD"/>
    </linearGradient>
    <linearGradient id="prefix__f" x1="36" x2="17.202" y1="24.5" y2="2.734" gradientUnits="userSpaceOnUse">
      <stop stop-color="#70B1FF"/>
      <stop offset="1" stop-color="#005CCD"/>
    </linearGradient>
    <linearGradient id="prefix__g" x1="14" x2="30.708" y1="27.354" y2="11.354" gradientUnits="userSpaceOnUse">
      <stop stop-color="#70B1FF"/>
      <stop offset="1" stop-color="#005CCD"/>
    </linearGradient>
    <linearGradient id="prefix__h" x1="14.039" x2="26.977" y1="39.931" y2="32.857" gradientUnits="userSpaceOnUse">
      <stop stop-color="#295296"/>
      <stop offset="1" stop-color="#3E78D3"/>
    </linearGradient>
    <linearGradient id="prefix__i" x1="12" x2="8" y1="17" y2="13" gradientUnits="userSpaceOnUse">
      <stop stop-color="#70B1FF"/>
      <stop offset="1" stop-color="#005CCD"/>
    </linearGradient>
    <linearGradient id="prefix__j" x1="24" x2="20" y1="17" y2="13" gradientUnits="userSpaceOnUse">
      <stop stop-color="#70B1FF"/>
      <stop offset="1" stop-color="#005CCD"/>
    </linearGradient>
    <linearGradient id="prefix__k" x1="23.026" x2="33.059" y1="42.598" y2="39.172" gradientUnits="userSpaceOnUse">
      <stop stop-color="#295296"/>
      <stop offset="1" stop-color="#3E78D3"/>
    </linearGradient>
  </defs>
</svg>
