<svg width="48" height="48" fill="none" viewBox="0 0 48 48" xmlns="http://www.w3.org/2000/svg">
  <g fill-rule="evenodd" clip-path="url(#prefix__a)" clip-rule="evenodd">
    <path fill="url(#prefix__b)" d="M22.578 3.517c.77-1.337 2.698-1.337 3.467 0l7.189 12.485C34 17.335 33.039 19 31.5 19H17.123c-1.538 0-2.5-1.665-1.733-2.998l7.188-12.485Zm.615 3.79a1.121 1.121 0 1 1 2.24 0l-.292 5.428a.83.83 0 0 1-1.657 0l-.291-5.428Zm2.303 8.58a1.183 1.183 0 1 1-2.366 0 1.183 1.183 0 0 1 2.366 0Z" opacity=".5"/>
    <path fill="url(#prefix__c)" d="m27.892 27.031-2.123-2.123-1.962 4.354-2.582.797-8.195 8.195c-2.01 2.01-2.616 4.662-.606 6.672 2.01 2.01 4.662 1.404 6.672-.606l8.193-8.193.754-2.726 4.4-1.82-2.124-2.123 11.829-11.83 2.123-3.336-1.213-1.213-3.337 2.123-11.829 11.83Z" opacity=".5"/>
    <path fill="url(#prefix__d)" d="m8.62 20.942-3.483-6.034a6.863 6.863 0 0 0 7.004 11.08l19.35 19.35a3.432 3.432 0 1 0 4.853-4.853l-19.35-19.35a6.863 6.863 0 0 0-6.312-8.633l3.14 5.438-1.314 3.73-3.887-.728ZM35.243 42.95a1.287 1.287 0 1 1-2.573 0 1.287 1.287 0 0 1 2.573 0Z" opacity=".55"/>
    <path fill="url(#prefix__e)" d="m42.148 17.629 2.123-3.337-1.213-1.213-3.337 2.123 2.427 2.427Z"/>
    <path fill="url(#prefix__f)" d="m24.215 28.356-.409.906-2.583.798-2.505 2.505 6.066 6.066 2.504-2.504.754-2.726.861-.356-4.688-4.689Z"/>
  </g>
  <defs>
    <linearGradient id="prefix__b" x1="15.453" x2="4.23" y1="-4.605" y2="16.422" gradientUnits="userSpaceOnUse">
      <stop stop-color="#70B1FF"/>
      <stop offset="1" stop-color="#005CCD"/>
    </linearGradient>
    <linearGradient id="prefix__c" x1="11.431" x2="46.949" y1="52.488" y2="16.97" gradientUnits="userSpaceOnUse">
      <stop stop-color="#70B1FF"/>
      <stop offset="1" stop-color="#005CCD"/>
    </linearGradient>
    <linearGradient id="prefix__d" x1="56.408" x2="14.802" y1="28.752" y2="1.565" gradientUnits="userSpaceOnUse">
      <stop stop-color="#70B1FF"/>
      <stop offset="1" stop-color="#005CCD"/>
    </linearGradient>
    <linearGradient id="prefix__e" x1="40.867" x2="40.443" y1="12.902" y2="17.47" gradientUnits="userSpaceOnUse">
      <stop stop-color="#5B92E5"/>
      <stop offset="1" stop-color="#457BD3"/>
    </linearGradient>
    <linearGradient id="prefix__f" x1="18.224" x2="30.169" y1="48.8" y2="34.422" gradientUnits="userSpaceOnUse">
      <stop stop-color="#295296"/>
      <stop offset="1" stop-color="#3E78D3"/>
    </linearGradient>
    <clipPath id="prefix__a">
      <path fill="#fff" d="M0 0h48v48H0z"/>
    </clipPath>
  </defs>
</svg>
