<svg width="48" height="48" fill="none" viewBox="0 0 48 48" xmlns="http://www.w3.org/2000/svg">
  <g clip-path="url(#prefix__a)">
    <path fill="url(#prefix__b)" d="M35.061 23.86c6.666 0 12.07-5.403 12.07-12.07 0-6.665-5.404-12.069-12.07-12.069s-12.07 5.404-12.07 12.07 5.404 12.07 12.07 12.07Z" clip-rule="evenodd" opacity=".45" style="mix-blend-mode:multiply"/>
    <path fill="url(#prefix__c)" d="M36.152 5.16c2.036.177 3.632 1.825 3.632 3.832v.7h-2.18v-.7c0-.966-.814-1.75-1.817-1.75h-1.452c-1.004 0-1.817.784-1.817 1.75s.813 1.75 1.817 1.75h1.453c2.207 0 3.996 1.722 3.996 3.846 0 2.007-1.596 3.655-3.632 3.832v2.817h-2.18V18.42c-2.038-.177-3.634-1.825-3.634-3.833v-.697h2.18v.697c0 .966.813 1.75 1.817 1.75h1.453c1.003 0 1.816-.783 1.816-1.749 0-.965-.813-1.748-1.816-1.748h-1.453c-2.208 0-3.997-1.723-3.997-3.848 0-2.008 1.596-3.656 3.633-3.833V2.345h2.18v2.814Z"/>
    <path fill="url(#prefix__d)" d="M27.19 7.593H4.1v5.832c0 2.468 1.099 4.837 3.058 6.603l5.34 4.806c1.02.918 1.02 2.382 0 3.301l-5.34 4.806C5.198 34.707 4.1 37.076 4.1 39.543v5.833h23.09v-5.833c0-2.467-1.1-4.836-3.059-6.602l-5.34-4.806c-1.02-.919-1.02-2.383 0-3.301l5.34-4.806c1.962-1.764 3.059-4.135 3.059-6.603V7.593Z" opacity=".45" style="mix-blend-mode:multiply"/>
    <path fill="url(#prefix__e)" d="m16.655 25.046 4.761-4.334H9.871l4.761 4.334a1.51 1.51 0 0 0 2.023 0Z"/>
    <path fill="url(#prefix__f)" d="m14.583 35.835-9.959 9.541h22.04l-9.958-9.541a1.527 1.527 0 0 0-2.123 0Z"/>
    <path fill="url(#prefix__g)" d="M2 4.969h27.288v2.624H2z" opacity=".45" style="mix-blend-mode:multiply"/>
    <path fill="url(#prefix__h)" d="M2 45.376h27.288V48H2z" opacity=".45" style="mix-blend-mode:multiply"/>
  </g>
  <defs>
    <linearGradient id="prefix__b" x1="14.502" x2="33.314" y1="11.867" y2="28.845" gradientUnits="userSpaceOnUse">
      <stop stop-color="#70B1FF" stop-opacity=".7"/>
      <stop offset="1" stop-color="#005CCD"/>
    </linearGradient>
    <linearGradient id="prefix__c" x1="56.029" x2="33.227" y1="11.564" y2="4.608" gradientUnits="userSpaceOnUse">
      <stop stop-color="#295296"/>
      <stop offset="1" stop-color="#3E78D3"/>
    </linearGradient>
    <linearGradient id="prefix__d" x1="-4.02" x2="21.015" y1="26.604" y2="40.412" gradientUnits="userSpaceOnUse">
      <stop stop-color="#70B1FF" stop-opacity=".7"/>
      <stop offset="1" stop-color="#005CCD"/>
    </linearGradient>
    <linearGradient id="prefix__e" x1="41.271" x2="31.824" y1="23.017" y2="8.927" gradientUnits="userSpaceOnUse">
      <stop stop-color="#295296"/>
      <stop offset="1" stop-color="#3E78D3"/>
    </linearGradient>
    <linearGradient id="prefix__f" x1="64.569" x2="43.941" y1="40.271" y2="12.448" gradientUnits="userSpaceOnUse">
      <stop stop-color="#295296"/>
      <stop offset="1" stop-color="#3E78D3"/>
    </linearGradient>
    <linearGradient id="prefix__g" x1="-7.596" x2="-7.163" y1="6.289" y2="10.354" gradientUnits="userSpaceOnUse">
      <stop stop-color="#70B1FF" stop-opacity=".7"/>
      <stop offset="1" stop-color="#005CCD"/>
    </linearGradient>
    <linearGradient id="prefix__h" x1="-7.596" x2="-7.163" y1="46.696" y2="50.761" gradientUnits="userSpaceOnUse">
      <stop stop-color="#70B1FF" stop-opacity=".7"/>
      <stop offset="1" stop-color="#005CCD"/>
    </linearGradient>
    <clipPath id="prefix__a">
      <path fill="#fff" d="M0 0h48v48H0z"/>
    </clipPath>
  </defs>
</svg>
