<svg width="48" height="48" fill="none" viewBox="0 0 48 48" xmlns="http://www.w3.org/2000/svg">
  <g clip-path="url(#prefix__a)">
    <path fill="url(#prefix__b)" d="M20.615 29.651v7.474h6.74v-7.474c-1.08.266-2.209.406-3.37.406-1.162 0-2.29-.14-3.37-.406Z" clip-rule="evenodd" opacity=".4"/>
    <rect width="32.905" height="5.497" x="7.532" y="1" fill="url(#prefix__c)" opacity=".4" rx="1.189"/>
    <path fill="url(#prefix__d)" d="M17.048 38.711c0-.875.71-1.585 1.586-1.585h10.704c.875 0 1.585.71 1.585 1.585v5.875H17.049v-5.875Z" opacity=".4"/>
    <path fill="url(#prefix__e)" d="M14.273 41.067c0-.876.71-1.586 1.585-1.586h16.255c.875 0 1.585.71 1.585 1.586v5.875H14.273v-5.875Z" opacity=".4"/>
    <path fill="url(#prefix__f)" d="M12.687 44.983c0-.22.177-.397.396-.397h21.805c.218 0 .396.178.396.397v1.563a.396.396 0 0 1-.396.396H13.083a.396.396 0 0 1-.396-.396v-1.563Z" opacity=".4"/>
    <path fill="url(#prefix__g)" d="M34.256 23.571c4.484-.117 7.7-1.656 9.906-3.876 2.264-2.277 3.355-5.16 3.78-7.64.46-2.683-1.855-4.576-4.19-4.576h-7.278v2.749h7.278c.484 0 .898.19 1.158.454.246.249.357.558.296.914-.36 2.098-1.265 4.404-3.021 6.171-1.434 1.442-3.51 2.603-6.528 2.954a14.018 14.018 0 0 1-1.401 2.85Z" clip-rule="evenodd" opacity=".4"/>
    <path fill="url(#prefix__h)" d="M13.746 23.571c-4.485-.117-7.7-1.656-9.906-3.876-2.264-2.277-3.355-5.16-3.78-7.64C-.4 9.373 1.915 7.48 4.25 7.48h7.278v2.749H4.25c-.484 0-.898.19-1.158.454a1.01 1.01 0 0 0-.296.914c.36 2.098 1.265 4.404 3.021 6.171 1.434 1.442 3.51 2.603 6.528 2.954a14.02 14.02 0 0 0 1.401 2.85Z" clip-rule="evenodd" opacity=".4"/>
    <path fill="url(#prefix__i)" d="M9.911 3.749H38.06v12.234c0 7.773-6.301 14.074-14.074 14.074s-14.074-6.3-14.074-14.073V3.748Z" opacity=".4"/>
    <path fill="url(#prefix__j)" d="m24.59 9.026 1.733 3.542 3.875.567c.768.113 1.075 1.065.52 1.61l-2.805 2.757.662 3.892c.131.772-.671 1.36-1.358.996l-3.466-1.838-3.466 1.838c-.687.364-1.49-.224-1.359-.996l.662-3.892-2.803-2.756c-.556-.546-.25-1.498.519-1.61l3.875-.568 1.732-3.542a.933.933 0 0 1 1.68 0Z" opacity=".55"/>
  </g>
  <defs>
    <linearGradient id="prefix__b" x1="23.985" x2="15.603" y1="24.161" y2="30.697" gradientUnits="userSpaceOnUse">
      <stop stop-color="#70B1FF"/>
      <stop offset="1" stop-color="#005CCD"/>
    </linearGradient>
    <linearGradient id="prefix__c" x1="23.985" x2="22.198" y1="-1.749" y2="8.947" gradientUnits="userSpaceOnUse">
      <stop stop-color="#70B1FF"/>
      <stop offset="1" stop-color="#005CCD"/>
    </linearGradient>
    <linearGradient id="prefix__d" x1="23.986" x2="17.762" y1="33.395" y2="44.97" gradientUnits="userSpaceOnUse">
      <stop stop-color="#70B1FF"/>
      <stop offset="1" stop-color="#005CCD"/>
    </linearGradient>
    <linearGradient id="prefix__e" x1="23.985" x2="18.991" y1="35.751" y2="48.755" gradientUnits="userSpaceOnUse">
      <stop stop-color="#70B1FF"/>
      <stop offset="1" stop-color="#005CCD"/>
    </linearGradient>
    <linearGradient id="prefix__f" x1="23.985" x2="23.499" y1="43.408" y2="48.069" gradientUnits="userSpaceOnUse">
      <stop stop-color="#70B1FF"/>
      <stop offset="1" stop-color="#005CCD"/>
    </linearGradient>
    <linearGradient id="prefix__g" x1="41.128" x2="25.234" y1="-.567" y2="13.009" gradientUnits="userSpaceOnUse">
      <stop stop-color="#70B1FF"/>
      <stop offset="1" stop-color="#005CCD"/>
    </linearGradient>
    <linearGradient id="prefix__h" x1="6.874" x2="22.768" y1="-.567" y2="13.009" gradientUnits="userSpaceOnUse">
      <stop stop-color="#70B1FF"/>
      <stop offset="1" stop-color="#005CCD"/>
    </linearGradient>
    <linearGradient id="prefix__i" x1="23.985" x2="-2.264" y1="-9.406" y2="18.678" gradientUnits="userSpaceOnUse">
      <stop stop-color="#70B1FF"/>
      <stop offset="1" stop-color="#005CCD"/>
    </linearGradient>
    <linearGradient id="prefix__j" x1="1.767" x2="20.167" y1="12.169" y2="32.369" gradientUnits="userSpaceOnUse">
      <stop stop-color="#70B1FF" stop-opacity=".7"/>
      <stop offset="1" stop-color="#005CCD"/>
    </linearGradient>
    <clipPath id="prefix__a">
      <path fill="#fff" d="M0 0h48v48H0z"/>
    </clipPath>
  </defs>
</svg>
