<svg width="48" height="48" fill="none" viewBox="0 0 48 48" xmlns="http://www.w3.org/2000/svg">
  <path fill="url(#prefix__a)" d="M2 11.625h44v33H2z" opacity=".4"/>
  <path fill="url(#prefix__b)" d="M2 11.625h44V24a5.5 5.5 0 0 1-5.5 5.5h-33A5.5 5.5 0 0 1 2 24V11.625Z" clip-rule="evenodd" opacity=".35"/>
  <path fill="url(#prefix__c)" d="M19.875 26.063h8.25v8.25h-8.25z"/>
  <path fill="url(#prefix__d)" d="M17.125 15.75V9.562c0-1.139.923-2.062 2.063-2.062h9.625c1.139 0 2.062.923 2.062 2.063v6.187H35V9.562a6.187 6.187 0 0 0-6.188-6.187h-9.625A6.187 6.187 0 0 0 13 9.563v6.187h4.125Z" opacity=".45"/>
  <path fill="#548AE3" d="M30.875 11.625H35v4.125h-4.125z"/>
  <path fill="#568AE3" d="M13 11.625h4.125v4.125H13z"/>
  <defs>
    <linearGradient id="prefix__a" x1="24" x2="-7.68" y1="-4.875" y2="37.365" gradientUnits="userSpaceOnUse">
      <stop stop-color="#70B1FF"/>
      <stop offset="1" stop-color="#005CCD"/>
    </linearGradient>
    <linearGradient id="prefix__b" x1="46" x2="2" y1="20.563" y2="20.563" gradientUnits="userSpaceOnUse">
      <stop stop-color="#70B1FF"/>
      <stop offset="1" stop-color="#005CCD"/>
    </linearGradient>
    <linearGradient id="prefix__c" x1="13.393" x2="22.961" y1="28.769" y2="39.096" gradientUnits="userSpaceOnUse">
      <stop stop-color="#295296"/>
      <stop offset="1" stop-color="#3E78D3"/>
    </linearGradient>
    <linearGradient id="prefix__d" x1="-9.818" x2="3.563" y1="6.163" y2="32.019" gradientUnits="userSpaceOnUse">
      <stop stop-color="#70B1FF"/>
      <stop offset="1" stop-color="#005CCD"/>
    </linearGradient>
  </defs>
</svg>
