<svg xmlns="http://www.w3.org/2000/svg" fill="none" viewBox="0 0 24 24" class="acv-icon"><path stroke="#141414" stroke-linecap="round" stroke-linejoin="round" stroke-width="1.5" d="M15.25 12a3.25 3.25 0 1 1-6.5 0 3.25 3.25 0 0 1 6.5 0ZM9.5 14.5 5 19"/><path stroke="#141414" stroke-linecap="round" stroke-linejoin="round" d="M6.5 18.5a1 1 0 1 1-2 0 1 1 0 0 1 2 0ZM6.5 5.5a1 1 0 1 1-2 0 1 1 0 0 1 2 0ZM13 5.5a1 1 0 1 1-2 0 1 1 0 0 1 2 0Z"/><path stroke="#141414" stroke-linecap="round" stroke-linejoin="round" stroke-width="1.5" d="M12 8.5V5M9.5 9.5l-4-4"/></svg>