<svg xmlns="http://www.w3.org/2000/svg" fill="none" viewBox="0 0 16 16" class="acv-icon"><circle cx="8" cy="8" r="8" fill="#fff"/><path fill="#EA3939" d="M8 15A7 7 0 1 1 8 1a7 7 0 0 1 0 14Z"/><path fill="#fff" fill-rule="evenodd" d="M9.826 9.18a2.99 2.99 0 1 0-2.958-2.553c.057.39-.017.804-.295 1.082l-2.4 2.4a1 1 0 0 0-.291.766l.016.275a1 1 0 0 0 .94.939l.274.016a1 1 0 0 0 .766-.291l2.38-2.38c.282-.282.703-.353 1.097-.291.154.024.31.037.47.037Zm.8-2.787a.997.997 0 1 0 0-1.993.997.997 0 0 0 0 1.993Z" clip-rule="evenodd"/></svg>