<svg xmlns="http://www.w3.org/2000/svg" fill="none" viewBox="0 0 32 32" class="acv-icon"><path fill="#FFC107" fill-rule="evenodd" d="M14.588 4.854c.143-.258.347-.473.593-.622.78-.475 1.779-.197 2.231.622L28.78 25.427c.144.261.22.558.22.86 0 .946-.73 1.713-1.632 1.713H4.633c-.288 0-.57-.08-.82-.231-.78-.475-1.045-1.523-.592-2.342L14.588 4.854Z" clip-rule="evenodd"/><path stroke="#243143" stroke-opacity=".1" d="M15.026 5.096c.101-.184.245-.334.415-.437.527-.321 1.213-.143 1.534.437l11.367 20.573c.103.186.158.4.158.618 0 .693-.53 1.213-1.132 1.213H4.633c-.195 0-.388-.054-.56-.158-.541-.33-.743-1.08-.415-1.673L15.026 5.096Z"/><path fill="#243143" fill-opacity=".9" d="M16 10.5a1.5 1.5 0 0 0-1.5 1.5v6a1.5 1.5 0 0 0 3 0v-6a1.5 1.5 0 0 0-1.5-1.5ZM16 24.5a1.5 1.5 0 1 0 0-3 1.5 1.5 0 0 0 0 3Z"/></svg>