<svg xmlns="http://www.w3.org/2000/svg" fill="none" viewBox="0 0 24 24" class="acv-icon"><path fill="#2668C5" fill-rule="evenodd" d="M1 5.077A2.07 2.07 0 0 1 3.063 3h17.875C22.076 3 23 3.93 23 5.077v13.846A2.07 2.07 0 0 1 20.937 21H3.063A2.07 2.07 0 0 1 1 18.923V5.077Zm3.17.816a1.25 1.25 0 0 1 1.292.08L12 9.98l6.538-4.008A1.25 1.25 0 0 1 20.5 7v10c0 .69-.56 1.25-1.25 1.25h-1A.25.25 0 0 1 18 18V9.386l-5.289 3.142a1.25 1.25 0 0 1-1.422 0L6 9.386V18a.25.25 0 0 1-.25.25h-1c-.69 0-1.25-.56-1.25-1.25V7c0-.465.258-.891.67-1.107Z" clip-rule="evenodd"/></svg>