<svg xmlns="http://www.w3.org/2000/svg" fill="none" viewBox="0 0 24 24" class="acv-icon"><path stroke="#141414" stroke-linecap="round" stroke-linejoin="round" stroke-width="1.5" d="M17.25 19.25H5.75a1 1 0 0 1-1-1V5.75a1 1 0 0 1 1-1h8.5a1 1 0 0 1 1 1V10"/><path stroke="#141414" stroke-linecap="round" stroke-linejoin="round" stroke-width="1.5" d="M17.523 9.75H15.25v7.5a2 2 0 1 0 4 0v-5.773c0-.954-.773-1.727-1.727-1.727ZM7.75 8.75a1 1 0 0 1 1-1h2.5a1 1 0 0 1 1 1v1.5a1 1 0 0 1-1 1h-2.5a1 1 0 0 1-1-1v-1.5ZM8 13.75h4M8 16.25h4"/></svg>