<svg xmlns="http://www.w3.org/2000/svg" fill="none" viewBox="0 0 16 16" class="acv-icon"><path fill="#2668C5" d="m1.423 3.627 4.315-2.37a1.934 1.934 0 0 1 1.524-.172l4.146 1.313c.374.121.592.407.592.79v4.15a4.114 4.114 0 0 0-3.808.676V3.627l-3.29 1.205c-.696.27-.94.925-.94 1.653V9.33c0 .57-.88.957-1.434 1.2-.099.043-.188.082-.259.117C1.66 10.944 1 10.432 1 9.77V4.504c0-.316.141-.718.423-.877ZM6.5 12.403c0 .925.276 1.783.747 2.49-.515.164-1.138.151-1.593-.122-.3-.18-.67-.394-1.053-.615a64.597 64.597 0 0 1-1.486-.876c-.591-.364-.396-1.755.423-1.755h3.047a4.566 4.566 0 0 0-.085.878Z"/><path fill="#2668C5" fill-rule="evenodd" d="M14.593 11.034c.402-.14.822.118.874.496a3.444 3.444 0 0 1 .001.94.64.64 0 0 1-.644.536.685.685 0 0 1-.227-.038.326.326 0 0 0-.404.166c-.081.17-.181.333-.297.485a.285.285 0 0 0 .044.409c.154.119.24.292.235.479a.603.603 0 0 1-.26.477 4.049 4.049 0 0 1-.863.467.693.693 0 0 1-.257.049c-.319 0-.589-.212-.64-.506-.028-.154-.184-.257-.359-.24-.195.019-.397.019-.592 0-.174-.016-.33.086-.358.24-.052.294-.321.506-.64.506a.694.694 0 0 1-.258-.049 4.068 4.068 0 0 1-.863-.467.585.585 0 0 1-.025-.957.286.286 0 0 0 .044-.41 2.728 2.728 0 0 1-.297-.483.335.335 0 0 0-.4-.168c-.403.14-.823-.118-.874-.496a3.418 3.418 0 0 1-.001-.94.64.64 0 0 1 .644-.536c.078 0 .154.014.227.038a.326.326 0 0 0 .404-.166c.081-.17.181-.333.297-.485a.285.285 0 0 0-.044-.409.587.587 0 0 1-.235-.479.602.602 0 0 1 .26-.477c.265-.19.556-.346.863-.467a.694.694 0 0 1 .257-.049c.319 0 .589.212.64.506.028.154.185.258.359.24.194-.019.397-.019.592 0 .175.018.33-.086.358-.24.052-.294.321-.506.64-.506.09 0 .176.016.258.049.306.12.597.278.863.467.161.115.256.288.26.477a.586.586 0 0 1-.235.48.286.286 0 0 0-.044.41c.116.15.215.313.297.483.068.142.25.222.4.168ZM10.3 12c0 .643.538 1.167 1.2 1.167.662 0 1.2-.524 1.2-1.167s-.538-1.167-1.2-1.167c-.662 0-1.2.524-1.2 1.167Z" clip-rule="evenodd"/></svg>