<svg fill="none" viewBox="0 0 24 24" xmlns="http://www.w3.org/2000/svg">
  <path fill="currentColor" d="M17.625 9.896a3.396 3.396 0 1 0 0-6.792 3.396 3.396 0 0 0 0 6.792Zm0-5.292a1.896 1.896 0 1 1 0 3.792 1.896 1.896 0 0 1 0-3.792Zm-11.25 5.29a3.396 3.396 0 1 0 0-6.792 3.396 3.396 0 0 0 0 6.793Zm0-5.291a1.896 1.896 0 1 1 0 3.79 1.896 1.896 0 0 1 0-3.79Zm17.392 9.816a8.621 8.621 0 0 0-4.73-2.417l-1.412 2.01-1.412-2.01A8.628 8.628 0 0 0 12 13.979a8.629 8.629 0 0 0-4.213-1.977l-1.412 2.01-1.412-2.01a8.621 8.621 0 0 0-4.73 2.417L0 14.652V20h24v-5.348l-.233-.233ZM11.25 18.5H1.5v-3.219a7.094 7.094 0 0 1 2.813-1.595l2.062 2.935 2.063-2.935a7.094 7.094 0 0 1 2.812 1.595v3.22Zm11.25 0h-9.75v-3.219a7.094 7.094 0 0 1 2.813-1.595l2.062 2.935 2.063-2.935A7.094 7.094 0 0 1 22.5 15.28v3.22Z"/>
</svg>
