<svg fill="none" viewBox="0 0 24 24" xmlns="http://www.w3.org/2000/svg">
  <path fill="currentColor" d="M19.7 8.3V5.553h-1.4V8.3h-2.747v1.4H18.3v2.747h1.4V9.701h2.747V8.3H19.7ZM9.5 9.835a3.834 3.834 0 1 0 0-7.668 3.834 3.834 0 0 0 0 7.668Zm0-6.167a2.333 2.333 0 1 1 0 4.667 2.333 2.333 0 0 1 0-4.667Zm0 7.979a10.187 10.187 0 0 0-7.225 2.988L2 14.908V20h15v-5.092l-.275-.274A10.187 10.187 0 0 0 9.5 11.645Zm6 6.854h-12v-2.96c.023-.02.09-.084.113-.105a8.713 8.713 0 0 1 11.774 0c.024.02.09.084.113.105v2.96Z"/>
</svg>
