<svg xmlns="http://www.w3.org/2000/svg" fill="none" viewBox="0 0 16 16" class="acv-icon"><g fill="#2668C5" clip-path="url(#a)"><path d="M5 1a1 1 0 0 1 1-1h4a1 1 0 1 1 0 2H6a1 1 0 0 1-1-1ZM6.5 6.5a1 1 0 0 1 1 1v4a1 1 0 1 1-2 0v-4a1 1 0 0 1 1-1ZM10.5 7.5a1 1 0 1 0-2 0v4a1 1 0 1 0 2 0v-4Z"/><path fill-rule="evenodd" d="M1 4a1 1 0 0 1 1-1h12a1 1 0 1 1 0 2h-.044l-.457 10.045A1 1 0 0 1 12.5 16h-9a1 1 0 0 1-.999-.955L2.044 5H2a1 1 0 0 1-1-1Zm3.046 1 .41 9h7.088l.41-9H4.045Z" clip-rule="evenodd"/></g><defs><clipPath id="a"><path fill="#fff" d="M0 0h16v16H0z"/></clipPath></defs></svg>