<svg xmlns="http://www.w3.org/2000/svg" fill="none" viewBox="0 0 32 32" class="acv-icon"><path fill="#2668C5" fill-rule="evenodd" d="M16 12.533V5a2 2 0 0 0-2-2H5a2 2 0 0 0-2 2v24h26V14.533a2 2 0 0 0-2-2H16ZM8 23.5a.5.5 0 0 1-.5.5h-1a.5.5 0 0 1-.5-.5v-2a.5.5 0 0 1 .5-.5h1a.5.5 0 0 1 .5.5v2ZM7.5 19a.5.5 0 0 0 .5-.5v-2a.5.5 0 0 0-.5-.5h-1a.5.5 0 0 0-.5.5v2a.5.5 0 0 0 .5.5h1Zm.5-5.5a.5.5 0 0 1-.5.5h-1a.5.5 0 0 1-.5-.5v-2a.5.5 0 0 1 .5-.5h1a.5.5 0 0 1 .5.5v2ZM7.5 9a.5.5 0 0 0 .5-.5v-2a.5.5 0 0 0-.5-.5h-1a.5.5 0 0 0-.5.5v2a.5.5 0 0 0 .5.5h1ZM13 23.5a.5.5 0 0 1-.5.5h-1a.5.5 0 0 1-.5-.5v-2a.5.5 0 0 1 .5-.5h1a.5.5 0 0 1 .5.5v2Zm-.5-4.5a.5.5 0 0 0 .5-.5v-2a.5.5 0 0 0-.5-.5h-1a.5.5 0 0 0-.5.5v2a.5.5 0 0 0 .5.5h1Zm.5-5.5a.5.5 0 0 1-.5.5h-1a.5.5 0 0 1-.5-.5v-2a.5.5 0 0 1 .5-.5h1a.5.5 0 0 1 .5.5v2ZM12.5 9a.5.5 0 0 0 .5-.5v-2a.5.5 0 0 0-.5-.5h-1a.5.5 0 0 0-.5.5v2a.5.5 0 0 0 .5.5h1ZM21 23.5a.5.5 0 0 1-.5.5h-1a.5.5 0 0 1-.5-.5v-2a.5.5 0 0 1 .5-.5h1a.5.5 0 0 1 .5.5v2Zm-.5-4.5a.5.5 0 0 0 .5-.5v-2a.5.5 0 0 0-.5-.5h-1a.5.5 0 0 0-.5.5v2a.5.5 0 0 0 .5.5h1Zm5.5 4.5a.5.5 0 0 1-.5.5h-1a.5.5 0 0 1-.5-.5v-2a.5.5 0 0 1 .5-.5h1a.5.5 0 0 1 .5.5v2Zm-.5-4.5a.5.5 0 0 0 .5-.5v-2a.5.5 0 0 0-.5-.5h-1a.5.5 0 0 0-.5.5v2a.5.5 0 0 0 .5.5h1Z" clip-rule="evenodd"/></svg>