<svg xmlns="http://www.w3.org/2000/svg" fill="none" viewBox="0 0 16 16" class="acv-icon"><g clip-path="url(#a)"><path fill="#2668C5" d="m13.168 8.04 1.722 1.722c2.25 2.25.559 6.188-2.563 6.188a3.616 3.616 0 0 1-2.563-1.061l-1.722-1.723C2.882 14.462-1.632 8.6.573 3.833c.308-.666.997-.82 1.595-.57.285.12.568.33.898.637.823.768 1.517 1.668 2.216 2.547.173.22.46.317.692.255.343-.104.622-.33.719-.69a.699.699 0 0 0-.244-.731c-1.191-.935-2.035-1.667-2.547-2.216-.309-.33-.518-.614-.638-.898-.25-.598-.095-1.287.57-1.595C8.597-1.63 14.473 2.879 13.169 8.04Zm-7.46-5.993c1.303 1.23 3.49 2.343 2.917 4.482-.277 1.034-1.089 1.785-2.094 2.094C4.373 9.2 3.269 7.04 2.047 5.708c-.674 3.318 2.758 6.416 5.993 5.391l.58-.183 2.558 2.558c.31.31.72.476 1.149.476a1.625 1.625 0 0 0 1.149-2.774l-2.558-2.558.183-.579c1.023-3.24-1.963-6.74-5.392-5.992Z"/></g><defs><clipPath id="a"><path fill="#fff" d="M0 0h16v16H0z"/></clipPath></defs></svg>