<svg xmlns="http://www.w3.org/2000/svg" fill="none" viewBox="0 0 32 32" class="acv-icon"><path fill="#2668C5" fill-rule="evenodd" d="M5.94 4h20.12A2.93 2.93 0 0 1 29 6.94V11H3V6.94A2.93 2.93 0 0 1 5.94 4Zm-.273 4.747a1.5 1.5 0 1 0 1.666-2.494 1.5 1.5 0 0 0-1.666 2.494Zm5 0a1.5 1.5 0 1 0 1.666-2.493 1.5 1.5 0 0 0-1.666 2.493ZM3.221 27.187A2.93 2.93 0 0 1 3 26.06V13h26v13.06A2.93 2.93 0 0 1 26.06 29H5.94a2.93 2.93 0 0 1-2.719-1.813ZM26 16H15v2h11v-2Zm0 4H15v2h11v-2Zm0 4H15v2h11v-2Zm-14-8H6v10h6V16Z" clip-rule="evenodd"/></svg>