<svg xmlns="http://www.w3.org/2000/svg" fill="none" viewBox="0 0 16 16" class="acv-icon"><g fill="#2668C5" clip-path="url(#a)"><path d="M3.5 4a.5.5 0 1 1 0-1 .5.5 0 0 1 0 1ZM5 3.5a.5.5 0 1 0 1 0 .5.5 0 0 0-1 0ZM7.5 4a.5.5 0 1 1 0-1 .5.5 0 0 1 0 1ZM5 8.5a.5.5 0 0 0-.5-.5h-1a.5.5 0 0 0 0 1h1a.5.5 0 0 0 .5-.5ZM4.5 10a.5.5 0 0 1 0 1h-1a.5.5 0 0 1 0-1h1ZM5 12.5a.5.5 0 0 0-.5-.5h-1a.5.5 0 0 0 0 1h1a.5.5 0 0 0 .5-.5ZM9.5 8h3a.5.5 0 0 1 0 1h-3a.5.5 0 0 1 0-1ZM9.5 10h1a.5.5 0 0 1 0 1h-1a.5.5 0 0 1 0-1ZM13 12.5a.5.5 0 0 0-.5-.5h-3a.5.5 0 0 0 0 1h3a.5.5 0 0 0 .5-.5Z"/><path fill-rule="evenodd" d="M1 0h14a1 1 0 0 1 1 1v14a1 1 0 0 1-1 1H1a1 1 0 0 1-1-1V1a1 1 0 0 1 1-1Zm1 2v3h12V2H2Zm0 12V7h4v7H2Zm12-7H8v7h6V7Z" clip-rule="evenodd"/></g><defs><clipPath id="a"><path fill="#fff" d="M0 0h16v16H0z"/></clipPath></defs></svg>