<svg xmlns="http://www.w3.org/2000/svg" fill="none" viewBox="0 0 24 24" class="acv-icon"><path fill="#2668C5" fill-rule="evenodd" d="M23 14.803A5.972 5.972 0 0 0 20 14h1v-4H7v4h13a5.985 5.985 0 0 0-4.472 2H7v4h7c0 .701.12 1.374.341 2H6a1 1 0 0 1-1-1v-5H2a1 1 0 0 1-1-1V3a1 1 0 0 1 1-1h16a1 1 0 0 1 1 1v5h3a1 1 0 0 1 1 1v5.803ZM3 4h14v4H3V4Zm0 6v4h2v-4H3Zm1-4a1 1 0 1 0 2 0 1 1 0 0 0-2 0Zm5 7a1 1 0 1 1 0-2 1 1 0 0 1 0 2Zm0 6a1 1 0 1 1 0-2 1 1 0 0 1 0 2Zm9-7a1 1 0 1 0 2 0 1 1 0 0 0-2 0Zm-2 1a1 1 0 1 1 0-2 1 1 0 0 1 0 2Zm-1-6a1 1 0 1 1 0-2 1 1 0 0 1 0 2Zm-4-1a1 1 0 1 0 2 0 1 1 0 0 0-2 0Z" clip-rule="evenodd"/></svg>