<svg xmlns="http://www.w3.org/2000/svg" fill="none" viewBox="0 0 24 24" class="acv-icon"><path fill="#2668C5" fill-rule="evenodd" d="M17 5.815C17 1.98 12 2 12 2s-5-.02-5 3.815c0 4.84 2.047 8.186 5 8.186 2.96 0 5-3.346 5-8.186Zm-5.546-1.772c.261-.033.457-.043.55-.043.085 0 .28.01.543.043a5.44 5.44 0 0 1 1.243.296c.854.324 1.21.732 1.21 1.476 0 3.88-1.408 6.186-3 6.186-1.588 0-3-2.31-3-6.186 0-.744.356-1.152 1.21-1.476a5.44 5.44 0 0 1 1.243-.296ZM23.96 16.896c-.066-.486-.591-.82-1.094-.638a.415.415 0 0 1-.5-.216 3.53 3.53 0 0 0-.371-.622.375.375 0 0 1 .055-.527.76.76 0 0 0 .294-.616.778.778 0 0 0-.326-.614 5.056 5.056 0 0 0-1.078-.6.857.857 0 0 0-.322-.063.8.8 0 0 0-.8.65c-.035.198-.23.333-.448.31a3.67 3.67 0 0 0-.74 0c-.218.023-.414-.112-.448-.31a.8.8 0 0 0-.8-.65.853.853 0 0 0-.322.063 5.033 5.033 0 0 0-1.079.6.779.779 0 0 0-.325.614.763.763 0 0 0 .294.616c.16.127.184.354.055.527-.145.194-.27.403-.371.622a.403.403 0 0 1-.505.214.838.838 0 0 0-.284-.05.808.808 0 0 0-.805.69 4.653 4.653 0 0 0 0 1.208c.065.486.59.819 1.094.638a.415.415 0 0 1 .5.216c.102.219.226.428.371.622.13.173.105.4-.055.528a.76.76 0 0 0-.294.615.778.778 0 0 0 .326.614 5.06 5.06 0 0 0 1.078.6.855.855 0 0 0 .322.063.8.8 0 0 0 .8-.65c.035-.198.23-.33.448-.31.243.025.497.025.74 0 .22-.02.414.112.448.31a.8.8 0 0 0 .8.65c.111 0 .22-.021.322-.063a5.03 5.03 0 0 0 1.078-.6.763.763 0 0 0 .032-1.23c-.16-.127-.184-.354-.055-.526.145-.195.27-.404.371-.622a.403.403 0 0 1 .505-.215c.091.033.187.05.284.05a.808.808 0 0 0 .805-.69 4.702 4.702 0 0 0 0-1.208ZM19 19c-.827 0-1.5-.673-1.5-1.5S18.173 16 19 16s1.5.673 1.5 1.5S19.827 19 19 19Zm-15-.33V20h8.349c.264.746.67 1.423 1.188 2H3.991C2.891 22 2 21.113 2 20.006V18.67c0-.83.642-1.73 1.422-2.008l3.641-1.292c.517-.184 1.35-.158 1.865.062l1.236.527c.571.243 1.345.343 2.092.312A5.989 5.989 0 0 0 12 18c0 .06.004.118.008.176l.006.104c-.936.002-1.874-.159-2.634-.483l-1.236-.526a1.484 1.484 0 0 0-.413-.018l-3.64 1.293c.014-.005-.091.143-.091.123Z" clip-rule="evenodd"/></svg>