<svg xmlns="http://www.w3.org/2000/svg" fill="none" viewBox="0 0 24 24" class="acv-icon"><path fill="#2668C5" d="M9.8 8.018c-.165-.02-.3.116-.3.282v2a.2.2 0 0 1-.2.2h-2c-.166 0-.302.135-.282.3a2.5 2.5 0 1 0 2.781-2.782ZM13 9a1 1 0 0 1 1-1h2a1 1 0 1 1 0 2h-2a1 1 0 0 1-1-1ZM14 11a1 1 0 1 0 0 2h2a1 1 0 1 0 0-2h-2Z"/><path fill="#2668C5" fill-rule="evenodd" d="M12 2a1 1 0 0 1 1 1v1h9a1 1 0 1 1 0 2h-1v9.9a1.1 1.1 0 0 1-1.1 1.1h-4.68l.76 3.804a1 1 0 0 1-1.96.392L13.18 17h-2.36l-.84 4.196a1 1 0 1 1-1.96-.392L8.78 17H4.1A1.1 1.1 0 0 1 3 15.9V6H2a1 1 0 0 1 0-2h9V3a1 1 0 0 1 1-1ZM5 6h14v9h-4.98a.84.84 0 0 0-.038 0H5V6Z" clip-rule="evenodd"/></svg>