<svg xmlns="http://www.w3.org/2000/svg" fill="none" viewBox="0 0 16 16" class="acv-icon"><path fill="#2668C5" d="M3 0a3 3 0 0 0-3 3v7a3 3 0 0 0 3 3h1v1.978a1.01 1.01 0 0 0 1.667.767L8.87 13H13a3 3 0 0 0 3-3V8a1 1 0 1 0-2 0v2a1 1 0 0 1-1 1H8.537a1.1 1.1 0 0 0-.716.265L6 12.825V11H3a1 1 0 0 1-1-1V3a1 1 0 0 1 1-1h5a1 1 0 0 0 0-2H3Z"/><path fill="#2668C5" d="M12.057.487a.562.562 0 0 0-1.114 0 7.74 7.74 0 0 1-.223 1.021c-.169.592-.415 1.176-.725 1.487-.31.31-.895.556-1.487.725a7.53 7.53 0 0 1-1.02.223.563.563 0 0 0 0 1.114c.344.05.686.127 1.02.223.592.169 1.176.415 1.487.725.31.31.556.895.725 1.487.095.334.173.676.223 1.02a.563.563 0 0 0 1.114 0 7.74 7.74 0 0 1 .223-1.02c.169-.592.415-1.176.725-1.487.31-.31.895-.556 1.486-.725a7.527 7.527 0 0 1 1.022-.223.563.563 0 0 0 0-1.114 7.513 7.513 0 0 1-1.021-.223c-.592-.169-1.176-.415-1.487-.725-.31-.31-.556-.895-.725-1.487a7.74 7.74 0 0 1-.223-1.02ZM5.81 5.27a.313.313 0 0 0-.62 0c-.027.192-.07.382-.123.568-.094.329-.23.653-.403.826-.173.172-.497.309-.826.403a4.183 4.183 0 0 1-.567.123.313.313 0 0 0 0 .62c.191.027.381.07.567.123.329.094.653.23.826.403.172.173.309.497.403.826.053.186.096.376.123.567a.313.313 0 0 0 .62 0c.027-.191.07-.381.123-.567.094-.329.23-.653.403-.826.173-.172.497-.309.826-.403a4.18 4.18 0 0 1 .567-.123.313.313 0 0 0 0-.62 4.175 4.175 0 0 1-.567-.123c-.329-.094-.653-.23-.826-.403-.172-.173-.309-.497-.403-.826a4.292 4.292 0 0 1-.123-.567Z"/></svg>