<svg xmlns="http://www.w3.org/2000/svg" fill="none" viewBox="0 0 16 16" class="acv-icon"><g fill="#2668C5" clip-path="url(#a)"><path d="M12.665 2.753a6.901 6.901 0 0 0-2.814-1.512 2 2 0 1 0-.283 2c.655.21 1.257.551 1.767 1.006a1 1 0 0 0 1.33-1.494ZM2.753 3.335a6.901 6.901 0 0 0-1.512 2.814 2 2 0 1 0 2 .283c.21-.655.551-1.257 1.006-1.767a1 1 0 0 0-1.494-1.33ZM13.247 12.665a6.901 6.901 0 0 0 1.512-2.814 2 2 0 1 0-2-.283 4.887 4.887 0 0 1-1.006 1.767 1 1 0 0 0 1.494 1.33ZM6.149 14.758a6.9 6.9 0 0 1-2.814-1.511 1 1 0 0 1 1.33-1.494c.51.455 1.112.796 1.767 1.005a2 2 0 1 1-.283 2Z"/></g><defs><clipPath id="a"><path fill="#fff" d="M0 0h16v16H0z"/></clipPath></defs></svg>