<svg xmlns="http://www.w3.org/2000/svg" fill="none" viewBox="0 0 16 16" class="acv-icon"><g fill="#2668C5" clip-path="url(#a)"><path d="M9.5 7.753a1.25 1.25 0 1 0-.001-2.5 1.25 1.25 0 0 0 .001 2.5Z"/><path fill-rule="evenodd" d="M8 16A8 8 0 1 0 8 0a8 8 0 0 0 0 16Zm4.5-9.498a3.001 3.001 0 0 1-4.293 2.71l-.75.75.69.69a.5.5 0 0 1 0 .708l-.793.793a.5.5 0 0 1-.708 0l-.689-.69-.25.25a1 1 0 1 1-1.414-1.415l2.5-2.501A3.001 3.001 0 1 1 12.5 6.503Z" clip-rule="evenodd"/></g><defs><clipPath id="a"><path fill="#fff" d="M0 0h16v16H0z"/></clipPath></defs></svg>