<svg xmlns="http://www.w3.org/2000/svg" fill="none" viewBox="0 0 24 24" class="acv-icon"><path fill="#2668C5" fill-rule="evenodd" d="M20.96 10.504C20.96 5.255 16.716 1 11.48 1 6.244 1 2 5.255 2 10.504c0 5.25 4.244 9.505 9.48 9.505a9.419 9.419 0 0 0 5.356-1.662l3.928 4.326.09.088a.996.996 0 0 0 1.32-.022 1.002 1.002 0 0 0 .066-1.413l-3.885-4.277a9.485 9.485 0 0 0 2.605-6.545Zm-16.964 0c0-4.144 3.35-7.503 7.484-7.503 4.133 0 7.484 3.36 7.484 7.503 0 4.144-3.35 7.504-7.484 7.504-4.133 0-7.484-3.36-7.484-7.504Z" clip-rule="evenodd"/></svg>