<svg xmlns="http://www.w3.org/2000/svg" fill="none" viewBox="0 0 32 32" class="acv-icon"><path fill="#2668C5" fill-rule="evenodd" d="M9.964.422a2.02 2.02 0 0 1 2.01 0l5.959 3.423a1.998 1.998 0 0 1 1.005 1.732v3.619l3.088-1.774a2.02 2.02 0 0 1 2.01 0l5.959 3.423A1.998 1.998 0 0 1 31 12.577v6.845c0 .715-.383 1.375-1.005 1.732l-5.96 3.423a2.02 2.02 0 0 1-2.01 0l-3.087-1.774v3.62c0 .715-.383 1.375-1.005 1.733l-5.959 3.422a2.02 2.02 0 0 1-2.01 0l-5.959-3.422A1.998 1.998 0 0 1 3 26.422v-6.845c0-.714.383-1.375 1.005-1.732L7.22 16l-3.214-1.846A1.998 1.998 0 0 1 3 12.422V5.577c0-.715.383-1.375 1.005-1.732L9.964.422Zm-.735 16.733-3.403 1.954 5.11 2.737 4.812-2.946-3.039-1.745-.735.422a2.02 2.02 0 0 1-2.01 0l-.735-.422ZM5.01 26.423v-5.48l4.954 2.654v5.672L5.01 26.423Zm11.918 0-4.954 2.846v-5.71l4.954-3.033v5.897Zm.144-9.071.861.494a1.998 1.998 0 0 1 1.005 1.732v.916l3.088 1.774v-5.67l-4.954-2.654v3.408Zm6.965 4.915 4.953-2.845v-5.896l-4.953 3.033v5.708ZM27.81 11.9l-4.78-2.746-5.144 2.955 5.11 2.738 4.814-2.947Zm-10.883-1.55V6.526L11.974 9.56v5.709l3.088-1.774v-.917c0-.715.383-1.375 1.005-1.732l.86-.495ZM5.01 12.422l4.954 2.846v-5.67L5.01 6.943v5.478Zm5.926-4.576L15.749 4.9l-4.78-2.746L5.825 5.11l5.11 2.737Z" clip-rule="evenodd"/></svg>