<svg xmlns="http://www.w3.org/2000/svg" fill="none" viewBox="0 0 32 32" class="acv-icon"><path fill="#2668C5" fill-rule="evenodd" d="M12.86 8.479 5.673 21.056A4 4 0 1 0 8.873 26h14.253A4.002 4.002 0 0 0 31 25a4 4 0 0 0-4.673-3.944L19.14 8.48a4 4 0 1 0-6.28 0ZM16 10c-.543 0-1.06-.108-1.532-.304L7.505 21.881A4.002 4.002 0 0 1 8.874 24h14.252a4.002 4.002 0 0 1 1.369-2.119L17.532 9.696c-.472.196-.99.304-1.532.304Zm2-4a2 2 0 1 1-4 0 2 2 0 0 1 4 0Zm11 19a2 2 0 1 1-4 0 2 2 0 0 1 4 0ZM7 25a2 2 0 1 1-4 0 2 2 0 0 1 4 0Z" clip-rule="evenodd"/></svg>