<svg xmlns="http://www.w3.org/2000/svg" fill="none" viewBox="0 0 32 32" class="acv-icon"><path fill="#2668C5" d="M21 4H10a2 2 0 0 0-2 2v2h7a2 2 0 0 1 2 2v12a2 2 0 0 1-2 2H8v2a2 2 0 0 0 2 2h11V4ZM23 28h2a2 2 0 0 0 2-2v-2h-4v4ZM27 17v5h-4v-5h4ZM27 15v-5h-4v5h4ZM27 6v2h-4V4h2a2 2 0 0 1 2 2Z"/><path fill="#2668C5" fill-rule="evenodd" d="M3 11a1 1 0 0 1 1-1h10a1 1 0 0 1 1 1v10a1 1 0 0 1-1 1H4a1 1 0 0 1-1-1V11Zm2.967 9v-7.874h1.547l3.222 5.258v-5.258h1.477V20h-1.595l-3.174-5.135V20H5.967Z" clip-rule="evenodd"/></svg>