<svg xmlns="http://www.w3.org/2000/svg" fill="none" viewBox="0 0 24 24" class="acv-icon"><path fill="#2668C5" d="M22 11.07V7.498A1.5 1.5 0 0 0 20.503 6H18V1.99C18 .895 17.096 0 15.993 0H4.007A2 2 0 0 0 2 1.993v18.014A2 2 0 0 0 4.007 22h7.063a7.954 7.954 0 0 1-.818-2H4.007s-.003-.782-.004-2H10c0-.69.088-1.36.252-2h-6.25C4 11.26 4 1.996 4 1.996 4 2 15.993 2 15.993 2c.003 0 .005 2.54.006 4h-2.502C12.672 6 12 6.67 12 7.498v5.21a8.034 8.034 0 0 1 2-1.638V8h6v2.252c.71.183 1.381.46 2 .818Z"/><path fill="#2668C5" d="M8 4a1 1 0 0 1 1.01-1h1.98a1 1 0 1 1 0 2H9.01C8.451 5 8 4.556 8 4Z"/><path fill="#2668C5" fill-rule="evenodd" d="M24 18a6 6 0 1 1-12 0 6 6 0 0 1 12 0Zm-5 3v-3.586l1.293 1.293a1 1 0 0 0 1.414-1.414l-3-3a1 1 0 0 0-1.414 0l-3 3a1 1 0 0 0 1.414 1.414L17 17.414V21a1 1 0 1 0 2 0Z" clip-rule="evenodd"/></svg>