<svg xmlns="http://www.w3.org/2000/svg" fill="none" viewBox="0 0 32 32" class="acv-icon"><path fill="#2668C5" fill-rule="evenodd" d="M19.405 4.336C22.047 3.188 25 5.124 25 8.004V10a4 4 0 0 1 0 8v1.853c0 2.88-2.953 4.817-5.595 3.668l-7.113-3.092H9v6.062l.001.024a1.46 1.46 0 0 0 .143.538.757.757 0 0 0 .254.302c.1.067.277.145.602.145.325 0 .502-.078.602-.145a.758.758 0 0 0 .254-.302 1.464 1.464 0 0 0 .143-.538V26.5l.001-.01V23a1 1 0 1 1 2 0v3.5h-1l1 .001V26.522a1.85 1.85 0 0 1-.006.135 3.453 3.453 0 0 1-.35 1.29 2.755 2.755 0 0 1-.933 1.073c-.463.308-1.036.48-1.711.48s-1.248-.172-1.711-.48a2.755 2.755 0 0 1-.933-1.073A3.456 3.456 0 0 1 7 26.522V26.5l1-.001H7v-6.071H6a3 3 0 0 1-3-3v-7a3 3 0 0 1 3-3h6.292l7.113-3.093ZM23 8.004a2 2 0 0 0-2.797-1.834L13.5 9.084v9.69l6.703 2.913A2 2 0 0 0 23 19.853V8.004ZM25 16a2 2 0 1 0 0-4v4ZM11.5 9.429v9H6a1 1 0 0 1-1-1v-7a1 1 0 0 1 1-1h5.5Z" clip-rule="evenodd"/></svg>