<svg xmlns="http://www.w3.org/2000/svg" fill="none" viewBox="0 0 32 32" class="acv-icon"><path fill="#2668C5" fill-rule="evenodd" d="M10.903 29.05c.04.149.091.282.166.409.192.323.491.568.975.539.481-.03.749-.308.903-.651.06-.134.096-.273.12-.428l3.11-20.864 1.735 8.677c.166.736.844 1.296 1.579 1.296h4.642A4.002 4.002 0 0 0 32 17a4 4 0 0 0-7.87-1.015h-4.334L17.087 2.998a1.652 1.652 0 0 0-.139-.4c-.175-.34-.451-.604-.951-.598-.517.007-.792.297-.95.657-.058.13-.092.265-.115.415l-3.196 21.41-3.64-13.388c-.336-1.238-1.802-1.29-2.203-.06l-1.615 4.95H1c-.552 0-1 .458-1 1.022 0 .565.448 1.022 1 1.022h3.51c.702 0 1.374-.5 1.596-1.18l.807-2.474 3.99 14.676ZM30 17a2 2 0 1 1-4 0 2 2 0 0 1 4 0Z" clip-rule="evenodd"/></svg>