<svg xmlns="http://www.w3.org/2000/svg" fill="none" viewBox="0 0 16 16" class="acv-icon"><g clip-path="url(#a)"><path fill="#2668C5" fill-rule="evenodd" d="M8.939.907A.937.937 0 0 0 8 0c-.454 0-.9.33-.939.907l-.079 1.179a5.985 5.985 0 0 0-3.206 1.653l-1.31-.763c-.514-.3-1.062-.128-1.34.254a.953.953 0 0 0-.178.68c.033.26.173.493.396.666l1.198.928a5.978 5.978 0 0 0-.482 3.344l-1.466.638c-.53.232-.695.764-.536 1.196.159.43.626.729 1.18.57l1.47-.42a6.029 6.029 0 0 0 1.85 2.083l-.714 1.746a.964.964 0 0 0 .001.77c.103.229.289.393.494.483a.995.995 0 0 0 1.278-.427l.89-1.675a6.01 6.01 0 0 0 2.987 0l.89 1.675a.995.995 0 0 0 1.277.427.965.965 0 0 0 .494-.483.964.964 0 0 0 .001-.77l-.714-1.746a6.028 6.028 0 0 0 1.85-2.084l1.47.421c.554.158 1.021-.14 1.18-.57.16-.433-.006-.965-.536-1.196l-1.466-.638a5.978 5.978 0 0 0-.483-3.344l1.199-.928a1 1 0 0 0 .396-.666.953.953 0 0 0-.178-.68c-.278-.382-.826-.554-1.34-.254l-1.31.763a5.985 5.985 0 0 0-3.206-1.653L8.939.906ZM6.843 4.17a3.987 3.987 0 0 0-1.245.631l1.158.675.087-1.306ZM4.189 6.78C4.066 7.165 4 7.575 4 8v.003l1.13-.492-.94-.73Zm.511 3.48c.185.27.401.514.644.73l.423-1.035-1.067.306Zm2.786 1.706a4.033 4.033 0 0 0 1.028 0L8 11l-.514.967Zm3.17-.976c.243-.216.46-.46.644-.73l-1.068-.305.424 1.035ZM12 8.003V8c0-.425-.066-.835-.19-1.219l-.94.73 1.13.492Zm-1.598-3.202-1.158.675-.087-1.306c.454.137.875.353 1.245.631ZM9 8a1 1 0 1 1-2 0 1 1 0 0 1 2 0Z" clip-rule="evenodd"/></g><defs><clipPath id="a"><path fill="#fff" d="M0 0h16v16H0z"/></clipPath></defs></svg>