<svg xmlns="http://www.w3.org/2000/svg" fill="none" viewBox="0 0 24 24" class="acv-icon"><path fill="#2668C5" d="M11.556 15.011a1.955 1.955 0 1 0 0-3.91 1.955 1.955 0 0 0 0 3.91Z"/><path fill="#2668C5" fill-rule="evenodd" d="M9.86 2c.743 0 1.412.453 1.688 1.143l1.133 2.831a.91.91 0 0 0 .844.571h6.657c1.004 0 1.818.814 1.818 1.819v10.818A1.818 1.818 0 0 1 20.182 21H3.818A1.818 1.818 0 0 1 2 19.182V3.818C2 2.814 2.814 2 3.818 2H9.86Zm1.696 14.611c.677 0 1.31-.19 1.85-.519l1.162 1.162a.839.839 0 1 0 1.186-1.186l-1.162-1.162a3.556 3.556 0 1 0-3.037 1.705Z" clip-rule="evenodd"/></svg>