<svg xmlns="http://www.w3.org/2000/svg" fill="none" viewBox="0 0 16 16" class="acv-icon"><path fill="#2668C5" fill-rule="evenodd" d="M.002 4.55c.008.028.338 1.552.734 3.387.395 1.834.725 3.345.732 3.357.008.012.445.022.972.022H3.4l.03-.152c.13-.633 1.315-6.61 1.315-6.633 0-.021-.216-.031-.67-.031-.37 0-.671.005-.671.01 0 .024-.963 5.527-.978 5.59-.01.037-.022.062-.028.056A582.751 582.751 0 0 1 1.39 4.527c0-.016-.285-.027-.702-.027-.655 0-.701.003-.687.05Zm9.962.528v.577h1.166V4.5H9.964v.578Zm2.333 2.83v3.408H16v-1.04h-2.479V4.5h-1.224v3.408Zm-5.84-1.791c-.393.07-.776.269-.966.5-.112.139-.173.25-.26.48-.06.155-.063.218-.072 1.604-.01 1.594-.003 1.69.17 2.032.103.204.363.459.579.567.295.148.556.198 1.038.2.499.002.686-.035 1.028-.2.479-.232.725-.64.78-1.293l.021-.25H7.578l-.01.254c-.009.229-.019.267-.094.365-.117.15-.277.217-.528.217-.22 0-.396-.06-.491-.166-.114-.127-.134-.256-.135-.894l-.001-.614 1.217-.007 1.218-.008-.002-.75c-.001-.616-.01-.785-.052-.94-.143-.535-.451-.854-.994-1.029-.204-.066-.294-.077-.673-.084-.24-.005-.5.002-.576.016Zm3.507 2.628v2.57h1.166v-5.14H9.964v2.57Zm-2.66-1.67c.213.11.269.243.269.65v.327H6.319v-.31c.001-.34.044-.482.182-.609.175-.159.55-.186.803-.057Z" clip-rule="evenodd"/></svg>