<svg xmlns="http://www.w3.org/2000/svg" fill="none" viewBox="0 0 16 16" class="acv-icon"><circle cx="8" cy="8" r="8" fill="#fff"/><path fill="#9BC225" d="M8 15A7 7 0 1 1 8 1a7 7 0 0 1 0 14Z"/><path fill="#fff" fill-rule="evenodd" d="M5 5.9c0-.84 0-1.26.163-1.581a1.5 1.5 0 0 1 .656-.656c.32-.163.74-.163 1.581-.163h1.2c.84 0 1.26 0 1.581.163a1.5 1.5 0 0 1 .655.656c.164.32.164.74.164 1.581v4.2c0 .84 0 1.26-.164 1.581a1.5 1.5 0 0 1-.655.655c-.32.164-.74.164-1.581.164H7.4c-.84 0-1.26 0-1.581-.164a1.5 1.5 0 0 1-.656-.655C5 11.361 5 10.941 5 10.1V5.9ZM7 11a.5.5 0 0 1 .5-.5h1a.5.5 0 0 1 0 1h-1A.5.5 0 0 1 7 11Z" clip-rule="evenodd"/></svg>