<svg xmlns="http://www.w3.org/2000/svg" fill="none" viewBox="0 0 16 16" class="acv-icon"><g fill="#2668C5" clip-path="url(#a)"><path d="M4.25 7.5a.25.25 0 0 0-.25.25v.75h8v-.75a.25.25 0 0 0-.25-.25h-7.5ZM4.719 5.5c-.121 0-.219.112-.219.25v.75h7v-.75c0-.138-.098-.25-.219-.25H4.72ZM5 3.75c0-.138.084-.25.188-.25h5.625c.103 0 .187.112.187.25v.75H5v-.75Z"/><path fill-rule="evenodd" d="M.163 9.447 2.25 2c.25-.851 1.113-1.5 2-1.5h7.5c.887 0 1.75.649 2 1.5l2.088 7.447A4 4 0 0 1 16 10.576V13.5a2 2 0 0 1-2 2H2a2 2 0 0 1-2-2v-2.924a4 4 0 0 1 .163-1.129ZM12.25 3 14 9.5c.058.308 0 .5-.25.5h-1.941a.5.5 0 0 0-.447.276 6.096 6.096 0 0 0-.246.627.513.513 0 0 1-.482.347H5.366a.513.513 0 0 1-.482-.348 6.119 6.119 0 0 0-.246-.626.5.5 0 0 0-.447-.276H2.25C2 10 1.942 9.808 2 9.5L3.75 3c.089-.473.519-1 1-1h6.5c.481 0 .911.527 1 1Z" clip-rule="evenodd"/></g><defs><clipPath id="a"><path fill="#fff" d="M0 0h16v16H0z"/></clipPath></defs></svg>