<svg xmlns="http://www.w3.org/2000/svg" fill="none" viewBox="0 0 16 16" class="acv-icon"><path fill="#2668C5" d="M4.472 10.056a1.068 1.068 0 0 1-.154-.562c0-.2.051-.383.154-.55.102-.17.24-.305.412-.404.173-.103.364-.154.575-.154.245 0 .473.057.683.17.21.113.4.25.57.412.081.076.165.163.25.263.09.1.163.188.22.263a5.96 5.96 0 0 1-.195.255 2.955 2.955 0 0 1-.857.7 1.464 1.464 0 0 1-.671.153c-.21 0-.402-.049-.575-.146-.172-.1-.31-.233-.412-.4ZM11.524 8.944c.103.167.154.35.154.55 0 .205-.052.392-.154.562a1.12 1.12 0 0 1-.979.546c-.25 0-.478-.053-.683-.158a2.51 2.51 0 0 1-.574-.408 4.03 4.03 0 0 1-.47-.542c.041-.049.105-.125.19-.23.09-.106.183-.204.28-.296.108-.108.228-.205.36-.29.132-.09.272-.16.42-.211.151-.054.31-.081.478-.081.207 0 .396.051.566.154.172.1.31.234.412.404Z"/><path fill="#2668C5" fill-rule="evenodd" d="M6.28 1a1 1 0 0 1 .948.684l.658 1.974A.5.5 0 0 0 8.36 4H14a1 1 0 0 1 1 1v9a1 1 0 0 1-1 1H2a1 1 0 0 1-1-1V2a1 1 0 0 1 1-1h4.28Zm.064 6.217a2.642 2.642 0 0 0-.885-.141c-.34 0-.66.063-.959.19a2.507 2.507 0 0 0-.784.526 2.436 2.436 0 0 0-.526.768c-.127.291-.19.602-.19.934 0 .447.11.854.332 1.221.22.364.517.655.89.874.371.215.784.323 1.237.323.323 0 .618-.046.885-.137.27-.092.511-.208.724-.348.213-.143.398-.287.554-.433.075-.073.143-.141.202-.206l.178-.202c.051.064.107.13.166.194.06.065.13.136.21.214.162.151.35.297.562.437.213.14.453.256.72.348.267.089.562.133.886.133a2.448 2.448 0 0 0 2.264-1.476c.127-.294.19-.608.19-.942 0-.442-.11-.846-.332-1.213a2.466 2.466 0 0 0-.885-.878 2.4 2.4 0 0 0-1.237-.327c-.478 0-.9.1-1.266.3a4.134 4.134 0 0 0-1.278 1.042 5.81 5.81 0 0 0-.174-.19 4.163 4.163 0 0 0-.764-.655 2.987 2.987 0 0 0-.72-.356Z" clip-rule="evenodd"/></svg>