<svg xmlns="http://www.w3.org/2000/svg" fill="none" viewBox="0 0 16 16" class="acv-icon"><path fill="#2668C5" fill-rule="evenodd" d="m8.003 8.359-3.766 2.516-2.915-1.928a.736.736 0 0 1 0-1.217l2.915-1.928-2.915-1.927a.736.736 0 0 1 0-1.217l2.164-1.431a1.352 1.352 0 0 1 1.501.001l3.014 2.003 3.013-2.003a1.351 1.351 0 0 1 1.5-.001l2.164 1.43c.43.284.43.933 0 1.217L11.764 5.8l2.914 1.927c.43.284.43.933 0 1.217l-2.914 1.927-3.761-2.513Zm-.004-.07-3.782-2.5L8.002 3.3l3.781 2.487L8 8.29Z" clip-rule="evenodd"/><path fill="#2668C5" d="m3.8 12.55 4.097-2.8 4.303 2.8L7.897 15 3.8 12.55Z"/></svg>