<svg xmlns="http://www.w3.org/2000/svg" fill="none" viewBox="0 0 24 24" class="acv-icon"><path fill="#2668C5" fill-rule="evenodd" d="m13.841 1.925.261 2.612.16.048c.482.147.944.34 1.381.573l.147.078 2.032-1.662a.75.75 0 0 1 1.005.05l1.549 1.549a.75.75 0 0 1 .05 1.005L18.764 8.21l.078.147c.22.411.403.845.547 1.297l.048.153 2.656.332a.75.75 0 0 1 .657.744v2.234a.75.75 0 0 1-.657.744l-2.656.332-.048.153c-.135.423-.304.83-.506 1.22l-.074.141 1.644 2.114a.75.75 0 0 1-.062.99l-1.58 1.58a.75.75 0 0 1-.99.062l-2.114-1.644-.142.074a7.696 7.696 0 0 1-1.219.506l-.153.048-.332 2.656a.75.75 0 0 1-.744.657h-2.234a.75.75 0 0 1-.744-.657l-.332-2.656-.153-.048a7.7 7.7 0 0 1-1.22-.506l-.141-.074-2.114 1.644a.75.75 0 0 1-.99-.062l-1.58-1.58a.75.75 0 0 1-.062-.99l1.644-2.114-.074-.142a7.696 7.696 0 0 1-.532-1.303l-.048-.16-2.612-.26a.75.75 0 0 1-.675-.747v-2.19a.75.75 0 0 1 .675-.746l2.612-.261.048-.16c.147-.482.34-.944.573-1.381l.078-.147-1.662-2.032a.75.75 0 0 1 .05-1.005l1.549-1.549a.75.75 0 0 1 1.005-.05L8.21 5.236l.147-.078a7.7 7.7 0 0 1 1.381-.573l.16-.048.26-2.612a.75.75 0 0 1 .747-.675h2.19a.75.75 0 0 1 .746.675ZM16 12a4 4 0 1 1-8 0 4 4 0 0 1 8 0Z" clip-rule="evenodd"/></svg>