<svg xmlns="http://www.w3.org/2000/svg" fill="none" viewBox="0 0 24 24" class="acv-icon"><path fill="#2668C5" fill-rule="evenodd" d="M1 19.713V4.287c0-.74.54-1.37 1.272-1.483l10-1.538A1.5 1.5 0 0 1 14 2.748v18.503a1.5 1.5 0 0 1-1.728 1.483l-10-1.538A1.5 1.5 0 0 1 1 19.713Zm7.542-9.168h1.86C10.395 9.013 9.312 8 7.577 8c-1.703 0-2.906.998-2.895 2.484-.004 1.219.773 1.897 2.042 2.194l.713.168c.797.19 1.07.407 1.077.762-.007.384-.329.655-.951.655-.745 0-1.185-.381-1.217-1.097H4.5C4.507 15.124 5.724 16 7.59 16c1.816 0 2.903-.853 2.91-2.392-.007-1.189-.657-2.023-2.238-2.393l-.587-.137c-.678-.156-.983-.373-.965-.747.003-.342.266-.594.867-.594.63 0 .927.301.965.808Z" clip-rule="evenodd"/><path fill="#2668C5" d="M15.5 15.208c.52.227.949.627 1.212 1.127a4.511 4.511 0 0 0 2.811-2.318A2.496 2.496 0 0 1 18.5 12c0-.828.403-1.563 1.023-2.018a4.511 4.511 0 0 0-2.81-2.317c-.264.5-.693.9-1.213 1.127V4.208c.623.272 1.113.79 1.348 1.432a6.512 6.512 0 0 1 4.677 3.915 2.5 2.5 0 0 1 0 4.89 6.512 6.512 0 0 1-4.677 3.915 2.508 2.508 0 0 1-1.348 1.432v-4.584Z"/></svg>