<svg xmlns="http://www.w3.org/2000/svg" fill="none" viewBox="0 0 32 32" class="acv-icon"><path fill="#2668C5" d="M8.571 4c-.867 0-1.57.689-1.57 1.538V6H26a1 1 0 0 1 1 1v13.923h.429c.868 0 1.571-.689 1.571-1.538V5.538C29 4.688 28.297 4 27.43 4H8.57Z"/><path fill="#2668C5" fill-rule="evenodd" d="M4.571 8C3.704 8 3 8.689 3 9.538v13.847c0 .85.704 1.538 1.571 1.538h6.286l-.663 2.6a.387.387 0 0 0 .38.477h6.851a.387.387 0 0 0 .381-.478l-.663-2.599h6.286c.867 0 1.571-.689 1.571-1.538V9.538C25 8.688 24.296 8 23.429 8H4.57Zm8.596 3.5H9v4.167h4.167V11.5Zm0 5.833H9V21.5h4.167v-4.167Zm1.666-5.833H19v4.167h-4.167V11.5ZM19 17.333h-4.167V21.5H19v-4.167Z" clip-rule="evenodd"/></svg>