<svg xmlns="http://www.w3.org/2000/svg" fill="none" viewBox="0 0 32 32" class="acv-icon"><path fill="#2668C5" fill-rule="evenodd" d="M7 11a4 4 0 1 1 0-8 4 4 0 0 1 0 8Zm0-2a2 2 0 1 0 0-4 2 2 0 0 0 0 4ZM3 25a4.002 4.002 0 0 1 3-3.874V14a1 1 0 1 1 2 0v7.126A4.002 4.002 0 0 1 7 29a4 4 0 0 1-4-4Zm4 2a2 2 0 1 0 0-4 2 2 0 0 0 0 4ZM21 7a4.002 4.002 0 0 0 3 3.874V18a1 1 0 1 0 2 0v-7.126A4.002 4.002 0 0 0 25 3a4 4 0 0 0-4 4Zm4 2a2 2 0 1 0 0-4 2 2 0 0 0 0 4ZM11.293 12.707l10.26 10.261a4 4 0 1 0 1.414-1.414l-10.26-10.261a1 1 0 0 0-1.414 1.414ZM25 27a2 2 0 1 0 0-4 2 2 0 0 0 0 4Z" clip-rule="evenodd"/></svg>