<svg xmlns="http://www.w3.org/2000/svg" fill="none" viewBox="0 0 24 24" class="acv-icon"><path fill="#2668C5" d="M18 9c-2.69 0-5-1.155-5-3s2.31-3 5-3 5 1.155 5 3-2.31 3-5 3ZM13 10.166C13 11.91 15.31 13 18 13s5-1.09 5-2.834c0-.43-.141-.822-.394-1.166 0 0-1.842 1.467-4.606 1.467S13.394 9 13.394 9A1.94 1.94 0 0 0 13 10.166ZM13 14.166C13 15.91 15.31 17 18 17s5-1.09 5-2.834c0-.43-.141-.822-.394-1.166 0 0-1.842 1.467-4.606 1.467S13.394 13 13.394 13A1.94 1.94 0 0 0 13 14.166ZM13 18.166C13 19.91 15.31 21 18 21s5-1.09 5-2.834c0-.43-.141-.822-.394-1.166 0 0-1.842 1.467-4.606 1.467S13.394 17 13.394 17A1.94 1.94 0 0 0 13 18.166ZM6 17c-2.69 0-5-1.155-5-3s2.31-3 5-3 5 1.155 5 3-2.31 3-5 3ZM1 18.166C1 19.91 3.31 21 6 21s5-1.09 5-2.834c0-.43-.141-.822-.394-1.166 0 0-1.842 1.467-4.606 1.467S1.394 17 1.394 17A1.94 1.94 0 0 0 1 18.166Z"/></svg>