<svg xmlns="http://www.w3.org/2000/svg" fill="none" viewBox="0 0 16 16" class="acv-icon"><g clip-path="url(#a)"><path fill="#2668C5" fill-rule="evenodd" d="M8 0C5.385 0 3.093 1.67 2.173 4.115.855 4.828 0 6.243 0 7.818c0 1.978 1.338 3.646 3.144 4.075l-1.116 3.305a.541.541 0 0 0 .513.714h2.643a.541.541 0 0 0 .513-.368l.664-1.966 2.35 2.193c.1.094.233.147.371.147h.126a.54.54 0 0 0 .5-.714L8.663 12.11H6.856l.883-2.617-1.36-4.028a.54.54 0 0 0-.512-.368h3.356-3.397a.541.541 0 0 0-.513.369L3.79 9.98C2.786 9.84 2 8.932 2 7.818c0-.925.549-1.735 1.348-2.047a1 1 0 0 0 .594-.646C4.493 3.275 6.133 2 8 2c2.114 0 3.909 1.632 4.207 3.817a1 1 0 0 0 .667.811c.66.227 1.126.884 1.126 1.645C14 9.235 13.264 10 12.375 10h-.163l-1.524-4.516a.541.541 0 0 0-.512-.368H6.39a.54.54 0 0 1 .512.368l3.285 9.733a.542.542 0 0 1-.512.714h3.785a.54.54 0 0 0 .512-.714l-1.098-3.252C14.648 11.714 16 10.15 16 8.273c0-1.396-.754-2.648-1.912-3.286C13.44 2.11 10.944 0 8 0Z" clip-rule="evenodd"/></g><defs><clipPath id="a"><path fill="#fff" d="M0 0h16v16H0z"/></clipPath></defs></svg>