<svg xmlns="http://www.w3.org/2000/svg" fill="none" viewBox="0 0 24 24" class="acv-icon"><path fill="#2668C5" d="M4.338 6.977C5.594 3.999 8.603 2 12 2c3.74 0 6.975 2.419 7.965 5.831C21.797 8.732 23 10.566 23 12.625 23 15.602 20.509 18 17.454 18h-1.452a1 1 0 1 1 0-2h1.453C19.42 16 21 14.48 21 12.625c0-1.39-.893-2.63-2.237-3.138a1 1 0 0 1-.623-.722C17.539 6.015 14.99 4 12 4 9.29 4 6.919 5.658 6.061 8.063a1 1 0 0 1-.578.595C3.99 9.243 3 10.631 3 12.188 3 14.153 4.576 15.81 6.545 16H8a1 1 0 1 1 0 2l-1.549-.004C3.38 17.706 1 15.206 1 12.188c0-2.245 1.324-4.245 3.338-5.211Z"/><path fill="#2668C5" d="M14.293 13.707 13 12.414v8.583a.999.999 0 1 1-2 0v-8.583l-1.293 1.293a1 1 0 0 1-1.414-1.414l3-3a1 1 0 0 1 1.414 0l3 3a1 1 0 0 1-1.414 1.414Z"/></svg>