<svg xmlns="http://www.w3.org/2000/svg" fill="none" viewBox="0 0 24 24" class="acv-icon"><path fill="#2668C5" d="M7.919 21C16.22 21 20.76 14.074 20.76 8.068c0-.196 0-.392-.013-.587A9.219 9.219 0 0 0 23 5.128a8.962 8.962 0 0 1-2.593.715 4.555 4.555 0 0 0 1.985-2.514 9.007 9.007 0 0 1-2.866 1.104 4.49 4.49 0 0 0-5.423-.894A4.537 4.537 0 0 0 12.12 5.67a4.579 4.579 0 0 0-.286 2.907c-1.795-.09-3.55-.56-5.153-1.378a12.832 12.832 0 0 1-4.15-3.37 4.576 4.576 0 0 0-.494 3.311 4.549 4.549 0 0 0 1.892 2.755 4.457 4.457 0 0 1-2.049-.569v.058c0 1.05.361 2.066 1.021 2.878a4.51 4.51 0 0 0 2.6 1.577 4.476 4.476 0 0 1-2.038.078c.289.903.85 1.693 1.606 2.259.756.566 1.67.88 2.611.898A9.017 9.017 0 0 1 1 18.958a12.715 12.715 0 0 0 6.919 2.039"/></svg>