<svg xmlns="http://www.w3.org/2000/svg" fill="none" viewBox="0 0 32 32" class="acv-icon"><g fill="#2668C5" clip-path="url(#a)"><path d="M28.768 5.378a6.452 6.452 0 0 0-.805-.045c-.553 0-1.058.061-1.53.193-.495.137-.92.334-1.298.602a3.146 3.146 0 0 0-.921.973 2.575 2.575 0 0 0-.362 1.362c0 .634.223 1.232.652 1.76.424.536 1.1.934 2.003 1.197l1.642.472.205.066c.39.13.649.262.772.382.13.127.189.27.189.458 0 .287-.127.5-.4.664-.314.188-.8.29-1.45.29a6.93 6.93 0 0 1-1.274-.12 6.117 6.117 0 0 1-1.17-.345l-.313-.115a1.077 1.077 0 0 0-.319-.049c-.407 0-.65.297-.65.711v.535l.012.155c.016.104.048.208.094.304.09.186.274.34.521.47.319.17.777.315 1.397.453a8.445 8.445 0 0 0 1.827.198 6.17 6.17 0 0 0 1.726-.235c.542-.152.998-.363 1.381-.65.38-.272.693-.623.93-1.039.23-.425.345-.897.345-1.405 0-.638-.203-1.215-.607-1.71-.405-.496-1.058-.87-1.944-1.132l-1.607-.471-.22-.07c-.422-.14-.722-.289-.876-.424a.57.57 0 0 1-.208-.455c0-.286.102-.464.335-.596.277-.157.718-.242 1.31-.242.753 0 1.425.126 2.02.378l.165.066c.16.059.297.09.417.09.41 0 .65-.307.65-.722V6.84l-.007-.133a.856.856 0 0 0-.18-.454c-.094-.131-.248-.249-.46-.361a2.922 2.922 0 0 0-.544-.217 6.703 6.703 0 0 0-.299-.084l-.372-.09a24.518 24.518 0 0 0-.447-.077l-.33-.046Z"/><path fill-rule="evenodd" d="M7.869 6.304c-.719-.642-1.794-.95-3.227-.95-.664 0-1.281.069-1.858.21a7.215 7.215 0 0 0-1.5.498c-.202.094-.355.201-.457.334-.12.155-.16.348-.16.601v.513l.008.133c.044.341.26.579.62.579.085 0 .169-.015.281-.045.12-.032.272-.082.443-.152.351-.13.738-.241 1.16-.337a5.144 5.144 0 0 1 1.135-.126c.787 0 1.308.135 1.582.382l.082.087.073.104c.16.262.249.658.249 1.197l-.002.292-.336-.063a11.202 11.202 0 0 0-1.772-.165c-1.245 0-2.247.296-3.014.9-.78.617-1.176 1.45-1.176 2.46 0 .94.324 1.716.964 2.296.63.572 1.482.855 2.525.855l.306-.008.328-.028a4.608 4.608 0 0 0 2.554-1.12l.042-.04.116.188.143.199c.098.128.204.248.318.36.206.174.402.26.615.26.17 0 .341-.054.5-.152l.713-.44.119-.093c.182-.16.28-.34.28-.55a.815.815 0 0 0-.146-.455l-.115-.213a5.41 5.41 0 0 1-.207-.466l-.034-.118-.027-.14a3.466 3.466 0 0 1-.037-.534l-.023-.023v-3.37l-.007-.306c-.054-1.1-.405-1.96-1.058-2.554Zm-4.709 5.45c.293-.222.766-.339 1.448-.339.334 0 .67.02 1.018.06l.331.045.365.063v.126l-.006.22a2.953 2.953 0 0 1-.094.591 1.243 1.243 0 0 1-.297.511 2.138 2.138 0 0 1-.9.56 3.54 3.54 0 0 1-1.05.171c-.43 0-.727-.096-.916-.278-.202-.18-.3-.44-.3-.833 0-.409.13-.69.401-.896Z" clip-rule="evenodd"/><path d="M11.01 5.605c.259 0 .46.037.593.12l.072.055c.145.101.235.242.324.473l.054.15 1.51 5.509 1.402-5.507c.048-.177.105-.321.182-.435l.085-.104.1-.086c.136-.094.315-.15.52-.168l.157-.007h.905c.3 0 .524.051.675.175.15.103.257.27.326.473l.044.157 1.425 5.598 1.57-5.621c.052-.162.113-.299.191-.412l.085-.105.097-.09c.135-.094.309-.15.51-.168l.155-.007h1.051c.393 0 .673.252.673.649l-.002.07c-.002.03-.01.07-.027.165-.011.066-.03.136-.053.208l-.04.109-2.724 8.09c-.092.282-.21.484-.385.606a1.05 1.05 0 0 1-.503.167l-.15.008h-.973c-.301 0-.525-.051-.7-.192a.993.993 0 0 1-.304-.47l-1.417-5.45-1.364 5.29c-.046.171-.101.311-.174.425l-.079.105-.092.09c-.139.111-.315.167-.53.185l-.17.006h-.972c-.288 0-.504-.052-.654-.175-.138-.096-.239-.243-.324-.444l-.06-.16L9.36 6.79c-.082-.253-.12-.41-.12-.537 0-.342.211-.588.534-.639l.126-.01h1.109ZM26.078 20.482c-.806.11-.945-.75-.376-1.203 1.787-1.381 5.385-1.438 6.085-.495l.066.11c.534 1.08-.438 4.65-2.042 6.136-.558.523-1.336.127-1.06-.63.765-2.085 1.175-3.618.95-3.93-.207-.294-1.62-.256-3.623.012Z"/><path d="M15.96 26.667c-5.934 0-11.456-2.364-15.71-6.593-.635-.632.045-1.622.845-1.098a28.558 28.558 0 0 0 15.228 4.449c3.845 0 7.94-.904 11.604-2.61l.116-.05c.955-.357 1.67.858.805 1.563-3.344 2.72-8.321 4.339-12.888 4.339Z"/></g><defs><clipPath id="a"><path fill="#fff" d="M0 0h32v32H0z"/></clipPath></defs></svg>