<svg xmlns="http://www.w3.org/2000/svg" fill="none" viewBox="0 0 24 24" class="acv-icon"><path fill="#2668C5" d="M8.329 8.232a.925.925 0 0 1 1.327.105l2.117 2.535a.984.984 0 0 1 0 1.256l-2.117 2.535a.925.925 0 0 1-1.327.104.983.983 0 0 1-.102-1.36L9.819 11.5 8.227 9.594a.983.983 0 0 1 .102-1.362ZM11 17a1 1 0 0 1 1-1h3a1 1 0 1 1 0 2h-3a1 1 0 0 1-1-1Z"/><path fill="#2668C5" fill-rule="evenodd" d="M4 3.5A1.5 1.5 0 0 1 5.5 2h8.879a1.5 1.5 0 0 1 1.06.44l4.122 4.12A1.5 1.5 0 0 1 20 7.622V20.5a1.5 1.5 0 0 1-1.5 1.5h-13A1.5 1.5 0 0 1 4 20.5v-17Zm14 6V20H6V4h6.5v4.5a1 1 0 0 0 1 1H18Zm-.328-2L14.5 4.328V7.5h3.172Z" clip-rule="evenodd"/></svg>