<svg xmlns="http://www.w3.org/2000/svg" fill="none" viewBox="0 0 24 24" class="acv-icon"><path fill="#2668C5" d="M8 16.5a1 1 0 1 0 0 2 1 1 0 0 0 0-2ZM12 17.5a1 1 0 0 1 1-1h3a1 1 0 1 1 0 2h-3a1 1 0 0 1-1-1Z"/><path fill="#2668C5" fill-rule="evenodd" d="M4 3a1 1 0 0 1 2 0v10h2V6a1 1 0 0 1 2 0v7h4V6a1 1 0 1 1 2 0v7h2V3a1 1 0 1 1 2 0v10.17c1.165.412 2 1.524 2 2.83v3a3 3 0 0 1-3 3H5a3 3 0 0 1-3-3v-3c0-1.306.835-2.418 2-2.83V3Zm0 13a1 1 0 0 1 1-1h14a1 1 0 0 1 1 1v3a1 1 0 0 1-1 1H5a1 1 0 0 1-1-1v-3Z" clip-rule="evenodd"/></svg>