<svg xmlns="http://www.w3.org/2000/svg" fill="none" viewBox="0 0 32 32" class="acv-icon"><path fill="#2668C5" fill-rule="evenodd" d="M0 25.76V6.24C0 5.206.748 4.327 1.761 4.17l13.846-2.146C16.865 1.83 18 2.81 18 4.093v23.814c0 1.282-1.135 2.263-2.393 2.068L1.761 27.83A2.088 2.088 0 0 1 0 25.76ZM5.5 21V11h7v2.188H8.137v1.718h4.003v2.188H8.137v1.718h4.344V21H5.5Z" clip-rule="evenodd"/><path fill="#2668C5" d="M29.805 10.701a.698.698 0 0 0 .195-.486V5.688A.677.677 0 0 0 29.333 5h-4.39a.657.657 0 0 0-.472.201L20 9.813v11L29.805 10.7ZM26.08 17.458l-5.332 5.5 3.723 3.84a.656.656 0 0 0 .472.202h4.39a.677.677 0 0 0 .667-.688v-4.527a.699.699 0 0 0-.195-.486l-3.724-3.84Z"/></svg>