<svg xmlns="http://www.w3.org/2000/svg" fill="none" viewBox="0 0 32 32" class="acv-icon"><path fill="#2668C5" d="M11.06 18.794a1.494 1.494 0 0 1-.215-.787c0-.28.072-.536.216-.77.143-.238.335-.426.577-.566.242-.143.51-.215.804-.215.343 0 .662.079.957.238.294.158.56.35.798.577.113.106.23.228.35.368.125.14.227.262.307.368a8.314 8.314 0 0 1-.272.357 4.14 4.14 0 0 1-.385.401c-.257.238-.528.43-.815.578a2.049 2.049 0 0 1-.94.215 1.61 1.61 0 0 1-.804-.204 1.611 1.611 0 0 1-.577-.56ZM20.934 17.237c.143.234.215.49.215.77 0 .287-.072.55-.215.787-.144.234-.336.42-.578.56a1.568 1.568 0 0 1-.792.204c-.351 0-.67-.073-.957-.22a3.518 3.518 0 0 1-.804-.573 5.617 5.617 0 0 1-.657-.758l.267-.323c.124-.147.254-.285.39-.413.151-.151.319-.287.504-.408.185-.124.381-.222.589-.294a1.97 1.97 0 0 1 .668-.113c.29 0 .555.072.792.215.242.14.434.328.578.566Z"/><path fill="#2668C5" fill-rule="evenodd" d="M13.646 5a2 2 0 0 1 1.857 1.257l1.246 3.114a1 1 0 0 0 .928.629H25a2 2 0 0 1 2 2v12a2 2 0 0 1-2 2H7a2 2 0 0 1-2-2V7a2 2 0 0 1 2-2h6.646Zm.036 9.82a3.699 3.699 0 0 0-1.24-.198c-.476 0-.923.088-1.342.266a3.508 3.508 0 0 0-1.098.736c-.313.31-.559.668-.736 1.075A3.241 3.241 0 0 0 9 18.007c0 .626.155 1.196.464 1.71.31.51.725.917 1.246 1.222.52.302 1.098.453 1.732.453.453 0 .866-.064 1.24-.192.377-.128.715-.29 1.013-.487.298-.2.557-.402.776-.606.105-.102.2-.198.283-.288l.249-.284c.072.091.149.182.232.272.083.09.181.19.294.3.227.212.49.415.787.612.298.196.634.358 1.008.486.373.125.787.187 1.24.187a3.428 3.428 0 0 0 3.17-2.066c.177-.411.266-.851.266-1.32 0-.618-.155-1.184-.464-1.697a3.454 3.454 0 0 0-1.24-1.229 3.359 3.359 0 0 0-1.732-.458c-.668 0-1.259.14-1.772.418a5.787 5.787 0 0 0-1.79 1.461c-.078-.09-.16-.18-.243-.266a5.83 5.83 0 0 0-1.07-.917 4.18 4.18 0 0 0-1.007-.498Z" clip-rule="evenodd"/></svg>