<svg xmlns="http://www.w3.org/2000/svg" fill="none" viewBox="0 0 32 32" class="acv-icon"><path fill="#2668C5" d="M27.57 27.86c0-2.93-2.81-4.43-5.55-5.63-2.74-1.2-3.61-2.2-3.61-4.35 0-1.3.84-.88 1.2-3.25.16-1 .89 0 1-2.26 0-.89-.4-1.11-.4-1.11s.2-1.33.28-2.35a4 4 0 0 0-3-4c-.42-.45-.71-1.15.6-1.86-2.88-.14-3.55 1.39-5.08 2.52a4.13 4.13 0 0 0-1.6 3.39c.09 1 .29 2.34.29 2.34s-.4.22-.4 1.11c.14 2.25.88 1.28 1 2.26.36 2.38 1.2 1.95 1.2 3.25 0 2.15-.27 2.89-3 4.08s-6.59 3.12-6.58 5.9v1.14h23.66s-.01-.35-.01-1.18Z"/></svg>