<svg xmlns="http://www.w3.org/2000/svg" fill="none" viewBox="0 0 32 32" class="acv-icon"><path fill="#2668C5" d="M5 16c0 3.587 1.727 6.882 4.585 8.937a1 1 0 0 1-1.167 1.624A12.982 12.982 0 0 1 3 16C3 8.957 8.601 3.222 15.592 3.006l-.3-.299a1 1 0 0 1 1.415-1.414l2 2a1 1 0 0 1 0 1.414l-2 2a1 1 0 1 1-1.414-1.414l.285-.285C9.698 5.23 5 10.066 5 16ZM16.422 26.992C22.302 26.77 27 21.934 27 16c0-3.58-1.728-6.874-4.584-8.932a1 1 0 0 1 1.168-1.623A12.987 12.987 0 0 1 29 16c0 7.043-5.601 12.778-12.592 12.994l.3.299a1 1 0 0 1-1.415 1.414l-2-2a1 1 0 0 1 0-1.414l2-2a1 1 0 0 1 1.414 1.414l-.285.285Z"/><path fill="#2668C5" d="M17 13v2h2a1 1 0 1 1 0 2h-2v2a1 1 0 1 1-2 0v-2h-2a1 1 0 1 1 0-2h2v-2a1 1 0 1 1 2 0Z"/></svg>