<svg xmlns="http://www.w3.org/2000/svg" fill="none" viewBox="0 0 32 32" class="acv-icon"><path fill="#2668C5" d="M10 8v8h2v-5a1 1 0 0 1 1-1h5V8h-8ZM24.064 18.87l1.16-.65-.4-.72-2.9 1.62 1.62 2.89.72-.4-.9-1.62a3.56 3.56 0 1 1-3.604 2.1c.2-.454.49-.863.854-1.2l-.81-.88a4.78 4.78 0 1 0 4.26-1.14Z"/><path fill="#2668C5" fill-rule="evenodd" d="M4 3a2 2 0 0 0-2 2v18a2 2 0 0 0 2 2h8l-.845 3.379a.5.5 0 0 0 .485.621h4.652A9 9 0 0 0 30 17.343V5a2 2 0 0 0-2-2H4Zm20 11.055V11a1 1 0 0 0-1-1h-3V7a1 1 0 0 0-1-1H9a1 1 0 0 0-1 1v10a1 1 0 0 0 1 1h3v3a1 1 0 0 0 1 1h1.055a8.948 8.948 0 0 1 .457-2H14v-2h1.515a9.05 9.05 0 0 1 1.828-2H14v-4h4v3.515a8.968 8.968 0 0 1 2-1.003V12h2v2.055a9.098 9.098 0 0 1 2 0ZM23 30a7 7 0 1 0 0-14 7 7 0 0 0 0 14Z" clip-rule="evenodd"/></svg>