<svg xmlns="http://www.w3.org/2000/svg" fill="none" viewBox="0 0 24 24" class="acv-icon"><g fill="#2668C5" clip-path="url(#a)"><path d="M12.257 2.475a6.076 6.076 0 0 1 2.56 2.608 3.87 3.87 0 0 1 .18 2.873l-.087.27c-.034-.083-.066-.148-.105-.226l-.06-.121a2.616 2.616 0 0 0-1.033-.923c-.257-1.08-1.138-2.014-2.563-2.704-.025-.013-.053-.024-.082-.036a1.448 1.448 0 0 1-.065-.027c.23-.382.496-.74.794-1.07a6.064 6.064 0 0 0-1.168-.386 3.793 3.793 0 0 1-2.24-1.221 6.097 6.097 0 0 0-.6 2.707 6.999 6.999 0 0 1 2.791.468l.089.037a3.967 3.967 0 0 1 .276.121c.788.341 1.46.911 1.93 1.639l.011.019a.66.66 0 0 1 .024.05l.016.035.02.045a.81.81 0 0 1 .03.073 4.185 4.185 0 0 0-1.647.018 3.973 3.973 0 0 0-2.932-.627c-.31.03-.617.09-.916.179a12.786 12.786 0 0 1-.173-1.486c-1.35.127-2.663.52-3.867 1.154a2.92 2.92 0 0 1 1.121 1.481c.167.401.561 1.085.561 1.085a6.588 6.588 0 0 1 1.773-1.332 4.81 4.81 0 0 1 2.473-.472c.075.003.146.01.216.017l.066.006c.34.039.672.137.98.291-.671.28-1.233.775-1.598 1.41a4.217 4.217 0 0 0-1.626.527c-.501.285-.94.67-1.292 1.132a.906.906 0 0 0-.04.061c-.01.019-.022.038-.034.055-.327-.284-.636-.59-.926-.913l-.058.09c-.284.441-.536.902-.755 1.38-.291.7-.724 1.331-1.271 1.85.795.367 1.627.648 2.48.837l.136.026c.045-.76.22-1.506.517-2.205a3.796 3.796 0 0 1 1.014-1.398 4.397 4.397 0 0 1 .339-.253l.08-.052a3.505 3.505 0 0 1 1.127-.45 3.667 3.667 0 0 0 .12 2.607 3.587 3.587 0 0 0 1.818 1.846c-1.578 1.088-4.72 1.5-9.161-.806.094-.068.405-.271.405-.271a4.322 4.322 0 0 0 1.698-2.08c.245-.528.528-1.036.847-1.52a9.843 9.843 0 0 1-.591-1.14 2.47 2.47 0 0 0-.566-.928 2.422 2.422 0 0 0-.905-.589l-.374-.183.314-.275c1.354-1.186 3.83-1.647 4.688-1.751A6.881 6.881 0 0 1 8.084.409L8.316 0l.24.407c.11.188.235.365.373.532.239.295.536.537.872.707.413.174.842.305 1.28.394.41.089.806.235 1.176.435ZM12.845 22.11a6.04 6.04 0 0 1-2.893-2.224 3.863 3.863 0 0 1-.576-2.82l.049-.28c.041.076.082.135.13.204l.08.118c.31.355.709.618 1.154.763.402 1.033 1.403 1.833 2.908 2.315.027.009.055.015.084.022l.072.019a6.843 6.843 0 0 1-.64 1.172c.396.113.801.186 1.21.217a3.776 3.776 0 0 1 2.386.892c.285-.891.361-1.838.222-2.765a6.989 6.989 0 0 1-2.831-.07l-.088-.022-.14-.037a4.548 4.548 0 0 1-.152-.046 4.337 4.337 0 0 1-2.136-1.35l-.014-.017c-.013-.015-.02-.028-.032-.045l-.019-.03a1.127 1.127 0 0 1-.065-.11 4.19 4.19 0 0 0 1.625-.25c.933.456 2.004.53 2.99.206a4.74 4.74 0 0 0 .886-.307c.153.474.278.958.375 1.447a10.433 10.433 0 0 0 3.67-1.69 2.901 2.901 0 0 1-1.314-1.308c-.22-.373-.704-.995-.704-.995a6.63 6.63 0 0 1-1.571 1.57c-.711.48-1.533.761-2.385.817a2.187 2.187 0 0 1-.216.013l-.067.004a2.93 2.93 0 0 1-1.01-.15 3.332 3.332 0 0 0 1.385-1.623 4.234 4.234 0 0 0 1.538-.748c.457-.353.84-.795 1.125-1.301a.805.805 0 0 0 .03-.067l.027-.059c.364.235.712.493 1.043.773l.045-.098c.224-.478.414-.972.568-1.478a5.443 5.443 0 0 1 1.005-2.013c-.838-.25-1.7-.411-2.572-.478l-.138-.007c.06.76-.012 1.524-.213 2.258a3.817 3.817 0 0 1-.812 1.526 3.085 3.085 0 0 1-.097.103c-.066.068-.13.133-.204.196l-.074.063a3.522 3.522 0 0 1-1.054.605 3.662 3.662 0 0 0-.477-2.564 3.566 3.566 0 0 0-2.053-1.57c1.414-1.3 4.47-2.153 9.184-.499-.082.08-.363.325-.363.325a4.346 4.346 0 0 0-1.396 2.3c-.17.557-.38 1.1-.63 1.625.27.331.516.68.74 1.045.164.329.399.615.687.84.289.223.623.379.978.454l.395.129-.273.317c-1.178 1.368-3.566 2.175-4.402 2.4a6.9 6.9 0 0 1-.563 3.733l-.172.44-.296-.367a3.946 3.946 0 0 0-.443-.474 2.66 2.66 0 0 0-.96-.577 6.756 6.756 0 0 0-1.321-.209 4.459 4.459 0 0 1-1.225-.264Z"/></g><defs><clipPath id="a"><path fill="#fff" d="M0 0h24v24H0z"/></clipPath></defs></svg>