<svg xmlns="http://www.w3.org/2000/svg" fill="none" viewBox="0 0 24 24" class="acv-icon"><path fill="#2668C5" fill-rule="evenodd" d="M2 2.992A1 1 0 0 1 2.992 2h18.016a1 1 0 0 1 .992.992v18.016a1 1 0 0 1-.992.992H2.992A1 1 0 0 1 2 21.008V2.992ZM20 10h-9v10h9V10Zm0-6v4H4V4h16ZM4 10v10h5V10H4Zm2-3a1 1 0 1 1 0-2 1 1 0 0 1 0 2Zm3 0a1 1 0 1 1 0-2 1 1 0 0 1 0 2Zm2-1a1 1 0 1 0 2 0 1 1 0 0 0-2 0Zm-6 6c0-.552.443-1 .999-1h1.002c.552 0 .999.444.999 1 0 .552-.443 1-.999 1H5.999A.997.997 0 0 1 5 12Zm8.003-1A.994.994 0 0 0 12 12c0 .556.449 1 1.003 1h4.994A.994.994 0 0 0 19 12c0-.556-.449-1-1.003-1h-4.994ZM12 15a1 1 0 0 1 1.01-1h1.98a1 1 0 1 1 0 2h-1.98c-.558 0-1.01-.444-1.01-1Zm.99 2a1 1 0 0 0-.99 1c0 .556.444 1 .99 1h4.02a1 1 0 0 0 .99-1c0-.556-.444-1-.99-1h-4.02ZM5 15c0-.552.443-1 .999-1h1.002c.552 0 .999.444.999 1 0 .552-.443 1-.999 1H5.999A.997.997 0 0 1 5 15Zm.999 2A.997.997 0 0 0 5 18c0 .556.447 1 .999 1h1.002A.997.997 0 0 0 8 18c0-.556-.447-1-.999-1H5.999Z" clip-rule="evenodd"/></svg>