<svg xmlns="http://www.w3.org/2000/svg" fill="none" viewBox="0 0 32 32" class="acv-icon"><path fill="#2668C5" fill-rule="evenodd" d="M2 5a2 2 0 0 1 2-2h24a2 2 0 0 1 2 2v18a2 2 0 0 1-2 2h-8l.845 3.379a.5.5 0 0 1-.485.621h-8.72a.5.5 0 0 1-.485-.621L12 25H4a2 2 0 0 1-2-2V5Zm9.019 13.4h1.726V9.12H11.02v3.688h-2.28V9.12H7.014v9.28H8.74v-4.069h2.279V18.4Zm5.275-7.033c.287-.58.679-.87 1.174-.87.254 0 .489.055.704.165.216.106.42.224.61.356l.571-1.403a3.88 3.88 0 0 0-1.003-.489 3.348 3.348 0 0 0-.971-.14c-1.028 0-1.832.422-2.412 1.264-.576.842-.863 2.016-.863 3.523 0 1.506.279 2.676.838 3.51.562.83 1.366 1.244 2.412 1.244.706 0 1.286-.15 1.739-.45V16.54c-.538.313-1.052.47-1.543.47-1.121 0-1.682-1.075-1.682-3.225 0-1.032.142-1.838.426-2.418Zm8.125 1.314c.287-.398.431-.889.431-1.473 0-.69-.22-1.231-.66-1.625-.44-.398-1.052-.597-1.834-.597-.953 0-1.742.314-2.368.94l.78 1.143c.453-.407.919-.61 1.397-.61.313 0 .555.095.724.286.173.186.26.463.26.831 0 .47-.135.823-.406 1.06-.267.237-.652.356-1.155.356h-.502v1.288h.527c1.138 0 1.707.464 1.707 1.39 0 .491-.124.851-.374 1.08-.25.224-.62.336-1.11.336-.301 0-.614-.049-.94-.146a3.899 3.899 0 0 1-.908-.4v1.549c.559.292 1.248.438 2.07.438.922 0 1.648-.254 2.177-.762.533-.508.8-1.189.8-2.044 0-.626-.162-1.121-.483-1.485-.317-.364-.768-.593-1.352-.686v-.05c.524-.153.93-.426 1.219-.82Z" clip-rule="evenodd"/></svg>