<svg xmlns="http://www.w3.org/2000/svg" fill="none" viewBox="0 0 32 32" class="acv-icon"><path fill="#2668C5" d="M20.5 19.862a.5.5 0 0 1 .748-.434l5.492 3.138a.5.5 0 0 1 0 .868l-5.492 3.139a.5.5 0 0 1-.748-.435v-6.276Z"/><path fill="#2668C5" fill-rule="evenodd" d="M8.571 4C7.704 4 7 4.689 7 5.538V6h19a1 1 0 0 1 1 1v7.935a8.94 8.94 0 0 0-2-.712V9.538C25 8.688 24.296 8 23.429 8H4.57C3.704 8 3 8.689 3 9.538v13.847c0 .85.704 1.538 1.571 1.538h6.286l-.663 2.6a.387.387 0 0 0 .38.477h4.941A9 9 0 1 0 29 16.292V5.538C29 4.688 28.297 4 27.429 4H8.57ZM23 30a7 7 0 1 0 0-14 7 7 0 0 0 0 14ZM11.34 20H9.947v-3.286h-1.84V20H6.71v-7.496h1.395v2.98h1.84v-2.98h1.395V20Zm3.815-6.383c-.4 0-.716.234-.948.702-.23.469-.344 1.12-.344 1.954 0 1.593.382 2.455 1.144 2.587a8.94 8.94 0 0 0-.511 1.186c-.574-.12-1.034-.437-1.381-.948-.451-.674-.677-1.619-.677-2.835 0-1.217.232-2.166.697-2.846.469-.68 1.118-1.02 1.949-1.02.273 0 .534.037.784.112.253.076.523.207.81.395l-.461 1.133a3.873 3.873 0 0 0-.493-.287 1.236 1.236 0 0 0-.569-.133Zm4.585.992c.443-.173.904-.311 1.378-.412v-.006c0-.557-.178-.995-.533-1.312-.356-.322-.85-.482-1.482-.482-.769 0-1.407.253-1.912.758l.63.923c.366-.328.742-.492 1.128-.492.253 0 .448.077.585.23.14.151.21.375.21.672 0 .042-.001.082-.004.12Z" clip-rule="evenodd"/></svg>