<svg xmlns="http://www.w3.org/2000/svg" fill="none" viewBox="0 0 32 32" class="acv-icon"><path fill="#2668C5" d="M27.707 7.293a1 1 0 0 1 .125 1.262l-1.862 2.792c.147.315.28.636.396.964l2.877.719A1 1 0 0 1 30 14v4a1 1 0 0 1-.758.97l-.119.03h-4.635a9.05 9.05 0 0 0 .14-.432 1 1 0 0 1 .716-.685L28 17.22v-2.438l-2.655-.664a1 1 0 0 1-.716-.685 8.938 8.938 0 0 0-.723-1.737 1 1 0 0 1 .17-1.186l.147-.146 1.49-2.236-1.84-1.84-2.236 1.49-.146.146a1 1 0 0 1-1.186.171 8.94 8.94 0 0 0-1.737-.722 1 1 0 0 1-.685-.717L17.22 4h-2.438l-.664 2.655a1 1 0 0 1-.685.717 8.94 8.94 0 0 0-1.737.722 1 1 0 0 1-1.186-.17l-.146-.147-2.236-1.49-1.84 1.84 1.49 2.236.146.146a1 1 0 0 1 .171 1.186 8.94 8.94 0 0 0-.722 1.737 1 1 0 0 1-.717.685L4 14.78v2.438l2.655.664a1 1 0 0 1 .717.685c.043.146.09.29.14.432H2.877l-.12-.03A1 1 0 0 1 2 18v-4a1 1 0 0 1 .757-.97l2.877-.72c.117-.327.249-.648.396-.963L4.168 8.555a1 1 0 0 1 .125-1.262l3-3a1 1 0 0 1 1.262-.125l2.792 1.862c.315-.147.636-.28.964-.396l.719-2.877A1 1 0 0 1 14 2h4a1 1 0 0 1 .97.757l.72 2.877c.327.117.648.249.963.396l2.792-1.862a1 1 0 0 1 1.262.125l3 3ZM16.351 25.883l-.264-1.142a31.62 31.62 0 0 1-.109-.521 9.913 9.913 0 0 1-.098-.561c-.03.192-.067.405-.112.638-.046.23-.163.76-.353 1.586h.936ZM6.208 25.456c0-1.097-.306-1.646-.916-1.646h-.37v3.323h.299c.337 0 .585-.139.746-.417.16-.28.24-.7.24-1.26Z"/><path fill="#2668C5" fill-rule="evenodd" d="M3 21a1 1 0 0 0-1 1v7a1 1 0 0 0 1 1h26a1 1 0 0 0 1-1v-7a1 1 0 0 0-1-1H3Zm13.809 6.933-.285-1.24h-1.292l-.285 1.24h-.922L15.252 23h1.252l1.23 4.933h-.925Zm-9.655-2.504c0 .811-.168 1.432-.502 1.862-.333.428-.812.642-1.438.642H4V23.02h1.326c.576 0 1.025.212 1.346.635.321.421.482 1.013.482 1.774Zm3.258 2.504H8.177V23.02h2.235v.79H9.098v1.17h1.218v.792H9.099v1.361h1.313v.8Zm1.02 0h.915v-1.97h1.217v-.789h-1.217V23.81h1.306v-.79H11.43v4.913Zm10.086-1.734V23.02h-.916v3.253c0 .293-.053.52-.159.679a.511.511 0 0 1-.45.238c-.42 0-.628-.312-.628-.937V23.02h-.916v3.166c0 .598.13 1.05.387 1.357.258.305.633.457 1.126.457.504 0 .89-.154 1.156-.46.267-.31.4-.756.4-1.341Zm1.156 1.734V23.02h.922v4.113h1.278v.8h-2.2Zm3.458 0h.918v-4.11H28v-.803h-2.818v.803h.95v4.11Z" clip-rule="evenodd"/><path fill="#2668C5" d="M10.803 19h2.551a4 4 0 1 1 5.292 0h2.551a6 6 0 1 0-10.395 0Z"/></svg>