<svg xmlns="http://www.w3.org/2000/svg" fill="none" viewBox="0 0 32 32" class="acv-icon"><path fill="#2668C5" d="M11 13a1 1 0 0 0-1 1v2a1 1 0 1 0 2 0v-2a1 1 0 0 0-1-1ZM15 13a1 1 0 1 1 2 0v3a1 1 0 1 1-2 0v-3ZM11 19a1 1 0 0 0-1 1v2a1 1 0 1 0 2 0v-2a1 1 0 0 0-1-1ZM20 20a1 1 0 1 1 2 0v2a1 1 0 1 1-2 0v-2ZM21 13a1 1 0 0 0-1 1v2a1 1 0 1 0 2 0v-2a1 1 0 0 0-1-1Z"/><path fill="#2668C5" fill-rule="evenodd" d="M15.425 4.682a1 1 0 0 1 1.15 0L23 9.203V7a1 1 0 1 1 2 0v3.61l5.076 3.572a1 1 0 0 1-1.151 1.636l-.925-.65V25h1a1 1 0 1 1 0 2H3a1 1 0 1 1 0-2h1v-9.833l-.924.65a1 1 0 1 1-1.151-1.635l13.5-9.5ZM16 6.722l10 7.038V25h-9v-4a1 1 0 1 0-2 0v4H6V13.76l10-7.037Z" clip-rule="evenodd"/></svg>