<svg xmlns="http://www.w3.org/2000/svg" fill="none" viewBox="0 0 32 32" class="acv-icon"><path fill="#2668C5" d="M4 5h4v4H4V5ZM4 14h4v4H4v-4ZM8 23H4v4h4v-4ZM10 6h18v2H10V6ZM13 15h-3v2h3v-2ZM10 24h4v2h-4v-2ZM18.028 17H21v2h-6v-6h2v2.11a7.145 7.145 0 0 1 7.216-1.703A7.019 7.019 0 0 1 29 19h-2.019a5.023 5.023 0 0 0-3.828-3.848A5.072 5.072 0 0 0 18.028 17ZM27 24.89V27h2v-6h-6v2h2.972a5.072 5.072 0 0 1-5.125 1.848A5.023 5.023 0 0 1 17.02 21H15a7.019 7.019 0 0 0 4.784 5.593A7.145 7.145 0 0 0 27 24.89Z"/></svg>