<svg xmlns="http://www.w3.org/2000/svg" fill="none" viewBox="0 0 24 24" class="acv-icon"><path fill="#2668C5" fill-rule="evenodd" d="M19.965 7.831C18.975 4.419 15.739 2 12 2 8.603 2 5.594 4 4.338 6.977 2.324 7.943 1 9.943 1 12.187c0 2.343 1.442 4.423 3.614 5.335a1 1 0 1 0 .775-1.844C3.945 15.072 3 13.708 3 12.188c0-1.557.99-2.945 2.483-3.53a1 1 0 0 0 .578-.595C6.92 5.658 9.291 4 12 4c2.99 0 5.539 2.014 6.14 4.765a1 1 0 0 0 .623.722C20.106 9.995 21 11.235 21 12.625c0 1.412-.942 2.676-2.332 3.166a1 1 0 1 0 .664 1.887C21.506 16.912 23 14.906 23 12.625c0-2.059-1.203-3.893-3.035-4.794ZM16.5 14a.5.5 0 0 0 .5-.5v-2a.5.5 0 0 0-.5-.5h-9a.5.5 0 0 0-.5.5v2a.5.5 0 0 0 .5.5h9ZM9 12.5a.5.5 0 1 1-1 0 .5.5 0 0 1 1 0Zm4.5.5a.5.5 0 1 0 0-1 .5.5 0 0 0 0 1Zm2.5-.5a.5.5 0 1 1-1 0 .5.5 0 0 1 1 0Zm.5 5.5a.5.5 0 0 0 .5-.5v-2a.5.5 0 0 0-.5-.5h-9a.5.5 0 0 0-.5.5v2a.5.5 0 0 0 .5.5h9Zm-8-1a.5.5 0 1 0 0-1 .5.5 0 0 0 0 1Zm3.5-.5a.5.5 0 1 1-1 0 .5.5 0 0 1 1 0Zm2 0a.5.5 0 1 1-1 0 .5.5 0 0 1 1 0Zm1.5.5a.5.5 0 1 0 0-1 .5.5 0 0 0 0 1Zm1 5a.5.5 0 0 0 .5-.5v-2a.5.5 0 0 0-.5-.5h-9a.5.5 0 0 0-.5.5v2a.5.5 0 0 0 .5.5h9ZM9 20.5a.5.5 0 1 1-1 0 .5.5 0 0 1 1 0Zm4.5.5a.5.5 0 1 0 0-1 .5.5 0 0 0 0 1Zm2.5-.5a.5.5 0 1 1-1 0 .5.5 0 0 1 1 0Z" clip-rule="evenodd"/></svg>