<svg xmlns="http://www.w3.org/2000/svg" fill="none" viewBox="0 0 24 24" class="acv-icon"><path fill="#2668C5" fill-rule="evenodd" d="M9 3a3 3 0 1 0 6 0 3 3 0 0 0-6 0Zm4.3 0a1.3 1.3 0 1 1-2.6 0 1.3 1.3 0 0 1 2.6 0ZM5 8a3 3 0 1 1 0-6 3 3 0 0 1 0 6Zm0-1.7a1.3 1.3 0 1 0 0-2.6 1.3 1.3 0 0 0 0 2.6ZM19 8a3 3 0 1 1 0-6 3 3 0 0 1 0 6Zm0-1.7a1.3 1.3 0 1 0 0-2.6 1.3 1.3 0 0 0 0 2.6Z" clip-rule="evenodd"/><path fill="#2668C5" d="M10.207 19.815c-.53-.17-.821-.484-.82-1.042l-.483-3.957a4.615 4.615 0 0 1-.137-.082c-.566-.35-.947-.75-.982-1.33l-.75-3.478C6.772 8.344 8.017 7 9.755 7h4.492c1.734 0 2.984 1.34 2.718 2.926l-.03.144c-.768.103-1.502.314-2.185.618l.21-.94c.074-.438-.221-.748-.713-.748H9.754c-.492 0-.787.311-.712.747l.747 3.366a2.45 2.45 0 0 0 .468.25c.347.13.585.424.619.762l.023.187A7.966 7.966 0 0 0 10 18c0 .624.072 1.232.207 1.815ZM20.325 9c1.594 0 2.745 1.228 2.672 2.752A7.966 7.966 0 0 0 18.11 10a1 1 0 0 1 1-1h1.215ZM3.81 14.655c.134.09.278.16.355.192a1 1 0 0 1 .616.841l.36 2.298a3.25 3.25 0 0 0 .593 0l.268-2.277a1 1 0 0 1 1.996.126l-.304 2.83c.002 1.068-.938 1.333-2.251 1.334C4.13 20 3.189 19.734 3.189 18.6l-.355-2.196a4.21 4.21 0 0 1-.13-.083c-.555-.368-.931-.794-.97-1.408l-.686-2.77C.74 10.445 1.948 9 3.675 9h1.216a1 1 0 1 1 0 2H3.675c-.48 0-.745.315-.659.786l.69 2.792c.027.023.062.05.105.077Z"/><path fill="#2668C5" fill-rule="evenodd" d="M18 24a6 6 0 1 0 0-12 6 6 0 0 0 0 12Zm1-6.586V21a1 1 0 1 1-2 0v-3.586l-1.293 1.293a1 1 0 0 1-1.414-1.414l3-3a1 1 0 0 1 1.414 0l3 3a1 1 0 0 1-1.414 1.414L19 17.414Z" clip-rule="evenodd"/></svg>