<svg xmlns="http://www.w3.org/2000/svg" fill="none" viewBox="0 0 72 72" class="acv-icon"><path fill="#F5CB63" d="M5 14v18h62V20a4 4 0 0 0-4-4H35.873a4 4 0 0 1-3.072-1.44l-2.602-3.12A4 4 0 0 0 27.126 10H9a4 4 0 0 0-4 4Z"/><path fill="url(#a)" d="M5 14v18h62V20a4 4 0 0 0-4-4H35.873a4 4 0 0 1-3.072-1.44l-2.602-3.12A4 4 0 0 0 27.126 10H9a4 4 0 0 0-4 4Z" opacity=".1"/><path fill="#fff" d="M5 15v-1a4 4 0 0 1 4-4h18.127a4 4 0 0 1 3.072 1.44l2.602 3.12A4 4 0 0 0 35.873 16H63a4 4 0 0 1 4 4v1a4 4 0 0 0-4-4H35.873a4 4 0 0 1-3.072-1.44l-2.602-3.12A4 4 0 0 0 27.126 11H9a4 4 0 0 0-4 4Z" opacity=".3"/><path fill="#D6A948" d="M67 24.977A3.364 3.364 0 0 0 64.625 24H7.375c-.926 0-1.765.373-2.375.977v2A3.364 3.364 0 0 1 7.375 26h57.25c.926 0 1.765.373 2.375.977v-2Z"/><path fill="#CE983A" d="M67 24.977A3.364 3.364 0 0 0 64.625 24H7.375c-.926 0-1.765.373-2.375.977v1A3.364 3.364 0 0 1 7.375 25h57.25c.926 0 1.765.373 2.375.977v-1ZM4 28.375V28h.02c-.013.123-.02.248-.02.375Z"/><path fill="#D6A948" d="M62.32 18H9.68C8.752 18 8 18.76 8 19.698v26.604A1.69 1.69 0 0 0 9.68 48h52.64c.928 0 1.68-.76 1.68-1.698V19.698A1.69 1.69 0 0 0 62.32 18Z"/><path fill="#CE983A" d="M62.32 19H9.68C8.752 19 8 19.76 8 20.698v26.604A1.69 1.69 0 0 0 9.68 49h52.64c.928 0 1.68-.76 1.68-1.698V20.698A1.69 1.69 0 0 0 62.32 19Z"/><path fill="#fff" d="M62.32 20H9.68C8.752 20 8 20.76 8 21.698v26.604A1.69 1.69 0 0 0 9.68 50h52.64c.928 0 1.68-.76 1.68-1.698V21.698A1.69 1.69 0 0 0 62.32 20Z"/><path fill="#000" d="M64 24H8v1h56v-1Z" opacity=".1"/><path fill="#000" d="M64 23H8v2h56v-2Z" opacity=".1"/><path fill="#F5CB63" d="M64.625 25H7.375A3.375 3.375 0 0 0 4 28.375v30.25A3.375 3.375 0 0 0 7.375 62h57.25A3.375 3.375 0 0 0 68 58.625v-30.25A3.375 3.375 0 0 0 64.625 25Z"/><path fill="#F9E08B" d="M7.375 25h57.25A3.375 3.375 0 0 1 68 28.375v1A3.375 3.375 0 0 0 64.625 26H7.375A3.375 3.375 0 0 0 4 29.375v-1A3.375 3.375 0 0 1 7.375 25Z"/><path fill="#DCB759" d="M4 57.625v1A3.375 3.375 0 0 0 7.375 62h57.25A3.375 3.375 0 0 0 68 58.625v-1A3.375 3.375 0 0 1 64.625 61H7.375A3.375 3.375 0 0 1 4 57.625Z"/><path fill="#000" fill-rule="evenodd" d="M36.958 31.409a1.326 1.326 0 0 0-1.916 0l-.921.959c-.327.34-.805.481-1.262.373l-1.289-.303a1.334 1.334 0 0 0-1.611 1.044l-.262 1.31c-.092.463-.419.843-.86 1.002l-1.248.447A1.35 1.35 0 0 0 26.794 38l.481 1.244c.17.44.1.939-.187 1.313l-.81 1.057c-.46.6-.336 1.467.273 1.912l1.072.785c.38.277.587.735.546 1.206l-.115 1.33a1.342 1.342 0 0 0 1.255 1.46l1.322.076c.467.026.887.298 1.105.717l.617 1.182c.35.672 1.182.918 1.837.544l1.153-.658a1.324 1.324 0 0 1 1.314 0l1.153.658a1.328 1.328 0 0 0 1.837-.544l.617-1.182c.218-.419.638-.69 1.105-.717l1.322-.075a1.342 1.342 0 0 0 1.255-1.46l-.115-1.331a1.35 1.35 0 0 1 .546-1.206l1.072-.785c.61-.445.733-1.311.273-1.912l-.81-1.057a1.355 1.355 0 0 1-.187-1.313L45.206 38a1.35 1.35 0 0 0-.795-1.758l-1.248-.447a1.342 1.342 0 0 1-.86-1.002l-.262-1.31a1.334 1.334 0 0 0-1.611-1.044l-1.29.303a1.326 1.326 0 0 1-1.26-.373l-.922-.96Z" clip-rule="evenodd" opacity=".3" style="mix-blend-mode:multiply"/><path fill="#000" fill-opacity=".2" d="M32 46h10v10.234a1 1 0 0 1-1.514.857L37 55l-3.486 2.091A1 1 0 0 1 32 56.234V46Z"/><path fill="url(#b)" d="M31 45h10v10.234a1 1 0 0 1-1.514.857L36 54l-3.486 2.091A1 1 0 0 1 31 55.234V45Z"/><path fill="#000" fill-rule="evenodd" d="M31.03 55.482c.157.625.892.965 1.484.61L36 54l3.486 2.091A1 1 0 0 0 41 55.234V45h-1v10l-4-2.5-4.97 2.982Z" clip-rule="evenodd" opacity=".3" style="mix-blend-mode:overlay"/><path fill="#000" d="M31 54.25v1.25l5-3 4 2.5V43h-1v10l-3-1.75-5 3Z" opacity=".2" style="mix-blend-mode:overlay"/><path fill="url(#c)" d="M31 45h10v8H31z"/><path fill="url(#d)" fill-rule="evenodd" d="M36.958 30.409a1.326 1.326 0 0 0-1.916 0l-.921.959c-.327.34-.805.481-1.262.373l-1.289-.303a1.334 1.334 0 0 0-1.611 1.044l-.262 1.31c-.092.463-.419.843-.86 1.002l-1.248.447A1.35 1.35 0 0 0 26.794 37l.481 1.244c.17.44.1.939-.187 1.313l-.81 1.057c-.46.6-.336 1.467.273 1.912l1.072.785c.38.277.587.735.546 1.206l-.115 1.33a1.342 1.342 0 0 0 1.255 1.46l1.322.076c.467.026.887.298 1.105.717l.617 1.182c.35.672 1.182.918 1.837.544l1.153-.658a1.324 1.324 0 0 1 1.314 0l1.153.658a1.328 1.328 0 0 0 1.837-.544l.617-1.182c.218-.419.638-.69 1.105-.717l1.322-.075a1.342 1.342 0 0 0 1.255-1.46l-.115-1.331a1.35 1.35 0 0 1 .546-1.206l1.072-.785c.61-.445.733-1.311.273-1.912l-.81-1.057a1.355 1.355 0 0 1-.187-1.313L45.206 37a1.35 1.35 0 0 0-.795-1.758l-1.248-.447a1.342 1.342 0 0 1-.86-1.002l-.262-1.31a1.334 1.334 0 0 0-1.611-1.044l-1.29.303a1.326 1.326 0 0 1-1.26-.373l-.922-.96Z" clip-rule="evenodd"/><path fill="#fff" fill-rule="evenodd" d="M35.042 30.409a1.326 1.326 0 0 1 1.916 0l.921.959c.327.34.805.481 1.262.373l1.289-.303c.733-.173 1.462.3 1.611 1.044l.262 1.31c.092.463.419.843.86 1.002l1.248.447A1.35 1.35 0 0 1 45.206 37l-.004.01a1.336 1.336 0 0 0-.791-.768l-1.248-.447a1.342 1.342 0 0 1-.86-1.002l-.262-1.31a1.334 1.334 0 0 0-1.611-1.044l-1.29.303a1.326 1.326 0 0 1-1.26-.373l-.922-.96a1.326 1.326 0 0 0-1.916 0l-.921.96c-.327.34-.805.481-1.262.373l-1.289-.303a1.334 1.334 0 0 0-1.611 1.044l-.262 1.31c-.092.463-.419.843-.86 1.002l-1.248.447a1.336 1.336 0 0 0-.791.768l-.004-.01a1.35 1.35 0 0 1 .795-1.758l1.248-.447c.441-.159.768-.539.86-1.002l.262-1.31a1.334 1.334 0 0 1 1.611-1.044l1.29.303c.456.108.934-.034 1.26-.373l.922-.96Zm-7.77 8.824a1.346 1.346 0 0 1-.184.323l-.81 1.057c-.3.392-.351.896-.183 1.323.045-.113.106-.222.184-.323l.81-1.057c.286-.374.357-.872.186-1.313l-.004-.01Zm.852 5.802-.07.812c-.014.167.003.33.045.481l.07-.812a1.355 1.355 0 0 0-.045-.481Zm15.777 1.294c.042-.153.059-.315.045-.482l-.07-.812a1.355 1.355 0 0 0-.045.48l.07.813Zm2.004-4.393a1.355 1.355 0 0 0-.184-1.323l-.81-1.057a1.346 1.346 0 0 1-.182-.323l-.004.01c-.17.44-.1.939.187 1.313l.81 1.057c.077.101.138.21.183.323Z" clip-rule="evenodd" opacity=".5" style="mix-blend-mode:overlay"/><path fill="#000" fill-rule="evenodd" d="M26.798 36.01a1.351 1.351 0 0 0-.004.99l.477 1.233c.124-.313.13-.667.004-.99l-.477-1.233Zm-.703 4.926a1.353 1.353 0 0 0 .456 1.59l1.072.784c.247.18.421.438.501.725l.045-.519a1.35 1.35 0 0 0-.546-1.206l-1.072-.784a1.337 1.337 0 0 1-.456-.59Zm2.004 4.393-.045.518a1.342 1.342 0 0 0 1.255 1.46l1.322.075c.467.026.887.299 1.105.717l.617 1.182c.35.672 1.182.919 1.837.544l1.153-.658a1.323 1.323 0 0 1 1.314 0l1.153.658a1.328 1.328 0 0 0 1.837-.544l.617-1.182c.218-.418.638-.69 1.105-.717l1.322-.075a1.342 1.342 0 0 0 1.255-1.46l-.045-.518c-.15.536-.624.945-1.21.978l-1.322.075a1.333 1.333 0 0 0-1.105.717l-.617 1.182a1.328 1.328 0 0 1-1.837.544l-1.153-.658a1.324 1.324 0 0 0-1.314 0l-1.153.658a1.328 1.328 0 0 1-1.837-.544l-.617-1.182a1.333 1.333 0 0 0-1.105-.717l-1.322-.075a1.337 1.337 0 0 1-1.21-.978Zm15.777-1.294c.08-.287.254-.544.5-.725l1.073-.784c.507-.371.677-1.032.456-1.59-.09.228-.244.434-.456.59l-1.072.784a1.35 1.35 0 0 0-.546 1.206l.045.52Zm.853-5.802a1.357 1.357 0 0 1-.004-.99l.477-1.233c.122.306.133.657.004.99l-.477 1.233Z" clip-rule="evenodd" opacity=".3" style="mix-blend-mode:overlay"/><path stroke="#fff" stroke-linecap="round" stroke-linejoin="round" stroke-width="1.75" d="M32.875 41.625 34.75 43.5l5-5" opacity=".4" style="mix-blend-mode:overlay"/><path stroke="#BF1D18" stroke-linecap="round" stroke-linejoin="round" stroke-width="1.75" d="M32.875 40.625 34.75 42.5l5-5" style="mix-blend-mode:multiply"/><path stroke="#BF1D18" stroke-linecap="round" stroke-linejoin="round" stroke-width="1.75" d="M32.875 40.625 34.75 42.5l5-5" opacity=".8" style="mix-blend-mode:multiply"/><defs><linearGradient id="a" x1="36" x2="36" y1="18.684" y2="10" gradientUnits="userSpaceOnUse"><stop/><stop offset="1" stop-opacity=".4"/></linearGradient><linearGradient id="b" x1="36" x2="36" y1="45" y2="57" gradientUnits="userSpaceOnUse"><stop stop-color="#AD251E"/><stop offset="1" stop-color="#D92C23"/></linearGradient><linearGradient id="c" x1="36" x2="36" y1="45" y2="53" gradientUnits="userSpaceOnUse"><stop/><stop offset="1" stop-color="#D72C23" stop-opacity="0"/></linearGradient><linearGradient id="d" x1="36" x2="36" y1="30" y2="50" gradientUnits="userSpaceOnUse"><stop stop-color="#D92C23"/><stop offset="1" stop-color="#AD251E"/></linearGradient></defs></svg>