<svg xmlns="http://www.w3.org/2000/svg" fill="none" viewBox="0 0 16 16" class="acv-icon"><g fill="#2668C5" clip-path="url(#a)"><path d="M15.702 14.693c0 .553-.316.684-.707.293l-1.311-1.303C12.195 15.123 10.096 16 8 16c-4.411 0-8-3.589-8-8s3.589-8 8-8a7.948 7.948 0 0 1 7.669 5.715 1 1 0 0 1-1.918.57A5.959 5.959 0 0 0 8 2C4.691 2 2 4.691 2 8s2.691 6 6 6c1.559 0 3.166-.651 4.285-1.716l-1.234-1.254c-.39-.391-.26-.707.293-.707L15.5 10c.276 0 .354.223.354.499l-.152 4.194Z"/><path d="M9 6v1h1a1 1 0 1 1 0 2H9v1a1 1 0 1 1-2 0V9H6a1 1 0 1 1 0-2h1V6a1 1 0 0 1 2 0Z"/></g><defs><clipPath id="a"><path fill="#fff" d="M0 0h16v16H0z"/></clipPath></defs></svg>