<svg xmlns="http://www.w3.org/2000/svg" fill="none" viewBox="0 0 24 24" class="acv-icon"><g fill="#2668C5" fill-rule="evenodd" clip-path="url(#a)" clip-rule="evenodd"><path d="M11 18H3.503C2.673 18 2 17.336 2 16.507V3.493C2 2.668 2.665 2 3.503 2h16.994C21.327 2 22 2.664 22 3.493V13h-4.577c-1.038 0-1.868.41-2.49 1H4v2h9.383l-.912 1.232a3.501 3.501 0 0 0 0 4.536l.171.232H8.997A.996.996 0 0 1 8 21c0-.552.453-1 .997-1H11v-2Zm9-14v8H4V4h16Z"/><path d="M16.181 15.582c.33-.368.723-.582 1.242-.582h5.104c.96 0 1.473.616 1.473 1.5v6c0 .884-.513 1.5-1.473 1.5h-5.104c-.519 0-.912-.214-1.242-.582l-2.148-2.9a1.504 1.504 0 0 1 0-2.036l2.148-2.9Zm1.738 3.937a1.003 1.003 0 1 1-2.006 0 1.003 1.003 0 0 1 2.006 0Z"/></g><defs><clipPath id="a"><path fill="#fff" d="M0 0h24v24H0z"/></clipPath></defs></svg>