<svg xmlns="http://www.w3.org/2000/svg" fill="none" viewBox="0 0 32 32" class="acv-icon"><path fill="#2668C5" d="M22.5 2c.47 0 .866.347.93.812.081.574.21 1.145.37 1.702.281.986.691 1.96 1.209 2.477.517.518 1.49.928 2.477 1.21.558.158 1.127.29 1.702.37a.938.938 0 0 1 0 1.858c-.575.08-1.144.212-1.702.37-.986.282-1.96.692-2.477 1.21-.518.517-.928 1.49-1.21 2.477-.158.557-.288 1.127-.37 1.702a.938.938 0 0 1-1.858 0 12.882 12.882 0 0 0-.37-1.702c-.282-.986-.692-1.96-1.21-2.477-.517-.518-1.49-.928-2.477-1.21a12.867 12.867 0 0 0-1.702-.37.938.938 0 0 1 0-1.858c.575-.08 1.144-.212 1.702-.37.986-.282 1.96-.692 2.477-1.21.518-.517.928-1.49 1.21-2.477.158-.557.288-1.128.37-1.702A.938.938 0 0 1 22.5 2Z"/><path fill="#2668C5" d="M8 3a5 5 0 0 0-5 5v12a5 5 0 0 0 5 5h2v3.977c0 .877 1.04 1.337 1.69.748L16.886 25H24a5 5 0 0 0 5-5v-6a1 1 0 1 0-2 0v6a3 3 0 0 1-3 3h-7.461a1.1 1.1 0 0 0-.74.286L12 26.74V23H8a3 3 0 0 1-3-3V8a3 3 0 0 1 3-3h10a1 1 0 1 0 0-2H8Z"/><path fill="#2668C5" d="M10 7c.188 0 .347.139.372.325.033.23.084.458.148.68.113.395.277.785.483.992.207.207.597.37.991.483.223.064.451.115.681.148a.375.375 0 0 1 0 .744c-.23.032-.457.084-.68.148-.395.113-.785.277-.992.483-.207.207-.37.597-.483.991a5.157 5.157 0 0 0-.148.681.375.375 0 0 1-.744 0 5.023 5.023 0 0 0-.148-.68c-.112-.395-.277-.785-.483-.992-.207-.207-.597-.37-.991-.483a5.155 5.155 0 0 0-.681-.148.375.375 0 0 1 0-.744c.23-.033.458-.084.68-.148.395-.112.785-.277.992-.483.207-.207.37-.597.483-.991.064-.223.115-.451.148-.681A.375.375 0 0 1 10 7ZM13.777 13.46a.531.531 0 0 0-1.053 0c-.047.326-.12.649-.21.965-.16.558-.392 1.11-.685 1.403-.294.294-.846.526-1.404.685-.316.09-.64.164-.965.21a.531.531 0 0 0 0 1.053c.326.047.649.12.965.21.558.16 1.11.392 1.403.686.294.293.526.845.685 1.403.09.317.165.639.21.965a.531.531 0 0 0 1.053 0c.047-.326.12-.649.21-.965.16-.558.392-1.11.685-1.403.294-.294.846-.526 1.404-.685.317-.09.639-.165.965-.21a.531.531 0 0 0 0-1.053 7.287 7.287 0 0 1-.965-.21c-.558-.16-1.11-.392-1.403-.685-.294-.294-.526-.846-.685-1.404a7.287 7.287 0 0 1-.21-.965Z"/></svg>