<svg xmlns="http://www.w3.org/2000/svg" fill="none" viewBox="0 0 24 24" class="acv-icon"><path fill="#2668C5" d="M7 11a4 4 0 0 1 4-4 1 1 0 1 0 0-2 6 6 0 0 0-6 6 1 1 0 1 0 2 0ZM11 13a2 2 0 1 0 0-4 2 2 0 0 0 0 4Z"/><path fill="#2668C5" fill-rule="evenodd" d="M19 5h2a1 1 0 0 1 1 1v3a1 1 0 0 1 1 1v10a3 3 0 0 1-3 3h-3a3 3 0 0 1-2.954-2.472A9.995 9.995 0 0 1 11 21C5.477 21 1 16.523 1 11S5.477 1 11 1a9.985 9.985 0 0 1 8 4Zm-8 14c1.06 0 2.074-.206 3-.581V10a1 1 0 0 1 1-1V6a1 1 0 0 1 1-1h.292A8 8 0 1 0 11 19Zm6-12h3v2h-3V7Zm-1 13a1 1 0 0 0 1 1h3a1 1 0 0 0 1-1v-9h-5v9Z" clip-rule="evenodd"/></svg>