<svg xmlns="http://www.w3.org/2000/svg" fill="none" viewBox="0 0 16 16" class="acv-icon"><g clip-path="url(#a)"><path fill="#2668C5" fill-rule="evenodd" d="M2.286 0A2.286 2.286 0 0 0 0 2.286v11.428A2.286 2.286 0 0 0 2.286 16h11.428A2.285 2.285 0 0 0 16 13.714V2.286A2.286 2.286 0 0 0 13.714 0H2.286ZM5.49 9.771 3.24 9.99a4.405 4.405 0 0 0 1.394 2.93 4.994 4.994 0 0 0 3.337 1 6.577 6.577 0 0 0 2.492-.416 3.285 3.285 0 0 0 1.543-1.28 3.571 3.571 0 0 0 .085-3.663 3.08 3.08 0 0 0-1.262-1.143 11.132 11.132 0 0 0-2.492-.829 6 6 0 0 1-2.126-.765.88.88 0 0 1-.342-.697.829.829 0 0 1 .365-.709c.47-.3 1.021-.446 1.577-.417.519-.039 1.035.1 1.463.394.365.325.594.776.64 1.263L12.2 5.56a3.348 3.348 0 0 0-1.143-2.526c-.728-.628-1.81-.942-3.246-.942a5.823 5.823 0 0 0-2.285.394 3.16 3.16 0 0 0-1.429 1.143 3.012 3.012 0 0 0 .572 3.937A6.354 6.354 0 0 0 7.28 8.709c.966.24 1.583.405 1.851.502.316.09.602.262.829.498.162.193.247.439.24.691a1.428 1.428 0 0 1-.571 1.109c-.49.344-1.083.51-1.68.468a2.508 2.508 0 0 1-1.68-.531A2.765 2.765 0 0 1 5.49 9.77Z" clip-rule="evenodd"/></g><defs><clipPath id="a"><path fill="#fff" d="M0 0h16v16H0z"/></clipPath></defs></svg>