<svg xmlns="http://www.w3.org/2000/svg" fill="none" viewBox="0 0 32 32" class="acv-icon"><path fill="#2668C5" fill-rule="evenodd" d="M12.63 18.64h.89l2 3.39h1.9l-2.17-3.65a2.65 2.65 0 0 0 1.17-1c.299-.46.452-1 .44-1.55a3.13 3.13 0 0 0-.21-1.17 2.581 2.581 0 0 0-.6-.9 2.63 2.63 0 0 0-.92-.57A3.34 3.34 0 0 0 14 13h-3v9h1.63v-3.36Zm0-4.12H14c.33-.006.651.112.9.33.27.26.41.627.38 1a1.18 1.18 0 0 1-.37.95 1.35 1.35 0 0 1-.91.32h-1.37v-2.6Z" clip-rule="evenodd"/><path fill="#2668C5" fill-rule="evenodd" d="M8 4v5H3v17h6.4l-.787 3h10.774l-.787-3H25v-5h4V4H8Zm2 2v3h15v10h2V6H10ZM5 24V11h18v13h-7l.613 3h-5.226L12 24H5Z" clip-rule="evenodd"/></svg>