<svg xmlns="http://www.w3.org/2000/svg" fill="none" viewBox="0 0 16 16" class="acv-icon"><path fill="#2668C5" d="M13.336 12.768A4.009 4.009 0 0 0 16 9c0-1.54-.88-2.912-2.21-3.578a6.003 6.003 0 0 0-11.58 0 4.001 4.001 0 0 0 .46 7.352 1 1 0 0 0 .665-1.887 2.001 2.001 0 0 1 .046-3.79 1 1 0 0 0 .677-.781 4.001 4.001 0 0 1 7.884 0 1 1 0 0 0 .676.781A2.001 2.001 0 0 1 14 9c0 .848-.543 1.601-1.336 1.884a1 1 0 0 0 .672 1.884Z"/><path fill="#2668C5" fill-rule="evenodd" d="M10.5 9h-5a.5.5 0 0 0-.5.5v2a.5.5 0 0 0 .5.5h5a.5.5 0 0 0 .5-.5v-2a.5.5 0 0 0-.5-.5Zm-1 2a.5.5 0 1 0 0-1 .5.5 0 0 0 0 1ZM11 13.5a.5.5 0 0 0-.5-.5h-5a.5.5 0 0 0-.5.5v2a.5.5 0 0 0 .5.5h5a.5.5 0 0 0 .5-.5v-2ZM9.5 15a.5.5 0 1 0 0-1 .5.5 0 0 0 0 1ZM8 14.5a.5.5 0 1 1-1 0 .5.5 0 0 1 1 0Z" clip-rule="evenodd"/></svg>