<svg xmlns="http://www.w3.org/2000/svg" fill="none" viewBox="0 0 16 16" class="acv-icon"><g fill="#2668C5" clip-path="url(#a)"><path d="M9.793 8.957a1 1 0 0 0 1.414-1.414l-.793-.793.793-.793a1 1 0 0 0-1.414-1.414l-1.5 1.5a1 1 0 0 0 0 1.414l1.5 1.5ZM6.207 7.043a1 1 0 0 0-1.414 1.414l.793.793-.793.793a1 1 0 1 0 1.414 1.414l1.5-1.5a1 1 0 0 0 0-1.414l-1.5-1.5Z"/><path fill-rule="evenodd" d="M8 16A8 8 0 1 0 8 0a8 8 0 0 0 0 16Zm6-8A6 6 0 1 1 2 8a6 6 0 0 1 12 0Z" clip-rule="evenodd"/></g><defs><clipPath id="a"><path fill="#fff" d="M0 0h16v16H0z"/></clipPath></defs></svg>