<svg xmlns="http://www.w3.org/2000/svg" fill="none" viewBox="0 0 32 32" class="acv-icon"><path fill="#2668C5" fill-rule="evenodd" d="M17.183 5.867a2 2 0 0 0-2.366 0L3.463 14.193c-.78.572-.375 1.807.592 1.807H6v9a1 1 0 0 0 1 1h8v-5a1 1 0 1 1 2 0v5h8a1 1 0 0 0 1-1v-9h1.945c.967 0 1.371-1.235.592-1.807L24 10.867V7.5a1.5 1.5 0 0 0-3 0v1.166l-3.817-2.799ZM10 14a1 1 0 1 1 2 0v2a1 1 0 1 1-2 0v-2Zm6-3a1 1 0 0 0-1 1v3a1 1 0 1 0 2 0v-3a1 1 0 0 0-1-1Zm-6 9a1 1 0 1 1 2 0v2a1 1 0 1 1-2 0v-2Zm11-1a1 1 0 0 0-1 1v2a1 1 0 1 0 2 0v-2a1 1 0 0 0-1-1Zm-1-5a1 1 0 1 1 2 0v2a1 1 0 1 1-2 0v-2Z" clip-rule="evenodd"/></svg>