<svg xmlns="http://www.w3.org/2000/svg" fill="none" viewBox="0 0 32 32" class="acv-icon"><path fill="#2668C5" fill-rule="evenodd" d="M4 3a2 2 0 0 0-2 2v18a2 2 0 0 0 2 2h8l-.845 3.379a.5.5 0 0 0 .485.621h4.652A8.967 8.967 0 0 1 14 23c0-.6.059-1.187.171-1.755l-4.923-2.872a.498.498 0 0 1-.248-.43v-6.111c0-.385.42-.625.755-.43l5.226 3.049c.154.09.248.253.248.43v3.576a9.035 9.035 0 0 1 1.542-1.953V14.88c0-.176.094-.34.247-.43l5.227-3.048a.501.501 0 0 1 .755.43V14a8.983 8.983 0 0 1 7 3.343V5a2 2 0 0 0-2-2H4Zm17.493 6.129c.33.193.33.667 0 .86l-5.24 3.055a.504.504 0 0 1-.507 0l-5.24-3.056a.497.497 0 0 1 0-.859l5.24-3.06a.504.504 0 0 1 .508 0l5.239 3.06Z" clip-rule="evenodd"/><path fill="#2668C5" d="M20.5 19.862a.5.5 0 0 1 .748-.434l5.492 3.138a.5.5 0 0 1 0 .868l-5.492 3.139a.5.5 0 0 1-.748-.435v-6.276Z"/><path fill="#2668C5" fill-rule="evenodd" d="M32 23a9 9 0 1 1-18 0 9 9 0 0 1 18 0Zm-2 0a7 7 0 1 1-14 0 7 7 0 0 1 14 0Z" clip-rule="evenodd"/></svg>