<svg xmlns="http://www.w3.org/2000/svg" fill="none" viewBox="0 0 16 16" class="acv-icon"><g fill="#2668C5" clip-path="url(#a)"><path d="M13.264 5.85 9.15 1.736 10.585.301a1.028 1.028 0 0 1 1.455 0l2.659 2.66a1.028 1.028 0 0 1 0 1.454L13.264 5.85ZM.027 13.862l.932-3.728c.046-.18.139-.346.27-.477L7.737 3.15l4.114 4.114-6.507 6.506a1.028 1.028 0 0 1-.477.27l-3.728.933a.916.916 0 0 1-1.11-1.11ZM8 15c0-.552.512-1 1.143-1h5.714c.631 0 1.143.448 1.143 1s-.512 1-1.143 1H9.143C8.512 16 8 15.552 8 15Z"/></g><defs><clipPath id="a"><path fill="#fff" d="M0 0h16v16H0z"/></clipPath></defs></svg>