<svg xmlns="http://www.w3.org/2000/svg" fill="none" viewBox="0 0 32 32" class="acv-icon"><path fill="#2668C5" d="M8 9a1 1 0 1 0 0-2 1 1 0 0 0 0 2ZM11 9a1 1 0 1 0 0-2 1 1 0 0 0 0 2ZM14 9a1 1 0 1 0 0-2 1 1 0 0 0 0 2Z"/><path fill="#2668C5" fill-rule="evenodd" d="M3 4.987A2 2 0 0 1 5 3h22a2 2 0 0 1 2 2v9.582a7.946 7.946 0 0 0-2-.52V13H5v14h10.032c-.021.144-.032.29-.032.437V29H5a2 2 0 0 1-2-2V4.987ZM5 11h22V5H5v6Z" clip-rule="evenodd"/><path fill="#2668C5" d="M26.5 23a1.5 1.5 0 1 0 0-3 1.5 1.5 0 0 0 0 3Z"/><path fill="#2668C5" fill-rule="evenodd" d="M23.999 29.999a1 1 0 0 0 1.001-1V28h1a6 6 0 1 0-6-6c0 .49.059 1.029.17 1.549l-2.912 3.217a1 1 0 0 0-.258.67V31a1 1 0 0 0 1 1l4.03-.002a1 1 0 0 0 1-1v-1h.969Zm.03-3.999a1 1 0 0 0-1 1v.997h-1a1 1 0 0 0-1 1V30H19v-2.178l2.996-3.31a1 1 0 0 0 .236-.88l-.107-.5A5.595 5.595 0 0 1 22 22a4 4 0 1 1 4 4h-1.97Z" clip-rule="evenodd"/></svg>