<svg xmlns="http://www.w3.org/2000/svg" fill="none" viewBox="0 0 16 16" class="acv-icon"><path fill="#2668C5" d="M9.793 5.793 7.5 8.086 6.207 6.793a1 1 0 0 0-1.414 1.414l2 2a1 1 0 0 0 1.414 0l3-3a1 1 0 0 0-1.414-1.414Z"/><path fill="#2668C5" fill-rule="evenodd" d="M15 10.527c0 1.988-2.22 3.792-6.659 5.413a.994.994 0 0 1-.682 0C3.219 14.319 1 12.515 1 10.527V2.732c0-.45.296-.845.725-.968l6-1.725a.994.994 0 0 1 .55 0l6 1.725c.429.123.725.518.725.968v7.795ZM8 2 3 3.454v7.114c0 .825 1.527 2.106 5 3.432 3.473-1.326 5-2.607 5-3.432V3.454L8 2Z" clip-rule="evenodd"/></svg>