<svg xmlns="http://www.w3.org/2000/svg" fill="none" viewBox="0 0 24 24" class="acv-icon"><path fill="#2668C5" d="M12 14a2 2 0 1 0 0-4 2 2 0 0 0 0 4Z"/><path fill="#2668C5" fill-rule="evenodd" d="M22 12a9.958 9.958 0 0 1-2.257 6.329l1.964 1.964a1 1 0 0 1-1.414 1.414l-1.964-1.964A9.958 9.958 0 0 1 12 22a9.959 9.959 0 0 1-6.329-2.257l-1.964 1.964a1 1 0 0 1-1.414-1.414l1.964-1.964A9.958 9.958 0 0 1 2 12c0-2.401.846-4.605 2.257-6.329L2.293 3.707a1 1 0 0 1 1.414-1.414l1.964 1.964A9.959 9.959 0 0 1 12 2c2.401 0 4.605.846 6.329 2.257l1.964-1.964a1 1 0 1 1 1.414 1.414l-1.964 1.964A9.959 9.959 0 0 1 22 12Zm-2 0a7.965 7.965 0 0 1-1.68 4.906l-2.113-2.113a1 1 0 0 0-1.414 1.414l2.113 2.113A7.965 7.965 0 0 1 12 20a7.966 7.966 0 0 1-4.906-1.68l2.113-2.113a1 1 0 1 0-1.414-1.414L5.68 16.906A7.965 7.965 0 0 1 4 12c0-1.849.627-3.551 1.68-4.906l2.113 2.113a1 1 0 0 0 1.414-1.414L7.094 5.68A7.965 7.965 0 0 1 12 4c1.849 0 3.551.627 4.906 1.68l-2.113 2.113a1 1 0 0 0 1.414 1.414l2.113-2.113A7.966 7.966 0 0 1 20 12Z" clip-rule="evenodd"/></svg>