<svg xmlns="http://www.w3.org/2000/svg" fill="none" viewBox="0 0 16 16" class="acv-icon"><path fill="#2668C5" d="M5.333 4.154v-1.32a.833.833 0 1 1 1.667 0v3.333c0 .46-.373.834-.833.834H2.833a.833.833 0 0 1 0-1.667h1.322L2.383 3.565a.837.837 0 0 1-.002-1.18.83.83 0 0 1 1.177-.003l1.775 1.772ZM5.442 9.382l-1.775 1.772v-1.32a.833.833 0 1 0-1.667 0v3.333c0 .46.373.834.833.834h3.334a.833.833 0 0 0 0-1.667H4.845l1.772-1.769a.837.837 0 0 0 .002-1.18.83.83 0 0 0-1.177-.003ZM10.667 13.167v-1.32l1.775 1.771a.83.83 0 0 0 1.177-.002.837.837 0 0 0-.002-1.18l-1.772-1.77h1.322a.833.833 0 0 0 0-1.666H9.833A.833.833 0 0 0 9 9.833v3.334a.833.833 0 1 0 1.667 0ZM10.558 6.618l1.775-1.771v1.32a.833.833 0 1 0 1.667 0V2.833A.833.833 0 0 0 13.167 2H9.833a.833.833 0 0 0 0 1.667h1.322L9.383 5.435a.837.837 0 0 0-.002 1.181.83.83 0 0 0 1.177.002Z"/></svg>