<svg xmlns="http://www.w3.org/2000/svg" fill="none" viewBox="0 0 24 24" class="acv-icon"><path fill="#2668C5" fill-rule="evenodd" d="M5 9c0-3.828 3.152-7 7-7s7 3.172 7 7c0 2.408-1.062 4.422-3 5.595V16a2 2 0 0 1-2 2h-4a2 2 0 0 1-2-2v-1.405C6.062 13.422 5 11.408 5 9Zm2 0c0 1.887.852 3.337 2.434 4.099A1 1 0 0 1 10 14v2h4v-2a1 1 0 0 1 .566-.901C16.148 12.337 17 10.887 17 9c0-2.726-2.26-5-5-5S7 6.274 7 9Z" clip-rule="evenodd"/><path fill="#2668C5" d="M4 5a1 1 0 1 1 0-2 1 1 0 0 1 0 2ZM2 10a1 1 0 1 1 0-2 1 1 0 0 1 0 2ZM3 14a1 1 0 1 0 2 0 1 1 0 0 0-2 0ZM20 15a1 1 0 1 1 0-2 1 1 0 0 1 0 2ZM19 4a1 1 0 1 0 2 0 1 1 0 0 0-2 0ZM22 10a1 1 0 1 0 0-2 1 1 0 0 0 0 2ZM15 20a1 1 0 0 0-1-1h-4a1 1 0 1 0 0 2h4a1 1 0 0 0 1-1Z"/></svg>