<svg xmlns="http://www.w3.org/2000/svg" fill="none" viewBox="0 0 24 24" class="acv-icon"><path fill="#2668C5" d="M11 0a1 1 0 0 1 1 1v1h9a1 1 0 1 1 0 2h-1v7h-2V4H4v9h8.982a.84.84 0 0 1 .039 0h.103l-1.482 2H9.82l-.84 4.196a1 1 0 1 1-1.96-.392L7.78 15H3.1A1.1 1.1 0 0 1 2 13.9V4H1a1 1 0 0 1 0-2h9V1a1 1 0 0 1 1-1Z"/><path fill="#2668C5" d="M8.8 6.018c-.165-.02-.3.116-.3.282v2a.2.2 0 0 1-.2.2h-2c-.166 0-.302.135-.282.3a2.5 2.5 0 1 0 2.781-2.782ZM13 6a1 1 0 1 0 0 2h2a1 1 0 1 0 0-2h-2ZM13 9a1 1 0 1 0 0 2h2a1 1 0 1 0 0-2h-2Z"/><path fill="#2668C5" fill-rule="evenodd" d="M15.181 13.582c.33-.368.723-.582 1.242-.582h5.104c.96 0 1.473.616 1.473 1.5v6c0 .884-.513 1.5-1.473 1.5h-5.104c-.519 0-.912-.214-1.242-.582l-2.148-2.9a1.504 1.504 0 0 1 0-2.036l2.148-2.9Zm1.738 3.937a1.003 1.003 0 1 1-2.006 0 1.003 1.003 0 0 1 2.006 0Z" clip-rule="evenodd"/></svg>