<svg xmlns="http://www.w3.org/2000/svg" fill="none" viewBox="0 0 16 16" class="acv-icon"><g clip-path="url(#a)"><path fill="#2668C5" fill-rule="evenodd" d="M7.155.55A.945.945 0 0 1 8 0c.36.002.687.215.846.55l1.742 3.69c.138.29.402.492.71.539l3.895.591c.355.055.65.314.761.67.11.357.018.749-.238 1.01l-2.82 2.872a1.014 1.014 0 0 0-.27.872l.665 4.055a1.01 1.01 0 0 1-.374.963.912.912 0 0 1-.993.075L8.44 13.973a.907.907 0 0 0-.879 0l-3.484 1.914a.91.91 0 0 1-.993-.075 1.01 1.01 0 0 1-.374-.963l.665-4.056a1.011 1.011 0 0 0-.27-.871L.284 7.05a1.013 1.013 0 0 1-.239-1.01.958.958 0 0 1 .761-.67l3.896-.591a.946.946 0 0 0 .71-.54L7.154.55Z" clip-rule="evenodd"/></g><defs><clipPath id="a"><path fill="#fff" d="M0 0h16v16H0z"/></clipPath></defs></svg>