<svg xmlns="http://www.w3.org/2000/svg" fill="none" viewBox="0 0 32 32" class="acv-icon"><path fill="#2668C5" fill-rule="evenodd" d="M24 5.867c0-1.597-1.779-2.55-3.108-1.665L12.182 10H3a2 2 0 0 0-2 2v6a2 2 0 0 0 2 2h1.67l1.194 6.368A2 2 0 0 0 7.83 28h1.965a2 2 0 0 0 1.966-2.369L10.705 20h2.979l7.208 4.798C22.22 25.682 24 24.73 24 23.133V17c.264 0 .52-.26.708-.73.188-.47.292-1.11.292-1.77 0-.66-.104-1.3-.292-1.77S24.264 12 24 12V5.867Zm-10 11.94v-6.615l8-5.325v17.266l-8-5.325ZM3 12h9v6h-1.295a2 2 0 0 0-1.966 2.368L9.795 26H7.83L6.636 19.63A2 2 0 0 0 4.67 18H3v-6Z" clip-rule="evenodd"/><path fill="#2668C5" d="M27.384 7.076a1 1 0 0 0-.768 1.847c1.095.456 2.057 1.34 2.677 2.57v.001a6.748 6.748 0 0 1 .002 6.01c-.631 1.233-1.596 2.118-2.682 2.573a1 1 0 0 0 .774 1.845c1.552-.651 2.859-1.885 3.69-3.51v-.003a8.747 8.747 0 0 0 .001-7.818c-.821-1.629-2.131-2.864-3.694-3.515Z"/></svg>