<svg xmlns="http://www.w3.org/2000/svg" fill="none" viewBox="0 0 24 24" class="acv-icon"><g fill="#2668C5" clip-path="url(#a)"><path d="M8.99 12c0 1.4-.52 2.16-1.49 2.16S6.01 13.4 6.01 12c0-1.4.52-2.16 1.49-2.16s1.49.76 1.49 2.16Z"/><path fill-rule="evenodd" d="M1 19.713V4.287c0-.74.54-1.37 1.272-1.483l10-1.538A1.5 1.5 0 0 1 14 2.748v18.503a1.5 1.5 0 0 1-1.728 1.483l-10-1.538A1.5 1.5 0 0 1 1 19.713ZM11 12c0-2.6-1.546-4-3.5-4C5.532 8 4 9.4 4 12c0 2.585 1.532 4 3.5 4 1.954 0 3.5-1.4 3.5-4Z" clip-rule="evenodd"/><path d="m22 8.915-6.5 2.789v2.164L22 11.21V18h-6.5v2H23a1 1 0 0 0 1-1V5a1 1 0 0 0-1-1h-7.5v2H22v2.915Z"/></g><defs><clipPath id="a"><path fill="#fff" d="M0 0h24v24H0z"/></clipPath></defs></svg>