<svg xmlns="http://www.w3.org/2000/svg" fill="none" viewBox="0 0 16 16" class="acv-icon"><g fill="#2668C5" clip-path="url(#a)"><path fill-rule="evenodd" d="M7.859.01A1 1 0 0 1 9 1v14a1 1 0 0 1-1.141.99l-7-1A1 1 0 0 1 0 14V2a1 1 0 0 1 .859-.99l7-1ZM3.73 6.312H2V5h5v1.313H5.27V11H3.73V6.312Z" clip-rule="evenodd"/><path d="M10 13.98c1.048-.08 2.5-.468 2.5-1.98V8a1 1 0 0 0-1-1H10v6.98ZM10 5.937a2 2 0 0 0 0-3.874v3.874ZM13.5 6a1.5 1.5 0 1 0 0-3 1.5 1.5 0 0 0 0 3ZM13.226 12.985A2.5 2.5 0 0 0 16 10.5v-3a.5.5 0 0 0-.5-.5h-3a1 1 0 0 1 1 1v4c0 .403-.103.726-.274.985Z"/></g><defs><clipPath id="a"><path fill="#fff" d="M0 0h16v16H0z"/></clipPath></defs></svg>