<svg xmlns="http://www.w3.org/2000/svg" fill="none" viewBox="0 0 16 16" class="acv-icon"><g fill="#2668C5" clip-path="url(#a)"><path d="M9.007 4.566a2.616 2.616 0 0 0-1.59-.04l.001-.001a2.377 2.377 0 0 0-1.19.804 2.442 2.442 0 0 0-.185 2.762c.252.424.626.76 1.073.96-1.052.725-3.15 1-6.116-.538l.27-.182a2.875 2.875 0 0 0 1.14-1.387c.163-.352.351-.69.564-1.014a6.27 6.27 0 0 1-.394-.76 1.648 1.648 0 0 0-.38-.62 1.617 1.617 0 0 0-.606-.394l-.25-.12.21-.182a6.648 6.648 0 0 1 3.128-1.169A4.587 4.587 0 0 1 5.396.271L5.55 0l.162.271c.074.125.158.244.25.356.158.198.357.36.582.473.274.116.559.203.85.26.275.058.54.155.789.289.733.387 1.33.996 1.709 1.743a2.59 2.59 0 0 1 .118 1.916l-.057.178c-.02-.048-.04-.087-.062-.132l-.048-.099a1.922 1.922 0 0 0-.836-.689ZM7.346 11.95a2.64 2.64 0 0 0 1.577-.178l.005.001a2.393 2.393 0 0 0 1.069-.963 2.444 2.444 0 0 0-.19-2.76 2.379 2.379 0 0 0-1.19-.803c.946-.867 2.987-1.423 6.129-.307-.057.054-.246.218-.246.218-.465.395-.794.93-.94 1.528-.113.37-.255.732-.424 1.08.18.222.344.455.492.7.11.22.266.41.458.56.192.15.414.255.65.307l.264.089-.184.209a6.651 6.651 0 0 1-2.944 1.587 4.587 4.587 0 0 1-.385 2.49l-.118.293-.197-.245a2.824 2.824 0 0 0-.296-.316 1.758 1.758 0 0 0-.64-.387 4.547 4.547 0 0 0-.88-.142 2.848 2.848 0 0 1-.815-.178 4.037 4.037 0 0 1-1.924-1.494 2.575 2.575 0 0 1-.367-1.88s.027-.134.036-.187c.025.045.05.08.078.121.019.027.039.056.062.092.248.273.567.469.92.565Z"/></g><defs><clipPath id="a"><path fill="#fff" d="M0 0h16v16H0z"/></clipPath></defs></svg>