<svg xmlns="http://www.w3.org/2000/svg" fill="none" viewBox="0 0 24 24" class="acv-icon"><g fill="#2668C5" clip-path="url(#a)"><path d="M10 9.066c0-.56.448-1.013 1-1.013h4c.552 0 1 .453 1 1.013 0 .56-.448 1.013-1 1.013h-4c-.552 0-1-.454-1-1.013ZM10 12.105c0-.56.448-1.013 1-1.013h2c.552 0 1 .454 1 1.013 0 .56-.448 1.013-1 1.013h-2c-.552 0-1-.453-1-1.013Z"/><path fill-rule="evenodd" d="M13.16 17.169c.979-.02 1.91-.23 2.75-.593l2.423 1.116c.807.372 1.656-.425 1.354-1.268l-.811-2.258A6.278 6.278 0 0 0 20 10.586C20 6.947 16.866 4 13 4s-7 2.948-7 6.585c0 .133.004.266.012.397C4.791 11.813 4 13.142 4 14.638c0 .762.205 1.48.568 2.112l-.53 1.968c-.219.814.581 1.526 1.35 1.202l2.169-.916A5.45 5.45 0 0 0 9 19.197c1.734 0 3.262-.805 4.16-2.028ZM18 10.585c0 2.518-2.239 4.56-5 4.56s-5-2.042-5-4.56 2.239-4.559 5-4.559 5 2.041 5 4.56ZM6.558 13.166c.757 1.67 2.227 2.987 4.05 3.61A3.4 3.4 0 0 1 9 17.171a3.419 3.419 0 0 1-1.506-.342L6.8 16.36C6.304 15.91 6 15.303 6 14.638c0-.549.207-1.057.558-1.472Z" clip-rule="evenodd"/><path fill-rule="evenodd" d="M2 0a2 2 0 0 0-2 2v20a2 2 0 0 0 2 2h20a2 2 0 0 0 2-2V2a2 2 0 0 0-2-2H2Zm20 2H2v20h20V2Z" clip-rule="evenodd"/></g><defs><clipPath id="a"><path fill="#fff" d="M0 0h24v24H0z"/></clipPath></defs></svg>