<svg xmlns="http://www.w3.org/2000/svg" fill="none" viewBox="0 0 24 24" class="acv-icon"><path fill="#2668C5" d="M10.5 5a1 1 0 1 0 0 2 1 1 0 0 0 0-2ZM9.5 8.5a1 1 0 1 1 2 0 1 1 0 0 1-2 0ZM10.5 10a1 1 0 1 0 0 2 1 1 0 0 0 0-2ZM12.5 11a1 1 0 1 1 2 0 1 1 0 0 1-2 0ZM13.5 5a1 1 0 0 0-1 1v2.5a1 1 0 1 0 2 0V6a1 1 0 0 0-1-1ZM15.5 17.5a1 1 0 1 1 2 0 1 1 0 0 1-2 0ZM7.5 16.5a1 1 0 1 0 0 2h5a1 1 0 1 0 0-2h-5Z"/><path fill="#2668C5" fill-rule="evenodd" d="M6 13h.5V5a3 3 0 0 1 3-3h5a3 3 0 0 1 3 3v8h.5a3 3 0 0 1 3 3v3a3 3 0 0 1-3 3H6a3 3 0 0 1-3-3v-3a3 3 0 0 1 3-3Zm9.5 0V5a1 1 0 0 0-1-1h-5a1 1 0 0 0-1 1v8h7ZM6 15a1 1 0 0 0-1 1v3a1 1 0 0 0 1 1h12a1 1 0 0 0 1-1v-3a1 1 0 0 0-1-1H6Z" clip-rule="evenodd"/></svg>