<svg xmlns="http://www.w3.org/2000/svg" fill="none" viewBox="0 0 16 16" class="acv-icon"><g fill="#2668C5" clip-path="url(#a)"><path d="M1 6a1 1 0 0 0 1-1V2h12v12h-3a1 1 0 1 0 0 2h3a2 2 0 0 0 2-2V2a2 2 0 0 0-2-2H2a2 2 0 0 0-2 2v3a1 1 0 0 0 1 1Z"/><path fill-rule="evenodd" d="m10 7.414-3 3V15a1 1 0 0 1-1 1H1a1 1 0 0 1-1-1v-5a1 1 0 0 1 1-1h4.586l3-3H7a1 1 0 0 1 0-2h4a1 1 0 0 1 1 1v4a1 1 0 1 1-2 0V7.414ZM2 11v3h3v-3H2Z" clip-rule="evenodd"/></g><defs><clipPath id="a"><path fill="#fff" d="M0 0h16v16H0z"/></clipPath></defs></svg>