<svg xmlns="http://www.w3.org/2000/svg" fill="none" viewBox="0 0 16 16" class="acv-icon"><g clip-path="url(#a)"><path fill="#2668C5" fill-rule="evenodd" d="M3.636.5c-1.087 0-1.993.811-2.088 1.868l-1.04 10.91c-.106 1.194.867 2.222 2.095 2.222h10.794c1.229 0 2.201-1.028 2.095-2.223l-1.04-10.909C14.357 1.311 13.452.5 12.364.5H3.636ZM2.16 12.4a1 1 0 0 1 .995-.9h9.69a1 1 0 0 1 .995.9l.05.5a1 1 0 0 1-.995 1.1h-2.062l-.219-.658A.5.5 0 0 0 10.14 13H5.86a.5.5 0 0 0-.474.342l-.22.658H3.106a1 1 0 0 1-.995-1.1l.05-.5Z" clip-rule="evenodd"/></g><defs><clipPath id="a"><path fill="#fff" d="M0 0h16v16H0z"/></clipPath></defs></svg>