<svg xmlns="http://www.w3.org/2000/svg" fill="none" viewBox="0 0 16 16" class="acv-icon"><g fill="#2668C5" clip-path="url(#a)"><path d="M6 0a1 1 0 0 0 0 2h4a1 1 0 1 0 0-2H6Z"/><path fill-rule="evenodd" d="M12.087 16a1 1 0 0 0 .996-.91L14 5a1 1 0 1 0 0-2H2a1 1 0 0 0 0 2l.457 10.045a1 1 0 0 0 .999.955h8.63ZM6 6a.75.75 0 0 0-.75.75v5.5a.75.75 0 0 0 1.5 0v-5.5A.75.75 0 0 0 6 6Zm3.25.75a.75.75 0 0 1 1.5 0v5.5a.75.75 0 0 1-1.5 0v-5.5Z" clip-rule="evenodd"/></g><defs><clipPath id="a"><path fill="#fff" d="M0 0h16v16H0z"/></clipPath></defs></svg>