<svg xmlns="http://www.w3.org/2000/svg" fill="none" viewBox="0 0 24 24" class="acv-icon"><path fill="#2668C5" fill-rule="evenodd" d="M14.782 2.336 8.788 5H4a2 2 0 0 0-2 2v6a2 2 0 0 0 2 2v4a3 3 0 1 0 6 0v-1a1 1 0 1 0-2 0v1a1 1 0 1 1-2 0v-4h2.788l5.994 2.664c1.983.882 4.218-.57 4.218-2.742V13a3.5 3.5 0 1 0 0-7v-.922c0-2.171-2.235-3.624-4.218-2.742ZM17 5.078a1 1 0 0 0-1.406-.914L10 6.65v6.7l5.594 2.486A1 1 0 0 0 17 14.922V5.079ZM5 13h3V7H5a1 1 0 0 0-1 1v4a1 1 0 0 0 1 1Zm15.5-3.5A1.5 1.5 0 0 1 19 11V8a1.5 1.5 0 0 1 1.5 1.5Z" clip-rule="evenodd"/></svg>