<svg xmlns="http://www.w3.org/2000/svg" fill="none" viewBox="0 0 16 16" class="acv-icon"><g fill="#2668C5" clip-path="url(#a)"><path fill-rule="evenodd" d="M14.5 15h-.768a2 2 0 0 1-3.464 0H4.732a2 2 0 0 1-3.464 0H1a1 1 0 1 1 0-2h.268a2 2 0 0 1 3.464 0H7V2H1a1 1 0 0 1 0-2h6.5A1.5 1.5 0 0 1 9 1.5V3h3.662a1.5 1.5 0 0 1 1.392.943l1.839 4.596a1.5 1.5 0 0 1 .107.557V13.5a1.5 1.5 0 0 1-1.5 1.5Zm-.5-2h-.268a2 2 0 0 0-3.464 0H9v-3h5v3Zm-.477-5-1.2-3H9v3h4.523Z" clip-rule="evenodd"/><path d="M1 3h3a1 1 0 0 1 0 2H1a1 1 0 0 1 0-2ZM1 6h3a1 1 0 0 1 0 2H1a1 1 0 0 1 0-2ZM1 9h3a1 1 0 0 1 0 2H1a1 1 0 1 1 0-2Z"/></g><defs><clipPath id="a"><path fill="#fff" d="M0 0h16v16H0z"/></clipPath></defs></svg>