<svg xmlns="http://www.w3.org/2000/svg" fill="none" viewBox="0 0 16 16" class="acv-icon"><g clip-path="url(#a)"><circle cx="8" cy="8" r="8" fill="#408BEA"/><circle cx="8" cy="8" r="7.5" stroke="#243143" stroke-opacity=".1"/><path fill="#fff" fill-rule="evenodd" d="M8 3a2.5 2.5 0 0 0-2.5 2.5V7h-.75a.75.75 0 0 0-.75.75v4c0 .414.336.75.75.75h6.5a.75.75 0 0 0 .75-.75v-4a.75.75 0 0 0-.75-.75h-.75V5.5A2.5 2.5 0 0 0 8 3ZM7 7h2V5.5a1 1 0 1 0-2 0V7Zm1 1.5a1 1 0 0 0-1 1v.5a1 1 0 1 0 2 0v-.5a1 1 0 0 0-1-1Z" clip-rule="evenodd"/></g><defs><clipPath id="a"><path fill="#fff" d="M0 0h16v16H0z"/></clipPath></defs></svg>