<svg xmlns="http://www.w3.org/2000/svg" fill="none" viewBox="0 0 16 16" class="acv-icon"><g clip-path="url(#a)"><path fill="#2668C5" fill-rule="evenodd" d="M10.588 4.24 8.846.55A.946.946 0 0 0 8 0a.945.945 0 0 0-.845.55L5.412 4.24a.946.946 0 0 1-.709.539L.807 5.37a.958.958 0 0 0-.76.67c-.112.357-.02.749.238 1.01l2.82 2.872c.22.226.324.553.27.871L2.71 14.85c-.06.369.085.742.374.963a.91.91 0 0 0 .993.075l3.484-1.914a.907.907 0 0 1 .879 0l3.484 1.914c.317.175.7.145.993-.075a1.01 1.01 0 0 0 .374-.963l-.665-4.055c-.054-.32.049-.646.27-.873l2.82-2.871c.256-.261.349-.653.238-1.01a.959.959 0 0 0-.76-.67l-3.897-.591a.949.949 0 0 1-.71-.54Zm2.24 3.038a.25.25 0 0 0-.156-.434l-1.677-.088A2.949 2.949 0 0 1 8.782 5.1l-.003-.007-.545-1.464a.25.25 0 0 0-.468 0L7.22 5.096a2.946 2.946 0 0 1-2.215 1.66l-1.666.088a.25.25 0 0 0-.156.433l1.353 1.248c.666.683.97 1.65.812 2.596L4.82 12.91a.25.25 0 0 0 .382.276l1.403-.97a2.907 2.907 0 0 1 2.798.004l1.342.883a.25.25 0 0 0 .379-.275l-.47-1.704-.001-.003a3.014 3.014 0 0 1 .811-2.596l.005-.005 1.359-1.242Z" clip-rule="evenodd"/></g><defs><clipPath id="a"><path fill="#fff" d="M0 0h16v16H0z"/></clipPath></defs></svg>