<svg xmlns="http://www.w3.org/2000/svg" fill="none" viewBox="0 0 32 32" class="acv-icon"><path fill="#2668C5" d="M14.84 2.065a1 1 0 0 1 1.296-.566l7.63 2.996a2 2 0 0 1 1.2 1.344l4.741 17.697a2 2 0 0 1-1.412 2.449l-7.035 1.89a1 1 0 1 1-.52-1.93l7.036-1.891-4.741-17.698-7.63-2.995a1 1 0 0 1-.566-1.296ZM11 9a1 1 0 1 0 0-2 1 1 0 0 0 0 2ZM11 11a1 1 0 0 1 1 1v.382c1.208.269 2.392 1.027 2.759 2.46a1 1 0 1 1-1.938.496c-.16-.625-.935-1.127-2.001-1.068-.492.027-.897.18-1.149.385-.22.179-.35.413-.332.774.013.25.074.394.135.486a.929.929 0 0 0 .335.29c.389.22.928.339 1.685.506l.023.005c.666.147 1.554.344 2.247.813.373.253.71.597.94 1.063.228.463.32.987.295 1.559v-.002L14 20.11l1 .043v-.002c-.041 1.014-.595 1.769-1.32 2.234-.5.32-1.084.51-1.68.592v.413a1 1 0 1 1-2 0v-.524c-1.262-.313-2.5-1.107-2.954-2.557a1 1 0 0 1 1.908-.598c.24.762 1.165 1.312 2.33 1.314.548.001 1.015-.13 1.316-.324.276-.177.39-.38.4-.63v-.004c.014-.307-.038-.486-.09-.592a.742.742 0 0 0-.268-.29c-.324-.22-.822-.354-1.568-.519l-.144-.031c-.633-.139-1.446-.317-2.105-.69a2.916 2.916 0 0 1-1.022-.93c-.28-.426-.432-.924-.462-1.483v-.002c-.052-1.034.382-1.868 1.067-2.426A3.755 3.755 0 0 1 10 12.367V12a1 1 0 0 1 1-1Z"/><path fill="#2668C5" fill-rule="evenodd" d="M9.812 2.634a2 2 0 0 1 2.376 0l6 4.432A2 2 0 0 1 19 8.675V27a2 2 0 0 1-2 2H5a2 2 0 0 1-2-2V8.675a2 2 0 0 1 .812-1.61l6-4.43ZM11 4.244l-6 4.43V27h12V8.675l-6-4.432Z" clip-rule="evenodd"/></svg>