<svg xmlns="http://www.w3.org/2000/svg" fill="none" viewBox="0 0 24 24" class="acv-icon"><path fill="#2668C5" fill-rule="evenodd" d="M4 12a7.999 7.999 0 0 1 4.21-7.047l.63-3.15A1 1 0 0 1 9.82 1h4.36a1 1 0 0 1 .98.804l.63 3.15A8.005 8.005 0 0 1 19.939 11H20a1 1 0 1 1 0 2h-.062a8.005 8.005 0 0 1-4.147 6.047l-.63 3.15a1 1 0 0 1-.98.803H9.82a1 1 0 0 1-.98-.804l-.63-3.15A7.999 7.999 0 0 1 4 12Zm6.44 8 .2 1h2.72l.2-1h-3.12Zm7.477-9H15.5a1 1 0 0 0-.78.375l-.984 1.229-1.826-4.018a1 1 0 0 0-1.742-.14L8.465 11H6.083a6.002 6.002 0 0 1 11.834 0Zm0 2a6.002 6.002 0 0 1-11.834 0H9a1 1 0 0 0 .832-.445l1.002-1.503 1.756 3.862a1 1 0 0 0 1.69.21L15.98 13h1.937ZM13.56 4l-.2-1h-2.72l-.2 1h3.12Z" clip-rule="evenodd"/></svg>