<svg xmlns="http://www.w3.org/2000/svg" fill="none" viewBox="0 0 32 32" class="acv-icon"><path fill="#2668C5" fill-rule="evenodd" d="M19.54 27.325a23.774 23.774 0 0 0-.115-.325h-6.833c-.03.083-.066.187-.111.322-.14.41-.202.58-.291.778-.265.584-.51.9-1.166.9H6c-2.34 0-5-5.667-5-12C1 9.156 7.354 3 16 3s15 6.156 15 14c0 6.333-2.66 12-5 12h-5c-.652 0-.9-.316-1.166-.896a7.945 7.945 0 0 1-.295-.779ZM4.53 24.733c.374.796.786 1.445 1.173 1.883.154.175.294.303.41.384h4.363c.03-.083.065-.187.111-.322.14-.41.201-.58.291-.778.265-.584.51-.9 1.166-.9h7.925c.653 0 .901.316 1.167.896.09.198.154.369.294.779l.114.325s4.346-.004 4.353-.009c.106-.072.246-.2.4-.375.387-.438.799-1.087 1.173-1.883.738-1.573 1.25-3.518 1.444-5.733H28a1 1 0 1 1 0-2h1c0-6.424-4.969-11.526-12-11.969V6a1 1 0 1 1-2 0v-.969c-3.29.208-6.127 1.434-8.216 3.339l.923.923a1 1 0 0 1-1.414 1.414l-.868-.868C3.88 11.826 3 14.296 3 17h1a1 1 0 1 1 0 2h-.914c.193 2.215.706 4.16 1.444 5.733Zm18.177-12.026-4 4a3 3 0 1 1-1.414-1.414l4-4a1 1 0 0 1 1.414 1.414ZM17 18a1 1 0 1 1-2 0 1 1 0 0 1 2 0Z" clip-rule="evenodd"/></svg>