<svg xmlns="http://www.w3.org/2000/svg" fill="none" viewBox="0 0 32 32" class="acv-icon"><path fill="#2668C5" fill-rule="evenodd" d="M3 3a1 1 0 0 0-1 1v16a1 1 0 0 0 1 1h5v-2a1 1 0 1 1 0-2V9a1 1 0 0 1 1-1h5V4a1 1 0 0 0-1-1H3Zm1 3.5a.5.5 0 0 1 .5-.5h7a.5.5 0 0 1 0 1h-7a.5.5 0 0 1-.5-.5ZM29 21h-5v-2a1 1 0 1 0 0-2V9a1 1 0 0 0-1-1h-5V4a1 1 0 0 1 1-1h10a1 1 0 0 1 1 1v16a1 1 0 0 1-1 1ZM20 6.5a.5.5 0 0 1 .5-.5h7a.5.5 0 0 1 0 1h-7a.5.5 0 0 1-.5-.5Z" clip-rule="evenodd"/><path fill="#2668C5" fill-rule="evenodd" d="M10 11a1 1 0 0 1 1-1h10a1 1 0 0 1 1 1v17a1 1 0 0 1-1 1H11a1 1 0 0 1-1-1V11Zm7 15a1 1 0 1 1-2 0 1 1 0 0 1 2 0Zm-4.5-12a.5.5 0 0 0 0 1h7a.5.5 0 0 0 0-1h-7Zm-.5 2.5a.5.5 0 0 1 .5-.5h7a.5.5 0 0 1 0 1h-7a.5.5 0 0 1-.5-.5Z" clip-rule="evenodd"/></svg>