<svg xmlns="http://www.w3.org/2000/svg" fill="none" viewBox="0 0 24 24" class="acv-icon"><path fill="#2668C5" d="M10.41 2.967c0 .273.222.493.494.506 5.2.25 9.373 4.422 9.622 9.622a.513.513 0 0 0 .506.494h1.483a.48.48 0 0 0 .484-.494C22.746 6.53 17.469 1.254 10.905 1a.48.48 0 0 0-.495.485v1.482Z"/><path fill="#2668C5" d="M10.41 7.908c0 .272.222.491.494.517a5.19 5.19 0 0 1 4.67 4.67.533.533 0 0 0 .518.494h1.482a.47.47 0 0 0 .478-.494 7.659 7.659 0 0 0-7.148-7.148.47.47 0 0 0-.494.478v1.483ZM3 15.867c0 3.642 2.152 5.867 5.542 5.867 2.152 0 4.072-1.07 4.744-2.603.136-.304.2-.556.2-.797 0-.756-.578-1.228-1.292-1.228-.65 0-.986.262-1.396.902-.472.798-1.227.992-2.298.992-1.532 0-3-.918-3-3.133 0-2.173 1.488-3.18 3.042-3.18.976 0 1.732.168 2.288 1.155.315.556.682.797 1.29.797.725 0 1.313-.44 1.313-1.196 0-.22-.063-.494-.168-.756C12.656 11.092 10.777 10 8.521 10 5.14 10 3 12.267 3 15.867Z"/></svg>