<svg xmlns="http://www.w3.org/2000/svg" fill="none" viewBox="0 0 32 32" class="acv-icon"><path fill="#2668C5" d="M14 7a1 1 0 1 0 0 2h4a1 1 0 1 0 0-2h-4ZM13 12a1 1 0 0 1 1-1h4a1 1 0 1 1 0 2h-4a1 1 0 0 1-1-1ZM14 15a1 1 0 1 0 0 2h4a1 1 0 1 0 0-2h-4ZM13 20a1 1 0 0 1 1-1h4a1 1 0 1 1 0 2h-4a1 1 0 0 1-1-1Z"/><path fill="#2668C5" fill-rule="evenodd" d="M30 31a1 1 0 1 0 0-2h-1V15a2 2 0 0 0-2-2h-3V4a2 2 0 0 0-2-2H10a2 2 0 0 0-2 2v5.306c-.093 0-.188.007-.283.02l-3 .429A2 2 0 0 0 3 11.735V29H2a1 1 0 1 0 0 2h28ZM22 4H10v25h3v-2a3 3 0 1 1 6 0v2h3V4Zm-5 25v-2a1 1 0 1 0-2 0v2h2ZM5 11.735l3-.429V29H5V11.735ZM24 15v14h3V15h-3Z" clip-rule="evenodd"/></svg>