<svg xmlns="http://www.w3.org/2000/svg" fill="none" viewBox="0 0 24 24" class="acv-icon"><path fill="#2668C5" d="M12 2a9.985 9.985 0 0 1 8 4H4a9.985 9.985 0 0 1 8-4ZM9.218 10.729v1.117h.36c.241 0 .405-.017.491-.05a.44.44 0 0 0 .215-.183.61.61 0 0 0 .083-.328.6.6 0 0 0-.086-.33.424.424 0 0 0-.212-.18c-.084-.03-.262-.046-.534-.046h-.317ZM15.236 11.728h.483c.296 0 .484-.012.564-.038a.366.366 0 0 0 .197-.158.58.58 0 0 0 .075-.314.535.535 0 0 0-.075-.301.382.382 0 0 0-.205-.159c-.06-.02-.237-.029-.529-.029h-.51v.999Z"/><path fill="#2668C5" fill-rule="evenodd" d="M24 9a2 2 0 0 0-2-2H2a2 2 0 0 0-2 2v6a2 2 0 0 0 2 2h20a2 2 0 0 0 2-2V9ZM2.308 14v-3.937h.65v1.55h1.278v-1.55h.653V14h-.653v-1.721H2.958V14h-.65Zm4.1 0v-1.657l-1.181-2.28h.763l.76 1.558.746-1.558h.75l-1.187 2.285V14h-.65Zm2.16 0v-3.937h1.047c.39 0 .646.019.766.056.191.061.349.191.472.39.126.198.188.454.188.768 0 .285-.053.524-.16.717a.945.945 0 0 1-.404.405c-.16.077-.438.116-.832.116h-.427V14h-.65Zm3.01 0v-3.937h2.396v.666h-1.746v.873h1.622v.663h-1.622v1.072h1.805V14h-2.455Zm3.008 0v-3.937h1.373c.35 0 .601.036.751.107.15.07.274.193.371.368.097.174.145.383.145.626 0 .308-.074.556-.223.744-.147.188-.356.306-.628.354.14.1.255.21.346.33.091.119.216.332.373.64l.393.768h-.777l-.472-.857a5.5 5.5 0 0 0-.347-.58.496.496 0 0 0-.193-.16.86.86 0 0 0-.328-.047h-.134V14h-.65Zm3.067-1.05v-.755h1.217v.755h-1.217ZM20.167 14l-1.152-3.937h.706l.816 2.914.79-2.914h.693L20.865 14h-.698Z" clip-rule="evenodd"/><path fill="#2668C5" d="M4 18a9.985 9.985 0 0 0 8 4 9.985 9.985 0 0 0 8-4H4Z"/></svg>