<svg xmlns="http://www.w3.org/2000/svg" fill="none" viewBox="0 0 24 24" class="acv-icon"><path fill="#2668C5" d="M12 1c3.74 0 6.975 2.419 7.965 5.831C21.797 7.732 23 9.567 23 11.625c0 2.28-1.494 4.287-3.668 5.053a1 1 0 1 1-.664-1.887c1.39-.49 2.332-1.754 2.332-3.166 0-1.39-.893-2.63-2.237-3.138a1 1 0 0 1-.623-.722C17.539 5.015 14.99 3 12 3 9.29 3 6.919 4.658 6.061 7.063a1 1 0 0 1-.578.595C3.99 8.243 3 9.631 3 11.188c0 1.52.945 2.884 2.389 3.49a1 1 0 0 1-.775 1.844C2.442 15.61 1 13.53 1 11.188c0-2.245 1.324-4.245 3.338-5.211C5.594 2.999 8.603 1 12 1Zm-1.732 19a2.01 2.01 0 0 1 .732-.732V17a1 1 0 1 1 2 0v2.268c.304.175.557.428.732.732H16a1 1 0 1 1 0 2h-2.268a2 2 0 0 1-3.464 0H8a1 1 0 1 1 0-2h2.268ZM17 10.5v2a.5.5 0 0 1-.5.5h-9a.5.5 0 0 1-.5-.5v-2a.5.5 0 0 1 .5-.5h9a.5.5 0 0 1 .5.5ZM15.5 12a.5.5 0 1 0 0-1 .5.5 0 0 0 0 1Zm-2 0a.5.5 0 1 0 0-1 .5.5 0 0 0 0 1Zm-5 0a.5.5 0 1 0 0-1 .5.5 0 0 0 0 1Zm8.5 2.5v2a.5.5 0 0 1-.5.5h-9a.5.5 0 0 1-.5-.5v-2a.5.5 0 0 1 .5-.5h9a.5.5 0 0 1 .5.5ZM15.5 16a.5.5 0 1 0 0-1 .5.5 0 0 0 0 1Zm-2 0a.5.5 0 1 0 0-1 .5.5 0 0 0 0 1Zm-2 0a.5.5 0 1 0 0-1 .5.5 0 0 0 0 1Zm-3 0a.5.5 0 1 0 0-1 .5.5 0 0 0 0 1Z"/></svg>