<svg xmlns="http://www.w3.org/2000/svg" fill="none" viewBox="0 0 24 24" class="acv-icon"><path fill="#2668C5" fill-rule="evenodd" d="M8 9a1 1 0 0 1 1-1h6a1 1 0 0 1 1 1v6a1 1 0 0 1-1 1H9a1 1 0 0 1-1-1V9Zm2 1v4h4v-4h-4Z" clip-rule="evenodd"/><path fill="#2668C5" fill-rule="evenodd" d="M3 16v-3H2a1 1 0 1 1 0-2h1V8H2a1 1 0 0 1 0-2h1V4a1 1 0 0 1 1-1h2V2a1 1 0 0 1 2 0v1h3V2a1 1 0 1 1 2 0v1h3V2a1 1 0 1 1 2 0v1h2a1 1 0 0 1 1 1v2h1a1 1 0 1 1 0 2h-1v3h1a1 1 0 1 1 0 2h-1v3h1a1 1 0 1 1 0 2h-1v2a1 1 0 0 1-1 1h-2v1a1 1 0 1 1-2 0v-1h-3v1a1 1 0 1 1-2 0v-1H8v1a1 1 0 1 1-2 0v-1H4a1 1 0 0 1-1-1v-2H2a1 1 0 1 1 0-2h1ZM5 5v14h14V5H5Z" clip-rule="evenodd"/></svg>