<svg xmlns="http://www.w3.org/2000/svg" fill="none" viewBox="0 0 32 32" class="acv-icon"><path fill="#2668C5" fill-rule="evenodd" d="M4.5 3A1.5 1.5 0 0 0 3 4.5v3A1.5 1.5 0 0 0 4.5 9h23A1.5 1.5 0 0 0 29 7.5v-3A1.5 1.5 0 0 0 27.5 3h-23ZM26 7a1 1 0 1 0 0-2 1 1 0 0 0 0 2ZM3 20.5A1.5 1.5 0 0 1 4.5 19h23a1.5 1.5 0 0 1 1.5 1.5v3a1.5 1.5 0 0 1-1.5 1.5H17v2h11a1 1 0 1 1 0 2H4a1 1 0 1 1 0-2h11v-2H4.5A1.5 1.5 0 0 1 3 23.5v-3ZM26 23a1 1 0 1 0 0-2 1 1 0 0 0 0 2ZM3 12.5A1.5 1.5 0 0 1 4.5 11h23a1.5 1.5 0 0 1 1.5 1.5v3a1.5 1.5 0 0 1-1.5 1.5h-23A1.5 1.5 0 0 1 3 15.5v-3ZM26 15a1 1 0 1 0 0-2 1 1 0 0 0 0 2Z" clip-rule="evenodd"/></svg>