<svg xmlns="http://www.w3.org/2000/svg" fill="none" viewBox="0 0 16 16" class="acv-icon"><path fill="#2668C5" d="M12.265 9.569a8.2 8.2 0 0 0 .885-.493l.321.15a1 1 0 0 0 1.329-.484l.012-.025a1 1 0 0 0-.092-1.004l.045-.054a1.02 1.02 0 0 0-.128-1.425.992.992 0 0 0-1.409.13c-1.055 1.283-3.02 2.113-5.231 2.113-2.202 0-4.175-.823-5.233-2.09a.992.992 0 0 0-1.41-.12 1.02 1.02 0 0 0-.086 1.464 1 1 0 0 0-.08.986l.012.025a1 1 0 0 0 1.329.484l.308-.144c.283.18.582.345.894.494l-.09.139a1 1 0 0 0 .294 1.383l.023.015a1 1 0 0 0 1.384-.294l.369-.568c.414.092.84.16 1.275.201V11a1 1 0 0 0 1 1h.028a1 1 0 0 0 1-1v-.548c.435-.042.86-.11 1.274-.203l.37.57a1 1 0 0 0 1.384.294l.023-.015a1 1 0 0 0 .294-1.383l-.094-.146Z"/></svg>