<svg xmlns="http://www.w3.org/2000/svg" fill="none" viewBox="0 0 24 24" class="acv-icon"><path stroke="#141414" stroke-linecap="round" stroke-linejoin="round" stroke-width="1.5" d="M17.25 4.75H6.75a2 2 0 0 0-2 2v10.5a2 2 0 0 0 2 2h10.5a2 2 0 0 0 2-2V6.75a2 2 0 0 0-2-2Z"/><path stroke="#141414" stroke-linecap="round" stroke-linejoin="round" stroke-width="1.5" d="m4.75 16 2.746-3.493a2 2 0 0 1 3.09-.068L13 15.25"/><path stroke="#141414" stroke-linecap="round" stroke-linejoin="round" stroke-width="1.5" d="M10.915 12.823a625.695 625.695 0 0 0 2.576-3.31l.01-.013a2 2 0 0 1 3.085-.06L19 12.25"/></svg>