<svg xmlns="http://www.w3.org/2000/svg" fill="none" viewBox="0 0 24 24" class="acv-icon"><path fill="#2668C5" d="M4 6a1 1 0 1 0 2 0 1 1 0 0 0-2 0ZM16 7a1 1 0 1 1 0-2 1 1 0 0 1 0 2ZM18 6a1 1 0 1 0 2 0 1 1 0 0 0-2 0Z"/><path fill="#2668C5" fill-rule="evenodd" d="M1.992 2A1 1 0 0 0 1 2.992v18.016a1 1 0 0 0 .992.992H14v-2H3v-4h12.256a4.508 4.508 0 0 1 1.415-2H3v-4h18v3.256c.792.28 1.482.775 2 1.415V2.991A1 1 0 0 0 22.008 2H1.992ZM21 8H3V4h18v4Z" clip-rule="evenodd"/><path fill="#2668C5" d="M5 13a1 1 0 1 1 0-2 1 1 0 0 1 0 2ZM12 12a1 1 0 1 0 2 0 1 1 0 0 0-2 0ZM15 12a1 1 0 1 0 2 0 1 1 0 0 0-2 0ZM19 13a1 1 0 1 1 0-2 1 1 0 0 1 0 2ZM4 18a1 1 0 1 0 2 0 1 1 0 0 0-2 0Z"/><path fill="#2668C5" fill-rule="evenodd" d="M17 17.5a2.5 2.5 0 0 1 5 0v1a1 1 0 0 1 1 1v3a1 1 0 0 1-1 1h-5a1 1 0 0 1-1-1v-3a1 1 0 0 1 1-1v-1Zm3.5 0a1 1 0 1 0-2 0v1h2v-1Z" clip-rule="evenodd"/></svg>