<svg xmlns="http://www.w3.org/2000/svg" fill="none" viewBox="0 0 16 16" class="acv-icon"><g fill="#2668C5" clip-path="url(#a)"><path fill-rule="evenodd" d="M15 8.416V2a1 1 0 0 0-1-1H2a1 1 0 0 0-1 1v9a1 1 0 0 0 1 1h5v1H6a1 1 0 1 0 0 2h2.416A4.983 4.983 0 0 1 8 13c0-1.126.372-2.164 1-3H3V9h7c.835-.628 1.874-1 3-1 .711 0 1.387.148 2 .416ZM3 3h10v4H3V3Z" clip-rule="evenodd"/><path d="M15.632 11.945a.435.435 0 0 1 .246.734l-1.146 1.18.265 1.635a.432.432 0 0 1-.637.451L13 15.19l-1.36.756a.433.433 0 0 1-.638-.451l.266-1.636-1.145-1.179a.438.438 0 0 1 .245-.735l1.562-.24.678-1.454a.433.433 0 0 1 .785 0l.677 1.456 1.562.239Z"/></g><defs><clipPath id="a"><path fill="#fff" d="M0 0h16v16H0z"/></clipPath></defs></svg>