<svg xmlns="http://www.w3.org/2000/svg" fill="none" viewBox="0 0 16 16" class="acv-icon"><g fill="#2668C5" clip-path="url(#a)"><path d="M13 13a1 1 0 0 0-1 1H2V2h10v3a1 1 0 1 0 2 0V1a1 1 0 0 0-1-1H1a1 1 0 0 0-1 1v14a1 1 0 0 0 1 1h12a1 1 0 0 0 1-1v-1a1 1 0 0 0-1-1Z"/><path fill-rule="evenodd" d="M15.892 10.392a.71.71 0 0 1-.23.98c-1.068.663-1.921.343-2.573-.539-.46 1.222-1.303 1.307-2.037.351-.483.579-.942.857-1.462.811-.48-.042-.88-.352-1.256-.977-.381.342-.808.64-1.28.894a.715.715 0 0 1-.968-.288.71.71 0 0 1 .29-.965 5.029 5.029 0 0 0 1.329-1.022 29.07 29.07 0 0 1-.675-2.145c-.437-1.558.188-3.172 1.301-3.805 1.46-.828 2.54.418 2.277 2.55-.176 1.425-.598 2.636-1.265 3.622l.07.146c.114.231.219.4.307.508l.021-.02.053-.051c.197-.194.44-.52.72-.974a.715.715 0 0 1 1.27.104c.036.089.071.172.106.249l.005-.03c.062-.331.122-.566.199-.743.155-.36.418-.62.878-.566.328.04.497.2.667.46.054.083.191.34.3.543.06.114.112.21.133.248.328.561.485.648.837.43a.716.716 0 0 1 .983.229ZM9.19 6.063c.08-.654.02-1.056-.08-1.193-.001-.003-.004-.006-.007-.008L9.1 4.857a.205.205 0 0 1 .01.013c.001.009-.012.022-.07.055-.533.302-.897 1.243-.633 2.184.096.345.19.665.282.96.242-.589.41-1.257.502-2.006Z" clip-rule="evenodd"/></g><defs><clipPath id="a"><path fill="#fff" d="M0 0h16v16H0z"/></clipPath></defs></svg>