<svg xmlns="http://www.w3.org/2000/svg" fill="none" viewBox="0 0 24 24" class="acv-icon"><path fill="#2668C5" fill-rule="evenodd" d="M2 1a1 1 0 0 1 1-1h13.793a1.5 1.5 0 0 1 1.06.44l3.708 3.706A1.5 1.5 0 0 1 22 5.207v4.586a1.5 1.5 0 0 1-.44 1.06l-2.5 2.5a1.5 1.5 0 0 1-2.12 0L15 11.415l-1.94 1.94a1.5 1.5 0 0 1-2.12 0L9 11.414l-1.94 1.94a1.5 1.5 0 0 1-2.12 0l-2.5-2.5A1.5 1.5 0 0 1 2 9.793V1Zm2 1v7.586l2 2 1.94-1.94a1.5 1.5 0 0 1 2.12 0l1.94 1.94 1.94-1.94a1.5 1.5 0 0 1 2.12 0l1.94 1.94 2-2V7h-3.5A1.5 1.5 0 0 1 15 5.5V2H4Zm13 .414V5h2.586L17 2.414ZM7.94 14.646a1.5 1.5 0 0 1 2.12 0l1.94 1.94 1.94-1.94a1.5 1.5 0 0 1 2.12 0l1.94 1.94 2.037-2.037c.724-.724 1.963-.211 1.963.813V24H2v-8.638c0-1.024 1.239-1.537 1.963-.813L6 16.586l1.94-1.94ZM15 16.414l-1.94 1.94a1.5 1.5 0 0 1-2.12 0L9 16.413l-1.94 1.94a1.5 1.5 0 0 1-2.12 0l-.94-.94V22h16v-4.586l-.94.94a1.5 1.5 0 0 1-2.12 0L15 16.413Z" clip-rule="evenodd"/></svg>