<svg xmlns="http://www.w3.org/2000/svg" fill="none" viewBox="0 0 32 32" class="acv-icon"><path fill="#2668C5" d="m14.594 6.154-1.407-1.406a5.967 5.967 0 0 0-8.44 8.439l1.407 1.407 1.407-1.407-1.407-1.407a3.978 3.978 0 1 1 5.626-5.626l1.407 1.407 1.407-1.407ZM18.813 24.44l-1.406 1.406 1.406 1.406a5.967 5.967 0 0 0 8.44-8.439l-1.407-1.406-1.407 1.406 1.407 1.407a3.978 3.978 0 0 1-5.626 5.626l-1.407-1.407Z"/><path fill="#2668C5" fill-rule="evenodd" d="M27.252 4.748a5.967 5.967 0 0 0-8.439 0L4.748 18.813a5.967 5.967 0 0 0 8.439 8.44l14.065-14.066a5.967 5.967 0 0 0 0-8.44ZM10.374 16 16 10.374 21.626 16 16 21.626 10.374 16Zm15.472-9.846a3.978 3.978 0 0 1 0 5.626l-2.813 2.814-5.627-5.627 2.814-2.813a3.978 3.978 0 0 1 5.626 0ZM8.967 17.407l5.627 5.626-2.814 2.813a3.978 3.978 0 1 1-5.626-5.626l2.813-2.813Z" clip-rule="evenodd"/></svg>