<svg xmlns="http://www.w3.org/2000/svg" fill="none" viewBox="0 0 24 24" class="acv-icon"><path stroke="#141414" stroke-linecap="round" stroke-linejoin="round" stroke-width="1.5" d="M17.25 19.25H6.75a2 2 0 0 1-2-2V6.75a2 2 0 0 1 2-2h10.5a2 2 0 0 1 2 2v10.5a2 2 0 0 1-2 2Z"/><path stroke="#141414" stroke-linecap="round" stroke-linejoin="round" stroke-width="1.5" d="M8.75 10.375V9.75a1 1 0 0 1 1-1h.625M8.75 13.625v.625a1 1 0 0 0 1 1h.625m4.875-1.625v.625a1 1 0 0 1-1 1h-.625m1.625-4.875V9.75a1 1 0 0 0-1-1h-.625"/></svg>