<svg xmlns="http://www.w3.org/2000/svg" fill="none" viewBox="0 0 32 32" class="acv-icon"><path fill="#2668C5" d="M17 3a1 1 0 1 0-2 0v7.5h-2.87a.5.5 0 0 0-.37.836l3.87 4.257a.5.5 0 0 0 .74 0l3.87-4.257a.5.5 0 0 0-.37-.836H17V3ZM13 23a1 1 0 1 0 0 2h6a1 1 0 1 0 0-2h-6Z"/><path fill="#2668C5" fill-rule="evenodd" d="M7.838 6.042A2 2 0 0 1 9.594 5H11a1 1 0 1 1 0 2H9.594l-4.91 9h4.78a2 2 0 0 1 1.665.89L12.535 19h6.93l1.406-2.11a2 2 0 0 1 1.664-.89h4.78l-4.909-9H21a1 1 0 1 1 0-2h1.406a2 2 0 0 1 1.756 1.042l5.35 9.808A4 4 0 0 1 30 17.765V27a2 2 0 0 1-2 2H4a2 2 0 0 1-2-2v-9.235a4 4 0 0 1 .488-1.915l5.35-9.808ZM4 27v-9h5.465l1.406 2.11a2 2 0 0 0 1.664.89h6.93a2 2 0 0 0 1.664-.89L22.535 18H28v9H4Z" clip-rule="evenodd"/></svg>