<svg xmlns="http://www.w3.org/2000/svg" fill="none" viewBox="0 0 24 24" class="acv-icon"><path fill="#2668C5" fill-rule="evenodd" d="M13 10c0 .35.06.687.17 1h-2.34A3 3 0 1 0 8 13h8a3 3 0 1 0-3-3Zm4 0a1 1 0 1 1-2 0 1 1 0 0 1 2 0Zm-9 1a1 1 0 1 0 0-2 1 1 0 0 0 0 2Z" clip-rule="evenodd"/><path fill="#2668C5" fill-rule="evenodd" d="M11 17H4a2 2 0 0 1-2-2V5a2 2 0 0 1 2-2h16a2 2 0 0 1 2 2v10a2 2 0 0 1-2 2h-7v1.268c.304.175.557.428.732.732H19a1 1 0 1 1 0 2h-5.268a2 2 0 0 1-3.464 0H5a1 1 0 1 1 0-2h5.268a2.01 2.01 0 0 1 .732-.732V17ZM4 5v10h16V5H4Z" clip-rule="evenodd"/></svg>