<svg width="16" height="16" fill="none" viewBox="0 0 16 16" xmlns="http://www.w3.org/2000/svg">
  <path fill="#FFA310" fill-rule="evenodd" d="M7.24 2.028c.328-.696 1.186-.712 1.521 0l6.125 10.845c.329.698-.091 1.627-.761 1.627H1.876c-.655 0-1.097-.913-.76-1.627L7.24 2.028Z" clip-rule="evenodd"/>
  <path fill="#fff" d="M8 5a1 1 0 0 0-1 1v3a1 1 0 1 0 2 0V6a1 1 0 0 0-1-1Zm0 8a1 1 0 1 0 0-2 1 1 0 0 0 0 2Z"/>
  <path fill="#fff" fill-rule="evenodd" d="M1.116 12.873 7.24 2.028c.328-.696 1.186-.712 1.521 0l6.125 10.845c.329.698-.091 1.627-.761 1.627H1.876c-.655 0-1.097-.913-.76-1.627Zm8.532-11.31 6.127 10.85.015.034a2.293 2.293 0 0 1-.002 1.92c-.253.548-.816 1.133-1.663 1.133H1.876c-.835 0-1.399-.575-1.656-1.118a2.282 2.282 0 0 1-.01-1.935l.017-.034 6.127-10.85C6.674.92 7.29.505 7.99.5 8.7.495 9.323.91 9.648 1.564Z" clip-rule="evenodd"/>
</svg>
