<svg width="32" height="32" fill="none" viewBox="0 0 32 32" xmlns="http://www.w3.org/2000/svg">
  <path fill="#7CB342" d="M22.693 7.765c.074.563.115 1.136.115 1.719 0 7.324-5.953 13.261-13.298 13.261-.585 0-1.159-.041-1.724-.115.524.971 1.793 3.004 4.27 4.494.558.336 2.497 1.477 4.787 1.596 5.74.298 11.841-5.923 11.966-11.967.017-.817.033-3.236-1.596-5.584-1.546-2.232-3.686-3.11-4.52-3.404Z"/>
  <path fill="#29B6F6" d="M5.403 15.955C5.403 10.12 10.148 5.388 16 5.388c2.926 0 5.576 1.183 7.493 3.095l3.82-3.81A15.972 15.972 0 0 0 16 0C7.163 0 0 7.143 0 15.955c0 4.406 1.791 8.395 4.686 11.282l3.82-3.81a10.52 10.52 0 0 1-3.103-7.472Z"/>
  <path fill="#244B71" d="M27.314 4.673a2.706 2.706 0 0 0-3.82 0 2.688 2.688 0 0 0 0 3.81 10.518 10.518 0 0 1 3.103 7.472c0 5.836-4.745 10.567-10.597 10.567a10.577 10.577 0 0 1-7.493-3.095 2.706 2.706 0 0 0-3.82 0 2.688 2.688 0 0 0 0 3.81A15.972 15.972 0 0 0 16 31.91c8.837 0 16-7.143 16-15.955 0-4.406-1.791-8.395-4.686-11.282Z"/>
</svg>
