<svg width="32" height="32" fill="none" viewBox="0 0 32 32" xmlns="http://www.w3.org/2000/svg">
  <circle cx="16" cy="16" r="16" fill="#2071C5"/>
  <path fill="#fff" d="M17 16a1 1 0 1 1-2 0 1 1 0 0 1 2 0Z"/>
  <path fill="#fff" d="M17.5 16a1.5 1.5 0 1 1-3 0 1.5 1.5 0 0 1 3 0ZM16 17a1 1 0 1 0 0-2 1 1 0 0 0 0 2Z"/>
  <path fill="#fff" d="M15.75 11.4a4.35 4.35 0 1 0 4.35 4.35 1.4 1.4 0 1 1 2.8 0 7.15 7.15 0 1 1-7.15-7.15 1.4 1.4 0 1 1 0 2.8Z"/>
  <path fill="#fff" d="M16 6.4a9.6 9.6 0 1 0 9.6 9.6 1.4 1.4 0 1 1 2.8 0c0 6.848-5.552 12.4-12.4 12.4-6.848 0-12.4-5.552-12.4-12.4C3.6 9.152 9.152 3.6 16 3.6a1.4 1.4 0 1 1 0 2.8Z"/>
</svg>
