<svg width="32" height="32" fill="none" viewBox="0 0 32 32" xmlns="http://www.w3.org/2000/svg">
  <circle cx="16" cy="16" r="13" fill="#408BEA"/>
  <circle cx="16" cy="16" r="12.5" stroke="#243143" stroke-opacity=".1"/>
  <path fill="#fff" fill-rule="evenodd" d="M21.25 14c0 .41-.053.807-.153 1.184A3.306 3.306 0 0 1 23 18.2c0 1.823-1.436 3.3-3.208 3.3h-8.167C10.175 21.5 9 20.291 9 18.8c0-1.002.53-1.876 1.318-2.342a3.075 3.075 0 0 1-.151-.958c0-1.538 1.125-2.806 2.575-2.98.595-1.758 2.22-3.02 4.133-3.02 2.416 0 4.375 2.015 4.375 4.5Z" clip-rule="evenodd"/>
</svg>
