<svg width="72" height="72" fill="none" viewBox="0 0 72 72" xmlns="http://www.w3.org/2000/svg">
  <ellipse cx="36" cy="35.993" fill="url(#connect-branded-ill--72_svg__a)" rx="36" ry="35.993" transform="matrix(-1 0 0 1 72 0)"/>
  <path fill="#fff" d="M34.378 23.996 24 47.616h3.31l2.033-4.768h12.939l2.034 4.769h3.309l-10.378-23.62h-2.869Zm1.369 4.033h.138l.156.432 2.942 6.878h-6.34l2.95-6.878.154-.432Zm-5.24 12.169.97-2.208h8.67l.97 2.208h-10.61Z"/>
  <path fill="#408BEA" fill-rule="evenodd" d="M72 35.974C72 16.077 55.882-.053 36-.053S0 16.077 0 35.973C0 55.87 16.118 72 36 72s36-16.13 36-36.026ZM36 5.61c16.757 0 30.341 13.594 30.341 30.364 0 16.769-13.584 30.363-30.341 30.363S5.659 52.743 5.659 35.973C5.659 19.205 19.243 5.61 36 5.61Z" clip-rule="evenodd"/>
  <defs>
    <linearGradient id="connect-branded-ill--72_svg__a" x1="0" x2="86.682" y1="71.987" y2="40.776" gradientUnits="userSpaceOnUse">
      <stop stop-color="#011345"/>
      <stop offset="1" stop-color="#3B65BF"/>
    </linearGradient>
  </defs>
</svg>
