<svg width="32" height="32" fill="none" viewBox="0 0 32 32" xmlns="http://www.w3.org/2000/svg">
  <circle cx="16" cy="16" r="16" fill="#CADEF9"/>
  <path fill="#1F56A2" fill-rule="evenodd" d="M14 10.502c0-1.198 1.335-1.912 2.332-1.248l4.54 3.027a1.5 1.5 0 0 1-.103 2.56l-2.21 1.227 2.21 1.228a1.5 1.5 0 0 1 .104 2.56l-4.54 3.026c-.998.665-2.333-.05-2.333-1.248v-3.033l-1.514.841a1 1 0 1 1-.972-1.748L14 16.314v-.49l-2.486-1.382a1 1 0 0 1 .972-1.748l1.514.841v-3.033Zm2.5 4.422-.5-.277v-3.21l3.08 2.054-2.58 1.433Zm0 2.288-.5.278v3.21l3.08-2.054-2.58-1.434Z" clip-rule="evenodd"/>
</svg>
