<svg width="96" height="96" fill="none" viewBox="0 0 96 96" xmlns="http://www.w3.org/2000/svg">
  <path fill="#434C59" fill-rule="evenodd" d="M12 20.25A2.25 2.25 0 0 1 14.25 18h67.5A2.25 2.25 0 0 1 84 20.25v47.5A2.25 2.25 0 0 1 81.75 70H57v4h6a1 1 0 0 1 1 1v2a1 1 0 0 1-1 1H33a1 1 0 0 1-1-1v-2a1 1 0 0 1 1-1h6v-4H14.25A2.25 2.25 0 0 1 12 67.75v-47.5ZM42 70h12v1a1 1 0 0 1-1 1H43a1 1 0 0 1-1-1v-1Z" clip-rule="evenodd"/>
  <path fill="#A1A8B2" d="M14.25 18A2.25 2.25 0 0 0 12 20.25v1A2.25 2.25 0 0 1 14.25 19h67.5A2.25 2.25 0 0 1 84 21.25v-1A2.25 2.25 0 0 0 81.75 18h-67.5Z" opacity=".2"/>
  <path fill="#303640" d="M12 66.75v1A2.25 2.25 0 0 0 14.25 70h67.5A2.25 2.25 0 0 0 84 67.75v-1A2.25 2.25 0 0 1 81.75 69h-67.5A2.25 2.25 0 0 1 12 66.75ZM32 76v1a1 1 0 0 0 1 1h30a1 1 0 0 0 1-1v-1a1 1 0 0 1-1 1H33a1 1 0 0 1-1-1Z"/>
  <path fill="#6C7480" d="M33 74a1 1 0 0 0-1 1v1a1 1 0 0 1 1-1h30a1 1 0 0 1 1 1v-1a1 1 0 0 0-1-1H33Z"/>
  <path fill="url(#desktop-windows-enabled-ill--96_svg__a)" fill-opacity=".2" d="M15 63h66v2H15v-2Z"/>
  <path fill="#fff" fill-opacity=".1" d="M15 63h66v1H15v-1Z"/>
  <path fill="#82E03D" d="M77 67.5a.5.5 0 0 1 .5-.5h3a.5.5 0 0 1 0 1h-3a.5.5 0 0 1-.5-.5Z"/>
  <path fill="#303640" d="M15.5 67a.5.5 0 0 0 0 1h3a.5.5 0 0 0 0-1h-3Zm43.5.5a.5.5 0 0 1 .5-.5h3a.5.5 0 0 1 0 1h-3a.5.5 0 0 1-.5-.5Zm6.5-.5a.5.5 0 0 0 0 1h3a.5.5 0 0 0 0-1h-3Zm6 0a.5.5 0 0 0 0 1h3a.5.5 0 0 0 0-1h-3Z"/>
  <path fill="url(#desktop-windows-enabled-ill--96_svg__b)" d="M15 21h66v42H15V21Z"/>
  <path stroke="url(#desktop-windows-enabled-ill--96_svg__c)" stroke-opacity=".2" d="M15.5 21.5h65v41h-65v-41Z"/>
  <path fill="#FAFCFF" d="M47 36h-6v6h6v-6Zm0 8h-6v6h6v-6Zm2-8h6v6h-6v-6Zm6 8h-6v6h6v-6Z"/>
  <path fill="url(#desktop-windows-enabled-ill--96_svg__d)" d="M32 21h49v42H56L32 21Z" opacity=".15"/>
  <path fill="url(#desktop-windows-enabled-ill--96_svg__e)" d="M49 21h32v23H63.122L49 21Z" opacity=".25"/>
  <defs>
    <linearGradient id="desktop-windows-enabled-ill--96_svg__a" x1="48" x2="48" y1="63" y2="65" gradientUnits="userSpaceOnUse">
      <stop stop-color="#fff"/>
      <stop offset="1" stop-color="#fff" stop-opacity="0"/>
    </linearGradient>
    <linearGradient id="desktop-windows-enabled-ill--96_svg__b" x1="16" x2="81" y1="63" y2="21" gradientUnits="userSpaceOnUse">
      <stop stop-color="#40A9FF"/>
      <stop offset="1" stop-color="#A6D7FF"/>
    </linearGradient>
    <linearGradient id="desktop-windows-enabled-ill--96_svg__c" x1="48" x2="48" y1="21" y2="63" gradientUnits="userSpaceOnUse">
      <stop/>
      <stop offset="1" stop-color="#fff" stop-opacity="0"/>
    </linearGradient>
    <linearGradient id="desktop-windows-enabled-ill--96_svg__d" x1="44" x2="44" y1="21" y2="63" gradientUnits="userSpaceOnUse">
      <stop stop-color="#fff"/>
      <stop offset="1" stop-color="#EBEBEB" stop-opacity="0"/>
    </linearGradient>
    <linearGradient id="desktop-windows-enabled-ill--96_svg__e" x1="56.5" x2="56.5" y1="21" y2="44" gradientUnits="userSpaceOnUse">
      <stop stop-color="#fff"/>
      <stop offset="1" stop-color="#fff" stop-opacity="0"/>
    </linearGradient>
  </defs>
</svg>
