<svg width="96" height="96" fill="none" viewBox="0 0 96 96" xmlns="http://www.w3.org/2000/svg">
  <path fill="#434C59" fill-rule="evenodd" d="M12 20.25A2.25 2.25 0 0 1 14.25 18h67.5A2.25 2.25 0 0 1 84 20.25v47.5A2.25 2.25 0 0 1 81.75 70H57v4h6a1 1 0 0 1 1 1v2a1 1 0 0 1-1 1H33a1 1 0 0 1-1-1v-2a1 1 0 0 1 1-1h6v-4H14.25A2.25 2.25 0 0 1 12 67.75v-47.5ZM42 70h12v1a1 1 0 0 1-1 1H43a1 1 0 0 1-1-1v-1Z" clip-rule="evenodd"/>
  <path fill="#A1A8B2" d="M14.25 18A2.25 2.25 0 0 0 12 20.25v1A2.25 2.25 0 0 1 14.25 19h67.5A2.25 2.25 0 0 1 84 21.25v-1A2.25 2.25 0 0 0 81.75 18h-67.5Z" opacity=".2"/>
  <path fill="#303640" d="M12 66.75v1A2.25 2.25 0 0 0 14.25 70h67.5A2.25 2.25 0 0 0 84 67.75v-1A2.25 2.25 0 0 1 81.75 69h-67.5A2.25 2.25 0 0 1 12 66.75ZM32 76v1a1 1 0 0 0 1 1h30a1 1 0 0 0 1-1v-1a1 1 0 0 1-1 1H33a1 1 0 0 1-1-1Z"/>
  <path fill="#6C7480" d="M33 74a1 1 0 0 0-1 1v1a1 1 0 0 1 1-1h30a1 1 0 0 1 1 1v-1a1 1 0 0 0-1-1H33Z"/>
  <path fill="url(#desktop-linux-disabled-ill--96_svg__a)" fill-opacity=".2" d="M15 62h66v2H15v-2Z"/>
  <path fill="#fff" fill-opacity=".1" d="M15 62h66v1H15v-1Z"/>
  <path fill="#EA3939" d="M77 67.5a.5.5 0 0 1 .5-.5h3a.5.5 0 0 1 0 1h-3a.5.5 0 0 1-.5-.5Z"/>
  <path fill="#303640" d="M15.5 67a.5.5 0 0 0 0 1h3a.5.5 0 0 0 0-1h-3Zm43.5.5a.5.5 0 0 1 .5-.5h3a.5.5 0 0 1 0 1h-3a.5.5 0 0 1-.5-.5Zm6.5-.5a.5.5 0 0 0 0 1h3a.5.5 0 0 0 0-1h-3Zm6 0a.5.5 0 0 0 0 1h3a.5.5 0 0 0 0-1h-3Z"/>
  <path fill="url(#desktop-linux-disabled-ill--96_svg__b)" d="M15 21h66v42H15V21Z"/>
  <path stroke="url(#desktop-linux-disabled-ill--96_svg__c)" stroke-opacity=".2" d="M15.5 21.5h65v41h-65v-41Z"/>
  <path fill="#FAFCFF" d="M32.413 47v-8.727h2.109v7.014h3.63V47h-5.74Zm6.832 0v-6.545h2.083V47h-2.084Zm1.044-7.308a1.08 1.08 0 0 1-.755-.29.933.933 0 0 1-.315-.707c0-.273.105-.506.315-.7.21-.195.462-.293.755-.293.295 0 .546.098.754.294.21.193.315.426.315.699a.933.933 0 0 1-.315.707 1.07 1.07 0 0 1-.755.29Zm4.45 3.575V47h-2.084v-6.545h1.981v1.201h.073c.144-.4.392-.714.741-.941.35-.23.766-.346 1.249-.346.46 0 .86.104 1.197.311.341.205.605.492.793.861.19.367.284.796.281 1.287V47h-2.084v-3.763c.003-.363-.09-.648-.277-.852-.184-.205-.442-.307-.771-.307a1.14 1.14 0 0 0-.58.145.96.96 0 0 0-.383.405 1.443 1.443 0 0 0-.136.639Zm9.744.908v-3.72h2.08V47h-1.986v-1.219h-.068c-.145.4-.392.719-.742.955-.346.233-.765.35-1.257.35-.446 0-.838-.103-1.176-.308a2.09 2.09 0 0 1-.788-.856c-.188-.37-.283-.801-.286-1.296v-4.171h2.084v3.762c.003.355.096.635.281.84.185.204.436.307.754.307.208 0 .394-.046.559-.137a.997.997 0 0 0 .396-.405c.1-.178.15-.395.15-.647Zm5.179-3.72 1.078 2.156 1.116-2.156h2.101l-1.828 3.272L64.025 47h-2.083l-1.202-2.173L59.568 47h-2.114l1.9-3.273-1.806-3.272h2.114Z"/>
  <path fill="url(#desktop-linux-disabled-ill--96_svg__d)" d="M32 21h49v42H56L32 21Z" opacity=".15"/>
  <path fill="url(#desktop-linux-disabled-ill--96_svg__e)" d="M49 21h32v23H63.122L49 21Z" opacity=".25"/>
  <defs>
    <linearGradient id="desktop-linux-disabled-ill--96_svg__a" x1="48" x2="48" y1="62" y2="64" gradientUnits="userSpaceOnUse">
      <stop stop-color="#fff"/>
      <stop offset="1" stop-color="#fff" stop-opacity="0"/>
    </linearGradient>
    <linearGradient id="desktop-linux-disabled-ill--96_svg__b" x1="16" x2="81" y1="63" y2="21" gradientUnits="userSpaceOnUse">
      <stop stop-color="#6C7480"/>
      <stop offset="1" stop-color="#E6EBF2"/>
    </linearGradient>
    <linearGradient id="desktop-linux-disabled-ill--96_svg__c" x1="48" x2="48" y1="21" y2="63" gradientUnits="userSpaceOnUse">
      <stop/>
      <stop offset="1" stop-color="#fff" stop-opacity="0"/>
    </linearGradient>
    <linearGradient id="desktop-linux-disabled-ill--96_svg__d" x1="44" x2="44" y1="21" y2="63" gradientUnits="userSpaceOnUse">
      <stop stop-color="#fff"/>
      <stop offset="1" stop-color="#EBEBEB" stop-opacity="0"/>
    </linearGradient>
    <linearGradient id="desktop-linux-disabled-ill--96_svg__e" x1="56.5" x2="56.5" y1="21" y2="44" gradientUnits="userSpaceOnUse">
      <stop stop-color="#fff"/>
      <stop offset="1" stop-color="#fff" stop-opacity="0"/>
    </linearGradient>
  </defs>
</svg>
