<svg width="32" height="32" fill="none" viewBox="0 0 32 32" xmlns="http://www.w3.org/2000/svg">
  <path fill="#2E2E37" d="M29 16c0 7.18-5.82 13-13 13S3 23.18 3 16 8.82 3 16 3s13 5.82 13 13Z"/>
  <path stroke="#fff" stroke-opacity=".3" d="M28.5 16c0 6.904-5.596 12.5-12.5 12.5S3.5 22.904 3.5 16 9.096 3.5 16 3.5 28.5 9.096 28.5 16Z"/>
  <path fill="#fff" fill-opacity=".3" d="m19.586 17-1.293 1.293a1 1 0 0 0 1.414 1.414l3-3a1 1 0 0 0 0-1.414l-3-3a1 1 0 0 0-1.414 1.414L19.586 15H10a1 1 0 1 0 0 2h9.586Z"/>
</svg>
