<svg width="72" height="72" fill="none" viewBox="0 0 72 72" xmlns="http://www.w3.org/2000/svg">
  <path fill="#BDC3CB" d="M23.244 4.959C22.98 4.475 22.552 4 22 4h-7a4 4 0 0 0-4 4v56a4 4 0 0 0 4 4h42a4 4 0 0 0 4-4V8a4 4 0 0 0-4-4h-7c-.552 0-.98.475-1.245.959A2 2 0 0 1 47 6H25a2 2 0 0 1-1.756-1.041Z"/>
  <path fill="#454E5C" d="M11 53h50v11a4 4 0 0 1-4 4H15a4 4 0 0 1-4-4V53Z"/>
  <path fill="#243143" fill-opacity=".4" d="M11 63v1a4 4 0 0 0 4 4h42a4 4 0 0 0 4-4v-1a4 4 0 0 1-4 4H15a4 4 0 0 1-4-4Z"/>
  <path fill="url(#external-drive-ill--72_svg__a)" d="M12 53h-1v9a4 4 0 0 0 4 4h42a4 4 0 0 0 4-4v-9h-1v8.5a3.5 3.5 0 0 1-3.5 3.5h-41a3.5 3.5 0 0 1-3.5-3.5V53Z" opacity=".2"/>
  <path fill="url(#external-drive-ill--72_svg__b)" d="M23.244 4.959C22.98 4.475 22.552 4 22 4h-7a4 4 0 0 0-4 4v45h50V8a4 4 0 0 0-4-4h-7c-.552 0-.98.475-1.245.959A2 2 0 0 1 47 6H25a2 2 0 0 1-1.756-1.041Z"/>
  <path fill="url(#external-drive-ill--72_svg__c)" fill-opacity=".4" fill-rule="evenodd" d="M21.535 6H15a2 2 0 0 0-2 2v56a2 2 0 0 0 2 2h42a2 2 0 0 0 2-2V8a2 2 0 0 0-2-2h-6.535A4 4 0 0 1 47 8H25a4 4 0 0 1-3.465-2ZM22 4c.552 0 .98.475 1.244.959A2 2 0 0 0 25 6h22a2 2 0 0 0 1.755-1.041C49.021 4.475 49.448 4 50 4h7a4 4 0 0 1 4 4v56a4 4 0 0 1-4 4H15a4 4 0 0 1-4-4V8a4 4 0 0 1 4-4h7Z" clip-rule="evenodd"/>
  <path fill="url(#external-drive-ill--72_svg__d)" fill-opacity=".2" fill-rule="evenodd" d="M21.994 5c.01.004.038.017.085.057.09.077.193.208.288.382A3 3 0 0 0 25 7h22a3 3 0 0 0 2.633-1.56c.095-.175.199-.306.288-.383A.303.303 0 0 1 50.006 5H57a3 3 0 0 1 3 3v56a3 3 0 0 1-3 3H15a3 3 0 0 1-3-3V8a3 3 0 0 1 3-3h6.994ZM22 4c.552 0 .98.475 1.244.959A2 2 0 0 0 25 6h22a2 2 0 0 0 1.755-1.041C49.021 4.475 49.448 4 50 4h7a4 4 0 0 1 4 4v56a4 4 0 0 1-4 4H15a4 4 0 0 1-4-4V8a4 4 0 0 1 4-4h7Z" clip-rule="evenodd"/>
  <path fill="#fff" fill-opacity=".2" d="M30 66.25h12V67a.5.5 0 0 1-.5.5h-11a.5.5 0 0 1-.5-.5v-.75Z" opacity=".6"/>
  <path fill="#243143" d="M30 66.5a.5.5 0 0 1 .5-.5h11a.5.5 0 0 1 0 1h-11a.5.5 0 0 1-.5-.5Z"/>
  <path fill="#fff" d="M11 52h50v1H11v-1Z" opacity=".1"/>
  <path fill="#243143" d="M11 53h50v1H11v-1Z" opacity=".3"/>
  <path fill="#fff" d="M23 60.5a1.5 1.5 0 0 1 1.5-1.5h23a1.5 1.5 0 0 1 0 3h-23a1.5 1.5 0 0 1-1.5-1.5Z" opacity=".1"/>
  <path fill="#243143" d="M23 59.5a1.5 1.5 0 0 1 1.5-1.5h23a1.5 1.5 0 0 1 0 3h-23a1.5 1.5 0 0 1-1.5-1.5Z" opacity=".7"/>
  <g filter="url(#external-drive-ill--72_svg__e)" opacity=".6">
    <path fill="#fff" d="M37.5 20.5h2l-3-6-3 6h2v16.613l-2.633-.878a2 2 0 0 1-1.367-1.897v-5.046a2.5 2.5 0 1 0-2 0v5.046a4 4 0 0 0 2.735 3.794l3.265 1.089v1.45a3.001 3.001 0 1 0 2 0v-5.553l3.789-1.894a4 4 0 0 0 2.21-3.578V27.5H45v-5h-5v5h1.5v2.146a2 2 0 0 1-1.106 1.789L37.5 32.882V20.5Z"/>
  </g>
  <path fill="#243143" d="M37 20h2l-3-6-3 6h2v16.613l-2.633-.878A2 2 0 0 1 31 33.838v-5.046a2.5 2.5 0 1 0-2 0v5.046a4 4 0 0 0 2.735 3.794L35 38.721v1.45a3.001 3.001 0 1 0 2 0v-5.553l3.789-1.894a4 4 0 0 0 2.21-3.578V27H44.5v-5h-5v5H41v2.146a2 2 0 0 1-1.106 1.789L37 32.382V20Z" opacity=".7"/>
  <defs>
    <linearGradient id="external-drive-ill--72_svg__a" x1="36" x2="36" y1="55" y2="66" gradientUnits="userSpaceOnUse">
      <stop stop-color="#fff" stop-opacity="0"/>
      <stop offset="1" stop-color="#fff"/>
    </linearGradient>
    <linearGradient id="external-drive-ill--72_svg__b" x1="36" x2="36" y1="5.531" y2="51.469" gradientUnits="userSpaceOnUse">
      <stop stop-color="#DCDFE3"/>
      <stop offset="1" stop-color="#828C9C"/>
    </linearGradient>
    <linearGradient id="external-drive-ill--72_svg__c" x1="36" x2="36" y1="2.984" y2="51.746" gradientUnits="userSpaceOnUse">
      <stop stop-color="#fff"/>
      <stop offset=".969" stop-color="#fff" stop-opacity="0"/>
    </linearGradient>
    <linearGradient id="external-drive-ill--72_svg__d" x1="36" x2="36" y1="4" y2="68" gradientUnits="userSpaceOnUse">
      <stop stop-color="#243143"/>
      <stop offset=".969" stop-color="#243143" stop-opacity="0"/>
    </linearGradient>
    <filter id="external-drive-ill--72_svg__e" width="17.4" height="32.4" x="27.8" y="14.3" color-interpolation-filters="sRGB" filterUnits="userSpaceOnUse">
      <feFlood flood-opacity="0" result="BackgroundImageFix"/>
      <feBlend in="SourceGraphic" in2="BackgroundImageFix" result="shape"/>
      <feGaussianBlur result="effect1_foregroundBlur" stdDeviation=".1"/>
    </filter>
  </defs>
</svg>
