<svg width="32" height="32" fill="none" viewBox="0 0 32 32" xmlns="http://www.w3.org/2000/svg">
  <path fill="#408BEA" d="M26 32a6 6 0 1 1 0-12 6 6 0 0 1 0 12Z"/>
  <path stroke="#243143" stroke-opacity=".1" d="M26 31.5a5.5 5.5 0 1 1 0-11 5.5 5.5 0 0 1 0 11Z"/>
  <path fill="#fff" fill-rule="evenodd" d="M27.25 27.25a2.5 2.5 0 1 0-2.217-1.344L22.72 28.22a.75.75 0 1 0 1.06 1.06l.375-.375.491.491a.5.5 0 0 0 .708 0l.543-.542a.5.5 0 0 0 0-.707l-.492-.492.689-.688c.345.18.739.283 1.156.283Zm0-1.5a1 1 0 1 0 0-2 1 1 0 0 0 0 2Z" clip-rule="evenodd"/>
</svg>
