<svg width="72" height="72" fill="none" viewBox="0 0 72 72" xmlns="http://www.w3.org/2000/svg">
  <path fill="#4F4B47" d="M9.14 19.654h3.516l-4.843-3.297a2.982 2.982 0 0 0-2.694 2.965v33.25h2.756V20.935a1.283 1.283 0 0 1 1.266-1.282Z"/>
  <path fill="#595551" d="M66.324 19.322a2.93 2.93 0 0 0-.236-1.164c.147.356.222.739.22 1.125V52.39h-2.875v.203h2.88l.011-33.272Z"/>
  <path fill="#5CA2DF" d="m60.812 52.369-46.688-31.72H9.186a1.284 1.284 0 0 0-1.277 1.289v-1.002a1.283 1.283 0 0 1 1.277-1.282H9.14a1.282 1.282 0 0 0-1.266 1.282v31.635H63.46v-.202h-2.65Z"/>
  <path fill="#67ACE3" d="M9.186 19.654a1.283 1.283 0 0 0-1.277 1.282v1.002a1.282 1.282 0 0 1 1.277-1.283h4.938l-1.468-1.001h-3.47Z"/>
  <path fill="#5291C5" d="M9.186 19.654a1.283 1.283 0 0 0-1.277 1.282v1.002a1.282 1.282 0 0 1 1.277-1.283h4.938l-1.468-1.001h-3.47Z"/>
  <path fill="#fff" d="M66.088 18.157a2.94 2.94 0 0 0-2.734-1.845H53.342h9.995a2.981 2.981 0 0 1 2.751 1.845Z"/>
  <path fill="#6A6662" d="m62.167 19.654.04.107c.709 0 1.063.523 1.063 1.232l-.14.478c0-.119.157.202.129.1l.185 30.798h2.875V19.26a2.908 2.908 0 0 0-.22-1.125 2.982 2.982 0 0 0-2.762-1.823h-9.995l-18.062.051-27.405-.011h-.073l4.854 3.302h49.511Zm-26.2-2.065a.427.427 0 0 1 .427.411.427.427 0 1 1-.855 0 .428.428 0 0 1 .427-.41Z"/>
  <path fill="#6BABE2" d="M62.213 20.65H14.124l46.688 31.719h2.633V21.606a1.266 1.266 0 0 0-1.232-.957Z"/>
  <path fill="#629CCB" d="M63.444 21.606v-.67a1.283 1.283 0 0 0-1.277-1.282h-49.5l1.469.995h48.076a1.266 1.266 0 0 1 1.232.957Z"/>
  <path fill="#2A2219" d="M35.966 18.439a.422.422 0 0 0 .428-.44.427.427 0 1 0-.855 0 .422.422 0 0 0 .427.44Z"/>
  <path fill="#000" d="M66.33 51.294H5.125v2.138H66.33v-2.138Z" opacity=".1"/>
  <path fill="#595551" d="M0 52.38v.388a3.42 3.42 0 0 0 3.42 3.414h65.154A3.415 3.415 0 0 0 72 52.768v-.388H0Z"/>
  <path fill="#000" d="M68.574 55.327H3.662c-1.89 0-3.662-1.17-3.662-3.054l.05.647c0 1.884 1.722 3.262 3.612 3.262h64.912A3.415 3.415 0 0 0 72 52.768v-.495c0 1.884-1.536 3.054-3.426 3.054Z" opacity=".2"/>
  <path fill="#48423B" d="M28.614 52.363v.428a1.282 1.282 0 0 0 1.283 1.277h11.531a1.277 1.277 0 0 0 1.277-1.277v-.428h-14.09Z"/>
  <path fill="#67ACE3" d="M61.222 54.202a.243.243 0 0 1-.288.238.24.24 0 0 1-.177-.33.242.242 0 0 1 .224-.15.236.236 0 0 1 .241.242Z"/>
  <path fill="#48423B" d="M65.813 54.242a.281.281 0 0 1-.282.28H62.72a.281.281 0 1 1 0-.562h2.812a.281.281 0 0 1 .281.282Z"/>
</svg>
