<svg width="96" height="96" fill="none" viewBox="0 0 96 96" xmlns="http://www.w3.org/2000/svg">
  <path fill="#434C59" d="M15 19a3 3 0 0 0-3 3v49H5a1 1 0 0 0-1 1v3a2 2 0 0 0 2 2h84a2 2 0 0 0 2-2v-3a1 1 0 0 0-1-1h-7V22a3 3 0 0 0-3-3H15Z"/>
  <path fill="#303640" d="M4 73v2a2 2 0 0 0 2 2h84a2 2 0 0 0 2-2v-2a2 2 0 0 1-2 2H6a2 2 0 0 1-2-2Z"/>
  <path fill="#6C7480" d="M4 72a1 1 0 0 1 1-1h86a1 1 0 0 1 1 1H4Zm11-53a3 3 0 0 0-3 3v1a3 3 0 0 1 3-3h66a3 3 0 0 1 3 3v-1a3 3 0 0 0-3-3H15Z"/>
  <path fill="#EA3939" d="M84 73.5a.5.5 0 0 1 .5-.5h3a.5.5 0 0 1 0 1h-3a.5.5 0 0 1-.5-.5Z"/>
  <path fill="url(#laptop-vm-disabled-ill--96_svg__a)" d="M37 71h22a2 2 0 0 1-2 2H39a2 2 0 0 1-2-2Z"/>
  <path fill="url(#laptop-vm-disabled-ill--96_svg__b)" d="M15 23h66v46H15V23Z"/>
  <path fill="#FAFCFF" d="m40.476 42.273 1.952 6.392h.072l1.952-6.392h2.36L43.869 51H41.06l-2.945-8.727h2.361Zm7.276 0h2.612l2.216 5.403h.103l2.216-5.403h2.612V51h-2.054v-5.36h-.073l-2.096 5.305h-1.313l-2.096-5.336h-.073V51h-2.054v-8.727Z"/>
  <path fill="url(#laptop-vm-disabled-ill--96_svg__c)" d="M32 23h49v42H56L32 23Z" opacity=".15"/>
  <path fill="url(#laptop-vm-disabled-ill--96_svg__d)" d="M49 23h32v23H63.122L49 23Z" opacity=".25"/>
  <path fill="url(#laptop-vm-disabled-ill--96_svg__e)" fill-rule="evenodd" d="M80 24H16v44h64V24Zm-65-1v46h66V23H15Z" clip-rule="evenodd" opacity=".2"/>
  <defs>
    <linearGradient id="laptop-vm-disabled-ill--96_svg__a" x1="46" x2="46" y1="71" y2="73" gradientUnits="userSpaceOnUse">
      <stop stop-color="#A1A8B2"/>
      <stop offset="0" stop-color="#84817F"/>
      <stop offset="1" stop-color="#92918F"/>
    </linearGradient>
    <linearGradient id="laptop-vm-disabled-ill--96_svg__b" x1="16" x2="81" y1="68" y2="26" gradientUnits="userSpaceOnUse">
      <stop stop-color="#6C7480"/>
      <stop offset="1" stop-color="#E6EBF2"/>
    </linearGradient>
    <linearGradient id="laptop-vm-disabled-ill--96_svg__c" x1="44" x2="44" y1="23" y2="65" gradientUnits="userSpaceOnUse">
      <stop stop-color="#fff"/>
      <stop offset="1" stop-color="#EBEBEB" stop-opacity="0"/>
    </linearGradient>
    <linearGradient id="laptop-vm-disabled-ill--96_svg__d" x1="56.5" x2="56.5" y1="23" y2="46" gradientUnits="userSpaceOnUse">
      <stop stop-color="#fff"/>
      <stop offset="1" stop-color="#fff" stop-opacity="0"/>
    </linearGradient>
    <linearGradient id="laptop-vm-disabled-ill--96_svg__e" x1="48" x2="48" y1="23" y2="69" gradientUnits="userSpaceOnUse">
      <stop stop-color="#1D2026"/>
      <stop offset="1" stop-color="#1D2026" stop-opacity="0"/>
    </linearGradient>
  </defs>
</svg>
