<svg width="96" height="96" fill="none" viewBox="0 0 96 96" xmlns="http://www.w3.org/2000/svg">
  <path fill="#434C59" d="M29 20a8 8 0 0 1 8-8h22a8 8 0 0 1 8 8v56a8 8 0 0 1-8 8H37a8 8 0 0 1-8-8V20Z"/>
  <path fill="#6C7480" fill-rule="evenodd" d="M59 13H37a7 7 0 0 0-7 7v56a7 7 0 0 0 7 7h22a7 7 0 0 0 7-7V20a7 7 0 0 0-7-7Zm-22-1a8 8 0 0 0-8 8v56a8 8 0 0 0 8 8h22a8 8 0 0 0 8-8V20a8 8 0 0 0-8-8H37Z" clip-rule="evenodd"/>
  <path fill="url(#mobile-default-disabled-ill--96_svg__a)" d="M32 21a6 6 0 0 1 6-6h20a6 6 0 0 1 6 6v54a6 6 0 0 1-6 6H38a6 6 0 0 1-6-6V21Z"/>
  <path fill="url(#mobile-default-disabled-ill--96_svg__b)" d="M38 15h20a6 6 0 0 1 6 6v43L38 15Z" opacity=".15"/>
  <path fill="url(#mobile-default-disabled-ill--96_svg__c)" d="M47.867 15H58a6 6 0 0 1 6 6v23L47.867 15Z" opacity=".25"/>
  <rect width="8" height="2" x="44" y="17" fill="#434C59" rx="1"/>
  <defs>
    <linearGradient id="mobile-default-disabled-ill--96_svg__a" x1="31" x2="65" y1="36.1" y2="34.967" gradientUnits="userSpaceOnUse">
      <stop stop-color="#6C7480"/>
      <stop offset="1" stop-color="#FAFCFF"/>
    </linearGradient>
    <linearGradient id="mobile-default-disabled-ill--96_svg__b" x1="51.333" x2="51.333" y1="15" y2="62.861" gradientUnits="userSpaceOnUse">
      <stop stop-color="#FAFCFF"/>
      <stop offset="1" stop-color="#FAFCFF" stop-opacity="0"/>
    </linearGradient>
    <linearGradient id="mobile-default-disabled-ill--96_svg__c" x1="56.367" x2="56.367" y1="15" y2="40.875" gradientUnits="userSpaceOnUse">
      <stop stop-color="#FAFCFF"/>
      <stop offset="1" stop-color="#FAFCFF" stop-opacity="0"/>
    </linearGradient>
  </defs>
</svg>
