<svg width="72" height="72" fill="none" viewBox="0 0 72 72" xmlns="http://www.w3.org/2000/svg">
  <path fill="#464D54" d="M16.02 1.651h-.793a2.848 2.848 0 0 0-2.852 2.792v63.058h3.375V2.848a2.8 2.8 0 0 1 .27-1.197Z"/>
  <path fill="#565F66" d="M55.434 1.651H16.02a2.8 2.8 0 0 0-.27 1.197V67.5h39.938V2.848a2.805 2.805 0 0 0-.254-1.197Z"/>
  <path fill="#464D54" d="M56.25 0Zm1.564.489A2.815 2.815 0 0 0 56.25 0a2.854 2.854 0 0 1 2.813 2.848v1.646a2.846 2.846 0 0 0-2.847-2.848h-.781c.172.377.258.787.253 1.202V67.5h3.375V2.848a2.805 2.805 0 0 0-1.25-2.36Z"/>
  <path fill="#565F66" d="M15.232 0a2.856 2.856 0 0 0-2.64 1.757 2.846 2.846 0 0 0-.217 1.09v1.647-1.646A2.846 2.846 0 0 1 15.232 0Z"/>
  <path fill="#565F66" d="M15.227 1.651h.793A2.838 2.838 0 0 1 18.596 0h-3.375a2.854 2.854 0 0 0-2.846 2.848v1.595a2.84 2.84 0 0 1 2.852-2.792Z"/>
  <path fill="#787F85" d="M16.02 1.651h39.414A2.838 2.838 0 0 0 52.875 0H18.596a2.844 2.844 0 0 0-2.576 1.651Z"/>
  <path fill="#565F66" d="M55.434 1.651h.782a2.854 2.854 0 0 1 2.846 2.843V2.848A2.846 2.846 0 0 0 56.216 0h-3.341a2.844 2.844 0 0 1 2.56 1.651Z"/>
  <path fill="#3A4651" d="M60.204 69.197H11.25v2.809h48.954v-2.809Z"/>
  <path fill="#6A757A" d="M59.074 67.49H12.386v1.707h46.688v-1.708Z"/>
  <path fill="#2D3138" d="M54.022 60.22h-36.59v5.034h36.59V60.22Z"/>
  <path fill="#42464C" d="M26.438 62.434h-6.733v1.685h6.733v-1.685Zm8.437 0h-6.733v1.685h6.733v-1.685Zm8.438 0H36.58v1.685h6.733v-1.685Zm8.443 0h-6.733v1.685h6.733v-1.685Z"/>
  <path fill="#2D3138" d="M36.006 11.892H12.38V14.7h23.625v-2.808Z"/>
  <path fill="#787F85" d="M36.006 14.706h-20.25v.561h20.25v-.561Z"/>
  <path fill="#5A6066" d="M15.75 14.706h-3.37v.561h3.37v-.561Z"/>
  <path fill="#488BD3" d="M36.011 14.7h23.057v-2.808H36.012V14.7Z"/>
  <path fill="#787F85" d="M36.006 15.262h19.777V14.7H36.006v.562Z"/>
  <path fill="#5A6066" d="M55.693 15.262h3.375V14.7h-3.375v.562Z"/>
  <path fill="#3D6795" d="M59.063 11.886h-3.37V14.7h3.37v-2.814Zm-22.495-.006h-.557v2.814h.557V11.88Z"/>
  <path fill="#2D3138" d="M36.011 19.755H12.386v2.809h23.625v-2.809Z"/>
  <path fill="#787F85" d="M36.011 22.564h-20.25v.562h20.25v-.562Z"/>
  <path fill="#5A6066" d="M15.756 22.564h-3.37v.562h3.37v-.562Z"/>
  <path fill="#488BD3" d="M36.011 22.564h23.057v-2.809H36.012v2.809Z"/>
  <path fill="#787F85" d="M36.017 23.12h19.777v-.562H36.017v.562Z"/>
  <path fill="#5A6066" d="M55.693 23.12h3.375v-.562h-3.375v.562Z"/>
  <path fill="#3D6795" d="M59.063 19.744h-3.37v2.814h3.37v-2.814Zm-22.489-.006h-.557v2.814h.557v-2.814Z"/>
  <path fill="#2D3138" d="M36.011 27.063H12.386v2.809h23.625v-2.809Z"/>
  <path fill="#787F85" d="M36.011 29.872h-20.25v.561h20.25v-.561Z"/>
  <path fill="#5A6066" d="M15.756 29.872h-3.37v.561h3.37v-.561Z"/>
  <path fill="#488BD3" d="M36.011 29.872h23.057v-2.809H36.012v2.809Z"/>
  <path fill="#787F85" d="M36.017 30.434h19.777v-.562H36.017v.562Z"/>
  <path fill="#5A6066" d="M55.693 30.434h3.375v-.562h-3.375v.562Z"/>
  <path fill="#3D6795" d="M59.063 27.058h-3.37v2.814h3.37v-2.814Zm-22.489-.006h-.557v2.814h.557v-2.814Z"/>
  <path fill="#2D3138" d="M35.775 53.205c3.728 0 6.75-3.018 6.75-6.74 0-3.723-3.022-6.74-6.75-6.74s-6.75 3.017-6.75 6.74c0 3.722 3.022 6.74 6.75 6.74Z"/>
  <path fill="#7D848A" d="M35.719 42.05c1.343 0 2.63.533 3.58 1.48a5.052 5.052 0 0 1 1.482 3.575v.085a5.052 5.052 0 0 0-1.391-4.323 5.066 5.066 0 0 0-7.16-.06 5.052 5.052 0 0 0-1.512 3.562 5.053 5.053 0 0 1 1.697-3.087 5.067 5.067 0 0 1 3.304-1.232Z"/>
  <path fill="#5C656D" d="M35.775 51.531c1.22 0 2.399-.44 3.32-1.239a5.053 5.053 0 0 0 1.692-3.108v-.085a5.051 5.051 0 0 0-1.29-3.557 5.065 5.065 0 0 0-8.801 2.821v.085a5.05 5.05 0 0 0 3.13 4.7 5.07 5.07 0 0 0 1.95.383Z"/>
</svg>
