<svg width="24" height="24" fill="none" viewBox="0 0 24 24" xmlns="http://www.w3.org/2000/svg">
  <path fill="url(#services-nav--24_svg__a)" d="M3 2a1 1 0 0 0-1 1v6a1 1 0 0 0 1 1h6a1 1 0 0 0 1-1V3a1 1 0 0 0-1-1H3Z"/>
  <path fill="url(#services-nav--24_svg__b)" d="M15 2a1 1 0 0 0-1 1v6a1 1 0 0 0 1 1h6a1 1 0 0 0 1-1V3a1 1 0 0 0-1-1h-6Z"/>
  <path fill="url(#services-nav--24_svg__c)" d="M2 15a1 1 0 0 1 1-1h6a1 1 0 0 1 1 1v6a1 1 0 0 1-1 1H3a1 1 0 0 1-1-1v-6Z"/>
  <path fill="url(#services-nav--24_svg__d)" d="M15 14a1 1 0 0 0-1 1v6a1 1 0 0 0 1 1h6a1 1 0 0 0 1-1v-6a1 1 0 0 0-1-1h-6Z"/>
  <path fill="#fff" fill-rule="evenodd" d="M3 1a2 2 0 0 0-2 2v6a2 2 0 0 0 2 2h6a2 2 0 0 0 2-2V3a2 2 0 0 0-2-2H3Zm0 2h6v6H3V3Zm12-2a2 2 0 0 0-2 2v6a2 2 0 0 0 2 2h6a2 2 0 0 0 2-2V3a2 2 0 0 0-2-2h-6Zm0 2h6v6h-6V3ZM1 15a2 2 0 0 1 2-2h6a2 2 0 0 1 2 2v6a2 2 0 0 1-2 2H3a2 2 0 0 1-2-2v-6Zm8 0H3v6h6v-6Zm6-2a2 2 0 0 0-2 2v6a2 2 0 0 0 2 2h6a2 2 0 0 0 2-2v-6a2 2 0 0 0-2-2h-6Zm0 2h6v6h-6v-6Z" clip-rule="evenodd"/>
  <defs>
    <linearGradient id="services-nav--24_svg__a" x1="12" x2="12" y1="2" y2="19.647" gradientUnits="userSpaceOnUse">
      <stop stop-color="#fff" stop-opacity=".4"/>
      <stop offset="1" stop-color="#fff" stop-opacity="0"/>
    </linearGradient>
    <linearGradient id="services-nav--24_svg__b" x1="12" x2="12" y1="2" y2="19.647" gradientUnits="userSpaceOnUse">
      <stop stop-color="#fff" stop-opacity=".4"/>
      <stop offset="1" stop-color="#fff" stop-opacity="0"/>
    </linearGradient>
    <linearGradient id="services-nav--24_svg__c" x1="12" x2="12" y1="2" y2="19.647" gradientUnits="userSpaceOnUse">
      <stop stop-color="#fff" stop-opacity=".4"/>
      <stop offset="1" stop-color="#fff" stop-opacity="0"/>
    </linearGradient>
    <linearGradient id="services-nav--24_svg__d" x1="12" x2="12" y1="2" y2="19.647" gradientUnits="userSpaceOnUse">
      <stop stop-color="#fff" stop-opacity=".4"/>
      <stop offset="1" stop-color="#fff" stop-opacity="0"/>
    </linearGradient>
  </defs>
</svg>
