<svg width="16" height="16" fill="none" viewBox="0 0 16 16" xmlns="http://www.w3.org/2000/svg">
  <g clip-path="url(#unknown--16_svg__a)">
    <path fill="#E9EAEC" d="M16 8A8 8 0 1 1 0 8a8 8 0 0 1 16 0Z"/>
    <path fill="#243143" fill-opacity=".4" fill-rule="evenodd" d="M16 8A8 8 0 1 1 0 8a8 8 0 0 1 16 0Zm-2 0a6 6 0 0 1-9.477 4.89l8.368-8.367A5.977 5.977 0 0 1 14 8ZM3.11 11.476l8.367-8.367a6 6 0 0 0-8.367 8.367Z" clip-rule="evenodd"/>
  </g>
  <defs>
    <clipPath id="unknown--16_svg__a">
      <path fill="#fff" d="M0 0h16v16H0z"/>
    </clipPath>
  </defs>
</svg>
