<svg width="32" height="32" fill="none" viewBox="0 0 32 32" xmlns="http://www.w3.org/2000/svg">
  <path fill="#E9EAEC" d="M29 16c0 7.18-5.82 13-13 13S3 23.18 3 16 8.82 3 16 3s13 5.82 13 13Z"/>
  <path fill="#243143" fill-opacity=".4" fill-rule="evenodd" d="M29 16c0 7.18-5.82 13-13 13S3 23.18 3 16 8.82 3 16 3s13 5.82 13 13Zm-2 0c0 6.075-4.925 11-11 11-2.678 0-5.132-.957-7.04-2.547L24.454 8.961A10.955 10.955 0 0 1 27 16ZM7.547 23.04 23.039 7.546A10.956 10.956 0 0 0 16 5C9.925 5 5 9.925 5 16c0 2.677.957 5.132 2.547 7.04Z" clip-rule="evenodd"/>
</svg>
