<svg width="96" height="96" fill="none" viewBox="0 0 96 96" xmlns="http://www.w3.org/2000/svg">
  <path fill="#434C59" fill-rule="evenodd" d="M48 78c16.569 0 30-13.431 30-30 0-16.569-13.431-30-30-30-16.569 0-30 13.431-30 30 0 16.569 13.431 30 30 30Zm0 3c18.225 0 33-14.775 33-33S66.225 15 48 15 15 29.775 15 48s14.775 33 33 33Z" clip-rule="evenodd"/>
  <circle cx="48" cy="48" r="32.5" stroke="url(#unknown-enabled-ill--96_svg__a)" opacity=".3"/>
  <path fill="#fff" fill-rule="evenodd" d="M48 77c16.016 0 29-12.984 29-29S64.016 19 48 19 19 31.984 19 48s12.984 29 29 29Zm0 1c16.569 0 30-13.431 30-30 0-16.569-13.431-30-30-30-16.569 0-30 13.431-30 30 0 16.569 13.431 30 30 30Z" clip-rule="evenodd"/>
  <path fill="url(#unknown-enabled-ill--96_svg__b)" d="M77 48c0 16.016-12.984 29-29 29S19 64.016 19 48s12.984-29 29-29 29 12.984 29 29Z"/>
  <path fill="url(#unknown-enabled-ill--96_svg__c)" d="M78 48c0 16.569-13.431 30-30 30-16.569 0-30-13.431-30-30 0-16.569 13.431-30 30-30 16.569 0 30 13.431 30 30Z" opacity=".8"/>
  <path fill="#fff" d="M49.615 55.67c.564-.544.846-1.26.846-2.149v-1.407c0-.346.206-.741.616-1.186.462-.444 1.205-1.012 2.23-1.704a15.907 15.907 0 0 0 3.308-3.037C57.538 45.05 58 43.322 58 41c0-2.37-.949-4.297-2.846-5.779C53.256 33.741 50.872 33 48 33c-1.846 0-3.538.346-5.077 1.037-1.487.692-2.692 1.63-3.615 2.815C38.436 38.038 38 39.347 38 40.78c0 .74.308 1.432.923 2.074.667.593 1.436.89 2.308.89.872 0 1.615-.273 2.23-.816.667-.543 1.026-1.136 1.078-1.778.05-.84.384-1.457 1-1.852.615-.444 1.41-.667 2.384-.667 1.077 0 1.949.247 2.615.741.667.445 1 1.16 1 2.149 0 1.58-1.05 3.136-3.153 4.667-.923.642-1.872 1.432-2.846 2.37-.975.89-1.462 2.075-1.462 3.557v1.407c0 .89.308 1.605.923 2.149.615.493 1.385.74 2.308.74.974 0 1.743-.246 2.307-.74ZM47.202 65c1.917 0 3.472-1.497 3.472-3.344 0-1.847-1.555-3.344-3.472-3.344-1.918 0-3.472 1.497-3.472 3.344 0 1.847 1.554 3.344 3.472 3.344Z" opacity=".9"/>
  <defs>
    <linearGradient id="unknown-enabled-ill--96_svg__a" x1="48" x2="48" y1="15" y2="48" gradientUnits="userSpaceOnUse">
      <stop stop-color="#fff"/>
      <stop offset="1" stop-color="#fff" stop-opacity="0"/>
    </linearGradient>
    <linearGradient id="unknown-enabled-ill--96_svg__b" x1="19.879" x2="87.196" y1="75.739" y2="45.423" gradientUnits="userSpaceOnUse">
      <stop stop-color="#40A9FF"/>
      <stop offset="1" stop-color="#A6D7FF"/>
    </linearGradient>
    <linearGradient id="unknown-enabled-ill--96_svg__c" x1="48" x2="48" y1="18" y2="48" gradientUnits="userSpaceOnUse">
      <stop stop-color="#fff"/>
      <stop offset="1" stop-color="#fff" stop-opacity="0"/>
    </linearGradient>
  </defs>
</svg>
