<svg width="32" height="32" fill="none" viewBox="0 0 32 32" xmlns="http://www.w3.org/2000/svg">
  <circle cx="16" cy="16" r="14" fill="#CADEF9"/>
  <path fill="#408BEA" d="M16 16.5a5.5 5.5 0 1 0 0-11 5.5 5.5 0 0 0 0 11Zm0 2a12.991 12.991 0 0 0-11.033 6.12A13.976 13.976 0 0 0 16 30c4.48 0 8.47-2.105 11.032-5.38a12.991 12.991 0 0 0-11.033-6.12Z"/>
  <path fill="#243143" fill-opacity=".1" fill-rule="evenodd" d="M16 29c7.18 0 13-5.82 13-13S23.18 3 16 3 3 8.82 3 16s5.82 13 13 13Zm0 1c7.732 0 14-6.268 14-14S23.732 2 16 2 2 8.268 2 16s6.268 14 14 14Z" clip-rule="evenodd"/>
</svg>
