<svg width="96" height="96" fill="none" viewBox="0 0 96 96" xmlns="http://www.w3.org/2000/svg">
  <path fill="#434C59" d="M12 21a3 3 0 0 1 3-3h66a3 3 0 0 1 3 3v54a3 3 0 0 1-3 3H15a3 3 0 0 1-3-3V21Z"/>
  <path fill="url(#website-enabled-ill--96_svg__a)" d="M12 21a3 3 0 0 1 3-3h66a3 3 0 0 1 3 3v54a3 3 0 0 1-3 3H15a3 3 0 0 1-3-3V21Z" opacity=".05"/>
  <path fill="url(#website-enabled-ill--96_svg__b)" fill-rule="evenodd" d="M81 19H15a2 2 0 0 0-2 2v54a2 2 0 0 0 2 2h66a2 2 0 0 0 2-2V21a2 2 0 0 0-2-2Zm-66-1a3 3 0 0 0-3 3v54a3 3 0 0 0 3 3h66a3 3 0 0 0 3-3V21a3 3 0 0 0-3-3H15Z" clip-rule="evenodd" opacity=".3"/>
  <path fill="#fff" d="M40 24a3 3 0 0 1 3-3h35a3 3 0 1 1 0 6H43a3 3 0 0 1-3-3Z" opacity=".2"/>
  <path fill="#363D48" d="M43 21a3 3 0 0 0-2.959 3.5A3 3 0 0 1 43 22h35a3 3 0 0 1 2.959 2.5A3 3 0 0 0 78 21H43Z" opacity=".8"/>
  <path fill="#303640" d="M21 24a3 3 0 1 1-6 0 3 3 0 0 1 6 0Zm8 0a3 3 0 1 1-6 0 3 3 0 0 1 6 0Zm5 3a3 3 0 1 0 0-6 3 3 0 0 0 0 6Z"/>
  <g opacity=".2">
    <path fill="url(#website-enabled-ill--96_svg__c)" d="M21 24.21c0 1.54-1.343 2.79-3 2.79s-3-1.25-3-2.79c0-1.542 1.343-2.791 3-2.791s3 1.249 3 2.79Z"/>
    <path fill="url(#website-enabled-ill--96_svg__d)" d="M29 24.21c0 1.54-1.343 2.79-3 2.79s-3-1.25-3-2.79c0-1.542 1.343-2.791 3-2.791s3 1.249 3 2.79Z"/>
    <path fill="url(#website-enabled-ill--96_svg__e)" d="M34 27c1.657 0 3-1.25 3-2.79 0-1.542-1.343-2.791-3-2.791s-3 1.249-3 2.79S32.343 27 34 27Z"/>
  </g>
  <circle cx="18" cy="24" r="1.5" fill="#EA3939"/>
  <circle cx="26" cy="24" r="1.5" fill="#FFC107"/>
  <circle cx="34" cy="24" r="1.5" fill="#82E03D"/>
  <path fill="url(#website-enabled-ill--96_svg__f)" d="M15 31h66v43a1 1 0 0 1-1 1H16a1 1 0 0 1-1-1V31Z"/>
  <path fill="#fff" d="M32 34H18v38h14V34Zm46 0H35v19h43V34ZM35 56h20v16H35V56Zm43 0H58v16h20V56Z" opacity=".4"/>
  <defs>
    <linearGradient id="website-enabled-ill--96_svg__a" x1="48" x2="48" y1="18" y2="78" gradientUnits="userSpaceOnUse">
      <stop stop-color="#fff"/>
      <stop offset="1" stop-color="#fff" stop-opacity="0"/>
    </linearGradient>
    <linearGradient id="website-enabled-ill--96_svg__b" x1="48" x2="48" y1="39" y2="78" gradientUnits="userSpaceOnUse">
      <stop stop-color="#fff" stop-opacity="0"/>
      <stop offset="1" stop-color="#fff"/>
    </linearGradient>
    <linearGradient id="website-enabled-ill--96_svg__c" x1="34" x2="34" y1="21.419" y2="27" gradientUnits="userSpaceOnUse">
      <stop stop-color="#204880"/>
      <stop offset="1" stop-color="#fff"/>
    </linearGradient>
    <linearGradient id="website-enabled-ill--96_svg__d" x1="34" x2="34" y1="21.419" y2="27" gradientUnits="userSpaceOnUse">
      <stop stop-color="#204880"/>
      <stop offset="1" stop-color="#fff"/>
    </linearGradient>
    <linearGradient id="website-enabled-ill--96_svg__e" x1="34" x2="34" y1="21.419" y2="27" gradientUnits="userSpaceOnUse">
      <stop stop-color="#204880"/>
      <stop offset="1" stop-color="#fff"/>
    </linearGradient>
    <linearGradient id="website-enabled-ill--96_svg__f" x1="48" x2="48" y1="30" y2="74" gradientUnits="userSpaceOnUse">
      <stop stop-color="#40A9FF"/>
      <stop offset="1" stop-color="#A6D7FF"/>
    </linearGradient>
  </defs>
</svg>
