<svg width="72" height="72" fill="none" viewBox="0 0 72 72" xmlns="http://www.w3.org/2000/svg">
  <path fill="#595551" fill-rule="evenodd" d="M0 8.25A2.25 2.25 0 0 1 2.25 6h67.5A2.25 2.25 0 0 1 72 8.25v47.5A2.25 2.25 0 0 1 69.75 58H45v4h6a1 1 0 0 1 1 1v2a1 1 0 0 1-1 1H21a1 1 0 0 1-1-1v-2a1 1 0 0 1 1-1h6v-4H2.25A2.25 2.25 0 0 1 0 55.75V8.25ZM30 58h12v1a1 1 0 0 1-1 1H31a1 1 0 0 1-1-1v-1Z" clip-rule="evenodd"/>
  <path fill="#fff" d="M2.25 6A2.25 2.25 0 0 0 0 8.25v1A2.25 2.25 0 0 1 2.25 7h67.5A2.25 2.25 0 0 1 72 9.25v-1A2.25 2.25 0 0 0 69.75 6H2.25Z" opacity=".2"/>
  <path fill="#000" fill-opacity=".2" d="M0 54.75v1A2.25 2.25 0 0 0 2.25 58h67.5A2.25 2.25 0 0 0 72 55.75v-1A2.25 2.25 0 0 1 69.75 57H2.25A2.25 2.25 0 0 1 0 54.75Z"/>
  <path fill="#000" fill-opacity=".2" d="M0 53.75v2A2.25 2.25 0 0 0 2.25 58h67.5A2.25 2.25 0 0 0 72 55.75v-2A2.25 2.25 0 0 1 69.75 56H2.25A2.25 2.25 0 0 1 0 53.75ZM20 64v1a1 1 0 0 0 1 1h30a1 1 0 0 0 1-1v-1a1 1 0 0 1-1 1H21a1 1 0 0 1-1-1Z"/>
  <path fill="#000" fill-opacity=".2" d="M20 63v2a1 1 0 0 0 1 1h30a1 1 0 0 0 1-1v-2a1 1 0 0 1-1 1H21a1 1 0 0 1-1-1Z"/>
  <path fill="#fff" fill-opacity=".2" d="M21 62a1 1 0 0 0-1 1v1a1 1 0 0 1 1-1h30a1 1 0 0 1 1 1v-1a1 1 0 0 0-1-1H21Z"/>
  <path fill="#000" fill-opacity=".2" d="M27 61h18v1H27v-1Z"/>
  <path fill="url(#workstation-ill--72_svg__a)" fill-opacity=".2" d="M3 51h66v2H3v-2Z"/>
  <path fill="#fff" fill-opacity=".1" d="M3 51h66v1H3v-1Z"/>
  <path fill="#85C457" d="M65 54.5a.5.5 0 0 1 .5-.5h3a.5.5 0 0 1 0 1h-3a.5.5 0 0 1-.5-.5Z"/>
  <path fill="#000" fill-opacity=".3" d="M3.5 54a.5.5 0 0 0 0 1h3a.5.5 0 0 0 0-1h-3Zm43.5.5a.5.5 0 0 1 .5-.5h3a.5.5 0 0 1 0 1h-3a.5.5 0 0 1-.5-.5Zm6.5-.5a.5.5 0 0 0 0 1h3a.5.5 0 0 0 0-1h-3Zm6 0a.5.5 0 0 0 0 1h3a.5.5 0 0 0 0-1h-3Z"/>
  <path fill="url(#workstation-ill--72_svg__b)" d="M3 9h66v42H3V9Z"/>
  <path fill="url(#workstation-ill--72_svg__c)" d="M20 9h49v42H44L20 9Z" opacity=".6"/>
  <path fill="url(#workstation-ill--72_svg__d)" fill-opacity=".3" d="M37 9h32v23H51.122L37 9Z"/>
  <path fill="url(#workstation-ill--72_svg__e)" d="M3 9h66v1H3V9Z" opacity=".7"/>
  <defs>
    <linearGradient id="workstation-ill--72_svg__a" x1="36" x2="36" y1="51" y2="53" gradientUnits="userSpaceOnUse">
      <stop stop-color="#fff"/>
      <stop offset="1" stop-color="#fff" stop-opacity="0"/>
    </linearGradient>
    <linearGradient id="workstation-ill--72_svg__b" x1="4" x2="69" y1="51" y2="9" gradientUnits="userSpaceOnUse">
      <stop stop-color="#43AEF4"/>
      <stop offset="1" stop-color="#63C2F9"/>
    </linearGradient>
    <linearGradient id="workstation-ill--72_svg__c" x1="32" x2="32" y1="9" y2="51" gradientUnits="userSpaceOnUse">
      <stop stop-color="#7FD5FA"/>
      <stop offset="1" stop-color="#50B6F6"/>
    </linearGradient>
    <linearGradient id="workstation-ill--72_svg__d" x1="44.5" x2="44.5" y1="9" y2="32" gradientUnits="userSpaceOnUse">
      <stop stop-color="#fff"/>
      <stop offset="1" stop-color="#fff" stop-opacity="0"/>
    </linearGradient>
    <linearGradient id="workstation-ill--72_svg__e" x1="3" x2="69" y1="10" y2="10" gradientUnits="userSpaceOnUse">
      <stop stop-color="#359DF3"/>
      <stop offset="1" stop-color="#379FF3"/>
    </linearGradient>
  </defs>
</svg>
