<svg xmlns="http://www.w3.org/2000/svg" fill="none" viewBox="0 0 16 16" class="acv-icon"><g fill="#2668C5" clip-path="url(#a)"><path d="M6 5a1 1 0 0 1 1-1h4a1 1 0 1 1 0 2H7a1 1 0 0 1-1-1ZM6 8a1 1 0 0 1 1-1h2a1 1 0 0 1 0 2H7a1 1 0 0 1-1-1Z"/><path fill-rule="evenodd" d="M9.16 12.998c.979-.02 1.91-.227 2.75-.584l2.423 1.101c.807.367 1.656-.42 1.354-1.252l-.811-2.229A6.141 6.141 0 0 0 16 6.5C16 2.91 12.866 0 9 0S2 2.91 2 6.5c0 .131.004.262.012.391C.791 7.711 0 9.023 0 10.5c0 .752.205 1.461.568 2.085l-.53 1.942a1 1 0 0 0 1.35 1.187l2.169-.904c.457.123.941.19 1.443.19 1.734 0 3.262-.795 4.16-2.002ZM14 6.5c0 2.485-2.239 4.5-5 4.5S4 8.985 4 6.5 6.239 2 9 2s5 2.015 5 4.5ZM2.558 9.047c.757 1.65 2.227 2.948 4.05 3.564A3.435 3.435 0 0 1 5 13a3.456 3.456 0 0 1-1.506-.337L2.8 12.2C2.304 11.755 2 11.157 2 10.5c0-.542.207-1.043.558-1.453Z" clip-rule="evenodd"/></g><defs><clipPath id="a"><path fill="#fff" d="M0 0h16v16H0z"/></clipPath></defs></svg>