<svg xmlns="http://www.w3.org/2000/svg" fill="none" viewBox="0 0 24 24" class="acv-icon"><path fill="#2668C5" fill-rule="evenodd" d="M13 6c0 1.845 2.31 3 5 3s5-1.155 5-3-2.31-3-5-3-5 1.155-5 3Zm8 0c0 .552-1.343 1-3 1s-3-.448-3-1 1.343-1 3-1 3 .448 3 1Z" clip-rule="evenodd"/><path fill="#2668C5" d="M18 13c-2.69 0-5-1.09-5-2.834 0-.43.141-.822.394-1.166 0 0 1.842 1.467 4.606 1.467S22.606 9 22.606 9c.253.345.394.735.394 1.166C23 11.91 20.69 13 18 13ZM13 14.166C13 15.91 15.31 17 18 17s5-1.09 5-2.834c0-.43-.141-.822-.394-1.166 0 0-1.842 1.467-4.606 1.467S13.394 13 13.394 13A1.94 1.94 0 0 0 13 14.166ZM18 21c-2.69 0-5-1.09-5-2.834 0-.43.141-.822.394-1.166 0 0 1.842 1.467 4.606 1.467S22.606 17 22.606 17c.253.345.394.735.394 1.166C23 19.91 20.69 21 18 21Z"/><path fill="#2668C5" fill-rule="evenodd" d="M1 14c0 1.845 2.31 3 5 3s5-1.155 5-3-2.31-3-5-3-5 1.155-5 3Zm8 0c0 .552-1.343 1-3 1s-3-.448-3-1 1.343-1 3-1 3 .448 3 1Z" clip-rule="evenodd"/><path fill="#2668C5" d="M6 21c-2.69 0-5-1.09-5-2.834 0-.43.141-.822.394-1.166 0 0 1.842 1.467 4.606 1.467S10.606 17 10.606 17c.253.345.394.735.394 1.166C11 19.91 8.69 21 6 21Z"/></svg>