<svg width="24" height="24" fill="none" viewBox="0 0 24 24" xmlns="http://www.w3.org/2000/svg">
  <path fill="currentColor" d="M12 2C7.5 2 5 4.79 5 7v.139c.589.257 1 .844 1 1.528V12c0 .92-.746 1.667-1.667 1.667A3.333 3.333 0 0 1 3 7.277V7c0-3.314 4-7 9-7s9 3.686 9 7v.277a3.334 3.334 0 0 1 .159 6.038 7.591 7.591 0 0 0-3.167-.248.71.71 0 0 0 .008-.107V8.667c0-.684.411-1.271 1-1.528V7c0-2.21-2.5-5-7-5Zm.123 16.28c-.705.013-1.421-.093-1.96-.323l-1.235-.526c-.515-.22-1.348-.246-1.866-.063l-3.64 1.293C2.642 18.938 2 19.839 2 20.669v1.337C2 23.113 2.891 24 3.99 24h9.959a6.485 6.485 0 0 1-1.412-2H4v-1.331c0 .02.105-.128.091-.123l3.64-1.293a1.49 1.49 0 0 1 .413.018l1.236.526c.77.328 1.722.49 2.67.483a6.114 6.114 0 0 1 .073-2Z"/>
  <path fill="currentColor" d="M12 16c2.96 0 5-3.345 5-8.185C17 3.98 12 4 12 4s-5-.02-5 3.815C7 12.655 9.048 16 12 16Zm1.79-9.66c.854.323 1.21.732 1.21 1.475C15 11.695 13.593 14 12 14c-1.588 0-3-2.31-3-6.185 0-.743.356-1.152 1.21-1.476a5.48 5.48 0 0 1 1.243-.296c.263-.033.457-.043.551-.043.086 0 .28.01.543.043a5.48 5.48 0 0 1 1.243.296Zm9.076 11.918c.503-.181 1.028.152 1.094.638a4.621 4.621 0 0 1 0 1.208.808.808 0 0 1-.805.69.829.829 0 0 1-.284-.05.403.403 0 0 0-.505.215 3.532 3.532 0 0 1-.371.622.373.373 0 0 0 .055.526.763.763 0 0 1-.032 1.23 5.031 5.031 0 0 1-1.078.6.853.853 0 0 1-.321.063.8.8 0 0 1-.801-.65c-.034-.198-.229-.331-.448-.31a3.67 3.67 0 0 1-.74 0c-.218-.02-.413.112-.447.31a.8.8 0 0 1-.801.65.857.857 0 0 1-.322-.063 5.06 5.06 0 0 1-1.078-.6.778.778 0 0 1-.326-.614.76.76 0 0 1 .294-.616.375.375 0 0 0 .055-.527 3.53 3.53 0 0 1-.37-.622.415.415 0 0 0-.5-.216c-.505.18-1.03-.152-1.095-.638a4.584 4.584 0 0 1 0-1.208.808.808 0 0 1 .805-.69c.097 0 .192.017.284.05.21.076.42-.031.505-.215.101-.218.226-.427.371-.622a.373.373 0 0 0-.055-.526.763.763 0 0 1-.294-.616.779.779 0 0 1 .325-.614 5.037 5.037 0 0 1 1.079-.6.853.853 0 0 1 .321-.063.8.8 0 0 1 .801.65c.034.198.23.333.448.31a3.67 3.67 0 0 1 .74 0c.219.023.413-.112.447-.31a.8.8 0 0 1 .801-.65c.11 0 .22.021.322.063a5.06 5.06 0 0 1 1.078.6.778.778 0 0 1 .326.614.76.76 0 0 1-.294.616.375.375 0 0 0-.055.527c.145.194.27.403.37.622a.415.415 0 0 0 .5.216ZM17.5 19.5c0 .827.673 1.5 1.5 1.5s1.5-.673 1.5-1.5S19.827 18 19 18s-1.5.673-1.5 1.5Z" clip-rule="evenodd"/>
</svg>
