<svg width="16" height="16" fill="none" viewBox="0 0 16 16" xmlns="http://www.w3.org/2000/svg">
  <g clip-path="url(#prefix__a)">
    <path fill="currentColor" d="M6 2c0 .28.057.545.16.786L2.24 8.014a2 2 0 1 0 .648 3.779l3.116 2.078a2 2 0 1 0 3.992 0l3.117-2.078a2 2 0 1 0 .648-3.779L9.84 2.786A2 2 0 1 0 6 2Zm1 3L3.84 9.214a1.993 1.993 0 0 1 .156.915L7 12.132V5Zm2 7.132 3.004-2.003a2.032 2.032 0 0 1 .156-.915L9 5v7.132Z" clip-rule="evenodd"/>
  </g>
  <defs>
    <clipPath id="prefix__a">
      <path fill="#fff" d="M0 0h16v16H0z"/>
    </clipPath>
  </defs>
</svg>
