<svg width="32" height="32" fill="none" viewBox="0 0 32 32" xmlns="http://www.w3.org/2000/svg">
  <path fill="currentColor" d="m4 19.848.002-12.842A2.5 2.5 0 0 1 5.636 4.66l9.5-3.506a2.5 2.5 0 0 1 1.731 0l9.498 3.505A2.5 2.5 0 0 1 28 7.008l-.014 12.91-.003.047c-.157 3.222-2.588 5.914-5.664 7.916-1.127.733-2.414 1.39-3.473 1.865-.532.238-1.03.44-1.446.588-.206.073-.412.14-.603.192a3.12 3.12 0 0 1-.795.119c-.345 0-.66-.083-.795-.12a8.198 8.198 0 0 1-.604-.191 20.33 20.33 0 0 1-1.446-.588c-1.06-.474-2.347-1.132-3.475-1.865-3.09-2.01-5.513-4.702-5.68-7.983L4 19.848Zm2-.05.002-12.792a.5.5 0 0 1 .327-.47l9.5-3.505a.5.5 0 0 1 .346 0l9.498 3.505a.5.5 0 0 1 .327.47l-.014 12.862c-.11 2.243-1.855 4.447-4.758 6.336-2.032 1.322-4.757 2.44-5.226 2.44-.47 0-3.196-1.118-5.23-2.44-2.905-1.89-4.655-4.095-4.772-6.407Z" clip-rule="evenodd"/>
  <path fill="currentColor" d="M17.333 9.6v5.634h1.998c.1 0 .198.02.287.058.334.142.476.5.317.8l-3.996 6.28a.678.678 0 0 1-.604.342c-.369 0-.668-.268-.668-.6V16.48h-1.998c-.1 0-.197-.02-.287-.058-.334-.142-.476-.5-.317-.8l3.996-6.28A.678.678 0 0 1 16.665 9c.369 0 .668.269.668.6Z"/>
</svg>
