<svg width="32" height="32" fill="none" viewBox="0 0 32 32" xmlns="http://www.w3.org/2000/svg">
  <path fill="currentColor" d="M25 3H7a3 3 0 0 0-3 3v2h4v4H4v2h4v4H4v2h4v4H4v2a3 3 0 0 0 3 3h18a3 3 0 0 0 3-3V6a3 3 0 0 0-3-3ZM12 22v-.53a2.57 2.57 0 0 1 1.65-2.72c1.26-.55 1.39-.89 1.39-1.88 0-.273-.08-.383-.185-.524-.124-.168-.282-.382-.375-.976-.028-.178-.098-.215-.177-.257-.12-.064-.26-.139-.303-.743 0-.42.19-.52.19-.52s-.09-.61-.13-1.08a1.88 1.88 0 0 1 .74-1.56c.167-.125.313-.26.457-.393.43-.4.838-.777 1.723-.777.096 0 .05.055-.027.145-.136.16-.366.432-.083.715a1.86 1.86 0 0 1 1.36 1.87c0 .47-.13 1.08-.13 1.08s.19.1.19.52c-.043.617-.189.697-.31.764-.077.042-.143.079-.17.236-.092.593-.247.807-.369.976-.102.141-.181.25-.181.524 0 1 .4 1.46 1.66 2 1.26.54 2.56 1.24 2.56 2.59v.53L12 22Zm10.41-1.21c-.37-1.51-1.92-2.25-2.91-2.68l.11-.06c.82-.36 1.09-.66 1.09-1.3 0-.17-.05-.24-.115-.33-.08-.114-.184-.26-.245-.67-.02-.113-.065-.138-.116-.166-.08-.044-.174-.095-.204-.504 0-.26.13-.33.13-.33s-.07-.4-.09-.7a1.37 1.37 0 0 1 2.73 0c0 .3-.09.7-.09.7s.12.07.12.33c0 .411-.098.46-.185.505-.055.027-.106.053-.125.165-.06.381-.159.523-.238.637a.524.524 0 0 0-.122.363c0 .64.28 1 1 1.25a1.31 1.31 0 0 1 .89 1.4v1.39h-1.63Z" clip-rule="evenodd"/>
  <path fill="currentColor" d="M7 11V9H1v2h6Zm0 6v-2H1v2h6Zm0 4H1v2h6v-2Z"/>
</svg>
