<svg width="16" height="16" fill="none" viewBox="0 0 16 16" xmlns="http://www.w3.org/2000/svg">
  <path fill="currentColor" d="M13.765 8.058a2 2 0 0 0-1.147-.96 1 1 0 0 1-.676-.782 4.001 4.001 0 0 0-7.884 0 1 1 0 0 1-.677.781 2.001 2.001 0 0 0-.046 3.79 1 1 0 1 1-.664 1.887 4.001 4.001 0 0 1-.461-7.352 6.003 6.003 0 0 1 11.58 0A4.001 4.001 0 0 1 16 9a4.975 4.975 0 0 0-2.235-.942Z"/>
  <path fill="currentColor" d="M10 9H5.5a.5.5 0 0 0-.5.5v2a.5.5 0 0 0 .5.5h2.6A5 5 0 0 1 10 9Z"/>
  <path fill="currentColor" d="M5.5 13H8c0 1.126.372 2.164 1 3H5.5a.5.5 0 0 1-.5-.5v-2a.5.5 0 0 1 .5-.5ZM8 14.5a.5.5 0 1 1-1 0 .5.5 0 0 1 1 0Zm8-1.5a3 3 0 1 1-6 0 3 3 0 0 1 6 0Zm-3.354-1.854-1 1a.5.5 0 0 0 .708.708l.146-.147V14.5a.5.5 0 0 0 1 0v-1.793l.146.147a.5.5 0 0 0 .708-.708l-1-1a.5.5 0 0 0-.708 0Z" clip-rule="evenodd"/>
</svg>
