<svg width="24" height="24" fill="none" viewBox="0 0 24 24" xmlns="http://www.w3.org/2000/svg">
  <g fill="currentColor" clip-path="url(#prefix__a)">
    <path d="M9 16H1.503C.673 16 0 15.336 0 14.507V1.493C0 .668.665 0 1.503 0h16.994C19.327 0 20 .664 20 1.493v8.759A8.016 8.016 0 0 0 18 10V2H2v8h16a7.97 7.97 0 0 0-5.292 2H2v2h9.07A7.963 7.963 0 0 0 10 18c0 .69.088 1.36.252 2H6.997A.996.996 0 0 1 6 19c0-.552.453-1 .997-1H9v-2Z"/>
    <path d="M18 24a6 6 0 1 0 0-12 6 6 0 0 0 0 12Zm1-6.586V21a1 1 0 1 1-2 0v-3.586l-1.293 1.293a1 1 0 0 1-1.414-1.414l3-3a1 1 0 0 1 1.414 0l3 3a1 1 0 0 1-1.414 1.414L19 17.414Z" clip-rule="evenodd"/>
  </g>
  <defs>
    <clipPath id="prefix__a">
      <path fill="#fff" d="M0 0h24v24H0z"/>
    </clipPath>
  </defs>
</svg>
