<svg width="16" height="16" fill="none" viewBox="0 0 16 16" xmlns="http://www.w3.org/2000/svg">
  <g fill="currentColor" clip-path="url(#prefix__a)">
    <path d="M2 3 7.1.3A2.361 2.361 0 0 1 8.9.104L13.8 1.6c.442.138.7.464.7.9v5.729A4.998 4.998 0 0 0 13 8a4.978 4.978 0 0 0-3 1V3L6.112 4.374C5.289 4.682 5 5.427 5 6.257V9.5c0 .65-1.04 1.09-1.694 1.367-.117.05-.222.094-.306.133-.72.337-1.5-.246-1.5-1V4c0-.36.167-.818.5-1Zm6 10c0 1.054.326 2.032.883 2.838-.609.186-1.345.172-1.883-.14-.354-.205-.79-.448-1.244-.7A78.2 78.2 0 0 1 4 14c-.699-.416-.468-2 .5-2h3.6c-.066.323-.1.658-.1 1Z"/>
    <path d="M13 16a3 3 0 1 0 0-6 3 3 0 0 0 0 6Zm-1.354-3.854 1-1a.5.5 0 0 1 .708 0l1 1a.5.5 0 0 1-.708.708l-.146-.147V14.5a.5.5 0 0 1-1 0v-1.793l-.146.147a.5.5 0 0 1-.708-.708Z" clip-rule="evenodd"/>
  </g>
  <defs>
    <clipPath id="prefix__a">
      <path fill="#fff" d="M0 0h16v16H0z"/>
    </clipPath>
  </defs>
</svg>
