<svg width="16" height="16" fill="none" viewBox="0 0 16 16" xmlns="http://www.w3.org/2000/svg">
  <path fill="currentColor" d="M13 8c.711 0 1.387.148 2 .416V2.732c0-.45-.296-.845-.725-.968l-6-1.725a.994.994 0 0 0-.55 0l-6 1.725A1.005 1.005 0 0 0 1 2.732v7.795c0 1.988 2.22 3.792 6.659 5.413.22.08.462.08.682 0 .166-.06.328-.121.488-.182a4.972 4.972 0 0 1-.736-1.794L8 14c-3.473-1.326-5-2.607-5-3.432V3.454L8 2l5 1.454V8Z"/>
  <path fill="currentColor" d="M13 16a3 3 0 1 0 0-6 3 3 0 0 0 0 6Zm-1.354-3.854 1-1a.5.5 0 0 1 .708 0l1 1a.5.5 0 0 1-.708.708l-.146-.147V14.5a.5.5 0 0 1-1 0v-1.793l-.146.147a.5.5 0 0 1-.708-.708ZM8 4c.947 0 1.714.768 1.714 1.714v.857h.857c.237 0 .429.192.429.429v1.416A5.018 5.018 0 0 0 8.416 11H5.429A.429.429 0 0 1 5 10.571V7c0-.237.192-.429.429-.429h.857v-.857C6.286 4.768 7.053 4 8 4Zm0 3.857a.43.43 0 0 0-.426.379l-.003.05v.857a.429.429 0 0 0 .855.05l.003-.05v-.857A.429.429 0 0 0 8 7.857Zm-.857-2.143a.857.857 0 1 1 1.714 0v.857H7.143v-.857Z" clip-rule="evenodd"/>
</svg>
