<svg width="24" height="24" fill="none" viewBox="0 0 24 24" xmlns="http://www.w3.org/2000/svg">
  <g fill="currentColor" fill-rule="evenodd" clip-path="url(#prefix__a)" clip-rule="evenodd">
    <path d="M11 21a1 1 0 0 1-1.486.874l-9-5A1 1 0 0 1 0 16V6a1 1 0 0 1 .514-.874l9-5a1 1 0 0 1 .972 0l9 5A1 1 0 0 1 20 6v4a1 1 0 1 1-2 0V7.808l-6.996 3.66V21H11Zm-2-1.7v-7.832L2 7.806v7.606L9 19.3Zm8.016-13.258L10 2.144 2.986 6.04l7.016 3.683 7.014-3.682Z"/>
    <path d="M18 24a6 6 0 1 0 0-12 6 6 0 0 0 0 12Zm1-6.586V21a1 1 0 1 1-2 0v-3.586l-1.293 1.293a1 1 0 0 1-1.414-1.414l3-3a1 1 0 0 1 1.414 0l3 3a1 1 0 0 1-1.414 1.414L19 17.414Z"/>
  </g>
  <defs>
    <clipPath id="prefix__a">
      <path fill="#fff" d="M0 0h24v24H0z"/>
    </clipPath>
  </defs>
</svg>
