<svg width="24" height="24" fill="none" viewBox="0 0 24 24" xmlns="http://www.w3.org/2000/svg">
  <path fill="currentColor" d="M22 1H2a1 1 0 0 0-1 1v12a1 1 0 0 0 1 1h8.582a7.996 7.996 0 0 1 1.173-2H3V3h18v7.582a7.95 7.95 0 0 1 2 1.173V2a1 1 0 0 0-1-1ZM5 18h5c0 .69.088 1.36.252 2H5a1 1 0 1 1 0-2Z"/>
  <path fill="currentColor" d="M4 5a1 1 0 0 1 2 0v6a1 1 0 1 1-2 0V5Zm14 0a1 1 0 1 0 2 0 1 1 0 0 0-2 0ZM7 5a1 1 0 0 1 2 0v6a1 1 0 1 1-2 0V5Zm3 0a1 1 0 1 1 2 0v6a1 1 0 1 1-2 0V5Z"/>
  <path fill="currentColor" d="M24 18a6 6 0 1 1-12 0 6 6 0 0 1 12 0Zm-5 3v-3.586l1.293 1.293a1 1 0 0 0 1.414-1.414l-3-3a1 1 0 0 0-1.414 0l-3 3a1 1 0 0 0 1.414 1.414L17 17.414V21a1 1 0 1 0 2 0Z" clip-rule="evenodd"/>
</svg>
