<svg width="24" height="24" fill="none" viewBox="0 0 24 24" xmlns="http://www.w3.org/2000/svg">
  <g fill="currentColor" clip-path="url(#prefix__a)">
    <path d="M4 5a1 1 0 1 1 0-2 1 1 0 0 1 0 2Zm10-1a1 1 0 1 0 2 0 1 1 0 0 0-2 0Zm3 0a1 1 0 1 0 2 0 1 1 0 0 0-2 0Z"/>
    <path d="M.992 0A1 1 0 0 0 0 .992v18.016A1 1 0 0 0 .992 20h9.26A8.016 8.016 0 0 1 10 18H2v-4h9.07a8.034 8.034 0 0 1 1.638-2H2V8h18v2.252a7.96 7.96 0 0 1 2 .818V.992A1 1 0 0 0 21.008 0H.992ZM20 6H2V2h18v4Z" clip-rule="evenodd"/>
    <path d="M14.444 10.832c.482-.24.991-.432 1.522-.571A1.003 1.003 0 0 0 15 9a1 1 0 0 0-.556 1.832ZM18 10c.338 0 .671.021.998.062a1 1 0 1 0-1.996 0c.327-.041.66-.062.998-.062ZM4 11a1 1 0 1 1 0-2 1 1 0 0 1 0 2Zm8 0a1 1 0 1 1 0-2 1 1 0 0 1 0 2Zm-8 6a1 1 0 1 1 0-2 1 1 0 0 1 0 2Z"/>
    <path d="M18 24a6 6 0 1 0 0-12 6 6 0 0 0 0 12Zm1-6.586V21a1 1 0 1 1-2 0v-3.586l-1.293 1.293a1 1 0 0 1-1.414-1.414l3-3a1 1 0 0 1 1.414 0l3 3a1 1 0 0 1-1.414 1.414L19 17.414Z" clip-rule="evenodd"/>
  </g>
  <defs>
    <clipPath id="prefix__a">
      <path fill="#fff" d="M0 0h24v24H0z"/>
    </clipPath>
  </defs>
</svg>
