<svg width="16" height="16" fill="none" viewBox="0 0 16 16" xmlns="http://www.w3.org/2000/svg">
  <path fill="currentColor" d="M1.619 1.075A.997.997 0 0 0 1 2v3a1 1 0 1 0 2 0v-.586l2.292 2.293A2.99 2.99 0 0 0 5 8c0 .463.105.902.292 1.293L3 11.586V11a1 1 0 1 0-2 0v3a.997.997 0 0 0 1 1h3a1 1 0 1 0 0-2h-.586l2.293-2.292c.391.187.83.292 1.293.292a2.99 2.99 0 0 0 1.293-.292L11.586 13H11a1 1 0 1 0 0 2h3a.998.998 0 0 0 1-1v-3a1 1 0 1 0-2 0v.586l-2.292-2.293A2.99 2.99 0 0 0 11 8a2.99 2.99 0 0 0-.292-1.293L13 4.414V5a1 1 0 1 0 2 0V1.985A.998.998 0 0 0 14 1h-3a1 1 0 1 0 0 2h.586L9.293 5.292A2.988 2.988 0 0 0 8 5a2.99 2.99 0 0 0-1.293.292L4.414 3H5a1 1 0 1 0 0-2H1.986a1.01 1.01 0 0 0-.367.075Z"/>
</svg>
