<svg width="24" height="24" fill="none" viewBox="0 0 24 24" xmlns="http://www.w3.org/2000/svg">
  <path fill="currentColor" d="M19.879 5.646 17.88 9.227C21.311 11.158 23.657 14.753 24 19H0c.343-4.247 2.689-7.842 6.119-9.773L4.12 5.645a.443.443 0 0 1 0-.43A.413.413 0 0 1 4.48 5c.149 0 .286.082.36.215l2.022 3.627A11.981 11.981 0 0 1 12 7.704c1.853 0 3.59.407 5.137 1.138l2.022-3.627A.413.413 0 0 1 19.52 5c.149 0 .286.082.36.216a.443.443 0 0 1 0 .43ZM6.477 15.46c-.552 0-1-.464-1-1.035s.448-1.035 1-1.035 1 .463 1 1.035c-.001.57-.448 1.034-1 1.035Zm11.046 0c-.552 0-1-.464-1-1.035s.448-1.035 1-1.035 1 .463 1 1.035c-.001.57-.448 1.034-1 1.035Z" clip-rule="evenodd"/>
</svg>
