<svg width="32" height="32" fill="none" viewBox="0 0 32 32" xmlns="http://www.w3.org/2000/svg">
  <path fill="currentColor" d="M18.91 9.536c.836-.433 1.756-.909 3.104-.909 1.785 0 4.734 1.622 5.922 3.453a6.102 6.102 0 0 0-3.866 5.7A6.101 6.101 0 0 0 28 23.504c-.587 1.362-.931 2.035-1.72 3.3-1.149 1.847-2.723 4.18-4.738 4.196-.828.007-1.385-.252-1.984-.531-.697-.325-1.452-.676-2.758-.666-1.294.007-2.021.353-2.69.671-.583.278-1.122.535-1.955.526C9.213 31 4 24.276 4 18.217c0-6.66 4.404-9.487 7.302-9.489 1.115 0 2.088.411 3.014.802.843.356 1.646.695 2.484.695.777 0 1.415-.33 2.11-.69Zm1.87-3.23c-1.516 1.536-3.496 2.211-5.18 1.94l-.002.002c-.268-1.707.398-3.713 1.914-5.25 1.516-1.535 3.496-2.21 5.18-1.94l.002-.001c.268 1.706-.4 3.713-1.915 5.249Z"/>
</svg>
