<svg width="24" height="24" fill="none" viewBox="0 0 24 24" xmlns="http://www.w3.org/2000/svg">
  <path fill="currentColor" d="M4 2.5A1.5 1.5 0 0 0 2.5 4v5A1.5 1.5 0 0 0 4 10.5h5A1.5 1.5 0 0 0 10.5 9V4A1.5 1.5 0 0 0 9 2.5H4Zm0 11A1.5 1.5 0 0 0 2.5 15v5A1.5 1.5 0 0 0 4 21.5h5a1.5 1.5 0 0 0 1.5-1.5v-5A1.5 1.5 0 0 0 9 13.5H4ZM13.5 4A1.5 1.5 0 0 1 15 2.5h5A1.5 1.5 0 0 1 21.5 4v5a1.5 1.5 0 0 1-1.5 1.5h-5A1.5 1.5 0 0 1 13.5 9V4Zm1.5 9.5a1.5 1.5 0 0 0-1.5 1.5v5a1.5 1.5 0 0 0 1.5 1.5h5a1.5 1.5 0 0 0 1.5-1.5v-5a1.5 1.5 0 0 0-1.5-1.5h-5Z"/>
</svg>
