<svg width="24" height="24" fill="none" viewBox="0 0 24 24" xmlns="http://www.w3.org/2000/svg">
  <path fill="currentColor" d="M4.727 2A2.727 2.727 0 0 0 2 4.727v3.637a2.727 2.727 0 0 0 2.727 2.727h3.637a2.727 2.727 0 0 0 2.727-2.727V4.727A2.727 2.727 0 0 0 8.364 2H4.727Zm-.909 2.727a.91.91 0 0 1 .91-.909h3.636a.91.91 0 0 1 .909.91v3.636a.91.91 0 0 1-.91.909H4.728a.91.91 0 0 1-.909-.91V4.728ZM2 15.636a2.727 2.727 0 0 1 2.727-2.727h3.637a2.727 2.727 0 0 1 2.727 2.727v3.637A2.727 2.727 0 0 1 8.364 22H4.727A2.727 2.727 0 0 1 2 19.273v-3.637Zm2.727-.909a.91.91 0 0 0-.909.91v3.636a.91.91 0 0 0 .91.909h3.636a.91.91 0 0 0 .909-.91v-3.636a.91.91 0 0 0-.91-.909H4.728Zm10.909-1.817a2.727 2.727 0 0 0-2.727 2.726v3.637A2.727 2.727 0 0 0 15.636 22h3.637A2.727 2.727 0 0 0 22 19.273v-3.637a2.727 2.727 0 0 0-2.727-2.727h-3.637Zm-.909 2.726a.91.91 0 0 1 .91-.909h3.636a.91.91 0 0 1 .909.91v3.636a.91.91 0 0 1-.91.909h-3.636a.91.91 0 0 1-.909-.91v-3.636ZM15.636 2a2.727 2.727 0 0 0-2.727 2.727v3.637a2.727 2.727 0 0 0 2.727 2.727h3.637A2.727 2.727 0 0 0 22 8.364V4.727A2.727 2.727 0 0 0 19.273 2h-3.637Zm-.909 2.727a.91.91 0 0 1 .91-.909h3.636a.91.91 0 0 1 .909.91v3.636a.91.91 0 0 1-.91.909h-3.636a.91.91 0 0 1-.909-.91V4.728Z" clip-rule="evenodd"/>
</svg>
