<svg width="32" height="32" fill="none" viewBox="0 0 32 32" xmlns="http://www.w3.org/2000/svg">
  <path fill="currentColor" d="M9.75 15a.25.25 0 0 0-.25.25v1c0 .138.112.25.25.25h12.5a.25.25 0 0 0 .25-.25v-1a.25.25 0 0 0-.25-.25H9.75Zm.75-2.75a.25.25 0 0 1 .25-.25h10.5a.25.25 0 0 1 .25.25v1a.25.25 0 0 1-.25.25h-10.5a.25.25 0 0 1-.25-.25v-1ZM11.75 9a.25.25 0 0 0-.25.25v1c0 .138.112.25.25.25h8.5a.25.25 0 0 0 .25-.25v-1a.25.25 0 0 0-.25-.25h-8.5Z"/>
  <path fill="currentColor" d="M10.216 5h11.568a3 3 0 0 1 2.868 2.118l3.172 10.31c.117.382.176.775.176 1.174V24a3 3 0 0 1-3 3H7a3 3 0 0 1-3-3v-5.398c0-.4.059-.792.176-1.173L7.348 7.118A3 3 0 0 1 10.216 5Zm.056 2.5a1 1 0 0 0-.968.747l-2.226 8.5A1 1 0 0 0 8.046 18h2.645a.5.5 0 0 1 .447.276l.724 1.448a.5.5 0 0 0 .447.276h7.382a.5.5 0 0 0 .447-.276l.724-1.448a.5.5 0 0 1 .447-.276h2.645a1 1 0 0 0 .968-1.253l-2.227-8.5a1 1 0 0 0-.967-.747H10.272Z" clip-rule="evenodd"/>
</svg>
