<svg width="24" height="24" fill="none" viewBox="0 0 24 24" xmlns="http://www.w3.org/2000/svg">
  <g fill="currentColor" clip-path="url(#prefix__a)">
    <path d="M21.576 5.034A4.837 4.837 0 0 0 20.972 5a4.27 4.27 0 0 0-1.147.144c-.371.103-.69.251-.974.452-.28.19-.513.438-.69.73a1.93 1.93 0 0 0-.272 1.021c0 .476.168.924.489 1.32.318.402.825.7 1.502.898l1.232.354.154.05c.292.098.486.196.578.286a.447.447 0 0 1 .142.343c0 .216-.095.375-.3.498-.235.141-.6.218-1.087.218-.319 0-.632-.03-.956-.09a4.582 4.582 0 0 1-.878-.259l-.234-.086a.807.807 0 0 0-.239-.037c-.306 0-.488.223-.488.534v.4l.01.117a.816.816 0 0 0 .07.228c.067.14.205.255.39.352.24.127.584.237 1.048.34.444.099.906.149 1.37.149a4.63 4.63 0 0 0 1.295-.177 3.103 3.103 0 0 0 1.036-.486c.285-.205.52-.469.698-.78.172-.319.258-.673.258-1.054a1.98 1.98 0 0 0-.455-1.282c-.304-.372-.794-.653-1.459-.85L20.86 7.98l-.165-.052c-.316-.105-.541-.217-.657-.319a.428.428 0 0 1-.156-.34c0-.215.077-.348.252-.447.207-.118.538-.182.983-.182.564 0 1.068.095 1.514.283l.124.05c.12.044.223.068.313.068.307 0 .487-.231.487-.542V6.13l-.005-.1a.642.642 0 0 0-.136-.34.973.973 0 0 0-.345-.271c-.1-.056-.236-.11-.407-.162a5.01 5.01 0 0 0-.224-.064l-.28-.068a18.357 18.357 0 0 0-.335-.057l-.247-.034Z"/>
    <path d="M5.902 5.728c-.54-.481-1.346-.712-2.42-.712-.498 0-.961.051-1.394.157a5.41 5.41 0 0 0-1.125.374.894.894 0 0 0-.343.25c-.09.116-.12.26-.12.451v.385l.007.1c.032.255.194.433.464.433a.807.807 0 0 0 .211-.033 2.86 2.86 0 0 0 .332-.114 6.85 6.85 0 0 1 .87-.253c.284-.064.568-.094.852-.094.59 0 .98.101 1.186.286l.061.065.055.078c.12.197.187.494.187.898l-.001.219-.252-.047a8.399 8.399 0 0 0-1.33-.124c-.933 0-1.685.222-2.26.676C.297 9.185 0 9.809 0 10.567c0 .705.243 1.287.723 1.722.473.429 1.111.641 1.894.641l.229-.006.246-.02a3.456 3.456 0 0 0 1.916-.84l.032-.03.086.14.107.15c.074.095.154.185.239.27.154.13.302.195.461.195a.715.715 0 0 0 .375-.115l.535-.33.089-.07c.136-.12.21-.254.21-.411a.611.611 0 0 0-.11-.342l-.085-.16a4.06 4.06 0 0 1-.156-.35l-.025-.087-.02-.105a2.6 2.6 0 0 1-.028-.401L6.7 10.4V7.874l-.006-.23c-.04-.826-.303-1.47-.793-1.916ZM2.37 9.816c.22-.167.575-.255 1.086-.255.25 0 .502.015.764.046l.248.033.273.047v.095l-.004.165c-.01.16-.034.309-.07.443a.932.932 0 0 1-.223.383 1.605 1.605 0 0 1-.676.42c-.28.087-.539.129-.787.129-.323 0-.545-.072-.686-.209-.153-.136-.226-.33-.226-.624 0-.307.097-.519.301-.673Z" clip-rule="evenodd"/>
    <path d="M8.257 5.204c.195 0 .346.028.445.09l.054.041c.109.076.176.181.243.355l.041.113 1.132 4.13 1.052-4.129c.035-.133.078-.24.136-.327l.064-.078.075-.064a.809.809 0 0 1 .39-.126l.118-.005h.678c.226 0 .394.038.507.131a.69.69 0 0 1 .244.355l.033.118 1.069 4.198 1.177-4.216c.04-.121.085-.224.144-.308l.063-.08.073-.067a.79.79 0 0 1 .382-.126l.117-.005h.789c.294 0 .504.189.504.486l-.001.053a1.634 1.634 0 0 1-.06.28l-.03.081-2.044 6.067c-.068.212-.156.364-.288.455a.789.789 0 0 1-.377.126l-.113.005h-.73c-.226 0-.394-.038-.524-.143a.746.746 0 0 1-.229-.353L12.33 8.174l-1.024 3.968a1.14 1.14 0 0 1-.13.318l-.06.079-.069.067a.701.701 0 0 1-.397.139l-.127.005h-.73c-.215 0-.377-.04-.49-.131a.73.73 0 0 1-.242-.334l-.046-.12L7.02 6.093c-.061-.19-.09-.308-.09-.403a.46.46 0 0 1 .401-.479l.095-.007h.831Zm11.301 11.157c-.604.083-.708-.562-.282-.902 1.34-1.036 4.04-1.078 4.564-.371l.05.082c.4.81-.329 3.489-1.532 4.603-.418.392-1.002.095-.795-.473.574-1.564.881-2.714.713-2.948-.156-.22-1.215-.192-2.718.01Z"/>
    <path d="M11.97 21C7.52 21 3.378 19.227.188 16.056c-.477-.474.033-1.217.633-.824a21.418 21.418 0 0 0 11.421 3.337c2.884 0 5.955-.678 8.703-1.957l.087-.038c.716-.268 1.253.644.604 1.172C19.128 19.786 15.395 21 11.97 21Z"/>
  </g>
  <defs>
    <clipPath id="prefix__a">
      <path fill="#fff" d="M0 1h24v24H0z"/>
    </clipPath>
  </defs>
</svg>
