<svg width="32" height="32" fill="none" viewBox="0 0 32 32" xmlns="http://www.w3.org/2000/svg">
  <path fill="currentColor" d="M17.67 11.74a2.47 2.47 0 0 0-1.5-.47h-2.25V15h2.25a2.499 2.499 0 0 0 1.52-.45 1.57 1.57 0 0 0 .62-1.36 1.66 1.66 0 0 0-.64-1.45Z"/>
  <path fill="currentColor" d="m3 9 8-8h18v22l-8 8H3V9Zm12.41 8.15 3.4 4.85H22l-3.73-5.22a4.35 4.35 0 0 0 2-1.4 3.5 3.5 0 0 0 .73-2.21 3.9 3.9 0 0 0-.27-1.68 3.709 3.709 0 0 0-1-1.29 4.59 4.59 0 0 0-1.54-.82 6.47 6.47 0 0 0-2-.29h-5V22h2.73v-4.85h1.49Z" clip-rule="evenodd"/>
</svg>
