<svg width="32" height="32" fill="none" viewBox="0 0 32 32" xmlns="http://www.w3.org/2000/svg">
  <path fill="currentColor" d="M15 3a2 2 0 0 0-2 2v1h11a2 2 0 0 1 2 2v10c.853 0 1.675.134 2.447.381.343-.359.553-.845.553-1.381V5a2 2 0 0 0-2-2H15Zm4 19.124A7.963 7.963 0 0 0 18 26c0 .853.134 1.675.381 2.447A1.993 1.993 0 0 1 17 29H5a2 2 0 0 1-2-2V15a2 2 0 0 1 2-2h12a2 2 0 0 1 2 2v7.124Z"/>
  <path fill="currentColor" d="M24 18.252a7.974 7.974 0 0 0-3 1.503V13a2 2 0 0 0-2-2H8v-1a2 2 0 0 1 2-2h12a2 2 0 0 1 2 2v8.252Z"/>
</svg>
