<svg width="24" height="24" fill="none" viewBox="0 0 24 24" xmlns="http://www.w3.org/2000/svg">
  <path fill="currentColor" d="M14 9a1 1 0 0 1 1-1h6a1 1 0 0 1 1 1v6a1 1 0 0 1-1 1h-6a1 1 0 0 1-1-1V9Zm6 1h-4v4h4v-4Z" clip-rule="evenodd"/>
  <path fill="currentColor" d="M9 21a1 1 0 0 1-1 1H2a1 1 0 0 1-1-1v-6a1 1 0 0 1 1-1h6a1 1 0 0 1 1 1v2h1V7H9v2a1 1 0 0 1-1 1H2a1 1 0 0 1-1-1V3a1 1 0 0 1 1-1h6a1 1 0 0 1 1 1v2h1a2 2 0 0 1 2 2v4h3v2h-3v4a2 2 0 0 1-2 2H9v2Zm-6-1h4v-4H3v4ZM3 8h4V4H3v4Z" clip-rule="evenodd"/>
</svg>
