<svg width="32" height="32" fill="none" viewBox="0 0 32 32" xmlns="http://www.w3.org/2000/svg">
  <path fill="currentColor" d="M4.5 3.5A1.5 1.5 0 0 1 6 2h15.293a1.5 1.5 0 0 1 1.06.44l4.708 4.706a1.5 1.5 0 0 1 .439 1.061v5.586a1.5 1.5 0 0 1-.44 1.06l-3 3a1.5 1.5 0 0 1-2.12 0l-2.44-2.439-2.44 2.44a1.5 1.5 0 0 1-2.12 0l-2.44-2.44-2.44 2.44a1.5 1.5 0 0 1-2.12 0l-3-3a1.5 1.5 0 0 1-.44-1.061V3.5Zm2 .5v9.586l2.5 2.5 2.44-2.44a1.5 1.5 0 0 1 2.12 0l2.44 2.44 2.44-2.44a1.5 1.5 0 0 1 2.12 0l2.44 2.44 2.5-2.5V9.5h-4A1.5 1.5 0 0 1 20 8V4H6.5Zm15.5.914V7.5h2.586L22 4.914Z" clip-rule="evenodd"/>
  <path fill="currentColor" d="M11.44 18.646a1.5 1.5 0 0 1 2.12 0l2.44 2.44 2.44-2.44a1.5 1.5 0 0 1 2.12 0l2.44 2.44 1.94-1.94c.944-.945 2.56-.275 2.56 1.061V28.5A1.5 1.5 0 0 1 26 30H6a1.5 1.5 0 0 1-1.5-1.5v-8.293c0-1.336 1.616-2.006 2.56-1.06L9 21.085l2.44-2.44Zm1.06 1.768-2.44 2.44a1.5 1.5 0 0 1-2.12 0l-1.44-1.44V28h19v-6.586l-1.44 1.44a1.5 1.5 0 0 1-2.12 0l-2.44-2.44-2.44 2.44a1.5 1.5 0 0 1-2.12 0l-2.44-2.44Z" clip-rule="evenodd"/>
</svg>
