<svg width="32" height="32" fill="none" viewBox="0 0 32 32" xmlns="http://www.w3.org/2000/svg">
  <path fill="currentColor" d="M4.678 3.552c.253-.243.544-.438.81-.59.75-.425 1.768-.775 2.94-1.056C10.786 1.34 13.993 1 17.5 1h.061c.56 0 1.11.01 1.653.027 2.831.092 5.39.407 7.358.88 1.172.28 2.19.63 2.94 1.056.051.029.104.06.157.093.143.077.28.156.408.238.731.466 1.484 1.187 1.484 2.206 0 .188-.026.37-.076.545l-3.487 21.05c-.04.829-.58 1.452-1.146 1.874-.606.452-1.419.817-2.333 1.106-1.841.581-4.322.925-7.019.925s-5.178-.344-7.019-.925c-.914-.289-1.727-.654-2.333-1.106-.566-.423-1.108-1.047-1.146-1.876l-.32-2.007c-3.005-.51-5.208-2.627-5.61-5.445-.543-3.795 2.072-6.198 3.58-7.24L3.634 6.027a1.985 1.985 0 0 1-.071-.527c0-.847.52-1.488 1.116-1.948Zm.334 11.098c-1.128.992-2.267 2.567-1.96 4.708.226 1.586 1.421 3.045 3.29 3.611l-1.33-8.319Zm3.71 10.533.265 1.66c.008.05.013.1.013.15.005.02.046.15.345.373.356.266.934.548 1.739.802 1.597.504 3.866.832 6.416.832 2.55 0 4.819-.328 6.416-.832.805-.254 1.383-.536 1.74-.802.298-.223.34-.354.344-.373 0-.052.005-.105.013-.156l3.259-19.67c-.721.367-1.649.674-2.7.927C24.214 8.66 21.006 9 17.5 9c-3.507 0-6.714-.34-9.072-.906-.993-.239-1.875-.526-2.578-.867L8.407 23.21c.852-.04 1.785-.24 2.783-.639 2.321-.928 3.854-2.196 4.84-3.222a2 2 0 1 1 1.297 1.535c-1.123 1.136-2.851 2.527-5.394 3.544a10.578 10.578 0 0 1-3.21.755ZM19.15 3.026c2.883.097 5.441.452 7.344.965.92.247 1.649.522 2.177.8.141.09.225.16.274.209a1.97 1.97 0 0 1-.42.298c-.516.293-1.329.59-2.42.85C23.94 6.669 20.898 7 17.5 7c-3.397 0-6.44-.331-8.605-.851-1.091-.262-1.904-.558-2.42-.851a2.067 2.067 0 0 1-.405-.284l.05-.033c.536-.341 1.379-.686 2.51-.99 2.239-.603 5.385-.989 8.901-.991.55 0 1.09.01 1.619.026Z" clip-rule="evenodd"/>
</svg>
