<svg width="16" height="16" fill="none" viewBox="0 0 16 16" xmlns="http://www.w3.org/2000/svg">
  <g clip-path="url(#prefix__a)">
    <path fill="currentColor" d="M4.532 1.431C5.712 1.16 7.291 1 9 1c1.71 0 3.288.159 4.467.431.582.134 1.122.308 1.54.537.21.114.435.266.62.474a1.418 1.418 0 0 1 .372.999 1.45 1.45 0 0 1-.114.62l-1.736 8.679c-.046.563-.4.961-.703 1.2-.335.264-.758.458-1.193.603-.878.293-2.028.457-3.253.457s-2.375-.164-3.253-.457c-.435-.145-.858-.339-1.193-.603a1.983 1.983 0 0 1-.54-.635 5.58 5.58 0 0 1-.562-.004c-.678-.04-1.393-.216-2.01-.631-.635-.428-1.107-1.073-1.32-1.927-.337-1.348.067-2.451.683-3.236a4.825 4.825 0 0 1 1.729-1.355l-.419-2.091a1.395 1.395 0 0 1-.114-.62L2 3.385c0-.41.184-.729.374-.943.184-.208.41-.36.619-.474.418-.229.958-.403 1.54-.537ZM2.946 8.215a2.672 2.672 0 0 0-.568.528c-.3.382-.48.862-.316 1.514.096.383.279.607.498.754.237.16.575.267 1.004.293l-.618-3.09Zm3.567 4.473c.229-.109.442-.228.634-.356a20.3 20.3 0 0 0 1.867-1.412A1.499 1.499 0 0 0 11 9.5a1.5 1.5 0 0 0-2.947-.396c-.434.39-1.162.995-2.016 1.564a3.222 3.222 0 0 1-.507.27L4.446 5.513l.069.018C5.7 5.827 7.286 6 9 6c1.714 0 3.3-.173 4.485-.47l.07-.017-1.376 6.878c-.095.066-.273.16-.558.255-.625.208-1.552.354-2.621.354-.996 0-1.868-.127-2.487-.312ZM4.67 3.5c.1-.03.21-.06.33-.09C5.986 3.162 7.4 3 9 3s3.014.163 4 .41c.12.03.23.06.33.09-.1.03-.21.06-.33.09-.986.247-2.4.41-4 .41s-3.014-.163-4-.41c-.12-.03-.23-.06-.33-.09Z" clip-rule="evenodd"/>
  </g>
  <defs>
    <clipPath id="prefix__a">
      <path fill="#fff" d="M0 0h16v16H0z"/>
    </clipPath>
  </defs>
</svg>
