<svg width="16" height="16" fill="none" viewBox="0 0 16 16" xmlns="http://www.w3.org/2000/svg">
  <g fill="currentColor" clip-path="url(#prefix__a)">
    <path d="M8.512 6.102c-.161-.47-.863-.47-1.024 0l-.575 1.676a.536.536 0 0 1-.512.351H4.54c-.521 0-.738.632-.316.921l1.506 1.036c.189.13.268.36.196.57l-.576 1.675c-.16.47.407.86.828.57l1.507-1.036a.563.563 0 0 1 .632 0L9.823 12.9c.421.29.989-.1.828-.569l-.576-1.676a.494.494 0 0 1 .196-.569l1.506-1.036c.422-.29.205-.92-.316-.92H9.599a.536.536 0 0 1-.512-.352l-.575-1.676Z"/>
    <path d="M12 1a1 1 0 1 0-2 0H6a1 1 0 0 0-2 0H1a1 1 0 0 0-1 1v13a1 1 0 0 0 1 1h14a1 1 0 0 0 1-1V2a1 1 0 0 0-1-1h-3ZM2 14h12V5H2v9Z" clip-rule="evenodd"/>
  </g>
  <defs>
    <clipPath id="prefix__a">
      <path fill="#fff" d="M0 0h16v16H0z"/>
    </clipPath>
  </defs>
</svg>
