<svg width="32" height="32" fill="none" viewBox="0 0 32 32" xmlns="http://www.w3.org/2000/svg">
  <path fill="currentColor" d="M9 2h2v6H9V2Zm12 0h2v6h-2V2ZM10 14H7v2h3v-2Zm0 4H7v2h3v-2Zm0 4H7v2h3v-2Zm2 0h3v2h-3v-2Zm5 0h3v2h-3v-2Zm5 0h3v2h-3v-2Zm-7-4h-3v2h3v-2Zm5 0h-3v2h3v-2Zm5 0h-3v2h3v-2Zm-13-4h3v2h-3v-2Zm5 0h3v2h-3v-2Zm5 0h3v2h-3v-2Z"/>
  <path fill="currentColor" d="M24 5h2a3 3 0 0 1 3 3v17a3 3 0 0 1-3 3H6a3 3 0 0 1-3-3V8a3 3 0 0 1 3-3h2v4h4V5h8v4h4V5Zm2.707 20.707A1 1 0 0 0 27 25V12H5v13a1 1 0 0 0 1 1h20a1 1 0 0 0 .707-.293Z" clip-rule="evenodd"/>
</svg>
