<svg width="32" height="32" fill="none" viewBox="0 0 32 32" xmlns="http://www.w3.org/2000/svg">
  <path fill="currentColor" d="M8 8a1 1 0 0 1 1-1h7a1 1 0 1 1 0 2H9a1 1 0 0 1-1-1Zm13 0a1 1 0 0 1 1-1h1a1 1 0 1 1 0 2h-1a1 1 0 0 1-1-1Zm1 3a1 1 0 1 0 0 2h1a1 1 0 1 0 0-2h-1Zm-1 5a1 1 0 0 1 1-1h1a1 1 0 1 1 0 2h-1a1 1 0 0 1-1-1Zm-3 5a1 1 0 1 0 0 2h5a1 1 0 1 0 0-2h-5ZM8 12a1 1 0 0 1 1-1h2a1 1 0 1 1 0 2H9a1 1 0 0 1-1-1Zm1 3a1 1 0 1 0 0 2h5a1 1 0 1 0 0-2H9Z"/>
  <path fill="currentColor" d="M5.555 29.832A1 1 0 0 1 4 29V3a1 1 0 0 1 1-1h22a1 1 0 0 1 1 1v26a1 1 0 0 1-1.555.832L24 28.202l-2.445 1.63a1 1 0 0 1-1.11 0l-2.318-1.545-1.42 1.42a1 1 0 0 1-1.262.125l-2.318-1.545-1.42 1.42a1 1 0 0 1-1.262.125L8 28.202l-2.445 1.63Zm1.89-3.664a1 1 0 0 1 1.11 0l2.318 1.545 1.42-1.42a1 1 0 0 1 1.262-.125l2.318 1.545 1.42-1.42a1 1 0 0 1 1.262-.125L21 27.798l2.445-1.63a1 1 0 0 1 1.11 0L26 27.13V4H6v23.131l1.445-.963Z" clip-rule="evenodd"/>
</svg>
