<svg width="16" height="16" fill="none" viewBox="0 0 16 16" xmlns="http://www.w3.org/2000/svg">
  <path fill="currentColor" d="M5 5.5a.5.5 0 0 1 .5-.5h2a.5.5 0 0 1 0 1h-2a.5.5 0 0 1-.5-.5Zm4 0a.5.5 0 0 1 .5-.5h1a.5.5 0 0 1 0 1h-1a.5.5 0 0 1-.5-.5Zm0 2a.5.5 0 0 1 .5-.5h1a.5.5 0 0 1 0 1h-1a.5.5 0 0 1-.5-.5Zm-4 0a.5.5 0 0 1 .5-.5h1a.5.5 0 0 1 0 1h-1a.5.5 0 0 1-.5-.5Zm3 2a.5.5 0 0 1 .5-.5h2a.5.5 0 0 1 0 1h-2a.5.5 0 0 1-.5-.5Z"/>
  <path fill="currentColor" d="M3.447 14.894A1 1 0 0 1 2 14V2a1 1 0 0 1 1-1h10a1 1 0 0 1 1 1v12a1 1 0 0 1-1.447.894l-1.356-.677-.49.49a1 1 0 0 1-1.154.187L8 14.118l-1.553.776a1 1 0 0 1-1.154-.187l-.49-.49-1.356.677ZM4 3v9.382l.553-.276a1 1 0 0 1 1.154.187l.49.49 1.356-.677a1 1 0 0 1 .894 0l1.356.677.49-.49a1 1 0 0 1 1.154-.187l.553.276V3H4Z" clip-rule="evenodd"/>
</svg>
