<svg width="32" height="32" fill="none" viewBox="0 0 32 32" xmlns="http://www.w3.org/2000/svg">
  <path fill="currentColor" d="M15 11.9A5.002 5.002 0 0 1 16 2a5 5 0 0 1 1 9.9V16h8.009A2.997 2.997 0 0 1 28 18.998v3.128A4.002 4.002 0 0 1 27 30a4 4 0 0 1-1-7.874v-3.128a.997.997 0 0 0-.991-.998H17v4.002c0 .041-.003.082-.007.122A4.002 4.002 0 0 1 16 30a4 4 0 0 1-.992-7.876.993.993 0 0 1-.008-.122V18H6.991a.993.993 0 0 0-.991.998v3.128A4.002 4.002 0 0 1 5 30a4 4 0 0 1-1-7.874v-3.128A2.993 2.993 0 0 1 6.991 16H15v-4.1Zm1-1.9a3 3 0 1 0 0-6 3 3 0 0 0 0 6Zm13 16a2 2 0 1 1-4 0 2 2 0 0 1 4 0ZM5 28a2 2 0 1 0 0-4 2 2 0 0 0 0 4Zm13-2a2 2 0 1 1-4 0 2 2 0 0 1 4 0Z" clip-rule="evenodd"/>
</svg>
