<svg width="24" height="24" fill="none" viewBox="0 0 24 24" xmlns="http://www.w3.org/2000/svg">
  <path fill="currentColor" d="M11 9.876A3.995 3.995 0 0 1 8 6a4 4 0 1 1 8 0 3.995 3.995 0 0 1-3 3.876V12h5.006A2.992 2.992 0 0 1 21 15v1.17a3.001 3.001 0 1 1-2 0V15c0-.557-.442-1-.994-1H13v2.166A2.99 2.99 0 0 1 15 19a3 3 0 1 1-6 0 2.99 2.99 0 0 1 2-2.834V14H5.994A.998.998 0 0 0 5 15v1.17a3.001 3.001 0 1 1-2 0V15c0-1.656 1.341-3 2.994-3H11V9.876ZM12 8a2 2 0 1 0 0-4 2 2 0 0 0 0 4Zm9 11a1 1 0 1 1-2 0 1 1 0 0 1 2 0ZM4 20a1 1 0 1 0 0-2 1 1 0 0 0 0 2Zm9-1a1 1 0 1 1-2 0 1 1 0 0 1 2 0Z" clip-rule="evenodd"/>
</svg>
