<svg width="16" height="16" fill="none" viewBox="0 0 16 16" xmlns="http://www.w3.org/2000/svg">
  <path fill="currentColor" d="M9 11V9h4v2c0 .086.01.17.031.25a2 2 0 1 0 1.938 0c.02-.08.031-.164.031-.25V9a2 2 0 0 0-2-2H9V6c0-.056-.005-.112-.014-.166A3.001 3.001 0 0 0 8 0a3 3 0 0 0-.986 5.834A.915.915 0 0 0 7 6v1H3a2 2 0 0 0-2 2v2c0 .086.01.17.031.25a2 2 0 1 0 1.938 0c.02-.08.031-.164.031-.25V9h4v2c0 .086.011.17.031.25a2 2 0 1 0 1.938 0c.02-.08.031-.164.031-.25Zm0-8a1 1 0 1 1-2 0 1 1 0 0 1 2 0Z" clip-rule="evenodd"/>
</svg>
