<svg width="24" height="24" fill="none" viewBox="0 0 24 24" xmlns="http://www.w3.org/2000/svg">
  <path fill="currentColor" d="M8 12a1 1 0 1 0 0 2h1a1 1 0 1 0 0-2H8Zm-1 5a1 1 0 0 1 1-1h3a1 1 0 1 1 0 2H8a1 1 0 0 1-1-1Zm7 0a1 1 0 0 1 1-1h1a1 1 0 1 1 0 2h-1a1 1 0 0 1-1-1Zm-2-4a1 1 0 0 1 1-1h3a1 1 0 1 1 0 2h-3a1 1 0 0 1-1-1Z"/>
  <path fill="currentColor" d="M18 4h1.001C20.109 4 21 4.895 21 6v15c0 1.1-.897 2-2 2H5c-1.107 0-2-.895-2-2V6c0-1.099.896-2 1.999-2H6a1 1 0 0 1 1-1h1V2a1 1 0 0 1 1-1h6a1 1 0 0 1 1 1v1h1a1 1 0 0 1 1 1Zm0 2v1a1 1 0 0 1-1 1H7a1 1 0 0 1-1-1V6H5v15h14c-.004 0 0-15 0-15h-1ZM8 6h8V5c-1.105 0-2-.892-2-2h-4c0 1.105-.892 2-2 2v1Z" clip-rule="evenodd"/>
</svg>
