<svg width="16" height="16" fill="none" viewBox="0 0 16 16" xmlns="http://www.w3.org/2000/svg">
  <path fill="currentColor" d="M1.2 12.8A4.1 4.1 0 0 0 4.1 14h7.8A4.099 4.099 0 0 0 16 9.9a4.2 4.2 0 0 0-2.2-3.6A6.1 6.1 0 0 0 8 2a6.1 6.1 0 0 0-5.8 4.3A4.2 4.2 0 0 0 0 9.9a4.1 4.1 0 0 0 1.2 2.9Zm1.415-1.415A2.1 2.1 0 0 0 4.1 12h7.8A2.1 2.1 0 0 0 14 9.9a1.9 1.9 0 0 0-1.1-1.8l-.389-.194a1 1 0 0 1-.522-.652L11.9 6.9a4.1 4.1 0 0 0-7.8 0l-.088.354a1 1 0 0 1-.523.652L3.1 8.1A1.9 1.9 0 0 0 2 9.9a2.1 2.1 0 0 0 .615 1.485Z" clip-rule="evenodd"/>
</svg>
