<svg width="32" height="32" fill="none" viewBox="0 0 32 32" xmlns="http://www.w3.org/2000/svg">
  <path fill="currentColor" d="M16 5.8a2.8 2.8 0 1 0 0-5.6 2.8 2.8 0 0 0 0 5.6Zm13 15.52a2.68 2.68 0 1 0 0 5.36 2.68 2.68 0 0 0 0-5.36ZM5.75 24a2.75 2.75 0 1 1-5.5 0 2.75 2.75 0 0 1 5.5 0Zm19.73 1.87a12.948 12.948 0 0 1-19 0 4 4 0 0 1-1.35 1.48 14.94 14.94 0 0 0 21.66 0 4 4 0 0 1-1.31-1.48Z"/>
  <path fill="currentColor" d="M19.822 4.18a3.974 3.974 0 0 1-.13.36A13.08 13.08 0 0 1 28 12H4a13.08 13.08 0 0 1 8.3-7.46A3.92 3.92 0 0 1 12 3c-.01-.15-.01-.3 0-.45A15 15 0 0 0 1 17c.002 1.124.132 2.244.39 3.338A4 4 0 0 1 5.646 21h20.708a4 4 0 0 1 4.256-.662c.258-1.094.388-2.214.39-3.338A15 15 0 0 0 20 2.55c.01.15.01.3 0 .45.001.4-.059.798-.178 1.18ZM12.562 19h1.027v-4.854h-1.026v1.902H10.64v-1.902H9.61V19h1.03v-2.095h1.923V19Zm3.417-3.63c.213-.291.513-.437.9-.437.177 0 .358.032.541.096.184.064.367.14.548.226l.332-.837a3.266 3.266 0 0 0-1.42-.342c-.463 0-.867.102-1.213.305a1.983 1.983 0 0 0-.79.874c-.184.378-.276.82-.276 1.324 0 .802.187 1.417.561 1.847.375.427.915.64 1.62.64a3.44 3.44 0 0 0 1.336-.249v-.863c-.485.17-.898.256-1.239.256-.812 0-1.219-.541-1.219-1.624 0-.52.107-.925.32-1.215Zm5.764.635a1.14 1.14 0 0 0 .276-.774.979.979 0 0 0-.438-.85c-.29-.203-.686-.305-1.189-.305-.613 0-1.141.16-1.584.478l.475.707c.201-.13.384-.222.548-.275.166-.053.329-.08.488-.08.46 0 .69.184.69.551 0 .24-.087.409-.262.508-.172.098-.447.146-.823.146h-.375v.787h.368c.407 0 .704.048.89.143.186.095.279.257.279.485 0 .254-.08.44-.242.554-.162.115-.412.173-.75.173a2.61 2.61 0 0 1-.672-.09 3.173 3.173 0 0 1-.62-.232v.873c.407.175.874.262 1.4.262.63 0 1.113-.13 1.452-.388.338-.261.508-.625.508-1.093 0-.32-.101-.575-.302-.763-.202-.19-.498-.31-.89-.359v-.02c.332-.08.59-.225.773-.438Z" clip-rule="evenodd"/>
</svg>
