<svg width="24" height="24" fill="none" viewBox="0 0 24 24" xmlns="http://www.w3.org/2000/svg">
  <path fill="currentColor" d="M9 12a1 1 0 1 1-2 0 1 1 0 0 1 2 0Zm3 0a1 1 0 1 1-2 0 1 1 0 0 1 2 0ZM9 6a1 1 0 1 1-2 0 1 1 0 0 1 2 0Zm3 0a1 1 0 1 1-2 0 1 1 0 0 1 2 0ZM9 18a1 1 0 1 1-2 0 1 1 0 0 1 2 0Zm3 0a1 1 0 1 1-2 0 1 1 0 0 1 2 0Z"/>
  <path fill="currentColor" d="M1 6a2 2 0 0 1 2-2h1a2 2 0 0 1 2-2h12a2 2 0 0 1 2 2h1a2 2 0 0 1 2 2v12a2 2 0 0 1-2 2h-1a2 2 0 0 1-2 2H6a2 2 0 0 1-2-2H3a2 2 0 0 1-2-2V6Zm2 0h1v12H3V6Zm18 0h-1v12h1V6ZM6 10v4h12v-4H6Zm0-6h12v4H6V4Zm0 12h12v4H6v-4Z" clip-rule="evenodd"/>
</svg>
