<svg width="32" height="32" fill="none" viewBox="0 0 32 32" xmlns="http://www.w3.org/2000/svg">
  <path fill="currentColor" d="M28.207 5.207a1 1 0 0 0-1.414-1.414l-4.5 4.5A5.002 5.002 0 0 0 16 8.929l-1.328 1.328-1.465-1.464a1 1 0 1 0-1.414 1.414l10 10a1 1 0 0 0 1.414-1.414l-1.464-1.465L23.07 16a5.002 5.002 0 0 0 .636-6.293l4.5-4.5Zm-7.879 10.707-4.242-4.242 1.328-1.329a3 3 0 1 1 4.243 4.243l-1.329 1.328Zm-10.121-4.121a1 1 0 0 0-1.414 1.414l1.464 1.465L8.93 16a5.002 5.002 0 0 0-.637 6.293l-4.5 4.5a1 1 0 1 0 1.415 1.414l4.5-4.5A5.002 5.002 0 0 0 16 23.072l1.328-1.328 1.465 1.464a1 1 0 0 0 1.414-1.414l-10-10Zm1.465 4.293 4.242 4.242-1.328 1.329a3 3 0 0 1-4.243-4.243l1.329-1.328Z" clip-rule="evenodd"/>
</svg>
