<svg width="32" height="32" fill="none" viewBox="0 0 32 32" xmlns="http://www.w3.org/2000/svg">
  <path fill="currentColor" d="M19.02 22.23c2.74 1.2 5.55 2.7 5.55 5.63 0 .83.01 1.18.01 1.18H.92V27.9C.91 25.12 4.77 23.19 7.5 22c2.73-1.19 3-1.93 3-4.08 0-.59-.173-.823-.395-1.124-.268-.364-.608-.825-.805-2.126-.047-.385-.19-.47-.355-.566-.254-.15-.56-.329-.645-1.694 0-.89.4-1.11.4-1.11s-.2-1.34-.29-2.34a4.13 4.13 0 0 1 1.6-3.39 11.6 11.6 0 0 0 1.01-.867c.978-.91 1.892-1.759 4.07-1.653-1.31.71-1.02 1.41-.6 1.86a4 4 0 0 1 3 4c-.08 1.02-.28 2.35-.28 2.35s.4.22.4 1.11c-.067 1.375-.363 1.543-.622 1.69-.165.093-.315.178-.378.57-.197 1.294-.536 1.756-.804 2.12-.223.304-.396.54-.396 1.13 0 2.15.87 3.15 3.61 4.35Z"/>
  <path fill="currentColor" d="M27.08 20.33c-1.48-.6-2.09-1.31-2.09-2.7 0-.382.114-.534.26-.73.176-.237.4-.536.53-1.37.039-.246.136-.3.245-.36.17-.095.37-.206.425-1.09 0-.58-.26-.72-.26-.72s.13-.86.18-1.52a3 3 0 0 0-5.91 0c.06.66.19 1.52.19 1.52s-.26.14-.26.72c.055.877.254.99.424 1.086.11.062.207.118.246.364.131.842.355 1.14.53 1.374.147.195.26.345.26.726 0 1.39-.58 2-2.36 2.81l-.24.13c2.14.93 5.51 2.54 6.3 5.82H29v-3a2.86 2.86 0 0 0-1.92-3.06Z"/>
</svg>
