<svg width="16" height="16" fill="none" viewBox="0 0 16 16" xmlns="http://www.w3.org/2000/svg">
  <path fill="currentColor" d="M8 4a2 2 0 1 1 0-4 2 2 0 0 1 0 4Zm4.5 1a1.5 1.5 0 1 1 0-3 1.5 1.5 0 0 1 0 3Zm-9 0a1.5 1.5 0 1 1 0-3 1.5 1.5 0 0 1 0 3Zm6.118 6-.428 4.547a.5.5 0 0 1-.498.453H7.308a.5.5 0 0 1-.498-.453L6.382 11l-.684-.531a1 1 0 0 1-.383-.705L5.05 6.627A1.5 1.5 0 0 1 6.544 5h2.912a1.5 1.5 0 0 1 1.495 1.627l-.266 3.137a1 1 0 0 1-.383.705L9.618 11ZM11 16l.443-4.91.834-.675a1 1 0 0 0 .367-.696L12.947 6h.512a1.5 1.5 0 0 1 1.493 1.644l-.298 3.091a1 1 0 0 1-.43.73l-.78.535-.476 3.566a.5.5 0 0 1-.496.434H11Zm-7.513 0h1.472l-.443-4.91-.835-.675a1 1 0 0 1-.367-.696L3.012 6H2.5a1.5 1.5 0 0 0-1.493 1.644l.297 3.091a1 1 0 0 0 .43.73l.782.535.475 3.566a.5.5 0 0 0 .496.434Z"/>
</svg>
