<svg width="24" height="24" fill="none" viewBox="0 0 24 24" xmlns="http://www.w3.org/2000/svg">
  <path fill="currentColor" d="M12 10a1 1 0 0 1 1 1v2a1 1 0 1 1-2 0v-2a1 1 0 0 1 1-1Zm-4 5a1 1 0 0 1 1 1v1a1 1 0 1 1-2 0v-1a1 1 0 0 1 1-1Zm8 0a1 1 0 0 1 1 1v1a1 1 0 1 1-2 0v-1a1 1 0 0 1 1-1Zm0-4a1 1 0 0 1 1 1v1a1 1 0 1 1-2 0v-1a1 1 0 0 1 1-1Zm-8 0a1 1 0 0 1 1 1v1a1 1 0 1 1-2 0v-1a1 1 0 0 1 1-1Z"/>
  <path fill="currentColor" d="M21 19v-6.48l.426.3a1 1 0 0 0 1.147-1.64L19 8.68V6a1 1 0 1 0-2 0v1.28l-4.427-3.1a1 1 0 0 0-1.147 0l-10 7a1 1 0 1 0 1.147 1.64l.427-.3V19H2a1 1 0 1 0 0 2h20a1 1 0 1 0 0-2h-1ZM12 6.22l7 4.9V19h-6v-3a1 1 0 1 0-2 0v3H5v-7.88l7-4.9Z" clip-rule="evenodd"/>
</svg>
