<svg width="16" height="16" fill="none" viewBox="0 0 16 16" xmlns="http://www.w3.org/2000/svg">
  <path fill="currentColor" d="M8.614 2.325a1 1 0 0 0-1.228 0L.333 7.81c-.563.44-.253 1.342.46 1.342H1.5V14.5a.5.5 0 0 0 .5.5h5v-3a1 1 0 1 1 2 0v3h5a.5.5 0 0 0 .5-.5V9.152h.706c.714 0 1.024-.903.46-1.342L13 5.737V4a1 1 0 1 0-2 0v.181L8.614 2.325ZM7 7a1 1 0 0 1 2 0v1a1 1 0 0 1-2 0V7ZM4.5 9a1 1 0 0 0-1 1v1a1 1 0 1 0 2 0v-1a1 1 0 0 0-1-1Zm6 1a1 1 0 1 1 2 0v1a1 1 0 1 1-2 0v-1Z" clip-rule="evenodd"/>
</svg>
