<svg width="24" height="24" fill="none" viewBox="0 0 24 24" xmlns="http://www.w3.org/2000/svg">
  <path fill="currentColor" d="M13.183 2.692a2 2 0 0 0-2.366 0L.463 10.285c-.78.572-.375 1.807.592 1.807H3V20a1 1 0 0 0 1 1h7v-4a1 1 0 1 1 2 0v4h7a1 1 0 0 0 1-1v-7.908h1.945c.967 0 1.371-1.235.592-1.807L19 6.958V4a1 1 0 1 0-2 0v1.492l-3.817-2.8ZM6 10a1 1 0 0 1 2 0v2a1 1 0 1 1-2 0v-2Zm6-3a1 1 0 0 0-1 1v3a1 1 0 1 0 2 0V8a1 1 0 0 0-1-1Zm-6 9a1 1 0 1 1 2 0v2a1 1 0 1 1-2 0v-2Zm11-1a1 1 0 0 0-1 1v2a1 1 0 1 0 2 0v-2a1 1 0 0 0-1-1Zm-1-5a1 1 0 1 1 2 0v2a1 1 0 1 1-2 0v-2Z" clip-rule="evenodd"/>
</svg>
