<svg width="24" height="24" fill="none" viewBox="0 0 24 24" xmlns="http://www.w3.org/2000/svg">
  <path fill="currentColor" d="m13.291 11.291.002-.002 2.996-2.995a1.002 1.002 0 0 1 1.417 1.417l-2.995 2.995-.002.003a3 3 0 1 1-1.417-1.417ZM12 15a1 1 0 1 0 0-2 1 1 0 0 0 0 2Z" clip-rule="evenodd"/>
  <path fill="currentColor" d="M9.58 21c-.373.515-.953 1-1.58 1H5.333C2.914 22 1 17.415 1 12.692 1 6.65 5.744 2 12 2s11 4.65 11 10.692C23 17.415 21.085 22 18.667 22H16c-.626 0-1.206-.485-1.58-1H9.58ZM13 4.048c4.648.452 8 4.04 8 8.644 0 .103-.001.206-.003.308H20a1 1 0 1 0 0 2h.82c-.423 2.77-1.493 5-2.153 5h-2.454a1.763 1.763 0 0 1-.086-.1 3.586 3.586 0 0 1-.104-.141c-.054-.076-.094-.133-.079-.088A1 1 0 0 0 15 19H9a1 1 0 0 0-.946.675c.016-.047-.024.01-.08.087a1.768 1.768 0 0 1-.187.238H5.334c-.66 0-1.73-2.23-2.153-5H4a1 1 0 1 0 0-2h-.997A14.134 14.134 0 0 1 3 12.692c0-1.816.522-3.474 1.438-4.844l.86.86a.997.997 0 0 0 1.41-1.41l-.967-.966C7.116 5.073 8.93 4.249 11 4.048V5a1 1 0 1 0 2 0v-.952Z" clip-rule="evenodd"/>
</svg>
