<svg width="32" height="32" fill="none" viewBox="0 0 32 32" xmlns="http://www.w3.org/2000/svg">
  <path fill="currentColor" d="M16 12.94c6.63 0 12-2.44 12-5.47S22.63 2 16 2 4 4.45 4 7.47c0 3.02 5.37 5.47 12 5.47Z"/>
  <path fill="currentColor" d="M28 13.16V9c0 1.66-1.61 3.13-4.15 4.14a9.91 9.91 0 0 1 3.79 1.36c.229-.41.353-.87.36-1.34ZM17.48 14.4a11.09 11.09 0 0 0-3.93 4.11C8.1 18 4 15.8 4 13.11V8.92c0 3.03 5.37 5.48 12 5.48h1.48Z"/>
  <path fill="currentColor" d="M12.84 19.94A12.55 12.55 0 0 0 12 24c-4.65-.75-8-2.77-8.02-5.16v-4.18c0 2.53 3.76 4.65 8.86 5.28ZM22.5 19a2.5 2.5 0 1 0 0-5 2.5 2.5 0 0 0 0 5ZM18 27.5a2.5 2.5 0 1 1-5 0 2.5 2.5 0 0 1 5 0Z"/>
  <path fill="currentColor" d="M12.17 26.48c-.05-.32-.1-.64-.12-1-4.69-.75-8-2.78-8-5.17v4.19c0 2.53 3.77 4.65 8.88 5.27a3.46 3.46 0 0 1-.88-2.3 3.41 3.41 0 0 1 .12-.99Zm13.55-8.62c.184-.43.28-.892.28-1.36a3.494 3.494 0 0 0-.11-.79 8.52 8.52 0 0 1 5.1 7.79v.83a3.43 3.43 0 0 0-1.46-.33 4.753 4.753 0 0 0-.53.05c.01-.183.01-.367 0-.55a6.51 6.51 0 0 0-3.28-5.64Zm.53 10.94a6.46 6.46 0 0 1-7.5 0 3.48 3.48 0 0 1-1.25 1.56 8.44 8.44 0 0 0 10 0 3.48 3.48 0 0 1-1.25-1.56ZM19 16.5c0 .468.096.93.28 1.36a6.51 6.51 0 0 0-3.29 5.64c-.01.183-.01.367 0 .55a4.753 4.753 0 0 0-.53-.05 3.43 3.43 0 0 0-1.46.33v-.83a8.52 8.52 0 0 1 5.1-7.79 3.488 3.488 0 0 0-.1.79ZM29.5 30a2.5 2.5 0 1 0 0-5 2.5 2.5 0 0 0 0 5ZM25 23.5a2.5 2.5 0 1 1-5 0 2.5 2.5 0 0 1 5 0Z"/>
</svg>
