<svg width="32" height="32" fill="none" viewBox="0 0 32 32" xmlns="http://www.w3.org/2000/svg">
  <path fill="currentColor" d="M28 7.47c0 3.021-5.373 5.47-12 5.47S4 10.49 4 7.47 9.373 2 16 2s12 2.449 12 5.47Z"/>
  <path fill="currentColor" d="M28 9v4.16c-.007.47-.131.93-.36 1.34a9.91 9.91 0 0 0-3.79-1.36C26.39 12.13 28 10.66 28 9Zm-14.45 9.51a11.09 11.09 0 0 1 3.93-4.11H16c-6.63 0-12-2.45-12-5.48v4.19c0 2.69 4.1 4.89 9.55 5.4Z"/>
  <path fill="currentColor" d="M12 24a12.55 12.55 0 0 1 .84-4.06c-5.1-.63-8.86-2.75-8.86-5.28v4.18C4 21.23 7.35 23.25 12 24Z"/>
  <path fill="currentColor" d="M4 24.53v-4.19c0 2.39 3.36 4.42 8.05 5.17a12.08 12.08 0 0 0 1.16 4.34C7.93 29.27 4 27.11 4 24.53ZM22.5 19a2.5 2.5 0 1 0 0-5 2.5 2.5 0 0 0 0 5ZM18 27.5a2.5 2.5 0 1 1-5 0 2.5 2.5 0 0 1 5 0Zm8-11c0 .468-.096.93-.28 1.36A6.51 6.51 0 0 1 29 23.5c.01.183.01.367 0 .55.176-.027.352-.043.53-.05a3.43 3.43 0 0 1 1.46.33v-.83a8.52 8.52 0 0 0-5.1-7.79c.067.258.104.523.11.79ZM22.5 30a6.46 6.46 0 0 0 3.75-1.2 3.48 3.48 0 0 0 1.25 1.56 8.44 8.44 0 0 1-10 0 3.48 3.48 0 0 0 1.25-1.56A6.46 6.46 0 0 0 22.5 30Zm-3.22-12.14A3.451 3.451 0 0 1 19 16.5a3.51 3.51 0 0 1 .1-.79A8.52 8.52 0 0 0 14 23.5v.83a3.43 3.43 0 0 1 1.46-.33c.177.007.354.023.53.05a4.947 4.947 0 0 1 0-.55 6.51 6.51 0 0 1 3.29-5.64ZM32 27.5a2.5 2.5 0 1 1-5 0 2.5 2.5 0 0 1 5 0Z"/>
</svg>
