<svg width="24" height="24" fill="none" viewBox="0 0 24 24" xmlns="http://www.w3.org/2000/svg">
  <path fill="currentColor" d="M3 20a1 1 0 1 1 0 2 1 1 0 0 1 0-2Z"/>
  <path fill="currentColor" d="M22 5a3 3 0 0 0-3-3H5a3 3 0 0 0-3 3v6.053c0 .531.46.942.99.947H3a9 9 0 0 1 9 9c0 .535.412 1 .947 1H19a3 3 0 0 0 3-3V5Zm-8.045 15H19a1 1 0 0 0 1-1V5a1 1 0 0 0-1-1H5a1 1 0 0 0-1 1v5.045A11.003 11.003 0 0 1 13.955 20Z" clip-rule="evenodd"/>
  <path fill="currentColor" d="M8.997 21.195c-.015.467-.422.805-.89.805h-.222C7.373 22 7 21.512 7 21a4 4 0 0 0-4-4c-.512 0-1-.373-1-.885v-.223c0-.467.338-.874.805-.889a6 6 0 0 1 6.192 6.192Z"/>
</svg>
