<svg width="24" height="24" fill="none" viewBox="0 0 24 24" xmlns="http://www.w3.org/2000/svg">
  <path fill="currentColor" d="M2 15V5.3A2.3 2.3 0 0 1 4.3 3h15.4A2.3 2.3 0 0 1 22 5.3V15a1 1 0 1 1-2 0V5.3a.3.3 0 0 0-.3-.3H4.3a.3.3 0 0 0-.3.3V15a1 1 0 1 1-2 0Zm-2 3v1.5A1.5 1.5 0 0 0 1.5 21h21a1.5 1.5 0 0 0 1.5-1.5V18h-8a1 1 0 0 1-1 1H9a1 1 0 0 1-1-1H0Z"/>
  <path fill="currentColor" d="M11.429 6.5H8v3.429h3.429V6.5Zm0 4.571H8V14.5h3.429v-3.429ZM16 6.5h-3.429v3.429H16V6.5Zm0 4.571h-3.429V14.5H16v-3.429Z"/>
</svg>
