<svg width="24" height="24" fill="none" viewBox="0 0 24 24" xmlns="http://www.w3.org/2000/svg">
  <path fill="currentColor" d="M21 6v12a4 4 0 0 1-4 4H7a4 4 0 0 1-4-4v-2.5c0-.818.393-1.544 1-2V12a2.496 2.496 0 0 1-1-2v-.61c0-.707.24-1.392.682-1.944l3.156-3.945A4 4 0 0 1 9.96 2H17a4 4 0 0 1 4 4Zm-2 0a2 2 0 0 0-2-2H9.961a2 2 0 0 0-1.561.75L5.243 8.697A1.11 1.11 0 0 0 5 9.39V10a.5.5 0 0 0 .5.5.5.5 0 0 1 .5.5v3.5a.5.5 0 0 1-.5.5.5.5 0 0 0-.5.5V18a2 2 0 0 0 2 2h10a2 2 0 0 0 2-2V6Z" clip-rule="evenodd"/>
  <path fill="currentColor" d="M16 16a1 1 0 1 1 0 2H8a1 1 0 1 1 0-2h8Zm1-7a1 1 0 1 1-2 0V7a1 1 0 1 1 2 0v2Zm-3 0a1 1 0 1 1-2 0V7a1 1 0 1 1 2 0v2Zm-3 0a1 1 0 1 1-2 0V7a1 1 0 0 1 2 0v2Z"/>
</svg>
