<svg width="24" height="24" fill="none" viewBox="0 0 24 24" xmlns="http://www.w3.org/2000/svg">
  <path fill="currentColor" d="M8 6h3.429v3.429H8V6Zm0 4.571h3.429V14H8v-3.429ZM16 6h-3.429v3.429H16V6Zm-3.429 4.571H16V14h-3.429v-3.429Z"/>
  <path fill="currentColor" d="M3.503 18H11v2H8.997C8.453 20 8 20.448 8 21c0 .556.446 1 .997 1h6.006c.544 0 .997-.448.997-1 0-.556-.446-1-.997-1H13v-2h7.497c.838 0 1.503-.669 1.503-1.493V3.493C22 2.663 21.327 2 20.497 2H3.503C2.665 2 2 2.668 2 3.493v13.014C2 17.337 2.673 18 3.503 18ZM20 4v12H4V4h16Z" clip-rule="evenodd"/>
</svg>
