<svg width="24" height="24" fill="none" viewBox="0 0 24 24" xmlns="http://www.w3.org/2000/svg">
  <path fill="currentColor" d="M13.59 5c.079.545-.138 1.079-.423 1.457-.306.406-.831.72-1.34.702-.093-.52.146-1.059.434-1.421.319-.398.863-.705 1.33-.738Z"/>
  <path fill="currentColor" d="M15.322 12.705c.278-.41.381-.618.598-1.083-1.572-.577-1.824-2.73-.269-3.556-.475-.574-1.14-.906-1.77-.906-.455 0-.766.114-1.049.218-.235.087-.45.166-.713.166-.283 0-.534-.087-.797-.178-.29-.1-.593-.205-.97-.205-.707 0-1.46.417-1.935 1.127-.672 1.001-.557 2.883.53 4.489.389.572.908 1.217 1.587 1.223.281.003.469-.078.672-.165.232-.1.484-.21.921-.211.441-.004.69.107.92.209.197.087.38.168.659.166.678-.005 1.227-.72 1.616-1.294Z"/>
  <path fill="currentColor" d="M3.503 18H11v2H8.997C8.453 20 8 20.448 8 21c0 .556.446 1 .997 1h6.006c.544 0 .997-.448.997-1 0-.556-.446-1-.997-1H13v-2h7.497c.838 0 1.503-.669 1.503-1.493V3.493C22 2.663 21.327 2 20.497 2H3.503C2.665 2 2 2.668 2 3.493v13.014C2 17.337 2.673 18 3.503 18ZM20 4v12H4V4h16Z" clip-rule="evenodd"/>
</svg>
