<svg width="24" height="24" fill="none" viewBox="0 0 24 24" xmlns="http://www.w3.org/2000/svg">
  <path fill="currentColor" d="M17 10a1 1 0 1 1 0 2 1 1 0 0 1 0-2Zm0 7a1 1 0 1 1 0 2 1 1 0 0 1 0-2Z"/>
  <path fill="currentColor" d="M3 5c0-1.291.9-2.077 1.43-2.436.601-.406 1.339-.692 2.07-.901C7.993 1.237 9.936 1 12 1s4.008.237 5.5.663c.731.209 1.469.495 2.07.901C20.1 2.923 21 3.71 21 5v14c0 .803-.438 1.448-.965 1.916-.53.469-1.238.846-2.027 1.142-1.586.595-3.71.942-6.008.942-2.297 0-4.422-.348-6.008-.942-.79-.296-1.498-.673-2.027-1.142C3.437 20.448 3 19.803 3 19V5Zm9 4c2.065 0 4.008-.237 5.5-.663a8.572 8.572 0 0 0 1.5-.57V12c0 .025-.01.17-.292.42-.28.248-.744.518-1.402.765-1.31.49-3.185.815-5.306.815s-3.997-.324-5.306-.815c-.658-.247-1.121-.517-1.402-.766C5.01 12.17 5 12.025 5 12V7.768c.47.237.987.422 1.5.57C7.993 8.762 9.936 9 12 9ZM5 5c0-1.105 3.134-2 7-2s7 .895 7 2-3.134 2-7 2-7-.895-7-2Zm0 9.616V19c0 .026.01.17.292.42.28.248.744.518 1.402.765C8.004 20.675 9.88 21 12 21s3.997-.324 5.306-.815c.658-.247 1.121-.517 1.402-.765.282-.25.292-.395.292-.42v-4.384c-.31.164-.643.31-.992.442-1.586.595-3.71.942-6.008.942-2.297 0-4.422-.348-6.008-.942A8.518 8.518 0 0 1 5 14.616Z" clip-rule="evenodd"/>
</svg>
