<svg width="24" height="24" fill="none" viewBox="0 0 24 24" xmlns="http://www.w3.org/2000/svg">
  <path fill="currentColor" d="M13 4a1 1 0 1 1 0 2h-2a1 1 0 1 1 0-2h2Zm.167 4.957c.285-.378.502-.912.424-1.457-.467.033-1.011.34-1.33.738-.288.362-.527.9-.434 1.421.509.017 1.034-.296 1.34-.702Z"/>
  <path fill="currentColor" d="M15.92 14.122c-.217.465-.32.672-.598 1.083-.39.574-.938 1.29-1.616 1.294-.279.002-.462-.079-.66-.166a1.972 1.972 0 0 0-.919-.21 2.106 2.106 0 0 0-.921.211c-.203.088-.39.169-.672.166-.679-.006-1.198-.65-1.587-1.223-1.087-1.606-1.202-3.488-.53-4.489.475-.71 1.228-1.127 1.935-1.127.377 0 .68.105.97.205.263.091.514.178.797.178.262 0 .478-.079.713-.166.283-.104.594-.218 1.049-.218.63 0 1.295.332 1.77.906-1.555.826-1.303 2.98.269 3.556Z"/>
  <path fill="currentColor" d="M21 5v14a4 4 0 0 1-4 4H7a4 4 0 0 1-4-4V5a4 4 0 0 1 4-4h10a4 4 0 0 1 4 4Zm-2 0a2 2 0 0 0-2-2H7a2 2 0 0 0-2 2v14a2 2 0 0 0 2 2h10a2 2 0 0 0 2-2V5Z" clip-rule="evenodd"/>
</svg>
