<svg width="24" height="24" fill="none" viewBox="0 0 24 24" xmlns="http://www.w3.org/2000/svg">
  <path fill="currentColor" d="M7 8.17V3.5A2.5 2.5 0 0 1 9.5 1h5A2.5 2.5 0 0 1 17 3.5v4.67c1.165.413 2 1.524 2 2.83v9a3 3 0 0 1-3 3H8a3 3 0 0 1-3-3v-9c0-1.306.835-2.417 2-2.83ZM15 8V3.5a.5.5 0 0 0-.5-.5h-5a.5.5 0 0 0-.5.5V8h6Zm-7 2a1 1 0 0 0-1 1v9a1 1 0 0 0 1 1h8a1 1 0 0 0 1-1v-9a1 1 0 0 0-1-1H8Z" clip-rule="evenodd"/>
  <path fill="currentColor" d="M14 4a.5.5 0 0 1 0 1h-1a.5.5 0 0 1 0-1h1Zm-3 0a.5.5 0 0 1 0 1h-1a.5.5 0 0 1 0-1h1Z"/>
  <path fill="currentColor" d="M12 11a1 1 0 0 1 1 1v1.882l1-.5V12.5a1 1 0 1 1 2 0V14a1 1 0 0 1-.553.894L13 16.118V19a1 1 0 1 1-2 0v-.465l-2.555-1.703A1 1 0 0 1 8 16v-1.5a1 1 0 1 1 2 0v.965l1 .666V12a1 1 0 0 1 1-1Z" clip-rule="evenodd"/>
</svg>
