<svg width="24" height="24" fill="none" viewBox="0 0 24 24" xmlns="http://www.w3.org/2000/svg">
  <path fill="currentColor" d="M14 9.5a1 1 0 1 0 0 2h3a1 1 0 1 0 0-2h-3Z"/>
  <path fill="currentColor" d="M6 6V4.1C6 2.94 6.94 2 8.1 2h7.8c1.16 0 2.1.94 2.1 2.1V6h1.98A2.02 2.02 0 0 1 22 8.02v7.96A2.02 2.02 0 0 1 19.98 18H18v1.9a2.1 2.1 0 0 1-2.1 2.1H8.1A2.1 2.1 0 0 1 6 19.9V18H4.02A2.02 2.02 0 0 1 2 15.98V8.02A2.02 2.02 0 0 1 4.02 6H6Zm13.98 10H18v-3H6v3H4.02a.02.02 0 0 1-.02-.02V8.02A.02.02 0 0 1 4.02 8h15.96a.02.02 0 0 1 .02.02v7.96a.02.02 0 0 1-.02.02ZM16 4.1V6H8V4.1a.1.1 0 0 1 .1-.1h7.8a.1.1 0 0 1 .1.1ZM8 15v4.9a.1.1 0 0 0 .1.1h7.8a.1.1 0 0 0 .1-.1V15H8Z" clip-rule="evenodd"/>
</svg>
