<svg width="24" height="24" fill="none" viewBox="0 0 24 24" xmlns="http://www.w3.org/2000/svg">
  <path fill="currentColor" d="M6.5 6h11A2.5 2.5 0 0 1 20 8.5V15a8 8 0 1 1-16 0V8.5A2.5 2.5 0 0 1 6.5 6Zm0 2a.5.5 0 0 0-.5.5V15a6 6 0 0 0 12 0V8.5a.5.5 0 0 0-.5-.5h-11Z" clip-rule="evenodd"/>
  <path fill="currentColor" d="M12 19a4 4 0 1 1 0-8 4 4 0 0 1 0 8Zm0-6a2 2 0 1 0 0 4 2 2 0 0 0 0-4Z" clip-rule="evenodd"/>
  <path fill="currentColor" d="M11 15a1 1 0 1 1 2 0 1 1 0 0 1-2 0ZM3 1a1 1 0 0 0 0 2h6a2 2 0 0 0 2 2h2a2 2 0 0 0 2-2h6a1 1 0 1 0 0-2H3Z"/>
</svg>
