<svg width="24" height="24" fill="none" viewBox="0 0 24 24" xmlns="http://www.w3.org/2000/svg">
  <path fill="currentColor" d="M7.83 7.132a.475.475 0 0 0-.129.351.47.47 0 0 0 .136.359c.09.083.21.125.358.125a.493.493 0 0 0 .348-.125.47.47 0 0 0 .135-.359.468.468 0 0 0-.132-.351A.475.475 0 0 0 8.195 7a.493.493 0 0 0-.365.132Zm-.092 5.101h.9V8.467h-.9v3.766ZM5 7.29v4.943h2.194v-.804H5.92V7.29H5Zm6.285 4.943V9.99c0-.273-.033-.48-.098-.619-.066-.14-.171-.21-.318-.21-.194 0-.336.097-.426.291-.09.192-.135.516-.135.974v1.808h-.9V8.467h.714l.108.484h.058a.945.945 0 0 1 .348-.406.945.945 0 0 1 .53-.149c.343 0 .599.117.768.352.171.234.257.577.257 1.028v2.457h-.906Zm3.557-.483.111.483h.72V8.467h-.91v1.806c0 .457-.044.783-.134.977-.088.194-.23.29-.423.29-.146 0-.252-.07-.318-.21-.065-.139-.098-.346-.098-.621V8.467h-.91v2.458c0 .458.087.801.261 1.031.174.23.43.345.768.345a.966.966 0 0 0 .527-.145.979.979 0 0 0 .358-.406h.048Zm2.234-1.44-.94-1.843h.934l.5 1.15.463-1.15h.926l-.946 1.843.987 1.923h-.94l-.534-1.203-.497 1.204h-.936l.983-1.924Z"/>
  <path fill="currentColor" d="M3.503 18H11v2H8.997C8.453 20 8 20.448 8 21c0 .556.446 1 .997 1h6.006c.544 0 .997-.448.997-1 0-.556-.446-1-.997-1H13v-2h7.497c.838 0 1.503-.669 1.503-1.493V3.493C22 2.663 21.327 2 20.497 2H3.503C2.665 2 2 2.668 2 3.493v13.014C2 17.337 2.673 18 3.503 18ZM20 4v12H4V4h16Z" clip-rule="evenodd"/>
</svg>
