<svg width="24" height="24" fill="none" viewBox="0 0 24 24" xmlns="http://www.w3.org/2000/svg">
  <path fill="currentColor" d="M8.045 3h7.91a4 4 0 0 1 3.738 2.576l2.045 5.368A4 4 0 0 1 22 12.368V17a4 4 0 0 1-4 4H6a4 4 0 0 1-4-4v-4.632a4 4 0 0 1 .262-1.424l2.045-5.368A4 4 0 0 1 8.045 3Zm7.91 2a2 2 0 0 1 1.869 1.288l2.045 5.368a2 2 0 0 1 .131.712V17a2 2 0 0 1-2 2H6a2 2 0 0 1-2-2v-4.632a2 2 0 0 1 .131-.712l2.045-5.368A2 2 0 0 1 8.045 5h7.91Z" clip-rule="evenodd"/>
  <path fill="currentColor" d="M5 12a1 1 0 0 1 1-1h12a1 1 0 1 1 0 2H6a1 1 0 0 1-1-1Zm0 3.5a1 1 0 1 1 2 0v1a1 1 0 1 1-2 0v-1Zm3 0a1 1 0 1 1 2 0v1a1 1 0 1 1-2 0v-1Zm3 0a1 1 0 1 1 2 0v1a1 1 0 1 1-2 0v-1Zm3 0a1 1 0 1 1 2 0v1a1 1 0 1 1-2 0v-1Zm3 0a1 1 0 1 1 2 0v1a1 1 0 1 1-2 0v-1Z"/>
</svg>
