<svg width="24" height="24" fill="none" viewBox="0 0 24 24" xmlns="http://www.w3.org/2000/svg">
  <path fill="currentColor" d="M4 6c0-1.291.9-2.077 1.43-2.436.601-.406 1.339-.692 2.07-.901C8.993 2.237 9.936 2 12 2c1.065 0 3.008.237 4.5.663.731.209 1.469.495 2.07.901C19.1 3.923 20 4.71 20 6v8c0 .803-.438 1.448-.965 1.916-.53.469-1.238.846-2.027 1.142-1.225.459-2.77.77-4.008.889V20h4a1 1 0 1 1 0 2H7a1 1 0 1 1 0-2h4v-2.025c-1.661-.09-2.67-.416-4.008-.917-.79-.296-1.498-.673-2.027-1.142C4.437 15.448 4 14.803 4 14V6Zm8 10c1.121 0 2.997-.324 4.306-.815.658-.247 1.121-.517 1.402-.766.282-.25.292-.394.292-.419v-1.384c-.31.164-.643.31-.992.442-1.586.595-3.71.942-5.008.942-2.297 0-3.422-.348-5.008-.942A8.518 8.518 0 0 1 6 12.616V14c0 .025.01.17.292.42.28.248.744.518 1.402.765C9.004 15.675 9.88 16 12 16Zm0-6c1.065 0 3.008-.237 4.5-.663a8.572 8.572 0 0 0 1.5-.57V10c0 .025-.01.17-.292.42-.28.248-.744.518-1.402.765-1.31.49-3.185.815-4.306.815-2.121 0-2.997-.324-4.306-.815-.658-.247-1.121-.517-1.402-.766C6.01 10.17 6 10.025 6 10V8.768c.47.237.987.422 1.5.57C8.993 9.762 9.936 10 12 10ZM6 6c0-1.105 2.134-2 6-2 2.866 0 6 .895 6 2s-3.134 2-6 2c-3.866 0-6-.895-6-2Z" clip-rule="evenodd"/>
</svg>
