<svg width="24" height="24" fill="none" viewBox="0 0 24 24" xmlns="http://www.w3.org/2000/svg">
  <path fill="currentColor" d="M17 17a1 1 0 1 1 2 0 1 1 0 0 1-2 0Z"/>
  <path fill="currentColor" d="M15.5 2h5A2.5 2.5 0 0 1 23 4.5v15a2.5 2.5 0 0 1-2.5 2.5h-5a2.5 2.5 0 0 1-2.5-2.5V18h-2v1a1 1 0 0 0 1 1 1 1 0 1 1 0 2H8a1 1 0 1 1 0-2 1 1 0 0 0 1-1v-1H3.5A2.5 2.5 0 0 1 1 15.5v-9A2.5 2.5 0 0 1 3.5 4h9.55a2.5 2.5 0 0 1 2.45-2ZM15 4.5v15a.5.5 0 0 0 .5.5h5a.5.5 0 0 0 .5-.5v-15a.5.5 0 0 0-.5-.5h-5a.5.5 0 0 0-.5.5ZM13 16V6H3.5a.5.5 0 0 0-.5.5v9a.5.5 0 0 0 .5.5H13Z" clip-rule="evenodd"/>
</svg>
