<svg width="24" height="24" fill="none" viewBox="0 0 24 24" xmlns="http://www.w3.org/2000/svg">
  <path fill="currentColor" d="M3 12a9 9 0 1 0 18 0 9 9 0 0 0-18 0Zm9-11C5.925 1 1 5.925 1 12s4.925 11 11 11 11-4.925 11-11S18.075 1 12 1Z" clip-rule="evenodd"/>
  <path fill="currentColor" d="M11.28 14.43a.596.596 0 0 1-.586-.582c.003-.69.088-.805.21-1.213.125-.408.302-.736.53-.984.228-.252.506-.482.834-.692a3.88 3.88 0 0 0 .602-.475c.18-.175.323-.37.426-.583.103-.217.154-.46.154-.727 0-.3-.068-.562-.204-.783a1.405 1.405 0 0 0-.552-.515 1.603 1.603 0 0 0-.768-.183c-.262 0-.51.06-.746.177-.232.115-.425.29-.58.527-.283.435-.652.886-1.158.886h-.04c-.56 0-1.033-.488-.87-1.043a2.94 2.94 0 0 1 .355-.776 3.032 3.032 0 0 1 1.282-1.098A4.203 4.203 0 0 1 11.937 6c.703 0 1.322.128 1.856.383.538.256.956.62 1.254 1.093.302.469.453 1.025.453 1.67 0 .435-.068.823-.204 1.167a2.847 2.847 0 0 1-.57.915 4.17 4.17 0 0 1-.878.715 3.77 3.77 0 0 0-.735.595 1.991 1.991 0 0 0-.42.726c-.088.275-.137.41-.137.584a.574.574 0 0 1-.564.583h-.712Zm.397 3.57c-.331 0-.617-.122-.856-.366a1.226 1.226 0 0 1-.36-.892c0-.344.12-.637.36-.881s.525-.366.856-.366c.328 0 .612.122.85.366a1.2 1.2 0 0 1 .366.88c0 .233-.058.445-.172.636a1.29 1.29 0 0 1-.442.457 1.13 1.13 0 0 1-.602.166Z"/>
</svg>
