<svg width="24" height="24" fill="none" viewBox="0 0 24 24" xmlns="http://www.w3.org/2000/svg">
  <path fill="currentColor" d="M4 7a1 1 0 0 1 2 0v1.833a.833.833 0 0 1-1.333.667A1.667 1.667 0 0 1 4 8.167V7Z"/>
  <path fill="currentColor" d="M11 9.985A6.985 6.985 0 0 0 4.016 3c-1.36 0-2.545.941-2.755 2.285C1.121 6.19 1 7.208 1 8.042c0 2.416 1.844 4.228 4.13 4.828.49.128.87.546.87 1.051v4.912a2.5 2.5 0 0 0 5 0V9.985ZM8 16v-2.964a2 2 0 0 0-1.758-1.986C4.252 10.808 3 9.451 3 8.042c0-.677.102-1.575.238-2.45.046-.294.325-.592.778-.592A4.985 4.985 0 0 1 9 9.985V16H8Zm0 2h1v.833a.5.5 0 1 1-1 0V18Z" clip-rule="evenodd"/>
  <path fill="currentColor" d="M20 6.927a.991.991 0 0 0-1-.982c-.552 0-1 .44-1 .982v1.8c0 .674.784 1.06 1.333.655.42-.31.667-.794.667-1.31V6.928Z"/>
  <path fill="currentColor" d="M13 9.858C13 6.07 16.127 3 19.985 3c1.36 0 2.544.924 2.753 2.244.141.887.262 1.888.262 2.706 0 2.371-1.843 4.15-4.128 4.74-.49.126-.872.544-.872 1.05v4.806C18 19.9 16.88 21 15.5 21S13 19.901 13 18.546V9.857Zm3 5.906v-2.88c0-1.01.755-1.86 1.758-1.98C19.748 10.666 21 9.334 21 7.95c0-.664-.102-1.546-.238-2.404-.046-.29-.325-.582-.777-.582-2.753 0-4.985 2.19-4.985 4.894v5.906h1Zm0 1.963h-1v.819c0 .27.224.49.5.49s.5-.22.5-.49v-.819Z" clip-rule="evenodd"/>
</svg>
