<svg width="24" height="24" fill="none" viewBox="0 0 24 24" xmlns="http://www.w3.org/2000/svg">
  <path fill="currentColor" d="M7.5 7h1.755L12 8.176 14.876 7H16.5v2.496l-1.643.685v-1.38l-2.838 1.195L9.18 8.801v3.745l-1.632.68a4.397 4.397 0 0 1-.049-.656V7Zm.373 7.338A4.504 4.504 0 0 0 12 17c2.485 0 4.5-1.983 4.5-4.43v-1.827l-1.643.685v1.123c0 1.544-1.27 2.795-2.838 2.795a2.84 2.84 0 0 1-2.593-1.655l-1.553.647Z"/>
  <path fill="currentColor" d="M6 2a4 4 0 0 0-4 4v12a4 4 0 0 0 4 4h12a4 4 0 0 0 4-4V6a4 4 0 0 0-4-4H6Zm12 2H6a2 2 0 0 0-2 2v12a2 2 0 0 0 2 2h12a2 2 0 0 0 2-2V6a2 2 0 0 0-2-2Z" clip-rule="evenodd"/>
</svg>
