<svg width="24" height="24" fill="none" viewBox="0 0 24 24" xmlns="http://www.w3.org/2000/svg">
  <path fill="currentColor" d="M14 9.366a1 1 0 0 0 0-1.732l-2.25-1.3a1 1 0 0 0-1.5.867v2.598a1 1 0 0 0 1.5.866L14 9.366ZM6 13a1 1 0 1 0-2 0 1 1 0 0 0 2 0Zm0 3a1 1 0 1 0-2 0 1 1 0 0 0 2 0Zm13-4a1 1 0 1 1 0 2 1 1 0 0 1 0-2Zm0 3a1 1 0 1 1 0 2 1 1 0 0 1 0-2Z"/>
  <path fill="currentColor" d="M7 2a3 3 0 0 0-3 3v4.126C2.275 9.57 1 11.136 1 13v4a3 3 0 0 0 3 3v2a1 1 0 1 0 2 0v-2c.888 0 1.687-.386 2.236-1h7.528c.55.614 1.348 1 2.236 1v2a1 1 0 1 0 2 0v-2a3 3 0 0 0 3-3v-4a4.002 4.002 0 0 0-3-3.874V5a3 3 0 0 0-3-3H7Zm8 11a4.002 4.002 0 0 1 3-3.874V5a1 1 0 0 0-1-1H7a1 1 0 0 0-1 1v4.126c1.725.444 3 2.01 3 3.874h6Zm0 4H9v-2h6v2ZM5 11a2 2 0 0 1 2 2v4a1 1 0 0 1-1 1H4a1 1 0 0 1-1-1v-4a2 2 0 0 1 2-2Zm16 2a2 2 0 1 0-4 0v4a1 1 0 0 0 1 1h2a1 1 0 0 0 1-1v-4Z" clip-rule="evenodd"/>
</svg>
