<svg width="16" height="16" fill="none" viewBox="0 0 16 16" xmlns="http://www.w3.org/2000/svg">
  <path fill="currentColor" d="M9.714 5.714a1.714 1.714 0 0 0-3.428 0v.857h-.857A.429.429 0 0 0 5 7v3.571c0 .237.192.429.429.429h5.142a.429.429 0 0 0 .429-.429V7a.429.429 0 0 0-.429-.429h-.857v-.857Zm-2.14 2.522a.429.429 0 0 1 .855.05v.857l-.003.05a.429.429 0 0 1-.855-.05v-.857l.003-.05ZM8 4.857a.857.857 0 0 0-.857.857v.857h1.714v-.857A.857.857 0 0 0 8 4.857Z" clip-rule="evenodd"/>
  <path fill="currentColor" d="M8.341 15.94C12.781 14.319 15 12.515 15 10.527V2.732c0-.45-.296-.845-.725-.968l-6-1.725a.994.994 0 0 0-.55 0l-6 1.725A1.005 1.005 0 0 0 1 2.732v7.795c0 1.988 2.22 3.792 6.659 5.413.22.08.462.08.682 0ZM3 3.454 8 2l5 1.454v7.114c0 .825-1.527 2.106-5 3.432-3.473-1.326-5-2.607-5-3.432V3.454Z" clip-rule="evenodd"/>
</svg>
