<svg width="24" height="24" fill="none" viewBox="0 0 24 24" xmlns="http://www.w3.org/2000/svg">
  <path fill="currentColor" d="M4 6a1 1 0 1 0 2 0 1 1 0 0 0-2 0Zm12 1a1 1 0 1 1 0-2 1 1 0 0 1 0 2Zm2-1a1 1 0 1 0 2 0 1 1 0 0 0-2 0Z"/>
  <path fill="currentColor" d="M1.992 2A1 1 0 0 0 1 2.992v18.016a1 1 0 0 0 .992.992H14v-2H3v-4h12.256a4.508 4.508 0 0 1 1.415-2H3v-4h18v3.256a4.51 4.51 0 0 1 2 1.415V2.991A1 1 0 0 0 22.008 2H1.992ZM21 8H3V4h18v4Z" clip-rule="evenodd"/>
  <path fill="currentColor" d="M5 13a1 1 0 1 1 0-2 1 1 0 0 1 0 2Zm7-1a1 1 0 1 0 2 0 1 1 0 0 0-2 0Zm3 0a1 1 0 1 0 2 0 1 1 0 0 0-2 0Zm4 1a1 1 0 1 1 0-2 1 1 0 0 1 0 2ZM4 18a1 1 0 1 0 2 0 1 1 0 0 0-2 0Z"/>
  <path fill="currentColor" d="M17 17.5a2.5 2.5 0 0 1 5 0v1a1 1 0 0 1 1 1v3a1 1 0 0 1-1 1h-5a1 1 0 0 1-1-1v-3a1 1 0 0 1 1-1v-1Zm3.5 0a1 1 0 1 0-2 0v1h2v-1Z" clip-rule="evenodd"/>
</svg>
