<svg width="16" height="16" fill="none" viewBox="0 0 16 16" xmlns="http://www.w3.org/2000/svg">
  <path fill="currentColor" d="M1 1h14a1 1 0 0 1 1 1v6.354A3.99 3.99 0 0 0 13 7h1V3H2v4h11c-1.48 0-2.773.804-3.465 2H2v4h6v2H1a1 1 0 0 1-1-1V2a1 1 0 0 1 1-1Z"/>
  <path fill="currentColor" d="M4 6a1 1 0 1 1 0-2 1 1 0 0 1 0 2Zm5 0a1 1 0 1 1 0-2 1 1 0 0 1 0 2Zm2-1a1 1 0 1 0 2 0 1 1 0 0 0-2 0Zm-7 7a1 1 0 1 1 0-2 1 1 0 0 1 0 2Z"/>
  <path fill="currentColor" d="M11 11a2 2 0 1 1 4 0v1a1 1 0 0 1 1 1v2a1 1 0 0 1-1 1h-4a1 1 0 0 1-1-1v-2a1 1 0 0 1 1-1v-1Zm2.75 0a.75.75 0 0 0-1.5 0v1h1.5v-1Z" clip-rule="evenodd"/>
</svg>
