<svg width="24" height="24" fill="none" viewBox="0 0 24 24" xmlns="http://www.w3.org/2000/svg">
  <path fill="currentColor" d="M11 18H3.503C2.673 18 2 17.336 2 16.507V3.493C2 2.668 2.665 2 3.503 2h16.994C21.327 2 22 2.664 22 3.493v10.265A4.478 4.478 0 0 0 19.5 13a4.481 4.481 0 0 0-2.829 1H4v2h11.256c-.14.399-.227.823-.25 1.264-.306.176-.562.43-.738.736H13v2h1v2H8.997A.996.996 0 0 1 8 21c0-.552.453-1 .997-1H11v-2Zm9-14H4v8h16V4Z" clip-rule="evenodd"/>
  <path fill="currentColor" d="M19.5 15a2.5 2.5 0 0 0-2.5 2.5v1a1 1 0 0 0-1 1v3a1 1 0 0 0 1 1h5a1 1 0 0 0 1-1v-3a1 1 0 0 0-1-1v-1a2.5 2.5 0 0 0-2.5-2.5Zm0 1.5a1 1 0 0 1 1 1v1h-2v-1a1 1 0 0 1 1-1Z" clip-rule="evenodd"/>
</svg>
