<svg width="24" height="24" fill="none" viewBox="0 0 24 24" xmlns="http://www.w3.org/2000/svg">
  <path fill="currentColor" d="M2 2.992A1 1 0 0 1 2.992 2h18.016a1 1 0 0 1 .992.992v18.016a1 1 0 0 1-.992.992H2.992A1 1 0 0 1 2 21.008V2.992ZM20 10h-9v10h9V10ZM4 10v10h5V10H4Zm16-6H4v4h16V4ZM5 6c0-.552.443-1 .999-1h1.002C7.553 5 8 5.444 8 6c0 .552-.443 1-.999 1H5.999A.997.997 0 0 1 5 6Zm0 6c0-.552.443-1 .999-1h1.002c.552 0 .999.444.999 1 0 .552-.443 1-.999 1H5.999A.997.997 0 0 1 5 12Zm0 3c0-.552.443-1 .999-1h1.002c.552 0 .999.444.999 1 0 .552-.443 1-.999 1H5.999A.997.997 0 0 1 5 15Zm.999 2A.997.997 0 0 0 5 18c0 .556.447 1 .999 1h1.002A.997.997 0 0 0 8 18c0-.556-.447-1-.999-1H5.999Zm12.926.062c.145.195.073.45-.161.572-.748.386-1.345.2-1.802-.314-.322.712-.912.762-1.425.204-.339.338-.66.5-1.024.473-.336-.025-.616-.205-.88-.57a4.65 4.65 0 0 1-.895.522c-.243.109-.547.034-.678-.168s-.04-.454.203-.563a3.54 3.54 0 0 0 .93-.596c-.152-.345-.307-.76-.472-1.252-.306-.908.132-1.85.911-2.22 1.021-.483 1.778.245 1.594 1.488-.124.831-.42 1.538-.886 2.113l.049.085c.08.135.153.234.215.297l.015-.012.037-.03a3.24 3.24 0 0 0 .503-.568c.215-.29.736-.255.89.06.025.053.05.1.074.146l.004-.018c.043-.193.085-.33.139-.433a.573.573 0 0 1 .615-.33c.23.023.347.117.466.268.038.049.134.199.21.317.043.066.079.123.094.144.229.328.34.378.585.251.235-.12.543-.06.689.134Zm-4.692-2.525c.057-.382.014-.616-.056-.696l-.005-.005-.003-.003.008.008c0 .005-.01.012-.05.032-.373.176-.628.725-.443 1.274.068.201.134.388.198.56.17-.344.286-.733.351-1.17Z" clip-rule="evenodd"/>
</svg>
