<svg width="24" height="24" fill="none" viewBox="0 0 24 24" xmlns="http://www.w3.org/2000/svg">
  <path fill="currentColor" d="M22 12c0 5.523-4.477 10-10 10S2 17.523 2 12 6.477 2 12 2s10 4.477 10 10Zm-2 0a8 8 0 1 1-16 0 8 8 0 0 1 16 0Z" clip-rule="evenodd"/>
  <path fill="currentColor" d="M13.364 6.525v4.93h1.634a.57.57 0 0 1 .235.05.516.516 0 0 1 .26.7l-3.27 5.495a.55.55 0 0 1-.494.3.536.536 0 0 1-.547-.525v-4.93H9.547a.567.567 0 0 1-.235-.05.516.516 0 0 1-.259-.7l3.27-5.495a.55.55 0 0 1 .494-.3c.302 0 .547.235.547.525Z"/>
</svg>
