<svg width="24" height="24" fill="none" viewBox="0 0 24 24" xmlns="http://www.w3.org/2000/svg">
  <path fill="currentColor" d="M6 5a1 1 0 1 0 0-2 1 1 0 0 0 0 2Zm10-1a1 1 0 1 1-2 0 1 1 0 0 1 2 0Zm-4 1a1 1 0 1 0 0-2 1 1 0 0 0 0 2Z"/>
  <path fill="currentColor" d="M2 1a1 1 0 0 1 1-1h15a1 1 0 0 1 1 1v5h2a1 1 0 0 1 1 1v4.07a7.954 7.954 0 0 0-2-.818V8H7v4h5.708a8.034 8.034 0 0 0-1.638 2H7v4h3c0 .69.088 1.36.252 2H6a1 1 0 0 1-1-1v-5H3a1 1 0 0 1-1-1V1Zm2 5h13V2H4v4Zm1 2H4v4h1V8Z" clip-rule="evenodd"/>
  <path fill="currentColor" d="M9 11a1 1 0 1 0 0-2 1 1 0 0 0 0 2Zm1 5a1 1 0 1 1-2 0 1 1 0 0 1 2 0Z"/>
  <path fill="currentColor" d="M18 24a6 6 0 1 0 0-12 6 6 0 0 0 0 12Zm1-6.586V21a1 1 0 1 1-2 0v-3.586l-1.293 1.293a1 1 0 0 1-1.414-1.414l3-3a1 1 0 0 1 1.414 0l3 3a1 1 0 0 1-1.414 1.414L19 17.414Z" clip-rule="evenodd"/>
</svg>
