<svg width="24" height="24" fill="none" viewBox="0 0 24 24" xmlns="http://www.w3.org/2000/svg">
  <path fill="currentColor" d="M12 2C8.603 2 5.594 4 4.338 6.977 2.324 7.943 1 9.943 1 12.187c0 2.984 2.326 5.461 5.346 5.798l-1.313 3.89a.636.636 0 0 0 .603.84h3.107a.636.636 0 0 0 .603-.434l.78-2.312 2.764 2.58a.64.64 0 0 0 .437.172h.146a.637.637 0 0 0 .589-.84l-1.228-3.637H10.71l1.038-3.075-1.599-4.737A.636.636 0 0 0 9.546 10h3.945-3.993a.637.637 0 0 0-.603.433L7.016 16h-.47C4.575 15.81 3 14.154 3 12.187c0-1.556.99-2.944 2.483-3.529a1 1 0 0 0 .578-.595C6.92 5.658 9.291 4 12 4c2.99 0 5.539 2.014 6.14 4.765a1 1 0 0 0 .623.722C20.106 9.995 21 11.235 21 12.625 21 14.48 19.421 16 17.454 16h-.369l-1.872-5.546a.636.636 0 0 0-.602-.432h-4.45a.636.636 0 0 1 .603.432l3.861 11.443a.638.638 0 0 1-.602.84h4.45a.635.635 0 0 0 .602-.84l-1.318-3.905C20.672 17.84 23 15.503 23 12.625c0-2.059-1.203-3.893-3.035-4.794C18.975 4.419 15.739 2 12 2Z" clip-rule="evenodd"/>
</svg>
