<svg width="16" height="16" fill="none" viewBox="0 0 16 16" xmlns="http://www.w3.org/2000/svg">
  <g fill="currentColor" clip-path="url(#prefix__a)">
    <path d="M7.441.658.996 4.62C.666 4.824.5 5.162.5 5.5v4.25a.75.75 0 0 0 1.5 0V6.997l5.441 3.345c.342.21.776.21 1.118 0l6.445-3.962a1.029 1.029 0 0 0 0-1.76L8.56.658a1.07 1.07 0 0 0-1.118 0Z"/>
    <path d="M3.5 9.959a.25.25 0 0 1 .386-.21L7.47 12.06a.97.97 0 0 0 1.06 0l3.585-2.312a.25.25 0 0 1 .385.21v3.68a.754.754 0 0 1-.201.545c-.437.432-1.654 1.316-4.299 1.316-2.645 0-3.862-.884-4.299-1.316-.143-.141-.201-.341-.201-.545V9.96Z"/>
  </g>
  <defs>
    <clipPath id="prefix__a">
      <path fill="#fff" d="M0 0h16v16H0z"/>
    </clipPath>
  </defs>
</svg>
