<svg width="32" height="32" fill="none" viewBox="0 0 32 32" xmlns="http://www.w3.org/2000/svg">
  <path fill="currentColor" d="M21.784 5H10.216a3 3 0 0 0-2.868 2.118l-3.172 10.31A3.976 3.976 0 0 0 4 18.603V24a3 3 0 0 0 3 3h18a3 3 0 0 0 3-3v-5.398c0-.4-.058-.792-.176-1.173L24.652 7.118A3 3 0 0 0 21.784 5ZM9.304 8.247a1 1 0 0 1 .968-.747h11.456a1 1 0 0 1 .967.747l2.227 8.5A1 1 0 0 1 23.954 18H21.31a.5.5 0 0 0-.447.276l-.724 1.448a.5.5 0 0 1-.447.276H12.31a.5.5 0 0 1-.447-.276l-.724-1.448a.5.5 0 0 0-.447-.276H8.046a1 1 0 0 1-.968-1.253l2.226-8.5Z" clip-rule="evenodd"/>
</svg>
