<svg width="32" height="32" fill="none" viewBox="0 0 32 32" xmlns="http://www.w3.org/2000/svg">
  <path fill="currentColor" d="M10 8v8h2v-5a1 1 0 0 1 1-1h5V8h-8Zm12 4h-2v5a1 1 0 0 1-1 1h-5v2h8v-8Z"/>
  <path fill="currentColor" d="M18 16v-4h-4v4h4Z"/>
  <path fill="currentColor" d="M2 5a2 2 0 0 1 2-2h24a2 2 0 0 1 2 2v18a2 2 0 0 1-2 2h-8l.845 3.379a.5.5 0 0 1-.485.621h-8.72a.5.5 0 0 1-.485-.621L12 25H4a2 2 0 0 1-2-2V5Zm7 13h3v3a1 1 0 0 0 1 1h10a1 1 0 0 0 1-1V11a1 1 0 0 0-1-1h-3V7a1 1 0 0 0-1-1H9a1 1 0 0 0-1 1v10a1 1 0 0 0 1 1Z" clip-rule="evenodd"/>
</svg>
