<svg width="24" height="24" fill="none" viewBox="0 0 24 24" xmlns="http://www.w3.org/2000/svg">
  <path fill="currentColor" d="M21.5 16a.5.5 0 0 1 .5.5v1a.5.5 0 0 1-.5.5H19v1h1.7a.3.3 0 0 1 .3.3v.4a.3.3 0 0 1-.3.3H19v1h2.5a.5.5 0 0 1 .5.5v1a.5.5 0 0 1-.5.5h-4a.5.5 0 0 1-.5-.5v-6a.5.5 0 0 1 .5-.5h4ZM3 2h16a1 1 0 0 1 .993.883L20 3v9a1 1 0 0 1-1.993.117L18 12V4H4v17h9a1 1 0 0 1 .117 1.993L13 23H3a1 1 0 0 1-.993-.883L2 22V3a1 1 0 0 1 .883-.993L3 2Zm5 15a1 1 0 1 1 0 2H7a1 1 0 1 1 0-2h1Zm4-4a1 1 0 1 1 0 2H7a1 1 0 1 1 0-2h5Zm2-3a1 1 0 1 1 0 2H7a1 1 0 1 1 0-2h7ZM9 6a1 1 0 0 1 0 2H7a1 1 0 0 1 0-2h2Z"/>
</svg>
