<svg width="32" height="32" fill="none" viewBox="0 0 32 32" xmlns="http://www.w3.org/2000/svg">
  <path fill="currentColor" d="M16 27H5V5h18v3a1 1 0 1 0 2 0V4a1 1 0 0 0-1-1H4a1 1 0 0 0-1 1v24a1 1 0 0 0 1 1h12a1 1 0 1 0 0-2Z"/>
  <path fill="currentColor" d="M8 8h3a1 1 0 1 1 0 2H8a1 1 0 0 1 0-2Zm16 12a2 2 0 1 1 0-4 2 2 0 0 1 0 4Z"/>
  <path fill="currentColor" d="M20 22.862a1.863 1.863 0 0 0-1.204-.988l-.743-.195a1.41 1.41 0 0 1-.86-2.075l.388-.663c.34-.581.34-1.3 0-1.882l-.388-.663a1.41 1.41 0 0 1 .86-2.075l.743-.194a1.865 1.865 0 0 0 1.33-1.33l.195-.744a1.41 1.41 0 0 1 2.075-.86l.663.388c.581.34 1.3.34 1.882 0l.663-.388a1.41 1.41 0 0 1 2.075.86l.195.743c.17.651.679 1.16 1.33 1.33l.743.195a1.41 1.41 0 0 1 .86 2.075l-.388.663c-.34.581-.34 1.3 0 1.882l.388.663a1.41 1.41 0 0 1-.86 2.075l-.743.195a1.862 1.862 0 0 0-1.204.988V29a1 1 0 0 1-1.6.8L24 28.25l-2.4 1.55A1 1 0 0 1 20 29v-6.138Zm2 2.102V27l1.4-.8a1 1 0 0 1 1.2 0l1.4.8v-2.036a1.456 1.456 0 0 1-.396-.157l-.663-.388c-.581-.34-1.3-.34-1.882 0l-.663.388c-.127.074-.26.126-.396.157ZM28.5 18a4.5 4.5 0 1 1-9 0 4.5 4.5 0 0 1 9 0Z" clip-rule="evenodd"/>
  <path fill="currentColor" d="M10 22H8a1 1 0 1 0 0 2h2a1 1 0 1 0 0-2Zm-2-9h6a1 1 0 1 1 0 2H8a1 1 0 1 1 0-2Zm6 4H8a1 1 0 1 0 0 2h6a1 1 0 1 0 0-2Z"/>
</svg>
