<svg width="16" height="16" fill="none" viewBox="0 0 16 16" xmlns="http://www.w3.org/2000/svg">
  <path fill="currentColor" d="M7.375 4.25c-.844 0-.103 1.136.091 1.445.15-.355.681-1.445-.091-1.445Zm.39 3.47c.263.36.485.652.762.97-.437.114-.828.22-1.276.358.19-.464.353-.866.514-1.328ZM10.5 9.25c.195.14 1.253.8 1.25.13-.002-.623-.945-.237-1.25-.13Zm-4.811 1.36c-.285.067-1.934.471-1.387 1.081.46.54 1.22-.76 1.387-1.08Z"/>
  <path fill="currentColor" d="M1 1a1 1 0 0 1 1-1h12a1 1 0 0 1 1 1v14a1 1 0 0 1-1 1H2a1 1 0 0 1-1-1V1Zm6.375 2c-.52 0-.978.235-1.257.56-.278.325-.41.718-.41 1.107 0 .836.612 1.543 1.03 2.227a28.083 28.083 0 0 1-.919 2.382C4.598 9.561 3 10.009 3 11.542A1.46 1.46 0 0 0 4.459 13c1.414 0 2.302-1.447 2.728-2.63a30.64 30.64 0 0 1 1.973-.566c.543.507 1.224 1.113 2.174 1.113 1.019 0 1.667-.813 1.667-1.543 0-1.868-2.096-1.668-3.281-1.192a16.348 16.348 0 0 1-1.263-1.608c.392-.951.946-2.04.208-2.969A1.665 1.665 0 0 0 7.374 3Z" clip-rule="evenodd"/>
</svg>
