<svg width="32" height="32" fill="none" viewBox="0 0 32 32" xmlns="http://www.w3.org/2000/svg">
  <path fill="currentColor" d="M5 7v18a2 2 0 0 0 2 2h10.062l-.676-.48a.904.904 0 0 1-.191-1.302l.567-.718a.9.9 0 0 0 .13-.893l-.337-.847a.91.91 0 0 1 .557-1.195l.874-.305a.921.921 0 0 0 .602-.681l.183-.89a.934.934 0 0 1 1.128-.711l.903.206a.946.946 0 0 0 .882-.254l.646-.652A.94.94 0 0 1 23 18v-5.172a2 2 0 0 0-.586-1.414l-5.828-5.828A2 2 0 0 0 15.172 5H7a2 2 0 0 0-2 2Zm15.146 5.146-4.292-4.292a.5.5 0 0 0-.854.353V12.5a.5.5 0 0 0 .5.5h4.293a.5.5 0 0 0 .353-.854Z" clip-rule="evenodd"/>
  <path fill="currentColor" d="m22.06 20.698.461-.49a.654.654 0 0 1 .958 0l.46.49a.654.654 0 0 0 .631.19l.645-.155a.667.667 0 0 1 .805.533l.131.668a.68.68 0 0 0 .43.511l.624.229c.355.13.535.535.398.896l-.24.635a.703.703 0 0 0 .093.67l.405.539a.7.7 0 0 1-.137.975l-.536.4a.695.695 0 0 0-.273.616l.058.679a.68.68 0 0 1-.627.744l-.661.039a.648.648 0 0 0-.185.038v2.584a.501.501 0 0 1-.686.474L23 31.223l-1.814.74a.501.501 0 0 1-.686-.474v-2.584a.648.648 0 0 0-.185-.038l-.66-.039a.68.68 0 0 1-.628-.744l.058-.68a.695.695 0 0 0-.273-.615l-.537-.4a.7.7 0 0 1-.136-.975l.405-.54a.703.703 0 0 0 .094-.669l-.241-.635a.692.692 0 0 1 .398-.896l.623-.229a.68.68 0 0 0 .43-.51l.132-.669a.667.667 0 0 1 .805-.533l.645.155a.654.654 0 0 0 .63-.19ZM25.5 25a2.5 2.5 0 1 1-5 0 2.5 2.5 0 0 1 5 0Z" clip-rule="evenodd"/>
</svg>
