<svg width="32" height="32" fill="none" viewBox="0 0 32 32" xmlns="http://www.w3.org/2000/svg">
  <path fill="currentColor" d="M5 7v18a2 2 0 0 0 2 2h11.15A7.503 7.503 0 0 1 23 18.427v-5.599a2 2 0 0 0-.586-1.414l-5.828-5.828A2 2 0 0 0 15.172 5H7a2 2 0 0 0-2 2Zm15.146 5.146-4.292-4.292a.5.5 0 0 0-.854.353V12.5a.5.5 0 0 0 .5.5h4.293a.5.5 0 0 0 .353-.854ZM25.5 31a5.5 5.5 0 1 1 0-11 5.5 5.5 0 0 1 0 11Zm2.707-7.207a1 1 0 0 1 0 1.414l-2.5 2.5a1 1 0 0 1-1.414 0l-1.5-1.5a1 1 0 0 1 1.414-1.414l.793.793 1.793-1.793a1 1 0 0 1 1.414 0Z" clip-rule="evenodd"/>
</svg>
