<svg width="16" height="16" fill="none" viewBox="0 0 16 16" xmlns="http://www.w3.org/2000/svg">
  <g fill="currentColor" clip-path="url(#prefix__a)">
    <path d="M7 14a1 1 0 1 1 0 2H1a1 1 0 0 1-1-1V1a1 1 0 0 1 1-1h12a1 1 0 0 1 1 1v4a1 1 0 1 1-2 0V2H2v12h5Z"/>
    <path d="m10.451 12.496.319.082a.795.795 0 0 1 .516.416v2.584c0 .347.403.545.685.337l.697-.62a.5.5 0 0 1 .664 0l.697.62c.282.208.685.01.685-.337v-2.584a.795.795 0 0 1 .516-.416l.319-.082a.588.588 0 0 0 .368-.873l-.166-.28a.772.772 0 0 1 0-.792l.166-.28a.59.59 0 0 0-.368-.873l-.319-.082a.791.791 0 0 1-.57-.56l-.083-.313a.61.61 0 0 0-.89-.362l-.284.164a.81.81 0 0 1-.806 0l-.284-.164a.61.61 0 0 0-.89.362l-.083.313a.791.791 0 0 1-.57.56l-.319.082a.587.587 0 0 0-.368.873l.166.28a.772.772 0 0 1 0 .792l-.166.28a.592.592 0 0 0 .368.873ZM14 11a1 1 0 1 1-2 0 1 1 0 0 1 2 0Z" clip-rule="evenodd"/>
    <path d="M4 4h2a1 1 0 0 1 0 2H4a1 1 0 0 1 0-2Zm4 3a1 1 0 0 1 0 2H4a1 1 0 0 1 0-2h4Zm-4 3h2a1 1 0 1 1 0 2H4a1 1 0 1 1 0-2Z"/>
  </g>
  <defs>
    <clipPath id="prefix__a">
      <path fill="#fff" d="M0 0h16v16H0z"/>
    </clipPath>
  </defs>
</svg>
