<svg width="32" height="32" fill="none" viewBox="0 0 32 32" xmlns="http://www.w3.org/2000/svg">
  <path fill="currentColor" d="M16 3a1 1 0 0 1 1 1v7a1 1 0 0 0 1 1h7a1 1 0 0 1 1 1v15a1 1 0 0 1-1 1H7a1 1 0 0 1-1-1V4a1 1 0 0 1 1-1h9Zm-1.472 21 1.094-4.192c.048-.186.117-.497.206-.933.089-.435.144-.752.166-.949.015.16.072.475.17.944l.035.168c.08.376.138.629.173.76l1.1 4.202h1.961l2.067-8h-1.694l-1.034 4.367c-.066.262-.14.606-.222 1.031-.082.425-.14.78-.178 1.064-.04-.295-.1-.649-.178-1.061a15.442 15.442 0 0 0-.194-.92L16.817 16h-1.628l-1.183 4.482c-.07.24-.146.579-.225 1.015-.08.436-.131.757-.153.965a25.771 25.771 0 0 0-.395-2.095L12.194 16H10.5l2.072 8h1.956Z" clip-rule="evenodd"/>
  <path fill="currentColor" d="M20 10a1 1 0 0 1-1-1V4.207a.5.5 0 0 1 .854-.353l5.292 5.292a.5.5 0 0 1-.353.854H20Z"/>
</svg>
