<svg width="32" height="32" fill="none" viewBox="0 0 32 32" xmlns="http://www.w3.org/2000/svg">
  <path fill="currentColor" d="M15.375 16.25c-.818 0-.147 1.067.072 1.415l.019.03.037-.085c.181-.417.59-1.36-.128-1.36Zm.39 3.47c.263.36.485.652.762.97-.437.114-.829.22-1.276.358.19-.464.353-.866.514-1.328Zm3.985 1.66c.003.67-1.055.011-1.25-.13a8.09 8.09 0 0 0 .073-.026c.36-.13 1.175-.423 1.177.157Zm-6.062 1.23c-.284.067-1.933.471-1.386 1.081.46.54 1.22-.76 1.386-1.08Z"/>
  <path fill="currentColor" d="M16 3a1 1 0 0 1 1 1v7a1 1 0 0 0 1 1h7a1 1 0 0 1 1 1v15a1 1 0 0 1-1 1H7a1 1 0 0 1-1-1V4a1 1 0 0 1 1-1h9Zm-.625 12c-.52 0-.978.235-1.257.56-.278.325-.41.718-.41 1.107 0 .665.387 1.248.756 1.803.094.143.188.284.273.424a28.066 28.066 0 0 1-.918 2.382c-1.222.285-2.82.733-2.82 2.266A1.46 1.46 0 0 0 12.459 25c1.414 0 2.302-1.447 2.728-2.63a30.701 30.701 0 0 1 1.973-.567c.543.508 1.224 1.114 2.174 1.114 1.019 0 1.667-.813 1.667-1.544 0-1.867-2.096-1.667-3.282-1.19a16.364 16.364 0 0 1-1.262-1.609l.095-.228c.376-.894.793-1.885.113-2.74a1.665 1.665 0 0 0-1.29-.606Z" clip-rule="evenodd"/>
  <path fill="currentColor" d="M20 10a1 1 0 0 1-1-1V4.207a.5.5 0 0 1 .854-.353l5.292 5.292a.5.5 0 0 1-.353.854H20Z"/>
</svg>
