<svg width="32" height="32" fill="none" viewBox="0 0 32 32" xmlns="http://www.w3.org/2000/svg">
  <path fill="currentColor" d="M16 3a1 1 0 0 1 1 1v7a1 1 0 0 0 1 1h7a1 1 0 0 1 1 1v15a1 1 0 0 1-1 1H7a1 1 0 0 1-1-1V4a1 1 0 0 1 1-1h9Zm-2.008 15a.994.994 0 0 0 .99-1c0-.552-.444-1-.99-1a.994.994 0 0 0-.989 1c0 .552.443 1 .99 1Zm4.158-.448a.92.92 0 0 0-1.685 0l-1.266 2.867-.357-.616a.919.919 0 0 0-1.593 0l-1.622 2.8c-.359.62.085 1.397.796 1.397h7.154a.928.928 0 0 0 .842-1.306l-2.27-5.142Z" clip-rule="evenodd"/>
  <path fill="currentColor" d="M20 10a1 1 0 0 1-1-1V4.207a.5.5 0 0 1 .854-.353l5.292 5.292a.5.5 0 0 1-.353.854H20Z"/>
</svg>
