<svg width="24" height="24" fill="none" viewBox="0 0 24 24" xmlns="http://www.w3.org/2000/svg">
  <path fill="currentColor" d="M1 12c0 6.075 4.925 11 11 11s11-4.925 11-11S18.075 1 12 1 1 5.925 1 12Zm20 0a8.96 8.96 0 0 1-1.013 4.152c-2.598 2.913-3.862 2.704-6.86.709-.074-.05-.148-.097-.22-.145v-3.455h1.038c1.263 0 2.236-.278 2.92-.834.683-.556 1.025-1.356 1.025-2.4 0-.993-.311-1.745-.934-2.256-.622-.51-1.557-.765-2.806-.765h-2.877v8.801a7.5 7.5 0 0 0-1.64-.545V7.006H8v8.17c-1.159.113-2.35.607-3.651 1.565A9 9 0 1 1 21 12Zm-8.981 6.526c1.49.992 2.628 1.556 3.657 1.692A8.969 8.969 0 0 1 12 21a8.973 8.973 0 0 1-6.415-2.687c2.519-1.835 4.175-1.29 6.434.213Zm1.755-6.64h-.868V8.374h1.135c.743 0 1.29.141 1.64.424.352.282.527.71.527 1.285 0 .62-.196 1.076-.588 1.367-.392.292-1.007.438-1.846.438Z" clip-rule="evenodd"/>
</svg>
