<svg width="16" height="16" fill="none" viewBox="0 0 16 16" xmlns="http://www.w3.org/2000/svg">
  <path fill="currentColor" d="M6.28 1a1 1 0 0 1 .948.684l.658 1.974A.5.5 0 0 0 8.36 4H14a1 1 0 0 1 1 1v9a1 1 0 0 1-1 1H2a1 1 0 0 1-1-1V2a1 1 0 0 1 1-1h4.28Zm1.413 5.136L4.185 8.943a.49.49 0 0 0 .307.874h.564v2.699c0 .135.11.245.245.245h1.276c.135 0 .245-.11.245-.245v-1.963c0-.136.11-.246.246-.246h1.864c.136 0 .246.11.246.246v1.963c0 .135.11.245.245.245H10.7c.136 0 .245-.11.245-.245v-2.7h.564a.49.49 0 0 0 .307-.873L8.307 6.136a.49.49 0 0 0-.614 0Z" clip-rule="evenodd"/>
</svg>
