<svg width="24" height="24" fill="none" viewBox="0 0 24 24" xmlns="http://www.w3.org/2000/svg">
  <path fill="currentColor" d="M9.86 1.805c.743 0 1.412.452 1.688 1.143l1.133 2.83a.91.91 0 0 0 .844.572h6.657c1.004 0 1.818.814 1.818 1.818v10.819a1.818 1.818 0 0 1-1.818 1.818H3.818A1.818 1.818 0 0 1 2 18.986V3.623c0-1.004.814-1.818 1.818-1.818H9.86Zm1.757 7.703L7.23 13.016a.613.613 0 0 0 .384 1.092h.705v3.374c0 .17.137.307.306.307h1.595c.17 0 .307-.138.307-.307v-2.454c0-.17.137-.306.306-.306h2.332c.169 0 .306.137.306.306v2.454c0 .17.138.307.307.307h1.595c.17 0 .306-.138.306-.307v-3.374h.705c.58 0 .836-.73.384-1.092l-4.386-3.508a.613.613 0 0 0-.766 0Z" clip-rule="evenodd"/>
</svg>
