<svg width="16" height="16" fill="none" viewBox="0 0 16 16" xmlns="http://www.w3.org/2000/svg">
  <path fill="currentColor" d="M5 13v.032a1 1 0 0 1 2 0V14a1 1 0 0 1-1 1H1a1 1 0 0 1-1-1V2a1 1 0 0 1 1-1h5a1 1 0 0 1 1 1v1.028a1 1 0 1 1-2 0V3H2v10h3Zm6 .032a1 1 0 0 0-2 0V14a1 1 0 0 0 1 1h5a1 1 0 0 0 1-1V2a1 1 0 0 0-1-1h-5a1 1 0 0 0-1 1v1.028a1 1 0 1 0 2 0V3h3v10h-3v.032Z"/>
  <path fill="currentColor" d="M3.293 8.707a1 1 0 0 1 0-1.414l2-2a1 1 0 0 1 1.414 1.414L6.414 7h3.172l-.293-.293a1 1 0 0 1 1.414-1.414l2 2a1 1 0 0 1 0 1.414l-2 2a1 1 0 0 1-1.414-1.414L9.586 9H6.414l.293.293a1 1 0 0 1-1.414 1.414l-2-2Z"/>
</svg>
