<svg width="24" height="24" fill="none" viewBox="0 0 24 24" xmlns="http://www.w3.org/2000/svg">
  <path fill="currentColor" d="M4.358 14.881a5.502 5.502 0 0 1-.64-10.585A7.5 7.5 0 0 1 10.5 0a7.5 7.5 0 0 1 6.783 4.296 5.502 5.502 0 0 1 3.618 6.246 7.954 7.954 0 0 0-1.945-.486 3.502 3.502 0 0 0-2.637-3.96 1 1 0 0 1-.698-.607 5.502 5.502 0 0 0-10.242 0 1 1 0 0 1-.698.607A3.502 3.502 0 0 0 5.5 13h1.365A7.499 7.499 0 0 1 13.5 9c1.386 0 2.683.376 3.796 1.03a7.95 7.95 0 0 0-3.224 1 5.502 5.502 0 0 0-5.693 3.46 1 1 0 0 1-.698.606A3.502 3.502 0 0 0 8.5 22h2.57c.436.753.99 1.428 1.638 2H8.5a5.5 5.5 0 0 1-4.142-9.119Z"/>
  <path fill="currentColor" d="M18 24a6 6 0 1 0 0-12 6 6 0 0 0 0 12Zm1-6.586V21a1 1 0 1 1-2 0v-3.586l-1.293 1.293a1 1 0 0 1-1.414-1.414l3-3a1 1 0 0 1 1.414 0l3 3a1 1 0 0 1-1.414 1.414L19 17.414Z" clip-rule="evenodd"/>
</svg>
