<svg width="16" height="16" fill="none" viewBox="0 0 16 16" xmlns="http://www.w3.org/2000/svg">
  <g clip-path="url(#prefix__a)">
    <path fill="currentColor" d="M8 0a8 8 0 1 1 0 16A8 8 0 0 1 8 0Zm0 14 .01-.001a.21.21 0 0 0 .039-.013.853.853 0 0 0 .216-.142c.216-.182.496-.524.775-1.082.232-.465.438-1.03.6-1.672a14.807 14.807 0 0 0-3.28 0c.162.642.368 1.207.6 1.672.279.558.56.9.775 1.082a.853.853 0 0 0 .216.143A.21.21 0 0 0 8 14ZM6.044 9.113a13.987 13.987 0 0 1 0-2.226A16.77 16.77 0 0 0 8 7c.669 0 1.324-.039 1.956-.113a13.992 13.992 0 0 1 0 2.226A16.77 16.77 0 0 0 8 9c-.669 0-1.324.039-1.956.113Zm5.563 2.35a10.952 10.952 0 0 1-.552 1.702 6.029 6.029 0 0 0 1.581-1.356 9.745 9.745 0 0 0-1.03-.346Zm2.03-1.403a11.656 11.656 0 0 0-1.705-.58 15.886 15.886 0 0 0 0-2.96c.608-.158 1.18-.352 1.705-.58.235.643.363 1.336.363 2.06a5.99 5.99 0 0 1-.363 2.06Zm-9.569-.58c-.608.158-1.18.352-1.705.58A5.988 5.988 0 0 1 2 8c0-.724.128-1.417.363-2.06a11.65 11.65 0 0 0 1.705.58 15.906 15.906 0 0 0 0 2.96Zm-.704 2.329a9.749 9.749 0 0 1 1.03-.346c.147.615.333 1.187.551 1.702a6.029 6.029 0 0 1-1.581-1.356ZM8 5c.567 0 1.115-.031 1.64-.09a8.248 8.248 0 0 0-.6-1.672c-.279-.558-.56-.9-.775-1.082a.852.852 0 0 0-.216-.142A.215.215 0 0 0 8 2l-.01.001a.215.215 0 0 0-.039.013.852.852 0 0 0-.216.142c-.216.182-.496.524-.775 1.082a8.248 8.248 0 0 0-.6 1.672C6.886 4.97 7.434 5 8 5Zm3.607-.463c.366-.102.71-.218 1.03-.346a6.03 6.03 0 0 0-1.582-1.356c.218.515.404 1.087.552 1.702ZM4.945 2.835a10.951 10.951 0 0 0-.552 1.702 9.749 9.749 0 0 1-1.03-.346 6.03 6.03 0 0 1 1.582-1.356Z" clip-rule="evenodd"/>
  </g>
  <defs>
    <clipPath id="prefix__a">
      <path fill="#fff" d="M0 0h16v16H0z"/>
    </clipPath>
  </defs>
</svg>
