<svg width="16" height="16" fill="none" viewBox="0 0 16 16" xmlns="http://www.w3.org/2000/svg">
  <path fill="currentColor" d="M6.024 1a.5.5 0 0 0-.433.75l4.053 7a.5.5 0 0 0 .432.25h4.519a.5.5 0 0 0 .437-.743l-3.89-7A.5.5 0 0 0 10.707 1H6.024Zm-1.95 1.667a.5.5 0 0 1 .871-.005l2.341 4.097a.5.5 0 0 1 .003.49l-3.877 6.98a.5.5 0 0 1-.866.014L.15 10.248a.5.5 0 0 1-.009-.5l3.934-7.081Zm.466 11.59a.5.5 0 0 0 .437.743h7.74a.5.5 0 0 0 .429-.243l2.4-4a.5.5 0 0 0-.43-.757H7.2a.5.5 0 0 0-.438.257l-2.222 4Z"/>
</svg>
