<svg width="24" height="24" fill="none" viewBox="0 0 24 24" xmlns="http://www.w3.org/2000/svg">
  <path fill="currentColor" d="M20.667 13a.75.75 0 0 0 .66-1.106l-5.115-9.5a.75.75 0 0 0-.66-.394h-6.16a.75.75 0 0 0-.661 1.106l5.115 9.5a.75.75 0 0 0 .66.394h6.161ZM7.188 4.458a.75.75 0 0 0-1.342.041L1.172 14.626a.75.75 0 0 0 .05.72L4.4 20.288a.75.75 0 0 0 1.307-.082l4.522-9.45a.75.75 0 0 0-.016-.68L7.188 4.459ZM8.256 22a.75.75 0 0 1-.676-1.074l2.632-5.5a.75.75 0 0 1 .676-.426h10.738a.75.75 0 0 1 .631 1.156l-3.536 5.5a.75.75 0 0 1-.63.344H8.255Z"/>
</svg>
