<svg width="24" height="24" fill="none" viewBox="0 0 24 24" xmlns="http://www.w3.org/2000/svg">
  <g fill="currentColor" clip-path="url(#prefix__a)">
    <path d="M12.006 12.534c.147 0 .44-.177.44-.882 0-.706-.293-1.176-.44-1.323-.146.147-.44.617-.44 1.323s.294.882.44.882Zm2.642-4.851L12.006 6.36 9.365 7.683l2.641 1.764 2.642-1.764Z"/>
    <path d="M12.24.034a.85.85 0 0 0-.48 0C9.254.77 4.127 2.615 1.311 4.811a.812.812 0 0 0-.31.667C1.135 9.915 3.473 19.384 12.005 24 20.54 19.384 22.864 9.915 23 5.478a.812.812 0 0 0-.311-.667C19.873 2.615 14.746.77 12.239.034ZM7.85 17.952c1.407-1.382 3.282-2.397 4.156-2.772 1.383.554 3.037 1.87 4.11 2.836a14.714 14.714 0 0 1-4.105 3.338 14.745 14.745 0 0 1-4.16-3.402Zm-3.768-5.86 2.641-4.41c-1.32-1.322-2.2-2.822-2.2-3.527 0-.147.087-.353.44 0 .352.353 2.2 1.617 3.081 2.205l3.962-1.323L15.97 6.36c.88-.588 2.73-1.852 3.081-2.205.352-.353.44-.147.44 0 0 .705-.88 2.205-2.2 3.528l2.64 4.41c-.352 1.411-1.32 2.646-1.76 3.087-.352-2.47-1.614-5.44-2.201-6.615-1.321.44-2.202.882-2.642 2.205.88 0 1.761-.441 1.761-1.323l.88.44c0 1.324-1.76 1.765-2.64 1.765 0 1.411-.881 2.058-1.322 2.205-.44-.147-1.32-.794-1.32-2.205-.88 0-2.642-.441-2.642-1.764l.88-.441c0 .882.881 1.323 1.762 1.323-.44-1.323-1.321-1.764-2.642-2.205-.587 1.176-1.849 4.145-2.201 6.615-.44-.441-1.409-1.676-1.761-3.087Z" clip-rule="evenodd"/>
  </g>
  <defs>
    <clipPath id="prefix__a">
      <path fill="#fff" d="M0 0h24v24H0z"/>
    </clipPath>
  </defs>
</svg>
