<svg width="24" height="24" fill="none" viewBox="0 0 24 24" xmlns="http://www.w3.org/2000/svg">
  <path fill="currentColor" d="M12 12a2 2 0 1 1 0-4 2 2 0 0 1 0 4Z"/>
  <path fill="currentColor" d="M18 10a6.002 6.002 0 0 1-5 5.917V19a1 1 0 0 1-1 1H7a1 1 0 0 1-.707-1.707l2.958-2.958A6 6 0 1 1 18 10Zm-8.586 8H11v-1.586L9.414 18ZM12 6a4 4 0 0 0-1.224 7.81l.517-.517a1 1 0 0 1 1.7.583A4.002 4.002 0 0 0 12 6Z" clip-rule="evenodd"/>
  <path fill="currentColor" d="M6 1a3 3 0 0 0-3 3v16a3 3 0 0 0 3 3h12a3 3 0 0 0 3-3V4a3 3 0 0 0-3-3H6ZM5 4a1 1 0 0 1 1-1h12a1 1 0 0 1 1 1v16a1 1 0 0 1-1 1H6a1 1 0 0 1-1-1V4Z" clip-rule="evenodd"/>
</svg>
