<svg width="16" height="16" fill="none" viewBox="0 0 16 16" xmlns="http://www.w3.org/2000/svg">
  <path fill="currentColor" d="M16 8A8 8 0 1 1 0 8a8 8 0 0 1 16 0ZM8 4.5c.947 0 1.714.672 1.714 1.5 0 .9-.641 1.208-1.317 1.531-1.214.582-1.54 1.313-1.54 2.47 0 .551.512.999 1.143.999s1.143-.448 1.143-1v-.022c0-.472 0-.944.588-1.162C11.073 8.32 12 7.391 12 6c0-1.933-1.79-3.5-4-3.5S4 4.067 4 6c0 .552.512 1 1.143 1s1.143-.448 1.143-1c0-.828.767-1.5 1.714-1.5ZM8 14a1 1 0 1 0 0-2 1 1 0 0 0 0 2Z" clip-rule="evenodd"/>
</svg>
