<svg width="24" height="24" fill="none" viewBox="0 0 24 24" xmlns="http://www.w3.org/2000/svg">
  <path fill="currentColor" d="M22.25 12c0 5.66-4.59 10.25-10.25 10.25S1.75 17.66 1.75 12 6.34 1.75 12 1.75 22.25 6.34 22.25 12ZM9.5 9.506a1 1 0 0 1-2 0c0-5.724 9-5.91 9-.418a3.948 3.948 0 0 1-2.76 3.766c-.677.243-1.55.557-1.291 1.331a.999.999 0 1 1-1.898.632c-.747-2.24 1.108-3.2 2.79-3.947A1.95 1.95 0 0 0 14.5 9.088c0-2.94-5-2.738-5 .418Zm3 8.494a1 1 0 1 1-2 0 1 1 0 0 1 2 0Z" clip-rule="evenodd"/>
</svg>
