<svg width="32" height="32" fill="none" viewBox="0 0 32 32" xmlns="http://www.w3.org/2000/svg">
  <path fill="currentColor" d="M10 2a1 1 0 0 1 1-1h10a1 1 0 0 1 1 1v7a1 1 0 0 1-1 1h-2.667l.448 1.342a.5.5 0 0 1-.475.658h-4.612a.5.5 0 0 1-.475-.658L13.667 10H11a1 1 0 0 1-1-1V2ZM9 7.252A12 12 0 0 0 4.166 15H6.2A9.982 9.982 0 0 1 9 9.859V7.252Zm.993 19.397L9.75 26h1.886c1.319.64 2.8 1 4.364 1a9.96 9.96 0 0 0 4.364-1h1.886l-.243.649a.99.99 0 0 0 .012.735A11.945 11.945 0 0 1 16 29c-2.194 0-4.25-.588-6.02-1.616a.99.99 0 0 0 .013-.735ZM23 7.252A11.999 11.999 0 0 1 27.834 15H25.8A9.982 9.982 0 0 0 23 9.859V7.252Z"/>
  <path fill="currentColor" d="M21 16a1 1 0 0 0-1 1v7a1 1 0 0 0 1 1h2.667l-.448 1.342a.5.5 0 0 0 .475.658h4.612a.5.5 0 0 0 .475-.658L28.333 25H31a1 1 0 0 0 1-1v-7a1 1 0 0 0-1-1H21ZM0 17a1 1 0 0 1 1-1h10a1 1 0 0 1 1 1v7a1 1 0 0 1-1 1H8.333l.448 1.342a.5.5 0 0 1-.475.658H3.694a.5.5 0 0 1-.475-.658L3.667 25H1a1 1 0 0 1-1-1v-7Z"/>
</svg>
