<svg width="24" height="24" fill="none" viewBox="0 0 24 24" xmlns="http://www.w3.org/2000/svg">
  <path fill="currentColor" d="m8.113 13.11 3.575-2.86a.5.5 0 0 1 .624 0l3.575 2.86a.5.5 0 0 1-.312.89H15v2.75a.25.25 0 0 1-.25.25h-1.3a.25.25 0 0 1-.25-.25v-2a.25.25 0 0 0-.25-.25h-1.9a.25.25 0 0 0-.25.25v2a.25.25 0 0 1-.25.25h-1.3a.25.25 0 0 1-.25-.25V14h-.575a.5.5 0 0 1-.312-.89Z"/>
  <path fill="currentColor" d="M22 7a1 1 0 0 0-1-1h-8.28l-.771-2.316A1 1 0 0 0 11 3H3a1 1 0 0 0-1 1v16a1 1 0 0 0 1 1h18a1 1 0 0 0 1-1V7ZM4 19V5h6.28l.771 2.316A1 1 0 0 0 12 8h8v11H4Z" clip-rule="evenodd"/>
</svg>
