<svg width="24" height="24" fill="none" viewBox="0 0 24 24" xmlns="http://www.w3.org/2000/svg">
  <path fill="currentColor" d="M.465 13.675c.26 0 .458-.205.458-.478v-1.552h1.996v1.552a.46.46 0 0 0 .464.478c.26 0 .458-.205.458-.478V9.472c0-.274-.191-.472-.458-.472a.45.45 0 0 0-.464.472v1.34H.923V9.477C.923 9.205.73 9 .465 9 .19 9 0 9.205 0 9.478v3.719a.46.46 0 0 0 .465.478Zm6.894-3.54a.44.44 0 0 0-.41.26l-.916 2.002-.896-2.003a.426.426 0 0 0-.403-.26.454.454 0 0 0-.451.445c0 .068.02.137.061.219l1.17 2.577-.124.273c-.15.308-.348.43-.642.43a.252.252 0 0 1-.031-.002.394.394 0 0 0-.051-.004c-.233 0-.417.17-.417.396 0 .157.089.301.232.363.103.047.24.075.39.075.615 0 1.025-.315 1.387-1.06l1.49-3.055a.425.425 0 0 0 .055-.212.452.452 0 0 0-.444-.444Z"/>
  <path fill="currentColor" d="M9.076 10.565c.233-.273.595-.43 1.032-.43.95 0 1.64.738 1.64 1.763s-.69 1.777-1.64 1.777c-.424 0-.779-.15-1.011-.41v1.176a.451.451 0 0 1-.458.465.453.453 0 0 1-.465-.465v-3.855a.45.45 0 0 1 .458-.458c.246 0 .43.184.444.437Zm.007 1.333c0 .554.349.937.854.937.506 0 .875-.39.875-.93 0-.547-.362-.936-.875-.936-.512 0-.854.376-.854.93Zm4.727-1.763c-.998 0-1.757.765-1.757 1.77 0 1.012.786 1.77 1.853 1.77.396 0 .765-.109 1.073-.314.164-.11.232-.219.232-.37a.365.365 0 0 0-.376-.368c-.068 0-.13.02-.198.061-.205.13-.458.198-.704.198-.499 0-.84-.246-.95-.67h1.928c.3 0 .505-.184.505-.471v-.02c0-.916-.683-1.586-1.606-1.586Zm-.02.745c.43 0 .717.28.73.683h-1.537c.102-.417.403-.683.807-.683Z" clip-rule="evenodd"/>
  <path fill="currentColor" d="M16.81 10.552c.213-.24.507-.383.828-.383.246 0 .417.164.417.417 0 .246-.171.417-.43.444-.493.034-.794.356-.794.875v1.299a.453.453 0 0 1-.458.471.458.458 0 0 1-.465-.471V10.6c0-.267.199-.465.458-.465.24 0 .424.177.445.417Zm6.301-1.224c.09-.212.24-.328.438-.328a.44.44 0 0 1 .451.444.518.518 0 0 1-.055.246l-1.538 3.67c-.088.213-.232.315-.437.315s-.355-.102-.438-.314l-1.544-3.67a.614.614 0 0 1-.055-.247c0-.246.198-.444.458-.444.198 0 .349.116.43.328l1.149 2.823 1.141-2.823Zm-4.589 1.688h1.046c.225 0 .39.165.39.383 0 .219-.165.39-.39.39h-1.046a.381.381 0 0 1-.39-.39c0-.218.165-.383.39-.383Z"/>
</svg>
