<svg width="24" height="24" fill="none" viewBox="0 0 24 24" xmlns="http://www.w3.org/2000/svg">
  <path fill="currentColor" d="M12 17a5 5 0 1 0 0-10 5 5 0 0 0 0 10Zm0-2a3 3 0 1 0 0-6 3 3 0 0 0 0 6Z" clip-rule="evenodd"/>
  <path fill="currentColor" d="M17.5 8a1.5 1.5 0 1 0 0-3 1.5 1.5 0 0 0 0 3Z"/>
  <path fill="currentColor" d="M2.24 3.347C1 4.963 1 7.31 1 12c0 4.691 0 7.037 1.24 8.653a6 6 0 0 0 1.107 1.107C4.963 23 7.31 23 12 23c4.691 0 7.037 0 8.653-1.24.416-.32.788-.691 1.107-1.107C23 19.037 23 16.69 23 12c0-4.691 0-7.037-1.24-8.653a6 6 0 0 0-1.107-1.107C19.037 1 16.69 1 12 1 7.309 1 4.963 1 3.347 2.24A6 6 0 0 0 2.24 3.347Zm4.505 17.51C7.98 20.998 9.608 21 12 21s4.019-.003 5.256-.142c1.196-.135 1.777-.376 2.179-.685.277-.212.526-.46.738-.738.309-.402.55-.983.685-2.18C20.997 16.02 21 14.393 21 12s-.003-4.019-.142-5.255c-.135-1.197-.376-1.778-.685-2.18a3.998 3.998 0 0 0-.738-.738c-.402-.309-.983-.55-2.18-.685C16.02 3.003 14.393 3 12 3s-4.019.003-5.255.142c-1.197.135-1.778.376-2.18.685a4 4 0 0 0-.738.738c-.309.402-.55.983-.685 2.18C3.003 7.98 3 9.608 3 12s.003 4.019.142 5.256c.135 1.196.376 1.777.685 2.179.212.277.46.526.738.738.402.309.983.55 2.18.685Z" clip-rule="evenodd"/>
</svg>
