<svg width="16" height="16" fill="none" viewBox="0 0 16 16" xmlns="http://www.w3.org/2000/svg">
  <g fill="currentColor" clip-path="url(#prefix__a)">
    <path d="M10.719 10.36a.961.961 0 0 1-1.36 1.359L8 10.359l-1.36 1.36a.961.961 0 0 1-1.358-1.36L6.64 9 5.28 7.642a.961.961 0 0 1 1.36-1.36L8 7.642l1.36-1.36a.961.961 0 0 1 1.358 1.36L9.36 9l1.36 1.36Z"/>
    <path d="M1 0h14a1 1 0 0 1 1 1v14a1 1 0 0 1-1 1H1a1 1 0 0 1-1-1V1a1 1 0 0 1 1-1Zm1 4v10h12V4H2Z" clip-rule="evenodd"/>
  </g>
  <defs>
    <clipPath id="prefix__a">
      <path fill="#fff" d="M0 0h16v16H0z"/>
    </clipPath>
  </defs>
</svg>
