<svg width="24" height="24" fill="none" viewBox="0 0 24 24" xmlns="http://www.w3.org/2000/svg">
  <path fill="currentColor" d="M13.298 12.288 12 13.586l-1.298-1.298a.997.997 0 1 0-1.41 1.41l1.298 1.298-1.298 1.298a.997.997 0 0 0 1.41 1.41L12 16.406l1.298 1.298a.997.997 0 0 0 1.41-1.41l-1.298-1.298 1.298-1.298a.997.997 0 0 0-1.41-1.41ZM5 6a1 1 0 1 0 2 0 1 1 0 0 0-2 0Zm3 0a1 1 0 1 0 2 0 1 1 0 0 0-2 0Zm4 1a1 1 0 1 1 0-2 1 1 0 0 1 0 2Z"/>
  <path fill="currentColor" d="M2.992 2A1 1 0 0 0 2 2.992v18.016a1 1 0 0 0 .992.992h18.016a1 1 0 0 0 .992-.992V2.992A1 1 0 0 0 21.008 2H2.992ZM4 19.997V10h16v10l-16-.003ZM20 4H4v4h16V4Z" clip-rule="evenodd"/>
</svg>
