<svg width="24" height="24" fill="none" viewBox="0 0 24 24" xmlns="http://www.w3.org/2000/svg">
  <path fill="currentColor" d="M11.486 2.143a1 1 0 0 1 1.028 0l10 6a1 1 0 0 1 0 1.714L18.945 12l3.57 2.143a1 1 0 0 1 0 1.714l-10 6a1 1 0 0 1-1.028 0l-10-6a1 1 0 0 1 0-1.714L5.056 12l-3.57-2.143a1 1 0 0 1 0-1.714l10-6Zm-3.954 9.01a.955.955 0 0 0-.034-.02L3.944 9 12 4.166 20.056 9l-3.554 2.133a.901.901 0 0 0-.034.02L12 13.833l-4.468-2.68ZM7 13.166 3.944 15 12 19.834 20.056 15 17 13.166l-4.486 2.691a1 1 0 0 1-1.028 0L7 13.168Z" clip-rule="evenodd"/>
</svg>
