<svg width="16" height="16" fill="none" viewBox="0 0 16 16" xmlns="http://www.w3.org/2000/svg">
  <path fill="currentColor" d="M12 5.5a1.5 1.5 0 1 1-3 0 1.5 1.5 0 0 1 3 0Z"/>
  <path fill="currentColor" d="M9 12.999a1 1 0 0 1-1.001 1l-.97-.002v1a1 1 0 0 1-1 1L2 16a1 1 0 0 1-1-1v-3.562a1 1 0 0 1 .258-.671L4.17 7.549A7.586 7.586 0 0 1 4 6a6 6 0 1 1 6 6H9v.999ZM7.03 11a1 1 0 0 1 1-1H10a4 4 0 1 0-4-4c0 .348.044.748.126 1.132l.106.5a1 1 0 0 1-.236.88L3 11.821V14h2.03v-1.003a1 1 0 0 1 1-1h1V11Z" clip-rule="evenodd"/>
</svg>
