<svg width="32" height="32" fill="none" viewBox="0 0 32 32" xmlns="http://www.w3.org/2000/svg">
  <path fill="currentColor" d="M5 4a2 2 0 0 0-2 2v16h26V6a2 2 0 0 0-2-2H5Zm13.454 2c.104.726-.184 1.438-.565 1.943-.407.541-1.108.959-1.786.936-.124-.694.194-1.412.579-1.895.424-.53 1.15-.94 1.772-.984Zm2.308 10.274c.37-.548.509-.825.798-1.445-2.096-.769-2.432-3.64-.359-4.741-.633-.765-1.52-1.208-2.36-1.208-.606 0-1.021.153-1.398.291-.314.116-.601.221-.95.221-.379 0-.713-.115-1.064-.237-.386-.133-.79-.274-1.293-.274-.942 0-1.946.556-2.58 1.503-.896 1.335-.743 3.845.706 5.985.52.763 1.212 1.623 2.116 1.63.376.005.626-.103.896-.22.31-.133.647-.278 1.23-.28.587-.005.918.142 1.225.278.263.116.507.225.879.222.904-.007 1.636-.96 2.154-1.725Z" clip-rule="evenodd"/>
  <path fill="currentColor" d="M0 24h11a1.5 1.5 0 0 0 1.5 1.5h7A1.5 1.5 0 0 0 21 24h11v2.5a1.5 1.5 0 0 1-1.5 1.5h-29A1.5 1.5 0 0 1 0 26.5V24Z"/>
</svg>
