<svg width="24" height="24" fill="none" viewBox="0 0 24 24" xmlns="http://www.w3.org/2000/svg">
  <path fill="currentColor" d="M4 3a2 2 0 0 0-2 2v11h20V5a2 2 0 0 0-2-2H4Zm3.663 3.849a.515.515 0 0 0-.14.38.51.51 0 0 0 .147.389.55.55 0 0 0 .388.135c.154 0 .28-.045.377-.135a.51.51 0 0 0 .147-.388.507.507 0 0 0-.143-.381.515.515 0 0 0-.38-.143.534.534 0 0 0-.396.143Zm-.1 5.526h.975v-4.08h-.974v4.08Zm-2.966 0V7.021h.997v4.482h1.38v.872H4.597Zm6.808 0V9.943c0-.295-.035-.518-.106-.67-.07-.151-.185-.227-.344-.227-.21 0-.364.105-.462.315-.097.208-.146.56-.146 1.055v1.959h-.974v-4.08h.773l.117.524h.062c.088-.188.214-.334.377-.44.164-.107.355-.16.575-.16.371 0 .648.126.831.38.186.254.279.625.279 1.114v2.662h-.982Zm3.974 0-.121-.524h-.051a1.06 1.06 0 0 1-.389.44 1.046 1.046 0 0 1-.57.157c-.367 0-.644-.124-.832-.373-.188-.25-.282-.622-.282-1.117V8.295h.985v2.428c0 .298.035.523.106.674.07.152.186.227.344.227.21 0 .363-.105.458-.315.098-.21.147-.562.147-1.058V8.295h.985v4.08h-.78Zm2.3-2.084L16.66 8.295h1.011l.542 1.246.502-1.246h1.003l-1.025 1.996 1.07 2.084h-1.019l-.578-1.304-.539 1.304h-1.014l1.066-2.084Z" clip-rule="evenodd"/>
  <path fill="currentColor" d="M0 19.5V18h8a1 1 0 0 0 1 1h6a1 1 0 0 0 1-1h8v1.5a1.5 1.5 0 0 1-1.5 1.5h-21A1.5 1.5 0 0 1 0 19.5Z"/>
</svg>
