<svg width="16" height="16" fill="none" viewBox="0 0 16 16" xmlns="http://www.w3.org/2000/svg">
  <g fill="currentColor" clip-path="url(#prefix__a)">
    <path d="M9.605 6.293 7.312 8.586 6.019 7.293a1 1 0 0 0-1.414 1.414l2 2a1 1 0 0 0 1.414 0l3-3a1 1 0 1 0-1.414-1.414Z"/>
    <path d="m15.517 7.356-.024.084-.02.075c-.067.24-.094.383-.094.485 0 .102.027.246.093.485l.045.159c.245.858.303 1.248.115 1.828-.191.59-.488.895-1.175 1.43-.31.24-.422.34-.484.424-.066.091-.126.228-.256.584-.302.833-.494 1.199-.992 1.561-.496.362-.897.43-1.78.462-.385.014-.537.03-.65.066a1.672 1.672 0 0 0-.351.195c-.05.032-.092.06-.193.13-.715.485-1.105.676-1.73.676-.624 0-1.013-.19-1.729-.677l-.193-.13a1.662 1.662 0 0 0-.355-.195c-.109-.035-.261-.051-.626-.064-.902-.032-1.302-.101-1.799-.462-.5-.363-.692-.73-.992-1.556-.131-.363-.191-.5-.256-.59-.063-.085-.174-.184-.45-.398-.722-.56-1.019-.866-1.21-1.457-.188-.58-.13-.969.115-1.827l.046-.16C.637 8.247.664 8.103.664 8c0-.102-.027-.246-.092-.485a18.128 18.128 0 0 0-.045-.16C.282 6.499.223 6.11.41 5.529c.191-.59.487-.895 1.176-1.429.31-.24.42-.34.482-.424.067-.091.127-.228.255-.583.303-.834.496-1.201.994-1.564s.9-.431 1.783-.462c.383-.014.535-.03.646-.065.073-.024.182-.083.352-.194l.193-.13C7.008.19 7.397 0 8.022 0c.624 0 1.014.19 1.729.677l.193.13c.17.111.278.17.352.194.11.035.261.05.628.064.902.031 1.305.1 1.802.463.498.364.69.73.99 1.556.13.363.19.5.256.589.063.086.174.186.452.401.72.559 1.016.863 1.208 1.454.188.58.13.97-.115 1.828ZM13.22 5.68l-.03-.025c-.428-.331-.63-.511-.843-.803-.217-.299-.323-.54-.518-1.078-.162-.446-.237-.59-.291-.63-.05-.035-.208-.062-.676-.079-.573-.02-.844-.048-1.192-.16-.282-.092-.527-.225-.835-.427a16.21 16.21 0 0 1-.217-.146C8.238 2.073 8.09 2 8.013 2c-.077 0-.226.073-.606.331-.104.07-.156.106-.218.146-.307.203-.552.335-.833.426-.349.114-.62.142-1.176.16-.485.018-.643.045-.693.081-.054.04-.13.183-.288.621-.198.546-.304.788-.521 1.087-.212.29-.415.47-.842.802l-.032.026c-.364.282-.478.399-.499.463-.017.054.006.21.136.664l.05.177c.11.399.165.691.165 1.016 0 .325-.055.617-.165 1.016l-.026.093-.024.084c-.13.454-.153.61-.136.663.021.065.135.183.499.465l.035.027c.424.33.627.51.84.801.216.298.322.54.517 1.077.162.446.237.59.29.628.05.037.208.064.675.08.574.02.847.05 1.194.163.282.091.527.223.834.426.062.04.114.075.218.146.38.258.529.331.606.331.077 0 .225-.073.605-.33.104-.071.156-.107.217-.147.308-.202.553-.335.832-.425.35-.115.623-.143 1.177-.163.488-.017.646-.044.695-.08.053-.04.128-.182.287-.62.198-.547.305-.789.523-1.088.21-.288.413-.47.837-.799l.035-.027c.364-.282.478-.4.5-.466.017-.053-.007-.209-.136-.663l-.05-.176c-.11-.399-.165-.691-.165-1.016 0-.325.055-.617.165-1.016l.05-.176c.13-.454.153-.61.135-.663-.021-.067-.135-.184-.5-.466Z" clip-rule="evenodd"/>
  </g>
  <defs>
    <clipPath id="prefix__a">
      <path fill="#fff" d="M0 0h16v16H0z"/>
    </clipPath>
  </defs>
</svg>
