<svg width="32" height="32" fill="none" viewBox="0 0 32 32" xmlns="http://www.w3.org/2000/svg">
  <path fill="currentColor" d="m20.013.015.08.142.16.072a2.445 2.445 0 0 1 1.181 1.482c.29 1.312.313 2.67.07 3.992.011.37-.135.779-.28 1.184-.252.705-.5 1.398.09 1.863.45.07.97.07 1.45.07h.001c1.161-.06 2.332-.08 3.503 0 .269 0 .537.027.8.082h.07c.262.047.517.125.761.234.254.093.488.234.69.416.687.566.599 1.287.512 2.004-.082.675-.163 1.344.4 1.876.93.975.42 2.305-.381 3.158-.272.477-.13 1.05.008 1.616.179.726.355 1.44-.348 1.919-.947.336-1.062 1.108-1.182 1.911-.058.386-.117.78-.27 1.136-.875 1.086-2.277 1.132-3.591 1.175-.308.01-.611.02-.902.044a56.213 56.213 0 0 1-6.274-.224c-.96-.127-1.783-.623-2.61-1.121-.76-.458-1.522-.918-2.394-1.093h-.55V9.765a9.706 9.706 0 0 0 4.062-2.413 9.908 9.908 0 0 0 2.472-4.066c.06-.21.115-.436.172-.668.238-.977.504-2.065 1.24-2.45a1.15 1.15 0 0 1 .38-.153c.15-.02.3-.02.45 0h.23ZM3 8.75h5.004c.553 0 1.001.454 1.001 1.015v14.22c0 .56-.448 1.015-1 1.015H3c-.552 0-1-.455-1-1.016V9.765c0-.56.448-1.015 1-1.015Z"/>
</svg>
