<svg width="16" height="16" fill="none" viewBox="0 0 16 16" xmlns="http://www.w3.org/2000/svg">
  <path fill="currentColor" d="m10.007 1.758.04.07.08.036a1.221 1.221 0 0 1 .59.742 5.02 5.02 0 0 1 .035 1.995c.006.186-.068.39-.14.592-.126.353-.25.7.045.932.225.035.485.035.725.035a14.63 14.63 0 0 1 1.752 0c.134 0 .268.013.4.041h.035c.131.024.259.063.38.117.127.047.245.117.346.208.343.283.299.644.255 1.002-.04.337-.081.672.2.938.465.487.21 1.153-.19 1.58-.136.237-.065.524.004.807.09.363.177.72-.174.96-.473.167-.531.553-.591.955-.029.193-.058.39-.135.568-.438.543-1.138.566-1.796.588-.154.005-.305.01-.45.021a28.082 28.082 0 0 1-3.138-.111c-.48-.064-.891-.312-1.304-.561-.38-.23-.761-.459-1.197-.546h-.276V6.633a4.853 4.853 0 0 0 2.032-1.207A4.953 4.953 0 0 0 8.77 3.393c.03-.105.057-.218.085-.334.12-.488.252-1.032.62-1.225a.575.575 0 0 1 .19-.076c.075-.01.15-.01.226 0h.115ZM1.5 6.125h2.502c.277 0 .5.227.5.508v7.11c0 .28-.223.507-.5.507H1.5a.504.504 0 0 1-.5-.508v-7.11c0-.28.224-.507.5-.507Z"/>
</svg>
