<svg width="16" height="16" fill="none" viewBox="0 0 16 16" xmlns="http://www.w3.org/2000/svg">
  <path fill="currentColor" d="M1 2.17C1 1.524 1.523 1 2.17 1h11.66c.646 0 1.17.523 1.17 1.17v11.66A1.17 1.17 0 0 1 13.83 15H2.17A1.17 1.17 0 0 1 1 13.83V2.17ZM6.542 6.3h1.896v.99c.273-.548.973-1.04 2.025-1.04 2.017 0 2.495 1.09 2.495 3.09V13h-2.041V9.796c0-1.139-.274-1.781-.969-1.781-.964 0-1.365.692-1.365 1.781V13H6.542V6.3Zm-3.5 6.7h2.041V6.3H3.042V13Zm2.333-8.938a1.313 1.313 0 1 1-2.625 0 1.313 1.313 0 0 1 2.625 0Z" clip-rule="evenodd"/>
</svg>
