<svg width="24" height="24" fill="none" viewBox="0 0 24 24" xmlns="http://www.w3.org/2000/svg">
  <path fill="currentColor" d="M1.5 3.254c0-.969.785-1.754 1.754-1.754h17.492c.969 0 1.754.785 1.754 1.754v17.492c0 .969-.785 1.754-1.754 1.754H3.254A1.754 1.754 0 0 1 1.5 20.746V3.254ZM9.813 9.5h2.843v1.435c.41-.822 1.46-1.56 3.039-1.56 3.025 0 3.742 1.635 3.742 4.636V19.5h-3.062v-4.805c0-1.71-.41-2.673-1.453-2.673-1.445 0-2.047 1.039-2.047 2.673V19.5H9.812v-10Zm-5.25 10h3.062v-10H4.562v10Zm3.5-13.406a1.969 1.969 0 1 1-3.938 0 1.969 1.969 0 0 1 3.938 0Z" clip-rule="evenodd"/>
</svg>
