<svg width="24" height="24" fill="none" viewBox="0 0 24 24" xmlns="http://www.w3.org/2000/svg">
  <path fill="currentColor" d="m4.576 4.721-2.225 9.645A4.002 4.002 0 0 0 2 16.01v1.98A4 4 0 0 0 6 22h12c2.207 0 4-1.795 4-4.01v-1.98c0-.59-.126-1.15-.353-1.652L19.424 4.72C19.07 3.193 17.565 2 15.992 2H8.009c-1.573 0-3.08 1.193-3.433 2.721Zm12.899.45 1.61 6.978A4.001 4.001 0 0 0 18 12H5.999c-.375 0-.74.052-1.084.15l1.61-6.979C6.668 4.551 7.365 4 8.01 4h7.982c.644 0 1.34.552 1.484 1.171ZM4 16.01v1.98A2 2 0 0 0 6 20h12c1.103 0 2-.9 2-2.01v-1.98A2 2 0 0 0 18 14H6c-1.103 0-2 .9-2 2.01ZM6.99 16A1 1 0 0 0 6 17c0 .556.444 1 .99 1h4.02a1 1 0 0 0 .99-1c0-.556-.444-1-.99-1H6.99ZM16 17a1 1 0 1 0 2 0 1 1 0 0 0-2 0Z" clip-rule="evenodd"/>
</svg>
