<svg width="16" height="16" fill="none" viewBox="0 0 16 16" xmlns="http://www.w3.org/2000/svg">
  <path fill="currentColor" d="M9.669 3.951a1 1 0 1 0-1-1.019L6.791 4.02a1 1 0 1 0 .097 1.722l1.79 1.019a1 1 0 1 0 .586-1.047L7.75 4.851l1.63-.942a1 1 0 0 0 .29.042Z"/>
  <path fill="currentColor" d="M4.123 3.72a1 1 0 0 1 .627 1.267L3.392 9H4.96a1.1 1.1 0 0 1 .777.322l.678.678 3.173-.004.678-.675A1.1 1.1 0 0 1 11.041 9h1.569l-1.348-4.015a1 1 0 1 1 1.896-.637l1.79 5.334a1 1 0 0 1 .052.317V10h-3.254c-.613 0-1.1.252-1.465.628l-.032.034-1.07 1.335L6.043 12a1.1 1.1 0 0 1-.78-.322L4.587 11H2.999v2.01h5.54a1.787 1.787 0 0 0 .413 1.71l.232.29H1.999a1 1 0 0 1-1-1V10a1 1 0 0 1 .052-.32l1.804-5.334a1 1 0 0 1 1.268-.627Z"/>
  <path fill="currentColor" d="M11.746 11a.99.99 0 0 0-.746.323l-1.291 1.612a.79.79 0 0 0 0 1.13l1.29 1.612a.99.99 0 0 0 .747.323h3.368c.577 0 .886-.342.886-.833v-3.334c0-.49-.309-.833-.886-.833h-3.368Zm-.246 3a.5.5 0 1 0 0-1 .5.5 0 0 0 0 1Z" clip-rule="evenodd"/>
</svg>
