<svg width="16" height="16" fill="none" viewBox="0 0 16 16" xmlns="http://www.w3.org/2000/svg">
  <path fill="currentColor" d="m4.07 11.407 1.189-.525c.333-.197.54-.563.54-.96V5.814c0-.457.273-.867.687-1.032l3.511-1.22v7.414l.252-.314.032-.034A1.988 1.988 0 0 1 11.746 10H14V3.579c0-.66-.446-1.24-1.09-1.419L9.012 1.08a1.314 1.314 0 0 0-1.134.11L3.74 3.53c-.456.259-.74.754-.74 1.29v5.947c0 .565.593.92 1.07.64Zm4.989 3.447-.107-.133a1.786 1.786 0 0 1 0-2.442l.343-.427H5.75a.735.735 0 0 0-.712.53.759.759 0 0 0 .338.86l2.165 1.555a1.58 1.58 0 0 0 1.252.13l.266-.073Z"/>
  <path fill="currentColor" d="M11.746 11a.99.99 0 0 0-.746.323l-1.291 1.612a.79.79 0 0 0 0 1.13l1.29 1.612a.99.99 0 0 0 .747.323h3.368c.577 0 .886-.342.886-.833v-3.334c0-.49-.309-.833-.886-.833h-3.368Zm-.246 3a.5.5 0 1 0 0-1 .5.5 0 0 0 0 1Z" clip-rule="evenodd"/>
</svg>
