<svg width="16" height="16" fill="none" viewBox="0 0 16 16" xmlns="http://www.w3.org/2000/svg">
  <g fill="currentColor" clip-path="url(#prefix__a)">
    <path d="M9 1a1 1 0 1 0-2 0v1H1a1 1 0 0 0 0 2v6.9A1.1 1.1 0 0 0 2.1 12h3.32l-.396 1.783a1 1 0 0 0 1.952.434L7.47 12h1.062l.148.665c.072-.136.164-.266.273-.386l1.297-1.617.032-.034A1.988 1.988 0 0 1 11.746 10H3V4h10v6h2V4a1 1 0 1 0 0-2H9V1Z"/>
    <path d="M6 5.2c0-.11.09-.201.2-.19A2 2 0 1 1 4.01 7.2c-.011-.11.08-.2.19-.2h1.7a.1.1 0 0 0 .1-.1V5.2ZM11.5 8a.5.5 0 0 0 .5-.5v-1a.5.5 0 0 0-.5-.5h-2a.5.5 0 0 0-.5.5v1a.5.5 0 0 0 .5.5h2Z"/>
    <path d="M11.746 11a.99.99 0 0 0-.746.323l-1.291 1.612a.79.79 0 0 0 0 1.13l1.29 1.612a.99.99 0 0 0 .747.323h3.368c.577 0 .886-.342.886-.833v-3.334c0-.49-.309-.833-.886-.833h-3.368Zm-.246 3a.5.5 0 1 0 0-1 .5.5 0 0 0 0 1Z" clip-rule="evenodd"/>
  </g>
  <defs>
    <clipPath id="prefix__a">
      <path fill="#fff" d="M0 0h16v16H0z"/>
    </clipPath>
  </defs>
</svg>
