<svg width="16" height="16" fill="none" viewBox="0 0 16 16" xmlns="http://www.w3.org/2000/svg">
  <path fill="currentColor" d="M4.75 4.987a1 1 0 0 0-1.895-.64L1.051 9.68A1 1 0 0 0 1 10v4.01a1 1 0 0 0 1 1h12.006a1 1 0 0 0 1-1.002L15 9.998a1 1 0 0 0-.052-.316l-1.79-5.334a1 1 0 0 0-1.896.637L12.61 9h-1.57a1.1 1.1 0 0 0-.776.32l-.678.676L6.414 10l-.678-.678A1.1 1.1 0 0 0 4.96 9H3.392L4.75 4.987ZM2.999 11v2.01h10.005L13.001 11h-1.588l-.678.675a1.1 1.1 0 0 1-.775.321L6.043 12a1.1 1.1 0 0 1-.78-.322L4.587 11H2.999Z" clip-rule="evenodd"/>
  <path fill="currentColor" d="M10.669 2.951a1 1 0 0 1-1.29.958l-1.63.942 1.516.862a1 1 0 1 1-.587 1.047l-1.79-1.018A1 1 0 1 1 6.79 4.02l1.878-1.088a1 1 0 0 1 2 .02Z"/>
</svg>
