<svg width="16" height="16" fill="none" viewBox="0 0 16 16" xmlns="http://www.w3.org/2000/svg">
  <path fill="currentColor" d="M8 1a1 1 0 0 0-1 1v4h-.793a.5.5 0 0 0-.353.854l1.792 1.792a.5.5 0 0 0 .708 0l1.792-1.792A.5.5 0 0 0 9.793 6H9V2a1 1 0 0 0-1-1Z"/>
  <path fill="currentColor" d="M3.322 9h1.637a1.1 1.1 0 0 1 .777.322l.678.678h3.188l.678-.678A1.1 1.1 0 0 1 11.057 9h1.621l-1.413-4h-.202a1 1 0 1 1 0-2h.959a1 1 0 0 1 .962.728l1.978 6A1 1 0 0 1 15 10v4a1 1 0 0 1-1 1H2a1 1 0 0 1-1-1v-4a1 1 0 0 1 .038-.272l1.978-6A1 1 0 0 1 3.978 3h1.007a1 1 0 0 1 0 2h-.25L3.322 9ZM3 11v2h10v-2h-1.57l-.678.678a1.1 1.1 0 0 1-.777.322H6.04a1.1 1.1 0 0 1-.777-.322L4.586 11H3Z" clip-rule="evenodd"/>
</svg>
