<svg width="32" height="32" fill="none" viewBox="0 0 32 32" xmlns="http://www.w3.org/2000/svg">
  <path fill="currentColor" d="M24 5.867c0-1.597-1.779-2.55-3.108-1.665L12.182 10H3a2 2 0 0 0-2 2v6a2 2 0 0 0 2 2h1.67l1.194 6.369a2 2 0 0 0 1.966 1.63h1.965a2 2 0 0 0 1.966-2.368L10.705 20h2.979l7.208 4.798C22.22 25.683 24 24.73 24 23.133V17c.264 0 .52-.26.708-.73.188-.47.292-1.11.292-1.77 0-.66-.104-1.3-.292-1.77S24.264 12 24 12V5.867Zm-10 11.94v-6.615l8-5.325v17.266l-8-5.325ZM3 12h9v6h-1.295a2 2 0 0 0-1.966 2.369l1.056 5.63H7.83l-1.194-6.368A2 2 0 0 0 4.67 18H3v-6Z" clip-rule="evenodd"/>
  <path fill="currentColor" d="M27.384 7.077a1 1 0 0 0-.768 1.846c1.095.456 2.057 1.34 2.677 2.57v.001a6.748 6.748 0 0 1 .002 6.01c-.631 1.233-1.596 2.118-2.682 2.574a1 1 0 1 0 .774 1.844c1.552-.65 2.859-1.885 3.69-3.51v-.003a8.748 8.748 0 0 0 .001-7.817c-.821-1.63-2.131-2.865-3.694-3.515Z"/>
</svg>
