<svg width="24" height="24" fill="none" viewBox="0 0 24 24" xmlns="http://www.w3.org/2000/svg">
  <path fill="currentColor" d="M12 16V9.498C12 8.671 12.672 8 13.497 8H16c0-1.46-.003-4-.006-4C15.993 4 4 4 4 3.996c0 0 0 7.263.002 12.004H12Zm0 2H4.003c.001 1.218.004 2 .004 2H12v-2Zm8.503 4H4.007A2 2 0 0 1 2 20.007V3.993A2 2 0 0 1 4.007 2h11.986C17.096 2 18 2.894 18 3.99V8h2.503A1.5 1.5 0 0 1 22 9.498v11.004c0 .827-.672 1.498-1.497 1.498ZM8 6a1 1 0 0 1 1.01-1h1.98a1 1 0 1 1 0 2H9.01C8.451 7 8 6.556 8 6Zm6 4v10h6V10h-6Zm3 9a1 1 0 1 1 0-2 1 1 0 0 1 0 2Z"/>
</svg>
