<svg width="24" height="24" fill="none" viewBox="0 0 24 24" xmlns="http://www.w3.org/2000/svg">
  <path fill="currentColor" d="M1 19.713V4.287c0-.74.54-1.37 1.272-1.483l10-1.538A1.5 1.5 0 0 1 14 2.748v18.504a1.5 1.5 0 0 1-1.728 1.482l-10-1.538A1.5 1.5 0 0 1 1 19.713ZM5 16h4.986v-1.75H6.883v-1.375h2.86v-1.75h-2.86V9.75H10V8H5v8Z" clip-rule="evenodd"/>
  <path fill="currentColor" d="M23 7.793a.5.5 0 0 1-.146.353L15.5 15.5v-8l3.354-3.354A.5.5 0 0 1 19.207 4H22.5a.5.5 0 0 1 .5.5v3.293Zm-6.94 9.267 4-4 2.794 2.793a.5.5 0 0 1 .146.354V19.5a.5.5 0 0 1-.5.5h-3.293a.5.5 0 0 1-.353-.146L16.06 17.06Z"/>
</svg>
