<svg width="32" height="32" fill="none" viewBox="0 0 32 32" xmlns="http://www.w3.org/2000/svg">
  <path fill="currentColor" d="M0 25.76V6.24c0-1.034.748-1.913 1.761-2.07l13.846-2.146A2.083 2.083 0 0 1 18 4.093v23.814c0 1.282-1.135 2.263-2.393 2.068L1.761 27.83A2.088 2.088 0 0 1 0 25.76ZM5.5 21V11h7v2.188H8.137v1.718h4.003v2.188H8.137v1.718h4.344V21H5.5Z" clip-rule="evenodd"/>
  <path fill="currentColor" d="M29.805 10.701a.698.698 0 0 0 .195-.486V5.688A.677.677 0 0 0 29.333 5h-4.39a.657.657 0 0 0-.472.201L20 9.813v11L29.805 10.7Zm-3.725 6.757-5.332 5.5 3.723 3.84a.656.656 0 0 0 .472.202h4.39a.677.677 0 0 0 .667-.688v-4.527a.699.699 0 0 0-.195-.486l-3.724-3.84Z"/>
</svg>
