<svg width="32" height="32" fill="none" viewBox="0 0 32 32" xmlns="http://www.w3.org/2000/svg">
  <path fill="currentColor" d="M21 4H10a2 2 0 0 0-2 2v2h7a2 2 0 0 1 2 2v12a2 2 0 0 1-2 2H8v2a2 2 0 0 0 2 2h11V4Zm2 24h2a2 2 0 0 0 2-2v-2h-4v4Zm4-11v5h-4v-5h4Zm0-2v-5h-4v5h4Zm0-9v2h-4V4h2a2 2 0 0 1 2 2Z"/>
  <path fill="currentColor" d="M3 11a1 1 0 0 1 1-1h10a1 1 0 0 1 1 1v10a1 1 0 0 1-1 1H4a1 1 0 0 1-1-1V11Zm2.967 9v-7.874h1.547l3.222 5.258v-5.258h1.477V20h-1.595l-3.174-5.135V20H5.967Z" clip-rule="evenodd"/>
</svg>
