<svg width="24" height="24" fill="none" viewBox="0 0 24 24" xmlns="http://www.w3.org/2000/svg">
  <g fill="currentColor" clip-path="url(#prefix__a)">
    <path d="M4 5a1 1 0 0 1 2 0v6a1 1 0 1 1-2 0V5Zm14 0a1 1 0 1 0 2 0 1 1 0 0 0-2 0ZM7 5a1 1 0 0 1 2 0v6a1 1 0 1 1-2 0V5Zm3 0a1 1 0 1 1 2 0v6a1 1 0 1 1-2 0V5Z"/>
    <path d="M22 1H2a1 1 0 0 0-1 1v12a1 1 0 0 0 1 1h9v2.268a2.01 2.01 0 0 0-.732.732H5a1 1 0 1 0 0 2h5.268a2 2 0 0 0 1.707 1 3.498 3.498 0 0 1 .496-3.768l.529-.715V15h1.124l.505-.682.062-.07C15.334 13.53 16.244 13 17.423 13h5.104c.158 0 .316.01.473.028V2a1 1 0 0 0-1-1Zm-4.577 12H3V3h18v10h-3.577Z" clip-rule="evenodd"/>
    <path d="M16.181 15.582c.33-.368.723-.582 1.242-.582h5.104c.96 0 1.473.616 1.473 1.5v6c0 .884-.513 1.5-1.473 1.5h-5.104c-.519 0-.912-.214-1.242-.582l-2.148-2.9a1.504 1.504 0 0 1 0-2.036l2.148-2.9Zm1.737 3.936a1.003 1.003 0 1 1-2.006 0 1.003 1.003 0 0 1 2.006 0Z" clip-rule="evenodd"/>
  </g>
  <defs>
    <clipPath id="prefix__a">
      <path fill="#fff" d="M0 0h24v24H0z"/>
    </clipPath>
  </defs>
</svg>
