<svg width="32" height="32" fill="none" viewBox="0 0 32 32" xmlns="http://www.w3.org/2000/svg">
  <path fill="currentColor" d="M3 5a2 2 0 0 1 2-2h22a2 2 0 0 1 2 2v8a2 2 0 0 1-2 2H5a2 2 0 0 1-2-2V5Zm3 1a1 1 0 0 1 2 0v6a1 1 0 1 1-2 0V6Zm5-1a1 1 0 0 0-1 1v6a1 1 0 1 0 2 0V6a1 1 0 0 0-1-1Zm3 1a1 1 0 1 1 2 0v6a1 1 0 1 1-2 0V6Zm12 3a2 2 0 1 1-4 0 2 2 0 0 1 4 0ZM3 19a2 2 0 0 1 2-2h22a2 2 0 0 1 2 2v8a2 2 0 0 1-2 2H5a2 2 0 0 1-2-2v-8Zm3 1a1 1 0 1 1 2 0v6a1 1 0 1 1-2 0v-6Zm5-1a1 1 0 0 0-1 1v6a1 1 0 1 0 2 0v-6a1 1 0 0 0-1-1Zm3 1a1 1 0 1 1 2 0v6a1 1 0 1 1-2 0v-6Zm12 3a2 2 0 1 1-4 0 2 2 0 0 1 4 0Z" clip-rule="evenodd"/>
</svg>
