<svg width="24" height="24" fill="none" viewBox="0 0 24 24" xmlns="http://www.w3.org/2000/svg">
  <path fill="currentColor" d="M2 4a2 2 0 0 1 2-2h16a2 2 0 0 1 2 2v5c0 .616-.278 1.167-.716 1.534A7.48 7.48 0 0 0 18.5 10a7.465 7.465 0 0 0-3.744 1H4a2 2 0 0 1-2-2V4Zm2.004 1a1 1 0 0 1 2 0v3a1 1 0 0 1-2 0V5ZM9 4a1 1 0 0 0-1 1v3a1 1 0 0 0 2 0V5a1 1 0 0 0-1-1Zm8.5 4a1.5 1.5 0 1 0 0-3 1.5 1.5 0 0 0 0 3ZM11 17.5c0-1.688.558-3.246 1.5-4.5H4a2 2 0 0 0-2 2v5a2 2 0 0 0 2 2h8.5a7.466 7.466 0 0 1-1.5-4.5ZM4.004 16a1 1 0 1 1 2 0v3a1 1 0 1 1-2 0v-3ZM9 15a1 1 0 0 0-1 1v3a1 1 0 1 0 2 0v-3a1 1 0 0 0-1-1Zm9.5 8a5.5 5.5 0 1 0 0-11 5.5 5.5 0 0 0 0 11Zm-.179-2.994c.589 0 1.048-.132 1.378-.396.33-.264.495-.626.495-1.085 0-.331-.088-.61-.264-.839-.176-.228-.501-.456-.976-.683a6.506 6.506 0 0 1-.683-.356.725.725 0 0 1-.21-.205.46.46 0 0 1-.067-.249.47.47 0 0 1 .164-.372c.109-.095.265-.142.469-.142.171 0 .346.022.523.066.177.044.401.122.673.233l.347-.838a5.192 5.192 0 0 0-.752-.264 2.981 2.981 0 0 0-.756-.094c-.538 0-.959.129-1.264.386-.304.257-.457.61-.457 1.06 0 .239.047.447.14.626.092.178.216.335.371.469.155.134.388.274.699.42.331.158.55.273.658.345a.9.9 0 0 1 .245.224.445.445 0 0 1 .084.265c0 .179-.063.313-.19.404-.126.09-.307.135-.544.135-.196 0-.414-.031-.651-.094a5.924 5.924 0 0 1-.87-.323V19.7c.416.204.896.306 1.438.306Z" clip-rule="evenodd"/>
</svg>
