<svg width="24" height="24" fill="none" viewBox="0 0 24 24" xmlns="http://www.w3.org/2000/svg">
  <path fill="currentColor" d="M11.752 22.997C5.792 22.866 1 17.992 1 12 1 5.925 5.925 1 12 1c5.992 0 10.866 4.792 10.997 10.752a7.974 7.974 0 0 0-3.048-1.513 1.991 1.991 0 0 0-1.233-.219 7.015 7.015 0 0 0-4.736-4.736 2 2 0 1 0-3.96 0 7.008 7.008 0 0 0-4.95 5.717L5 11a2 2 0 1 0 .627 3.9 7.018 7.018 0 0 0 4.393 3.816 2.016 2.016 0 0 0 .22 1.233 7.974 7.974 0 0 0 1.512 3.048Z"/>
  <path fill="currentColor" d="M16.633 10.116A5.002 5.002 0 0 0 7 12a5.002 5.002 0 0 0 3.116 4.633 8.007 8.007 0 0 1 6.517-6.517Z"/>
  <path fill="currentColor" d="M18 24a6 6 0 1 0 0-12 6 6 0 0 0 0 12Zm1-8.5c0-.276.245-.5.5-.5h1.038c.255 0 .462.224.462.5v5c0 .276-.207.5-.462.5h-5.077c-.254 0-.461-.224-.461-.5v-5c0-.276.207-.5.461-.5H16.5c.255 0 .5.224.5.5v2h2v-2Z" clip-rule="evenodd"/>
</svg>
