<svg width="24" height="24" fill="none" viewBox="0 0 24 24" xmlns="http://www.w3.org/2000/svg">
  <path fill="currentColor" d="M7 12a1 1 0 1 1-2 0 1 1 0 0 1 2 0Zm13 0a1 1 0 1 1-2 0 1 1 0 0 1 2 0Zm-4 1a1 1 0 1 0 0-2 1 1 0 0 0 0 2Z"/>
  <path fill="currentColor" d="M6.28 2a3 3 0 0 0-2.724 1.743L1.334 8.556A1.493 1.493 0 0 0 1 9.52v4.98A1.5 1.5 0 0 0 2.5 16H11v2.268a2.01 2.01 0 0 0-.732.732H5a1 1 0 1 0 0 2h5.268a2 2 0 0 0 3.464 0H19a1 1 0 1 0 0-2h-5.268a2.01 2.01 0 0 0-.732-.732V16h8.5a1.5 1.5 0 0 0 1.5-1.5V9.461a1.493 1.493 0 0 0-.334-.905l-2.222-4.813A3 3 0 0 0 17.72 2H6.28ZM21 14H3v-4h18v4Zm-2.372-9.42L20.206 8H3.794l1.578-3.42A1 1 0 0 1 6.28 4h11.44a1 1 0 0 1 .908.58Z" clip-rule="evenodd"/>
</svg>
