<svg width="24" height="24" fill="none" viewBox="0 0 24 24" xmlns="http://www.w3.org/2000/svg">
  <path fill="currentColor" d="M6.549 3.092a.892.892 0 0 0-.278-.087.444.444 0 0 0-.209.018c-.85.294-2.084 1.152-2.774 3.017-.698 1.889-.05 4.054 1.218 5.864 2.58 3.68 5.625 6.295 7.956 7.87 1.556 1.05 3.414 1.54 5.083 1.009 2-.635 2.96-1.913 3.405-2.855.07-.151.073-.364-.04-.59a6.882 6.882 0 0 0-3.086-3.071l-.06-.03.877-1.76-.876 1.76a.175.175 0 0 0-.2.031l-1.124 1.12a3.402 3.402 0 0 1-4.798 0l-3.033-3.02 1.209-1.215-1.21 1.215a3.386 3.386 0 0 1 0-4.802l1.125-1.119a.15.15 0 0 0 .03-.175 7.081 7.081 0 0 0-3.175-3.16l-.04-.02Zm.931-1.77a9.081 9.081 0 0 1 4.07 4.052 2.15 2.15 0 0 1-.405 2.49l-1.124 1.12a1.386 1.386 0 0 0 0 1.966l3.033 3.02c.546.543 1.43.543 1.976 0l1.124-1.119a2.175 2.175 0 0 1 2.502-.404l.06.03a8.883 8.883 0 0 1 3.98 3.963c.33.654.448 1.52.063 2.34-.63 1.336-1.972 3.072-4.608 3.91-2.438.773-4.933.007-6.808-1.26-2.498-1.686-5.732-4.465-8.474-8.378C1.416 10.98.39 8.11 1.412 5.347c.904-2.445 2.598-3.73 3.996-4.214.774-.268 1.513-.09 2.032.169l.04.02Z" clip-rule="evenodd"/>
</svg>
