<svg width="16" height="16" fill="none" viewBox="0 0 16 16" xmlns="http://www.w3.org/2000/svg">
  <g fill="currentColor" clip-path="url(#prefix__a)">
    <path d="M2 8a6 6 0 0 1 9.428-4.925 1 1 0 0 0 1.144-1.64 8 8 0 1 0 3.347 5.424 1 1 0 1 0-1.98.283A6.049 6.049 0 0 1 14 8 6 6 0 0 1 2 8Z"/>
    <path d="M12 8a4 4 0 1 1-8 0 4 4 0 0 1 8 0Zm-4 2a2 2 0 1 0 0-4 2 2 0 0 0 0 4Z" clip-rule="evenodd"/>
  </g>
  <defs>
    <clipPath id="prefix__a">
      <path fill="#fff" d="M0 0h16v16H0z"/>
    </clipPath>
  </defs>
</svg>
