<svg width="32" height="32" fill="none" viewBox="0 0 32 32" xmlns="http://www.w3.org/2000/svg">
  <path fill="currentColor" d="M6.176 14.6c0 .773.098 1.362.293 1.767.194.405.48.608.858.608.76 0 1.14-.792 1.14-2.375s-.377-2.375-1.131-2.375c-.384 0-.673.202-.867.607-.195.402-.293.992-.293 1.768Zm13.327-.325h.325c.297 0 .51-.083.64-.25.13-.17.195-.423.195-.756 0-.347-.07-.593-.209-.738-.136-.148-.348-.223-.635-.223h-.316v1.967Z"/>
  <path fill="currentColor" d="M4 3a2 2 0 0 0-2 2v18a2 2 0 0 0 2 2h8l-.845 3.379a.5.5 0 0 0 .485.621h4.652A9 9 0 0 0 30 17.343V5a2 2 0 0 0-2-2H4Zm12 20c0-2.029.863-3.855 2.241-5.134a7.027 7.027 0 0 1 2.172-1.372A6.953 6.953 0 0 1 23 16a7.065 7.065 0 0 1 2.074.312A7 7 0 1 1 16 23Zm9.074-8.76a8.965 8.965 0 0 0-1.257-.203v-1.71h-1.299v-1.109h3.855v1.109h-1.299v1.913Zm-15.312.36c0 1.122-.21 1.985-.63 2.588-.421.603-1.023.905-1.805.905-.786 0-1.389-.3-1.81-.9-.42-.603-.63-1.47-.63-2.602 0-1.123.21-1.983.63-2.58.421-.6 1.027-.9 1.819-.9.782 0 1.382.302 1.8.905.417.6.626 1.461.626 2.584Zm3.762-3.382h1.27L13.2 18h-1.605l-1.586-6.782h1.27l.887 4.143c.08.352.16.858.236 1.516.065-.56.147-1.065.246-1.516l.877-4.143Zm3.284 5.25c-.44.418-.838.88-1.187 1.378v-6.628h1.187v5.25Zm5.012-2.391a8.946 8.946 0 0 0-3.579 1.282v-4.14h1.652c.699 0 1.214.165 1.544.496.334.33.502.836.502 1.516 0 .318-.04.6-.12.846Z" clip-rule="evenodd"/>
  <path fill="currentColor" d="M20.5 19.862a.5.5 0 0 1 .748-.434l5.492 3.138a.5.5 0 0 1 0 .868l-5.492 3.139a.5.5 0 0 1-.748-.435v-6.276Z"/>
</svg>
