<svg width="24" height="24" fill="none" viewBox="0 0 24 24" xmlns="http://www.w3.org/2000/svg">
  <path fill="currentColor" d="M4.325 12.403c-.163-.34-.245-.833-.245-1.48 0-.651.082-1.145.245-1.481.163-.34.406-.51.727-.51.632 0 .948.664.948 1.99 0 1.327-.319 1.99-.956 1.99-.316 0-.556-.17-.719-.51Zm11.192-1.753h-.272V9.003h.264c.241 0 .418.062.532.186.117.122.175.328.175.618 0 .28-.054.49-.163.633-.109.14-.287.21-.536.21Z"/>
  <path fill="currentColor" d="M3 2a2 2 0 0 0-2 2v13a2 2 0 0 0 2 2h5.8l-.632 2.371A.5.5 0 0 0 8.65 22h6.698a.5.5 0 0 0 .483-.629L15.2 19H21a2 2 0 0 0 2-2V4a2 2 0 0 0-2-2H3Zm4.084 8.922c0 .94-.176 1.663-.528 2.169-.353.505-.857.757-1.512.757-.658 0-1.163-.25-1.515-.753-.353-.506-.529-1.232-.529-2.18 0-.94.176-1.661.529-2.161C3.88 8.25 4.389 8 5.051 8c.655 0 1.158.253 1.508.758.35.502.524 1.224.524 2.164Zm3.152-2.833H11.3l-1.336 5.682H8.619L7.29 8.089h1.065l.742 3.47c.068.296.134.72.198 1.271.055-.469.123-.892.206-1.27l.735-3.47Zm1.756 5.682V8.089h.995v5.682h-.995Zm3.253-2.211v2.21h-1.057V8.09h1.383c.586 0 1.017.138 1.294.415.28.277.42.7.42 1.27 0 .718-.242 1.22-.727 1.505l1.092 2.49h-1.13l-.898-2.21h-.377Zm4.667 2.21h-1.053V9.019H17.77V8.09H21v.93h-1.088v4.752Z" clip-rule="evenodd"/>
</svg>
