<svg width="24" height="24" fill="none" viewBox="0 0 24 24" xmlns="http://www.w3.org/2000/svg">
  <g fill="currentColor" clip-path="url(#prefix__a)">
    <path d="M11 0C7.603 0 4.594 2 3.338 4.977 1.324 5.943 0 7.943 0 10.187c0 3.018 2.38 5.519 5.451 5.809L6 16a1 1 0 1 0 0-2h-.455C3.576 13.81 2 12.154 2 10.187c0-1.556.99-2.944 2.483-3.529a1 1 0 0 0 .578-.595C5.92 3.658 8.291 2 11 2c2.99 0 5.539 2.014 6.14 4.765a1 1 0 0 0 .623.722C19.106 7.995 20 9.235 20 10.625 20 12.48 18.421 14 16.454 14h-.452a1 1 0 0 0-.985 1.173l.115.043c.175.071.34.157.495.256A4.98 4.98 0 0 1 17.75 15c.539 0 1.058.085 1.544.243 1.619-.937 2.706-2.65 2.706-4.618 0-2.058-1.203-3.893-3.035-4.794C17.975 2.419 14.739 0 11 0Z"/>
    <path d="M14 14.997a3.011 3.011 0 0 0-1.998.77 3 3 0 0 0-3.837-.13A1 1 0 0 1 8 15.086V12.5A1.5 1.5 0 0 1 9.5 11h3a1.5 1.5 0 0 1 1.5 1.5v2.497ZM9 8a2 2 0 1 0 4 0 2 2 0 0 0-4 0Zm1.929 9.629a1 1 0 1 0-1.857.743l2 5a1 1 0 0 0 1.857 0l1.7-4.25a.193.193 0 0 1 .371.07V23a1 1 0 1 0 2 0v-3.25a.75.75 0 0 1 1.5 0V23a1 1 0 1 0 2 0v-3.25a.75.75 0 0 1 1.5 0V23a1 1 0 1 0 2 0v-3.25a2.75 2.75 0 0 0-4.5-2.121A2.74 2.74 0 0 0 17.75 17c-.58 0-1.12.18-1.564.488a2.193 2.193 0 0 0-3.415.89l-.77 1.93-1.072-2.68Z"/>
  </g>
  <defs>
    <clipPath id="prefix__a">
      <path fill="#fff" d="M0 0h24v24H0z"/>
    </clipPath>
  </defs>
</svg>
