<svg width="24" height="24" fill="none" viewBox="0 0 24 24" xmlns="http://www.w3.org/2000/svg">
  <path fill="currentColor" d="M22 21a.999.999 0 0 1 1 1c0 .552-.44 1-1.003 1H2.002A.999.999 0 0 1 1 22a.995.995 0 0 1 1-1V8.85c0-.548.451-1.07.99-1.16L6 7.184V2.999C6 2.447 6.456 2 7.002 2h9.995A.995.995 0 0 1 18 2.999V10h3.01c.546 0 .99.447.99.998V21Zm-6 0V4H8v17h3v-.99a1 1 0 1 1 2 0v.98c0 .004 3 .01 3 .01ZM6 21H4V9.548l2-.336V21Zm12-9v9h2v-9h-2Zm-6.99-6a1 1 0 1 0 0 2h1.98a1 1 0 1 0 0-2h-1.98ZM10 10a1 1 0 0 1 1.01-1h1.98a1 1 0 1 1 0 2h-1.98c-.558 0-1.01-.444-1.01-1Zm1.01 2a1 1 0 1 0 0 2h1.98a1 1 0 1 0 0-2h-1.98Zm0 3a1 1 0 1 0 0 2h1.98a1 1 0 1 0 0-2h-1.98Z" clip-rule="evenodd"/>
</svg>
