<svg width="16" height="16" fill="none" viewBox="0 0 16 16" xmlns="http://www.w3.org/2000/svg">
  <g clip-path="url(#prefix__a)">
    <path fill="currentColor" d="M6.782.014c.35-.051.69.04.98.225.48.305.721.796.835 1.273.113.476.118 1.008.073 1.516-.08.907-.33 1.857-.56 2.535.605.892 1.447 1.902 2.598 3.016a11.556 11.556 0 0 1 2.018-.223c.86-.01 1.555.113 2.085.345.525.229.937.59 1.108 1.07.179.5.05 1.01-.276 1.383-.316.36-.791.575-1.323.634-1.07.12-2.464-.362-3.949-1.725l-.062-.057c-1.189.28-2.639.756-4.383 1.505A14.996 14.996 0 0 1 4.689 13.5c-.6.806-1.198 1.399-1.753 1.804-.545.398-1.09.644-1.578.689a1.391 1.391 0 0 1-.763-.13 1.07 1.07 0 0 1-.54-.64c-.162-.517.057-1.072.365-1.528.643-.952 2.08-2.101 4.55-3.198.61-1.24 1.203-2.796 1.712-4.726-.735-1.198-1.108-2.242-1.223-3.103-.116-.875.027-1.651.455-2.157.22-.26.518-.446.868-.497ZM7.2 3.952a8.35 8.35 0 0 0 .164-1.04c.039-.435.026-.81-.042-1.097-.068-.286-.172-.412-.262-.468a.243.243 0 0 0-.084-.035H6.97l-.008.004a.19.19 0 0 0-.047.042c-.096.113-.246.457-.156 1.137.054.402.189.89.44 1.457Zm.454 3.21a27.577 27.577 0 0 1-.915 2.602 27.582 27.582 0 0 1 2.47-.828 21.59 21.59 0 0 1-1.555-1.774Zm-3.93 5.436c-1.217.715-1.902 1.365-2.216 1.83a1.699 1.699 0 0 0-.135.234c.18-.048.448-.167.79-.417.43-.313.938-.806 1.475-1.528l.087-.119Zm8.288-2.887c.96.681 1.713.824 2.164.774.285-.032.428-.134.48-.195.041-.046.035-.064.03-.077l-.001-.002c-.012-.033-.085-.172-.398-.309-.31-.135-.806-.244-1.543-.234a8.404 8.404 0 0 0-.732.043Z" clip-rule="evenodd"/>
  </g>
  <defs>
    <clipPath id="prefix__a">
      <path fill="#fff" d="M0 0h16v16H0z"/>
    </clipPath>
  </defs>
</svg>
