<svg width="24" height="24" fill="none" viewBox="0 0 24 24" xmlns="http://www.w3.org/2000/svg">
  <g clip-path="url(#prefix__a)">
    <path fill="currentColor" d="M10.312.023c.535-.086 1.042.072 1.457.362.68.474 1.002 1.219 1.152 1.913.152.704.159 1.492.098 2.248-.11 1.365-.453 2.797-.769 3.812.816 1.326 1.95 2.825 3.494 4.476 1.015-.209 1.908-.308 2.689-.318 2.293-.032 3.998.731 4.46 2.158.234.72.073 1.461-.375 2.025-.441.555-1.12.897-1.89.99-1.541.19-3.483-.576-5.506-2.618l-.029-.03c-1.579.418-3.502 1.116-5.812 2.204a22.9 22.9 0 0 1-1.678 2.966c-.817 1.208-1.635 2.102-2.4 2.716-.745.599-1.514.99-2.229 1.061a1.92 1.92 0 0 1-1.14-.214 1.61 1.61 0 0 1-.762-.974c-.212-.744.07-1.553.494-2.244.877-1.43 2.84-3.155 6.202-4.803.832-1.861 1.64-4.2 2.335-7.102-1.007-1.8-1.515-3.364-1.67-4.646-.157-1.293.034-2.44.616-3.197.302-.393.73-.7 1.263-.785Zm.56 5.548c.068-.394.122-.795.154-1.184.052-.657.035-1.229-.06-1.667-.094-.437-.237-.619-.334-.69-.131.174-.338.705-.214 1.735a8.29 8.29 0 0 0 .453 1.806Zm-.295-3.573a.01.01 0 0 1-.002 0h.002Zm1 8.946a43.842 43.842 0 0 1-1.16 3.607 35.034 35.034 0 0 1 3.14-1.149 32.178 32.178 0 0 1-1.98-2.458Zm-5.632 8.15c-1.447.979-2.278 1.862-2.675 2.508-.07.115-.122.213-.16.297.21-.09.494-.253.841-.532.576-.462 1.263-1.194 1.994-2.273ZM2.73 22h.002-.002Zm14.824-7.43c1.296 1.015 2.282 1.202 2.83 1.135.342-.042.507-.174.567-.25.054-.068.055-.116.039-.165-.036-.11-.474-.803-2.53-.774-.279.003-.58.021-.906.055Z" clip-rule="evenodd"/>
  </g>
  <defs>
    <clipPath id="prefix__a">
      <path fill="#fff" d="M0 0h24v24H0z"/>
    </clipPath>
  </defs>
</svg>
