<svg width="24" height="24" fill="none" viewBox="0 0 24 24" xmlns="http://www.w3.org/2000/svg">
  <path fill="currentColor" d="M13.06 2.002A1 1 0 0 0 12 3v8a1 1 0 0 0 1 1h8a1 1 0 0 0 .998-1.06c-.16-2.691-.947-4.88-2.502-6.436C17.94 2.95 15.75 2.162 13.06 2.002ZM14 10V4.103c1.824.258 3.152.885 4.082 1.815.93.93 1.557 2.258 1.815 4.082H14Z" clip-rule="evenodd"/>
  <path fill="currentColor" d="M8.332 4.888a1 1 0 1 0-.918-1.776A10 10 0 0 0 2 12c0 5.523 4.477 10 10 10a10 10 0 0 0 8.888-5.414 1 1 0 1 0-1.776-.918 8 8 0 1 1-10.78-10.78Z"/>
</svg>
