<svg width="16" height="16" fill="none" viewBox="0 0 16 16" xmlns="http://www.w3.org/2000/svg">
  <g fill="currentColor" clip-path="url(#prefix__a)">
    <path d="M8.077.003A1 1 0 0 0 7 1v7a1 1 0 0 0 1 1h7a1 1 0 0 0 .997-1.077l-.105-1.372A7 7 0 0 0 9.449.109L8.077.003ZM9 7V2.08l.296.023a5 5 0 0 1 4.601 4.601L13.92 7H9Z" clip-rule="evenodd"/>
    <path d="M4.572 3.075a1 1 0 0 0-1.144-1.64 8 8 0 1 0 11.138 11.138 1 1 0 1 0-1.64-1.145 6 6 0 1 1-8.353-8.353Z"/>
  </g>
  <defs>
    <clipPath id="prefix__a">
      <path fill="#fff" d="M0 0h16v16H0z"/>
    </clipPath>
  </defs>
</svg>
