<svg width="32" height="32" fill="none" viewBox="0 0 32 32" xmlns="http://www.w3.org/2000/svg">
  <path fill="currentColor" d="M22.345 7.006s0-.722.556-1.278c.89-.89 2.39-.833 3.279.056.945.945 1 2.389.11 3.279-.611.61-1.277.556-1.277.556-.501 0-1.056.11-1.222.277-.167.223-.056.61.333 1l4.168 4.169c.334.333.722.889.722 1 0 .11-.333.5-.722.89l-3.89 3.889c-.334.334-.89.779-1.001.723a2.48 2.48 0 0 1-.5-.39c-.167-.166-.39-.443-.444-.554v-.112c.166-.722-.056-1.501-.556-2.001-.89-.888-2.335-.833-3.28.112-.944.945-1 2.389-.111 3.279.556.5 1.279.723 2 .556h.113c.166.11.388.277.555.444.167.167.445.556.389.667 0 .11-.333.5-.723.889l-3.89 3.89c-.333.334-.89.778-1 .723-.111 0-.5-.334-.89-.723l-4.167-4.168c-.39-.39-.834-.555-1-.334-.167.223-.278.779-.278 1.279 0 0 0 .722-.556 1.278-.89.889-2.334.834-3.28-.112-.944-.944-1-2.39-.11-3.278.61-.611 1.278-.555 1.278-.555.5.055 1.112-.112 1.278-.28.167-.165.056-.61-.333-1L3.728 17.01c-.334-.334-.78-.89-.723-1.001 0-.11.334-.5.723-.888l4.168-4.168c.389-.39.555-.834.333-1.001-.222-.166-.778-.278-1.278-.278 0 0-.722 0-1.278-.555-.89-.89-.834-2.335.11-3.28.946-.944 2.39-1 3.224-.167.612.612.556 1.279.556 1.279-.056.5.11 1.11.278 1.278.166.167.61.056 1-.333l4.168-4.17c.334-.332.89-.776 1-.721.112 0 .5.333.89.722l4.168 4.169c.389.333.834.5 1 .333.167-.167.278-.723.278-1.223Z"/>
</svg>
