<svg width="24" height="24" fill="none" viewBox="0 0 24 24" xmlns="http://www.w3.org/2000/svg">
  <path fill="currentColor" d="M8.293 14.707a1 1 0 1 1 1.414-1.414L11 14.586l3.293-3.293a1 1 0 0 1 1.414 1.414l-4 4a1 1 0 0 1-1.414 0l-2-2Z"/>
  <path fill="currentColor" d="M19.001 4H18a1 1 0 0 0-1-1h-1V2a1 1 0 0 0-1-1H9a1 1 0 0 0-1 1v1H7a1 1 0 0 0-1 1H4.999A2.004 2.004 0 0 0 3 6v15c0 1.105.893 2 2 2h14c1.103 0 2-.9 2-2V6c0-1.105-.891-2-1.999-2ZM18 7V6h1s-.004 15 0 15H5V6h1v1a1 1 0 0 0 1 1h10a1 1 0 0 0 1-1ZM8 6h8V5c-1.105 0-2-.892-2-2h-4c0 1.105-.892 2-2 2v1Z" clip-rule="evenodd"/>
</svg>
