<svg width="16" height="16" fill="none" viewBox="0 0 16 16" xmlns="http://www.w3.org/2000/svg">
  <g clip-path="url(#prefix__a)">
    <path fill="currentColor" d="M8 16A8 8 0 1 0 8 0a8 8 0 0 0 0 16Zm2.732-10.732a2.732 2.732 0 1 1-5.464 0 2.732 2.732 0 0 1 5.464 0Zm-7.906 6.566A7.006 7.006 0 0 1 8 9.561c2.047 0 3.89.876 5.174 2.273A6.43 6.43 0 0 1 8 14.439c-2.12 0-4-1.024-5.174-2.605Z" clip-rule="evenodd"/>
  </g>
  <defs>
    <clipPath id="prefix__a">
      <path fill="#fff" d="M0 0h16v16H0z"/>
    </clipPath>
  </defs>
</svg>
