<svg width="32" height="32" fill="none" viewBox="0 0 32 32" xmlns="http://www.w3.org/2000/svg">
  <path fill="currentColor" d="M12 15a3 3 0 1 0 0-6 3 3 0 0 0 0 6Zm0-2a1 1 0 1 0 0-2 1 1 0 0 0 0 2Z" clip-rule="evenodd"/>
  <path fill="currentColor" d="m21.707 11.707-10 10a1 1 0 0 1-1.414-1.414l10-10a1 1 0 1 1 1.414 1.414Z"/>
  <path fill="currentColor" d="M20 23a3 3 0 1 0 0-6 3 3 0 0 0 0 6Zm0-2a1 1 0 1 0 0-2 1 1 0 0 0 0 2Z" clip-rule="evenodd"/>
  <path fill="currentColor" d="m27.297 22.86.185 1.258a2.833 2.833 0 0 1-3.165 3.22l-1.261-.162a4.214 4.214 0 0 0-3.918 1.663l-.76 1.02a2.833 2.833 0 0 1-4.514.039l-.778-1.006a4.214 4.214 0 0 0-3.946-1.595l-1.257.185a2.833 2.833 0 0 1-3.221-3.165l.162-1.261a4.214 4.214 0 0 0-1.663-3.918l-1.02-.76a2.833 2.833 0 0 1-.039-4.514l1.006-.778A4.214 4.214 0 0 0 4.703 9.14l-.185-1.257a2.833 2.833 0 0 1 3.165-3.221l1.261.162a4.214 4.214 0 0 0 3.918-1.663l.76-1.02a2.833 2.833 0 0 1 4.515-.039l.776 1.006a4.214 4.214 0 0 0 3.947 1.595l1.258-.185a2.833 2.833 0 0 1 3.22 3.165l-.162 1.261a4.214 4.214 0 0 0 1.663 3.918l1.02.76a2.833 2.833 0 0 1 .039 4.515l-1.006.776a4.214 4.214 0 0 0-1.595 3.947Zm-2.018.39a6.428 6.428 0 0 1 2.432-6.019l1.018-.786a.698.698 0 0 0-.01-1.113l-1.031-.767A6.428 6.428 0 0 1 25.15 8.59l.164-1.275a.7.7 0 0 0-.793-.78l-1.272.186a6.428 6.428 0 0 1-6.019-2.432l-.786-1.017a.7.7 0 0 0-1.112.01l-.768 1.03A6.428 6.428 0 0 1 8.59 6.85l-1.275-.164a.699.699 0 0 0-.78.794l.185 1.27a6.428 6.428 0 0 1-2.432 6.02l-1.017.785a.7.7 0 0 0 .01 1.113l1.03.767a6.428 6.428 0 0 1 2.537 5.976l-.164 1.275a.699.699 0 0 0 .794.78l1.271-.187a6.428 6.428 0 0 1 6.02 2.432l.785 1.018a.698.698 0 0 0 1.113-.01l.767-1.031a6.428 6.428 0 0 1 5.976-2.537l1.275.164a.7.7 0 0 0 .78-.793l-.187-1.272Z" clip-rule="evenodd"/>
</svg>
