<svg width="32" height="32" fill="none" viewBox="0 0 32 32" xmlns="http://www.w3.org/2000/svg">
  <path fill="currentColor" d="m4 19.88.002-12.84a2.5 2.5 0 0 1 1.634-2.345l9.5-3.506a2.5 2.5 0 0 1 1.731 0l9.498 3.505A2.5 2.5 0 0 1 28 7.041l-.014 12.91-.003.047c-.157 3.222-2.588 5.914-5.664 7.915-1.127.734-2.414 1.392-3.473 1.866-.532.238-1.03.44-1.446.588a8.15 8.15 0 0 1-.603.191c-.136.037-.451.12-.795.12-.345 0-.66-.083-.795-.12a8.195 8.195 0 0 1-.604-.191c-.415-.148-.913-.35-1.446-.588-1.06-.474-2.347-1.132-3.475-1.865-3.09-2.01-5.513-4.702-5.68-7.983L4 19.881Zm2-.05.002-12.791a.5.5 0 0 1 .327-.47l9.5-3.505a.5.5 0 0 1 .346 0l9.498 3.505a.5.5 0 0 1 .327.47L25.986 19.9c-.11 2.243-1.855 4.447-4.758 6.336-2.032 1.322-4.757 2.44-5.226 2.44-.47 0-3.196-1.118-5.23-2.44C7.868 24.347 6.118 22.142 6 19.83Z" clip-rule="evenodd"/>
  <path fill="currentColor" d="M20.293 11.293a1 1 0 0 1 1.414 1.414l-7 7a1 1 0 0 1-1.414 0l-3-3a1 1 0 0 1 1.414-1.414L14 17.586l6.293-6.293Z"/>
</svg>
