<svg width="32" height="32" fill="none" viewBox="0 0 32 32" xmlns="http://www.w3.org/2000/svg">
  <path fill="currentColor" d="M7.417 5.971A2 2 0 0 1 9.132 5h13.736a2 2 0 0 1 1.715.971l5.132 8.554A2 2 0 0 1 30 15.554v6.93l-2.449-1.193c.457-.805 1.119-2.115 1.119-3.94 0-1.23-.295-2.607-1.125-3.732a4.687 4.687 0 0 0-1.762-1.462l-2.822-4.674A1 1 0 0 0 22.107 7H9.821a1 1 0 0 0-.86.49l-4.238 7.132A.25.25 0 0 0 4.94 15h4.95c-.005.13-.008.262-.008.393 0 2.288.82 3.856 1.39 4.821l-3.393 1.778c-.627.326-1 .833-1.216 1.231-.22.405-.351.83-.435 1.198-.168.733-.218 1.544-.227 2.227V27H4a2 2 0 0 1-2-2v-9.446a2 2 0 0 1 .285-1.029l5.132-8.554Z"/>
  <path fill="currentColor" d="m18.61 21.753 3.823 2.013c1.13.615.68 5.34.68 5.34H8.123s-.551-4.706.68-5.34l3.823-2.004c.699-.377 1.03-.79 1.03-1.167 0-.297-.215-.654-.495-1.118-.524-.872-1.279-2.124-1.279-4.084 0-2.656 1.388-4.393 3.731-4.393 2.61 0 3.75 2.15 3.75 4.411 0 1.76-.689 2.958-1.2 3.845-.299.522-.537.936-.537 1.293 0 .413.303.855.983 1.204Z"/>
  <path fill="currentColor" d="m26.026 22.773 3.208 1.562c1.14.552.67 2.868.67 2.868h-5c-.273 0-.247-.343-.206-.866.065-.825.165-2.101-.832-3.187a9.68 9.68 0 0 0-.758-.683C21.962 21.5 20.42 20.2 20.42 17.47c.018-2.371 1.158-3.796 3.134-3.796 2.196 0 3.116 1.793 3.116 3.677 0 1.47-.576 2.465-1.002 3.203-.251.435-.45.78-.45 1.08.038.5.35.937.808 1.139Z"/>
</svg>
