<svg width="32" height="32" fill="none" viewBox="0 0 32 32" xmlns="http://www.w3.org/2000/svg">
  <path fill="currentColor" d="M3.383 26.08a1.7 1.7 0 0 1-2.057-.393c-.634-.735-.46-1.836.366-2.364 4.136-2.642 6.278-5.522 6.278-8.64 0-1.598-.103-1.698-3.312-2.397C1.863 11.586 0 9.289 0 6.492 0 2.797 3.105 0 7.038 0c4.659 0 7.867 3.696 7.867 9.09 0 6.91-4.37 13.281-11.522 16.99ZM32 9.09c0 6.91-4.37 13.28-11.523 16.99a1.7 1.7 0 0 1-2.056-.393c-.634-.735-.461-1.836.366-2.364 4.136-2.642 6.278-5.522 6.278-8.64 0-1.598-.104-1.698-3.313-2.397-2.794-.7-4.657-2.997-4.657-5.794C17.095 2.797 20.2 0 24.133 0 28.79 0 32 3.696 32 9.09Z"/>
</svg>
