<svg width="24" height="24" fill="none" viewBox="0 0 24 24" xmlns="http://www.w3.org/2000/svg">
  <path fill="currentColor" d="M7 4a1 1 0 0 0 0 2h4.5a1 1 0 1 0 0-2H7ZM6 8a1 1 0 0 1 1-1h4.5a1 1 0 1 1 0 2H7a1 1 0 0 1-1-1Zm1 2a1 1 0 1 0 0 2h4.5a1 1 0 1 0 0-2H7Zm4.5 5a1 1 0 0 1 1-1H17a1 1 0 1 1 0 2h-4.5a1 1 0 0 1-1-1Zm4.5-3h1a1 1 0 1 0 0-2h-1a1 1 0 1 0 0 2Zm-1-4a1 1 0 0 1 1-1h1a1 1 0 1 1 0 2h-1a1 1 0 0 1-1-1Zm1-4a1 1 0 1 0 0 2h1a1 1 0 1 0 0-2h-1Z"/>
  <path fill="currentColor" d="M3.2 0A1.2 1.2 0 0 0 2 1.2v18.217c0 .318.126.624.351.849l2.8 2.8a1.2 1.2 0 0 0 1.698 0L9 20.914l2.152 2.152a1.2 1.2 0 0 0 1.697 0L15 20.914l2.151 2.152a1.2 1.2 0 0 0 1.698 0l2.8-2.8a1.2 1.2 0 0 0 .351-.849V1.2A1.2 1.2 0 0 0 20.8 0H3.2ZM4 19.086V2h16v17.086l-2 2-2.152-2.152a1.2 1.2 0 0 0-1.697 0L12 21.086l-2.151-2.152a1.2 1.2 0 0 0-1.698 0L6 21.086l-2-2Z" clip-rule="evenodd"/>
</svg>
