<svg width="24" height="24" fill="none" viewBox="0 0 24 24" xmlns="http://www.w3.org/2000/svg">
  <path fill="currentColor" d="M15 3.997h4v10.086a6.036 6.036 0 0 1 2 0V2.997a1 1 0 0 0-1-1h-6a1 1 0 0 0-1 1v18a1 1 0 0 0 1 1h.34A5.99 5.99 0 0 1 14 20c0-1.227.368-2.367 1-3.318V3.997Zm-8.004.997a1 1 0 1 1 0 2 1 1 0 0 1 0-2Z"/>
  <path fill="currentColor" d="M11 2.997a1 1 0 0 0-1-1H4a1 1 0 0 0-1 1v18a1 1 0 0 0 1 1h6a1 1 0 0 0 1-1v-18Zm-2 1H5v16h4v-16Z" clip-rule="evenodd"/>
  <path fill="currentColor" d="M16.004 5.994a1 1 0 1 1 2 0 1 1 0 0 1-2 0Z"/>
</svg>
