<svg width="32" height="32" fill="none" viewBox="0 0 32 32" xmlns="http://www.w3.org/2000/svg">
  <path fill="currentColor" d="M8 9a1 1 0 1 0 0-2 1 1 0 0 0 0 2Zm4-1a1 1 0 1 1-2 0 1 1 0 0 1 2 0Zm3 0a1 1 0 1 1-2 0 1 1 0 0 1 2 0Z"/>
  <path fill="currentColor" d="M5 3a2 2 0 0 0-2 2v22a2 2 0 0 0 2 2h9.554a10.451 10.451 0 0 1-.957-2H5V13h22v.598c.704.248 1.374.57 2 .956V5a2 2 0 0 0-2-2H5Zm22 8H5V5h22v6Z" clip-rule="evenodd"/>
  <path fill="currentColor" d="M27.207 24.707a1 1 0 0 1-1.414 0l-2-2a1 1 0 0 1 0-1.414l2-2a1 1 0 0 1 1.414 1.414L25.914 22l1.293 1.293a1 1 0 0 1 0 1.414Zm-6-2.414a1 1 0 0 0-1.414 1.414L21.086 25l-1.293 1.293a1 1 0 0 0 1.414 1.414l2-2a1 1 0 0 0 0-1.414l-2-2Z"/>
  <path fill="currentColor" d="M23.5 32a8.5 8.5 0 1 0 0-17 8.5 8.5 0 0 0 0 17Zm0-2a6.5 6.5 0 1 0 0-13 6.5 6.5 0 0 0 0 13Z" clip-rule="evenodd"/>
</svg>
