<svg width="24" height="24" fill="none" viewBox="0 0 24 24" xmlns="http://www.w3.org/2000/svg">
  <path fill="currentColor" d="M22 8h-3V3a1 1 0 0 0-1-1H2a1 1 0 0 0-1 1v12a1 1 0 0 0 1 1h3v5a1 1 0 0 0 1 1h16a1 1 0 0 0 1-1V9a1 1 0 0 0-1-1ZM7 14v-4h14v4H7Zm10-6V4H3v4h14ZM3 14v-4h2v4H3Zm4 2v4h14v-4H7ZM4 6a1 1 0 1 0 2 0 1 1 0 0 0-2 0Zm5 7a1 1 0 1 1 0-2 1 1 0 0 1 0 2Zm0 6a1 1 0 1 1 0-2 1 1 0 0 1 0 2Zm9-7a1 1 0 1 0 2 0 1 1 0 0 0-2 0Zm1 7a1 1 0 1 1 0-2 1 1 0 0 1 0 2Zm-4-7a1 1 0 1 0 2 0 1 1 0 0 0-2 0Zm1 7a1 1 0 1 1 0-2 1 1 0 0 1 0 2ZM15 7a1 1 0 1 1 0-2 1 1 0 0 1 0 2Zm-4-1a1 1 0 1 0 2 0 1 1 0 0 0-2 0Z" clip-rule="evenodd"/>
</svg>
