<svg width="32" height="32" fill="none" viewBox="0 0 32 32" xmlns="http://www.w3.org/2000/svg">
  <path fill="currentColor" d="M8 6V5a1 1 0 0 1 1-1h2V2.999C11 1.897 11.9 1 12.997 1h6.006C20.107 1 21 1.892 21 2.999V4h2a1 1 0 0 1 1 1v1h2a2 2 0 0 1 2 2v6a1 1 0 1 1-2 0V8h-2v1a1 1 0 0 1-1 1H9a1 1 0 0 1-1-1V8H6v20h20v-4a1 1 0 1 1 2 0v4a2 2 0 0 1-2 2H6a2 2 0 0 1-2-2V8a2 2 0 0 1 2-2h2Zm2 0v2h12V6h-1.001A1.996 1.996 0 0 1 19 4.001V3l-6-.001V4a1.996 1.996 0 0 1-1.999 2H10Zm.003 8A.994.994 0 0 0 9 15a1 1 0 0 0 1.003 1h4.994A.994.994 0 0 0 16 15a1 1 0 0 0-1.003-1h-4.994Zm.006 4a1 1 0 1 0 0 2h1.982a1 1 0 1 0 0-2h-1.982ZM9 23a1 1 0 0 1 .99-1h4.02c.546 0 .99.444.99 1a1 1 0 0 1-.99 1H9.99A.993.993 0 0 1 9 23Zm12.707-.707L19.414 20H31a1 1 0 1 0 0-2H19.414l2.293-2.293a1 1 0 0 0-1.414-1.414l-4 4a1 1 0 0 0 0 1.414l4 4a1 1 0 0 0 1.414-1.414Z" clip-rule="evenodd"/>
</svg>
