<svg width="32" height="32" fill="none" viewBox="0 0 32 32" xmlns="http://www.w3.org/2000/svg">
  <path fill="currentColor" d="M13 10v1.584L9.705 8.292a.997.997 0 0 0-1.413.003 1.004 1.004 0 0 0 .003 1.417L11.587 13h-1.586a1 1 0 1 0 0 2h4a1 1 0 0 0 1-1v-4a1 1 0 0 0-2 0Zm5.704 4.708L22 11.416V13a1 1 0 1 0 2 0V9a1 1 0 0 0-1-1h-4a1 1 0 1 0 0 2h1.586l-3.293 3.288a1.004 1.004 0 0 0-.003 1.417.997.997 0 0 0 1.413.003ZM19 20.416V22a1 1 0 1 1-2 0v-4a1 1 0 0 1 1-1h4a1 1 0 1 1 0 2h-1.587l3.294 3.288c.39.39.392 1.025.003 1.417a.997.997 0 0 1-1.413.003L19 20.416Zm-5.703-3.124L10 20.584V19a1 1 0 1 0-2 0v4a1 1 0 0 0 1 1h4a1 1 0 1 0 0-2h-1.586l3.293-3.288c.39-.39.392-1.025.003-1.417a.997.997 0 0 0-1.413-.003Z"/>
  <path fill="currentColor" d="M16 30C8.268 30 2 23.732 2 16S8.268 2 16 2s14 6.268 14 14-6.268 14-14 14Zm0-2c6.627 0 12-5.373 12-12S22.627 4 16 4 4 9.373 4 16s5.373 12 12 12Z" clip-rule="evenodd"/>
</svg>
