<svg width="24" height="24" fill="none" viewBox="0 0 24 24" xmlns="http://www.w3.org/2000/svg">
  <path fill="currentColor" d="M9.333 8.154v-1.32a.833.833 0 1 1 1.667 0v3.333c0 .46-.373.834-.833.834H6.833a.833.833 0 0 1 0-1.667h1.322L6.383 7.565a.837.837 0 0 1-.002-1.18.83.83 0 0 1 1.177-.003l1.775 1.772Zm.109 5.228-1.775 1.772v-1.32a.833.833 0 1 0-1.667 0v3.333c0 .46.373.834.833.834h3.334a.833.833 0 0 0 0-1.667H8.845l1.772-1.769a.837.837 0 0 0 .002-1.18.83.83 0 0 0-1.177-.003Zm5.225 3.785v-1.32l1.775 1.771a.83.83 0 0 0 1.177-.002.837.837 0 0 0-.002-1.18l-1.772-1.77h1.322a.833.833 0 0 0 0-1.666h-3.334a.833.833 0 0 0-.833.833v3.334a.833.833 0 1 0 1.667 0Zm-.109-6.549 1.775-1.771v1.32a.833.833 0 1 0 1.667 0V6.833A.833.833 0 0 0 17.167 6h-3.334a.833.833 0 0 0 0 1.667h1.322l-1.772 1.768a.837.837 0 0 0-.002 1.181.83.83 0 0 0 1.177.002Z"/>
  <path fill="currentColor" d="M12 23C5.925 23 1 18.075 1 12S5.925 1 12 1s11 4.925 11 11-4.925 11-11 11Zm0-2a9 9 0 1 0 0-18 9 9 0 0 0 0 18Z" clip-rule="evenodd"/>
</svg>
