<svg width="24" height="24" fill="none" viewBox="0 0 24 24" xmlns="http://www.w3.org/2000/svg">
  <path fill="currentColor" d="M14.293 7.707 15.586 9H8.414l1.293-1.293a1 1 0 0 0-1.414-1.414l-3 3a1 1 0 0 0 0 1.414l3 3a1 1 0 0 0 1.414-1.414L8.414 11h7.172l-1.293 1.293a1 1 0 0 0 1.414 1.414l3-3a1 1 0 0 0 0-1.414l-3-3a1 1 0 1 0-1.414 1.414Z"/>
  <path fill="currentColor" d="M11 19.268V18H2a1 1 0 0 1-1-1V3a1 1 0 0 1 1-1h20a1 1 0 0 1 1 1v14a1 1 0 0 1-1 1h-9v1.268c.304.175.557.428.732.732H19a1 1 0 1 1 0 2h-5.268a2 2 0 0 1-3.464 0H5a1 1 0 1 1 0-2h5.268a2.01 2.01 0 0 1 .732-.732ZM3 4v12h18V4H3Z" clip-rule="evenodd"/>
</svg>
