<svg width="32" height="32" fill="none" viewBox="0 0 32 32" xmlns="http://www.w3.org/2000/svg">
  <path fill="currentColor" d="M19.75 13.157h-.248v-1.5h.24c.22 0 .382.056.485.17.107.11.16.298.16.562 0 .255-.05.447-.149.577-.099.128-.262.191-.488.191Zm-6.627.131h-.184v-1.632h.233c.222 0 .386.066.492.199.107.13.16.33.16.601 0 .295-.058.508-.174.638-.116.13-.291.194-.527.194Zm12.101 4.932-1.16.65a4.78 4.78 0 1 1-4.26 1.14l.81.88a3.63 3.63 0 0 0-1.16 2.64 3.56 3.56 0 1 0 3.91-3.54l.9 1.62-.72.4-1.62-2.89 2.9-1.62.4.72Z"/>
  <path fill="currentColor" d="M4 3a2 2 0 0 0-2 2v18a2 2 0 0 0 2 2h8l-.845 3.379a.5.5 0 0 0 .485.621h4.652A9 9 0 0 0 30 17.343V5a2 2 0 0 0-2-2H4Zm13.785 12.664c-.151.108-.299.22-.442.336h-1.891v-5.175h2.333v.831h-1.37v1.232h1.27v.836h-1.27v1.434h1.37v.506Zm1.717-.959c-.332.14-.653.3-.963.477v-4.357h1.26c.534 0 .927.126 1.179.378.255.253.382.639.382 1.158 0 .654-.22 1.11-.662 1.37l.224.51c-.296.07-.586.155-.87.253l-.207-.508h-.343v.72ZM23 14c-.351 0-.697.02-1.038.06v-.418h1.78v.388A9.128 9.128 0 0 0 23 14Zm2.73.421a8.938 8.938 0 0 0-.945-.244l-.784-3.352h.97l.676 3.16c.028.122.056.267.083.436Zm.989.38a8.925 8.925 0 0 0-.799-.317c.03-.175.061-.34.095-.498l.67-3.162h.97l-.936 3.978ZM7.653 16H6.69v-2.27H5.42V16h-.963v-5.175h.963v2.056h1.27v-2.056h.963V16Zm2.163-3.133.69-2.043h1.01l-1.229 3.101V16h-.949v-2.036l-1.224-3.14H9.13l.686 2.043Zm4.981-.45c0 .55-.14.973-.418 1.268-.276.292-.676.439-1.2.439h-.24V16h-.963v-5.175h1.313c1.005 0 1.508.53 1.508 1.593ZM30 23a7 7 0 1 1-14 0 7 7 0 0 1 14 0Z" clip-rule="evenodd"/>
</svg>
