<svg width="24" height="24" fill="none" viewBox="0 0 24 24" xmlns="http://www.w3.org/2000/svg">
  <path fill="currentColor" d="m11.172 1.674-9 3.976A1.942 1.942 0 0 0 1 7.42v9.16c0 .762.458 1.454 1.172 1.77l9 3.976c.526.232 1.13.232 1.656 0l9-3.976A1.942 1.942 0 0 0 23 16.58V7.42c0-.762-.458-1.454-1.172-1.77l-9-3.976a2.053 2.053 0 0 0-1.656 0Zm.452 8.866h-1.93c-.04-.506-.349-.806-1.002-.806-.624 0-.896.25-.9.593-.017.373.298.59 1.002.745l.61.137c1.64.369 2.314 1.202 2.321 2.388-.007 1.536-1.135 2.388-3.018 2.388-1.937 0-3.2-.875-3.207-2.83h1.915c.033.716.49 1.096 1.263 1.096.646 0 .98-.27.987-.654-.008-.354-.29-.57-1.118-.76l-.74-.168c-1.317-.296-2.122-.973-2.118-2.19C5.678 8.996 6.926 8 8.692 8c1.8 0 2.924 1.011 2.932 2.54Zm6.876 3.118C18.507 15.03 17.227 16 15.41 16c-1.76 0-3.012-1.027-3.02-2.48h2.032c.008.453.421.777 1.002.777.558 0 .95-.339.943-.822.007-.471-.45-.806-1.103-.806h-.755v-1.46h.755c.602 0 1.023-.335 1.016-.806.007-.452-.349-.776-.856-.776-.555 0-.95.335-.958.806h-1.93C12.543 9.008 13.74 8 15.424 8c1.647 0 2.808.954 2.8 2.266.008.87-.638 1.468-1.523 1.567v.06c1.197.137 1.806.81 1.799 1.765Z" clip-rule="evenodd"/>
</svg>
