<svg width="32" height="32" fill="none" viewBox="0 0 32 32" xmlns="http://www.w3.org/2000/svg">
  <path fill="currentColor" d="m3 9 8-8h18v22l-8 8H3V9Zm15.95 12.174c.835-.668 1.252-1.582 1.252-2.742 0-.838-.223-1.546-.668-2.123-.445-.577-1.268-1.153-2.47-1.727-.908-.434-1.483-.734-1.727-.9-.243-.168-.42-.34-.531-.52a1.163 1.163 0 0 1-.167-.628c0-.386.137-.7.413-.94.275-.24.67-.36 1.186-.36.434 0 .875.055 1.323.166.448.112 1.015.308 1.7.59l.88-2.119a13.142 13.142 0 0 0-1.903-.668 7.545 7.545 0 0 0-1.912-.237c-1.36 0-2.424.325-3.195.975-.77.65-1.155 1.544-1.155 2.681 0 .604.117 1.13.351 1.582.235.451.548.847.94 1.187.393.34.982.694 1.767 1.063.838.398 1.393.689 1.666.87.272.182.479.37.62.567.14.196.21.42.21.673 0 .45-.16.79-.479 1.019-.32.229-.778.343-1.375.343-.498 0-1.048-.08-1.648-.237-.6-.159-1.335-.431-2.202-.818v2.531c1.055.516 2.268.774 3.639.774 1.488 0 2.65-.334 3.485-1.002Z" clip-rule="evenodd"/>
</svg>
