<svg width="32" height="32" fill="none" viewBox="0 0 32 32" xmlns="http://www.w3.org/2000/svg">
  <path fill="currentColor" d="M15.899 16.034 26 9.175s-1.474-1.514-2.72-.671c-.996.651-7.053 4.281-9.772 5.895l-3.846-2.607c.408-.902.5-1.916.26-2.877a5.285 5.285 0 0 0-2.133-3.159C5.797 4.403 3.366 4.914 2.41 6.91a4.398 4.398 0 0 0-.268 2.888 5.305 5.305 0 0 0 2.152 3.168 4.44 4.44 0 0 0 1.504.662h.13c3.167.562 4.791 1.625 5.578 2.367-.787.752-2.41 1.805-5.579 2.366h-.129a4.429 4.429 0 0 0-1.514.662A5.305 5.305 0 0 0 2.13 22.19a4.398 4.398 0 0 0 .269 2.898c.996 2.005 3.357 2.507 5.36 1.153a5.295 5.295 0 0 0 2.151-3.168 4.398 4.398 0 0 0-.259-2.868l3.846-2.607c2.72 1.614 8.806 5.244 9.772 5.896 1.246.842 2.72-.662 2.72-.662l-10.091-6.798Zm-8-6.528c.1.402.061.826-.11 1.203-.438.903-1.713 1.003-2.789.321a3.098 3.098 0 0 1-1.245-1.815c-.117-.392-.1-.812.05-1.193.438-.902 1.713-1.002 2.79-.32a3.007 3.007 0 0 1 1.304 1.804Zm-.02 13.035.02.01c.1-.39.068-.802-.09-1.173-.438-.902-1.713-1.053-2.789-.32a3.108 3.108 0 0 0-1.265 1.814c-.104.397-.073.817.09 1.193.438.903 1.713 1.053 2.789.321a3.009 3.009 0 0 0 1.245-1.845ZM20 15h2v2h-2v-2Zm4 0h2v2h-2v-2Zm6 0h-2v2h2v-2Z" clip-rule="evenodd"/>
</svg>
