<svg width="32" height="32" fill="none" viewBox="0 0 32 32" xmlns="http://www.w3.org/2000/svg">
  <path fill="currentColor" d="M20.743 14.669a1 1 0 1 0-1.486-1.338L16.4 16.505l-1.657-1.84a1 1 0 0 0-1.486 1.337l2.4 2.667a1 1 0 0 0 1.486 0l3.6-4Z"/>
  <path fill="currentColor" d="M31 23a1 1 0 0 1 1 1v2a4 4 0 0 1-4 4H11a4 4 0 0 1-4-4V11H2a1 1 0 0 1-1-1V8a4 4 0 0 1 4-4h17a4 4 0 0 1 4 4v15h5ZM8.465 6c.34.588.535 1.271.535 2v18a2 2 0 0 0 2 2h1a2 2 0 0 0 2-2v-2a1 1 0 0 1 1-1h9V8a2 2 0 0 0-2-2H8.465ZM16 25h14v1a2 2 0 0 1-2 2H15.465A3.98 3.98 0 0 0 16 26v-1ZM7 9V8a2 2 0 1 0-4 0v1h4Z" clip-rule="evenodd"/>
</svg>
