<svg width="32" height="32" fill="none" viewBox="0 0 32 32" xmlns="http://www.w3.org/2000/svg">
  <path fill="currentColor" d="M7 5a2 2 0 0 0-2 2v6a2 2 0 0 0 2 2h18a2 2 0 0 0 2-2V7a2 2 0 0 0-2-2H7Zm17 5a1 1 0 1 1-2 0 1 1 0 0 1 2 0ZM8 8a1 1 0 0 1 2 0v4a1 1 0 1 1-2 0V8Zm5-1a1 1 0 0 0-1 1v4a1 1 0 1 0 2 0V8a1 1 0 0 0-1-1ZM7 17a2 2 0 0 0-2 2v6a2 2 0 0 0 2 2h18a2 2 0 0 0 2-2v-6a2 2 0 0 0-2-2H7Zm16 6a1 1 0 1 0 0-2 1 1 0 0 0 0 2ZM8 20a1 1 0 1 1 2 0v4a1 1 0 1 1-2 0v-4Zm5-1a1 1 0 0 0-1 1v4a1 1 0 1 0 2 0v-4a1 1 0 0 0-1-1Z" clip-rule="evenodd"/>
</svg>
