<svg width="32" height="32" fill="none" viewBox="0 0 32 32" xmlns="http://www.w3.org/2000/svg">
  <path fill="currentColor" d="M15 8h6v2h-6V8Z"/>
  <path fill="currentColor" d="M25 9a2 2 0 0 1 2-2V3H5v12h22v-4a2 2 0 0 1-2-2ZM13 5h12v.535A3.998 3.998 0 0 0 23 9c0 1.48.804 2.773 2 3.465V13H13V5Zm-2 0H7v8h4V5Z" clip-rule="evenodd"/>
  <path fill="currentColor" d="M15 22h6v2h-6v-2Z"/>
  <path fill="currentColor" d="M25 23a2 2 0 0 1 2-2v-4H5v12h22v-4a2 2 0 0 1-2-2Zm-12-4h12v.535A3.998 3.998 0 0 0 23 23c0 1.48.804 2.773 2 3.465V27H13v-8Zm-2 0H7v8h4v-8Z" clip-rule="evenodd"/>
</svg>
