<svg width="24" height="24" fill="none" viewBox="0 0 24 24" xmlns="http://www.w3.org/2000/svg">
  <g fill="currentColor" clip-path="url(#prefix__a)">
    <path d="M11 12.815a1 1 0 1 1-2 0 1 1 0 0 1 2 0Zm3 0a1 1 0 1 1-2 0 1 1 0 0 1 2 0Zm-3 6a1 1 0 1 1-2 0 1 1 0 0 1 2 0Z"/>
    <path d="M2.45 6.706.465 7.971a1 1 0 0 0-.307 1.38l.007.013a1 1 0 0 0 1.373.294L2 9.364v12.45a1 1 0 0 0 1 1h18a1 1 0 0 0 1-1V9.365l.463.294a1 1 0 0 0 1.373-.294l.008-.012a1 1 0 0 0-.308-1.381L13.074 1.313a2 2 0 0 0-2.148 0L2.478 6.689a1.023 1.023 0 0 0-.027.017ZM6 20.815H4V8.09L12 3l8 5.09v12.725h-2v-11a1 1 0 0 0-1-1H7a1 1 0 0 0-1 1v11Zm2-10h8v4H8v-4Zm0 10v-4h8v4H8Z" clip-rule="evenodd"/>
  </g>
  <defs>
    <clipPath id="prefix__a">
      <path fill="#fff" d="M0 0h24v24H0z"/>
    </clipPath>
  </defs>
</svg>
