<svg width="24" height="24" fill="none" viewBox="0 0 24 24" xmlns="http://www.w3.org/2000/svg">
  <path fill="currentColor" d="M4 6a1 1 0 1 0 2 0 1 1 0 0 0-2 0Zm12 1a1 1 0 1 1 0-2 1 1 0 0 1 0 2Zm2-1a1 1 0 1 0 2 0 1 1 0 0 0-2 0ZM4 12a1 1 0 1 0 2 0 1 1 0 0 0-2 0Zm9 1a1 1 0 1 1 0-2 1 1 0 0 1 0 2Zm3 0a1 1 0 1 1 0-2 1 1 0 0 1 0 2Zm2-1a1 1 0 1 0 2 0 1 1 0 0 0-2 0Zm0 6a1 1 0 1 0 2 0 1 1 0 0 0-2 0Zm-3 0a1 1 0 1 0 2 0 1 1 0 0 0-2 0ZM5 19a1 1 0 1 1 0-2 1 1 0 0 1 0 2Z"/>
  <path fill="currentColor" d="M1 2.992A1 1 0 0 1 1.992 2h20.016a1 1 0 0 1 .992.992v18.016a1 1 0 0 1-.992.992H1.992A1 1 0 0 1 1 21.008V2.992ZM3 8h18V4H3v4Zm18 2v4H3v-4h18ZM3 16v4h18v-4H3Z" clip-rule="evenodd"/>
</svg>
