<svg width="16" height="16" fill="none" viewBox="0 0 16 16" xmlns="http://www.w3.org/2000/svg">
  <g fill="currentColor" clip-path="url(#prefix__a)">
    <path d="M.5 2a2 2 0 0 1 2-2H4v7H2.5a2 2 0 0 1-2-2V2Z"/>
    <path d="M5 7h9.5a1 1 0 0 0 1-1V5a1.5 1.5 0 0 1 0-3V1a1 1 0 0 0-1-1H5v7Zm2-3.5a.5.5 0 0 1 .5-.5h4a.5.5 0 0 1 0 1h-4a.5.5 0 0 1-.5-.5Z" clip-rule="evenodd"/>
    <path d="M.5 11a2 2 0 0 1 2-2H4v7H2.5a2 2 0 0 1-2-2v-3Z"/>
    <path d="M5 16h9.5a1 1 0 0 0 1-1v-1a1.5 1.5 0 0 1 0-3v-1a1 1 0 0 0-1-1H5v7Zm2-3.5a.5.5 0 0 1 .5-.5h4a.5.5 0 0 1 0 1h-4a.5.5 0 0 1-.5-.5Z" clip-rule="evenodd"/>
  </g>
  <defs>
    <clipPath id="prefix__a">
      <path fill="#fff" d="M0 0h16v16H0z"/>
    </clipPath>
  </defs>
</svg>
