<svg width="16" height="16" fill="none" viewBox="0 0 16 16" xmlns="http://www.w3.org/2000/svg">
  <g fill="currentColor" clip-path="url(#prefix__a)">
    <path d="M4.5 9a1 1 0 1 0 0-2 1 1 0 0 0 0 2Zm3 0a1 1 0 1 0 0-2 1 1 0 0 0 0 2Z"/>
    <path d="M14 0H6C4.897 0 4 .897 4 2v2H2C.897 4 0 4.897 0 6v8c0 1.103.897 2 2 2h8c1.103 0 2-.897 2-2v-2h2c1.103 0 2-.897 2-2V2c0-1.103-.897-2-2-2Zm0 6h-2c0-1.103-.897-2-2-2H6V2h8v4Zm0 4h-2V8h2v2ZM2 10v2h8v2H2l-.001-8H10v4H2Z" clip-rule="evenodd"/>
  </g>
  <defs>
    <clipPath id="prefix__a">
      <path fill="#fff" d="M0 0h16v16H0z"/>
    </clipPath>
  </defs>
</svg>
