<svg width="24" height="24" fill="none" viewBox="0 0 24 24" xmlns="http://www.w3.org/2000/svg">
  <g fill="currentColor" clip-path="url(#prefix__a)">
    <path d="M4 6a1 1 0 1 0 2 0 1 1 0 0 0-2 0Zm12 1a1 1 0 1 1 0-2 1 1 0 0 1 0 2Zm2-1a1 1 0 1 0 2 0 1 1 0 0 0-2 0Z"/>
    <path d="M1.992 2A1 1 0 0 0 1 2.992v18.016a1 1 0 0 0 .992.992h10.65l-.171-.232A3.524 3.524 0 0 1 11.673 20H3v-4h10.383l1.246-1.682.062-.07c.076-.085.157-.168.241-.248H3v-4h18v3h1.527c.158 0 .316.01.473.028V2.992A1 1 0 0 0 22.008 2H1.992ZM21 8H3V4h18v4Z" clip-rule="evenodd"/>
    <path d="M20 12a1 1 0 1 1-2 0 1 1 0 0 1 2 0ZM4 12a1 1 0 1 0 2 0 1 1 0 0 0-2 0Zm9 1a1 1 0 1 1 0-2 1 1 0 0 1 0 2Zm3 0a1 1 0 1 1 0-2 1 1 0 0 1 0 2ZM4 18a1 1 0 1 0 2 0 1 1 0 0 0-2 0Z"/>
    <path d="M16.181 15.582c.33-.368.723-.582 1.242-.582h5.104c.96 0 1.473.616 1.473 1.5v6c0 .884-.513 1.5-1.473 1.5h-5.104c-.519 0-.912-.214-1.242-.582l-2.148-2.9a1.504 1.504 0 0 1 0-2.036l2.148-2.9Zm1.738 3.937a1.003 1.003 0 1 1-2.006 0 1.003 1.003 0 0 1 2.006 0Z" clip-rule="evenodd"/>
  </g>
  <defs>
    <clipPath id="prefix__a">
      <path fill="#fff" d="M0 0h24v24H0z"/>
    </clipPath>
  </defs>
</svg>
