<svg width="32" height="32" fill="none" viewBox="0 0 32 32" xmlns="http://www.w3.org/2000/svg">
  <path fill="currentColor" d="M16 22a6 6 0 1 1 0-12 6 6 0 0 1 0 12Zm0-2a4 4 0 1 0 0-8 4 4 0 0 0 0 8Z" clip-rule="evenodd"/>
  <path fill="currentColor" d="M27.832 8.555a1 1 0 0 0-.125-1.262l-3-3a1 1 0 0 0-1.262-.125L20.653 6.03a10.936 10.936 0 0 0-.964-.396l-.719-2.877A1 1 0 0 0 18 2h-4a1 1 0 0 0-.97.757l-.72 2.877c-.327.117-.648.249-.963.396L8.555 4.168a1 1 0 0 0-1.262.125l-3 3a1 1 0 0 0-.125 1.262l1.862 2.792c-.147.315-.28.636-.396.964l-2.877.719A1 1 0 0 0 2 14v4a1 1 0 0 0 .757.97l2.877.72c.117.327.249.648.396.963l-1.862 2.792a1 1 0 0 0 .125 1.262l3 3a1 1 0 0 0 1.262.125l2.792-1.862c.315.147.636.28.964.396l.719 2.877A1 1 0 0 0 14 30h4a1 1 0 0 0 .97-.758l.72-2.876c.327-.117.648-.249.963-.396l2.792 1.862a1 1 0 0 0 1.262-.125l3-3a1 1 0 0 0 .125-1.262l-1.862-2.792c.147-.315.28-.636.396-.964l2.877-.719A1 1 0 0 0 30 18v-4a1 1 0 0 0-.758-.97l-2.876-.72a10.897 10.897 0 0 0-.396-.963l1.862-2.792ZM28 17.219l-2.655.664a1 1 0 0 0-.716.685 8.938 8.938 0 0 1-.723 1.737 1 1 0 0 0 .17 1.186l.147.146 1.49 2.236-1.84 1.84-2.236-1.49-.146-.146a1 1 0 0 0-1.186-.171c-.552.3-1.133.543-1.737.723a1 1 0 0 0-.685.715L17.22 28h-2.438l-.664-2.655a1 1 0 0 0-.685-.716 8.938 8.938 0 0 1-1.737-.723 1 1 0 0 0-1.186.17l-.146.147-2.236 1.49-1.84-1.84 1.49-2.236.146-.146a1 1 0 0 0 .171-1.186 8.941 8.941 0 0 1-.722-1.737 1 1 0 0 0-.717-.685L4 17.22v-2.438l2.655-.664a1 1 0 0 0 .717-.685 8.893 8.893 0 0 1 .722-1.737 1 1 0 0 0-.17-1.186l-.147-.146-1.49-2.236 1.84-1.84 2.236 1.49.146.146a1 1 0 0 0 1.186.171 8.941 8.941 0 0 1 1.737-.722 1 1 0 0 0 .685-.717L14.78 4h2.438l.664 2.655a1 1 0 0 0 .685.717 8.919 8.919 0 0 1 1.737.722 1 1 0 0 0 1.186-.17l.146-.147 2.236-1.49 1.84 1.84-1.49 2.236-.146.146a1 1 0 0 0-.171 1.186c.3.551.543 1.133.723 1.737a1 1 0 0 0 .715.685L28 14.78v2.438Z" clip-rule="evenodd"/>
</svg>
