<svg width="16" height="16" fill="none" viewBox="0 0 16 16" xmlns="http://www.w3.org/2000/svg">
  <g clip-path="url(#prefix__a)">
    <path fill="currentColor" d="m9.37.503.195 1.943.118.036c.359.11.703.253 1.028.426l.11.059 1.511-1.237a.558.558 0 0 1 .749.037l1.152 1.152a.558.558 0 0 1 .037.748L13.033 5.18l.059.11c.163.306.3.629.406.965l.037.114 1.976.247c.28.035.489.272.489.554v1.66c0 .282-.21.52-.489.554l-1.976.247-.037.114a5.73 5.73 0 0 1-.376.907l-.055.106 1.224 1.573a.558.558 0 0 1-.046.737l-1.176 1.176a.558.558 0 0 1-.737.046l-1.573-1.224-.106.055c-.289.15-.592.277-.907.377l-.114.035-.247 1.977a.558.558 0 0 1-.554.489H7.17a.558.558 0 0 1-.554-.489l-.247-1.976-.114-.037a5.728 5.728 0 0 1-.907-.376l-.106-.055-1.573 1.224a.558.558 0 0 1-.737-.046l-1.176-1.176a.558.558 0 0 1-.046-.737l1.224-1.573-.055-.106a5.729 5.729 0 0 1-.396-.97l-.036-.118L.503 9.37A.558.558 0 0 1 0 8.815v-1.63c0-.287.217-.527.503-.555l1.943-.195.036-.118a5.73 5.73 0 0 1 .426-1.028l.059-.11L1.73 3.667a.558.558 0 0 1 .037-.748l1.152-1.152a.558.558 0 0 1 .748-.037L5.18 2.967l.11-.059a5.73 5.73 0 0 1 1.028-.426l.118-.036L6.63.503A.558.558 0 0 1 7.185 0h1.63c.287 0 .527.217.555.503ZM10.977 8a2.977 2.977 0 1 1-5.954 0 2.977 2.977 0 0 1 5.954 0Z" clip-rule="evenodd"/>
  </g>
  <defs>
    <clipPath id="prefix__a">
      <path fill="#fff" d="M0 0h16v16H0z"/>
    </clipPath>
  </defs>
</svg>
