<svg width="32" height="32" fill="none" viewBox="0 0 32 32" xmlns="http://www.w3.org/2000/svg">
  <path fill="currentColor" d="M26.999 7.99c0-.626-.292-1.21-.836-1.522C24.656 5.607 21.155 4 16 4 11.6 4 7.744 5.61 5.996 6.47 5.366 6.78 5 7.427 5 8.13v10.727C5 24 14 28 16 28c.435 0 1.201-.19 2.133-.538a8 8 0 0 1 8.856-9.402l.01-10.07ZM17.729 15l.594-4.448a.5.5 0 0 0-.897-.356l-5.324 6.002A.5.5 0 0 0 12.5 17h1.77l-.594 4.448a.5.5 0 0 0 .897.356l5.324-6.002A.5.5 0 0 0 19.5 15h-1.77Z" clip-rule="evenodd"/>
</svg>
