<svg width="24" height="24" fill="none" viewBox="0 0 24 24" xmlns="http://www.w3.org/2000/svg">
  <path fill="currentColor" d="M2 2a1 1 0 0 0-.116 1.993L2 4h2.261l.765 3.227 2.096 9a1 1 0 0 0 .859.766l.114.006h10.837a1 1 0 0 0 .918-.602l.04-.113 2.068-6.96a1 1 0 0 0-.712-1.253l-.112-.022-14.3-1.945-.816-3.341a1 1 0 0 0-.858-.757L5.047 2H2Zm5.303 6.186L19.71 9.874l-1.524 5.125H8.89L7.303 8.186ZM7.5 18a2.5 2.5 0 1 0 0 5 2.5 2.5 0 0 0 0-5Zm0 2a.5.5 0 1 1 0 1 .5.5 0 0 1 0-1Zm10-2a2.5 2.5 0 1 0 0 5 2.5 2.5 0 0 0 0-5Zm0 2a.5.5 0 1 1 0 1 .5.5 0 0 1 0-1Z" clip-rule="evenodd"/>
</svg>
