<svg width="16" height="16" fill="none" viewBox="0 0 16 16" xmlns="http://www.w3.org/2000/svg">
  <g fill="currentColor" clip-path="url(#prefix__a)">
    <path d="M3.976.783A1 1 0 0 0 3 0H1a1 1 0 0 0 0 2h1.198l1.826 8.217A1 1 0 0 0 5 11h9a1 1 0 0 0 .98-.804l1-5a1 1 0 0 0-.88-1.191L4.477 3.043 3.976.783Zm9.827 5.102L13.18 9H5.802l-.867-3.902 8.868.787Z" clip-rule="evenodd"/>
    <path d="M6 16a2 2 0 1 1 0-4 2 2 0 0 1 0 4Zm7 0a2 2 0 1 1 0-4 2 2 0 0 1 0 4Z"/>
  </g>
  <defs>
    <clipPath id="prefix__a">
      <path fill="#fff" d="M0 0h16v16H0z"/>
    </clipPath>
  </defs>
</svg>
