<svg width="32" height="32" fill="none" viewBox="0 0 32 32" xmlns="http://www.w3.org/2000/svg">
  <g fill="currentColor" clip-path="url(#prefix__a)">
    <path d="M25.147 16.714c-.192-.285-.382-.57-.467-.916-.109-.47.073-.939.232-1.353.035-.09.069-.176.098-.26.165-.47.297-.941.429-1.412.363-1.445.561-2.924.561-4.437C25.604-.134 16.033 0 16.033 0S6.462-.1 6 8.37c0 1.512.198 2.991.561 4.437.132.47.264.907.43 1.411.033.104.072.21.112.317.156.42.322.869.217 1.297-.082.336-.272.613-.462.89-.19.278-.38.555-.462.891-.231.74-.132 1.58.264 2.252.66.942 1.683 1.547 2.805 1.58 0 0 1.486.202 2.047 1.513l-.364.47s-.098.067.066.27c.198.167.397.335.595.47.066.235.066.437.066.672.066.302.23.538.495.672a.543.543 0 0 0 .396.034c.07 0 .123.049.176.1.046.042.093.086.154.101.165 0 .33 0 .495-.033a.87.87 0 0 1 .263.078c.048.021.095.042.166.056.23.068.429 0 .594-.168.112-.142.129-.103.17-.011.054.124.152.347.589.347.297.034.561-.134.627-.403a.577.577 0 0 0 .627.37c.44 0 .536-.215.59-.336.04-.088.058-.127.17 0a.777.777 0 0 0 .593.168c.093-.016.143-.04.193-.063.057-.027.114-.054.236-.072.165.034.33.034.495.034.061-.016.108-.06.154-.102.053-.05.105-.1.176-.1.132.034.264 0 .396-.033.264-.135.462-.37.495-.673 0-.208.026-.39.055-.594l.011-.078c.231-.134.43-.302.595-.47.131-.169.066-.27.066-.27l-.364-.47c.561-1.31 2.047-1.512 2.047-1.512 1.122-.068 2.178-.64 2.805-1.58a2.836 2.836 0 0 0 .264-2.252c-.096-.326-.277-.597-.457-.866Zm-7.86 3.588c.066.303.165.572.363.807h.1c.164.37.098.807-.166 1.11-.08.089-.148.17-.209.243-.19.228-.309.37-.484.395-.146.021-.318-.453-.458-.84-.082-.225-.153-.421-.202-.471a.198.198 0 0 0-.264 0c-.07.057-.164.308-.264.576-.135.362-.282.754-.396.735-.16-.027-.3-.188-.523-.444l-.17-.195a1.047 1.047 0 0 1-.165-1.109c.198-.235.297-.504.363-.807.099-.537.165-1.143.165-1.143 0-.47.264-.873.66-1.075.099-.067.198-.034.297 0a.158.158 0 0 0 .231 0 .45.45 0 0 1 .297 0c.396.235.66.639.66 1.075 0 0 .066.606.165 1.143Zm-3.663-6.756a3.07 3.07 0 0 1 .495 3.361c-.132.27-.33.47-.561.706-1.023.874-3.3 1.143-4.357.202-.858-.807-.528-2.588 0-3.462.41-.677.917-.79 1.554-.93.186-.042.383-.085.591-.146l.272-.081c.775-.237 1.324-.405 2.006.35Zm4.884 4.034c-.23-.202-.429-.404-.56-.673-.529-1.109-.33-2.453.494-3.395.663-.733 1.224-.57 1.95-.36.105.03.214.062.328.092.184.048.36.084.53.118.643.13 1.17.238 1.615.957.56.908.89 2.69 0 3.462-1.056.975-3.334.673-4.357-.201Z" clip-rule="evenodd"/>
    <path d="M22.872 22.154c.274-.072.554-.147.645.132.063.171-.02.383-.107.601-.05.125-.1.251-.124.374-.132.74-.23 1.479-.23 2.218 0 0 .032 1.412-1.387 2.857-1.749 1.815-3.036 2.89-3.036 2.89s-.726.774-2.574.774c-1.849 0-2.575-.773-2.575-.773s-1.287-1.11-3.036-2.89c-1.386-1.413-1.386-2.858-1.386-2.858 0-.74-.066-1.479-.231-2.218-.02-.074-.064-.163-.11-.26-.103-.214-.222-.463-.154-.648.097-.297.408-.211.698-.132.104.028.205.056.292.065.462.034.627.168.66.639.01.122.02.284.031.46.025.409.055.895.101 1.153.198.941.627 1.95 1.485 2.487a1.473 1.473 0 0 1 0-.537v-.034c.033-.134.132-.202.231-.202.165-.033.462-.033.528.135.033.05.033.117.033.18 0 .063 0 .122.033.156.052.053.104-.019.14-.068a.313.313 0 0 1 .025-.033.385.385 0 0 1 .33-.034c.066.034.132.068.165.135-.022.046-.014.107-.006.163.003.026.006.05.006.072.066.135.1-.067.1-.1.032-.102.164-.169.263-.135.132.033.231.1.231.235.033.101.1.034.165-.034.034-.067.133-.134.199-.134a.33.33 0 0 1 .363.168c.032.101.066.101.165.067.035-.012.04-.045.047-.084.012-.068.026-.15.217-.15.264 0 .278.133.288.223.005.045.009.079.042.079.066-.068.132-.135.132-.236.099-.1.198-.134.33-.1h.033c.066 0 .132.1.099.167-.033.101 0 .236.033.337.033-.101.066-.236.033-.337v-.033c0-.1.066-.168.132-.168.132-.034.23 0 .33.1 0 .101.066.202.132.236.033 0 .036-.034.041-.079.01-.09.025-.224.289-.224.18 0 .19.074.2.14.006.043.012.082.064.096.132.033.132.033.165-.068a.33.33 0 0 1 .363-.168l.04.02c.061.028.131.06.158.115l.028.03c.049.054.08.09.137.003.033-.134.099-.201.198-.235a.312.312 0 0 1 .297.067c0 .034.033.202.099.101.033-.067.033-.134.033-.201.033-.068.099-.101.165-.135a.384.384 0 0 1 .33.034c.011 0 .027.02.045.044.034.044.077.1.12.057.038-.039.032-.11.027-.182a.426.426 0 0 1 .006-.154c.066-.169.363-.169.528-.135.132 0 .231.1.264.202v.033c.033.168.033.37 0 .538.858-.504 1.287-1.512 1.485-2.487.045-.25.074-.727.099-1.125.012-.193.023-.368.033-.489.033-.47.165-.605.66-.638.102 0 .223-.032.345-.065Z"/>
  </g>
  <defs>
    <clipPath id="prefix__a">
      <path fill="#fff" d="M0 0h32v32H0z"/>
    </clipPath>
  </defs>
</svg>
