<svg width="32" height="32" fill="none" viewBox="0 0 32 32" xmlns="http://www.w3.org/2000/svg">
  <path fill="currentColor" d="M16 6a3 3 0 1 0 0-6 3 3 0 0 0 0 6ZM1.264 19.815A15.081 15.081 0 0 1 1 17C1 10.468 5.175 4.911 11.002 2.853a4.987 4.987 0 0 0 .353 2.002C6.47 6.723 3 11.456 3 17c0 .704.056 1.396.164 2.07a4.97 4.97 0 0 0-1.9.745ZM21 3c0 .655-.126 1.281-.355 1.854C25.53 6.724 29 11.457 29 17c0 .704-.056 1.396-.164 2.07a4.97 4.97 0 0 1 1.9.745A15.01 15.01 0 0 0 31 17c0-6.532-4.175-12.089-10.002-14.147L21 3Zm4.7 25.441A14.94 14.94 0 0 1 16 32a14.94 14.94 0 0 1-9.7-3.559 5.02 5.02 0 0 0 1.58-1.288A12.945 12.945 0 0 0 16 30c3.072 0 5.895-1.065 8.12-2.847.43.53.969.97 1.58 1.288Zm-2.537-15.439c0 1.7-3.191 3.08-7.127 3.08-3.937 0-7.127-1.38-7.127-3.08 0-1.7 3.19-3.08 7.127-3.08 3.936 0 7.127 1.38 7.127 3.08Z"/>
  <path fill="currentColor" d="M16.036 17.229c3.94 0 7.127-1.44 7.127-3.22v3.26c0 1.781-3.187 3.22-7.127 3.22s-7.127-1.439-7.127-3.22v-3.26c0 1.78 3.186 3.22 7.127 3.22Z"/>
  <path fill="currentColor" d="M8.909 18.416c0 1.771 3.186 3.21 7.127 3.21 3.94 0 7.127-1.439 7.127-3.21v3.26c0 1.772-3.187 3.12-7.127 3.12s-7.127-1.348-7.127-3.12v-3.26ZM31 24a3 3 0 1 1-6 0 3 3 0 0 1 6 0ZM4 27a3 3 0 1 0 0-6 3 3 0 0 0 0 6Z"/>
</svg>
