<svg width="24" height="24" fill="none" viewBox="0 0 24 24" xmlns="http://www.w3.org/2000/svg">
  <path fill="currentColor" d="M9 5a2 2 0 0 0-2 2v6a2 2 0 0 0 2 2h6a2 2 0 0 0 2-2V7a2 2 0 0 0-2-2H9Zm0 2h6v6H9V7Z" clip-rule="evenodd"/>
  <path fill="currentColor" d="M3 4a3 3 0 0 1 3-3h12a3 3 0 0 1 3 3v16a3 3 0 0 1-3 3H6a3 3 0 0 1-3-3V4Zm14 16v1h1a1 1 0 0 0 1-1V4a1 1 0 0 0-1-1H6a1 1 0 0 0-1 1v16a1 1 0 0 0 1 1h1v-1a1 1 0 1 1 2 0v1h2v-1a1 1 0 1 1 2 0v1h2v-1a1 1 0 1 1 2 0Z" clip-rule="evenodd"/>
</svg>
