<svg width="32" height="32" fill="none" viewBox="0 0 32 32" xmlns="http://www.w3.org/2000/svg">
  <path fill="currentColor" d="m20.313 9.733-2.903-6.15A1.577 1.577 0 0 0 16 2.668a1.575 1.575 0 0 0-1.408.917l-2.905 6.149c-.23.484-.669.82-1.182.898l-6.492.986a1.597 1.597 0 0 0-1.269 1.117 1.689 1.689 0 0 0 .397 1.682l4.7 4.787c.369.378.54.921.45 1.453l-1.108 6.759c-.1.615.142 1.237.623 1.605a1.518 1.518 0 0 0 1.656.125l5.807-3.19a1.513 1.513 0 0 1 1.464 0l5.806 3.19a1.52 1.52 0 0 0 1.657-.125c.481-.366.723-.99.623-1.605l-1.11-6.758a1.69 1.69 0 0 1 .451-1.454l4.7-4.787a1.696 1.696 0 0 0 .397-1.682 1.598 1.598 0 0 0-1.268-1.117l-6.493-.986a1.581 1.581 0 0 1-1.183-.898Zm6.247 4.17a.3.3 0 0 0-.169-.506l-5.197-.789a3.581 3.581 0 0 1-2.687-2.015l-.003-.007-2.232-4.728a.3.3 0 0 0-.542 0l-2.236 4.731a3.577 3.577 0 0 1-2.687 2.02h-.002l-5.195.788a.3.3 0 0 0-.17.507l3.832 3.902a3.685 3.685 0 0 1 .992 3.177l-.88 5.37a.3.3 0 0 0 .44.31l4.488-2.465a3.513 3.513 0 0 1 3.384.004l4.481 2.462a.3.3 0 0 0 .44-.312l-.88-5.365v-.003a3.69 3.69 0 0 1 .992-3.178l.004-.005 3.827-3.897Z" clip-rule="evenodd"/>
</svg>
