<svg width="32" height="32" fill="none" viewBox="0 0 32 32" xmlns="http://www.w3.org/2000/svg">
  <path fill="currentColor" d="M2.5 2a.5.5 0 0 0-.5.5v4a.5.5 0 0 0 .5.5h19a.5.5 0 0 0 .5-.5v-4a.5.5 0 0 0-.5-.5h-19ZM19 5.5a1 1 0 1 0 0-2 1 1 0 0 0 0 2Z" clip-rule="evenodd"/>
  <path fill="currentColor" d="M22 14.5V17h-2.134a1 1 0 1 0-1.732 0H13a2 2 0 0 0-2 2H2.5a.5.5 0 0 1-.5-.5v-4a.5.5 0 0 1 .5-.5h19a.5.5 0 0 1 .5.5ZM11 21H3a1 1 0 1 0 0 2h8v-2Z"/>
  <path fill="currentColor" d="M2.5 8a.5.5 0 0 0-.5.5v4a.5.5 0 0 0 .5.5h19a.5.5 0 0 0 .5-.5v-4a.5.5 0 0 0-.5-.5h-19ZM19 11.5a1 1 0 1 0 0-2 1 1 0 0 0 0 2ZM12 19a1 1 0 0 1 1-1h16a1 1 0 0 1 1 1v10a1 1 0 0 1-1 1H13a1 1 0 0 1-1-1V19Zm5 8a3 3 0 1 1 2.83-2h2.34A3 3 0 1 1 25 27h-8Z" clip-rule="evenodd"/>
</svg>
