<svg width="24" height="24" fill="none" viewBox="0 0 24 24" xmlns="http://www.w3.org/2000/svg">
  <path fill="currentColor" d="M3.47 1.999a1.5 1.5 0 0 0-1.5 1.5v1a1.5 1.5 0 0 0 1.5 1.5H20.5a1.5 1.5 0 0 0 1.5-1.5v-1a1.5 1.5 0 0 0-1.5-1.5H3.47ZM18 4a1 1 0 1 1 2 0 1 1 0 0 1-2 0ZM2 9.5A1.5 1.5 0 0 1 3.5 8h17A1.5 1.5 0 0 1 22 9.5v1a1.5 1.5 0 0 1-1.5 1.5h-17A1.5 1.5 0 0 1 2 10.5v-1Zm16 .5a1 1 0 1 1 2 0 1 1 0 0 1-2 0Zm-5 8h7.5a1.5 1.5 0 0 0 1.5-1.5v-1a1.5 1.5 0 0 0-1.5-1.5h-17A1.5 1.5 0 0 0 2 15.5v1A1.5 1.5 0 0 0 3.5 18H11v2H3a1 1 0 1 0 0 2h18a1 1 0 1 0 0-2h-8v-2Zm6-3a1 1 0 1 0 0 2 1 1 0 0 0 0-2Z" clip-rule="evenodd"/>
</svg>
