<svg width="24" height="24" fill="none" viewBox="0 0 24 24" xmlns="http://www.w3.org/2000/svg">
  <path fill="currentColor" d="M10.807 7.027a1.027 1.027 0 0 1 2.054 0v.027a4.41 4.41 0 0 1 1.169.317c.573.247 1.019.59 1.337 1.03.104.145.192.296.263.456.248.555-.27 1.074-.877 1.074-.446 0-.814-.317-1.166-.622a8.519 8.519 0 0 0-.26-.218 1.36 1.36 0 0 0-.07-.053c-.306-.212-.72-.318-1.242-.318-.355 0-.655.047-.9.142a1.27 1.27 0 0 0-.563.385.893.893 0 0 0-.19.56.766.766 0 0 0 .115.457c.087.13.206.242.357.337a2.7 2.7 0 0 0 .523.242c.197.067.408.124.633.171l.924.21c.45.094.861.221 1.237.38.375.158.7.353.975.584.274.23.487.503.638.817.154.313.233.673.236 1.078-.003.596-.164 1.112-.482 1.549-.315.434-.771.771-1.367 1.012a5 5 0 0 1-1.29.31v.019a1.027 1.027 0 0 1-2.054 0v-.069a4.995 4.995 0 0 1-.973-.265c-.613-.24-1.092-.597-1.437-1.069a2.676 2.676 0 0 1-.353-.68c-.2-.57.313-1.082.918-1.082h.12c.497 0 .869.428 1.179.817.178.215.414.378.709.489a2.96 2.96 0 0 0 1.01.162c.368 0 .688-.051.96-.152.274-.102.487-.243.638-.423a.943.943 0 0 0 .226-.623.782.782 0 0 0-.206-.55c-.134-.15-.332-.276-.593-.38a6.28 6.28 0 0 0-.95-.286l-1.12-.266c-.868-.2-1.553-.511-2.056-.936-.503-.424-.752-.996-.749-1.715a2.453 2.453 0 0 1 .498-1.544c.338-.44.802-.783 1.392-1.03a4.52 4.52 0 0 1 .787-.247v-.097ZM3.793 17.778c-.51.295-.664.966-.282 1.415.749.883 1.62 1.624 2.571 2.215.542.336 1.228.019 1.393-.598.124-.46-.092-.94-.492-1.2a8.935 8.935 0 0 1-1.83-1.575c-.343-.389-.911-.517-1.36-.257Zm-.499-3.04c.152.488-.024 1.032-.466 1.288-.518.299-1.185.086-1.375-.481-1.626-4.857.329-10.348 4.937-13.008a10.951 10.951 0 0 1 5.143-1.47c.637-.02 1.072.598.907 1.214-.123.46-.55.768-1.026.793a9.003 9.003 0 0 0-8.12 11.664Zm16.558-8.541c-.443.255-1.002.135-1.349-.24a8.938 8.938 0 0 0-1.707-1.441c-.4-.26-.616-.74-.492-1.2.165-.616.85-.934 1.393-.597.891.552 1.71 1.238 2.426 2.047.396.448.247 1.132-.27 1.43Z"/>
  <path fill="currentColor" d="M11.339 21.846c.123-.461.55-.769 1.026-.793a8.962 8.962 0 0 0 4.025-1.195c3.77-2.177 5.369-6.668 4.04-10.642-.165-.492.008-1.048.457-1.308.51-.294 1.168-.091 1.367.464 1.754 4.908-.19 10.519-4.864 13.218a10.951 10.951 0 0 1-5.144 1.47c-.637.02-1.072-.598-.907-1.214Z"/>
</svg>
