<svg width="16" height="16" fill="none" viewBox="0 0 16 16" xmlns="http://www.w3.org/2000/svg">
  <g fill="currentColor" clip-path="url(#prefix__a)">
    <path d="M12.665 2.753a6.901 6.901 0 0 0-2.814-1.512 2 2 0 1 0-.283 2c.655.21 1.257.551 1.767 1.006a1 1 0 0 0 1.33-1.494Zm-9.912.582a6.901 6.901 0 0 0-1.512 2.814 2 2 0 1 0 2 .283 4.895 4.895 0 0 1 1.006-1.767 1 1 0 0 0-1.494-1.33Zm10.494 9.33a6.901 6.901 0 0 0 1.512-2.814 2 2 0 1 0-2-.283 4.887 4.887 0 0 1-1.006 1.767 1 1 0 0 0 1.494 1.33Zm-7.098 2.093a6.9 6.9 0 0 1-2.814-1.511 1 1 0 0 1 1.33-1.494c.51.455 1.112.796 1.767 1.005a2 2 0 1 1-.283 2Z"/>
  </g>
  <defs>
    <clipPath id="prefix__a">
      <path fill="#fff" d="M0 0h16v16H0z"/>
    </clipPath>
  </defs>
</svg>
