<svg width="32" height="32" fill="none" viewBox="0 0 32 32" xmlns="http://www.w3.org/2000/svg">
  <path fill="currentColor" d="M15.503 6.257A2 2 0 0 0 13.646 5H7a2 2 0 0 0-2 2v17a2 2 0 0 0 2 2h18a2 2 0 0 0 2-2V12a2 2 0 0 0-2-2h-7.323a1 1 0 0 1-.928-.629l-1.246-3.114ZM12.257 13.5a.488.488 0 0 0-.494.483v4.35H9.994c-.44 0-.66.521-.349.826l2.756 2.7a.5.5 0 0 0 .698 0l2.755-2.7c.311-.305.091-.826-.348-.826h-1.77v-4.35a.488.488 0 0 0-.493-.483h-.986Zm7.98 8.017a.488.488 0 0 1-.494.483h-.986a.488.488 0 0 1-.494-.483v-4.35h-1.769c-.44 0-.66-.521-.349-.826l2.756-2.7a.5.5 0 0 1 .698 0l2.756 2.7c.31.305.09.826-.35.826h-1.768v4.35Z" clip-rule="evenodd"/>
</svg>
