<svg width="24" height="24" fill="none" viewBox="0 0 24 24" xmlns="http://www.w3.org/2000/svg">
  <g fill="currentColor" fill-rule="evenodd" clip-path="url(#prefix__a)" clip-rule="evenodd">
    <path d="m12.767 13.433-2.207-2.197a1.008 1.008 0 0 1 0-1.43l.818-.814a1.56 1.56 0 0 0 .295-1.81 6.604 6.604 0 0 0-2.96-2.948l-.03-.014c-.377-.188-.914-.318-1.477-.123C6.189 4.449 4.957 5.383 4.3 7.16c-.743 2.01.003 4.097 1.059 5.604 1.994 2.846 4.347 4.867 6.163 6.094 1.364.92 3.178 1.478 4.951.915 1.917-.609 2.894-1.871 3.352-2.844.28-.595.194-1.225-.046-1.701a6.46 6.46 0 0 0-2.895-2.882l-.043-.022a1.582 1.582 0 0 0-1.82.294l-.817.814a1.02 1.02 0 0 1-1.437 0ZM6.176 7.855C6.599 6.71 7.32 6.197 7.794 6.01l.028.014a4.608 4.608 0 0 1 1.914 1.78l-.586.584a3.008 3.008 0 0 0 0 4.265l2.206 2.196a3.02 3.02 0 0 0 4.259 0l.598-.596a4.459 4.459 0 0 1 1.78 1.873c-.283.574-.88 1.345-2.125 1.74-1.004.32-2.182.04-3.227-.666-1.65-1.114-3.813-2.971-5.644-5.584-.873-1.245-1.24-2.627-.821-3.762Z"/>
    <path d="M2 0a2 2 0 0 0-2 2v20a2 2 0 0 0 2 2h20a2 2 0 0 0 2-2V2a2 2 0 0 0-2-2H2Zm0 22V2h20v20H2Z"/>
  </g>
  <defs>
    <clipPath id="prefix__a">
      <path fill="#fff" d="M0 0h24v24H0z"/>
    </clipPath>
  </defs>
</svg>
