<svg width="24" height="24" fill="none" viewBox="0 0 24 24" xmlns="http://www.w3.org/2000/svg">
  <path fill="currentColor" d="M16 6.007c3.876.101 7 1.389 7 3.493v10c0 2.194-3.396 3.5-7.5 3.5S8 21.694 8 19.5v-1.506c-3.876-.102-7-1.39-7-3.494v-10C1 2.306 4.396 1 8.5 1S16 2.306 16 4.5v1.507Zm5 5.969C19.624 12.638 17.66 13 15.5 13s-4.124-.362-5.5-1.024V14.5c0 .568 2.424 1.5 5.5 1.5s5.5-.932 5.5-1.5v-2.524Zm0 5V19.5c0 .567-2.424 1.5-5.5 1.5s-5.5-.933-5.5-1.5v-2.524c1.376.662 3.34 1.024 5.5 1.024s4.124-.362 5.5-1.024Zm-13-.984v-2.999c-1.962-.051-3.731-.406-5-1.018V14.5c0 .536 2.166 1.399 5 1.492ZM8 9.5v1.492c-2.834-.093-5-.956-5-1.492V6.975C4.376 7.638 6.34 8 8.5 8h.12c-.398.437-.62.94-.62 1.5ZM8.5 6c3.076 0 5.5-.932 5.5-1.5S11.576 3 8.5 3 3 3.932 3 4.5 5.424 6 8.5 6ZM21 9.5c0 .568-2.424 1.5-5.5 1.5S10 10.068 10 9.5 12.424 8 15.5 8s5.5.932 5.5 1.5Z" clip-rule="evenodd"/>
</svg>
