<svg width="24" height="24" fill="none" viewBox="0 0 24 24" xmlns="http://www.w3.org/2000/svg">
  <path fill="currentColor" d="M4 6a1 1 0 1 0 2 0 1 1 0 0 0-2 0Zm15 1a1 1 0 1 1 0-2 1 1 0 0 1 0 2Zm-3 0a1 1 0 1 1 0-2 1 1 0 0 1 0 2ZM4 12a1 1 0 1 0 2 0 1 1 0 0 0-2 0Zm14 0a1 1 0 1 0 2 0 1 1 0 0 0-2 0Zm-3 0a1 1 0 1 0 2 0 1 1 0 0 0-2 0Z"/>
  <path fill="currentColor" d="M2 2h20a1 1 0 0 1 1 1v12a1 1 0 0 1-1 1h-9v2.268c.304.175.557.428.732.732H19a1 1 0 1 1 0 2h-5.268a2 2 0 0 1-3.464 0H5a1 1 0 1 1 0-2h5.268a2.01 2.01 0 0 1 .732-.732V16H2a1 1 0 0 1-1-1V3a1 1 0 0 1 1-1Zm1 2v4h18V4H3Zm0 10v-4h18v4H3Z" clip-rule="evenodd"/>
</svg>
