<svg width="16" height="16" fill="none" viewBox="0 0 16 16" xmlns="http://www.w3.org/2000/svg">
  <g fill="currentColor" clip-path="url(#prefix__a)">
    <path d="M2.173 4.115C3.093 1.671 5.385 0 8 0c2.944 0 5.44 2.11 6.088 4.987C15.246 5.625 16 6.877 16 8.273 16 10.323 14.386 12 12.375 12h-.373a1 1 0 1 1 0-2h.373C13.264 10 14 9.235 14 8.273c0-.76-.465-1.418-1.126-1.645a1 1 0 0 1-.667-.81C11.909 3.631 10.114 2 8 2 6.133 2 4.493 3.276 3.942 5.125a1 1 0 0 1-.594.646C2.548 6.083 2 6.893 2 7.818 2 9.032 2.932 10 4.063 10a1 1 0 1 1 0 2C1.81 12 0 10.12 0 7.818c0-1.575.855-2.99 2.173-3.703Z"/>
    <path d="M5 6a1 1 0 0 0-.8 1.6L6.75 11 4.2 14.4A1 1 0 0 0 5 16h5a1 1 0 0 0 1-1v-1a1 1 0 1 0-2 0H7l1.8-2.4a1 1 0 0 0 0-1.2L7 8h2a1 1 0 1 0 2 0V7a1 1 0 0 0-1-1H5Z"/>
  </g>
  <defs>
    <clipPath id="prefix__a">
      <path fill="#fff" d="M0 0h16v16H0z"/>
    </clipPath>
  </defs>
</svg>
