<svg width="24" height="24" fill="none" viewBox="0 0 24 24" xmlns="http://www.w3.org/2000/svg">
  <path fill="currentColor" d="M9 10a1 1 0 0 0-1 1v2H7a.5.5 0 0 0-.4.8l2 2.667a.5.5 0 0 0 .8 0l2-2.667a.5.5 0 0 0-.4-.8h-1v-2a1 1 0 0 0-1-1Zm6 7a1 1 0 0 0 1-1v-2h1a.5.5 0 0 0 .4-.8l-2-2.667a.5.5 0 0 0-.8 0l-2 2.667a.5.5 0 0 0 .4.8h1v2a1 1 0 0 0 1 1Z"/>
  <path fill="currentColor" d="M22 7a1 1 0 0 0-1-1h-8.28l-.771-2.316A1 1 0 0 0 11 3H3a1 1 0 0 0-1 1v16a1 1 0 0 0 1 1h18a1 1 0 0 0 1-1V7ZM4 19V5h6.28l.771 2.316A1 1 0 0 0 12 8h8v11H4Z" clip-rule="evenodd"/>
</svg>
