<svg width="16" height="16" fill="none" viewBox="0 0 16 16" xmlns="http://www.w3.org/2000/svg">
  <g clip-path="url(#prefix__a)">
    <path fill="currentColor" d="M0 5a2 2 0 0 0 1 1.732v2.536a2 2 0 1 0 2.168 3.356L6 14.017a2 2 0 0 0 4 0l2.832-1.393A2 2 0 1 0 15 9.268V6.732a2 2 0 1 0-2.168-3.356L10 1.983a2 2 0 0 0-4 0L3.168 3.376A2 2 0 0 0 0 5Zm9.038 7.29A1.529 1.529 0 0 0 9 12.268v-1.439c.424-.15.804-.392 1.116-.703l1.698.8-2.776 1.364Zm-2.076 0L7 12.268v-1.439a3.002 3.002 0 0 1-1.116-.703l-1.698.8 2.776 1.364Zm0-8.58L7 3.732v1.439c-.424.15-.804.392-1.116.703l-1.698-.8L6.962 3.71Zm2.076 0A2.005 2.005 0 0 1 9 3.732v1.439c.424.15.804.392 1.116.703l1.698-.8L9.038 3.71ZM13 9.223l-2.012-.947a3.032 3.032 0 0 0 0-.552L13 6.777v2.446ZM5.013 7.724 3 6.777v2.446l2.013-.947a3.035 3.035 0 0 1 0-.552ZM9 8a1 1 0 1 1-2 0 1 1 0 0 1 2 0Z" clip-rule="evenodd"/>
  </g>
  <defs>
    <clipPath id="prefix__a">
      <path fill="#fff" d="M0 0h16v16H0z"/>
    </clipPath>
  </defs>
</svg>
