<svg width="24" height="24" fill="none" viewBox="0 0 24 24" xmlns="http://www.w3.org/2000/svg">
  <path fill="currentColor" d="M18 24a6 6 0 1 0 0-12 6 6 0 0 0 0 12Zm1-8.5c0-.276.245-.5.5-.5h1.038c.255 0 .462.224.462.5v5c0 .276-.207.5-.462.5h-5.077c-.254 0-.461-.224-.461-.5v-5c0-.276.207-.5.461-.5H16.5c.255 0 .5.224.5.5v2h2v-2Z" clip-rule="evenodd"/>
  <path fill="currentColor" d="M4 2a2 2 0 0 0-2 2v16a2 2 0 0 0 2 2h7.07A8 8 0 0 1 22 11.07V4a2 2 0 0 0-2-2H4Z"/>
  <path fill="currentColor" d="M18 24a6 6 0 1 0 0-12 6 6 0 0 0 0 12Zm1-8.5c0-.276.245-.5.5-.5h1.038c.255 0 .462.224.462.5v5c0 .276-.207.5-.462.5h-5.077c-.254 0-.461-.224-.461-.5v-5c0-.276.207-.5.461-.5H16.5c.255 0 .5.224.5.5v2h2v-2Z" clip-rule="evenodd"/>
</svg>
