<svg width="32" height="32" fill="none" viewBox="0 0 32 32" xmlns="http://www.w3.org/2000/svg">
  <path fill="currentColor" d="M16.672 9.088c0-.601-.551-1.088-1.23-1.088-.68 0-1.23.487-1.23 1.088v.081a3.909 3.909 0 0 0-1.354.6c-.704.505-1.153 1.266-1.1 2.2v.003c.03.497.185.95.478 1.343.289.387.669.655 1.05.844.65.323 1.444.476 2.02.587l.139.027c.7.136 1.099.236 1.34.38.091.055.125.096.143.13.021.037.063.135.053.347v.003c-.005.097-.041.185-.227.29-.217.123-.587.222-1.05.221-1.01-.002-1.695-.42-1.857-.876-.204-.573-.895-.891-1.543-.71-.648.18-1.008.79-.804 1.364.433 1.215 1.552 1.9 2.711 2.204v.215c0 .6.551 1.088 1.23 1.088.68 0 1.23-.487 1.23-1.088v-.102c.496-.085.98-.24 1.407-.482.738-.416 1.318-1.105 1.36-2.034.025-.503-.065-.977-.303-1.403a2.635 2.635 0 0 0-.973-.97c-.688-.41-1.555-.579-2.157-.696l-.031-.006c-.722-.14-1.17-.23-1.482-.385a.543.543 0 0 1-.203-.148c-.021-.028-.063-.096-.073-.256a.41.41 0 0 1 .192-.4c.17-.122.477-.233.884-.252.917-.045 1.438.339 1.532.662.17.582.84.932 1.498.783.658-.15 1.055-.743.886-1.325-.352-1.21-1.422-1.87-2.536-2.144v-.095Z"/>
  <path fill="currentColor" d="M31 23a1 1 0 0 0-1-1h-5V7a4 4 0 0 0-4-4H4a4 4 0 0 0-4 4v2a1 1 0 0 0 1 1h5v15a4 4 0 0 0 4 4h17a4 4 0 0 0 4-4v-2ZM8 7c0-.729-.195-1.412-.535-2H21a2 2 0 0 1 2 2v15h-9a1 1 0 0 0-1 1v2a2 2 0 0 1-2 2h-1a2 2 0 0 1-2-2V7Zm21 17H15v1a3.98 3.98 0 0 1-.535 2H27a2 2 0 0 0 2-2v-1ZM6 7v1H2V7a2 2 0 1 1 4 0Z" clip-rule="evenodd"/>
  <path stroke="#fff" d="M16.672 9.088c0-.601-.551-1.088-1.23-1.088-.68 0-1.23.487-1.23 1.088v.081a3.909 3.909 0 0 0-1.354.6c-.704.505-1.153 1.266-1.1 2.2v.003c.03.497.185.95.478 1.343.289.387.669.655 1.05.844.65.323 1.444.476 2.02.587l.139.027c.7.136 1.099.236 1.34.38.091.055.125.096.143.13.021.037.063.135.053.347v.003c-.005.097-.041.185-.227.29-.217.123-.587.222-1.05.221-1.01-.002-1.695-.42-1.857-.876-.204-.573-.895-.891-1.543-.71-.648.18-1.008.79-.804 1.364.433 1.215 1.552 1.9 2.711 2.204v.215c0 .6.551 1.088 1.23 1.088.68 0 1.23-.487 1.23-1.088v-.102c.496-.085.98-.24 1.407-.482.738-.416 1.318-1.105 1.36-2.034.025-.503-.065-.977-.303-1.403a2.635 2.635 0 0 0-.973-.97c-.688-.41-1.555-.579-2.157-.696l-.031-.006c-.722-.14-1.17-.23-1.482-.385a.543.543 0 0 1-.203-.148c-.021-.028-.063-.096-.073-.256a.41.41 0 0 1 .192-.4c.17-.122.477-.233.884-.252.917-.045 1.438.339 1.532.662.17.582.84.932 1.498.783.658-.15 1.055-.743.886-1.325-.352-1.21-1.422-1.87-2.536-2.144v-.095Z"/>
  <path stroke="#fff" d="M31 23a1 1 0 0 0-1-1h-5V7a4 4 0 0 0-4-4H4a4 4 0 0 0-4 4v2a1 1 0 0 0 1 1h5v15a4 4 0 0 0 4 4h17a4 4 0 0 0 4-4v-2ZM8 7c0-.729-.195-1.412-.535-2H21a2 2 0 0 1 2 2v15h-9a1 1 0 0 0-1 1v2a2 2 0 0 1-2 2h-1a2 2 0 0 1-2-2V7Zm21 17H15v1a3.98 3.98 0 0 1-.535 2H27a2 2 0 0 0 2-2v-1ZM6 7v1H2V7a2 2 0 1 1 4 0Z" clip-rule="evenodd"/>
</svg>
