<svg width="24" height="24" fill="none" viewBox="0 0 24 24" xmlns="http://www.w3.org/2000/svg">
  <path fill="currentColor" d="M9.879 15.536a1 1 0 1 1-1.415-1.415L10.586 12 8.464 9.879A1 1 0 0 1 9.88 8.464L12 10.586l2.121-2.122a1 1 0 1 1 1.415 1.415L13.414 12l2.122 2.121a1 1 0 1 1-1.415 1.415L12 13.414l-2.121 2.122Z"/>
  <path fill="currentColor" d="M21 4.81a1 1 0 0 0-.78-.976l-8-2.81a1 1 0 0 0-.44 0l-8 2.81A1 1 0 0 0 3 4.81v10.047c.123 2.445 1.732 4.474 4.25 6.111C8.968 22.086 11.195 23 12 23c.804 0 3.031-.914 4.75-2.032 2.515-1.637 4.122-3.667 4.238-6.063L21 4.811Zm-16 .8 7-2.584 6.999 2.583-.01 9.248c-.077 1.57-1.298 3.113-3.33 4.436C14.236 20.217 12.329 21 12 21c-.328 0-2.237-.783-3.66-1.709-2.035-1.322-3.26-2.866-3.341-4.485V5.61Z" clip-rule="evenodd"/>
</svg>
