<svg width="32" height="32" fill="none" viewBox="0 0 32 32" xmlns="http://www.w3.org/2000/svg">
  <path fill="currentColor" d="M2 2v28h28V2H2Zm14.27 21.87a1.239 1.239 0 0 1-1 .39 1.37 1.37 0 0 1-.94-.34 1.48 1.48 0 0 1-.37-1.13c0-1 .44-1.49 1.31-1.49a1.271 1.271 0 0 1 1 .38c.247.315.368.71.34 1.11a1.58 1.58 0 0 1-.34 1.08Zm3.89-10.79a4 4 0 0 1-.63 1.14 14.321 14.321 0 0 1-1.79 1.74 6.61 6.61 0 0 0-1.45 1.57 3.26 3.26 0 0 0-.36 1.65v.36h-1.41V19a4.93 4.93 0 0 1 .4-2.11 5.61 5.61 0 0 1 1.46-1.74 9.46 9.46 0 0 0 1.87-1.89c.27-.46.405-.987.39-1.52a2.11 2.11 0 0 0-.72-1.72 3 3 0 0 0-2.05-.61 7.15 7.15 0 0 0-1.68.2 9.049 9.049 0 0 0-1.88.74l-.64-1.47a9.15 9.15 0 0 1 4.31-1.08 4.73 4.73 0 0 1 3.24 1 3.68 3.68 0 0 1 1.16 2.89 4.3 4.3 0 0 1-.22 1.39Z"/>
</svg>
