<svg width="16" height="16" fill="none" viewBox="0 0 16 16" xmlns="http://www.w3.org/2000/svg">
  <g fill="currentColor" fill-rule="evenodd" clip-path="url(#prefix__a)" clip-rule="evenodd">
    <path d="M8 10c-2.667 0-4-2.5-4-5.625C4 1.959 4.667 0 8 0s4 1.959 4 4.375C12 7.5 10.667 10 8 10Zm0-2c1.188 0 2-1.237 2-3.625C10 2.427 9.685 2 8 2s-2 .427-2 2.375C6 6.763 6.812 8 8 8Zm-3.808 2.171a3 3 0 0 1 1.677.065l1.815.604a1 1 0 0 0 .632 0l1.815-.604a3 3 0 0 1 1.676-.065l3.057.764A1.5 1.5 0 0 1 16 12.39v2.11a1.5 1.5 0 0 1-1.5 1.5h-13A1.5 1.5 0 0 1 0 14.5v-2.11a1.5 1.5 0 0 1 1.136-1.455l3.056-.764ZM2 12.781V14h12v-1.22l-2.678-.669a1 1 0 0 0-.558.022l-1.815.605a3 3 0 0 1-1.898 0l-1.815-.605a1 1 0 0 0-.558-.022L2 12.781Z"/>
  </g>
  <defs>
    <clipPath id="prefix__a">
      <path fill="#fff" d="M0 0h16v16H0z"/>
    </clipPath>
  </defs>
</svg>
