<svg width="24" height="24" fill="none" viewBox="0 0 24 24" xmlns="http://www.w3.org/2000/svg">
  <path fill="currentColor" d="M12 14c2.96 0 5-3.346 5-8.185C17 1.98 12 2 12 2s-5-.02-5 3.815C7 10.655 9.047 14 12 14Zm-1.79-9.66a5.44 5.44 0 0 1 1.243-.297c.263-.033.458-.043.552-.043.084 0 .28.01.541.043a5.44 5.44 0 0 1 1.245.296c.852.324 1.21.732 1.21 1.476C15 9.695 13.591 12 12 12c-1.588 0-3-2.31-3-6.185 0-.744.355-1.152 1.209-1.476Zm11.3 12.253a.581.581 0 0 1 .327.979l-1.527 1.572.353 2.18a.576.576 0 0 1-.85.603L18 20.919l-1.813 1.008a.578.578 0 0 1-.85-.602l.354-2.181-1.527-1.572a.584.584 0 0 1 .327-.98l2.083-.32.903-1.938a.577.577 0 0 1 1.047 0l.903 1.94 2.083.319ZM4 18.669V20h8.349c.264.746.67 1.423 1.188 2H3.991C2.891 22 2 21.113 2 20.006v-1.337c0-.83.642-1.731 1.422-2.008l3.641-1.292c.517-.184 1.35-.158 1.865.062l1.236.527c.571.243 1.345.343 2.092.312A5.989 5.989 0 0 0 12 18c0 .06.004.118.008.176l.006.104c-.936.002-1.874-.159-2.634-.483l-1.236-.526a1.484 1.484 0 0 0-.413-.018l-3.64 1.293c.014-.005-.091.143-.091.123Z" clip-rule="evenodd"/>
</svg>
