<svg width="16" height="16" fill="none" viewBox="0 0 16 16" xmlns="http://www.w3.org/2000/svg">
  <g fill="currentColor" fill-rule="evenodd" clip-path="url(#prefix__a)" clip-rule="evenodd">
    <path d="M8 10c1.932 0 3-1.613 3-4.656 0-.969-.489-1.622-1.418-2.014a4.338 4.338 0 0 0-1.08-.289 3.869 3.869 0 0 0-.5-.041c-.126 0-.308.014-.504.041-.382.054-.75.15-1.08.289C5.49 3.722 5 4.375 5 5.344 5 8.384 6.07 10 8 10Zm-.062-4.996C7.978 5 7.998 5 7.998 5h.005a2.957 2.957 0 0 1 .222.022c.237.033.433.089.58.15.103.044.162.08.192.102a.63.63 0 0 1 .003.07c0 1.34-.244 2.059-.453 2.38a.577.577 0 0 1-.206.213A.723.723 0 0 1 8 8c-.197 0-.294-.04-.338-.063a.583.583 0 0 1-.208-.214C7.244 7.4 7 6.68 7 5.344a.63.63 0 0 1 .003-.07.965.965 0 0 1 .192-.101c.147-.062.343-.118.579-.15.063-.01.12-.016.164-.02Z"/>
    <path d="M16 8A8 8 0 1 1 0 8a8 8 0 0 1 16 0ZM2.668 10.753a25.54 25.54 0 0 1 1.136-.317 23.04 23.04 0 0 1 2.086-.43c.403-.044.633.067.998.318.054.037.192.138.31.225H7.2l.184.134c.306.216.516.315.62.318.123 0 .352-.103.662-.32.08-.055.294-.216.401-.296l.062-.046c.104-.075.188-.131.279-.18.219-.12.425-.186.766-.143a28.167 28.167 0 0 1 3.156.743 6 6 0 1 0-10.662-.006Zm1.315 1.704A5.978 5.978 0 0 0 8 14c1.54 0 2.946-.58 4.008-1.535a26.599 26.599 0 0 0-1.827-.416 20.26 20.26 0 0 1-.37.27c-.619.434-1.172.682-1.81.682h-.026L7.95 13c-.605-.016-1.114-.256-1.719-.682a37.395 37.395 0 0 1-.263-.192l-.118-.086a21.532 21.532 0 0 0-1.866.417Z"/>
  </g>
  <defs>
    <clipPath id="prefix__a">
      <path fill="#fff" d="M0 0h16v16H0z"/>
    </clipPath>
  </defs>
</svg>
