<svg width="16" height="16" fill="none" viewBox="0 0 16 16" xmlns="http://www.w3.org/2000/svg">
  <g clip-path="url(#prefix__a)">
    <path fill="currentColor" d="M3.5 3v3.42L.504 8.132A1 1 0 0 0 0 9v4a1 1 0 0 0 .504.868l3.5 2a1 1 0 0 0 .992 0L8 14.152l3.004 1.716a1 1 0 0 0 .992 0l3.5-2A1 1 0 0 0 16 13V9a1 1 0 0 0-.504-.868L12.6 6.477V3a1 1 0 0 0-.514-.874l-3.6-2a1 1 0 0 0-.982.006l-3.5 2A1 1 0 0 0 3.5 3Zm1 6.976-1.613-.903L4.5 8.152l1.613.921-1.613.903Zm2.5.932-1.496.837v1.53L7 12.42v-1.512Zm-3.504.837v1.53L2 12.42v-1.512l1.496.837Zm6.391-2.672 1.613.903 1.613-.903-1.613-.921-1.613.921Zm2.617 2.672L14 10.908v1.512l-1.496.854v-1.53Zm-2.008 1.53v-1.53L9 10.908v1.512l1.496.854ZM8 3.974l-1.613-.902 1.62-.925 1.636.909L8 3.976Zm2.6.877-1.596.893v1.553l1.596-.886v-1.56Zm-3.604.893v1.53L5.5 6.42V4.908l1.496.837Z" clip-rule="evenodd"/>
  </g>
  <defs>
    <clipPath id="prefix__a">
      <path fill="#fff" d="M0 0h16v16H0z"/>
    </clipPath>
  </defs>
</svg>
