<svg width="24" height="24" fill="none" viewBox="0 0 24 24" xmlns="http://www.w3.org/2000/svg">
  <g fill="currentColor" clip-path="url(#prefix__a)">
    <path d="m12.514 1.143 9 5A1 1 0 0 1 22 7v8.064a5.036 5.036 0 0 0-2 .08V8.796l-7 3.68v2.697a3 3 0 0 0-.998.594 3.01 3.01 0 0 0-1.002-.59v-2.702l-7-3.68v7.616l3.006 1.67c.008.35.08.706.218 1.05l.709 1.753-5.447-3.026A1 1 0 0 1 2 17V7a1 1 0 0 1 .486-.857l9-5a1 1 0 0 1 1.028 0ZM12 10.718l7.005-3.682L12 3.145l-7.006 3.89L12 10.719Z" clip-rule="evenodd"/>
    <path d="M9.629 17.072a1 1 0 0 1 1.3.557L12 20.308l.772-1.93a2.193 2.193 0 0 1 3.414-.89A2.737 2.737 0 0 1 17.75 17a2.74 2.74 0 0 1 1.75.629A2.75 2.75 0 0 1 24 19.75V23a1 1 0 1 1-2 0v-3.25a.75.75 0 0 0-1.5 0V23a1 1 0 1 1-2 0v-3.25a.75.75 0 0 0-1.5 0V23a1 1 0 1 1-2 0v-3.807a.193.193 0 0 0-.371-.072l-1.7 4.25a1 1 0 0 1-1.857 0l-2-5a1 1 0 0 1 .557-1.3Z"/>
  </g>
  <defs>
    <clipPath id="prefix__a">
      <path fill="#fff" d="M0 0h24v24H0z"/>
    </clipPath>
  </defs>
</svg>
