<svg width="32" height="32" fill="none" viewBox="0 0 32 32" xmlns="http://www.w3.org/2000/svg">
  <path fill="currentColor" d="M1.004 9.096c.015.052.634 2.937 1.376 6.41.741 3.474 1.36 6.334 1.373 6.356.014.023.834.041 1.822.041h1.797l.059-.287A3087.95 3087.95 0 0 0 9.895 9.058c0-.04-.405-.058-1.257-.058-.692 0-1.258.009-1.258.019 0 .046-1.805 10.464-1.833 10.58-.017.072-.041.12-.053.108-.022-.021-1.887-10.555-1.887-10.656 0-.03-.534-.051-1.315-.051-1.228 0-1.314.006-1.288.096Zm18.678.998v1.093h2.188V9h-2.188v1.094Zm4.374 5.358v6.451H31v-1.968h-4.647V9h-2.297v6.452ZM13.108 12.06c-.737.134-1.456.51-1.812.95-.21.26-.326.473-.49.906-.11.293-.116.414-.133 3.037-.02 3.018-.005 3.198.32 3.846.192.387.68.87 1.084 1.074.553.28 1.043.376 1.946.379.936.003 1.287-.066 1.928-.38.898-.439 1.36-1.21 1.463-2.445l.04-.476H15.21l-.02.483c-.017.432-.035.504-.176.69-.219.286-.52.41-.99.41-.413 0-.742-.112-.922-.314-.213-.24-.25-.483-.252-1.692l-.002-1.161 2.282-.015 2.283-.014-.003-1.422c-.002-1.165-.02-1.485-.097-1.777-.269-1.014-.846-1.617-1.864-1.949-.382-.124-.552-.146-1.262-.16-.45-.009-.937.005-1.08.03Zm6.574 4.977v4.866h2.188v-9.732h-2.188v4.866Zm-4.987-3.16c.4.205.504.459.504 1.228v.62h-2.351v-.588c.002-.643.082-.912.342-1.152.327-.3 1.032-.352 1.505-.109Z" clip-rule="evenodd"/>
</svg>
