<svg width="32" height="32" fill="none" viewBox="0 0 32 32" xmlns="http://www.w3.org/2000/svg">
  <path fill="currentColor" d="m16.476 2.12 12 6.5a1 1 0 0 1 0 1.76l-12 6.5a1 1 0 0 1-.952 0l-12-6.5a1 1 0 0 1 0-1.76l12-6.5a1 1 0 0 1 .952 0ZM16 4.138 6.1 9.5l9.9 5.363L25.9 9.5 16 4.137ZM29 9.5V23a1 1 0 0 1-.524.88l-12 6.5A1 1 0 0 1 15 29.5V16a1 1 0 0 1 .524-.88l12-6.5A1 1 0 0 1 29 9.5Zm-2 1.679-10 5.417V27.82l10-5.417V11.18ZM4.476 8.62l12 6.5A1 1 0 0 1 17 16v13.5a1 1 0 0 1-1.476.88l-12-6.5A1 1 0 0 1 3 23V9.5a1 1 0 0 1 1.476-.88ZM5 11.179v11.225l10 5.417V16.596L5 11.179Z"/>
</svg>
