<svg width="16" height="16" fill="none" viewBox="0 0 16 16" xmlns="http://www.w3.org/2000/svg">
  <g fill="currentColor" fill-rule="evenodd" clip-path="url(#prefix__a)" clip-rule="evenodd">
    <path d="M8.394.08a1 1 0 0 0-.788 0l-7 3A1 1 0 0 0 0 4v8a1 1 0 0 0 .606.92l7 3a1 1 0 0 0 .788 0l1.13-.485-.572-.714a1.786 1.786 0 0 1 0-2.442L9 12.22V7.66l5-2.142V10h1.114c.302 0 .608.057.886.189V4a1 1 0 0 0-.606-.92l-7-3ZM2 11.34V5.518L7 7.66v5.824l-5-2.142Zm6-5.428L3.539 4 8 2.088 12.461 4 8 5.912Z"/>
    <path d="M11.746 11a.99.99 0 0 0-.746.323l-1.291 1.612a.79.79 0 0 0 0 1.13l1.29 1.612a.99.99 0 0 0 .747.323h3.368c.577 0 .886-.342.886-.833v-3.334c0-.49-.309-.833-.886-.833h-3.368Zm-.246 3a.5.5 0 1 0 0-1 .5.5 0 0 0 0 1Z"/>
  </g>
  <defs>
    <clipPath id="prefix__a">
      <path fill="#fff" d="M0 0h16v16H0z"/>
    </clipPath>
  </defs>
</svg>
