<svg width="16" height="16" fill="none" viewBox="0 0 16 16" xmlns="http://www.w3.org/2000/svg">
  <g clip-path="url(#prefix__a)">
    <path fill="currentColor" d="M7.606.08a1 1 0 0 1 .788 0l7 3A1 1 0 0 1 16 4v8a1 1 0 0 1-.606.92l-7 3a1 1 0 0 1-.788 0l-7-3A1 1 0 0 1 0 12V4a1 1 0 0 1 .606-.92l7-3ZM2 5.518v5.824l5 2.143V7.658L2 5.517ZM3.539 4 8 5.912 12.461 4 8 2.088 3.539 4ZM14 5.517 9 7.659v5.824l5-2.142V5.517Z" clip-rule="evenodd"/>
  </g>
  <defs>
    <clipPath id="prefix__a">
      <path fill="#fff" d="M0 0h16v16H0z"/>
    </clipPath>
  </defs>
</svg>
