<svg width="24" height="24" fill="none" viewBox="0 0 24 24" xmlns="http://www.w3.org/2000/svg">
  <path fill="currentColor" d="M19.65 5.143a.7.7 0 0 1 0 1.206l-7.297 4.291a.697.697 0 0 1-.707 0L4.35 6.35a.7.7 0 0 1 0-1.207L11.645.846a.697.697 0 0 1 .707 0l7.298 4.297ZM10.926 21.8c0 .54-.586.876-1.052.603l-7.28-4.28a.7.7 0 0 1-.344-.604V8.938c0-.54.586-.877 1.052-.603l7.28 4.28a.7.7 0 0 1 .344.603V21.8Zm2.148 0c0 .54.586.876 1.052.603l7.28-4.28a.7.7 0 0 0 .344-.604V8.938a.698.698 0 0 0-1.052-.603l-7.28 4.28a.7.7 0 0 0-.344.603V21.8Z"/>
</svg>
