<svg width="24" height="24" fill="none" viewBox="0 0 24 24" xmlns="http://www.w3.org/2000/svg">
  <path fill="currentColor" d="M2 9a1 1 0 0 1 1-1h6a1 1 0 0 1 1 1v6a1 1 0 0 1-1 1H3a1 1 0 0 1-1-1V9Zm6 1H4v4h4v-4Z" clip-rule="evenodd"/>
  <path fill="currentColor" d="M15 3a1 1 0 0 1 1-1h6a1 1 0 0 1 1 1v6a1 1 0 0 1-1 1h-6a1 1 0 0 1-1-1V7h-1v10h1v-2a1 1 0 0 1 1-1h6a1 1 0 0 1 1 1v6a1 1 0 0 1-1 1h-6a1 1 0 0 1-1-1v-2h-1a2 2 0 0 1-2-2v-4H9v-2h3V7a2 2 0 0 1 2-2h1V3Zm6 1h-4v4h4V4Zm0 12h-4v4h4v-4Z" clip-rule="evenodd"/>
</svg>
