<svg width="32" height="32" fill="none" viewBox="0 0 32 32" xmlns="http://www.w3.org/2000/svg">
  <path fill="currentColor" d="M10 16V8h8v2h-5a1 1 0 0 0-1 1v5h-2Zm12 5h-3v-2h8v2h-3v7h-2v-7Z"/>
  <path fill="currentColor" d="M2 5a2 2 0 0 1 2-2h24a2 2 0 0 1 2 2v12.343A9 9 0 0 1 16.292 29H11.64a.5.5 0 0 1-.485-.621L12 25H4a2 2 0 0 1-2-2V5Zm22 6v3.055a9.098 9.098 0 0 0-2 0V12h-2v2.512a8.968 8.968 0 0 0-2 1.003V12h-4v4h3.343a9.05 9.05 0 0 0-1.828 2H14v2h.512a8.948 8.948 0 0 0-.457 2H13a1 1 0 0 1-1-1v-3H9a1 1 0 0 1-1-1V7a1 1 0 0 1 1-1h10a1 1 0 0 1 1 1v3h3a1 1 0 0 1 1 1Zm6 12a7 7 0 1 1-14 0 7 7 0 0 1 14 0Z" clip-rule="evenodd"/>
</svg>
