<svg width="24" height="24" fill="none" viewBox="0 0 24 24" xmlns="http://www.w3.org/2000/svg">
  <g fill="currentColor" clip-path="url(#prefix__a)">
    <path d="M1.929 8.629a1 1 0 0 0-1.857.742l2 5a1 1 0 0 0 1.857 0l1.7-4.25a.193.193 0 0 1 .371.072V14a1 1 0 1 0 2 0v-3.25a.75.75 0 0 1 1.5 0V14a1 1 0 1 0 2 0v-3.25a.75.75 0 0 1 1.5 0V14a1 1 0 1 0 2 0v-3.25a2.75 2.75 0 0 0-4.5-2.121A2.739 2.739 0 0 0 8.75 8c-.58 0-1.12.18-1.564.488a2.193 2.193 0 0 0-3.415.89L3 11.308l-1.071-2.68Zm13.784-.587a1 1 0 0 1 1.245.67l.677 2.258.936-2.341a1 1 0 0 1 1.857 0l.937 2.34.677-2.256a1 1 0 0 1 1.916.574l-1.5 5a1 1 0 0 1-1.886.084L19.5 11.693l-1.072 2.678a1 1 0 0 1-1.886-.084l-1.5-5a1 1 0 0 1 .67-1.245Z"/>
  </g>
  <defs>
    <clipPath id="prefix__a">
      <path fill="#fff" d="M0 0h24v24H0z"/>
    </clipPath>
  </defs>
</svg>
