<svg width="24" height="24" fill="none" viewBox="0 0 24 24" xmlns="http://www.w3.org/2000/svg">
  <path fill="currentColor" d="m4.576 4.721-2.225 9.645A4.002 4.002 0 0 0 2 16.01v1.98A4 4 0 0 0 6 22h1.25l-.633-.854A2.536 2.536 0 0 1 6.051 20h-.052A2 2 0 0 1 4 17.99v-1.98C4 14.9 4.897 14 6 14h15.565l-2.142-9.279C19.072 3.193 17.566 2 15.992 2H8.009c-1.573 0-3.08 1.193-3.433 2.721Zm12.899.45 1.61 6.978A4.001 4.001 0 0 0 18 12H5.999c-.375 0-.74.052-1.084.15l1.61-6.979C6.668 4.551 7.365 4 8.01 4h7.982c.644 0 1.34.552 1.484 1.171Z" clip-rule="evenodd"/>
  <path fill="currentColor" d="M6.99 16h1l-1.373 1.854-.044.053A.998.998 0 0 1 6 17a1 1 0 0 1 .99-1Zm10.908 3.495c0 .558.106.978.318 1.26.212.283.529.425.95.425.846 0 1.268-.562 1.268-1.685 0-1.126-.42-1.689-1.26-1.689-.422 0-.74.143-.954.427-.214.283-.322.703-.322 1.262Z"/>
  <path fill="currentColor" d="M9.544 15.582c.33-.368.724-.582 1.242-.582h11.741c.96 0 1.473.616 1.473 1.5v6c0 .884-.513 1.5-1.473 1.5h-11.74c-.52 0-.913-.214-1.243-.582l-2.147-2.9a1.504 1.504 0 0 1 0-2.036l2.147-2.9Zm12.001 3.913c0 .827-.205 1.462-.615 1.907-.41.444-.998.666-1.764.666-.765 0-1.353-.222-1.763-.666-.41-.445-.615-1.082-.615-1.914 0-.832.205-1.466.615-1.904.412-.44 1.002-.66 1.77-.66s1.355.221 1.76.663c.408.442.612 1.078.612 1.908Zm-5.51 2.184c.326-.26.489-.615.489-1.067 0-.325-.087-.6-.26-.823-.173-.226-.493-.45-.96-.674a7.01 7.01 0 0 1-.674-.348.751.751 0 0 1-.205-.202.461.461 0 0 1-.065-.246c0-.15.054-.272.161-.366.107-.093.26-.14.461-.14.17 0 .34.022.513.065.176.043.397.12.663.229l.342-.824a5.08 5.08 0 0 0-.742-.26 2.915 2.915 0 0 0-.741-.092c-.529 0-.944.127-1.244.38-.299.253-.448.6-.448 1.042 0 .235.045.44.136.615.092.176.213.33.366.462s.382.27.687.413a6 6 0 0 1 .646.339c.107.07.188.144.243.222a.43.43 0 0 1 .082.26.455.455 0 0 1-.188.396c-.123.089-.3.133-.533.133-.194 0-.408-.03-.643-.092a5.87 5.87 0 0 1-.854-.318v.985c.41.2.882.3 1.415.3.579 0 1.03-.13 1.353-.39Zm-4.358-4.676V22h1.06v-4.997h-1.06Z" clip-rule="evenodd"/>
</svg>
