<svg width="24" height="24" fill="none" viewBox="0 0 24 24" xmlns="http://www.w3.org/2000/svg">
  <path fill="currentColor" d="M4 1a3 3 0 0 0-3 3v4a3 3 0 0 0 3 3h4a3 3 0 0 0 3-3V4a3 3 0 0 0-3-3H4ZM3 4a1 1 0 0 1 1-1h4a1 1 0 0 1 1 1v4a1 1 0 0 1-1 1H4a1 1 0 0 1-1-1V4Zm15-3a5 5 0 1 0 0 10 5 5 0 0 0 0-10Zm-3 5a3 3 0 1 1 6 0 3 3 0 0 1-6 0ZM1 16a3 3 0 0 1 3-3h4a3 3 0 0 1 3 3v4a3 3 0 0 1-3 3H4a3 3 0 0 1-3-3v-4Zm3-1a1 1 0 0 0-1 1v4a1 1 0 0 0 1 1h4a1 1 0 0 0 1-1v-4a1 1 0 0 0-1-1H4Zm12-2a3 3 0 0 0-3 3v4a3 3 0 0 0 3 3h4a3 3 0 0 0 3-3v-4a3 3 0 0 0-3-3h-4Zm-1 3a1 1 0 0 1 1-1h4a1 1 0 0 1 1 1v4a1 1 0 0 1-1 1h-4a1 1 0 0 1-1-1v-4Z" clip-rule="evenodd"/>
</svg>
