<svg width="24" height="24" fill="none" viewBox="0 0 24 24" xmlns="http://www.w3.org/2000/svg">
  <path fill="currentColor" d="M13 7.414V10a1 1 0 1 1-2 0V7.414l-.293.293a1 1 0 0 1-1.414-1.414l2-2a1 1 0 0 1 1.414 0l2 2a1 1 0 0 1-1.414 1.414L13 7.414ZM5 13h2.586l-.293.293a1 1 0 1 0 1.414 1.414l2-2a1 1 0 0 0 0-1.414l-2-2a1 1 0 0 0-1.414 1.414l.293.293H5a1 1 0 1 0 0 2Zm6 1v2.586l-.293-.293a1 1 0 0 0-1.414 1.414l2 2a1 1 0 0 0 1.414 0l2-2a1 1 0 0 0-1.414-1.414l-.293.293V14a1 1 0 1 0-2 0Zm8-3h-2.586l.293-.293a1 1 0 0 0-1.414-1.414l-2 2a1 1 0 0 0 0 1.414l2 2a1 1 0 0 0 1.414-1.414L16.414 13H19a1 1 0 1 0 0-2Z"/>
  <path fill="currentColor" d="M12 23C5.925 23 1 18.075 1 12S5.925 1 12 1s11 4.925 11 11-4.925 11-11 11Zm0-2a9 9 0 1 0 0-18 9 9 0 0 0 0 18Z" clip-rule="evenodd"/>
</svg>
