<svg width="32" height="32" fill="none" viewBox="0 0 32 32" xmlns="http://www.w3.org/2000/svg">
  <path fill="currentColor" d="M26.201 6.858a.933.933 0 0 1 0 1.608l-9.73 5.721a.93.93 0 0 1-.943 0l-9.73-5.721a.933.933 0 0 1 0-1.608l9.73-5.73a.93.93 0 0 1 .943 0l9.73 5.73ZM14.568 29.066a.93.93 0 0 1-1.402.804L3.46 24.163a.933.933 0 0 1-.46-.804V11.917a.93.93 0 0 1 1.402-.804l9.706 5.707c.285.168.46.474.46.804v11.442Zm2.864 0a.93.93 0 0 0 1.402.804l9.706-5.707a.933.933 0 0 0 .46-.804V11.917a.93.93 0 0 0-1.402-.804l-9.706 5.707a.933.933 0 0 0-.46.804v11.442Z"/>
</svg>
