<svg width="32" height="32" fill="none" viewBox="0 0 32 32" xmlns="http://www.w3.org/2000/svg">
  <path fill="currentColor" d="M27.313 4.688c-6.25-6.25-16.375-6.25-22.625 0s-6.25 16.375 0 22.625 16.375 6.25 22.625 0 6.25-16.375 0-22.625Zm1.728 9.86-6.89-6.25-7.048 6.655-3.7 3.481v-5.187l5.611-5.333 4.192-3.96a13.158 13.158 0 0 1 7.837 10.593l-.002.002Zm-.125 3.775a13.039 13.039 0 0 1-1.375 3.928l-3.925-3.58v-5.187l5.3 4.839ZM18.006 3.025l-2.964 2.802-3.649 3.46V3.71a13.144 13.144 0 0 1 6.618-.684l-.004-.001Zm-9.483 15.5-5.437-4.882A13.04 13.04 0 0 1 4.514 9.65l4.01 3.6v5.275Zm0-13.306v4.167L6.188 7.294a13.165 13.165 0 0 1 2.335-2.073V5.22ZM2.945 17.375l7.047 6.323 10.743-10.11v5.1l-9.91 9.375a13.154 13.154 0 0 1-7.88-10.688ZM14.03 28.98l6.708-6.342v5.604a13.05 13.05 0 0 1-4.738.883c-.66 0-1.32-.048-1.974-.146l.004.001Zm9.58-2.288v-4.145l2.288 2.071a13.277 13.277 0 0 1-2.281 2.076l-.007-.002Z"/>
</svg>
