<svg width="24" height="24" fill="none" viewBox="0 0 24 24" xmlns="http://www.w3.org/2000/svg">
  <g fill="currentColor" clip-path="url(#prefix__a)">
    <path d="M19.965 7.831C18.975 4.419 15.739 2 12 2 8.603 2 5.594 4 4.338 6.977 2.324 7.943 1 9.943 1 12.187c0 2.343 1.442 4.423 3.614 5.335a1 1 0 1 0 .775-1.844C3.945 15.072 3 13.708 3 12.188c0-1.557.99-2.945 2.483-3.53a1 1 0 0 0 .578-.595C6.92 5.658 9.291 4 12 4c2.99 0 5.539 2.014 6.14 4.765a1 1 0 0 0 .623.722C20.106 9.995 21 11.235 21 12.625c0 .126-.008.252-.022.375h1.55c.152 0 .305.008.457.026.01-.133.015-.266.015-.401 0-2.059-1.203-3.893-3.035-4.794Z"/>
    <path d="M17 11.5v1.523a3.549 3.549 0 0 0-2.068.977H7.5a.5.5 0 0 1-.5-.5v-2a.5.5 0 0 1 .5-.5h9a.5.5 0 0 1 .5.5Zm-8 1a.5.5 0 1 1-1 0 .5.5 0 0 1 1 0Zm4.5.5a.5.5 0 1 0 0-1 .5.5 0 0 0 0 1Zm2.5-.5a.5.5 0 1 1-1 0 .5.5 0 0 1 1 0ZM14.124 15H7.5a.5.5 0 0 0-.5.5v2a.5.5 0 0 0 .5.5h4.476c.128-.27.293-.529.495-.768l.53-.715L13 16.5a.5.5 0 0 1 .37-.483L14.124 15ZM9 16.5a.5.5 0 1 1-1 0 .5.5 0 0 1 1 0Zm2.5.5a.5.5 0 1 0 0-1 .5.5 0 0 0 0 1Zm-4 2h4.173c-.14.963.126 1.97.798 2.768l.171.232H7.5a.5.5 0 0 1-.5-.5v-2a.5.5 0 0 1 .5-.5ZM9 20.5a.5.5 0 1 1-1 0 .5.5 0 0 1 1 0Zm7.181-4.918c.33-.368.723-.582 1.242-.582h5.104c.96 0 1.473.616 1.473 1.5v6c0 .884-.513 1.5-1.473 1.5h-5.104c-.519 0-.912-.214-1.242-.582l-2.148-2.9a1.504 1.504 0 0 1 0-2.036l2.148-2.9Zm1.738 3.937a1.003 1.003 0 1 1-2.006 0 1.003 1.003 0 0 1 2.006 0Z" clip-rule="evenodd"/>
  </g>
  <defs>
    <clipPath id="prefix__a">
      <path fill="#fff" d="M0 0h24v24H0z"/>
    </clipPath>
  </defs>
</svg>
