<svg width="16" height="16" fill="none" viewBox="0 0 16 16" xmlns="http://www.w3.org/2000/svg">
  <g fill="currentColor" clip-path="url(#prefix__a)">
    <path d="M3.5 4a.5.5 0 1 1 0-1 .5.5 0 0 1 0 1ZM5 3.5a.5.5 0 1 0 1 0 .5.5 0 0 0-1 0Zm2.5.5a.5.5 0 1 1 0-1 .5.5 0 0 1 0 1ZM5 8.5a.5.5 0 0 0-.5-.5h-1a.5.5 0 0 0 0 1h1a.5.5 0 0 0 .5-.5ZM4.5 10a.5.5 0 0 1 0 1h-1a.5.5 0 0 1 0-1h1Zm.5 2.5a.5.5 0 0 0-.5-.5h-1a.5.5 0 0 0 0 1h1a.5.5 0 0 0 .5-.5ZM9.5 8h3a.5.5 0 0 1 0 1h-3a.5.5 0 0 1 0-1Zm0 2h1a.5.5 0 0 1 0 1h-1a.5.5 0 0 1 0-1Zm3.5 2.5a.5.5 0 0 0-.5-.5h-3a.5.5 0 0 0 0 1h3a.5.5 0 0 0 .5-.5Z"/>
    <path d="M1 0h14a1 1 0 0 1 1 1v14a1 1 0 0 1-1 1H1a1 1 0 0 1-1-1V1a1 1 0 0 1 1-1Zm1 2v3h12V2H2Zm0 12V7h4v7H2Zm12-7H8v7h6V7Z" clip-rule="evenodd"/>
  </g>
  <defs>
    <clipPath id="prefix__a">
      <path fill="#fff" d="M0 0h16v16H0z"/>
    </clipPath>
  </defs>
</svg>
