<svg width="32" height="32" fill="none" viewBox="0 0 32 32" xmlns="http://www.w3.org/2000/svg">
  <path fill="currentColor" d="M8 9a1 1 0 1 0 0-2 1 1 0 0 0 0 2Zm4-1a1 1 0 1 1-2 0 1 1 0 0 1 2 0Zm2 1a1 1 0 1 0 0-2 1 1 0 0 0 0 2Zm2 6a1 1 0 1 0 0 2h8a1 1 0 1 0 0-2h-8Zm-1 5a1 1 0 0 1 1-1h4a1 1 0 1 1 0 2h-4a1 1 0 0 1-1-1Zm1 3a1 1 0 1 0 0 2h6a1 1 0 1 0 0-2h-6ZM6 16a1 1 0 0 1 1-1h3a1 1 0 1 1 0 2H7a1 1 0 0 1-1-1Zm1 3a1 1 0 1 0 0 2h3a1 1 0 1 0 0-2H7Zm-1 5a1 1 0 0 1 1-1h3a1 1 0 1 1 0 2H7a1 1 0 0 1-1-1Z"/>
  <path fill="currentColor" d="M3 27a2 2 0 0 0 2 2h22a2 2 0 0 0 2-2V5a2 2 0 0 0-2-2H5a2 2 0 0 0-2 2v22ZM5 5h22v6H5V5Zm9 8h13v14H14V13Zm-2 0H5v14h7V13Z" clip-rule="evenodd"/>
</svg>
