<svg width="16" height="16" fill="none" viewBox="0 0 16 16" xmlns="http://www.w3.org/2000/svg">
  <path fill="currentColor" d="m0 16 1.125-4.108A7.914 7.914 0 0 1 .067 7.928C.068 3.556 3.626 0 7.997 0a7.882 7.882 0 0 1 5.61 2.325 7.879 7.879 0 0 1 2.322 5.61c-.002 4.37-3.56 7.928-7.931 7.928h-.004a7.927 7.927 0 0 1-3.79-.965L0 16ZM8.002 2A6.008 6.008 0 0 0 2 7.998a5.983 5.983 0 0 0 .917 3.192l.143.227-.606 2.213 2.27-.596.22.13a5.993 5.993 0 0 0 3.054.837H8a6.008 6.008 0 0 0 5.547-8.296 5.96 5.96 0 0 0-1.303-1.946A5.96 5.96 0 0 0 8.002 2ZM5.57 4.271c.141.006.298.013.446.343.102.225.272.644.407.979.101.248.183.45.204.492.05.099.083.215.017.347l-.029.057a1.077 1.077 0 0 1-.17.273c-.033.04-.068.081-.102.124a3.327 3.327 0 0 1-.195.223c-.1.099-.203.206-.087.405.116.198.514.846 1.103 1.372a5.129 5.129 0 0 0 1.463.925c.054.023.098.042.13.058.199.1.314.083.43-.05.115-.132.495-.578.627-.776.132-.199.264-.166.446-.1.181.067 1.156.546 1.354.645.039.02.075.037.11.053.137.067.23.112.27.178.05.083.05.48-.116.942-.165.463-.974.91-1.337.943l-.106.011c-.336.04-.76.09-2.272-.507-1.863-.735-3.092-2.557-3.344-2.93a2.16 2.16 0 0 0-.041-.061l-.003-.004c-.107-.143-.806-1.078-.806-2.046 0-.912.448-1.39.654-1.61l.04-.043a.728.728 0 0 1 .528-.247l.38.004Z" clip-rule="evenodd"/>
</svg>
