<svg width="16" height="16" fill="none" viewBox="0 0 16 16" xmlns="http://www.w3.org/2000/svg">
  <path fill="currentColor" d="M15 10V2a1 1 0 0 0-1-1H2a1 1 0 0 0-1 1v9a1 1 0 0 0 1 1h5v1H6a1 1 0 1 0 0 2h3.176l-.224-.28a1.786 1.786 0 0 1 0-2.44l1.297-1.618.032-.034A1.988 1.988 0 0 1 11.746 10H3V9h10v1h2Zm-2-3H3V3h10v4Z" clip-rule="evenodd"/>
  <path fill="currentColor" d="M11.746 11a.99.99 0 0 0-.746.323l-1.291 1.612a.79.79 0 0 0 0 1.13l1.29 1.612a.99.99 0 0 0 .747.323h3.368c.577 0 .886-.342.886-.833v-3.334c0-.49-.309-.833-.886-.833h-3.368Zm-.246 3a.5.5 0 1 0 0-1 .5.5 0 0 0 0 1Z" clip-rule="evenodd"/>
</svg>
