<svg width="24" height="24" fill="none" viewBox="0 0 24 24" xmlns="http://www.w3.org/2000/svg">
  <path fill="currentColor" d="M18 24a6 6 0 1 0 0-12 6 6 0 0 0 0 12Zm1-8.5c0-.276.245-.5.5-.5h1.038c.255 0 .462.224.462.5v5c0 .276-.207.5-.462.5h-5.077c-.254 0-.461-.224-.461-.5v-5c0-.276.207-.5.461-.5H16.5c.255 0 .5.224.5.5v2h2v-2Z" clip-rule="evenodd"/>
  <path fill="currentColor" d="M1.5 3.75A1.5 1.5 0 0 1 3 2.25h18a1.5 1.5 0 0 1 1.5 1.5v7.635A7.962 7.962 0 0 0 18 10a7.999 7.999 0 0 0-7.068 4.25H1.5V3.75Zm8.82 12H1.5v1.5a1.5 1.5 0 0 0 1.5 1.5h6l-.634 2.534a.375.375 0 0 0 .364.466h2.202A7.964 7.964 0 0 1 10 18c0-.781.112-1.536.32-2.25Zm2.996 6A5.974 5.974 0 0 1 12 18c0-.796.155-1.555.436-2.25H15v4.75c0 .276.207.5.461.5h.101l.072.284a.375.375 0 0 1-.364.466h-1.954Z"/>
  <path fill="currentColor" d="M22.5 14.031v.219h-9.184A5.989 5.989 0 0 1 18 12c1.792 0 3.4.786 4.5 2.031ZM21 18.75a1.5 1.5 0 0 0 1.5-1.5v-1.5H21v3Zm-2-3h-2v1.75h2v-1.75Z"/>
</svg>
